<?xml version="1.0" encoding="utf-8" standalone="no"?>
<!DOCTYPE svg PUBLIC "-//W3C//DTD SVG 1.1//EN"
  "http://www.w3.org/Graphics/SVG/1.1/DTD/svg11.dtd">
<!-- Created with matplotlib (https://matplotlib.org/) -->
<svg height="360pt" version="1.1" viewBox="0 0 720 360" width="720pt" xmlns="http://www.w3.org/2000/svg" xmlns:xlink="http://www.w3.org/1999/xlink">
 <metadata>
  <rdf:RDF xmlns:cc="http://creativecommons.org/ns#" xmlns:dc="http://purl.org/dc/elements/1.1/" xmlns:rdf="http://www.w3.org/1999/02/22-rdf-syntax-ns#">
   <cc:Work>
    <dc:type rdf:resource="http://purl.org/dc/dcmitype/StillImage"/>
    <dc:date>2021-02-03T15:25:20.460083</dc:date>
    <dc:format>image/svg+xml</dc:format>
    <dc:creator>
     <cc:Agent>
      <dc:title>Matplotlib v3.3.2, https://matplotlib.org/</dc:title>
     </cc:Agent>
    </dc:creator>
   </cc:Work>
  </rdf:RDF>
 </metadata>
 <defs>
  <style type="text/css">*{stroke-linecap:butt;stroke-linejoin:round;}</style>
 </defs>
 <g id="figure_1">
  <g id="patch_1">
   <path d="M 0 360 
L 720 360 
L 720 0 
L 0 0 
z
" style="fill:#ffffff;"/>
  </g>
  <g id="axes_1">
   <g id="patch_2">
    <path d="M 90 315 
L 648 315 
L 648 43.2 
L 90 43.2 
z
" style="fill:#ffffff;"/>
   </g>
   <g id="PolyCollection_1">
    <defs>
     <path d="M 90 -57.354545 
L 90 -109.458215 
L 91.829508 -109.119499 
L 93.659016 -111.652882 
L 95.488525 -107.904354 
L 97.318033 -109.832187 
L 99.147541 -111.528182 
L 100.977049 -110.063333 
L 102.806557 -107.802669 
L 104.636066 -111.765784 
L 106.465574 -110.355763 
L 108.295082 -105.799313 
L 110.12459 -111.335504 
L 111.954098 -107.556572 
L 113.783607 -109.171905 
L 115.613115 -107.914309 
L 117.442623 -108.414201 
L 119.272131 -108.054336 
L 121.101639 -107.36927 
L 122.931148 -109.390868 
L 124.760656 -108.927089 
L 126.590164 -109.987495 
L 128.419672 -112.972415 
L 130.24918 -113.191663 
L 132.078689 -111.062708 
L 133.908197 -115.727372 
L 135.737705 -114.735473 
L 137.567213 -117.733607 
L 139.396721 -122.252364 
L 141.22623 -121.990037 
L 143.055738 -123.049512 
L 144.885246 -131.730563 
L 146.714754 -132.124419 
L 148.544262 -129.476693 
L 150.37377 -135.764737 
L 152.203279 -137.365419 
L 154.032787 -140.705561 
L 155.862295 -143.652919 
L 157.691803 -144.259355 
L 159.521311 -155.558071 
L 161.35082 -159.309123 
L 163.180328 -159.46975 
L 165.009836 -167.754551 
L 166.839344 -173.417129 
L 168.668852 -171.640728 
L 170.498361 -179.383787 
L 172.327869 -182.024076 
L 174.157377 -188.719831 
L 175.986885 -190.882423 
L 177.816393 -200.256863 
L 179.645902 -206.191695 
L 181.47541 -206.692824 
L 183.304918 -209.770252 
L 185.134426 -216.365054 
L 186.963934 -223.918318 
L 188.793443 -228.960944 
L 190.622951 -234.994763 
L 192.452459 -235.323333 
L 194.281967 -240.199891 
L 196.111475 -249.453786 
L 197.940984 -267.382848 
L 199.770492 -266.988965 
L 201.6 -264.774505 
L 203.429508 -265.331974 
L 205.259016 -269.663359 
L 207.088525 -270.50868 
L 208.918033 -276.685576 
L 210.747541 -288.528543 
L 212.577049 -286.592567 
L 214.406557 -282.078752 
L 216.236066 -284.749227 
L 218.065574 -292.642532 
L 219.895082 -287.02329 
L 221.72459 -285.070153 
L 223.554098 -291.982034 
L 225.383607 -300.842706 
L 227.213115 -299.435918 
L 229.042623 -298.691969 
L 230.872131 -298.232126 
L 232.701639 -301.282293 
L 234.531148 -304.445455 
L 236.360656 -295.581953 
L 238.190164 -294.45021 
L 240.019672 -293.517004 
L 241.84918 -296.58372 
L 243.678689 -292.667103 
L 245.508197 -285.621505 
L 247.337705 -278.630738 
L 249.167213 -279.280887 
L 250.996721 -275.2612 
L 252.82623 -271.139095 
L 254.655738 -264.905173 
L 256.485246 -257.05479 
L 258.314754 -247.048817 
L 260.144262 -240.885333 
L 261.97377 -237.567116 
L 263.803279 -229.894858 
L 265.632787 -223.716579 
L 267.462295 -218.491182 
L 269.291803 -204.636692 
L 271.121311 -200.919966 
L 272.95082 -194.358271 
L 274.780328 -189.504069 
L 276.609836 -180.796266 
L 278.439344 -175.098177 
L 280.268852 -168.071929 
L 282.098361 -165.582986 
L 283.927869 -159.963914 
L 285.757377 -157.771099 
L 287.586885 -154.597745 
L 289.416393 -153.873176 
L 291.245902 -153.942125 
L 293.07541 -152.933094 
L 294.904918 -155.907292 
L 296.734426 -153.075403 
L 298.563934 -153.438863 
L 300.393443 -149.709003 
L 302.222951 -154.961297 
L 304.052459 -158.461843 
L 305.881967 -157.449906 
L 307.711475 -162.005263 
L 309.540984 -164.082039 
L 311.370492 -163.888734 
L 313.2 -168.620937 
L 315.029508 -168.451217 
L 316.859016 -173.611827 
L 318.688525 -177.064701 
L 320.518033 -176.965691 
L 322.347541 -183.107743 
L 324.177049 -185.296504 
L 326.006557 -192.063698 
L 327.836066 -197.488301 
L 329.665574 -194.859942 
L 331.495082 -202.459635 
L 333.32459 -202.650191 
L 335.154098 -209.709535 
L 336.983607 -206.649436 
L 338.813115 -209.349158 
L 340.642623 -213.106916 
L 342.472131 -213.503361 
L 344.301639 -210.677746 
L 346.131148 -209.446278 
L 347.960656 -209.438306 
L 349.790164 -212.736988 
L 351.619672 -215.077282 
L 353.44918 -214.663565 
L 355.278689 -222.51026 
L 357.108197 -219.776299 
L 358.937705 -221.679216 
L 360.767213 -226.227218 
L 362.596721 -227.735146 
L 364.42623 -229.438049 
L 366.255738 -233.588227 
L 368.085246 -230.694123 
L 369.914754 -237.212218 
L 371.744262 -238.861398 
L 373.57377 -245.02259 
L 375.403279 -247.690049 
L 377.232787 -247.605962 
L 379.062295 -250.511877 
L 380.891803 -252.419428 
L 382.721311 -251.652312 
L 384.55082 -246.459464 
L 386.380328 -248.956973 
L 388.209836 -243.412337 
L 390.039344 -244.947544 
L 391.868852 -230.127277 
L 393.698361 -229.256306 
L 395.527869 -219.021027 
L 397.357377 -213.838976 
L 399.186885 -205.727364 
L 401.016393 -196.678407 
L 402.845902 -190.493756 
L 404.67541 -178.224286 
L 406.504918 -171.19734 
L 408.334426 -166.974563 
L 410.163934 -156.463647 
L 411.993443 -148.540753 
L 413.822951 -143.192397 
L 415.652459 -136.983101 
L 417.481967 -127.268761 
L 419.311475 -123.694426 
L 421.140984 -120.602621 
L 422.970492 -114.022039 
L 424.8 -107.559969 
L 426.629508 -103.387168 
L 428.459016 -102.930432 
L 430.288525 -99.530866 
L 432.118033 -96.082184 
L 433.947541 -93.160655 
L 435.777049 -90.032466 
L 437.606557 -88.740601 
L 439.436066 -88.312071 
L 441.265574 -86.033178 
L 443.095082 -86.074476 
L 444.92459 -88.319629 
L 446.754098 -87.464348 
L 448.583607 -85.613659 
L 450.413115 -86.822707 
L 452.242623 -88.862933 
L 454.072131 -91.318647 
L 455.901639 -91.209912 
L 457.731148 -95.06619 
L 459.560656 -95.177913 
L 461.390164 -96.266568 
L 463.219672 -98.361059 
L 465.04918 -100.730617 
L 466.878689 -102.530877 
L 468.708197 -107.240406 
L 470.537705 -110.246894 
L 472.367213 -111.691242 
L 474.196721 -114.581963 
L 476.02623 -118.85673 
L 477.855738 -121.337497 
L 479.685246 -126.809834 
L 481.514754 -127.709746 
L 483.344262 -137.412106 
L 485.17377 -142.604914 
L 487.003279 -146.83968 
L 488.832787 -150.282308 
L 490.662295 -150.745105 
L 492.491803 -163.053913 
L 494.321311 -166.036549 
L 496.15082 -171.245229 
L 497.980328 -175.039804 
L 499.809836 -186.025368 
L 501.639344 -197.202176 
L 503.468852 -201.095289 
L 505.298361 -205.764686 
L 507.127869 -212.321296 
L 508.957377 -217.626308 
L 510.786885 -222.258639 
L 512.616393 -228.79195 
L 514.445902 -239.862117 
L 516.27541 -238.897943 
L 518.104918 -242.368496 
L 519.934426 -248.344129 
L 521.763934 -248.430943 
L 523.593443 -245.754083 
L 525.422951 -247.316594 
L 527.252459 -253.196757 
L 529.081967 -250.723816 
L 530.911475 -247.031125 
L 532.740984 -246.329667 
L 534.570492 -246.55496 
L 536.4 -244.762722 
L 538.229508 -246.494044 
L 540.059016 -248.646571 
L 541.888525 -243.323009 
L 543.718033 -243.312536 
L 545.547541 -244.406948 
L 547.377049 -242.939896 
L 549.206557 -252.639951 
L 551.036066 -246.310113 
L 552.865574 -245.44246 
L 554.695082 -241.493611 
L 556.52459 -245.662598 
L 558.354098 -240.810019 
L 560.183607 -237.038855 
L 562.013115 -237.2373 
L 563.842623 -236.697652 
L 565.672131 -232.649341 
L 567.501639 -234.394855 
L 569.331148 -229.334673 
L 571.160656 -230.995877 
L 572.990164 -231.498842 
L 574.819672 -227.277042 
L 576.64918 -222.076538 
L 578.478689 -228.432197 
L 580.308197 -230.527976 
L 582.137705 -227.774041 
L 583.967213 -227.480348 
L 585.796721 -223.925537 
L 587.62623 -232.310793 
L 589.455738 -233.858466 
L 591.285246 -225.303949 
L 593.114754 -228.158024 
L 594.944262 -224.112365 
L 596.77377 -225.351704 
L 598.603279 -220.194252 
L 600.432787 -219.615158 
L 602.262295 -219.823032 
L 604.091803 -218.747092 
L 605.921311 -218.649845 
L 607.75082 -213.11178 
L 609.580328 -216.597994 
L 611.409836 -212.026548 
L 613.239344 -212.458098 
L 615.068852 -213.744459 
L 616.898361 -213.972484 
L 618.727869 -214.400656 
L 620.557377 -211.056544 
L 622.386885 -212.319404 
L 624.216393 -215.600049 
L 626.045902 -212.430991 
L 627.87541 -216.494568 
L 629.704918 -219.8778 
L 631.534426 -217.841495 
L 633.363934 -223.851197 
L 635.193443 -222.048672 
L 637.022951 -226.44609 
L 638.852459 -231.307806 
L 640.681967 -233.298856 
L 642.511475 -230.561339 
L 644.340984 -235.496196 
L 646.170492 -234.999287 
L 648 -240.105229 
L 649.829508 -244.532434 
L 651.659016 -248.709506 
L 653.488525 -246.970935 
L 655.318033 -250.030349 
L 657.147541 -252.365571 
L 658.977049 -253.720815 
L 660.806557 -265.930625 
L 662.636066 -262.393366 
L 662.636066 -125.252052 
L 662.636066 -125.252052 
L 660.806557 -132.543624 
L 658.977049 -126.569387 
L 657.147541 -130.061188 
L 655.318033 -131.811018 
L 653.488525 -138.265397 
L 651.659016 -140.539906 
L 649.829508 -142.490536 
L 648 -141.68931 
L 646.170492 -141.100877 
L 644.340984 -147.210024 
L 642.511475 -149.604499 
L 640.681967 -156.381002 
L 638.852459 -156.612174 
L 637.022951 -157.786673 
L 635.193443 -155.657698 
L 633.363934 -160.494453 
L 631.534426 -158.259551 
L 629.704918 -164.826049 
L 627.87541 -163.829391 
L 626.045902 -158.025301 
L 624.216393 -162.297401 
L 622.386885 -158.499171 
L 620.557377 -157.359076 
L 618.727869 -160.354234 
L 616.898361 -161.543469 
L 615.068852 -162.490554 
L 613.239344 -163.891434 
L 611.409836 -163.455443 
L 609.580328 -165.177629 
L 607.75082 -161.475322 
L 605.921311 -165.079531 
L 604.091803 -166.926814 
L 602.262295 -166.864663 
L 600.432787 -167.765515 
L 598.603279 -166.216499 
L 596.77377 -172.043832 
L 594.944262 -171.361749 
L 593.114754 -174.371457 
L 591.285246 -168.525053 
L 589.455738 -176.374806 
L 587.62623 -176.792264 
L 585.796721 -170.914058 
L 583.967213 -171.346063 
L 582.137705 -173.990524 
L 580.308197 -175.251913 
L 578.478689 -175.957613 
L 576.64918 -168.897946 
L 574.819672 -174.735198 
L 572.990164 -176.85626 
L 571.160656 -176.708905 
L 569.331148 -172.944941 
L 567.501639 -177.646442 
L 565.672131 -175.146031 
L 563.842623 -178.495956 
L 562.013115 -178.371944 
L 560.183607 -175.93208 
L 558.354098 -182.600208 
L 556.52459 -186.577609 
L 554.695082 -179.665931 
L 552.865574 -184.787785 
L 551.036066 -183.367831 
L 549.206557 -187.760091 
L 547.377049 -179.052284 
L 545.547541 -180.239797 
L 543.718033 -179.992574 
L 541.888525 -183.140589 
L 540.059016 -186.721939 
L 538.229508 -184.39288 
L 536.4 -184.533122 
L 534.570492 -181.408658 
L 532.740984 -183.352583 
L 530.911475 -179.361528 
L 529.081967 -183.626271 
L 527.252459 -186.345179 
L 525.422951 -178.929162 
L 523.593443 -181.198714 
L 521.763934 -180.805054 
L 519.934426 -181.00405 
L 518.104918 -173.73725 
L 516.27541 -173.080302 
L 514.445902 -173.854226 
L 512.616393 -164.916345 
L 510.786885 -164.096277 
L 508.957377 -159.888543 
L 507.127869 -153.694854 
L 505.298361 -149.454542 
L 503.468852 -145.394481 
L 501.639344 -142.669578 
L 499.809836 -136.227828 
L 497.980328 -127.147453 
L 496.15082 -124.768781 
L 494.321311 -121.935297 
L 492.491803 -117.857229 
L 490.662295 -107.393384 
L 488.832787 -109.17783 
L 487.003279 -107.327507 
L 485.17377 -103.720784 
L 483.344262 -99.791136 
L 481.514754 -91.823321 
L 479.685246 -91.534322 
L 477.855738 -86.849967 
L 476.02623 -86.447146 
L 474.196721 -83.226219 
L 472.367213 -81.013597 
L 470.537705 -80.185532 
L 468.708197 -77.177723 
L 466.878689 -74.625273 
L 465.04918 -73.228271 
L 463.219672 -71.471884 
L 461.390164 -70.171682 
L 459.560656 -70.083997 
L 457.731148 -70.302508 
L 455.901639 -66.354547 
L 454.072131 -66.167259 
L 452.242623 -64.451201 
L 450.413115 -63.151982 
L 448.583607 -62.461396 
L 446.754098 -64.422193 
L 444.92459 -65.080429 
L 443.095082 -62.699671 
L 441.265574 -62.982191 
L 439.436066 -65.387399 
L 437.606557 -65.552804 
L 435.777049 -66.654254 
L 433.947541 -68.433314 
L 432.118033 -72.121653 
L 430.288525 -73.732636 
L 428.459016 -75.803227 
L 426.629508 -76.934804 
L 424.8 -81.132959 
L 422.970492 -85.840054 
L 421.140984 -90.307326 
L 419.311475 -93.64289 
L 417.481967 -96.12832 
L 415.652459 -102.971977 
L 413.822951 -107.871044 
L 411.993443 -110.04954 
L 410.163934 -118.465426 
L 408.334426 -127.853963 
L 406.504918 -130.345311 
L 404.67541 -136.01181 
L 402.845902 -144.895071 
L 401.016393 -150.410301 
L 399.186885 -157.722627 
L 397.357377 -162.836258 
L 395.527869 -166.392187 
L 393.698361 -175.002202 
L 391.868852 -175.142903 
L 390.039344 -185.70796 
L 388.209836 -183.895086 
L 386.380328 -188.785248 
L 384.55082 -189.208257 
L 382.721311 -191.099038 
L 380.891803 -193.140202 
L 379.062295 -189.708451 
L 377.232787 -191.079854 
L 375.403279 -188.716018 
L 373.57377 -187.556961 
L 371.744262 -181.779952 
L 369.914754 -182.844527 
L 368.085246 -173.849991 
L 366.255738 -176.423414 
L 364.42623 -173.57455 
L 362.596721 -171.883478 
L 360.767213 -171.839114 
L 358.937705 -169.596312 
L 357.108197 -166.19591 
L 355.278689 -168.441991 
L 353.44918 -162.597486 
L 351.619672 -164.69891 
L 349.790164 -161.967926 
L 347.960656 -158.079174 
L 346.131148 -157.906988 
L 344.301639 -159.081984 
L 342.472131 -159.691719 
L 340.642623 -159.924764 
L 338.813115 -158.911019 
L 336.983607 -156.521214 
L 335.154098 -159.612691 
L 333.32459 -152.393221 
L 331.495082 -152.350053 
L 329.665574 -145.895509 
L 327.836066 -149.438432 
L 326.006557 -144.437493 
L 324.177049 -140.297359 
L 322.347541 -137.372301 
L 320.518033 -133.497877 
L 318.688525 -134.541825 
L 316.859016 -130.784762 
L 315.029508 -125.22704 
L 313.2 -125.707831 
L 311.370492 -120.804375 
L 309.540984 -122.159617 
L 307.711475 -121.060403 
L 305.881967 -116.102542 
L 304.052459 -118.066724 
L 302.222951 -115.232863 
L 300.393443 -113.230343 
L 298.563934 -116.137226 
L 296.734426 -114.647911 
L 294.904918 -116.679631 
L 293.07541 -115.391003 
L 291.245902 -116.474329 
L 289.416393 -117.175546 
L 287.586885 -119.257586 
L 285.757377 -120.623031 
L 283.927869 -121.677593 
L 282.098361 -124.476077 
L 280.268852 -124.770499 
L 278.439344 -132.547479 
L 276.609836 -134.093459 
L 274.780328 -140.609239 
L 272.95082 -143.989847 
L 271.121311 -148.38487 
L 269.291803 -149.563127 
L 267.462295 -160.110678 
L 265.632787 -162.010017 
L 263.803279 -170.912071 
L 261.97377 -177.198072 
L 260.144262 -178.025472 
L 258.314754 -184.651631 
L 256.485246 -194.603307 
L 254.655738 -198.072978 
L 252.82623 -202.821991 
L 250.996721 -204.589153 
L 249.167213 -205.546803 
L 247.337705 -205.295595 
L 245.508197 -210.13087 
L 243.678689 -214.127037 
L 241.84918 -217.017082 
L 240.019672 -216.061138 
L 238.190164 -211.43836 
L 236.360656 -209.951549 
L 234.531148 -221.060759 
L 232.701639 -217.442372 
L 230.872131 -210.870104 
L 229.042623 -213.577956 
L 227.213115 -216.241019 
L 225.383607 -215.963552 
L 223.554098 -206.436076 
L 221.72459 -198.18064 
L 219.895082 -198.892887 
L 218.065574 -203.99852 
L 216.236066 -196.796155 
L 214.406557 -193.757915 
L 212.577049 -197.787544 
L 210.747541 -201.519915 
L 208.918033 -190.429146 
L 207.088525 -185.364628 
L 205.259016 -182.448388 
L 203.429508 -179.185162 
L 201.6 -181.418546 
L 199.770492 -181.451335 
L 197.940984 -181.658995 
L 196.111475 -168.305877 
L 194.281967 -164.10221 
L 192.452459 -165.116793 
L 190.622951 -163.538997 
L 188.793443 -160.2077 
L 186.963934 -152.57052 
L 185.134426 -149.159648 
L 183.304918 -143.719578 
L 181.47541 -140.144707 
L 179.645902 -141.269382 
L 177.816393 -135.517323 
L 175.986885 -125.617714 
L 174.157377 -123.744808 
L 172.327869 -120.444437 
L 170.498361 -120.9537 
L 168.668852 -113.950841 
L 166.839344 -116.420841 
L 165.009836 -112.448428 
L 163.180328 -106.828205 
L 161.35082 -108.583537 
L 159.521311 -104.28602 
L 157.691803 -94.201862 
L 155.862295 -95.585257 
L 154.032787 -95.060052 
L 152.203279 -92.290713 
L 150.37377 -92.27504 
L 148.544262 -87.413576 
L 146.714754 -89.948122 
L 144.885246 -90.77818 
L 143.055738 -84.131326 
L 141.22623 -83.051918 
L 139.396721 -83.481432 
L 137.567213 -78.589714 
L 135.737705 -77.408975 
L 133.908197 -78.949468 
L 132.078689 -73.115722 
L 130.24918 -75.867225 
L 128.419672 -75.030229 
L 126.590164 -71.709634 
L 124.760656 -71.102374 
L 122.931148 -72.829348 
L 121.101639 -69.468199 
L 119.272131 -71.019251 
L 117.442623 -70.514281 
L 115.613115 -67.908371 
L 113.783607 -69.319758 
L 111.954098 -66.451919 
L 110.12459 -70.042301 
L 108.295082 -63.31437 
L 106.465574 -66.883892 
L 104.636066 -67.971594 
L 102.806557 -63.860308 
L 100.977049 -64.160589 
L 99.147541 -64.096503 
L 97.318033 -62.427331 
L 95.488525 -60.735932 
L 93.659016 -61.908689 
L 91.829508 -57.506378 
L 90 -57.354545 
z
" id="m807fcf4b3b" style="stroke:#fdcbb6;stroke-opacity:0.8;"/>
    </defs>
    <g clip-path="url(#pf3af899e5c)">
     <use style="fill:#fdcbb6;fill-opacity:0.8;stroke:#fdcbb6;stroke-opacity:0.8;" x="0" xlink:href="#m807fcf4b3b" y="360"/>
    </g>
   </g>
   <g id="matplotlib.axis_1">
    <g id="xtick_1">
     <g id="line2d_1">
      <defs>
       <path d="M 0 0 
L 0 3.5 
" id="m2747a3e46b" style="stroke:#000000;stroke-width:0.8;"/>
      </defs>
      <g>
       <use style="stroke:#000000;stroke-width:0.8;" x="90" xlink:href="#m2747a3e46b" y="315"/>
      </g>
     </g>
    </g>
    <g id="xtick_2">
     <g id="line2d_2">
      <g>
       <use style="stroke:#000000;stroke-width:0.8;" x="102.806557" xlink:href="#m2747a3e46b" y="315"/>
      </g>
     </g>
     <g id="text_1">
      <!-- Apr -->
      <g transform="translate(94.156557 329.598437)scale(0.1 -0.1)">
       <defs>
        <path d="M 34.1875 63.1875 
L 20.796875 26.90625 
L 47.609375 26.90625 
z
M 28.609375 72.90625 
L 39.796875 72.90625 
L 67.578125 0 
L 57.328125 0 
L 50.6875 18.703125 
L 17.828125 18.703125 
L 11.1875 0 
L 0.78125 0 
z
" id="DejaVuSans-65"/>
        <path d="M 18.109375 8.203125 
L 18.109375 -20.796875 
L 9.078125 -20.796875 
L 9.078125 54.6875 
L 18.109375 54.6875 
L 18.109375 46.390625 
Q 20.953125 51.265625 25.265625 53.625 
Q 29.59375 56 35.59375 56 
Q 45.5625 56 51.78125 48.09375 
Q 58.015625 40.1875 58.015625 27.296875 
Q 58.015625 14.40625 51.78125 6.484375 
Q 45.5625 -1.421875 35.59375 -1.421875 
Q 29.59375 -1.421875 25.265625 0.953125 
Q 20.953125 3.328125 18.109375 8.203125 
z
M 48.6875 27.296875 
Q 48.6875 37.203125 44.609375 42.84375 
Q 40.53125 48.484375 33.40625 48.484375 
Q 26.265625 48.484375 22.1875 42.84375 
Q 18.109375 37.203125 18.109375 27.296875 
Q 18.109375 17.390625 22.1875 11.75 
Q 26.265625 6.109375 33.40625 6.109375 
Q 40.53125 6.109375 44.609375 11.75 
Q 48.6875 17.390625 48.6875 27.296875 
z
" id="DejaVuSans-112"/>
        <path d="M 41.109375 46.296875 
Q 39.59375 47.171875 37.8125 47.578125 
Q 36.03125 48 33.890625 48 
Q 26.265625 48 22.1875 43.046875 
Q 18.109375 38.09375 18.109375 28.8125 
L 18.109375 0 
L 9.078125 0 
L 9.078125 54.6875 
L 18.109375 54.6875 
L 18.109375 46.1875 
Q 20.953125 51.171875 25.484375 53.578125 
Q 30.03125 56 36.53125 56 
Q 37.453125 56 38.578125 55.875 
Q 39.703125 55.765625 41.0625 55.515625 
z
" id="DejaVuSans-114"/>
       </defs>
       <use xlink:href="#DejaVuSans-65"/>
       <use x="68.408203" xlink:href="#DejaVuSans-112"/>
       <use x="131.884766" xlink:href="#DejaVuSans-114"/>
      </g>
     </g>
    </g>
    <g id="xtick_3">
     <g id="line2d_3">
      <g>
       <use style="stroke:#000000;stroke-width:0.8;" x="157.691803" xlink:href="#m2747a3e46b" y="315"/>
      </g>
     </g>
     <g id="text_2">
      <!-- May -->
      <g transform="translate(147.354303 329.598437)scale(0.1 -0.1)">
       <defs>
        <path d="M 9.8125 72.90625 
L 24.515625 72.90625 
L 43.109375 23.296875 
L 61.8125 72.90625 
L 76.515625 72.90625 
L 76.515625 0 
L 66.890625 0 
L 66.890625 64.015625 
L 48.09375 14.015625 
L 38.1875 14.015625 
L 19.390625 64.015625 
L 19.390625 0 
L 9.8125 0 
z
" id="DejaVuSans-77"/>
        <path d="M 34.28125 27.484375 
Q 23.390625 27.484375 19.1875 25 
Q 14.984375 22.515625 14.984375 16.5 
Q 14.984375 11.71875 18.140625 8.90625 
Q 21.296875 6.109375 26.703125 6.109375 
Q 34.1875 6.109375 38.703125 11.40625 
Q 43.21875 16.703125 43.21875 25.484375 
L 43.21875 27.484375 
z
M 52.203125 31.203125 
L 52.203125 0 
L 43.21875 0 
L 43.21875 8.296875 
Q 40.140625 3.328125 35.546875 0.953125 
Q 30.953125 -1.421875 24.3125 -1.421875 
Q 15.921875 -1.421875 10.953125 3.296875 
Q 6 8.015625 6 15.921875 
Q 6 25.140625 12.171875 29.828125 
Q 18.359375 34.515625 30.609375 34.515625 
L 43.21875 34.515625 
L 43.21875 35.40625 
Q 43.21875 41.609375 39.140625 45 
Q 35.0625 48.390625 27.6875 48.390625 
Q 23 48.390625 18.546875 47.265625 
Q 14.109375 46.140625 10.015625 43.890625 
L 10.015625 52.203125 
Q 14.9375 54.109375 19.578125 55.046875 
Q 24.21875 56 28.609375 56 
Q 40.484375 56 46.34375 49.84375 
Q 52.203125 43.703125 52.203125 31.203125 
z
" id="DejaVuSans-97"/>
        <path d="M 32.171875 -5.078125 
Q 28.375 -14.84375 24.75 -17.8125 
Q 21.140625 -20.796875 15.09375 -20.796875 
L 7.90625 -20.796875 
L 7.90625 -13.28125 
L 13.1875 -13.28125 
Q 16.890625 -13.28125 18.9375 -11.515625 
Q 21 -9.765625 23.484375 -3.21875 
L 25.09375 0.875 
L 2.984375 54.6875 
L 12.5 54.6875 
L 29.59375 11.921875 
L 46.6875 54.6875 
L 56.203125 54.6875 
z
" id="DejaVuSans-121"/>
       </defs>
       <use xlink:href="#DejaVuSans-77"/>
       <use x="86.279297" xlink:href="#DejaVuSans-97"/>
       <use x="147.558594" xlink:href="#DejaVuSans-121"/>
      </g>
     </g>
    </g>
    <g id="xtick_4">
     <g id="line2d_4">
      <g>
       <use style="stroke:#000000;stroke-width:0.8;" x="214.406557" xlink:href="#m2747a3e46b" y="315"/>
      </g>
     </g>
     <g id="text_3">
      <!-- Jun -->
      <g transform="translate(206.594057 329.598437)scale(0.1 -0.1)">
       <defs>
        <path d="M 9.8125 72.90625 
L 19.671875 72.90625 
L 19.671875 5.078125 
Q 19.671875 -8.109375 14.671875 -14.0625 
Q 9.671875 -20.015625 -1.421875 -20.015625 
L -5.171875 -20.015625 
L -5.171875 -11.71875 
L -2.09375 -11.71875 
Q 4.4375 -11.71875 7.125 -8.046875 
Q 9.8125 -4.390625 9.8125 5.078125 
z
" id="DejaVuSans-74"/>
        <path d="M 8.5 21.578125 
L 8.5 54.6875 
L 17.484375 54.6875 
L 17.484375 21.921875 
Q 17.484375 14.15625 20.5 10.265625 
Q 23.53125 6.390625 29.59375 6.390625 
Q 36.859375 6.390625 41.078125 11.03125 
Q 45.3125 15.671875 45.3125 23.6875 
L 45.3125 54.6875 
L 54.296875 54.6875 
L 54.296875 0 
L 45.3125 0 
L 45.3125 8.40625 
Q 42.046875 3.421875 37.71875 1 
Q 33.40625 -1.421875 27.6875 -1.421875 
Q 18.265625 -1.421875 13.375 4.4375 
Q 8.5 10.296875 8.5 21.578125 
z
M 31.109375 56 
z
" id="DejaVuSans-117"/>
        <path d="M 54.890625 33.015625 
L 54.890625 0 
L 45.90625 0 
L 45.90625 32.71875 
Q 45.90625 40.484375 42.875 44.328125 
Q 39.84375 48.1875 33.796875 48.1875 
Q 26.515625 48.1875 22.3125 43.546875 
Q 18.109375 38.921875 18.109375 30.90625 
L 18.109375 0 
L 9.078125 0 
L 9.078125 54.6875 
L 18.109375 54.6875 
L 18.109375 46.1875 
Q 21.34375 51.125 25.703125 53.5625 
Q 30.078125 56 35.796875 56 
Q 45.21875 56 50.046875 50.171875 
Q 54.890625 44.34375 54.890625 33.015625 
z
" id="DejaVuSans-110"/>
       </defs>
       <use xlink:href="#DejaVuSans-74"/>
       <use x="29.492188" xlink:href="#DejaVuSans-117"/>
       <use x="92.871094" xlink:href="#DejaVuSans-110"/>
      </g>
     </g>
    </g>
    <g id="xtick_5">
     <g id="line2d_5">
      <g>
       <use style="stroke:#000000;stroke-width:0.8;" x="269.291803" xlink:href="#m2747a3e46b" y="315"/>
      </g>
     </g>
     <g id="text_4">
      <!-- Jul -->
      <g transform="translate(263.258991 329.598437)scale(0.1 -0.1)">
       <defs>
        <path d="M 9.421875 75.984375 
L 18.40625 75.984375 
L 18.40625 0 
L 9.421875 0 
z
" id="DejaVuSans-108"/>
       </defs>
       <use xlink:href="#DejaVuSans-74"/>
       <use x="29.492188" xlink:href="#DejaVuSans-117"/>
       <use x="92.871094" xlink:href="#DejaVuSans-108"/>
      </g>
     </g>
    </g>
    <g id="xtick_6">
     <g id="line2d_6">
      <g>
       <use style="stroke:#000000;stroke-width:0.8;" x="326.006557" xlink:href="#m2747a3e46b" y="315"/>
      </g>
     </g>
     <g id="text_5">
      <!-- Aug -->
      <g transform="translate(316.243276 329.598437)scale(0.1 -0.1)">
       <defs>
        <path d="M 45.40625 27.984375 
Q 45.40625 37.75 41.375 43.109375 
Q 37.359375 48.484375 30.078125 48.484375 
Q 22.859375 48.484375 18.828125 43.109375 
Q 14.796875 37.75 14.796875 27.984375 
Q 14.796875 18.265625 18.828125 12.890625 
Q 22.859375 7.515625 30.078125 7.515625 
Q 37.359375 7.515625 41.375 12.890625 
Q 45.40625 18.265625 45.40625 27.984375 
z
M 54.390625 6.78125 
Q 54.390625 -7.171875 48.1875 -13.984375 
Q 42 -20.796875 29.203125 -20.796875 
Q 24.46875 -20.796875 20.265625 -20.09375 
Q 16.0625 -19.390625 12.109375 -17.921875 
L 12.109375 -9.1875 
Q 16.0625 -11.328125 19.921875 -12.34375 
Q 23.78125 -13.375 27.78125 -13.375 
Q 36.625 -13.375 41.015625 -8.765625 
Q 45.40625 -4.15625 45.40625 5.171875 
L 45.40625 9.625 
Q 42.625 4.78125 38.28125 2.390625 
Q 33.9375 0 27.875 0 
Q 17.828125 0 11.671875 7.65625 
Q 5.515625 15.328125 5.515625 27.984375 
Q 5.515625 40.671875 11.671875 48.328125 
Q 17.828125 56 27.875 56 
Q 33.9375 56 38.28125 53.609375 
Q 42.625 51.21875 45.40625 46.390625 
L 45.40625 54.6875 
L 54.390625 54.6875 
z
" id="DejaVuSans-103"/>
       </defs>
       <use xlink:href="#DejaVuSans-65"/>
       <use x="68.408203" xlink:href="#DejaVuSans-117"/>
       <use x="131.787109" xlink:href="#DejaVuSans-103"/>
      </g>
     </g>
    </g>
    <g id="xtick_7">
     <g id="line2d_7">
      <g>
       <use style="stroke:#000000;stroke-width:0.8;" x="382.721311" xlink:href="#m2747a3e46b" y="315"/>
      </g>
     </g>
     <g id="text_6">
      <!-- Sep -->
      <g transform="translate(373.296311 329.598437)scale(0.1 -0.1)">
       <defs>
        <path d="M 53.515625 70.515625 
L 53.515625 60.890625 
Q 47.90625 63.578125 42.921875 64.890625 
Q 37.9375 66.21875 33.296875 66.21875 
Q 25.25 66.21875 20.875 63.09375 
Q 16.5 59.96875 16.5 54.203125 
Q 16.5 49.359375 19.40625 46.890625 
Q 22.3125 44.4375 30.421875 42.921875 
L 36.375 41.703125 
Q 47.40625 39.59375 52.65625 34.296875 
Q 57.90625 29 57.90625 20.125 
Q 57.90625 9.515625 50.796875 4.046875 
Q 43.703125 -1.421875 29.984375 -1.421875 
Q 24.8125 -1.421875 18.96875 -0.25 
Q 13.140625 0.921875 6.890625 3.21875 
L 6.890625 13.375 
Q 12.890625 10.015625 18.65625 8.296875 
Q 24.421875 6.59375 29.984375 6.59375 
Q 38.421875 6.59375 43.015625 9.90625 
Q 47.609375 13.234375 47.609375 19.390625 
Q 47.609375 24.75 44.3125 27.78125 
Q 41.015625 30.8125 33.5 32.328125 
L 27.484375 33.5 
Q 16.453125 35.6875 11.515625 40.375 
Q 6.59375 45.0625 6.59375 53.421875 
Q 6.59375 63.09375 13.40625 68.65625 
Q 20.21875 74.21875 32.171875 74.21875 
Q 37.3125 74.21875 42.625 73.28125 
Q 47.953125 72.359375 53.515625 70.515625 
z
" id="DejaVuSans-83"/>
        <path d="M 56.203125 29.59375 
L 56.203125 25.203125 
L 14.890625 25.203125 
Q 15.484375 15.921875 20.484375 11.0625 
Q 25.484375 6.203125 34.421875 6.203125 
Q 39.59375 6.203125 44.453125 7.46875 
Q 49.3125 8.734375 54.109375 11.28125 
L 54.109375 2.78125 
Q 49.265625 0.734375 44.1875 -0.34375 
Q 39.109375 -1.421875 33.890625 -1.421875 
Q 20.796875 -1.421875 13.15625 6.1875 
Q 5.515625 13.8125 5.515625 26.8125 
Q 5.515625 40.234375 12.765625 48.109375 
Q 20.015625 56 32.328125 56 
Q 43.359375 56 49.78125 48.890625 
Q 56.203125 41.796875 56.203125 29.59375 
z
M 47.21875 32.234375 
Q 47.125 39.59375 43.09375 43.984375 
Q 39.0625 48.390625 32.421875 48.390625 
Q 24.90625 48.390625 20.390625 44.140625 
Q 15.875 39.890625 15.1875 32.171875 
z
" id="DejaVuSans-101"/>
       </defs>
       <use xlink:href="#DejaVuSans-83"/>
       <use x="63.476562" xlink:href="#DejaVuSans-101"/>
       <use x="125" xlink:href="#DejaVuSans-112"/>
      </g>
     </g>
    </g>
    <g id="xtick_8">
     <g id="line2d_8">
      <g>
       <use style="stroke:#000000;stroke-width:0.8;" x="437.606557" xlink:href="#m2747a3e46b" y="315"/>
      </g>
     </g>
     <g id="text_7">
      <!-- Oct -->
      <g transform="translate(428.961245 329.598437)scale(0.1 -0.1)">
       <defs>
        <path d="M 39.40625 66.21875 
Q 28.65625 66.21875 22.328125 58.203125 
Q 16.015625 50.203125 16.015625 36.375 
Q 16.015625 22.609375 22.328125 14.59375 
Q 28.65625 6.59375 39.40625 6.59375 
Q 50.140625 6.59375 56.421875 14.59375 
Q 62.703125 22.609375 62.703125 36.375 
Q 62.703125 50.203125 56.421875 58.203125 
Q 50.140625 66.21875 39.40625 66.21875 
z
M 39.40625 74.21875 
Q 54.734375 74.21875 63.90625 63.9375 
Q 73.09375 53.65625 73.09375 36.375 
Q 73.09375 19.140625 63.90625 8.859375 
Q 54.734375 -1.421875 39.40625 -1.421875 
Q 24.03125 -1.421875 14.8125 8.828125 
Q 5.609375 19.09375 5.609375 36.375 
Q 5.609375 53.65625 14.8125 63.9375 
Q 24.03125 74.21875 39.40625 74.21875 
z
" id="DejaVuSans-79"/>
        <path d="M 48.78125 52.59375 
L 48.78125 44.1875 
Q 44.96875 46.296875 41.140625 47.34375 
Q 37.3125 48.390625 33.40625 48.390625 
Q 24.65625 48.390625 19.8125 42.84375 
Q 14.984375 37.3125 14.984375 27.296875 
Q 14.984375 17.28125 19.8125 11.734375 
Q 24.65625 6.203125 33.40625 6.203125 
Q 37.3125 6.203125 41.140625 7.25 
Q 44.96875 8.296875 48.78125 10.40625 
L 48.78125 2.09375 
Q 45.015625 0.34375 40.984375 -0.53125 
Q 36.96875 -1.421875 32.421875 -1.421875 
Q 20.0625 -1.421875 12.78125 6.34375 
Q 5.515625 14.109375 5.515625 27.296875 
Q 5.515625 40.671875 12.859375 48.328125 
Q 20.21875 56 33.015625 56 
Q 37.15625 56 41.109375 55.140625 
Q 45.0625 54.296875 48.78125 52.59375 
z
" id="DejaVuSans-99"/>
        <path d="M 18.3125 70.21875 
L 18.3125 54.6875 
L 36.8125 54.6875 
L 36.8125 47.703125 
L 18.3125 47.703125 
L 18.3125 18.015625 
Q 18.3125 11.328125 20.140625 9.421875 
Q 21.96875 7.515625 27.59375 7.515625 
L 36.8125 7.515625 
L 36.8125 0 
L 27.59375 0 
Q 17.1875 0 13.234375 3.875 
Q 9.28125 7.765625 9.28125 18.015625 
L 9.28125 47.703125 
L 2.6875 47.703125 
L 2.6875 54.6875 
L 9.28125 54.6875 
L 9.28125 70.21875 
z
" id="DejaVuSans-116"/>
       </defs>
       <use xlink:href="#DejaVuSans-79"/>
       <use x="78.710938" xlink:href="#DejaVuSans-99"/>
       <use x="133.691406" xlink:href="#DejaVuSans-116"/>
      </g>
     </g>
    </g>
    <g id="xtick_9">
     <g id="line2d_9">
      <g>
       <use style="stroke:#000000;stroke-width:0.8;" x="494.321311" xlink:href="#m2747a3e46b" y="315"/>
      </g>
     </g>
     <g id="text_8">
      <!-- Nov -->
      <g transform="translate(484.561936 329.598437)scale(0.1 -0.1)">
       <defs>
        <path d="M 9.8125 72.90625 
L 23.09375 72.90625 
L 55.421875 11.921875 
L 55.421875 72.90625 
L 64.984375 72.90625 
L 64.984375 0 
L 51.703125 0 
L 19.390625 60.984375 
L 19.390625 0 
L 9.8125 0 
z
" id="DejaVuSans-78"/>
        <path d="M 30.609375 48.390625 
Q 23.390625 48.390625 19.1875 42.75 
Q 14.984375 37.109375 14.984375 27.296875 
Q 14.984375 17.484375 19.15625 11.84375 
Q 23.34375 6.203125 30.609375 6.203125 
Q 37.796875 6.203125 41.984375 11.859375 
Q 46.1875 17.53125 46.1875 27.296875 
Q 46.1875 37.015625 41.984375 42.703125 
Q 37.796875 48.390625 30.609375 48.390625 
z
M 30.609375 56 
Q 42.328125 56 49.015625 48.375 
Q 55.71875 40.765625 55.71875 27.296875 
Q 55.71875 13.875 49.015625 6.21875 
Q 42.328125 -1.421875 30.609375 -1.421875 
Q 18.84375 -1.421875 12.171875 6.21875 
Q 5.515625 13.875 5.515625 27.296875 
Q 5.515625 40.765625 12.171875 48.375 
Q 18.84375 56 30.609375 56 
z
" id="DejaVuSans-111"/>
        <path d="M 2.984375 54.6875 
L 12.5 54.6875 
L 29.59375 8.796875 
L 46.6875 54.6875 
L 56.203125 54.6875 
L 35.6875 0 
L 23.484375 0 
z
" id="DejaVuSans-118"/>
       </defs>
       <use xlink:href="#DejaVuSans-78"/>
       <use x="74.804688" xlink:href="#DejaVuSans-111"/>
       <use x="135.986328" xlink:href="#DejaVuSans-118"/>
      </g>
     </g>
    </g>
    <g id="xtick_10">
     <g id="line2d_10">
      <g>
       <use style="stroke:#000000;stroke-width:0.8;" x="549.206557" xlink:href="#m2747a3e46b" y="315"/>
      </g>
     </g>
     <g id="text_9">
      <!-- Dec -->
      <g transform="translate(539.530776 329.598437)scale(0.1 -0.1)">
       <defs>
        <path d="M 19.671875 64.796875 
L 19.671875 8.109375 
L 31.59375 8.109375 
Q 46.6875 8.109375 53.6875 14.9375 
Q 60.6875 21.78125 60.6875 36.53125 
Q 60.6875 51.171875 53.6875 57.984375 
Q 46.6875 64.796875 31.59375 64.796875 
z
M 9.8125 72.90625 
L 30.078125 72.90625 
Q 51.265625 72.90625 61.171875 64.09375 
Q 71.09375 55.28125 71.09375 36.53125 
Q 71.09375 17.671875 61.125 8.828125 
Q 51.171875 0 30.078125 0 
L 9.8125 0 
z
" id="DejaVuSans-68"/>
       </defs>
       <use xlink:href="#DejaVuSans-68"/>
       <use x="77.001953" xlink:href="#DejaVuSans-101"/>
       <use x="138.525391" xlink:href="#DejaVuSans-99"/>
      </g>
     </g>
    </g>
    <g id="xtick_11">
     <g id="line2d_11">
      <g>
       <use style="stroke:#000000;stroke-width:0.8;" x="605.921311" xlink:href="#m2747a3e46b" y="315"/>
      </g>
     </g>
     <g id="text_10">
      <!-- Jan -->
      <g transform="translate(598.213499 329.598437)scale(0.1 -0.1)">
       <use xlink:href="#DejaVuSans-74"/>
       <use x="29.492188" xlink:href="#DejaVuSans-97"/>
       <use x="90.771484" xlink:href="#DejaVuSans-110"/>
      </g>
      <!-- 2021 -->
      <g transform="translate(593.196311 340.79625)scale(0.1 -0.1)">
       <defs>
        <path d="M 19.1875 8.296875 
L 53.609375 8.296875 
L 53.609375 0 
L 7.328125 0 
L 7.328125 8.296875 
Q 12.9375 14.109375 22.625 23.890625 
Q 32.328125 33.6875 34.8125 36.53125 
Q 39.546875 41.84375 41.421875 45.53125 
Q 43.3125 49.21875 43.3125 52.78125 
Q 43.3125 58.59375 39.234375 62.25 
Q 35.15625 65.921875 28.609375 65.921875 
Q 23.96875 65.921875 18.8125 64.3125 
Q 13.671875 62.703125 7.8125 59.421875 
L 7.8125 69.390625 
Q 13.765625 71.78125 18.9375 73 
Q 24.125 74.21875 28.421875 74.21875 
Q 39.75 74.21875 46.484375 68.546875 
Q 53.21875 62.890625 53.21875 53.421875 
Q 53.21875 48.921875 51.53125 44.890625 
Q 49.859375 40.875 45.40625 35.40625 
Q 44.1875 33.984375 37.640625 27.21875 
Q 31.109375 20.453125 19.1875 8.296875 
z
" id="DejaVuSans-50"/>
        <path d="M 31.78125 66.40625 
Q 24.171875 66.40625 20.328125 58.90625 
Q 16.5 51.421875 16.5 36.375 
Q 16.5 21.390625 20.328125 13.890625 
Q 24.171875 6.390625 31.78125 6.390625 
Q 39.453125 6.390625 43.28125 13.890625 
Q 47.125 21.390625 47.125 36.375 
Q 47.125 51.421875 43.28125 58.90625 
Q 39.453125 66.40625 31.78125 66.40625 
z
M 31.78125 74.21875 
Q 44.046875 74.21875 50.515625 64.515625 
Q 56.984375 54.828125 56.984375 36.375 
Q 56.984375 17.96875 50.515625 8.265625 
Q 44.046875 -1.421875 31.78125 -1.421875 
Q 19.53125 -1.421875 13.0625 8.265625 
Q 6.59375 17.96875 6.59375 36.375 
Q 6.59375 54.828125 13.0625 64.515625 
Q 19.53125 74.21875 31.78125 74.21875 
z
" id="DejaVuSans-48"/>
        <path d="M 12.40625 8.296875 
L 28.515625 8.296875 
L 28.515625 63.921875 
L 10.984375 60.40625 
L 10.984375 69.390625 
L 28.421875 72.90625 
L 38.28125 72.90625 
L 38.28125 8.296875 
L 54.390625 8.296875 
L 54.390625 0 
L 12.40625 0 
z
" id="DejaVuSans-49"/>
       </defs>
       <use xlink:href="#DejaVuSans-50"/>
       <use x="63.623047" xlink:href="#DejaVuSans-48"/>
       <use x="127.246094" xlink:href="#DejaVuSans-50"/>
       <use x="190.869141" xlink:href="#DejaVuSans-49"/>
      </g>
     </g>
    </g>
    <g id="xtick_12">
     <g id="line2d_12">
      <g>
       <use style="stroke:#000000;stroke-width:0.8;" x="648" xlink:href="#m2747a3e46b" y="315"/>
      </g>
     </g>
    </g>
    <g id="xtick_13">
     <g id="line2d_13">
      <defs>
       <path d="M 0 0 
L 0 2 
" id="mb3bfa45f95" style="stroke:#000000;stroke-width:0.6;"/>
      </defs>
      <g>
       <use style="stroke:#000000;stroke-width:0.6;" x="99.147541" xlink:href="#mb3bfa45f95" y="315"/>
      </g>
     </g>
    </g>
    <g id="xtick_14">
     <g id="line2d_14">
      <g>
       <use style="stroke:#000000;stroke-width:0.6;" x="111.954098" xlink:href="#mb3bfa45f95" y="315"/>
      </g>
     </g>
    </g>
    <g id="xtick_15">
     <g id="line2d_15">
      <g>
       <use style="stroke:#000000;stroke-width:0.6;" x="124.760656" xlink:href="#mb3bfa45f95" y="315"/>
      </g>
     </g>
    </g>
    <g id="xtick_16">
     <g id="line2d_16">
      <g>
       <use style="stroke:#000000;stroke-width:0.6;" x="137.567213" xlink:href="#mb3bfa45f95" y="315"/>
      </g>
     </g>
    </g>
    <g id="xtick_17">
     <g id="line2d_17">
      <g>
       <use style="stroke:#000000;stroke-width:0.6;" x="150.37377" xlink:href="#mb3bfa45f95" y="315"/>
      </g>
     </g>
    </g>
    <g id="xtick_18">
     <g id="line2d_18">
      <g>
       <use style="stroke:#000000;stroke-width:0.6;" x="163.180328" xlink:href="#mb3bfa45f95" y="315"/>
      </g>
     </g>
    </g>
    <g id="xtick_19">
     <g id="line2d_19">
      <g>
       <use style="stroke:#000000;stroke-width:0.6;" x="175.986885" xlink:href="#mb3bfa45f95" y="315"/>
      </g>
     </g>
    </g>
    <g id="xtick_20">
     <g id="line2d_20">
      <g>
       <use style="stroke:#000000;stroke-width:0.6;" x="188.793443" xlink:href="#mb3bfa45f95" y="315"/>
      </g>
     </g>
    </g>
    <g id="xtick_21">
     <g id="line2d_21">
      <g>
       <use style="stroke:#000000;stroke-width:0.6;" x="201.6" xlink:href="#mb3bfa45f95" y="315"/>
      </g>
     </g>
    </g>
    <g id="xtick_22">
     <g id="line2d_22">
      <g>
       <use style="stroke:#000000;stroke-width:0.6;" x="227.213115" xlink:href="#mb3bfa45f95" y="315"/>
      </g>
     </g>
    </g>
    <g id="xtick_23">
     <g id="line2d_23">
      <g>
       <use style="stroke:#000000;stroke-width:0.6;" x="240.019672" xlink:href="#mb3bfa45f95" y="315"/>
      </g>
     </g>
    </g>
    <g id="xtick_24">
     <g id="line2d_24">
      <g>
       <use style="stroke:#000000;stroke-width:0.6;" x="252.82623" xlink:href="#mb3bfa45f95" y="315"/>
      </g>
     </g>
    </g>
    <g id="xtick_25">
     <g id="line2d_25">
      <g>
       <use style="stroke:#000000;stroke-width:0.6;" x="265.632787" xlink:href="#mb3bfa45f95" y="315"/>
      </g>
     </g>
    </g>
    <g id="xtick_26">
     <g id="line2d_26">
      <g>
       <use style="stroke:#000000;stroke-width:0.6;" x="278.439344" xlink:href="#mb3bfa45f95" y="315"/>
      </g>
     </g>
    </g>
    <g id="xtick_27">
     <g id="line2d_27">
      <g>
       <use style="stroke:#000000;stroke-width:0.6;" x="291.245902" xlink:href="#mb3bfa45f95" y="315"/>
      </g>
     </g>
    </g>
    <g id="xtick_28">
     <g id="line2d_28">
      <g>
       <use style="stroke:#000000;stroke-width:0.6;" x="304.052459" xlink:href="#mb3bfa45f95" y="315"/>
      </g>
     </g>
    </g>
    <g id="xtick_29">
     <g id="line2d_29">
      <g>
       <use style="stroke:#000000;stroke-width:0.6;" x="316.859016" xlink:href="#mb3bfa45f95" y="315"/>
      </g>
     </g>
    </g>
    <g id="xtick_30">
     <g id="line2d_30">
      <g>
       <use style="stroke:#000000;stroke-width:0.6;" x="329.665574" xlink:href="#mb3bfa45f95" y="315"/>
      </g>
     </g>
    </g>
    <g id="xtick_31">
     <g id="line2d_31">
      <g>
       <use style="stroke:#000000;stroke-width:0.6;" x="342.472131" xlink:href="#mb3bfa45f95" y="315"/>
      </g>
     </g>
    </g>
    <g id="xtick_32">
     <g id="line2d_32">
      <g>
       <use style="stroke:#000000;stroke-width:0.6;" x="355.278689" xlink:href="#mb3bfa45f95" y="315"/>
      </g>
     </g>
    </g>
    <g id="xtick_33">
     <g id="line2d_33">
      <g>
       <use style="stroke:#000000;stroke-width:0.6;" x="368.085246" xlink:href="#mb3bfa45f95" y="315"/>
      </g>
     </g>
    </g>
    <g id="xtick_34">
     <g id="line2d_34">
      <g>
       <use style="stroke:#000000;stroke-width:0.6;" x="380.891803" xlink:href="#mb3bfa45f95" y="315"/>
      </g>
     </g>
    </g>
    <g id="xtick_35">
     <g id="line2d_35">
      <g>
       <use style="stroke:#000000;stroke-width:0.6;" x="393.698361" xlink:href="#mb3bfa45f95" y="315"/>
      </g>
     </g>
    </g>
    <g id="xtick_36">
     <g id="line2d_36">
      <g>
       <use style="stroke:#000000;stroke-width:0.6;" x="406.504918" xlink:href="#mb3bfa45f95" y="315"/>
      </g>
     </g>
    </g>
    <g id="xtick_37">
     <g id="line2d_37">
      <g>
       <use style="stroke:#000000;stroke-width:0.6;" x="419.311475" xlink:href="#mb3bfa45f95" y="315"/>
      </g>
     </g>
    </g>
    <g id="xtick_38">
     <g id="line2d_38">
      <g>
       <use style="stroke:#000000;stroke-width:0.6;" x="432.118033" xlink:href="#mb3bfa45f95" y="315"/>
      </g>
     </g>
    </g>
    <g id="xtick_39">
     <g id="line2d_39">
      <g>
       <use style="stroke:#000000;stroke-width:0.6;" x="444.92459" xlink:href="#mb3bfa45f95" y="315"/>
      </g>
     </g>
    </g>
    <g id="xtick_40">
     <g id="line2d_40">
      <g>
       <use style="stroke:#000000;stroke-width:0.6;" x="457.731148" xlink:href="#mb3bfa45f95" y="315"/>
      </g>
     </g>
    </g>
    <g id="xtick_41">
     <g id="line2d_41">
      <g>
       <use style="stroke:#000000;stroke-width:0.6;" x="470.537705" xlink:href="#mb3bfa45f95" y="315"/>
      </g>
     </g>
    </g>
    <g id="xtick_42">
     <g id="line2d_42">
      <g>
       <use style="stroke:#000000;stroke-width:0.6;" x="483.344262" xlink:href="#mb3bfa45f95" y="315"/>
      </g>
     </g>
    </g>
    <g id="xtick_43">
     <g id="line2d_43">
      <g>
       <use style="stroke:#000000;stroke-width:0.6;" x="496.15082" xlink:href="#mb3bfa45f95" y="315"/>
      </g>
     </g>
    </g>
    <g id="xtick_44">
     <g id="line2d_44">
      <g>
       <use style="stroke:#000000;stroke-width:0.6;" x="508.957377" xlink:href="#mb3bfa45f95" y="315"/>
      </g>
     </g>
    </g>
    <g id="xtick_45">
     <g id="line2d_45">
      <g>
       <use style="stroke:#000000;stroke-width:0.6;" x="521.763934" xlink:href="#mb3bfa45f95" y="315"/>
      </g>
     </g>
    </g>
    <g id="xtick_46">
     <g id="line2d_46">
      <g>
       <use style="stroke:#000000;stroke-width:0.6;" x="534.570492" xlink:href="#mb3bfa45f95" y="315"/>
      </g>
     </g>
    </g>
    <g id="xtick_47">
     <g id="line2d_47">
      <g>
       <use style="stroke:#000000;stroke-width:0.6;" x="547.377049" xlink:href="#mb3bfa45f95" y="315"/>
      </g>
     </g>
    </g>
    <g id="xtick_48">
     <g id="line2d_48">
      <g>
       <use style="stroke:#000000;stroke-width:0.6;" x="560.183607" xlink:href="#mb3bfa45f95" y="315"/>
      </g>
     </g>
    </g>
    <g id="xtick_49">
     <g id="line2d_49">
      <g>
       <use style="stroke:#000000;stroke-width:0.6;" x="572.990164" xlink:href="#mb3bfa45f95" y="315"/>
      </g>
     </g>
    </g>
    <g id="xtick_50">
     <g id="line2d_50">
      <g>
       <use style="stroke:#000000;stroke-width:0.6;" x="585.796721" xlink:href="#mb3bfa45f95" y="315"/>
      </g>
     </g>
    </g>
    <g id="xtick_51">
     <g id="line2d_51">
      <g>
       <use style="stroke:#000000;stroke-width:0.6;" x="598.603279" xlink:href="#mb3bfa45f95" y="315"/>
      </g>
     </g>
    </g>
    <g id="xtick_52">
     <g id="line2d_52">
      <g>
       <use style="stroke:#000000;stroke-width:0.6;" x="611.409836" xlink:href="#mb3bfa45f95" y="315"/>
      </g>
     </g>
    </g>
    <g id="xtick_53">
     <g id="line2d_53">
      <g>
       <use style="stroke:#000000;stroke-width:0.6;" x="624.216393" xlink:href="#mb3bfa45f95" y="315"/>
      </g>
     </g>
    </g>
    <g id="xtick_54">
     <g id="line2d_54">
      <g>
       <use style="stroke:#000000;stroke-width:0.6;" x="637.022951" xlink:href="#mb3bfa45f95" y="315"/>
      </g>
     </g>
    </g>
    <g id="text_11">
     <!-- date -->
     <g transform="translate(357.725 354.474375)scale(0.1 -0.1)">
      <defs>
       <path d="M 45.40625 46.390625 
L 45.40625 75.984375 
L 54.390625 75.984375 
L 54.390625 0 
L 45.40625 0 
L 45.40625 8.203125 
Q 42.578125 3.328125 38.25 0.953125 
Q 33.9375 -1.421875 27.875 -1.421875 
Q 17.96875 -1.421875 11.734375 6.484375 
Q 5.515625 14.40625 5.515625 27.296875 
Q 5.515625 40.1875 11.734375 48.09375 
Q 17.96875 56 27.875 56 
Q 33.9375 56 38.25 53.625 
Q 42.578125 51.265625 45.40625 46.390625 
z
M 14.796875 27.296875 
Q 14.796875 17.390625 18.875 11.75 
Q 22.953125 6.109375 30.078125 6.109375 
Q 37.203125 6.109375 41.296875 11.75 
Q 45.40625 17.390625 45.40625 27.296875 
Q 45.40625 37.203125 41.296875 42.84375 
Q 37.203125 48.484375 30.078125 48.484375 
Q 22.953125 48.484375 18.875 42.84375 
Q 14.796875 37.203125 14.796875 27.296875 
z
" id="DejaVuSans-100"/>
      </defs>
      <use xlink:href="#DejaVuSans-100"/>
      <use x="63.476562" xlink:href="#DejaVuSans-97"/>
      <use x="124.755859" xlink:href="#DejaVuSans-116"/>
      <use x="163.964844" xlink:href="#DejaVuSans-101"/>
     </g>
    </g>
   </g>
   <g id="matplotlib.axis_2">
    <g id="ytick_1">
     <g id="line2d_55">
      <path clip-path="url(#pf3af899e5c)" d="M 90 282.686592 
L 648 282.686592 
" style="fill:none;stroke:#b0b0b0;stroke-dasharray:0.8,1.32;stroke-dashoffset:0;stroke-width:0.8;"/>
     </g>
     <g id="line2d_56">
      <defs>
       <path d="M 0 0 
L -3.5 0 
" id="m6a60e623ed" style="stroke:#000000;stroke-width:0.8;"/>
      </defs>
      <g>
       <use style="stroke:#000000;stroke-width:0.8;" x="90" xlink:href="#m6a60e623ed" y="282.686592"/>
      </g>
     </g>
     <g id="text_12">
      <!-- 0.50 -->
      <g transform="translate(60.734375 286.485811)scale(0.1 -0.1)">
       <defs>
        <path d="M 10.6875 12.40625 
L 21 12.40625 
L 21 0 
L 10.6875 0 
z
" id="DejaVuSans-46"/>
        <path d="M 10.796875 72.90625 
L 49.515625 72.90625 
L 49.515625 64.59375 
L 19.828125 64.59375 
L 19.828125 46.734375 
Q 21.96875 47.46875 24.109375 47.828125 
Q 26.265625 48.1875 28.421875 48.1875 
Q 40.625 48.1875 47.75 41.5 
Q 54.890625 34.8125 54.890625 23.390625 
Q 54.890625 11.625 47.5625 5.09375 
Q 40.234375 -1.421875 26.90625 -1.421875 
Q 22.3125 -1.421875 17.546875 -0.640625 
Q 12.796875 0.140625 7.71875 1.703125 
L 7.71875 11.625 
Q 12.109375 9.234375 16.796875 8.0625 
Q 21.484375 6.890625 26.703125 6.890625 
Q 35.15625 6.890625 40.078125 11.328125 
Q 45.015625 15.765625 45.015625 23.390625 
Q 45.015625 31 40.078125 35.4375 
Q 35.15625 39.890625 26.703125 39.890625 
Q 22.75 39.890625 18.8125 39.015625 
Q 14.890625 38.140625 10.796875 36.28125 
z
" id="DejaVuSans-53"/>
       </defs>
       <use xlink:href="#DejaVuSans-48"/>
       <use x="63.623047" xlink:href="#DejaVuSans-46"/>
       <use x="95.410156" xlink:href="#DejaVuSans-53"/>
       <use x="159.033203" xlink:href="#DejaVuSans-48"/>
      </g>
     </g>
    </g>
    <g id="ytick_2">
     <g id="line2d_57">
      <path clip-path="url(#pf3af899e5c)" d="M 90 245.423174 
L 648 245.423174 
" style="fill:none;stroke:#b0b0b0;stroke-dasharray:0.8,1.32;stroke-dashoffset:0;stroke-width:0.8;"/>
     </g>
     <g id="line2d_58">
      <g>
       <use style="stroke:#000000;stroke-width:0.8;" x="90" xlink:href="#m6a60e623ed" y="245.423174"/>
      </g>
     </g>
     <g id="text_13">
      <!-- 0.75 -->
      <g transform="translate(60.734375 249.222393)scale(0.1 -0.1)">
       <defs>
        <path d="M 8.203125 72.90625 
L 55.078125 72.90625 
L 55.078125 68.703125 
L 28.609375 0 
L 18.3125 0 
L 43.21875 64.59375 
L 8.203125 64.59375 
z
" id="DejaVuSans-55"/>
       </defs>
       <use xlink:href="#DejaVuSans-48"/>
       <use x="63.623047" xlink:href="#DejaVuSans-46"/>
       <use x="95.410156" xlink:href="#DejaVuSans-55"/>
       <use x="159.033203" xlink:href="#DejaVuSans-53"/>
      </g>
     </g>
    </g>
    <g id="ytick_3">
     <g id="line2d_59">
      <path clip-path="url(#pf3af899e5c)" d="M 90 208.159756 
L 648 208.159756 
" style="fill:none;stroke:#b0b0b0;stroke-dasharray:0.8,1.32;stroke-dashoffset:0;stroke-width:0.8;"/>
     </g>
     <g id="line2d_60">
      <g>
       <use style="stroke:#000000;stroke-width:0.8;" x="90" xlink:href="#m6a60e623ed" y="208.159756"/>
      </g>
     </g>
     <g id="text_14">
      <!-- 1.00 -->
      <g transform="translate(60.734375 211.958975)scale(0.1 -0.1)">
       <use xlink:href="#DejaVuSans-49"/>
       <use x="63.623047" xlink:href="#DejaVuSans-46"/>
       <use x="95.410156" xlink:href="#DejaVuSans-48"/>
       <use x="159.033203" xlink:href="#DejaVuSans-48"/>
      </g>
     </g>
    </g>
    <g id="ytick_4">
     <g id="line2d_61">
      <path clip-path="url(#pf3af899e5c)" d="M 90 170.896338 
L 648 170.896338 
" style="fill:none;stroke:#b0b0b0;stroke-dasharray:0.8,1.32;stroke-dashoffset:0;stroke-width:0.8;"/>
     </g>
     <g id="line2d_62">
      <g>
       <use style="stroke:#000000;stroke-width:0.8;" x="90" xlink:href="#m6a60e623ed" y="170.896338"/>
      </g>
     </g>
     <g id="text_15">
      <!-- 1.25 -->
      <g transform="translate(60.734375 174.695556)scale(0.1 -0.1)">
       <use xlink:href="#DejaVuSans-49"/>
       <use x="63.623047" xlink:href="#DejaVuSans-46"/>
       <use x="95.410156" xlink:href="#DejaVuSans-50"/>
       <use x="159.033203" xlink:href="#DejaVuSans-53"/>
      </g>
     </g>
    </g>
    <g id="ytick_5">
     <g id="line2d_63">
      <path clip-path="url(#pf3af899e5c)" d="M 90 133.632919 
L 648 133.632919 
" style="fill:none;stroke:#b0b0b0;stroke-dasharray:0.8,1.32;stroke-dashoffset:0;stroke-width:0.8;"/>
     </g>
     <g id="line2d_64">
      <g>
       <use style="stroke:#000000;stroke-width:0.8;" x="90" xlink:href="#m6a60e623ed" y="133.632919"/>
      </g>
     </g>
     <g id="text_16">
      <!-- 1.50 -->
      <g transform="translate(60.734375 137.432138)scale(0.1 -0.1)">
       <use xlink:href="#DejaVuSans-49"/>
       <use x="63.623047" xlink:href="#DejaVuSans-46"/>
       <use x="95.410156" xlink:href="#DejaVuSans-53"/>
       <use x="159.033203" xlink:href="#DejaVuSans-48"/>
      </g>
     </g>
    </g>
    <g id="ytick_6">
     <g id="line2d_65">
      <path clip-path="url(#pf3af899e5c)" d="M 90 96.369501 
L 648 96.369501 
" style="fill:none;stroke:#b0b0b0;stroke-dasharray:0.8,1.32;stroke-dashoffset:0;stroke-width:0.8;"/>
     </g>
     <g id="line2d_66">
      <g>
       <use style="stroke:#000000;stroke-width:0.8;" x="90" xlink:href="#m6a60e623ed" y="96.369501"/>
      </g>
     </g>
     <g id="text_17">
      <!-- 1.75 -->
      <g transform="translate(60.734375 100.16872)scale(0.1 -0.1)">
       <use xlink:href="#DejaVuSans-49"/>
       <use x="63.623047" xlink:href="#DejaVuSans-46"/>
       <use x="95.410156" xlink:href="#DejaVuSans-55"/>
       <use x="159.033203" xlink:href="#DejaVuSans-53"/>
      </g>
     </g>
    </g>
    <g id="ytick_7">
     <g id="line2d_67">
      <path clip-path="url(#pf3af899e5c)" d="M 90 59.106083 
L 648 59.106083 
" style="fill:none;stroke:#b0b0b0;stroke-dasharray:0.8,1.32;stroke-dashoffset:0;stroke-width:0.8;"/>
     </g>
     <g id="line2d_68">
      <g>
       <use style="stroke:#000000;stroke-width:0.8;" x="90" xlink:href="#m6a60e623ed" y="59.106083"/>
      </g>
     </g>
     <g id="text_18">
      <!-- 2.00 -->
      <g transform="translate(60.734375 62.905302)scale(0.1 -0.1)">
       <use xlink:href="#DejaVuSans-50"/>
       <use x="63.623047" xlink:href="#DejaVuSans-46"/>
       <use x="95.410156" xlink:href="#DejaVuSans-48"/>
       <use x="159.033203" xlink:href="#DejaVuSans-48"/>
      </g>
     </g>
    </g>
   </g>
   <g id="line2d_69">
    <path clip-path="url(#pf3af899e5c)" d="M 90 274.197725 
L 91.829508 274.141189 
L 95.488525 273.688245 
L 97.318033 273.3399 
L 99.147541 273.155385 
L 100.977049 273.792347 
L 102.806557 273.602767 
L 104.636066 272.408038 
L 108.295082 271.892146 
L 110.12459 272.053781 
L 113.783607 271.971967 
L 115.613115 271.324152 
L 117.442623 270.845976 
L 119.272131 271.408915 
L 121.101639 270.637095 
L 122.931148 270.315391 
L 124.760656 269.10204 
L 126.590164 268.661962 
L 128.419672 268.433683 
L 130.24918 266.791021 
L 133.908197 264.032367 
L 135.737705 262.287664 
L 137.567213 261.216895 
L 141.22623 256.478893 
L 143.055738 255.139264 
L 144.885246 252.291187 
L 146.714754 251.225549 
L 148.544262 249.179602 
L 150.37377 246.751151 
L 152.203279 243.524468 
L 154.032787 240.603578 
L 155.862295 238.462116 
L 159.521311 232.488259 
L 161.35082 228.850207 
L 163.180328 224.938296 
L 165.009836 222.013539 
L 166.839344 218.435962 
L 168.668852 215.416697 
L 170.498361 210.762165 
L 172.327869 205.650384 
L 174.157377 201.660517 
L 175.986885 198.255226 
L 177.816393 194.195854 
L 179.645902 189.537571 
L 181.47541 184.136665 
L 183.304918 179.422684 
L 185.134426 175.615742 
L 186.963934 170.080753 
L 188.793443 167.215893 
L 190.622951 162.946966 
L 192.452459 157.349651 
L 194.281967 153.443092 
L 196.111475 148.640287 
L 197.940984 142.625058 
L 199.770492 140.311808 
L 201.6 137.25061 
L 203.429508 133.451245 
L 205.259016 128.965021 
L 207.088525 126.602168 
L 208.918033 124.457222 
L 210.747541 120.737368 
L 212.577049 119.937675 
L 214.406557 118.496993 
L 216.236066 116.193353 
L 218.065574 113.312976 
L 219.895082 112.926296 
L 225.383607 106.277326 
L 227.213115 105.960166 
L 229.042623 103.937173 
L 230.872131 100.244065 
L 232.701639 101.147326 
L 234.531148 102.623493 
L 236.360656 102.378937 
L 238.190164 104.412931 
L 240.019672 102.665456 
L 241.84918 106.193085 
L 243.678689 108.307518 
L 245.508197 110.757902 
L 247.337705 112.974975 
L 249.167213 115.52129 
L 250.996721 119.313471 
L 252.82623 121.596711 
L 254.655738 127.250432 
L 258.314754 139.883982 
L 260.144262 147.984209 
L 261.97377 152.827628 
L 263.803279 159.63068 
L 265.632787 165.386845 
L 269.291803 177.734026 
L 271.121311 185.28404 
L 272.95082 190.441152 
L 274.780328 197.031217 
L 276.609836 201.765436 
L 278.439344 205.703478 
L 280.268852 210.456152 
L 282.098361 213.753197 
L 283.927869 217.530508 
L 285.757377 220.582657 
L 287.586885 222.446329 
L 289.416393 223.836758 
L 291.245902 224.903144 
L 293.07541 225.447325 
L 294.904918 225.707573 
L 296.734426 224.5852 
L 298.563934 224.988302 
L 300.393443 224.620454 
L 302.222951 223.590781 
L 304.052459 221.80437 
L 305.881967 221.338277 
L 307.711475 220.203335 
L 311.370492 214.920156 
L 313.2 213.260767 
L 315.029508 211.354185 
L 316.859016 208.978974 
L 318.688525 206.104837 
L 320.518033 204.224539 
L 322.347541 200.674386 
L 324.177049 197.599286 
L 331.495082 183.144088 
L 333.32459 180.966561 
L 335.154098 177.428787 
L 336.983607 175.808683 
L 338.813115 175.570198 
L 342.472131 172.701606 
L 344.301639 172.62361 
L 346.131148 172.166182 
L 347.960656 171.37845 
L 349.790164 171.48553 
L 355.278689 168.816485 
L 357.108197 167.481266 
L 358.937705 164.675995 
L 360.767213 162.413497 
L 362.596721 159.934051 
L 364.42623 156.443751 
L 366.255738 153.887081 
L 368.085246 152.010948 
L 369.914754 148.411804 
L 371.744262 146.051525 
L 373.57377 144.373811 
L 375.403279 141.407849 
L 377.232787 137.835022 
L 379.062295 137.910004 
L 380.891803 137.200292 
L 382.721311 138.553184 
L 384.55082 139.039141 
L 386.380328 143.038857 
L 388.209836 145.327642 
L 391.868852 153.83718 
L 393.698361 159.397404 
L 395.527869 165.69843 
L 397.357377 173.239682 
L 399.186885 178.368157 
L 402.845902 194.224364 
L 406.504918 208.246311 
L 408.334426 215.843466 
L 415.652459 240.443098 
L 417.481967 246.277492 
L 419.311475 251.729274 
L 421.140984 256.781426 
L 422.970492 261.210016 
L 424.8 264.786039 
L 430.288525 274.674303 
L 432.118033 277.258869 
L 435.777049 281.161388 
L 437.606557 282.431003 
L 441.265574 284.37275 
L 443.095082 284.203345 
L 444.92459 284.640761 
L 446.754098 284.847332 
L 448.583607 284.300917 
L 450.413115 283.43618 
L 452.242623 283.004121 
L 454.072131 282.192452 
L 457.731148 279.362798 
L 459.560656 277.455234 
L 461.390164 275.807619 
L 463.219672 273.838843 
L 465.04918 272.841573 
L 466.878689 271.320548 
L 468.708197 269.051992 
L 470.537705 266.010048 
L 476.02623 258.297383 
L 477.855738 253.875132 
L 479.685246 250.8075 
L 481.514754 247.316575 
L 483.344262 243.457347 
L 487.003279 234.975789 
L 494.321311 214.292752 
L 496.15082 208.66875 
L 497.980328 203.93227 
L 499.809836 197.706721 
L 501.639344 192.969194 
L 507.127869 175.313537 
L 508.957377 171.64714 
L 510.786885 165.760351 
L 512.616393 161.652882 
L 514.445902 156.8549 
L 518.104918 150.083465 
L 519.934426 148.03971 
L 521.763934 145.675922 
L 523.593443 145.501203 
L 525.422951 144.68591 
L 527.252459 143.381291 
L 529.081967 144.121486 
L 530.911475 143.152261 
L 532.740984 144.856145 
L 534.570492 146.268008 
L 536.4 146.155094 
L 538.229508 145.215379 
L 540.059016 144.696783 
L 541.888525 145.424575 
L 543.718033 146.000926 
L 545.547541 145.826555 
L 547.377049 143.90339 
L 549.206557 144.529829 
L 551.036066 145.997473 
L 552.865574 145.196958 
L 554.695082 146.065045 
L 556.52459 146.27331 
L 558.354098 149.398383 
L 560.183607 150.693253 
L 562.013115 153.324225 
L 567.501639 156.13345 
L 569.331148 156.227882 
L 571.160656 157.161671 
L 572.990164 156.902517 
L 576.64918 158.147019 
L 578.478689 159.747723 
L 580.308197 157.978001 
L 583.967213 159.427313 
L 585.796721 158.930197 
L 587.62623 160.618955 
L 589.455738 161.148953 
L 591.285246 161.553509 
L 593.114754 161.354804 
L 598.603279 164.761027 
L 600.432787 165.552647 
L 602.262295 165.972802 
L 604.091803 166.693775 
L 605.921311 167.736991 
L 607.75082 168.634385 
L 609.580328 170.124775 
L 611.409836 169.409839 
L 613.239344 171.989132 
L 615.068852 171.199489 
L 616.898361 172.137983 
L 618.727869 170.774772 
L 620.557377 173.031376 
L 622.386885 170.95278 
L 624.216393 170.126898 
L 626.045902 170.812056 
L 627.87541 169.216538 
L 629.704918 169.55179 
L 631.534426 168.56734 
L 633.363934 168.763308 
L 635.193443 167.790209 
L 637.022951 168.81036 
L 638.852459 167.861377 
L 640.681967 168.829232 
L 642.511475 167.88186 
L 644.340984 168.275662 
L 646.170492 167.71218 
L 648 168.403603 
L 649.829508 167.230515 
L 653.488525 168.116275 
L 655.318033 166.746852 
L 657.147541 165.983196 
L 658.977049 165.702343 
L 660.806557 167.251843 
L 662.636066 167.717675 
L 662.636066 167.717675 
" style="fill:none;stroke:#fc997a;stroke-linecap:square;stroke-width:1.5;"/>
   </g>
   <g id="line2d_70">
    <path clip-path="url(#pf3af899e5c)" d="M 90 208.159756 
L 648 208.159756 
" style="fill:none;stroke:#000000;stroke-dasharray:3.7,1.6;stroke-dashoffset:0;"/>
   </g>
   <g id="patch_3">
    <path d="M 90 315 
L 90 43.2 
" style="fill:none;stroke:#000000;stroke-linecap:square;stroke-linejoin:miter;stroke-width:0.8;"/>
   </g>
   <g id="patch_4">
    <path d="M 648 315 
L 648 43.2 
" style="fill:none;stroke:#000000;stroke-linecap:square;stroke-linejoin:miter;stroke-width:0.8;"/>
   </g>
   <g id="patch_5">
    <path d="M 90 315 
L 648 315 
" style="fill:none;stroke:#000000;stroke-linecap:square;stroke-linejoin:miter;stroke-width:0.8;"/>
   </g>
   <g id="patch_6">
    <path d="M 90 43.2 
L 648 43.2 
" style="fill:none;stroke:#000000;stroke-linecap:square;stroke-linejoin:miter;stroke-width:0.8;"/>
   </g>
   <g id="text_19">
    <!-- 622   $R_t$ -->
    <g transform="translate(321.96 37.2)scale(0.12 -0.12)">
     <defs>
      <path d="M 33.015625 40.375 
Q 26.375 40.375 22.484375 35.828125 
Q 18.609375 31.296875 18.609375 23.390625 
Q 18.609375 15.53125 22.484375 10.953125 
Q 26.375 6.390625 33.015625 6.390625 
Q 39.65625 6.390625 43.53125 10.953125 
Q 47.40625 15.53125 47.40625 23.390625 
Q 47.40625 31.296875 43.53125 35.828125 
Q 39.65625 40.375 33.015625 40.375 
z
M 52.59375 71.296875 
L 52.59375 62.3125 
Q 48.875 64.0625 45.09375 64.984375 
Q 41.3125 65.921875 37.59375 65.921875 
Q 27.828125 65.921875 22.671875 59.328125 
Q 17.53125 52.734375 16.796875 39.40625 
Q 19.671875 43.65625 24.015625 45.921875 
Q 28.375 48.1875 33.59375 48.1875 
Q 44.578125 48.1875 50.953125 41.515625 
Q 57.328125 34.859375 57.328125 23.390625 
Q 57.328125 12.15625 50.6875 5.359375 
Q 44.046875 -1.421875 33.015625 -1.421875 
Q 20.359375 -1.421875 13.671875 8.265625 
Q 6.984375 17.96875 6.984375 36.375 
Q 6.984375 53.65625 15.1875 63.9375 
Q 23.390625 74.21875 37.203125 74.21875 
Q 40.921875 74.21875 44.703125 73.484375 
Q 48.484375 72.75 52.59375 71.296875 
z
" id="DejaVuSans-54"/>
      <path id="DejaVuSans-32"/>
      <path d="M 47.359375 27.828125 
L 47.359375 0 
L 38.28125 0 
L 38.28125 27.828125 
Q 38.28125 31.390625 37.765625 34.265625 
Q 37.25 37.15625 36 39.71875 
Q 34.765625 42.28125 32.8125 43.984375 
Q 30.859375 45.703125 27.78125 46.703125 
Q 24.703125 47.703125 20.703125 47.703125 
L 4.296875 47.703125 
L 4.296875 54.6875 
L 20.65625 54.6875 
Q 26.8125 54.6875 31.46875 53.390625 
Q 36.140625 52.09375 39.109375 49.828125 
Q 42.09375 47.5625 43.96875 44.109375 
Q 45.84375 40.671875 46.59375 36.734375 
Q 47.359375 32.8125 47.359375 27.828125 
z
" id="DejaVuSans-1512"/>
      <path d="M 18.171875 54.6875 
L 18.171875 0 
L 9.078125 0 
L 9.078125 54.6875 
z
" id="DejaVuSans-1493"/>
      <path d="M 21 0 
L 11.8125 0 
L 4.296875 54.6875 
L 13.328125 54.6875 
L 16.890625 28.953125 
Q 19.234375 29 21.0625 29.359375 
Q 22.90625 29.734375 24.265625 30.53125 
Q 25.640625 31.34375 26.609375 32.203125 
Q 27.59375 33.0625 28.296875 34.625 
Q 29 36.1875 29.40625 37.46875 
Q 29.828125 38.765625 30.1875 41.03125 
Q 30.5625 43.3125 30.75 45 
Q 30.953125 46.6875 31.265625 49.640625 
Q 31.59375 52.59375 31.890625 54.6875 
L 39.9375 54.6875 
Q 39.0625 42 37.890625 36.96875 
Q 35.890625 28.609375 30.609375 25.25 
Q 25.984375 22.265625 17.828125 21.96875 
L 19.921875 6.984375 
Q 24.703125 6.984375 28.390625 7.34375 
Q 32.078125 7.71875 35.640625 8.6875 
Q 39.203125 9.671875 41.8125 11.296875 
Q 44.4375 12.9375 46.84375 15.5 
Q 49.265625 18.0625 50.953125 21.625 
Q 52.640625 25.203125 54 30 
Q 55.375 34.8125 56.203125 40.90625 
Q 57.03125 47.015625 57.515625 54.6875 
L 66.546875 54.6875 
Q 65.671875 46.578125 64.640625 40.421875 
Q 63.625 34.28125 62.125 28.703125 
Q 60.640625 23.140625 58.8125 19.15625 
Q 56.984375 15.1875 54.421875 11.84375 
Q 51.859375 8.5 48.703125 6.375 
Q 45.5625 4.25 41.375 2.75 
Q 37.203125 1.265625 32.25 0.625 
Q 27.296875 0 21 0 
z
" id="DejaVuSans-1513"/>
      <path d="M 36.328125 6.984375 
L 36.328125 29.59375 
Q 36.328125 33.25 36.0625 35.671875 
Q 35.796875 38.09375 34.859375 40.578125 
Q 33.9375 43.0625 32.25 44.484375 
Q 30.5625 45.90625 27.609375 46.796875 
Q 24.65625 47.703125 20.40625 47.703125 
L 4.296875 47.703125 
L 4.296875 54.6875 
L 20.40625 54.6875 
Q 26.421875 54.6875 30.734375 53.5625 
Q 35.0625 52.4375 37.890625 50.359375 
Q 40.71875 48.296875 42.40625 44.890625 
Q 44.09375 41.5 44.75 37.453125 
Q 45.40625 33.40625 45.40625 27.828125 
L 45.40625 6.984375 
L 53.515625 6.984375 
L 53.515625 0 
L 4.296875 0 
L 4.296875 6.984375 
z
" id="DejaVuSans-1489"/>
      <path d="M 30.328125 54.6875 
L 30.328125 47.703125 
L 26.421875 47.703125 
Q 22.171875 47.703125 20.578125 43.921875 
Q 19 40.140625 19 30.90625 
L 19 0 
L 9.90625 0 
L 9.90625 30.90625 
Q 9.90625 37.109375 11.78125 41.453125 
Q 13.671875 45.796875 16.40625 47.703125 
L 4.296875 47.703125 
L 4.296875 54.6875 
z
" id="DejaVuSans-1494"/>
      <path d="M 43.75 20.0625 
L 57.671875 0 
L 47.078125 0 
L 26.765625 29.296875 
Q 25.390625 28.609375 24.53125 28.09375 
Q 23.6875 27.59375 22.3125 26.296875 
Q 20.953125 25 20.140625 23.40625 
Q 19.34375 21.828125 18.703125 19.140625 
Q 18.0625 16.453125 18.0625 13.09375 
L 18.0625 0 
L 9.078125 0 
L 9.078125 9.03125 
Q 9.078125 12.984375 9.5625 16.359375 
Q 10.0625 19.734375 10.8125 22.078125 
Q 11.578125 24.421875 12.796875 26.390625 
Q 14.015625 28.375 15.109375 29.59375 
Q 16.21875 30.8125 17.796875 31.875 
Q 19.390625 32.953125 20.453125 33.46875 
Q 21.53125 33.984375 23.046875 34.625 
L 9.1875 54.6875 
L 19.78125 54.6875 
L 40.09375 25.390625 
Q 41.40625 26.03125 42.25 26.53125 
Q 43.109375 27.046875 44.46875 28.359375 
Q 45.84375 29.6875 46.671875 31.265625 
Q 47.515625 32.859375 48.140625 35.546875 
Q 48.78125 38.234375 48.78125 41.609375 
L 48.78125 54.6875 
L 57.765625 54.6875 
L 57.765625 45.65625 
Q 57.765625 41.65625 57.265625 38.3125 
Q 56.78125 34.96875 56.03125 32.59375 
Q 55.28125 30.21875 54.046875 28.234375 
Q 52.828125 26.265625 51.703125 25.0625 
Q 50.59375 23.875 49.03125 22.796875 
Q 47.46875 21.734375 46.390625 21.21875 
Q 45.3125 20.703125 43.75 20.0625 
z
" id="DejaVuSans-1488"/>
      <path d="M 25.203125 64.796875 
L 20.21875 38.921875 
L 32.90625 38.921875 
Q 40.375 38.921875 44.984375 43.046875 
Q 49.609375 47.171875 49.609375 53.8125 
Q 49.609375 59.125 46.5 61.953125 
Q 43.40625 64.796875 37.59375 64.796875 
z
M 43.3125 35.015625 
Q 46.4375 34.28125 48.515625 31.390625 
Q 50.59375 28.515625 53.328125 19.921875 
L 59.515625 0 
L 49.125 0 
L 43.40625 18.703125 
Q 41.21875 25.921875 38.328125 28.359375 
Q 35.453125 30.8125 29.5 30.8125 
L 18.609375 30.8125 
L 12.59375 0 
L 2.6875 0 
L 16.890625 72.90625 
L 39.109375 72.90625 
Q 49.21875 72.90625 54.609375 68.328125 
Q 60.015625 63.765625 60.015625 55.171875 
Q 60.015625 47.5625 55.421875 41.984375 
Q 50.828125 36.421875 43.3125 35.015625 
z
" id="DejaVuSans-Oblique-82"/>
      <path d="M 42.28125 54.6875 
L 40.921875 47.703125 
L 23 47.703125 
L 17.1875 18.015625 
Q 16.890625 16.359375 16.75 15.234375 
Q 16.609375 14.109375 16.609375 13.484375 
Q 16.609375 10.359375 18.484375 8.9375 
Q 20.359375 7.515625 24.515625 7.515625 
L 33.59375 7.515625 
L 32.078125 0 
L 23.484375 0 
Q 15.484375 0 11.546875 3.125 
Q 7.625 6.25 7.625 12.59375 
Q 7.625 13.71875 7.765625 15.0625 
Q 7.90625 16.40625 8.203125 18.015625 
L 14.015625 47.703125 
L 6.390625 47.703125 
L 7.8125 54.6875 
L 15.28125 54.6875 
L 18.3125 70.21875 
L 27.296875 70.21875 
L 24.3125 54.6875 
z
" id="DejaVuSans-Oblique-116"/>
     </defs>
     <use transform="translate(0 0.78125)" xlink:href="#DejaVuSans-54"/>
     <use transform="translate(63.623047 0.78125)" xlink:href="#DejaVuSans-50"/>
     <use transform="translate(127.246094 0.78125)" xlink:href="#DejaVuSans-50"/>
     <use transform="translate(190.869141 0.78125)" xlink:href="#DejaVuSans-32"/>
     <use transform="translate(222.65625 0.78125)" xlink:href="#DejaVuSans-1512"/>
     <use transform="translate(279.101562 0.78125)" xlink:href="#DejaVuSans-1493"/>
     <use transform="translate(306.347656 0.78125)" xlink:href="#DejaVuSans-1513"/>
     <use transform="translate(377.197266 0.78125)" xlink:href="#DejaVuSans-1489"/>
     <use transform="translate(435.009766 0.78125)" xlink:href="#DejaVuSans-32"/>
     <use transform="translate(466.796875 0.78125)" xlink:href="#DejaVuSans-1512"/>
     <use transform="translate(523.242188 0.78125)" xlink:href="#DejaVuSans-1493"/>
     <use transform="translate(550.488281 0.78125)" xlink:href="#DejaVuSans-1494"/>
     <use transform="translate(585.107422 0.78125)" xlink:href="#DejaVuSans-1488"/>
     <use transform="translate(651.953125 0.78125)" xlink:href="#DejaVuSans-32"/>
     <use transform="translate(683.740234 0.78125)" xlink:href="#DejaVuSans-Oblique-82"/>
     <use transform="translate(753.222656 -15.625)scale(0.7)" xlink:href="#DejaVuSans-Oblique-116"/>
    </g>
   </g>
  </g>
 </g>
 <defs>
  <clipPath id="pf3af899e5c">
   <rect height="271.8" width="558" x="90" y="43.2"/>
  </clipPath>
 </defs>
</svg>
