<?xml version="1.0" encoding="utf-8" standalone="no"?>
<!DOCTYPE svg PUBLIC "-//W3C//DTD SVG 1.1//EN"
  "http://www.w3.org/Graphics/SVG/1.1/DTD/svg11.dtd">
<!-- Created with matplotlib (https://matplotlib.org/) -->
<svg height="360pt" version="1.1" viewBox="0 0 720 360" width="720pt" xmlns="http://www.w3.org/2000/svg" xmlns:xlink="http://www.w3.org/1999/xlink">
 <metadata>
  <rdf:RDF xmlns:cc="http://creativecommons.org/ns#" xmlns:dc="http://purl.org/dc/elements/1.1/" xmlns:rdf="http://www.w3.org/1999/02/22-rdf-syntax-ns#">
   <cc:Work>
    <dc:type rdf:resource="http://purl.org/dc/dcmitype/StillImage"/>
    <dc:date>2021-03-11T04:48:13.931250</dc:date>
    <dc:format>image/svg+xml</dc:format>
    <dc:creator>
     <cc:Agent>
      <dc:title>Matplotlib v3.3.2, https://matplotlib.org/</dc:title>
     </cc:Agent>
    </dc:creator>
   </cc:Work>
  </rdf:RDF>
 </metadata>
 <defs>
  <style type="text/css">*{stroke-linecap:butt;stroke-linejoin:round;}</style>
 </defs>
 <g id="figure_1">
  <g id="patch_1">
   <path d="M 0 360 
L 720 360 
L 720 0 
L 0 0 
z
" style="fill:#ffffff;"/>
  </g>
  <g id="axes_1">
   <g id="patch_2">
    <path d="M 90 315 
L 648 315 
L 648 43.2 
L 90 43.2 
z
" style="fill:#ffffff;"/>
   </g>
   <g id="PolyCollection_1">
    <defs>
     <path d="M 90 -72.213694 
L 90 -123.211163 
L 91.585227 -123.194539 
L 93.170455 -118.564813 
L 94.755682 -117.094238 
L 96.340909 -116.254826 
L 97.926136 -114.491854 
L 99.511364 -113.93264 
L 101.096591 -111.888286 
L 102.681818 -106.521182 
L 104.267045 -107.701925 
L 105.852273 -107.285221 
L 107.4375 -103.406385 
L 109.022727 -99.588581 
L 110.607955 -100.214531 
L 112.193182 -97.446565 
L 113.778409 -95.993473 
L 115.363636 -93.118685 
L 116.948864 -90.862353 
L 118.534091 -89.516979 
L 120.119318 -88.153961 
L 121.704545 -86.85355 
L 123.289773 -85.067876 
L 124.875 -86.207795 
L 126.460227 -84.247956 
L 128.045455 -82.244951 
L 129.630682 -83.183261 
L 131.215909 -84.552487 
L 132.801136 -81.654904 
L 134.386364 -81.898604 
L 135.971591 -82.027982 
L 137.556818 -84.385739 
L 139.142045 -84.237577 
L 140.727273 -87.463615 
L 142.3125 -88.602454 
L 143.897727 -89.426807 
L 145.482955 -90.166885 
L 147.068182 -90.532842 
L 148.653409 -95.613302 
L 150.238636 -95.682137 
L 151.823864 -100.493946 
L 153.409091 -99.762037 
L 154.994318 -104.746457 
L 156.579545 -106.650443 
L 158.164773 -109.148191 
L 159.75 -116.5935 
L 161.335227 -117.492565 
L 162.920455 -122.233053 
L 164.505682 -126.610098 
L 166.090909 -132.623491 
L 167.676136 -134.908901 
L 169.261364 -140.619804 
L 170.846591 -144.24901 
L 172.431818 -150.522044 
L 174.017045 -157.205484 
L 175.602273 -163.048641 
L 177.1875 -171.651517 
L 178.772727 -179.984172 
L 180.357955 -186.800526 
L 181.943182 -193.288479 
L 183.528409 -200.521181 
L 185.113636 -207.681384 
L 186.698864 -213.242875 
L 188.284091 -216.841949 
L 189.869318 -224.733351 
L 191.454545 -240.605396 
L 193.039773 -243.631157 
L 194.625 -255.779895 
L 196.210227 -255.316998 
L 197.795455 -262.298499 
L 199.380682 -272.749955 
L 200.965909 -278.793858 
L 202.551136 -283.244578 
L 204.136364 -279.009212 
L 205.721591 -285.987957 
L 207.306818 -287.987029 
L 208.892045 -290.915552 
L 210.477273 -293.176797 
L 212.0625 -290.452077 
L 213.647727 -287.646123 
L 215.232955 -279.645487 
L 216.818182 -278.041467 
L 218.403409 -276.670535 
L 219.988636 -275.404441 
L 221.573864 -268.563252 
L 223.159091 -263.879285 
L 224.744318 -253.332835 
L 226.329545 -250.862582 
L 227.914773 -244.269878 
L 229.5 -237.276142 
L 231.085227 -232.147697 
L 232.670455 -228.9883 
L 234.255682 -218.977684 
L 235.840909 -216.606913 
L 237.426136 -210.749803 
L 239.011364 -202.948926 
L 240.596591 -200.959947 
L 242.181818 -191.794519 
L 243.767045 -186.86082 
L 245.352273 -179.693266 
L 246.9375 -174.416522 
L 248.522727 -166.632628 
L 250.107955 -165.108364 
L 251.693182 -158.24881 
L 253.278409 -156.502836 
L 254.863636 -155.667953 
L 256.448864 -150.933002 
L 258.034091 -146.58428 
L 259.619318 -146.071292 
L 261.204545 -145.282187 
L 262.789773 -142.771258 
L 264.375 -141.641543 
L 265.960227 -143.686053 
L 267.545455 -143.419256 
L 269.130682 -139.792217 
L 270.715909 -138.447988 
L 272.301136 -137.899499 
L 273.886364 -137.574511 
L 275.471591 -137.008627 
L 277.056818 -141.242186 
L 278.642045 -137.35341 
L 280.227273 -143.639863 
L 281.8125 -139.631823 
L 283.397727 -143.483346 
L 284.982955 -141.881323 
L 286.568182 -143.645592 
L 288.153409 -141.220295 
L 289.738636 -142.572765 
L 291.323864 -147.557199 
L 292.909091 -146.534901 
L 294.494318 -148.428546 
L 296.079545 -147.668855 
L 297.664773 -151.872319 
L 299.25 -154.024816 
L 300.835227 -155.385959 
L 302.420455 -155.911225 
L 304.005682 -156.208921 
L 305.590909 -160.2947 
L 307.176136 -162.064848 
L 308.761364 -163.158031 
L 310.346591 -166.516715 
L 311.931818 -165.146411 
L 313.517045 -169.586563 
L 315.102273 -167.240461 
L 316.6875 -169.647855 
L 318.272727 -173.105123 
L 319.857955 -173.04847 
L 321.443182 -172.116574 
L 323.028409 -174.174749 
L 324.613636 -172.390054 
L 326.198864 -171.39011 
L 327.784091 -171.285893 
L 329.369318 -175.328949 
L 330.954545 -170.339372 
L 332.539773 -169.065243 
L 334.125 -171.210605 
L 335.710227 -170.05622 
L 337.295455 -164.896027 
L 338.880682 -162.547331 
L 340.465909 -162.396195 
L 342.051136 -163.194439 
L 343.636364 -162.126694 
L 345.221591 -162.756445 
L 346.806818 -161.023096 
L 348.392045 -166.647413 
L 349.977273 -165.184142 
L 351.5625 -169.99239 
L 353.147727 -168.213247 
L 354.732955 -171.911388 
L 356.318182 -176.828621 
L 357.903409 -177.982279 
L 359.488636 -182.469121 
L 361.073864 -181.198299 
L 362.659091 -184.794161 
L 364.244318 -182.47891 
L 365.829545 -186.518599 
L 367.414773 -184.371976 
L 369 -185.256176 
L 370.585227 -186.522004 
L 372.170455 -180.93411 
L 373.755682 -177.165272 
L 375.340909 -175.909209 
L 376.926136 -167.717609 
L 378.511364 -161.026157 
L 380.096591 -157.153733 
L 381.681818 -151.065282 
L 383.267045 -142.087578 
L 384.852273 -137.536505 
L 386.4375 -130.087203 
L 388.022727 -124.762228 
L 389.607955 -119.276074 
L 391.193182 -113.967106 
L 392.778409 -107.668397 
L 394.363636 -104.633303 
L 395.948864 -100.401668 
L 397.534091 -96.060142 
L 399.119318 -92.996145 
L 400.704545 -90.514957 
L 402.289773 -87.175001 
L 403.875 -85.766472 
L 405.460227 -83.36162 
L 407.045455 -80.80131 
L 408.630682 -79.671606 
L 410.215909 -79.577061 
L 411.801136 -79.265957 
L 413.386364 -78.907015 
L 414.971591 -79.400001 
L 416.556818 -81.04345 
L 418.142045 -80.703074 
L 419.727273 -82.478562 
L 421.3125 -84.138798 
L 422.897727 -85.692188 
L 424.482955 -87.890454 
L 426.068182 -89.910028 
L 427.653409 -91.70455 
L 429.238636 -94.131952 
L 430.823864 -97.091002 
L 432.409091 -101.015352 
L 433.994318 -103.096648 
L 435.579545 -106.164127 
L 437.164773 -109.028378 
L 438.75 -110.446609 
L 440.335227 -112.343391 
L 441.920455 -115.497204 
L 443.505682 -117.829273 
L 445.090909 -120.580945 
L 446.676136 -124.051808 
L 448.261364 -124.662287 
L 449.846591 -125.400146 
L 451.431818 -128.918305 
L 453.017045 -133.12993 
L 454.602273 -134.926851 
L 456.1875 -136.439496 
L 457.772727 -138.61562 
L 459.357955 -138.029031 
L 460.943182 -141.43587 
L 462.528409 -143.154124 
L 464.113636 -146.912012 
L 465.698864 -150.142509 
L 467.284091 -154.00375 
L 468.869318 -157.164711 
L 470.454545 -162.480426 
L 472.039773 -164.081463 
L 473.625 -167.081894 
L 475.210227 -172.218488 
L 476.795455 -176.82887 
L 478.380682 -173.762065 
L 479.965909 -183.338652 
L 481.551136 -187.582465 
L 483.136364 -187.102058 
L 484.721591 -192.070763 
L 486.306818 -200.056082 
L 487.892045 -205.64215 
L 489.477273 -209.937591 
L 491.0625 -212.112639 
L 492.647727 -218.492879 
L 494.232955 -222.315876 
L 495.818182 -225.01476 
L 497.403409 -234.801355 
L 498.988636 -244.742685 
L 500.573864 -246.154994 
L 502.159091 -258.335858 
L 503.744318 -261.889693 
L 505.329545 -267.564863 
L 506.914773 -281.858031 
L 508.5 -288.267583 
L 510.085227 -294.434961 
L 511.670455 -293.661376 
L 513.255682 -299.335044 
L 514.840909 -299.602188 
L 516.426136 -303.069804 
L 518.011364 -304.445455 
L 519.596591 -301.43711 
L 521.181818 -295.905952 
L 522.767045 -291.774616 
L 524.352273 -286.726525 
L 525.9375 -276.339359 
L 527.522727 -268.424765 
L 529.107955 -258.660707 
L 530.693182 -245.357568 
L 532.278409 -228.941183 
L 533.863636 -218.863488 
L 535.448864 -204.19535 
L 537.034091 -193.996938 
L 538.619318 -181.110857 
L 540.204545 -173.771284 
L 541.789773 -162.686475 
L 543.375 -159.289693 
L 544.960227 -151.308463 
L 546.545455 -144.941355 
L 548.130682 -143.23481 
L 549.715909 -141.033367 
L 551.301136 -136.833494 
L 552.886364 -135.746629 
L 554.471591 -131.873104 
L 556.056818 -132.234285 
L 557.642045 -133.112341 
L 559.227273 -129.681063 
L 560.8125 -130.697356 
L 562.397727 -129.543177 
L 563.982955 -131.396236 
L 565.568182 -131.96921 
L 567.153409 -133.558297 
L 568.738636 -137.151548 
L 570.323864 -137.996095 
L 571.909091 -135.041425 
L 573.494318 -138.237252 
L 575.079545 -138.654538 
L 576.664773 -138.232968 
L 578.25 -139.243611 
L 579.835227 -142.567987 
L 581.420455 -143.264175 
L 583.005682 -147.610299 
L 584.590909 -145.378834 
L 586.176136 -144.637782 
L 587.761364 -147.010046 
L 589.346591 -148.98479 
L 590.931818 -147.361361 
L 592.517045 -146.721892 
L 594.102273 -145.910852 
L 595.6875 -146.276078 
L 597.272727 -146.428046 
L 598.857955 -146.606736 
L 600.443182 -145.465588 
L 602.028409 -145.084708 
L 603.613636 -142.741371 
L 605.198864 -144.678214 
L 606.784091 -147.535563 
L 608.369318 -147.694836 
L 609.954545 -146.833257 
L 611.539773 -152.147509 
L 613.125 -151.506932 
L 614.710227 -149.517143 
L 616.295455 -150.255141 
L 617.880682 -153.384453 
L 619.465909 -156.6101 
L 621.051136 -154.219489 
L 622.636364 -153.908309 
L 624.221591 -158.202212 
L 625.806818 -156.048812 
L 627.392045 -157.162331 
L 628.977273 -157.019663 
L 630.5625 -160.927531 
L 632.147727 -157.76614 
L 633.732955 -156.934892 
L 635.318182 -156.968071 
L 636.903409 -156.073905 
L 638.488636 -155.294135 
L 640.073864 -158.343837 
L 641.659091 -162.165167 
L 643.244318 -166.88604 
L 644.829545 -164.693763 
L 646.414773 -163.204412 
L 648 -166.972689 
L 649.585227 -167.772289 
L 651.170455 -166.168072 
L 652.755682 -162.940532 
L 654.340909 -171.436535 
L 655.926136 -168.053534 
L 657.511364 -166.754376 
L 659.096591 -167.738589 
L 660.681818 -168.449838 
L 660.681818 -76.190758 
L 660.681818 -76.190758 
L 659.096591 -80.447278 
L 657.511364 -81.728012 
L 655.926136 -86.020372 
L 654.340909 -89.547604 
L 652.755682 -85.463804 
L 651.170455 -92.032493 
L 649.585227 -96.531123 
L 648 -97.546881 
L 646.414773 -98.700204 
L 644.829545 -102.05299 
L 643.244318 -105.935162 
L 641.659091 -103.806435 
L 640.073864 -103.612305 
L 638.488636 -103.713956 
L 636.903409 -107.74647 
L 635.318182 -108.933388 
L 633.732955 -110.312849 
L 632.147727 -114.723067 
L 630.5625 -118.375228 
L 628.977273 -117.357583 
L 627.392045 -118.484963 
L 625.806818 -118.31608 
L 624.221591 -121.258597 
L 622.636364 -118.730706 
L 621.051136 -117.340827 
L 619.465909 -118.425875 
L 617.880682 -118.10912 
L 616.295455 -114.460187 
L 614.710227 -114.30886 
L 613.125 -115.778411 
L 611.539773 -114.824215 
L 609.954545 -112.437686 
L 608.369318 -112.967934 
L 606.784091 -113.305553 
L 605.198864 -111.657628 
L 603.613636 -108.660346 
L 602.028409 -110.711428 
L 600.443182 -111.249888 
L 598.857955 -110.681144 
L 597.272727 -108.926061 
L 595.6875 -110.280219 
L 594.102273 -109.664809 
L 592.517045 -111.462727 
L 590.931818 -111.595245 
L 589.346591 -111.875717 
L 587.761364 -109.735995 
L 586.176136 -109.697064 
L 584.590909 -109.543663 
L 583.005682 -112.307209 
L 581.420455 -108.129564 
L 579.835227 -108.964537 
L 578.25 -106.539109 
L 576.664773 -106.71456 
L 575.079545 -105.776469 
L 573.494318 -104.077706 
L 571.909091 -101.525267 
L 570.323864 -104.08529 
L 568.738636 -104.341839 
L 567.153409 -102.589731 
L 565.568182 -100.933324 
L 563.982955 -101.732469 
L 562.397727 -100.190473 
L 560.8125 -101.459657 
L 559.227273 -99.747666 
L 557.642045 -101.964398 
L 556.056818 -101.945672 
L 554.471591 -102.317227 
L 552.886364 -104.730949 
L 551.301136 -105.484241 
L 549.715909 -108.631523 
L 548.130682 -109.783831 
L 546.545455 -111.704095 
L 544.960227 -115.962128 
L 543.375 -122.012705 
L 541.789773 -125.05476 
L 540.204545 -133.408236 
L 538.619318 -139.242821 
L 537.034091 -150.38918 
L 535.448864 -157.758527 
L 533.863636 -167.607287 
L 532.278409 -177.335355 
L 530.693182 -187.344036 
L 529.107955 -201.014644 
L 527.522727 -203.904382 
L 525.9375 -211.134343 
L 524.352273 -221.085403 
L 522.767045 -223.865351 
L 521.181818 -226.10516 
L 519.596591 -234.377289 
L 518.011364 -232.953744 
L 516.426136 -230.777893 
L 514.840909 -226.426704 
L 513.255682 -228.196778 
L 511.670455 -222.590348 
L 510.085227 -223.106786 
L 508.5 -215.918649 
L 506.914773 -214.57371 
L 505.329545 -200.119793 
L 503.744318 -198.973212 
L 502.159091 -195.018163 
L 500.573864 -183.462628 
L 498.988636 -182.818665 
L 497.403409 -176.256338 
L 495.818182 -166.230805 
L 494.232955 -163.185668 
L 492.647727 -160.618027 
L 491.0625 -156.028778 
L 489.477273 -153.626352 
L 487.892045 -150.639834 
L 486.306818 -145.403628 
L 484.721591 -141.02915 
L 483.136364 -137.580978 
L 481.551136 -139.189555 
L 479.965909 -136.455073 
L 478.380682 -128.501502 
L 476.795455 -131.252632 
L 475.210227 -129.383186 
L 473.625 -123.837533 
L 472.039773 -122.713157 
L 470.454545 -121.671313 
L 468.869318 -116.725317 
L 467.284091 -113.578302 
L 465.698864 -108.942428 
L 464.113636 -108.177105 
L 462.528409 -105.912562 
L 460.943182 -103.503071 
L 459.357955 -102.217949 
L 457.772727 -100.960913 
L 456.1875 -99.267844 
L 454.602273 -98.942129 
L 453.017045 -98.272121 
L 451.431818 -94.090513 
L 449.846591 -90.246285 
L 448.261364 -91.484645 
L 446.676136 -92.001711 
L 445.090909 -88.310295 
L 443.505682 -86.359995 
L 441.920455 -84.353821 
L 440.335227 -82.234918 
L 438.75 -80.695248 
L 437.164773 -80.205914 
L 435.579545 -77.067844 
L 433.994318 -74.561321 
L 432.409091 -73.549966 
L 430.823864 -70.394299 
L 429.238636 -69.115428 
L 427.653409 -67.547221 
L 426.068182 -66.893943 
L 424.482955 -65.20458 
L 422.897727 -63.362168 
L 421.3125 -62.621277 
L 419.727273 -60.870006 
L 418.142045 -59.821571 
L 416.556818 -60.64071 
L 414.971591 -59.134336 
L 413.386364 -59.412194 
L 411.801136 -59.332638 
L 410.215909 -59.682927 
L 408.630682 -59.397692 
L 407.045455 -59.899367 
L 405.460227 -62.593833 
L 403.875 -64.660815 
L 402.289773 -65.549106 
L 400.704545 -68.87054 
L 399.119318 -71.00871 
L 397.534091 -73.648021 
L 395.948864 -77.106679 
L 394.363636 -79.707372 
L 392.778409 -82.442907 
L 391.193182 -85.774449 
L 389.607955 -89.709023 
L 388.022727 -94.484182 
L 386.4375 -98.401843 
L 384.852273 -106.400686 
L 383.267045 -109.787357 
L 381.681818 -115.614388 
L 380.096591 -119.681028 
L 378.511364 -121.725202 
L 376.926136 -127.153252 
L 375.340909 -134.428195 
L 373.755682 -135.472396 
L 372.170455 -137.922034 
L 370.585227 -142.151222 
L 369 -141.711089 
L 367.414773 -141.426328 
L 365.829545 -142.074778 
L 364.244318 -139.991107 
L 362.659091 -141.949994 
L 361.073864 -138.30869 
L 359.488636 -139.941147 
L 357.903409 -136.08318 
L 356.318182 -135.4196 
L 354.732955 -131.998238 
L 353.147727 -127.925946 
L 351.5625 -128.779574 
L 349.977273 -124.759013 
L 348.392045 -127.507892 
L 346.806818 -123.811839 
L 345.221591 -126.332955 
L 343.636364 -124.846659 
L 342.051136 -125.26952 
L 340.465909 -123.976108 
L 338.880682 -122.703001 
L 337.295455 -124.524366 
L 335.710227 -129.033434 
L 334.125 -129.056719 
L 332.539773 -127.4994 
L 330.954545 -128.203864 
L 329.369318 -132.802546 
L 327.784091 -128.840558 
L 326.198864 -129.487642 
L 324.613636 -132.011613 
L 323.028409 -133.170049 
L 321.443182 -132.550406 
L 319.857955 -134.153858 
L 318.272727 -133.25692 
L 316.6875 -128.752573 
L 315.102273 -126.967554 
L 313.517045 -129.440475 
L 311.931818 -126.447899 
L 310.346591 -127.325893 
L 308.761364 -123.712419 
L 307.176136 -122.228862 
L 305.590909 -122.613658 
L 304.005682 -119.467978 
L 302.420455 -117.082333 
L 300.835227 -119.318451 
L 299.25 -116.779581 
L 297.664773 -115.933574 
L 296.079545 -112.646289 
L 294.494318 -112.815735 
L 292.909091 -111.043534 
L 291.323864 -111.981241 
L 289.738636 -106.494037 
L 288.153409 -104.675525 
L 286.568182 -107.460759 
L 284.982955 -104.604588 
L 283.397727 -107.36989 
L 281.8125 -104.708836 
L 280.227273 -108.841464 
L 278.642045 -102.897469 
L 277.056818 -106.413689 
L 275.471591 -104.11566 
L 273.886364 -104.446953 
L 272.301136 -104.153795 
L 270.715909 -104.901691 
L 269.130682 -103.96102 
L 267.545455 -107.319578 
L 265.960227 -107.583797 
L 264.375 -106.588067 
L 262.789773 -108.889746 
L 261.204545 -109.116272 
L 259.619318 -110.772272 
L 258.034091 -112.835146 
L 256.448864 -116.021316 
L 254.863636 -119.169789 
L 253.278409 -119.173979 
L 251.693182 -121.638037 
L 250.107955 -125.762906 
L 248.522727 -126.520904 
L 246.9375 -134.953981 
L 245.352273 -137.202695 
L 243.767045 -143.730845 
L 242.181818 -146.406945 
L 240.596591 -152.974358 
L 239.011364 -154.154544 
L 237.426136 -161.480167 
L 235.840909 -165.407022 
L 234.255682 -165.743604 
L 232.670455 -174.506944 
L 231.085227 -174.970151 
L 229.5 -177.01579 
L 227.914773 -182.144212 
L 226.329545 -184.965086 
L 224.744318 -185.220503 
L 223.159091 -191.884401 
L 221.573864 -197.884437 
L 219.988636 -204.458989 
L 218.403409 -204.741605 
L 216.818182 -203.987894 
L 215.232955 -207.700138 
L 213.647727 -212.33564 
L 212.0625 -212.46683 
L 210.477273 -214.820965 
L 208.892045 -213.285156 
L 207.306818 -210.816881 
L 205.721591 -207.286781 
L 204.136364 -196.59248 
L 202.551136 -196.754601 
L 200.965909 -195.688324 
L 199.380682 -194.350106 
L 197.795455 -183.971948 
L 196.210227 -183.705463 
L 194.625 -181.940924 
L 193.039773 -172.739777 
L 191.454545 -170.027831 
L 189.869318 -156.875446 
L 188.284091 -153.96587 
L 186.698864 -150.246034 
L 185.113636 -148.568193 
L 183.528409 -142.845968 
L 181.943182 -138.153654 
L 180.357955 -133.514048 
L 178.772727 -129.573559 
L 177.1875 -122.395957 
L 175.602273 -114.159655 
L 174.017045 -111.42027 
L 172.431818 -107.422617 
L 170.846591 -102.385157 
L 169.261364 -100.933024 
L 167.676136 -96.115 
L 166.090909 -93.275443 
L 164.505682 -88.717214 
L 162.920455 -85.498334 
L 161.335227 -82.976803 
L 159.75 -83.589946 
L 158.164773 -78.305725 
L 156.579545 -75.733453 
L 154.994318 -74.358313 
L 153.409091 -69.498425 
L 151.823864 -71.285599 
L 150.238636 -65.895963 
L 148.653409 -67.074264 
L 147.068182 -62.090877 
L 145.482955 -63.26478 
L 143.897727 -62.881817 
L 142.3125 -63.045519 
L 140.727273 -62.552806 
L 139.142045 -60.721533 
L 137.556818 -60.596019 
L 135.971591 -58.626921 
L 134.386364 -57.362249 
L 132.801136 -57.354545 
L 131.215909 -59.982098 
L 129.630682 -58.513555 
L 128.045455 -58.400592 
L 126.460227 -59.588192 
L 124.875 -61.97338 
L 123.289773 -61.064911 
L 121.704545 -61.731451 
L 120.119318 -62.561533 
L 118.534091 -65.223648 
L 116.948864 -65.968524 
L 115.363636 -67.150781 
L 113.778409 -68.669931 
L 112.193182 -70.516635 
L 110.607955 -72.794743 
L 109.022727 -71.347198 
L 107.4375 -74.72211 
L 105.852273 -75.639284 
L 104.267045 -75.41676 
L 102.681818 -72.977186 
L 101.096591 -75.657776 
L 99.511364 -77.032283 
L 97.926136 -74.496792 
L 96.340909 -73.418104 
L 94.755682 -72.367806 
L 93.170455 -72.728894 
L 91.585227 -75.432031 
L 90 -72.213694 
z
" id="mc03a656168" style="stroke:#fdcbb6;stroke-opacity:0.8;"/>
    </defs>
    <g clip-path="url(#p9cd363a89b)">
     <use style="fill:#fdcbb6;fill-opacity:0.8;stroke:#fdcbb6;stroke-opacity:0.8;" x="0" xlink:href="#mc03a656168" y="360"/>
    </g>
   </g>
   <g id="matplotlib.axis_1">
    <g id="xtick_1">
     <g id="line2d_1">
      <defs>
       <path d="M 0 0 
L 0 3.5 
" id="ma856035438" style="stroke:#000000;stroke-width:0.8;"/>
      </defs>
      <g>
       <use style="stroke:#000000;stroke-width:0.8;" x="90" xlink:href="#ma856035438" y="315"/>
      </g>
     </g>
    </g>
    <g id="xtick_2">
     <g id="line2d_2">
      <g>
       <use style="stroke:#000000;stroke-width:0.8;" x="118.534091" xlink:href="#ma856035438" y="315"/>
      </g>
     </g>
     <g id="text_1">
      <!-- Apr -->
      <g transform="translate(109.884091 329.598437)scale(0.1 -0.1)">
       <defs>
        <path d="M 34.1875 63.1875 
L 20.796875 26.90625 
L 47.609375 26.90625 
z
M 28.609375 72.90625 
L 39.796875 72.90625 
L 67.578125 0 
L 57.328125 0 
L 50.6875 18.703125 
L 17.828125 18.703125 
L 11.1875 0 
L 0.78125 0 
z
" id="DejaVuSans-65"/>
        <path d="M 18.109375 8.203125 
L 18.109375 -20.796875 
L 9.078125 -20.796875 
L 9.078125 54.6875 
L 18.109375 54.6875 
L 18.109375 46.390625 
Q 20.953125 51.265625 25.265625 53.625 
Q 29.59375 56 35.59375 56 
Q 45.5625 56 51.78125 48.09375 
Q 58.015625 40.1875 58.015625 27.296875 
Q 58.015625 14.40625 51.78125 6.484375 
Q 45.5625 -1.421875 35.59375 -1.421875 
Q 29.59375 -1.421875 25.265625 0.953125 
Q 20.953125 3.328125 18.109375 8.203125 
z
M 48.6875 27.296875 
Q 48.6875 37.203125 44.609375 42.84375 
Q 40.53125 48.484375 33.40625 48.484375 
Q 26.265625 48.484375 22.1875 42.84375 
Q 18.109375 37.203125 18.109375 27.296875 
Q 18.109375 17.390625 22.1875 11.75 
Q 26.265625 6.109375 33.40625 6.109375 
Q 40.53125 6.109375 44.609375 11.75 
Q 48.6875 17.390625 48.6875 27.296875 
z
" id="DejaVuSans-112"/>
        <path d="M 41.109375 46.296875 
Q 39.59375 47.171875 37.8125 47.578125 
Q 36.03125 48 33.890625 48 
Q 26.265625 48 22.1875 43.046875 
Q 18.109375 38.09375 18.109375 28.8125 
L 18.109375 0 
L 9.078125 0 
L 9.078125 54.6875 
L 18.109375 54.6875 
L 18.109375 46.1875 
Q 20.953125 51.171875 25.484375 53.578125 
Q 30.03125 56 36.53125 56 
Q 37.453125 56 38.578125 55.875 
Q 39.703125 55.765625 41.0625 55.515625 
z
" id="DejaVuSans-114"/>
       </defs>
       <use xlink:href="#DejaVuSans-65"/>
       <use x="68.408203" xlink:href="#DejaVuSans-112"/>
       <use x="131.884766" xlink:href="#DejaVuSans-114"/>
      </g>
     </g>
    </g>
    <g id="xtick_3">
     <g id="line2d_3">
      <g>
       <use style="stroke:#000000;stroke-width:0.8;" x="166.090909" xlink:href="#ma856035438" y="315"/>
      </g>
     </g>
     <g id="text_2">
      <!-- May -->
      <g transform="translate(155.753409 329.598437)scale(0.1 -0.1)">
       <defs>
        <path d="M 9.8125 72.90625 
L 24.515625 72.90625 
L 43.109375 23.296875 
L 61.8125 72.90625 
L 76.515625 72.90625 
L 76.515625 0 
L 66.890625 0 
L 66.890625 64.015625 
L 48.09375 14.015625 
L 38.1875 14.015625 
L 19.390625 64.015625 
L 19.390625 0 
L 9.8125 0 
z
" id="DejaVuSans-77"/>
        <path d="M 34.28125 27.484375 
Q 23.390625 27.484375 19.1875 25 
Q 14.984375 22.515625 14.984375 16.5 
Q 14.984375 11.71875 18.140625 8.90625 
Q 21.296875 6.109375 26.703125 6.109375 
Q 34.1875 6.109375 38.703125 11.40625 
Q 43.21875 16.703125 43.21875 25.484375 
L 43.21875 27.484375 
z
M 52.203125 31.203125 
L 52.203125 0 
L 43.21875 0 
L 43.21875 8.296875 
Q 40.140625 3.328125 35.546875 0.953125 
Q 30.953125 -1.421875 24.3125 -1.421875 
Q 15.921875 -1.421875 10.953125 3.296875 
Q 6 8.015625 6 15.921875 
Q 6 25.140625 12.171875 29.828125 
Q 18.359375 34.515625 30.609375 34.515625 
L 43.21875 34.515625 
L 43.21875 35.40625 
Q 43.21875 41.609375 39.140625 45 
Q 35.0625 48.390625 27.6875 48.390625 
Q 23 48.390625 18.546875 47.265625 
Q 14.109375 46.140625 10.015625 43.890625 
L 10.015625 52.203125 
Q 14.9375 54.109375 19.578125 55.046875 
Q 24.21875 56 28.609375 56 
Q 40.484375 56 46.34375 49.84375 
Q 52.203125 43.703125 52.203125 31.203125 
z
" id="DejaVuSans-97"/>
        <path d="M 32.171875 -5.078125 
Q 28.375 -14.84375 24.75 -17.8125 
Q 21.140625 -20.796875 15.09375 -20.796875 
L 7.90625 -20.796875 
L 7.90625 -13.28125 
L 13.1875 -13.28125 
Q 16.890625 -13.28125 18.9375 -11.515625 
Q 21 -9.765625 23.484375 -3.21875 
L 25.09375 0.875 
L 2.984375 54.6875 
L 12.5 54.6875 
L 29.59375 11.921875 
L 46.6875 54.6875 
L 56.203125 54.6875 
z
" id="DejaVuSans-121"/>
       </defs>
       <use xlink:href="#DejaVuSans-77"/>
       <use x="86.279297" xlink:href="#DejaVuSans-97"/>
       <use x="147.558594" xlink:href="#DejaVuSans-121"/>
      </g>
     </g>
    </g>
    <g id="xtick_4">
     <g id="line2d_4">
      <g>
       <use style="stroke:#000000;stroke-width:0.8;" x="215.232955" xlink:href="#ma856035438" y="315"/>
      </g>
     </g>
     <g id="text_3">
      <!-- Jun -->
      <g transform="translate(207.420455 329.598437)scale(0.1 -0.1)">
       <defs>
        <path d="M 9.8125 72.90625 
L 19.671875 72.90625 
L 19.671875 5.078125 
Q 19.671875 -8.109375 14.671875 -14.0625 
Q 9.671875 -20.015625 -1.421875 -20.015625 
L -5.171875 -20.015625 
L -5.171875 -11.71875 
L -2.09375 -11.71875 
Q 4.4375 -11.71875 7.125 -8.046875 
Q 9.8125 -4.390625 9.8125 5.078125 
z
" id="DejaVuSans-74"/>
        <path d="M 8.5 21.578125 
L 8.5 54.6875 
L 17.484375 54.6875 
L 17.484375 21.921875 
Q 17.484375 14.15625 20.5 10.265625 
Q 23.53125 6.390625 29.59375 6.390625 
Q 36.859375 6.390625 41.078125 11.03125 
Q 45.3125 15.671875 45.3125 23.6875 
L 45.3125 54.6875 
L 54.296875 54.6875 
L 54.296875 0 
L 45.3125 0 
L 45.3125 8.40625 
Q 42.046875 3.421875 37.71875 1 
Q 33.40625 -1.421875 27.6875 -1.421875 
Q 18.265625 -1.421875 13.375 4.4375 
Q 8.5 10.296875 8.5 21.578125 
z
M 31.109375 56 
z
" id="DejaVuSans-117"/>
        <path d="M 54.890625 33.015625 
L 54.890625 0 
L 45.90625 0 
L 45.90625 32.71875 
Q 45.90625 40.484375 42.875 44.328125 
Q 39.84375 48.1875 33.796875 48.1875 
Q 26.515625 48.1875 22.3125 43.546875 
Q 18.109375 38.921875 18.109375 30.90625 
L 18.109375 0 
L 9.078125 0 
L 9.078125 54.6875 
L 18.109375 54.6875 
L 18.109375 46.1875 
Q 21.34375 51.125 25.703125 53.5625 
Q 30.078125 56 35.796875 56 
Q 45.21875 56 50.046875 50.171875 
Q 54.890625 44.34375 54.890625 33.015625 
z
" id="DejaVuSans-110"/>
       </defs>
       <use xlink:href="#DejaVuSans-74"/>
       <use x="29.492188" xlink:href="#DejaVuSans-117"/>
       <use x="92.871094" xlink:href="#DejaVuSans-110"/>
      </g>
     </g>
    </g>
    <g id="xtick_5">
     <g id="line2d_5">
      <g>
       <use style="stroke:#000000;stroke-width:0.8;" x="262.789773" xlink:href="#ma856035438" y="315"/>
      </g>
     </g>
     <g id="text_4">
      <!-- Jul -->
      <g transform="translate(256.75696 329.598437)scale(0.1 -0.1)">
       <defs>
        <path d="M 9.421875 75.984375 
L 18.40625 75.984375 
L 18.40625 0 
L 9.421875 0 
z
" id="DejaVuSans-108"/>
       </defs>
       <use xlink:href="#DejaVuSans-74"/>
       <use x="29.492188" xlink:href="#DejaVuSans-117"/>
       <use x="92.871094" xlink:href="#DejaVuSans-108"/>
      </g>
     </g>
    </g>
    <g id="xtick_6">
     <g id="line2d_6">
      <g>
       <use style="stroke:#000000;stroke-width:0.8;" x="311.931818" xlink:href="#ma856035438" y="315"/>
      </g>
     </g>
     <g id="text_5">
      <!-- Aug -->
      <g transform="translate(302.168537 329.598437)scale(0.1 -0.1)">
       <defs>
        <path d="M 45.40625 27.984375 
Q 45.40625 37.75 41.375 43.109375 
Q 37.359375 48.484375 30.078125 48.484375 
Q 22.859375 48.484375 18.828125 43.109375 
Q 14.796875 37.75 14.796875 27.984375 
Q 14.796875 18.265625 18.828125 12.890625 
Q 22.859375 7.515625 30.078125 7.515625 
Q 37.359375 7.515625 41.375 12.890625 
Q 45.40625 18.265625 45.40625 27.984375 
z
M 54.390625 6.78125 
Q 54.390625 -7.171875 48.1875 -13.984375 
Q 42 -20.796875 29.203125 -20.796875 
Q 24.46875 -20.796875 20.265625 -20.09375 
Q 16.0625 -19.390625 12.109375 -17.921875 
L 12.109375 -9.1875 
Q 16.0625 -11.328125 19.921875 -12.34375 
Q 23.78125 -13.375 27.78125 -13.375 
Q 36.625 -13.375 41.015625 -8.765625 
Q 45.40625 -4.15625 45.40625 5.171875 
L 45.40625 9.625 
Q 42.625 4.78125 38.28125 2.390625 
Q 33.9375 0 27.875 0 
Q 17.828125 0 11.671875 7.65625 
Q 5.515625 15.328125 5.515625 27.984375 
Q 5.515625 40.671875 11.671875 48.328125 
Q 17.828125 56 27.875 56 
Q 33.9375 56 38.28125 53.609375 
Q 42.625 51.21875 45.40625 46.390625 
L 45.40625 54.6875 
L 54.390625 54.6875 
z
" id="DejaVuSans-103"/>
       </defs>
       <use xlink:href="#DejaVuSans-65"/>
       <use x="68.408203" xlink:href="#DejaVuSans-117"/>
       <use x="131.787109" xlink:href="#DejaVuSans-103"/>
      </g>
     </g>
    </g>
    <g id="xtick_7">
     <g id="line2d_7">
      <g>
       <use style="stroke:#000000;stroke-width:0.8;" x="361.073864" xlink:href="#ma856035438" y="315"/>
      </g>
     </g>
     <g id="text_6">
      <!-- Sep -->
      <g transform="translate(351.648864 329.598437)scale(0.1 -0.1)">
       <defs>
        <path d="M 53.515625 70.515625 
L 53.515625 60.890625 
Q 47.90625 63.578125 42.921875 64.890625 
Q 37.9375 66.21875 33.296875 66.21875 
Q 25.25 66.21875 20.875 63.09375 
Q 16.5 59.96875 16.5 54.203125 
Q 16.5 49.359375 19.40625 46.890625 
Q 22.3125 44.4375 30.421875 42.921875 
L 36.375 41.703125 
Q 47.40625 39.59375 52.65625 34.296875 
Q 57.90625 29 57.90625 20.125 
Q 57.90625 9.515625 50.796875 4.046875 
Q 43.703125 -1.421875 29.984375 -1.421875 
Q 24.8125 -1.421875 18.96875 -0.25 
Q 13.140625 0.921875 6.890625 3.21875 
L 6.890625 13.375 
Q 12.890625 10.015625 18.65625 8.296875 
Q 24.421875 6.59375 29.984375 6.59375 
Q 38.421875 6.59375 43.015625 9.90625 
Q 47.609375 13.234375 47.609375 19.390625 
Q 47.609375 24.75 44.3125 27.78125 
Q 41.015625 30.8125 33.5 32.328125 
L 27.484375 33.5 
Q 16.453125 35.6875 11.515625 40.375 
Q 6.59375 45.0625 6.59375 53.421875 
Q 6.59375 63.09375 13.40625 68.65625 
Q 20.21875 74.21875 32.171875 74.21875 
Q 37.3125 74.21875 42.625 73.28125 
Q 47.953125 72.359375 53.515625 70.515625 
z
" id="DejaVuSans-83"/>
        <path d="M 56.203125 29.59375 
L 56.203125 25.203125 
L 14.890625 25.203125 
Q 15.484375 15.921875 20.484375 11.0625 
Q 25.484375 6.203125 34.421875 6.203125 
Q 39.59375 6.203125 44.453125 7.46875 
Q 49.3125 8.734375 54.109375 11.28125 
L 54.109375 2.78125 
Q 49.265625 0.734375 44.1875 -0.34375 
Q 39.109375 -1.421875 33.890625 -1.421875 
Q 20.796875 -1.421875 13.15625 6.1875 
Q 5.515625 13.8125 5.515625 26.8125 
Q 5.515625 40.234375 12.765625 48.109375 
Q 20.015625 56 32.328125 56 
Q 43.359375 56 49.78125 48.890625 
Q 56.203125 41.796875 56.203125 29.59375 
z
M 47.21875 32.234375 
Q 47.125 39.59375 43.09375 43.984375 
Q 39.0625 48.390625 32.421875 48.390625 
Q 24.90625 48.390625 20.390625 44.140625 
Q 15.875 39.890625 15.1875 32.171875 
z
" id="DejaVuSans-101"/>
       </defs>
       <use xlink:href="#DejaVuSans-83"/>
       <use x="63.476562" xlink:href="#DejaVuSans-101"/>
       <use x="125" xlink:href="#DejaVuSans-112"/>
      </g>
     </g>
    </g>
    <g id="xtick_8">
     <g id="line2d_8">
      <g>
       <use style="stroke:#000000;stroke-width:0.8;" x="408.630682" xlink:href="#ma856035438" y="315"/>
      </g>
     </g>
     <g id="text_7">
      <!-- Oct -->
      <g transform="translate(399.985369 329.598437)scale(0.1 -0.1)">
       <defs>
        <path d="M 39.40625 66.21875 
Q 28.65625 66.21875 22.328125 58.203125 
Q 16.015625 50.203125 16.015625 36.375 
Q 16.015625 22.609375 22.328125 14.59375 
Q 28.65625 6.59375 39.40625 6.59375 
Q 50.140625 6.59375 56.421875 14.59375 
Q 62.703125 22.609375 62.703125 36.375 
Q 62.703125 50.203125 56.421875 58.203125 
Q 50.140625 66.21875 39.40625 66.21875 
z
M 39.40625 74.21875 
Q 54.734375 74.21875 63.90625 63.9375 
Q 73.09375 53.65625 73.09375 36.375 
Q 73.09375 19.140625 63.90625 8.859375 
Q 54.734375 -1.421875 39.40625 -1.421875 
Q 24.03125 -1.421875 14.8125 8.828125 
Q 5.609375 19.09375 5.609375 36.375 
Q 5.609375 53.65625 14.8125 63.9375 
Q 24.03125 74.21875 39.40625 74.21875 
z
" id="DejaVuSans-79"/>
        <path d="M 48.78125 52.59375 
L 48.78125 44.1875 
Q 44.96875 46.296875 41.140625 47.34375 
Q 37.3125 48.390625 33.40625 48.390625 
Q 24.65625 48.390625 19.8125 42.84375 
Q 14.984375 37.3125 14.984375 27.296875 
Q 14.984375 17.28125 19.8125 11.734375 
Q 24.65625 6.203125 33.40625 6.203125 
Q 37.3125 6.203125 41.140625 7.25 
Q 44.96875 8.296875 48.78125 10.40625 
L 48.78125 2.09375 
Q 45.015625 0.34375 40.984375 -0.53125 
Q 36.96875 -1.421875 32.421875 -1.421875 
Q 20.0625 -1.421875 12.78125 6.34375 
Q 5.515625 14.109375 5.515625 27.296875 
Q 5.515625 40.671875 12.859375 48.328125 
Q 20.21875 56 33.015625 56 
Q 37.15625 56 41.109375 55.140625 
Q 45.0625 54.296875 48.78125 52.59375 
z
" id="DejaVuSans-99"/>
        <path d="M 18.3125 70.21875 
L 18.3125 54.6875 
L 36.8125 54.6875 
L 36.8125 47.703125 
L 18.3125 47.703125 
L 18.3125 18.015625 
Q 18.3125 11.328125 20.140625 9.421875 
Q 21.96875 7.515625 27.59375 7.515625 
L 36.8125 7.515625 
L 36.8125 0 
L 27.59375 0 
Q 17.1875 0 13.234375 3.875 
Q 9.28125 7.765625 9.28125 18.015625 
L 9.28125 47.703125 
L 2.6875 47.703125 
L 2.6875 54.6875 
L 9.28125 54.6875 
L 9.28125 70.21875 
z
" id="DejaVuSans-116"/>
       </defs>
       <use xlink:href="#DejaVuSans-79"/>
       <use x="78.710938" xlink:href="#DejaVuSans-99"/>
       <use x="133.691406" xlink:href="#DejaVuSans-116"/>
      </g>
     </g>
    </g>
    <g id="xtick_9">
     <g id="line2d_9">
      <g>
       <use style="stroke:#000000;stroke-width:0.8;" x="457.772727" xlink:href="#ma856035438" y="315"/>
      </g>
     </g>
     <g id="text_8">
      <!-- Nov -->
      <g transform="translate(448.013352 329.598437)scale(0.1 -0.1)">
       <defs>
        <path d="M 9.8125 72.90625 
L 23.09375 72.90625 
L 55.421875 11.921875 
L 55.421875 72.90625 
L 64.984375 72.90625 
L 64.984375 0 
L 51.703125 0 
L 19.390625 60.984375 
L 19.390625 0 
L 9.8125 0 
z
" id="DejaVuSans-78"/>
        <path d="M 30.609375 48.390625 
Q 23.390625 48.390625 19.1875 42.75 
Q 14.984375 37.109375 14.984375 27.296875 
Q 14.984375 17.484375 19.15625 11.84375 
Q 23.34375 6.203125 30.609375 6.203125 
Q 37.796875 6.203125 41.984375 11.859375 
Q 46.1875 17.53125 46.1875 27.296875 
Q 46.1875 37.015625 41.984375 42.703125 
Q 37.796875 48.390625 30.609375 48.390625 
z
M 30.609375 56 
Q 42.328125 56 49.015625 48.375 
Q 55.71875 40.765625 55.71875 27.296875 
Q 55.71875 13.875 49.015625 6.21875 
Q 42.328125 -1.421875 30.609375 -1.421875 
Q 18.84375 -1.421875 12.171875 6.21875 
Q 5.515625 13.875 5.515625 27.296875 
Q 5.515625 40.765625 12.171875 48.375 
Q 18.84375 56 30.609375 56 
z
" id="DejaVuSans-111"/>
        <path d="M 2.984375 54.6875 
L 12.5 54.6875 
L 29.59375 8.796875 
L 46.6875 54.6875 
L 56.203125 54.6875 
L 35.6875 0 
L 23.484375 0 
z
" id="DejaVuSans-118"/>
       </defs>
       <use xlink:href="#DejaVuSans-78"/>
       <use x="74.804688" xlink:href="#DejaVuSans-111"/>
       <use x="135.986328" xlink:href="#DejaVuSans-118"/>
      </g>
     </g>
    </g>
    <g id="xtick_10">
     <g id="line2d_10">
      <g>
       <use style="stroke:#000000;stroke-width:0.8;" x="505.329545" xlink:href="#ma856035438" y="315"/>
      </g>
     </g>
     <g id="text_9">
      <!-- Dec -->
      <g transform="translate(495.653764 329.598437)scale(0.1 -0.1)">
       <defs>
        <path d="M 19.671875 64.796875 
L 19.671875 8.109375 
L 31.59375 8.109375 
Q 46.6875 8.109375 53.6875 14.9375 
Q 60.6875 21.78125 60.6875 36.53125 
Q 60.6875 51.171875 53.6875 57.984375 
Q 46.6875 64.796875 31.59375 64.796875 
z
M 9.8125 72.90625 
L 30.078125 72.90625 
Q 51.265625 72.90625 61.171875 64.09375 
Q 71.09375 55.28125 71.09375 36.53125 
Q 71.09375 17.671875 61.125 8.828125 
Q 51.171875 0 30.078125 0 
L 9.8125 0 
z
" id="DejaVuSans-68"/>
       </defs>
       <use xlink:href="#DejaVuSans-68"/>
       <use x="77.001953" xlink:href="#DejaVuSans-101"/>
       <use x="138.525391" xlink:href="#DejaVuSans-99"/>
      </g>
     </g>
    </g>
    <g id="xtick_11">
     <g id="line2d_11">
      <g>
       <use style="stroke:#000000;stroke-width:0.8;" x="554.471591" xlink:href="#ma856035438" y="315"/>
      </g>
     </g>
     <g id="text_10">
      <!-- Jan -->
      <g transform="translate(546.763778 329.598437)scale(0.1 -0.1)">
       <use xlink:href="#DejaVuSans-74"/>
       <use x="29.492188" xlink:href="#DejaVuSans-97"/>
       <use x="90.771484" xlink:href="#DejaVuSans-110"/>
      </g>
      <!-- 2021 -->
      <g transform="translate(541.746591 340.79625)scale(0.1 -0.1)">
       <defs>
        <path d="M 19.1875 8.296875 
L 53.609375 8.296875 
L 53.609375 0 
L 7.328125 0 
L 7.328125 8.296875 
Q 12.9375 14.109375 22.625 23.890625 
Q 32.328125 33.6875 34.8125 36.53125 
Q 39.546875 41.84375 41.421875 45.53125 
Q 43.3125 49.21875 43.3125 52.78125 
Q 43.3125 58.59375 39.234375 62.25 
Q 35.15625 65.921875 28.609375 65.921875 
Q 23.96875 65.921875 18.8125 64.3125 
Q 13.671875 62.703125 7.8125 59.421875 
L 7.8125 69.390625 
Q 13.765625 71.78125 18.9375 73 
Q 24.125 74.21875 28.421875 74.21875 
Q 39.75 74.21875 46.484375 68.546875 
Q 53.21875 62.890625 53.21875 53.421875 
Q 53.21875 48.921875 51.53125 44.890625 
Q 49.859375 40.875 45.40625 35.40625 
Q 44.1875 33.984375 37.640625 27.21875 
Q 31.109375 20.453125 19.1875 8.296875 
z
" id="DejaVuSans-50"/>
        <path d="M 31.78125 66.40625 
Q 24.171875 66.40625 20.328125 58.90625 
Q 16.5 51.421875 16.5 36.375 
Q 16.5 21.390625 20.328125 13.890625 
Q 24.171875 6.390625 31.78125 6.390625 
Q 39.453125 6.390625 43.28125 13.890625 
Q 47.125 21.390625 47.125 36.375 
Q 47.125 51.421875 43.28125 58.90625 
Q 39.453125 66.40625 31.78125 66.40625 
z
M 31.78125 74.21875 
Q 44.046875 74.21875 50.515625 64.515625 
Q 56.984375 54.828125 56.984375 36.375 
Q 56.984375 17.96875 50.515625 8.265625 
Q 44.046875 -1.421875 31.78125 -1.421875 
Q 19.53125 -1.421875 13.0625 8.265625 
Q 6.59375 17.96875 6.59375 36.375 
Q 6.59375 54.828125 13.0625 64.515625 
Q 19.53125 74.21875 31.78125 74.21875 
z
" id="DejaVuSans-48"/>
        <path d="M 12.40625 8.296875 
L 28.515625 8.296875 
L 28.515625 63.921875 
L 10.984375 60.40625 
L 10.984375 69.390625 
L 28.421875 72.90625 
L 38.28125 72.90625 
L 38.28125 8.296875 
L 54.390625 8.296875 
L 54.390625 0 
L 12.40625 0 
z
" id="DejaVuSans-49"/>
       </defs>
       <use xlink:href="#DejaVuSans-50"/>
       <use x="63.623047" xlink:href="#DejaVuSans-48"/>
       <use x="127.246094" xlink:href="#DejaVuSans-50"/>
       <use x="190.869141" xlink:href="#DejaVuSans-49"/>
      </g>
     </g>
    </g>
    <g id="xtick_12">
     <g id="line2d_12">
      <g>
       <use style="stroke:#000000;stroke-width:0.8;" x="603.613636" xlink:href="#ma856035438" y="315"/>
      </g>
     </g>
     <g id="text_11">
      <!-- Feb -->
      <g transform="translate(594.762074 329.598437)scale(0.1 -0.1)">
       <defs>
        <path d="M 9.8125 72.90625 
L 51.703125 72.90625 
L 51.703125 64.59375 
L 19.671875 64.59375 
L 19.671875 43.109375 
L 48.578125 43.109375 
L 48.578125 34.8125 
L 19.671875 34.8125 
L 19.671875 0 
L 9.8125 0 
z
" id="DejaVuSans-70"/>
        <path d="M 48.6875 27.296875 
Q 48.6875 37.203125 44.609375 42.84375 
Q 40.53125 48.484375 33.40625 48.484375 
Q 26.265625 48.484375 22.1875 42.84375 
Q 18.109375 37.203125 18.109375 27.296875 
Q 18.109375 17.390625 22.1875 11.75 
Q 26.265625 6.109375 33.40625 6.109375 
Q 40.53125 6.109375 44.609375 11.75 
Q 48.6875 17.390625 48.6875 27.296875 
z
M 18.109375 46.390625 
Q 20.953125 51.265625 25.265625 53.625 
Q 29.59375 56 35.59375 56 
Q 45.5625 56 51.78125 48.09375 
Q 58.015625 40.1875 58.015625 27.296875 
Q 58.015625 14.40625 51.78125 6.484375 
Q 45.5625 -1.421875 35.59375 -1.421875 
Q 29.59375 -1.421875 25.265625 0.953125 
Q 20.953125 3.328125 18.109375 8.203125 
L 18.109375 0 
L 9.078125 0 
L 9.078125 75.984375 
L 18.109375 75.984375 
z
" id="DejaVuSans-98"/>
       </defs>
       <use xlink:href="#DejaVuSans-70"/>
       <use x="52.019531" xlink:href="#DejaVuSans-101"/>
       <use x="113.542969" xlink:href="#DejaVuSans-98"/>
      </g>
     </g>
    </g>
    <g id="xtick_13">
     <g id="line2d_13">
      <g>
       <use style="stroke:#000000;stroke-width:0.8;" x="648" xlink:href="#ma856035438" y="315"/>
      </g>
     </g>
     <g id="text_12">
      <!-- Mar -->
      <g transform="translate(638.566406 329.598437)scale(0.1 -0.1)">
       <use xlink:href="#DejaVuSans-77"/>
       <use x="86.279297" xlink:href="#DejaVuSans-97"/>
       <use x="147.558594" xlink:href="#DejaVuSans-114"/>
      </g>
     </g>
    </g>
    <g id="xtick_14">
     <g id="line2d_14">
      <defs>
       <path d="M 0 0 
L 0 2 
" id="m5d2d5b7400" style="stroke:#000000;stroke-width:0.6;"/>
      </defs>
      <g>
       <use style="stroke:#000000;stroke-width:0.6;" x="93.170455" xlink:href="#m5d2d5b7400" y="315"/>
      </g>
     </g>
    </g>
    <g id="xtick_15">
     <g id="line2d_15">
      <g>
       <use style="stroke:#000000;stroke-width:0.6;" x="104.267045" xlink:href="#m5d2d5b7400" y="315"/>
      </g>
     </g>
    </g>
    <g id="xtick_16">
     <g id="line2d_16">
      <g>
       <use style="stroke:#000000;stroke-width:0.6;" x="115.363636" xlink:href="#m5d2d5b7400" y="315"/>
      </g>
     </g>
    </g>
    <g id="xtick_17">
     <g id="line2d_17">
      <g>
       <use style="stroke:#000000;stroke-width:0.6;" x="126.460227" xlink:href="#m5d2d5b7400" y="315"/>
      </g>
     </g>
    </g>
    <g id="xtick_18">
     <g id="line2d_18">
      <g>
       <use style="stroke:#000000;stroke-width:0.6;" x="137.556818" xlink:href="#m5d2d5b7400" y="315"/>
      </g>
     </g>
    </g>
    <g id="xtick_19">
     <g id="line2d_19">
      <g>
       <use style="stroke:#000000;stroke-width:0.6;" x="148.653409" xlink:href="#m5d2d5b7400" y="315"/>
      </g>
     </g>
    </g>
    <g id="xtick_20">
     <g id="line2d_20">
      <g>
       <use style="stroke:#000000;stroke-width:0.6;" x="159.75" xlink:href="#m5d2d5b7400" y="315"/>
      </g>
     </g>
    </g>
    <g id="xtick_21">
     <g id="line2d_21">
      <g>
       <use style="stroke:#000000;stroke-width:0.6;" x="170.846591" xlink:href="#m5d2d5b7400" y="315"/>
      </g>
     </g>
    </g>
    <g id="xtick_22">
     <g id="line2d_22">
      <g>
       <use style="stroke:#000000;stroke-width:0.6;" x="181.943182" xlink:href="#m5d2d5b7400" y="315"/>
      </g>
     </g>
    </g>
    <g id="xtick_23">
     <g id="line2d_23">
      <g>
       <use style="stroke:#000000;stroke-width:0.6;" x="193.039773" xlink:href="#m5d2d5b7400" y="315"/>
      </g>
     </g>
    </g>
    <g id="xtick_24">
     <g id="line2d_24">
      <g>
       <use style="stroke:#000000;stroke-width:0.6;" x="204.136364" xlink:href="#m5d2d5b7400" y="315"/>
      </g>
     </g>
    </g>
    <g id="xtick_25">
     <g id="line2d_25">
      <g>
       <use style="stroke:#000000;stroke-width:0.6;" x="226.329545" xlink:href="#m5d2d5b7400" y="315"/>
      </g>
     </g>
    </g>
    <g id="xtick_26">
     <g id="line2d_26">
      <g>
       <use style="stroke:#000000;stroke-width:0.6;" x="237.426136" xlink:href="#m5d2d5b7400" y="315"/>
      </g>
     </g>
    </g>
    <g id="xtick_27">
     <g id="line2d_27">
      <g>
       <use style="stroke:#000000;stroke-width:0.6;" x="248.522727" xlink:href="#m5d2d5b7400" y="315"/>
      </g>
     </g>
    </g>
    <g id="xtick_28">
     <g id="line2d_28">
      <g>
       <use style="stroke:#000000;stroke-width:0.6;" x="259.619318" xlink:href="#m5d2d5b7400" y="315"/>
      </g>
     </g>
    </g>
    <g id="xtick_29">
     <g id="line2d_29">
      <g>
       <use style="stroke:#000000;stroke-width:0.6;" x="270.715909" xlink:href="#m5d2d5b7400" y="315"/>
      </g>
     </g>
    </g>
    <g id="xtick_30">
     <g id="line2d_30">
      <g>
       <use style="stroke:#000000;stroke-width:0.6;" x="281.8125" xlink:href="#m5d2d5b7400" y="315"/>
      </g>
     </g>
    </g>
    <g id="xtick_31">
     <g id="line2d_31">
      <g>
       <use style="stroke:#000000;stroke-width:0.6;" x="292.909091" xlink:href="#m5d2d5b7400" y="315"/>
      </g>
     </g>
    </g>
    <g id="xtick_32">
     <g id="line2d_32">
      <g>
       <use style="stroke:#000000;stroke-width:0.6;" x="304.005682" xlink:href="#m5d2d5b7400" y="315"/>
      </g>
     </g>
    </g>
    <g id="xtick_33">
     <g id="line2d_33">
      <g>
       <use style="stroke:#000000;stroke-width:0.6;" x="315.102273" xlink:href="#m5d2d5b7400" y="315"/>
      </g>
     </g>
    </g>
    <g id="xtick_34">
     <g id="line2d_34">
      <g>
       <use style="stroke:#000000;stroke-width:0.6;" x="326.198864" xlink:href="#m5d2d5b7400" y="315"/>
      </g>
     </g>
    </g>
    <g id="xtick_35">
     <g id="line2d_35">
      <g>
       <use style="stroke:#000000;stroke-width:0.6;" x="337.295455" xlink:href="#m5d2d5b7400" y="315"/>
      </g>
     </g>
    </g>
    <g id="xtick_36">
     <g id="line2d_36">
      <g>
       <use style="stroke:#000000;stroke-width:0.6;" x="348.392045" xlink:href="#m5d2d5b7400" y="315"/>
      </g>
     </g>
    </g>
    <g id="xtick_37">
     <g id="line2d_37">
      <g>
       <use style="stroke:#000000;stroke-width:0.6;" x="359.488636" xlink:href="#m5d2d5b7400" y="315"/>
      </g>
     </g>
    </g>
    <g id="xtick_38">
     <g id="line2d_38">
      <g>
       <use style="stroke:#000000;stroke-width:0.6;" x="370.585227" xlink:href="#m5d2d5b7400" y="315"/>
      </g>
     </g>
    </g>
    <g id="xtick_39">
     <g id="line2d_39">
      <g>
       <use style="stroke:#000000;stroke-width:0.6;" x="381.681818" xlink:href="#m5d2d5b7400" y="315"/>
      </g>
     </g>
    </g>
    <g id="xtick_40">
     <g id="line2d_40">
      <g>
       <use style="stroke:#000000;stroke-width:0.6;" x="392.778409" xlink:href="#m5d2d5b7400" y="315"/>
      </g>
     </g>
    </g>
    <g id="xtick_41">
     <g id="line2d_41">
      <g>
       <use style="stroke:#000000;stroke-width:0.6;" x="403.875" xlink:href="#m5d2d5b7400" y="315"/>
      </g>
     </g>
    </g>
    <g id="xtick_42">
     <g id="line2d_42">
      <g>
       <use style="stroke:#000000;stroke-width:0.6;" x="414.971591" xlink:href="#m5d2d5b7400" y="315"/>
      </g>
     </g>
    </g>
    <g id="xtick_43">
     <g id="line2d_43">
      <g>
       <use style="stroke:#000000;stroke-width:0.6;" x="426.068182" xlink:href="#m5d2d5b7400" y="315"/>
      </g>
     </g>
    </g>
    <g id="xtick_44">
     <g id="line2d_44">
      <g>
       <use style="stroke:#000000;stroke-width:0.6;" x="437.164773" xlink:href="#m5d2d5b7400" y="315"/>
      </g>
     </g>
    </g>
    <g id="xtick_45">
     <g id="line2d_45">
      <g>
       <use style="stroke:#000000;stroke-width:0.6;" x="448.261364" xlink:href="#m5d2d5b7400" y="315"/>
      </g>
     </g>
    </g>
    <g id="xtick_46">
     <g id="line2d_46">
      <g>
       <use style="stroke:#000000;stroke-width:0.6;" x="459.357955" xlink:href="#m5d2d5b7400" y="315"/>
      </g>
     </g>
    </g>
    <g id="xtick_47">
     <g id="line2d_47">
      <g>
       <use style="stroke:#000000;stroke-width:0.6;" x="470.454545" xlink:href="#m5d2d5b7400" y="315"/>
      </g>
     </g>
    </g>
    <g id="xtick_48">
     <g id="line2d_48">
      <g>
       <use style="stroke:#000000;stroke-width:0.6;" x="481.551136" xlink:href="#m5d2d5b7400" y="315"/>
      </g>
     </g>
    </g>
    <g id="xtick_49">
     <g id="line2d_49">
      <g>
       <use style="stroke:#000000;stroke-width:0.6;" x="492.647727" xlink:href="#m5d2d5b7400" y="315"/>
      </g>
     </g>
    </g>
    <g id="xtick_50">
     <g id="line2d_50">
      <g>
       <use style="stroke:#000000;stroke-width:0.6;" x="503.744318" xlink:href="#m5d2d5b7400" y="315"/>
      </g>
     </g>
    </g>
    <g id="xtick_51">
     <g id="line2d_51">
      <g>
       <use style="stroke:#000000;stroke-width:0.6;" x="514.840909" xlink:href="#m5d2d5b7400" y="315"/>
      </g>
     </g>
    </g>
    <g id="xtick_52">
     <g id="line2d_52">
      <g>
       <use style="stroke:#000000;stroke-width:0.6;" x="525.9375" xlink:href="#m5d2d5b7400" y="315"/>
      </g>
     </g>
    </g>
    <g id="xtick_53">
     <g id="line2d_53">
      <g>
       <use style="stroke:#000000;stroke-width:0.6;" x="537.034091" xlink:href="#m5d2d5b7400" y="315"/>
      </g>
     </g>
    </g>
    <g id="xtick_54">
     <g id="line2d_54">
      <g>
       <use style="stroke:#000000;stroke-width:0.6;" x="548.130682" xlink:href="#m5d2d5b7400" y="315"/>
      </g>
     </g>
    </g>
    <g id="xtick_55">
     <g id="line2d_55">
      <g>
       <use style="stroke:#000000;stroke-width:0.6;" x="559.227273" xlink:href="#m5d2d5b7400" y="315"/>
      </g>
     </g>
    </g>
    <g id="xtick_56">
     <g id="line2d_56">
      <g>
       <use style="stroke:#000000;stroke-width:0.6;" x="570.323864" xlink:href="#m5d2d5b7400" y="315"/>
      </g>
     </g>
    </g>
    <g id="xtick_57">
     <g id="line2d_57">
      <g>
       <use style="stroke:#000000;stroke-width:0.6;" x="581.420455" xlink:href="#m5d2d5b7400" y="315"/>
      </g>
     </g>
    </g>
    <g id="xtick_58">
     <g id="line2d_58">
      <g>
       <use style="stroke:#000000;stroke-width:0.6;" x="592.517045" xlink:href="#m5d2d5b7400" y="315"/>
      </g>
     </g>
    </g>
    <g id="xtick_59">
     <g id="line2d_59">
      <g>
       <use style="stroke:#000000;stroke-width:0.6;" x="614.710227" xlink:href="#m5d2d5b7400" y="315"/>
      </g>
     </g>
    </g>
    <g id="xtick_60">
     <g id="line2d_60">
      <g>
       <use style="stroke:#000000;stroke-width:0.6;" x="625.806818" xlink:href="#m5d2d5b7400" y="315"/>
      </g>
     </g>
    </g>
    <g id="xtick_61">
     <g id="line2d_61">
      <g>
       <use style="stroke:#000000;stroke-width:0.6;" x="636.903409" xlink:href="#m5d2d5b7400" y="315"/>
      </g>
     </g>
    </g>
    <g id="text_13">
     <!-- date -->
     <g transform="translate(357.725 354.474375)scale(0.1 -0.1)">
      <defs>
       <path d="M 45.40625 46.390625 
L 45.40625 75.984375 
L 54.390625 75.984375 
L 54.390625 0 
L 45.40625 0 
L 45.40625 8.203125 
Q 42.578125 3.328125 38.25 0.953125 
Q 33.9375 -1.421875 27.875 -1.421875 
Q 17.96875 -1.421875 11.734375 6.484375 
Q 5.515625 14.40625 5.515625 27.296875 
Q 5.515625 40.1875 11.734375 48.09375 
Q 17.96875 56 27.875 56 
Q 33.9375 56 38.25 53.625 
Q 42.578125 51.265625 45.40625 46.390625 
z
M 14.796875 27.296875 
Q 14.796875 17.390625 18.875 11.75 
Q 22.953125 6.109375 30.078125 6.109375 
Q 37.203125 6.109375 41.296875 11.75 
Q 45.40625 17.390625 45.40625 27.296875 
Q 45.40625 37.203125 41.296875 42.84375 
Q 37.203125 48.484375 30.078125 48.484375 
Q 22.953125 48.484375 18.875 42.84375 
Q 14.796875 37.203125 14.796875 27.296875 
z
" id="DejaVuSans-100"/>
      </defs>
      <use xlink:href="#DejaVuSans-100"/>
      <use x="63.476562" xlink:href="#DejaVuSans-97"/>
      <use x="124.755859" xlink:href="#DejaVuSans-116"/>
      <use x="163.964844" xlink:href="#DejaVuSans-101"/>
     </g>
    </g>
   </g>
   <g id="matplotlib.axis_2">
    <g id="ytick_1">
     <g id="line2d_62">
      <path clip-path="url(#p9cd363a89b)" d="M 90 289.963527 
L 648 289.963527 
" style="fill:none;stroke:#b0b0b0;stroke-dasharray:0.8,1.32;stroke-dashoffset:0;stroke-width:0.8;"/>
     </g>
     <g id="line2d_63">
      <defs>
       <path d="M 0 0 
L -3.5 0 
" id="m8de5b05a32" style="stroke:#000000;stroke-width:0.8;"/>
      </defs>
      <g>
       <use style="stroke:#000000;stroke-width:0.8;" x="90" xlink:href="#m8de5b05a32" y="289.963527"/>
      </g>
     </g>
     <g id="text_14">
      <!-- 0.50 -->
      <g transform="translate(60.734375 293.762746)scale(0.1 -0.1)">
       <defs>
        <path d="M 10.6875 12.40625 
L 21 12.40625 
L 21 0 
L 10.6875 0 
z
" id="DejaVuSans-46"/>
        <path d="M 10.796875 72.90625 
L 49.515625 72.90625 
L 49.515625 64.59375 
L 19.828125 64.59375 
L 19.828125 46.734375 
Q 21.96875 47.46875 24.109375 47.828125 
Q 26.265625 48.1875 28.421875 48.1875 
Q 40.625 48.1875 47.75 41.5 
Q 54.890625 34.8125 54.890625 23.390625 
Q 54.890625 11.625 47.5625 5.09375 
Q 40.234375 -1.421875 26.90625 -1.421875 
Q 22.3125 -1.421875 17.546875 -0.640625 
Q 12.796875 0.140625 7.71875 1.703125 
L 7.71875 11.625 
Q 12.109375 9.234375 16.796875 8.0625 
Q 21.484375 6.890625 26.703125 6.890625 
Q 35.15625 6.890625 40.078125 11.328125 
Q 45.015625 15.765625 45.015625 23.390625 
Q 45.015625 31 40.078125 35.4375 
Q 35.15625 39.890625 26.703125 39.890625 
Q 22.75 39.890625 18.8125 39.015625 
Q 14.890625 38.140625 10.796875 36.28125 
z
" id="DejaVuSans-53"/>
       </defs>
       <use xlink:href="#DejaVuSans-48"/>
       <use x="63.623047" xlink:href="#DejaVuSans-46"/>
       <use x="95.410156" xlink:href="#DejaVuSans-53"/>
       <use x="159.033203" xlink:href="#DejaVuSans-48"/>
      </g>
     </g>
    </g>
    <g id="ytick_2">
     <g id="line2d_64">
      <path clip-path="url(#p9cd363a89b)" d="M 90 258.29595 
L 648 258.29595 
" style="fill:none;stroke:#b0b0b0;stroke-dasharray:0.8,1.32;stroke-dashoffset:0;stroke-width:0.8;"/>
     </g>
     <g id="line2d_65">
      <g>
       <use style="stroke:#000000;stroke-width:0.8;" x="90" xlink:href="#m8de5b05a32" y="258.29595"/>
      </g>
     </g>
     <g id="text_15">
      <!-- 0.75 -->
      <g transform="translate(60.734375 262.095169)scale(0.1 -0.1)">
       <defs>
        <path d="M 8.203125 72.90625 
L 55.078125 72.90625 
L 55.078125 68.703125 
L 28.609375 0 
L 18.3125 0 
L 43.21875 64.59375 
L 8.203125 64.59375 
z
" id="DejaVuSans-55"/>
       </defs>
       <use xlink:href="#DejaVuSans-48"/>
       <use x="63.623047" xlink:href="#DejaVuSans-46"/>
       <use x="95.410156" xlink:href="#DejaVuSans-55"/>
       <use x="159.033203" xlink:href="#DejaVuSans-53"/>
      </g>
     </g>
    </g>
    <g id="ytick_3">
     <g id="line2d_66">
      <path clip-path="url(#p9cd363a89b)" d="M 90 226.628373 
L 648 226.628373 
" style="fill:none;stroke:#b0b0b0;stroke-dasharray:0.8,1.32;stroke-dashoffset:0;stroke-width:0.8;"/>
     </g>
     <g id="line2d_67">
      <g>
       <use style="stroke:#000000;stroke-width:0.8;" x="90" xlink:href="#m8de5b05a32" y="226.628373"/>
      </g>
     </g>
     <g id="text_16">
      <!-- 1.00 -->
      <g transform="translate(60.734375 230.427592)scale(0.1 -0.1)">
       <use xlink:href="#DejaVuSans-49"/>
       <use x="63.623047" xlink:href="#DejaVuSans-46"/>
       <use x="95.410156" xlink:href="#DejaVuSans-48"/>
       <use x="159.033203" xlink:href="#DejaVuSans-48"/>
      </g>
     </g>
    </g>
    <g id="ytick_4">
     <g id="line2d_68">
      <path clip-path="url(#p9cd363a89b)" d="M 90 194.960796 
L 648 194.960796 
" style="fill:none;stroke:#b0b0b0;stroke-dasharray:0.8,1.32;stroke-dashoffset:0;stroke-width:0.8;"/>
     </g>
     <g id="line2d_69">
      <g>
       <use style="stroke:#000000;stroke-width:0.8;" x="90" xlink:href="#m8de5b05a32" y="194.960796"/>
      </g>
     </g>
     <g id="text_17">
      <!-- 1.25 -->
      <g transform="translate(60.734375 198.760015)scale(0.1 -0.1)">
       <use xlink:href="#DejaVuSans-49"/>
       <use x="63.623047" xlink:href="#DejaVuSans-46"/>
       <use x="95.410156" xlink:href="#DejaVuSans-50"/>
       <use x="159.033203" xlink:href="#DejaVuSans-53"/>
      </g>
     </g>
    </g>
    <g id="ytick_5">
     <g id="line2d_70">
      <path clip-path="url(#p9cd363a89b)" d="M 90 163.29322 
L 648 163.29322 
" style="fill:none;stroke:#b0b0b0;stroke-dasharray:0.8,1.32;stroke-dashoffset:0;stroke-width:0.8;"/>
     </g>
     <g id="line2d_71">
      <g>
       <use style="stroke:#000000;stroke-width:0.8;" x="90" xlink:href="#m8de5b05a32" y="163.29322"/>
      </g>
     </g>
     <g id="text_18">
      <!-- 1.50 -->
      <g transform="translate(60.734375 167.092438)scale(0.1 -0.1)">
       <use xlink:href="#DejaVuSans-49"/>
       <use x="63.623047" xlink:href="#DejaVuSans-46"/>
       <use x="95.410156" xlink:href="#DejaVuSans-53"/>
       <use x="159.033203" xlink:href="#DejaVuSans-48"/>
      </g>
     </g>
    </g>
    <g id="ytick_6">
     <g id="line2d_72">
      <path clip-path="url(#p9cd363a89b)" d="M 90 131.625643 
L 648 131.625643 
" style="fill:none;stroke:#b0b0b0;stroke-dasharray:0.8,1.32;stroke-dashoffset:0;stroke-width:0.8;"/>
     </g>
     <g id="line2d_73">
      <g>
       <use style="stroke:#000000;stroke-width:0.8;" x="90" xlink:href="#m8de5b05a32" y="131.625643"/>
      </g>
     </g>
     <g id="text_19">
      <!-- 1.75 -->
      <g transform="translate(60.734375 135.424862)scale(0.1 -0.1)">
       <use xlink:href="#DejaVuSans-49"/>
       <use x="63.623047" xlink:href="#DejaVuSans-46"/>
       <use x="95.410156" xlink:href="#DejaVuSans-55"/>
       <use x="159.033203" xlink:href="#DejaVuSans-53"/>
      </g>
     </g>
    </g>
    <g id="ytick_7">
     <g id="line2d_74">
      <path clip-path="url(#p9cd363a89b)" d="M 90 99.958066 
L 648 99.958066 
" style="fill:none;stroke:#b0b0b0;stroke-dasharray:0.8,1.32;stroke-dashoffset:0;stroke-width:0.8;"/>
     </g>
     <g id="line2d_75">
      <g>
       <use style="stroke:#000000;stroke-width:0.8;" x="90" xlink:href="#m8de5b05a32" y="99.958066"/>
      </g>
     </g>
     <g id="text_20">
      <!-- 2.00 -->
      <g transform="translate(60.734375 103.757285)scale(0.1 -0.1)">
       <use xlink:href="#DejaVuSans-50"/>
       <use x="63.623047" xlink:href="#DejaVuSans-46"/>
       <use x="95.410156" xlink:href="#DejaVuSans-48"/>
       <use x="159.033203" xlink:href="#DejaVuSans-48"/>
      </g>
     </g>
    </g>
    <g id="ytick_8">
     <g id="line2d_76">
      <path clip-path="url(#p9cd363a89b)" d="M 90 68.290489 
L 648 68.290489 
" style="fill:none;stroke:#b0b0b0;stroke-dasharray:0.8,1.32;stroke-dashoffset:0;stroke-width:0.8;"/>
     </g>
     <g id="line2d_77">
      <g>
       <use style="stroke:#000000;stroke-width:0.8;" x="90" xlink:href="#m8de5b05a32" y="68.290489"/>
      </g>
     </g>
     <g id="text_21">
      <!-- 2.25 -->
      <g transform="translate(60.734375 72.089708)scale(0.1 -0.1)">
       <use xlink:href="#DejaVuSans-50"/>
       <use x="63.623047" xlink:href="#DejaVuSans-46"/>
       <use x="95.410156" xlink:href="#DejaVuSans-50"/>
       <use x="159.033203" xlink:href="#DejaVuSans-53"/>
      </g>
     </g>
    </g>
   </g>
   <g id="line2d_78">
    <path clip-path="url(#p9cd363a89b)" d="M 90 262.585369 
L 91.585227 262.63981 
L 93.170455 263.774606 
L 94.755682 263.84191 
L 97.926136 264.21105 
L 101.096591 266.045084 
L 102.681818 266.850766 
L 104.267045 268.568921 
L 105.852273 270.070122 
L 107.4375 271.895658 
L 109.022727 272.904542 
L 112.193182 276.275957 
L 113.778409 278.503504 
L 115.363636 279.841365 
L 116.948864 281.610168 
L 118.534091 282.727543 
L 121.704545 285.71924 
L 124.875 287.926321 
L 126.460227 287.938583 
L 128.045455 288.969937 
L 129.630682 289.407357 
L 131.215909 289.405644 
L 132.801136 289.557554 
L 134.386364 288.899981 
L 135.971591 288.798236 
L 137.556818 288.553428 
L 139.142045 288.137747 
L 140.727273 286.626131 
L 142.3125 285.621787 
L 143.897727 283.725952 
L 145.482955 282.847016 
L 150.238636 277.726836 
L 153.409091 273.294315 
L 156.579545 267.505415 
L 158.164773 264.167025 
L 161.335227 257.961738 
L 167.676136 243.169282 
L 169.261364 239.058925 
L 170.846591 233.884429 
L 172.431818 229.115089 
L 177.1875 212.155294 
L 178.772727 207.187115 
L 180.357955 200.358213 
L 183.528409 188.651016 
L 185.113636 181.226862 
L 186.698864 175.582065 
L 188.284091 169.224745 
L 189.869318 162.170589 
L 191.454545 156.252694 
L 193.039773 149.1771 
L 194.625 143.670041 
L 196.210227 139.035735 
L 197.795455 135.657319 
L 199.380682 127.939829 
L 200.965909 122.676519 
L 205.721591 110.41434 
L 207.306818 109.532361 
L 208.892045 108.957039 
L 210.477273 107.766376 
L 212.0625 108.570347 
L 213.647727 110.14134 
L 215.232955 113.269019 
L 216.818182 116.93499 
L 218.403409 119.887553 
L 219.988636 122.30402 
L 221.573864 125.801785 
L 223.159091 130.261674 
L 224.744318 136.361116 
L 226.329545 141.098142 
L 227.914773 143.894589 
L 229.5 148.498266 
L 232.670455 160.734286 
L 234.255682 164.352304 
L 235.840909 169.640907 
L 237.426136 173.834228 
L 239.011364 179.376494 
L 243.767045 194.084117 
L 245.352273 199.989921 
L 246.9375 204.805688 
L 248.522727 210.149886 
L 250.107955 213.565227 
L 251.693182 218.236413 
L 253.278409 222.137021 
L 254.863636 223.754457 
L 256.448864 225.869475 
L 258.034091 229.02558 
L 259.619318 231.23613 
L 261.204545 232.19635 
L 262.789773 234.06269 
L 264.375 234.982826 
L 265.960227 235.27514 
L 267.545455 236.543704 
L 269.130682 237.281637 
L 270.715909 237.709705 
L 272.301136 237.567557 
L 273.886364 238.080143 
L 275.471591 237.569896 
L 277.056818 237.223434 
L 278.642045 236.382139 
L 280.227273 236.770667 
L 281.8125 235.665397 
L 283.397727 236.238705 
L 286.568182 235.53108 
L 288.153409 234.38155 
L 289.738636 233.511427 
L 291.323864 232.824803 
L 294.494318 231.116074 
L 296.079545 229.674497 
L 297.664773 227.792512 
L 299.25 226.411619 
L 300.835227 224.286476 
L 302.420455 222.905514 
L 304.005682 221.737056 
L 307.176136 218.38843 
L 308.761364 216.939295 
L 310.346591 215.155263 
L 311.931818 214.131239 
L 315.102273 211.400444 
L 316.6875 209.753619 
L 318.272727 209.106899 
L 321.443182 207.45216 
L 323.028409 206.862206 
L 324.613636 206.726552 
L 326.198864 207.525079 
L 327.784091 207.048471 
L 329.369318 208.049035 
L 330.954545 208.403971 
L 334.125 209.830291 
L 335.710227 211.472636 
L 337.295455 213.58176 
L 338.880682 214.089473 
L 340.465909 215.194667 
L 342.051136 215.336724 
L 343.636364 216.528809 
L 345.221591 215.360505 
L 346.806818 215.514083 
L 348.392045 215.037224 
L 349.977273 213.652214 
L 351.5625 212.554 
L 354.732955 207.019299 
L 356.318182 205.382126 
L 357.903409 204.274804 
L 359.488636 200.484112 
L 361.073864 198.642783 
L 362.659091 198.219385 
L 364.244318 196.76076 
L 365.829545 195.55669 
L 367.414773 195.632326 
L 369 196.183503 
L 370.585227 198.268037 
L 372.170455 199.875443 
L 373.755682 203.149748 
L 375.340909 207.944771 
L 376.926136 211.226858 
L 378.511364 215.899597 
L 381.681818 226.648613 
L 383.267045 231.648813 
L 384.852273 238.251003 
L 386.4375 243.222994 
L 388.022727 249.232024 
L 392.778409 264.249748 
L 397.534091 275.626757 
L 399.119318 278.372811 
L 400.704545 281.578026 
L 402.289773 283.682133 
L 407.045455 288.46977 
L 408.630682 289.669325 
L 410.215909 289.8645 
L 411.801136 290.461483 
L 414.971591 289.541138 
L 416.556818 289.479659 
L 418.142045 288.30346 
L 419.727273 287.704491 
L 422.897727 284.994525 
L 424.482955 283.216253 
L 426.068182 280.864193 
L 429.238636 277.21771 
L 430.823864 274.885541 
L 432.409091 272.130233 
L 433.994318 270.251185 
L 435.579545 267.790632 
L 437.164773 266.104515 
L 438.75 264.042126 
L 440.335227 261.720522 
L 441.920455 258.619006 
L 443.505682 256.227214 
L 445.090909 254.987893 
L 446.676136 253.292403 
L 448.261364 251.406606 
L 451.431818 248.299187 
L 453.017045 246.941515 
L 454.602273 244.160901 
L 457.772727 240.837208 
L 460.943182 236.38395 
L 462.528409 233.953188 
L 464.113636 231.220585 
L 465.698864 229.150103 
L 467.284091 226.279294 
L 470.454545 219.538882 
L 473.625 214.532729 
L 478.380682 204.349713 
L 479.965909 201.132289 
L 481.551136 198.367117 
L 483.136364 194.442053 
L 484.721591 188.939701 
L 486.306818 186.896341 
L 489.477273 180.234845 
L 491.0625 174.137871 
L 492.647727 170.112751 
L 494.232955 165.123635 
L 495.818182 161.33451 
L 497.403409 156.004426 
L 498.988636 148.978502 
L 500.573864 142.522146 
L 503.744318 128.356873 
L 505.329545 123.279978 
L 506.914773 116.243719 
L 508.5 111.44444 
L 511.670455 98.547396 
L 513.255682 93.738529 
L 514.840909 92.324641 
L 516.426136 90.333039 
L 518.011364 90.52426 
L 519.596591 92.678922 
L 521.181818 95.704084 
L 522.767045 99.715798 
L 524.352273 105.963538 
L 525.9375 114.069488 
L 527.522727 123.580735 
L 529.107955 134.112168 
L 530.693182 145.892909 
L 532.278409 155.953499 
L 533.863636 168.805349 
L 535.448864 178.247726 
L 538.619318 198.745677 
L 540.204545 205.371639 
L 541.789773 212.760532 
L 544.960227 224.633858 
L 546.545455 229.51612 
L 548.130682 232.554332 
L 549.715909 236.505479 
L 551.301136 239.626829 
L 552.886364 240.696807 
L 554.471591 242.713374 
L 556.056818 242.865781 
L 557.642045 243.499839 
L 559.227273 243.628118 
L 562.397727 242.801394 
L 563.982955 243.168728 
L 567.153409 241.925919 
L 568.738636 241.074941 
L 570.323864 240.041654 
L 571.909091 237.873394 
L 573.494318 237.660765 
L 575.079545 235.732212 
L 576.664773 235.19259 
L 578.25 233.769486 
L 579.835227 233.118066 
L 581.420455 232.605452 
L 584.590909 230.872314 
L 586.176136 231.340423 
L 587.761364 230.275659 
L 589.346591 229.627074 
L 590.931818 230.42428 
L 592.517045 230.070564 
L 594.102273 230.838026 
L 595.6875 230.975587 
L 597.272727 230.962198 
L 598.857955 231.938829 
L 600.443182 231.812522 
L 602.028409 231.310736 
L 603.613636 231.751718 
L 606.784091 230.983358 
L 608.369318 230.07537 
L 611.539773 228.027045 
L 613.125 227.7333 
L 614.710227 226.834271 
L 616.295455 224.952179 
L 617.880682 224.725306 
L 619.465909 223.874304 
L 621.051136 223.254069 
L 622.636364 223.494693 
L 624.221591 222.903087 
L 625.806818 222.547846 
L 627.392045 222.680453 
L 628.977273 223.259329 
L 630.5625 223.371843 
L 632.147727 223.86344 
L 635.318182 226.771531 
L 636.903409 227.312565 
L 638.488636 227.252244 
L 640.073864 228.174387 
L 641.659091 227.658254 
L 643.244318 228.200791 
L 644.829545 228.403537 
L 646.414773 228.787599 
L 648 230.50191 
L 649.585227 230.281055 
L 651.170455 230.819736 
L 652.755682 231.997791 
L 654.340909 231.351916 
L 655.926136 231.665616 
L 657.511364 230.097235 
L 659.096591 230.661997 
L 660.681818 231.9625 
L 660.681818 231.9625 
" style="fill:none;stroke:#fc997a;stroke-linecap:square;stroke-width:1.5;"/>
   </g>
   <g id="line2d_79">
    <path clip-path="url(#p9cd363a89b)" d="M 90 226.628373 
L 648 226.628373 
" style="fill:none;stroke:#000000;stroke-dasharray:3.7,1.6;stroke-dashoffset:0;"/>
   </g>
   <g id="patch_3">
    <path d="M 90 315 
L 90 43.2 
" style="fill:none;stroke:#000000;stroke-linecap:square;stroke-linejoin:miter;stroke-width:0.8;"/>
   </g>
   <g id="patch_4">
    <path d="M 648 315 
L 648 43.2 
" style="fill:none;stroke:#000000;stroke-linecap:square;stroke-linejoin:miter;stroke-width:0.8;"/>
   </g>
   <g id="patch_5">
    <path d="M 90 315 
L 648 315 
" style="fill:none;stroke:#000000;stroke-linecap:square;stroke-linejoin:miter;stroke-width:0.8;"/>
   </g>
   <g id="patch_6">
    <path d="M 90 43.2 
L 648 43.2 
" style="fill:none;stroke:#000000;stroke-linecap:square;stroke-linejoin:miter;stroke-width:0.8;"/>
   </g>
   <g id="text_22">
    <!-- 221  $R_t$ -->
    <g transform="translate(333.18 37.2)scale(0.12 -0.12)">
     <defs>
      <path id="DejaVuSans-32"/>
      <path d="M 56.640625 29.59375 
L 56.640625 0 
L 47.5625 0 
L 47.5625 29.6875 
Q 47.5625 33.296875 47.3125 35.71875 
Q 47.078125 38.140625 46.1875 40.59375 
Q 45.3125 43.0625 43.75 44.484375 
Q 42.1875 45.90625 39.453125 46.796875 
Q 36.71875 47.703125 32.8125 47.703125 
L 20.796875 47.703125 
L 20.796875 20.21875 
Q 20.796875 9.765625 17.796875 4.6875 
Q 14.796875 -0.390625 7.375 -0.390625 
Q 4.78125 -0.390625 0.984375 0.390625 
L 0.984375 7.375 
Q 4.15625 6.6875 6 6.6875 
Q 9.46875 6.6875 10.59375 9.46875 
Q 11.71875 12.25 11.71875 20.21875 
L 11.71875 47.703125 
L 3.265625 47.703125 
L 3.265625 54.6875 
L 32.8125 54.6875 
Q 39.796875 54.6875 44.5 53.046875 
Q 49.21875 51.421875 51.859375 48.046875 
Q 54.5 44.671875 55.5625 40.28125 
Q 56.640625 35.890625 56.640625 29.59375 
z
" id="DejaVuSans-1514"/>
      <path d="M 18.171875 54.6875 
L 18.171875 0 
L 9.078125 0 
L 9.078125 54.6875 
z
" id="DejaVuSans-1493"/>
      <path d="M 47.359375 27.828125 
L 47.359375 0 
L 38.28125 0 
L 38.28125 27.828125 
Q 38.28125 31.390625 37.765625 34.265625 
Q 37.25 37.15625 36 39.71875 
Q 34.765625 42.28125 32.8125 43.984375 
Q 30.859375 45.703125 27.78125 46.703125 
Q 24.703125 47.703125 20.703125 47.703125 
L 4.296875 47.703125 
L 4.296875 54.6875 
L 20.65625 54.6875 
Q 26.8125 54.6875 31.46875 53.390625 
Q 36.140625 52.09375 39.109375 49.828125 
Q 42.09375 47.5625 43.96875 44.109375 
Q 45.84375 40.671875 46.59375 36.734375 
Q 47.359375 32.8125 47.359375 27.828125 
z
" id="DejaVuSans-1512"/>
      <path d="M 21.78125 6.984375 
L 21.78125 36.28125 
Q 21.78125 42.28125 19.328125 44.984375 
Q 16.890625 47.703125 11.71875 47.703125 
L 5.5625 47.703125 
L 5.5625 54.6875 
L 11.71875 54.6875 
Q 21.734375 54.6875 26.296875 50.359375 
Q 30.859375 46.046875 30.859375 35.25 
L 30.859375 0 
L 4.296875 0 
L 4.296875 6.984375 
z
" id="DejaVuSans-1504"/>
      <path d="M 4.296875 54.6875 
L 21.09375 54.6875 
Q 26.8125 54.6875 31.375 53.125 
Q 35.9375 51.5625 38.859375 48.953125 
Q 41.796875 46.34375 43.75 42.765625 
Q 45.703125 39.203125 46.53125 35.375 
Q 47.359375 31.546875 47.359375 27.34375 
Q 47.359375 23.140625 46.53125 19.3125 
Q 45.703125 15.484375 43.75 11.90625 
Q 41.796875 8.34375 38.859375 5.734375 
Q 35.9375 3.125 31.375 1.5625 
Q 26.8125 0 21.09375 0 
L 4.296875 0 
L 4.296875 6.9375 
L 21.09375 6.9375 
Q 25.984375 6.9375 29.421875 8.453125 
Q 32.859375 9.96875 34.765625 12.8125 
Q 36.671875 15.671875 37.5 19.203125 
Q 38.328125 22.75 38.328125 27.34375 
Q 38.328125 31.9375 37.5 35.46875 
Q 36.671875 39.015625 34.765625 41.875 
Q 32.859375 44.734375 29.421875 46.234375 
Q 25.984375 47.75 21.09375 47.75 
L 4.296875 47.75 
z
" id="DejaVuSans-1499"/>
      <path d="M 25.203125 64.796875 
L 20.21875 38.921875 
L 32.90625 38.921875 
Q 40.375 38.921875 44.984375 43.046875 
Q 49.609375 47.171875 49.609375 53.8125 
Q 49.609375 59.125 46.5 61.953125 
Q 43.40625 64.796875 37.59375 64.796875 
z
M 43.3125 35.015625 
Q 46.4375 34.28125 48.515625 31.390625 
Q 50.59375 28.515625 53.328125 19.921875 
L 59.515625 0 
L 49.125 0 
L 43.40625 18.703125 
Q 41.21875 25.921875 38.328125 28.359375 
Q 35.453125 30.8125 29.5 30.8125 
L 18.609375 30.8125 
L 12.59375 0 
L 2.6875 0 
L 16.890625 72.90625 
L 39.109375 72.90625 
Q 49.21875 72.90625 54.609375 68.328125 
Q 60.015625 63.765625 60.015625 55.171875 
Q 60.015625 47.5625 55.421875 41.984375 
Q 50.828125 36.421875 43.3125 35.015625 
z
" id="DejaVuSans-Oblique-82"/>
      <path d="M 42.28125 54.6875 
L 40.921875 47.703125 
L 23 47.703125 
L 17.1875 18.015625 
Q 16.890625 16.359375 16.75 15.234375 
Q 16.609375 14.109375 16.609375 13.484375 
Q 16.609375 10.359375 18.484375 8.9375 
Q 20.359375 7.515625 24.515625 7.515625 
L 33.59375 7.515625 
L 32.078125 0 
L 23.484375 0 
Q 15.484375 0 11.546875 3.125 
Q 7.625 6.25 7.625 12.59375 
Q 7.625 13.71875 7.765625 15.0625 
Q 7.90625 16.40625 8.203125 18.015625 
L 14.015625 47.703125 
L 6.390625 47.703125 
L 7.8125 54.6875 
L 15.28125 54.6875 
L 18.3125 70.21875 
L 27.296875 70.21875 
L 24.3125 54.6875 
z
" id="DejaVuSans-Oblique-116"/>
     </defs>
     <use transform="translate(0 0.78125)" xlink:href="#DejaVuSans-50"/>
     <use transform="translate(63.623047 0.78125)" xlink:href="#DejaVuSans-50"/>
     <use transform="translate(127.246094 0.78125)" xlink:href="#DejaVuSans-49"/>
     <use transform="translate(190.869141 0.78125)" xlink:href="#DejaVuSans-32"/>
     <use transform="translate(222.65625 0.78125)" xlink:href="#DejaVuSans-1514"/>
     <use transform="translate(288.378906 0.78125)" xlink:href="#DejaVuSans-1493"/>
     <use transform="translate(315.625 0.78125)" xlink:href="#DejaVuSans-1512"/>
     <use transform="translate(372.070312 0.78125)" xlink:href="#DejaVuSans-1504"/>
     <use transform="translate(412.109375 0.78125)" xlink:href="#DejaVuSans-1499"/>
     <use transform="translate(464.990234 0.78125)" xlink:href="#DejaVuSans-32"/>
     <use transform="translate(496.777344 0.78125)" xlink:href="#DejaVuSans-Oblique-82"/>
     <use transform="translate(566.259766 -15.625)scale(0.7)" xlink:href="#DejaVuSans-Oblique-116"/>
    </g>
   </g>
  </g>
 </g>
 <defs>
  <clipPath id="p9cd363a89b">
   <rect height="271.8" width="558" x="90" y="43.2"/>
  </clipPath>
 </defs>
</svg>
