<?xml version="1.0" encoding="utf-8" standalone="no"?>
<!DOCTYPE svg PUBLIC "-//W3C//DTD SVG 1.1//EN"
  "http://www.w3.org/Graphics/SVG/1.1/DTD/svg11.dtd">
<!-- Created with matplotlib (https://matplotlib.org/) -->
<svg height="360pt" version="1.1" viewBox="0 0 720 360" width="720pt" xmlns="http://www.w3.org/2000/svg" xmlns:xlink="http://www.w3.org/1999/xlink">
 <metadata>
  <rdf:RDF xmlns:cc="http://creativecommons.org/ns#" xmlns:dc="http://purl.org/dc/elements/1.1/" xmlns:rdf="http://www.w3.org/1999/02/22-rdf-syntax-ns#">
   <cc:Work>
    <dc:type rdf:resource="http://purl.org/dc/dcmitype/StillImage"/>
    <dc:date>2021-03-24T18:01:38.267416</dc:date>
    <dc:format>image/svg+xml</dc:format>
    <dc:creator>
     <cc:Agent>
      <dc:title>Matplotlib v3.3.2, https://matplotlib.org/</dc:title>
     </cc:Agent>
    </dc:creator>
   </cc:Work>
  </rdf:RDF>
 </metadata>
 <defs>
  <style type="text/css">*{stroke-linecap:butt;stroke-linejoin:round;}</style>
 </defs>
 <g id="figure_1">
  <g id="patch_1">
   <path d="M 0 360 
L 720 360 
L 720 0 
L 0 0 
z
" style="fill:#ffffff;"/>
  </g>
  <g id="axes_1">
   <g id="patch_2">
    <path d="M 90 315 
L 648 315 
L 648 43.2 
L 90 43.2 
z
" style="fill:#ffffff;"/>
   </g>
   <g id="PolyCollection_1">
    <defs>
     <path d="M 90 -163.162572 
L 90 -260.185096 
L 91.516304 -246.082153 
L 93.032609 -245.208238 
L 94.548913 -239.313419 
L 96.065217 -234.094055 
L 97.581522 -230.229683 
L 99.097826 -222.562677 
L 100.61413 -217.209713 
L 102.130435 -213.057422 
L 103.646739 -205.29264 
L 105.163043 -195.415566 
L 106.679348 -184.515734 
L 108.195652 -176.485823 
L 109.711957 -171.303967 
L 111.228261 -163.552539 
L 112.744565 -153.255008 
L 114.26087 -148.009586 
L 115.777174 -141.469289 
L 117.293478 -133.402818 
L 118.809783 -128.173944 
L 120.326087 -125.013549 
L 121.842391 -121.36021 
L 123.358696 -114.5956 
L 124.875 -112.755686 
L 126.391304 -107.818356 
L 127.907609 -104.609111 
L 129.423913 -101.534619 
L 130.940217 -98.925706 
L 132.456522 -98.807727 
L 133.972826 -96.204502 
L 135.48913 -94.879309 
L 137.005435 -94.208489 
L 138.521739 -91.302844 
L 140.038043 -90.617133 
L 141.554348 -90.714218 
L 143.070652 -91.082195 
L 144.586957 -91.793826 
L 146.103261 -92.203238 
L 147.619565 -93.47596 
L 149.13587 -93.061862 
L 150.652174 -95.135348 
L 152.168478 -98.716851 
L 153.684783 -97.843211 
L 155.201087 -100.250291 
L 156.717391 -103.366618 
L 158.233696 -105.842662 
L 159.75 -109.477406 
L 161.266304 -110.862194 
L 162.782609 -117.995785 
L 164.298913 -118.193369 
L 165.815217 -122.572109 
L 167.331522 -127.729224 
L 168.847826 -133.496034 
L 170.36413 -139.329632 
L 171.880435 -147.581631 
L 173.396739 -148.222711 
L 174.913043 -157.292384 
L 176.429348 -166.582501 
L 177.945652 -168.209719 
L 179.461957 -178.19797 
L 180.978261 -183.33017 
L 182.494565 -191.587896 
L 184.01087 -195.736868 
L 185.527174 -206.022881 
L 187.043478 -217.885139 
L 188.559783 -225.939585 
L 190.076087 -231.853977 
L 191.592391 -239.920997 
L 193.108696 -249.855094 
L 194.625 -258.225185 
L 196.141304 -263.356011 
L 197.657609 -275.300134 
L 199.173913 -282.222042 
L 200.690217 -286.34203 
L 202.206522 -286.206035 
L 203.722826 -296.557738 
L 205.23913 -304.445455 
L 206.755435 -296.593896 
L 208.271739 -294.81337 
L 209.788043 -291.520638 
L 211.304348 -282.828221 
L 212.820652 -281.767389 
L 214.336957 -274.64036 
L 215.853261 -262.640652 
L 217.369565 -254.938888 
L 218.88587 -249.260373 
L 220.402174 -242.051279 
L 221.918478 -241.342489 
L 223.434783 -231.854521 
L 224.951087 -230.900046 
L 226.467391 -231.363608 
L 227.983696 -224.459286 
L 229.5 -225.110135 
L 231.016304 -222.458739 
L 232.532609 -225.680967 
L 234.048913 -224.51205 
L 235.565217 -229.574603 
L 237.081522 -230.828912 
L 238.597826 -233.093677 
L 240.11413 -231.70978 
L 241.630435 -240.517 
L 243.146739 -233.188823 
L 244.663043 -234.103974 
L 246.179348 -233.565399 
L 247.695652 -229.242231 
L 249.211957 -229.950828 
L 250.728261 -226.251697 
L 252.244565 -227.388402 
L 253.76087 -217.586498 
L 255.277174 -213.6728 
L 256.793478 -209.132729 
L 258.309783 -209.711434 
L 259.826087 -203.464373 
L 261.342391 -200.928124 
L 262.858696 -194.669114 
L 264.375 -192.886024 
L 265.891304 -187.271357 
L 267.407609 -186.815365 
L 268.923913 -182.129956 
L 270.440217 -178.02116 
L 271.956522 -172.753271 
L 273.472826 -168.555761 
L 274.98913 -167.460435 
L 276.505435 -165.792768 
L 278.021739 -161.137544 
L 279.538043 -156.516068 
L 281.054348 -155.30046 
L 282.570652 -152.819599 
L 284.086957 -153.94698 
L 285.603261 -147.191031 
L 287.119565 -145.971218 
L 288.63587 -144.548345 
L 290.152174 -146.080182 
L 291.668478 -142.848477 
L 293.184783 -142.670686 
L 294.701087 -146.339083 
L 296.217391 -143.600599 
L 297.733696 -145.150406 
L 299.25 -147.405479 
L 300.766304 -148.348409 
L 302.282609 -148.541222 
L 303.798913 -152.845256 
L 305.315217 -156.733205 
L 306.831522 -158.266327 
L 308.347826 -161.349187 
L 309.86413 -159.76235 
L 311.380435 -166.634298 
L 312.896739 -166.292201 
L 314.413043 -168.796238 
L 315.929348 -173.550547 
L 317.445652 -175.467569 
L 318.961957 -176.795374 
L 320.478261 -181.704785 
L 321.994565 -184.095452 
L 323.51087 -189.090135 
L 325.027174 -189.575902 
L 326.543478 -190.421726 
L 328.059783 -194.447202 
L 329.576087 -192.113369 
L 331.092391 -196.589678 
L 332.608696 -198.541553 
L 334.125 -202.386132 
L 335.641304 -200.958266 
L 337.157609 -201.728586 
L 338.673913 -203.53742 
L 340.190217 -202.834213 
L 341.706522 -206.572159 
L 343.222826 -203.248869 
L 344.73913 -206.459808 
L 346.255435 -210.159787 
L 347.771739 -208.218517 
L 349.288043 -206.904522 
L 350.804348 -205.437134 
L 352.320652 -206.919778 
L 353.836957 -204.947419 
L 355.353261 -209.938837 
L 356.869565 -206.686944 
L 358.38587 -203.111903 
L 359.902174 -202.33656 
L 361.418478 -201.886982 
L 362.934783 -199.718812 
L 364.451087 -195.695601 
L 365.967391 -194.573759 
L 367.483696 -189.124078 
L 369 -184.337226 
L 370.516304 -182.982647 
L 372.032609 -172.383499 
L 373.548913 -167.216941 
L 375.065217 -158.847422 
L 376.581522 -152.463571 
L 378.097826 -144.655689 
L 379.61413 -137.661764 
L 381.130435 -133.626293 
L 382.646739 -125.375966 
L 384.163043 -120.793499 
L 385.679348 -115.3357 
L 387.195652 -108.676121 
L 388.711957 -107.086824 
L 390.228261 -104.188096 
L 391.744565 -101.193876 
L 393.26087 -96.414483 
L 394.777174 -95.355438 
L 396.293478 -95.586392 
L 397.809783 -92.470956 
L 399.326087 -92.548736 
L 400.842391 -91.759144 
L 402.358696 -92.367159 
L 403.875 -93.403931 
L 405.391304 -95.022445 
L 406.907609 -97.091887 
L 408.423913 -100.455196 
L 409.940217 -100.346814 
L 411.456522 -103.085179 
L 412.972826 -107.4776 
L 414.48913 -110.70957 
L 416.005435 -113.519982 
L 417.521739 -118.045873 
L 419.038043 -124.527738 
L 420.554348 -129.141539 
L 422.070652 -131.508391 
L 423.586957 -138.571992 
L 425.103261 -138.113448 
L 426.619565 -145.493436 
L 428.13587 -151.166364 
L 429.652174 -155.046318 
L 431.168478 -158.326368 
L 432.684783 -161.850193 
L 434.201087 -161.294566 
L 435.717391 -163.724823 
L 437.233696 -167.108724 
L 438.75 -168.226809 
L 440.266304 -165.772421 
L 441.782609 -171.18969 
L 443.298913 -169.963913 
L 444.815217 -171.974135 
L 446.331522 -173.319397 
L 447.847826 -174.409547 
L 449.36413 -173.165167 
L 450.880435 -173.413097 
L 452.396739 -175.955087 
L 453.913043 -174.796468 
L 455.429348 -179.405147 
L 456.945652 -180.04678 
L 458.461957 -179.482204 
L 459.978261 -183.614729 
L 461.494565 -181.504525 
L 463.01087 -184.014141 
L 464.527174 -186.313567 
L 466.043478 -187.349069 
L 467.559783 -188.922312 
L 469.076087 -193.464951 
L 470.592391 -195.926752 
L 472.108696 -199.96344 
L 473.625 -202.291742 
L 475.141304 -203.229435 
L 476.657609 -203.342341 
L 478.173913 -205.130974 
L 479.690217 -202.904299 
L 481.206522 -205.674213 
L 482.722826 -205.300899 
L 484.23913 -204.923806 
L 485.755435 -207.967442 
L 487.271739 -207.334473 
L 488.788043 -207.024412 
L 490.304348 -208.326961 
L 491.820652 -210.650862 
L 493.336957 -214.900352 
L 494.853261 -213.97297 
L 496.369565 -209.843018 
L 497.88587 -213.025411 
L 499.402174 -216.67952 
L 500.918478 -215.861592 
L 502.434783 -221.551458 
L 503.951087 -218.955786 
L 505.467391 -220.600275 
L 506.983696 -221.295321 
L 508.5 -222.419755 
L 510.016304 -218.626642 
L 511.532609 -227.410618 
L 513.048913 -226.955926 
L 514.565217 -225.70633 
L 516.081522 -226.239557 
L 517.597826 -226.590432 
L 519.11413 -224.55159 
L 520.630435 -225.663197 
L 522.146739 -225.749414 
L 523.663043 -223.838029 
L 525.179348 -222.435691 
L 526.695652 -219.619116 
L 528.211957 -216.405818 
L 529.728261 -212.995507 
L 531.244565 -204.80044 
L 532.76087 -201.140135 
L 534.277174 -193.828965 
L 535.793478 -188.498738 
L 537.309783 -185.252241 
L 538.826087 -179.927335 
L 540.342391 -174.900638 
L 541.858696 -172.708198 
L 543.375 -168.860507 
L 544.891304 -163.517911 
L 546.407609 -162.803829 
L 547.923913 -160.999839 
L 549.440217 -156.992139 
L 550.956522 -154.808087 
L 552.472826 -151.975843 
L 553.98913 -149.528133 
L 555.505435 -151.617135 
L 557.021739 -147.730447 
L 558.538043 -148.993361 
L 560.054348 -146.478357 
L 561.570652 -145.81806 
L 563.086957 -146.330293 
L 564.603261 -145.932387 
L 566.119565 -145.259355 
L 567.63587 -146.032813 
L 569.152174 -142.928987 
L 570.668478 -142.726463 
L 572.184783 -142.391324 
L 573.701087 -141.203947 
L 575.217391 -138.617869 
L 576.733696 -140.228563 
L 578.25 -137.781511 
L 579.766304 -136.167542 
L 581.282609 -135.026279 
L 582.798913 -134.700503 
L 584.315217 -135.319312 
L 585.831522 -136.312007 
L 587.347826 -136.52262 
L 588.86413 -137.601396 
L 590.380435 -135.643767 
L 591.896739 -138.103178 
L 593.413043 -140.21427 
L 594.929348 -141.004768 
L 596.445652 -141.147543 
L 597.961957 -141.649869 
L 599.478261 -144.259912 
L 600.994565 -145.431276 
L 602.51087 -143.498142 
L 604.027174 -147.45871 
L 605.543478 -143.458765 
L 607.059783 -145.708719 
L 608.576087 -144.839014 
L 610.092391 -141.986969 
L 611.608696 -142.768975 
L 613.125 -140.694188 
L 614.641304 -136.176211 
L 616.157609 -132.844344 
L 617.673913 -130.739146 
L 619.190217 -125.659978 
L 620.706522 -126.095727 
L 622.222826 -121.083126 
L 623.73913 -117.459905 
L 625.255435 -114.798674 
L 626.771739 -113.062371 
L 628.288043 -110.058487 
L 629.804348 -108.828035 
L 631.320652 -108.958744 
L 632.836957 -106.140209 
L 634.353261 -105.089704 
L 635.869565 -105.741252 
L 637.38587 -106.86601 
L 638.902174 -106.751074 
L 640.418478 -105.815151 
L 641.934783 -107.092346 
L 643.451087 -108.176585 
L 644.967391 -107.439106 
L 646.483696 -109.760905 
L 648 -108.469883 
L 649.516304 -109.301175 
L 651.032609 -110.154173 
L 652.548913 -109.410333 
L 654.065217 -112.453284 
L 655.581522 -109.97453 
L 657.097826 -113.151028 
L 658.61413 -110.566209 
L 660.130435 -115.323492 
L 660.130435 -61.279597 
L 660.130435 -61.279597 
L 658.61413 -57.354545 
L 657.097826 -60.979842 
L 655.581522 -59.255191 
L 654.065217 -63.001772 
L 652.548913 -60.779512 
L 651.032609 -63.869393 
L 649.516304 -64.761305 
L 648 -65.837132 
L 646.483696 -69.345721 
L 644.967391 -68.345802 
L 643.451087 -70.346377 
L 641.934783 -72.142379 
L 640.418478 -71.454497 
L 638.902174 -74.019849 
L 637.38587 -75.422005 
L 635.869565 -75.949496 
L 634.353261 -77.043014 
L 632.836957 -78.572242 
L 631.320652 -81.89285 
L 629.804348 -82.417725 
L 628.288043 -83.642824 
L 626.771739 -87.351957 
L 625.255435 -89.158791 
L 623.73913 -91.006631 
L 622.222826 -95.470911 
L 620.706522 -99.030878 
L 619.190217 -97.543121 
L 617.673913 -102.801691 
L 616.157609 -104.079647 
L 614.641304 -108.093417 
L 613.125 -110.951842 
L 611.608696 -113.097357 
L 610.092391 -112.92316 
L 608.576087 -115.194423 
L 607.059783 -115.50745 
L 605.543478 -114.452881 
L 604.027174 -119.634749 
L 602.51087 -116.324768 
L 600.994565 -117.525165 
L 599.478261 -116.093598 
L 597.961957 -113.822921 
L 596.445652 -112.7108 
L 594.929348 -112.76079 
L 593.413043 -111.47798 
L 591.896739 -108.941772 
L 590.380435 -106.165486 
L 588.86413 -108.60075 
L 587.347826 -108.710032 
L 585.831522 -108.063369 
L 584.315217 -108.6131 
L 582.798913 -107.50412 
L 581.282609 -107.717047 
L 579.766304 -108.474761 
L 578.25 -110.406806 
L 576.733696 -112.034016 
L 575.217391 -110.151293 
L 573.701087 -112.797485 
L 572.184783 -113.209022 
L 570.668478 -113.884708 
L 569.152174 -113.056701 
L 567.63587 -115.576232 
L 566.119565 -115.086967 
L 564.603261 -115.54548 
L 563.086957 -117.974277 
L 561.570652 -117.725383 
L 560.054348 -117.715914 
L 558.538043 -119.434371 
L 557.021739 -118.58 
L 555.505435 -121.387092 
L 553.98913 -120.511315 
L 552.472826 -120.626753 
L 550.956522 -122.975768 
L 549.440217 -124.402162 
L 547.923913 -127.617317 
L 546.407609 -128.672815 
L 544.891304 -130.063254 
L 543.375 -134.238643 
L 541.858696 -136.489247 
L 540.342391 -138.807479 
L 538.826087 -140.938069 
L 537.309783 -147.822494 
L 535.793478 -150.121283 
L 534.277174 -155.304197 
L 532.76087 -162.221054 
L 531.244565 -163.571382 
L 529.728261 -171.667157 
L 528.211957 -172.575353 
L 526.695652 -175.633614 
L 525.179348 -178.424049 
L 523.663043 -177.3686 
L 522.146739 -179.981213 
L 520.630435 -178.910536 
L 519.11413 -178.828504 
L 517.597826 -178.74731 
L 516.081522 -181.075664 
L 514.565217 -179.053456 
L 513.048913 -179.376734 
L 511.532609 -181.586547 
L 510.016304 -172.555678 
L 508.5 -176.241806 
L 506.983696 -175.386926 
L 505.467391 -175.980826 
L 503.951087 -175.580684 
L 502.434783 -176.7348 
L 500.918478 -171.140216 
L 499.402174 -172.283563 
L 497.88587 -169.58488 
L 496.369565 -165.88858 
L 494.853261 -169.501966 
L 493.336957 -170.601842 
L 491.820652 -167.808865 
L 490.304348 -163.666622 
L 488.788043 -164.513669 
L 487.271739 -164.677226 
L 485.755435 -164.67463 
L 484.23913 -162.242373 
L 482.722826 -163.869846 
L 481.206522 -163.517232 
L 479.690217 -161.080671 
L 478.173913 -161.936562 
L 476.657609 -159.879715 
L 475.141304 -160.779675 
L 473.625 -158.759255 
L 472.108696 -159.26526 
L 470.592391 -154.546225 
L 469.076087 -155.512742 
L 467.559783 -152.128725 
L 466.043478 -149.928587 
L 464.527174 -148.28905 
L 463.01087 -144.014016 
L 461.494565 -142.599944 
L 459.978261 -143.311723 
L 458.461957 -140.611187 
L 456.945652 -140.066906 
L 455.429348 -141.647616 
L 453.913043 -137.211809 
L 452.396739 -139.219624 
L 450.880435 -135.099169 
L 449.36413 -136.38536 
L 447.847826 -137.508494 
L 446.331522 -137.460114 
L 444.815217 -133.692408 
L 443.298913 -132.806623 
L 441.782609 -135.254488 
L 440.266304 -130.743184 
L 438.75 -131.526194 
L 437.233696 -129.598151 
L 435.717391 -126.821629 
L 434.201087 -125.433624 
L 432.684783 -125.934334 
L 431.168478 -122.755852 
L 429.652174 -121.876443 
L 428.13587 -118.806389 
L 426.619565 -114.885575 
L 425.103261 -110.196631 
L 423.586957 -109.00634 
L 422.070652 -104.186598 
L 420.554348 -102.530973 
L 419.038043 -99.338628 
L 417.521739 -94.156208 
L 416.005435 -90.689737 
L 414.48913 -88.812883 
L 412.972826 -84.826998 
L 411.456522 -82.389728 
L 409.940217 -80.574939 
L 408.423913 -79.306676 
L 406.907609 -76.984637 
L 405.391304 -74.453521 
L 403.875 -73.153867 
L 402.358696 -73.606298 
L 400.842391 -73.468651 
L 399.326087 -74.131673 
L 397.809783 -72.853588 
L 396.293478 -75.869173 
L 394.777174 -75.569347 
L 393.26087 -76.044901 
L 391.744565 -80.52608 
L 390.228261 -82.385656 
L 388.711957 -85.589114 
L 387.195652 -86.5028 
L 385.679348 -91.268826 
L 384.163043 -95.248896 
L 382.646739 -99.29037 
L 381.130435 -106.862762 
L 379.61413 -110.411244 
L 378.097826 -116.852028 
L 376.581522 -122.850558 
L 375.065217 -127.355527 
L 373.548913 -134.233916 
L 372.032609 -138.80467 
L 370.516304 -146.038428 
L 369 -146.777349 
L 367.483696 -149.05745 
L 365.967391 -154.989917 
L 364.451087 -156.737986 
L 362.934783 -160.402498 
L 361.418478 -160.120116 
L 359.902174 -160.41272 
L 358.38587 -161.336316 
L 356.869565 -162.853874 
L 355.353261 -166.548904 
L 353.836957 -161.788523 
L 352.320652 -164.773371 
L 350.804348 -161.80627 
L 349.288043 -164.129345 
L 347.771739 -163.9815 
L 346.255435 -164.549536 
L 344.73913 -161.774322 
L 343.222826 -159.549124 
L 341.706522 -164.062187 
L 340.190217 -161.098583 
L 338.673913 -158.724007 
L 337.157609 -160.25683 
L 335.641304 -158.040524 
L 334.125 -159.82191 
L 332.608696 -158.939706 
L 331.092391 -156.244017 
L 329.576087 -154.64625 
L 328.059783 -155.525614 
L 326.543478 -152.514403 
L 325.027174 -150.565417 
L 323.51087 -149.971356 
L 321.994565 -144.944277 
L 320.478261 -144.599948 
L 318.961957 -142.315742 
L 317.445652 -139.083248 
L 315.929348 -138.669954 
L 314.413043 -133.823007 
L 312.896739 -132.239256 
L 311.380435 -130.700495 
L 309.86413 -125.442088 
L 308.347826 -129.078281 
L 306.831522 -127.058637 
L 305.315217 -126.164777 
L 303.798913 -121.514312 
L 302.282609 -119.301279 
L 300.766304 -117.805306 
L 299.25 -116.852992 
L 297.733696 -115.383212 
L 296.217391 -112.722306 
L 294.701087 -117.261955 
L 293.184783 -113.433256 
L 291.668478 -113.07106 
L 290.152174 -115.529528 
L 288.63587 -113.996541 
L 287.119565 -115.152966 
L 285.603261 -116.803562 
L 284.086957 -121.885618 
L 282.570652 -120.87828 
L 281.054348 -121.45049 
L 279.538043 -123.499267 
L 278.021739 -127.508657 
L 276.505435 -131.904596 
L 274.98913 -133.988996 
L 273.472826 -135.03839 
L 271.956522 -138.198132 
L 270.440217 -141.919758 
L 268.923913 -143.567859 
L 267.407609 -148.337464 
L 265.891304 -147.661895 
L 264.375 -149.532223 
L 262.858696 -153.091637 
L 261.342391 -158.142383 
L 259.826087 -160.112186 
L 258.309783 -166.797894 
L 256.793478 -165.608085 
L 255.277174 -169.631944 
L 253.76087 -171.126663 
L 252.244565 -178.272969 
L 250.728261 -178.37239 
L 249.211957 -181.580458 
L 247.695652 -178.478292 
L 246.179348 -185.013722 
L 244.663043 -185.910911 
L 243.146739 -185.417297 
L 241.630435 -189.105222 
L 240.11413 -182.052705 
L 238.597826 -181.318339 
L 237.081522 -181.189007 
L 235.565217 -180.917618 
L 234.048913 -179.007142 
L 232.532609 -180.577144 
L 231.016304 -178.290322 
L 229.5 -180.104822 
L 227.983696 -178.345317 
L 226.467391 -182.602275 
L 224.951087 -182.324767 
L 223.434783 -183.00914 
L 221.918478 -190.122085 
L 220.402174 -187.374202 
L 218.88587 -193.296386 
L 217.369565 -197.008406 
L 215.853261 -198.984426 
L 214.336957 -212.811964 
L 212.820652 -220.37458 
L 211.304348 -214.726111 
L 209.788043 -222.907031 
L 208.271739 -226.703517 
L 206.755435 -225.534792 
L 205.23913 -233.692216 
L 203.722826 -226.937488 
L 202.206522 -216.490109 
L 200.690217 -218.832324 
L 199.173913 -217.214013 
L 197.657609 -211.706538 
L 196.141304 -200.945985 
L 194.625 -196.469276 
L 193.108696 -188.776687 
L 191.592391 -180.750616 
L 190.076087 -175.941841 
L 188.559783 -170.413723 
L 187.043478 -166.481194 
L 185.527174 -156.732239 
L 184.01087 -150.506955 
L 182.494565 -145.088114 
L 180.978261 -137.20394 
L 179.461957 -133.294705 
L 177.945652 -125.719376 
L 176.429348 -125.551516 
L 174.913043 -119.149215 
L 173.396739 -113.080408 
L 171.880435 -112.5626 
L 170.36413 -105.412778 
L 168.847826 -101.517004 
L 167.331522 -95.624582 
L 165.815217 -92.45398 
L 164.298913 -89.243648 
L 162.782609 -89.270339 
L 161.266304 -84.058981 
L 159.75 -83.26006 
L 158.233696 -80.605008 
L 156.717391 -77.386338 
L 155.201087 -74.829067 
L 153.684783 -73.594544 
L 152.168478 -74.888645 
L 150.652174 -72.528859 
L 149.13587 -71.77781 
L 147.619565 -73.176669 
L 146.103261 -71.310918 
L 144.586957 -70.896547 
L 143.070652 -70.739535 
L 141.554348 -69.73132 
L 140.038043 -70.63304 
L 138.521739 -71.501817 
L 137.005435 -74.052971 
L 135.48913 -75.008818 
L 133.972826 -75.969207 
L 132.456522 -77.285264 
L 130.940217 -77.682949 
L 129.423913 -80.351486 
L 127.907609 -82.30895 
L 126.391304 -84.889118 
L 124.875 -88.784425 
L 123.358696 -90.419986 
L 121.842391 -96.200627 
L 120.326087 -98.705774 
L 118.809783 -101.481651 
L 117.293478 -106.418004 
L 115.777174 -113.025005 
L 114.26087 -118.470005 
L 112.744565 -121.892481 
L 111.228261 -129.16479 
L 109.711957 -135.838875 
L 108.195652 -137.52045 
L 106.679348 -144.527575 
L 105.163043 -148.449975 
L 103.646739 -153.390679 
L 102.130435 -158.933806 
L 100.61413 -160.316535 
L 99.097826 -160.152177 
L 97.581522 -161.372255 
L 96.065217 -160.811871 
L 94.548913 -160.221255 
L 93.032609 -160.568108 
L 91.516304 -156.711848 
L 90 -163.162572 
z
" id="m88ba21af6a" style="stroke:#fdcbb6;stroke-opacity:0.8;"/>
    </defs>
    <g clip-path="url(#p3c92392ff0)">
     <use style="fill:#fdcbb6;fill-opacity:0.8;stroke:#fdcbb6;stroke-opacity:0.8;" x="0" xlink:href="#m88ba21af6a" y="360"/>
    </g>
   </g>
   <g id="matplotlib.axis_1">
    <g id="xtick_1">
     <g id="line2d_1">
      <defs>
       <path d="M 0 0 
L 0 3.5 
" id="m522f8c2642" style="stroke:#000000;stroke-width:0.8;"/>
      </defs>
      <g>
       <use style="stroke:#000000;stroke-width:0.8;" x="90" xlink:href="#m522f8c2642" y="315"/>
      </g>
     </g>
    </g>
    <g id="xtick_2">
     <g id="line2d_2">
      <g>
       <use style="stroke:#000000;stroke-width:0.8;" x="121.842391" xlink:href="#m522f8c2642" y="315"/>
      </g>
     </g>
     <g id="text_1">
      <!-- Apr -->
      <g transform="translate(113.192391 329.598437)scale(0.1 -0.1)">
       <defs>
        <path d="M 34.1875 63.1875 
L 20.796875 26.90625 
L 47.609375 26.90625 
z
M 28.609375 72.90625 
L 39.796875 72.90625 
L 67.578125 0 
L 57.328125 0 
L 50.6875 18.703125 
L 17.828125 18.703125 
L 11.1875 0 
L 0.78125 0 
z
" id="DejaVuSans-65"/>
        <path d="M 18.109375 8.203125 
L 18.109375 -20.796875 
L 9.078125 -20.796875 
L 9.078125 54.6875 
L 18.109375 54.6875 
L 18.109375 46.390625 
Q 20.953125 51.265625 25.265625 53.625 
Q 29.59375 56 35.59375 56 
Q 45.5625 56 51.78125 48.09375 
Q 58.015625 40.1875 58.015625 27.296875 
Q 58.015625 14.40625 51.78125 6.484375 
Q 45.5625 -1.421875 35.59375 -1.421875 
Q 29.59375 -1.421875 25.265625 0.953125 
Q 20.953125 3.328125 18.109375 8.203125 
z
M 48.6875 27.296875 
Q 48.6875 37.203125 44.609375 42.84375 
Q 40.53125 48.484375 33.40625 48.484375 
Q 26.265625 48.484375 22.1875 42.84375 
Q 18.109375 37.203125 18.109375 27.296875 
Q 18.109375 17.390625 22.1875 11.75 
Q 26.265625 6.109375 33.40625 6.109375 
Q 40.53125 6.109375 44.609375 11.75 
Q 48.6875 17.390625 48.6875 27.296875 
z
" id="DejaVuSans-112"/>
        <path d="M 41.109375 46.296875 
Q 39.59375 47.171875 37.8125 47.578125 
Q 36.03125 48 33.890625 48 
Q 26.265625 48 22.1875 43.046875 
Q 18.109375 38.09375 18.109375 28.8125 
L 18.109375 0 
L 9.078125 0 
L 9.078125 54.6875 
L 18.109375 54.6875 
L 18.109375 46.1875 
Q 20.953125 51.171875 25.484375 53.578125 
Q 30.03125 56 36.53125 56 
Q 37.453125 56 38.578125 55.875 
Q 39.703125 55.765625 41.0625 55.515625 
z
" id="DejaVuSans-114"/>
       </defs>
       <use xlink:href="#DejaVuSans-65"/>
       <use x="68.408203" xlink:href="#DejaVuSans-112"/>
       <use x="131.884766" xlink:href="#DejaVuSans-114"/>
      </g>
     </g>
    </g>
    <g id="xtick_3">
     <g id="line2d_3">
      <g>
       <use style="stroke:#000000;stroke-width:0.8;" x="167.331522" xlink:href="#m522f8c2642" y="315"/>
      </g>
     </g>
     <g id="text_2">
      <!-- May -->
      <g transform="translate(156.994022 329.598437)scale(0.1 -0.1)">
       <defs>
        <path d="M 9.8125 72.90625 
L 24.515625 72.90625 
L 43.109375 23.296875 
L 61.8125 72.90625 
L 76.515625 72.90625 
L 76.515625 0 
L 66.890625 0 
L 66.890625 64.015625 
L 48.09375 14.015625 
L 38.1875 14.015625 
L 19.390625 64.015625 
L 19.390625 0 
L 9.8125 0 
z
" id="DejaVuSans-77"/>
        <path d="M 34.28125 27.484375 
Q 23.390625 27.484375 19.1875 25 
Q 14.984375 22.515625 14.984375 16.5 
Q 14.984375 11.71875 18.140625 8.90625 
Q 21.296875 6.109375 26.703125 6.109375 
Q 34.1875 6.109375 38.703125 11.40625 
Q 43.21875 16.703125 43.21875 25.484375 
L 43.21875 27.484375 
z
M 52.203125 31.203125 
L 52.203125 0 
L 43.21875 0 
L 43.21875 8.296875 
Q 40.140625 3.328125 35.546875 0.953125 
Q 30.953125 -1.421875 24.3125 -1.421875 
Q 15.921875 -1.421875 10.953125 3.296875 
Q 6 8.015625 6 15.921875 
Q 6 25.140625 12.171875 29.828125 
Q 18.359375 34.515625 30.609375 34.515625 
L 43.21875 34.515625 
L 43.21875 35.40625 
Q 43.21875 41.609375 39.140625 45 
Q 35.0625 48.390625 27.6875 48.390625 
Q 23 48.390625 18.546875 47.265625 
Q 14.109375 46.140625 10.015625 43.890625 
L 10.015625 52.203125 
Q 14.9375 54.109375 19.578125 55.046875 
Q 24.21875 56 28.609375 56 
Q 40.484375 56 46.34375 49.84375 
Q 52.203125 43.703125 52.203125 31.203125 
z
" id="DejaVuSans-97"/>
        <path d="M 32.171875 -5.078125 
Q 28.375 -14.84375 24.75 -17.8125 
Q 21.140625 -20.796875 15.09375 -20.796875 
L 7.90625 -20.796875 
L 7.90625 -13.28125 
L 13.1875 -13.28125 
Q 16.890625 -13.28125 18.9375 -11.515625 
Q 21 -9.765625 23.484375 -3.21875 
L 25.09375 0.875 
L 2.984375 54.6875 
L 12.5 54.6875 
L 29.59375 11.921875 
L 46.6875 54.6875 
L 56.203125 54.6875 
z
" id="DejaVuSans-121"/>
       </defs>
       <use xlink:href="#DejaVuSans-77"/>
       <use x="86.279297" xlink:href="#DejaVuSans-97"/>
       <use x="147.558594" xlink:href="#DejaVuSans-121"/>
      </g>
     </g>
    </g>
    <g id="xtick_4">
     <g id="line2d_4">
      <g>
       <use style="stroke:#000000;stroke-width:0.8;" x="214.336957" xlink:href="#m522f8c2642" y="315"/>
      </g>
     </g>
     <g id="text_3">
      <!-- Jun -->
      <g transform="translate(206.524457 329.598437)scale(0.1 -0.1)">
       <defs>
        <path d="M 9.8125 72.90625 
L 19.671875 72.90625 
L 19.671875 5.078125 
Q 19.671875 -8.109375 14.671875 -14.0625 
Q 9.671875 -20.015625 -1.421875 -20.015625 
L -5.171875 -20.015625 
L -5.171875 -11.71875 
L -2.09375 -11.71875 
Q 4.4375 -11.71875 7.125 -8.046875 
Q 9.8125 -4.390625 9.8125 5.078125 
z
" id="DejaVuSans-74"/>
        <path d="M 8.5 21.578125 
L 8.5 54.6875 
L 17.484375 54.6875 
L 17.484375 21.921875 
Q 17.484375 14.15625 20.5 10.265625 
Q 23.53125 6.390625 29.59375 6.390625 
Q 36.859375 6.390625 41.078125 11.03125 
Q 45.3125 15.671875 45.3125 23.6875 
L 45.3125 54.6875 
L 54.296875 54.6875 
L 54.296875 0 
L 45.3125 0 
L 45.3125 8.40625 
Q 42.046875 3.421875 37.71875 1 
Q 33.40625 -1.421875 27.6875 -1.421875 
Q 18.265625 -1.421875 13.375 4.4375 
Q 8.5 10.296875 8.5 21.578125 
z
M 31.109375 56 
z
" id="DejaVuSans-117"/>
        <path d="M 54.890625 33.015625 
L 54.890625 0 
L 45.90625 0 
L 45.90625 32.71875 
Q 45.90625 40.484375 42.875 44.328125 
Q 39.84375 48.1875 33.796875 48.1875 
Q 26.515625 48.1875 22.3125 43.546875 
Q 18.109375 38.921875 18.109375 30.90625 
L 18.109375 0 
L 9.078125 0 
L 9.078125 54.6875 
L 18.109375 54.6875 
L 18.109375 46.1875 
Q 21.34375 51.125 25.703125 53.5625 
Q 30.078125 56 35.796875 56 
Q 45.21875 56 50.046875 50.171875 
Q 54.890625 44.34375 54.890625 33.015625 
z
" id="DejaVuSans-110"/>
       </defs>
       <use xlink:href="#DejaVuSans-74"/>
       <use x="29.492188" xlink:href="#DejaVuSans-117"/>
       <use x="92.871094" xlink:href="#DejaVuSans-110"/>
      </g>
     </g>
    </g>
    <g id="xtick_5">
     <g id="line2d_5">
      <g>
       <use style="stroke:#000000;stroke-width:0.8;" x="259.826087" xlink:href="#m522f8c2642" y="315"/>
      </g>
     </g>
     <g id="text_4">
      <!-- Jul -->
      <g transform="translate(253.793274 329.598437)scale(0.1 -0.1)">
       <defs>
        <path d="M 9.421875 75.984375 
L 18.40625 75.984375 
L 18.40625 0 
L 9.421875 0 
z
" id="DejaVuSans-108"/>
       </defs>
       <use xlink:href="#DejaVuSans-74"/>
       <use x="29.492188" xlink:href="#DejaVuSans-117"/>
       <use x="92.871094" xlink:href="#DejaVuSans-108"/>
      </g>
     </g>
    </g>
    <g id="xtick_6">
     <g id="line2d_6">
      <g>
       <use style="stroke:#000000;stroke-width:0.8;" x="306.831522" xlink:href="#m522f8c2642" y="315"/>
      </g>
     </g>
     <g id="text_5">
      <!-- Aug -->
      <g transform="translate(297.06824 329.598437)scale(0.1 -0.1)">
       <defs>
        <path d="M 45.40625 27.984375 
Q 45.40625 37.75 41.375 43.109375 
Q 37.359375 48.484375 30.078125 48.484375 
Q 22.859375 48.484375 18.828125 43.109375 
Q 14.796875 37.75 14.796875 27.984375 
Q 14.796875 18.265625 18.828125 12.890625 
Q 22.859375 7.515625 30.078125 7.515625 
Q 37.359375 7.515625 41.375 12.890625 
Q 45.40625 18.265625 45.40625 27.984375 
z
M 54.390625 6.78125 
Q 54.390625 -7.171875 48.1875 -13.984375 
Q 42 -20.796875 29.203125 -20.796875 
Q 24.46875 -20.796875 20.265625 -20.09375 
Q 16.0625 -19.390625 12.109375 -17.921875 
L 12.109375 -9.1875 
Q 16.0625 -11.328125 19.921875 -12.34375 
Q 23.78125 -13.375 27.78125 -13.375 
Q 36.625 -13.375 41.015625 -8.765625 
Q 45.40625 -4.15625 45.40625 5.171875 
L 45.40625 9.625 
Q 42.625 4.78125 38.28125 2.390625 
Q 33.9375 0 27.875 0 
Q 17.828125 0 11.671875 7.65625 
Q 5.515625 15.328125 5.515625 27.984375 
Q 5.515625 40.671875 11.671875 48.328125 
Q 17.828125 56 27.875 56 
Q 33.9375 56 38.28125 53.609375 
Q 42.625 51.21875 45.40625 46.390625 
L 45.40625 54.6875 
L 54.390625 54.6875 
z
" id="DejaVuSans-103"/>
       </defs>
       <use xlink:href="#DejaVuSans-65"/>
       <use x="68.408203" xlink:href="#DejaVuSans-117"/>
       <use x="131.787109" xlink:href="#DejaVuSans-103"/>
      </g>
     </g>
    </g>
    <g id="xtick_7">
     <g id="line2d_7">
      <g>
       <use style="stroke:#000000;stroke-width:0.8;" x="353.836957" xlink:href="#m522f8c2642" y="315"/>
      </g>
     </g>
     <g id="text_6">
      <!-- Sep -->
      <g transform="translate(344.411957 329.598437)scale(0.1 -0.1)">
       <defs>
        <path d="M 53.515625 70.515625 
L 53.515625 60.890625 
Q 47.90625 63.578125 42.921875 64.890625 
Q 37.9375 66.21875 33.296875 66.21875 
Q 25.25 66.21875 20.875 63.09375 
Q 16.5 59.96875 16.5 54.203125 
Q 16.5 49.359375 19.40625 46.890625 
Q 22.3125 44.4375 30.421875 42.921875 
L 36.375 41.703125 
Q 47.40625 39.59375 52.65625 34.296875 
Q 57.90625 29 57.90625 20.125 
Q 57.90625 9.515625 50.796875 4.046875 
Q 43.703125 -1.421875 29.984375 -1.421875 
Q 24.8125 -1.421875 18.96875 -0.25 
Q 13.140625 0.921875 6.890625 3.21875 
L 6.890625 13.375 
Q 12.890625 10.015625 18.65625 8.296875 
Q 24.421875 6.59375 29.984375 6.59375 
Q 38.421875 6.59375 43.015625 9.90625 
Q 47.609375 13.234375 47.609375 19.390625 
Q 47.609375 24.75 44.3125 27.78125 
Q 41.015625 30.8125 33.5 32.328125 
L 27.484375 33.5 
Q 16.453125 35.6875 11.515625 40.375 
Q 6.59375 45.0625 6.59375 53.421875 
Q 6.59375 63.09375 13.40625 68.65625 
Q 20.21875 74.21875 32.171875 74.21875 
Q 37.3125 74.21875 42.625 73.28125 
Q 47.953125 72.359375 53.515625 70.515625 
z
" id="DejaVuSans-83"/>
        <path d="M 56.203125 29.59375 
L 56.203125 25.203125 
L 14.890625 25.203125 
Q 15.484375 15.921875 20.484375 11.0625 
Q 25.484375 6.203125 34.421875 6.203125 
Q 39.59375 6.203125 44.453125 7.46875 
Q 49.3125 8.734375 54.109375 11.28125 
L 54.109375 2.78125 
Q 49.265625 0.734375 44.1875 -0.34375 
Q 39.109375 -1.421875 33.890625 -1.421875 
Q 20.796875 -1.421875 13.15625 6.1875 
Q 5.515625 13.8125 5.515625 26.8125 
Q 5.515625 40.234375 12.765625 48.109375 
Q 20.015625 56 32.328125 56 
Q 43.359375 56 49.78125 48.890625 
Q 56.203125 41.796875 56.203125 29.59375 
z
M 47.21875 32.234375 
Q 47.125 39.59375 43.09375 43.984375 
Q 39.0625 48.390625 32.421875 48.390625 
Q 24.90625 48.390625 20.390625 44.140625 
Q 15.875 39.890625 15.1875 32.171875 
z
" id="DejaVuSans-101"/>
       </defs>
       <use xlink:href="#DejaVuSans-83"/>
       <use x="63.476562" xlink:href="#DejaVuSans-101"/>
       <use x="125" xlink:href="#DejaVuSans-112"/>
      </g>
     </g>
    </g>
    <g id="xtick_8">
     <g id="line2d_8">
      <g>
       <use style="stroke:#000000;stroke-width:0.8;" x="399.326087" xlink:href="#m522f8c2642" y="315"/>
      </g>
     </g>
     <g id="text_7">
      <!-- Oct -->
      <g transform="translate(390.680774 329.598437)scale(0.1 -0.1)">
       <defs>
        <path d="M 39.40625 66.21875 
Q 28.65625 66.21875 22.328125 58.203125 
Q 16.015625 50.203125 16.015625 36.375 
Q 16.015625 22.609375 22.328125 14.59375 
Q 28.65625 6.59375 39.40625 6.59375 
Q 50.140625 6.59375 56.421875 14.59375 
Q 62.703125 22.609375 62.703125 36.375 
Q 62.703125 50.203125 56.421875 58.203125 
Q 50.140625 66.21875 39.40625 66.21875 
z
M 39.40625 74.21875 
Q 54.734375 74.21875 63.90625 63.9375 
Q 73.09375 53.65625 73.09375 36.375 
Q 73.09375 19.140625 63.90625 8.859375 
Q 54.734375 -1.421875 39.40625 -1.421875 
Q 24.03125 -1.421875 14.8125 8.828125 
Q 5.609375 19.09375 5.609375 36.375 
Q 5.609375 53.65625 14.8125 63.9375 
Q 24.03125 74.21875 39.40625 74.21875 
z
" id="DejaVuSans-79"/>
        <path d="M 48.78125 52.59375 
L 48.78125 44.1875 
Q 44.96875 46.296875 41.140625 47.34375 
Q 37.3125 48.390625 33.40625 48.390625 
Q 24.65625 48.390625 19.8125 42.84375 
Q 14.984375 37.3125 14.984375 27.296875 
Q 14.984375 17.28125 19.8125 11.734375 
Q 24.65625 6.203125 33.40625 6.203125 
Q 37.3125 6.203125 41.140625 7.25 
Q 44.96875 8.296875 48.78125 10.40625 
L 48.78125 2.09375 
Q 45.015625 0.34375 40.984375 -0.53125 
Q 36.96875 -1.421875 32.421875 -1.421875 
Q 20.0625 -1.421875 12.78125 6.34375 
Q 5.515625 14.109375 5.515625 27.296875 
Q 5.515625 40.671875 12.859375 48.328125 
Q 20.21875 56 33.015625 56 
Q 37.15625 56 41.109375 55.140625 
Q 45.0625 54.296875 48.78125 52.59375 
z
" id="DejaVuSans-99"/>
        <path d="M 18.3125 70.21875 
L 18.3125 54.6875 
L 36.8125 54.6875 
L 36.8125 47.703125 
L 18.3125 47.703125 
L 18.3125 18.015625 
Q 18.3125 11.328125 20.140625 9.421875 
Q 21.96875 7.515625 27.59375 7.515625 
L 36.8125 7.515625 
L 36.8125 0 
L 27.59375 0 
Q 17.1875 0 13.234375 3.875 
Q 9.28125 7.765625 9.28125 18.015625 
L 9.28125 47.703125 
L 2.6875 47.703125 
L 2.6875 54.6875 
L 9.28125 54.6875 
L 9.28125 70.21875 
z
" id="DejaVuSans-116"/>
       </defs>
       <use xlink:href="#DejaVuSans-79"/>
       <use x="78.710938" xlink:href="#DejaVuSans-99"/>
       <use x="133.691406" xlink:href="#DejaVuSans-116"/>
      </g>
     </g>
    </g>
    <g id="xtick_9">
     <g id="line2d_9">
      <g>
       <use style="stroke:#000000;stroke-width:0.8;" x="446.331522" xlink:href="#m522f8c2642" y="315"/>
      </g>
     </g>
     <g id="text_8">
      <!-- Nov -->
      <g transform="translate(436.572147 329.598437)scale(0.1 -0.1)">
       <defs>
        <path d="M 9.8125 72.90625 
L 23.09375 72.90625 
L 55.421875 11.921875 
L 55.421875 72.90625 
L 64.984375 72.90625 
L 64.984375 0 
L 51.703125 0 
L 19.390625 60.984375 
L 19.390625 0 
L 9.8125 0 
z
" id="DejaVuSans-78"/>
        <path d="M 30.609375 48.390625 
Q 23.390625 48.390625 19.1875 42.75 
Q 14.984375 37.109375 14.984375 27.296875 
Q 14.984375 17.484375 19.15625 11.84375 
Q 23.34375 6.203125 30.609375 6.203125 
Q 37.796875 6.203125 41.984375 11.859375 
Q 46.1875 17.53125 46.1875 27.296875 
Q 46.1875 37.015625 41.984375 42.703125 
Q 37.796875 48.390625 30.609375 48.390625 
z
M 30.609375 56 
Q 42.328125 56 49.015625 48.375 
Q 55.71875 40.765625 55.71875 27.296875 
Q 55.71875 13.875 49.015625 6.21875 
Q 42.328125 -1.421875 30.609375 -1.421875 
Q 18.84375 -1.421875 12.171875 6.21875 
Q 5.515625 13.875 5.515625 27.296875 
Q 5.515625 40.765625 12.171875 48.375 
Q 18.84375 56 30.609375 56 
z
" id="DejaVuSans-111"/>
        <path d="M 2.984375 54.6875 
L 12.5 54.6875 
L 29.59375 8.796875 
L 46.6875 54.6875 
L 56.203125 54.6875 
L 35.6875 0 
L 23.484375 0 
z
" id="DejaVuSans-118"/>
       </defs>
       <use xlink:href="#DejaVuSans-78"/>
       <use x="74.804688" xlink:href="#DejaVuSans-111"/>
       <use x="135.986328" xlink:href="#DejaVuSans-118"/>
      </g>
     </g>
    </g>
    <g id="xtick_10">
     <g id="line2d_10">
      <g>
       <use style="stroke:#000000;stroke-width:0.8;" x="491.820652" xlink:href="#m522f8c2642" y="315"/>
      </g>
     </g>
     <g id="text_9">
      <!-- Dec -->
      <g transform="translate(482.144871 329.598437)scale(0.1 -0.1)">
       <defs>
        <path d="M 19.671875 64.796875 
L 19.671875 8.109375 
L 31.59375 8.109375 
Q 46.6875 8.109375 53.6875 14.9375 
Q 60.6875 21.78125 60.6875 36.53125 
Q 60.6875 51.171875 53.6875 57.984375 
Q 46.6875 64.796875 31.59375 64.796875 
z
M 9.8125 72.90625 
L 30.078125 72.90625 
Q 51.265625 72.90625 61.171875 64.09375 
Q 71.09375 55.28125 71.09375 36.53125 
Q 71.09375 17.671875 61.125 8.828125 
Q 51.171875 0 30.078125 0 
L 9.8125 0 
z
" id="DejaVuSans-68"/>
       </defs>
       <use xlink:href="#DejaVuSans-68"/>
       <use x="77.001953" xlink:href="#DejaVuSans-101"/>
       <use x="138.525391" xlink:href="#DejaVuSans-99"/>
      </g>
     </g>
    </g>
    <g id="xtick_11">
     <g id="line2d_11">
      <g>
       <use style="stroke:#000000;stroke-width:0.8;" x="538.826087" xlink:href="#m522f8c2642" y="315"/>
      </g>
     </g>
     <g id="text_10">
      <!-- Jan -->
      <g transform="translate(531.118274 329.598437)scale(0.1 -0.1)">
       <use xlink:href="#DejaVuSans-74"/>
       <use x="29.492188" xlink:href="#DejaVuSans-97"/>
       <use x="90.771484" xlink:href="#DejaVuSans-110"/>
      </g>
      <!-- 2021 -->
      <g transform="translate(526.101087 340.79625)scale(0.1 -0.1)">
       <defs>
        <path d="M 19.1875 8.296875 
L 53.609375 8.296875 
L 53.609375 0 
L 7.328125 0 
L 7.328125 8.296875 
Q 12.9375 14.109375 22.625 23.890625 
Q 32.328125 33.6875 34.8125 36.53125 
Q 39.546875 41.84375 41.421875 45.53125 
Q 43.3125 49.21875 43.3125 52.78125 
Q 43.3125 58.59375 39.234375 62.25 
Q 35.15625 65.921875 28.609375 65.921875 
Q 23.96875 65.921875 18.8125 64.3125 
Q 13.671875 62.703125 7.8125 59.421875 
L 7.8125 69.390625 
Q 13.765625 71.78125 18.9375 73 
Q 24.125 74.21875 28.421875 74.21875 
Q 39.75 74.21875 46.484375 68.546875 
Q 53.21875 62.890625 53.21875 53.421875 
Q 53.21875 48.921875 51.53125 44.890625 
Q 49.859375 40.875 45.40625 35.40625 
Q 44.1875 33.984375 37.640625 27.21875 
Q 31.109375 20.453125 19.1875 8.296875 
z
" id="DejaVuSans-50"/>
        <path d="M 31.78125 66.40625 
Q 24.171875 66.40625 20.328125 58.90625 
Q 16.5 51.421875 16.5 36.375 
Q 16.5 21.390625 20.328125 13.890625 
Q 24.171875 6.390625 31.78125 6.390625 
Q 39.453125 6.390625 43.28125 13.890625 
Q 47.125 21.390625 47.125 36.375 
Q 47.125 51.421875 43.28125 58.90625 
Q 39.453125 66.40625 31.78125 66.40625 
z
M 31.78125 74.21875 
Q 44.046875 74.21875 50.515625 64.515625 
Q 56.984375 54.828125 56.984375 36.375 
Q 56.984375 17.96875 50.515625 8.265625 
Q 44.046875 -1.421875 31.78125 -1.421875 
Q 19.53125 -1.421875 13.0625 8.265625 
Q 6.59375 17.96875 6.59375 36.375 
Q 6.59375 54.828125 13.0625 64.515625 
Q 19.53125 74.21875 31.78125 74.21875 
z
" id="DejaVuSans-48"/>
        <path d="M 12.40625 8.296875 
L 28.515625 8.296875 
L 28.515625 63.921875 
L 10.984375 60.40625 
L 10.984375 69.390625 
L 28.421875 72.90625 
L 38.28125 72.90625 
L 38.28125 8.296875 
L 54.390625 8.296875 
L 54.390625 0 
L 12.40625 0 
z
" id="DejaVuSans-49"/>
       </defs>
       <use xlink:href="#DejaVuSans-50"/>
       <use x="63.623047" xlink:href="#DejaVuSans-48"/>
       <use x="127.246094" xlink:href="#DejaVuSans-50"/>
       <use x="190.869141" xlink:href="#DejaVuSans-49"/>
      </g>
     </g>
    </g>
    <g id="xtick_12">
     <g id="line2d_12">
      <g>
       <use style="stroke:#000000;stroke-width:0.8;" x="585.831522" xlink:href="#m522f8c2642" y="315"/>
      </g>
     </g>
     <g id="text_11">
      <!-- Feb -->
      <g transform="translate(576.979959 329.598437)scale(0.1 -0.1)">
       <defs>
        <path d="M 9.8125 72.90625 
L 51.703125 72.90625 
L 51.703125 64.59375 
L 19.671875 64.59375 
L 19.671875 43.109375 
L 48.578125 43.109375 
L 48.578125 34.8125 
L 19.671875 34.8125 
L 19.671875 0 
L 9.8125 0 
z
" id="DejaVuSans-70"/>
        <path d="M 48.6875 27.296875 
Q 48.6875 37.203125 44.609375 42.84375 
Q 40.53125 48.484375 33.40625 48.484375 
Q 26.265625 48.484375 22.1875 42.84375 
Q 18.109375 37.203125 18.109375 27.296875 
Q 18.109375 17.390625 22.1875 11.75 
Q 26.265625 6.109375 33.40625 6.109375 
Q 40.53125 6.109375 44.609375 11.75 
Q 48.6875 17.390625 48.6875 27.296875 
z
M 18.109375 46.390625 
Q 20.953125 51.265625 25.265625 53.625 
Q 29.59375 56 35.59375 56 
Q 45.5625 56 51.78125 48.09375 
Q 58.015625 40.1875 58.015625 27.296875 
Q 58.015625 14.40625 51.78125 6.484375 
Q 45.5625 -1.421875 35.59375 -1.421875 
Q 29.59375 -1.421875 25.265625 0.953125 
Q 20.953125 3.328125 18.109375 8.203125 
L 18.109375 0 
L 9.078125 0 
L 9.078125 75.984375 
L 18.109375 75.984375 
z
" id="DejaVuSans-98"/>
       </defs>
       <use xlink:href="#DejaVuSans-70"/>
       <use x="52.019531" xlink:href="#DejaVuSans-101"/>
       <use x="113.542969" xlink:href="#DejaVuSans-98"/>
      </g>
     </g>
    </g>
    <g id="xtick_13">
     <g id="line2d_13">
      <g>
       <use style="stroke:#000000;stroke-width:0.8;" x="628.288043" xlink:href="#m522f8c2642" y="315"/>
      </g>
     </g>
     <g id="text_12">
      <!-- Mar -->
      <g transform="translate(618.85445 329.598437)scale(0.1 -0.1)">
       <use xlink:href="#DejaVuSans-77"/>
       <use x="86.279297" xlink:href="#DejaVuSans-97"/>
       <use x="147.558594" xlink:href="#DejaVuSans-114"/>
      </g>
     </g>
    </g>
    <g id="xtick_14">
     <g id="line2d_14">
      <g>
       <use style="stroke:#000000;stroke-width:0.8;" x="648" xlink:href="#m522f8c2642" y="315"/>
      </g>
     </g>
    </g>
    <g id="xtick_15">
     <g id="line2d_15">
      <defs>
       <path d="M 0 0 
L 0 2 
" id="m726b393a82" style="stroke:#000000;stroke-width:0.6;"/>
      </defs>
      <g>
       <use style="stroke:#000000;stroke-width:0.6;" x="97.581522" xlink:href="#m726b393a82" y="315"/>
      </g>
     </g>
    </g>
    <g id="xtick_16">
     <g id="line2d_16">
      <g>
       <use style="stroke:#000000;stroke-width:0.6;" x="108.195652" xlink:href="#m726b393a82" y="315"/>
      </g>
     </g>
    </g>
    <g id="xtick_17">
     <g id="line2d_17">
      <g>
       <use style="stroke:#000000;stroke-width:0.6;" x="118.809783" xlink:href="#m726b393a82" y="315"/>
      </g>
     </g>
    </g>
    <g id="xtick_18">
     <g id="line2d_18">
      <g>
       <use style="stroke:#000000;stroke-width:0.6;" x="129.423913" xlink:href="#m726b393a82" y="315"/>
      </g>
     </g>
    </g>
    <g id="xtick_19">
     <g id="line2d_19">
      <g>
       <use style="stroke:#000000;stroke-width:0.6;" x="140.038043" xlink:href="#m726b393a82" y="315"/>
      </g>
     </g>
    </g>
    <g id="xtick_20">
     <g id="line2d_20">
      <g>
       <use style="stroke:#000000;stroke-width:0.6;" x="150.652174" xlink:href="#m726b393a82" y="315"/>
      </g>
     </g>
    </g>
    <g id="xtick_21">
     <g id="line2d_21">
      <g>
       <use style="stroke:#000000;stroke-width:0.6;" x="161.266304" xlink:href="#m726b393a82" y="315"/>
      </g>
     </g>
    </g>
    <g id="xtick_22">
     <g id="line2d_22">
      <g>
       <use style="stroke:#000000;stroke-width:0.6;" x="171.880435" xlink:href="#m726b393a82" y="315"/>
      </g>
     </g>
    </g>
    <g id="xtick_23">
     <g id="line2d_23">
      <g>
       <use style="stroke:#000000;stroke-width:0.6;" x="182.494565" xlink:href="#m726b393a82" y="315"/>
      </g>
     </g>
    </g>
    <g id="xtick_24">
     <g id="line2d_24">
      <g>
       <use style="stroke:#000000;stroke-width:0.6;" x="193.108696" xlink:href="#m726b393a82" y="315"/>
      </g>
     </g>
    </g>
    <g id="xtick_25">
     <g id="line2d_25">
      <g>
       <use style="stroke:#000000;stroke-width:0.6;" x="203.722826" xlink:href="#m726b393a82" y="315"/>
      </g>
     </g>
    </g>
    <g id="xtick_26">
     <g id="line2d_26">
      <g>
       <use style="stroke:#000000;stroke-width:0.6;" x="224.951087" xlink:href="#m726b393a82" y="315"/>
      </g>
     </g>
    </g>
    <g id="xtick_27">
     <g id="line2d_27">
      <g>
       <use style="stroke:#000000;stroke-width:0.6;" x="235.565217" xlink:href="#m726b393a82" y="315"/>
      </g>
     </g>
    </g>
    <g id="xtick_28">
     <g id="line2d_28">
      <g>
       <use style="stroke:#000000;stroke-width:0.6;" x="246.179348" xlink:href="#m726b393a82" y="315"/>
      </g>
     </g>
    </g>
    <g id="xtick_29">
     <g id="line2d_29">
      <g>
       <use style="stroke:#000000;stroke-width:0.6;" x="256.793478" xlink:href="#m726b393a82" y="315"/>
      </g>
     </g>
    </g>
    <g id="xtick_30">
     <g id="line2d_30">
      <g>
       <use style="stroke:#000000;stroke-width:0.6;" x="267.407609" xlink:href="#m726b393a82" y="315"/>
      </g>
     </g>
    </g>
    <g id="xtick_31">
     <g id="line2d_31">
      <g>
       <use style="stroke:#000000;stroke-width:0.6;" x="278.021739" xlink:href="#m726b393a82" y="315"/>
      </g>
     </g>
    </g>
    <g id="xtick_32">
     <g id="line2d_32">
      <g>
       <use style="stroke:#000000;stroke-width:0.6;" x="288.63587" xlink:href="#m726b393a82" y="315"/>
      </g>
     </g>
    </g>
    <g id="xtick_33">
     <g id="line2d_33">
      <g>
       <use style="stroke:#000000;stroke-width:0.6;" x="299.25" xlink:href="#m726b393a82" y="315"/>
      </g>
     </g>
    </g>
    <g id="xtick_34">
     <g id="line2d_34">
      <g>
       <use style="stroke:#000000;stroke-width:0.6;" x="309.86413" xlink:href="#m726b393a82" y="315"/>
      </g>
     </g>
    </g>
    <g id="xtick_35">
     <g id="line2d_35">
      <g>
       <use style="stroke:#000000;stroke-width:0.6;" x="320.478261" xlink:href="#m726b393a82" y="315"/>
      </g>
     </g>
    </g>
    <g id="xtick_36">
     <g id="line2d_36">
      <g>
       <use style="stroke:#000000;stroke-width:0.6;" x="331.092391" xlink:href="#m726b393a82" y="315"/>
      </g>
     </g>
    </g>
    <g id="xtick_37">
     <g id="line2d_37">
      <g>
       <use style="stroke:#000000;stroke-width:0.6;" x="341.706522" xlink:href="#m726b393a82" y="315"/>
      </g>
     </g>
    </g>
    <g id="xtick_38">
     <g id="line2d_38">
      <g>
       <use style="stroke:#000000;stroke-width:0.6;" x="352.320652" xlink:href="#m726b393a82" y="315"/>
      </g>
     </g>
    </g>
    <g id="xtick_39">
     <g id="line2d_39">
      <g>
       <use style="stroke:#000000;stroke-width:0.6;" x="362.934783" xlink:href="#m726b393a82" y="315"/>
      </g>
     </g>
    </g>
    <g id="xtick_40">
     <g id="line2d_40">
      <g>
       <use style="stroke:#000000;stroke-width:0.6;" x="373.548913" xlink:href="#m726b393a82" y="315"/>
      </g>
     </g>
    </g>
    <g id="xtick_41">
     <g id="line2d_41">
      <g>
       <use style="stroke:#000000;stroke-width:0.6;" x="384.163043" xlink:href="#m726b393a82" y="315"/>
      </g>
     </g>
    </g>
    <g id="xtick_42">
     <g id="line2d_42">
      <g>
       <use style="stroke:#000000;stroke-width:0.6;" x="394.777174" xlink:href="#m726b393a82" y="315"/>
      </g>
     </g>
    </g>
    <g id="xtick_43">
     <g id="line2d_43">
      <g>
       <use style="stroke:#000000;stroke-width:0.6;" x="405.391304" xlink:href="#m726b393a82" y="315"/>
      </g>
     </g>
    </g>
    <g id="xtick_44">
     <g id="line2d_44">
      <g>
       <use style="stroke:#000000;stroke-width:0.6;" x="416.005435" xlink:href="#m726b393a82" y="315"/>
      </g>
     </g>
    </g>
    <g id="xtick_45">
     <g id="line2d_45">
      <g>
       <use style="stroke:#000000;stroke-width:0.6;" x="426.619565" xlink:href="#m726b393a82" y="315"/>
      </g>
     </g>
    </g>
    <g id="xtick_46">
     <g id="line2d_46">
      <g>
       <use style="stroke:#000000;stroke-width:0.6;" x="437.233696" xlink:href="#m726b393a82" y="315"/>
      </g>
     </g>
    </g>
    <g id="xtick_47">
     <g id="line2d_47">
      <g>
       <use style="stroke:#000000;stroke-width:0.6;" x="447.847826" xlink:href="#m726b393a82" y="315"/>
      </g>
     </g>
    </g>
    <g id="xtick_48">
     <g id="line2d_48">
      <g>
       <use style="stroke:#000000;stroke-width:0.6;" x="458.461957" xlink:href="#m726b393a82" y="315"/>
      </g>
     </g>
    </g>
    <g id="xtick_49">
     <g id="line2d_49">
      <g>
       <use style="stroke:#000000;stroke-width:0.6;" x="469.076087" xlink:href="#m726b393a82" y="315"/>
      </g>
     </g>
    </g>
    <g id="xtick_50">
     <g id="line2d_50">
      <g>
       <use style="stroke:#000000;stroke-width:0.6;" x="479.690217" xlink:href="#m726b393a82" y="315"/>
      </g>
     </g>
    </g>
    <g id="xtick_51">
     <g id="line2d_51">
      <g>
       <use style="stroke:#000000;stroke-width:0.6;" x="490.304348" xlink:href="#m726b393a82" y="315"/>
      </g>
     </g>
    </g>
    <g id="xtick_52">
     <g id="line2d_52">
      <g>
       <use style="stroke:#000000;stroke-width:0.6;" x="500.918478" xlink:href="#m726b393a82" y="315"/>
      </g>
     </g>
    </g>
    <g id="xtick_53">
     <g id="line2d_53">
      <g>
       <use style="stroke:#000000;stroke-width:0.6;" x="511.532609" xlink:href="#m726b393a82" y="315"/>
      </g>
     </g>
    </g>
    <g id="xtick_54">
     <g id="line2d_54">
      <g>
       <use style="stroke:#000000;stroke-width:0.6;" x="522.146739" xlink:href="#m726b393a82" y="315"/>
      </g>
     </g>
    </g>
    <g id="xtick_55">
     <g id="line2d_55">
      <g>
       <use style="stroke:#000000;stroke-width:0.6;" x="532.76087" xlink:href="#m726b393a82" y="315"/>
      </g>
     </g>
    </g>
    <g id="xtick_56">
     <g id="line2d_56">
      <g>
       <use style="stroke:#000000;stroke-width:0.6;" x="543.375" xlink:href="#m726b393a82" y="315"/>
      </g>
     </g>
    </g>
    <g id="xtick_57">
     <g id="line2d_57">
      <g>
       <use style="stroke:#000000;stroke-width:0.6;" x="553.98913" xlink:href="#m726b393a82" y="315"/>
      </g>
     </g>
    </g>
    <g id="xtick_58">
     <g id="line2d_58">
      <g>
       <use style="stroke:#000000;stroke-width:0.6;" x="564.603261" xlink:href="#m726b393a82" y="315"/>
      </g>
     </g>
    </g>
    <g id="xtick_59">
     <g id="line2d_59">
      <g>
       <use style="stroke:#000000;stroke-width:0.6;" x="575.217391" xlink:href="#m726b393a82" y="315"/>
      </g>
     </g>
    </g>
    <g id="xtick_60">
     <g id="line2d_60">
      <g>
       <use style="stroke:#000000;stroke-width:0.6;" x="596.445652" xlink:href="#m726b393a82" y="315"/>
      </g>
     </g>
    </g>
    <g id="xtick_61">
     <g id="line2d_61">
      <g>
       <use style="stroke:#000000;stroke-width:0.6;" x="607.059783" xlink:href="#m726b393a82" y="315"/>
      </g>
     </g>
    </g>
    <g id="xtick_62">
     <g id="line2d_62">
      <g>
       <use style="stroke:#000000;stroke-width:0.6;" x="617.673913" xlink:href="#m726b393a82" y="315"/>
      </g>
     </g>
    </g>
    <g id="xtick_63">
     <g id="line2d_63">
      <g>
       <use style="stroke:#000000;stroke-width:0.6;" x="638.902174" xlink:href="#m726b393a82" y="315"/>
      </g>
     </g>
    </g>
    <g id="text_13">
     <!-- date -->
     <g transform="translate(357.725 354.474375)scale(0.1 -0.1)">
      <defs>
       <path d="M 45.40625 46.390625 
L 45.40625 75.984375 
L 54.390625 75.984375 
L 54.390625 0 
L 45.40625 0 
L 45.40625 8.203125 
Q 42.578125 3.328125 38.25 0.953125 
Q 33.9375 -1.421875 27.875 -1.421875 
Q 17.96875 -1.421875 11.734375 6.484375 
Q 5.515625 14.40625 5.515625 27.296875 
Q 5.515625 40.1875 11.734375 48.09375 
Q 17.96875 56 27.875 56 
Q 33.9375 56 38.25 53.625 
Q 42.578125 51.265625 45.40625 46.390625 
z
M 14.796875 27.296875 
Q 14.796875 17.390625 18.875 11.75 
Q 22.953125 6.109375 30.078125 6.109375 
Q 37.203125 6.109375 41.296875 11.75 
Q 45.40625 17.390625 45.40625 27.296875 
Q 45.40625 37.203125 41.296875 42.84375 
Q 37.203125 48.484375 30.078125 48.484375 
Q 22.953125 48.484375 18.875 42.84375 
Q 14.796875 37.203125 14.796875 27.296875 
z
" id="DejaVuSans-100"/>
      </defs>
      <use xlink:href="#DejaVuSans-100"/>
      <use x="63.476562" xlink:href="#DejaVuSans-97"/>
      <use x="124.755859" xlink:href="#DejaVuSans-116"/>
      <use x="163.964844" xlink:href="#DejaVuSans-101"/>
     </g>
    </g>
   </g>
   <g id="matplotlib.axis_2">
    <g id="ytick_1">
     <g id="line2d_64">
      <path clip-path="url(#p3c92392ff0)" d="M 90 311.966919 
L 648 311.966919 
" style="fill:none;stroke:#b0b0b0;stroke-dasharray:0.8,1.32;stroke-dashoffset:0;stroke-width:0.8;"/>
     </g>
     <g id="line2d_65">
      <defs>
       <path d="M 0 0 
L -3.5 0 
" id="m465dacc46a" style="stroke:#000000;stroke-width:0.8;"/>
      </defs>
      <g>
       <use style="stroke:#000000;stroke-width:0.8;" x="90" xlink:href="#m465dacc46a" y="311.966919"/>
      </g>
     </g>
     <g id="text_14">
      <!-- 0.25 -->
      <g transform="translate(60.734375 315.766138)scale(0.1 -0.1)">
       <defs>
        <path d="M 10.6875 12.40625 
L 21 12.40625 
L 21 0 
L 10.6875 0 
z
" id="DejaVuSans-46"/>
        <path d="M 10.796875 72.90625 
L 49.515625 72.90625 
L 49.515625 64.59375 
L 19.828125 64.59375 
L 19.828125 46.734375 
Q 21.96875 47.46875 24.109375 47.828125 
Q 26.265625 48.1875 28.421875 48.1875 
Q 40.625 48.1875 47.75 41.5 
Q 54.890625 34.8125 54.890625 23.390625 
Q 54.890625 11.625 47.5625 5.09375 
Q 40.234375 -1.421875 26.90625 -1.421875 
Q 22.3125 -1.421875 17.546875 -0.640625 
Q 12.796875 0.140625 7.71875 1.703125 
L 7.71875 11.625 
Q 12.109375 9.234375 16.796875 8.0625 
Q 21.484375 6.890625 26.703125 6.890625 
Q 35.15625 6.890625 40.078125 11.328125 
Q 45.015625 15.765625 45.015625 23.390625 
Q 45.015625 31 40.078125 35.4375 
Q 35.15625 39.890625 26.703125 39.890625 
Q 22.75 39.890625 18.8125 39.015625 
Q 14.890625 38.140625 10.796875 36.28125 
z
" id="DejaVuSans-53"/>
       </defs>
       <use xlink:href="#DejaVuSans-48"/>
       <use x="63.623047" xlink:href="#DejaVuSans-46"/>
       <use x="95.410156" xlink:href="#DejaVuSans-50"/>
       <use x="159.033203" xlink:href="#DejaVuSans-53"/>
      </g>
     </g>
    </g>
    <g id="ytick_2">
     <g id="line2d_66">
      <path clip-path="url(#p3c92392ff0)" d="M 90 278.979463 
L 648 278.979463 
" style="fill:none;stroke:#b0b0b0;stroke-dasharray:0.8,1.32;stroke-dashoffset:0;stroke-width:0.8;"/>
     </g>
     <g id="line2d_67">
      <g>
       <use style="stroke:#000000;stroke-width:0.8;" x="90" xlink:href="#m465dacc46a" y="278.979463"/>
      </g>
     </g>
     <g id="text_15">
      <!-- 0.50 -->
      <g transform="translate(60.734375 282.778682)scale(0.1 -0.1)">
       <use xlink:href="#DejaVuSans-48"/>
       <use x="63.623047" xlink:href="#DejaVuSans-46"/>
       <use x="95.410156" xlink:href="#DejaVuSans-53"/>
       <use x="159.033203" xlink:href="#DejaVuSans-48"/>
      </g>
     </g>
    </g>
    <g id="ytick_3">
     <g id="line2d_68">
      <path clip-path="url(#p3c92392ff0)" d="M 90 245.992007 
L 648 245.992007 
" style="fill:none;stroke:#b0b0b0;stroke-dasharray:0.8,1.32;stroke-dashoffset:0;stroke-width:0.8;"/>
     </g>
     <g id="line2d_69">
      <g>
       <use style="stroke:#000000;stroke-width:0.8;" x="90" xlink:href="#m465dacc46a" y="245.992007"/>
      </g>
     </g>
     <g id="text_16">
      <!-- 0.75 -->
      <g transform="translate(60.734375 249.791226)scale(0.1 -0.1)">
       <defs>
        <path d="M 8.203125 72.90625 
L 55.078125 72.90625 
L 55.078125 68.703125 
L 28.609375 0 
L 18.3125 0 
L 43.21875 64.59375 
L 8.203125 64.59375 
z
" id="DejaVuSans-55"/>
       </defs>
       <use xlink:href="#DejaVuSans-48"/>
       <use x="63.623047" xlink:href="#DejaVuSans-46"/>
       <use x="95.410156" xlink:href="#DejaVuSans-55"/>
       <use x="159.033203" xlink:href="#DejaVuSans-53"/>
      </g>
     </g>
    </g>
    <g id="ytick_4">
     <g id="line2d_70">
      <path clip-path="url(#p3c92392ff0)" d="M 90 213.004551 
L 648 213.004551 
" style="fill:none;stroke:#b0b0b0;stroke-dasharray:0.8,1.32;stroke-dashoffset:0;stroke-width:0.8;"/>
     </g>
     <g id="line2d_71">
      <g>
       <use style="stroke:#000000;stroke-width:0.8;" x="90" xlink:href="#m465dacc46a" y="213.004551"/>
      </g>
     </g>
     <g id="text_17">
      <!-- 1.00 -->
      <g transform="translate(60.734375 216.80377)scale(0.1 -0.1)">
       <use xlink:href="#DejaVuSans-49"/>
       <use x="63.623047" xlink:href="#DejaVuSans-46"/>
       <use x="95.410156" xlink:href="#DejaVuSans-48"/>
       <use x="159.033203" xlink:href="#DejaVuSans-48"/>
      </g>
     </g>
    </g>
    <g id="ytick_5">
     <g id="line2d_72">
      <path clip-path="url(#p3c92392ff0)" d="M 90 180.017095 
L 648 180.017095 
" style="fill:none;stroke:#b0b0b0;stroke-dasharray:0.8,1.32;stroke-dashoffset:0;stroke-width:0.8;"/>
     </g>
     <g id="line2d_73">
      <g>
       <use style="stroke:#000000;stroke-width:0.8;" x="90" xlink:href="#m465dacc46a" y="180.017095"/>
      </g>
     </g>
     <g id="text_18">
      <!-- 1.25 -->
      <g transform="translate(60.734375 183.816314)scale(0.1 -0.1)">
       <use xlink:href="#DejaVuSans-49"/>
       <use x="63.623047" xlink:href="#DejaVuSans-46"/>
       <use x="95.410156" xlink:href="#DejaVuSans-50"/>
       <use x="159.033203" xlink:href="#DejaVuSans-53"/>
      </g>
     </g>
    </g>
    <g id="ytick_6">
     <g id="line2d_74">
      <path clip-path="url(#p3c92392ff0)" d="M 90 147.029639 
L 648 147.029639 
" style="fill:none;stroke:#b0b0b0;stroke-dasharray:0.8,1.32;stroke-dashoffset:0;stroke-width:0.8;"/>
     </g>
     <g id="line2d_75">
      <g>
       <use style="stroke:#000000;stroke-width:0.8;" x="90" xlink:href="#m465dacc46a" y="147.029639"/>
      </g>
     </g>
     <g id="text_19">
      <!-- 1.50 -->
      <g transform="translate(60.734375 150.828858)scale(0.1 -0.1)">
       <use xlink:href="#DejaVuSans-49"/>
       <use x="63.623047" xlink:href="#DejaVuSans-46"/>
       <use x="95.410156" xlink:href="#DejaVuSans-53"/>
       <use x="159.033203" xlink:href="#DejaVuSans-48"/>
      </g>
     </g>
    </g>
    <g id="ytick_7">
     <g id="line2d_76">
      <path clip-path="url(#p3c92392ff0)" d="M 90 114.042183 
L 648 114.042183 
" style="fill:none;stroke:#b0b0b0;stroke-dasharray:0.8,1.32;stroke-dashoffset:0;stroke-width:0.8;"/>
     </g>
     <g id="line2d_77">
      <g>
       <use style="stroke:#000000;stroke-width:0.8;" x="90" xlink:href="#m465dacc46a" y="114.042183"/>
      </g>
     </g>
     <g id="text_20">
      <!-- 1.75 -->
      <g transform="translate(60.734375 117.841402)scale(0.1 -0.1)">
       <use xlink:href="#DejaVuSans-49"/>
       <use x="63.623047" xlink:href="#DejaVuSans-46"/>
       <use x="95.410156" xlink:href="#DejaVuSans-55"/>
       <use x="159.033203" xlink:href="#DejaVuSans-53"/>
      </g>
     </g>
    </g>
    <g id="ytick_8">
     <g id="line2d_78">
      <path clip-path="url(#p3c92392ff0)" d="M 90 81.054727 
L 648 81.054727 
" style="fill:none;stroke:#b0b0b0;stroke-dasharray:0.8,1.32;stroke-dashoffset:0;stroke-width:0.8;"/>
     </g>
     <g id="line2d_79">
      <g>
       <use style="stroke:#000000;stroke-width:0.8;" x="90" xlink:href="#m465dacc46a" y="81.054727"/>
      </g>
     </g>
     <g id="text_21">
      <!-- 2.00 -->
      <g transform="translate(60.734375 84.853946)scale(0.1 -0.1)">
       <use xlink:href="#DejaVuSans-50"/>
       <use x="63.623047" xlink:href="#DejaVuSans-46"/>
       <use x="95.410156" xlink:href="#DejaVuSans-48"/>
       <use x="159.033203" xlink:href="#DejaVuSans-48"/>
      </g>
     </g>
    </g>
    <g id="ytick_9">
     <g id="line2d_80">
      <path clip-path="url(#p3c92392ff0)" d="M 90 48.067271 
L 648 48.067271 
" style="fill:none;stroke:#b0b0b0;stroke-dasharray:0.8,1.32;stroke-dashoffset:0;stroke-width:0.8;"/>
     </g>
     <g id="line2d_81">
      <g>
       <use style="stroke:#000000;stroke-width:0.8;" x="90" xlink:href="#m465dacc46a" y="48.067271"/>
      </g>
     </g>
     <g id="text_22">
      <!-- 2.25 -->
      <g transform="translate(60.734375 51.86649)scale(0.1 -0.1)">
       <use xlink:href="#DejaVuSans-50"/>
       <use x="63.623047" xlink:href="#DejaVuSans-46"/>
       <use x="95.410156" xlink:href="#DejaVuSans-50"/>
       <use x="159.033203" xlink:href="#DejaVuSans-53"/>
      </g>
     </g>
    </g>
   </g>
   <g id="line2d_82">
    <path clip-path="url(#p3c92392ff0)" d="M 90 154.069054 
L 93.032609 153.872304 
L 94.548913 156.210361 
L 96.065217 158.165647 
L 99.097826 165.24405 
L 102.130435 173.744364 
L 108.195652 201.776349 
L 109.711957 207.50865 
L 114.26087 228.341753 
L 117.293478 239.091343 
L 120.326087 249.147032 
L 121.842391 253.099996 
L 123.358696 256.367095 
L 124.875 260.013729 
L 126.391304 262.799999 
L 127.907609 265.831803 
L 129.423913 268.391004 
L 132.456522 272.350643 
L 133.972826 274.393851 
L 135.48913 275.706578 
L 137.005435 276.689878 
L 140.038043 278.177273 
L 141.554348 278.251563 
L 143.070652 278.941616 
L 144.586957 278.849353 
L 146.103261 277.90766 
L 147.619565 277.588351 
L 149.13587 276.562643 
L 152.168478 275.06377 
L 153.684783 273.750636 
L 155.201087 270.732412 
L 156.717391 269.043089 
L 158.233696 267.159299 
L 159.75 265.071327 
L 161.266304 262.092792 
L 162.782609 258.735106 
L 168.847826 243.114195 
L 170.36413 238.103828 
L 171.880435 233.853592 
L 173.396739 229.086808 
L 176.429348 217.16382 
L 177.945652 210.672064 
L 179.461957 204.945199 
L 180.978261 197.75519 
L 182.494565 192.513897 
L 184.01087 185.289362 
L 185.527174 177.220875 
L 187.043478 171.228974 
L 194.625 132.086981 
L 196.141304 123.785536 
L 199.173913 112.839193 
L 200.690217 108.368989 
L 203.722826 99.009464 
L 205.23913 97.491355 
L 206.755435 97.157649 
L 208.271739 98.903135 
L 209.788043 101.259784 
L 211.304348 104.963193 
L 212.820652 111.727276 
L 214.336957 117.219654 
L 215.853261 124.892354 
L 217.369565 131.635576 
L 218.88587 137.622042 
L 220.402174 144.158757 
L 221.918478 147.677325 
L 224.951087 153.655382 
L 226.467391 155.417407 
L 227.983696 157.513985 
L 229.5 158.652248 
L 231.016304 158.396879 
L 232.532609 157.711185 
L 235.565217 153.901696 
L 237.081522 153.103743 
L 238.597826 151.908322 
L 240.11413 149.391712 
L 243.146739 149.496686 
L 244.663043 150.22905 
L 246.179348 151.467031 
L 247.695652 152.281172 
L 249.211957 153.420976 
L 250.728261 155.387228 
L 252.244565 159.941227 
L 253.76087 163.971393 
L 258.309783 174.935617 
L 259.826087 177.55248 
L 262.858696 184.023488 
L 264.375 186.705677 
L 265.891304 189.662047 
L 267.407609 193.762424 
L 268.923913 195.721569 
L 270.440217 200.238889 
L 271.956522 202.943332 
L 273.472826 206.329965 
L 276.505435 212.417032 
L 279.538043 218.359328 
L 281.054348 219.836925 
L 282.570652 222.197398 
L 284.086957 223.724454 
L 285.603261 226.019619 
L 287.119565 227.959692 
L 288.63587 229.58513 
L 290.152174 230.088091 
L 291.668478 231.171049 
L 293.184783 231.280485 
L 294.701087 230.614858 
L 296.217391 229.480862 
L 297.733696 228.902322 
L 299.25 227.875157 
L 302.282609 225.297345 
L 303.798913 222.853706 
L 305.315217 221.864322 
L 308.347826 216.455384 
L 309.86413 214.432178 
L 311.380435 211.559724 
L 314.413043 206.426507 
L 315.929348 204.587917 
L 317.445652 202.224898 
L 318.961957 200.907604 
L 320.478261 196.998554 
L 321.994565 193.974617 
L 323.51087 192.202543 
L 325.027174 189.673054 
L 326.543478 186.787385 
L 328.059783 184.436563 
L 329.576087 183.349833 
L 331.092391 182.104077 
L 332.608696 180.647355 
L 334.125 179.347651 
L 335.641304 178.528533 
L 337.157609 177.166967 
L 338.673913 176.887949 
L 340.190217 176.296178 
L 341.706522 175.570475 
L 343.222826 174.12341 
L 346.255435 173.750265 
L 347.771739 173.834099 
L 349.288043 174.15483 
L 350.804348 174.353335 
L 352.320652 173.692376 
L 353.836957 173.658631 
L 355.353261 174.201778 
L 356.869565 175.534572 
L 358.38587 174.674654 
L 359.902174 176.95653 
L 361.418478 178.314584 
L 362.934783 180.403997 
L 364.451087 182.856289 
L 367.483696 189.426231 
L 369 193.108053 
L 370.516304 197.96702 
L 372.032609 203.527291 
L 373.548913 209.53405 
L 375.065217 216.603766 
L 376.581522 222.265494 
L 378.097826 229.078675 
L 381.130435 240.608906 
L 382.646739 246.483213 
L 385.679348 256.656112 
L 387.195652 260.91451 
L 390.228261 268.00128 
L 391.744565 270.656551 
L 393.26087 272.582315 
L 394.777174 274.196134 
L 396.293478 275.151899 
L 397.809783 276.343388 
L 399.326087 276.795507 
L 402.358696 276.758395 
L 405.391304 274.657989 
L 406.907609 273.057974 
L 409.940217 268.994483 
L 411.456522 266.455114 
L 414.48913 260.425532 
L 419.038043 249.989073 
L 422.070652 241.127789 
L 423.586957 237.826189 
L 425.103261 234.031367 
L 426.619565 229.554899 
L 431.168478 218.842641 
L 432.684783 216.483081 
L 434.201087 214.752177 
L 435.717391 213.682343 
L 437.233696 211.456691 
L 438.75 211.068332 
L 440.266304 209.320445 
L 441.782609 208.172558 
L 443.298913 207.350927 
L 444.815217 205.917725 
L 446.331522 205.047534 
L 447.847826 204.448767 
L 449.36413 204.227623 
L 450.880435 203.429896 
L 452.396739 203.12825 
L 455.429348 202.159689 
L 456.945652 200.80306 
L 458.461957 198.704464 
L 459.978261 196.968969 
L 461.494565 195.905893 
L 463.01087 195.014818 
L 466.043478 192.389678 
L 467.559783 189.142921 
L 470.592391 183.955861 
L 472.108696 181.329523 
L 473.625 179.317678 
L 475.141304 180.998114 
L 476.657609 177.315699 
L 478.173913 176.736284 
L 479.690217 174.930905 
L 481.206522 175.096132 
L 482.722826 176.21853 
L 484.23913 174.529673 
L 485.755435 173.845415 
L 487.271739 173.922761 
L 488.788043 174.317231 
L 490.304348 173.508351 
L 491.820652 171.739589 
L 493.336957 171.40995 
L 494.853261 169.303224 
L 497.88587 168.697214 
L 500.918478 165.869858 
L 502.434783 165.499942 
L 503.951087 163.955187 
L 505.467391 162.056044 
L 506.983696 161.533489 
L 508.5 159.569254 
L 510.016304 158.989691 
L 511.532609 159.486923 
L 513.048913 157.525709 
L 514.565217 157.102535 
L 517.597826 155.595769 
L 520.630435 154.892276 
L 522.146739 155.911975 
L 523.663043 159.009471 
L 525.179348 160.660691 
L 526.695652 162.674854 
L 528.211957 165.589044 
L 532.76087 178.682265 
L 534.277174 183.843906 
L 540.342391 202.099736 
L 541.858696 205.040245 
L 543.375 208.579356 
L 547.923913 217.19861 
L 549.440217 219.651911 
L 550.956522 221.294899 
L 552.472826 223.156574 
L 553.98913 224.385808 
L 555.505435 225.387423 
L 557.021739 225.618338 
L 558.538043 226.596609 
L 560.054348 226.831889 
L 561.570652 228.036558 
L 563.086957 228.422498 
L 564.603261 228.334733 
L 566.119565 228.404143 
L 569.152174 230.702412 
L 570.668478 231.939387 
L 572.184783 231.865616 
L 573.701087 233.969881 
L 575.217391 234.48236 
L 576.733696 235.22433 
L 578.25 236.83804 
L 579.766304 236.929481 
L 581.282609 238.344861 
L 582.798913 238.083887 
L 584.315217 238.437066 
L 585.831522 238.524338 
L 587.347826 237.481758 
L 588.86413 237.266739 
L 591.896739 236.273052 
L 593.413043 235.373643 
L 594.929348 233.58616 
L 596.445652 232.142996 
L 599.478261 229.602531 
L 600.994565 228.939263 
L 602.51087 228.673554 
L 604.027174 228.781318 
L 605.543478 228.112475 
L 607.059783 229.028313 
L 608.576087 230.57892 
L 610.092391 231.719996 
L 613.125 235.747547 
L 614.641304 237.837939 
L 616.157609 240.333838 
L 619.190217 246.274974 
L 620.706522 249.324115 
L 626.771739 260.005069 
L 628.288043 261.756857 
L 632.836957 267.640783 
L 634.353261 268.468645 
L 635.869565 269.491022 
L 637.38587 270.165304 
L 638.902174 271.240292 
L 640.418478 271.393823 
L 643.451087 272.194145 
L 644.967391 272.429894 
L 646.483696 271.920591 
L 648 272.289829 
L 649.516304 273.286441 
L 651.032609 271.779882 
L 652.548913 272.386076 
L 654.065217 271.868524 
L 657.097826 271.716458 
L 658.61413 272.857722 
L 660.130435 272.343814 
L 660.130435 272.343814 
" style="fill:none;stroke:#fc997a;stroke-linecap:square;stroke-width:1.5;"/>
   </g>
   <g id="line2d_83">
    <path clip-path="url(#p3c92392ff0)" d="M 90 213.004551 
L 648 213.004551 
" style="fill:none;stroke:#000000;stroke-dasharray:3.7,1.6;stroke-dashoffset:0;"/>
   </g>
   <g id="patch_3">
    <path d="M 90 315 
L 90 43.2 
" style="fill:none;stroke:#000000;stroke-linecap:square;stroke-linejoin:miter;stroke-width:0.8;"/>
   </g>
   <g id="patch_4">
    <path d="M 648 315 
L 648 43.2 
" style="fill:none;stroke:#000000;stroke-linecap:square;stroke-linejoin:miter;stroke-width:0.8;"/>
   </g>
   <g id="patch_5">
    <path d="M 90 315 
L 648 315 
" style="fill:none;stroke:#000000;stroke-linecap:square;stroke-linejoin:miter;stroke-width:0.8;"/>
   </g>
   <g id="patch_6">
    <path d="M 90 43.2 
L 648 43.2 
" style="fill:none;stroke:#000000;stroke-linecap:square;stroke-linejoin:miter;stroke-width:0.8;"/>
   </g>
   <g id="text_23">
    <!-- 422    $R_t$ -->
    <g transform="translate(305.82 37.2)scale(0.12 -0.12)">
     <defs>
      <path d="M 37.796875 64.3125 
L 12.890625 25.390625 
L 37.796875 25.390625 
z
M 35.203125 72.90625 
L 47.609375 72.90625 
L 47.609375 25.390625 
L 58.015625 25.390625 
L 58.015625 17.1875 
L 47.609375 17.1875 
L 47.609375 0 
L 37.796875 0 
L 37.796875 17.1875 
L 4.890625 17.1875 
L 4.890625 26.703125 
z
" id="DejaVuSans-52"/>
      <path id="DejaVuSans-32"/>
      <path d="M 19.140625 33.40625 
L 19.140625 0 
L 10.109375 0 
L 10.109375 29.6875 
z
M 56.25 27.828125 
L 56.25 0 
L 47.21875 0 
L 47.21875 29.6875 
Q 47.21875 40.234375 44.0625 43.96875 
Q 40.921875 47.703125 31.84375 47.703125 
L 9.078125 47.703125 
L 9.078125 54.6875 
L 31.734375 54.6875 
Q 45.265625 54.6875 50.75 48.578125 
Q 56.25 42.484375 56.25 27.828125 
z
" id="DejaVuSans-1492"/>
      <path d="M 18.171875 54.6875 
L 18.171875 0 
L 9.078125 0 
L 9.078125 54.6875 
z
" id="DejaVuSans-1493"/>
      <path d="M 19.34375 -20.796875 
L 19.34375 33.40625 
L 10.25 29.6875 
L 10.25 -20.796875 
z
M 33.0625 0 
L 52.78125 47.703125 
L 9.078125 47.703125 
L 9.078125 54.640625 
L 63.328125 54.640625 
L 63.328125 49.265625 
L 42.578125 0 
z
" id="DejaVuSans-1511"/>
      <path d="M 56.640625 29.59375 
L 56.640625 0 
L 47.5625 0 
L 47.5625 29.6875 
Q 47.5625 33.296875 47.3125 35.71875 
Q 47.078125 38.140625 46.1875 40.59375 
Q 45.3125 43.0625 43.75 44.484375 
Q 42.1875 45.90625 39.453125 46.796875 
Q 36.71875 47.703125 32.8125 47.703125 
L 20.796875 47.703125 
L 20.796875 20.21875 
Q 20.796875 9.765625 17.796875 4.6875 
Q 14.796875 -0.390625 7.375 -0.390625 
Q 4.78125 -0.390625 0.984375 0.390625 
L 0.984375 7.375 
Q 4.15625 6.6875 6 6.6875 
Q 9.46875 6.6875 10.59375 9.46875 
Q 11.71875 12.25 11.71875 20.21875 
L 11.71875 47.703125 
L 3.265625 47.703125 
L 3.265625 54.6875 
L 32.8125 54.6875 
Q 39.796875 54.6875 44.5 53.046875 
Q 49.21875 51.421875 51.859375 48.046875 
Q 54.5 44.671875 55.5625 40.28125 
Q 56.640625 35.890625 56.640625 29.59375 
z
" id="DejaVuSans-1514"/>
      <path d="M 56.25 29.59375 
L 56.25 0 
L 47.171875 0 
L 47.171875 30.90625 
Q 47.171875 40.578125 44 44.140625 
Q 40.828125 47.703125 31.84375 47.703125 
L 18.109375 47.703125 
L 18.109375 0 
L 9.078125 0 
L 9.078125 54.6875 
L 31.734375 54.6875 
Q 45.21875 54.6875 50.734375 48.828125 
Q 56.25 42.96875 56.25 29.59375 
z
" id="DejaVuSans-1495"/>
      <path d="M 9.078125 54.6875 
L 29.890625 54.6875 
Q 42.484375 54.6875 49.703125 47.5625 
Q 56.9375 40.4375 56.9375 27.34375 
Q 56.9375 14.265625 49.6875 7.125 
Q 42.4375 0 29.890625 0 
L 9.078125 0 
L 9.078125 6.9375 
L 26.171875 6.9375 
Q 37.703125 6.9375 42.796875 11.625 
Q 47.90625 16.3125 47.90625 27.9375 
Q 47.90625 38.625 42.625 43.15625 
Q 37.359375 47.703125 26.21875 47.703125 
L 18.171875 47.703125 
L 18.109375 36.859375 
Q 18.0625 33.296875 19.8125 31.609375 
Q 21.578125 29.9375 25.203125 29.9375 
Q 27.203125 29.9375 30.46875 30.5625 
L 30.46875 23.140625 
Q 26.46875 22.359375 23.1875 22.359375 
Q 16.65625 22.359375 12.859375 25.96875 
Q 9.078125 29.59375 9.078125 38.1875 
z
" id="DejaVuSans-1508"/>
      <path d="M 47.359375 27.828125 
L 47.359375 0 
L 38.28125 0 
L 38.28125 27.828125 
Q 38.28125 31.390625 37.765625 34.265625 
Q 37.25 37.15625 36 39.71875 
Q 34.765625 42.28125 32.8125 43.984375 
Q 30.859375 45.703125 27.78125 46.703125 
Q 24.703125 47.703125 20.703125 47.703125 
L 4.296875 47.703125 
L 4.296875 54.6875 
L 20.65625 54.6875 
Q 26.8125 54.6875 31.46875 53.390625 
Q 36.140625 52.09375 39.109375 49.828125 
Q 42.09375 47.5625 43.96875 44.109375 
Q 45.84375 40.671875 46.59375 36.734375 
Q 47.359375 32.8125 47.359375 27.828125 
z
" id="DejaVuSans-1512"/>
      <path d="M 30.328125 54.6875 
L 30.328125 47.703125 
L 26.421875 47.703125 
Q 22.171875 47.703125 20.578125 43.921875 
Q 19 40.140625 19 30.90625 
L 19 0 
L 9.90625 0 
L 9.90625 30.90625 
Q 9.90625 37.109375 11.78125 41.453125 
Q 13.671875 45.796875 16.40625 47.703125 
L 4.296875 47.703125 
L 4.296875 54.6875 
z
" id="DejaVuSans-1494"/>
      <path d="M 43.75 20.0625 
L 57.671875 0 
L 47.078125 0 
L 26.765625 29.296875 
Q 25.390625 28.609375 24.53125 28.09375 
Q 23.6875 27.59375 22.3125 26.296875 
Q 20.953125 25 20.140625 23.40625 
Q 19.34375 21.828125 18.703125 19.140625 
Q 18.0625 16.453125 18.0625 13.09375 
L 18.0625 0 
L 9.078125 0 
L 9.078125 9.03125 
Q 9.078125 12.984375 9.5625 16.359375 
Q 10.0625 19.734375 10.8125 22.078125 
Q 11.578125 24.421875 12.796875 26.390625 
Q 14.015625 28.375 15.109375 29.59375 
Q 16.21875 30.8125 17.796875 31.875 
Q 19.390625 32.953125 20.453125 33.46875 
Q 21.53125 33.984375 23.046875 34.625 
L 9.1875 54.6875 
L 19.78125 54.6875 
L 40.09375 25.390625 
Q 41.40625 26.03125 42.25 26.53125 
Q 43.109375 27.046875 44.46875 28.359375 
Q 45.84375 29.6875 46.671875 31.265625 
Q 47.515625 32.859375 48.140625 35.546875 
Q 48.78125 38.234375 48.78125 41.609375 
L 48.78125 54.6875 
L 57.765625 54.6875 
L 57.765625 45.65625 
Q 57.765625 41.65625 57.265625 38.3125 
Q 56.78125 34.96875 56.03125 32.59375 
Q 55.28125 30.21875 54.046875 28.234375 
Q 52.828125 26.265625 51.703125 25.0625 
Q 50.59375 23.875 49.03125 22.796875 
Q 47.46875 21.734375 46.390625 21.21875 
Q 45.3125 20.703125 43.75 20.0625 
z
" id="DejaVuSans-1488"/>
      <path d="M 25.203125 64.796875 
L 20.21875 38.921875 
L 32.90625 38.921875 
Q 40.375 38.921875 44.984375 43.046875 
Q 49.609375 47.171875 49.609375 53.8125 
Q 49.609375 59.125 46.5 61.953125 
Q 43.40625 64.796875 37.59375 64.796875 
z
M 43.3125 35.015625 
Q 46.4375 34.28125 48.515625 31.390625 
Q 50.59375 28.515625 53.328125 19.921875 
L 59.515625 0 
L 49.125 0 
L 43.40625 18.703125 
Q 41.21875 25.921875 38.328125 28.359375 
Q 35.453125 30.8125 29.5 30.8125 
L 18.609375 30.8125 
L 12.59375 0 
L 2.6875 0 
L 16.890625 72.90625 
L 39.109375 72.90625 
Q 49.21875 72.90625 54.609375 68.328125 
Q 60.015625 63.765625 60.015625 55.171875 
Q 60.015625 47.5625 55.421875 41.984375 
Q 50.828125 36.421875 43.3125 35.015625 
z
" id="DejaVuSans-Oblique-82"/>
      <path d="M 42.28125 54.6875 
L 40.921875 47.703125 
L 23 47.703125 
L 17.1875 18.015625 
Q 16.890625 16.359375 16.75 15.234375 
Q 16.609375 14.109375 16.609375 13.484375 
Q 16.609375 10.359375 18.484375 8.9375 
Q 20.359375 7.515625 24.515625 7.515625 
L 33.59375 7.515625 
L 32.078125 0 
L 23.484375 0 
Q 15.484375 0 11.546875 3.125 
Q 7.625 6.25 7.625 12.59375 
Q 7.625 13.71875 7.765625 15.0625 
Q 7.90625 16.40625 8.203125 18.015625 
L 14.015625 47.703125 
L 6.390625 47.703125 
L 7.8125 54.6875 
L 15.28125 54.6875 
L 18.3125 70.21875 
L 27.296875 70.21875 
L 24.3125 54.6875 
z
" id="DejaVuSans-Oblique-116"/>
     </defs>
     <use transform="translate(0 0.78125)" xlink:href="#DejaVuSans-52"/>
     <use transform="translate(63.623047 0.78125)" xlink:href="#DejaVuSans-50"/>
     <use transform="translate(127.246094 0.78125)" xlink:href="#DejaVuSans-50"/>
     <use transform="translate(190.869141 0.78125)" xlink:href="#DejaVuSans-32"/>
     <use transform="translate(222.65625 0.78125)" xlink:href="#DejaVuSans-1492"/>
     <use transform="translate(287.988281 0.78125)" xlink:href="#DejaVuSans-1493"/>
     <use transform="translate(315.234375 0.78125)" xlink:href="#DejaVuSans-1493"/>
     <use transform="translate(342.480469 0.78125)" xlink:href="#DejaVuSans-1511"/>
     <use transform="translate(413.427734 0.78125)" xlink:href="#DejaVuSans-1514"/>
     <use transform="translate(479.150391 0.78125)" xlink:href="#DejaVuSans-32"/>
     <use transform="translate(510.9375 0.78125)" xlink:href="#DejaVuSans-1495"/>
     <use transform="translate(576.269531 0.78125)" xlink:href="#DejaVuSans-1514"/>
     <use transform="translate(641.992188 0.78125)" xlink:href="#DejaVuSans-1508"/>
     <use transform="translate(704.443359 0.78125)" xlink:href="#DejaVuSans-32"/>
     <use transform="translate(736.230469 0.78125)" xlink:href="#DejaVuSans-1512"/>
     <use transform="translate(792.675781 0.78125)" xlink:href="#DejaVuSans-1493"/>
     <use transform="translate(819.921875 0.78125)" xlink:href="#DejaVuSans-1494"/>
     <use transform="translate(854.541016 0.78125)" xlink:href="#DejaVuSans-1488"/>
     <use transform="translate(921.386719 0.78125)" xlink:href="#DejaVuSans-32"/>
     <use transform="translate(953.173828 0.78125)" xlink:href="#DejaVuSans-Oblique-82"/>
     <use transform="translate(1022.65625 -15.625)scale(0.7)" xlink:href="#DejaVuSans-Oblique-116"/>
    </g>
   </g>
  </g>
 </g>
 <defs>
  <clipPath id="p3c92392ff0">
   <rect height="271.8" width="558" x="90" y="43.2"/>
  </clipPath>
 </defs>
</svg>
