<?xml version="1.0" encoding="utf-8" standalone="no"?>
<!DOCTYPE svg PUBLIC "-//W3C//DTD SVG 1.1//EN"
  "http://www.w3.org/Graphics/SVG/1.1/DTD/svg11.dtd">
<!-- Created with matplotlib (https://matplotlib.org/) -->
<svg height="360pt" version="1.1" viewBox="0 0 720 360" width="720pt" xmlns="http://www.w3.org/2000/svg" xmlns:xlink="http://www.w3.org/1999/xlink">
 <metadata>
  <rdf:RDF xmlns:cc="http://creativecommons.org/ns#" xmlns:dc="http://purl.org/dc/elements/1.1/" xmlns:rdf="http://www.w3.org/1999/02/22-rdf-syntax-ns#">
   <cc:Work>
    <dc:type rdf:resource="http://purl.org/dc/dcmitype/StillImage"/>
    <dc:date>2021-01-27T16:30:13.461954</dc:date>
    <dc:format>image/svg+xml</dc:format>
    <dc:creator>
     <cc:Agent>
      <dc:title>Matplotlib v3.3.2, https://matplotlib.org/</dc:title>
     </cc:Agent>
    </dc:creator>
   </cc:Work>
  </rdf:RDF>
 </metadata>
 <defs>
  <style type="text/css">*{stroke-linecap:butt;stroke-linejoin:round;}</style>
 </defs>
 <g id="figure_1">
  <g id="patch_1">
   <path d="M 0 360 
L 720 360 
L 720 0 
L 0 0 
z
" style="fill:#ffffff;"/>
  </g>
  <g id="axes_1">
   <g id="patch_2">
    <path d="M 90 315 
L 648 315 
L 648 43.2 
L 90 43.2 
z
" style="fill:#ffffff;"/>
   </g>
   <g id="PolyCollection_1">
    <defs>
     <path d="M 90 -101.300347 
L 90 -170.051457 
L 91.788462 -161.032077 
L 93.576923 -161.558914 
L 95.365385 -158.179037 
L 97.153846 -156.666901 
L 98.942308 -150.913976 
L 100.730769 -149.050748 
L 102.519231 -146.103329 
L 104.307692 -140.1368 
L 106.096154 -136.303158 
L 107.884615 -129.1632 
L 109.673077 -126.050167 
L 111.461538 -119.162952 
L 113.25 -115.306402 
L 115.038462 -109.230865 
L 116.826923 -109.065354 
L 118.615385 -101.448455 
L 120.403846 -100.426941 
L 122.192308 -99.74897 
L 123.980769 -94.353519 
L 125.769231 -96.25525 
L 127.557692 -91.471086 
L 129.346154 -92.037665 
L 131.134615 -89.475124 
L 132.923077 -88.233968 
L 134.711538 -88.39527 
L 136.5 -84.732483 
L 138.288462 -87.007635 
L 140.076923 -85.387571 
L 141.865385 -84.036947 
L 143.653846 -82.343733 
L 145.442308 -85.387901 
L 147.230769 -84.204815 
L 149.019231 -83.948301 
L 150.807692 -86.044824 
L 152.596154 -86.185628 
L 154.384615 -86.206711 
L 156.173077 -87.291958 
L 157.961538 -92.000583 
L 159.75 -91.867579 
L 161.538462 -94.454398 
L 163.326923 -95.670949 
L 165.115385 -99.008161 
L 166.903846 -101.289061 
L 168.692308 -102.474897 
L 170.480769 -104.27364 
L 172.269231 -108.942164 
L 174.057692 -115.218051 
L 175.846154 -112.440206 
L 177.634615 -117.569802 
L 179.423077 -122.258238 
L 181.211538 -125.000609 
L 183 -129.811612 
L 184.788462 -136.965181 
L 186.576923 -141.552825 
L 188.365385 -146.297799 
L 190.153846 -151.428712 
L 191.942308 -157.729658 
L 193.730769 -164.02597 
L 195.519231 -169.161075 
L 197.307692 -180.642757 
L 199.096154 -185.599497 
L 200.884615 -192.634566 
L 202.673077 -195.379347 
L 204.461538 -204.282327 
L 206.25 -214.619205 
L 208.038462 -220.619833 
L 209.826923 -228.238724 
L 211.615385 -235.630243 
L 213.403846 -242.196709 
L 215.192308 -257.027676 
L 216.980769 -263.553528 
L 218.769231 -272.658543 
L 220.557692 -278.77355 
L 222.346154 -291.442181 
L 224.134615 -292.876176 
L 225.923077 -298.699917 
L 227.711538 -304.445455 
L 229.5 -300.651943 
L 231.288462 -302.973081 
L 233.076923 -301.646032 
L 234.865385 -286.914132 
L 236.653846 -288.939478 
L 238.442308 -275.386299 
L 240.230769 -265.279182 
L 242.019231 -253.181745 
L 243.807692 -235.779198 
L 245.596154 -228.321485 
L 247.384615 -215.17865 
L 249.173077 -209.651853 
L 250.961538 -197.375398 
L 252.75 -188.485563 
L 254.538462 -185.451681 
L 256.326923 -184.969737 
L 258.115385 -179.908164 
L 259.903846 -183.76718 
L 261.692308 -184.596795 
L 263.480769 -190.698224 
L 265.269231 -197.420046 
L 267.057692 -197.608813 
L 268.846154 -202.026838 
L 270.634615 -209.451971 
L 272.423077 -215.023689 
L 274.211538 -217.723318 
L 276 -229.049167 
L 277.788462 -224.367449 
L 279.576923 -232.471777 
L 281.365385 -232.125396 
L 283.153846 -230.713344 
L 284.942308 -233.056371 
L 286.730769 -230.728288 
L 288.519231 -222.280973 
L 290.307692 -217.509868 
L 292.096154 -213.834025 
L 293.884615 -202.063351 
L 295.673077 -193.203142 
L 297.461538 -187.166222 
L 299.25 -181.599707 
L 301.038462 -169.368993 
L 302.826923 -165.277492 
L 304.615385 -155.592668 
L 306.403846 -148.924548 
L 308.192308 -141.992678 
L 309.980769 -136.027889 
L 311.769231 -131.563059 
L 313.557692 -125.431012 
L 315.346154 -123.494436 
L 317.134615 -119.71355 
L 318.923077 -118.229564 
L 320.711538 -117.928878 
L 322.5 -116.008497 
L 324.288462 -117.215361 
L 326.076923 -116.443169 
L 327.865385 -119.929394 
L 329.653846 -122.055879 
L 331.442308 -123.30133 
L 333.230769 -125.209011 
L 335.019231 -128.554749 
L 336.807692 -133.88942 
L 338.596154 -136.1306 
L 340.384615 -138.650146 
L 342.173077 -145.694308 
L 343.961538 -150.903096 
L 345.75 -154.964501 
L 347.538462 -156.550066 
L 349.326923 -163.973922 
L 351.115385 -168.399754 
L 352.903846 -175.209146 
L 354.692308 -176.947732 
L 356.480769 -179.870508 
L 358.269231 -182.852022 
L 360.057692 -186.98575 
L 361.846154 -187.771015 
L 363.634615 -188.540081 
L 365.423077 -189.849933 
L 367.211538 -194.383149 
L 369 -191.92278 
L 370.788462 -192.132112 
L 372.576923 -196.732223 
L 374.365385 -193.946172 
L 376.153846 -190.070859 
L 377.942308 -193.613868 
L 379.730769 -189.493839 
L 381.519231 -185.179521 
L 383.307692 -182.813776 
L 385.096154 -184.237703 
L 386.884615 -182.467071 
L 388.673077 -178.576741 
L 390.461538 -180.763564 
L 392.25 -179.986934 
L 394.038462 -179.176467 
L 395.826923 -180.083527 
L 397.615385 -181.203894 
L 399.403846 -178.438331 
L 401.192308 -179.121172 
L 402.980769 -179.889055 
L 404.769231 -179.513012 
L 406.557692 -179.224899 
L 408.346154 -175.408796 
L 410.134615 -174.765892 
L 411.923077 -170.095716 
L 413.711538 -172.22665 
L 415.5 -164.505179 
L 417.288462 -158.988396 
L 419.076923 -156.527456 
L 420.865385 -152.168654 
L 422.653846 -143.50011 
L 424.442308 -138.010587 
L 426.230769 -132.264728 
L 428.019231 -129.9218 
L 429.807692 -121.405357 
L 431.596154 -116.809045 
L 433.384615 -111.371489 
L 435.173077 -106.478616 
L 436.961538 -103.429698 
L 438.75 -98.966328 
L 440.538462 -92.421015 
L 442.326923 -90.965876 
L 444.115385 -87.49326 
L 445.903846 -86.725796 
L 447.692308 -83.08851 
L 449.480769 -82.87132 
L 451.269231 -82.234045 
L 453.057692 -81.124029 
L 454.846154 -80.018716 
L 456.634615 -82.878801 
L 458.423077 -84.02208 
L 460.211538 -84.686501 
L 462 -86.30464 
L 463.788462 -90.319542 
L 465.576923 -89.318884 
L 467.365385 -92.296698 
L 469.153846 -95.095424 
L 470.942308 -98.538065 
L 472.730769 -103.161534 
L 474.519231 -106.313929 
L 476.307692 -110.918884 
L 478.096154 -112.893555 
L 479.884615 -121.825447 
L 481.673077 -122.877311 
L 483.461538 -126.852838 
L 485.25 -131.849265 
L 487.038462 -137.315112 
L 488.826923 -141.954606 
L 490.615385 -146.229064 
L 492.403846 -150.038674 
L 494.192308 -150.802725 
L 495.980769 -157.717391 
L 497.769231 -162.11154 
L 499.557692 -164.804679 
L 501.346154 -167.197779 
L 503.134615 -166.002776 
L 504.923077 -171.997028 
L 506.711538 -175.483227 
L 508.5 -177.260576 
L 510.288462 -174.929636 
L 512.076923 -183.495488 
L 513.865385 -179.990955 
L 515.653846 -184.902567 
L 517.442308 -186.923063 
L 519.230769 -190.1082 
L 521.019231 -185.060755 
L 522.807692 -185.429017 
L 524.596154 -189.432246 
L 526.384615 -186.497955 
L 528.173077 -186.388471 
L 529.961538 -187.29069 
L 531.75 -189.325471 
L 533.538462 -184.899177 
L 535.326923 -186.882961 
L 537.115385 -186.508027 
L 538.903846 -186.558823 
L 540.692308 -185.744499 
L 542.480769 -188.492663 
L 544.269231 -186.335995 
L 546.057692 -189.046736 
L 547.846154 -185.712682 
L 549.634615 -185.011691 
L 551.423077 -188.798619 
L 553.211538 -183.170521 
L 555 -184.721917 
L 556.788462 -182.275054 
L 558.576923 -184.156999 
L 560.365385 -185.083906 
L 562.153846 -183.079779 
L 563.942308 -181.241154 
L 565.730769 -182.134027 
L 567.519231 -181.880656 
L 569.307692 -180.290093 
L 571.096154 -181.35312 
L 572.884615 -182.433386 
L 574.673077 -180.339381 
L 576.461538 -179.092606 
L 578.25 -183.496614 
L 580.038462 -180.807399 
L 581.826923 -175.429638 
L 583.615385 -177.336661 
L 585.403846 -180.102232 
L 587.192308 -180.979372 
L 588.980769 -178.948247 
L 590.769231 -176.797182 
L 592.557692 -181.529451 
L 594.346154 -176.834175 
L 596.134615 -178.554069 
L 597.923077 -174.389282 
L 599.711538 -175.589 
L 601.5 -173.456229 
L 603.288462 -170.944785 
L 605.076923 -169.887409 
L 606.865385 -164.785411 
L 608.653846 -163.592491 
L 610.442308 -158.207436 
L 612.230769 -156.33524 
L 614.019231 -149.270172 
L 615.807692 -144.995086 
L 617.596154 -141.732501 
L 619.384615 -139.457625 
L 621.173077 -135.116126 
L 622.961538 -135.715615 
L 624.75 -129.060512 
L 626.538462 -128.843509 
L 628.326923 -124.951773 
L 630.115385 -124.871083 
L 631.903846 -123.250405 
L 633.692308 -123.752006 
L 635.480769 -122.078541 
L 637.269231 -125.696642 
L 639.057692 -122.894938 
L 640.846154 -122.281803 
L 642.634615 -127.549656 
L 644.423077 -126.512481 
L 646.211538 -127.758132 
L 648 -126.662136 
L 649.788462 -128.318305 
L 651.576923 -132.813196 
L 653.365385 -133.420101 
L 655.153846 -138.295429 
L 656.942308 -134.254642 
L 658.730769 -137.75807 
L 660.519231 -136.572904 
L 662.307692 -137.696603 
L 662.307692 -64.193701 
L 662.307692 -64.193701 
L 660.519231 -63.345036 
L 658.730769 -66.276366 
L 656.942308 -63.561231 
L 655.153846 -69.976738 
L 653.365385 -69.511113 
L 651.576923 -71.681935 
L 649.788462 -70.537245 
L 648 -71.904958 
L 646.211538 -75.401757 
L 644.423077 -77.84952 
L 642.634615 -80.191607 
L 640.846154 -77.735759 
L 639.057692 -81.331143 
L 637.269231 -84.931221 
L 635.480769 -84.271582 
L 633.692308 -86.457199 
L 631.903846 -87.973055 
L 630.115385 -89.718242 
L 628.326923 -91.556954 
L 626.538462 -96.003719 
L 624.75 -97.130025 
L 622.961538 -104.046421 
L 621.173077 -103.880018 
L 619.384615 -107.121488 
L 617.596154 -107.569416 
L 615.807692 -110.442997 
L 614.019231 -113.789195 
L 612.230769 -120.252286 
L 610.442308 -122.094196 
L 608.653846 -125.869512 
L 606.865385 -126.320523 
L 605.076923 -131.046939 
L 603.288462 -130.363373 
L 601.5 -131.130574 
L 599.711538 -135.183687 
L 597.923077 -134.055233 
L 596.134615 -137.001378 
L 594.346154 -135.9734 
L 592.557692 -139.727369 
L 590.769231 -135.817929 
L 588.980769 -138.911692 
L 587.192308 -139.527723 
L 585.403846 -139.598122 
L 583.615385 -138.363997 
L 581.826923 -134.766046 
L 580.038462 -138.940961 
L 578.25 -141.403617 
L 576.461538 -137.336402 
L 574.673077 -140.251132 
L 572.884615 -139.508721 
L 571.096154 -138.062667 
L 569.307692 -138.196728 
L 567.519231 -139.566833 
L 565.730769 -140.502899 
L 563.942308 -140.085689 
L 562.153846 -143.24761 
L 560.365385 -146.81779 
L 558.576923 -146.050945 
L 556.788462 -140.823797 
L 555 -145.557178 
L 553.211538 -143.058984 
L 551.423077 -147.81609 
L 549.634615 -142.606476 
L 547.846154 -143.891032 
L 546.057692 -144.84501 
L 544.269231 -145.619863 
L 542.480769 -146.183352 
L 540.692308 -143.699238 
L 538.903846 -144.762075 
L 537.115385 -145.939783 
L 535.326923 -144.677012 
L 533.538462 -142.612841 
L 531.75 -145.678732 
L 529.961538 -144.323597 
L 528.173077 -141.284002 
L 526.384615 -142.059805 
L 524.596154 -146.313848 
L 522.807692 -141.518235 
L 521.019231 -140.47436 
L 519.230769 -145.512223 
L 517.442308 -141.598433 
L 515.653846 -140.813138 
L 513.865385 -138.694199 
L 512.076923 -141.538721 
L 510.288462 -131.648126 
L 508.5 -134.585875 
L 506.711538 -134.194995 
L 504.923077 -131.594352 
L 503.134615 -126.059255 
L 501.346154 -127.10621 
L 499.557692 -125.584469 
L 497.769231 -122.761763 
L 495.980769 -118.857614 
L 494.192308 -110.407692 
L 492.403846 -113.521812 
L 490.615385 -110.787124 
L 488.826923 -108.805494 
L 487.038462 -104.018554 
L 485.25 -99.592924 
L 483.461538 -96.910503 
L 481.673077 -93.043143 
L 479.884615 -91.857655 
L 478.096154 -83.63341 
L 476.307692 -83.6115 
L 474.519231 -80.14213 
L 472.730769 -77.736928 
L 470.942308 -74.670617 
L 469.153846 -72.048556 
L 467.365385 -69.68258 
L 465.576923 -67.162077 
L 463.788462 -66.697202 
L 462 -64.259846 
L 460.211538 -64.111667 
L 458.423077 -63.047384 
L 456.634615 -61.061922 
L 454.846154 -59.559899 
L 453.057692 -59.755736 
L 451.269231 -61.939241 
L 449.480769 -62.191262 
L 447.692308 -63.423916 
L 445.903846 -65.720774 
L 444.115385 -65.769931 
L 442.326923 -69.048557 
L 440.538462 -69.704889 
L 438.75 -76.093375 
L 436.961538 -79.195651 
L 435.173077 -82.160459 
L 433.384615 -85.768827 
L 431.596154 -90.460113 
L 429.807692 -93.679409 
L 428.019231 -99.668218 
L 426.230769 -101.047584 
L 424.442308 -107.402854 
L 422.653846 -111.169681 
L 420.865385 -118.152605 
L 419.076923 -121.099993 
L 417.288462 -122.361263 
L 415.5 -126.06859 
L 413.711538 -133.586139 
L 411.923077 -133.249612 
L 410.134615 -134.515135 
L 408.346154 -135.450182 
L 406.557692 -139.215254 
L 404.769231 -140.204838 
L 402.980769 -139.261273 
L 401.192308 -140.961854 
L 399.403846 -139.070165 
L 397.615385 -141.782291 
L 395.826923 -141.084427 
L 394.038462 -138.707006 
L 392.25 -136.995501 
L 390.461538 -139.239056 
L 388.673077 -138.243346 
L 386.884615 -141.299751 
L 385.096154 -141.162695 
L 383.307692 -141.909356 
L 381.519231 -142.858288 
L 379.730769 -143.847519 
L 377.942308 -147.291582 
L 376.153846 -145.455346 
L 374.365385 -147.65233 
L 372.576923 -151.044005 
L 370.788462 -149.104787 
L 369 -149.212342 
L 367.211538 -151.49991 
L 365.423077 -148.599703 
L 363.634615 -144.353632 
L 361.846154 -143.44705 
L 360.057692 -143.242127 
L 358.269231 -139.926737 
L 356.480769 -137.350677 
L 354.692308 -137.100721 
L 352.903846 -134.372208 
L 351.115385 -126.676476 
L 349.326923 -125.903792 
L 347.538462 -122.112159 
L 345.75 -120.256757 
L 343.961538 -116.644654 
L 342.173077 -113.41985 
L 340.384615 -107.606856 
L 338.596154 -104.8176 
L 336.807692 -102.550786 
L 335.019231 -97.935592 
L 333.230769 -95.003861 
L 331.442308 -92.832397 
L 329.653846 -91.223445 
L 327.865385 -91.352585 
L 326.076923 -89.064379 
L 324.288462 -91.096251 
L 322.5 -89.119911 
L 320.711538 -89.830379 
L 318.923077 -90.193335 
L 317.134615 -90.88403 
L 315.346154 -93.576594 
L 313.557692 -95.368538 
L 311.769231 -100.695362 
L 309.980769 -104.38223 
L 308.192308 -109.028149 
L 306.403846 -113.653913 
L 304.615385 -116.969165 
L 302.826923 -124.615123 
L 301.038462 -128.381355 
L 299.25 -137.985409 
L 297.461538 -142.8783 
L 295.673077 -148.241161 
L 293.884615 -154.415558 
L 292.096154 -164.543994 
L 290.307692 -168.208314 
L 288.519231 -170.344021 
L 286.730769 -177.670479 
L 284.942308 -179.754733 
L 283.153846 -179.324854 
L 281.365385 -178.870563 
L 279.576923 -179.921272 
L 277.788462 -171.546 
L 276 -177.489486 
L 274.211538 -168.963315 
L 272.423077 -165.241215 
L 270.634615 -160.845477 
L 268.846154 -155.916691 
L 267.057692 -152.668027 
L 265.269231 -152.188569 
L 263.480769 -146.539268 
L 261.692308 -141.742127 
L 259.903846 -140.310306 
L 258.115385 -135.579008 
L 256.326923 -141.485342 
L 254.538462 -141.500677 
L 252.75 -143.542118 
L 250.961538 -149.070528 
L 249.173077 -157.647155 
L 247.384615 -162.455808 
L 245.596154 -172.88229 
L 243.807692 -180.213711 
L 242.019231 -190.922737 
L 240.230769 -198.300608 
L 238.442308 -203.850089 
L 236.653846 -214.211449 
L 234.865385 -212.93467 
L 233.076923 -223.0561 
L 231.288462 -222.775272 
L 229.5 -219.059899 
L 227.711538 -221.928176 
L 225.923077 -218.207502 
L 224.134615 -212.596262 
L 222.346154 -212.519413 
L 220.557692 -202.268647 
L 218.769231 -199.465126 
L 216.980769 -192.153469 
L 215.192308 -186.499762 
L 213.403846 -175.064647 
L 211.615385 -169.306355 
L 209.826923 -164.681886 
L 208.038462 -159.211528 
L 206.25 -155.671864 
L 204.461538 -145.595259 
L 202.673077 -140.329282 
L 200.884615 -137.043652 
L 199.096154 -131.933853 
L 197.307692 -127.661919 
L 195.519231 -118.509094 
L 193.730769 -115.605143 
L 191.942308 -111.850881 
L 190.153846 -108.112039 
L 188.365385 -104.56034 
L 186.576923 -100.444759 
L 184.788462 -98.23091 
L 183 -92.667497 
L 181.211538 -88.108055 
L 179.423077 -86.818338 
L 177.634615 -82.598575 
L 175.846154 -77.809535 
L 174.057692 -79.899922 
L 172.269231 -73.543546 
L 170.480769 -70.934014 
L 168.692308 -69.999565 
L 166.903846 -70.197825 
L 165.115385 -68.94715 
L 163.326923 -66.261387 
L 161.538462 -65.294849 
L 159.75 -64.927456 
L 157.961538 -65.743161 
L 156.173077 -60.211839 
L 154.384615 -61.076294 
L 152.596154 -61.601377 
L 150.807692 -60.974056 
L 149.019231 -58.265243 
L 147.230769 -58.977122 
L 145.442308 -60.028755 
L 143.653846 -57.354545 
L 141.865385 -59.708186 
L 140.076923 -59.180613 
L 138.288462 -61.608475 
L 136.5 -59.428879 
L 134.711538 -62.662879 
L 132.923077 -62.836158 
L 131.134615 -64.419784 
L 129.346154 -66.542893 
L 127.557692 -66.195407 
L 125.769231 -69.941569 
L 123.980769 -67.709252 
L 122.192308 -71.760989 
L 120.403846 -72.877615 
L 118.615385 -75.010282 
L 116.826923 -81.163086 
L 115.038462 -80.082978 
L 113.25 -85.095255 
L 111.461538 -84.823419 
L 109.673077 -90.214852 
L 107.884615 -90.493085 
L 106.096154 -96.254632 
L 104.307692 -96.144515 
L 102.519231 -99.386658 
L 100.730769 -100.281746 
L 98.942308 -98.59976 
L 97.153846 -100.341822 
L 95.365385 -99.016827 
L 93.576923 -98.777467 
L 91.788462 -97.164214 
L 90 -101.300347 
z
" id="m908e1f1433" style="stroke:#fdcbb6;stroke-opacity:0.8;"/>
    </defs>
    <g clip-path="url(#p54c7850f89)">
     <use style="fill:#fdcbb6;fill-opacity:0.8;stroke:#fdcbb6;stroke-opacity:0.8;" x="0" xlink:href="#m908e1f1433" y="360"/>
    </g>
   </g>
   <g id="matplotlib.axis_1">
    <g id="xtick_1">
     <g id="line2d_1">
      <defs>
       <path d="M 0 0 
L 0 3.5 
" id="mb98bca67c6" style="stroke:#000000;stroke-width:0.8;"/>
      </defs>
      <g>
       <use style="stroke:#000000;stroke-width:0.8;" x="90" xlink:href="#mb98bca67c6" y="315"/>
      </g>
     </g>
    </g>
    <g id="xtick_2">
     <g id="line2d_2">
      <g>
       <use style="stroke:#000000;stroke-width:0.8;" x="127.557692" xlink:href="#mb98bca67c6" y="315"/>
      </g>
     </g>
     <g id="text_1">
      <!-- Apr -->
      <g transform="translate(118.907692 329.598437)scale(0.1 -0.1)">
       <defs>
        <path d="M 34.1875 63.1875 
L 20.796875 26.90625 
L 47.609375 26.90625 
z
M 28.609375 72.90625 
L 39.796875 72.90625 
L 67.578125 0 
L 57.328125 0 
L 50.6875 18.703125 
L 17.828125 18.703125 
L 11.1875 0 
L 0.78125 0 
z
" id="DejaVuSans-65"/>
        <path d="M 18.109375 8.203125 
L 18.109375 -20.796875 
L 9.078125 -20.796875 
L 9.078125 54.6875 
L 18.109375 54.6875 
L 18.109375 46.390625 
Q 20.953125 51.265625 25.265625 53.625 
Q 29.59375 56 35.59375 56 
Q 45.5625 56 51.78125 48.09375 
Q 58.015625 40.1875 58.015625 27.296875 
Q 58.015625 14.40625 51.78125 6.484375 
Q 45.5625 -1.421875 35.59375 -1.421875 
Q 29.59375 -1.421875 25.265625 0.953125 
Q 20.953125 3.328125 18.109375 8.203125 
z
M 48.6875 27.296875 
Q 48.6875 37.203125 44.609375 42.84375 
Q 40.53125 48.484375 33.40625 48.484375 
Q 26.265625 48.484375 22.1875 42.84375 
Q 18.109375 37.203125 18.109375 27.296875 
Q 18.109375 17.390625 22.1875 11.75 
Q 26.265625 6.109375 33.40625 6.109375 
Q 40.53125 6.109375 44.609375 11.75 
Q 48.6875 17.390625 48.6875 27.296875 
z
" id="DejaVuSans-112"/>
        <path d="M 41.109375 46.296875 
Q 39.59375 47.171875 37.8125 47.578125 
Q 36.03125 48 33.890625 48 
Q 26.265625 48 22.1875 43.046875 
Q 18.109375 38.09375 18.109375 28.8125 
L 18.109375 0 
L 9.078125 0 
L 9.078125 54.6875 
L 18.109375 54.6875 
L 18.109375 46.1875 
Q 20.953125 51.171875 25.484375 53.578125 
Q 30.03125 56 36.53125 56 
Q 37.453125 56 38.578125 55.875 
Q 39.703125 55.765625 41.0625 55.515625 
z
" id="DejaVuSans-114"/>
       </defs>
       <use xlink:href="#DejaVuSans-65"/>
       <use x="68.408203" xlink:href="#DejaVuSans-112"/>
       <use x="131.884766" xlink:href="#DejaVuSans-114"/>
      </g>
     </g>
    </g>
    <g id="xtick_3">
     <g id="line2d_3">
      <g>
       <use style="stroke:#000000;stroke-width:0.8;" x="181.211538" xlink:href="#mb98bca67c6" y="315"/>
      </g>
     </g>
     <g id="text_2">
      <!-- May -->
      <g transform="translate(170.874038 329.598437)scale(0.1 -0.1)">
       <defs>
        <path d="M 9.8125 72.90625 
L 24.515625 72.90625 
L 43.109375 23.296875 
L 61.8125 72.90625 
L 76.515625 72.90625 
L 76.515625 0 
L 66.890625 0 
L 66.890625 64.015625 
L 48.09375 14.015625 
L 38.1875 14.015625 
L 19.390625 64.015625 
L 19.390625 0 
L 9.8125 0 
z
" id="DejaVuSans-77"/>
        <path d="M 34.28125 27.484375 
Q 23.390625 27.484375 19.1875 25 
Q 14.984375 22.515625 14.984375 16.5 
Q 14.984375 11.71875 18.140625 8.90625 
Q 21.296875 6.109375 26.703125 6.109375 
Q 34.1875 6.109375 38.703125 11.40625 
Q 43.21875 16.703125 43.21875 25.484375 
L 43.21875 27.484375 
z
M 52.203125 31.203125 
L 52.203125 0 
L 43.21875 0 
L 43.21875 8.296875 
Q 40.140625 3.328125 35.546875 0.953125 
Q 30.953125 -1.421875 24.3125 -1.421875 
Q 15.921875 -1.421875 10.953125 3.296875 
Q 6 8.015625 6 15.921875 
Q 6 25.140625 12.171875 29.828125 
Q 18.359375 34.515625 30.609375 34.515625 
L 43.21875 34.515625 
L 43.21875 35.40625 
Q 43.21875 41.609375 39.140625 45 
Q 35.0625 48.390625 27.6875 48.390625 
Q 23 48.390625 18.546875 47.265625 
Q 14.109375 46.140625 10.015625 43.890625 
L 10.015625 52.203125 
Q 14.9375 54.109375 19.578125 55.046875 
Q 24.21875 56 28.609375 56 
Q 40.484375 56 46.34375 49.84375 
Q 52.203125 43.703125 52.203125 31.203125 
z
" id="DejaVuSans-97"/>
        <path d="M 32.171875 -5.078125 
Q 28.375 -14.84375 24.75 -17.8125 
Q 21.140625 -20.796875 15.09375 -20.796875 
L 7.90625 -20.796875 
L 7.90625 -13.28125 
L 13.1875 -13.28125 
Q 16.890625 -13.28125 18.9375 -11.515625 
Q 21 -9.765625 23.484375 -3.21875 
L 25.09375 0.875 
L 2.984375 54.6875 
L 12.5 54.6875 
L 29.59375 11.921875 
L 46.6875 54.6875 
L 56.203125 54.6875 
z
" id="DejaVuSans-121"/>
       </defs>
       <use xlink:href="#DejaVuSans-77"/>
       <use x="86.279297" xlink:href="#DejaVuSans-97"/>
       <use x="147.558594" xlink:href="#DejaVuSans-121"/>
      </g>
     </g>
    </g>
    <g id="xtick_4">
     <g id="line2d_4">
      <g>
       <use style="stroke:#000000;stroke-width:0.8;" x="236.653846" xlink:href="#mb98bca67c6" y="315"/>
      </g>
     </g>
     <g id="text_3">
      <!-- Jun -->
      <g transform="translate(228.841346 329.598437)scale(0.1 -0.1)">
       <defs>
        <path d="M 9.8125 72.90625 
L 19.671875 72.90625 
L 19.671875 5.078125 
Q 19.671875 -8.109375 14.671875 -14.0625 
Q 9.671875 -20.015625 -1.421875 -20.015625 
L -5.171875 -20.015625 
L -5.171875 -11.71875 
L -2.09375 -11.71875 
Q 4.4375 -11.71875 7.125 -8.046875 
Q 9.8125 -4.390625 9.8125 5.078125 
z
" id="DejaVuSans-74"/>
        <path d="M 8.5 21.578125 
L 8.5 54.6875 
L 17.484375 54.6875 
L 17.484375 21.921875 
Q 17.484375 14.15625 20.5 10.265625 
Q 23.53125 6.390625 29.59375 6.390625 
Q 36.859375 6.390625 41.078125 11.03125 
Q 45.3125 15.671875 45.3125 23.6875 
L 45.3125 54.6875 
L 54.296875 54.6875 
L 54.296875 0 
L 45.3125 0 
L 45.3125 8.40625 
Q 42.046875 3.421875 37.71875 1 
Q 33.40625 -1.421875 27.6875 -1.421875 
Q 18.265625 -1.421875 13.375 4.4375 
Q 8.5 10.296875 8.5 21.578125 
z
M 31.109375 56 
z
" id="DejaVuSans-117"/>
        <path d="M 54.890625 33.015625 
L 54.890625 0 
L 45.90625 0 
L 45.90625 32.71875 
Q 45.90625 40.484375 42.875 44.328125 
Q 39.84375 48.1875 33.796875 48.1875 
Q 26.515625 48.1875 22.3125 43.546875 
Q 18.109375 38.921875 18.109375 30.90625 
L 18.109375 0 
L 9.078125 0 
L 9.078125 54.6875 
L 18.109375 54.6875 
L 18.109375 46.1875 
Q 21.34375 51.125 25.703125 53.5625 
Q 30.078125 56 35.796875 56 
Q 45.21875 56 50.046875 50.171875 
Q 54.890625 44.34375 54.890625 33.015625 
z
" id="DejaVuSans-110"/>
       </defs>
       <use xlink:href="#DejaVuSans-74"/>
       <use x="29.492188" xlink:href="#DejaVuSans-117"/>
       <use x="92.871094" xlink:href="#DejaVuSans-110"/>
      </g>
     </g>
    </g>
    <g id="xtick_5">
     <g id="line2d_5">
      <g>
       <use style="stroke:#000000;stroke-width:0.8;" x="290.307692" xlink:href="#mb98bca67c6" y="315"/>
      </g>
     </g>
     <g id="text_4">
      <!-- Jul -->
      <g transform="translate(284.27488 329.598437)scale(0.1 -0.1)">
       <defs>
        <path d="M 9.421875 75.984375 
L 18.40625 75.984375 
L 18.40625 0 
L 9.421875 0 
z
" id="DejaVuSans-108"/>
       </defs>
       <use xlink:href="#DejaVuSans-74"/>
       <use x="29.492188" xlink:href="#DejaVuSans-117"/>
       <use x="92.871094" xlink:href="#DejaVuSans-108"/>
      </g>
     </g>
    </g>
    <g id="xtick_6">
     <g id="line2d_6">
      <g>
       <use style="stroke:#000000;stroke-width:0.8;" x="345.75" xlink:href="#mb98bca67c6" y="315"/>
      </g>
     </g>
     <g id="text_5">
      <!-- Aug -->
      <g transform="translate(335.986719 329.598437)scale(0.1 -0.1)">
       <defs>
        <path d="M 45.40625 27.984375 
Q 45.40625 37.75 41.375 43.109375 
Q 37.359375 48.484375 30.078125 48.484375 
Q 22.859375 48.484375 18.828125 43.109375 
Q 14.796875 37.75 14.796875 27.984375 
Q 14.796875 18.265625 18.828125 12.890625 
Q 22.859375 7.515625 30.078125 7.515625 
Q 37.359375 7.515625 41.375 12.890625 
Q 45.40625 18.265625 45.40625 27.984375 
z
M 54.390625 6.78125 
Q 54.390625 -7.171875 48.1875 -13.984375 
Q 42 -20.796875 29.203125 -20.796875 
Q 24.46875 -20.796875 20.265625 -20.09375 
Q 16.0625 -19.390625 12.109375 -17.921875 
L 12.109375 -9.1875 
Q 16.0625 -11.328125 19.921875 -12.34375 
Q 23.78125 -13.375 27.78125 -13.375 
Q 36.625 -13.375 41.015625 -8.765625 
Q 45.40625 -4.15625 45.40625 5.171875 
L 45.40625 9.625 
Q 42.625 4.78125 38.28125 2.390625 
Q 33.9375 0 27.875 0 
Q 17.828125 0 11.671875 7.65625 
Q 5.515625 15.328125 5.515625 27.984375 
Q 5.515625 40.671875 11.671875 48.328125 
Q 17.828125 56 27.875 56 
Q 33.9375 56 38.28125 53.609375 
Q 42.625 51.21875 45.40625 46.390625 
L 45.40625 54.6875 
L 54.390625 54.6875 
z
" id="DejaVuSans-103"/>
       </defs>
       <use xlink:href="#DejaVuSans-65"/>
       <use x="68.408203" xlink:href="#DejaVuSans-117"/>
       <use x="131.787109" xlink:href="#DejaVuSans-103"/>
      </g>
     </g>
    </g>
    <g id="xtick_7">
     <g id="line2d_7">
      <g>
       <use style="stroke:#000000;stroke-width:0.8;" x="401.192308" xlink:href="#mb98bca67c6" y="315"/>
      </g>
     </g>
     <g id="text_6">
      <!-- Sep -->
      <g transform="translate(391.767308 329.598437)scale(0.1 -0.1)">
       <defs>
        <path d="M 53.515625 70.515625 
L 53.515625 60.890625 
Q 47.90625 63.578125 42.921875 64.890625 
Q 37.9375 66.21875 33.296875 66.21875 
Q 25.25 66.21875 20.875 63.09375 
Q 16.5 59.96875 16.5 54.203125 
Q 16.5 49.359375 19.40625 46.890625 
Q 22.3125 44.4375 30.421875 42.921875 
L 36.375 41.703125 
Q 47.40625 39.59375 52.65625 34.296875 
Q 57.90625 29 57.90625 20.125 
Q 57.90625 9.515625 50.796875 4.046875 
Q 43.703125 -1.421875 29.984375 -1.421875 
Q 24.8125 -1.421875 18.96875 -0.25 
Q 13.140625 0.921875 6.890625 3.21875 
L 6.890625 13.375 
Q 12.890625 10.015625 18.65625 8.296875 
Q 24.421875 6.59375 29.984375 6.59375 
Q 38.421875 6.59375 43.015625 9.90625 
Q 47.609375 13.234375 47.609375 19.390625 
Q 47.609375 24.75 44.3125 27.78125 
Q 41.015625 30.8125 33.5 32.328125 
L 27.484375 33.5 
Q 16.453125 35.6875 11.515625 40.375 
Q 6.59375 45.0625 6.59375 53.421875 
Q 6.59375 63.09375 13.40625 68.65625 
Q 20.21875 74.21875 32.171875 74.21875 
Q 37.3125 74.21875 42.625 73.28125 
Q 47.953125 72.359375 53.515625 70.515625 
z
" id="DejaVuSans-83"/>
        <path d="M 56.203125 29.59375 
L 56.203125 25.203125 
L 14.890625 25.203125 
Q 15.484375 15.921875 20.484375 11.0625 
Q 25.484375 6.203125 34.421875 6.203125 
Q 39.59375 6.203125 44.453125 7.46875 
Q 49.3125 8.734375 54.109375 11.28125 
L 54.109375 2.78125 
Q 49.265625 0.734375 44.1875 -0.34375 
Q 39.109375 -1.421875 33.890625 -1.421875 
Q 20.796875 -1.421875 13.15625 6.1875 
Q 5.515625 13.8125 5.515625 26.8125 
Q 5.515625 40.234375 12.765625 48.109375 
Q 20.015625 56 32.328125 56 
Q 43.359375 56 49.78125 48.890625 
Q 56.203125 41.796875 56.203125 29.59375 
z
M 47.21875 32.234375 
Q 47.125 39.59375 43.09375 43.984375 
Q 39.0625 48.390625 32.421875 48.390625 
Q 24.90625 48.390625 20.390625 44.140625 
Q 15.875 39.890625 15.1875 32.171875 
z
" id="DejaVuSans-101"/>
       </defs>
       <use xlink:href="#DejaVuSans-83"/>
       <use x="63.476562" xlink:href="#DejaVuSans-101"/>
       <use x="125" xlink:href="#DejaVuSans-112"/>
      </g>
     </g>
    </g>
    <g id="xtick_8">
     <g id="line2d_8">
      <g>
       <use style="stroke:#000000;stroke-width:0.8;" x="454.846154" xlink:href="#mb98bca67c6" y="315"/>
      </g>
     </g>
     <g id="text_7">
      <!-- Oct -->
      <g transform="translate(446.200841 329.598437)scale(0.1 -0.1)">
       <defs>
        <path d="M 39.40625 66.21875 
Q 28.65625 66.21875 22.328125 58.203125 
Q 16.015625 50.203125 16.015625 36.375 
Q 16.015625 22.609375 22.328125 14.59375 
Q 28.65625 6.59375 39.40625 6.59375 
Q 50.140625 6.59375 56.421875 14.59375 
Q 62.703125 22.609375 62.703125 36.375 
Q 62.703125 50.203125 56.421875 58.203125 
Q 50.140625 66.21875 39.40625 66.21875 
z
M 39.40625 74.21875 
Q 54.734375 74.21875 63.90625 63.9375 
Q 73.09375 53.65625 73.09375 36.375 
Q 73.09375 19.140625 63.90625 8.859375 
Q 54.734375 -1.421875 39.40625 -1.421875 
Q 24.03125 -1.421875 14.8125 8.828125 
Q 5.609375 19.09375 5.609375 36.375 
Q 5.609375 53.65625 14.8125 63.9375 
Q 24.03125 74.21875 39.40625 74.21875 
z
" id="DejaVuSans-79"/>
        <path d="M 48.78125 52.59375 
L 48.78125 44.1875 
Q 44.96875 46.296875 41.140625 47.34375 
Q 37.3125 48.390625 33.40625 48.390625 
Q 24.65625 48.390625 19.8125 42.84375 
Q 14.984375 37.3125 14.984375 27.296875 
Q 14.984375 17.28125 19.8125 11.734375 
Q 24.65625 6.203125 33.40625 6.203125 
Q 37.3125 6.203125 41.140625 7.25 
Q 44.96875 8.296875 48.78125 10.40625 
L 48.78125 2.09375 
Q 45.015625 0.34375 40.984375 -0.53125 
Q 36.96875 -1.421875 32.421875 -1.421875 
Q 20.0625 -1.421875 12.78125 6.34375 
Q 5.515625 14.109375 5.515625 27.296875 
Q 5.515625 40.671875 12.859375 48.328125 
Q 20.21875 56 33.015625 56 
Q 37.15625 56 41.109375 55.140625 
Q 45.0625 54.296875 48.78125 52.59375 
z
" id="DejaVuSans-99"/>
        <path d="M 18.3125 70.21875 
L 18.3125 54.6875 
L 36.8125 54.6875 
L 36.8125 47.703125 
L 18.3125 47.703125 
L 18.3125 18.015625 
Q 18.3125 11.328125 20.140625 9.421875 
Q 21.96875 7.515625 27.59375 7.515625 
L 36.8125 7.515625 
L 36.8125 0 
L 27.59375 0 
Q 17.1875 0 13.234375 3.875 
Q 9.28125 7.765625 9.28125 18.015625 
L 9.28125 47.703125 
L 2.6875 47.703125 
L 2.6875 54.6875 
L 9.28125 54.6875 
L 9.28125 70.21875 
z
" id="DejaVuSans-116"/>
       </defs>
       <use xlink:href="#DejaVuSans-79"/>
       <use x="78.710938" xlink:href="#DejaVuSans-99"/>
       <use x="133.691406" xlink:href="#DejaVuSans-116"/>
      </g>
     </g>
    </g>
    <g id="xtick_9">
     <g id="line2d_9">
      <g>
       <use style="stroke:#000000;stroke-width:0.8;" x="510.288462" xlink:href="#mb98bca67c6" y="315"/>
      </g>
     </g>
     <g id="text_8">
      <!-- Nov -->
      <g transform="translate(500.529087 329.598437)scale(0.1 -0.1)">
       <defs>
        <path d="M 9.8125 72.90625 
L 23.09375 72.90625 
L 55.421875 11.921875 
L 55.421875 72.90625 
L 64.984375 72.90625 
L 64.984375 0 
L 51.703125 0 
L 19.390625 60.984375 
L 19.390625 0 
L 9.8125 0 
z
" id="DejaVuSans-78"/>
        <path d="M 30.609375 48.390625 
Q 23.390625 48.390625 19.1875 42.75 
Q 14.984375 37.109375 14.984375 27.296875 
Q 14.984375 17.484375 19.15625 11.84375 
Q 23.34375 6.203125 30.609375 6.203125 
Q 37.796875 6.203125 41.984375 11.859375 
Q 46.1875 17.53125 46.1875 27.296875 
Q 46.1875 37.015625 41.984375 42.703125 
Q 37.796875 48.390625 30.609375 48.390625 
z
M 30.609375 56 
Q 42.328125 56 49.015625 48.375 
Q 55.71875 40.765625 55.71875 27.296875 
Q 55.71875 13.875 49.015625 6.21875 
Q 42.328125 -1.421875 30.609375 -1.421875 
Q 18.84375 -1.421875 12.171875 6.21875 
Q 5.515625 13.875 5.515625 27.296875 
Q 5.515625 40.765625 12.171875 48.375 
Q 18.84375 56 30.609375 56 
z
" id="DejaVuSans-111"/>
        <path d="M 2.984375 54.6875 
L 12.5 54.6875 
L 29.59375 8.796875 
L 46.6875 54.6875 
L 56.203125 54.6875 
L 35.6875 0 
L 23.484375 0 
z
" id="DejaVuSans-118"/>
       </defs>
       <use xlink:href="#DejaVuSans-78"/>
       <use x="74.804688" xlink:href="#DejaVuSans-111"/>
       <use x="135.986328" xlink:href="#DejaVuSans-118"/>
      </g>
     </g>
    </g>
    <g id="xtick_10">
     <g id="line2d_10">
      <g>
       <use style="stroke:#000000;stroke-width:0.8;" x="563.942308" xlink:href="#mb98bca67c6" y="315"/>
      </g>
     </g>
     <g id="text_9">
      <!-- Dec -->
      <g transform="translate(554.266526 329.598437)scale(0.1 -0.1)">
       <defs>
        <path d="M 19.671875 64.796875 
L 19.671875 8.109375 
L 31.59375 8.109375 
Q 46.6875 8.109375 53.6875 14.9375 
Q 60.6875 21.78125 60.6875 36.53125 
Q 60.6875 51.171875 53.6875 57.984375 
Q 46.6875 64.796875 31.59375 64.796875 
z
M 9.8125 72.90625 
L 30.078125 72.90625 
Q 51.265625 72.90625 61.171875 64.09375 
Q 71.09375 55.28125 71.09375 36.53125 
Q 71.09375 17.671875 61.125 8.828125 
Q 51.171875 0 30.078125 0 
L 9.8125 0 
z
" id="DejaVuSans-68"/>
       </defs>
       <use xlink:href="#DejaVuSans-68"/>
       <use x="77.001953" xlink:href="#DejaVuSans-101"/>
       <use x="138.525391" xlink:href="#DejaVuSans-99"/>
      </g>
     </g>
    </g>
    <g id="xtick_11">
     <g id="line2d_11">
      <g>
       <use style="stroke:#000000;stroke-width:0.8;" x="619.384615" xlink:href="#mb98bca67c6" y="315"/>
      </g>
     </g>
     <g id="text_10">
      <!-- Jan -->
      <g transform="translate(611.676803 329.598437)scale(0.1 -0.1)">
       <use xlink:href="#DejaVuSans-74"/>
       <use x="29.492188" xlink:href="#DejaVuSans-97"/>
       <use x="90.771484" xlink:href="#DejaVuSans-110"/>
      </g>
      <!-- 2021 -->
      <g transform="translate(606.659615 340.79625)scale(0.1 -0.1)">
       <defs>
        <path d="M 19.1875 8.296875 
L 53.609375 8.296875 
L 53.609375 0 
L 7.328125 0 
L 7.328125 8.296875 
Q 12.9375 14.109375 22.625 23.890625 
Q 32.328125 33.6875 34.8125 36.53125 
Q 39.546875 41.84375 41.421875 45.53125 
Q 43.3125 49.21875 43.3125 52.78125 
Q 43.3125 58.59375 39.234375 62.25 
Q 35.15625 65.921875 28.609375 65.921875 
Q 23.96875 65.921875 18.8125 64.3125 
Q 13.671875 62.703125 7.8125 59.421875 
L 7.8125 69.390625 
Q 13.765625 71.78125 18.9375 73 
Q 24.125 74.21875 28.421875 74.21875 
Q 39.75 74.21875 46.484375 68.546875 
Q 53.21875 62.890625 53.21875 53.421875 
Q 53.21875 48.921875 51.53125 44.890625 
Q 49.859375 40.875 45.40625 35.40625 
Q 44.1875 33.984375 37.640625 27.21875 
Q 31.109375 20.453125 19.1875 8.296875 
z
" id="DejaVuSans-50"/>
        <path d="M 31.78125 66.40625 
Q 24.171875 66.40625 20.328125 58.90625 
Q 16.5 51.421875 16.5 36.375 
Q 16.5 21.390625 20.328125 13.890625 
Q 24.171875 6.390625 31.78125 6.390625 
Q 39.453125 6.390625 43.28125 13.890625 
Q 47.125 21.390625 47.125 36.375 
Q 47.125 51.421875 43.28125 58.90625 
Q 39.453125 66.40625 31.78125 66.40625 
z
M 31.78125 74.21875 
Q 44.046875 74.21875 50.515625 64.515625 
Q 56.984375 54.828125 56.984375 36.375 
Q 56.984375 17.96875 50.515625 8.265625 
Q 44.046875 -1.421875 31.78125 -1.421875 
Q 19.53125 -1.421875 13.0625 8.265625 
Q 6.59375 17.96875 6.59375 36.375 
Q 6.59375 54.828125 13.0625 64.515625 
Q 19.53125 74.21875 31.78125 74.21875 
z
" id="DejaVuSans-48"/>
        <path d="M 12.40625 8.296875 
L 28.515625 8.296875 
L 28.515625 63.921875 
L 10.984375 60.40625 
L 10.984375 69.390625 
L 28.421875 72.90625 
L 38.28125 72.90625 
L 38.28125 8.296875 
L 54.390625 8.296875 
L 54.390625 0 
L 12.40625 0 
z
" id="DejaVuSans-49"/>
       </defs>
       <use xlink:href="#DejaVuSans-50"/>
       <use x="63.623047" xlink:href="#DejaVuSans-48"/>
       <use x="127.246094" xlink:href="#DejaVuSans-50"/>
       <use x="190.869141" xlink:href="#DejaVuSans-49"/>
      </g>
     </g>
    </g>
    <g id="xtick_12">
     <g id="line2d_12">
      <g>
       <use style="stroke:#000000;stroke-width:0.8;" x="648" xlink:href="#mb98bca67c6" y="315"/>
      </g>
     </g>
    </g>
    <g id="xtick_13">
     <g id="line2d_13">
      <defs>
       <path d="M 0 0 
L 0 2 
" id="m122991b11d" style="stroke:#000000;stroke-width:0.6;"/>
      </defs>
      <g>
       <use style="stroke:#000000;stroke-width:0.6;" x="98.942308" xlink:href="#m122991b11d" y="315"/>
      </g>
     </g>
    </g>
    <g id="xtick_14">
     <g id="line2d_14">
      <g>
       <use style="stroke:#000000;stroke-width:0.6;" x="111.461538" xlink:href="#m122991b11d" y="315"/>
      </g>
     </g>
    </g>
    <g id="xtick_15">
     <g id="line2d_15">
      <g>
       <use style="stroke:#000000;stroke-width:0.6;" x="123.980769" xlink:href="#m122991b11d" y="315"/>
      </g>
     </g>
    </g>
    <g id="xtick_16">
     <g id="line2d_16">
      <g>
       <use style="stroke:#000000;stroke-width:0.6;" x="136.5" xlink:href="#m122991b11d" y="315"/>
      </g>
     </g>
    </g>
    <g id="xtick_17">
     <g id="line2d_17">
      <g>
       <use style="stroke:#000000;stroke-width:0.6;" x="149.019231" xlink:href="#m122991b11d" y="315"/>
      </g>
     </g>
    </g>
    <g id="xtick_18">
     <g id="line2d_18">
      <g>
       <use style="stroke:#000000;stroke-width:0.6;" x="161.538462" xlink:href="#m122991b11d" y="315"/>
      </g>
     </g>
    </g>
    <g id="xtick_19">
     <g id="line2d_19">
      <g>
       <use style="stroke:#000000;stroke-width:0.6;" x="174.057692" xlink:href="#m122991b11d" y="315"/>
      </g>
     </g>
    </g>
    <g id="xtick_20">
     <g id="line2d_20">
      <g>
       <use style="stroke:#000000;stroke-width:0.6;" x="186.576923" xlink:href="#m122991b11d" y="315"/>
      </g>
     </g>
    </g>
    <g id="xtick_21">
     <g id="line2d_21">
      <g>
       <use style="stroke:#000000;stroke-width:0.6;" x="199.096154" xlink:href="#m122991b11d" y="315"/>
      </g>
     </g>
    </g>
    <g id="xtick_22">
     <g id="line2d_22">
      <g>
       <use style="stroke:#000000;stroke-width:0.6;" x="211.615385" xlink:href="#m122991b11d" y="315"/>
      </g>
     </g>
    </g>
    <g id="xtick_23">
     <g id="line2d_23">
      <g>
       <use style="stroke:#000000;stroke-width:0.6;" x="224.134615" xlink:href="#m122991b11d" y="315"/>
      </g>
     </g>
    </g>
    <g id="xtick_24">
     <g id="line2d_24">
      <g>
       <use style="stroke:#000000;stroke-width:0.6;" x="249.173077" xlink:href="#m122991b11d" y="315"/>
      </g>
     </g>
    </g>
    <g id="xtick_25">
     <g id="line2d_25">
      <g>
       <use style="stroke:#000000;stroke-width:0.6;" x="261.692308" xlink:href="#m122991b11d" y="315"/>
      </g>
     </g>
    </g>
    <g id="xtick_26">
     <g id="line2d_26">
      <g>
       <use style="stroke:#000000;stroke-width:0.6;" x="274.211538" xlink:href="#m122991b11d" y="315"/>
      </g>
     </g>
    </g>
    <g id="xtick_27">
     <g id="line2d_27">
      <g>
       <use style="stroke:#000000;stroke-width:0.6;" x="286.730769" xlink:href="#m122991b11d" y="315"/>
      </g>
     </g>
    </g>
    <g id="xtick_28">
     <g id="line2d_28">
      <g>
       <use style="stroke:#000000;stroke-width:0.6;" x="299.25" xlink:href="#m122991b11d" y="315"/>
      </g>
     </g>
    </g>
    <g id="xtick_29">
     <g id="line2d_29">
      <g>
       <use style="stroke:#000000;stroke-width:0.6;" x="311.769231" xlink:href="#m122991b11d" y="315"/>
      </g>
     </g>
    </g>
    <g id="xtick_30">
     <g id="line2d_30">
      <g>
       <use style="stroke:#000000;stroke-width:0.6;" x="324.288462" xlink:href="#m122991b11d" y="315"/>
      </g>
     </g>
    </g>
    <g id="xtick_31">
     <g id="line2d_31">
      <g>
       <use style="stroke:#000000;stroke-width:0.6;" x="336.807692" xlink:href="#m122991b11d" y="315"/>
      </g>
     </g>
    </g>
    <g id="xtick_32">
     <g id="line2d_32">
      <g>
       <use style="stroke:#000000;stroke-width:0.6;" x="349.326923" xlink:href="#m122991b11d" y="315"/>
      </g>
     </g>
    </g>
    <g id="xtick_33">
     <g id="line2d_33">
      <g>
       <use style="stroke:#000000;stroke-width:0.6;" x="361.846154" xlink:href="#m122991b11d" y="315"/>
      </g>
     </g>
    </g>
    <g id="xtick_34">
     <g id="line2d_34">
      <g>
       <use style="stroke:#000000;stroke-width:0.6;" x="374.365385" xlink:href="#m122991b11d" y="315"/>
      </g>
     </g>
    </g>
    <g id="xtick_35">
     <g id="line2d_35">
      <g>
       <use style="stroke:#000000;stroke-width:0.6;" x="386.884615" xlink:href="#m122991b11d" y="315"/>
      </g>
     </g>
    </g>
    <g id="xtick_36">
     <g id="line2d_36">
      <g>
       <use style="stroke:#000000;stroke-width:0.6;" x="399.403846" xlink:href="#m122991b11d" y="315"/>
      </g>
     </g>
    </g>
    <g id="xtick_37">
     <g id="line2d_37">
      <g>
       <use style="stroke:#000000;stroke-width:0.6;" x="411.923077" xlink:href="#m122991b11d" y="315"/>
      </g>
     </g>
    </g>
    <g id="xtick_38">
     <g id="line2d_38">
      <g>
       <use style="stroke:#000000;stroke-width:0.6;" x="424.442308" xlink:href="#m122991b11d" y="315"/>
      </g>
     </g>
    </g>
    <g id="xtick_39">
     <g id="line2d_39">
      <g>
       <use style="stroke:#000000;stroke-width:0.6;" x="436.961538" xlink:href="#m122991b11d" y="315"/>
      </g>
     </g>
    </g>
    <g id="xtick_40">
     <g id="line2d_40">
      <g>
       <use style="stroke:#000000;stroke-width:0.6;" x="449.480769" xlink:href="#m122991b11d" y="315"/>
      </g>
     </g>
    </g>
    <g id="xtick_41">
     <g id="line2d_41">
      <g>
       <use style="stroke:#000000;stroke-width:0.6;" x="462" xlink:href="#m122991b11d" y="315"/>
      </g>
     </g>
    </g>
    <g id="xtick_42">
     <g id="line2d_42">
      <g>
       <use style="stroke:#000000;stroke-width:0.6;" x="474.519231" xlink:href="#m122991b11d" y="315"/>
      </g>
     </g>
    </g>
    <g id="xtick_43">
     <g id="line2d_43">
      <g>
       <use style="stroke:#000000;stroke-width:0.6;" x="487.038462" xlink:href="#m122991b11d" y="315"/>
      </g>
     </g>
    </g>
    <g id="xtick_44">
     <g id="line2d_44">
      <g>
       <use style="stroke:#000000;stroke-width:0.6;" x="499.557692" xlink:href="#m122991b11d" y="315"/>
      </g>
     </g>
    </g>
    <g id="xtick_45">
     <g id="line2d_45">
      <g>
       <use style="stroke:#000000;stroke-width:0.6;" x="512.076923" xlink:href="#m122991b11d" y="315"/>
      </g>
     </g>
    </g>
    <g id="xtick_46">
     <g id="line2d_46">
      <g>
       <use style="stroke:#000000;stroke-width:0.6;" x="524.596154" xlink:href="#m122991b11d" y="315"/>
      </g>
     </g>
    </g>
    <g id="xtick_47">
     <g id="line2d_47">
      <g>
       <use style="stroke:#000000;stroke-width:0.6;" x="537.115385" xlink:href="#m122991b11d" y="315"/>
      </g>
     </g>
    </g>
    <g id="xtick_48">
     <g id="line2d_48">
      <g>
       <use style="stroke:#000000;stroke-width:0.6;" x="549.634615" xlink:href="#m122991b11d" y="315"/>
      </g>
     </g>
    </g>
    <g id="xtick_49">
     <g id="line2d_49">
      <g>
       <use style="stroke:#000000;stroke-width:0.6;" x="562.153846" xlink:href="#m122991b11d" y="315"/>
      </g>
     </g>
    </g>
    <g id="xtick_50">
     <g id="line2d_50">
      <g>
       <use style="stroke:#000000;stroke-width:0.6;" x="574.673077" xlink:href="#m122991b11d" y="315"/>
      </g>
     </g>
    </g>
    <g id="xtick_51">
     <g id="line2d_51">
      <g>
       <use style="stroke:#000000;stroke-width:0.6;" x="587.192308" xlink:href="#m122991b11d" y="315"/>
      </g>
     </g>
    </g>
    <g id="xtick_52">
     <g id="line2d_52">
      <g>
       <use style="stroke:#000000;stroke-width:0.6;" x="599.711538" xlink:href="#m122991b11d" y="315"/>
      </g>
     </g>
    </g>
    <g id="xtick_53">
     <g id="line2d_53">
      <g>
       <use style="stroke:#000000;stroke-width:0.6;" x="612.230769" xlink:href="#m122991b11d" y="315"/>
      </g>
     </g>
    </g>
    <g id="xtick_54">
     <g id="line2d_54">
      <g>
       <use style="stroke:#000000;stroke-width:0.6;" x="624.75" xlink:href="#m122991b11d" y="315"/>
      </g>
     </g>
    </g>
    <g id="xtick_55">
     <g id="line2d_55">
      <g>
       <use style="stroke:#000000;stroke-width:0.6;" x="637.269231" xlink:href="#m122991b11d" y="315"/>
      </g>
     </g>
    </g>
    <g id="text_11">
     <!-- date -->
     <g transform="translate(357.725 354.474375)scale(0.1 -0.1)">
      <defs>
       <path d="M 45.40625 46.390625 
L 45.40625 75.984375 
L 54.390625 75.984375 
L 54.390625 0 
L 45.40625 0 
L 45.40625 8.203125 
Q 42.578125 3.328125 38.25 0.953125 
Q 33.9375 -1.421875 27.875 -1.421875 
Q 17.96875 -1.421875 11.734375 6.484375 
Q 5.515625 14.40625 5.515625 27.296875 
Q 5.515625 40.1875 11.734375 48.09375 
Q 17.96875 56 27.875 56 
Q 33.9375 56 38.25 53.625 
Q 42.578125 51.265625 45.40625 46.390625 
z
M 14.796875 27.296875 
Q 14.796875 17.390625 18.875 11.75 
Q 22.953125 6.109375 30.078125 6.109375 
Q 37.203125 6.109375 41.296875 11.75 
Q 45.40625 17.390625 45.40625 27.296875 
Q 45.40625 37.203125 41.296875 42.84375 
Q 37.203125 48.484375 30.078125 48.484375 
Q 22.953125 48.484375 18.875 42.84375 
Q 14.796875 37.203125 14.796875 27.296875 
z
" id="DejaVuSans-100"/>
      </defs>
      <use xlink:href="#DejaVuSans-100"/>
      <use x="63.476562" xlink:href="#DejaVuSans-97"/>
      <use x="124.755859" xlink:href="#DejaVuSans-116"/>
      <use x="163.964844" xlink:href="#DejaVuSans-101"/>
     </g>
    </g>
   </g>
   <g id="matplotlib.axis_2">
    <g id="ytick_1">
     <g id="line2d_56">
      <path clip-path="url(#p54c7850f89)" d="M 90 296.431131 
L 648 296.431131 
" style="fill:none;stroke:#b0b0b0;stroke-dasharray:0.8,1.32;stroke-dashoffset:0;stroke-width:0.8;"/>
     </g>
     <g id="line2d_57">
      <defs>
       <path d="M 0 0 
L -3.5 0 
" id="me9b3cefc44" style="stroke:#000000;stroke-width:0.8;"/>
      </defs>
      <g>
       <use style="stroke:#000000;stroke-width:0.8;" x="90" xlink:href="#me9b3cefc44" y="296.431131"/>
      </g>
     </g>
     <g id="text_12">
      <!-- 0.50 -->
      <g transform="translate(60.734375 300.230349)scale(0.1 -0.1)">
       <defs>
        <path d="M 10.6875 12.40625 
L 21 12.40625 
L 21 0 
L 10.6875 0 
z
" id="DejaVuSans-46"/>
        <path d="M 10.796875 72.90625 
L 49.515625 72.90625 
L 49.515625 64.59375 
L 19.828125 64.59375 
L 19.828125 46.734375 
Q 21.96875 47.46875 24.109375 47.828125 
Q 26.265625 48.1875 28.421875 48.1875 
Q 40.625 48.1875 47.75 41.5 
Q 54.890625 34.8125 54.890625 23.390625 
Q 54.890625 11.625 47.5625 5.09375 
Q 40.234375 -1.421875 26.90625 -1.421875 
Q 22.3125 -1.421875 17.546875 -0.640625 
Q 12.796875 0.140625 7.71875 1.703125 
L 7.71875 11.625 
Q 12.109375 9.234375 16.796875 8.0625 
Q 21.484375 6.890625 26.703125 6.890625 
Q 35.15625 6.890625 40.078125 11.328125 
Q 45.015625 15.765625 45.015625 23.390625 
Q 45.015625 31 40.078125 35.4375 
Q 35.15625 39.890625 26.703125 39.890625 
Q 22.75 39.890625 18.8125 39.015625 
Q 14.890625 38.140625 10.796875 36.28125 
z
" id="DejaVuSans-53"/>
       </defs>
       <use xlink:href="#DejaVuSans-48"/>
       <use x="63.623047" xlink:href="#DejaVuSans-46"/>
       <use x="95.410156" xlink:href="#DejaVuSans-53"/>
       <use x="159.033203" xlink:href="#DejaVuSans-48"/>
      </g>
     </g>
    </g>
    <g id="ytick_2">
     <g id="line2d_58">
      <path clip-path="url(#p54c7850f89)" d="M 90 264.100767 
L 648 264.100767 
" style="fill:none;stroke:#b0b0b0;stroke-dasharray:0.8,1.32;stroke-dashoffset:0;stroke-width:0.8;"/>
     </g>
     <g id="line2d_59">
      <g>
       <use style="stroke:#000000;stroke-width:0.8;" x="90" xlink:href="#me9b3cefc44" y="264.100767"/>
      </g>
     </g>
     <g id="text_13">
      <!-- 0.75 -->
      <g transform="translate(60.734375 267.899985)scale(0.1 -0.1)">
       <defs>
        <path d="M 8.203125 72.90625 
L 55.078125 72.90625 
L 55.078125 68.703125 
L 28.609375 0 
L 18.3125 0 
L 43.21875 64.59375 
L 8.203125 64.59375 
z
" id="DejaVuSans-55"/>
       </defs>
       <use xlink:href="#DejaVuSans-48"/>
       <use x="63.623047" xlink:href="#DejaVuSans-46"/>
       <use x="95.410156" xlink:href="#DejaVuSans-55"/>
       <use x="159.033203" xlink:href="#DejaVuSans-53"/>
      </g>
     </g>
    </g>
    <g id="ytick_3">
     <g id="line2d_60">
      <path clip-path="url(#p54c7850f89)" d="M 90 231.770402 
L 648 231.770402 
" style="fill:none;stroke:#b0b0b0;stroke-dasharray:0.8,1.32;stroke-dashoffset:0;stroke-width:0.8;"/>
     </g>
     <g id="line2d_61">
      <g>
       <use style="stroke:#000000;stroke-width:0.8;" x="90" xlink:href="#me9b3cefc44" y="231.770402"/>
      </g>
     </g>
     <g id="text_14">
      <!-- 1.00 -->
      <g transform="translate(60.734375 235.569621)scale(0.1 -0.1)">
       <use xlink:href="#DejaVuSans-49"/>
       <use x="63.623047" xlink:href="#DejaVuSans-46"/>
       <use x="95.410156" xlink:href="#DejaVuSans-48"/>
       <use x="159.033203" xlink:href="#DejaVuSans-48"/>
      </g>
     </g>
    </g>
    <g id="ytick_4">
     <g id="line2d_62">
      <path clip-path="url(#p54c7850f89)" d="M 90 199.440038 
L 648 199.440038 
" style="fill:none;stroke:#b0b0b0;stroke-dasharray:0.8,1.32;stroke-dashoffset:0;stroke-width:0.8;"/>
     </g>
     <g id="line2d_63">
      <g>
       <use style="stroke:#000000;stroke-width:0.8;" x="90" xlink:href="#me9b3cefc44" y="199.440038"/>
      </g>
     </g>
     <g id="text_15">
      <!-- 1.25 -->
      <g transform="translate(60.734375 203.239257)scale(0.1 -0.1)">
       <use xlink:href="#DejaVuSans-49"/>
       <use x="63.623047" xlink:href="#DejaVuSans-46"/>
       <use x="95.410156" xlink:href="#DejaVuSans-50"/>
       <use x="159.033203" xlink:href="#DejaVuSans-53"/>
      </g>
     </g>
    </g>
    <g id="ytick_5">
     <g id="line2d_64">
      <path clip-path="url(#p54c7850f89)" d="M 90 167.109674 
L 648 167.109674 
" style="fill:none;stroke:#b0b0b0;stroke-dasharray:0.8,1.32;stroke-dashoffset:0;stroke-width:0.8;"/>
     </g>
     <g id="line2d_65">
      <g>
       <use style="stroke:#000000;stroke-width:0.8;" x="90" xlink:href="#me9b3cefc44" y="167.109674"/>
      </g>
     </g>
     <g id="text_16">
      <!-- 1.50 -->
      <g transform="translate(60.734375 170.908893)scale(0.1 -0.1)">
       <use xlink:href="#DejaVuSans-49"/>
       <use x="63.623047" xlink:href="#DejaVuSans-46"/>
       <use x="95.410156" xlink:href="#DejaVuSans-53"/>
       <use x="159.033203" xlink:href="#DejaVuSans-48"/>
      </g>
     </g>
    </g>
    <g id="ytick_6">
     <g id="line2d_66">
      <path clip-path="url(#p54c7850f89)" d="M 90 134.77931 
L 648 134.77931 
" style="fill:none;stroke:#b0b0b0;stroke-dasharray:0.8,1.32;stroke-dashoffset:0;stroke-width:0.8;"/>
     </g>
     <g id="line2d_67">
      <g>
       <use style="stroke:#000000;stroke-width:0.8;" x="90" xlink:href="#me9b3cefc44" y="134.77931"/>
      </g>
     </g>
     <g id="text_17">
      <!-- 1.75 -->
      <g transform="translate(60.734375 138.578529)scale(0.1 -0.1)">
       <use xlink:href="#DejaVuSans-49"/>
       <use x="63.623047" xlink:href="#DejaVuSans-46"/>
       <use x="95.410156" xlink:href="#DejaVuSans-55"/>
       <use x="159.033203" xlink:href="#DejaVuSans-53"/>
      </g>
     </g>
    </g>
    <g id="ytick_7">
     <g id="line2d_68">
      <path clip-path="url(#p54c7850f89)" d="M 90 102.448946 
L 648 102.448946 
" style="fill:none;stroke:#b0b0b0;stroke-dasharray:0.8,1.32;stroke-dashoffset:0;stroke-width:0.8;"/>
     </g>
     <g id="line2d_69">
      <g>
       <use style="stroke:#000000;stroke-width:0.8;" x="90" xlink:href="#me9b3cefc44" y="102.448946"/>
      </g>
     </g>
     <g id="text_18">
      <!-- 2.00 -->
      <g transform="translate(60.734375 106.248165)scale(0.1 -0.1)">
       <use xlink:href="#DejaVuSans-50"/>
       <use x="63.623047" xlink:href="#DejaVuSans-46"/>
       <use x="95.410156" xlink:href="#DejaVuSans-48"/>
       <use x="159.033203" xlink:href="#DejaVuSans-48"/>
      </g>
     </g>
    </g>
    <g id="ytick_8">
     <g id="line2d_70">
      <path clip-path="url(#p54c7850f89)" d="M 90 70.118582 
L 648 70.118582 
" style="fill:none;stroke:#b0b0b0;stroke-dasharray:0.8,1.32;stroke-dashoffset:0;stroke-width:0.8;"/>
     </g>
     <g id="line2d_71">
      <g>
       <use style="stroke:#000000;stroke-width:0.8;" x="90" xlink:href="#me9b3cefc44" y="70.118582"/>
      </g>
     </g>
     <g id="text_19">
      <!-- 2.25 -->
      <g transform="translate(60.734375 73.917801)scale(0.1 -0.1)">
       <use xlink:href="#DejaVuSans-50"/>
       <use x="63.623047" xlink:href="#DejaVuSans-46"/>
       <use x="95.410156" xlink:href="#DejaVuSans-50"/>
       <use x="159.033203" xlink:href="#DejaVuSans-53"/>
      </g>
     </g>
    </g>
   </g>
   <g id="line2d_72">
    <path clip-path="url(#p54c7850f89)" d="M 90 226.954003 
L 91.788462 228.180271 
L 93.576923 229.757353 
L 95.365385 229.43775 
L 97.153846 230.78105 
L 100.730769 234.680018 
L 104.307692 239.710443 
L 106.096154 243.57294 
L 107.884615 247.875339 
L 109.673077 251.409975 
L 111.461538 255.608151 
L 113.25 260.803076 
L 115.038462 264.180894 
L 116.826923 266.624887 
L 118.615385 269.708185 
L 120.403846 273.017805 
L 122.192308 274.66782 
L 123.980769 276.522843 
L 125.769231 278.968605 
L 127.557692 280.443153 
L 129.346154 282.372841 
L 131.134615 283.14145 
L 132.923077 284.563253 
L 136.5 285.946613 
L 140.076923 287.704025 
L 141.865385 287.463496 
L 143.653846 287.897846 
L 145.442308 287.869079 
L 147.230769 287.472329 
L 149.019231 287.475535 
L 150.807692 287.032085 
L 152.596154 286.266908 
L 154.384615 285.298381 
L 156.173077 284.096006 
L 159.75 282.082827 
L 161.538462 280.831069 
L 163.326923 278.962557 
L 165.115385 277.329177 
L 166.903846 275.463339 
L 168.692308 273.027694 
L 170.480769 270.391097 
L 172.269231 268.225467 
L 174.057692 265.612593 
L 175.846154 261.717622 
L 177.634615 259.10027 
L 179.423077 255.697724 
L 181.211538 251.626099 
L 183 248.39338 
L 184.788462 243.357911 
L 186.576923 238.887771 
L 188.365385 233.766206 
L 190.153846 229.96507 
L 191.942308 225.047727 
L 197.307692 208.543843 
L 199.096154 204.330565 
L 200.884615 198.621719 
L 204.461538 185.312897 
L 206.25 177.063206 
L 208.038462 171.177019 
L 209.826923 164.340045 
L 211.615385 156.600945 
L 213.403846 149.576773 
L 215.192308 141.301018 
L 218.769231 126.187744 
L 220.557692 117.259717 
L 222.346154 109.307758 
L 224.134615 103.84188 
L 225.923077 98.76 
L 227.711538 95.726166 
L 229.5 94.107616 
L 231.288462 95.291404 
L 233.076923 100.241017 
L 234.865385 102.794041 
L 236.653846 109.870943 
L 238.442308 118.862878 
L 240.230769 126.569065 
L 242.019231 138.20854 
L 243.807692 150.844709 
L 245.596154 160.176765 
L 247.384615 170.923987 
L 249.173077 179.929224 
L 250.961538 187.826108 
L 252.75 192.021361 
L 254.538462 195.444652 
L 256.326923 197.968481 
L 258.115385 198.355313 
L 261.692308 195.501052 
L 263.480769 194.086766 
L 267.057692 184.528543 
L 268.846154 181.363936 
L 272.423077 169.542021 
L 276 161.98214 
L 277.788462 159.0377 
L 279.576923 155.688213 
L 281.365385 154.169598 
L 283.153846 153.280581 
L 284.942308 155.459087 
L 286.730769 158.390133 
L 288.519231 161.065227 
L 290.307692 166.22166 
L 292.096154 171.878299 
L 293.884615 179.725973 
L 295.673077 186.428491 
L 297.461538 194.374809 
L 299.25 201.435565 
L 302.826923 216.395379 
L 304.615385 223.308583 
L 306.403846 228.588758 
L 309.980769 240.351568 
L 311.769231 245.051703 
L 313.557692 248.028922 
L 315.346154 251.401479 
L 317.134615 253.549626 
L 318.923077 254.631607 
L 320.711538 255.99805 
L 322.5 256.639974 
L 324.288462 256.641271 
L 326.076923 255.624863 
L 329.653846 253.936957 
L 331.442308 251.626423 
L 333.230769 248.97933 
L 336.807692 242.942645 
L 338.596154 239.125484 
L 340.384615 235.960223 
L 342.173077 232.119582 
L 343.961538 227.641097 
L 349.326923 215.017112 
L 351.115385 210.770233 
L 354.692308 203.085069 
L 356.480769 200.162244 
L 358.269231 196.934649 
L 360.057692 195.69038 
L 361.846154 193.425862 
L 363.634615 192.621845 
L 365.423077 191.480802 
L 367.211538 190.017423 
L 369 190.410375 
L 372.576923 189.189403 
L 374.365385 190.356627 
L 376.153846 191.242138 
L 377.942308 192.984447 
L 379.730769 193.1494 
L 381.519231 194.132201 
L 383.307692 196.105142 
L 388.673077 198.194658 
L 390.461538 198.628076 
L 392.25 199.189876 
L 394.038462 200.472229 
L 395.826923 199.707392 
L 397.615385 200.232416 
L 399.403846 199.967474 
L 401.192308 199.371778 
L 402.980769 200.136393 
L 404.769231 199.497993 
L 406.557692 200.454562 
L 408.346154 202.695681 
L 411.923077 208.177029 
L 413.711538 210.463933 
L 415.5 213.81488 
L 419.076923 222.064535 
L 420.865385 226.994559 
L 424.442308 235.971693 
L 426.230769 241.534957 
L 428.019231 246.545635 
L 429.807692 251.138099 
L 433.384615 261.602424 
L 435.173077 265.320041 
L 436.961538 268.738798 
L 440.538462 276.86523 
L 442.326923 279.351408 
L 444.115385 282.077075 
L 445.903846 284.299278 
L 447.692308 286.337184 
L 449.480769 287.595388 
L 451.269231 287.721794 
L 453.057692 288.335731 
L 456.634615 288.134334 
L 458.423077 286.645492 
L 460.211538 286.166887 
L 462 284.825595 
L 463.788462 282.625611 
L 465.576923 280.858331 
L 467.365385 278.766573 
L 470.942308 272.96311 
L 472.730769 269.668705 
L 474.519231 266.866462 
L 476.307692 262.864433 
L 478.096154 259.360818 
L 487.038462 239.091428 
L 488.826923 235.844223 
L 490.615385 231.627854 
L 494.192308 224.928592 
L 495.980769 221.90447 
L 497.769231 218.513384 
L 499.557692 214.857585 
L 501.346154 212.799417 
L 503.134615 210.441294 
L 504.923077 208.592725 
L 506.711538 206.141201 
L 508.5 204.237771 
L 510.288462 201.089785 
L 512.076923 199.002666 
L 513.865385 197.579457 
L 515.653846 197.579934 
L 517.442308 196.179579 
L 519.230769 195.800152 
L 521.019231 194.826463 
L 522.807692 194.430769 
L 526.384615 194.747838 
L 528.173077 195.907212 
L 529.961538 195.961922 
L 531.75 194.489534 
L 533.538462 194.502564 
L 535.326923 195.502105 
L 537.115385 194.481535 
L 538.903846 194.502223 
L 540.692308 194.901717 
L 542.480769 194.369652 
L 544.269231 193.604698 
L 546.057692 194.073825 
L 547.846154 193.77982 
L 549.634615 194.567279 
L 551.423077 194.900539 
L 553.211538 193.964529 
L 555 195.59204 
L 556.788462 196.496411 
L 560.365385 196.396278 
L 563.942308 198.257079 
L 565.730769 198.004318 
L 569.307692 198.733794 
L 571.096154 199.832775 
L 572.884615 199.113209 
L 574.673077 200.323197 
L 576.461538 200.426577 
L 578.25 200.760697 
L 583.615385 202.156662 
L 585.403846 202.440637 
L 587.192308 201.969525 
L 588.980769 200.883679 
L 590.769231 201.771543 
L 592.557692 200.57188 
L 594.346154 201.283302 
L 596.134615 202.222525 
L 597.923077 202.463674 
L 599.711538 204.485149 
L 601.5 206.27849 
L 603.288462 207.272483 
L 605.076923 211.263083 
L 608.653846 217.100424 
L 610.442308 219.532588 
L 612.230769 223.270752 
L 614.019231 226.341488 
L 615.807692 230.753925 
L 617.596154 234.512717 
L 619.384615 237.773347 
L 621.173077 240.492201 
L 622.961538 242.660439 
L 624.75 246.266288 
L 628.326923 249.829347 
L 630.115385 251.051241 
L 631.903846 252.580445 
L 633.692308 254.692293 
L 635.480769 255.295439 
L 637.269231 256.031797 
L 639.057692 256.451518 
L 640.846154 256.715592 
L 642.634615 257.623981 
L 644.423077 257.911912 
L 646.211538 257.4971 
L 648 258.746672 
L 649.788462 257.942654 
L 651.576923 257.422488 
L 653.365385 258.722454 
L 655.153846 258.249338 
L 656.942308 258.929304 
L 658.730769 257.881338 
L 660.519231 257.649164 
L 662.307692 258.839458 
L 662.307692 258.839458 
" style="fill:none;stroke:#fc997a;stroke-linecap:square;stroke-width:1.5;"/>
   </g>
   <g id="line2d_73">
    <path clip-path="url(#p54c7850f89)" d="M 90 231.770402 
L 648 231.770402 
" style="fill:none;stroke:#000000;stroke-dasharray:3.7,1.6;stroke-dashoffset:0;"/>
   </g>
   <g id="patch_3">
    <path d="M 90 315 
L 90 43.2 
" style="fill:none;stroke:#000000;stroke-linecap:square;stroke-linejoin:miter;stroke-width:0.8;"/>
   </g>
   <g id="patch_4">
    <path d="M 648 315 
L 648 43.2 
" style="fill:none;stroke:#000000;stroke-linecap:square;stroke-linejoin:miter;stroke-width:0.8;"/>
   </g>
   <g id="patch_5">
    <path d="M 90 315 
L 648 315 
" style="fill:none;stroke:#000000;stroke-linecap:square;stroke-linejoin:miter;stroke-width:0.8;"/>
   </g>
   <g id="patch_6">
    <path d="M 90 43.2 
L 648 43.2 
" style="fill:none;stroke:#000000;stroke-linecap:square;stroke-linejoin:miter;stroke-width:0.8;"/>
   </g>
   <g id="text_20">
    <!-- 311   $R_t$ -->
    <g transform="translate(321.78 37.2)scale(0.12 -0.12)">
     <defs>
      <path d="M 40.578125 39.3125 
Q 47.65625 37.796875 51.625 33 
Q 55.609375 28.21875 55.609375 21.1875 
Q 55.609375 10.40625 48.1875 4.484375 
Q 40.765625 -1.421875 27.09375 -1.421875 
Q 22.515625 -1.421875 17.65625 -0.515625 
Q 12.796875 0.390625 7.625 2.203125 
L 7.625 11.71875 
Q 11.71875 9.328125 16.59375 8.109375 
Q 21.484375 6.890625 26.8125 6.890625 
Q 36.078125 6.890625 40.9375 10.546875 
Q 45.796875 14.203125 45.796875 21.1875 
Q 45.796875 27.640625 41.28125 31.265625 
Q 36.765625 34.90625 28.71875 34.90625 
L 20.21875 34.90625 
L 20.21875 43.015625 
L 29.109375 43.015625 
Q 36.375 43.015625 40.234375 45.921875 
Q 44.09375 48.828125 44.09375 54.296875 
Q 44.09375 59.90625 40.109375 62.90625 
Q 36.140625 65.921875 28.71875 65.921875 
Q 24.65625 65.921875 20.015625 65.03125 
Q 15.375 64.15625 9.8125 62.3125 
L 9.8125 71.09375 
Q 15.4375 72.65625 20.34375 73.4375 
Q 25.25 74.21875 29.59375 74.21875 
Q 40.828125 74.21875 47.359375 69.109375 
Q 53.90625 64.015625 53.90625 55.328125 
Q 53.90625 49.265625 50.4375 45.09375 
Q 46.96875 40.921875 40.578125 39.3125 
z
" id="DejaVuSans-51"/>
      <path id="DejaVuSans-32"/>
      <path d="M 19.140625 33.40625 
L 19.140625 0 
L 10.109375 0 
L 10.109375 29.6875 
z
M 56.25 27.828125 
L 56.25 0 
L 47.21875 0 
L 47.21875 29.6875 
Q 47.21875 40.234375 44.0625 43.96875 
Q 40.921875 47.703125 31.84375 47.703125 
L 9.078125 47.703125 
L 9.078125 54.6875 
L 31.734375 54.6875 
Q 45.265625 54.6875 50.75 48.578125 
Q 56.25 42.484375 56.25 27.828125 
z
" id="DejaVuSans-1492"/>
      <path d="M 9.078125 54.6875 
L 29.890625 54.6875 
Q 42.484375 54.6875 49.703125 47.5625 
Q 56.9375 40.4375 56.9375 27.34375 
Q 56.9375 14.265625 49.6875 7.125 
Q 42.4375 0 29.890625 0 
L 9.078125 0 
L 9.078125 6.9375 
L 26.171875 6.9375 
Q 37.703125 6.9375 42.796875 11.625 
Q 47.90625 16.3125 47.90625 27.9375 
Q 47.90625 38.625 42.625 43.15625 
Q 37.359375 47.703125 26.21875 47.703125 
L 18.171875 47.703125 
L 18.109375 36.859375 
Q 18.0625 33.296875 19.8125 31.609375 
Q 21.578125 29.9375 25.203125 29.9375 
Q 27.203125 29.9375 30.46875 30.5625 
L 30.46875 23.140625 
Q 26.46875 22.359375 23.1875 22.359375 
Q 16.65625 22.359375 12.859375 25.96875 
Q 9.078125 29.59375 9.078125 38.1875 
z
" id="DejaVuSans-1508"/>
      <path d="M 15.71875 54.6875 
L 15.71875 24.125 
L 6.640625 20.40625 
L 6.640625 54.6875 
z
" id="DejaVuSans-1497"/>
      <path d="M 56.25 29.59375 
L 56.25 0 
L 47.171875 0 
L 47.171875 30.90625 
Q 47.171875 40.578125 44 44.140625 
Q 40.828125 47.703125 31.84375 47.703125 
L 18.109375 47.703125 
L 18.109375 0 
L 9.078125 0 
L 9.078125 54.6875 
L 31.734375 54.6875 
Q 45.21875 54.6875 50.734375 48.828125 
Q 56.25 42.96875 56.25 29.59375 
z
" id="DejaVuSans-1495"/>
      <path d="M 47.359375 27.828125 
L 47.359375 0 
L 38.28125 0 
L 38.28125 27.828125 
Q 38.28125 31.390625 37.765625 34.265625 
Q 37.25 37.15625 36 39.71875 
Q 34.765625 42.28125 32.8125 43.984375 
Q 30.859375 45.703125 27.78125 46.703125 
Q 24.703125 47.703125 20.703125 47.703125 
L 4.296875 47.703125 
L 4.296875 54.6875 
L 20.65625 54.6875 
Q 26.8125 54.6875 31.46875 53.390625 
Q 36.140625 52.09375 39.109375 49.828125 
Q 42.09375 47.5625 43.96875 44.109375 
Q 45.84375 40.671875 46.59375 36.734375 
Q 47.359375 32.8125 47.359375 27.828125 
z
" id="DejaVuSans-1512"/>
      <path d="M 18.171875 54.6875 
L 18.171875 0 
L 9.078125 0 
L 9.078125 54.6875 
z
" id="DejaVuSans-1493"/>
      <path d="M 30.328125 54.6875 
L 30.328125 47.703125 
L 26.421875 47.703125 
Q 22.171875 47.703125 20.578125 43.921875 
Q 19 40.140625 19 30.90625 
L 19 0 
L 9.90625 0 
L 9.90625 30.90625 
Q 9.90625 37.109375 11.78125 41.453125 
Q 13.671875 45.796875 16.40625 47.703125 
L 4.296875 47.703125 
L 4.296875 54.6875 
z
" id="DejaVuSans-1494"/>
      <path d="M 43.75 20.0625 
L 57.671875 0 
L 47.078125 0 
L 26.765625 29.296875 
Q 25.390625 28.609375 24.53125 28.09375 
Q 23.6875 27.59375 22.3125 26.296875 
Q 20.953125 25 20.140625 23.40625 
Q 19.34375 21.828125 18.703125 19.140625 
Q 18.0625 16.453125 18.0625 13.09375 
L 18.0625 0 
L 9.078125 0 
L 9.078125 9.03125 
Q 9.078125 12.984375 9.5625 16.359375 
Q 10.0625 19.734375 10.8125 22.078125 
Q 11.578125 24.421875 12.796875 26.390625 
Q 14.015625 28.375 15.109375 29.59375 
Q 16.21875 30.8125 17.796875 31.875 
Q 19.390625 32.953125 20.453125 33.46875 
Q 21.53125 33.984375 23.046875 34.625 
L 9.1875 54.6875 
L 19.78125 54.6875 
L 40.09375 25.390625 
Q 41.40625 26.03125 42.25 26.53125 
Q 43.109375 27.046875 44.46875 28.359375 
Q 45.84375 29.6875 46.671875 31.265625 
Q 47.515625 32.859375 48.140625 35.546875 
Q 48.78125 38.234375 48.78125 41.609375 
L 48.78125 54.6875 
L 57.765625 54.6875 
L 57.765625 45.65625 
Q 57.765625 41.65625 57.265625 38.3125 
Q 56.78125 34.96875 56.03125 32.59375 
Q 55.28125 30.21875 54.046875 28.234375 
Q 52.828125 26.265625 51.703125 25.0625 
Q 50.59375 23.875 49.03125 22.796875 
Q 47.46875 21.734375 46.390625 21.21875 
Q 45.3125 20.703125 43.75 20.0625 
z
" id="DejaVuSans-1488"/>
      <path d="M 25.203125 64.796875 
L 20.21875 38.921875 
L 32.90625 38.921875 
Q 40.375 38.921875 44.984375 43.046875 
Q 49.609375 47.171875 49.609375 53.8125 
Q 49.609375 59.125 46.5 61.953125 
Q 43.40625 64.796875 37.59375 64.796875 
z
M 43.3125 35.015625 
Q 46.4375 34.28125 48.515625 31.390625 
Q 50.59375 28.515625 53.328125 19.921875 
L 59.515625 0 
L 49.125 0 
L 43.40625 18.703125 
Q 41.21875 25.921875 38.328125 28.359375 
Q 35.453125 30.8125 29.5 30.8125 
L 18.609375 30.8125 
L 12.59375 0 
L 2.6875 0 
L 16.890625 72.90625 
L 39.109375 72.90625 
Q 49.21875 72.90625 54.609375 68.328125 
Q 60.015625 63.765625 60.015625 55.171875 
Q 60.015625 47.5625 55.421875 41.984375 
Q 50.828125 36.421875 43.3125 35.015625 
z
" id="DejaVuSans-Oblique-82"/>
      <path d="M 42.28125 54.6875 
L 40.921875 47.703125 
L 23 47.703125 
L 17.1875 18.015625 
Q 16.890625 16.359375 16.75 15.234375 
Q 16.609375 14.109375 16.609375 13.484375 
Q 16.609375 10.359375 18.484375 8.9375 
Q 20.359375 7.515625 24.515625 7.515625 
L 33.59375 7.515625 
L 32.078125 0 
L 23.484375 0 
Q 15.484375 0 11.546875 3.125 
Q 7.625 6.25 7.625 12.59375 
Q 7.625 13.71875 7.765625 15.0625 
Q 7.90625 16.40625 8.203125 18.015625 
L 14.015625 47.703125 
L 6.390625 47.703125 
L 7.8125 54.6875 
L 15.28125 54.6875 
L 18.3125 70.21875 
L 27.296875 70.21875 
L 24.3125 54.6875 
z
" id="DejaVuSans-Oblique-116"/>
     </defs>
     <use transform="translate(0 0.78125)" xlink:href="#DejaVuSans-51"/>
     <use transform="translate(63.623047 0.78125)" xlink:href="#DejaVuSans-49"/>
     <use transform="translate(127.246094 0.78125)" xlink:href="#DejaVuSans-49"/>
     <use transform="translate(190.869141 0.78125)" xlink:href="#DejaVuSans-32"/>
     <use transform="translate(222.65625 0.78125)" xlink:href="#DejaVuSans-1492"/>
     <use transform="translate(287.988281 0.78125)" xlink:href="#DejaVuSans-1508"/>
     <use transform="translate(350.439453 0.78125)" xlink:href="#DejaVuSans-1497"/>
     <use transform="translate(372.802734 0.78125)" xlink:href="#DejaVuSans-1495"/>
     <use transform="translate(438.134766 0.78125)" xlink:href="#DejaVuSans-32"/>
     <use transform="translate(469.921875 0.78125)" xlink:href="#DejaVuSans-1512"/>
     <use transform="translate(526.367188 0.78125)" xlink:href="#DejaVuSans-1493"/>
     <use transform="translate(553.613281 0.78125)" xlink:href="#DejaVuSans-1494"/>
     <use transform="translate(588.232422 0.78125)" xlink:href="#DejaVuSans-1488"/>
     <use transform="translate(655.078125 0.78125)" xlink:href="#DejaVuSans-32"/>
     <use transform="translate(686.865234 0.78125)" xlink:href="#DejaVuSans-Oblique-82"/>
     <use transform="translate(756.347656 -15.625)scale(0.7)" xlink:href="#DejaVuSans-Oblique-116"/>
    </g>
   </g>
  </g>
 </g>
 <defs>
  <clipPath id="p54c7850f89">
   <rect height="271.8" width="558" x="90" y="43.2"/>
  </clipPath>
 </defs>
</svg>
