<?xml version="1.0" encoding="utf-8" standalone="no"?>
<!DOCTYPE svg PUBLIC "-//W3C//DTD SVG 1.1//EN"
  "http://www.w3.org/Graphics/SVG/1.1/DTD/svg11.dtd">
<!-- Created with matplotlib (https://matplotlib.org/) -->
<svg height="360pt" version="1.1" viewBox="0 0 720 360" width="720pt" xmlns="http://www.w3.org/2000/svg" xmlns:xlink="http://www.w3.org/1999/xlink">
 <metadata>
  <rdf:RDF xmlns:cc="http://creativecommons.org/ns#" xmlns:dc="http://purl.org/dc/elements/1.1/" xmlns:rdf="http://www.w3.org/1999/02/22-rdf-syntax-ns#">
   <cc:Work>
    <dc:type rdf:resource="http://purl.org/dc/dcmitype/StillImage"/>
    <dc:date>2021-02-07T08:23:14.972187</dc:date>
    <dc:format>image/svg+xml</dc:format>
    <dc:creator>
     <cc:Agent>
      <dc:title>Matplotlib v3.3.2, https://matplotlib.org/</dc:title>
     </cc:Agent>
    </dc:creator>
   </cc:Work>
  </rdf:RDF>
 </metadata>
 <defs>
  <style type="text/css">*{stroke-linecap:butt;stroke-linejoin:round;}</style>
 </defs>
 <g id="figure_1">
  <g id="patch_1">
   <path d="M 0 360 
L 720 360 
L 720 0 
L 0 0 
z
" style="fill:#ffffff;"/>
  </g>
  <g id="axes_1">
   <g id="patch_2">
    <path d="M 90 315 
L 648 315 
L 648 43.2 
L 90 43.2 
z
" style="fill:#ffffff;"/>
   </g>
   <g id="PolyCollection_1">
    <defs>
     <path d="M 90 -137.687568 
L 90 -280.763083 
L 93.225434 -286.339935 
L 96.450867 -277.769963 
L 99.676301 -273.35738 
L 102.901734 -271.910015 
L 106.127168 -273.120694 
L 109.352601 -273.05462 
L 112.578035 -269.706167 
L 115.803468 -266.689445 
L 119.028902 -257.487064 
L 122.254335 -248.477836 
L 125.479769 -247.903217 
L 128.705202 -233.01586 
L 131.930636 -221.145987 
L 135.156069 -208.753649 
L 138.381503 -190.469096 
L 141.606936 -180.391094 
L 144.83237 -171.59042 
L 148.057803 -157.799585 
L 151.283237 -146.865828 
L 154.508671 -137.974232 
L 157.734104 -129.355667 
L 160.959538 -120.757232 
L 164.184971 -118.211731 
L 167.410405 -110.118547 
L 170.635838 -108.737809 
L 173.861272 -102.225041 
L 177.086705 -99.181149 
L 180.312139 -98.584367 
L 183.537572 -95.367591 
L 186.763006 -92.893585 
L 189.988439 -90.455647 
L 193.213873 -91.273908 
L 196.439306 -89.150198 
L 199.66474 -89.87366 
L 202.890173 -88.790896 
L 206.115607 -88.750136 
L 209.34104 -90.307653 
L 212.566474 -87.996253 
L 215.791908 -91.435154 
L 219.017341 -91.932252 
L 222.242775 -90.798893 
L 225.468208 -93.877885 
L 228.693642 -96.103034 
L 231.919075 -97.572868 
L 235.144509 -101.449921 
L 238.369942 -104.400586 
L 241.595376 -108.363085 
L 244.820809 -111.406093 
L 248.046243 -113.15459 
L 251.271676 -121.440391 
L 254.49711 -126.180201 
L 257.722543 -131.736361 
L 260.947977 -138.483815 
L 264.17341 -150.483089 
L 267.398844 -154.378948 
L 270.624277 -163.40651 
L 273.849711 -175.132282 
L 277.075145 -185.45153 
L 280.300578 -197.451437 
L 283.526012 -209.948376 
L 286.751445 -222.975443 
L 289.976879 -230.072382 
L 293.202312 -243.317489 
L 296.427746 -255.464171 
L 299.653179 -268.909052 
L 302.878613 -276.837086 
L 306.104046 -282.531859 
L 309.32948 -291.053647 
L 312.554913 -295.393731 
L 315.780347 -302.324587 
L 319.00578 -304.445455 
L 322.231214 -302.639043 
L 325.456647 -296.177487 
L 328.682081 -295.092989 
L 331.907514 -283.741079 
L 335.132948 -271.150005 
L 338.358382 -258.424367 
L 341.583815 -247.950444 
L 344.809249 -235.818096 
L 348.034682 -224.446098 
L 351.260116 -204.198045 
L 354.485549 -194.000564 
L 357.710983 -186.391407 
L 360.936416 -170.148347 
L 364.16185 -160.144838 
L 367.387283 -151.498761 
L 370.612717 -144.518138 
L 373.83815 -133.806067 
L 377.063584 -130.210358 
L 380.289017 -123.9146 
L 383.514451 -118.241773 
L 386.739884 -114.286418 
L 389.965318 -114.359283 
L 393.190751 -111.699288 
L 396.416185 -111.367303 
L 399.641618 -114.151741 
L 402.867052 -114.199187 
L 406.092486 -114.728039 
L 409.317919 -115.424076 
L 412.543353 -118.420579 
L 415.768786 -121.367284 
L 418.99422 -122.965676 
L 422.219653 -125.722531 
L 425.445087 -125.368181 
L 428.67052 -125.857861 
L 431.895954 -126.883948 
L 435.121387 -127.572594 
L 438.346821 -127.038975 
L 441.572254 -128.189157 
L 444.797688 -127.260302 
L 448.023121 -124.028879 
L 451.248555 -124.004027 
L 454.473988 -122.603179 
L 457.699422 -121.64202 
L 460.924855 -122.645806 
L 464.150289 -121.124276 
L 467.375723 -123.15695 
L 470.601156 -118.153986 
L 473.82659 -118.859636 
L 477.052023 -119.150768 
L 480.277457 -119.943318 
L 483.50289 -120.701355 
L 486.728324 -121.172811 
L 489.953757 -118.947274 
L 493.179191 -117.262458 
L 496.404624 -118.60199 
L 499.630058 -118.743594 
L 502.855491 -116.531116 
L 506.080925 -115.544627 
L 509.306358 -118.190816 
L 512.531792 -116.426079 
L 515.757225 -119.18844 
L 518.982659 -116.908987 
L 522.208092 -119.428639 
L 525.433526 -121.777781 
L 528.65896 -121.471406 
L 531.884393 -121.135545 
L 535.109827 -121.731741 
L 538.33526 -124.715034 
L 541.560694 -125.842036 
L 544.786127 -124.093181 
L 548.011561 -126.625252 
L 551.236994 -131.257376 
L 554.462428 -134.189581 
L 557.687861 -134.152173 
L 560.913295 -139.192158 
L 564.138728 -138.66926 
L 567.364162 -139.73872 
L 570.589595 -140.17024 
L 573.815029 -140.321439 
L 577.040462 -143.442567 
L 580.265896 -147.815733 
L 583.491329 -148.4351 
L 586.716763 -146.454315 
L 589.942197 -148.942485 
L 593.16763 -152.464378 
L 596.393064 -151.242819 
L 599.618497 -151.699389 
L 602.843931 -150.258334 
L 606.069364 -152.511436 
L 609.294798 -153.664683 
L 612.520231 -152.878872 
L 615.745665 -156.701101 
L 618.971098 -162.423374 
L 622.196532 -161.050177 
L 625.421965 -161.542546 
L 628.647399 -170.526452 
L 631.872832 -166.52741 
L 635.098266 -163.461541 
L 638.323699 -171.922453 
L 641.549133 -170.051067 
L 644.774566 -167.019794 
L 648 -169.446663 
L 651.225434 -170.901707 
L 654.450867 -174.069939 
L 657.676301 -175.672693 
L 660.901734 -177.249535 
L 664.127168 -178.102021 
L 667.352601 -188.050873 
L 670.578035 -182.438341 
L 673.803468 -180.844632 
L 673.803468 -60.598668 
L 673.803468 -60.598668 
L 670.578035 -65.980535 
L 667.352601 -72.81046 
L 664.127168 -67.682775 
L 660.901734 -69.471494 
L 657.676301 -69.068313 
L 654.450867 -67.203809 
L 651.225434 -68.793598 
L 648 -76.474649 
L 644.774566 -75.898201 
L 641.549133 -79.422108 
L 638.323699 -85.290129 
L 635.098266 -82.855432 
L 631.872832 -87.788726 
L 628.647399 -94.492483 
L 625.421965 -91.323533 
L 622.196532 -92.885858 
L 618.971098 -95.464618 
L 615.745665 -94.407908 
L 612.520231 -95.503366 
L 609.294798 -97.72383 
L 606.069364 -100.29182 
L 602.843931 -99.397587 
L 599.618497 -100.978646 
L 596.393064 -101.166378 
L 593.16763 -101.861402 
L 589.942197 -100.821627 
L 586.716763 -98.067479 
L 583.491329 -100.862256 
L 580.265896 -101.097239 
L 577.040462 -99.016549 
L 573.815029 -96.600216 
L 570.589595 -96.503776 
L 567.364162 -95.364362 
L 564.138728 -96.196453 
L 560.913295 -94.045364 
L 557.687861 -89.20317 
L 554.462428 -90.946985 
L 551.236994 -89.821807 
L 548.011561 -85.722632 
L 544.786127 -84.652227 
L 541.560694 -85.847091 
L 538.33526 -83.964264 
L 535.109827 -83.321678 
L 531.884393 -82.764327 
L 528.65896 -81.734148 
L 525.433526 -82.317352 
L 522.208092 -81.454931 
L 518.982659 -79.09677 
L 515.757225 -80.157609 
L 512.531792 -77.320855 
L 509.306358 -79.355295 
L 506.080925 -77.591181 
L 502.855491 -78.628648 
L 499.630058 -78.835499 
L 496.404624 -78.049057 
L 493.179191 -77.909483 
L 489.953757 -80.385309 
L 486.728324 -82.657837 
L 483.50289 -81.457615 
L 480.277457 -81.609888 
L 477.052023 -82.187714 
L 473.82659 -82.10008 
L 470.601156 -80.59639 
L 467.375723 -85.744111 
L 464.150289 -83.15835 
L 460.924855 -85.37888 
L 457.699422 -86.023282 
L 454.473988 -86.055397 
L 451.248555 -86.298179 
L 448.023121 -84.713693 
L 444.797688 -85.868619 
L 441.572254 -86.928198 
L 438.346821 -86.22324 
L 435.121387 -87.032396 
L 431.895954 -87.810862 
L 428.67052 -84.967766 
L 425.445087 -85.430023 
L 422.219653 -84.46536 
L 418.99422 -85.070606 
L 415.768786 -84.514576 
L 412.543353 -81.63541 
L 409.317919 -77.981595 
L 406.092486 -78.711372 
L 402.867052 -77.973732 
L 399.641618 -77.684137 
L 396.416185 -74.411903 
L 393.190751 -76.082047 
L 389.965318 -78.185291 
L 386.739884 -79.715526 
L 383.514451 -82.265752 
L 380.289017 -86.605661 
L 377.063584 -92.407421 
L 373.83815 -92.606393 
L 370.612717 -101.215417 
L 367.387283 -103.749826 
L 364.16185 -114.508705 
L 360.936416 -119.061703 
L 357.710983 -132.504561 
L 354.485549 -138.345174 
L 351.260116 -146.631617 
L 348.034682 -161.251652 
L 344.809249 -170.609631 
L 341.583815 -180.149204 
L 338.358382 -187.103956 
L 335.132948 -196.962125 
L 331.907514 -205.662301 
L 328.682081 -215.756205 
L 325.456647 -214.07349 
L 322.231214 -216.493125 
L 319.00578 -218.126737 
L 315.780347 -217.493965 
L 312.554913 -213.233215 
L 309.32948 -212.025923 
L 306.104046 -205.139776 
L 302.878613 -199.252227 
L 299.653179 -195.828055 
L 296.427746 -188.626325 
L 293.202312 -176.720307 
L 289.976879 -166.631126 
L 286.751445 -160.462973 
L 283.526012 -151.02054 
L 280.300578 -142.044093 
L 277.075145 -132.401059 
L 273.849711 -124.418377 
L 270.624277 -112.669772 
L 267.398844 -106.867096 
L 264.17341 -106.637869 
L 260.947977 -95.927272 
L 257.722543 -90.075619 
L 254.49711 -84.961599 
L 251.271676 -81.439663 
L 248.046243 -73.822151 
L 244.820809 -72.717195 
L 241.595376 -70.744622 
L 238.369942 -69.236065 
L 235.144509 -65.864901 
L 231.919075 -62.657385 
L 228.693642 -62.34715 
L 225.468208 -60.418408 
L 222.242775 -57.603236 
L 219.017341 -58.858872 
L 215.791908 -59.53226 
L 212.566474 -57.354545 
L 209.34104 -58.817225 
L 206.115607 -57.888807 
L 202.890173 -58.558755 
L 199.66474 -59.111767 
L 196.439306 -58.255695 
L 193.213873 -59.861888 
L 189.988439 -58.100668 
L 186.763006 -60.776203 
L 183.537572 -61.456482 
L 180.312139 -63.956722 
L 177.086705 -64.088942 
L 173.861272 -67.177408 
L 170.635838 -71.392012 
L 167.410405 -72.316985 
L 164.184971 -79.072219 
L 160.959538 -81.279062 
L 157.734104 -87.303835 
L 154.508671 -93.944751 
L 151.283237 -101.321041 
L 148.057803 -109.607996 
L 144.83237 -118.964305 
L 141.606936 -121.638998 
L 138.381503 -123.129111 
L 135.156069 -134.622405 
L 131.930636 -140.249948 
L 128.705202 -147.972832 
L 125.479769 -157.125256 
L 122.254335 -154.568173 
L 119.028902 -161.465642 
L 115.803468 -160.882778 
L 112.578035 -162.637399 
L 109.352601 -160.835913 
L 106.127168 -153.07853 
L 102.901734 -146.379657 
L 99.676301 -145.535762 
L 96.450867 -141.781079 
L 93.225434 -149.113875 
L 90 -137.687568 
z
" id="meedce7f652" style="stroke:#fdcbb6;stroke-opacity:0.8;"/>
    </defs>
    <g clip-path="url(#pb11978c230)">
     <use style="fill:#fdcbb6;fill-opacity:0.8;stroke:#fdcbb6;stroke-opacity:0.8;" x="0" xlink:href="#meedce7f652" y="360"/>
    </g>
   </g>
   <g id="matplotlib.axis_1">
    <g id="xtick_1">
     <g id="line2d_1">
      <defs>
       <path d="M 0 0 
L 0 3.5 
" id="mcf1cebe07e" style="stroke:#000000;stroke-width:0.8;"/>
      </defs>
      <g>
       <use style="stroke:#000000;stroke-width:0.8;" x="90" xlink:href="#mcf1cebe07e" y="315"/>
      </g>
     </g>
    </g>
    <g id="xtick_2">
     <g id="line2d_2">
      <g>
       <use style="stroke:#000000;stroke-width:0.8;" x="167.410405" xlink:href="#mcf1cebe07e" y="315"/>
      </g>
     </g>
     <g id="text_1">
      <!-- Sep -->
      <g transform="translate(157.985405 329.598437)scale(0.1 -0.1)">
       <defs>
        <path d="M 53.515625 70.515625 
L 53.515625 60.890625 
Q 47.90625 63.578125 42.921875 64.890625 
Q 37.9375 66.21875 33.296875 66.21875 
Q 25.25 66.21875 20.875 63.09375 
Q 16.5 59.96875 16.5 54.203125 
Q 16.5 49.359375 19.40625 46.890625 
Q 22.3125 44.4375 30.421875 42.921875 
L 36.375 41.703125 
Q 47.40625 39.59375 52.65625 34.296875 
Q 57.90625 29 57.90625 20.125 
Q 57.90625 9.515625 50.796875 4.046875 
Q 43.703125 -1.421875 29.984375 -1.421875 
Q 24.8125 -1.421875 18.96875 -0.25 
Q 13.140625 0.921875 6.890625 3.21875 
L 6.890625 13.375 
Q 12.890625 10.015625 18.65625 8.296875 
Q 24.421875 6.59375 29.984375 6.59375 
Q 38.421875 6.59375 43.015625 9.90625 
Q 47.609375 13.234375 47.609375 19.390625 
Q 47.609375 24.75 44.3125 27.78125 
Q 41.015625 30.8125 33.5 32.328125 
L 27.484375 33.5 
Q 16.453125 35.6875 11.515625 40.375 
Q 6.59375 45.0625 6.59375 53.421875 
Q 6.59375 63.09375 13.40625 68.65625 
Q 20.21875 74.21875 32.171875 74.21875 
Q 37.3125 74.21875 42.625 73.28125 
Q 47.953125 72.359375 53.515625 70.515625 
z
" id="DejaVuSans-83"/>
        <path d="M 56.203125 29.59375 
L 56.203125 25.203125 
L 14.890625 25.203125 
Q 15.484375 15.921875 20.484375 11.0625 
Q 25.484375 6.203125 34.421875 6.203125 
Q 39.59375 6.203125 44.453125 7.46875 
Q 49.3125 8.734375 54.109375 11.28125 
L 54.109375 2.78125 
Q 49.265625 0.734375 44.1875 -0.34375 
Q 39.109375 -1.421875 33.890625 -1.421875 
Q 20.796875 -1.421875 13.15625 6.1875 
Q 5.515625 13.8125 5.515625 26.8125 
Q 5.515625 40.234375 12.765625 48.109375 
Q 20.015625 56 32.328125 56 
Q 43.359375 56 49.78125 48.890625 
Q 56.203125 41.796875 56.203125 29.59375 
z
M 47.21875 32.234375 
Q 47.125 39.59375 43.09375 43.984375 
Q 39.0625 48.390625 32.421875 48.390625 
Q 24.90625 48.390625 20.390625 44.140625 
Q 15.875 39.890625 15.1875 32.171875 
z
" id="DejaVuSans-101"/>
        <path d="M 18.109375 8.203125 
L 18.109375 -20.796875 
L 9.078125 -20.796875 
L 9.078125 54.6875 
L 18.109375 54.6875 
L 18.109375 46.390625 
Q 20.953125 51.265625 25.265625 53.625 
Q 29.59375 56 35.59375 56 
Q 45.5625 56 51.78125 48.09375 
Q 58.015625 40.1875 58.015625 27.296875 
Q 58.015625 14.40625 51.78125 6.484375 
Q 45.5625 -1.421875 35.59375 -1.421875 
Q 29.59375 -1.421875 25.265625 0.953125 
Q 20.953125 3.328125 18.109375 8.203125 
z
M 48.6875 27.296875 
Q 48.6875 37.203125 44.609375 42.84375 
Q 40.53125 48.484375 33.40625 48.484375 
Q 26.265625 48.484375 22.1875 42.84375 
Q 18.109375 37.203125 18.109375 27.296875 
Q 18.109375 17.390625 22.1875 11.75 
Q 26.265625 6.109375 33.40625 6.109375 
Q 40.53125 6.109375 44.609375 11.75 
Q 48.6875 17.390625 48.6875 27.296875 
z
" id="DejaVuSans-112"/>
       </defs>
       <use xlink:href="#DejaVuSans-83"/>
       <use x="63.476562" xlink:href="#DejaVuSans-101"/>
       <use x="125" xlink:href="#DejaVuSans-112"/>
      </g>
     </g>
    </g>
    <g id="xtick_3">
     <g id="line2d_3">
      <g>
       <use style="stroke:#000000;stroke-width:0.8;" x="264.17341" xlink:href="#mcf1cebe07e" y="315"/>
      </g>
     </g>
     <g id="text_2">
      <!-- Oct -->
      <g transform="translate(255.528098 329.598437)scale(0.1 -0.1)">
       <defs>
        <path d="M 39.40625 66.21875 
Q 28.65625 66.21875 22.328125 58.203125 
Q 16.015625 50.203125 16.015625 36.375 
Q 16.015625 22.609375 22.328125 14.59375 
Q 28.65625 6.59375 39.40625 6.59375 
Q 50.140625 6.59375 56.421875 14.59375 
Q 62.703125 22.609375 62.703125 36.375 
Q 62.703125 50.203125 56.421875 58.203125 
Q 50.140625 66.21875 39.40625 66.21875 
z
M 39.40625 74.21875 
Q 54.734375 74.21875 63.90625 63.9375 
Q 73.09375 53.65625 73.09375 36.375 
Q 73.09375 19.140625 63.90625 8.859375 
Q 54.734375 -1.421875 39.40625 -1.421875 
Q 24.03125 -1.421875 14.8125 8.828125 
Q 5.609375 19.09375 5.609375 36.375 
Q 5.609375 53.65625 14.8125 63.9375 
Q 24.03125 74.21875 39.40625 74.21875 
z
" id="DejaVuSans-79"/>
        <path d="M 48.78125 52.59375 
L 48.78125 44.1875 
Q 44.96875 46.296875 41.140625 47.34375 
Q 37.3125 48.390625 33.40625 48.390625 
Q 24.65625 48.390625 19.8125 42.84375 
Q 14.984375 37.3125 14.984375 27.296875 
Q 14.984375 17.28125 19.8125 11.734375 
Q 24.65625 6.203125 33.40625 6.203125 
Q 37.3125 6.203125 41.140625 7.25 
Q 44.96875 8.296875 48.78125 10.40625 
L 48.78125 2.09375 
Q 45.015625 0.34375 40.984375 -0.53125 
Q 36.96875 -1.421875 32.421875 -1.421875 
Q 20.0625 -1.421875 12.78125 6.34375 
Q 5.515625 14.109375 5.515625 27.296875 
Q 5.515625 40.671875 12.859375 48.328125 
Q 20.21875 56 33.015625 56 
Q 37.15625 56 41.109375 55.140625 
Q 45.0625 54.296875 48.78125 52.59375 
z
" id="DejaVuSans-99"/>
        <path d="M 18.3125 70.21875 
L 18.3125 54.6875 
L 36.8125 54.6875 
L 36.8125 47.703125 
L 18.3125 47.703125 
L 18.3125 18.015625 
Q 18.3125 11.328125 20.140625 9.421875 
Q 21.96875 7.515625 27.59375 7.515625 
L 36.8125 7.515625 
L 36.8125 0 
L 27.59375 0 
Q 17.1875 0 13.234375 3.875 
Q 9.28125 7.765625 9.28125 18.015625 
L 9.28125 47.703125 
L 2.6875 47.703125 
L 2.6875 54.6875 
L 9.28125 54.6875 
L 9.28125 70.21875 
z
" id="DejaVuSans-116"/>
       </defs>
       <use xlink:href="#DejaVuSans-79"/>
       <use x="78.710938" xlink:href="#DejaVuSans-99"/>
       <use x="133.691406" xlink:href="#DejaVuSans-116"/>
      </g>
     </g>
    </g>
    <g id="xtick_4">
     <g id="line2d_4">
      <g>
       <use style="stroke:#000000;stroke-width:0.8;" x="364.16185" xlink:href="#mcf1cebe07e" y="315"/>
      </g>
     </g>
     <g id="text_3">
      <!-- Nov -->
      <g transform="translate(354.402475 329.598437)scale(0.1 -0.1)">
       <defs>
        <path d="M 9.8125 72.90625 
L 23.09375 72.90625 
L 55.421875 11.921875 
L 55.421875 72.90625 
L 64.984375 72.90625 
L 64.984375 0 
L 51.703125 0 
L 19.390625 60.984375 
L 19.390625 0 
L 9.8125 0 
z
" id="DejaVuSans-78"/>
        <path d="M 30.609375 48.390625 
Q 23.390625 48.390625 19.1875 42.75 
Q 14.984375 37.109375 14.984375 27.296875 
Q 14.984375 17.484375 19.15625 11.84375 
Q 23.34375 6.203125 30.609375 6.203125 
Q 37.796875 6.203125 41.984375 11.859375 
Q 46.1875 17.53125 46.1875 27.296875 
Q 46.1875 37.015625 41.984375 42.703125 
Q 37.796875 48.390625 30.609375 48.390625 
z
M 30.609375 56 
Q 42.328125 56 49.015625 48.375 
Q 55.71875 40.765625 55.71875 27.296875 
Q 55.71875 13.875 49.015625 6.21875 
Q 42.328125 -1.421875 30.609375 -1.421875 
Q 18.84375 -1.421875 12.171875 6.21875 
Q 5.515625 13.875 5.515625 27.296875 
Q 5.515625 40.765625 12.171875 48.375 
Q 18.84375 56 30.609375 56 
z
" id="DejaVuSans-111"/>
        <path d="M 2.984375 54.6875 
L 12.5 54.6875 
L 29.59375 8.796875 
L 46.6875 54.6875 
L 56.203125 54.6875 
L 35.6875 0 
L 23.484375 0 
z
" id="DejaVuSans-118"/>
       </defs>
       <use xlink:href="#DejaVuSans-78"/>
       <use x="74.804688" xlink:href="#DejaVuSans-111"/>
       <use x="135.986328" xlink:href="#DejaVuSans-118"/>
      </g>
     </g>
    </g>
    <g id="xtick_5">
     <g id="line2d_5">
      <g>
       <use style="stroke:#000000;stroke-width:0.8;" x="460.924855" xlink:href="#mcf1cebe07e" y="315"/>
      </g>
     </g>
     <g id="text_4">
      <!-- Dec -->
      <g transform="translate(451.249074 329.598437)scale(0.1 -0.1)">
       <defs>
        <path d="M 19.671875 64.796875 
L 19.671875 8.109375 
L 31.59375 8.109375 
Q 46.6875 8.109375 53.6875 14.9375 
Q 60.6875 21.78125 60.6875 36.53125 
Q 60.6875 51.171875 53.6875 57.984375 
Q 46.6875 64.796875 31.59375 64.796875 
z
M 9.8125 72.90625 
L 30.078125 72.90625 
Q 51.265625 72.90625 61.171875 64.09375 
Q 71.09375 55.28125 71.09375 36.53125 
Q 71.09375 17.671875 61.125 8.828125 
Q 51.171875 0 30.078125 0 
L 9.8125 0 
z
" id="DejaVuSans-68"/>
       </defs>
       <use xlink:href="#DejaVuSans-68"/>
       <use x="77.001953" xlink:href="#DejaVuSans-101"/>
       <use x="138.525391" xlink:href="#DejaVuSans-99"/>
      </g>
     </g>
    </g>
    <g id="xtick_6">
     <g id="line2d_6">
      <g>
       <use style="stroke:#000000;stroke-width:0.8;" x="560.913295" xlink:href="#mcf1cebe07e" y="315"/>
      </g>
     </g>
     <g id="text_5">
      <!-- Jan -->
      <g transform="translate(553.205482 329.598437)scale(0.1 -0.1)">
       <defs>
        <path d="M 9.8125 72.90625 
L 19.671875 72.90625 
L 19.671875 5.078125 
Q 19.671875 -8.109375 14.671875 -14.0625 
Q 9.671875 -20.015625 -1.421875 -20.015625 
L -5.171875 -20.015625 
L -5.171875 -11.71875 
L -2.09375 -11.71875 
Q 4.4375 -11.71875 7.125 -8.046875 
Q 9.8125 -4.390625 9.8125 5.078125 
z
" id="DejaVuSans-74"/>
        <path d="M 34.28125 27.484375 
Q 23.390625 27.484375 19.1875 25 
Q 14.984375 22.515625 14.984375 16.5 
Q 14.984375 11.71875 18.140625 8.90625 
Q 21.296875 6.109375 26.703125 6.109375 
Q 34.1875 6.109375 38.703125 11.40625 
Q 43.21875 16.703125 43.21875 25.484375 
L 43.21875 27.484375 
z
M 52.203125 31.203125 
L 52.203125 0 
L 43.21875 0 
L 43.21875 8.296875 
Q 40.140625 3.328125 35.546875 0.953125 
Q 30.953125 -1.421875 24.3125 -1.421875 
Q 15.921875 -1.421875 10.953125 3.296875 
Q 6 8.015625 6 15.921875 
Q 6 25.140625 12.171875 29.828125 
Q 18.359375 34.515625 30.609375 34.515625 
L 43.21875 34.515625 
L 43.21875 35.40625 
Q 43.21875 41.609375 39.140625 45 
Q 35.0625 48.390625 27.6875 48.390625 
Q 23 48.390625 18.546875 47.265625 
Q 14.109375 46.140625 10.015625 43.890625 
L 10.015625 52.203125 
Q 14.9375 54.109375 19.578125 55.046875 
Q 24.21875 56 28.609375 56 
Q 40.484375 56 46.34375 49.84375 
Q 52.203125 43.703125 52.203125 31.203125 
z
" id="DejaVuSans-97"/>
        <path d="M 54.890625 33.015625 
L 54.890625 0 
L 45.90625 0 
L 45.90625 32.71875 
Q 45.90625 40.484375 42.875 44.328125 
Q 39.84375 48.1875 33.796875 48.1875 
Q 26.515625 48.1875 22.3125 43.546875 
Q 18.109375 38.921875 18.109375 30.90625 
L 18.109375 0 
L 9.078125 0 
L 9.078125 54.6875 
L 18.109375 54.6875 
L 18.109375 46.1875 
Q 21.34375 51.125 25.703125 53.5625 
Q 30.078125 56 35.796875 56 
Q 45.21875 56 50.046875 50.171875 
Q 54.890625 44.34375 54.890625 33.015625 
z
" id="DejaVuSans-110"/>
       </defs>
       <use xlink:href="#DejaVuSans-74"/>
       <use x="29.492188" xlink:href="#DejaVuSans-97"/>
       <use x="90.771484" xlink:href="#DejaVuSans-110"/>
      </g>
      <!-- 2021 -->
      <g transform="translate(548.188295 340.79625)scale(0.1 -0.1)">
       <defs>
        <path d="M 19.1875 8.296875 
L 53.609375 8.296875 
L 53.609375 0 
L 7.328125 0 
L 7.328125 8.296875 
Q 12.9375 14.109375 22.625 23.890625 
Q 32.328125 33.6875 34.8125 36.53125 
Q 39.546875 41.84375 41.421875 45.53125 
Q 43.3125 49.21875 43.3125 52.78125 
Q 43.3125 58.59375 39.234375 62.25 
Q 35.15625 65.921875 28.609375 65.921875 
Q 23.96875 65.921875 18.8125 64.3125 
Q 13.671875 62.703125 7.8125 59.421875 
L 7.8125 69.390625 
Q 13.765625 71.78125 18.9375 73 
Q 24.125 74.21875 28.421875 74.21875 
Q 39.75 74.21875 46.484375 68.546875 
Q 53.21875 62.890625 53.21875 53.421875 
Q 53.21875 48.921875 51.53125 44.890625 
Q 49.859375 40.875 45.40625 35.40625 
Q 44.1875 33.984375 37.640625 27.21875 
Q 31.109375 20.453125 19.1875 8.296875 
z
" id="DejaVuSans-50"/>
        <path d="M 31.78125 66.40625 
Q 24.171875 66.40625 20.328125 58.90625 
Q 16.5 51.421875 16.5 36.375 
Q 16.5 21.390625 20.328125 13.890625 
Q 24.171875 6.390625 31.78125 6.390625 
Q 39.453125 6.390625 43.28125 13.890625 
Q 47.125 21.390625 47.125 36.375 
Q 47.125 51.421875 43.28125 58.90625 
Q 39.453125 66.40625 31.78125 66.40625 
z
M 31.78125 74.21875 
Q 44.046875 74.21875 50.515625 64.515625 
Q 56.984375 54.828125 56.984375 36.375 
Q 56.984375 17.96875 50.515625 8.265625 
Q 44.046875 -1.421875 31.78125 -1.421875 
Q 19.53125 -1.421875 13.0625 8.265625 
Q 6.59375 17.96875 6.59375 36.375 
Q 6.59375 54.828125 13.0625 64.515625 
Q 19.53125 74.21875 31.78125 74.21875 
z
" id="DejaVuSans-48"/>
        <path d="M 12.40625 8.296875 
L 28.515625 8.296875 
L 28.515625 63.921875 
L 10.984375 60.40625 
L 10.984375 69.390625 
L 28.421875 72.90625 
L 38.28125 72.90625 
L 38.28125 8.296875 
L 54.390625 8.296875 
L 54.390625 0 
L 12.40625 0 
z
" id="DejaVuSans-49"/>
       </defs>
       <use xlink:href="#DejaVuSans-50"/>
       <use x="63.623047" xlink:href="#DejaVuSans-48"/>
       <use x="127.246094" xlink:href="#DejaVuSans-50"/>
       <use x="190.869141" xlink:href="#DejaVuSans-49"/>
      </g>
     </g>
    </g>
    <g id="xtick_7">
     <g id="line2d_7">
      <g>
       <use style="stroke:#000000;stroke-width:0.8;" x="648" xlink:href="#mcf1cebe07e" y="315"/>
      </g>
     </g>
    </g>
    <g id="xtick_8">
     <g id="line2d_8">
      <defs>
       <path d="M 0 0 
L 0 2 
" id="m0bd94a4ec9" style="stroke:#000000;stroke-width:0.6;"/>
      </defs>
      <g>
       <use style="stroke:#000000;stroke-width:0.6;" x="96.450867" xlink:href="#m0bd94a4ec9" y="315"/>
      </g>
     </g>
    </g>
    <g id="xtick_9">
     <g id="line2d_9">
      <g>
       <use style="stroke:#000000;stroke-width:0.6;" x="119.028902" xlink:href="#m0bd94a4ec9" y="315"/>
      </g>
     </g>
    </g>
    <g id="xtick_10">
     <g id="line2d_10">
      <g>
       <use style="stroke:#000000;stroke-width:0.6;" x="141.606936" xlink:href="#m0bd94a4ec9" y="315"/>
      </g>
     </g>
    </g>
    <g id="xtick_11">
     <g id="line2d_11">
      <g>
       <use style="stroke:#000000;stroke-width:0.6;" x="164.184971" xlink:href="#m0bd94a4ec9" y="315"/>
      </g>
     </g>
    </g>
    <g id="xtick_12">
     <g id="line2d_12">
      <g>
       <use style="stroke:#000000;stroke-width:0.6;" x="186.763006" xlink:href="#m0bd94a4ec9" y="315"/>
      </g>
     </g>
    </g>
    <g id="xtick_13">
     <g id="line2d_13">
      <g>
       <use style="stroke:#000000;stroke-width:0.6;" x="209.34104" xlink:href="#m0bd94a4ec9" y="315"/>
      </g>
     </g>
    </g>
    <g id="xtick_14">
     <g id="line2d_14">
      <g>
       <use style="stroke:#000000;stroke-width:0.6;" x="231.919075" xlink:href="#m0bd94a4ec9" y="315"/>
      </g>
     </g>
    </g>
    <g id="xtick_15">
     <g id="line2d_15">
      <g>
       <use style="stroke:#000000;stroke-width:0.6;" x="254.49711" xlink:href="#m0bd94a4ec9" y="315"/>
      </g>
     </g>
    </g>
    <g id="xtick_16">
     <g id="line2d_16">
      <g>
       <use style="stroke:#000000;stroke-width:0.6;" x="277.075145" xlink:href="#m0bd94a4ec9" y="315"/>
      </g>
     </g>
    </g>
    <g id="xtick_17">
     <g id="line2d_17">
      <g>
       <use style="stroke:#000000;stroke-width:0.6;" x="299.653179" xlink:href="#m0bd94a4ec9" y="315"/>
      </g>
     </g>
    </g>
    <g id="xtick_18">
     <g id="line2d_18">
      <g>
       <use style="stroke:#000000;stroke-width:0.6;" x="322.231214" xlink:href="#m0bd94a4ec9" y="315"/>
      </g>
     </g>
    </g>
    <g id="xtick_19">
     <g id="line2d_19">
      <g>
       <use style="stroke:#000000;stroke-width:0.6;" x="344.809249" xlink:href="#m0bd94a4ec9" y="315"/>
      </g>
     </g>
    </g>
    <g id="xtick_20">
     <g id="line2d_20">
      <g>
       <use style="stroke:#000000;stroke-width:0.6;" x="367.387283" xlink:href="#m0bd94a4ec9" y="315"/>
      </g>
     </g>
    </g>
    <g id="xtick_21">
     <g id="line2d_21">
      <g>
       <use style="stroke:#000000;stroke-width:0.6;" x="389.965318" xlink:href="#m0bd94a4ec9" y="315"/>
      </g>
     </g>
    </g>
    <g id="xtick_22">
     <g id="line2d_22">
      <g>
       <use style="stroke:#000000;stroke-width:0.6;" x="412.543353" xlink:href="#m0bd94a4ec9" y="315"/>
      </g>
     </g>
    </g>
    <g id="xtick_23">
     <g id="line2d_23">
      <g>
       <use style="stroke:#000000;stroke-width:0.6;" x="435.121387" xlink:href="#m0bd94a4ec9" y="315"/>
      </g>
     </g>
    </g>
    <g id="xtick_24">
     <g id="line2d_24">
      <g>
       <use style="stroke:#000000;stroke-width:0.6;" x="457.699422" xlink:href="#m0bd94a4ec9" y="315"/>
      </g>
     </g>
    </g>
    <g id="xtick_25">
     <g id="line2d_25">
      <g>
       <use style="stroke:#000000;stroke-width:0.6;" x="480.277457" xlink:href="#m0bd94a4ec9" y="315"/>
      </g>
     </g>
    </g>
    <g id="xtick_26">
     <g id="line2d_26">
      <g>
       <use style="stroke:#000000;stroke-width:0.6;" x="502.855491" xlink:href="#m0bd94a4ec9" y="315"/>
      </g>
     </g>
    </g>
    <g id="xtick_27">
     <g id="line2d_27">
      <g>
       <use style="stroke:#000000;stroke-width:0.6;" x="525.433526" xlink:href="#m0bd94a4ec9" y="315"/>
      </g>
     </g>
    </g>
    <g id="xtick_28">
     <g id="line2d_28">
      <g>
       <use style="stroke:#000000;stroke-width:0.6;" x="548.011561" xlink:href="#m0bd94a4ec9" y="315"/>
      </g>
     </g>
    </g>
    <g id="xtick_29">
     <g id="line2d_29">
      <g>
       <use style="stroke:#000000;stroke-width:0.6;" x="570.589595" xlink:href="#m0bd94a4ec9" y="315"/>
      </g>
     </g>
    </g>
    <g id="xtick_30">
     <g id="line2d_30">
      <g>
       <use style="stroke:#000000;stroke-width:0.6;" x="593.16763" xlink:href="#m0bd94a4ec9" y="315"/>
      </g>
     </g>
    </g>
    <g id="xtick_31">
     <g id="line2d_31">
      <g>
       <use style="stroke:#000000;stroke-width:0.6;" x="615.745665" xlink:href="#m0bd94a4ec9" y="315"/>
      </g>
     </g>
    </g>
    <g id="xtick_32">
     <g id="line2d_32">
      <g>
       <use style="stroke:#000000;stroke-width:0.6;" x="638.323699" xlink:href="#m0bd94a4ec9" y="315"/>
      </g>
     </g>
    </g>
    <g id="text_6">
     <!-- date -->
     <g transform="translate(357.725 354.474375)scale(0.1 -0.1)">
      <defs>
       <path d="M 45.40625 46.390625 
L 45.40625 75.984375 
L 54.390625 75.984375 
L 54.390625 0 
L 45.40625 0 
L 45.40625 8.203125 
Q 42.578125 3.328125 38.25 0.953125 
Q 33.9375 -1.421875 27.875 -1.421875 
Q 17.96875 -1.421875 11.734375 6.484375 
Q 5.515625 14.40625 5.515625 27.296875 
Q 5.515625 40.1875 11.734375 48.09375 
Q 17.96875 56 27.875 56 
Q 33.9375 56 38.25 53.625 
Q 42.578125 51.265625 45.40625 46.390625 
z
M 14.796875 27.296875 
Q 14.796875 17.390625 18.875 11.75 
Q 22.953125 6.109375 30.078125 6.109375 
Q 37.203125 6.109375 41.296875 11.75 
Q 45.40625 17.390625 45.40625 27.296875 
Q 45.40625 37.203125 41.296875 42.84375 
Q 37.203125 48.484375 30.078125 48.484375 
Q 22.953125 48.484375 18.875 42.84375 
Q 14.796875 37.203125 14.796875 27.296875 
z
" id="DejaVuSans-100"/>
      </defs>
      <use xlink:href="#DejaVuSans-100"/>
      <use x="63.476562" xlink:href="#DejaVuSans-97"/>
      <use x="124.755859" xlink:href="#DejaVuSans-116"/>
      <use x="163.964844" xlink:href="#DejaVuSans-101"/>
     </g>
    </g>
   </g>
   <g id="matplotlib.axis_2">
    <g id="ytick_1">
     <g id="line2d_33">
      <path clip-path="url(#pb11978c230)" d="M 90 312.053589 
L 648 312.053589 
" style="fill:none;stroke:#b0b0b0;stroke-dasharray:0.8,1.32;stroke-dashoffset:0;stroke-width:0.8;"/>
     </g>
     <g id="line2d_34">
      <defs>
       <path d="M 0 0 
L -3.5 0 
" id="m82a96ae336" style="stroke:#000000;stroke-width:0.8;"/>
      </defs>
      <g>
       <use style="stroke:#000000;stroke-width:0.8;" x="90" xlink:href="#m82a96ae336" y="312.053589"/>
      </g>
     </g>
     <g id="text_7">
      <!-- 0.50 -->
      <g transform="translate(60.734375 315.852808)scale(0.1 -0.1)">
       <defs>
        <path d="M 10.6875 12.40625 
L 21 12.40625 
L 21 0 
L 10.6875 0 
z
" id="DejaVuSans-46"/>
        <path d="M 10.796875 72.90625 
L 49.515625 72.90625 
L 49.515625 64.59375 
L 19.828125 64.59375 
L 19.828125 46.734375 
Q 21.96875 47.46875 24.109375 47.828125 
Q 26.265625 48.1875 28.421875 48.1875 
Q 40.625 48.1875 47.75 41.5 
Q 54.890625 34.8125 54.890625 23.390625 
Q 54.890625 11.625 47.5625 5.09375 
Q 40.234375 -1.421875 26.90625 -1.421875 
Q 22.3125 -1.421875 17.546875 -0.640625 
Q 12.796875 0.140625 7.71875 1.703125 
L 7.71875 11.625 
Q 12.109375 9.234375 16.796875 8.0625 
Q 21.484375 6.890625 26.703125 6.890625 
Q 35.15625 6.890625 40.078125 11.328125 
Q 45.015625 15.765625 45.015625 23.390625 
Q 45.015625 31 40.078125 35.4375 
Q 35.15625 39.890625 26.703125 39.890625 
Q 22.75 39.890625 18.8125 39.015625 
Q 14.890625 38.140625 10.796875 36.28125 
z
" id="DejaVuSans-53"/>
       </defs>
       <use xlink:href="#DejaVuSans-48"/>
       <use x="63.623047" xlink:href="#DejaVuSans-46"/>
       <use x="95.410156" xlink:href="#DejaVuSans-53"/>
       <use x="159.033203" xlink:href="#DejaVuSans-48"/>
      </g>
     </g>
    </g>
    <g id="ytick_2">
     <g id="line2d_35">
      <path clip-path="url(#pb11978c230)" d="M 90 274.611944 
L 648 274.611944 
" style="fill:none;stroke:#b0b0b0;stroke-dasharray:0.8,1.32;stroke-dashoffset:0;stroke-width:0.8;"/>
     </g>
     <g id="line2d_36">
      <g>
       <use style="stroke:#000000;stroke-width:0.8;" x="90" xlink:href="#m82a96ae336" y="274.611944"/>
      </g>
     </g>
     <g id="text_8">
      <!-- 0.75 -->
      <g transform="translate(60.734375 278.411163)scale(0.1 -0.1)">
       <defs>
        <path d="M 8.203125 72.90625 
L 55.078125 72.90625 
L 55.078125 68.703125 
L 28.609375 0 
L 18.3125 0 
L 43.21875 64.59375 
L 8.203125 64.59375 
z
" id="DejaVuSans-55"/>
       </defs>
       <use xlink:href="#DejaVuSans-48"/>
       <use x="63.623047" xlink:href="#DejaVuSans-46"/>
       <use x="95.410156" xlink:href="#DejaVuSans-55"/>
       <use x="159.033203" xlink:href="#DejaVuSans-53"/>
      </g>
     </g>
    </g>
    <g id="ytick_3">
     <g id="line2d_37">
      <path clip-path="url(#pb11978c230)" d="M 90 237.170299 
L 648 237.170299 
" style="fill:none;stroke:#b0b0b0;stroke-dasharray:0.8,1.32;stroke-dashoffset:0;stroke-width:0.8;"/>
     </g>
     <g id="line2d_38">
      <g>
       <use style="stroke:#000000;stroke-width:0.8;" x="90" xlink:href="#m82a96ae336" y="237.170299"/>
      </g>
     </g>
     <g id="text_9">
      <!-- 1.00 -->
      <g transform="translate(60.734375 240.969518)scale(0.1 -0.1)">
       <use xlink:href="#DejaVuSans-49"/>
       <use x="63.623047" xlink:href="#DejaVuSans-46"/>
       <use x="95.410156" xlink:href="#DejaVuSans-48"/>
       <use x="159.033203" xlink:href="#DejaVuSans-48"/>
      </g>
     </g>
    </g>
    <g id="ytick_4">
     <g id="line2d_39">
      <path clip-path="url(#pb11978c230)" d="M 90 199.728654 
L 648 199.728654 
" style="fill:none;stroke:#b0b0b0;stroke-dasharray:0.8,1.32;stroke-dashoffset:0;stroke-width:0.8;"/>
     </g>
     <g id="line2d_40">
      <g>
       <use style="stroke:#000000;stroke-width:0.8;" x="90" xlink:href="#m82a96ae336" y="199.728654"/>
      </g>
     </g>
     <g id="text_10">
      <!-- 1.25 -->
      <g transform="translate(60.734375 203.527873)scale(0.1 -0.1)">
       <use xlink:href="#DejaVuSans-49"/>
       <use x="63.623047" xlink:href="#DejaVuSans-46"/>
       <use x="95.410156" xlink:href="#DejaVuSans-50"/>
       <use x="159.033203" xlink:href="#DejaVuSans-53"/>
      </g>
     </g>
    </g>
    <g id="ytick_5">
     <g id="line2d_41">
      <path clip-path="url(#pb11978c230)" d="M 90 162.287009 
L 648 162.287009 
" style="fill:none;stroke:#b0b0b0;stroke-dasharray:0.8,1.32;stroke-dashoffset:0;stroke-width:0.8;"/>
     </g>
     <g id="line2d_42">
      <g>
       <use style="stroke:#000000;stroke-width:0.8;" x="90" xlink:href="#m82a96ae336" y="162.287009"/>
      </g>
     </g>
     <g id="text_11">
      <!-- 1.50 -->
      <g transform="translate(60.734375 166.086228)scale(0.1 -0.1)">
       <use xlink:href="#DejaVuSans-49"/>
       <use x="63.623047" xlink:href="#DejaVuSans-46"/>
       <use x="95.410156" xlink:href="#DejaVuSans-53"/>
       <use x="159.033203" xlink:href="#DejaVuSans-48"/>
      </g>
     </g>
    </g>
    <g id="ytick_6">
     <g id="line2d_43">
      <path clip-path="url(#pb11978c230)" d="M 90 124.845364 
L 648 124.845364 
" style="fill:none;stroke:#b0b0b0;stroke-dasharray:0.8,1.32;stroke-dashoffset:0;stroke-width:0.8;"/>
     </g>
     <g id="line2d_44">
      <g>
       <use style="stroke:#000000;stroke-width:0.8;" x="90" xlink:href="#m82a96ae336" y="124.845364"/>
      </g>
     </g>
     <g id="text_12">
      <!-- 1.75 -->
      <g transform="translate(60.734375 128.644583)scale(0.1 -0.1)">
       <use xlink:href="#DejaVuSans-49"/>
       <use x="63.623047" xlink:href="#DejaVuSans-46"/>
       <use x="95.410156" xlink:href="#DejaVuSans-55"/>
       <use x="159.033203" xlink:href="#DejaVuSans-53"/>
      </g>
     </g>
    </g>
    <g id="ytick_7">
     <g id="line2d_45">
      <path clip-path="url(#pb11978c230)" d="M 90 87.403719 
L 648 87.403719 
" style="fill:none;stroke:#b0b0b0;stroke-dasharray:0.8,1.32;stroke-dashoffset:0;stroke-width:0.8;"/>
     </g>
     <g id="line2d_46">
      <g>
       <use style="stroke:#000000;stroke-width:0.8;" x="90" xlink:href="#m82a96ae336" y="87.403719"/>
      </g>
     </g>
     <g id="text_13">
      <!-- 2.00 -->
      <g transform="translate(60.734375 91.202938)scale(0.1 -0.1)">
       <use xlink:href="#DejaVuSans-50"/>
       <use x="63.623047" xlink:href="#DejaVuSans-46"/>
       <use x="95.410156" xlink:href="#DejaVuSans-48"/>
       <use x="159.033203" xlink:href="#DejaVuSans-48"/>
      </g>
     </g>
    </g>
    <g id="ytick_8">
     <g id="line2d_47">
      <path clip-path="url(#pb11978c230)" d="M 90 49.962074 
L 648 49.962074 
" style="fill:none;stroke:#b0b0b0;stroke-dasharray:0.8,1.32;stroke-dashoffset:0;stroke-width:0.8;"/>
     </g>
     <g id="line2d_48">
      <g>
       <use style="stroke:#000000;stroke-width:0.8;" x="90" xlink:href="#m82a96ae336" y="49.962074"/>
      </g>
     </g>
     <g id="text_14">
      <!-- 2.25 -->
      <g transform="translate(60.734375 53.761293)scale(0.1 -0.1)">
       <use xlink:href="#DejaVuSans-50"/>
       <use x="63.623047" xlink:href="#DejaVuSans-46"/>
       <use x="95.410156" xlink:href="#DejaVuSans-50"/>
       <use x="159.033203" xlink:href="#DejaVuSans-53"/>
      </g>
     </g>
    </g>
   </g>
   <g id="line2d_49">
    <path clip-path="url(#pb11978c230)" d="M 90 145.305612 
L 93.225434 145.514222 
L 96.450867 144.079641 
L 99.676301 142.988947 
L 102.901734 144.163432 
L 106.127168 143.229404 
L 109.352601 144.064148 
L 112.578035 144.591365 
L 115.803468 147.855013 
L 119.028902 153.467631 
L 122.254335 156.483969 
L 125.479769 164.182848 
L 128.705202 170.293047 
L 131.930636 178.332451 
L 141.606936 209.318049 
L 144.83237 218.815272 
L 148.057803 228.659768 
L 151.283237 235.556575 
L 154.508671 244.084511 
L 157.734104 251.01736 
L 160.959538 256.324048 
L 164.184971 263.062232 
L 167.410405 266.765326 
L 170.635838 270.999151 
L 173.861272 274.787961 
L 177.086705 276.722934 
L 180.312139 279.111548 
L 183.537572 281.287589 
L 189.988439 284.433494 
L 196.439306 286.08534 
L 199.66474 286.89153 
L 202.890173 287.426261 
L 206.115607 286.504751 
L 209.34104 286.269568 
L 212.566474 285.540539 
L 219.017341 285.080965 
L 222.242775 283.545185 
L 225.468208 282.274603 
L 235.144509 277.013057 
L 238.369942 274.553956 
L 241.595376 271.869764 
L 244.820809 267.771784 
L 248.046243 264.520188 
L 251.271676 259.133477 
L 254.49711 254.432622 
L 257.722543 248.002686 
L 260.947977 242.066075 
L 264.17341 235.243328 
L 267.398844 227.346786 
L 270.624277 218.226566 
L 273.849711 210.291247 
L 280.300578 190.425092 
L 283.526012 179.599789 
L 286.751445 170.10419 
L 293.202312 148.322353 
L 296.427746 139.22207 
L 299.653179 130.610343 
L 302.878613 119.656257 
L 306.104046 112.352612 
L 312.554913 101.966832 
L 315.780347 98.22758 
L 319.00578 96.698206 
L 322.231214 97.024436 
L 325.456647 104.133649 
L 328.682081 108.380257 
L 331.907514 116.216327 
L 335.132948 123.635098 
L 338.358382 134.133815 
L 341.583815 147.178392 
L 348.034682 168.419948 
L 351.260116 181.906716 
L 354.485549 192.821819 
L 357.710983 204.246678 
L 360.936416 213.48877 
L 364.16185 221.219748 
L 370.612717 237.779142 
L 373.83815 244.222517 
L 377.063584 249.295594 
L 380.289017 255.036042 
L 386.739884 261.084476 
L 389.965318 263.464246 
L 396.416185 264.5284 
L 402.867052 264.680661 
L 409.317919 262.757919 
L 415.768786 258.613261 
L 418.99422 257.17315 
L 425.445087 253.872709 
L 428.67052 252.563738 
L 431.895954 252.673935 
L 435.121387 253.388834 
L 438.346821 252.820237 
L 441.572254 252.908072 
L 444.797688 252.654349 
L 448.023121 254.128371 
L 451.248555 254.826843 
L 454.473988 255.193759 
L 457.699422 256.007149 
L 460.924855 255.776744 
L 464.150289 257.778185 
L 467.375723 257.668565 
L 470.601156 258.362028 
L 473.82659 258.817294 
L 480.277457 260.180129 
L 486.728324 259.462887 
L 489.953757 260.119328 
L 493.179191 260.053979 
L 496.404624 261.178992 
L 499.630058 261.137939 
L 502.855491 261.960514 
L 506.080925 262.202473 
L 509.306358 262.012626 
L 512.531792 262.26676 
L 515.757225 262.006522 
L 518.982659 260.363696 
L 522.208092 260.922398 
L 525.433526 261.08006 
L 531.884393 259.042722 
L 535.109827 257.056662 
L 538.33526 255.930513 
L 541.560694 254.585266 
L 544.786127 252.610696 
L 548.011561 251.642301 
L 551.236994 249.777247 
L 554.462428 247.393284 
L 557.687861 245.466525 
L 564.138728 242.235317 
L 567.364162 241.603885 
L 570.589595 240.80597 
L 573.815029 237.580946 
L 577.040462 237.436413 
L 580.265896 236.8378 
L 583.491329 235.488588 
L 586.716763 235.463182 
L 589.942197 234.699272 
L 593.16763 234.347439 
L 596.393064 233.661648 
L 599.618497 234.335225 
L 602.843931 234.714464 
L 606.069364 233.522628 
L 609.294798 234.012678 
L 612.520231 232.505797 
L 615.745665 232.120918 
L 618.971098 233.35185 
L 622.196532 231.893819 
L 625.421965 232.135325 
L 628.647399 232.759274 
L 635.098266 233.41475 
L 638.323699 232.366684 
L 641.549133 232.27478 
L 644.774566 232.6795 
L 648 231.927091 
L 651.225434 233.918462 
L 654.450867 232.745515 
L 657.676301 233.26211 
L 660.901734 233.092599 
L 664.127168 232.041283 
L 667.352601 232.767067 
L 670.578035 233.976437 
L 673.803468 232.83987 
L 673.803468 232.83987 
" style="fill:none;stroke:#fc997a;stroke-linecap:square;stroke-width:1.5;"/>
   </g>
   <g id="line2d_50">
    <path clip-path="url(#pb11978c230)" d="M 90 237.170299 
L 648 237.170299 
" style="fill:none;stroke:#000000;stroke-dasharray:3.7,1.6;stroke-dashoffset:0;"/>
   </g>
   <g id="patch_3">
    <path d="M 90 315 
L 90 43.2 
" style="fill:none;stroke:#000000;stroke-linecap:square;stroke-linejoin:miter;stroke-width:0.8;"/>
   </g>
   <g id="patch_4">
    <path d="M 648 315 
L 648 43.2 
" style="fill:none;stroke:#000000;stroke-linecap:square;stroke-linejoin:miter;stroke-width:0.8;"/>
   </g>
   <g id="patch_5">
    <path d="M 90 315 
L 648 315 
" style="fill:none;stroke:#000000;stroke-linecap:square;stroke-linejoin:miter;stroke-width:0.8;"/>
   </g>
   <g id="patch_6">
    <path d="M 90 43.2 
L 648 43.2 
" style="fill:none;stroke:#000000;stroke-linecap:square;stroke-linejoin:miter;stroke-width:0.8;"/>
   </g>
   <g id="text_15">
    <!-- 292 ינופצ ןלוג $R_t$ -->
    <g transform="translate(324.18 37.2)scale(0.12 -0.12)">
     <defs>
      <path d="M 10.984375 1.515625 
L 10.984375 10.5 
Q 14.703125 8.734375 18.5 7.8125 
Q 22.3125 6.890625 25.984375 6.890625 
Q 35.75 6.890625 40.890625 13.453125 
Q 46.046875 20.015625 46.78125 33.40625 
Q 43.953125 29.203125 39.59375 26.953125 
Q 35.25 24.703125 29.984375 24.703125 
Q 19.046875 24.703125 12.671875 31.3125 
Q 6.296875 37.9375 6.296875 49.421875 
Q 6.296875 60.640625 12.9375 67.421875 
Q 19.578125 74.21875 30.609375 74.21875 
Q 43.265625 74.21875 49.921875 64.515625 
Q 56.59375 54.828125 56.59375 36.375 
Q 56.59375 19.140625 48.40625 8.859375 
Q 40.234375 -1.421875 26.421875 -1.421875 
Q 22.703125 -1.421875 18.890625 -0.6875 
Q 15.09375 0.046875 10.984375 1.515625 
z
M 30.609375 32.421875 
Q 37.25 32.421875 41.125 36.953125 
Q 45.015625 41.5 45.015625 49.421875 
Q 45.015625 57.28125 41.125 61.84375 
Q 37.25 66.40625 30.609375 66.40625 
Q 23.96875 66.40625 20.09375 61.84375 
Q 16.21875 57.28125 16.21875 49.421875 
Q 16.21875 41.5 20.09375 36.953125 
Q 23.96875 32.421875 30.609375 32.421875 
z
" id="DejaVuSans-57"/>
      <path id="DejaVuSans-32"/>
      <path d="M 15.71875 54.6875 
L 15.71875 24.125 
L 6.640625 20.40625 
L 6.640625 54.6875 
z
" id="DejaVuSans-1497"/>
      <path d="M 21.78125 6.984375 
L 21.78125 36.28125 
Q 21.78125 42.28125 19.328125 44.984375 
Q 16.890625 47.703125 11.71875 47.703125 
L 5.5625 47.703125 
L 5.5625 54.6875 
L 11.71875 54.6875 
Q 21.734375 54.6875 26.296875 50.359375 
Q 30.859375 46.046875 30.859375 35.25 
L 30.859375 0 
L 4.296875 0 
L 4.296875 6.984375 
z
" id="DejaVuSans-1504"/>
      <path d="M 18.171875 54.6875 
L 18.171875 0 
L 9.078125 0 
L 9.078125 54.6875 
z
" id="DejaVuSans-1493"/>
      <path d="M 9.078125 54.6875 
L 29.890625 54.6875 
Q 42.484375 54.6875 49.703125 47.5625 
Q 56.9375 40.4375 56.9375 27.34375 
Q 56.9375 14.265625 49.6875 7.125 
Q 42.4375 0 29.890625 0 
L 9.078125 0 
L 9.078125 6.9375 
L 26.171875 6.9375 
Q 37.703125 6.9375 42.796875 11.625 
Q 47.90625 16.3125 47.90625 27.9375 
Q 47.90625 38.625 42.625 43.15625 
Q 37.359375 47.703125 26.21875 47.703125 
L 18.171875 47.703125 
L 18.109375 36.859375 
Q 18.0625 33.296875 19.8125 31.609375 
Q 21.578125 29.9375 25.203125 29.9375 
Q 27.203125 29.9375 30.46875 30.5625 
L 30.46875 23.140625 
Q 26.46875 22.359375 23.1875 22.359375 
Q 16.65625 22.359375 12.859375 25.96875 
Q 9.078125 29.59375 9.078125 38.1875 
z
" id="DejaVuSans-1508"/>
      <path d="M 36.921875 6.9375 
L 4.296875 54.6875 
L 14.9375 54.6875 
L 33.84375 27 
Q 34.03125 27.15625 34.375 27.390625 
Q 35.546875 28.21875 36.171875 28.75 
Q 36.8125 29.296875 37.890625 30.5625 
Q 38.96875 31.84375 39.546875 33.171875 
Q 40.140625 34.515625 40.59375 36.71875 
Q 41.0625 38.921875 41.0625 41.609375 
L 41.0625 54.6875 
L 50.046875 54.6875 
L 50.046875 45.65625 
Q 50.046875 42.046875 49.609375 38.984375 
Q 49.171875 35.9375 48.53125 33.78125 
Q 47.90625 31.640625 46.78125 29.75 
Q 45.65625 27.875 44.71875 26.75 
Q 43.796875 25.640625 42.3125 24.484375 
Q 40.828125 23.34375 39.9375 22.828125 
Q 39.0625 22.3125 37.59375 21.53125 
L 50.25 3.46875 
L 50.25 0 
L 4.296875 0 
L 4.296875 6.9375 
z
" id="DejaVuSans-1510"/>
      <path d="M 18.171875 54.6875 
L 18.171875 -20.796875 
L 9.078125 -20.796875 
L 9.078125 54.6875 
z
" id="DejaVuSans-1503"/>
      <path d="M 18.796875 0 
L 38.53125 47.703125 
L 4.296875 47.703125 
L 4.296875 72.90625 
L 13.421875 72.90625 
L 13.421875 54.6875 
L 49.21875 54.640625 
L 49.078125 49.265625 
L 28.328125 0 
z
" id="DejaVuSans-1500"/>
      <path d="M 31.203125 29.59375 
Q 31.203125 22.5625 32.890625 14.75 
Q 34.578125 6.9375 38.328125 0 
L 28.609375 0 
Q 25.78125 6.59375 24.5625 12.0625 
Q 22.953125 8.109375 21.234375 5.59375 
Q 19.53125 3.078125 17.578125 1.75 
Q 15.625 0.4375 13.671875 -0.015625 
Q 11.71875 -0.484375 9.03125 -0.484375 
Q 6.78125 -0.484375 4.296875 0.203125 
L 4.296875 8.453125 
Q 5.953125 7.953125 7.71875 7.953125 
Q 9.859375 7.953125 11.546875 8.265625 
Q 13.234375 8.59375 15.328125 9.859375 
Q 17.4375 11.140625 18.796875 13.359375 
Q 20.171875 15.578125 21.140625 19.71875 
Q 22.125 23.875 22.125 29.59375 
Q 22.125 36.96875 20.875 40.890625 
Q 19.625 44.828125 17.15625 46.265625 
Q 14.703125 47.703125 10.203125 47.703125 
L 5.8125 47.703125 
L 5.8125 54.6875 
L 10.5 54.6875 
Q 21.296875 54.6875 26.25 48.734375 
Q 31.203125 42.78125 31.203125 29.59375 
z
" id="DejaVuSans-1490"/>
      <path d="M 25.203125 64.796875 
L 20.21875 38.921875 
L 32.90625 38.921875 
Q 40.375 38.921875 44.984375 43.046875 
Q 49.609375 47.171875 49.609375 53.8125 
Q 49.609375 59.125 46.5 61.953125 
Q 43.40625 64.796875 37.59375 64.796875 
z
M 43.3125 35.015625 
Q 46.4375 34.28125 48.515625 31.390625 
Q 50.59375 28.515625 53.328125 19.921875 
L 59.515625 0 
L 49.125 0 
L 43.40625 18.703125 
Q 41.21875 25.921875 38.328125 28.359375 
Q 35.453125 30.8125 29.5 30.8125 
L 18.609375 30.8125 
L 12.59375 0 
L 2.6875 0 
L 16.890625 72.90625 
L 39.109375 72.90625 
Q 49.21875 72.90625 54.609375 68.328125 
Q 60.015625 63.765625 60.015625 55.171875 
Q 60.015625 47.5625 55.421875 41.984375 
Q 50.828125 36.421875 43.3125 35.015625 
z
" id="DejaVuSans-Oblique-82"/>
      <path d="M 42.28125 54.6875 
L 40.921875 47.703125 
L 23 47.703125 
L 17.1875 18.015625 
Q 16.890625 16.359375 16.75 15.234375 
Q 16.609375 14.109375 16.609375 13.484375 
Q 16.609375 10.359375 18.484375 8.9375 
Q 20.359375 7.515625 24.515625 7.515625 
L 33.59375 7.515625 
L 32.078125 0 
L 23.484375 0 
Q 15.484375 0 11.546875 3.125 
Q 7.625 6.25 7.625 12.59375 
Q 7.625 13.71875 7.765625 15.0625 
Q 7.90625 16.40625 8.203125 18.015625 
L 14.015625 47.703125 
L 6.390625 47.703125 
L 7.8125 54.6875 
L 15.28125 54.6875 
L 18.3125 70.21875 
L 27.296875 70.21875 
L 24.3125 54.6875 
z
" id="DejaVuSans-Oblique-116"/>
     </defs>
     <use transform="translate(0 0.78125)" xlink:href="#DejaVuSans-50"/>
     <use transform="translate(61.873047 0.78125)" xlink:href="#DejaVuSans-57"/>
     <use transform="translate(123.746094 0.78125)" xlink:href="#DejaVuSans-50"/>
     <use transform="translate(187.369141 0.78125)" xlink:href="#DejaVuSans-32"/>
     <use transform="translate(219.15625 0.78125)" xlink:href="#DejaVuSans-1497"/>
     <use transform="translate(241.519531 0.78125)" xlink:href="#DejaVuSans-1504"/>
     <use transform="translate(281.558594 0.78125)" xlink:href="#DejaVuSans-1493"/>
     <use transform="translate(308.804688 0.78125)" xlink:href="#DejaVuSans-1508"/>
     <use transform="translate(371.255859 0.78125)" xlink:href="#DejaVuSans-1510"/>
     <use transform="translate(430.582031 0.78125)" xlink:href="#DejaVuSans-32"/>
     <use transform="translate(462.369141 0.78125)" xlink:href="#DejaVuSans-1503"/>
     <use transform="translate(489.615234 0.78125)" xlink:href="#DejaVuSans-1500"/>
     <use transform="translate(546.451172 0.78125)" xlink:href="#DejaVuSans-1493"/>
     <use transform="translate(573.697266 0.78125)" xlink:href="#DejaVuSans-1490"/>
     <use transform="translate(614.908203 0.78125)" xlink:href="#DejaVuSans-32"/>
     <use transform="translate(646.695312 0.78125)" xlink:href="#DejaVuSans-Oblique-82"/>
     <use transform="translate(716.177734 -15.625)scale(0.7)" xlink:href="#DejaVuSans-Oblique-116"/>
    </g>
   </g>
  </g>
 </g>
 <defs>
  <clipPath id="pb11978c230">
   <rect height="271.8" width="558" x="90" y="43.2"/>
  </clipPath>
 </defs>
</svg>
