<?xml version="1.0" encoding="utf-8" standalone="no"?>
<!DOCTYPE svg PUBLIC "-//W3C//DTD SVG 1.1//EN"
  "http://www.w3.org/Graphics/SVG/1.1/DTD/svg11.dtd">
<!-- Created with matplotlib (https://matplotlib.org/) -->
<svg height="360pt" version="1.1" viewBox="0 0 720 360" width="720pt" xmlns="http://www.w3.org/2000/svg" xmlns:xlink="http://www.w3.org/1999/xlink">
 <metadata>
  <rdf:RDF xmlns:cc="http://creativecommons.org/ns#" xmlns:dc="http://purl.org/dc/elements/1.1/" xmlns:rdf="http://www.w3.org/1999/02/22-rdf-syntax-ns#">
   <cc:Work>
    <dc:type rdf:resource="http://purl.org/dc/dcmitype/StillImage"/>
    <dc:date>2021-03-14T09:06:12.920698</dc:date>
    <dc:format>image/svg+xml</dc:format>
    <dc:creator>
     <cc:Agent>
      <dc:title>Matplotlib v3.3.2, https://matplotlib.org/</dc:title>
     </cc:Agent>
    </dc:creator>
   </cc:Work>
  </rdf:RDF>
 </metadata>
 <defs>
  <style type="text/css">*{stroke-linecap:butt;stroke-linejoin:round;}</style>
 </defs>
 <g id="figure_1">
  <g id="patch_1">
   <path d="M 0 360 
L 720 360 
L 720 0 
L 0 0 
z
" style="fill:#ffffff;"/>
  </g>
  <g id="axes_1">
   <g id="patch_2">
    <path d="M 90 315 
L 648 315 
L 648 43.2 
L 90 43.2 
z
" style="fill:#ffffff;"/>
   </g>
   <g id="PolyCollection_1">
    <defs>
     <path d="M 90 -59.051779 
L 90 -124.360198 
L 91.716923 -120.495222 
L 93.433846 -120.961262 
L 95.150769 -125.414173 
L 96.867692 -126.423867 
L 98.584615 -124.13815 
L 100.301538 -122.827356 
L 102.018462 -122.947503 
L 103.735385 -124.581304 
L 105.452308 -124.655468 
L 107.169231 -128.804875 
L 108.886154 -132.444779 
L 110.603077 -131.301421 
L 112.32 -135.207719 
L 114.036923 -135.093777 
L 115.753846 -134.433006 
L 117.470769 -139.606442 
L 119.187692 -145.332944 
L 120.904615 -144.723582 
L 122.621538 -148.845543 
L 124.338462 -150.4091 
L 126.055385 -157.10647 
L 127.772308 -160.264003 
L 129.489231 -162.270583 
L 131.206154 -167.824734 
L 132.923077 -166.940267 
L 134.64 -171.936453 
L 136.356923 -180.792234 
L 138.073846 -182.400474 
L 139.790769 -185.502623 
L 141.507692 -185.875246 
L 143.224615 -186.511511 
L 144.941538 -196.859339 
L 146.658462 -198.054115 
L 148.375385 -198.772495 
L 150.092308 -205.187548 
L 151.809231 -204.786793 
L 153.526154 -205.982507 
L 155.243077 -210.398054 
L 156.96 -219.171006 
L 158.676923 -221.76686 
L 160.393846 -223.669742 
L 162.110769 -222.233929 
L 163.827692 -227.217882 
L 165.544615 -225.01172 
L 167.261538 -225.317494 
L 168.978462 -224.997647 
L 170.695385 -229.51422 
L 172.412308 -233.368247 
L 174.129231 -232.034868 
L 175.846154 -240.442771 
L 177.563077 -243.021894 
L 179.28 -239.804705 
L 180.996923 -240.033283 
L 182.713846 -247.66169 
L 184.430769 -246.936386 
L 186.147692 -248.730748 
L 187.864615 -250.142663 
L 189.581538 -255.976852 
L 191.298462 -260.613974 
L 193.015385 -261.417551 
L 194.732308 -275.695739 
L 196.449231 -272.48359 
L 198.166154 -277.146301 
L 199.883077 -283.186154 
L 201.6 -278.838421 
L 203.316923 -290.008191 
L 205.033846 -287.590246 
L 206.750769 -291.298493 
L 208.467692 -292.723208 
L 210.184615 -291.316873 
L 211.901538 -298.283139 
L 213.618462 -302.788619 
L 215.335385 -303.316641 
L 217.052308 -301.048458 
L 218.769231 -304.445455 
L 220.486154 -301.249733 
L 222.203077 -299.93527 
L 223.92 -297.276249 
L 225.636923 -298.00136 
L 227.353846 -297.725579 
L 229.070769 -296.36461 
L 230.787692 -287.579834 
L 232.504615 -290.40775 
L 234.221538 -284.767069 
L 235.938462 -278.490939 
L 237.655385 -273.767732 
L 239.372308 -259.971223 
L 241.089231 -259.247881 
L 242.806154 -251.683243 
L 244.523077 -239.514663 
L 246.24 -236.963482 
L 247.956923 -221.46532 
L 249.673846 -222.493476 
L 251.390769 -214.050134 
L 253.107692 -210.256379 
L 254.824615 -203.741583 
L 256.541538 -199.147629 
L 258.258462 -194.081718 
L 259.975385 -189.477158 
L 261.692308 -183.867211 
L 263.409231 -180.7204 
L 265.126154 -180.195455 
L 266.843077 -174.86662 
L 268.56 -180.772165 
L 270.276923 -170.424959 
L 271.993846 -171.559911 
L 273.710769 -171.810927 
L 275.427692 -171.819487 
L 277.144615 -175.5324 
L 278.861538 -177.927738 
L 280.578462 -179.95618 
L 282.295385 -179.231997 
L 284.012308 -182.849148 
L 285.729231 -186.395919 
L 287.446154 -193.708234 
L 289.163077 -194.939869 
L 290.88 -201.426824 
L 292.596923 -198.570423 
L 294.313846 -204.123348 
L 296.030769 -203.397208 
L 297.747692 -206.730967 
L 299.464615 -207.769711 
L 301.181538 -211.684384 
L 302.898462 -218.698329 
L 304.615385 -214.913651 
L 306.332308 -219.757245 
L 308.049231 -224.296623 
L 309.766154 -227.7841 
L 311.483077 -231.103546 
L 313.2 -238.058018 
L 314.916923 -246.473807 
L 316.633846 -245.701607 
L 318.350769 -247.322695 
L 320.067692 -254.522163 
L 321.784615 -257.03584 
L 323.501538 -260.166059 
L 325.218462 -264.041031 
L 326.935385 -255.388228 
L 328.652308 -257.565392 
L 330.369231 -254.93355 
L 332.086154 -249.007184 
L 333.803077 -247.021193 
L 335.52 -241.512234 
L 337.236923 -233.02129 
L 338.953846 -219.749187 
L 340.670769 -215.205465 
L 342.387692 -205.012252 
L 344.104615 -202.465404 
L 345.821538 -189.75134 
L 347.538462 -184.408307 
L 349.255385 -176.166411 
L 350.972308 -171.246022 
L 352.689231 -162.067866 
L 354.406154 -158.43132 
L 356.123077 -151.541329 
L 357.84 -149.439771 
L 359.556923 -146.18658 
L 361.273846 -140.324983 
L 362.990769 -135.376955 
L 364.707692 -131.806183 
L 366.424615 -129.964145 
L 368.141538 -125.273234 
L 369.858462 -123.28562 
L 371.575385 -120.018878 
L 373.292308 -119.549047 
L 375.009231 -119.088968 
L 376.726154 -118.658135 
L 378.443077 -117.663765 
L 380.16 -117.832084 
L 381.876923 -116.667522 
L 383.593846 -119.246803 
L 385.310769 -118.535372 
L 387.027692 -116.374073 
L 388.744615 -120.143204 
L 390.461538 -120.34139 
L 392.178462 -120.404265 
L 393.895385 -121.06561 
L 395.612308 -121.295956 
L 397.329231 -126.058105 
L 399.046154 -127.760315 
L 400.763077 -132.826345 
L 402.48 -131.066462 
L 404.196923 -137.744746 
L 405.913846 -137.754362 
L 407.630769 -144.94098 
L 409.347692 -146.97309 
L 411.064615 -154.041726 
L 412.781538 -156.991431 
L 414.498462 -161.627961 
L 416.215385 -166.231136 
L 417.932308 -170.667534 
L 419.649231 -177.655159 
L 421.366154 -182.423029 
L 423.083077 -182.181845 
L 424.8 -188.049258 
L 426.516923 -192.574444 
L 428.233846 -194.069991 
L 429.950769 -201.345756 
L 431.667692 -206.215624 
L 433.384615 -209.510813 
L 435.101538 -211.704439 
L 436.818462 -214.578428 
L 438.535385 -216.151958 
L 440.252308 -222.687411 
L 441.969231 -223.259727 
L 443.686154 -224.752376 
L 445.403077 -233.052833 
L 447.12 -229.94114 
L 448.836923 -230.812557 
L 450.553846 -232.146382 
L 452.270769 -234.965283 
L 453.987692 -233.408222 
L 455.704615 -229.556819 
L 457.421538 -240.547471 
L 459.138462 -238.154117 
L 460.855385 -242.957922 
L 462.572308 -243.427722 
L 464.289231 -248.639163 
L 466.006154 -251.778024 
L 467.723077 -244.974664 
L 469.44 -255.813696 
L 471.156923 -255.373024 
L 472.873846 -252.06852 
L 474.590769 -249.914192 
L 476.307692 -250.229582 
L 478.024615 -249.452564 
L 479.741538 -251.947314 
L 481.458462 -246.907478 
L 483.175385 -249.708281 
L 484.892308 -247.319646 
L 486.609231 -251.897357 
L 488.326154 -254.748209 
L 490.043077 -254.623025 
L 491.76 -256.657061 
L 493.476923 -254.151393 
L 495.193846 -256.348863 
L 496.910769 -251.762538 
L 498.627692 -248.372883 
L 500.344615 -245.896847 
L 502.061538 -246.140776 
L 503.778462 -238.014288 
L 505.495385 -237.085422 
L 507.212308 -237.196965 
L 508.929231 -233.341718 
L 510.646154 -229.060999 
L 512.363077 -221.565241 
L 514.08 -219.65433 
L 515.796923 -218.363984 
L 517.513846 -212.689732 
L 519.230769 -210.186901 
L 520.947692 -208.308755 
L 522.664615 -211.167094 
L 524.381538 -207.741967 
L 526.098462 -204.991286 
L 527.815385 -204.337987 
L 529.532308 -203.693744 
L 531.249231 -203.615876 
L 532.966154 -200.496772 
L 534.683077 -197.674915 
L 536.4 -193.821286 
L 538.116923 -195.471315 
L 539.833846 -197.394529 
L 541.550769 -193.085191 
L 543.267692 -193.081184 
L 544.984615 -188.730587 
L 546.701538 -185.905237 
L 548.418462 -185.110515 
L 550.135385 -183.138024 
L 551.852308 -179.261461 
L 553.569231 -181.757524 
L 555.286154 -178.401303 
L 557.003077 -179.813253 
L 558.72 -177.726657 
L 560.436923 -179.646528 
L 562.153846 -180.808142 
L 563.870769 -177.193828 
L 565.587692 -179.305635 
L 567.304615 -180.923999 
L 569.021538 -182.834308 
L 570.738462 -182.160895 
L 572.455385 -180.412241 
L 574.172308 -179.54834 
L 575.889231 -178.687249 
L 577.606154 -177.006408 
L 579.323077 -177.013578 
L 581.04 -177.446224 
L 582.756923 -174.310709 
L 584.473846 -174.543607 
L 586.190769 -168.907012 
L 587.907692 -164.367572 
L 589.624615 -163.647833 
L 591.341538 -163.502556 
L 593.058462 -159.873308 
L 594.775385 -157.102854 
L 596.492308 -157.004741 
L 598.209231 -152.609806 
L 599.926154 -153.131012 
L 601.643077 -150.754758 
L 603.36 -151.309805 
L 605.076923 -153.377648 
L 606.793846 -151.477393 
L 608.510769 -153.205342 
L 610.227692 -148.519167 
L 611.944615 -147.448369 
L 613.661538 -147.389268 
L 615.378462 -145.420615 
L 617.095385 -142.266387 
L 618.812308 -141.302872 
L 620.529231 -139.085314 
L 622.246154 -135.900193 
L 623.963077 -135.229254 
L 625.68 -135.219634 
L 627.396923 -136.647181 
L 629.113846 -135.08572 
L 630.830769 -132.18199 
L 632.547692 -134.889694 
L 634.264615 -132.580943 
L 635.981538 -132.395548 
L 637.698462 -135.453534 
L 639.415385 -138.416417 
L 641.132308 -139.462005 
L 642.849231 -133.080432 
L 644.566154 -144.04136 
L 646.283077 -142.486042 
L 648 -139.704269 
L 649.716923 -138.909123 
L 651.433846 -143.330509 
L 653.150769 -150.350295 
L 654.867692 -143.837018 
L 656.584615 -141.902445 
L 658.301538 -152.99127 
L 660.018462 -151.610148 
L 661.735385 -148.606825 
L 661.735385 -63.006291 
L 661.735385 -63.006291 
L 660.018462 -69.205293 
L 658.301538 -71.109326 
L 656.584615 -59.807211 
L 654.867692 -66.314573 
L 653.150769 -73.48105 
L 651.433846 -70.113898 
L 649.716923 -68.152582 
L 648 -70.746945 
L 646.283077 -75.705821 
L 644.566154 -79.675171 
L 642.849231 -68.69665 
L 641.132308 -79.976215 
L 639.415385 -81.90886 
L 637.698462 -81.369933 
L 635.981538 -79.552521 
L 634.264615 -82.572494 
L 632.547692 -87.969166 
L 630.830769 -88.212576 
L 629.113846 -93.029731 
L 627.396923 -95.280919 
L 625.68 -96.524284 
L 623.963077 -97.235288 
L 622.246154 -99.468346 
L 620.529231 -100.597004 
L 618.812308 -102.949433 
L 617.095385 -102.892459 
L 615.378462 -105.224706 
L 613.661538 -108.893711 
L 611.944615 -107.264841 
L 610.227692 -108.911425 
L 608.510769 -113.605638 
L 606.793846 -113.657051 
L 605.076923 -115.909922 
L 603.36 -116.89515 
L 601.643077 -114.20921 
L 599.926154 -116.149217 
L 598.209231 -117.156003 
L 596.492308 -118.814206 
L 594.775385 -118.351239 
L 593.058462 -118.128438 
L 591.341538 -122.576807 
L 589.624615 -122.865628 
L 587.907692 -122.251253 
L 586.190769 -124.243142 
L 584.473846 -131.328905 
L 582.756923 -133.444147 
L 581.04 -135.831971 
L 579.323077 -135.009125 
L 577.606154 -133.463 
L 575.889231 -135.482033 
L 574.172308 -135.93146 
L 572.455385 -135.66089 
L 570.738462 -136.697732 
L 569.021538 -136.319568 
L 567.304615 -135.318845 
L 565.587692 -134.95641 
L 563.870769 -135.848172 
L 562.153846 -139.077167 
L 560.436923 -135.822643 
L 558.72 -134.032014 
L 557.003077 -135.142673 
L 555.286154 -134.993168 
L 553.569231 -137.469756 
L 551.852308 -134.479505 
L 550.135385 -137.760015 
L 548.418462 -140.27156 
L 546.701538 -141.269205 
L 544.984615 -141.863178 
L 543.267692 -144.523688 
L 541.550769 -144.938714 
L 539.833846 -148.834687 
L 538.116923 -147.934924 
L 536.4 -146.27027 
L 534.683077 -150.061312 
L 532.966154 -150.821541 
L 531.249231 -154.891616 
L 529.532308 -156.040843 
L 527.815385 -155.454556 
L 526.098462 -157.478034 
L 524.381538 -159.795448 
L 522.664615 -160.319542 
L 520.947692 -160.815895 
L 519.230769 -158.803868 
L 517.513846 -161.003667 
L 515.796923 -165.311057 
L 514.08 -166.263893 
L 512.363077 -166.760922 
L 510.646154 -173.199351 
L 508.929231 -176.716568 
L 507.212308 -179.20914 
L 505.495385 -180.167259 
L 503.778462 -181.965814 
L 502.061538 -185.630662 
L 500.344615 -186.259787 
L 498.627692 -185.945773 
L 496.910769 -187.759496 
L 495.193846 -192.651163 
L 493.476923 -189.695672 
L 491.76 -193.752549 
L 490.043077 -192.755749 
L 488.326154 -189.411497 
L 486.609231 -189.929644 
L 484.892308 -185.290421 
L 483.175385 -187.258905 
L 481.458462 -184.750986 
L 479.741538 -187.893701 
L 478.024615 -182.003643 
L 476.307692 -184.394595 
L 474.590769 -180.951041 
L 472.873846 -182.300561 
L 471.156923 -185.23756 
L 469.44 -184.059202 
L 467.723077 -177.261811 
L 466.006154 -186.662117 
L 464.289231 -182.236689 
L 462.572308 -177.764372 
L 460.855385 -179.946634 
L 459.138462 -174.30298 
L 457.421538 -176.842403 
L 455.704615 -166.279934 
L 453.987692 -173.059188 
L 452.270769 -172.084929 
L 450.553846 -169.773176 
L 448.836923 -166.96844 
L 447.12 -164.32078 
L 445.403077 -166.312304 
L 443.686154 -159.099838 
L 441.969231 -160.984246 
L 440.252308 -160.772411 
L 438.535385 -152.890485 
L 436.818462 -152.996065 
L 435.101538 -151.664014 
L 433.384615 -148.048883 
L 431.667692 -147.268281 
L 429.950769 -144.257537 
L 428.233846 -140.007921 
L 426.516923 -141.038792 
L 424.8 -135.528741 
L 423.083077 -131.111422 
L 421.366154 -129.141033 
L 419.649231 -127.132135 
L 417.932308 -123.292397 
L 416.215385 -119.840835 
L 414.498462 -116.714281 
L 412.781538 -113.705659 
L 411.064615 -111.613649 
L 409.347692 -105.569102 
L 407.630769 -105.12609 
L 405.913846 -100.584906 
L 404.196923 -99.36596 
L 402.48 -95.239464 
L 400.763077 -96.137793 
L 399.046154 -92.094945 
L 397.329231 -90.432566 
L 395.612308 -88.838511 
L 393.895385 -88.742749 
L 392.178462 -87.53769 
L 390.461538 -88.150524 
L 388.744615 -87.941417 
L 387.027692 -83.997095 
L 385.310769 -85.734821 
L 383.593846 -86.786146 
L 381.876923 -84.269422 
L 380.16 -84.38199 
L 378.443077 -85.206881 
L 376.726154 -86.558986 
L 375.009231 -86.881192 
L 373.292308 -86.956801 
L 371.575385 -87.304746 
L 369.858462 -89.686714 
L 368.141538 -92.336125 
L 366.424615 -96.763857 
L 364.707692 -96.61869 
L 362.990769 -99.229766 
L 361.273846 -102.661364 
L 359.556923 -108.257974 
L 357.84 -109.747196 
L 356.123077 -111.446568 
L 354.406154 -119.200212 
L 352.689231 -121.985274 
L 350.972308 -128.547719 
L 349.255385 -131.260525 
L 347.538462 -139.225635 
L 345.821538 -140.867652 
L 344.104615 -152.824838 
L 342.387692 -156.51732 
L 340.670769 -162.655971 
L 338.953846 -163.855115 
L 337.236923 -177.21208 
L 335.52 -183.404786 
L 333.803077 -187.702344 
L 332.086154 -188.555541 
L 330.369231 -192.500271 
L 328.652308 -191.683786 
L 326.935385 -187.63616 
L 325.218462 -196.155332 
L 323.501538 -193.114709 
L 321.784615 -187.399362 
L 320.067692 -189.011485 
L 318.350769 -183.030963 
L 316.633846 -182.783986 
L 314.916923 -185.584906 
L 313.2 -178.527786 
L 311.483077 -173.982246 
L 309.766154 -170.308687 
L 308.049231 -169.865879 
L 306.332308 -166.018232 
L 304.615385 -161.260882 
L 302.898462 -164.078259 
L 301.181538 -156.191085 
L 299.464615 -153.484427 
L 297.747692 -150.952429 
L 296.030769 -148.994947 
L 294.313846 -149.120548 
L 292.596923 -144.061153 
L 290.88 -145.933575 
L 289.163077 -140.967564 
L 287.446154 -141.709603 
L 285.729231 -136.831375 
L 284.012308 -134.504995 
L 282.295385 -131.761702 
L 280.578462 -133.452874 
L 278.861538 -132.061397 
L 277.144615 -129.257403 
L 275.427692 -127.430285 
L 273.710769 -128.782596 
L 271.993846 -127.078945 
L 270.276923 -127.014627 
L 268.56 -134.153755 
L 266.843077 -129.656939 
L 265.126154 -134.58054 
L 263.409231 -132.72773 
L 261.692308 -135.135289 
L 259.975385 -138.435879 
L 258.258462 -140.795184 
L 256.541538 -145.880904 
L 254.824615 -149.879979 
L 253.107692 -154.838573 
L 251.390769 -157.352464 
L 249.673846 -161.380299 
L 247.956923 -159.061656 
L 246.24 -171.842826 
L 244.523077 -174.345009 
L 242.806154 -184.207515 
L 241.089231 -189.980587 
L 239.372308 -189.120389 
L 237.655385 -199.681361 
L 235.938462 -199.107867 
L 234.221538 -203.414657 
L 232.504615 -206.826093 
L 230.787692 -205.142999 
L 229.070769 -215.889194 
L 227.353846 -211.490265 
L 225.636923 -214.744968 
L 223.92 -208.678783 
L 222.203077 -215.043126 
L 220.486154 -216.069535 
L 218.769231 -217.82434 
L 217.052308 -212.334877 
L 215.335385 -211.390902 
L 213.618462 -208.063234 
L 211.901538 -207.585447 
L 210.184615 -197.434334 
L 208.467692 -199.759108 
L 206.750769 -196.280029 
L 205.033846 -192.253585 
L 203.316923 -193.641922 
L 201.6 -186.472952 
L 199.883077 -193.00181 
L 198.166154 -189.072712 
L 196.449231 -184.223063 
L 194.732308 -185.231944 
L 193.015385 -174.158708 
L 191.298462 -177.102047 
L 189.581538 -172.079754 
L 187.864615 -167.475087 
L 186.147692 -164.124255 
L 184.430769 -163.031322 
L 182.713846 -164.345401 
L 180.996923 -157.69741 
L 179.28 -155.016382 
L 177.563077 -163.11836 
L 175.846154 -160.56949 
L 174.129231 -153.140657 
L 172.412308 -153.662037 
L 170.695385 -152.546934 
L 168.978462 -148.666174 
L 167.261538 -149.955054 
L 165.544615 -147.163108 
L 163.827692 -148.803282 
L 162.110769 -143.525517 
L 160.393846 -146.09356 
L 158.676923 -144.444362 
L 156.96 -142.016308 
L 155.243077 -130.738801 
L 153.526154 -131.468818 
L 151.809231 -130.59831 
L 150.092308 -132.960172 
L 148.375385 -128.204424 
L 146.658462 -128.327964 
L 144.941538 -131.498836 
L 143.224615 -120.927538 
L 141.507692 -122.015347 
L 139.790769 -120.629806 
L 138.073846 -120.912296 
L 136.356923 -119.718565 
L 134.64 -112.238615 
L 132.923077 -110.007307 
L 131.206154 -109.192299 
L 129.489231 -105.088442 
L 127.772308 -102.055222 
L 126.055385 -101.884561 
L 124.338462 -95.190144 
L 122.621538 -93.728573 
L 120.904615 -89.414319 
L 119.187692 -91.386138 
L 117.470769 -84.632542 
L 115.753846 -80.81397 
L 114.036923 -81.490789 
L 112.32 -80.096527 
L 110.603077 -77.404326 
L 108.886154 -77.902353 
L 107.169231 -73.731358 
L 105.452308 -67.4509 
L 103.735385 -67.799443 
L 102.018462 -65.760035 
L 100.301538 -62.812663 
L 98.584615 -63.087345 
L 96.867692 -64.718663 
L 95.150769 -63.62147 
L 93.433846 -60.469201 
L 91.716923 -57.354545 
L 90 -59.051779 
z
" id="m8e93690738" style="stroke:#fdcbb6;stroke-opacity:0.8;"/>
    </defs>
    <g clip-path="url(#pa38760550f)">
     <use style="fill:#fdcbb6;fill-opacity:0.8;stroke:#fdcbb6;stroke-opacity:0.8;" x="0" xlink:href="#m8e93690738" y="360"/>
    </g>
   </g>
   <g id="matplotlib.axis_1">
    <g id="xtick_1">
     <g id="line2d_1">
      <defs>
       <path d="M 0 0 
L 0 3.5 
" id="m1cc3016555" style="stroke:#000000;stroke-width:0.8;"/>
      </defs>
      <g>
       <use style="stroke:#000000;stroke-width:0.8;" x="90" xlink:href="#m1cc3016555" y="315"/>
      </g>
     </g>
    </g>
    <g id="xtick_2">
     <g id="line2d_2">
      <g>
       <use style="stroke:#000000;stroke-width:0.8;" x="120.904615" xlink:href="#m1cc3016555" y="315"/>
      </g>
     </g>
     <g id="text_1">
      <!-- May -->
      <g transform="translate(110.567115 329.598437)scale(0.1 -0.1)">
       <defs>
        <path d="M 9.8125 72.90625 
L 24.515625 72.90625 
L 43.109375 23.296875 
L 61.8125 72.90625 
L 76.515625 72.90625 
L 76.515625 0 
L 66.890625 0 
L 66.890625 64.015625 
L 48.09375 14.015625 
L 38.1875 14.015625 
L 19.390625 64.015625 
L 19.390625 0 
L 9.8125 0 
z
" id="DejaVuSans-77"/>
        <path d="M 34.28125 27.484375 
Q 23.390625 27.484375 19.1875 25 
Q 14.984375 22.515625 14.984375 16.5 
Q 14.984375 11.71875 18.140625 8.90625 
Q 21.296875 6.109375 26.703125 6.109375 
Q 34.1875 6.109375 38.703125 11.40625 
Q 43.21875 16.703125 43.21875 25.484375 
L 43.21875 27.484375 
z
M 52.203125 31.203125 
L 52.203125 0 
L 43.21875 0 
L 43.21875 8.296875 
Q 40.140625 3.328125 35.546875 0.953125 
Q 30.953125 -1.421875 24.3125 -1.421875 
Q 15.921875 -1.421875 10.953125 3.296875 
Q 6 8.015625 6 15.921875 
Q 6 25.140625 12.171875 29.828125 
Q 18.359375 34.515625 30.609375 34.515625 
L 43.21875 34.515625 
L 43.21875 35.40625 
Q 43.21875 41.609375 39.140625 45 
Q 35.0625 48.390625 27.6875 48.390625 
Q 23 48.390625 18.546875 47.265625 
Q 14.109375 46.140625 10.015625 43.890625 
L 10.015625 52.203125 
Q 14.9375 54.109375 19.578125 55.046875 
Q 24.21875 56 28.609375 56 
Q 40.484375 56 46.34375 49.84375 
Q 52.203125 43.703125 52.203125 31.203125 
z
" id="DejaVuSans-97"/>
        <path d="M 32.171875 -5.078125 
Q 28.375 -14.84375 24.75 -17.8125 
Q 21.140625 -20.796875 15.09375 -20.796875 
L 7.90625 -20.796875 
L 7.90625 -13.28125 
L 13.1875 -13.28125 
Q 16.890625 -13.28125 18.9375 -11.515625 
Q 21 -9.765625 23.484375 -3.21875 
L 25.09375 0.875 
L 2.984375 54.6875 
L 12.5 54.6875 
L 29.59375 11.921875 
L 46.6875 54.6875 
L 56.203125 54.6875 
z
" id="DejaVuSans-121"/>
       </defs>
       <use xlink:href="#DejaVuSans-77"/>
       <use x="86.279297" xlink:href="#DejaVuSans-97"/>
       <use x="147.558594" xlink:href="#DejaVuSans-121"/>
      </g>
     </g>
    </g>
    <g id="xtick_3">
     <g id="line2d_3">
      <g>
       <use style="stroke:#000000;stroke-width:0.8;" x="174.129231" xlink:href="#m1cc3016555" y="315"/>
      </g>
     </g>
     <g id="text_2">
      <!-- Jun -->
      <g transform="translate(166.316731 329.598437)scale(0.1 -0.1)">
       <defs>
        <path d="M 9.8125 72.90625 
L 19.671875 72.90625 
L 19.671875 5.078125 
Q 19.671875 -8.109375 14.671875 -14.0625 
Q 9.671875 -20.015625 -1.421875 -20.015625 
L -5.171875 -20.015625 
L -5.171875 -11.71875 
L -2.09375 -11.71875 
Q 4.4375 -11.71875 7.125 -8.046875 
Q 9.8125 -4.390625 9.8125 5.078125 
z
" id="DejaVuSans-74"/>
        <path d="M 8.5 21.578125 
L 8.5 54.6875 
L 17.484375 54.6875 
L 17.484375 21.921875 
Q 17.484375 14.15625 20.5 10.265625 
Q 23.53125 6.390625 29.59375 6.390625 
Q 36.859375 6.390625 41.078125 11.03125 
Q 45.3125 15.671875 45.3125 23.6875 
L 45.3125 54.6875 
L 54.296875 54.6875 
L 54.296875 0 
L 45.3125 0 
L 45.3125 8.40625 
Q 42.046875 3.421875 37.71875 1 
Q 33.40625 -1.421875 27.6875 -1.421875 
Q 18.265625 -1.421875 13.375 4.4375 
Q 8.5 10.296875 8.5 21.578125 
z
M 31.109375 56 
z
" id="DejaVuSans-117"/>
        <path d="M 54.890625 33.015625 
L 54.890625 0 
L 45.90625 0 
L 45.90625 32.71875 
Q 45.90625 40.484375 42.875 44.328125 
Q 39.84375 48.1875 33.796875 48.1875 
Q 26.515625 48.1875 22.3125 43.546875 
Q 18.109375 38.921875 18.109375 30.90625 
L 18.109375 0 
L 9.078125 0 
L 9.078125 54.6875 
L 18.109375 54.6875 
L 18.109375 46.1875 
Q 21.34375 51.125 25.703125 53.5625 
Q 30.078125 56 35.796875 56 
Q 45.21875 56 50.046875 50.171875 
Q 54.890625 44.34375 54.890625 33.015625 
z
" id="DejaVuSans-110"/>
       </defs>
       <use xlink:href="#DejaVuSans-74"/>
       <use x="29.492188" xlink:href="#DejaVuSans-117"/>
       <use x="92.871094" xlink:href="#DejaVuSans-110"/>
      </g>
     </g>
    </g>
    <g id="xtick_4">
     <g id="line2d_4">
      <g>
       <use style="stroke:#000000;stroke-width:0.8;" x="225.636923" xlink:href="#m1cc3016555" y="315"/>
      </g>
     </g>
     <g id="text_3">
      <!-- Jul -->
      <g transform="translate(219.604111 329.598437)scale(0.1 -0.1)">
       <defs>
        <path d="M 9.421875 75.984375 
L 18.40625 75.984375 
L 18.40625 0 
L 9.421875 0 
z
" id="DejaVuSans-108"/>
       </defs>
       <use xlink:href="#DejaVuSans-74"/>
       <use x="29.492188" xlink:href="#DejaVuSans-117"/>
       <use x="92.871094" xlink:href="#DejaVuSans-108"/>
      </g>
     </g>
    </g>
    <g id="xtick_5">
     <g id="line2d_5">
      <g>
       <use style="stroke:#000000;stroke-width:0.8;" x="278.861538" xlink:href="#m1cc3016555" y="315"/>
      </g>
     </g>
     <g id="text_4">
      <!-- Aug -->
      <g transform="translate(269.098257 329.598437)scale(0.1 -0.1)">
       <defs>
        <path d="M 34.1875 63.1875 
L 20.796875 26.90625 
L 47.609375 26.90625 
z
M 28.609375 72.90625 
L 39.796875 72.90625 
L 67.578125 0 
L 57.328125 0 
L 50.6875 18.703125 
L 17.828125 18.703125 
L 11.1875 0 
L 0.78125 0 
z
" id="DejaVuSans-65"/>
        <path d="M 45.40625 27.984375 
Q 45.40625 37.75 41.375 43.109375 
Q 37.359375 48.484375 30.078125 48.484375 
Q 22.859375 48.484375 18.828125 43.109375 
Q 14.796875 37.75 14.796875 27.984375 
Q 14.796875 18.265625 18.828125 12.890625 
Q 22.859375 7.515625 30.078125 7.515625 
Q 37.359375 7.515625 41.375 12.890625 
Q 45.40625 18.265625 45.40625 27.984375 
z
M 54.390625 6.78125 
Q 54.390625 -7.171875 48.1875 -13.984375 
Q 42 -20.796875 29.203125 -20.796875 
Q 24.46875 -20.796875 20.265625 -20.09375 
Q 16.0625 -19.390625 12.109375 -17.921875 
L 12.109375 -9.1875 
Q 16.0625 -11.328125 19.921875 -12.34375 
Q 23.78125 -13.375 27.78125 -13.375 
Q 36.625 -13.375 41.015625 -8.765625 
Q 45.40625 -4.15625 45.40625 5.171875 
L 45.40625 9.625 
Q 42.625 4.78125 38.28125 2.390625 
Q 33.9375 0 27.875 0 
Q 17.828125 0 11.671875 7.65625 
Q 5.515625 15.328125 5.515625 27.984375 
Q 5.515625 40.671875 11.671875 48.328125 
Q 17.828125 56 27.875 56 
Q 33.9375 56 38.28125 53.609375 
Q 42.625 51.21875 45.40625 46.390625 
L 45.40625 54.6875 
L 54.390625 54.6875 
z
" id="DejaVuSans-103"/>
       </defs>
       <use xlink:href="#DejaVuSans-65"/>
       <use x="68.408203" xlink:href="#DejaVuSans-117"/>
       <use x="131.787109" xlink:href="#DejaVuSans-103"/>
      </g>
     </g>
    </g>
    <g id="xtick_6">
     <g id="line2d_6">
      <g>
       <use style="stroke:#000000;stroke-width:0.8;" x="332.086154" xlink:href="#m1cc3016555" y="315"/>
      </g>
     </g>
     <g id="text_5">
      <!-- Sep -->
      <g transform="translate(322.661154 329.598437)scale(0.1 -0.1)">
       <defs>
        <path d="M 53.515625 70.515625 
L 53.515625 60.890625 
Q 47.90625 63.578125 42.921875 64.890625 
Q 37.9375 66.21875 33.296875 66.21875 
Q 25.25 66.21875 20.875 63.09375 
Q 16.5 59.96875 16.5 54.203125 
Q 16.5 49.359375 19.40625 46.890625 
Q 22.3125 44.4375 30.421875 42.921875 
L 36.375 41.703125 
Q 47.40625 39.59375 52.65625 34.296875 
Q 57.90625 29 57.90625 20.125 
Q 57.90625 9.515625 50.796875 4.046875 
Q 43.703125 -1.421875 29.984375 -1.421875 
Q 24.8125 -1.421875 18.96875 -0.25 
Q 13.140625 0.921875 6.890625 3.21875 
L 6.890625 13.375 
Q 12.890625 10.015625 18.65625 8.296875 
Q 24.421875 6.59375 29.984375 6.59375 
Q 38.421875 6.59375 43.015625 9.90625 
Q 47.609375 13.234375 47.609375 19.390625 
Q 47.609375 24.75 44.3125 27.78125 
Q 41.015625 30.8125 33.5 32.328125 
L 27.484375 33.5 
Q 16.453125 35.6875 11.515625 40.375 
Q 6.59375 45.0625 6.59375 53.421875 
Q 6.59375 63.09375 13.40625 68.65625 
Q 20.21875 74.21875 32.171875 74.21875 
Q 37.3125 74.21875 42.625 73.28125 
Q 47.953125 72.359375 53.515625 70.515625 
z
" id="DejaVuSans-83"/>
        <path d="M 56.203125 29.59375 
L 56.203125 25.203125 
L 14.890625 25.203125 
Q 15.484375 15.921875 20.484375 11.0625 
Q 25.484375 6.203125 34.421875 6.203125 
Q 39.59375 6.203125 44.453125 7.46875 
Q 49.3125 8.734375 54.109375 11.28125 
L 54.109375 2.78125 
Q 49.265625 0.734375 44.1875 -0.34375 
Q 39.109375 -1.421875 33.890625 -1.421875 
Q 20.796875 -1.421875 13.15625 6.1875 
Q 5.515625 13.8125 5.515625 26.8125 
Q 5.515625 40.234375 12.765625 48.109375 
Q 20.015625 56 32.328125 56 
Q 43.359375 56 49.78125 48.890625 
Q 56.203125 41.796875 56.203125 29.59375 
z
M 47.21875 32.234375 
Q 47.125 39.59375 43.09375 43.984375 
Q 39.0625 48.390625 32.421875 48.390625 
Q 24.90625 48.390625 20.390625 44.140625 
Q 15.875 39.890625 15.1875 32.171875 
z
" id="DejaVuSans-101"/>
        <path d="M 18.109375 8.203125 
L 18.109375 -20.796875 
L 9.078125 -20.796875 
L 9.078125 54.6875 
L 18.109375 54.6875 
L 18.109375 46.390625 
Q 20.953125 51.265625 25.265625 53.625 
Q 29.59375 56 35.59375 56 
Q 45.5625 56 51.78125 48.09375 
Q 58.015625 40.1875 58.015625 27.296875 
Q 58.015625 14.40625 51.78125 6.484375 
Q 45.5625 -1.421875 35.59375 -1.421875 
Q 29.59375 -1.421875 25.265625 0.953125 
Q 20.953125 3.328125 18.109375 8.203125 
z
M 48.6875 27.296875 
Q 48.6875 37.203125 44.609375 42.84375 
Q 40.53125 48.484375 33.40625 48.484375 
Q 26.265625 48.484375 22.1875 42.84375 
Q 18.109375 37.203125 18.109375 27.296875 
Q 18.109375 17.390625 22.1875 11.75 
Q 26.265625 6.109375 33.40625 6.109375 
Q 40.53125 6.109375 44.609375 11.75 
Q 48.6875 17.390625 48.6875 27.296875 
z
" id="DejaVuSans-112"/>
       </defs>
       <use xlink:href="#DejaVuSans-83"/>
       <use x="63.476562" xlink:href="#DejaVuSans-101"/>
       <use x="125" xlink:href="#DejaVuSans-112"/>
      </g>
     </g>
    </g>
    <g id="xtick_7">
     <g id="line2d_7">
      <g>
       <use style="stroke:#000000;stroke-width:0.8;" x="383.593846" xlink:href="#m1cc3016555" y="315"/>
      </g>
     </g>
     <g id="text_6">
      <!-- Oct -->
      <g transform="translate(374.948534 329.598437)scale(0.1 -0.1)">
       <defs>
        <path d="M 39.40625 66.21875 
Q 28.65625 66.21875 22.328125 58.203125 
Q 16.015625 50.203125 16.015625 36.375 
Q 16.015625 22.609375 22.328125 14.59375 
Q 28.65625 6.59375 39.40625 6.59375 
Q 50.140625 6.59375 56.421875 14.59375 
Q 62.703125 22.609375 62.703125 36.375 
Q 62.703125 50.203125 56.421875 58.203125 
Q 50.140625 66.21875 39.40625 66.21875 
z
M 39.40625 74.21875 
Q 54.734375 74.21875 63.90625 63.9375 
Q 73.09375 53.65625 73.09375 36.375 
Q 73.09375 19.140625 63.90625 8.859375 
Q 54.734375 -1.421875 39.40625 -1.421875 
Q 24.03125 -1.421875 14.8125 8.828125 
Q 5.609375 19.09375 5.609375 36.375 
Q 5.609375 53.65625 14.8125 63.9375 
Q 24.03125 74.21875 39.40625 74.21875 
z
" id="DejaVuSans-79"/>
        <path d="M 48.78125 52.59375 
L 48.78125 44.1875 
Q 44.96875 46.296875 41.140625 47.34375 
Q 37.3125 48.390625 33.40625 48.390625 
Q 24.65625 48.390625 19.8125 42.84375 
Q 14.984375 37.3125 14.984375 27.296875 
Q 14.984375 17.28125 19.8125 11.734375 
Q 24.65625 6.203125 33.40625 6.203125 
Q 37.3125 6.203125 41.140625 7.25 
Q 44.96875 8.296875 48.78125 10.40625 
L 48.78125 2.09375 
Q 45.015625 0.34375 40.984375 -0.53125 
Q 36.96875 -1.421875 32.421875 -1.421875 
Q 20.0625 -1.421875 12.78125 6.34375 
Q 5.515625 14.109375 5.515625 27.296875 
Q 5.515625 40.671875 12.859375 48.328125 
Q 20.21875 56 33.015625 56 
Q 37.15625 56 41.109375 55.140625 
Q 45.0625 54.296875 48.78125 52.59375 
z
" id="DejaVuSans-99"/>
        <path d="M 18.3125 70.21875 
L 18.3125 54.6875 
L 36.8125 54.6875 
L 36.8125 47.703125 
L 18.3125 47.703125 
L 18.3125 18.015625 
Q 18.3125 11.328125 20.140625 9.421875 
Q 21.96875 7.515625 27.59375 7.515625 
L 36.8125 7.515625 
L 36.8125 0 
L 27.59375 0 
Q 17.1875 0 13.234375 3.875 
Q 9.28125 7.765625 9.28125 18.015625 
L 9.28125 47.703125 
L 2.6875 47.703125 
L 2.6875 54.6875 
L 9.28125 54.6875 
L 9.28125 70.21875 
z
" id="DejaVuSans-116"/>
       </defs>
       <use xlink:href="#DejaVuSans-79"/>
       <use x="78.710938" xlink:href="#DejaVuSans-99"/>
       <use x="133.691406" xlink:href="#DejaVuSans-116"/>
      </g>
     </g>
    </g>
    <g id="xtick_8">
     <g id="line2d_8">
      <g>
       <use style="stroke:#000000;stroke-width:0.8;" x="436.818462" xlink:href="#m1cc3016555" y="315"/>
      </g>
     </g>
     <g id="text_7">
      <!-- Nov -->
      <g transform="translate(427.059087 329.598437)scale(0.1 -0.1)">
       <defs>
        <path d="M 9.8125 72.90625 
L 23.09375 72.90625 
L 55.421875 11.921875 
L 55.421875 72.90625 
L 64.984375 72.90625 
L 64.984375 0 
L 51.703125 0 
L 19.390625 60.984375 
L 19.390625 0 
L 9.8125 0 
z
" id="DejaVuSans-78"/>
        <path d="M 30.609375 48.390625 
Q 23.390625 48.390625 19.1875 42.75 
Q 14.984375 37.109375 14.984375 27.296875 
Q 14.984375 17.484375 19.15625 11.84375 
Q 23.34375 6.203125 30.609375 6.203125 
Q 37.796875 6.203125 41.984375 11.859375 
Q 46.1875 17.53125 46.1875 27.296875 
Q 46.1875 37.015625 41.984375 42.703125 
Q 37.796875 48.390625 30.609375 48.390625 
z
M 30.609375 56 
Q 42.328125 56 49.015625 48.375 
Q 55.71875 40.765625 55.71875 27.296875 
Q 55.71875 13.875 49.015625 6.21875 
Q 42.328125 -1.421875 30.609375 -1.421875 
Q 18.84375 -1.421875 12.171875 6.21875 
Q 5.515625 13.875 5.515625 27.296875 
Q 5.515625 40.765625 12.171875 48.375 
Q 18.84375 56 30.609375 56 
z
" id="DejaVuSans-111"/>
        <path d="M 2.984375 54.6875 
L 12.5 54.6875 
L 29.59375 8.796875 
L 46.6875 54.6875 
L 56.203125 54.6875 
L 35.6875 0 
L 23.484375 0 
z
" id="DejaVuSans-118"/>
       </defs>
       <use xlink:href="#DejaVuSans-78"/>
       <use x="74.804688" xlink:href="#DejaVuSans-111"/>
       <use x="135.986328" xlink:href="#DejaVuSans-118"/>
      </g>
     </g>
    </g>
    <g id="xtick_9">
     <g id="line2d_9">
      <g>
       <use style="stroke:#000000;stroke-width:0.8;" x="488.326154" xlink:href="#m1cc3016555" y="315"/>
      </g>
     </g>
     <g id="text_8">
      <!-- Dec -->
      <g transform="translate(478.650373 329.598437)scale(0.1 -0.1)">
       <defs>
        <path d="M 19.671875 64.796875 
L 19.671875 8.109375 
L 31.59375 8.109375 
Q 46.6875 8.109375 53.6875 14.9375 
Q 60.6875 21.78125 60.6875 36.53125 
Q 60.6875 51.171875 53.6875 57.984375 
Q 46.6875 64.796875 31.59375 64.796875 
z
M 9.8125 72.90625 
L 30.078125 72.90625 
Q 51.265625 72.90625 61.171875 64.09375 
Q 71.09375 55.28125 71.09375 36.53125 
Q 71.09375 17.671875 61.125 8.828125 
Q 51.171875 0 30.078125 0 
L 9.8125 0 
z
" id="DejaVuSans-68"/>
       </defs>
       <use xlink:href="#DejaVuSans-68"/>
       <use x="77.001953" xlink:href="#DejaVuSans-101"/>
       <use x="138.525391" xlink:href="#DejaVuSans-99"/>
      </g>
     </g>
    </g>
    <g id="xtick_10">
     <g id="line2d_10">
      <g>
       <use style="stroke:#000000;stroke-width:0.8;" x="541.550769" xlink:href="#m1cc3016555" y="315"/>
      </g>
     </g>
     <g id="text_9">
      <!-- Jan -->
      <g transform="translate(533.842957 329.598437)scale(0.1 -0.1)">
       <use xlink:href="#DejaVuSans-74"/>
       <use x="29.492188" xlink:href="#DejaVuSans-97"/>
       <use x="90.771484" xlink:href="#DejaVuSans-110"/>
      </g>
      <!-- 2021 -->
      <g transform="translate(528.825769 340.79625)scale(0.1 -0.1)">
       <defs>
        <path d="M 19.1875 8.296875 
L 53.609375 8.296875 
L 53.609375 0 
L 7.328125 0 
L 7.328125 8.296875 
Q 12.9375 14.109375 22.625 23.890625 
Q 32.328125 33.6875 34.8125 36.53125 
Q 39.546875 41.84375 41.421875 45.53125 
Q 43.3125 49.21875 43.3125 52.78125 
Q 43.3125 58.59375 39.234375 62.25 
Q 35.15625 65.921875 28.609375 65.921875 
Q 23.96875 65.921875 18.8125 64.3125 
Q 13.671875 62.703125 7.8125 59.421875 
L 7.8125 69.390625 
Q 13.765625 71.78125 18.9375 73 
Q 24.125 74.21875 28.421875 74.21875 
Q 39.75 74.21875 46.484375 68.546875 
Q 53.21875 62.890625 53.21875 53.421875 
Q 53.21875 48.921875 51.53125 44.890625 
Q 49.859375 40.875 45.40625 35.40625 
Q 44.1875 33.984375 37.640625 27.21875 
Q 31.109375 20.453125 19.1875 8.296875 
z
" id="DejaVuSans-50"/>
        <path d="M 31.78125 66.40625 
Q 24.171875 66.40625 20.328125 58.90625 
Q 16.5 51.421875 16.5 36.375 
Q 16.5 21.390625 20.328125 13.890625 
Q 24.171875 6.390625 31.78125 6.390625 
Q 39.453125 6.390625 43.28125 13.890625 
Q 47.125 21.390625 47.125 36.375 
Q 47.125 51.421875 43.28125 58.90625 
Q 39.453125 66.40625 31.78125 66.40625 
z
M 31.78125 74.21875 
Q 44.046875 74.21875 50.515625 64.515625 
Q 56.984375 54.828125 56.984375 36.375 
Q 56.984375 17.96875 50.515625 8.265625 
Q 44.046875 -1.421875 31.78125 -1.421875 
Q 19.53125 -1.421875 13.0625 8.265625 
Q 6.59375 17.96875 6.59375 36.375 
Q 6.59375 54.828125 13.0625 64.515625 
Q 19.53125 74.21875 31.78125 74.21875 
z
" id="DejaVuSans-48"/>
        <path d="M 12.40625 8.296875 
L 28.515625 8.296875 
L 28.515625 63.921875 
L 10.984375 60.40625 
L 10.984375 69.390625 
L 28.421875 72.90625 
L 38.28125 72.90625 
L 38.28125 8.296875 
L 54.390625 8.296875 
L 54.390625 0 
L 12.40625 0 
z
" id="DejaVuSans-49"/>
       </defs>
       <use xlink:href="#DejaVuSans-50"/>
       <use x="63.623047" xlink:href="#DejaVuSans-48"/>
       <use x="127.246094" xlink:href="#DejaVuSans-50"/>
       <use x="190.869141" xlink:href="#DejaVuSans-49"/>
      </g>
     </g>
    </g>
    <g id="xtick_11">
     <g id="line2d_11">
      <g>
       <use style="stroke:#000000;stroke-width:0.8;" x="594.775385" xlink:href="#m1cc3016555" y="315"/>
      </g>
     </g>
     <g id="text_10">
      <!-- Feb -->
      <g transform="translate(585.923822 329.598437)scale(0.1 -0.1)">
       <defs>
        <path d="M 9.8125 72.90625 
L 51.703125 72.90625 
L 51.703125 64.59375 
L 19.671875 64.59375 
L 19.671875 43.109375 
L 48.578125 43.109375 
L 48.578125 34.8125 
L 19.671875 34.8125 
L 19.671875 0 
L 9.8125 0 
z
" id="DejaVuSans-70"/>
        <path d="M 48.6875 27.296875 
Q 48.6875 37.203125 44.609375 42.84375 
Q 40.53125 48.484375 33.40625 48.484375 
Q 26.265625 48.484375 22.1875 42.84375 
Q 18.109375 37.203125 18.109375 27.296875 
Q 18.109375 17.390625 22.1875 11.75 
Q 26.265625 6.109375 33.40625 6.109375 
Q 40.53125 6.109375 44.609375 11.75 
Q 48.6875 17.390625 48.6875 27.296875 
z
M 18.109375 46.390625 
Q 20.953125 51.265625 25.265625 53.625 
Q 29.59375 56 35.59375 56 
Q 45.5625 56 51.78125 48.09375 
Q 58.015625 40.1875 58.015625 27.296875 
Q 58.015625 14.40625 51.78125 6.484375 
Q 45.5625 -1.421875 35.59375 -1.421875 
Q 29.59375 -1.421875 25.265625 0.953125 
Q 20.953125 3.328125 18.109375 8.203125 
L 18.109375 0 
L 9.078125 0 
L 9.078125 75.984375 
L 18.109375 75.984375 
z
" id="DejaVuSans-98"/>
       </defs>
       <use xlink:href="#DejaVuSans-70"/>
       <use x="52.019531" xlink:href="#DejaVuSans-101"/>
       <use x="113.542969" xlink:href="#DejaVuSans-98"/>
      </g>
     </g>
    </g>
    <g id="xtick_12">
     <g id="line2d_12">
      <g>
       <use style="stroke:#000000;stroke-width:0.8;" x="642.849231" xlink:href="#m1cc3016555" y="315"/>
      </g>
     </g>
     <g id="text_11">
      <!-- Mar -->
      <g transform="translate(633.415637 329.598437)scale(0.1 -0.1)">
       <defs>
        <path d="M 41.109375 46.296875 
Q 39.59375 47.171875 37.8125 47.578125 
Q 36.03125 48 33.890625 48 
Q 26.265625 48 22.1875 43.046875 
Q 18.109375 38.09375 18.109375 28.8125 
L 18.109375 0 
L 9.078125 0 
L 9.078125 54.6875 
L 18.109375 54.6875 
L 18.109375 46.1875 
Q 20.953125 51.171875 25.484375 53.578125 
Q 30.03125 56 36.53125 56 
Q 37.453125 56 38.578125 55.875 
Q 39.703125 55.765625 41.0625 55.515625 
z
" id="DejaVuSans-114"/>
       </defs>
       <use xlink:href="#DejaVuSans-77"/>
       <use x="86.279297" xlink:href="#DejaVuSans-97"/>
       <use x="147.558594" xlink:href="#DejaVuSans-114"/>
      </g>
     </g>
    </g>
    <g id="xtick_13">
     <g id="line2d_13">
      <g>
       <use style="stroke:#000000;stroke-width:0.8;" x="648" xlink:href="#m1cc3016555" y="315"/>
      </g>
     </g>
    </g>
    <g id="xtick_14">
     <g id="line2d_14">
      <defs>
       <path d="M 0 0 
L 0 2 
" id="m6646f1437f" style="stroke:#000000;stroke-width:0.6;"/>
      </defs>
      <g>
       <use style="stroke:#000000;stroke-width:0.6;" x="102.018462" xlink:href="#m6646f1437f" y="315"/>
      </g>
     </g>
    </g>
    <g id="xtick_15">
     <g id="line2d_15">
      <g>
       <use style="stroke:#000000;stroke-width:0.6;" x="114.036923" xlink:href="#m6646f1437f" y="315"/>
      </g>
     </g>
    </g>
    <g id="xtick_16">
     <g id="line2d_16">
      <g>
       <use style="stroke:#000000;stroke-width:0.6;" x="126.055385" xlink:href="#m6646f1437f" y="315"/>
      </g>
     </g>
    </g>
    <g id="xtick_17">
     <g id="line2d_17">
      <g>
       <use style="stroke:#000000;stroke-width:0.6;" x="138.073846" xlink:href="#m6646f1437f" y="315"/>
      </g>
     </g>
    </g>
    <g id="xtick_18">
     <g id="line2d_18">
      <g>
       <use style="stroke:#000000;stroke-width:0.6;" x="150.092308" xlink:href="#m6646f1437f" y="315"/>
      </g>
     </g>
    </g>
    <g id="xtick_19">
     <g id="line2d_19">
      <g>
       <use style="stroke:#000000;stroke-width:0.6;" x="162.110769" xlink:href="#m6646f1437f" y="315"/>
      </g>
     </g>
    </g>
    <g id="xtick_20">
     <g id="line2d_20">
      <g>
       <use style="stroke:#000000;stroke-width:0.6;" x="186.147692" xlink:href="#m6646f1437f" y="315"/>
      </g>
     </g>
    </g>
    <g id="xtick_21">
     <g id="line2d_21">
      <g>
       <use style="stroke:#000000;stroke-width:0.6;" x="198.166154" xlink:href="#m6646f1437f" y="315"/>
      </g>
     </g>
    </g>
    <g id="xtick_22">
     <g id="line2d_22">
      <g>
       <use style="stroke:#000000;stroke-width:0.6;" x="210.184615" xlink:href="#m6646f1437f" y="315"/>
      </g>
     </g>
    </g>
    <g id="xtick_23">
     <g id="line2d_23">
      <g>
       <use style="stroke:#000000;stroke-width:0.6;" x="222.203077" xlink:href="#m6646f1437f" y="315"/>
      </g>
     </g>
    </g>
    <g id="xtick_24">
     <g id="line2d_24">
      <g>
       <use style="stroke:#000000;stroke-width:0.6;" x="234.221538" xlink:href="#m6646f1437f" y="315"/>
      </g>
     </g>
    </g>
    <g id="xtick_25">
     <g id="line2d_25">
      <g>
       <use style="stroke:#000000;stroke-width:0.6;" x="246.24" xlink:href="#m6646f1437f" y="315"/>
      </g>
     </g>
    </g>
    <g id="xtick_26">
     <g id="line2d_26">
      <g>
       <use style="stroke:#000000;stroke-width:0.6;" x="258.258462" xlink:href="#m6646f1437f" y="315"/>
      </g>
     </g>
    </g>
    <g id="xtick_27">
     <g id="line2d_27">
      <g>
       <use style="stroke:#000000;stroke-width:0.6;" x="270.276923" xlink:href="#m6646f1437f" y="315"/>
      </g>
     </g>
    </g>
    <g id="xtick_28">
     <g id="line2d_28">
      <g>
       <use style="stroke:#000000;stroke-width:0.6;" x="282.295385" xlink:href="#m6646f1437f" y="315"/>
      </g>
     </g>
    </g>
    <g id="xtick_29">
     <g id="line2d_29">
      <g>
       <use style="stroke:#000000;stroke-width:0.6;" x="294.313846" xlink:href="#m6646f1437f" y="315"/>
      </g>
     </g>
    </g>
    <g id="xtick_30">
     <g id="line2d_30">
      <g>
       <use style="stroke:#000000;stroke-width:0.6;" x="306.332308" xlink:href="#m6646f1437f" y="315"/>
      </g>
     </g>
    </g>
    <g id="xtick_31">
     <g id="line2d_31">
      <g>
       <use style="stroke:#000000;stroke-width:0.6;" x="318.350769" xlink:href="#m6646f1437f" y="315"/>
      </g>
     </g>
    </g>
    <g id="xtick_32">
     <g id="line2d_32">
      <g>
       <use style="stroke:#000000;stroke-width:0.6;" x="330.369231" xlink:href="#m6646f1437f" y="315"/>
      </g>
     </g>
    </g>
    <g id="xtick_33">
     <g id="line2d_33">
      <g>
       <use style="stroke:#000000;stroke-width:0.6;" x="342.387692" xlink:href="#m6646f1437f" y="315"/>
      </g>
     </g>
    </g>
    <g id="xtick_34">
     <g id="line2d_34">
      <g>
       <use style="stroke:#000000;stroke-width:0.6;" x="354.406154" xlink:href="#m6646f1437f" y="315"/>
      </g>
     </g>
    </g>
    <g id="xtick_35">
     <g id="line2d_35">
      <g>
       <use style="stroke:#000000;stroke-width:0.6;" x="366.424615" xlink:href="#m6646f1437f" y="315"/>
      </g>
     </g>
    </g>
    <g id="xtick_36">
     <g id="line2d_36">
      <g>
       <use style="stroke:#000000;stroke-width:0.6;" x="378.443077" xlink:href="#m6646f1437f" y="315"/>
      </g>
     </g>
    </g>
    <g id="xtick_37">
     <g id="line2d_37">
      <g>
       <use style="stroke:#000000;stroke-width:0.6;" x="390.461538" xlink:href="#m6646f1437f" y="315"/>
      </g>
     </g>
    </g>
    <g id="xtick_38">
     <g id="line2d_38">
      <g>
       <use style="stroke:#000000;stroke-width:0.6;" x="402.48" xlink:href="#m6646f1437f" y="315"/>
      </g>
     </g>
    </g>
    <g id="xtick_39">
     <g id="line2d_39">
      <g>
       <use style="stroke:#000000;stroke-width:0.6;" x="414.498462" xlink:href="#m6646f1437f" y="315"/>
      </g>
     </g>
    </g>
    <g id="xtick_40">
     <g id="line2d_40">
      <g>
       <use style="stroke:#000000;stroke-width:0.6;" x="426.516923" xlink:href="#m6646f1437f" y="315"/>
      </g>
     </g>
    </g>
    <g id="xtick_41">
     <g id="line2d_41">
      <g>
       <use style="stroke:#000000;stroke-width:0.6;" x="438.535385" xlink:href="#m6646f1437f" y="315"/>
      </g>
     </g>
    </g>
    <g id="xtick_42">
     <g id="line2d_42">
      <g>
       <use style="stroke:#000000;stroke-width:0.6;" x="450.553846" xlink:href="#m6646f1437f" y="315"/>
      </g>
     </g>
    </g>
    <g id="xtick_43">
     <g id="line2d_43">
      <g>
       <use style="stroke:#000000;stroke-width:0.6;" x="462.572308" xlink:href="#m6646f1437f" y="315"/>
      </g>
     </g>
    </g>
    <g id="xtick_44">
     <g id="line2d_44">
      <g>
       <use style="stroke:#000000;stroke-width:0.6;" x="474.590769" xlink:href="#m6646f1437f" y="315"/>
      </g>
     </g>
    </g>
    <g id="xtick_45">
     <g id="line2d_45">
      <g>
       <use style="stroke:#000000;stroke-width:0.6;" x="486.609231" xlink:href="#m6646f1437f" y="315"/>
      </g>
     </g>
    </g>
    <g id="xtick_46">
     <g id="line2d_46">
      <g>
       <use style="stroke:#000000;stroke-width:0.6;" x="498.627692" xlink:href="#m6646f1437f" y="315"/>
      </g>
     </g>
    </g>
    <g id="xtick_47">
     <g id="line2d_47">
      <g>
       <use style="stroke:#000000;stroke-width:0.6;" x="510.646154" xlink:href="#m6646f1437f" y="315"/>
      </g>
     </g>
    </g>
    <g id="xtick_48">
     <g id="line2d_48">
      <g>
       <use style="stroke:#000000;stroke-width:0.6;" x="522.664615" xlink:href="#m6646f1437f" y="315"/>
      </g>
     </g>
    </g>
    <g id="xtick_49">
     <g id="line2d_49">
      <g>
       <use style="stroke:#000000;stroke-width:0.6;" x="534.683077" xlink:href="#m6646f1437f" y="315"/>
      </g>
     </g>
    </g>
    <g id="xtick_50">
     <g id="line2d_50">
      <g>
       <use style="stroke:#000000;stroke-width:0.6;" x="546.701538" xlink:href="#m6646f1437f" y="315"/>
      </g>
     </g>
    </g>
    <g id="xtick_51">
     <g id="line2d_51">
      <g>
       <use style="stroke:#000000;stroke-width:0.6;" x="558.72" xlink:href="#m6646f1437f" y="315"/>
      </g>
     </g>
    </g>
    <g id="xtick_52">
     <g id="line2d_52">
      <g>
       <use style="stroke:#000000;stroke-width:0.6;" x="570.738462" xlink:href="#m6646f1437f" y="315"/>
      </g>
     </g>
    </g>
    <g id="xtick_53">
     <g id="line2d_53">
      <g>
       <use style="stroke:#000000;stroke-width:0.6;" x="582.756923" xlink:href="#m6646f1437f" y="315"/>
      </g>
     </g>
    </g>
    <g id="xtick_54">
     <g id="line2d_54">
      <g>
       <use style="stroke:#000000;stroke-width:0.6;" x="606.793846" xlink:href="#m6646f1437f" y="315"/>
      </g>
     </g>
    </g>
    <g id="xtick_55">
     <g id="line2d_55">
      <g>
       <use style="stroke:#000000;stroke-width:0.6;" x="618.812308" xlink:href="#m6646f1437f" y="315"/>
      </g>
     </g>
    </g>
    <g id="xtick_56">
     <g id="line2d_56">
      <g>
       <use style="stroke:#000000;stroke-width:0.6;" x="630.830769" xlink:href="#m6646f1437f" y="315"/>
      </g>
     </g>
    </g>
    <g id="text_12">
     <!-- date -->
     <g transform="translate(357.725 354.474375)scale(0.1 -0.1)">
      <defs>
       <path d="M 45.40625 46.390625 
L 45.40625 75.984375 
L 54.390625 75.984375 
L 54.390625 0 
L 45.40625 0 
L 45.40625 8.203125 
Q 42.578125 3.328125 38.25 0.953125 
Q 33.9375 -1.421875 27.875 -1.421875 
Q 17.96875 -1.421875 11.734375 6.484375 
Q 5.515625 14.40625 5.515625 27.296875 
Q 5.515625 40.1875 11.734375 48.09375 
Q 17.96875 56 27.875 56 
Q 33.9375 56 38.25 53.625 
Q 42.578125 51.265625 45.40625 46.390625 
z
M 14.796875 27.296875 
Q 14.796875 17.390625 18.875 11.75 
Q 22.953125 6.109375 30.078125 6.109375 
Q 37.203125 6.109375 41.296875 11.75 
Q 45.40625 17.390625 45.40625 27.296875 
Q 45.40625 37.203125 41.296875 42.84375 
Q 37.203125 48.484375 30.078125 48.484375 
Q 22.953125 48.484375 18.875 42.84375 
Q 14.796875 37.203125 14.796875 27.296875 
z
" id="DejaVuSans-100"/>
      </defs>
      <use xlink:href="#DejaVuSans-100"/>
      <use x="63.476562" xlink:href="#DejaVuSans-97"/>
      <use x="124.755859" xlink:href="#DejaVuSans-116"/>
      <use x="163.964844" xlink:href="#DejaVuSans-101"/>
     </g>
    </g>
   </g>
   <g id="matplotlib.axis_2">
    <g id="ytick_1">
     <g id="line2d_57">
      <path clip-path="url(#pa38760550f)" d="M 90 296.992269 
L 648 296.992269 
" style="fill:none;stroke:#b0b0b0;stroke-dasharray:0.8,1.32;stroke-dashoffset:0;stroke-width:0.8;"/>
     </g>
     <g id="line2d_58">
      <defs>
       <path d="M 0 0 
L -3.5 0 
" id="me26b0b6181" style="stroke:#000000;stroke-width:0.8;"/>
      </defs>
      <g>
       <use style="stroke:#000000;stroke-width:0.8;" x="90" xlink:href="#me26b0b6181" y="296.992269"/>
      </g>
     </g>
     <g id="text_13">
      <!-- 0.4 -->
      <g transform="translate(67.096875 300.791488)scale(0.1 -0.1)">
       <defs>
        <path d="M 10.6875 12.40625 
L 21 12.40625 
L 21 0 
L 10.6875 0 
z
" id="DejaVuSans-46"/>
        <path d="M 37.796875 64.3125 
L 12.890625 25.390625 
L 37.796875 25.390625 
z
M 35.203125 72.90625 
L 47.609375 72.90625 
L 47.609375 25.390625 
L 58.015625 25.390625 
L 58.015625 17.1875 
L 47.609375 17.1875 
L 47.609375 0 
L 37.796875 0 
L 37.796875 17.1875 
L 4.890625 17.1875 
L 4.890625 26.703125 
z
" id="DejaVuSans-52"/>
       </defs>
       <use xlink:href="#DejaVuSans-48"/>
       <use x="63.623047" xlink:href="#DejaVuSans-46"/>
       <use x="95.410156" xlink:href="#DejaVuSans-52"/>
      </g>
     </g>
    </g>
    <g id="ytick_2">
     <g id="line2d_59">
      <path clip-path="url(#pa38760550f)" d="M 90 264.355777 
L 648 264.355777 
" style="fill:none;stroke:#b0b0b0;stroke-dasharray:0.8,1.32;stroke-dashoffset:0;stroke-width:0.8;"/>
     </g>
     <g id="line2d_60">
      <g>
       <use style="stroke:#000000;stroke-width:0.8;" x="90" xlink:href="#me26b0b6181" y="264.355777"/>
      </g>
     </g>
     <g id="text_14">
      <!-- 0.6 -->
      <g transform="translate(67.096875 268.154996)scale(0.1 -0.1)">
       <defs>
        <path d="M 33.015625 40.375 
Q 26.375 40.375 22.484375 35.828125 
Q 18.609375 31.296875 18.609375 23.390625 
Q 18.609375 15.53125 22.484375 10.953125 
Q 26.375 6.390625 33.015625 6.390625 
Q 39.65625 6.390625 43.53125 10.953125 
Q 47.40625 15.53125 47.40625 23.390625 
Q 47.40625 31.296875 43.53125 35.828125 
Q 39.65625 40.375 33.015625 40.375 
z
M 52.59375 71.296875 
L 52.59375 62.3125 
Q 48.875 64.0625 45.09375 64.984375 
Q 41.3125 65.921875 37.59375 65.921875 
Q 27.828125 65.921875 22.671875 59.328125 
Q 17.53125 52.734375 16.796875 39.40625 
Q 19.671875 43.65625 24.015625 45.921875 
Q 28.375 48.1875 33.59375 48.1875 
Q 44.578125 48.1875 50.953125 41.515625 
Q 57.328125 34.859375 57.328125 23.390625 
Q 57.328125 12.15625 50.6875 5.359375 
Q 44.046875 -1.421875 33.015625 -1.421875 
Q 20.359375 -1.421875 13.671875 8.265625 
Q 6.984375 17.96875 6.984375 36.375 
Q 6.984375 53.65625 15.1875 63.9375 
Q 23.390625 74.21875 37.203125 74.21875 
Q 40.921875 74.21875 44.703125 73.484375 
Q 48.484375 72.75 52.59375 71.296875 
z
" id="DejaVuSans-54"/>
       </defs>
       <use xlink:href="#DejaVuSans-48"/>
       <use x="63.623047" xlink:href="#DejaVuSans-46"/>
       <use x="95.410156" xlink:href="#DejaVuSans-54"/>
      </g>
     </g>
    </g>
    <g id="ytick_3">
     <g id="line2d_61">
      <path clip-path="url(#pa38760550f)" d="M 90 231.719285 
L 648 231.719285 
" style="fill:none;stroke:#b0b0b0;stroke-dasharray:0.8,1.32;stroke-dashoffset:0;stroke-width:0.8;"/>
     </g>
     <g id="line2d_62">
      <g>
       <use style="stroke:#000000;stroke-width:0.8;" x="90" xlink:href="#me26b0b6181" y="231.719285"/>
      </g>
     </g>
     <g id="text_15">
      <!-- 0.8 -->
      <g transform="translate(67.096875 235.518504)scale(0.1 -0.1)">
       <defs>
        <path d="M 31.78125 34.625 
Q 24.75 34.625 20.71875 30.859375 
Q 16.703125 27.09375 16.703125 20.515625 
Q 16.703125 13.921875 20.71875 10.15625 
Q 24.75 6.390625 31.78125 6.390625 
Q 38.8125 6.390625 42.859375 10.171875 
Q 46.921875 13.96875 46.921875 20.515625 
Q 46.921875 27.09375 42.890625 30.859375 
Q 38.875 34.625 31.78125 34.625 
z
M 21.921875 38.8125 
Q 15.578125 40.375 12.03125 44.71875 
Q 8.5 49.078125 8.5 55.328125 
Q 8.5 64.0625 14.71875 69.140625 
Q 20.953125 74.21875 31.78125 74.21875 
Q 42.671875 74.21875 48.875 69.140625 
Q 55.078125 64.0625 55.078125 55.328125 
Q 55.078125 49.078125 51.53125 44.71875 
Q 48 40.375 41.703125 38.8125 
Q 48.828125 37.15625 52.796875 32.3125 
Q 56.78125 27.484375 56.78125 20.515625 
Q 56.78125 9.90625 50.3125 4.234375 
Q 43.84375 -1.421875 31.78125 -1.421875 
Q 19.734375 -1.421875 13.25 4.234375 
Q 6.78125 9.90625 6.78125 20.515625 
Q 6.78125 27.484375 10.78125 32.3125 
Q 14.796875 37.15625 21.921875 38.8125 
z
M 18.3125 54.390625 
Q 18.3125 48.734375 21.84375 45.5625 
Q 25.390625 42.390625 31.78125 42.390625 
Q 38.140625 42.390625 41.71875 45.5625 
Q 45.3125 48.734375 45.3125 54.390625 
Q 45.3125 60.0625 41.71875 63.234375 
Q 38.140625 66.40625 31.78125 66.40625 
Q 25.390625 66.40625 21.84375 63.234375 
Q 18.3125 60.0625 18.3125 54.390625 
z
" id="DejaVuSans-56"/>
       </defs>
       <use xlink:href="#DejaVuSans-48"/>
       <use x="63.623047" xlink:href="#DejaVuSans-46"/>
       <use x="95.410156" xlink:href="#DejaVuSans-56"/>
      </g>
     </g>
    </g>
    <g id="ytick_4">
     <g id="line2d_63">
      <path clip-path="url(#pa38760550f)" d="M 90 199.082793 
L 648 199.082793 
" style="fill:none;stroke:#b0b0b0;stroke-dasharray:0.8,1.32;stroke-dashoffset:0;stroke-width:0.8;"/>
     </g>
     <g id="line2d_64">
      <g>
       <use style="stroke:#000000;stroke-width:0.8;" x="90" xlink:href="#me26b0b6181" y="199.082793"/>
      </g>
     </g>
     <g id="text_16">
      <!-- 1.0 -->
      <g transform="translate(67.096875 202.882012)scale(0.1 -0.1)">
       <use xlink:href="#DejaVuSans-49"/>
       <use x="63.623047" xlink:href="#DejaVuSans-46"/>
       <use x="95.410156" xlink:href="#DejaVuSans-48"/>
      </g>
     </g>
    </g>
    <g id="ytick_5">
     <g id="line2d_65">
      <path clip-path="url(#pa38760550f)" d="M 90 166.446301 
L 648 166.446301 
" style="fill:none;stroke:#b0b0b0;stroke-dasharray:0.8,1.32;stroke-dashoffset:0;stroke-width:0.8;"/>
     </g>
     <g id="line2d_66">
      <g>
       <use style="stroke:#000000;stroke-width:0.8;" x="90" xlink:href="#me26b0b6181" y="166.446301"/>
      </g>
     </g>
     <g id="text_17">
      <!-- 1.2 -->
      <g transform="translate(67.096875 170.24552)scale(0.1 -0.1)">
       <use xlink:href="#DejaVuSans-49"/>
       <use x="63.623047" xlink:href="#DejaVuSans-46"/>
       <use x="95.410156" xlink:href="#DejaVuSans-50"/>
      </g>
     </g>
    </g>
    <g id="ytick_6">
     <g id="line2d_67">
      <path clip-path="url(#pa38760550f)" d="M 90 133.809809 
L 648 133.809809 
" style="fill:none;stroke:#b0b0b0;stroke-dasharray:0.8,1.32;stroke-dashoffset:0;stroke-width:0.8;"/>
     </g>
     <g id="line2d_68">
      <g>
       <use style="stroke:#000000;stroke-width:0.8;" x="90" xlink:href="#me26b0b6181" y="133.809809"/>
      </g>
     </g>
     <g id="text_18">
      <!-- 1.4 -->
      <g transform="translate(67.096875 137.609028)scale(0.1 -0.1)">
       <use xlink:href="#DejaVuSans-49"/>
       <use x="63.623047" xlink:href="#DejaVuSans-46"/>
       <use x="95.410156" xlink:href="#DejaVuSans-52"/>
      </g>
     </g>
    </g>
    <g id="ytick_7">
     <g id="line2d_69">
      <path clip-path="url(#pa38760550f)" d="M 90 101.173317 
L 648 101.173317 
" style="fill:none;stroke:#b0b0b0;stroke-dasharray:0.8,1.32;stroke-dashoffset:0;stroke-width:0.8;"/>
     </g>
     <g id="line2d_70">
      <g>
       <use style="stroke:#000000;stroke-width:0.8;" x="90" xlink:href="#me26b0b6181" y="101.173317"/>
      </g>
     </g>
     <g id="text_19">
      <!-- 1.6 -->
      <g transform="translate(67.096875 104.972536)scale(0.1 -0.1)">
       <use xlink:href="#DejaVuSans-49"/>
       <use x="63.623047" xlink:href="#DejaVuSans-46"/>
       <use x="95.410156" xlink:href="#DejaVuSans-54"/>
      </g>
     </g>
    </g>
    <g id="ytick_8">
     <g id="line2d_71">
      <path clip-path="url(#pa38760550f)" d="M 90 68.536825 
L 648 68.536825 
" style="fill:none;stroke:#b0b0b0;stroke-dasharray:0.8,1.32;stroke-dashoffset:0;stroke-width:0.8;"/>
     </g>
     <g id="line2d_72">
      <g>
       <use style="stroke:#000000;stroke-width:0.8;" x="90" xlink:href="#me26b0b6181" y="68.536825"/>
      </g>
     </g>
     <g id="text_20">
      <!-- 1.8 -->
      <g transform="translate(67.096875 72.336044)scale(0.1 -0.1)">
       <use xlink:href="#DejaVuSans-49"/>
       <use x="63.623047" xlink:href="#DejaVuSans-46"/>
       <use x="95.410156" xlink:href="#DejaVuSans-56"/>
      </g>
     </g>
    </g>
   </g>
   <g id="line2d_73">
    <path clip-path="url(#pa38760550f)" d="M 90 268.647865 
L 91.716923 269.24606 
L 93.433846 267.727293 
L 95.150769 267.916621 
L 96.867692 266.391114 
L 98.584615 265.698842 
L 100.301538 264.316237 
L 102.018462 262.444229 
L 103.735385 259.946542 
L 105.452308 258.706429 
L 107.169231 256.649257 
L 110.603077 253.16141 
L 112.32 250.786094 
L 114.036923 249.456141 
L 115.753846 246.984745 
L 117.470769 244.889927 
L 122.621538 237.423707 
L 124.338462 235.038677 
L 126.055385 232.176963 
L 129.489231 225.623989 
L 131.206154 223.388579 
L 136.356923 214.347872 
L 138.073846 210.735573 
L 139.790769 207.843997 
L 141.507692 204.54338 
L 143.224615 201.604326 
L 144.941538 196.062521 
L 146.658462 194.743156 
L 148.375385 192.73286 
L 150.092308 189.420126 
L 151.809231 188.918382 
L 153.526154 185.65465 
L 156.96 180.851537 
L 158.676923 179.313473 
L 160.393846 178.572729 
L 162.110769 175.374362 
L 163.827692 173.925429 
L 165.544615 171.726877 
L 167.261538 167.766248 
L 168.978462 167.022488 
L 170.695385 166.614766 
L 172.412308 164.899733 
L 174.129231 163.982487 
L 175.846154 161.5896 
L 177.563077 159.820264 
L 179.28 158.70179 
L 180.996923 156.299818 
L 182.713846 155.310087 
L 184.430769 150.725444 
L 186.147692 148.849513 
L 187.864615 147.221365 
L 189.581538 143.536888 
L 191.298462 141.176967 
L 193.015385 137.954631 
L 196.449231 132.383123 
L 199.883077 126.927395 
L 201.6 124.529606 
L 203.316923 121.043278 
L 205.033846 115.983957 
L 206.750769 111.978198 
L 208.467692 110.913812 
L 210.184615 108.698191 
L 211.901538 107.476706 
L 213.618462 107.200434 
L 215.335385 104.800692 
L 217.052308 101.688139 
L 218.769231 101.217408 
L 220.486154 100.181225 
L 222.203077 99.988483 
L 223.92 100.391141 
L 225.636923 102.494866 
L 227.353846 103.102162 
L 229.070769 105.027236 
L 230.787692 107.619212 
L 232.504615 111.674754 
L 234.221538 116.487584 
L 235.938462 119.861461 
L 237.655385 126.606539 
L 239.372308 131.903262 
L 242.806154 143.72416 
L 244.523077 150.971635 
L 246.24 154.943308 
L 247.956923 160.83114 
L 249.673846 168.083835 
L 251.390769 172.377811 
L 254.824615 183.607721 
L 256.541538 186.952165 
L 258.258462 190.798418 
L 259.975385 195.714372 
L 261.692308 199.300791 
L 263.409231 201.22975 
L 265.126154 203.393449 
L 268.56 208.357213 
L 270.276923 208.827056 
L 271.993846 209.845156 
L 273.710769 209.464625 
L 275.427692 207.807102 
L 277.144615 206.769238 
L 278.861538 205.169034 
L 280.578462 204.012687 
L 282.295385 202.416888 
L 284.012308 200.299711 
L 287.446154 194.587773 
L 289.163077 192.095738 
L 292.596923 186.65528 
L 294.313846 185.689192 
L 296.030769 183.112282 
L 299.464615 176.074062 
L 301.181538 174.422387 
L 302.898462 171.497503 
L 304.615385 168.990493 
L 306.332308 165.950174 
L 308.049231 163.696134 
L 309.766154 159.262018 
L 311.483077 156.642065 
L 314.916923 147.483264 
L 316.633846 143.998275 
L 318.350769 141.635113 
L 320.067692 135.987586 
L 321.784615 134.80032 
L 323.501538 133.082038 
L 325.218462 132.093858 
L 326.935385 134.088666 
L 328.652308 135.39445 
L 330.369231 136.333902 
L 332.086154 141.16332 
L 333.803077 145.491452 
L 335.52 150.76071 
L 337.236923 157.743212 
L 338.953846 163.620232 
L 342.387692 176.959482 
L 344.104615 184.779853 
L 345.821538 191.251784 
L 347.538462 199.474196 
L 349.255385 204.843824 
L 350.972308 211.374111 
L 352.689231 216.072899 
L 354.406154 221.698297 
L 356.123077 226.501813 
L 357.84 231.656158 
L 359.556923 235.342223 
L 361.273846 238.10862 
L 362.990769 241.900223 
L 366.424615 247.714459 
L 368.141538 250.385837 
L 369.858462 253.338736 
L 371.575385 254.591168 
L 373.292308 256.010944 
L 375.009231 256.861506 
L 376.726154 258.031143 
L 378.443077 257.709952 
L 380.16 258.396768 
L 381.876923 257.876396 
L 383.593846 258.896511 
L 385.310769 258.309778 
L 387.027692 258.538627 
L 388.744615 257.94548 
L 390.461538 256.811636 
L 392.178462 256.144064 
L 393.895385 253.642549 
L 395.612308 253.069479 
L 397.329231 251.490292 
L 399.046154 250.512022 
L 402.48 245.133508 
L 405.913846 238.324537 
L 407.630769 235.878799 
L 409.347692 231.306096 
L 411.064615 228.22882 
L 414.498462 220.606337 
L 416.215385 216.278659 
L 419.649231 209.290382 
L 421.366154 205.000255 
L 423.083077 201.459232 
L 424.8 197.535515 
L 426.516923 194.696259 
L 428.233846 190.861466 
L 429.950769 187.763429 
L 431.667692 183.471771 
L 433.384615 181.299215 
L 435.101538 177.931137 
L 436.818462 175.116853 
L 438.535385 174.205142 
L 441.969231 170.564915 
L 443.686154 168.474636 
L 445.403077 166.774179 
L 447.12 164.465767 
L 448.836923 161.486474 
L 450.553846 161.107255 
L 452.270769 158.931776 
L 453.987692 158.420977 
L 455.704615 155.288266 
L 457.421538 154.043793 
L 459.138462 151.381836 
L 460.855385 148.989677 
L 462.572308 146.304618 
L 464.289231 146.655211 
L 466.006154 143.886677 
L 467.723077 142.389997 
L 469.44 142.822033 
L 471.156923 140.651571 
L 472.873846 142.694878 
L 474.590769 140.174628 
L 476.307692 141.417568 
L 478.024615 141.520974 
L 479.741538 141.923364 
L 483.175385 139.829111 
L 484.892308 138.574232 
L 486.609231 138.167602 
L 488.326154 136.519976 
L 490.043077 137.103302 
L 491.76 136.861589 
L 493.476923 136.007796 
L 495.193846 136.53808 
L 496.910769 139.459589 
L 502.061538 144.603584 
L 503.778462 147.826614 
L 507.212308 153.32682 
L 508.929231 156.989858 
L 510.646154 160.289863 
L 512.363077 162.211118 
L 514.08 165.02788 
L 515.796923 169.252334 
L 517.513846 173.021777 
L 519.230769 175.871122 
L 520.947692 174.958262 
L 522.664615 176.630742 
L 524.381538 177.421937 
L 526.098462 178.778968 
L 527.815385 180.418604 
L 529.532308 181.013111 
L 531.249231 182.695345 
L 532.966154 184.653452 
L 534.683077 187.059029 
L 536.4 187.656594 
L 538.116923 189.521149 
L 541.550769 191.469765 
L 543.267692 193.100812 
L 544.984615 195.538058 
L 546.701538 196.877651 
L 548.418462 197.237178 
L 550.135385 199.442859 
L 551.852308 200.594747 
L 553.569231 202.00331 
L 555.286154 201.824734 
L 557.003077 202.033279 
L 558.72 202.049393 
L 560.436923 202.670722 
L 562.153846 203.023134 
L 563.870769 202.736375 
L 565.587692 202.213961 
L 567.304615 201.359195 
L 569.021538 200.325497 
L 570.738462 201.563096 
L 572.455385 201.36401 
L 574.172308 201.017971 
L 575.889231 202.68125 
L 577.606154 204.096303 
L 579.323077 205.03717 
L 581.04 206.331923 
L 582.756923 208.366593 
L 584.473846 210.704044 
L 587.907692 214.076513 
L 589.624615 216.339811 
L 593.058462 219.778941 
L 594.775385 221.530263 
L 596.492308 222.700581 
L 598.209231 223.228229 
L 599.926154 224.037412 
L 601.643077 224.500675 
L 603.36 225.191604 
L 605.076923 226.49299 
L 606.793846 227.334478 
L 608.510769 229.16529 
L 610.227692 230.058511 
L 611.944615 231.822867 
L 613.661538 232.991559 
L 615.378462 233.616888 
L 618.812308 238.690807 
L 620.529231 239.659826 
L 622.246154 241.54795 
L 623.963077 242.206956 
L 625.68 244.44232 
L 629.113846 247.473047 
L 630.830769 248.292118 
L 632.547692 248.900597 
L 634.264615 249.390666 
L 635.981538 250.552555 
L 637.698462 250.321976 
L 639.415385 250.282033 
L 641.132308 250.825852 
L 642.849231 251.169271 
L 644.566154 250.869522 
L 646.283077 251.421624 
L 648 251.306939 
L 649.716923 249.462056 
L 651.433846 250.582311 
L 653.150769 250.835197 
L 654.867692 250.344924 
L 656.584615 251.200729 
L 658.301538 249.329527 
L 660.018462 250.251397 
L 661.735385 250.279412 
L 661.735385 250.279412 
" style="fill:none;stroke:#fc997a;stroke-linecap:square;stroke-width:1.5;"/>
   </g>
   <g id="line2d_74">
    <path clip-path="url(#pa38760550f)" d="M 90 199.082793 
L 648 199.082793 
" style="fill:none;stroke:#000000;stroke-dasharray:3.7,1.6;stroke-dashoffset:0;"/>
   </g>
   <g id="patch_3">
    <path d="M 90 315 
L 90 43.2 
" style="fill:none;stroke:#000000;stroke-linecap:square;stroke-linejoin:miter;stroke-width:0.8;"/>
   </g>
   <g id="patch_4">
    <path d="M 648 315 
L 648 43.2 
" style="fill:none;stroke:#000000;stroke-linecap:square;stroke-linejoin:miter;stroke-width:0.8;"/>
   </g>
   <g id="patch_5">
    <path d="M 90 315 
L 648 315 
" style="fill:none;stroke:#000000;stroke-linecap:square;stroke-linejoin:miter;stroke-width:0.8;"/>
   </g>
   <g id="patch_6">
    <path d="M 90 43.2 
L 648 43.2 
" style="fill:none;stroke:#000000;stroke-linecap:square;stroke-linejoin:miter;stroke-width:0.8;"/>
   </g>
   <g id="text_21">
    <!-- 235   $R_t$ -->
    <g transform="translate(318.96 37.2)scale(0.12 -0.12)">
     <defs>
      <path d="M 40.578125 39.3125 
Q 47.65625 37.796875 51.625 33 
Q 55.609375 28.21875 55.609375 21.1875 
Q 55.609375 10.40625 48.1875 4.484375 
Q 40.765625 -1.421875 27.09375 -1.421875 
Q 22.515625 -1.421875 17.65625 -0.515625 
Q 12.796875 0.390625 7.625 2.203125 
L 7.625 11.71875 
Q 11.71875 9.328125 16.59375 8.109375 
Q 21.484375 6.890625 26.8125 6.890625 
Q 36.078125 6.890625 40.9375 10.546875 
Q 45.796875 14.203125 45.796875 21.1875 
Q 45.796875 27.640625 41.28125 31.265625 
Q 36.765625 34.90625 28.71875 34.90625 
L 20.21875 34.90625 
L 20.21875 43.015625 
L 29.109375 43.015625 
Q 36.375 43.015625 40.234375 45.921875 
Q 44.09375 48.828125 44.09375 54.296875 
Q 44.09375 59.90625 40.109375 62.90625 
Q 36.140625 65.921875 28.71875 65.921875 
Q 24.65625 65.921875 20.015625 65.03125 
Q 15.375 64.15625 9.8125 62.3125 
L 9.8125 71.09375 
Q 15.4375 72.65625 20.34375 73.4375 
Q 25.25 74.21875 29.59375 74.21875 
Q 40.828125 74.21875 47.359375 69.109375 
Q 53.90625 64.015625 53.90625 55.328125 
Q 53.90625 49.265625 50.4375 45.09375 
Q 46.96875 40.921875 40.578125 39.3125 
z
" id="DejaVuSans-51"/>
      <path d="M 10.796875 72.90625 
L 49.515625 72.90625 
L 49.515625 64.59375 
L 19.828125 64.59375 
L 19.828125 46.734375 
Q 21.96875 47.46875 24.109375 47.828125 
Q 26.265625 48.1875 28.421875 48.1875 
Q 40.625 48.1875 47.75 41.5 
Q 54.890625 34.8125 54.890625 23.390625 
Q 54.890625 11.625 47.5625 5.09375 
Q 40.234375 -1.421875 26.90625 -1.421875 
Q 22.3125 -1.421875 17.546875 -0.640625 
Q 12.796875 0.140625 7.71875 1.703125 
L 7.71875 11.625 
Q 12.109375 9.234375 16.796875 8.0625 
Q 21.484375 6.890625 26.703125 6.890625 
Q 35.15625 6.890625 40.078125 11.328125 
Q 45.015625 15.765625 45.015625 23.390625 
Q 45.015625 31 40.078125 35.4375 
Q 35.15625 39.890625 26.703125 39.890625 
Q 22.75 39.890625 18.8125 39.015625 
Q 14.890625 38.140625 10.796875 36.28125 
z
" id="DejaVuSans-53"/>
      <path id="DejaVuSans-32"/>
      <path d="M 57.28125 0 
L 9.078125 0 
L 9.078125 54.6875 
L 32.671875 54.6875 
Q 39.546875 54.6875 44.234375 53.265625 
Q 48.921875 51.859375 51.828125 48.703125 
Q 54.734375 45.5625 56 40.9375 
Q 57.28125 36.328125 57.28125 29.59375 
z
M 18.171875 47.703125 
L 18.171875 6.984375 
L 48.1875 6.984375 
L 48.1875 30.90625 
Q 48.1875 40.578125 45.015625 44.140625 
Q 41.84375 47.703125 32.8125 47.703125 
z
" id="DejaVuSans-1501"/>
      <path d="M 44.140625 40.828125 
L 44.140625 54.6875 
L 53.515625 54.6875 
L 53.515625 40.828125 
Q 53.515625 35.0625 53.046875 30.71875 
Q 52.59375 26.375 51.390625 22.09375 
Q 50.203125 17.828125 48.046875 14.5 
Q 45.90625 11.1875 42.578125 8.078125 
Q 39.265625 4.984375 34.515625 2.390625 
Q 29.78125 -0.203125 23.4375 -2.484375 
L 4.6875 -9.28125 
L 4.6875 -1.03125 
L 18.953125 4.046875 
L 4.296875 54.6875 
L 13.765625 54.6875 
L 27.25 7.125 
Q 33.6875 9.90625 37.203125 13.5625 
Q 40.71875 17.234375 42.421875 23.671875 
Q 44.140625 30.125 44.140625 40.828125 
z
" id="DejaVuSans-1506"/>
      <path d="M 21.78125 6.984375 
L 21.78125 36.28125 
Q 21.78125 42.28125 19.328125 44.984375 
Q 16.890625 47.703125 11.71875 47.703125 
L 5.5625 47.703125 
L 5.5625 54.6875 
L 11.71875 54.6875 
Q 21.734375 54.6875 26.296875 50.359375 
Q 30.859375 46.046875 30.859375 35.25 
L 30.859375 0 
L 4.296875 0 
L 4.296875 6.984375 
z
" id="DejaVuSans-1504"/>
      <path d="M 19.34375 -20.796875 
L 19.34375 33.40625 
L 10.25 29.6875 
L 10.25 -20.796875 
z
M 33.0625 0 
L 52.78125 47.703125 
L 9.078125 47.703125 
L 9.078125 54.640625 
L 63.328125 54.640625 
L 63.328125 49.265625 
L 42.578125 0 
z
" id="DejaVuSans-1511"/>
      <path d="M 15.71875 54.6875 
L 15.71875 24.125 
L 6.640625 20.40625 
L 6.640625 54.6875 
z
" id="DejaVuSans-1497"/>
      <path d="M 47.359375 27.828125 
L 47.359375 0 
L 38.28125 0 
L 38.28125 27.828125 
Q 38.28125 31.390625 37.765625 34.265625 
Q 37.25 37.15625 36 39.71875 
Q 34.765625 42.28125 32.8125 43.984375 
Q 30.859375 45.703125 27.78125 46.703125 
Q 24.703125 47.703125 20.703125 47.703125 
L 4.296875 47.703125 
L 4.296875 54.6875 
L 20.65625 54.6875 
Q 26.8125 54.6875 31.46875 53.390625 
Q 36.140625 52.09375 39.109375 49.828125 
Q 42.09375 47.5625 43.96875 44.109375 
Q 45.84375 40.671875 46.59375 36.734375 
Q 47.359375 32.8125 47.359375 27.828125 
z
" id="DejaVuSans-1512"/>
      <path d="M 18.171875 54.6875 
L 18.171875 0 
L 9.078125 0 
L 9.078125 54.6875 
z
" id="DejaVuSans-1493"/>
      <path d="M 30.328125 54.6875 
L 30.328125 47.703125 
L 26.421875 47.703125 
Q 22.171875 47.703125 20.578125 43.921875 
Q 19 40.140625 19 30.90625 
L 19 0 
L 9.90625 0 
L 9.90625 30.90625 
Q 9.90625 37.109375 11.78125 41.453125 
Q 13.671875 45.796875 16.40625 47.703125 
L 4.296875 47.703125 
L 4.296875 54.6875 
z
" id="DejaVuSans-1494"/>
      <path d="M 43.75 20.0625 
L 57.671875 0 
L 47.078125 0 
L 26.765625 29.296875 
Q 25.390625 28.609375 24.53125 28.09375 
Q 23.6875 27.59375 22.3125 26.296875 
Q 20.953125 25 20.140625 23.40625 
Q 19.34375 21.828125 18.703125 19.140625 
Q 18.0625 16.453125 18.0625 13.09375 
L 18.0625 0 
L 9.078125 0 
L 9.078125 9.03125 
Q 9.078125 12.984375 9.5625 16.359375 
Q 10.0625 19.734375 10.8125 22.078125 
Q 11.578125 24.421875 12.796875 26.390625 
Q 14.015625 28.375 15.109375 29.59375 
Q 16.21875 30.8125 17.796875 31.875 
Q 19.390625 32.953125 20.453125 33.46875 
Q 21.53125 33.984375 23.046875 34.625 
L 9.1875 54.6875 
L 19.78125 54.6875 
L 40.09375 25.390625 
Q 41.40625 26.03125 42.25 26.53125 
Q 43.109375 27.046875 44.46875 28.359375 
Q 45.84375 29.6875 46.671875 31.265625 
Q 47.515625 32.859375 48.140625 35.546875 
Q 48.78125 38.234375 48.78125 41.609375 
L 48.78125 54.6875 
L 57.765625 54.6875 
L 57.765625 45.65625 
Q 57.765625 41.65625 57.265625 38.3125 
Q 56.78125 34.96875 56.03125 32.59375 
Q 55.28125 30.21875 54.046875 28.234375 
Q 52.828125 26.265625 51.703125 25.0625 
Q 50.59375 23.875 49.03125 22.796875 
Q 47.46875 21.734375 46.390625 21.21875 
Q 45.3125 20.703125 43.75 20.0625 
z
" id="DejaVuSans-1488"/>
      <path d="M 25.203125 64.796875 
L 20.21875 38.921875 
L 32.90625 38.921875 
Q 40.375 38.921875 44.984375 43.046875 
Q 49.609375 47.171875 49.609375 53.8125 
Q 49.609375 59.125 46.5 61.953125 
Q 43.40625 64.796875 37.59375 64.796875 
z
M 43.3125 35.015625 
Q 46.4375 34.28125 48.515625 31.390625 
Q 50.59375 28.515625 53.328125 19.921875 
L 59.515625 0 
L 49.125 0 
L 43.40625 18.703125 
Q 41.21875 25.921875 38.328125 28.359375 
Q 35.453125 30.8125 29.5 30.8125 
L 18.609375 30.8125 
L 12.59375 0 
L 2.6875 0 
L 16.890625 72.90625 
L 39.109375 72.90625 
Q 49.21875 72.90625 54.609375 68.328125 
Q 60.015625 63.765625 60.015625 55.171875 
Q 60.015625 47.5625 55.421875 41.984375 
Q 50.828125 36.421875 43.3125 35.015625 
z
" id="DejaVuSans-Oblique-82"/>
      <path d="M 42.28125 54.6875 
L 40.921875 47.703125 
L 23 47.703125 
L 17.1875 18.015625 
Q 16.890625 16.359375 16.75 15.234375 
Q 16.609375 14.109375 16.609375 13.484375 
Q 16.609375 10.359375 18.484375 8.9375 
Q 20.359375 7.515625 24.515625 7.515625 
L 33.59375 7.515625 
L 32.078125 0 
L 23.484375 0 
Q 15.484375 0 11.546875 3.125 
Q 7.625 6.25 7.625 12.59375 
Q 7.625 13.71875 7.765625 15.0625 
Q 7.90625 16.40625 8.203125 18.015625 
L 14.015625 47.703125 
L 6.390625 47.703125 
L 7.8125 54.6875 
L 15.28125 54.6875 
L 18.3125 70.21875 
L 27.296875 70.21875 
L 24.3125 54.6875 
z
" id="DejaVuSans-Oblique-116"/>
     </defs>
     <use transform="translate(0 0.78125)" xlink:href="#DejaVuSans-50"/>
     <use transform="translate(63.623047 0.78125)" xlink:href="#DejaVuSans-51"/>
     <use transform="translate(127.246094 0.78125)" xlink:href="#DejaVuSans-53"/>
     <use transform="translate(190.869141 0.78125)" xlink:href="#DejaVuSans-32"/>
     <use transform="translate(222.65625 0.78125)" xlink:href="#DejaVuSans-1501"/>
     <use transform="translate(289.013672 0.78125)" xlink:href="#DejaVuSans-1506"/>
     <use transform="translate(351.611328 0.78125)" xlink:href="#DejaVuSans-1504"/>
     <use transform="translate(391.650391 0.78125)" xlink:href="#DejaVuSans-1511"/>
     <use transform="translate(462.597656 0.78125)" xlink:href="#DejaVuSans-1497"/>
     <use transform="translate(484.960938 0.78125)" xlink:href="#DejaVuSans-32"/>
     <use transform="translate(516.748047 0.78125)" xlink:href="#DejaVuSans-1512"/>
     <use transform="translate(573.193359 0.78125)" xlink:href="#DejaVuSans-1493"/>
     <use transform="translate(600.439453 0.78125)" xlink:href="#DejaVuSans-1494"/>
     <use transform="translate(635.058594 0.78125)" xlink:href="#DejaVuSans-1488"/>
     <use transform="translate(701.904297 0.78125)" xlink:href="#DejaVuSans-32"/>
     <use transform="translate(733.691406 0.78125)" xlink:href="#DejaVuSans-Oblique-82"/>
     <use transform="translate(803.173828 -15.625)scale(0.7)" xlink:href="#DejaVuSans-Oblique-116"/>
    </g>
   </g>
  </g>
 </g>
 <defs>
  <clipPath id="pa38760550f">
   <rect height="271.8" width="558" x="90" y="43.2"/>
  </clipPath>
 </defs>
</svg>
