<?xml version="1.0" encoding="utf-8" standalone="no"?>
<!DOCTYPE svg PUBLIC "-//W3C//DTD SVG 1.1//EN"
  "http://www.w3.org/Graphics/SVG/1.1/DTD/svg11.dtd">
<!-- Created with matplotlib (https://matplotlib.org/) -->
<svg height="360pt" version="1.1" viewBox="0 0 720 360" width="720pt" xmlns="http://www.w3.org/2000/svg" xmlns:xlink="http://www.w3.org/1999/xlink">
 <metadata>
  <rdf:RDF xmlns:cc="http://creativecommons.org/ns#" xmlns:dc="http://purl.org/dc/elements/1.1/" xmlns:rdf="http://www.w3.org/1999/02/22-rdf-syntax-ns#">
   <cc:Work>
    <dc:type rdf:resource="http://purl.org/dc/dcmitype/StillImage"/>
    <dc:date>2021-01-31T05:32:18.839765</dc:date>
    <dc:format>image/svg+xml</dc:format>
    <dc:creator>
     <cc:Agent>
      <dc:title>Matplotlib v3.3.2, https://matplotlib.org/</dc:title>
     </cc:Agent>
    </dc:creator>
   </cc:Work>
  </rdf:RDF>
 </metadata>
 <defs>
  <style type="text/css">*{stroke-linecap:butt;stroke-linejoin:round;}</style>
 </defs>
 <g id="figure_1">
  <g id="patch_1">
   <path d="M 0 360 
L 720 360 
L 720 0 
L 0 0 
z
" style="fill:#ffffff;"/>
  </g>
  <g id="axes_1">
   <g id="patch_2">
    <path d="M 90 315 
L 648 315 
L 648 43.2 
L 90 43.2 
z
" style="fill:#ffffff;"/>
   </g>
   <g id="PolyCollection_1">
    <defs>
     <path d="M 90 -60.879068 
L 90 -122.311063 
L 91.788462 -124.716538 
L 93.576923 -123.981033 
L 95.365385 -123.920342 
L 97.153846 -120.207802 
L 98.942308 -118.84509 
L 100.730769 -119.116839 
L 102.519231 -117.490772 
L 104.307692 -117.481805 
L 106.096154 -118.067323 
L 107.884615 -113.437379 
L 109.673077 -114.027947 
L 111.461538 -111.644751 
L 113.25 -114.354666 
L 115.038462 -111.682302 
L 116.826923 -113.19157 
L 118.615385 -111.994707 
L 120.403846 -112.096903 
L 122.192308 -109.640396 
L 123.980769 -112.156792 
L 125.769231 -113.549052 
L 127.557692 -110.270842 
L 129.346154 -113.490892 
L 131.134615 -110.492986 
L 132.923077 -112.939046 
L 134.711538 -113.563329 
L 136.5 -112.029044 
L 138.288462 -112.49412 
L 140.076923 -113.677182 
L 141.865385 -117.58534 
L 143.653846 -117.492623 
L 145.442308 -118.816138 
L 147.230769 -119.657381 
L 149.019231 -121.222432 
L 150.807692 -129.171929 
L 152.596154 -127.15003 
L 154.384615 -129.074072 
L 156.173077 -132.415373 
L 157.961538 -139.793615 
L 159.75 -143.353593 
L 161.538462 -144.019075 
L 163.326923 -146.695201 
L 165.115385 -149.380304 
L 166.903846 -155.640105 
L 168.692308 -162.155275 
L 170.480769 -170.475892 
L 172.269231 -174.960715 
L 174.057692 -178.52979 
L 175.846154 -187.286767 
L 177.634615 -192.53646 
L 179.423077 -196.331649 
L 181.211538 -205.175917 
L 183 -211.419529 
L 184.788462 -212.005797 
L 186.576923 -223.919869 
L 188.365385 -234.685852 
L 190.153846 -238.707469 
L 191.942308 -253.075127 
L 193.730769 -252.984559 
L 195.519231 -262.720919 
L 197.307692 -273.375371 
L 199.096154 -272.231562 
L 200.884615 -279.366518 
L 202.673077 -282.197998 
L 204.461538 -283.910796 
L 206.25 -297.544784 
L 208.038462 -300.624211 
L 209.826923 -301.958529 
L 211.615385 -304.445455 
L 213.403846 -294.240349 
L 215.192308 -289.646573 
L 216.980769 -285.479514 
L 218.769231 -283.032896 
L 220.557692 -269.884857 
L 222.346154 -263.958362 
L 224.134615 -250.842906 
L 225.923077 -245.870827 
L 227.711538 -231.298561 
L 229.5 -218.22775 
L 231.288462 -208.279564 
L 233.076923 -202.080204 
L 234.865385 -187.27308 
L 236.653846 -177.736037 
L 238.442308 -176.390901 
L 240.230769 -173.584823 
L 242.019231 -168.153595 
L 243.807692 -163.57159 
L 245.596154 -162.651417 
L 247.384615 -162.184096 
L 249.173077 -163.158832 
L 250.961538 -168.416927 
L 252.75 -165.657968 
L 254.538462 -166.658854 
L 256.326923 -171.074081 
L 258.115385 -173.914994 
L 259.903846 -174.885858 
L 261.692308 -177.548974 
L 263.480769 -178.885291 
L 265.269231 -187.256888 
L 267.057692 -186.14032 
L 268.846154 -195.082353 
L 270.634615 -197.548736 
L 272.423077 -198.057756 
L 274.211538 -202.494719 
L 276 -203.125207 
L 277.788462 -201.873095 
L 279.576923 -203.367045 
L 281.365385 -202.871452 
L 283.153846 -204.178611 
L 284.942308 -204.04924 
L 286.730769 -206.778302 
L 288.519231 -204.946868 
L 290.307692 -206.613265 
L 292.096154 -209.375722 
L 293.884615 -206.037035 
L 295.673077 -204.750237 
L 297.461538 -205.967709 
L 299.25 -207.598843 
L 301.038462 -212.901742 
L 302.826923 -214.808398 
L 304.615385 -215.401033 
L 306.403846 -212.832652 
L 308.192308 -219.769446 
L 309.980769 -221.797095 
L 311.769231 -224.454722 
L 313.557692 -224.211158 
L 315.346154 -220.118832 
L 317.134615 -224.312252 
L 318.923077 -219.804959 
L 320.711538 -222.154986 
L 322.5 -216.29728 
L 324.288462 -211.301774 
L 326.076923 -209.171634 
L 327.865385 -203.327368 
L 329.653846 -193.488482 
L 331.442308 -189.035416 
L 333.230769 -183.70814 
L 335.019231 -172.053002 
L 336.807692 -170.008653 
L 338.596154 -165.659268 
L 340.384615 -164.803956 
L 342.173077 -153.308396 
L 343.961538 -152.592128 
L 345.75 -150.052304 
L 347.538462 -150.302006 
L 349.326923 -146.946191 
L 351.115385 -149.344604 
L 352.903846 -145.97642 
L 354.692308 -147.943642 
L 356.480769 -151.100461 
L 358.269231 -152.872823 
L 360.057692 -157.494089 
L 361.846154 -160.119794 
L 363.634615 -164.213164 
L 365.423077 -171.958217 
L 367.211538 -176.810347 
L 369 -182.164265 
L 370.788462 -190.738826 
L 372.576923 -197.126253 
L 374.365385 -201.637622 
L 376.153846 -209.166343 
L 377.942308 -218.332937 
L 379.730769 -226.1513 
L 381.519231 -234.701627 
L 383.307692 -239.357681 
L 385.096154 -246.516546 
L 386.884615 -247.610949 
L 388.673077 -251.259362 
L 390.461538 -252.636164 
L 392.25 -251.339555 
L 394.038462 -253.406137 
L 395.826923 -252.932116 
L 397.615385 -246.27898 
L 399.403846 -248.07173 
L 401.192308 -240.358567 
L 402.980769 -231.315206 
L 404.769231 -225.576824 
L 406.557692 -222.10917 
L 408.346154 -216.079126 
L 410.134615 -207.394502 
L 411.923077 -198.896437 
L 413.711538 -188.169058 
L 415.5 -182.820161 
L 417.288462 -175.289145 
L 419.076923 -166.633506 
L 420.865385 -156.161411 
L 422.653846 -152.412798 
L 424.442308 -145.758443 
L 426.230769 -137.603662 
L 428.019231 -132.74048 
L 429.807692 -127.112321 
L 431.596154 -122.636334 
L 433.384615 -117.708777 
L 435.173077 -110.735118 
L 436.961538 -104.408436 
L 438.75 -102.084194 
L 440.538462 -100.494257 
L 442.326923 -96.55374 
L 444.115385 -94.445945 
L 445.903846 -93.766446 
L 447.692308 -91.430227 
L 449.480769 -89.170947 
L 451.269231 -87.638267 
L 453.057692 -86.501387 
L 454.846154 -88.056599 
L 456.634615 -84.278119 
L 458.423077 -86.812754 
L 460.211538 -87.008818 
L 462 -85.370932 
L 463.788462 -84.248633 
L 465.576923 -85.074792 
L 467.365385 -85.653231 
L 469.153846 -85.425398 
L 470.942308 -89.277157 
L 472.730769 -90.427844 
L 474.519231 -92.022043 
L 476.307692 -93.673474 
L 478.096154 -96.015673 
L 479.884615 -98.154275 
L 481.673077 -101.296181 
L 483.461538 -106.163157 
L 485.25 -109.126393 
L 487.038462 -115.839839 
L 488.826923 -121.919137 
L 490.615385 -126.466232 
L 492.403846 -129.321429 
L 494.192308 -138.178318 
L 495.980769 -147.001572 
L 497.769231 -154.787104 
L 499.557692 -162.438539 
L 501.346154 -170.561092 
L 503.134615 -176.526805 
L 504.923077 -186.063693 
L 506.711538 -194.167972 
L 508.5 -199.026608 
L 510.288462 -216.459697 
L 512.076923 -221.57955 
L 513.865385 -231.713418 
L 515.653846 -241.09562 
L 517.442308 -250.017346 
L 519.230769 -259.760639 
L 521.019231 -268.438624 
L 522.807692 -266.309364 
L 524.596154 -278.877205 
L 526.384615 -284.147248 
L 528.173077 -289.233028 
L 529.961538 -289.028847 
L 531.75 -287.566399 
L 533.538462 -293.430642 
L 535.326923 -302.208977 
L 537.115385 -291.30835 
L 538.903846 -290.146189 
L 540.692308 -282.977088 
L 542.480769 -287.5362 
L 544.269231 -275.09908 
L 546.057692 -282.359612 
L 547.846154 -274.483342 
L 549.634615 -270.520027 
L 551.423077 -272.005174 
L 553.211538 -270.016581 
L 555 -268.791419 
L 556.788462 -271.707636 
L 558.576923 -271.835586 
L 560.365385 -280.421504 
L 562.153846 -277.883546 
L 563.942308 -279.551876 
L 565.730769 -281.704229 
L 567.519231 -274.574001 
L 569.307692 -277.402015 
L 571.096154 -277.43185 
L 572.884615 -269.315312 
L 574.673077 -264.430947 
L 576.461538 -265.191218 
L 578.25 -261.051424 
L 580.038462 -258.726388 
L 581.826923 -256.086908 
L 583.615385 -248.700988 
L 585.403846 -245.633177 
L 587.192308 -244.432039 
L 588.980769 -241.984808 
L 590.769231 -239.227402 
L 592.557692 -234.113641 
L 594.346154 -229.165794 
L 596.134615 -225.569699 
L 597.923077 -224.673902 
L 599.711538 -220.249372 
L 601.5 -214.885424 
L 603.288462 -211.721373 
L 605.076923 -208.549393 
L 606.865385 -203.23349 
L 608.653846 -195.351353 
L 610.442308 -194.628104 
L 612.230769 -193.076984 
L 614.019231 -189.281654 
L 615.807692 -185.268488 
L 617.596154 -181.649017 
L 619.384615 -180.355637 
L 621.173077 -179.281258 
L 622.961538 -177.184416 
L 624.75 -180.95477 
L 626.538462 -175.74658 
L 628.326923 -176.835537 
L 630.115385 -175.515623 
L 631.903846 -170.974486 
L 633.692308 -178.032561 
L 635.480769 -173.661211 
L 637.269231 -177.809652 
L 639.057692 -177.65012 
L 640.846154 -180.90476 
L 642.634615 -183.10235 
L 644.423077 -185.130646 
L 646.211538 -187.398903 
L 648 -187.654727 
L 649.788462 -189.478052 
L 651.576923 -191.065063 
L 653.365385 -191.726101 
L 655.153846 -194.270447 
L 656.942308 -189.056381 
L 658.730769 -198.481716 
L 660.519231 -198.735991 
L 662.307692 -200.789798 
L 662.307692 -87.813102 
L 662.307692 -87.813102 
L 660.519231 -92.336309 
L 658.730769 -96.610113 
L 656.942308 -86.333337 
L 655.153846 -93.407327 
L 653.365385 -97.939051 
L 651.576923 -99.204273 
L 649.788462 -101.699476 
L 648 -102.637505 
L 646.211538 -105.015529 
L 644.423077 -109.084888 
L 642.634615 -110.454501 
L 640.846154 -111.880945 
L 639.057692 -110.968914 
L 637.269231 -115.479609 
L 635.480769 -114.787476 
L 633.692308 -121.93269 
L 631.903846 -117.650888 
L 630.115385 -124.244699 
L 628.326923 -126.838894 
L 626.538462 -126.674585 
L 624.75 -131.267079 
L 622.961538 -127.973568 
L 621.173077 -132.31641 
L 619.384615 -133.833598 
L 617.596154 -132.878533 
L 615.807692 -136.076139 
L 614.019231 -140.773479 
L 612.230769 -146.60852 
L 610.442308 -144.64779 
L 608.653846 -146.810197 
L 606.865385 -152.757575 
L 605.076923 -158.328024 
L 603.288462 -160.493726 
L 601.5 -159.604777 
L 599.711538 -165.042106 
L 597.923077 -166.866874 
L 596.134615 -167.637391 
L 594.346154 -171.758871 
L 592.557692 -175.84947 
L 590.769231 -179.980956 
L 588.980769 -182.023535 
L 587.192308 -185.098986 
L 585.403846 -186.204463 
L 583.615385 -188.95308 
L 581.826923 -190.868226 
L 580.038462 -194.041489 
L 578.25 -198.099742 
L 576.461538 -197.971368 
L 574.673077 -197.29149 
L 572.884615 -201.718585 
L 571.096154 -206.989713 
L 569.307692 -207.171315 
L 567.519231 -204.058041 
L 565.730769 -211.438369 
L 563.942308 -207.47028 
L 562.153846 -205.920484 
L 560.365385 -209.559569 
L 558.576923 -201.262159 
L 556.788462 -203.531698 
L 555 -202.85817 
L 553.211538 -202.272789 
L 551.423077 -203.81036 
L 549.634615 -200.415991 
L 547.846154 -204.294744 
L 546.057692 -208.215204 
L 544.269231 -200.786214 
L 542.480769 -209.756921 
L 540.692308 -206.226826 
L 538.903846 -209.277359 
L 537.115385 -208.078575 
L 535.326923 -218.231287 
L 533.538462 -211.314163 
L 531.75 -209.168904 
L 529.961538 -209.459221 
L 528.173077 -213.914753 
L 526.384615 -208.703693 
L 524.596154 -206.073753 
L 522.807692 -194.173816 
L 521.019231 -194.170619 
L 519.230769 -187.718524 
L 517.442308 -181.248295 
L 515.653846 -176.106079 
L 513.865385 -168.678267 
L 512.076923 -158.978855 
L 510.288462 -154.97627 
L 508.5 -141.893267 
L 506.711538 -139.177135 
L 504.923077 -131.266844 
L 503.134615 -125.035314 
L 501.346154 -121.418531 
L 499.557692 -113.311999 
L 497.769231 -109.782608 
L 495.980769 -105.284241 
L 494.192308 -99.066236 
L 492.403846 -90.329997 
L 490.615385 -89.239825 
L 488.826923 -88.225861 
L 487.038462 -83.03425 
L 485.25 -77.641647 
L 483.461538 -76.272726 
L 481.673077 -71.172815 
L 479.884615 -70.766101 
L 478.096154 -69.331894 
L 476.307692 -66.613549 
L 474.519231 -65.127597 
L 472.730769 -62.953221 
L 470.942308 -61.869823 
L 469.153846 -58.422011 
L 467.365385 -59.521924 
L 465.576923 -59.26526 
L 463.788462 -58.017564 
L 462 -58.408298 
L 460.211538 -59.284577 
L 458.423077 -59.390897 
L 456.634615 -57.354545 
L 454.846154 -61.533403 
L 453.057692 -59.914049 
L 451.269231 -60.892646 
L 449.480769 -64.313156 
L 447.692308 -66.072801 
L 445.903846 -68.210693 
L 444.115385 -68.803819 
L 442.326923 -69.005133 
L 440.538462 -73.84912 
L 438.75 -74.853087 
L 436.961538 -75.798429 
L 435.173077 -81.288231 
L 433.384615 -85.709132 
L 431.596154 -88.835181 
L 429.807692 -93.718357 
L 428.019231 -97.354851 
L 426.230769 -100.380821 
L 424.442308 -105.785467 
L 422.653846 -111.676998 
L 420.865385 -114.556818 
L 419.076923 -124.499178 
L 417.288462 -132.101823 
L 415.5 -136.033855 
L 413.711538 -139.537513 
L 411.923077 -150.043947 
L 410.134615 -154.472017 
L 408.346154 -163.091857 
L 406.557692 -164.378335 
L 404.769231 -166.695015 
L 402.980769 -171.592344 
L 401.192308 -178.7688 
L 399.403846 -185.087206 
L 397.615385 -184.2125 
L 395.826923 -188.345986 
L 394.038462 -192.136262 
L 392.25 -192.420221 
L 390.461538 -191.172452 
L 388.673077 -190.119309 
L 386.884615 -186.33144 
L 385.096154 -184.565947 
L 383.307692 -178.403739 
L 381.519231 -173.833633 
L 379.730769 -168.273825 
L 377.942308 -162.639283 
L 376.153846 -156.550973 
L 374.365385 -150.217502 
L 372.576923 -146.728997 
L 370.788462 -143.845644 
L 369 -138.187526 
L 367.211538 -132.269751 
L 365.423077 -128.766779 
L 363.634615 -119.889636 
L 361.846154 -118.489904 
L 360.057692 -115.043301 
L 358.269231 -113.403786 
L 356.480769 -111.011371 
L 354.692308 -108.746916 
L 352.903846 -108.620268 
L 351.115385 -110.033852 
L 349.326923 -107.192063 
L 347.538462 -110.993671 
L 345.75 -112.017065 
L 343.961538 -111.187384 
L 342.173077 -112.388894 
L 340.384615 -120.832239 
L 338.596154 -121.641763 
L 336.807692 -124.139317 
L 335.019231 -125.32779 
L 333.230769 -133.958487 
L 331.442308 -138.784067 
L 329.653846 -142.29871 
L 327.865385 -148.333072 
L 326.076923 -153.60159 
L 324.288462 -156.544223 
L 322.5 -160.563659 
L 320.711538 -162.596614 
L 318.923077 -161.501367 
L 317.134615 -163.010585 
L 315.346154 -159.331893 
L 313.557692 -165.948445 
L 311.769231 -165.987788 
L 309.980769 -162.906859 
L 308.192308 -162.819987 
L 306.403846 -157.919101 
L 304.615385 -159.181258 
L 302.826923 -158.395219 
L 301.038462 -155.579519 
L 299.25 -151.363732 
L 297.461538 -150.393025 
L 295.673077 -153.1879 
L 293.884615 -152.860096 
L 292.096154 -153.726851 
L 290.307692 -152.288008 
L 288.519231 -146.903763 
L 286.730769 -150.642628 
L 284.942308 -146.021098 
L 283.153846 -149.237185 
L 281.365385 -148.311532 
L 279.576923 -147.083646 
L 277.788462 -145.428839 
L 276 -146.375447 
L 274.211538 -146.672872 
L 272.423077 -144.296614 
L 270.634615 -143.410889 
L 268.846154 -141.445994 
L 267.057692 -134.236029 
L 265.269231 -135.935991 
L 263.480769 -129.76958 
L 261.692308 -127.832634 
L 259.903846 -124.882636 
L 258.115385 -122.274617 
L 256.326923 -123.452811 
L 254.538462 -120.518058 
L 252.75 -119.717732 
L 250.961538 -123.425444 
L 249.173077 -118.139668 
L 247.384615 -117.704121 
L 245.596154 -117.6074 
L 243.807692 -115.206087 
L 242.019231 -120.794477 
L 240.230769 -124.215452 
L 238.442308 -125.217219 
L 236.653846 -124.809103 
L 234.865385 -134.00801 
L 233.076923 -145.304133 
L 231.288462 -148.902748 
L 229.5 -155.02491 
L 227.711538 -163.188322 
L 225.923077 -173.719934 
L 224.134615 -174.335527 
L 222.346154 -184.779256 
L 220.557692 -187.683322 
L 218.769231 -198.773617 
L 216.980769 -200.347551 
L 215.192308 -199.444304 
L 213.403846 -201.139419 
L 211.615385 -211.34276 
L 209.826923 -208.966686 
L 208.038462 -211.418336 
L 206.25 -209.538431 
L 204.461538 -201.556391 
L 202.673077 -198.613326 
L 200.884615 -193.169078 
L 199.096154 -191.142828 
L 197.307692 -192.300466 
L 195.519231 -183.665214 
L 193.730769 -171.912656 
L 191.942308 -173.955275 
L 190.153846 -164.888025 
L 188.365385 -163.390103 
L 186.576923 -153.870771 
L 184.788462 -145.7367 
L 183 -147.20016 
L 181.211538 -141.51233 
L 179.423077 -135.742724 
L 177.634615 -130.238875 
L 175.846154 -126.782103 
L 174.057692 -122.231668 
L 172.269231 -119.316101 
L 170.480769 -118.127803 
L 168.692308 -111.180605 
L 166.903846 -106.03283 
L 165.115385 -100.263157 
L 163.326923 -98.782011 
L 161.538462 -95.846848 
L 159.75 -95.61726 
L 157.961538 -92.704899 
L 156.173077 -88.617994 
L 154.384615 -86.020222 
L 152.596154 -85.075507 
L 150.807692 -87.02474 
L 149.019231 -80.378 
L 147.230769 -79.917227 
L 145.442308 -79.565872 
L 143.653846 -77.636167 
L 141.865385 -79.319705 
L 140.076923 -75.818349 
L 138.288462 -76.086637 
L 136.5 -74.929373 
L 134.711538 -74.908013 
L 132.923077 -74.33438 
L 131.134615 -72.668669 
L 129.346154 -73.980656 
L 127.557692 -71.343579 
L 125.769231 -74.685416 
L 123.980769 -73.517659 
L 122.192308 -70.83534 
L 120.403846 -74.239305 
L 118.615385 -73.383763 
L 116.826923 -75.453665 
L 115.038462 -72.550069 
L 113.25 -75.544026 
L 111.461538 -73.8768 
L 109.673077 -74.663991 
L 107.884615 -74.167086 
L 106.096154 -76.916448 
L 104.307692 -75.616411 
L 102.519231 -72.061415 
L 100.730769 -70.578206 
L 98.942308 -69.469048 
L 97.153846 -70.15441 
L 95.365385 -71.31245 
L 93.576923 -68.046204 
L 91.788462 -65.936567 
L 90 -60.879068 
z
" id="m4bba48d569" style="stroke:#fdcbb6;stroke-opacity:0.8;"/>
    </defs>
    <g clip-path="url(#p94e64c4ed0)">
     <use style="fill:#fdcbb6;fill-opacity:0.8;stroke:#fdcbb6;stroke-opacity:0.8;" x="0" xlink:href="#m4bba48d569" y="360"/>
    </g>
   </g>
   <g id="matplotlib.axis_1">
    <g id="xtick_1">
     <g id="line2d_1">
      <defs>
       <path d="M 0 0 
L 0 3.5 
" id="m15d8d852f2" style="stroke:#000000;stroke-width:0.8;"/>
      </defs>
      <g>
       <use style="stroke:#000000;stroke-width:0.8;" x="90" xlink:href="#m15d8d852f2" y="315"/>
      </g>
     </g>
    </g>
    <g id="xtick_2">
     <g id="line2d_2">
      <g>
       <use style="stroke:#000000;stroke-width:0.8;" x="120.403846" xlink:href="#m15d8d852f2" y="315"/>
      </g>
     </g>
     <g id="text_1">
      <!-- Apr -->
      <g transform="translate(111.753846 329.598437)scale(0.1 -0.1)">
       <defs>
        <path d="M 34.1875 63.1875 
L 20.796875 26.90625 
L 47.609375 26.90625 
z
M 28.609375 72.90625 
L 39.796875 72.90625 
L 67.578125 0 
L 57.328125 0 
L 50.6875 18.703125 
L 17.828125 18.703125 
L 11.1875 0 
L 0.78125 0 
z
" id="DejaVuSans-65"/>
        <path d="M 18.109375 8.203125 
L 18.109375 -20.796875 
L 9.078125 -20.796875 
L 9.078125 54.6875 
L 18.109375 54.6875 
L 18.109375 46.390625 
Q 20.953125 51.265625 25.265625 53.625 
Q 29.59375 56 35.59375 56 
Q 45.5625 56 51.78125 48.09375 
Q 58.015625 40.1875 58.015625 27.296875 
Q 58.015625 14.40625 51.78125 6.484375 
Q 45.5625 -1.421875 35.59375 -1.421875 
Q 29.59375 -1.421875 25.265625 0.953125 
Q 20.953125 3.328125 18.109375 8.203125 
z
M 48.6875 27.296875 
Q 48.6875 37.203125 44.609375 42.84375 
Q 40.53125 48.484375 33.40625 48.484375 
Q 26.265625 48.484375 22.1875 42.84375 
Q 18.109375 37.203125 18.109375 27.296875 
Q 18.109375 17.390625 22.1875 11.75 
Q 26.265625 6.109375 33.40625 6.109375 
Q 40.53125 6.109375 44.609375 11.75 
Q 48.6875 17.390625 48.6875 27.296875 
z
" id="DejaVuSans-112"/>
        <path d="M 41.109375 46.296875 
Q 39.59375 47.171875 37.8125 47.578125 
Q 36.03125 48 33.890625 48 
Q 26.265625 48 22.1875 43.046875 
Q 18.109375 38.09375 18.109375 28.8125 
L 18.109375 0 
L 9.078125 0 
L 9.078125 54.6875 
L 18.109375 54.6875 
L 18.109375 46.1875 
Q 20.953125 51.171875 25.484375 53.578125 
Q 30.03125 56 36.53125 56 
Q 37.453125 56 38.578125 55.875 
Q 39.703125 55.765625 41.0625 55.515625 
z
" id="DejaVuSans-114"/>
       </defs>
       <use xlink:href="#DejaVuSans-65"/>
       <use x="68.408203" xlink:href="#DejaVuSans-112"/>
       <use x="131.884766" xlink:href="#DejaVuSans-114"/>
      </g>
     </g>
    </g>
    <g id="xtick_3">
     <g id="line2d_3">
      <g>
       <use style="stroke:#000000;stroke-width:0.8;" x="174.057692" xlink:href="#m15d8d852f2" y="315"/>
      </g>
     </g>
     <g id="text_2">
      <!-- May -->
      <g transform="translate(163.720192 329.598437)scale(0.1 -0.1)">
       <defs>
        <path d="M 9.8125 72.90625 
L 24.515625 72.90625 
L 43.109375 23.296875 
L 61.8125 72.90625 
L 76.515625 72.90625 
L 76.515625 0 
L 66.890625 0 
L 66.890625 64.015625 
L 48.09375 14.015625 
L 38.1875 14.015625 
L 19.390625 64.015625 
L 19.390625 0 
L 9.8125 0 
z
" id="DejaVuSans-77"/>
        <path d="M 34.28125 27.484375 
Q 23.390625 27.484375 19.1875 25 
Q 14.984375 22.515625 14.984375 16.5 
Q 14.984375 11.71875 18.140625 8.90625 
Q 21.296875 6.109375 26.703125 6.109375 
Q 34.1875 6.109375 38.703125 11.40625 
Q 43.21875 16.703125 43.21875 25.484375 
L 43.21875 27.484375 
z
M 52.203125 31.203125 
L 52.203125 0 
L 43.21875 0 
L 43.21875 8.296875 
Q 40.140625 3.328125 35.546875 0.953125 
Q 30.953125 -1.421875 24.3125 -1.421875 
Q 15.921875 -1.421875 10.953125 3.296875 
Q 6 8.015625 6 15.921875 
Q 6 25.140625 12.171875 29.828125 
Q 18.359375 34.515625 30.609375 34.515625 
L 43.21875 34.515625 
L 43.21875 35.40625 
Q 43.21875 41.609375 39.140625 45 
Q 35.0625 48.390625 27.6875 48.390625 
Q 23 48.390625 18.546875 47.265625 
Q 14.109375 46.140625 10.015625 43.890625 
L 10.015625 52.203125 
Q 14.9375 54.109375 19.578125 55.046875 
Q 24.21875 56 28.609375 56 
Q 40.484375 56 46.34375 49.84375 
Q 52.203125 43.703125 52.203125 31.203125 
z
" id="DejaVuSans-97"/>
        <path d="M 32.171875 -5.078125 
Q 28.375 -14.84375 24.75 -17.8125 
Q 21.140625 -20.796875 15.09375 -20.796875 
L 7.90625 -20.796875 
L 7.90625 -13.28125 
L 13.1875 -13.28125 
Q 16.890625 -13.28125 18.9375 -11.515625 
Q 21 -9.765625 23.484375 -3.21875 
L 25.09375 0.875 
L 2.984375 54.6875 
L 12.5 54.6875 
L 29.59375 11.921875 
L 46.6875 54.6875 
L 56.203125 54.6875 
z
" id="DejaVuSans-121"/>
       </defs>
       <use xlink:href="#DejaVuSans-77"/>
       <use x="86.279297" xlink:href="#DejaVuSans-97"/>
       <use x="147.558594" xlink:href="#DejaVuSans-121"/>
      </g>
     </g>
    </g>
    <g id="xtick_4">
     <g id="line2d_4">
      <g>
       <use style="stroke:#000000;stroke-width:0.8;" x="229.5" xlink:href="#m15d8d852f2" y="315"/>
      </g>
     </g>
     <g id="text_3">
      <!-- Jun -->
      <g transform="translate(221.6875 329.598437)scale(0.1 -0.1)">
       <defs>
        <path d="M 9.8125 72.90625 
L 19.671875 72.90625 
L 19.671875 5.078125 
Q 19.671875 -8.109375 14.671875 -14.0625 
Q 9.671875 -20.015625 -1.421875 -20.015625 
L -5.171875 -20.015625 
L -5.171875 -11.71875 
L -2.09375 -11.71875 
Q 4.4375 -11.71875 7.125 -8.046875 
Q 9.8125 -4.390625 9.8125 5.078125 
z
" id="DejaVuSans-74"/>
        <path d="M 8.5 21.578125 
L 8.5 54.6875 
L 17.484375 54.6875 
L 17.484375 21.921875 
Q 17.484375 14.15625 20.5 10.265625 
Q 23.53125 6.390625 29.59375 6.390625 
Q 36.859375 6.390625 41.078125 11.03125 
Q 45.3125 15.671875 45.3125 23.6875 
L 45.3125 54.6875 
L 54.296875 54.6875 
L 54.296875 0 
L 45.3125 0 
L 45.3125 8.40625 
Q 42.046875 3.421875 37.71875 1 
Q 33.40625 -1.421875 27.6875 -1.421875 
Q 18.265625 -1.421875 13.375 4.4375 
Q 8.5 10.296875 8.5 21.578125 
z
M 31.109375 56 
z
" id="DejaVuSans-117"/>
        <path d="M 54.890625 33.015625 
L 54.890625 0 
L 45.90625 0 
L 45.90625 32.71875 
Q 45.90625 40.484375 42.875 44.328125 
Q 39.84375 48.1875 33.796875 48.1875 
Q 26.515625 48.1875 22.3125 43.546875 
Q 18.109375 38.921875 18.109375 30.90625 
L 18.109375 0 
L 9.078125 0 
L 9.078125 54.6875 
L 18.109375 54.6875 
L 18.109375 46.1875 
Q 21.34375 51.125 25.703125 53.5625 
Q 30.078125 56 35.796875 56 
Q 45.21875 56 50.046875 50.171875 
Q 54.890625 44.34375 54.890625 33.015625 
z
" id="DejaVuSans-110"/>
       </defs>
       <use xlink:href="#DejaVuSans-74"/>
       <use x="29.492188" xlink:href="#DejaVuSans-117"/>
       <use x="92.871094" xlink:href="#DejaVuSans-110"/>
      </g>
     </g>
    </g>
    <g id="xtick_5">
     <g id="line2d_5">
      <g>
       <use style="stroke:#000000;stroke-width:0.8;" x="283.153846" xlink:href="#m15d8d852f2" y="315"/>
      </g>
     </g>
     <g id="text_4">
      <!-- Jul -->
      <g transform="translate(277.121034 329.598437)scale(0.1 -0.1)">
       <defs>
        <path d="M 9.421875 75.984375 
L 18.40625 75.984375 
L 18.40625 0 
L 9.421875 0 
z
" id="DejaVuSans-108"/>
       </defs>
       <use xlink:href="#DejaVuSans-74"/>
       <use x="29.492188" xlink:href="#DejaVuSans-117"/>
       <use x="92.871094" xlink:href="#DejaVuSans-108"/>
      </g>
     </g>
    </g>
    <g id="xtick_6">
     <g id="line2d_6">
      <g>
       <use style="stroke:#000000;stroke-width:0.8;" x="338.596154" xlink:href="#m15d8d852f2" y="315"/>
      </g>
     </g>
     <g id="text_5">
      <!-- Aug -->
      <g transform="translate(328.832873 329.598437)scale(0.1 -0.1)">
       <defs>
        <path d="M 45.40625 27.984375 
Q 45.40625 37.75 41.375 43.109375 
Q 37.359375 48.484375 30.078125 48.484375 
Q 22.859375 48.484375 18.828125 43.109375 
Q 14.796875 37.75 14.796875 27.984375 
Q 14.796875 18.265625 18.828125 12.890625 
Q 22.859375 7.515625 30.078125 7.515625 
Q 37.359375 7.515625 41.375 12.890625 
Q 45.40625 18.265625 45.40625 27.984375 
z
M 54.390625 6.78125 
Q 54.390625 -7.171875 48.1875 -13.984375 
Q 42 -20.796875 29.203125 -20.796875 
Q 24.46875 -20.796875 20.265625 -20.09375 
Q 16.0625 -19.390625 12.109375 -17.921875 
L 12.109375 -9.1875 
Q 16.0625 -11.328125 19.921875 -12.34375 
Q 23.78125 -13.375 27.78125 -13.375 
Q 36.625 -13.375 41.015625 -8.765625 
Q 45.40625 -4.15625 45.40625 5.171875 
L 45.40625 9.625 
Q 42.625 4.78125 38.28125 2.390625 
Q 33.9375 0 27.875 0 
Q 17.828125 0 11.671875 7.65625 
Q 5.515625 15.328125 5.515625 27.984375 
Q 5.515625 40.671875 11.671875 48.328125 
Q 17.828125 56 27.875 56 
Q 33.9375 56 38.28125 53.609375 
Q 42.625 51.21875 45.40625 46.390625 
L 45.40625 54.6875 
L 54.390625 54.6875 
z
" id="DejaVuSans-103"/>
       </defs>
       <use xlink:href="#DejaVuSans-65"/>
       <use x="68.408203" xlink:href="#DejaVuSans-117"/>
       <use x="131.787109" xlink:href="#DejaVuSans-103"/>
      </g>
     </g>
    </g>
    <g id="xtick_7">
     <g id="line2d_7">
      <g>
       <use style="stroke:#000000;stroke-width:0.8;" x="394.038462" xlink:href="#m15d8d852f2" y="315"/>
      </g>
     </g>
     <g id="text_6">
      <!-- Sep -->
      <g transform="translate(384.613462 329.598437)scale(0.1 -0.1)">
       <defs>
        <path d="M 53.515625 70.515625 
L 53.515625 60.890625 
Q 47.90625 63.578125 42.921875 64.890625 
Q 37.9375 66.21875 33.296875 66.21875 
Q 25.25 66.21875 20.875 63.09375 
Q 16.5 59.96875 16.5 54.203125 
Q 16.5 49.359375 19.40625 46.890625 
Q 22.3125 44.4375 30.421875 42.921875 
L 36.375 41.703125 
Q 47.40625 39.59375 52.65625 34.296875 
Q 57.90625 29 57.90625 20.125 
Q 57.90625 9.515625 50.796875 4.046875 
Q 43.703125 -1.421875 29.984375 -1.421875 
Q 24.8125 -1.421875 18.96875 -0.25 
Q 13.140625 0.921875 6.890625 3.21875 
L 6.890625 13.375 
Q 12.890625 10.015625 18.65625 8.296875 
Q 24.421875 6.59375 29.984375 6.59375 
Q 38.421875 6.59375 43.015625 9.90625 
Q 47.609375 13.234375 47.609375 19.390625 
Q 47.609375 24.75 44.3125 27.78125 
Q 41.015625 30.8125 33.5 32.328125 
L 27.484375 33.5 
Q 16.453125 35.6875 11.515625 40.375 
Q 6.59375 45.0625 6.59375 53.421875 
Q 6.59375 63.09375 13.40625 68.65625 
Q 20.21875 74.21875 32.171875 74.21875 
Q 37.3125 74.21875 42.625 73.28125 
Q 47.953125 72.359375 53.515625 70.515625 
z
" id="DejaVuSans-83"/>
        <path d="M 56.203125 29.59375 
L 56.203125 25.203125 
L 14.890625 25.203125 
Q 15.484375 15.921875 20.484375 11.0625 
Q 25.484375 6.203125 34.421875 6.203125 
Q 39.59375 6.203125 44.453125 7.46875 
Q 49.3125 8.734375 54.109375 11.28125 
L 54.109375 2.78125 
Q 49.265625 0.734375 44.1875 -0.34375 
Q 39.109375 -1.421875 33.890625 -1.421875 
Q 20.796875 -1.421875 13.15625 6.1875 
Q 5.515625 13.8125 5.515625 26.8125 
Q 5.515625 40.234375 12.765625 48.109375 
Q 20.015625 56 32.328125 56 
Q 43.359375 56 49.78125 48.890625 
Q 56.203125 41.796875 56.203125 29.59375 
z
M 47.21875 32.234375 
Q 47.125 39.59375 43.09375 43.984375 
Q 39.0625 48.390625 32.421875 48.390625 
Q 24.90625 48.390625 20.390625 44.140625 
Q 15.875 39.890625 15.1875 32.171875 
z
" id="DejaVuSans-101"/>
       </defs>
       <use xlink:href="#DejaVuSans-83"/>
       <use x="63.476562" xlink:href="#DejaVuSans-101"/>
       <use x="125" xlink:href="#DejaVuSans-112"/>
      </g>
     </g>
    </g>
    <g id="xtick_8">
     <g id="line2d_8">
      <g>
       <use style="stroke:#000000;stroke-width:0.8;" x="447.692308" xlink:href="#m15d8d852f2" y="315"/>
      </g>
     </g>
     <g id="text_7">
      <!-- Oct -->
      <g transform="translate(439.046995 329.598437)scale(0.1 -0.1)">
       <defs>
        <path d="M 39.40625 66.21875 
Q 28.65625 66.21875 22.328125 58.203125 
Q 16.015625 50.203125 16.015625 36.375 
Q 16.015625 22.609375 22.328125 14.59375 
Q 28.65625 6.59375 39.40625 6.59375 
Q 50.140625 6.59375 56.421875 14.59375 
Q 62.703125 22.609375 62.703125 36.375 
Q 62.703125 50.203125 56.421875 58.203125 
Q 50.140625 66.21875 39.40625 66.21875 
z
M 39.40625 74.21875 
Q 54.734375 74.21875 63.90625 63.9375 
Q 73.09375 53.65625 73.09375 36.375 
Q 73.09375 19.140625 63.90625 8.859375 
Q 54.734375 -1.421875 39.40625 -1.421875 
Q 24.03125 -1.421875 14.8125 8.828125 
Q 5.609375 19.09375 5.609375 36.375 
Q 5.609375 53.65625 14.8125 63.9375 
Q 24.03125 74.21875 39.40625 74.21875 
z
" id="DejaVuSans-79"/>
        <path d="M 48.78125 52.59375 
L 48.78125 44.1875 
Q 44.96875 46.296875 41.140625 47.34375 
Q 37.3125 48.390625 33.40625 48.390625 
Q 24.65625 48.390625 19.8125 42.84375 
Q 14.984375 37.3125 14.984375 27.296875 
Q 14.984375 17.28125 19.8125 11.734375 
Q 24.65625 6.203125 33.40625 6.203125 
Q 37.3125 6.203125 41.140625 7.25 
Q 44.96875 8.296875 48.78125 10.40625 
L 48.78125 2.09375 
Q 45.015625 0.34375 40.984375 -0.53125 
Q 36.96875 -1.421875 32.421875 -1.421875 
Q 20.0625 -1.421875 12.78125 6.34375 
Q 5.515625 14.109375 5.515625 27.296875 
Q 5.515625 40.671875 12.859375 48.328125 
Q 20.21875 56 33.015625 56 
Q 37.15625 56 41.109375 55.140625 
Q 45.0625 54.296875 48.78125 52.59375 
z
" id="DejaVuSans-99"/>
        <path d="M 18.3125 70.21875 
L 18.3125 54.6875 
L 36.8125 54.6875 
L 36.8125 47.703125 
L 18.3125 47.703125 
L 18.3125 18.015625 
Q 18.3125 11.328125 20.140625 9.421875 
Q 21.96875 7.515625 27.59375 7.515625 
L 36.8125 7.515625 
L 36.8125 0 
L 27.59375 0 
Q 17.1875 0 13.234375 3.875 
Q 9.28125 7.765625 9.28125 18.015625 
L 9.28125 47.703125 
L 2.6875 47.703125 
L 2.6875 54.6875 
L 9.28125 54.6875 
L 9.28125 70.21875 
z
" id="DejaVuSans-116"/>
       </defs>
       <use xlink:href="#DejaVuSans-79"/>
       <use x="78.710938" xlink:href="#DejaVuSans-99"/>
       <use x="133.691406" xlink:href="#DejaVuSans-116"/>
      </g>
     </g>
    </g>
    <g id="xtick_9">
     <g id="line2d_9">
      <g>
       <use style="stroke:#000000;stroke-width:0.8;" x="503.134615" xlink:href="#m15d8d852f2" y="315"/>
      </g>
     </g>
     <g id="text_8">
      <!-- Nov -->
      <g transform="translate(493.37524 329.598437)scale(0.1 -0.1)">
       <defs>
        <path d="M 9.8125 72.90625 
L 23.09375 72.90625 
L 55.421875 11.921875 
L 55.421875 72.90625 
L 64.984375 72.90625 
L 64.984375 0 
L 51.703125 0 
L 19.390625 60.984375 
L 19.390625 0 
L 9.8125 0 
z
" id="DejaVuSans-78"/>
        <path d="M 30.609375 48.390625 
Q 23.390625 48.390625 19.1875 42.75 
Q 14.984375 37.109375 14.984375 27.296875 
Q 14.984375 17.484375 19.15625 11.84375 
Q 23.34375 6.203125 30.609375 6.203125 
Q 37.796875 6.203125 41.984375 11.859375 
Q 46.1875 17.53125 46.1875 27.296875 
Q 46.1875 37.015625 41.984375 42.703125 
Q 37.796875 48.390625 30.609375 48.390625 
z
M 30.609375 56 
Q 42.328125 56 49.015625 48.375 
Q 55.71875 40.765625 55.71875 27.296875 
Q 55.71875 13.875 49.015625 6.21875 
Q 42.328125 -1.421875 30.609375 -1.421875 
Q 18.84375 -1.421875 12.171875 6.21875 
Q 5.515625 13.875 5.515625 27.296875 
Q 5.515625 40.765625 12.171875 48.375 
Q 18.84375 56 30.609375 56 
z
" id="DejaVuSans-111"/>
        <path d="M 2.984375 54.6875 
L 12.5 54.6875 
L 29.59375 8.796875 
L 46.6875 54.6875 
L 56.203125 54.6875 
L 35.6875 0 
L 23.484375 0 
z
" id="DejaVuSans-118"/>
       </defs>
       <use xlink:href="#DejaVuSans-78"/>
       <use x="74.804688" xlink:href="#DejaVuSans-111"/>
       <use x="135.986328" xlink:href="#DejaVuSans-118"/>
      </g>
     </g>
    </g>
    <g id="xtick_10">
     <g id="line2d_10">
      <g>
       <use style="stroke:#000000;stroke-width:0.8;" x="556.788462" xlink:href="#m15d8d852f2" y="315"/>
      </g>
     </g>
     <g id="text_9">
      <!-- Dec -->
      <g transform="translate(547.11268 329.598437)scale(0.1 -0.1)">
       <defs>
        <path d="M 19.671875 64.796875 
L 19.671875 8.109375 
L 31.59375 8.109375 
Q 46.6875 8.109375 53.6875 14.9375 
Q 60.6875 21.78125 60.6875 36.53125 
Q 60.6875 51.171875 53.6875 57.984375 
Q 46.6875 64.796875 31.59375 64.796875 
z
M 9.8125 72.90625 
L 30.078125 72.90625 
Q 51.265625 72.90625 61.171875 64.09375 
Q 71.09375 55.28125 71.09375 36.53125 
Q 71.09375 17.671875 61.125 8.828125 
Q 51.171875 0 30.078125 0 
L 9.8125 0 
z
" id="DejaVuSans-68"/>
       </defs>
       <use xlink:href="#DejaVuSans-68"/>
       <use x="77.001953" xlink:href="#DejaVuSans-101"/>
       <use x="138.525391" xlink:href="#DejaVuSans-99"/>
      </g>
     </g>
    </g>
    <g id="xtick_11">
     <g id="line2d_11">
      <g>
       <use style="stroke:#000000;stroke-width:0.8;" x="612.230769" xlink:href="#m15d8d852f2" y="315"/>
      </g>
     </g>
     <g id="text_10">
      <!-- Jan -->
      <g transform="translate(604.522957 329.598437)scale(0.1 -0.1)">
       <use xlink:href="#DejaVuSans-74"/>
       <use x="29.492188" xlink:href="#DejaVuSans-97"/>
       <use x="90.771484" xlink:href="#DejaVuSans-110"/>
      </g>
      <!-- 2021 -->
      <g transform="translate(599.505769 340.79625)scale(0.1 -0.1)">
       <defs>
        <path d="M 19.1875 8.296875 
L 53.609375 8.296875 
L 53.609375 0 
L 7.328125 0 
L 7.328125 8.296875 
Q 12.9375 14.109375 22.625 23.890625 
Q 32.328125 33.6875 34.8125 36.53125 
Q 39.546875 41.84375 41.421875 45.53125 
Q 43.3125 49.21875 43.3125 52.78125 
Q 43.3125 58.59375 39.234375 62.25 
Q 35.15625 65.921875 28.609375 65.921875 
Q 23.96875 65.921875 18.8125 64.3125 
Q 13.671875 62.703125 7.8125 59.421875 
L 7.8125 69.390625 
Q 13.765625 71.78125 18.9375 73 
Q 24.125 74.21875 28.421875 74.21875 
Q 39.75 74.21875 46.484375 68.546875 
Q 53.21875 62.890625 53.21875 53.421875 
Q 53.21875 48.921875 51.53125 44.890625 
Q 49.859375 40.875 45.40625 35.40625 
Q 44.1875 33.984375 37.640625 27.21875 
Q 31.109375 20.453125 19.1875 8.296875 
z
" id="DejaVuSans-50"/>
        <path d="M 31.78125 66.40625 
Q 24.171875 66.40625 20.328125 58.90625 
Q 16.5 51.421875 16.5 36.375 
Q 16.5 21.390625 20.328125 13.890625 
Q 24.171875 6.390625 31.78125 6.390625 
Q 39.453125 6.390625 43.28125 13.890625 
Q 47.125 21.390625 47.125 36.375 
Q 47.125 51.421875 43.28125 58.90625 
Q 39.453125 66.40625 31.78125 66.40625 
z
M 31.78125 74.21875 
Q 44.046875 74.21875 50.515625 64.515625 
Q 56.984375 54.828125 56.984375 36.375 
Q 56.984375 17.96875 50.515625 8.265625 
Q 44.046875 -1.421875 31.78125 -1.421875 
Q 19.53125 -1.421875 13.0625 8.265625 
Q 6.59375 17.96875 6.59375 36.375 
Q 6.59375 54.828125 13.0625 64.515625 
Q 19.53125 74.21875 31.78125 74.21875 
z
" id="DejaVuSans-48"/>
        <path d="M 12.40625 8.296875 
L 28.515625 8.296875 
L 28.515625 63.921875 
L 10.984375 60.40625 
L 10.984375 69.390625 
L 28.421875 72.90625 
L 38.28125 72.90625 
L 38.28125 8.296875 
L 54.390625 8.296875 
L 54.390625 0 
L 12.40625 0 
z
" id="DejaVuSans-49"/>
       </defs>
       <use xlink:href="#DejaVuSans-50"/>
       <use x="63.623047" xlink:href="#DejaVuSans-48"/>
       <use x="127.246094" xlink:href="#DejaVuSans-50"/>
       <use x="190.869141" xlink:href="#DejaVuSans-49"/>
      </g>
     </g>
    </g>
    <g id="xtick_12">
     <g id="line2d_12">
      <g>
       <use style="stroke:#000000;stroke-width:0.8;" x="648" xlink:href="#m15d8d852f2" y="315"/>
      </g>
     </g>
    </g>
    <g id="xtick_13">
     <g id="line2d_13">
      <defs>
       <path d="M 0 0 
L 0 2 
" id="m80f7b69017" style="stroke:#000000;stroke-width:0.6;"/>
      </defs>
      <g>
       <use style="stroke:#000000;stroke-width:0.6;" x="91.788462" xlink:href="#m80f7b69017" y="315"/>
      </g>
     </g>
    </g>
    <g id="xtick_14">
     <g id="line2d_14">
      <g>
       <use style="stroke:#000000;stroke-width:0.6;" x="104.307692" xlink:href="#m80f7b69017" y="315"/>
      </g>
     </g>
    </g>
    <g id="xtick_15">
     <g id="line2d_15">
      <g>
       <use style="stroke:#000000;stroke-width:0.6;" x="116.826923" xlink:href="#m80f7b69017" y="315"/>
      </g>
     </g>
    </g>
    <g id="xtick_16">
     <g id="line2d_16">
      <g>
       <use style="stroke:#000000;stroke-width:0.6;" x="129.346154" xlink:href="#m80f7b69017" y="315"/>
      </g>
     </g>
    </g>
    <g id="xtick_17">
     <g id="line2d_17">
      <g>
       <use style="stroke:#000000;stroke-width:0.6;" x="141.865385" xlink:href="#m80f7b69017" y="315"/>
      </g>
     </g>
    </g>
    <g id="xtick_18">
     <g id="line2d_18">
      <g>
       <use style="stroke:#000000;stroke-width:0.6;" x="154.384615" xlink:href="#m80f7b69017" y="315"/>
      </g>
     </g>
    </g>
    <g id="xtick_19">
     <g id="line2d_19">
      <g>
       <use style="stroke:#000000;stroke-width:0.6;" x="166.903846" xlink:href="#m80f7b69017" y="315"/>
      </g>
     </g>
    </g>
    <g id="xtick_20">
     <g id="line2d_20">
      <g>
       <use style="stroke:#000000;stroke-width:0.6;" x="179.423077" xlink:href="#m80f7b69017" y="315"/>
      </g>
     </g>
    </g>
    <g id="xtick_21">
     <g id="line2d_21">
      <g>
       <use style="stroke:#000000;stroke-width:0.6;" x="191.942308" xlink:href="#m80f7b69017" y="315"/>
      </g>
     </g>
    </g>
    <g id="xtick_22">
     <g id="line2d_22">
      <g>
       <use style="stroke:#000000;stroke-width:0.6;" x="204.461538" xlink:href="#m80f7b69017" y="315"/>
      </g>
     </g>
    </g>
    <g id="xtick_23">
     <g id="line2d_23">
      <g>
       <use style="stroke:#000000;stroke-width:0.6;" x="216.980769" xlink:href="#m80f7b69017" y="315"/>
      </g>
     </g>
    </g>
    <g id="xtick_24">
     <g id="line2d_24">
      <g>
       <use style="stroke:#000000;stroke-width:0.6;" x="242.019231" xlink:href="#m80f7b69017" y="315"/>
      </g>
     </g>
    </g>
    <g id="xtick_25">
     <g id="line2d_25">
      <g>
       <use style="stroke:#000000;stroke-width:0.6;" x="254.538462" xlink:href="#m80f7b69017" y="315"/>
      </g>
     </g>
    </g>
    <g id="xtick_26">
     <g id="line2d_26">
      <g>
       <use style="stroke:#000000;stroke-width:0.6;" x="267.057692" xlink:href="#m80f7b69017" y="315"/>
      </g>
     </g>
    </g>
    <g id="xtick_27">
     <g id="line2d_27">
      <g>
       <use style="stroke:#000000;stroke-width:0.6;" x="279.576923" xlink:href="#m80f7b69017" y="315"/>
      </g>
     </g>
    </g>
    <g id="xtick_28">
     <g id="line2d_28">
      <g>
       <use style="stroke:#000000;stroke-width:0.6;" x="292.096154" xlink:href="#m80f7b69017" y="315"/>
      </g>
     </g>
    </g>
    <g id="xtick_29">
     <g id="line2d_29">
      <g>
       <use style="stroke:#000000;stroke-width:0.6;" x="304.615385" xlink:href="#m80f7b69017" y="315"/>
      </g>
     </g>
    </g>
    <g id="xtick_30">
     <g id="line2d_30">
      <g>
       <use style="stroke:#000000;stroke-width:0.6;" x="317.134615" xlink:href="#m80f7b69017" y="315"/>
      </g>
     </g>
    </g>
    <g id="xtick_31">
     <g id="line2d_31">
      <g>
       <use style="stroke:#000000;stroke-width:0.6;" x="329.653846" xlink:href="#m80f7b69017" y="315"/>
      </g>
     </g>
    </g>
    <g id="xtick_32">
     <g id="line2d_32">
      <g>
       <use style="stroke:#000000;stroke-width:0.6;" x="342.173077" xlink:href="#m80f7b69017" y="315"/>
      </g>
     </g>
    </g>
    <g id="xtick_33">
     <g id="line2d_33">
      <g>
       <use style="stroke:#000000;stroke-width:0.6;" x="354.692308" xlink:href="#m80f7b69017" y="315"/>
      </g>
     </g>
    </g>
    <g id="xtick_34">
     <g id="line2d_34">
      <g>
       <use style="stroke:#000000;stroke-width:0.6;" x="367.211538" xlink:href="#m80f7b69017" y="315"/>
      </g>
     </g>
    </g>
    <g id="xtick_35">
     <g id="line2d_35">
      <g>
       <use style="stroke:#000000;stroke-width:0.6;" x="379.730769" xlink:href="#m80f7b69017" y="315"/>
      </g>
     </g>
    </g>
    <g id="xtick_36">
     <g id="line2d_36">
      <g>
       <use style="stroke:#000000;stroke-width:0.6;" x="392.25" xlink:href="#m80f7b69017" y="315"/>
      </g>
     </g>
    </g>
    <g id="xtick_37">
     <g id="line2d_37">
      <g>
       <use style="stroke:#000000;stroke-width:0.6;" x="404.769231" xlink:href="#m80f7b69017" y="315"/>
      </g>
     </g>
    </g>
    <g id="xtick_38">
     <g id="line2d_38">
      <g>
       <use style="stroke:#000000;stroke-width:0.6;" x="417.288462" xlink:href="#m80f7b69017" y="315"/>
      </g>
     </g>
    </g>
    <g id="xtick_39">
     <g id="line2d_39">
      <g>
       <use style="stroke:#000000;stroke-width:0.6;" x="429.807692" xlink:href="#m80f7b69017" y="315"/>
      </g>
     </g>
    </g>
    <g id="xtick_40">
     <g id="line2d_40">
      <g>
       <use style="stroke:#000000;stroke-width:0.6;" x="442.326923" xlink:href="#m80f7b69017" y="315"/>
      </g>
     </g>
    </g>
    <g id="xtick_41">
     <g id="line2d_41">
      <g>
       <use style="stroke:#000000;stroke-width:0.6;" x="454.846154" xlink:href="#m80f7b69017" y="315"/>
      </g>
     </g>
    </g>
    <g id="xtick_42">
     <g id="line2d_42">
      <g>
       <use style="stroke:#000000;stroke-width:0.6;" x="467.365385" xlink:href="#m80f7b69017" y="315"/>
      </g>
     </g>
    </g>
    <g id="xtick_43">
     <g id="line2d_43">
      <g>
       <use style="stroke:#000000;stroke-width:0.6;" x="479.884615" xlink:href="#m80f7b69017" y="315"/>
      </g>
     </g>
    </g>
    <g id="xtick_44">
     <g id="line2d_44">
      <g>
       <use style="stroke:#000000;stroke-width:0.6;" x="492.403846" xlink:href="#m80f7b69017" y="315"/>
      </g>
     </g>
    </g>
    <g id="xtick_45">
     <g id="line2d_45">
      <g>
       <use style="stroke:#000000;stroke-width:0.6;" x="504.923077" xlink:href="#m80f7b69017" y="315"/>
      </g>
     </g>
    </g>
    <g id="xtick_46">
     <g id="line2d_46">
      <g>
       <use style="stroke:#000000;stroke-width:0.6;" x="517.442308" xlink:href="#m80f7b69017" y="315"/>
      </g>
     </g>
    </g>
    <g id="xtick_47">
     <g id="line2d_47">
      <g>
       <use style="stroke:#000000;stroke-width:0.6;" x="529.961538" xlink:href="#m80f7b69017" y="315"/>
      </g>
     </g>
    </g>
    <g id="xtick_48">
     <g id="line2d_48">
      <g>
       <use style="stroke:#000000;stroke-width:0.6;" x="542.480769" xlink:href="#m80f7b69017" y="315"/>
      </g>
     </g>
    </g>
    <g id="xtick_49">
     <g id="line2d_49">
      <g>
       <use style="stroke:#000000;stroke-width:0.6;" x="555" xlink:href="#m80f7b69017" y="315"/>
      </g>
     </g>
    </g>
    <g id="xtick_50">
     <g id="line2d_50">
      <g>
       <use style="stroke:#000000;stroke-width:0.6;" x="567.519231" xlink:href="#m80f7b69017" y="315"/>
      </g>
     </g>
    </g>
    <g id="xtick_51">
     <g id="line2d_51">
      <g>
       <use style="stroke:#000000;stroke-width:0.6;" x="580.038462" xlink:href="#m80f7b69017" y="315"/>
      </g>
     </g>
    </g>
    <g id="xtick_52">
     <g id="line2d_52">
      <g>
       <use style="stroke:#000000;stroke-width:0.6;" x="592.557692" xlink:href="#m80f7b69017" y="315"/>
      </g>
     </g>
    </g>
    <g id="xtick_53">
     <g id="line2d_53">
      <g>
       <use style="stroke:#000000;stroke-width:0.6;" x="605.076923" xlink:href="#m80f7b69017" y="315"/>
      </g>
     </g>
    </g>
    <g id="xtick_54">
     <g id="line2d_54">
      <g>
       <use style="stroke:#000000;stroke-width:0.6;" x="617.596154" xlink:href="#m80f7b69017" y="315"/>
      </g>
     </g>
    </g>
    <g id="xtick_55">
     <g id="line2d_55">
      <g>
       <use style="stroke:#000000;stroke-width:0.6;" x="630.115385" xlink:href="#m80f7b69017" y="315"/>
      </g>
     </g>
    </g>
    <g id="xtick_56">
     <g id="line2d_56">
      <g>
       <use style="stroke:#000000;stroke-width:0.6;" x="642.634615" xlink:href="#m80f7b69017" y="315"/>
      </g>
     </g>
    </g>
    <g id="text_11">
     <!-- date -->
     <g transform="translate(357.725 354.474375)scale(0.1 -0.1)">
      <defs>
       <path d="M 45.40625 46.390625 
L 45.40625 75.984375 
L 54.390625 75.984375 
L 54.390625 0 
L 45.40625 0 
L 45.40625 8.203125 
Q 42.578125 3.328125 38.25 0.953125 
Q 33.9375 -1.421875 27.875 -1.421875 
Q 17.96875 -1.421875 11.734375 6.484375 
Q 5.515625 14.40625 5.515625 27.296875 
Q 5.515625 40.1875 11.734375 48.09375 
Q 17.96875 56 27.875 56 
Q 33.9375 56 38.25 53.625 
Q 42.578125 51.265625 45.40625 46.390625 
z
M 14.796875 27.296875 
Q 14.796875 17.390625 18.875 11.75 
Q 22.953125 6.109375 30.078125 6.109375 
Q 37.203125 6.109375 41.296875 11.75 
Q 45.40625 17.390625 45.40625 27.296875 
Q 45.40625 37.203125 41.296875 42.84375 
Q 37.203125 48.484375 30.078125 48.484375 
Q 22.953125 48.484375 18.875 42.84375 
Q 14.796875 37.203125 14.796875 27.296875 
z
" id="DejaVuSans-100"/>
      </defs>
      <use xlink:href="#DejaVuSans-100"/>
      <use x="63.476562" xlink:href="#DejaVuSans-97"/>
      <use x="124.755859" xlink:href="#DejaVuSans-116"/>
      <use x="163.964844" xlink:href="#DejaVuSans-101"/>
     </g>
    </g>
   </g>
   <g id="matplotlib.axis_2">
    <g id="ytick_1">
     <g id="line2d_57">
      <path clip-path="url(#p94e64c4ed0)" d="M 90 304.523198 
L 648 304.523198 
" style="fill:none;stroke:#b0b0b0;stroke-dasharray:0.8,1.32;stroke-dashoffset:0;stroke-width:0.8;"/>
     </g>
     <g id="line2d_58">
      <defs>
       <path d="M 0 0 
L -3.5 0 
" id="m60198d3391" style="stroke:#000000;stroke-width:0.8;"/>
      </defs>
      <g>
       <use style="stroke:#000000;stroke-width:0.8;" x="90" xlink:href="#m60198d3391" y="304.523198"/>
      </g>
     </g>
     <g id="text_12">
      <!-- 0.4 -->
      <g transform="translate(67.096875 308.322417)scale(0.1 -0.1)">
       <defs>
        <path d="M 10.6875 12.40625 
L 21 12.40625 
L 21 0 
L 10.6875 0 
z
" id="DejaVuSans-46"/>
        <path d="M 37.796875 64.3125 
L 12.890625 25.390625 
L 37.796875 25.390625 
z
M 35.203125 72.90625 
L 47.609375 72.90625 
L 47.609375 25.390625 
L 58.015625 25.390625 
L 58.015625 17.1875 
L 47.609375 17.1875 
L 47.609375 0 
L 37.796875 0 
L 37.796875 17.1875 
L 4.890625 17.1875 
L 4.890625 26.703125 
z
" id="DejaVuSans-52"/>
       </defs>
       <use xlink:href="#DejaVuSans-48"/>
       <use x="63.623047" xlink:href="#DejaVuSans-46"/>
       <use x="95.410156" xlink:href="#DejaVuSans-52"/>
      </g>
     </g>
    </g>
    <g id="ytick_2">
     <g id="line2d_59">
      <path clip-path="url(#p94e64c4ed0)" d="M 90 273.346883 
L 648 273.346883 
" style="fill:none;stroke:#b0b0b0;stroke-dasharray:0.8,1.32;stroke-dashoffset:0;stroke-width:0.8;"/>
     </g>
     <g id="line2d_60">
      <g>
       <use style="stroke:#000000;stroke-width:0.8;" x="90" xlink:href="#m60198d3391" y="273.346883"/>
      </g>
     </g>
     <g id="text_13">
      <!-- 0.6 -->
      <g transform="translate(67.096875 277.146102)scale(0.1 -0.1)">
       <defs>
        <path d="M 33.015625 40.375 
Q 26.375 40.375 22.484375 35.828125 
Q 18.609375 31.296875 18.609375 23.390625 
Q 18.609375 15.53125 22.484375 10.953125 
Q 26.375 6.390625 33.015625 6.390625 
Q 39.65625 6.390625 43.53125 10.953125 
Q 47.40625 15.53125 47.40625 23.390625 
Q 47.40625 31.296875 43.53125 35.828125 
Q 39.65625 40.375 33.015625 40.375 
z
M 52.59375 71.296875 
L 52.59375 62.3125 
Q 48.875 64.0625 45.09375 64.984375 
Q 41.3125 65.921875 37.59375 65.921875 
Q 27.828125 65.921875 22.671875 59.328125 
Q 17.53125 52.734375 16.796875 39.40625 
Q 19.671875 43.65625 24.015625 45.921875 
Q 28.375 48.1875 33.59375 48.1875 
Q 44.578125 48.1875 50.953125 41.515625 
Q 57.328125 34.859375 57.328125 23.390625 
Q 57.328125 12.15625 50.6875 5.359375 
Q 44.046875 -1.421875 33.015625 -1.421875 
Q 20.359375 -1.421875 13.671875 8.265625 
Q 6.984375 17.96875 6.984375 36.375 
Q 6.984375 53.65625 15.1875 63.9375 
Q 23.390625 74.21875 37.203125 74.21875 
Q 40.921875 74.21875 44.703125 73.484375 
Q 48.484375 72.75 52.59375 71.296875 
z
" id="DejaVuSans-54"/>
       </defs>
       <use xlink:href="#DejaVuSans-48"/>
       <use x="63.623047" xlink:href="#DejaVuSans-46"/>
       <use x="95.410156" xlink:href="#DejaVuSans-54"/>
      </g>
     </g>
    </g>
    <g id="ytick_3">
     <g id="line2d_61">
      <path clip-path="url(#p94e64c4ed0)" d="M 90 242.170568 
L 648 242.170568 
" style="fill:none;stroke:#b0b0b0;stroke-dasharray:0.8,1.32;stroke-dashoffset:0;stroke-width:0.8;"/>
     </g>
     <g id="line2d_62">
      <g>
       <use style="stroke:#000000;stroke-width:0.8;" x="90" xlink:href="#m60198d3391" y="242.170568"/>
      </g>
     </g>
     <g id="text_14">
      <!-- 0.8 -->
      <g transform="translate(67.096875 245.969787)scale(0.1 -0.1)">
       <defs>
        <path d="M 31.78125 34.625 
Q 24.75 34.625 20.71875 30.859375 
Q 16.703125 27.09375 16.703125 20.515625 
Q 16.703125 13.921875 20.71875 10.15625 
Q 24.75 6.390625 31.78125 6.390625 
Q 38.8125 6.390625 42.859375 10.171875 
Q 46.921875 13.96875 46.921875 20.515625 
Q 46.921875 27.09375 42.890625 30.859375 
Q 38.875 34.625 31.78125 34.625 
z
M 21.921875 38.8125 
Q 15.578125 40.375 12.03125 44.71875 
Q 8.5 49.078125 8.5 55.328125 
Q 8.5 64.0625 14.71875 69.140625 
Q 20.953125 74.21875 31.78125 74.21875 
Q 42.671875 74.21875 48.875 69.140625 
Q 55.078125 64.0625 55.078125 55.328125 
Q 55.078125 49.078125 51.53125 44.71875 
Q 48 40.375 41.703125 38.8125 
Q 48.828125 37.15625 52.796875 32.3125 
Q 56.78125 27.484375 56.78125 20.515625 
Q 56.78125 9.90625 50.3125 4.234375 
Q 43.84375 -1.421875 31.78125 -1.421875 
Q 19.734375 -1.421875 13.25 4.234375 
Q 6.78125 9.90625 6.78125 20.515625 
Q 6.78125 27.484375 10.78125 32.3125 
Q 14.796875 37.15625 21.921875 38.8125 
z
M 18.3125 54.390625 
Q 18.3125 48.734375 21.84375 45.5625 
Q 25.390625 42.390625 31.78125 42.390625 
Q 38.140625 42.390625 41.71875 45.5625 
Q 45.3125 48.734375 45.3125 54.390625 
Q 45.3125 60.0625 41.71875 63.234375 
Q 38.140625 66.40625 31.78125 66.40625 
Q 25.390625 66.40625 21.84375 63.234375 
Q 18.3125 60.0625 18.3125 54.390625 
z
" id="DejaVuSans-56"/>
       </defs>
       <use xlink:href="#DejaVuSans-48"/>
       <use x="63.623047" xlink:href="#DejaVuSans-46"/>
       <use x="95.410156" xlink:href="#DejaVuSans-56"/>
      </g>
     </g>
    </g>
    <g id="ytick_4">
     <g id="line2d_63">
      <path clip-path="url(#p94e64c4ed0)" d="M 90 210.994253 
L 648 210.994253 
" style="fill:none;stroke:#b0b0b0;stroke-dasharray:0.8,1.32;stroke-dashoffset:0;stroke-width:0.8;"/>
     </g>
     <g id="line2d_64">
      <g>
       <use style="stroke:#000000;stroke-width:0.8;" x="90" xlink:href="#m60198d3391" y="210.994253"/>
      </g>
     </g>
     <g id="text_15">
      <!-- 1.0 -->
      <g transform="translate(67.096875 214.793472)scale(0.1 -0.1)">
       <use xlink:href="#DejaVuSans-49"/>
       <use x="63.623047" xlink:href="#DejaVuSans-46"/>
       <use x="95.410156" xlink:href="#DejaVuSans-48"/>
      </g>
     </g>
    </g>
    <g id="ytick_5">
     <g id="line2d_65">
      <path clip-path="url(#p94e64c4ed0)" d="M 90 179.817939 
L 648 179.817939 
" style="fill:none;stroke:#b0b0b0;stroke-dasharray:0.8,1.32;stroke-dashoffset:0;stroke-width:0.8;"/>
     </g>
     <g id="line2d_66">
      <g>
       <use style="stroke:#000000;stroke-width:0.8;" x="90" xlink:href="#m60198d3391" y="179.817939"/>
      </g>
     </g>
     <g id="text_16">
      <!-- 1.2 -->
      <g transform="translate(67.096875 183.617157)scale(0.1 -0.1)">
       <use xlink:href="#DejaVuSans-49"/>
       <use x="63.623047" xlink:href="#DejaVuSans-46"/>
       <use x="95.410156" xlink:href="#DejaVuSans-50"/>
      </g>
     </g>
    </g>
    <g id="ytick_6">
     <g id="line2d_67">
      <path clip-path="url(#p94e64c4ed0)" d="M 90 148.641624 
L 648 148.641624 
" style="fill:none;stroke:#b0b0b0;stroke-dasharray:0.8,1.32;stroke-dashoffset:0;stroke-width:0.8;"/>
     </g>
     <g id="line2d_68">
      <g>
       <use style="stroke:#000000;stroke-width:0.8;" x="90" xlink:href="#m60198d3391" y="148.641624"/>
      </g>
     </g>
     <g id="text_17">
      <!-- 1.4 -->
      <g transform="translate(67.096875 152.440842)scale(0.1 -0.1)">
       <use xlink:href="#DejaVuSans-49"/>
       <use x="63.623047" xlink:href="#DejaVuSans-46"/>
       <use x="95.410156" xlink:href="#DejaVuSans-52"/>
      </g>
     </g>
    </g>
    <g id="ytick_7">
     <g id="line2d_69">
      <path clip-path="url(#p94e64c4ed0)" d="M 90 117.465309 
L 648 117.465309 
" style="fill:none;stroke:#b0b0b0;stroke-dasharray:0.8,1.32;stroke-dashoffset:0;stroke-width:0.8;"/>
     </g>
     <g id="line2d_70">
      <g>
       <use style="stroke:#000000;stroke-width:0.8;" x="90" xlink:href="#m60198d3391" y="117.465309"/>
      </g>
     </g>
     <g id="text_18">
      <!-- 1.6 -->
      <g transform="translate(67.096875 121.264527)scale(0.1 -0.1)">
       <use xlink:href="#DejaVuSans-49"/>
       <use x="63.623047" xlink:href="#DejaVuSans-46"/>
       <use x="95.410156" xlink:href="#DejaVuSans-54"/>
      </g>
     </g>
    </g>
    <g id="ytick_8">
     <g id="line2d_71">
      <path clip-path="url(#p94e64c4ed0)" d="M 90 86.288994 
L 648 86.288994 
" style="fill:none;stroke:#b0b0b0;stroke-dasharray:0.8,1.32;stroke-dashoffset:0;stroke-width:0.8;"/>
     </g>
     <g id="line2d_72">
      <g>
       <use style="stroke:#000000;stroke-width:0.8;" x="90" xlink:href="#m60198d3391" y="86.288994"/>
      </g>
     </g>
     <g id="text_19">
      <!-- 1.8 -->
      <g transform="translate(67.096875 90.088213)scale(0.1 -0.1)">
       <use xlink:href="#DejaVuSans-49"/>
       <use x="63.623047" xlink:href="#DejaVuSans-46"/>
       <use x="95.410156" xlink:href="#DejaVuSans-56"/>
      </g>
     </g>
    </g>
    <g id="ytick_9">
     <g id="line2d_73">
      <path clip-path="url(#p94e64c4ed0)" d="M 90 55.112679 
L 648 55.112679 
" style="fill:none;stroke:#b0b0b0;stroke-dasharray:0.8,1.32;stroke-dashoffset:0;stroke-width:0.8;"/>
     </g>
     <g id="line2d_74">
      <g>
       <use style="stroke:#000000;stroke-width:0.8;" x="90" xlink:href="#m60198d3391" y="55.112679"/>
      </g>
     </g>
     <g id="text_20">
      <!-- 2.0 -->
      <g transform="translate(67.096875 58.911898)scale(0.1 -0.1)">
       <use xlink:href="#DejaVuSans-50"/>
       <use x="63.623047" xlink:href="#DejaVuSans-46"/>
       <use x="95.410156" xlink:href="#DejaVuSans-48"/>
      </g>
     </g>
    </g>
   </g>
   <g id="line2d_75">
    <path clip-path="url(#p94e64c4ed0)" d="M 90 263.821298 
L 91.788462 263.596845 
L 93.576923 263.058499 
L 95.365385 262.30339 
L 97.153846 262.616105 
L 98.942308 263.493527 
L 100.730769 263.628007 
L 102.519231 262.799094 
L 104.307692 263.17273 
L 109.673077 265.796089 
L 111.461538 266.154673 
L 113.25 266.735202 
L 115.038462 266.575662 
L 116.826923 266.754839 
L 118.615385 266.752581 
L 120.403846 266.957983 
L 122.192308 266.849729 
L 123.980769 267.342566 
L 125.769231 266.70196 
L 127.557692 266.696159 
L 129.346154 267.273712 
L 131.134615 266.820273 
L 132.923077 266.747979 
L 134.711538 266.378782 
L 136.5 266.983623 
L 138.288462 265.655263 
L 140.076923 264.713795 
L 141.865385 263.207054 
L 145.442308 261.298682 
L 147.230769 258.565258 
L 150.807692 255.040065 
L 152.596154 251.665927 
L 154.384615 250.215375 
L 156.173077 247.103915 
L 159.75 240.100194 
L 163.326923 234.567628 
L 165.115385 231.265752 
L 166.903846 228.467827 
L 168.692308 224.398484 
L 170.480769 219.436275 
L 172.269231 215.107093 
L 174.057692 209.051464 
L 175.846154 204.348448 
L 177.634615 199.133249 
L 183 180.940035 
L 184.788462 176.171381 
L 186.576923 168.692364 
L 188.365385 163.348317 
L 190.153846 153.608706 
L 191.942308 147.803715 
L 193.730769 141.149377 
L 195.519231 135.471751 
L 197.307692 130.829429 
L 199.096154 124.626001 
L 200.884615 120.491549 
L 202.673077 116.854583 
L 204.461538 112.103886 
L 206.25 108.696144 
L 208.038462 108.365506 
L 209.826923 106.844251 
L 211.615385 106.106438 
L 215.192308 112.697041 
L 218.769231 122.12131 
L 220.557692 129.677213 
L 222.346154 139.374473 
L 224.134615 146.04221 
L 225.923077 155.693459 
L 231.288462 181.008255 
L 233.076923 190.297912 
L 234.865385 197.027372 
L 236.653846 203.296989 
L 240.230769 211.190922 
L 242.019231 213.575855 
L 243.807692 216.305492 
L 245.596154 218.680461 
L 247.384615 218.655328 
L 249.173077 218.229401 
L 250.961538 217.227445 
L 252.75 215.621013 
L 254.538462 214.759832 
L 256.326923 211.809948 
L 258.115385 210.434305 
L 259.903846 207.972437 
L 261.692308 205.711052 
L 263.480769 202.277373 
L 265.269231 200.385145 
L 267.057692 197.403411 
L 268.846154 195.326254 
L 270.634615 191.986205 
L 272.423077 188.926891 
L 274.211538 187.100703 
L 276 184.42519 
L 277.788462 184.592044 
L 279.576923 183.165271 
L 281.365385 182.866774 
L 283.153846 182.946753 
L 284.942308 182.008128 
L 286.730769 182.199752 
L 290.307692 183.742631 
L 292.096154 182.194158 
L 293.884615 183.154807 
L 295.673077 181.982134 
L 297.461538 180.483202 
L 299.25 180.321861 
L 301.038462 178.633426 
L 302.826923 177.149764 
L 304.615385 175.087274 
L 306.403846 172.669407 
L 308.192308 169.447959 
L 309.980769 168.021422 
L 313.557692 165.98394 
L 315.346154 166.718606 
L 317.134615 167.135957 
L 318.923077 166.77174 
L 320.711538 170.091399 
L 322.5 172.083947 
L 324.288462 176.796357 
L 326.076923 180.261674 
L 327.865385 184.995736 
L 329.653846 190.605896 
L 331.442308 196.772023 
L 333.230769 201.930682 
L 335.019231 208.356308 
L 336.807692 213.057511 
L 343.961538 228.645829 
L 345.75 229.168669 
L 347.538462 231.802016 
L 349.326923 231.7142 
L 351.115385 232.977864 
L 352.903846 231.646458 
L 354.692308 229.580389 
L 356.480769 227.726542 
L 358.269231 225.420887 
L 361.846154 218.567356 
L 363.634615 213.654643 
L 365.423077 209.469357 
L 367.211538 205.991425 
L 370.788462 194.784355 
L 374.365385 182.772493 
L 376.153846 177.45722 
L 379.730769 162.741883 
L 381.519231 158.242851 
L 383.307692 154.394874 
L 385.096154 147.987036 
L 388.673077 140.680899 
L 390.461538 138.036113 
L 392.25 135.937015 
L 394.038462 135.303886 
L 395.826923 137.297201 
L 397.615385 141.069035 
L 399.403846 143.185482 
L 401.192308 148.305783 
L 402.980769 152.557752 
L 404.769231 159.183015 
L 406.557692 165.342004 
L 408.346154 172.680091 
L 410.134615 178.247573 
L 411.923077 185.804164 
L 415.5 200.242251 
L 417.288462 206.017154 
L 420.865385 221.134976 
L 422.653846 227.162887 
L 426.230769 240.122152 
L 428.019231 246.209004 
L 433.384615 260.036123 
L 435.173077 264.268846 
L 436.961538 268.077901 
L 438.75 271.478957 
L 440.538462 274.27753 
L 442.326923 276.54969 
L 444.115385 278.339833 
L 445.903846 279.857518 
L 447.692308 281.139443 
L 449.480769 283.795041 
L 453.057692 285.36721 
L 454.846154 286.432466 
L 456.634615 286.979692 
L 458.423077 287.948805 
L 460.211538 288.036564 
L 462 288.417098 
L 463.788462 288.191602 
L 465.576923 288.46743 
L 467.365385 288.005492 
L 470.942308 284.801006 
L 472.730769 284.142387 
L 474.519231 282.027428 
L 476.307692 280.903536 
L 479.884615 275.543229 
L 481.673077 273.309771 
L 485.25 264.264109 
L 487.038462 260.87964 
L 488.826923 257.173909 
L 492.403846 246.740211 
L 495.980769 234.491914 
L 497.769231 228.997853 
L 499.557692 221.330072 
L 503.134615 207.244466 
L 504.923077 199.281063 
L 506.711538 190.588968 
L 508.5 182.517801 
L 510.288462 175.233747 
L 512.076923 167.358487 
L 515.653846 149.954967 
L 517.442308 144.736449 
L 519.230769 136.847395 
L 521.019231 129.780598 
L 522.807692 124.471942 
L 524.596154 118.299692 
L 526.384615 115.291315 
L 529.961538 106.792926 
L 531.75 106.439435 
L 533.538462 105.869855 
L 537.115385 108.302307 
L 538.903846 109.361228 
L 542.480769 114.685188 
L 544.269231 117.67701 
L 546.057692 117.616918 
L 547.846154 119.26347 
L 549.634615 119.031208 
L 551.423077 120.192309 
L 553.211538 121.734332 
L 555 121.221664 
L 556.788462 122.904575 
L 558.576923 121.06277 
L 560.365385 119.914688 
L 562.153846 121.172772 
L 565.730769 119.308661 
L 567.519231 121.384554 
L 569.307692 120.410599 
L 571.096154 122.224261 
L 572.884615 124.724095 
L 574.673077 124.451271 
L 576.461538 127.508047 
L 578.25 130.137793 
L 581.826923 134.704759 
L 583.615385 139.068599 
L 587.192308 146.77332 
L 588.980769 146.964542 
L 592.557692 154.41013 
L 594.346154 158.60925 
L 596.134615 160.421216 
L 597.923077 163.89731 
L 601.5 169.937775 
L 605.076923 177.467293 
L 606.865385 181.214166 
L 608.653846 185.272835 
L 610.442308 188.589528 
L 612.230769 191.623404 
L 614.019231 195.084786 
L 615.807692 197.704901 
L 617.596154 200.798201 
L 619.384615 202.953057 
L 621.173077 204.344666 
L 622.961538 205.075433 
L 624.75 207.389479 
L 626.538462 209.213064 
L 628.326923 210.128639 
L 630.115385 211.395725 
L 631.903846 213.457271 
L 633.692308 213.469795 
L 635.480769 213.766487 
L 637.269231 213.652761 
L 639.057692 214.291342 
L 640.846154 213.240817 
L 642.634615 212.705254 
L 644.423077 213.486429 
L 646.211538 212.525295 
L 648 213.180779 
L 649.788462 211.57485 
L 651.576923 212.832594 
L 653.365385 211.218238 
L 655.153846 212.950159 
L 656.942308 212.261485 
L 658.730769 212.456676 
L 662.307692 211.759718 
L 662.307692 211.759718 
" style="fill:none;stroke:#fc997a;stroke-linecap:square;stroke-width:1.5;"/>
   </g>
   <g id="line2d_76">
    <path clip-path="url(#p94e64c4ed0)" d="M 90 210.994253 
L 648 210.994253 
" style="fill:none;stroke:#000000;stroke-dasharray:3.7,1.6;stroke-dashoffset:0;"/>
   </g>
   <g id="patch_3">
    <path d="M 90 315 
L 90 43.2 
" style="fill:none;stroke:#000000;stroke-linecap:square;stroke-linejoin:miter;stroke-width:0.8;"/>
   </g>
   <g id="patch_4">
    <path d="M 648 315 
L 648 43.2 
" style="fill:none;stroke:#000000;stroke-linecap:square;stroke-linejoin:miter;stroke-width:0.8;"/>
   </g>
   <g id="patch_5">
    <path d="M 90 315 
L 648 315 
" style="fill:none;stroke:#000000;stroke-linecap:square;stroke-linejoin:miter;stroke-width:0.8;"/>
   </g>
   <g id="patch_6">
    <path d="M 90 43.2 
L 648 43.2 
" style="fill:none;stroke:#000000;stroke-linecap:square;stroke-linejoin:miter;stroke-width:0.8;"/>
   </g>
   <g id="text_21">
    <!-- 212    $R_t$ -->
    <g transform="translate(306.72 37.2)scale(0.12 -0.12)">
     <defs>
      <path id="DejaVuSans-32"/>
      <path d="M 15.71875 54.6875 
L 15.71875 24.125 
L 6.640625 20.40625 
L 6.640625 54.6875 
z
" id="DejaVuSans-1497"/>
      <path d="M 56.25 29.59375 
L 56.25 0 
L 47.171875 0 
L 47.171875 30.90625 
Q 47.171875 40.578125 44 44.140625 
Q 40.828125 47.703125 31.84375 47.703125 
L 18.109375 47.703125 
L 18.109375 0 
L 9.078125 0 
L 9.078125 54.6875 
L 31.734375 54.6875 
Q 45.21875 54.6875 50.734375 48.828125 
Q 56.25 42.96875 56.25 29.59375 
z
" id="DejaVuSans-1495"/>
      <path d="M 47.359375 27.828125 
L 47.359375 0 
L 38.28125 0 
L 38.28125 27.828125 
Q 38.28125 31.390625 37.765625 34.265625 
Q 37.25 37.15625 36 39.71875 
Q 34.765625 42.28125 32.8125 43.984375 
Q 30.859375 45.703125 27.78125 46.703125 
Q 24.703125 47.703125 20.703125 47.703125 
L 4.296875 47.703125 
L 4.296875 54.6875 
L 20.65625 54.6875 
Q 26.8125 54.6875 31.46875 53.390625 
Q 36.140625 52.09375 39.109375 49.828125 
Q 42.09375 47.5625 43.96875 44.109375 
Q 45.84375 40.671875 46.59375 36.734375 
Q 47.359375 32.8125 47.359375 27.828125 
z
" id="DejaVuSans-1512"/>
      <path d="M 30.328125 54.6875 
L 30.328125 47.703125 
L 26.421875 47.703125 
Q 22.171875 47.703125 20.578125 43.921875 
Q 19 40.140625 19 30.90625 
L 19 0 
L 9.90625 0 
L 9.90625 30.90625 
Q 9.90625 37.109375 11.78125 41.453125 
Q 13.671875 45.796875 16.40625 47.703125 
L 4.296875 47.703125 
L 4.296875 54.6875 
z
" id="DejaVuSans-1494"/>
      <path d="M 4.296875 54.6875 
L 14.890625 54.6875 
Q 15.09375 54.15625 16.703125 50.3125 
Q 18.3125 46.484375 19.390625 42.671875 
Q 20.75 46.09375 22.625 48.53125 
Q 24.515625 50.984375 26.359375 52.296875 
Q 28.21875 53.609375 30.609375 54.34375 
Q 33.015625 55.078125 34.859375 55.265625 
Q 36.71875 55.46875 39.203125 55.46875 
Q 58.84375 55.46875 58.84375 29.59375 
L 58.84375 0 
L 31.390625 0 
L 31.390625 6.9375 
L 49.75 6.9375 
L 49.75 29.59375 
Q 49.75 39.109375 46.765625 43.671875 
Q 43.796875 48.25 39.0625 48.25 
Q 30.28125 48.25 26.078125 40.4375 
Q 23.734375 35.984375 21.6875 25.921875 
Q 21.578125 25.25 21.34375 24.125 
L 16.546875 0 
L 7.46875 0 
L 11.375 20.40625 
Q 11.53125 21.1875 11.890625 22.96875 
Q 12.25 24.75 12.375 25.40625 
Q 12.5 26.078125 12.671875 27.3125 
Q 12.84375 28.5625 12.90625 29.515625 
Q 12.984375 30.46875 12.984375 31.546875 
Q 12.984375 34.671875 10.71875 41.09375 
Q 8.453125 47.515625 4.296875 54.6875 
z
" id="DejaVuSans-1502"/>
      <path d="M 18.171875 54.6875 
L 18.171875 -20.796875 
L 9.078125 -20.796875 
L 9.078125 54.6875 
z
" id="DejaVuSans-1503"/>
      <path d="M 18.171875 54.6875 
L 18.171875 0 
L 9.078125 0 
L 9.078125 54.6875 
z
" id="DejaVuSans-1493"/>
      <path d="M 18.796875 0 
L 38.53125 47.703125 
L 4.296875 47.703125 
L 4.296875 72.90625 
L 13.421875 72.90625 
L 13.421875 54.6875 
L 49.21875 54.640625 
L 49.078125 49.265625 
L 28.328125 0 
z
" id="DejaVuSans-1500"/>
      <path d="M 44.140625 40.828125 
L 44.140625 54.6875 
L 53.515625 54.6875 
L 53.515625 40.828125 
Q 53.515625 35.0625 53.046875 30.71875 
Q 52.59375 26.375 51.390625 22.09375 
Q 50.203125 17.828125 48.046875 14.5 
Q 45.90625 11.1875 42.578125 8.078125 
Q 39.265625 4.984375 34.515625 2.390625 
Q 29.78125 -0.203125 23.4375 -2.484375 
L 4.6875 -9.28125 
L 4.6875 -1.03125 
L 18.953125 4.046875 
L 4.296875 54.6875 
L 13.765625 54.6875 
L 27.25 7.125 
Q 33.6875 9.90625 37.203125 13.5625 
Q 40.71875 17.234375 42.421875 23.671875 
Q 44.140625 30.125 44.140625 40.828125 
z
" id="DejaVuSans-1506"/>
      <path d="M 31.203125 29.59375 
Q 31.203125 22.5625 32.890625 14.75 
Q 34.578125 6.9375 38.328125 0 
L 28.609375 0 
Q 25.78125 6.59375 24.5625 12.0625 
Q 22.953125 8.109375 21.234375 5.59375 
Q 19.53125 3.078125 17.578125 1.75 
Q 15.625 0.4375 13.671875 -0.015625 
Q 11.71875 -0.484375 9.03125 -0.484375 
Q 6.78125 -0.484375 4.296875 0.203125 
L 4.296875 8.453125 
Q 5.953125 7.953125 7.71875 7.953125 
Q 9.859375 7.953125 11.546875 8.265625 
Q 13.234375 8.59375 15.328125 9.859375 
Q 17.4375 11.140625 18.796875 13.359375 
Q 20.171875 15.578125 21.140625 19.71875 
Q 22.125 23.875 22.125 29.59375 
Q 22.125 36.96875 20.875 40.890625 
Q 19.625 44.828125 17.15625 46.265625 
Q 14.703125 47.703125 10.203125 47.703125 
L 5.8125 47.703125 
L 5.8125 54.6875 
L 10.5 54.6875 
Q 21.296875 54.6875 26.25 48.734375 
Q 31.203125 42.78125 31.203125 29.59375 
z
" id="DejaVuSans-1490"/>
      <path d="M 25.203125 64.796875 
L 20.21875 38.921875 
L 32.90625 38.921875 
Q 40.375 38.921875 44.984375 43.046875 
Q 49.609375 47.171875 49.609375 53.8125 
Q 49.609375 59.125 46.5 61.953125 
Q 43.40625 64.796875 37.59375 64.796875 
z
M 43.3125 35.015625 
Q 46.4375 34.28125 48.515625 31.390625 
Q 50.59375 28.515625 53.328125 19.921875 
L 59.515625 0 
L 49.125 0 
L 43.40625 18.703125 
Q 41.21875 25.921875 38.328125 28.359375 
Q 35.453125 30.8125 29.5 30.8125 
L 18.609375 30.8125 
L 12.59375 0 
L 2.6875 0 
L 16.890625 72.90625 
L 39.109375 72.90625 
Q 49.21875 72.90625 54.609375 68.328125 
Q 60.015625 63.765625 60.015625 55.171875 
Q 60.015625 47.5625 55.421875 41.984375 
Q 50.828125 36.421875 43.3125 35.015625 
z
" id="DejaVuSans-Oblique-82"/>
      <path d="M 42.28125 54.6875 
L 40.921875 47.703125 
L 23 47.703125 
L 17.1875 18.015625 
Q 16.890625 16.359375 16.75 15.234375 
Q 16.609375 14.109375 16.609375 13.484375 
Q 16.609375 10.359375 18.484375 8.9375 
Q 20.359375 7.515625 24.515625 7.515625 
L 33.59375 7.515625 
L 32.078125 0 
L 23.484375 0 
Q 15.484375 0 11.546875 3.125 
Q 7.625 6.25 7.625 12.59375 
Q 7.625 13.71875 7.765625 15.0625 
Q 7.90625 16.40625 8.203125 18.015625 
L 14.015625 47.703125 
L 6.390625 47.703125 
L 7.8125 54.6875 
L 15.28125 54.6875 
L 18.3125 70.21875 
L 27.296875 70.21875 
L 24.3125 54.6875 
z
" id="DejaVuSans-Oblique-116"/>
     </defs>
     <use transform="translate(0 0.78125)" xlink:href="#DejaVuSans-50"/>
     <use transform="translate(63.623047 0.78125)" xlink:href="#DejaVuSans-49"/>
     <use transform="translate(127.246094 0.78125)" xlink:href="#DejaVuSans-50"/>
     <use transform="translate(190.869141 0.78125)" xlink:href="#DejaVuSans-32"/>
     <use transform="translate(222.65625 0.78125)" xlink:href="#DejaVuSans-1497"/>
     <use transform="translate(245.019531 0.78125)" xlink:href="#DejaVuSans-1495"/>
     <use transform="translate(310.351562 0.78125)" xlink:href="#DejaVuSans-1512"/>
     <use transform="translate(366.796875 0.78125)" xlink:href="#DejaVuSans-1494"/>
     <use transform="translate(401.416016 0.78125)" xlink:href="#DejaVuSans-1502"/>
     <use transform="translate(469.335938 0.78125)" xlink:href="#DejaVuSans-32"/>
     <use transform="translate(501.123047 0.78125)" xlink:href="#DejaVuSans-1503"/>
     <use transform="translate(528.369141 0.78125)" xlink:href="#DejaVuSans-1493"/>
     <use transform="translate(555.615234 0.78125)" xlink:href="#DejaVuSans-1497"/>
     <use transform="translate(577.978516 0.78125)" xlink:href="#DejaVuSans-1500"/>
     <use transform="translate(634.814453 0.78125)" xlink:href="#DejaVuSans-1506"/>
     <use transform="translate(697.412109 0.78125)" xlink:href="#DejaVuSans-32"/>
     <use transform="translate(729.199219 0.78125)" xlink:href="#DejaVuSans-1500"/>
     <use transform="translate(786.035156 0.78125)" xlink:href="#DejaVuSans-1497"/>
     <use transform="translate(808.398438 0.78125)" xlink:href="#DejaVuSans-1500"/>
     <use transform="translate(865.234375 0.78125)" xlink:href="#DejaVuSans-1490"/>
     <use transform="translate(906.445312 0.78125)" xlink:href="#DejaVuSans-32"/>
     <use transform="translate(938.232422 0.78125)" xlink:href="#DejaVuSans-Oblique-82"/>
     <use transform="translate(1007.714844 -15.625)scale(0.7)" xlink:href="#DejaVuSans-Oblique-116"/>
    </g>
   </g>
  </g>
 </g>
 <defs>
  <clipPath id="p94e64c4ed0">
   <rect height="271.8" width="558" x="90" y="43.2"/>
  </clipPath>
 </defs>
</svg>
