<?xml version="1.0" encoding="utf-8" standalone="no"?>
<!DOCTYPE svg PUBLIC "-//W3C//DTD SVG 1.1//EN"
  "http://www.w3.org/Graphics/SVG/1.1/DTD/svg11.dtd">
<!-- Created with matplotlib (https://matplotlib.org/) -->
<svg height="360pt" version="1.1" viewBox="0 0 720 360" width="720pt" xmlns="http://www.w3.org/2000/svg" xmlns:xlink="http://www.w3.org/1999/xlink">
 <metadata>
  <rdf:RDF xmlns:cc="http://creativecommons.org/ns#" xmlns:dc="http://purl.org/dc/elements/1.1/" xmlns:rdf="http://www.w3.org/1999/02/22-rdf-syntax-ns#">
   <cc:Work>
    <dc:type rdf:resource="http://purl.org/dc/dcmitype/StillImage"/>
    <dc:date>2021-02-21T03:01:57.469512</dc:date>
    <dc:format>image/svg+xml</dc:format>
    <dc:creator>
     <cc:Agent>
      <dc:title>Matplotlib v3.3.2, https://matplotlib.org/</dc:title>
     </cc:Agent>
    </dc:creator>
   </cc:Work>
  </rdf:RDF>
 </metadata>
 <defs>
  <style type="text/css">*{stroke-linecap:butt;stroke-linejoin:round;}</style>
 </defs>
 <g id="figure_1">
  <g id="patch_1">
   <path d="M 0 360 
L 720 360 
L 720 0 
L 0 0 
z
" style="fill:#ffffff;"/>
  </g>
  <g id="axes_1">
   <g id="patch_2">
    <path d="M 90 315 
L 648 315 
L 648 43.2 
L 90 43.2 
z
" style="fill:#ffffff;"/>
   </g>
   <g id="PolyCollection_1">
    <defs>
     <path d="M 90 -176.159018 
L 90 -301.799749 
L 91.636364 -303.098627 
L 93.272727 -304.445455 
L 94.909091 -295.285678 
L 96.545455 -296.084866 
L 98.181818 -296.473589 
L 99.818182 -292.805456 
L 101.454545 -280.03448 
L 103.090909 -277.263097 
L 104.727273 -266.428002 
L 106.363636 -264.087501 
L 108 -256.02129 
L 109.636364 -246.596598 
L 111.272727 -237.41952 
L 112.909091 -219.745987 
L 114.545455 -216.997103 
L 116.181818 -201.266771 
L 117.818182 -197.519543 
L 119.454545 -182.854958 
L 121.090909 -173.501947 
L 122.727273 -165.670891 
L 124.363636 -155.442129 
L 126 -151.069842 
L 127.636364 -142.887551 
L 129.272727 -136.302203 
L 130.909091 -130.251744 
L 132.545455 -125.001841 
L 134.181818 -121.354837 
L 135.818182 -115.228952 
L 137.454545 -109.626112 
L 139.090909 -105.625278 
L 140.727273 -101.499587 
L 142.363636 -98.222945 
L 144 -93.405247 
L 145.636364 -92.526729 
L 147.272727 -88.46857 
L 148.909091 -85.526573 
L 150.545455 -82.83697 
L 152.181818 -80.588934 
L 153.818182 -78.20721 
L 155.454545 -77.693707 
L 157.090909 -76.450419 
L 158.727273 -76.093729 
L 160.363636 -77.463963 
L 162 -78.615905 
L 163.636364 -78.776179 
L 165.272727 -79.509144 
L 166.909091 -80.449052 
L 168.545455 -84.335615 
L 170.181818 -86.266584 
L 171.818182 -87.938182 
L 173.454545 -93.793149 
L 175.090909 -99.410796 
L 176.727273 -101.441743 
L 178.363636 -109.690279 
L 180 -114.451368 
L 181.636364 -121.143755 
L 183.272727 -130.869091 
L 184.909091 -141.417561 
L 186.545455 -148.469912 
L 188.181818 -160.451961 
L 189.818182 -174.50728 
L 191.454545 -183.916589 
L 193.090909 -199.11386 
L 194.727273 -213.996979 
L 196.363636 -220.736302 
L 198 -232.007536 
L 199.636364 -240.293768 
L 201.272727 -250.790593 
L 202.909091 -257.022625 
L 204.545455 -257.89454 
L 206.181818 -261.099781 
L 207.818182 -254.311046 
L 209.454545 -242.284082 
L 211.090909 -228.838851 
L 212.727273 -218.820128 
L 214.363636 -204.398906 
L 216 -192.054967 
L 217.636364 -181.729721 
L 219.272727 -174.930854 
L 220.909091 -166.178669 
L 222.545455 -160.804699 
L 224.181818 -158.006267 
L 225.818182 -158.729135 
L 227.454545 -159.074869 
L 229.090909 -161.181265 
L 230.727273 -163.367895 
L 232.363636 -167.275551 
L 234 -172.880907 
L 235.636364 -183.897047 
L 237.272727 -189.134999 
L 238.909091 -197.286596 
L 240.545455 -205.523743 
L 242.181818 -219.451183 
L 243.818182 -230.460379 
L 245.454545 -237.324071 
L 247.090909 -250.1667 
L 248.727273 -252.583566 
L 250.363636 -259.418275 
L 252 -267.501945 
L 253.636364 -273.789546 
L 255.272727 -271.82964 
L 256.909091 -278.490736 
L 258.545455 -273.910428 
L 260.181818 -274.899646 
L 261.818182 -266.338995 
L 263.454545 -264.45914 
L 265.090909 -263.751267 
L 266.727273 -251.737451 
L 268.363636 -241.732038 
L 270 -236.908844 
L 271.636364 -228.829194 
L 273.272727 -221.393272 
L 274.909091 -216.215016 
L 276.545455 -212.669148 
L 278.181818 -205.801536 
L 279.818182 -201.641717 
L 281.454545 -192.983341 
L 283.090909 -187.53934 
L 284.727273 -182.519217 
L 286.363636 -177.767173 
L 288 -174.884143 
L 289.636364 -172.329494 
L 291.272727 -166.587843 
L 292.909091 -165.096835 
L 294.545455 -164.346928 
L 296.181818 -161.220939 
L 297.818182 -158.866759 
L 299.454545 -156.615498 
L 301.090909 -153.545728 
L 302.727273 -153.828296 
L 304.363636 -148.771674 
L 306 -149.43058 
L 307.636364 -149.483449 
L 309.272727 -149.36706 
L 310.909091 -148.965532 
L 312.545455 -146.281317 
L 314.181818 -144.904134 
L 315.818182 -145.502013 
L 317.454545 -146.601091 
L 319.090909 -146.164546 
L 320.727273 -146.534053 
L 322.363636 -146.446714 
L 324 -146.677506 
L 325.636364 -146.998988 
L 327.272727 -148.371697 
L 328.909091 -144.755391 
L 330.545455 -146.533551 
L 332.181818 -149.6826 
L 333.818182 -150.995365 
L 335.454545 -147.038708 
L 337.090909 -148.293458 
L 338.727273 -149.983963 
L 340.363636 -151.484773 
L 342 -152.946044 
L 343.636364 -155.620674 
L 345.272727 -158.308956 
L 346.909091 -160.559195 
L 348.545455 -161.920627 
L 350.181818 -165.64 
L 351.818182 -168.555054 
L 353.454545 -171.566032 
L 355.090909 -175.549376 
L 356.727273 -178.360182 
L 358.363636 -184.010182 
L 360 -184.758135 
L 361.636364 -187.534471 
L 363.272727 -193.119798 
L 364.909091 -196.024597 
L 366.545455 -202.236406 
L 368.181818 -205.955295 
L 369.818182 -204.964391 
L 371.454545 -205.209667 
L 373.090909 -209.920674 
L 374.727273 -205.709204 
L 376.363636 -205.267682 
L 378 -204.707654 
L 379.636364 -203.420332 
L 381.272727 -197.119227 
L 382.909091 -200.066252 
L 384.545455 -198.499782 
L 386.181818 -196.167248 
L 387.818182 -190.029135 
L 389.454545 -189.001121 
L 391.090909 -186.137903 
L 392.727273 -180.84216 
L 394.363636 -177.684008 
L 396 -174.846023 
L 397.636364 -173.86603 
L 399.272727 -168.526649 
L 400.909091 -163.318951 
L 402.545455 -163.23053 
L 404.181818 -159.316902 
L 405.818182 -152.142439 
L 407.454545 -145.591602 
L 409.090909 -143.474904 
L 410.727273 -140.824646 
L 412.363636 -135.1689 
L 414 -127.977201 
L 415.636364 -124.352411 
L 417.272727 -120.189906 
L 418.909091 -117.036608 
L 420.545455 -112.351757 
L 422.181818 -109.327476 
L 423.818182 -106.970246 
L 425.454545 -105.3391 
L 427.090909 -102.688145 
L 428.727273 -101.53859 
L 430.363636 -99.503505 
L 432 -99.105129 
L 433.636364 -97.74792 
L 435.272727 -99.075721 
L 436.909091 -100.470781 
L 438.545455 -101.073801 
L 440.181818 -100.333691 
L 441.818182 -102.58111 
L 443.454545 -103.198506 
L 445.090909 -102.690235 
L 446.727273 -105.988373 
L 448.363636 -106.357569 
L 450 -109.28707 
L 451.636364 -113.442646 
L 453.272727 -116.472758 
L 454.909091 -119.169707 
L 456.545455 -122.862993 
L 458.181818 -125.369799 
L 459.818182 -128.254102 
L 461.454545 -132.029825 
L 463.090909 -136.766554 
L 464.727273 -138.526071 
L 466.363636 -143.260185 
L 468 -147.594676 
L 469.636364 -152.510171 
L 471.272727 -154.651841 
L 472.909091 -157.219674 
L 474.545455 -162.706616 
L 476.181818 -163.34592 
L 477.818182 -166.301014 
L 479.454545 -170.347462 
L 481.090909 -173.177515 
L 482.727273 -177.20226 
L 484.363636 -180.37124 
L 486 -178.963735 
L 487.636364 -182.24302 
L 489.272727 -184.227294 
L 490.909091 -187.607203 
L 492.545455 -188.031867 
L 494.181818 -191.675039 
L 495.818182 -192.512766 
L 497.454545 -196.058343 
L 499.090909 -193.200268 
L 500.727273 -195.41857 
L 502.363636 -196.787998 
L 504 -199.486991 
L 505.636364 -201.047766 
L 507.272727 -206.563869 
L 508.909091 -208.499367 
L 510.545455 -207.646695 
L 512.181818 -210.345967 
L 513.818182 -216.435824 
L 515.454545 -211.187709 
L 517.090909 -211.493232 
L 518.727273 -212.668697 
L 520.363636 -217.961804 
L 522 -217.576326 
L 523.636364 -214.054773 
L 525.272727 -216.318775 
L 526.909091 -215.861172 
L 528.545455 -212.875522 
L 530.181818 -216.954144 
L 531.818182 -214.496341 
L 533.454545 -220.992745 
L 535.090909 -221.696379 
L 536.727273 -220.062278 
L 538.363636 -218.504893 
L 540 -219.667234 
L 541.636364 -219.124125 
L 543.272727 -213.204868 
L 544.909091 -218.906441 
L 546.545455 -214.148018 
L 548.181818 -213.704781 
L 549.818182 -211.379665 
L 551.454545 -207.567137 
L 553.090909 -211.851596 
L 554.727273 -206.294216 
L 556.363636 -204.213804 
L 558 -203.990969 
L 559.636364 -202.151483 
L 561.272727 -193.451659 
L 562.909091 -193.650606 
L 564.545455 -193.113577 
L 566.181818 -189.668062 
L 567.818182 -187.626963 
L 569.454545 -188.609091 
L 571.090909 -183.348688 
L 572.727273 -180.781581 
L 574.363636 -176.385974 
L 576 -173.924546 
L 577.636364 -171.189514 
L 579.272727 -167.156107 
L 580.909091 -161.142633 
L 582.545455 -160.676716 
L 584.181818 -153.893792 
L 585.818182 -150.000493 
L 587.454545 -148.15549 
L 589.090909 -144.503912 
L 590.727273 -142.628171 
L 592.363636 -142.128244 
L 594 -137.443689 
L 595.636364 -133.938344 
L 597.272727 -133.244329 
L 598.909091 -133.690988 
L 600.545455 -129.565328 
L 602.181818 -130.40895 
L 603.818182 -129.709261 
L 605.454545 -126.678742 
L 607.090909 -126.748498 
L 608.727273 -123.712315 
L 610.363636 -125.125784 
L 612 -123.699047 
L 613.636364 -121.115512 
L 615.272727 -119.902858 
L 616.909091 -121.68938 
L 618.545455 -118.757984 
L 620.181818 -119.727308 
L 621.818182 -121.012166 
L 623.454545 -116.460081 
L 625.090909 -113.218175 
L 626.727273 -114.553212 
L 628.363636 -114.053097 
L 630 -113.24848 
L 631.636364 -113.156214 
L 633.272727 -113.262206 
L 634.909091 -112.973334 
L 636.545455 -111.701675 
L 638.181818 -112.238509 
L 639.818182 -114.368366 
L 641.454545 -115.780752 
L 643.090909 -111.361803 
L 644.727273 -115.618149 
L 646.363636 -116.513115 
L 648 -114.811711 
L 649.636364 -118.986868 
L 651.272727 -116.359327 
L 652.909091 -120.869832 
L 654.545455 -117.801783 
L 656.181818 -120.457522 
L 657.818182 -119.581975 
L 659.454545 -123.606229 
L 661.090909 -124.892906 
L 661.090909 -60.508207 
L 661.090909 -60.508207 
L 659.454545 -61.505885 
L 657.818182 -59.860777 
L 656.181818 -62.196961 
L 654.545455 -60.381322 
L 652.909091 -65.076471 
L 651.272727 -63.554609 
L 649.636364 -67.694114 
L 648 -66.139535 
L 646.363636 -69.705921 
L 644.727273 -70.333802 
L 643.090909 -67.273605 
L 641.454545 -72.831519 
L 639.818182 -74.450556 
L 638.181818 -74.967648 
L 636.545455 -74.59742 
L 634.909091 -77.448165 
L 633.272727 -79.941378 
L 631.636364 -81.434037 
L 630 -83.054672 
L 628.363636 -84.983285 
L 626.727273 -85.956693 
L 625.090909 -85.971917 
L 623.454545 -88.764549 
L 621.818182 -91.977026 
L 620.181818 -90.922937 
L 618.545455 -89.773402 
L 616.909091 -92.677655 
L 615.272727 -91.132346 
L 613.636364 -92.211623 
L 612 -95.411461 
L 610.363636 -95.599473 
L 608.727273 -93.367681 
L 607.090909 -97.719362 
L 605.454545 -96.339289 
L 603.818182 -99.236915 
L 602.181818 -101.134748 
L 600.545455 -99.240796 
L 598.909091 -102.15534 
L 597.272727 -102.944281 
L 595.636364 -103.304504 
L 594 -107.360316 
L 592.363636 -110.557489 
L 590.727273 -111.590886 
L 589.090909 -112.024736 
L 587.454545 -115.86672 
L 585.818182 -116.812945 
L 584.181818 -120.959105 
L 582.545455 -125.495396 
L 580.909091 -123.308903 
L 579.272727 -129.873226 
L 577.636364 -131.426105 
L 576 -133.535919 
L 574.363636 -135.097372 
L 572.727273 -139.280844 
L 571.090909 -141.738321 
L 569.454545 -147.112835 
L 567.818182 -146.124656 
L 566.181818 -148.975677 
L 564.545455 -152.850478 
L 562.909091 -149.917549 
L 561.272727 -149.078056 
L 559.636364 -153.335252 
L 558 -157.436553 
L 556.363636 -157.983755 
L 554.727273 -158.975746 
L 553.090909 -164.049049 
L 551.454545 -160.994553 
L 549.818182 -163.577953 
L 548.181818 -165.397747 
L 546.545455 -165.949878 
L 544.909091 -170.07382 
L 543.272727 -167.417819 
L 541.636364 -171.516225 
L 540 -170.464568 
L 538.363636 -168.348713 
L 536.727273 -169.317248 
L 535.090909 -172.287636 
L 533.454545 -172.035371 
L 531.818182 -167.613754 
L 530.181818 -170.652627 
L 528.545455 -165.466369 
L 526.909091 -170.339489 
L 525.272727 -168.090756 
L 523.636364 -165.29762 
L 522 -168.125748 
L 520.363636 -167.842021 
L 518.727273 -163.264894 
L 517.090909 -164.81257 
L 515.454545 -162.692882 
L 513.818182 -167.718848 
L 512.181818 -160.737503 
L 510.545455 -160.909766 
L 508.909091 -161.766474 
L 507.272727 -158.151217 
L 505.636364 -154.406988 
L 504 -153.630704 
L 502.363636 -152.487142 
L 500.727273 -149.706763 
L 499.090909 -145.823036 
L 497.454545 -152.730194 
L 495.818182 -148.579624 
L 494.181818 -147.763768 
L 492.545455 -143.056706 
L 490.909091 -141.917818 
L 489.272727 -139.608907 
L 487.636364 -137.607082 
L 486 -136.25249 
L 484.363636 -137.761311 
L 482.727273 -133.261303 
L 481.090909 -131.639068 
L 479.454545 -128.393345 
L 477.818182 -126.440679 
L 476.181818 -126.213682 
L 474.545455 -124.545259 
L 472.909091 -120.12651 
L 471.272727 -118.483564 
L 469.636364 -117.404799 
L 468 -114.172279 
L 466.363636 -110.813414 
L 464.727273 -107.45967 
L 463.090909 -104.556556 
L 461.454545 -100.233418 
L 459.818182 -97.148284 
L 458.181818 -96.020109 
L 456.545455 -93.771392 
L 454.909091 -90.671942 
L 453.272727 -89.968317 
L 451.636364 -86.543905 
L 450 -83.282862 
L 448.363636 -81.076426 
L 446.727273 -80.971125 
L 445.090909 -78.359091 
L 443.454545 -78.938866 
L 441.818182 -77.234363 
L 440.181818 -74.833031 
L 438.545455 -76.484156 
L 436.909091 -76.472103 
L 435.272727 -74.610288 
L 433.636364 -74.1507 
L 432 -76.109202 
L 430.363636 -76.475293 
L 428.727273 -78.730924 
L 427.090909 -78.457938 
L 425.454545 -80.879187 
L 423.818182 -83.129672 
L 422.181818 -84.860244 
L 420.545455 -87.114779 
L 418.909091 -90.881989 
L 417.272727 -91.679031 
L 415.636364 -95.738721 
L 414 -97.479857 
L 412.363636 -102.777862 
L 410.727273 -107.113726 
L 409.090909 -108.90297 
L 407.454545 -112.423334 
L 405.818182 -116.706359 
L 404.181818 -122.488346 
L 402.545455 -125.985104 
L 400.909091 -125.129315 
L 399.272727 -130.12429 
L 397.636364 -135.996815 
L 396 -136.426145 
L 394.363636 -138.283675 
L 392.727273 -139.518673 
L 391.090909 -145.506925 
L 389.454545 -146.752063 
L 387.818182 -145.824052 
L 386.181818 -153.167915 
L 384.545455 -155.319362 
L 382.909091 -155.24718 
L 381.272727 -154.370182 
L 379.636364 -157.542735 
L 378 -156.983624 
L 376.363636 -157.462106 
L 374.727273 -158.730402 
L 373.090909 -160.288215 
L 371.454545 -156.143759 
L 369.818182 -158.011827 
L 368.181818 -160.982349 
L 366.545455 -158.143292 
L 364.909091 -151.911218 
L 363.272727 -148.641567 
L 361.636364 -146.25898 
L 360 -142.909178 
L 358.363636 -141.085206 
L 356.727273 -138.21216 
L 355.090909 -137.899204 
L 353.454545 -134.727968 
L 351.818182 -130.272061 
L 350.181818 -127.493235 
L 348.545455 -124.705419 
L 346.909091 -123.398255 
L 345.272727 -122.027019 
L 343.636364 -119.718841 
L 342 -117.478007 
L 340.363636 -115.79274 
L 338.727273 -115.135282 
L 337.090909 -113.371667 
L 335.454545 -111.782212 
L 333.818182 -115.254688 
L 332.181818 -114.926377 
L 330.545455 -112.707871 
L 328.909091 -111.309943 
L 327.272727 -113.684964 
L 325.636364 -112.4669 
L 324 -111.80343 
L 322.363636 -111.79424 
L 320.727273 -111.71979 
L 319.090909 -112.577169 
L 317.454545 -112.543669 
L 315.818182 -110.896557 
L 314.181818 -111.022646 
L 312.545455 -111.782512 
L 310.909091 -115.048078 
L 309.272727 -114.728536 
L 307.636364 -115.617716 
L 306 -115.571779 
L 304.363636 -115.227156 
L 302.727273 -117.834263 
L 301.090909 -119.021926 
L 299.454545 -120.96968 
L 297.818182 -124.564411 
L 296.181818 -125.350315 
L 294.545455 -127.163805 
L 292.909091 -126.510531 
L 291.272727 -128.896488 
L 289.636364 -133.940138 
L 288 -137.642506 
L 286.363636 -140.241821 
L 284.727273 -143.608774 
L 283.090909 -145.534157 
L 281.454545 -149.414509 
L 279.818182 -154.916271 
L 278.181818 -159.47976 
L 276.545455 -165.542213 
L 274.909091 -168.601106 
L 273.272727 -173.298454 
L 271.636364 -178.332039 
L 270 -186.236398 
L 268.363636 -188.913479 
L 266.727273 -195.810523 
L 265.090909 -208.555151 
L 263.454545 -207.354386 
L 261.818182 -206.962259 
L 260.181818 -216.614582 
L 258.545455 -213.085761 
L 256.909091 -217.295265 
L 255.272727 -209.223934 
L 253.636364 -211.097236 
L 252 -208.397689 
L 250.363636 -204.53295 
L 248.727273 -197.75069 
L 247.090909 -195.800759 
L 245.454545 -185.756288 
L 243.818182 -181.618802 
L 242.181818 -170.441661 
L 240.545455 -158.692933 
L 238.909091 -151.745463 
L 237.272727 -144.512514 
L 235.636364 -142.977713 
L 234 -134.638591 
L 232.363636 -129.895719 
L 230.727273 -126.804246 
L 229.090909 -124.418779 
L 227.454545 -122.940188 
L 225.818182 -122.796976 
L 224.181818 -122.550451 
L 222.545455 -122.779589 
L 220.909091 -126.342541 
L 219.272727 -131.892936 
L 217.636364 -136.851524 
L 216 -144.60557 
L 214.363636 -152.179745 
L 212.727273 -163.030876 
L 211.090909 -170.773317 
L 209.454545 -179.86467 
L 207.818182 -190.519311 
L 206.181818 -198.786507 
L 204.545455 -194.932332 
L 202.909091 -197.484272 
L 201.272727 -190.227154 
L 199.636364 -182.082873 
L 198 -176.277306 
L 196.363636 -167.806434 
L 194.727273 -162.824825 
L 193.090909 -151.988632 
L 191.454545 -140.372302 
L 189.818182 -131.8915 
L 188.181818 -123.637504 
L 186.545455 -112.579589 
L 184.909091 -108.367253 
L 183.272727 -99.789704 
L 181.636364 -92.78126 
L 180 -85.967114 
L 178.363636 -81.916613 
L 176.727273 -74.885687 
L 175.090909 -74.677659 
L 173.454545 -70.261383 
L 171.818182 -66.735127 
L 170.181818 -65.580613 
L 168.545455 -63.622167 
L 166.909091 -60.364746 
L 165.272727 -58.733117 
L 163.636364 -57.93028 
L 162 -58.214423 
L 160.363636 -57.629034 
L 158.727273 -57.354545 
L 157.090909 -57.710888 
L 155.454545 -58.847974 
L 153.818182 -59.610525 
L 152.181818 -60.487788 
L 150.545455 -62.52344 
L 148.909091 -63.99358 
L 147.272727 -65.481535 
L 145.636364 -69.17981 
L 144 -69.897335 
L 142.363636 -74.077902 
L 140.727273 -77.882257 
L 139.090909 -80.599521 
L 137.454545 -84.173107 
L 135.818182 -90.029538 
L 134.181818 -94.357508 
L 132.545455 -98.799102 
L 130.909091 -101.998478 
L 129.272727 -106.306702 
L 127.636364 -110.078402 
L 126 -117.411393 
L 124.363636 -119.382219 
L 122.727273 -127.515366 
L 121.090909 -134.999412 
L 119.454545 -141.980916 
L 117.818182 -152.903017 
L 116.181818 -153.692767 
L 114.545455 -164.451321 
L 112.909091 -165.31965 
L 111.272727 -183.765523 
L 109.636364 -185.247279 
L 108 -192.768996 
L 106.363636 -198.292757 
L 104.727273 -198.174871 
L 103.090909 -204.628657 
L 101.454545 -202.120972 
L 99.818182 -207.202167 
L 98.181818 -203.031976 
L 96.545455 -194.456443 
L 94.909091 -189.705933 
L 93.272727 -192.135166 
L 91.636364 -187.961705 
L 90 -176.159018 
z
" id="m513b469a2d" style="stroke:#fdcbb6;stroke-opacity:0.8;"/>
    </defs>
    <g clip-path="url(#p364072134c)">
     <use style="fill:#fdcbb6;fill-opacity:0.8;stroke:#fdcbb6;stroke-opacity:0.8;" x="0" xlink:href="#m513b469a2d" y="360"/>
    </g>
   </g>
   <g id="matplotlib.axis_1">
    <g id="xtick_1">
     <g id="line2d_1">
      <defs>
       <path d="M 0 0 
L 0 3.5 
" id="m6239ff07bd" style="stroke:#000000;stroke-width:0.8;"/>
      </defs>
      <g>
       <use style="stroke:#000000;stroke-width:0.8;" x="90" xlink:href="#m6239ff07bd" y="315"/>
      </g>
     </g>
    </g>
    <g id="xtick_2">
     <g id="line2d_2">
      <g>
       <use style="stroke:#000000;stroke-width:0.8;" x="130.909091" xlink:href="#m6239ff07bd" y="315"/>
      </g>
     </g>
     <g id="text_1">
      <!-- Apr -->
      <g transform="translate(122.259091 329.598437)scale(0.1 -0.1)">
       <defs>
        <path d="M 34.1875 63.1875 
L 20.796875 26.90625 
L 47.609375 26.90625 
z
M 28.609375 72.90625 
L 39.796875 72.90625 
L 67.578125 0 
L 57.328125 0 
L 50.6875 18.703125 
L 17.828125 18.703125 
L 11.1875 0 
L 0.78125 0 
z
" id="DejaVuSans-65"/>
        <path d="M 18.109375 8.203125 
L 18.109375 -20.796875 
L 9.078125 -20.796875 
L 9.078125 54.6875 
L 18.109375 54.6875 
L 18.109375 46.390625 
Q 20.953125 51.265625 25.265625 53.625 
Q 29.59375 56 35.59375 56 
Q 45.5625 56 51.78125 48.09375 
Q 58.015625 40.1875 58.015625 27.296875 
Q 58.015625 14.40625 51.78125 6.484375 
Q 45.5625 -1.421875 35.59375 -1.421875 
Q 29.59375 -1.421875 25.265625 0.953125 
Q 20.953125 3.328125 18.109375 8.203125 
z
M 48.6875 27.296875 
Q 48.6875 37.203125 44.609375 42.84375 
Q 40.53125 48.484375 33.40625 48.484375 
Q 26.265625 48.484375 22.1875 42.84375 
Q 18.109375 37.203125 18.109375 27.296875 
Q 18.109375 17.390625 22.1875 11.75 
Q 26.265625 6.109375 33.40625 6.109375 
Q 40.53125 6.109375 44.609375 11.75 
Q 48.6875 17.390625 48.6875 27.296875 
z
" id="DejaVuSans-112"/>
        <path d="M 41.109375 46.296875 
Q 39.59375 47.171875 37.8125 47.578125 
Q 36.03125 48 33.890625 48 
Q 26.265625 48 22.1875 43.046875 
Q 18.109375 38.09375 18.109375 28.8125 
L 18.109375 0 
L 9.078125 0 
L 9.078125 54.6875 
L 18.109375 54.6875 
L 18.109375 46.1875 
Q 20.953125 51.171875 25.484375 53.578125 
Q 30.03125 56 36.53125 56 
Q 37.453125 56 38.578125 55.875 
Q 39.703125 55.765625 41.0625 55.515625 
z
" id="DejaVuSans-114"/>
       </defs>
       <use xlink:href="#DejaVuSans-65"/>
       <use x="68.408203" xlink:href="#DejaVuSans-112"/>
       <use x="131.884766" xlink:href="#DejaVuSans-114"/>
      </g>
     </g>
    </g>
    <g id="xtick_3">
     <g id="line2d_3">
      <g>
       <use style="stroke:#000000;stroke-width:0.8;" x="180" xlink:href="#m6239ff07bd" y="315"/>
      </g>
     </g>
     <g id="text_2">
      <!-- May -->
      <g transform="translate(169.6625 329.598437)scale(0.1 -0.1)">
       <defs>
        <path d="M 9.8125 72.90625 
L 24.515625 72.90625 
L 43.109375 23.296875 
L 61.8125 72.90625 
L 76.515625 72.90625 
L 76.515625 0 
L 66.890625 0 
L 66.890625 64.015625 
L 48.09375 14.015625 
L 38.1875 14.015625 
L 19.390625 64.015625 
L 19.390625 0 
L 9.8125 0 
z
" id="DejaVuSans-77"/>
        <path d="M 34.28125 27.484375 
Q 23.390625 27.484375 19.1875 25 
Q 14.984375 22.515625 14.984375 16.5 
Q 14.984375 11.71875 18.140625 8.90625 
Q 21.296875 6.109375 26.703125 6.109375 
Q 34.1875 6.109375 38.703125 11.40625 
Q 43.21875 16.703125 43.21875 25.484375 
L 43.21875 27.484375 
z
M 52.203125 31.203125 
L 52.203125 0 
L 43.21875 0 
L 43.21875 8.296875 
Q 40.140625 3.328125 35.546875 0.953125 
Q 30.953125 -1.421875 24.3125 -1.421875 
Q 15.921875 -1.421875 10.953125 3.296875 
Q 6 8.015625 6 15.921875 
Q 6 25.140625 12.171875 29.828125 
Q 18.359375 34.515625 30.609375 34.515625 
L 43.21875 34.515625 
L 43.21875 35.40625 
Q 43.21875 41.609375 39.140625 45 
Q 35.0625 48.390625 27.6875 48.390625 
Q 23 48.390625 18.546875 47.265625 
Q 14.109375 46.140625 10.015625 43.890625 
L 10.015625 52.203125 
Q 14.9375 54.109375 19.578125 55.046875 
Q 24.21875 56 28.609375 56 
Q 40.484375 56 46.34375 49.84375 
Q 52.203125 43.703125 52.203125 31.203125 
z
" id="DejaVuSans-97"/>
        <path d="M 32.171875 -5.078125 
Q 28.375 -14.84375 24.75 -17.8125 
Q 21.140625 -20.796875 15.09375 -20.796875 
L 7.90625 -20.796875 
L 7.90625 -13.28125 
L 13.1875 -13.28125 
Q 16.890625 -13.28125 18.9375 -11.515625 
Q 21 -9.765625 23.484375 -3.21875 
L 25.09375 0.875 
L 2.984375 54.6875 
L 12.5 54.6875 
L 29.59375 11.921875 
L 46.6875 54.6875 
L 56.203125 54.6875 
z
" id="DejaVuSans-121"/>
       </defs>
       <use xlink:href="#DejaVuSans-77"/>
       <use x="86.279297" xlink:href="#DejaVuSans-97"/>
       <use x="147.558594" xlink:href="#DejaVuSans-121"/>
      </g>
     </g>
    </g>
    <g id="xtick_4">
     <g id="line2d_4">
      <g>
       <use style="stroke:#000000;stroke-width:0.8;" x="230.727273" xlink:href="#m6239ff07bd" y="315"/>
      </g>
     </g>
     <g id="text_3">
      <!-- Jun -->
      <g transform="translate(222.914773 329.598437)scale(0.1 -0.1)">
       <defs>
        <path d="M 9.8125 72.90625 
L 19.671875 72.90625 
L 19.671875 5.078125 
Q 19.671875 -8.109375 14.671875 -14.0625 
Q 9.671875 -20.015625 -1.421875 -20.015625 
L -5.171875 -20.015625 
L -5.171875 -11.71875 
L -2.09375 -11.71875 
Q 4.4375 -11.71875 7.125 -8.046875 
Q 9.8125 -4.390625 9.8125 5.078125 
z
" id="DejaVuSans-74"/>
        <path d="M 8.5 21.578125 
L 8.5 54.6875 
L 17.484375 54.6875 
L 17.484375 21.921875 
Q 17.484375 14.15625 20.5 10.265625 
Q 23.53125 6.390625 29.59375 6.390625 
Q 36.859375 6.390625 41.078125 11.03125 
Q 45.3125 15.671875 45.3125 23.6875 
L 45.3125 54.6875 
L 54.296875 54.6875 
L 54.296875 0 
L 45.3125 0 
L 45.3125 8.40625 
Q 42.046875 3.421875 37.71875 1 
Q 33.40625 -1.421875 27.6875 -1.421875 
Q 18.265625 -1.421875 13.375 4.4375 
Q 8.5 10.296875 8.5 21.578125 
z
M 31.109375 56 
z
" id="DejaVuSans-117"/>
        <path d="M 54.890625 33.015625 
L 54.890625 0 
L 45.90625 0 
L 45.90625 32.71875 
Q 45.90625 40.484375 42.875 44.328125 
Q 39.84375 48.1875 33.796875 48.1875 
Q 26.515625 48.1875 22.3125 43.546875 
Q 18.109375 38.921875 18.109375 30.90625 
L 18.109375 0 
L 9.078125 0 
L 9.078125 54.6875 
L 18.109375 54.6875 
L 18.109375 46.1875 
Q 21.34375 51.125 25.703125 53.5625 
Q 30.078125 56 35.796875 56 
Q 45.21875 56 50.046875 50.171875 
Q 54.890625 44.34375 54.890625 33.015625 
z
" id="DejaVuSans-110"/>
       </defs>
       <use xlink:href="#DejaVuSans-74"/>
       <use x="29.492188" xlink:href="#DejaVuSans-117"/>
       <use x="92.871094" xlink:href="#DejaVuSans-110"/>
      </g>
     </g>
    </g>
    <g id="xtick_5">
     <g id="line2d_5">
      <g>
       <use style="stroke:#000000;stroke-width:0.8;" x="279.818182" xlink:href="#m6239ff07bd" y="315"/>
      </g>
     </g>
     <g id="text_4">
      <!-- Jul -->
      <g transform="translate(273.785369 329.598437)scale(0.1 -0.1)">
       <defs>
        <path d="M 9.421875 75.984375 
L 18.40625 75.984375 
L 18.40625 0 
L 9.421875 0 
z
" id="DejaVuSans-108"/>
       </defs>
       <use xlink:href="#DejaVuSans-74"/>
       <use x="29.492188" xlink:href="#DejaVuSans-117"/>
       <use x="92.871094" xlink:href="#DejaVuSans-108"/>
      </g>
     </g>
    </g>
    <g id="xtick_6">
     <g id="line2d_6">
      <g>
       <use style="stroke:#000000;stroke-width:0.8;" x="330.545455" xlink:href="#m6239ff07bd" y="315"/>
      </g>
     </g>
     <g id="text_5">
      <!-- Aug -->
      <g transform="translate(320.782173 329.598437)scale(0.1 -0.1)">
       <defs>
        <path d="M 45.40625 27.984375 
Q 45.40625 37.75 41.375 43.109375 
Q 37.359375 48.484375 30.078125 48.484375 
Q 22.859375 48.484375 18.828125 43.109375 
Q 14.796875 37.75 14.796875 27.984375 
Q 14.796875 18.265625 18.828125 12.890625 
Q 22.859375 7.515625 30.078125 7.515625 
Q 37.359375 7.515625 41.375 12.890625 
Q 45.40625 18.265625 45.40625 27.984375 
z
M 54.390625 6.78125 
Q 54.390625 -7.171875 48.1875 -13.984375 
Q 42 -20.796875 29.203125 -20.796875 
Q 24.46875 -20.796875 20.265625 -20.09375 
Q 16.0625 -19.390625 12.109375 -17.921875 
L 12.109375 -9.1875 
Q 16.0625 -11.328125 19.921875 -12.34375 
Q 23.78125 -13.375 27.78125 -13.375 
Q 36.625 -13.375 41.015625 -8.765625 
Q 45.40625 -4.15625 45.40625 5.171875 
L 45.40625 9.625 
Q 42.625 4.78125 38.28125 2.390625 
Q 33.9375 0 27.875 0 
Q 17.828125 0 11.671875 7.65625 
Q 5.515625 15.328125 5.515625 27.984375 
Q 5.515625 40.671875 11.671875 48.328125 
Q 17.828125 56 27.875 56 
Q 33.9375 56 38.28125 53.609375 
Q 42.625 51.21875 45.40625 46.390625 
L 45.40625 54.6875 
L 54.390625 54.6875 
z
" id="DejaVuSans-103"/>
       </defs>
       <use xlink:href="#DejaVuSans-65"/>
       <use x="68.408203" xlink:href="#DejaVuSans-117"/>
       <use x="131.787109" xlink:href="#DejaVuSans-103"/>
      </g>
     </g>
    </g>
    <g id="xtick_7">
     <g id="line2d_7">
      <g>
       <use style="stroke:#000000;stroke-width:0.8;" x="381.272727" xlink:href="#m6239ff07bd" y="315"/>
      </g>
     </g>
     <g id="text_6">
      <!-- Sep -->
      <g transform="translate(371.847727 329.598437)scale(0.1 -0.1)">
       <defs>
        <path d="M 53.515625 70.515625 
L 53.515625 60.890625 
Q 47.90625 63.578125 42.921875 64.890625 
Q 37.9375 66.21875 33.296875 66.21875 
Q 25.25 66.21875 20.875 63.09375 
Q 16.5 59.96875 16.5 54.203125 
Q 16.5 49.359375 19.40625 46.890625 
Q 22.3125 44.4375 30.421875 42.921875 
L 36.375 41.703125 
Q 47.40625 39.59375 52.65625 34.296875 
Q 57.90625 29 57.90625 20.125 
Q 57.90625 9.515625 50.796875 4.046875 
Q 43.703125 -1.421875 29.984375 -1.421875 
Q 24.8125 -1.421875 18.96875 -0.25 
Q 13.140625 0.921875 6.890625 3.21875 
L 6.890625 13.375 
Q 12.890625 10.015625 18.65625 8.296875 
Q 24.421875 6.59375 29.984375 6.59375 
Q 38.421875 6.59375 43.015625 9.90625 
Q 47.609375 13.234375 47.609375 19.390625 
Q 47.609375 24.75 44.3125 27.78125 
Q 41.015625 30.8125 33.5 32.328125 
L 27.484375 33.5 
Q 16.453125 35.6875 11.515625 40.375 
Q 6.59375 45.0625 6.59375 53.421875 
Q 6.59375 63.09375 13.40625 68.65625 
Q 20.21875 74.21875 32.171875 74.21875 
Q 37.3125 74.21875 42.625 73.28125 
Q 47.953125 72.359375 53.515625 70.515625 
z
" id="DejaVuSans-83"/>
        <path d="M 56.203125 29.59375 
L 56.203125 25.203125 
L 14.890625 25.203125 
Q 15.484375 15.921875 20.484375 11.0625 
Q 25.484375 6.203125 34.421875 6.203125 
Q 39.59375 6.203125 44.453125 7.46875 
Q 49.3125 8.734375 54.109375 11.28125 
L 54.109375 2.78125 
Q 49.265625 0.734375 44.1875 -0.34375 
Q 39.109375 -1.421875 33.890625 -1.421875 
Q 20.796875 -1.421875 13.15625 6.1875 
Q 5.515625 13.8125 5.515625 26.8125 
Q 5.515625 40.234375 12.765625 48.109375 
Q 20.015625 56 32.328125 56 
Q 43.359375 56 49.78125 48.890625 
Q 56.203125 41.796875 56.203125 29.59375 
z
M 47.21875 32.234375 
Q 47.125 39.59375 43.09375 43.984375 
Q 39.0625 48.390625 32.421875 48.390625 
Q 24.90625 48.390625 20.390625 44.140625 
Q 15.875 39.890625 15.1875 32.171875 
z
" id="DejaVuSans-101"/>
       </defs>
       <use xlink:href="#DejaVuSans-83"/>
       <use x="63.476562" xlink:href="#DejaVuSans-101"/>
       <use x="125" xlink:href="#DejaVuSans-112"/>
      </g>
     </g>
    </g>
    <g id="xtick_8">
     <g id="line2d_8">
      <g>
       <use style="stroke:#000000;stroke-width:0.8;" x="430.363636" xlink:href="#m6239ff07bd" y="315"/>
      </g>
     </g>
     <g id="text_7">
      <!-- Oct -->
      <g transform="translate(421.718324 329.598437)scale(0.1 -0.1)">
       <defs>
        <path d="M 39.40625 66.21875 
Q 28.65625 66.21875 22.328125 58.203125 
Q 16.015625 50.203125 16.015625 36.375 
Q 16.015625 22.609375 22.328125 14.59375 
Q 28.65625 6.59375 39.40625 6.59375 
Q 50.140625 6.59375 56.421875 14.59375 
Q 62.703125 22.609375 62.703125 36.375 
Q 62.703125 50.203125 56.421875 58.203125 
Q 50.140625 66.21875 39.40625 66.21875 
z
M 39.40625 74.21875 
Q 54.734375 74.21875 63.90625 63.9375 
Q 73.09375 53.65625 73.09375 36.375 
Q 73.09375 19.140625 63.90625 8.859375 
Q 54.734375 -1.421875 39.40625 -1.421875 
Q 24.03125 -1.421875 14.8125 8.828125 
Q 5.609375 19.09375 5.609375 36.375 
Q 5.609375 53.65625 14.8125 63.9375 
Q 24.03125 74.21875 39.40625 74.21875 
z
" id="DejaVuSans-79"/>
        <path d="M 48.78125 52.59375 
L 48.78125 44.1875 
Q 44.96875 46.296875 41.140625 47.34375 
Q 37.3125 48.390625 33.40625 48.390625 
Q 24.65625 48.390625 19.8125 42.84375 
Q 14.984375 37.3125 14.984375 27.296875 
Q 14.984375 17.28125 19.8125 11.734375 
Q 24.65625 6.203125 33.40625 6.203125 
Q 37.3125 6.203125 41.140625 7.25 
Q 44.96875 8.296875 48.78125 10.40625 
L 48.78125 2.09375 
Q 45.015625 0.34375 40.984375 -0.53125 
Q 36.96875 -1.421875 32.421875 -1.421875 
Q 20.0625 -1.421875 12.78125 6.34375 
Q 5.515625 14.109375 5.515625 27.296875 
Q 5.515625 40.671875 12.859375 48.328125 
Q 20.21875 56 33.015625 56 
Q 37.15625 56 41.109375 55.140625 
Q 45.0625 54.296875 48.78125 52.59375 
z
" id="DejaVuSans-99"/>
        <path d="M 18.3125 70.21875 
L 18.3125 54.6875 
L 36.8125 54.6875 
L 36.8125 47.703125 
L 18.3125 47.703125 
L 18.3125 18.015625 
Q 18.3125 11.328125 20.140625 9.421875 
Q 21.96875 7.515625 27.59375 7.515625 
L 36.8125 7.515625 
L 36.8125 0 
L 27.59375 0 
Q 17.1875 0 13.234375 3.875 
Q 9.28125 7.765625 9.28125 18.015625 
L 9.28125 47.703125 
L 2.6875 47.703125 
L 2.6875 54.6875 
L 9.28125 54.6875 
L 9.28125 70.21875 
z
" id="DejaVuSans-116"/>
       </defs>
       <use xlink:href="#DejaVuSans-79"/>
       <use x="78.710938" xlink:href="#DejaVuSans-99"/>
       <use x="133.691406" xlink:href="#DejaVuSans-116"/>
      </g>
     </g>
    </g>
    <g id="xtick_9">
     <g id="line2d_9">
      <g>
       <use style="stroke:#000000;stroke-width:0.8;" x="481.090909" xlink:href="#m6239ff07bd" y="315"/>
      </g>
     </g>
     <g id="text_8">
      <!-- Nov -->
      <g transform="translate(471.331534 329.598437)scale(0.1 -0.1)">
       <defs>
        <path d="M 9.8125 72.90625 
L 23.09375 72.90625 
L 55.421875 11.921875 
L 55.421875 72.90625 
L 64.984375 72.90625 
L 64.984375 0 
L 51.703125 0 
L 19.390625 60.984375 
L 19.390625 0 
L 9.8125 0 
z
" id="DejaVuSans-78"/>
        <path d="M 30.609375 48.390625 
Q 23.390625 48.390625 19.1875 42.75 
Q 14.984375 37.109375 14.984375 27.296875 
Q 14.984375 17.484375 19.15625 11.84375 
Q 23.34375 6.203125 30.609375 6.203125 
Q 37.796875 6.203125 41.984375 11.859375 
Q 46.1875 17.53125 46.1875 27.296875 
Q 46.1875 37.015625 41.984375 42.703125 
Q 37.796875 48.390625 30.609375 48.390625 
z
M 30.609375 56 
Q 42.328125 56 49.015625 48.375 
Q 55.71875 40.765625 55.71875 27.296875 
Q 55.71875 13.875 49.015625 6.21875 
Q 42.328125 -1.421875 30.609375 -1.421875 
Q 18.84375 -1.421875 12.171875 6.21875 
Q 5.515625 13.875 5.515625 27.296875 
Q 5.515625 40.765625 12.171875 48.375 
Q 18.84375 56 30.609375 56 
z
" id="DejaVuSans-111"/>
        <path d="M 2.984375 54.6875 
L 12.5 54.6875 
L 29.59375 8.796875 
L 46.6875 54.6875 
L 56.203125 54.6875 
L 35.6875 0 
L 23.484375 0 
z
" id="DejaVuSans-118"/>
       </defs>
       <use xlink:href="#DejaVuSans-78"/>
       <use x="74.804688" xlink:href="#DejaVuSans-111"/>
       <use x="135.986328" xlink:href="#DejaVuSans-118"/>
      </g>
     </g>
    </g>
    <g id="xtick_10">
     <g id="line2d_10">
      <g>
       <use style="stroke:#000000;stroke-width:0.8;" x="530.181818" xlink:href="#m6239ff07bd" y="315"/>
      </g>
     </g>
     <g id="text_9">
      <!-- Dec -->
      <g transform="translate(520.506037 329.598437)scale(0.1 -0.1)">
       <defs>
        <path d="M 19.671875 64.796875 
L 19.671875 8.109375 
L 31.59375 8.109375 
Q 46.6875 8.109375 53.6875 14.9375 
Q 60.6875 21.78125 60.6875 36.53125 
Q 60.6875 51.171875 53.6875 57.984375 
Q 46.6875 64.796875 31.59375 64.796875 
z
M 9.8125 72.90625 
L 30.078125 72.90625 
Q 51.265625 72.90625 61.171875 64.09375 
Q 71.09375 55.28125 71.09375 36.53125 
Q 71.09375 17.671875 61.125 8.828125 
Q 51.171875 0 30.078125 0 
L 9.8125 0 
z
" id="DejaVuSans-68"/>
       </defs>
       <use xlink:href="#DejaVuSans-68"/>
       <use x="77.001953" xlink:href="#DejaVuSans-101"/>
       <use x="138.525391" xlink:href="#DejaVuSans-99"/>
      </g>
     </g>
    </g>
    <g id="xtick_11">
     <g id="line2d_11">
      <g>
       <use style="stroke:#000000;stroke-width:0.8;" x="580.909091" xlink:href="#m6239ff07bd" y="315"/>
      </g>
     </g>
     <g id="text_10">
      <!-- Jan -->
      <g transform="translate(573.201278 329.598437)scale(0.1 -0.1)">
       <use xlink:href="#DejaVuSans-74"/>
       <use x="29.492188" xlink:href="#DejaVuSans-97"/>
       <use x="90.771484" xlink:href="#DejaVuSans-110"/>
      </g>
      <!-- 2021 -->
      <g transform="translate(568.184091 340.79625)scale(0.1 -0.1)">
       <defs>
        <path d="M 19.1875 8.296875 
L 53.609375 8.296875 
L 53.609375 0 
L 7.328125 0 
L 7.328125 8.296875 
Q 12.9375 14.109375 22.625 23.890625 
Q 32.328125 33.6875 34.8125 36.53125 
Q 39.546875 41.84375 41.421875 45.53125 
Q 43.3125 49.21875 43.3125 52.78125 
Q 43.3125 58.59375 39.234375 62.25 
Q 35.15625 65.921875 28.609375 65.921875 
Q 23.96875 65.921875 18.8125 64.3125 
Q 13.671875 62.703125 7.8125 59.421875 
L 7.8125 69.390625 
Q 13.765625 71.78125 18.9375 73 
Q 24.125 74.21875 28.421875 74.21875 
Q 39.75 74.21875 46.484375 68.546875 
Q 53.21875 62.890625 53.21875 53.421875 
Q 53.21875 48.921875 51.53125 44.890625 
Q 49.859375 40.875 45.40625 35.40625 
Q 44.1875 33.984375 37.640625 27.21875 
Q 31.109375 20.453125 19.1875 8.296875 
z
" id="DejaVuSans-50"/>
        <path d="M 31.78125 66.40625 
Q 24.171875 66.40625 20.328125 58.90625 
Q 16.5 51.421875 16.5 36.375 
Q 16.5 21.390625 20.328125 13.890625 
Q 24.171875 6.390625 31.78125 6.390625 
Q 39.453125 6.390625 43.28125 13.890625 
Q 47.125 21.390625 47.125 36.375 
Q 47.125 51.421875 43.28125 58.90625 
Q 39.453125 66.40625 31.78125 66.40625 
z
M 31.78125 74.21875 
Q 44.046875 74.21875 50.515625 64.515625 
Q 56.984375 54.828125 56.984375 36.375 
Q 56.984375 17.96875 50.515625 8.265625 
Q 44.046875 -1.421875 31.78125 -1.421875 
Q 19.53125 -1.421875 13.0625 8.265625 
Q 6.59375 17.96875 6.59375 36.375 
Q 6.59375 54.828125 13.0625 64.515625 
Q 19.53125 74.21875 31.78125 74.21875 
z
" id="DejaVuSans-48"/>
        <path d="M 12.40625 8.296875 
L 28.515625 8.296875 
L 28.515625 63.921875 
L 10.984375 60.40625 
L 10.984375 69.390625 
L 28.421875 72.90625 
L 38.28125 72.90625 
L 38.28125 8.296875 
L 54.390625 8.296875 
L 54.390625 0 
L 12.40625 0 
z
" id="DejaVuSans-49"/>
       </defs>
       <use xlink:href="#DejaVuSans-50"/>
       <use x="63.623047" xlink:href="#DejaVuSans-48"/>
       <use x="127.246094" xlink:href="#DejaVuSans-50"/>
       <use x="190.869141" xlink:href="#DejaVuSans-49"/>
      </g>
     </g>
    </g>
    <g id="xtick_12">
     <g id="line2d_12">
      <g>
       <use style="stroke:#000000;stroke-width:0.8;" x="631.636364" xlink:href="#m6239ff07bd" y="315"/>
      </g>
     </g>
     <g id="text_11">
      <!-- Feb -->
      <g transform="translate(622.784801 329.598437)scale(0.1 -0.1)">
       <defs>
        <path d="M 9.8125 72.90625 
L 51.703125 72.90625 
L 51.703125 64.59375 
L 19.671875 64.59375 
L 19.671875 43.109375 
L 48.578125 43.109375 
L 48.578125 34.8125 
L 19.671875 34.8125 
L 19.671875 0 
L 9.8125 0 
z
" id="DejaVuSans-70"/>
        <path d="M 48.6875 27.296875 
Q 48.6875 37.203125 44.609375 42.84375 
Q 40.53125 48.484375 33.40625 48.484375 
Q 26.265625 48.484375 22.1875 42.84375 
Q 18.109375 37.203125 18.109375 27.296875 
Q 18.109375 17.390625 22.1875 11.75 
Q 26.265625 6.109375 33.40625 6.109375 
Q 40.53125 6.109375 44.609375 11.75 
Q 48.6875 17.390625 48.6875 27.296875 
z
M 18.109375 46.390625 
Q 20.953125 51.265625 25.265625 53.625 
Q 29.59375 56 35.59375 56 
Q 45.5625 56 51.78125 48.09375 
Q 58.015625 40.1875 58.015625 27.296875 
Q 58.015625 14.40625 51.78125 6.484375 
Q 45.5625 -1.421875 35.59375 -1.421875 
Q 29.59375 -1.421875 25.265625 0.953125 
Q 20.953125 3.328125 18.109375 8.203125 
L 18.109375 0 
L 9.078125 0 
L 9.078125 75.984375 
L 18.109375 75.984375 
z
" id="DejaVuSans-98"/>
       </defs>
       <use xlink:href="#DejaVuSans-70"/>
       <use x="52.019531" xlink:href="#DejaVuSans-101"/>
       <use x="113.542969" xlink:href="#DejaVuSans-98"/>
      </g>
     </g>
    </g>
    <g id="xtick_13">
     <g id="line2d_13">
      <g>
       <use style="stroke:#000000;stroke-width:0.8;" x="648" xlink:href="#m6239ff07bd" y="315"/>
      </g>
     </g>
    </g>
    <g id="xtick_14">
     <g id="line2d_14">
      <defs>
       <path d="M 0 0 
L 0 2 
" id="m70f1cb6108" style="stroke:#000000;stroke-width:0.6;"/>
      </defs>
      <g>
       <use style="stroke:#000000;stroke-width:0.6;" x="93.272727" xlink:href="#m70f1cb6108" y="315"/>
      </g>
     </g>
    </g>
    <g id="xtick_15">
     <g id="line2d_15">
      <g>
       <use style="stroke:#000000;stroke-width:0.6;" x="104.727273" xlink:href="#m70f1cb6108" y="315"/>
      </g>
     </g>
    </g>
    <g id="xtick_16">
     <g id="line2d_16">
      <g>
       <use style="stroke:#000000;stroke-width:0.6;" x="116.181818" xlink:href="#m70f1cb6108" y="315"/>
      </g>
     </g>
    </g>
    <g id="xtick_17">
     <g id="line2d_17">
      <g>
       <use style="stroke:#000000;stroke-width:0.6;" x="127.636364" xlink:href="#m70f1cb6108" y="315"/>
      </g>
     </g>
    </g>
    <g id="xtick_18">
     <g id="line2d_18">
      <g>
       <use style="stroke:#000000;stroke-width:0.6;" x="139.090909" xlink:href="#m70f1cb6108" y="315"/>
      </g>
     </g>
    </g>
    <g id="xtick_19">
     <g id="line2d_19">
      <g>
       <use style="stroke:#000000;stroke-width:0.6;" x="150.545455" xlink:href="#m70f1cb6108" y="315"/>
      </g>
     </g>
    </g>
    <g id="xtick_20">
     <g id="line2d_20">
      <g>
       <use style="stroke:#000000;stroke-width:0.6;" x="162" xlink:href="#m70f1cb6108" y="315"/>
      </g>
     </g>
    </g>
    <g id="xtick_21">
     <g id="line2d_21">
      <g>
       <use style="stroke:#000000;stroke-width:0.6;" x="173.454545" xlink:href="#m70f1cb6108" y="315"/>
      </g>
     </g>
    </g>
    <g id="xtick_22">
     <g id="line2d_22">
      <g>
       <use style="stroke:#000000;stroke-width:0.6;" x="184.909091" xlink:href="#m70f1cb6108" y="315"/>
      </g>
     </g>
    </g>
    <g id="xtick_23">
     <g id="line2d_23">
      <g>
       <use style="stroke:#000000;stroke-width:0.6;" x="196.363636" xlink:href="#m70f1cb6108" y="315"/>
      </g>
     </g>
    </g>
    <g id="xtick_24">
     <g id="line2d_24">
      <g>
       <use style="stroke:#000000;stroke-width:0.6;" x="207.818182" xlink:href="#m70f1cb6108" y="315"/>
      </g>
     </g>
    </g>
    <g id="xtick_25">
     <g id="line2d_25">
      <g>
       <use style="stroke:#000000;stroke-width:0.6;" x="219.272727" xlink:href="#m70f1cb6108" y="315"/>
      </g>
     </g>
    </g>
    <g id="xtick_26">
     <g id="line2d_26">
      <g>
       <use style="stroke:#000000;stroke-width:0.6;" x="242.181818" xlink:href="#m70f1cb6108" y="315"/>
      </g>
     </g>
    </g>
    <g id="xtick_27">
     <g id="line2d_27">
      <g>
       <use style="stroke:#000000;stroke-width:0.6;" x="253.636364" xlink:href="#m70f1cb6108" y="315"/>
      </g>
     </g>
    </g>
    <g id="xtick_28">
     <g id="line2d_28">
      <g>
       <use style="stroke:#000000;stroke-width:0.6;" x="265.090909" xlink:href="#m70f1cb6108" y="315"/>
      </g>
     </g>
    </g>
    <g id="xtick_29">
     <g id="line2d_29">
      <g>
       <use style="stroke:#000000;stroke-width:0.6;" x="276.545455" xlink:href="#m70f1cb6108" y="315"/>
      </g>
     </g>
    </g>
    <g id="xtick_30">
     <g id="line2d_30">
      <g>
       <use style="stroke:#000000;stroke-width:0.6;" x="288" xlink:href="#m70f1cb6108" y="315"/>
      </g>
     </g>
    </g>
    <g id="xtick_31">
     <g id="line2d_31">
      <g>
       <use style="stroke:#000000;stroke-width:0.6;" x="299.454545" xlink:href="#m70f1cb6108" y="315"/>
      </g>
     </g>
    </g>
    <g id="xtick_32">
     <g id="line2d_32">
      <g>
       <use style="stroke:#000000;stroke-width:0.6;" x="310.909091" xlink:href="#m70f1cb6108" y="315"/>
      </g>
     </g>
    </g>
    <g id="xtick_33">
     <g id="line2d_33">
      <g>
       <use style="stroke:#000000;stroke-width:0.6;" x="322.363636" xlink:href="#m70f1cb6108" y="315"/>
      </g>
     </g>
    </g>
    <g id="xtick_34">
     <g id="line2d_34">
      <g>
       <use style="stroke:#000000;stroke-width:0.6;" x="333.818182" xlink:href="#m70f1cb6108" y="315"/>
      </g>
     </g>
    </g>
    <g id="xtick_35">
     <g id="line2d_35">
      <g>
       <use style="stroke:#000000;stroke-width:0.6;" x="345.272727" xlink:href="#m70f1cb6108" y="315"/>
      </g>
     </g>
    </g>
    <g id="xtick_36">
     <g id="line2d_36">
      <g>
       <use style="stroke:#000000;stroke-width:0.6;" x="356.727273" xlink:href="#m70f1cb6108" y="315"/>
      </g>
     </g>
    </g>
    <g id="xtick_37">
     <g id="line2d_37">
      <g>
       <use style="stroke:#000000;stroke-width:0.6;" x="368.181818" xlink:href="#m70f1cb6108" y="315"/>
      </g>
     </g>
    </g>
    <g id="xtick_38">
     <g id="line2d_38">
      <g>
       <use style="stroke:#000000;stroke-width:0.6;" x="379.636364" xlink:href="#m70f1cb6108" y="315"/>
      </g>
     </g>
    </g>
    <g id="xtick_39">
     <g id="line2d_39">
      <g>
       <use style="stroke:#000000;stroke-width:0.6;" x="391.090909" xlink:href="#m70f1cb6108" y="315"/>
      </g>
     </g>
    </g>
    <g id="xtick_40">
     <g id="line2d_40">
      <g>
       <use style="stroke:#000000;stroke-width:0.6;" x="402.545455" xlink:href="#m70f1cb6108" y="315"/>
      </g>
     </g>
    </g>
    <g id="xtick_41">
     <g id="line2d_41">
      <g>
       <use style="stroke:#000000;stroke-width:0.6;" x="414" xlink:href="#m70f1cb6108" y="315"/>
      </g>
     </g>
    </g>
    <g id="xtick_42">
     <g id="line2d_42">
      <g>
       <use style="stroke:#000000;stroke-width:0.6;" x="425.454545" xlink:href="#m70f1cb6108" y="315"/>
      </g>
     </g>
    </g>
    <g id="xtick_43">
     <g id="line2d_43">
      <g>
       <use style="stroke:#000000;stroke-width:0.6;" x="436.909091" xlink:href="#m70f1cb6108" y="315"/>
      </g>
     </g>
    </g>
    <g id="xtick_44">
     <g id="line2d_44">
      <g>
       <use style="stroke:#000000;stroke-width:0.6;" x="448.363636" xlink:href="#m70f1cb6108" y="315"/>
      </g>
     </g>
    </g>
    <g id="xtick_45">
     <g id="line2d_45">
      <g>
       <use style="stroke:#000000;stroke-width:0.6;" x="459.818182" xlink:href="#m70f1cb6108" y="315"/>
      </g>
     </g>
    </g>
    <g id="xtick_46">
     <g id="line2d_46">
      <g>
       <use style="stroke:#000000;stroke-width:0.6;" x="471.272727" xlink:href="#m70f1cb6108" y="315"/>
      </g>
     </g>
    </g>
    <g id="xtick_47">
     <g id="line2d_47">
      <g>
       <use style="stroke:#000000;stroke-width:0.6;" x="482.727273" xlink:href="#m70f1cb6108" y="315"/>
      </g>
     </g>
    </g>
    <g id="xtick_48">
     <g id="line2d_48">
      <g>
       <use style="stroke:#000000;stroke-width:0.6;" x="494.181818" xlink:href="#m70f1cb6108" y="315"/>
      </g>
     </g>
    </g>
    <g id="xtick_49">
     <g id="line2d_49">
      <g>
       <use style="stroke:#000000;stroke-width:0.6;" x="505.636364" xlink:href="#m70f1cb6108" y="315"/>
      </g>
     </g>
    </g>
    <g id="xtick_50">
     <g id="line2d_50">
      <g>
       <use style="stroke:#000000;stroke-width:0.6;" x="517.090909" xlink:href="#m70f1cb6108" y="315"/>
      </g>
     </g>
    </g>
    <g id="xtick_51">
     <g id="line2d_51">
      <g>
       <use style="stroke:#000000;stroke-width:0.6;" x="528.545455" xlink:href="#m70f1cb6108" y="315"/>
      </g>
     </g>
    </g>
    <g id="xtick_52">
     <g id="line2d_52">
      <g>
       <use style="stroke:#000000;stroke-width:0.6;" x="540" xlink:href="#m70f1cb6108" y="315"/>
      </g>
     </g>
    </g>
    <g id="xtick_53">
     <g id="line2d_53">
      <g>
       <use style="stroke:#000000;stroke-width:0.6;" x="551.454545" xlink:href="#m70f1cb6108" y="315"/>
      </g>
     </g>
    </g>
    <g id="xtick_54">
     <g id="line2d_54">
      <g>
       <use style="stroke:#000000;stroke-width:0.6;" x="562.909091" xlink:href="#m70f1cb6108" y="315"/>
      </g>
     </g>
    </g>
    <g id="xtick_55">
     <g id="line2d_55">
      <g>
       <use style="stroke:#000000;stroke-width:0.6;" x="574.363636" xlink:href="#m70f1cb6108" y="315"/>
      </g>
     </g>
    </g>
    <g id="xtick_56">
     <g id="line2d_56">
      <g>
       <use style="stroke:#000000;stroke-width:0.6;" x="585.818182" xlink:href="#m70f1cb6108" y="315"/>
      </g>
     </g>
    </g>
    <g id="xtick_57">
     <g id="line2d_57">
      <g>
       <use style="stroke:#000000;stroke-width:0.6;" x="597.272727" xlink:href="#m70f1cb6108" y="315"/>
      </g>
     </g>
    </g>
    <g id="xtick_58">
     <g id="line2d_58">
      <g>
       <use style="stroke:#000000;stroke-width:0.6;" x="608.727273" xlink:href="#m70f1cb6108" y="315"/>
      </g>
     </g>
    </g>
    <g id="xtick_59">
     <g id="line2d_59">
      <g>
       <use style="stroke:#000000;stroke-width:0.6;" x="620.181818" xlink:href="#m70f1cb6108" y="315"/>
      </g>
     </g>
    </g>
    <g id="xtick_60">
     <g id="line2d_60">
      <g>
       <use style="stroke:#000000;stroke-width:0.6;" x="643.090909" xlink:href="#m70f1cb6108" y="315"/>
      </g>
     </g>
    </g>
    <g id="text_12">
     <!-- date -->
     <g transform="translate(357.725 354.474375)scale(0.1 -0.1)">
      <defs>
       <path d="M 45.40625 46.390625 
L 45.40625 75.984375 
L 54.390625 75.984375 
L 54.390625 0 
L 45.40625 0 
L 45.40625 8.203125 
Q 42.578125 3.328125 38.25 0.953125 
Q 33.9375 -1.421875 27.875 -1.421875 
Q 17.96875 -1.421875 11.734375 6.484375 
Q 5.515625 14.40625 5.515625 27.296875 
Q 5.515625 40.1875 11.734375 48.09375 
Q 17.96875 56 27.875 56 
Q 33.9375 56 38.25 53.625 
Q 42.578125 51.265625 45.40625 46.390625 
z
M 14.796875 27.296875 
Q 14.796875 17.390625 18.875 11.75 
Q 22.953125 6.109375 30.078125 6.109375 
Q 37.203125 6.109375 41.296875 11.75 
Q 45.40625 17.390625 45.40625 27.296875 
Q 45.40625 37.203125 41.296875 42.84375 
Q 37.203125 48.484375 30.078125 48.484375 
Q 22.953125 48.484375 18.875 42.84375 
Q 14.796875 37.203125 14.796875 27.296875 
z
" id="DejaVuSans-100"/>
      </defs>
      <use xlink:href="#DejaVuSans-100"/>
      <use x="63.476562" xlink:href="#DejaVuSans-97"/>
      <use x="124.755859" xlink:href="#DejaVuSans-116"/>
      <use x="163.964844" xlink:href="#DejaVuSans-101"/>
     </g>
    </g>
   </g>
   <g id="matplotlib.axis_2">
    <g id="ytick_1">
     <g id="line2d_61">
      <path clip-path="url(#p364072134c)" d="M 90 288.841867 
L 648 288.841867 
" style="fill:none;stroke:#b0b0b0;stroke-dasharray:0.8,1.32;stroke-dashoffset:0;stroke-width:0.8;"/>
     </g>
     <g id="line2d_62">
      <defs>
       <path d="M 0 0 
L -3.5 0 
" id="m9089fee291" style="stroke:#000000;stroke-width:0.8;"/>
      </defs>
      <g>
       <use style="stroke:#000000;stroke-width:0.8;" x="90" xlink:href="#m9089fee291" y="288.841867"/>
      </g>
     </g>
     <g id="text_13">
      <!-- 0.50 -->
      <g transform="translate(60.734375 292.641086)scale(0.1 -0.1)">
       <defs>
        <path d="M 10.6875 12.40625 
L 21 12.40625 
L 21 0 
L 10.6875 0 
z
" id="DejaVuSans-46"/>
        <path d="M 10.796875 72.90625 
L 49.515625 72.90625 
L 49.515625 64.59375 
L 19.828125 64.59375 
L 19.828125 46.734375 
Q 21.96875 47.46875 24.109375 47.828125 
Q 26.265625 48.1875 28.421875 48.1875 
Q 40.625 48.1875 47.75 41.5 
Q 54.890625 34.8125 54.890625 23.390625 
Q 54.890625 11.625 47.5625 5.09375 
Q 40.234375 -1.421875 26.90625 -1.421875 
Q 22.3125 -1.421875 17.546875 -0.640625 
Q 12.796875 0.140625 7.71875 1.703125 
L 7.71875 11.625 
Q 12.109375 9.234375 16.796875 8.0625 
Q 21.484375 6.890625 26.703125 6.890625 
Q 35.15625 6.890625 40.078125 11.328125 
Q 45.015625 15.765625 45.015625 23.390625 
Q 45.015625 31 40.078125 35.4375 
Q 35.15625 39.890625 26.703125 39.890625 
Q 22.75 39.890625 18.8125 39.015625 
Q 14.890625 38.140625 10.796875 36.28125 
z
" id="DejaVuSans-53"/>
       </defs>
       <use xlink:href="#DejaVuSans-48"/>
       <use x="63.623047" xlink:href="#DejaVuSans-46"/>
       <use x="95.410156" xlink:href="#DejaVuSans-53"/>
       <use x="159.033203" xlink:href="#DejaVuSans-48"/>
      </g>
     </g>
    </g>
    <g id="ytick_2">
     <g id="line2d_63">
      <path clip-path="url(#p364072134c)" d="M 90 254.643741 
L 648 254.643741 
" style="fill:none;stroke:#b0b0b0;stroke-dasharray:0.8,1.32;stroke-dashoffset:0;stroke-width:0.8;"/>
     </g>
     <g id="line2d_64">
      <g>
       <use style="stroke:#000000;stroke-width:0.8;" x="90" xlink:href="#m9089fee291" y="254.643741"/>
      </g>
     </g>
     <g id="text_14">
      <!-- 0.75 -->
      <g transform="translate(60.734375 258.44296)scale(0.1 -0.1)">
       <defs>
        <path d="M 8.203125 72.90625 
L 55.078125 72.90625 
L 55.078125 68.703125 
L 28.609375 0 
L 18.3125 0 
L 43.21875 64.59375 
L 8.203125 64.59375 
z
" id="DejaVuSans-55"/>
       </defs>
       <use xlink:href="#DejaVuSans-48"/>
       <use x="63.623047" xlink:href="#DejaVuSans-46"/>
       <use x="95.410156" xlink:href="#DejaVuSans-55"/>
       <use x="159.033203" xlink:href="#DejaVuSans-53"/>
      </g>
     </g>
    </g>
    <g id="ytick_3">
     <g id="line2d_65">
      <path clip-path="url(#p364072134c)" d="M 90 220.445616 
L 648 220.445616 
" style="fill:none;stroke:#b0b0b0;stroke-dasharray:0.8,1.32;stroke-dashoffset:0;stroke-width:0.8;"/>
     </g>
     <g id="line2d_66">
      <g>
       <use style="stroke:#000000;stroke-width:0.8;" x="90" xlink:href="#m9089fee291" y="220.445616"/>
      </g>
     </g>
     <g id="text_15">
      <!-- 1.00 -->
      <g transform="translate(60.734375 224.244835)scale(0.1 -0.1)">
       <use xlink:href="#DejaVuSans-49"/>
       <use x="63.623047" xlink:href="#DejaVuSans-46"/>
       <use x="95.410156" xlink:href="#DejaVuSans-48"/>
       <use x="159.033203" xlink:href="#DejaVuSans-48"/>
      </g>
     </g>
    </g>
    <g id="ytick_4">
     <g id="line2d_67">
      <path clip-path="url(#p364072134c)" d="M 90 186.24749 
L 648 186.24749 
" style="fill:none;stroke:#b0b0b0;stroke-dasharray:0.8,1.32;stroke-dashoffset:0;stroke-width:0.8;"/>
     </g>
     <g id="line2d_68">
      <g>
       <use style="stroke:#000000;stroke-width:0.8;" x="90" xlink:href="#m9089fee291" y="186.24749"/>
      </g>
     </g>
     <g id="text_16">
      <!-- 1.25 -->
      <g transform="translate(60.734375 190.046709)scale(0.1 -0.1)">
       <use xlink:href="#DejaVuSans-49"/>
       <use x="63.623047" xlink:href="#DejaVuSans-46"/>
       <use x="95.410156" xlink:href="#DejaVuSans-50"/>
       <use x="159.033203" xlink:href="#DejaVuSans-53"/>
      </g>
     </g>
    </g>
    <g id="ytick_5">
     <g id="line2d_69">
      <path clip-path="url(#p364072134c)" d="M 90 152.049365 
L 648 152.049365 
" style="fill:none;stroke:#b0b0b0;stroke-dasharray:0.8,1.32;stroke-dashoffset:0;stroke-width:0.8;"/>
     </g>
     <g id="line2d_70">
      <g>
       <use style="stroke:#000000;stroke-width:0.8;" x="90" xlink:href="#m9089fee291" y="152.049365"/>
      </g>
     </g>
     <g id="text_17">
      <!-- 1.50 -->
      <g transform="translate(60.734375 155.848584)scale(0.1 -0.1)">
       <use xlink:href="#DejaVuSans-49"/>
       <use x="63.623047" xlink:href="#DejaVuSans-46"/>
       <use x="95.410156" xlink:href="#DejaVuSans-53"/>
       <use x="159.033203" xlink:href="#DejaVuSans-48"/>
      </g>
     </g>
    </g>
    <g id="ytick_6">
     <g id="line2d_71">
      <path clip-path="url(#p364072134c)" d="M 90 117.851239 
L 648 117.851239 
" style="fill:none;stroke:#b0b0b0;stroke-dasharray:0.8,1.32;stroke-dashoffset:0;stroke-width:0.8;"/>
     </g>
     <g id="line2d_72">
      <g>
       <use style="stroke:#000000;stroke-width:0.8;" x="90" xlink:href="#m9089fee291" y="117.851239"/>
      </g>
     </g>
     <g id="text_18">
      <!-- 1.75 -->
      <g transform="translate(60.734375 121.650458)scale(0.1 -0.1)">
       <use xlink:href="#DejaVuSans-49"/>
       <use x="63.623047" xlink:href="#DejaVuSans-46"/>
       <use x="95.410156" xlink:href="#DejaVuSans-55"/>
       <use x="159.033203" xlink:href="#DejaVuSans-53"/>
      </g>
     </g>
    </g>
    <g id="ytick_7">
     <g id="line2d_73">
      <path clip-path="url(#p364072134c)" d="M 90 83.653114 
L 648 83.653114 
" style="fill:none;stroke:#b0b0b0;stroke-dasharray:0.8,1.32;stroke-dashoffset:0;stroke-width:0.8;"/>
     </g>
     <g id="line2d_74">
      <g>
       <use style="stroke:#000000;stroke-width:0.8;" x="90" xlink:href="#m9089fee291" y="83.653114"/>
      </g>
     </g>
     <g id="text_19">
      <!-- 2.00 -->
      <g transform="translate(60.734375 87.452333)scale(0.1 -0.1)">
       <use xlink:href="#DejaVuSans-50"/>
       <use x="63.623047" xlink:href="#DejaVuSans-46"/>
       <use x="95.410156" xlink:href="#DejaVuSans-48"/>
       <use x="159.033203" xlink:href="#DejaVuSans-48"/>
      </g>
     </g>
    </g>
    <g id="ytick_8">
     <g id="line2d_75">
      <path clip-path="url(#p364072134c)" d="M 90 49.454988 
L 648 49.454988 
" style="fill:none;stroke:#b0b0b0;stroke-dasharray:0.8,1.32;stroke-dashoffset:0;stroke-width:0.8;"/>
     </g>
     <g id="line2d_76">
      <g>
       <use style="stroke:#000000;stroke-width:0.8;" x="90" xlink:href="#m9089fee291" y="49.454988"/>
      </g>
     </g>
     <g id="text_20">
      <!-- 2.25 -->
      <g transform="translate(60.734375 53.254207)scale(0.1 -0.1)">
       <use xlink:href="#DejaVuSans-50"/>
       <use x="63.623047" xlink:href="#DejaVuSans-46"/>
       <use x="95.410156" xlink:href="#DejaVuSans-50"/>
       <use x="159.033203" xlink:href="#DejaVuSans-53"/>
      </g>
     </g>
    </g>
   </g>
   <g id="line2d_77">
    <path clip-path="url(#p364072134c)" d="M 90 112.805019 
L 91.636364 113.353379 
L 93.272727 111.866995 
L 94.909091 110.902895 
L 96.545455 113.141217 
L 98.181818 113.659916 
L 101.454545 119.470475 
L 103.090909 122.884194 
L 104.727273 127.123711 
L 106.363636 131.79926 
L 108 137.117896 
L 112.909091 160.556891 
L 114.545455 170.588707 
L 117.818182 187.875114 
L 119.454545 196.584056 
L 121.090909 204.203663 
L 122.727273 212.490784 
L 126 226.596466 
L 130.909091 243.380349 
L 132.545455 248.332432 
L 135.818182 257.279129 
L 137.454545 262.299507 
L 139.090909 265.674249 
L 140.727273 270.11167 
L 144 276.695373 
L 145.636364 279.68887 
L 148.909091 285.037993 
L 150.545455 287.200371 
L 152.181818 289.150231 
L 155.454545 291.691868 
L 157.090909 292.419713 
L 160.363636 292.729393 
L 162 292.629769 
L 163.636364 291.763352 
L 165.272727 290.703311 
L 166.909091 289.422965 
L 168.545455 287.736997 
L 171.818182 282.408615 
L 176.727273 270.167332 
L 178.363636 264.953669 
L 180 258.527681 
L 181.636364 251.528876 
L 183.272727 243.986375 
L 188.181818 216.949129 
L 189.818182 206.922697 
L 191.454545 195.756976 
L 193.090909 185.676892 
L 194.727273 173.292573 
L 196.363636 163.158201 
L 199.636364 145.85711 
L 201.272727 140.184279 
L 202.909091 135.077478 
L 204.545455 135.07402 
L 206.181818 135.32236 
L 207.818182 140.304677 
L 209.454545 146.406047 
L 211.090909 155.595093 
L 212.727273 165.555347 
L 216 188.680818 
L 217.636364 198.188291 
L 220.909091 212.173645 
L 222.545455 215.816129 
L 224.181818 219.038911 
L 225.818182 220.699551 
L 227.454545 220.146309 
L 229.090909 218.266303 
L 230.727273 215.002886 
L 232.363636 210.713226 
L 235.636364 200.001407 
L 237.272727 192.919531 
L 238.909091 183.771667 
L 242.181818 166.965272 
L 243.818182 155.693054 
L 245.454545 148.225352 
L 247.090909 139.111032 
L 250.363636 127.16625 
L 252 121.519113 
L 253.636364 116.668921 
L 255.272727 114.528641 
L 256.909091 115.670288 
L 258.545455 116.658279 
L 260.181818 118.490545 
L 261.818182 121.186028 
L 263.454545 125.08191 
L 266.727273 136.361859 
L 268.363636 140.871216 
L 271.636364 155.564634 
L 274.909091 167.787118 
L 276.545455 172.520685 
L 278.181818 178.9375 
L 279.818182 183.000501 
L 281.454545 189.067725 
L 284.727273 196.545834 
L 288 205.204821 
L 289.636364 207.25707 
L 291.272727 210.323109 
L 292.909091 212.263429 
L 294.545455 213.817251 
L 296.181818 216.79129 
L 299.454545 220.583784 
L 301.090909 222.095094 
L 302.727273 224.271367 
L 304.363636 226.03796 
L 306 226.928427 
L 309.272727 229.475003 
L 310.909091 228.753822 
L 312.545455 229.839429 
L 315.818182 230.617291 
L 317.454545 230.754602 
L 319.090909 230.704935 
L 320.727273 230.786897 
L 322.363636 229.685668 
L 324 230.130468 
L 325.636364 230.179545 
L 327.272727 229.46306 
L 328.909091 229.879488 
L 330.545455 228.820185 
L 332.181818 229.455343 
L 333.818182 229.056854 
L 335.454545 229.559836 
L 337.090909 228.554827 
L 338.727273 228.042131 
L 340.363636 226.698112 
L 342 224.537892 
L 343.636364 223.258373 
L 345.272727 220.45432 
L 346.909091 218.758498 
L 348.545455 215.657741 
L 350.181818 212.878739 
L 351.818182 209.748283 
L 353.454545 207.724455 
L 355.090909 203.798412 
L 356.727273 201.112607 
L 361.636364 191.881534 
L 363.272727 187.872473 
L 364.909091 184.655653 
L 368.181818 179.902726 
L 369.818182 178.948129 
L 371.454545 177.672845 
L 373.090909 176.764443 
L 374.727273 176.150204 
L 376.363636 177.059116 
L 379.636364 179.37593 
L 381.272727 179.683925 
L 382.909091 182.752848 
L 384.545455 184.23316 
L 387.818182 189.142326 
L 389.454545 192.639339 
L 391.090909 193.667439 
L 392.727273 197.514743 
L 397.636364 206.25949 
L 400.909091 214.06344 
L 402.545455 217.523693 
L 404.181818 222.219749 
L 405.818182 226.173615 
L 407.454545 229.665454 
L 409.090909 234.308916 
L 410.727273 237.727513 
L 412.363636 242.695108 
L 415.636364 250.663875 
L 420.545455 260.678708 
L 422.181818 263.324929 
L 423.818182 265.721614 
L 425.454545 267.611169 
L 427.090909 269.242971 
L 428.727273 271.115081 
L 432 272.584654 
L 433.636364 272.897123 
L 436.909091 272.931092 
L 438.545455 272.321535 
L 440.181818 270.985404 
L 441.818182 270.645986 
L 443.454545 269.144777 
L 445.090909 268.539038 
L 448.363636 265.44495 
L 450 263.016805 
L 451.636364 259.934107 
L 453.272727 257.449341 
L 456.545455 251.891649 
L 458.181818 249.028559 
L 459.818182 245.682844 
L 461.454545 242.883141 
L 466.363636 233.456222 
L 468 230.043488 
L 469.636364 226.007999 
L 471.272727 223.029557 
L 472.909091 219.534669 
L 476.181818 215.322548 
L 477.818182 212.694942 
L 479.454545 208.525375 
L 481.090909 206.448639 
L 482.727273 204.795679 
L 484.363636 203.852529 
L 486 201.662652 
L 487.636364 199.093071 
L 489.272727 196.130697 
L 490.909091 195.327934 
L 492.545455 193.508117 
L 494.181818 192.106401 
L 495.818182 190.027057 
L 497.454545 188.998069 
L 499.090909 187.11159 
L 500.727273 185.88513 
L 502.363636 182.097529 
L 504 180.881065 
L 507.272727 177.243566 
L 508.909091 175.550029 
L 510.545455 174.349772 
L 512.181818 174.044418 
L 513.818182 172.685027 
L 515.454545 172.428516 
L 517.090909 171.742313 
L 518.727273 172.079848 
L 520.363636 170.794949 
L 522 168.720689 
L 523.636364 169.415152 
L 525.272727 168.233005 
L 526.909091 167.716041 
L 528.545455 167.810319 
L 530.181818 167.611449 
L 531.818182 167.86792 
L 533.454545 166.827662 
L 535.090909 165.981679 
L 536.727273 165.395665 
L 540 166.70625 
L 541.636364 167.779817 
L 543.272727 167.803424 
L 544.909091 169.643701 
L 546.545455 169.848371 
L 551.454545 173.277263 
L 553.090909 175.42818 
L 556.363636 178.149829 
L 558 181.383903 
L 559.636364 182.147021 
L 562.909091 186.022057 
L 564.545455 188.08786 
L 566.181818 189.580177 
L 567.818182 192.738633 
L 569.454545 193.609667 
L 571.090909 198.015158 
L 574.363636 202.428427 
L 576 206.295541 
L 577.636364 208.56308 
L 579.272727 211.339358 
L 580.909091 214.786865 
L 582.545455 218.593262 
L 584.181818 221.726989 
L 585.818182 225.458299 
L 587.454545 227.436773 
L 589.090909 230.29111 
L 590.727273 233.500019 
L 592.363636 234.930889 
L 594 237.395215 
L 595.636364 239.48864 
L 597.272727 240.820418 
L 600.545455 244.171766 
L 602.181818 245.194803 
L 603.818182 245.982391 
L 608.727273 249.443014 
L 610.363636 250.089603 
L 612 250.517232 
L 615.272727 252.919119 
L 616.909091 253.298699 
L 620.181818 255.123581 
L 626.727273 259.749166 
L 628.363636 260.188843 
L 630 261.689157 
L 631.636364 261.756892 
L 633.272727 263.262285 
L 634.909091 264.595974 
L 638.181818 266.356708 
L 639.818182 265.941275 
L 641.454545 267.062844 
L 643.090909 267.452793 
L 644.727273 268.099026 
L 646.363636 267.898886 
L 648 268.373566 
L 649.636364 268.528179 
L 651.272727 268.137797 
L 652.909091 268.754257 
L 654.545455 267.636594 
L 656.181818 268.298924 
L 657.818182 266.99275 
L 659.454545 268.28714 
L 661.090909 268.039631 
L 661.090909 268.039631 
" style="fill:none;stroke:#fc997a;stroke-linecap:square;stroke-width:1.5;"/>
   </g>
   <g id="line2d_78">
    <path clip-path="url(#p364072134c)" d="M 90 220.445616 
L 648 220.445616 
" style="fill:none;stroke:#000000;stroke-dasharray:3.7,1.6;stroke-dashoffset:0;"/>
   </g>
   <g id="patch_3">
    <path d="M 90 315 
L 90 43.2 
" style="fill:none;stroke:#000000;stroke-linecap:square;stroke-linejoin:miter;stroke-width:0.8;"/>
   </g>
   <g id="patch_4">
    <path d="M 648 315 
L 648 43.2 
" style="fill:none;stroke:#000000;stroke-linecap:square;stroke-linejoin:miter;stroke-width:0.8;"/>
   </g>
   <g id="patch_5">
    <path d="M 90 315 
L 648 315 
" style="fill:none;stroke:#000000;stroke-linecap:square;stroke-linejoin:miter;stroke-width:0.8;"/>
   </g>
   <g id="patch_6">
    <path d="M 90 43.2 
L 648 43.2 
" style="fill:none;stroke:#000000;stroke-linecap:square;stroke-linejoin:miter;stroke-width:0.8;"/>
   </g>
   <g id="text_21">
    <!-- 111   $R_t$ -->
    <g transform="translate(323.1 37.2)scale(0.12 -0.12)">
     <defs>
      <path id="DejaVuSans-32"/>
      <path d="M 19.140625 33.40625 
L 19.140625 0 
L 10.109375 0 
L 10.109375 29.6875 
z
M 56.25 27.828125 
L 56.25 0 
L 47.21875 0 
L 47.21875 29.6875 
Q 47.21875 40.234375 44.0625 43.96875 
Q 40.921875 47.703125 31.84375 47.703125 
L 9.078125 47.703125 
L 9.078125 54.6875 
L 31.734375 54.6875 
Q 45.265625 54.6875 50.75 48.578125 
Q 56.25 42.484375 56.25 27.828125 
z
" id="DejaVuSans-1492"/>
      <path d="M 51.125 47.703125 
L 41.453125 47.703125 
L 41.453125 0 
L 32.375 0 
L 32.375 47.703125 
L 4.296875 47.703125 
L 4.296875 54.6875 
L 51.125 54.6875 
z
" id="DejaVuSans-1491"/>
      <path d="M 18.171875 54.6875 
L 18.171875 0 
L 9.078125 0 
L 9.078125 54.6875 
z
" id="DejaVuSans-1493"/>
      <path d="M 15.71875 54.6875 
L 15.71875 24.125 
L 6.640625 20.40625 
L 6.640625 54.6875 
z
" id="DejaVuSans-1497"/>
      <path d="M 47.359375 27.828125 
L 47.359375 0 
L 38.28125 0 
L 38.28125 27.828125 
Q 38.28125 31.390625 37.765625 34.265625 
Q 37.25 37.15625 36 39.71875 
Q 34.765625 42.28125 32.8125 43.984375 
Q 30.859375 45.703125 27.78125 46.703125 
Q 24.703125 47.703125 20.703125 47.703125 
L 4.296875 47.703125 
L 4.296875 54.6875 
L 20.65625 54.6875 
Q 26.8125 54.6875 31.46875 53.390625 
Q 36.140625 52.09375 39.109375 49.828125 
Q 42.09375 47.5625 43.96875 44.109375 
Q 45.84375 40.671875 46.59375 36.734375 
Q 47.359375 32.8125 47.359375 27.828125 
z
" id="DejaVuSans-1512"/>
      <path d="M 25.203125 64.796875 
L 20.21875 38.921875 
L 32.90625 38.921875 
Q 40.375 38.921875 44.984375 43.046875 
Q 49.609375 47.171875 49.609375 53.8125 
Q 49.609375 59.125 46.5 61.953125 
Q 43.40625 64.796875 37.59375 64.796875 
z
M 43.3125 35.015625 
Q 46.4375 34.28125 48.515625 31.390625 
Q 50.59375 28.515625 53.328125 19.921875 
L 59.515625 0 
L 49.125 0 
L 43.40625 18.703125 
Q 41.21875 25.921875 38.328125 28.359375 
Q 35.453125 30.8125 29.5 30.8125 
L 18.609375 30.8125 
L 12.59375 0 
L 2.6875 0 
L 16.890625 72.90625 
L 39.109375 72.90625 
Q 49.21875 72.90625 54.609375 68.328125 
Q 60.015625 63.765625 60.015625 55.171875 
Q 60.015625 47.5625 55.421875 41.984375 
Q 50.828125 36.421875 43.3125 35.015625 
z
" id="DejaVuSans-Oblique-82"/>
      <path d="M 42.28125 54.6875 
L 40.921875 47.703125 
L 23 47.703125 
L 17.1875 18.015625 
Q 16.890625 16.359375 16.75 15.234375 
Q 16.609375 14.109375 16.609375 13.484375 
Q 16.609375 10.359375 18.484375 8.9375 
Q 20.359375 7.515625 24.515625 7.515625 
L 33.59375 7.515625 
L 32.078125 0 
L 23.484375 0 
Q 15.484375 0 11.546875 3.125 
Q 7.625 6.25 7.625 12.59375 
Q 7.625 13.71875 7.765625 15.0625 
Q 7.90625 16.40625 8.203125 18.015625 
L 14.015625 47.703125 
L 6.390625 47.703125 
L 7.8125 54.6875 
L 15.28125 54.6875 
L 18.3125 70.21875 
L 27.296875 70.21875 
L 24.3125 54.6875 
z
" id="DejaVuSans-Oblique-116"/>
     </defs>
     <use transform="translate(0 0.09375)" xlink:href="#DejaVuSans-49"/>
     <use transform="translate(63.623047 0.09375)" xlink:href="#DejaVuSans-49"/>
     <use transform="translate(127.246094 0.09375)" xlink:href="#DejaVuSans-49"/>
     <use transform="translate(190.869141 0.09375)" xlink:href="#DejaVuSans-32"/>
     <use transform="translate(222.65625 0.09375)" xlink:href="#DejaVuSans-1492"/>
     <use transform="translate(287.988281 0.09375)" xlink:href="#DejaVuSans-1491"/>
     <use transform="translate(342.578125 0.09375)" xlink:href="#DejaVuSans-1493"/>
     <use transform="translate(369.824219 0.09375)" xlink:href="#DejaVuSans-1492"/>
     <use transform="translate(435.15625 0.09375)" xlink:href="#DejaVuSans-1497"/>
     <use transform="translate(457.519531 0.09375)" xlink:href="#DejaVuSans-32"/>
     <use transform="translate(489.306641 0.09375)" xlink:href="#DejaVuSans-1497"/>
     <use transform="translate(511.669922 0.09375)" xlink:href="#DejaVuSans-1512"/>
     <use transform="translate(568.115234 0.09375)" xlink:href="#DejaVuSans-1492"/>
     <use transform="translate(633.447266 0.09375)" xlink:href="#DejaVuSans-32"/>
     <use transform="translate(665.234375 0.09375)" xlink:href="#DejaVuSans-Oblique-82"/>
     <use transform="translate(734.716797 -16.3125)scale(0.7)" xlink:href="#DejaVuSans-Oblique-116"/>
    </g>
   </g>
  </g>
 </g>
 <defs>
  <clipPath id="p364072134c">
   <rect height="271.8" width="558" x="90" y="43.2"/>
  </clipPath>
 </defs>
</svg>
