<?xml version="1.0" encoding="utf-8" standalone="no"?>
<!DOCTYPE svg PUBLIC "-//W3C//DTD SVG 1.1//EN"
  "http://www.w3.org/Graphics/SVG/1.1/DTD/svg11.dtd">
<!-- Created with matplotlib (https://matplotlib.org/) -->
<svg height="360pt" version="1.1" viewBox="0 0 720 360" width="720pt" xmlns="http://www.w3.org/2000/svg" xmlns:xlink="http://www.w3.org/1999/xlink">
 <metadata>
  <rdf:RDF xmlns:cc="http://creativecommons.org/ns#" xmlns:dc="http://purl.org/dc/elements/1.1/" xmlns:rdf="http://www.w3.org/1999/02/22-rdf-syntax-ns#">
   <cc:Work>
    <dc:type rdf:resource="http://purl.org/dc/dcmitype/StillImage"/>
    <dc:date>2021-04-28T07:39:37.002500</dc:date>
    <dc:format>image/svg+xml</dc:format>
    <dc:creator>
     <cc:Agent>
      <dc:title>Matplotlib v3.3.2, https://matplotlib.org/</dc:title>
     </cc:Agent>
    </dc:creator>
   </cc:Work>
  </rdf:RDF>
 </metadata>
 <defs>
  <style type="text/css">*{stroke-linecap:butt;stroke-linejoin:round;}</style>
 </defs>
 <g id="figure_1">
  <g id="patch_1">
   <path d="M 0 360 
L 720 360 
L 720 0 
L 0 0 
z
" style="fill:#ffffff;"/>
  </g>
  <g id="axes_1">
   <g id="patch_2">
    <path d="M 90 315 
L 648 315 
L 648 43.2 
L 90 43.2 
z
" style="fill:#ffffff;"/>
   </g>
   <g id="PolyCollection_1">
    <defs>
     <path d="M 90 -131.227372 
L 90 -236.024409 
L 91.829508 -231.670953 
L 93.659016 -232.711867 
L 95.488525 -232.295361 
L 97.318033 -228.421713 
L 99.147541 -230.909922 
L 100.977049 -218.333889 
L 102.806557 -210.034136 
L 104.636066 -208.098701 
L 106.465574 -209.368545 
L 108.295082 -199.484606 
L 110.12459 -187.243508 
L 111.954098 -183.39548 
L 113.783607 -178.914693 
L 115.613115 -171.812819 
L 117.442623 -166.387902 
L 119.272131 -160.947147 
L 121.101639 -158.398123 
L 122.931148 -152.583248 
L 124.760656 -152.513851 
L 126.590164 -152.949145 
L 128.419672 -147.850502 
L 130.24918 -144.140754 
L 132.078689 -140.69564 
L 133.908197 -144.134678 
L 135.737705 -145.016513 
L 137.567213 -143.714914 
L 139.396721 -145.910719 
L 141.22623 -144.705425 
L 143.055738 -146.885602 
L 144.885246 -147.04785 
L 146.714754 -151.165554 
L 148.544262 -151.843719 
L 150.37377 -156.030944 
L 152.203279 -157.392962 
L 154.032787 -161.470651 
L 155.862295 -164.960747 
L 157.691803 -168.362603 
L 159.521311 -171.316738 
L 161.35082 -175.913782 
L 163.180328 -178.072195 
L 165.009836 -180.721329 
L 166.839344 -187.330887 
L 168.668852 -189.470318 
L 170.498361 -195.647907 
L 172.327869 -199.791522 
L 174.157377 -198.874477 
L 175.986885 -208.341033 
L 177.816393 -209.215511 
L 179.645902 -216.663287 
L 181.47541 -221.237462 
L 183.304918 -219.132946 
L 185.134426 -223.500782 
L 186.963934 -232.328141 
L 188.793443 -230.616919 
L 190.622951 -234.146435 
L 192.452459 -235.723708 
L 194.281967 -241.036057 
L 196.111475 -248.360243 
L 197.940984 -247.400659 
L 199.770492 -255.019782 
L 201.6 -251.658618 
L 203.429508 -258.55864 
L 205.259016 -265.789903 
L 207.088525 -270.250561 
L 208.918033 -272.508679 
L 210.747541 -273.371334 
L 212.577049 -280.521628 
L 214.406557 -283.551451 
L 216.236066 -293.618029 
L 218.065574 -292.385225 
L 219.895082 -296.039611 
L 221.72459 -304.445455 
L 223.554098 -301.550512 
L 225.383607 -295.971916 
L 227.213115 -297.671477 
L 229.042623 -291.847694 
L 230.872131 -287.020606 
L 232.701639 -277.994827 
L 234.531148 -268.421597 
L 236.360656 -256.584591 
L 238.190164 -250.478329 
L 240.019672 -232.84026 
L 241.84918 -218.13684 
L 243.678689 -203.982123 
L 245.508197 -192.023813 
L 247.337705 -180.60838 
L 249.167213 -164.161454 
L 250.996721 -155.264739 
L 252.82623 -147.746637 
L 254.655738 -137.850999 
L 256.485246 -129.092757 
L 258.314754 -123.383138 
L 260.144262 -118.84757 
L 261.97377 -110.236143 
L 263.803279 -109.852883 
L 265.632787 -104.78581 
L 267.462295 -101.801289 
L 269.291803 -101.090311 
L 271.121311 -98.675021 
L 272.95082 -95.875793 
L 274.780328 -96.257648 
L 276.609836 -95.394287 
L 278.439344 -95.711186 
L 280.268852 -97.522804 
L 282.098361 -96.547749 
L 283.927869 -97.783726 
L 285.757377 -99.103727 
L 287.586885 -101.502242 
L 289.416393 -106.236417 
L 291.245902 -108.825958 
L 293.07541 -109.502246 
L 294.904918 -113.065597 
L 296.734426 -116.390275 
L 298.563934 -118.506304 
L 300.393443 -121.490011 
L 302.222951 -125.646076 
L 304.052459 -131.157198 
L 305.881967 -134.361179 
L 307.711475 -136.908422 
L 309.540984 -141.674583 
L 311.370492 -142.71221 
L 313.2 -147.884389 
L 315.029508 -149.090511 
L 316.859016 -149.515523 
L 318.688525 -157.049703 
L 320.518033 -160.637153 
L 322.347541 -166.985947 
L 324.177049 -169.033244 
L 326.006557 -177.517109 
L 327.836066 -183.880797 
L 329.665574 -188.719194 
L 331.495082 -195.735005 
L 333.32459 -195.197099 
L 335.154098 -203.895678 
L 336.983607 -210.545212 
L 338.813115 -210.499238 
L 340.642623 -218.889234 
L 342.472131 -220.02751 
L 344.301639 -229.757027 
L 346.131148 -233.009178 
L 347.960656 -234.621405 
L 349.790164 -239.085345 
L 351.619672 -244.458267 
L 353.44918 -248.33968 
L 355.278689 -251.35976 
L 357.108197 -255.488469 
L 358.937705 -260.345429 
L 360.767213 -262.82938 
L 362.596721 -256.557411 
L 364.42623 -267.274818 
L 366.255738 -269.216621 
L 368.085246 -268.276273 
L 369.914754 -267.966145 
L 371.744262 -275.516274 
L 373.57377 -270.032232 
L 375.403279 -279.771229 
L 377.232787 -272.507525 
L 379.062295 -281.247548 
L 380.891803 -281.449704 
L 382.721311 -282.214211 
L 384.55082 -280.604836 
L 386.380328 -279.80721 
L 388.209836 -270.85448 
L 390.039344 -273.744222 
L 391.868852 -266.56294 
L 393.698361 -269.675542 
L 395.527869 -256.896639 
L 397.357377 -251.75098 
L 399.186885 -253.523673 
L 401.016393 -247.415226 
L 402.845902 -245.600996 
L 404.67541 -235.808795 
L 406.504918 -234.398384 
L 408.334426 -235.155994 
L 410.163934 -225.071746 
L 411.993443 -218.586512 
L 413.822951 -213.400987 
L 415.652459 -209.0729 
L 417.481967 -209.168252 
L 419.311475 -199.346429 
L 421.140984 -199.445859 
L 422.970492 -197.301903 
L 424.8 -196.2473 
L 426.629508 -194.62056 
L 428.459016 -189.790013 
L 430.288525 -186.928183 
L 432.118033 -184.141073 
L 433.947541 -187.288201 
L 435.777049 -182.296614 
L 437.606557 -183.585364 
L 439.436066 -178.917411 
L 441.265574 -182.584501 
L 443.095082 -178.366555 
L 444.92459 -179.731051 
L 446.754098 -178.461104 
L 448.583607 -176.739593 
L 450.413115 -178.98593 
L 452.242623 -175.639285 
L 454.072131 -182.923397 
L 455.901639 -177.740853 
L 457.731148 -176.498341 
L 459.560656 -177.604071 
L 461.390164 -183.906156 
L 463.219672 -181.874001 
L 465.04918 -186.162599 
L 466.878689 -187.900863 
L 468.708197 -188.588762 
L 470.537705 -188.941748 
L 472.367213 -189.398898 
L 474.196721 -193.981986 
L 476.02623 -193.794378 
L 477.855738 -194.073879 
L 479.685246 -191.558917 
L 481.514754 -193.262478 
L 483.344262 -193.398929 
L 485.17377 -183.530883 
L 487.003279 -186.010256 
L 488.832787 -179.121991 
L 490.662295 -177.678887 
L 492.491803 -172.16445 
L 494.321311 -166.110423 
L 496.15082 -158.728421 
L 497.980328 -155.592705 
L 499.809836 -149.235085 
L 501.639344 -141.720627 
L 503.468852 -135.164605 
L 505.298361 -131.848889 
L 507.127869 -128.191847 
L 508.957377 -123.211469 
L 510.786885 -119.444832 
L 512.616393 -117.715162 
L 514.445902 -115.033652 
L 516.27541 -111.811426 
L 518.104918 -110.95497 
L 519.934426 -113.687661 
L 521.763934 -108.528113 
L 523.593443 -110.190854 
L 525.422951 -110.271457 
L 527.252459 -110.306627 
L 529.081967 -107.544778 
L 530.911475 -105.730977 
L 532.740984 -109.237095 
L 534.570492 -107.756633 
L 536.4 -110.995345 
L 538.229508 -112.398634 
L 540.059016 -109.410307 
L 541.888525 -113.900891 
L 543.718033 -113.284701 
L 545.547541 -116.376808 
L 547.377049 -116.733007 
L 549.206557 -115.909008 
L 551.036066 -119.130314 
L 552.865574 -118.507921 
L 554.695082 -120.124137 
L 556.52459 -120.348611 
L 558.354098 -118.758986 
L 560.183607 -118.993066 
L 562.013115 -120.315613 
L 563.842623 -120.45865 
L 565.672131 -125.623698 
L 567.501639 -126.225863 
L 569.331148 -126.052965 
L 571.160656 -129.800996 
L 572.990164 -128.221926 
L 574.819672 -132.939878 
L 576.64918 -132.065721 
L 578.478689 -132.722857 
L 580.308197 -132.934424 
L 582.137705 -132.023032 
L 583.967213 -134.735799 
L 585.796721 -137.499452 
L 587.62623 -135.252194 
L 589.455738 -142.222801 
L 591.285246 -140.812802 
L 593.114754 -143.3486 
L 594.944262 -144.206414 
L 596.77377 -146.593672 
L 598.603279 -143.606159 
L 600.432787 -145.728891 
L 602.262295 -148.082604 
L 604.091803 -146.074546 
L 605.921311 -149.160488 
L 607.75082 -152.734007 
L 609.580328 -154.910177 
L 611.409836 -154.884546 
L 613.239344 -159.018522 
L 615.068852 -155.957677 
L 616.898361 -153.691226 
L 618.727869 -153.386106 
L 620.557377 -163.639715 
L 622.386885 -163.682728 
L 624.216393 -163.64681 
L 626.045902 -168.913275 
L 627.87541 -165.030223 
L 629.704918 -172.302822 
L 631.534426 -167.16221 
L 633.363934 -174.134472 
L 635.193443 -179.989813 
L 637.022951 -169.93156 
L 638.852459 -174.078907 
L 640.681967 -177.228059 
L 642.511475 -175.602927 
L 644.340984 -175.074231 
L 646.170492 -183.883984 
L 648 -181.581601 
L 649.829508 -181.414473 
L 651.659016 -182.328161 
L 653.488525 -180.549699 
L 655.318033 -178.197159 
L 657.147541 -187.445834 
L 658.977049 -182.084744 
L 660.806557 -191.671011 
L 662.636066 -186.707526 
L 662.636066 -59.64428 
L 662.636066 -59.64428 
L 660.806557 -66.35937 
L 658.977049 -59.049635 
L 657.147541 -65.349303 
L 655.318033 -57.354545 
L 653.488525 -64.596569 
L 651.659016 -66.049644 
L 649.829508 -66.477678 
L 648 -67.976833 
L 646.170492 -70.4105 
L 644.340984 -65.730258 
L 642.511475 -68.464412 
L 640.681967 -70.510451 
L 638.852459 -70.076714 
L 637.022951 -68.392349 
L 635.193443 -79.168973 
L 633.363934 -76.662539 
L 631.534426 -71.96605 
L 629.704918 -81.168872 
L 627.87541 -76.312573 
L 626.045902 -80.506015 
L 624.216393 -76.746514 
L 622.386885 -78.71946 
L 620.557377 -82.656894 
L 618.727869 -73.148938 
L 616.898361 -77.352595 
L 615.068852 -80.235844 
L 613.239344 -85.592573 
L 611.409836 -82.018286 
L 609.580328 -85.204755 
L 607.75082 -85.87392 
L 605.921311 -85.814706 
L 604.091803 -84.43266 
L 602.262295 -86.363702 
L 600.432787 -84.434999 
L 598.603279 -85.143245 
L 596.77377 -88.8452 
L 594.944262 -87.813172 
L 593.114754 -89.060172 
L 591.285246 -89.164809 
L 589.455738 -90.315652 
L 587.62623 -84.105385 
L 585.796721 -86.716435 
L 583.967213 -87.493627 
L 582.137705 -84.152126 
L 580.308197 -87.595255 
L 578.478689 -86.060213 
L 576.64918 -86.677827 
L 574.819672 -87.42631 
L 572.990164 -84.118676 
L 571.160656 -87.626009 
L 569.331148 -85.86553 
L 567.501639 -85.173625 
L 565.672131 -85.624305 
L 563.842623 -79.944496 
L 562.013115 -80.679402 
L 560.183607 -81.35343 
L 558.354098 -80.24701 
L 556.52459 -81.272275 
L 554.695082 -80.920935 
L 552.865574 -80.219193 
L 551.036066 -80.431276 
L 549.206557 -79.27592 
L 547.377049 -78.077843 
L 545.547541 -77.387457 
L 543.718033 -76.872637 
L 541.888525 -78.869891 
L 540.059016 -74.951411 
L 538.229508 -77.747717 
L 536.4 -77.060618 
L 534.570492 -74.223832 
L 532.740984 -76.095188 
L 530.911475 -72.951617 
L 529.081967 -75.624108 
L 527.252459 -77.837936 
L 525.422951 -77.809664 
L 523.593443 -77.891395 
L 521.763934 -75.985771 
L 519.934426 -82.026348 
L 518.104918 -79.215944 
L 516.27541 -80.604084 
L 514.445902 -83.304721 
L 512.616393 -85.794835 
L 510.786885 -86.920066 
L 508.957377 -89.965725 
L 507.127869 -93.330517 
L 505.298361 -95.973247 
L 503.468852 -96.368639 
L 501.639344 -101.226703 
L 499.809836 -107.392726 
L 497.980328 -112.254193 
L 496.15082 -114.564324 
L 494.321311 -118.242379 
L 492.491803 -122.511494 
L 490.662295 -129.912507 
L 488.832787 -130.594607 
L 487.003279 -136.449542 
L 485.17377 -134.776447 
L 483.344262 -143.135001 
L 481.514754 -143.561051 
L 479.685246 -139.787532 
L 477.855738 -142.738948 
L 476.02623 -144.177594 
L 474.196721 -143.872755 
L 472.367213 -142.064449 
L 470.537705 -141.54224 
L 468.708197 -139.949735 
L 466.878689 -138.987593 
L 465.04918 -138.524952 
L 463.219672 -133.876231 
L 461.390164 -134.436927 
L 459.560656 -129.242772 
L 457.731148 -129.750347 
L 455.901639 -133.111873 
L 454.072131 -136.119695 
L 452.242623 -127.760349 
L 450.413115 -130.823343 
L 448.583607 -130.223229 
L 446.754098 -132.023179 
L 444.92459 -132.074601 
L 443.095082 -130.360597 
L 441.265574 -135.790544 
L 439.436066 -131.8486 
L 437.606557 -136.541285 
L 435.777049 -132.453652 
L 433.947541 -139.814257 
L 432.118033 -137.252793 
L 430.288525 -138.277199 
L 428.459016 -139.159024 
L 426.629508 -143.015402 
L 424.8 -145.334746 
L 422.970492 -145.362332 
L 421.140984 -146.741868 
L 419.311475 -146.056213 
L 417.481967 -155.796567 
L 415.652459 -152.8488 
L 413.822951 -156.475584 
L 411.993443 -158.601719 
L 410.163934 -162.669181 
L 408.334426 -173.306991 
L 406.504918 -176.778819 
L 404.67541 -172.852313 
L 402.845902 -181.997802 
L 401.016393 -184.765694 
L 399.186885 -189.801517 
L 397.357377 -186.751602 
L 395.527869 -188.741 
L 393.698361 -197.22181 
L 391.868852 -195.243823 
L 390.039344 -198.428874 
L 388.209836 -195.821429 
L 386.380328 -204.929599 
L 384.55082 -202.398124 
L 382.721311 -205.589494 
L 380.891803 -204.225166 
L 379.062295 -207.037852 
L 377.232787 -198.865545 
L 375.403279 -205.206137 
L 373.57377 -196.873192 
L 371.744262 -201.991991 
L 369.914754 -193.902595 
L 368.085246 -193.905715 
L 366.255738 -193.888037 
L 364.42623 -190.747364 
L 362.596721 -183.800532 
L 360.767213 -188.828592 
L 358.937705 -184.595662 
L 357.108197 -182.482255 
L 355.278689 -181.613812 
L 353.44918 -179.47265 
L 351.619672 -175.252504 
L 349.790164 -171.110624 
L 347.960656 -166.347506 
L 346.131148 -166.113841 
L 344.301639 -163.058138 
L 342.472131 -154.503933 
L 340.642623 -155.864495 
L 338.813115 -147.617229 
L 336.983607 -149.359476 
L 335.154098 -146.058984 
L 333.32459 -136.743797 
L 331.495082 -137.954989 
L 329.665574 -134.187016 
L 327.836066 -127.309823 
L 326.006557 -124.289293 
L 324.177049 -117.015222 
L 322.347541 -116.020606 
L 320.518033 -111.694614 
L 318.688525 -109.897512 
L 316.859016 -103.843968 
L 315.029508 -101.155388 
L 313.2 -99.943449 
L 311.370492 -96.945226 
L 309.540984 -98.540438 
L 307.711475 -93.897976 
L 305.881967 -93.557874 
L 304.052459 -91.852103 
L 302.222951 -87.171039 
L 300.393443 -83.436402 
L 298.563934 -80.462759 
L 296.734426 -80.958241 
L 294.904918 -79.043646 
L 293.07541 -76.508895 
L 291.245902 -76.194565 
L 289.416393 -75.524332 
L 287.586885 -72.164771 
L 285.757377 -70.709049 
L 283.927869 -69.117797 
L 282.098361 -68.545185 
L 280.268852 -68.015735 
L 278.439344 -66.517261 
L 276.609836 -66.636129 
L 274.780328 -67.786383 
L 272.95082 -67.584998 
L 271.121311 -70.421675 
L 269.291803 -71.526861 
L 267.462295 -73.03507 
L 265.632787 -75.467236 
L 263.803279 -78.684703 
L 261.97377 -78.35068 
L 260.144262 -84.908003 
L 258.314754 -89.984125 
L 256.485246 -93.33373 
L 254.655738 -100.852927 
L 252.82623 -109.080116 
L 250.996721 -115.126869 
L 249.167213 -123.158942 
L 247.337705 -135.020167 
L 245.508197 -143.269428 
L 243.678689 -152.210641 
L 241.84918 -161.76856 
L 240.019672 -170.911768 
L 238.190164 -185.001507 
L 236.360656 -189.841054 
L 234.531148 -199.873358 
L 232.701639 -205.281918 
L 230.872131 -215.044863 
L 229.042623 -219.612744 
L 227.213115 -224.908565 
L 225.383607 -223.45942 
L 223.554098 -223.85706 
L 221.72459 -227.144514 
L 219.895082 -221.250777 
L 218.065574 -222.138128 
L 216.236066 -224.60425 
L 214.406557 -216.640902 
L 212.577049 -210.773634 
L 210.747541 -206.734003 
L 208.918033 -205.875355 
L 207.088525 -201.740926 
L 205.259016 -195.113783 
L 203.429508 -188.01055 
L 201.6 -183.447595 
L 199.770492 -187.992058 
L 197.940984 -181.977048 
L 196.111475 -183.422116 
L 194.281967 -176.43132 
L 192.452459 -170.504685 
L 190.622951 -170.756152 
L 188.793443 -168.046859 
L 186.963934 -170.555815 
L 185.134426 -162.280772 
L 183.304918 -159.689973 
L 181.47541 -160.45767 
L 179.645902 -156.071482 
L 177.816393 -149.978033 
L 175.986885 -149.3187 
L 174.157377 -143.629546 
L 172.327869 -143.564399 
L 170.498361 -140.609964 
L 168.668852 -136.966113 
L 166.839344 -136.959969 
L 165.009836 -132.333528 
L 163.180328 -129.195995 
L 161.35082 -126.580717 
L 159.521311 -122.949842 
L 157.691803 -121.474911 
L 155.862295 -119.016395 
L 154.032787 -117.327243 
L 152.203279 -112.863933 
L 150.37377 -111.201699 
L 148.544262 -109.35187 
L 146.714754 -108.160122 
L 144.885246 -105.873513 
L 143.055738 -104.958579 
L 141.22623 -102.58787 
L 139.396721 -104.534235 
L 137.567213 -102.759222 
L 135.737705 -103.013659 
L 133.908197 -106.201048 
L 132.078689 -103.293866 
L 130.24918 -104.597035 
L 128.419672 -106.882546 
L 126.590164 -111.235247 
L 124.760656 -110.819593 
L 122.931148 -110.229395 
L 121.101639 -115.144049 
L 119.272131 -116.578991 
L 117.442623 -118.597828 
L 115.613115 -119.168414 
L 113.783607 -122.319176 
L 111.954098 -123.693743 
L 110.12459 -123.431216 
L 108.295082 -131.377767 
L 106.465574 -136.358987 
L 104.636066 -128.813079 
L 102.806557 -127.211708 
L 100.977049 -132.205515 
L 99.147541 -137.808895 
L 97.318033 -133.579953 
L 95.488525 -135.595539 
L 93.659016 -133.56608 
L 91.829508 -129.449246 
L 90 -131.227372 
z
" id="m128bbde354" style="stroke:#fdcbb6;stroke-opacity:0.8;"/>
    </defs>
    <g clip-path="url(#p638ac5c112)">
     <use style="fill:#fdcbb6;fill-opacity:0.8;stroke:#fdcbb6;stroke-opacity:0.8;" x="0" xlink:href="#m128bbde354" y="360"/>
    </g>
   </g>
   <g id="matplotlib.axis_1">
    <g id="xtick_1">
     <g id="line2d_1">
      <defs>
       <path d="M 0 0 
L 0 3.5 
" id="m1815586643" style="stroke:#000000;stroke-width:0.8;"/>
      </defs>
      <g>
       <use style="stroke:#000000;stroke-width:0.8;" x="90" xlink:href="#m1815586643" y="315"/>
      </g>
     </g>
    </g>
    <g id="xtick_2">
     <g id="line2d_2">
      <g>
       <use style="stroke:#000000;stroke-width:0.8;" x="115.613115" xlink:href="#m1815586643" y="315"/>
      </g>
     </g>
     <g id="text_1">
      <!-- Jul -->
      <g transform="translate(109.580302 329.598437)scale(0.1 -0.1)">
       <defs>
        <path d="M 9.8125 72.90625 
L 19.671875 72.90625 
L 19.671875 5.078125 
Q 19.671875 -8.109375 14.671875 -14.0625 
Q 9.671875 -20.015625 -1.421875 -20.015625 
L -5.171875 -20.015625 
L -5.171875 -11.71875 
L -2.09375 -11.71875 
Q 4.4375 -11.71875 7.125 -8.046875 
Q 9.8125 -4.390625 9.8125 5.078125 
z
" id="DejaVuSans-74"/>
        <path d="M 8.5 21.578125 
L 8.5 54.6875 
L 17.484375 54.6875 
L 17.484375 21.921875 
Q 17.484375 14.15625 20.5 10.265625 
Q 23.53125 6.390625 29.59375 6.390625 
Q 36.859375 6.390625 41.078125 11.03125 
Q 45.3125 15.671875 45.3125 23.6875 
L 45.3125 54.6875 
L 54.296875 54.6875 
L 54.296875 0 
L 45.3125 0 
L 45.3125 8.40625 
Q 42.046875 3.421875 37.71875 1 
Q 33.40625 -1.421875 27.6875 -1.421875 
Q 18.265625 -1.421875 13.375 4.4375 
Q 8.5 10.296875 8.5 21.578125 
z
M 31.109375 56 
z
" id="DejaVuSans-117"/>
        <path d="M 9.421875 75.984375 
L 18.40625 75.984375 
L 18.40625 0 
L 9.421875 0 
z
" id="DejaVuSans-108"/>
       </defs>
       <use xlink:href="#DejaVuSans-74"/>
       <use x="29.492188" xlink:href="#DejaVuSans-117"/>
       <use x="92.871094" xlink:href="#DejaVuSans-108"/>
      </g>
     </g>
    </g>
    <g id="xtick_3">
     <g id="line2d_3">
      <g>
       <use style="stroke:#000000;stroke-width:0.8;" x="172.327869" xlink:href="#m1815586643" y="315"/>
      </g>
     </g>
     <g id="text_2">
      <!-- Aug -->
      <g transform="translate(162.564588 329.598437)scale(0.1 -0.1)">
       <defs>
        <path d="M 34.1875 63.1875 
L 20.796875 26.90625 
L 47.609375 26.90625 
z
M 28.609375 72.90625 
L 39.796875 72.90625 
L 67.578125 0 
L 57.328125 0 
L 50.6875 18.703125 
L 17.828125 18.703125 
L 11.1875 0 
L 0.78125 0 
z
" id="DejaVuSans-65"/>
        <path d="M 45.40625 27.984375 
Q 45.40625 37.75 41.375 43.109375 
Q 37.359375 48.484375 30.078125 48.484375 
Q 22.859375 48.484375 18.828125 43.109375 
Q 14.796875 37.75 14.796875 27.984375 
Q 14.796875 18.265625 18.828125 12.890625 
Q 22.859375 7.515625 30.078125 7.515625 
Q 37.359375 7.515625 41.375 12.890625 
Q 45.40625 18.265625 45.40625 27.984375 
z
M 54.390625 6.78125 
Q 54.390625 -7.171875 48.1875 -13.984375 
Q 42 -20.796875 29.203125 -20.796875 
Q 24.46875 -20.796875 20.265625 -20.09375 
Q 16.0625 -19.390625 12.109375 -17.921875 
L 12.109375 -9.1875 
Q 16.0625 -11.328125 19.921875 -12.34375 
Q 23.78125 -13.375 27.78125 -13.375 
Q 36.625 -13.375 41.015625 -8.765625 
Q 45.40625 -4.15625 45.40625 5.171875 
L 45.40625 9.625 
Q 42.625 4.78125 38.28125 2.390625 
Q 33.9375 0 27.875 0 
Q 17.828125 0 11.671875 7.65625 
Q 5.515625 15.328125 5.515625 27.984375 
Q 5.515625 40.671875 11.671875 48.328125 
Q 17.828125 56 27.875 56 
Q 33.9375 56 38.28125 53.609375 
Q 42.625 51.21875 45.40625 46.390625 
L 45.40625 54.6875 
L 54.390625 54.6875 
z
" id="DejaVuSans-103"/>
       </defs>
       <use xlink:href="#DejaVuSans-65"/>
       <use x="68.408203" xlink:href="#DejaVuSans-117"/>
       <use x="131.787109" xlink:href="#DejaVuSans-103"/>
      </g>
     </g>
    </g>
    <g id="xtick_4">
     <g id="line2d_4">
      <g>
       <use style="stroke:#000000;stroke-width:0.8;" x="229.042623" xlink:href="#m1815586643" y="315"/>
      </g>
     </g>
     <g id="text_3">
      <!-- Sep -->
      <g transform="translate(219.617623 329.598437)scale(0.1 -0.1)">
       <defs>
        <path d="M 53.515625 70.515625 
L 53.515625 60.890625 
Q 47.90625 63.578125 42.921875 64.890625 
Q 37.9375 66.21875 33.296875 66.21875 
Q 25.25 66.21875 20.875 63.09375 
Q 16.5 59.96875 16.5 54.203125 
Q 16.5 49.359375 19.40625 46.890625 
Q 22.3125 44.4375 30.421875 42.921875 
L 36.375 41.703125 
Q 47.40625 39.59375 52.65625 34.296875 
Q 57.90625 29 57.90625 20.125 
Q 57.90625 9.515625 50.796875 4.046875 
Q 43.703125 -1.421875 29.984375 -1.421875 
Q 24.8125 -1.421875 18.96875 -0.25 
Q 13.140625 0.921875 6.890625 3.21875 
L 6.890625 13.375 
Q 12.890625 10.015625 18.65625 8.296875 
Q 24.421875 6.59375 29.984375 6.59375 
Q 38.421875 6.59375 43.015625 9.90625 
Q 47.609375 13.234375 47.609375 19.390625 
Q 47.609375 24.75 44.3125 27.78125 
Q 41.015625 30.8125 33.5 32.328125 
L 27.484375 33.5 
Q 16.453125 35.6875 11.515625 40.375 
Q 6.59375 45.0625 6.59375 53.421875 
Q 6.59375 63.09375 13.40625 68.65625 
Q 20.21875 74.21875 32.171875 74.21875 
Q 37.3125 74.21875 42.625 73.28125 
Q 47.953125 72.359375 53.515625 70.515625 
z
" id="DejaVuSans-83"/>
        <path d="M 56.203125 29.59375 
L 56.203125 25.203125 
L 14.890625 25.203125 
Q 15.484375 15.921875 20.484375 11.0625 
Q 25.484375 6.203125 34.421875 6.203125 
Q 39.59375 6.203125 44.453125 7.46875 
Q 49.3125 8.734375 54.109375 11.28125 
L 54.109375 2.78125 
Q 49.265625 0.734375 44.1875 -0.34375 
Q 39.109375 -1.421875 33.890625 -1.421875 
Q 20.796875 -1.421875 13.15625 6.1875 
Q 5.515625 13.8125 5.515625 26.8125 
Q 5.515625 40.234375 12.765625 48.109375 
Q 20.015625 56 32.328125 56 
Q 43.359375 56 49.78125 48.890625 
Q 56.203125 41.796875 56.203125 29.59375 
z
M 47.21875 32.234375 
Q 47.125 39.59375 43.09375 43.984375 
Q 39.0625 48.390625 32.421875 48.390625 
Q 24.90625 48.390625 20.390625 44.140625 
Q 15.875 39.890625 15.1875 32.171875 
z
" id="DejaVuSans-101"/>
        <path d="M 18.109375 8.203125 
L 18.109375 -20.796875 
L 9.078125 -20.796875 
L 9.078125 54.6875 
L 18.109375 54.6875 
L 18.109375 46.390625 
Q 20.953125 51.265625 25.265625 53.625 
Q 29.59375 56 35.59375 56 
Q 45.5625 56 51.78125 48.09375 
Q 58.015625 40.1875 58.015625 27.296875 
Q 58.015625 14.40625 51.78125 6.484375 
Q 45.5625 -1.421875 35.59375 -1.421875 
Q 29.59375 -1.421875 25.265625 0.953125 
Q 20.953125 3.328125 18.109375 8.203125 
z
M 48.6875 27.296875 
Q 48.6875 37.203125 44.609375 42.84375 
Q 40.53125 48.484375 33.40625 48.484375 
Q 26.265625 48.484375 22.1875 42.84375 
Q 18.109375 37.203125 18.109375 27.296875 
Q 18.109375 17.390625 22.1875 11.75 
Q 26.265625 6.109375 33.40625 6.109375 
Q 40.53125 6.109375 44.609375 11.75 
Q 48.6875 17.390625 48.6875 27.296875 
z
" id="DejaVuSans-112"/>
       </defs>
       <use xlink:href="#DejaVuSans-83"/>
       <use x="63.476562" xlink:href="#DejaVuSans-101"/>
       <use x="125" xlink:href="#DejaVuSans-112"/>
      </g>
     </g>
    </g>
    <g id="xtick_5">
     <g id="line2d_5">
      <g>
       <use style="stroke:#000000;stroke-width:0.8;" x="283.927869" xlink:href="#m1815586643" y="315"/>
      </g>
     </g>
     <g id="text_4">
      <!-- Oct -->
      <g transform="translate(275.282556 329.598437)scale(0.1 -0.1)">
       <defs>
        <path d="M 39.40625 66.21875 
Q 28.65625 66.21875 22.328125 58.203125 
Q 16.015625 50.203125 16.015625 36.375 
Q 16.015625 22.609375 22.328125 14.59375 
Q 28.65625 6.59375 39.40625 6.59375 
Q 50.140625 6.59375 56.421875 14.59375 
Q 62.703125 22.609375 62.703125 36.375 
Q 62.703125 50.203125 56.421875 58.203125 
Q 50.140625 66.21875 39.40625 66.21875 
z
M 39.40625 74.21875 
Q 54.734375 74.21875 63.90625 63.9375 
Q 73.09375 53.65625 73.09375 36.375 
Q 73.09375 19.140625 63.90625 8.859375 
Q 54.734375 -1.421875 39.40625 -1.421875 
Q 24.03125 -1.421875 14.8125 8.828125 
Q 5.609375 19.09375 5.609375 36.375 
Q 5.609375 53.65625 14.8125 63.9375 
Q 24.03125 74.21875 39.40625 74.21875 
z
" id="DejaVuSans-79"/>
        <path d="M 48.78125 52.59375 
L 48.78125 44.1875 
Q 44.96875 46.296875 41.140625 47.34375 
Q 37.3125 48.390625 33.40625 48.390625 
Q 24.65625 48.390625 19.8125 42.84375 
Q 14.984375 37.3125 14.984375 27.296875 
Q 14.984375 17.28125 19.8125 11.734375 
Q 24.65625 6.203125 33.40625 6.203125 
Q 37.3125 6.203125 41.140625 7.25 
Q 44.96875 8.296875 48.78125 10.40625 
L 48.78125 2.09375 
Q 45.015625 0.34375 40.984375 -0.53125 
Q 36.96875 -1.421875 32.421875 -1.421875 
Q 20.0625 -1.421875 12.78125 6.34375 
Q 5.515625 14.109375 5.515625 27.296875 
Q 5.515625 40.671875 12.859375 48.328125 
Q 20.21875 56 33.015625 56 
Q 37.15625 56 41.109375 55.140625 
Q 45.0625 54.296875 48.78125 52.59375 
z
" id="DejaVuSans-99"/>
        <path d="M 18.3125 70.21875 
L 18.3125 54.6875 
L 36.8125 54.6875 
L 36.8125 47.703125 
L 18.3125 47.703125 
L 18.3125 18.015625 
Q 18.3125 11.328125 20.140625 9.421875 
Q 21.96875 7.515625 27.59375 7.515625 
L 36.8125 7.515625 
L 36.8125 0 
L 27.59375 0 
Q 17.1875 0 13.234375 3.875 
Q 9.28125 7.765625 9.28125 18.015625 
L 9.28125 47.703125 
L 2.6875 47.703125 
L 2.6875 54.6875 
L 9.28125 54.6875 
L 9.28125 70.21875 
z
" id="DejaVuSans-116"/>
       </defs>
       <use xlink:href="#DejaVuSans-79"/>
       <use x="78.710938" xlink:href="#DejaVuSans-99"/>
       <use x="133.691406" xlink:href="#DejaVuSans-116"/>
      </g>
     </g>
    </g>
    <g id="xtick_6">
     <g id="line2d_6">
      <g>
       <use style="stroke:#000000;stroke-width:0.8;" x="340.642623" xlink:href="#m1815586643" y="315"/>
      </g>
     </g>
     <g id="text_5">
      <!-- Nov -->
      <g transform="translate(330.883248 329.598437)scale(0.1 -0.1)">
       <defs>
        <path d="M 9.8125 72.90625 
L 23.09375 72.90625 
L 55.421875 11.921875 
L 55.421875 72.90625 
L 64.984375 72.90625 
L 64.984375 0 
L 51.703125 0 
L 19.390625 60.984375 
L 19.390625 0 
L 9.8125 0 
z
" id="DejaVuSans-78"/>
        <path d="M 30.609375 48.390625 
Q 23.390625 48.390625 19.1875 42.75 
Q 14.984375 37.109375 14.984375 27.296875 
Q 14.984375 17.484375 19.15625 11.84375 
Q 23.34375 6.203125 30.609375 6.203125 
Q 37.796875 6.203125 41.984375 11.859375 
Q 46.1875 17.53125 46.1875 27.296875 
Q 46.1875 37.015625 41.984375 42.703125 
Q 37.796875 48.390625 30.609375 48.390625 
z
M 30.609375 56 
Q 42.328125 56 49.015625 48.375 
Q 55.71875 40.765625 55.71875 27.296875 
Q 55.71875 13.875 49.015625 6.21875 
Q 42.328125 -1.421875 30.609375 -1.421875 
Q 18.84375 -1.421875 12.171875 6.21875 
Q 5.515625 13.875 5.515625 27.296875 
Q 5.515625 40.765625 12.171875 48.375 
Q 18.84375 56 30.609375 56 
z
" id="DejaVuSans-111"/>
        <path d="M 2.984375 54.6875 
L 12.5 54.6875 
L 29.59375 8.796875 
L 46.6875 54.6875 
L 56.203125 54.6875 
L 35.6875 0 
L 23.484375 0 
z
" id="DejaVuSans-118"/>
       </defs>
       <use xlink:href="#DejaVuSans-78"/>
       <use x="74.804688" xlink:href="#DejaVuSans-111"/>
       <use x="135.986328" xlink:href="#DejaVuSans-118"/>
      </g>
     </g>
    </g>
    <g id="xtick_7">
     <g id="line2d_7">
      <g>
       <use style="stroke:#000000;stroke-width:0.8;" x="395.527869" xlink:href="#m1815586643" y="315"/>
      </g>
     </g>
     <g id="text_6">
      <!-- Dec -->
      <g transform="translate(385.852088 329.598437)scale(0.1 -0.1)">
       <defs>
        <path d="M 19.671875 64.796875 
L 19.671875 8.109375 
L 31.59375 8.109375 
Q 46.6875 8.109375 53.6875 14.9375 
Q 60.6875 21.78125 60.6875 36.53125 
Q 60.6875 51.171875 53.6875 57.984375 
Q 46.6875 64.796875 31.59375 64.796875 
z
M 9.8125 72.90625 
L 30.078125 72.90625 
Q 51.265625 72.90625 61.171875 64.09375 
Q 71.09375 55.28125 71.09375 36.53125 
Q 71.09375 17.671875 61.125 8.828125 
Q 51.171875 0 30.078125 0 
L 9.8125 0 
z
" id="DejaVuSans-68"/>
       </defs>
       <use xlink:href="#DejaVuSans-68"/>
       <use x="77.001953" xlink:href="#DejaVuSans-101"/>
       <use x="138.525391" xlink:href="#DejaVuSans-99"/>
      </g>
     </g>
    </g>
    <g id="xtick_8">
     <g id="line2d_8">
      <g>
       <use style="stroke:#000000;stroke-width:0.8;" x="452.242623" xlink:href="#m1815586643" y="315"/>
      </g>
     </g>
     <g id="text_7">
      <!-- Jan -->
      <g transform="translate(444.53481 329.598437)scale(0.1 -0.1)">
       <defs>
        <path d="M 34.28125 27.484375 
Q 23.390625 27.484375 19.1875 25 
Q 14.984375 22.515625 14.984375 16.5 
Q 14.984375 11.71875 18.140625 8.90625 
Q 21.296875 6.109375 26.703125 6.109375 
Q 34.1875 6.109375 38.703125 11.40625 
Q 43.21875 16.703125 43.21875 25.484375 
L 43.21875 27.484375 
z
M 52.203125 31.203125 
L 52.203125 0 
L 43.21875 0 
L 43.21875 8.296875 
Q 40.140625 3.328125 35.546875 0.953125 
Q 30.953125 -1.421875 24.3125 -1.421875 
Q 15.921875 -1.421875 10.953125 3.296875 
Q 6 8.015625 6 15.921875 
Q 6 25.140625 12.171875 29.828125 
Q 18.359375 34.515625 30.609375 34.515625 
L 43.21875 34.515625 
L 43.21875 35.40625 
Q 43.21875 41.609375 39.140625 45 
Q 35.0625 48.390625 27.6875 48.390625 
Q 23 48.390625 18.546875 47.265625 
Q 14.109375 46.140625 10.015625 43.890625 
L 10.015625 52.203125 
Q 14.9375 54.109375 19.578125 55.046875 
Q 24.21875 56 28.609375 56 
Q 40.484375 56 46.34375 49.84375 
Q 52.203125 43.703125 52.203125 31.203125 
z
" id="DejaVuSans-97"/>
        <path d="M 54.890625 33.015625 
L 54.890625 0 
L 45.90625 0 
L 45.90625 32.71875 
Q 45.90625 40.484375 42.875 44.328125 
Q 39.84375 48.1875 33.796875 48.1875 
Q 26.515625 48.1875 22.3125 43.546875 
Q 18.109375 38.921875 18.109375 30.90625 
L 18.109375 0 
L 9.078125 0 
L 9.078125 54.6875 
L 18.109375 54.6875 
L 18.109375 46.1875 
Q 21.34375 51.125 25.703125 53.5625 
Q 30.078125 56 35.796875 56 
Q 45.21875 56 50.046875 50.171875 
Q 54.890625 44.34375 54.890625 33.015625 
z
" id="DejaVuSans-110"/>
       </defs>
       <use xlink:href="#DejaVuSans-74"/>
       <use x="29.492188" xlink:href="#DejaVuSans-97"/>
       <use x="90.771484" xlink:href="#DejaVuSans-110"/>
      </g>
      <!-- 2021 -->
      <g transform="translate(439.517623 340.79625)scale(0.1 -0.1)">
       <defs>
        <path d="M 19.1875 8.296875 
L 53.609375 8.296875 
L 53.609375 0 
L 7.328125 0 
L 7.328125 8.296875 
Q 12.9375 14.109375 22.625 23.890625 
Q 32.328125 33.6875 34.8125 36.53125 
Q 39.546875 41.84375 41.421875 45.53125 
Q 43.3125 49.21875 43.3125 52.78125 
Q 43.3125 58.59375 39.234375 62.25 
Q 35.15625 65.921875 28.609375 65.921875 
Q 23.96875 65.921875 18.8125 64.3125 
Q 13.671875 62.703125 7.8125 59.421875 
L 7.8125 69.390625 
Q 13.765625 71.78125 18.9375 73 
Q 24.125 74.21875 28.421875 74.21875 
Q 39.75 74.21875 46.484375 68.546875 
Q 53.21875 62.890625 53.21875 53.421875 
Q 53.21875 48.921875 51.53125 44.890625 
Q 49.859375 40.875 45.40625 35.40625 
Q 44.1875 33.984375 37.640625 27.21875 
Q 31.109375 20.453125 19.1875 8.296875 
z
" id="DejaVuSans-50"/>
        <path d="M 31.78125 66.40625 
Q 24.171875 66.40625 20.328125 58.90625 
Q 16.5 51.421875 16.5 36.375 
Q 16.5 21.390625 20.328125 13.890625 
Q 24.171875 6.390625 31.78125 6.390625 
Q 39.453125 6.390625 43.28125 13.890625 
Q 47.125 21.390625 47.125 36.375 
Q 47.125 51.421875 43.28125 58.90625 
Q 39.453125 66.40625 31.78125 66.40625 
z
M 31.78125 74.21875 
Q 44.046875 74.21875 50.515625 64.515625 
Q 56.984375 54.828125 56.984375 36.375 
Q 56.984375 17.96875 50.515625 8.265625 
Q 44.046875 -1.421875 31.78125 -1.421875 
Q 19.53125 -1.421875 13.0625 8.265625 
Q 6.59375 17.96875 6.59375 36.375 
Q 6.59375 54.828125 13.0625 64.515625 
Q 19.53125 74.21875 31.78125 74.21875 
z
" id="DejaVuSans-48"/>
        <path d="M 12.40625 8.296875 
L 28.515625 8.296875 
L 28.515625 63.921875 
L 10.984375 60.40625 
L 10.984375 69.390625 
L 28.421875 72.90625 
L 38.28125 72.90625 
L 38.28125 8.296875 
L 54.390625 8.296875 
L 54.390625 0 
L 12.40625 0 
z
" id="DejaVuSans-49"/>
       </defs>
       <use xlink:href="#DejaVuSans-50"/>
       <use x="63.623047" xlink:href="#DejaVuSans-48"/>
       <use x="127.246094" xlink:href="#DejaVuSans-50"/>
       <use x="190.869141" xlink:href="#DejaVuSans-49"/>
      </g>
     </g>
    </g>
    <g id="xtick_9">
     <g id="line2d_9">
      <g>
       <use style="stroke:#000000;stroke-width:0.8;" x="508.957377" xlink:href="#m1815586643" y="315"/>
      </g>
     </g>
     <g id="text_8">
      <!-- Feb -->
      <g transform="translate(500.105815 329.598437)scale(0.1 -0.1)">
       <defs>
        <path d="M 9.8125 72.90625 
L 51.703125 72.90625 
L 51.703125 64.59375 
L 19.671875 64.59375 
L 19.671875 43.109375 
L 48.578125 43.109375 
L 48.578125 34.8125 
L 19.671875 34.8125 
L 19.671875 0 
L 9.8125 0 
z
" id="DejaVuSans-70"/>
        <path d="M 48.6875 27.296875 
Q 48.6875 37.203125 44.609375 42.84375 
Q 40.53125 48.484375 33.40625 48.484375 
Q 26.265625 48.484375 22.1875 42.84375 
Q 18.109375 37.203125 18.109375 27.296875 
Q 18.109375 17.390625 22.1875 11.75 
Q 26.265625 6.109375 33.40625 6.109375 
Q 40.53125 6.109375 44.609375 11.75 
Q 48.6875 17.390625 48.6875 27.296875 
z
M 18.109375 46.390625 
Q 20.953125 51.265625 25.265625 53.625 
Q 29.59375 56 35.59375 56 
Q 45.5625 56 51.78125 48.09375 
Q 58.015625 40.1875 58.015625 27.296875 
Q 58.015625 14.40625 51.78125 6.484375 
Q 45.5625 -1.421875 35.59375 -1.421875 
Q 29.59375 -1.421875 25.265625 0.953125 
Q 20.953125 3.328125 18.109375 8.203125 
L 18.109375 0 
L 9.078125 0 
L 9.078125 75.984375 
L 18.109375 75.984375 
z
" id="DejaVuSans-98"/>
       </defs>
       <use xlink:href="#DejaVuSans-70"/>
       <use x="52.019531" xlink:href="#DejaVuSans-101"/>
       <use x="113.542969" xlink:href="#DejaVuSans-98"/>
      </g>
     </g>
    </g>
    <g id="xtick_10">
     <g id="line2d_10">
      <g>
       <use style="stroke:#000000;stroke-width:0.8;" x="560.183607" xlink:href="#m1815586643" y="315"/>
      </g>
     </g>
     <g id="text_9">
      <!-- Mar -->
      <g transform="translate(550.750013 329.598437)scale(0.1 -0.1)">
       <defs>
        <path d="M 9.8125 72.90625 
L 24.515625 72.90625 
L 43.109375 23.296875 
L 61.8125 72.90625 
L 76.515625 72.90625 
L 76.515625 0 
L 66.890625 0 
L 66.890625 64.015625 
L 48.09375 14.015625 
L 38.1875 14.015625 
L 19.390625 64.015625 
L 19.390625 0 
L 9.8125 0 
z
" id="DejaVuSans-77"/>
        <path d="M 41.109375 46.296875 
Q 39.59375 47.171875 37.8125 47.578125 
Q 36.03125 48 33.890625 48 
Q 26.265625 48 22.1875 43.046875 
Q 18.109375 38.09375 18.109375 28.8125 
L 18.109375 0 
L 9.078125 0 
L 9.078125 54.6875 
L 18.109375 54.6875 
L 18.109375 46.1875 
Q 20.953125 51.171875 25.484375 53.578125 
Q 30.03125 56 36.53125 56 
Q 37.453125 56 38.578125 55.875 
Q 39.703125 55.765625 41.0625 55.515625 
z
" id="DejaVuSans-114"/>
       </defs>
       <use xlink:href="#DejaVuSans-77"/>
       <use x="86.279297" xlink:href="#DejaVuSans-97"/>
       <use x="147.558594" xlink:href="#DejaVuSans-114"/>
      </g>
     </g>
    </g>
    <g id="xtick_11">
     <g id="line2d_11">
      <g>
       <use style="stroke:#000000;stroke-width:0.8;" x="616.898361" xlink:href="#m1815586643" y="315"/>
      </g>
     </g>
     <g id="text_10">
      <!-- Apr -->
      <g transform="translate(608.248361 329.598437)scale(0.1 -0.1)">
       <use xlink:href="#DejaVuSans-65"/>
       <use x="68.408203" xlink:href="#DejaVuSans-112"/>
       <use x="131.884766" xlink:href="#DejaVuSans-114"/>
      </g>
     </g>
    </g>
    <g id="xtick_12">
     <g id="line2d_12">
      <g>
       <use style="stroke:#000000;stroke-width:0.8;" x="648" xlink:href="#m1815586643" y="315"/>
      </g>
     </g>
    </g>
    <g id="xtick_13">
     <g id="line2d_13">
      <defs>
       <path d="M 0 0 
L 0 2 
" id="m0c6dbff3f3" style="stroke:#000000;stroke-width:0.6;"/>
      </defs>
      <g>
       <use style="stroke:#000000;stroke-width:0.6;" x="99.147541" xlink:href="#m0c6dbff3f3" y="315"/>
      </g>
     </g>
    </g>
    <g id="xtick_14">
     <g id="line2d_14">
      <g>
       <use style="stroke:#000000;stroke-width:0.6;" x="111.954098" xlink:href="#m0c6dbff3f3" y="315"/>
      </g>
     </g>
    </g>
    <g id="xtick_15">
     <g id="line2d_15">
      <g>
       <use style="stroke:#000000;stroke-width:0.6;" x="124.760656" xlink:href="#m0c6dbff3f3" y="315"/>
      </g>
     </g>
    </g>
    <g id="xtick_16">
     <g id="line2d_16">
      <g>
       <use style="stroke:#000000;stroke-width:0.6;" x="137.567213" xlink:href="#m0c6dbff3f3" y="315"/>
      </g>
     </g>
    </g>
    <g id="xtick_17">
     <g id="line2d_17">
      <g>
       <use style="stroke:#000000;stroke-width:0.6;" x="150.37377" xlink:href="#m0c6dbff3f3" y="315"/>
      </g>
     </g>
    </g>
    <g id="xtick_18">
     <g id="line2d_18">
      <g>
       <use style="stroke:#000000;stroke-width:0.6;" x="163.180328" xlink:href="#m0c6dbff3f3" y="315"/>
      </g>
     </g>
    </g>
    <g id="xtick_19">
     <g id="line2d_19">
      <g>
       <use style="stroke:#000000;stroke-width:0.6;" x="175.986885" xlink:href="#m0c6dbff3f3" y="315"/>
      </g>
     </g>
    </g>
    <g id="xtick_20">
     <g id="line2d_20">
      <g>
       <use style="stroke:#000000;stroke-width:0.6;" x="188.793443" xlink:href="#m0c6dbff3f3" y="315"/>
      </g>
     </g>
    </g>
    <g id="xtick_21">
     <g id="line2d_21">
      <g>
       <use style="stroke:#000000;stroke-width:0.6;" x="201.6" xlink:href="#m0c6dbff3f3" y="315"/>
      </g>
     </g>
    </g>
    <g id="xtick_22">
     <g id="line2d_22">
      <g>
       <use style="stroke:#000000;stroke-width:0.6;" x="214.406557" xlink:href="#m0c6dbff3f3" y="315"/>
      </g>
     </g>
    </g>
    <g id="xtick_23">
     <g id="line2d_23">
      <g>
       <use style="stroke:#000000;stroke-width:0.6;" x="227.213115" xlink:href="#m0c6dbff3f3" y="315"/>
      </g>
     </g>
    </g>
    <g id="xtick_24">
     <g id="line2d_24">
      <g>
       <use style="stroke:#000000;stroke-width:0.6;" x="240.019672" xlink:href="#m0c6dbff3f3" y="315"/>
      </g>
     </g>
    </g>
    <g id="xtick_25">
     <g id="line2d_25">
      <g>
       <use style="stroke:#000000;stroke-width:0.6;" x="252.82623" xlink:href="#m0c6dbff3f3" y="315"/>
      </g>
     </g>
    </g>
    <g id="xtick_26">
     <g id="line2d_26">
      <g>
       <use style="stroke:#000000;stroke-width:0.6;" x="265.632787" xlink:href="#m0c6dbff3f3" y="315"/>
      </g>
     </g>
    </g>
    <g id="xtick_27">
     <g id="line2d_27">
      <g>
       <use style="stroke:#000000;stroke-width:0.6;" x="278.439344" xlink:href="#m0c6dbff3f3" y="315"/>
      </g>
     </g>
    </g>
    <g id="xtick_28">
     <g id="line2d_28">
      <g>
       <use style="stroke:#000000;stroke-width:0.6;" x="291.245902" xlink:href="#m0c6dbff3f3" y="315"/>
      </g>
     </g>
    </g>
    <g id="xtick_29">
     <g id="line2d_29">
      <g>
       <use style="stroke:#000000;stroke-width:0.6;" x="304.052459" xlink:href="#m0c6dbff3f3" y="315"/>
      </g>
     </g>
    </g>
    <g id="xtick_30">
     <g id="line2d_30">
      <g>
       <use style="stroke:#000000;stroke-width:0.6;" x="316.859016" xlink:href="#m0c6dbff3f3" y="315"/>
      </g>
     </g>
    </g>
    <g id="xtick_31">
     <g id="line2d_31">
      <g>
       <use style="stroke:#000000;stroke-width:0.6;" x="329.665574" xlink:href="#m0c6dbff3f3" y="315"/>
      </g>
     </g>
    </g>
    <g id="xtick_32">
     <g id="line2d_32">
      <g>
       <use style="stroke:#000000;stroke-width:0.6;" x="342.472131" xlink:href="#m0c6dbff3f3" y="315"/>
      </g>
     </g>
    </g>
    <g id="xtick_33">
     <g id="line2d_33">
      <g>
       <use style="stroke:#000000;stroke-width:0.6;" x="355.278689" xlink:href="#m0c6dbff3f3" y="315"/>
      </g>
     </g>
    </g>
    <g id="xtick_34">
     <g id="line2d_34">
      <g>
       <use style="stroke:#000000;stroke-width:0.6;" x="368.085246" xlink:href="#m0c6dbff3f3" y="315"/>
      </g>
     </g>
    </g>
    <g id="xtick_35">
     <g id="line2d_35">
      <g>
       <use style="stroke:#000000;stroke-width:0.6;" x="380.891803" xlink:href="#m0c6dbff3f3" y="315"/>
      </g>
     </g>
    </g>
    <g id="xtick_36">
     <g id="line2d_36">
      <g>
       <use style="stroke:#000000;stroke-width:0.6;" x="393.698361" xlink:href="#m0c6dbff3f3" y="315"/>
      </g>
     </g>
    </g>
    <g id="xtick_37">
     <g id="line2d_37">
      <g>
       <use style="stroke:#000000;stroke-width:0.6;" x="406.504918" xlink:href="#m0c6dbff3f3" y="315"/>
      </g>
     </g>
    </g>
    <g id="xtick_38">
     <g id="line2d_38">
      <g>
       <use style="stroke:#000000;stroke-width:0.6;" x="419.311475" xlink:href="#m0c6dbff3f3" y="315"/>
      </g>
     </g>
    </g>
    <g id="xtick_39">
     <g id="line2d_39">
      <g>
       <use style="stroke:#000000;stroke-width:0.6;" x="432.118033" xlink:href="#m0c6dbff3f3" y="315"/>
      </g>
     </g>
    </g>
    <g id="xtick_40">
     <g id="line2d_40">
      <g>
       <use style="stroke:#000000;stroke-width:0.6;" x="444.92459" xlink:href="#m0c6dbff3f3" y="315"/>
      </g>
     </g>
    </g>
    <g id="xtick_41">
     <g id="line2d_41">
      <g>
       <use style="stroke:#000000;stroke-width:0.6;" x="457.731148" xlink:href="#m0c6dbff3f3" y="315"/>
      </g>
     </g>
    </g>
    <g id="xtick_42">
     <g id="line2d_42">
      <g>
       <use style="stroke:#000000;stroke-width:0.6;" x="470.537705" xlink:href="#m0c6dbff3f3" y="315"/>
      </g>
     </g>
    </g>
    <g id="xtick_43">
     <g id="line2d_43">
      <g>
       <use style="stroke:#000000;stroke-width:0.6;" x="483.344262" xlink:href="#m0c6dbff3f3" y="315"/>
      </g>
     </g>
    </g>
    <g id="xtick_44">
     <g id="line2d_44">
      <g>
       <use style="stroke:#000000;stroke-width:0.6;" x="496.15082" xlink:href="#m0c6dbff3f3" y="315"/>
      </g>
     </g>
    </g>
    <g id="xtick_45">
     <g id="line2d_45">
      <g>
       <use style="stroke:#000000;stroke-width:0.6;" x="521.763934" xlink:href="#m0c6dbff3f3" y="315"/>
      </g>
     </g>
    </g>
    <g id="xtick_46">
     <g id="line2d_46">
      <g>
       <use style="stroke:#000000;stroke-width:0.6;" x="534.570492" xlink:href="#m0c6dbff3f3" y="315"/>
      </g>
     </g>
    </g>
    <g id="xtick_47">
     <g id="line2d_47">
      <g>
       <use style="stroke:#000000;stroke-width:0.6;" x="547.377049" xlink:href="#m0c6dbff3f3" y="315"/>
      </g>
     </g>
    </g>
    <g id="xtick_48">
     <g id="line2d_48">
      <g>
       <use style="stroke:#000000;stroke-width:0.6;" x="572.990164" xlink:href="#m0c6dbff3f3" y="315"/>
      </g>
     </g>
    </g>
    <g id="xtick_49">
     <g id="line2d_49">
      <g>
       <use style="stroke:#000000;stroke-width:0.6;" x="585.796721" xlink:href="#m0c6dbff3f3" y="315"/>
      </g>
     </g>
    </g>
    <g id="xtick_50">
     <g id="line2d_50">
      <g>
       <use style="stroke:#000000;stroke-width:0.6;" x="598.603279" xlink:href="#m0c6dbff3f3" y="315"/>
      </g>
     </g>
    </g>
    <g id="xtick_51">
     <g id="line2d_51">
      <g>
       <use style="stroke:#000000;stroke-width:0.6;" x="611.409836" xlink:href="#m0c6dbff3f3" y="315"/>
      </g>
     </g>
    </g>
    <g id="xtick_52">
     <g id="line2d_52">
      <g>
       <use style="stroke:#000000;stroke-width:0.6;" x="624.216393" xlink:href="#m0c6dbff3f3" y="315"/>
      </g>
     </g>
    </g>
    <g id="xtick_53">
     <g id="line2d_53">
      <g>
       <use style="stroke:#000000;stroke-width:0.6;" x="637.022951" xlink:href="#m0c6dbff3f3" y="315"/>
      </g>
     </g>
    </g>
    <g id="text_11">
     <!-- date -->
     <g transform="translate(357.725 354.474375)scale(0.1 -0.1)">
      <defs>
       <path d="M 45.40625 46.390625 
L 45.40625 75.984375 
L 54.390625 75.984375 
L 54.390625 0 
L 45.40625 0 
L 45.40625 8.203125 
Q 42.578125 3.328125 38.25 0.953125 
Q 33.9375 -1.421875 27.875 -1.421875 
Q 17.96875 -1.421875 11.734375 6.484375 
Q 5.515625 14.40625 5.515625 27.296875 
Q 5.515625 40.1875 11.734375 48.09375 
Q 17.96875 56 27.875 56 
Q 33.9375 56 38.25 53.625 
Q 42.578125 51.265625 45.40625 46.390625 
z
M 14.796875 27.296875 
Q 14.796875 17.390625 18.875 11.75 
Q 22.953125 6.109375 30.078125 6.109375 
Q 37.203125 6.109375 41.296875 11.75 
Q 45.40625 17.390625 45.40625 27.296875 
Q 45.40625 37.203125 41.296875 42.84375 
Q 37.203125 48.484375 30.078125 48.484375 
Q 22.953125 48.484375 18.875 42.84375 
Q 14.796875 37.203125 14.796875 27.296875 
z
" id="DejaVuSans-100"/>
      </defs>
      <use xlink:href="#DejaVuSans-100"/>
      <use x="63.476562" xlink:href="#DejaVuSans-97"/>
      <use x="124.755859" xlink:href="#DejaVuSans-116"/>
      <use x="163.964844" xlink:href="#DejaVuSans-101"/>
     </g>
    </g>
   </g>
   <g id="matplotlib.axis_2">
    <g id="ytick_1">
     <g id="line2d_54">
      <path clip-path="url(#p638ac5c112)" d="M 90 298.362548 
L 648 298.362548 
" style="fill:none;stroke:#b0b0b0;stroke-dasharray:0.8,1.32;stroke-dashoffset:0;stroke-width:0.8;"/>
     </g>
     <g id="line2d_55">
      <defs>
       <path d="M 0 0 
L -3.5 0 
" id="m499e8647ea" style="stroke:#000000;stroke-width:0.8;"/>
      </defs>
      <g>
       <use style="stroke:#000000;stroke-width:0.8;" x="90" xlink:href="#m499e8647ea" y="298.362548"/>
      </g>
     </g>
     <g id="text_12">
      <!-- 0.4 -->
      <g transform="translate(67.096875 302.161767)scale(0.1 -0.1)">
       <defs>
        <path d="M 10.6875 12.40625 
L 21 12.40625 
L 21 0 
L 10.6875 0 
z
" id="DejaVuSans-46"/>
        <path d="M 37.796875 64.3125 
L 12.890625 25.390625 
L 37.796875 25.390625 
z
M 35.203125 72.90625 
L 47.609375 72.90625 
L 47.609375 25.390625 
L 58.015625 25.390625 
L 58.015625 17.1875 
L 47.609375 17.1875 
L 47.609375 0 
L 37.796875 0 
L 37.796875 17.1875 
L 4.890625 17.1875 
L 4.890625 26.703125 
z
" id="DejaVuSans-52"/>
       </defs>
       <use xlink:href="#DejaVuSans-48"/>
       <use x="63.623047" xlink:href="#DejaVuSans-46"/>
       <use x="95.410156" xlink:href="#DejaVuSans-52"/>
      </g>
     </g>
    </g>
    <g id="ytick_2">
     <g id="line2d_56">
      <path clip-path="url(#p638ac5c112)" d="M 90 265.673393 
L 648 265.673393 
" style="fill:none;stroke:#b0b0b0;stroke-dasharray:0.8,1.32;stroke-dashoffset:0;stroke-width:0.8;"/>
     </g>
     <g id="line2d_57">
      <g>
       <use style="stroke:#000000;stroke-width:0.8;" x="90" xlink:href="#m499e8647ea" y="265.673393"/>
      </g>
     </g>
     <g id="text_13">
      <!-- 0.6 -->
      <g transform="translate(67.096875 269.472612)scale(0.1 -0.1)">
       <defs>
        <path d="M 33.015625 40.375 
Q 26.375 40.375 22.484375 35.828125 
Q 18.609375 31.296875 18.609375 23.390625 
Q 18.609375 15.53125 22.484375 10.953125 
Q 26.375 6.390625 33.015625 6.390625 
Q 39.65625 6.390625 43.53125 10.953125 
Q 47.40625 15.53125 47.40625 23.390625 
Q 47.40625 31.296875 43.53125 35.828125 
Q 39.65625 40.375 33.015625 40.375 
z
M 52.59375 71.296875 
L 52.59375 62.3125 
Q 48.875 64.0625 45.09375 64.984375 
Q 41.3125 65.921875 37.59375 65.921875 
Q 27.828125 65.921875 22.671875 59.328125 
Q 17.53125 52.734375 16.796875 39.40625 
Q 19.671875 43.65625 24.015625 45.921875 
Q 28.375 48.1875 33.59375 48.1875 
Q 44.578125 48.1875 50.953125 41.515625 
Q 57.328125 34.859375 57.328125 23.390625 
Q 57.328125 12.15625 50.6875 5.359375 
Q 44.046875 -1.421875 33.015625 -1.421875 
Q 20.359375 -1.421875 13.671875 8.265625 
Q 6.984375 17.96875 6.984375 36.375 
Q 6.984375 53.65625 15.1875 63.9375 
Q 23.390625 74.21875 37.203125 74.21875 
Q 40.921875 74.21875 44.703125 73.484375 
Q 48.484375 72.75 52.59375 71.296875 
z
" id="DejaVuSans-54"/>
       </defs>
       <use xlink:href="#DejaVuSans-48"/>
       <use x="63.623047" xlink:href="#DejaVuSans-46"/>
       <use x="95.410156" xlink:href="#DejaVuSans-54"/>
      </g>
     </g>
    </g>
    <g id="ytick_3">
     <g id="line2d_58">
      <path clip-path="url(#p638ac5c112)" d="M 90 232.984238 
L 648 232.984238 
" style="fill:none;stroke:#b0b0b0;stroke-dasharray:0.8,1.32;stroke-dashoffset:0;stroke-width:0.8;"/>
     </g>
     <g id="line2d_59">
      <g>
       <use style="stroke:#000000;stroke-width:0.8;" x="90" xlink:href="#m499e8647ea" y="232.984238"/>
      </g>
     </g>
     <g id="text_14">
      <!-- 0.8 -->
      <g transform="translate(67.096875 236.783457)scale(0.1 -0.1)">
       <defs>
        <path d="M 31.78125 34.625 
Q 24.75 34.625 20.71875 30.859375 
Q 16.703125 27.09375 16.703125 20.515625 
Q 16.703125 13.921875 20.71875 10.15625 
Q 24.75 6.390625 31.78125 6.390625 
Q 38.8125 6.390625 42.859375 10.171875 
Q 46.921875 13.96875 46.921875 20.515625 
Q 46.921875 27.09375 42.890625 30.859375 
Q 38.875 34.625 31.78125 34.625 
z
M 21.921875 38.8125 
Q 15.578125 40.375 12.03125 44.71875 
Q 8.5 49.078125 8.5 55.328125 
Q 8.5 64.0625 14.71875 69.140625 
Q 20.953125 74.21875 31.78125 74.21875 
Q 42.671875 74.21875 48.875 69.140625 
Q 55.078125 64.0625 55.078125 55.328125 
Q 55.078125 49.078125 51.53125 44.71875 
Q 48 40.375 41.703125 38.8125 
Q 48.828125 37.15625 52.796875 32.3125 
Q 56.78125 27.484375 56.78125 20.515625 
Q 56.78125 9.90625 50.3125 4.234375 
Q 43.84375 -1.421875 31.78125 -1.421875 
Q 19.734375 -1.421875 13.25 4.234375 
Q 6.78125 9.90625 6.78125 20.515625 
Q 6.78125 27.484375 10.78125 32.3125 
Q 14.796875 37.15625 21.921875 38.8125 
z
M 18.3125 54.390625 
Q 18.3125 48.734375 21.84375 45.5625 
Q 25.390625 42.390625 31.78125 42.390625 
Q 38.140625 42.390625 41.71875 45.5625 
Q 45.3125 48.734375 45.3125 54.390625 
Q 45.3125 60.0625 41.71875 63.234375 
Q 38.140625 66.40625 31.78125 66.40625 
Q 25.390625 66.40625 21.84375 63.234375 
Q 18.3125 60.0625 18.3125 54.390625 
z
" id="DejaVuSans-56"/>
       </defs>
       <use xlink:href="#DejaVuSans-48"/>
       <use x="63.623047" xlink:href="#DejaVuSans-46"/>
       <use x="95.410156" xlink:href="#DejaVuSans-56"/>
      </g>
     </g>
    </g>
    <g id="ytick_4">
     <g id="line2d_60">
      <path clip-path="url(#p638ac5c112)" d="M 90 200.295083 
L 648 200.295083 
" style="fill:none;stroke:#b0b0b0;stroke-dasharray:0.8,1.32;stroke-dashoffset:0;stroke-width:0.8;"/>
     </g>
     <g id="line2d_61">
      <g>
       <use style="stroke:#000000;stroke-width:0.8;" x="90" xlink:href="#m499e8647ea" y="200.295083"/>
      </g>
     </g>
     <g id="text_15">
      <!-- 1.0 -->
      <g transform="translate(67.096875 204.094302)scale(0.1 -0.1)">
       <use xlink:href="#DejaVuSans-49"/>
       <use x="63.623047" xlink:href="#DejaVuSans-46"/>
       <use x="95.410156" xlink:href="#DejaVuSans-48"/>
      </g>
     </g>
    </g>
    <g id="ytick_5">
     <g id="line2d_62">
      <path clip-path="url(#p638ac5c112)" d="M 90 167.605928 
L 648 167.605928 
" style="fill:none;stroke:#b0b0b0;stroke-dasharray:0.8,1.32;stroke-dashoffset:0;stroke-width:0.8;"/>
     </g>
     <g id="line2d_63">
      <g>
       <use style="stroke:#000000;stroke-width:0.8;" x="90" xlink:href="#m499e8647ea" y="167.605928"/>
      </g>
     </g>
     <g id="text_16">
      <!-- 1.2 -->
      <g transform="translate(67.096875 171.405147)scale(0.1 -0.1)">
       <use xlink:href="#DejaVuSans-49"/>
       <use x="63.623047" xlink:href="#DejaVuSans-46"/>
       <use x="95.410156" xlink:href="#DejaVuSans-50"/>
      </g>
     </g>
    </g>
    <g id="ytick_6">
     <g id="line2d_64">
      <path clip-path="url(#p638ac5c112)" d="M 90 134.916773 
L 648 134.916773 
" style="fill:none;stroke:#b0b0b0;stroke-dasharray:0.8,1.32;stroke-dashoffset:0;stroke-width:0.8;"/>
     </g>
     <g id="line2d_65">
      <g>
       <use style="stroke:#000000;stroke-width:0.8;" x="90" xlink:href="#m499e8647ea" y="134.916773"/>
      </g>
     </g>
     <g id="text_17">
      <!-- 1.4 -->
      <g transform="translate(67.096875 138.715992)scale(0.1 -0.1)">
       <use xlink:href="#DejaVuSans-49"/>
       <use x="63.623047" xlink:href="#DejaVuSans-46"/>
       <use x="95.410156" xlink:href="#DejaVuSans-52"/>
      </g>
     </g>
    </g>
    <g id="ytick_7">
     <g id="line2d_66">
      <path clip-path="url(#p638ac5c112)" d="M 90 102.227618 
L 648 102.227618 
" style="fill:none;stroke:#b0b0b0;stroke-dasharray:0.8,1.32;stroke-dashoffset:0;stroke-width:0.8;"/>
     </g>
     <g id="line2d_67">
      <g>
       <use style="stroke:#000000;stroke-width:0.8;" x="90" xlink:href="#m499e8647ea" y="102.227618"/>
      </g>
     </g>
     <g id="text_18">
      <!-- 1.6 -->
      <g transform="translate(67.096875 106.026837)scale(0.1 -0.1)">
       <use xlink:href="#DejaVuSans-49"/>
       <use x="63.623047" xlink:href="#DejaVuSans-46"/>
       <use x="95.410156" xlink:href="#DejaVuSans-54"/>
      </g>
     </g>
    </g>
    <g id="ytick_8">
     <g id="line2d_68">
      <path clip-path="url(#p638ac5c112)" d="M 90 69.538463 
L 648 69.538463 
" style="fill:none;stroke:#b0b0b0;stroke-dasharray:0.8,1.32;stroke-dashoffset:0;stroke-width:0.8;"/>
     </g>
     <g id="line2d_69">
      <g>
       <use style="stroke:#000000;stroke-width:0.8;" x="90" xlink:href="#m499e8647ea" y="69.538463"/>
      </g>
     </g>
     <g id="text_19">
      <!-- 1.8 -->
      <g transform="translate(67.096875 73.337682)scale(0.1 -0.1)">
       <use xlink:href="#DejaVuSans-49"/>
       <use x="63.623047" xlink:href="#DejaVuSans-46"/>
       <use x="95.410156" xlink:href="#DejaVuSans-56"/>
      </g>
     </g>
    </g>
   </g>
   <g id="line2d_70">
    <path clip-path="url(#p638ac5c112)" d="M 90 176.153861 
L 91.829508 177.945889 
L 93.659016 178.915896 
L 95.488525 178.022606 
L 97.318033 178.826651 
L 99.147541 179.419346 
L 102.806557 185.325659 
L 104.636066 187.656849 
L 106.465574 190.316074 
L 110.12459 199.992778 
L 111.954098 203.660803 
L 113.783607 208.165851 
L 115.613115 211.968397 
L 117.442623 216.698823 
L 121.101639 224.13748 
L 122.931148 227.432117 
L 124.760656 229.848333 
L 126.590164 232.565393 
L 128.419672 234.66252 
L 130.24918 235.307744 
L 132.078689 237.091497 
L 133.908197 237.352828 
L 135.737705 236.569183 
L 137.567213 236.070526 
L 139.396721 235.801838 
L 141.22623 235.116783 
L 143.055738 233.683357 
L 144.885246 231.860197 
L 146.714754 229.138433 
L 148.544262 228.180728 
L 150.37377 224.96635 
L 154.032787 220.100842 
L 155.862295 216.635078 
L 157.691803 212.273675 
L 159.521311 210.497017 
L 161.35082 209.057644 
L 165.009836 202.178586 
L 166.839344 198.599528 
L 168.668852 194.546303 
L 170.498361 192.311097 
L 175.986885 181.143062 
L 177.816393 178.904454 
L 179.645902 175.990645 
L 181.47541 170.332579 
L 183.304918 167.591916 
L 185.134426 164.474259 
L 186.963934 162.44881 
L 188.793443 159.081652 
L 190.622951 154.994198 
L 192.452459 154.542529 
L 194.281967 149.018686 
L 196.111475 145.998715 
L 199.770492 141.118178 
L 201.6 138.285267 
L 203.429508 134.176931 
L 205.259016 129.388079 
L 207.088525 127.085475 
L 212.577049 114.414129 
L 214.406557 108.710249 
L 216.236066 105.288713 
L 218.065574 100.718665 
L 219.895082 97.689668 
L 221.72459 95.402052 
L 223.554098 94.585585 
L 225.383607 97.196326 
L 227.213115 98.571734 
L 229.042623 105.049381 
L 232.701639 116.508738 
L 236.360656 135.219848 
L 240.019672 157.262181 
L 243.678689 182.863602 
L 245.508197 193.34083 
L 247.337705 205.829308 
L 249.167213 214.101511 
L 250.996721 224.388485 
L 252.82623 232.655837 
L 258.314754 252.573992 
L 263.803279 265.871287 
L 267.462295 271.049416 
L 269.291803 273.917123 
L 271.121311 275.650749 
L 272.95082 277.089741 
L 274.780328 278.14141 
L 276.609836 278.149489 
L 278.439344 278.270918 
L 280.268852 277.60999 
L 282.098361 276.533324 
L 283.927869 275.828601 
L 287.586885 273.298824 
L 289.416393 271.591504 
L 291.245902 269.07138 
L 293.07541 266.952096 
L 294.904918 264.231401 
L 296.734426 261.872811 
L 298.563934 259.139866 
L 300.393443 256.835579 
L 302.222951 254.173551 
L 304.052459 251.014921 
L 305.881967 249.385461 
L 307.711475 244.734708 
L 309.540984 241.699339 
L 311.370492 238.107441 
L 313.2 235.719709 
L 315.029508 232.445007 
L 316.859016 229.540851 
L 322.347541 218.705893 
L 324.177049 214.538072 
L 326.006557 211.036551 
L 327.836066 205.431808 
L 331.495082 195.805466 
L 333.32459 190.514394 
L 335.154098 186.871832 
L 336.983607 181.738784 
L 338.813115 177.463606 
L 340.642623 171.0313 
L 342.472131 167.356879 
L 344.301639 162.557286 
L 346.131148 159.416351 
L 347.960656 154.422242 
L 349.790164 151.096093 
L 351.619672 149.438466 
L 353.44918 144.944311 
L 355.278689 143.714411 
L 357.108197 139.555458 
L 358.937705 136.448135 
L 360.767213 135.72312 
L 362.596721 132.184433 
L 364.42623 129.436769 
L 366.255738 129.825114 
L 368.085246 126.946225 
L 369.914754 123.629603 
L 371.744262 122.611622 
L 373.57377 121.406113 
L 375.403279 119.850879 
L 377.232787 117.017245 
L 379.062295 117.605389 
L 380.891803 116.493147 
L 382.721311 118.095454 
L 384.55082 118.070452 
L 388.209836 122.086782 
L 390.039344 126.120286 
L 393.698361 132.050768 
L 395.527869 135.841607 
L 397.357377 138.268108 
L 399.186885 141.980521 
L 401.016393 144.358719 
L 402.845902 148.272842 
L 404.67541 152.937824 
L 408.334426 158.406148 
L 410.163934 162.954622 
L 411.993443 168.268617 
L 415.652459 176.525614 
L 417.481967 180.72833 
L 419.311475 182.853802 
L 421.140984 185.734699 
L 422.970492 187.399085 
L 424.8 190.845863 
L 426.629508 192.214684 
L 428.459016 194.652549 
L 430.288525 196.427517 
L 432.118033 195.957143 
L 433.947541 198.122193 
L 435.777049 198.433984 
L 439.436066 199.500084 
L 441.265574 200.893314 
L 443.095082 200.997862 
L 444.92459 201.812905 
L 446.754098 202.76632 
L 450.413115 205.266297 
L 452.242623 204.463902 
L 454.072131 204.662387 
L 455.901639 203.441531 
L 457.731148 204.041772 
L 459.560656 203.394516 
L 461.390164 201.070318 
L 463.219672 201.163174 
L 465.04918 199.741577 
L 466.878689 198.178792 
L 468.708197 197.25587 
L 470.537705 194.628206 
L 472.367213 194.500324 
L 474.196721 194.215804 
L 476.02623 192.463162 
L 477.855738 191.750823 
L 479.685246 190.69579 
L 481.514754 191.963946 
L 483.344262 194.578961 
L 485.17377 195.597458 
L 487.003279 198.876311 
L 488.832787 202.615989 
L 497.980328 227.060774 
L 499.809836 232.422059 
L 501.639344 236.628325 
L 503.468852 241.567718 
L 505.298361 244.90041 
L 507.127869 249.251615 
L 508.957377 252.518535 
L 510.786885 256.83369 
L 512.616393 258.638281 
L 516.27541 262.771988 
L 518.104918 263.474964 
L 519.934426 265.067095 
L 523.593443 266.975754 
L 527.252459 267.299963 
L 529.081967 267.161312 
L 530.911475 267.179239 
L 532.740984 267.590845 
L 534.570492 267.239366 
L 536.4 267.005139 
L 538.229508 266.168943 
L 540.059016 266.102725 
L 541.888525 266.415849 
L 543.718033 265.936814 
L 545.547541 265.07212 
L 547.377049 263.640831 
L 549.206557 263.199865 
L 551.036066 262.895313 
L 552.865574 261.854184 
L 554.695082 261.064704 
L 556.52459 260.127689 
L 558.354098 259.576836 
L 562.013115 257.636217 
L 563.842623 256.874071 
L 565.672131 255.579496 
L 567.501639 255.329381 
L 569.331148 254.428697 
L 571.160656 252.799534 
L 572.990164 252.427059 
L 574.819672 251.204075 
L 576.64918 250.620585 
L 578.478689 249.620744 
L 580.308197 249.001778 
L 582.137705 248.919512 
L 585.796721 247.57255 
L 587.62623 247.471942 
L 589.455738 246.465061 
L 591.285246 246.219419 
L 593.114754 245.820703 
L 594.944262 244.024079 
L 596.77377 244.771108 
L 598.603279 243.701582 
L 600.432787 243.26562 
L 602.262295 243.186883 
L 604.091803 242.020251 
L 605.921311 241.758438 
L 607.75082 240.226549 
L 609.580328 239.415176 
L 613.239344 238.648314 
L 615.068852 238.256782 
L 616.898361 238.32259 
L 620.557377 238.105169 
L 622.386885 237.010235 
L 624.216393 236.290788 
L 626.045902 237.498332 
L 627.87541 237.008689 
L 629.704918 237.29827 
L 631.534426 236.456777 
L 633.363934 234.492769 
L 635.193443 234.669636 
L 637.022951 234.97758 
L 638.852459 235.968182 
L 640.681967 235.298702 
L 642.511475 235.461076 
L 644.340984 237.634674 
L 646.170492 235.381238 
L 648 237.391572 
L 649.829508 235.639905 
L 651.659016 235.079778 
L 653.488525 235.880409 
L 655.318033 235.755433 
L 657.147541 234.013293 
L 658.977049 233.349364 
L 660.806557 231.764089 
L 662.636066 233.39676 
L 662.636066 233.39676 
" style="fill:none;stroke:#fc997a;stroke-linecap:square;stroke-width:1.5;"/>
   </g>
   <g id="line2d_71">
    <path clip-path="url(#p638ac5c112)" d="M 90 200.295083 
L 648 200.295083 
" style="fill:none;stroke:#000000;stroke-dasharray:3.7,1.6;stroke-dashoffset:0;"/>
   </g>
   <g id="patch_3">
    <path d="M 90 315 
L 90 43.2 
" style="fill:none;stroke:#000000;stroke-linecap:square;stroke-linejoin:miter;stroke-width:0.8;"/>
   </g>
   <g id="patch_4">
    <path d="M 648 315 
L 648 43.2 
" style="fill:none;stroke:#000000;stroke-linecap:square;stroke-linejoin:miter;stroke-width:0.8;"/>
   </g>
   <g id="patch_5">
    <path d="M 90 315 
L 648 315 
" style="fill:none;stroke:#000000;stroke-linecap:square;stroke-linejoin:miter;stroke-width:0.8;"/>
   </g>
   <g id="patch_6">
    <path d="M 90 43.2 
L 648 43.2 
" style="fill:none;stroke:#000000;stroke-linecap:square;stroke-linejoin:miter;stroke-width:0.8;"/>
   </g>
   <g id="text_20">
    <!-- 211   $R_t$ -->
    <g transform="translate(320.82 37.2)scale(0.12 -0.12)">
     <defs>
      <path id="DejaVuSans-32"/>
      <path d="M 19.140625 33.40625 
L 19.140625 0 
L 10.109375 0 
L 10.109375 29.6875 
z
M 56.25 27.828125 
L 56.25 0 
L 47.21875 0 
L 47.21875 29.6875 
Q 47.21875 40.234375 44.0625 43.96875 
Q 40.921875 47.703125 31.84375 47.703125 
L 9.078125 47.703125 
L 9.078125 54.6875 
L 31.734375 54.6875 
Q 45.265625 54.6875 50.75 48.578125 
Q 56.25 42.484375 56.25 27.828125 
z
" id="DejaVuSans-1492"/>
      <path d="M 18.796875 0 
L 38.53125 47.703125 
L 4.296875 47.703125 
L 4.296875 72.90625 
L 13.421875 72.90625 
L 13.421875 54.6875 
L 49.21875 54.640625 
L 49.078125 49.265625 
L 28.328125 0 
z
" id="DejaVuSans-1500"/>
      <path d="M 18.171875 54.6875 
L 18.171875 0 
L 9.078125 0 
L 9.078125 54.6875 
z
" id="DejaVuSans-1493"/>
      <path d="M 56.25 29.59375 
L 56.25 0 
L 47.171875 0 
L 47.171875 30.90625 
Q 47.171875 40.578125 44 44.140625 
Q 40.828125 47.703125 31.84375 47.703125 
L 18.109375 47.703125 
L 18.109375 0 
L 9.078125 0 
L 9.078125 54.6875 
L 31.734375 54.6875 
Q 45.21875 54.6875 50.734375 48.828125 
Q 56.25 42.96875 56.25 29.59375 
z
" id="DejaVuSans-1495"/>
      <path d="M 19.34375 -20.796875 
L 19.34375 33.40625 
L 10.25 29.6875 
L 10.25 -20.796875 
z
M 33.0625 0 
L 52.78125 47.703125 
L 9.078125 47.703125 
L 9.078125 54.640625 
L 63.328125 54.640625 
L 63.328125 49.265625 
L 42.578125 0 
z
" id="DejaVuSans-1511"/>
      <path d="M 4.296875 54.6875 
L 14.890625 54.6875 
Q 15.09375 54.15625 16.703125 50.3125 
Q 18.3125 46.484375 19.390625 42.671875 
Q 20.75 46.09375 22.625 48.53125 
Q 24.515625 50.984375 26.359375 52.296875 
Q 28.21875 53.609375 30.609375 54.34375 
Q 33.015625 55.078125 34.859375 55.265625 
Q 36.71875 55.46875 39.203125 55.46875 
Q 58.84375 55.46875 58.84375 29.59375 
L 58.84375 0 
L 31.390625 0 
L 31.390625 6.9375 
L 49.75 6.9375 
L 49.75 29.59375 
Q 49.75 39.109375 46.765625 43.671875 
Q 43.796875 48.25 39.0625 48.25 
Q 30.28125 48.25 26.078125 40.4375 
Q 23.734375 35.984375 21.6875 25.921875 
Q 21.578125 25.25 21.34375 24.125 
L 16.546875 0 
L 7.46875 0 
L 11.375 20.40625 
Q 11.53125 21.1875 11.890625 22.96875 
Q 12.25 24.75 12.375 25.40625 
Q 12.5 26.078125 12.671875 27.3125 
Q 12.84375 28.5625 12.90625 29.515625 
Q 12.984375 30.46875 12.984375 31.546875 
Q 12.984375 34.671875 10.71875 41.09375 
Q 8.453125 47.515625 4.296875 54.6875 
z
" id="DejaVuSans-1502"/>
      <path d="M 44.140625 40.828125 
L 44.140625 54.6875 
L 53.515625 54.6875 
L 53.515625 40.828125 
Q 53.515625 35.0625 53.046875 30.71875 
Q 52.59375 26.375 51.390625 22.09375 
Q 50.203125 17.828125 48.046875 14.5 
Q 45.90625 11.1875 42.578125 8.078125 
Q 39.265625 4.984375 34.515625 2.390625 
Q 29.78125 -0.203125 23.4375 -2.484375 
L 4.6875 -9.28125 
L 4.6875 -1.03125 
L 18.953125 4.046875 
L 4.296875 54.6875 
L 13.765625 54.6875 
L 27.25 7.125 
Q 33.6875 9.90625 37.203125 13.5625 
Q 40.71875 17.234375 42.421875 23.671875 
Q 44.140625 30.125 44.140625 40.828125 
z
" id="DejaVuSans-1506"/>
      <path d="M 25.203125 64.796875 
L 20.21875 38.921875 
L 32.90625 38.921875 
Q 40.375 38.921875 44.984375 43.046875 
Q 49.609375 47.171875 49.609375 53.8125 
Q 49.609375 59.125 46.5 61.953125 
Q 43.40625 64.796875 37.59375 64.796875 
z
M 43.3125 35.015625 
Q 46.4375 34.28125 48.515625 31.390625 
Q 50.59375 28.515625 53.328125 19.921875 
L 59.515625 0 
L 49.125 0 
L 43.40625 18.703125 
Q 41.21875 25.921875 38.328125 28.359375 
Q 35.453125 30.8125 29.5 30.8125 
L 18.609375 30.8125 
L 12.59375 0 
L 2.6875 0 
L 16.890625 72.90625 
L 39.109375 72.90625 
Q 49.21875 72.90625 54.609375 68.328125 
Q 60.015625 63.765625 60.015625 55.171875 
Q 60.015625 47.5625 55.421875 41.984375 
Q 50.828125 36.421875 43.3125 35.015625 
z
" id="DejaVuSans-Oblique-82"/>
      <path d="M 42.28125 54.6875 
L 40.921875 47.703125 
L 23 47.703125 
L 17.1875 18.015625 
Q 16.890625 16.359375 16.75 15.234375 
Q 16.609375 14.109375 16.609375 13.484375 
Q 16.609375 10.359375 18.484375 8.9375 
Q 20.359375 7.515625 24.515625 7.515625 
L 33.59375 7.515625 
L 32.078125 0 
L 23.484375 0 
Q 15.484375 0 11.546875 3.125 
Q 7.625 6.25 7.625 12.59375 
Q 7.625 13.71875 7.765625 15.0625 
Q 7.90625 16.40625 8.203125 18.015625 
L 14.015625 47.703125 
L 6.390625 47.703125 
L 7.8125 54.6875 
L 15.28125 54.6875 
L 18.3125 70.21875 
L 27.296875 70.21875 
L 24.3125 54.6875 
z
" id="DejaVuSans-Oblique-116"/>
     </defs>
     <use transform="translate(0 0.78125)" xlink:href="#DejaVuSans-50"/>
     <use transform="translate(63.623047 0.78125)" xlink:href="#DejaVuSans-49"/>
     <use transform="translate(127.246094 0.78125)" xlink:href="#DejaVuSans-49"/>
     <use transform="translate(190.869141 0.78125)" xlink:href="#DejaVuSans-32"/>
     <use transform="translate(222.65625 0.78125)" xlink:href="#DejaVuSans-1492"/>
     <use transform="translate(287.988281 0.78125)" xlink:href="#DejaVuSans-1500"/>
     <use transform="translate(344.824219 0.78125)" xlink:href="#DejaVuSans-1493"/>
     <use transform="translate(372.070312 0.78125)" xlink:href="#DejaVuSans-1495"/>
     <use transform="translate(437.402344 0.78125)" xlink:href="#DejaVuSans-32"/>
     <use transform="translate(469.189453 0.78125)" xlink:href="#DejaVuSans-1511"/>
     <use transform="translate(540.136719 0.78125)" xlink:href="#DejaVuSans-1502"/>
     <use transform="translate(608.056641 0.78125)" xlink:href="#DejaVuSans-1506"/>
     <use transform="translate(670.654297 0.78125)" xlink:href="#DejaVuSans-32"/>
     <use transform="translate(702.441406 0.78125)" xlink:href="#DejaVuSans-Oblique-82"/>
     <use transform="translate(771.923828 -15.625)scale(0.7)" xlink:href="#DejaVuSans-Oblique-116"/>
    </g>
   </g>
  </g>
 </g>
 <defs>
  <clipPath id="p638ac5c112">
   <rect height="271.8" width="558" x="90" y="43.2"/>
  </clipPath>
 </defs>
</svg>
