<?xml version="1.0" encoding="utf-8" standalone="no"?>
<!DOCTYPE svg PUBLIC "-//W3C//DTD SVG 1.1//EN"
  "http://www.w3.org/Graphics/SVG/1.1/DTD/svg11.dtd">
<!-- Created with matplotlib (https://matplotlib.org/) -->
<svg height="360pt" version="1.1" viewBox="0 0 720 360" width="720pt" xmlns="http://www.w3.org/2000/svg" xmlns:xlink="http://www.w3.org/1999/xlink">
 <metadata>
  <rdf:RDF xmlns:cc="http://creativecommons.org/ns#" xmlns:dc="http://purl.org/dc/elements/1.1/" xmlns:rdf="http://www.w3.org/1999/02/22-rdf-syntax-ns#">
   <cc:Work>
    <dc:type rdf:resource="http://purl.org/dc/dcmitype/StillImage"/>
    <dc:date>2021-01-27T18:10:30.643202</dc:date>
    <dc:format>image/svg+xml</dc:format>
    <dc:creator>
     <cc:Agent>
      <dc:title>Matplotlib v3.3.2, https://matplotlib.org/</dc:title>
     </cc:Agent>
    </dc:creator>
   </cc:Work>
  </rdf:RDF>
 </metadata>
 <defs>
  <style type="text/css">*{stroke-linecap:butt;stroke-linejoin:round;}</style>
 </defs>
 <g id="figure_1">
  <g id="patch_1">
   <path d="M 0 360 
L 720 360 
L 720 0 
L 0 0 
z
" style="fill:#ffffff;"/>
  </g>
  <g id="axes_1">
   <g id="patch_2">
    <path d="M 90 315 
L 648 315 
L 648 43.2 
L 90 43.2 
z
" style="fill:#ffffff;"/>
   </g>
   <g id="matplotlib.axis_1">
    <g id="xtick_1">
     <g id="line2d_1">
      <defs>
       <path d="M 0 0 
L 0 3.5 
" id="mca0636da58" style="stroke:#000000;stroke-width:0.8;"/>
      </defs>
      <g>
       <use style="stroke:#000000;stroke-width:0.8;" x="90" xlink:href="#mca0636da58" y="315"/>
      </g>
     </g>
    </g>
    <g id="xtick_2">
     <g id="line2d_2">
      <g>
       <use style="stroke:#000000;stroke-width:0.8;" x="132.185567" xlink:href="#mca0636da58" y="315"/>
      </g>
     </g>
     <g id="text_1">
      <!-- May -->
      <g transform="translate(121.848067 329.598437)scale(0.1 -0.1)">
       <defs>
        <path d="M 9.8125 72.90625 
L 24.515625 72.90625 
L 43.109375 23.296875 
L 61.8125 72.90625 
L 76.515625 72.90625 
L 76.515625 0 
L 66.890625 0 
L 66.890625 64.015625 
L 48.09375 14.015625 
L 38.1875 14.015625 
L 19.390625 64.015625 
L 19.390625 0 
L 9.8125 0 
z
" id="DejaVuSans-77"/>
        <path d="M 34.28125 27.484375 
Q 23.390625 27.484375 19.1875 25 
Q 14.984375 22.515625 14.984375 16.5 
Q 14.984375 11.71875 18.140625 8.90625 
Q 21.296875 6.109375 26.703125 6.109375 
Q 34.1875 6.109375 38.703125 11.40625 
Q 43.21875 16.703125 43.21875 25.484375 
L 43.21875 27.484375 
z
M 52.203125 31.203125 
L 52.203125 0 
L 43.21875 0 
L 43.21875 8.296875 
Q 40.140625 3.328125 35.546875 0.953125 
Q 30.953125 -1.421875 24.3125 -1.421875 
Q 15.921875 -1.421875 10.953125 3.296875 
Q 6 8.015625 6 15.921875 
Q 6 25.140625 12.171875 29.828125 
Q 18.359375 34.515625 30.609375 34.515625 
L 43.21875 34.515625 
L 43.21875 35.40625 
Q 43.21875 41.609375 39.140625 45 
Q 35.0625 48.390625 27.6875 48.390625 
Q 23 48.390625 18.546875 47.265625 
Q 14.109375 46.140625 10.015625 43.890625 
L 10.015625 52.203125 
Q 14.9375 54.109375 19.578125 55.046875 
Q 24.21875 56 28.609375 56 
Q 40.484375 56 46.34375 49.84375 
Q 52.203125 43.703125 52.203125 31.203125 
z
" id="DejaVuSans-97"/>
        <path d="M 32.171875 -5.078125 
Q 28.375 -14.84375 24.75 -17.8125 
Q 21.140625 -20.796875 15.09375 -20.796875 
L 7.90625 -20.796875 
L 7.90625 -13.28125 
L 13.1875 -13.28125 
Q 16.890625 -13.28125 18.9375 -11.515625 
Q 21 -9.765625 23.484375 -3.21875 
L 25.09375 0.875 
L 2.984375 54.6875 
L 12.5 54.6875 
L 29.59375 11.921875 
L 46.6875 54.6875 
L 56.203125 54.6875 
z
" id="DejaVuSans-121"/>
       </defs>
       <use xlink:href="#DejaVuSans-77"/>
       <use x="86.279297" xlink:href="#DejaVuSans-97"/>
       <use x="147.558594" xlink:href="#DejaVuSans-121"/>
      </g>
     </g>
    </g>
    <g id="xtick_3">
     <g id="line2d_3">
      <g>
       <use style="stroke:#000000;stroke-width:0.8;" x="191.628866" xlink:href="#mca0636da58" y="315"/>
      </g>
     </g>
     <g id="text_2">
      <!-- Jun -->
      <g transform="translate(183.816366 329.598437)scale(0.1 -0.1)">
       <defs>
        <path d="M 9.8125 72.90625 
L 19.671875 72.90625 
L 19.671875 5.078125 
Q 19.671875 -8.109375 14.671875 -14.0625 
Q 9.671875 -20.015625 -1.421875 -20.015625 
L -5.171875 -20.015625 
L -5.171875 -11.71875 
L -2.09375 -11.71875 
Q 4.4375 -11.71875 7.125 -8.046875 
Q 9.8125 -4.390625 9.8125 5.078125 
z
" id="DejaVuSans-74"/>
        <path d="M 8.5 21.578125 
L 8.5 54.6875 
L 17.484375 54.6875 
L 17.484375 21.921875 
Q 17.484375 14.15625 20.5 10.265625 
Q 23.53125 6.390625 29.59375 6.390625 
Q 36.859375 6.390625 41.078125 11.03125 
Q 45.3125 15.671875 45.3125 23.6875 
L 45.3125 54.6875 
L 54.296875 54.6875 
L 54.296875 0 
L 45.3125 0 
L 45.3125 8.40625 
Q 42.046875 3.421875 37.71875 1 
Q 33.40625 -1.421875 27.6875 -1.421875 
Q 18.265625 -1.421875 13.375 4.4375 
Q 8.5 10.296875 8.5 21.578125 
z
M 31.109375 56 
z
" id="DejaVuSans-117"/>
        <path d="M 54.890625 33.015625 
L 54.890625 0 
L 45.90625 0 
L 45.90625 32.71875 
Q 45.90625 40.484375 42.875 44.328125 
Q 39.84375 48.1875 33.796875 48.1875 
Q 26.515625 48.1875 22.3125 43.546875 
Q 18.109375 38.921875 18.109375 30.90625 
L 18.109375 0 
L 9.078125 0 
L 9.078125 54.6875 
L 18.109375 54.6875 
L 18.109375 46.1875 
Q 21.34375 51.125 25.703125 53.5625 
Q 30.078125 56 35.796875 56 
Q 45.21875 56 50.046875 50.171875 
Q 54.890625 44.34375 54.890625 33.015625 
z
" id="DejaVuSans-110"/>
       </defs>
       <use xlink:href="#DejaVuSans-74"/>
       <use x="29.492188" xlink:href="#DejaVuSans-117"/>
       <use x="92.871094" xlink:href="#DejaVuSans-110"/>
      </g>
     </g>
    </g>
    <g id="xtick_4">
     <g id="line2d_4">
      <g>
       <use style="stroke:#000000;stroke-width:0.8;" x="249.154639" xlink:href="#mca0636da58" y="315"/>
      </g>
     </g>
     <g id="text_3">
      <!-- Jul -->
      <g transform="translate(243.121827 329.598437)scale(0.1 -0.1)">
       <defs>
        <path d="M 9.421875 75.984375 
L 18.40625 75.984375 
L 18.40625 0 
L 9.421875 0 
z
" id="DejaVuSans-108"/>
       </defs>
       <use xlink:href="#DejaVuSans-74"/>
       <use x="29.492188" xlink:href="#DejaVuSans-117"/>
       <use x="92.871094" xlink:href="#DejaVuSans-108"/>
      </g>
     </g>
    </g>
    <g id="xtick_5">
     <g id="line2d_5">
      <g>
       <use style="stroke:#000000;stroke-width:0.8;" x="308.597938" xlink:href="#mca0636da58" y="315"/>
      </g>
     </g>
     <g id="text_4">
      <!-- Aug -->
      <g transform="translate(298.834657 329.598437)scale(0.1 -0.1)">
       <defs>
        <path d="M 34.1875 63.1875 
L 20.796875 26.90625 
L 47.609375 26.90625 
z
M 28.609375 72.90625 
L 39.796875 72.90625 
L 67.578125 0 
L 57.328125 0 
L 50.6875 18.703125 
L 17.828125 18.703125 
L 11.1875 0 
L 0.78125 0 
z
" id="DejaVuSans-65"/>
        <path d="M 45.40625 27.984375 
Q 45.40625 37.75 41.375 43.109375 
Q 37.359375 48.484375 30.078125 48.484375 
Q 22.859375 48.484375 18.828125 43.109375 
Q 14.796875 37.75 14.796875 27.984375 
Q 14.796875 18.265625 18.828125 12.890625 
Q 22.859375 7.515625 30.078125 7.515625 
Q 37.359375 7.515625 41.375 12.890625 
Q 45.40625 18.265625 45.40625 27.984375 
z
M 54.390625 6.78125 
Q 54.390625 -7.171875 48.1875 -13.984375 
Q 42 -20.796875 29.203125 -20.796875 
Q 24.46875 -20.796875 20.265625 -20.09375 
Q 16.0625 -19.390625 12.109375 -17.921875 
L 12.109375 -9.1875 
Q 16.0625 -11.328125 19.921875 -12.34375 
Q 23.78125 -13.375 27.78125 -13.375 
Q 36.625 -13.375 41.015625 -8.765625 
Q 45.40625 -4.15625 45.40625 5.171875 
L 45.40625 9.625 
Q 42.625 4.78125 38.28125 2.390625 
Q 33.9375 0 27.875 0 
Q 17.828125 0 11.671875 7.65625 
Q 5.515625 15.328125 5.515625 27.984375 
Q 5.515625 40.671875 11.671875 48.328125 
Q 17.828125 56 27.875 56 
Q 33.9375 56 38.28125 53.609375 
Q 42.625 51.21875 45.40625 46.390625 
L 45.40625 54.6875 
L 54.390625 54.6875 
z
" id="DejaVuSans-103"/>
       </defs>
       <use xlink:href="#DejaVuSans-65"/>
       <use x="68.408203" xlink:href="#DejaVuSans-117"/>
       <use x="131.787109" xlink:href="#DejaVuSans-103"/>
      </g>
     </g>
    </g>
    <g id="xtick_6">
     <g id="line2d_6">
      <g>
       <use style="stroke:#000000;stroke-width:0.8;" x="368.041237" xlink:href="#mca0636da58" y="315"/>
      </g>
     </g>
     <g id="text_5">
      <!-- Sep -->
      <g transform="translate(358.616237 329.598437)scale(0.1 -0.1)">
       <defs>
        <path d="M 53.515625 70.515625 
L 53.515625 60.890625 
Q 47.90625 63.578125 42.921875 64.890625 
Q 37.9375 66.21875 33.296875 66.21875 
Q 25.25 66.21875 20.875 63.09375 
Q 16.5 59.96875 16.5 54.203125 
Q 16.5 49.359375 19.40625 46.890625 
Q 22.3125 44.4375 30.421875 42.921875 
L 36.375 41.703125 
Q 47.40625 39.59375 52.65625 34.296875 
Q 57.90625 29 57.90625 20.125 
Q 57.90625 9.515625 50.796875 4.046875 
Q 43.703125 -1.421875 29.984375 -1.421875 
Q 24.8125 -1.421875 18.96875 -0.25 
Q 13.140625 0.921875 6.890625 3.21875 
L 6.890625 13.375 
Q 12.890625 10.015625 18.65625 8.296875 
Q 24.421875 6.59375 29.984375 6.59375 
Q 38.421875 6.59375 43.015625 9.90625 
Q 47.609375 13.234375 47.609375 19.390625 
Q 47.609375 24.75 44.3125 27.78125 
Q 41.015625 30.8125 33.5 32.328125 
L 27.484375 33.5 
Q 16.453125 35.6875 11.515625 40.375 
Q 6.59375 45.0625 6.59375 53.421875 
Q 6.59375 63.09375 13.40625 68.65625 
Q 20.21875 74.21875 32.171875 74.21875 
Q 37.3125 74.21875 42.625 73.28125 
Q 47.953125 72.359375 53.515625 70.515625 
z
" id="DejaVuSans-83"/>
        <path d="M 56.203125 29.59375 
L 56.203125 25.203125 
L 14.890625 25.203125 
Q 15.484375 15.921875 20.484375 11.0625 
Q 25.484375 6.203125 34.421875 6.203125 
Q 39.59375 6.203125 44.453125 7.46875 
Q 49.3125 8.734375 54.109375 11.28125 
L 54.109375 2.78125 
Q 49.265625 0.734375 44.1875 -0.34375 
Q 39.109375 -1.421875 33.890625 -1.421875 
Q 20.796875 -1.421875 13.15625 6.1875 
Q 5.515625 13.8125 5.515625 26.8125 
Q 5.515625 40.234375 12.765625 48.109375 
Q 20.015625 56 32.328125 56 
Q 43.359375 56 49.78125 48.890625 
Q 56.203125 41.796875 56.203125 29.59375 
z
M 47.21875 32.234375 
Q 47.125 39.59375 43.09375 43.984375 
Q 39.0625 48.390625 32.421875 48.390625 
Q 24.90625 48.390625 20.390625 44.140625 
Q 15.875 39.890625 15.1875 32.171875 
z
" id="DejaVuSans-101"/>
        <path d="M 18.109375 8.203125 
L 18.109375 -20.796875 
L 9.078125 -20.796875 
L 9.078125 54.6875 
L 18.109375 54.6875 
L 18.109375 46.390625 
Q 20.953125 51.265625 25.265625 53.625 
Q 29.59375 56 35.59375 56 
Q 45.5625 56 51.78125 48.09375 
Q 58.015625 40.1875 58.015625 27.296875 
Q 58.015625 14.40625 51.78125 6.484375 
Q 45.5625 -1.421875 35.59375 -1.421875 
Q 29.59375 -1.421875 25.265625 0.953125 
Q 20.953125 3.328125 18.109375 8.203125 
z
M 48.6875 27.296875 
Q 48.6875 37.203125 44.609375 42.84375 
Q 40.53125 48.484375 33.40625 48.484375 
Q 26.265625 48.484375 22.1875 42.84375 
Q 18.109375 37.203125 18.109375 27.296875 
Q 18.109375 17.390625 22.1875 11.75 
Q 26.265625 6.109375 33.40625 6.109375 
Q 40.53125 6.109375 44.609375 11.75 
Q 48.6875 17.390625 48.6875 27.296875 
z
" id="DejaVuSans-112"/>
       </defs>
       <use xlink:href="#DejaVuSans-83"/>
       <use x="63.476562" xlink:href="#DejaVuSans-101"/>
       <use x="125" xlink:href="#DejaVuSans-112"/>
      </g>
     </g>
    </g>
    <g id="xtick_7">
     <g id="line2d_7">
      <g>
       <use style="stroke:#000000;stroke-width:0.8;" x="425.56701" xlink:href="#mca0636da58" y="315"/>
      </g>
     </g>
     <g id="text_6">
      <!-- Oct -->
      <g transform="translate(416.921698 329.598437)scale(0.1 -0.1)">
       <defs>
        <path d="M 39.40625 66.21875 
Q 28.65625 66.21875 22.328125 58.203125 
Q 16.015625 50.203125 16.015625 36.375 
Q 16.015625 22.609375 22.328125 14.59375 
Q 28.65625 6.59375 39.40625 6.59375 
Q 50.140625 6.59375 56.421875 14.59375 
Q 62.703125 22.609375 62.703125 36.375 
Q 62.703125 50.203125 56.421875 58.203125 
Q 50.140625 66.21875 39.40625 66.21875 
z
M 39.40625 74.21875 
Q 54.734375 74.21875 63.90625 63.9375 
Q 73.09375 53.65625 73.09375 36.375 
Q 73.09375 19.140625 63.90625 8.859375 
Q 54.734375 -1.421875 39.40625 -1.421875 
Q 24.03125 -1.421875 14.8125 8.828125 
Q 5.609375 19.09375 5.609375 36.375 
Q 5.609375 53.65625 14.8125 63.9375 
Q 24.03125 74.21875 39.40625 74.21875 
z
" id="DejaVuSans-79"/>
        <path d="M 48.78125 52.59375 
L 48.78125 44.1875 
Q 44.96875 46.296875 41.140625 47.34375 
Q 37.3125 48.390625 33.40625 48.390625 
Q 24.65625 48.390625 19.8125 42.84375 
Q 14.984375 37.3125 14.984375 27.296875 
Q 14.984375 17.28125 19.8125 11.734375 
Q 24.65625 6.203125 33.40625 6.203125 
Q 37.3125 6.203125 41.140625 7.25 
Q 44.96875 8.296875 48.78125 10.40625 
L 48.78125 2.09375 
Q 45.015625 0.34375 40.984375 -0.53125 
Q 36.96875 -1.421875 32.421875 -1.421875 
Q 20.0625 -1.421875 12.78125 6.34375 
Q 5.515625 14.109375 5.515625 27.296875 
Q 5.515625 40.671875 12.859375 48.328125 
Q 20.21875 56 33.015625 56 
Q 37.15625 56 41.109375 55.140625 
Q 45.0625 54.296875 48.78125 52.59375 
z
" id="DejaVuSans-99"/>
        <path d="M 18.3125 70.21875 
L 18.3125 54.6875 
L 36.8125 54.6875 
L 36.8125 47.703125 
L 18.3125 47.703125 
L 18.3125 18.015625 
Q 18.3125 11.328125 20.140625 9.421875 
Q 21.96875 7.515625 27.59375 7.515625 
L 36.8125 7.515625 
L 36.8125 0 
L 27.59375 0 
Q 17.1875 0 13.234375 3.875 
Q 9.28125 7.765625 9.28125 18.015625 
L 9.28125 47.703125 
L 2.6875 47.703125 
L 2.6875 54.6875 
L 9.28125 54.6875 
L 9.28125 70.21875 
z
" id="DejaVuSans-116"/>
       </defs>
       <use xlink:href="#DejaVuSans-79"/>
       <use x="78.710938" xlink:href="#DejaVuSans-99"/>
       <use x="133.691406" xlink:href="#DejaVuSans-116"/>
      </g>
     </g>
    </g>
    <g id="xtick_8">
     <g id="line2d_8">
      <g>
       <use style="stroke:#000000;stroke-width:0.8;" x="485.010309" xlink:href="#mca0636da58" y="315"/>
      </g>
     </g>
     <g id="text_7">
      <!-- Nov -->
      <g transform="translate(475.250934 329.598437)scale(0.1 -0.1)">
       <defs>
        <path d="M 9.8125 72.90625 
L 23.09375 72.90625 
L 55.421875 11.921875 
L 55.421875 72.90625 
L 64.984375 72.90625 
L 64.984375 0 
L 51.703125 0 
L 19.390625 60.984375 
L 19.390625 0 
L 9.8125 0 
z
" id="DejaVuSans-78"/>
        <path d="M 30.609375 48.390625 
Q 23.390625 48.390625 19.1875 42.75 
Q 14.984375 37.109375 14.984375 27.296875 
Q 14.984375 17.484375 19.15625 11.84375 
Q 23.34375 6.203125 30.609375 6.203125 
Q 37.796875 6.203125 41.984375 11.859375 
Q 46.1875 17.53125 46.1875 27.296875 
Q 46.1875 37.015625 41.984375 42.703125 
Q 37.796875 48.390625 30.609375 48.390625 
z
M 30.609375 56 
Q 42.328125 56 49.015625 48.375 
Q 55.71875 40.765625 55.71875 27.296875 
Q 55.71875 13.875 49.015625 6.21875 
Q 42.328125 -1.421875 30.609375 -1.421875 
Q 18.84375 -1.421875 12.171875 6.21875 
Q 5.515625 13.875 5.515625 27.296875 
Q 5.515625 40.765625 12.171875 48.375 
Q 18.84375 56 30.609375 56 
z
" id="DejaVuSans-111"/>
        <path d="M 2.984375 54.6875 
L 12.5 54.6875 
L 29.59375 8.796875 
L 46.6875 54.6875 
L 56.203125 54.6875 
L 35.6875 0 
L 23.484375 0 
z
" id="DejaVuSans-118"/>
       </defs>
       <use xlink:href="#DejaVuSans-78"/>
       <use x="74.804688" xlink:href="#DejaVuSans-111"/>
       <use x="135.986328" xlink:href="#DejaVuSans-118"/>
      </g>
     </g>
    </g>
    <g id="xtick_9">
     <g id="line2d_9">
      <g>
       <use style="stroke:#000000;stroke-width:0.8;" x="542.536082" xlink:href="#mca0636da58" y="315"/>
      </g>
     </g>
     <g id="text_8">
      <!-- Dec -->
      <g transform="translate(532.860301 329.598437)scale(0.1 -0.1)">
       <defs>
        <path d="M 19.671875 64.796875 
L 19.671875 8.109375 
L 31.59375 8.109375 
Q 46.6875 8.109375 53.6875 14.9375 
Q 60.6875 21.78125 60.6875 36.53125 
Q 60.6875 51.171875 53.6875 57.984375 
Q 46.6875 64.796875 31.59375 64.796875 
z
M 9.8125 72.90625 
L 30.078125 72.90625 
Q 51.265625 72.90625 61.171875 64.09375 
Q 71.09375 55.28125 71.09375 36.53125 
Q 71.09375 17.671875 61.125 8.828125 
Q 51.171875 0 30.078125 0 
L 9.8125 0 
z
" id="DejaVuSans-68"/>
       </defs>
       <use xlink:href="#DejaVuSans-68"/>
       <use x="77.001953" xlink:href="#DejaVuSans-101"/>
       <use x="138.525391" xlink:href="#DejaVuSans-99"/>
      </g>
     </g>
    </g>
    <g id="xtick_10">
     <g id="line2d_10">
      <g>
       <use style="stroke:#000000;stroke-width:0.8;" x="601.979381" xlink:href="#mca0636da58" y="315"/>
      </g>
     </g>
     <g id="text_9">
      <!-- Jan -->
      <g transform="translate(594.271569 329.598437)scale(0.1 -0.1)">
       <use xlink:href="#DejaVuSans-74"/>
       <use x="29.492188" xlink:href="#DejaVuSans-97"/>
       <use x="90.771484" xlink:href="#DejaVuSans-110"/>
      </g>
      <!-- 2021 -->
      <g transform="translate(589.254381 340.79625)scale(0.1 -0.1)">
       <defs>
        <path d="M 19.1875 8.296875 
L 53.609375 8.296875 
L 53.609375 0 
L 7.328125 0 
L 7.328125 8.296875 
Q 12.9375 14.109375 22.625 23.890625 
Q 32.328125 33.6875 34.8125 36.53125 
Q 39.546875 41.84375 41.421875 45.53125 
Q 43.3125 49.21875 43.3125 52.78125 
Q 43.3125 58.59375 39.234375 62.25 
Q 35.15625 65.921875 28.609375 65.921875 
Q 23.96875 65.921875 18.8125 64.3125 
Q 13.671875 62.703125 7.8125 59.421875 
L 7.8125 69.390625 
Q 13.765625 71.78125 18.9375 73 
Q 24.125 74.21875 28.421875 74.21875 
Q 39.75 74.21875 46.484375 68.546875 
Q 53.21875 62.890625 53.21875 53.421875 
Q 53.21875 48.921875 51.53125 44.890625 
Q 49.859375 40.875 45.40625 35.40625 
Q 44.1875 33.984375 37.640625 27.21875 
Q 31.109375 20.453125 19.1875 8.296875 
z
" id="DejaVuSans-50"/>
        <path d="M 31.78125 66.40625 
Q 24.171875 66.40625 20.328125 58.90625 
Q 16.5 51.421875 16.5 36.375 
Q 16.5 21.390625 20.328125 13.890625 
Q 24.171875 6.390625 31.78125 6.390625 
Q 39.453125 6.390625 43.28125 13.890625 
Q 47.125 21.390625 47.125 36.375 
Q 47.125 51.421875 43.28125 58.90625 
Q 39.453125 66.40625 31.78125 66.40625 
z
M 31.78125 74.21875 
Q 44.046875 74.21875 50.515625 64.515625 
Q 56.984375 54.828125 56.984375 36.375 
Q 56.984375 17.96875 50.515625 8.265625 
Q 44.046875 -1.421875 31.78125 -1.421875 
Q 19.53125 -1.421875 13.0625 8.265625 
Q 6.59375 17.96875 6.59375 36.375 
Q 6.59375 54.828125 13.0625 64.515625 
Q 19.53125 74.21875 31.78125 74.21875 
z
" id="DejaVuSans-48"/>
        <path d="M 12.40625 8.296875 
L 28.515625 8.296875 
L 28.515625 63.921875 
L 10.984375 60.40625 
L 10.984375 69.390625 
L 28.421875 72.90625 
L 38.28125 72.90625 
L 38.28125 8.296875 
L 54.390625 8.296875 
L 54.390625 0 
L 12.40625 0 
z
" id="DejaVuSans-49"/>
       </defs>
       <use xlink:href="#DejaVuSans-50"/>
       <use x="63.623047" xlink:href="#DejaVuSans-48"/>
       <use x="127.246094" xlink:href="#DejaVuSans-50"/>
       <use x="190.869141" xlink:href="#DejaVuSans-49"/>
      </g>
     </g>
    </g>
    <g id="xtick_11">
     <g id="line2d_11">
      <g>
       <use style="stroke:#000000;stroke-width:0.8;" x="648" xlink:href="#mca0636da58" y="315"/>
      </g>
     </g>
    </g>
    <g id="xtick_12">
     <g id="line2d_12">
      <defs>
       <path d="M 0 0 
L 0 2 
" id="mfed919f7bc" style="stroke:#000000;stroke-width:0.6;"/>
      </defs>
      <g>
       <use style="stroke:#000000;stroke-width:0.6;" x="97.670103" xlink:href="#mfed919f7bc" y="315"/>
      </g>
     </g>
    </g>
    <g id="xtick_13">
     <g id="line2d_13">
      <g>
       <use style="stroke:#000000;stroke-width:0.6;" x="111.092784" xlink:href="#mfed919f7bc" y="315"/>
      </g>
     </g>
    </g>
    <g id="xtick_14">
     <g id="line2d_14">
      <g>
       <use style="stroke:#000000;stroke-width:0.6;" x="124.515464" xlink:href="#mfed919f7bc" y="315"/>
      </g>
     </g>
    </g>
    <g id="xtick_15">
     <g id="line2d_15">
      <g>
       <use style="stroke:#000000;stroke-width:0.6;" x="137.938144" xlink:href="#mfed919f7bc" y="315"/>
      </g>
     </g>
    </g>
    <g id="xtick_16">
     <g id="line2d_16">
      <g>
       <use style="stroke:#000000;stroke-width:0.6;" x="151.360825" xlink:href="#mfed919f7bc" y="315"/>
      </g>
     </g>
    </g>
    <g id="xtick_17">
     <g id="line2d_17">
      <g>
       <use style="stroke:#000000;stroke-width:0.6;" x="164.783505" xlink:href="#mfed919f7bc" y="315"/>
      </g>
     </g>
    </g>
    <g id="xtick_18">
     <g id="line2d_18">
      <g>
       <use style="stroke:#000000;stroke-width:0.6;" x="178.206186" xlink:href="#mfed919f7bc" y="315"/>
      </g>
     </g>
    </g>
    <g id="xtick_19">
     <g id="line2d_19">
      <g>
       <use style="stroke:#000000;stroke-width:0.6;" x="205.051546" xlink:href="#mfed919f7bc" y="315"/>
      </g>
     </g>
    </g>
    <g id="xtick_20">
     <g id="line2d_20">
      <g>
       <use style="stroke:#000000;stroke-width:0.6;" x="218.474227" xlink:href="#mfed919f7bc" y="315"/>
      </g>
     </g>
    </g>
    <g id="xtick_21">
     <g id="line2d_21">
      <g>
       <use style="stroke:#000000;stroke-width:0.6;" x="231.896907" xlink:href="#mfed919f7bc" y="315"/>
      </g>
     </g>
    </g>
    <g id="xtick_22">
     <g id="line2d_22">
      <g>
       <use style="stroke:#000000;stroke-width:0.6;" x="245.319588" xlink:href="#mfed919f7bc" y="315"/>
      </g>
     </g>
    </g>
    <g id="xtick_23">
     <g id="line2d_23">
      <g>
       <use style="stroke:#000000;stroke-width:0.6;" x="258.742268" xlink:href="#mfed919f7bc" y="315"/>
      </g>
     </g>
    </g>
    <g id="xtick_24">
     <g id="line2d_24">
      <g>
       <use style="stroke:#000000;stroke-width:0.6;" x="272.164948" xlink:href="#mfed919f7bc" y="315"/>
      </g>
     </g>
    </g>
    <g id="xtick_25">
     <g id="line2d_25">
      <g>
       <use style="stroke:#000000;stroke-width:0.6;" x="285.587629" xlink:href="#mfed919f7bc" y="315"/>
      </g>
     </g>
    </g>
    <g id="xtick_26">
     <g id="line2d_26">
      <g>
       <use style="stroke:#000000;stroke-width:0.6;" x="299.010309" xlink:href="#mfed919f7bc" y="315"/>
      </g>
     </g>
    </g>
    <g id="xtick_27">
     <g id="line2d_27">
      <g>
       <use style="stroke:#000000;stroke-width:0.6;" x="312.43299" xlink:href="#mfed919f7bc" y="315"/>
      </g>
     </g>
    </g>
    <g id="xtick_28">
     <g id="line2d_28">
      <g>
       <use style="stroke:#000000;stroke-width:0.6;" x="325.85567" xlink:href="#mfed919f7bc" y="315"/>
      </g>
     </g>
    </g>
    <g id="xtick_29">
     <g id="line2d_29">
      <g>
       <use style="stroke:#000000;stroke-width:0.6;" x="339.278351" xlink:href="#mfed919f7bc" y="315"/>
      </g>
     </g>
    </g>
    <g id="xtick_30">
     <g id="line2d_30">
      <g>
       <use style="stroke:#000000;stroke-width:0.6;" x="352.701031" xlink:href="#mfed919f7bc" y="315"/>
      </g>
     </g>
    </g>
    <g id="xtick_31">
     <g id="line2d_31">
      <g>
       <use style="stroke:#000000;stroke-width:0.6;" x="366.123711" xlink:href="#mfed919f7bc" y="315"/>
      </g>
     </g>
    </g>
    <g id="xtick_32">
     <g id="line2d_32">
      <g>
       <use style="stroke:#000000;stroke-width:0.6;" x="379.546392" xlink:href="#mfed919f7bc" y="315"/>
      </g>
     </g>
    </g>
    <g id="xtick_33">
     <g id="line2d_33">
      <g>
       <use style="stroke:#000000;stroke-width:0.6;" x="392.969072" xlink:href="#mfed919f7bc" y="315"/>
      </g>
     </g>
    </g>
    <g id="xtick_34">
     <g id="line2d_34">
      <g>
       <use style="stroke:#000000;stroke-width:0.6;" x="406.391753" xlink:href="#mfed919f7bc" y="315"/>
      </g>
     </g>
    </g>
    <g id="xtick_35">
     <g id="line2d_35">
      <g>
       <use style="stroke:#000000;stroke-width:0.6;" x="419.814433" xlink:href="#mfed919f7bc" y="315"/>
      </g>
     </g>
    </g>
    <g id="xtick_36">
     <g id="line2d_36">
      <g>
       <use style="stroke:#000000;stroke-width:0.6;" x="433.237113" xlink:href="#mfed919f7bc" y="315"/>
      </g>
     </g>
    </g>
    <g id="xtick_37">
     <g id="line2d_37">
      <g>
       <use style="stroke:#000000;stroke-width:0.6;" x="446.659794" xlink:href="#mfed919f7bc" y="315"/>
      </g>
     </g>
    </g>
    <g id="xtick_38">
     <g id="line2d_38">
      <g>
       <use style="stroke:#000000;stroke-width:0.6;" x="460.082474" xlink:href="#mfed919f7bc" y="315"/>
      </g>
     </g>
    </g>
    <g id="xtick_39">
     <g id="line2d_39">
      <g>
       <use style="stroke:#000000;stroke-width:0.6;" x="473.505155" xlink:href="#mfed919f7bc" y="315"/>
      </g>
     </g>
    </g>
    <g id="xtick_40">
     <g id="line2d_40">
      <g>
       <use style="stroke:#000000;stroke-width:0.6;" x="486.927835" xlink:href="#mfed919f7bc" y="315"/>
      </g>
     </g>
    </g>
    <g id="xtick_41">
     <g id="line2d_41">
      <g>
       <use style="stroke:#000000;stroke-width:0.6;" x="500.350515" xlink:href="#mfed919f7bc" y="315"/>
      </g>
     </g>
    </g>
    <g id="xtick_42">
     <g id="line2d_42">
      <g>
       <use style="stroke:#000000;stroke-width:0.6;" x="513.773196" xlink:href="#mfed919f7bc" y="315"/>
      </g>
     </g>
    </g>
    <g id="xtick_43">
     <g id="line2d_43">
      <g>
       <use style="stroke:#000000;stroke-width:0.6;" x="527.195876" xlink:href="#mfed919f7bc" y="315"/>
      </g>
     </g>
    </g>
    <g id="xtick_44">
     <g id="line2d_44">
      <g>
       <use style="stroke:#000000;stroke-width:0.6;" x="540.618557" xlink:href="#mfed919f7bc" y="315"/>
      </g>
     </g>
    </g>
    <g id="xtick_45">
     <g id="line2d_45">
      <g>
       <use style="stroke:#000000;stroke-width:0.6;" x="554.041237" xlink:href="#mfed919f7bc" y="315"/>
      </g>
     </g>
    </g>
    <g id="xtick_46">
     <g id="line2d_46">
      <g>
       <use style="stroke:#000000;stroke-width:0.6;" x="567.463918" xlink:href="#mfed919f7bc" y="315"/>
      </g>
     </g>
    </g>
    <g id="xtick_47">
     <g id="line2d_47">
      <g>
       <use style="stroke:#000000;stroke-width:0.6;" x="580.886598" xlink:href="#mfed919f7bc" y="315"/>
      </g>
     </g>
    </g>
    <g id="xtick_48">
     <g id="line2d_48">
      <g>
       <use style="stroke:#000000;stroke-width:0.6;" x="594.309278" xlink:href="#mfed919f7bc" y="315"/>
      </g>
     </g>
    </g>
    <g id="xtick_49">
     <g id="line2d_49">
      <g>
       <use style="stroke:#000000;stroke-width:0.6;" x="607.731959" xlink:href="#mfed919f7bc" y="315"/>
      </g>
     </g>
    </g>
    <g id="xtick_50">
     <g id="line2d_50">
      <g>
       <use style="stroke:#000000;stroke-width:0.6;" x="621.154639" xlink:href="#mfed919f7bc" y="315"/>
      </g>
     </g>
    </g>
    <g id="xtick_51">
     <g id="line2d_51">
      <g>
       <use style="stroke:#000000;stroke-width:0.6;" x="634.57732" xlink:href="#mfed919f7bc" y="315"/>
      </g>
     </g>
    </g>
    <g id="text_10">
     <!-- date -->
     <g transform="translate(357.725 354.474375)scale(0.1 -0.1)">
      <defs>
       <path d="M 45.40625 46.390625 
L 45.40625 75.984375 
L 54.390625 75.984375 
L 54.390625 0 
L 45.40625 0 
L 45.40625 8.203125 
Q 42.578125 3.328125 38.25 0.953125 
Q 33.9375 -1.421875 27.875 -1.421875 
Q 17.96875 -1.421875 11.734375 6.484375 
Q 5.515625 14.40625 5.515625 27.296875 
Q 5.515625 40.1875 11.734375 48.09375 
Q 17.96875 56 27.875 56 
Q 33.9375 56 38.25 53.625 
Q 42.578125 51.265625 45.40625 46.390625 
z
M 14.796875 27.296875 
Q 14.796875 17.390625 18.875 11.75 
Q 22.953125 6.109375 30.078125 6.109375 
Q 37.203125 6.109375 41.296875 11.75 
Q 45.40625 17.390625 45.40625 27.296875 
Q 45.40625 37.203125 41.296875 42.84375 
Q 37.203125 48.484375 30.078125 48.484375 
Q 22.953125 48.484375 18.875 42.84375 
Q 14.796875 37.203125 14.796875 27.296875 
z
" id="DejaVuSans-100"/>
      </defs>
      <use xlink:href="#DejaVuSans-100"/>
      <use x="63.476562" xlink:href="#DejaVuSans-97"/>
      <use x="124.755859" xlink:href="#DejaVuSans-116"/>
      <use x="163.964844" xlink:href="#DejaVuSans-101"/>
     </g>
    </g>
   </g>
   <g id="matplotlib.axis_2">
    <g id="ytick_1">
     <g id="line2d_52">
      <defs>
       <path d="M 0 0 
L -3.5 0 
" id="meec8cf5f7e" style="stroke:#000000;stroke-width:0.8;"/>
      </defs>
      <g>
       <use style="stroke:#000000;stroke-width:0.8;" x="90" xlink:href="#meec8cf5f7e" y="288.23678"/>
      </g>
     </g>
     <g id="text_11">
      <!-- $\mathdefault{10^{-1}}$ -->
      <g transform="translate(59.5 292.035999)scale(0.1 -0.1)">
       <defs>
        <path d="M 10.59375 35.5 
L 73.1875 35.5 
L 73.1875 27.203125 
L 10.59375 27.203125 
z
" id="DejaVuSans-8722"/>
       </defs>
       <use transform="translate(0 0.684375)" xlink:href="#DejaVuSans-49"/>
       <use transform="translate(63.623047 0.684375)" xlink:href="#DejaVuSans-48"/>
       <use transform="translate(128.203125 38.965625)scale(0.7)" xlink:href="#DejaVuSans-8722"/>
       <use transform="translate(186.855469 38.965625)scale(0.7)" xlink:href="#DejaVuSans-49"/>
      </g>
     </g>
    </g>
    <g id="ytick_2">
     <g id="line2d_53">
      <g>
       <use style="stroke:#000000;stroke-width:0.8;" x="90" xlink:href="#meec8cf5f7e" y="212.758858"/>
      </g>
     </g>
     <g id="text_12">
      <!-- $\mathdefault{10^{0}}$ -->
      <g transform="translate(65.4 216.558077)scale(0.1 -0.1)">
       <use transform="translate(0 0.765625)" xlink:href="#DejaVuSans-49"/>
       <use transform="translate(63.623047 0.765625)" xlink:href="#DejaVuSans-48"/>
       <use transform="translate(128.203125 39.046875)scale(0.7)" xlink:href="#DejaVuSans-48"/>
      </g>
     </g>
    </g>
    <g id="ytick_3">
     <g id="line2d_54">
      <g>
       <use style="stroke:#000000;stroke-width:0.8;" x="90" xlink:href="#meec8cf5f7e" y="137.280936"/>
      </g>
     </g>
     <g id="text_13">
      <!-- $\mathdefault{10^{1}}$ -->
      <g transform="translate(65.4 141.080154)scale(0.1 -0.1)">
       <use transform="translate(0 0.684375)" xlink:href="#DejaVuSans-49"/>
       <use transform="translate(63.623047 0.684375)" xlink:href="#DejaVuSans-48"/>
       <use transform="translate(128.203125 38.965625)scale(0.7)" xlink:href="#DejaVuSans-49"/>
      </g>
     </g>
    </g>
    <g id="ytick_4">
     <g id="line2d_55">
      <g>
       <use style="stroke:#000000;stroke-width:0.8;" x="90" xlink:href="#meec8cf5f7e" y="61.803013"/>
      </g>
     </g>
     <g id="text_14">
      <!-- $\mathdefault{10^{2}}$ -->
      <g transform="translate(65.4 65.602232)scale(0.1 -0.1)">
       <use transform="translate(0 0.765625)" xlink:href="#DejaVuSans-49"/>
       <use transform="translate(63.623047 0.765625)" xlink:href="#DejaVuSans-48"/>
       <use transform="translate(128.203125 39.046875)scale(0.7)" xlink:href="#DejaVuSans-50"/>
      </g>
     </g>
    </g>
    <g id="ytick_5">
     <g id="line2d_56">
      <defs>
       <path d="M 0 0 
L -2 0 
" id="m6d09fbb2bc" style="stroke:#000000;stroke-width:0.6;"/>
      </defs>
      <g>
       <use style="stroke:#000000;stroke-width:0.6;" x="90" xlink:href="#m6d09fbb2bc" y="310.957899"/>
      </g>
     </g>
    </g>
    <g id="ytick_6">
     <g id="line2d_57">
      <g>
       <use style="stroke:#000000;stroke-width:0.6;" x="90" xlink:href="#m6d09fbb2bc" y="304.981463"/>
      </g>
     </g>
    </g>
    <g id="ytick_7">
     <g id="line2d_58">
      <g>
       <use style="stroke:#000000;stroke-width:0.6;" x="90" xlink:href="#m6d09fbb2bc" y="299.928458"/>
      </g>
     </g>
    </g>
    <g id="ytick_8">
     <g id="line2d_59">
      <g>
       <use style="stroke:#000000;stroke-width:0.6;" x="90" xlink:href="#m6d09fbb2bc" y="295.551347"/>
      </g>
     </g>
    </g>
    <g id="ytick_9">
     <g id="line2d_60">
      <g>
       <use style="stroke:#000000;stroke-width:0.6;" x="90" xlink:href="#m6d09fbb2bc" y="291.690461"/>
      </g>
     </g>
    </g>
    <g id="ytick_10">
     <g id="line2d_61">
      <g>
       <use style="stroke:#000000;stroke-width:0.6;" x="90" xlink:href="#m6d09fbb2bc" y="265.515662"/>
      </g>
     </g>
    </g>
    <g id="ytick_11">
     <g id="line2d_62">
      <g>
       <use style="stroke:#000000;stroke-width:0.6;" x="90" xlink:href="#m6d09fbb2bc" y="252.224659"/>
      </g>
     </g>
    </g>
    <g id="ytick_12">
     <g id="line2d_63">
      <g>
       <use style="stroke:#000000;stroke-width:0.6;" x="90" xlink:href="#m6d09fbb2bc" y="242.794543"/>
      </g>
     </g>
    </g>
    <g id="ytick_13">
     <g id="line2d_64">
      <g>
       <use style="stroke:#000000;stroke-width:0.6;" x="90" xlink:href="#m6d09fbb2bc" y="235.479977"/>
      </g>
     </g>
    </g>
    <g id="ytick_14">
     <g id="line2d_65">
      <g>
       <use style="stroke:#000000;stroke-width:0.6;" x="90" xlink:href="#m6d09fbb2bc" y="229.503541"/>
      </g>
     </g>
    </g>
    <g id="ytick_15">
     <g id="line2d_66">
      <g>
       <use style="stroke:#000000;stroke-width:0.6;" x="90" xlink:href="#m6d09fbb2bc" y="224.450536"/>
      </g>
     </g>
    </g>
    <g id="ytick_16">
     <g id="line2d_67">
      <g>
       <use style="stroke:#000000;stroke-width:0.6;" x="90" xlink:href="#m6d09fbb2bc" y="220.073424"/>
      </g>
     </g>
    </g>
    <g id="ytick_17">
     <g id="line2d_68">
      <g>
       <use style="stroke:#000000;stroke-width:0.6;" x="90" xlink:href="#m6d09fbb2bc" y="216.212538"/>
      </g>
     </g>
    </g>
    <g id="ytick_18">
     <g id="line2d_69">
      <g>
       <use style="stroke:#000000;stroke-width:0.6;" x="90" xlink:href="#m6d09fbb2bc" y="190.037739"/>
      </g>
     </g>
    </g>
    <g id="ytick_19">
     <g id="line2d_70">
      <g>
       <use style="stroke:#000000;stroke-width:0.6;" x="90" xlink:href="#m6d09fbb2bc" y="176.746737"/>
      </g>
     </g>
    </g>
    <g id="ytick_20">
     <g id="line2d_71">
      <g>
       <use style="stroke:#000000;stroke-width:0.6;" x="90" xlink:href="#m6d09fbb2bc" y="167.316621"/>
      </g>
     </g>
    </g>
    <g id="ytick_21">
     <g id="line2d_72">
      <g>
       <use style="stroke:#000000;stroke-width:0.6;" x="90" xlink:href="#m6d09fbb2bc" y="160.002054"/>
      </g>
     </g>
    </g>
    <g id="ytick_22">
     <g id="line2d_73">
      <g>
       <use style="stroke:#000000;stroke-width:0.6;" x="90" xlink:href="#m6d09fbb2bc" y="154.025618"/>
      </g>
     </g>
    </g>
    <g id="ytick_23">
     <g id="line2d_74">
      <g>
       <use style="stroke:#000000;stroke-width:0.6;" x="90" xlink:href="#m6d09fbb2bc" y="148.972614"/>
      </g>
     </g>
    </g>
    <g id="ytick_24">
     <g id="line2d_75">
      <g>
       <use style="stroke:#000000;stroke-width:0.6;" x="90" xlink:href="#m6d09fbb2bc" y="144.595502"/>
      </g>
     </g>
    </g>
    <g id="ytick_25">
     <g id="line2d_76">
      <g>
       <use style="stroke:#000000;stroke-width:0.6;" x="90" xlink:href="#m6d09fbb2bc" y="140.734616"/>
      </g>
     </g>
    </g>
    <g id="ytick_26">
     <g id="line2d_77">
      <g>
       <use style="stroke:#000000;stroke-width:0.6;" x="90" xlink:href="#m6d09fbb2bc" y="114.559817"/>
      </g>
     </g>
    </g>
    <g id="ytick_27">
     <g id="line2d_78">
      <g>
       <use style="stroke:#000000;stroke-width:0.6;" x="90" xlink:href="#m6d09fbb2bc" y="101.268815"/>
      </g>
     </g>
    </g>
    <g id="ytick_28">
     <g id="line2d_79">
      <g>
       <use style="stroke:#000000;stroke-width:0.6;" x="90" xlink:href="#m6d09fbb2bc" y="91.838698"/>
      </g>
     </g>
    </g>
    <g id="ytick_29">
     <g id="line2d_80">
      <g>
       <use style="stroke:#000000;stroke-width:0.6;" x="90" xlink:href="#m6d09fbb2bc" y="84.524132"/>
      </g>
     </g>
    </g>
    <g id="ytick_30">
     <g id="line2d_81">
      <g>
       <use style="stroke:#000000;stroke-width:0.6;" x="90" xlink:href="#m6d09fbb2bc" y="78.547696"/>
      </g>
     </g>
    </g>
    <g id="ytick_31">
     <g id="line2d_82">
      <g>
       <use style="stroke:#000000;stroke-width:0.6;" x="90" xlink:href="#m6d09fbb2bc" y="73.494691"/>
      </g>
     </g>
    </g>
    <g id="ytick_32">
     <g id="line2d_83">
      <g>
       <use style="stroke:#000000;stroke-width:0.6;" x="90" xlink:href="#m6d09fbb2bc" y="69.11758"/>
      </g>
     </g>
    </g>
    <g id="ytick_33">
     <g id="line2d_84">
      <g>
       <use style="stroke:#000000;stroke-width:0.6;" x="90" xlink:href="#m6d09fbb2bc" y="65.256694"/>
      </g>
     </g>
    </g>
   </g>
   <g id="line2d_85">
    <path clip-path="url(#p465509cb61)" d="M 95.74802 361 
L 95.752577 181.527223 
L 97.670103 167.235374 
L 99.587629 162.860959 
L 101.505155 162.479467 
L 103.42268 162.318151 
L 105.340206 164.378203 
L 107.257732 164.617287 
L 109.175258 168.846787 
L 111.092784 172.651677 
L 113.010309 174.853357 
L 114.927835 179.932023 
L 116.845361 183.966751 
L 118.762887 188.61597 
L 120.680412 190.864696 
L 124.515464 201.501199 
L 126.43299 206.36684 
L 130.268041 215.632786 
L 132.185567 218.993371 
L 134.103093 223.337968 
L 137.938144 234.159002 
L 139.85567 237.723213 
L 141.773196 241.785178 
L 143.690722 244.964237 
L 145.608247 250.053081 
L 147.525773 253.209233 
L 149.443299 256.970516 
L 151.360825 259.218421 
L 153.278351 262.773183 
L 155.195876 264.9277 
L 157.113402 268.216426 
L 159.030928 270.506081 
L 160.948454 273.855293 
L 164.783505 278.182124 
L 166.701031 278.163697 
L 168.618557 281.897178 
L 170.536082 284.357485 
L 172.453608 286.297827 
L 174.371134 286.416064 
L 176.28866 288.851026 
L 178.206186 289.750834 
L 180.123711 290.833149 
L 182.041237 291.3896 
L 183.958763 290.529566 
L 185.876289 290.763653 
L 187.793814 290.143518 
L 189.71134 289.389769 
L 191.628866 286.873561 
L 193.546392 286.041085 
L 195.463918 284.26671 
L 197.381443 281.652104 
L 199.298969 279.595799 
L 203.134021 272.574807 
L 206.969072 265.321319 
L 208.886598 260.709795 
L 210.804124 257.312807 
L 214.639175 248.017327 
L 218.474227 238.154426 
L 224.226804 222.521328 
L 239.56701 179.93683 
L 243.402062 169.943176 
L 247.237113 160.399706 
L 251.072165 151.315726 
L 254.907216 142.687212 
L 258.742268 134.485162 
L 262.57732 126.677432 
L 266.412371 119.254861 
L 270.247423 112.240224 
L 274.082474 105.686401 
L 277.917526 99.695385 
L 281.752577 94.392626 
L 283.670103 92.036379 
L 285.587629 89.89402 
L 287.505155 87.97608 
L 289.42268 86.290103 
L 291.340206 84.839942 
L 293.257732 83.624703 
L 295.175258 82.638134 
L 297.092784 81.86894 
L 299.010309 81.301374 
L 300.927835 80.917071 
L 302.845361 80.695695 
L 304.762887 80.614548 
L 308.597938 80.774744 
L 312.43299 81.20885 
L 322.020619 82.44858 
L 325.85567 82.650772 
L 329.690722 82.533401 
L 333.525773 82.035968 
L 337.360825 81.134682 
L 341.195876 79.857894 
L 345.030928 78.294028 
L 356.536082 73.226739 
L 360.371134 71.847692 
L 364.206186 70.773966 
L 368.041237 70.055146 
L 371.876289 69.732462 
L 375.71134 69.826267 
L 379.546392 70.33823 
L 383.381443 71.251015 
L 387.216495 72.534698 
L 391.051546 74.154923 
L 394.886598 76.080912 
L 398.721649 78.279524 
L 402.556701 80.720181 
L 406.391753 83.384443 
L 410.226804 86.258484 
L 415.979381 90.913184 
L 421.731959 95.876837 
L 437.072165 109.401268 
L 440.907216 112.514976 
L 444.742268 115.363295 
L 448.57732 117.860887 
L 452.412371 119.937005 
L 456.247423 121.556858 
L 460.082474 122.717881 
L 463.917526 123.436492 
L 467.752577 123.756025 
L 471.587629 123.72917 
L 475.42268 123.397761 
L 479.257732 122.788965 
L 483.092784 121.921597 
L 486.927835 120.819915 
L 490.762887 119.524752 
L 498.43299 116.598906 
L 506.103093 113.694707 
L 511.85567 111.77584 
L 517.608247 110.106345 
L 525.278351 108.152827 
L 531.030928 106.883145 
L 536.783505 105.805339 
L 554.041237 102.827235 
L 559.793814 101.537894 
L 567.463918 99.52258 
L 577.051546 96.718457 
L 590.474227 92.80394 
L 598.14433 90.838498 
L 603.896907 89.607332 
L 609.649485 88.644531 
L 613.484536 88.18907 
L 617.319588 87.927686 
L 621.154639 87.880357 
L 624.989691 88.055122 
L 628.824742 88.445492 
L 632.659794 89.033976 
L 638.412371 90.222048 
L 648 92.515835 
L 648 92.515835 
" style="fill:none;stroke:#008000;stroke-linecap:square;stroke-width:1.5;"/>
   </g>
   <g id="line2d_86">
    <path clip-path="url(#p465509cb61)" d="M 90 92.455319 
L 91.917526 290.896949 
L 93.835052 203.994026 
L 95.752577 183.240507 
L 97.670103 182.772677 
L 99.587629 188.27845 
L 103.42268 200.872483 
L 107.257732 212.160728 
L 113.010309 228.117334 
L 116.845361 238.154145 
L 120.680412 247.650755 
L 124.515464 256.539395 
L 126.43299 260.7265 
L 128.350515 266.250949 
L 136.020619 280.446129 
L 137.938144 283.631949 
L 139.85567 286.578608 
L 141.773196 289.30587 
L 143.690722 291.795589 
L 145.608247 294.031642 
L 147.525773 296.017753 
L 149.443299 297.747065 
L 151.360825 299.215041 
L 153.278351 300.425381 
L 155.195876 301.375701 
L 157.113402 302.053534 
L 159.030928 302.466316 
L 160.948454 302.645455 
L 162.865979 302.589438 
L 164.783505 302.271499 
L 166.701031 301.671057 
L 168.618557 300.789595 
L 170.536082 299.625485 
L 172.453608 298.180506 
L 174.371134 296.474291 
L 176.28866 294.52875 
L 178.206186 292.343397 
L 180.123711 289.912298 
L 182.041237 287.215265 
L 183.958763 284.254717 
L 185.876289 281.048374 
L 187.793814 277.606753 
L 191.628866 270.039423 
L 195.463918 261.608796 
L 199.298969 252.379631 
L 203.134021 242.567906 
L 208.886598 226.981823 
L 216.556701 205.20727 
L 226.14433 178.106741 
L 229.979381 167.832958 
L 233.814433 158.105935 
L 237.649485 148.922407 
L 241.484536 140.22397 
L 245.319588 131.994744 
L 249.154639 124.210774 
L 252.989691 116.775241 
L 256.824742 109.708601 
L 260.659794 103.072284 
L 264.494845 96.935149 
L 266.412371 94.105108 
L 268.329897 91.479817 
L 270.247423 89.064944 
L 272.164948 86.891839 
L 274.082474 84.992223 
L 276 83.359789 
L 277.917526 82.004703 
L 279.835052 80.946288 
L 281.752577 80.183528 
L 283.670103 79.705654 
L 285.587629 79.495709 
L 287.505155 79.524438 
L 289.42268 79.745754 
L 293.257732 80.587165 
L 302.845361 83.335236 
L 306.680412 84.131477 
L 310.515464 84.594048 
L 312.43299 84.646629 
L 316.268041 84.414266 
L 318.185567 84.124102 
L 320.103093 83.702538 
L 323.938144 82.500322 
L 327.773196 80.858534 
L 331.608247 78.875062 
L 339.278351 74.691467 
L 343.113402 72.855624 
L 346.948454 71.449154 
L 350.783505 70.445766 
L 352.701031 70.103301 
L 354.618557 69.892954 
L 358.453608 69.81215 
L 360.371134 69.948844 
L 362.28866 70.227297 
L 364.206186 70.633258 
L 368.041237 71.799423 
L 371.876289 73.407661 
L 375.71134 75.387954 
L 379.546392 77.676482 
L 383.381443 80.226514 
L 387.216495 83.039616 
L 392.969072 87.616501 
L 396.804124 90.901592 
L 402.556701 96.234137 
L 419.814433 112.939366 
L 423.649485 116.327576 
L 427.484536 119.438656 
L 431.319588 122.130458 
L 433.237113 123.284911 
L 435.154639 124.299664 
L 437.072165 125.169063 
L 438.989691 125.884637 
L 440.907216 126.449452 
L 442.824742 126.863723 
L 444.742268 127.139886 
L 448.57732 127.369079 
L 452.412371 127.22659 
L 456.247423 126.725103 
L 460.082474 126.003391 
L 463.917526 125.104364 
L 467.752577 124.0083 
L 471.587629 122.695337 
L 475.42268 121.171124 
L 481.175258 118.618949 
L 488.845361 115.199629 
L 492.680412 113.642468 
L 496.515464 112.340885 
L 502.268041 110.706474 
L 509.938144 108.908233 
L 517.608247 107.225712 
L 523.360825 106.235701 
L 536.783505 104.354645 
L 542.536082 103.208048 
L 548.28866 101.727635 
L 555.958763 99.452881 
L 575.134021 93.581097 
L 582.804124 91.559271 
L 588.556701 90.286323 
L 594.309278 89.32583 
L 598.14433 88.861067 
L 601.979381 88.567545 
L 605.814433 88.499731 
L 609.649485 88.771273 
L 613.484536 89.282272 
L 617.319588 90.038521 
L 621.154639 90.985261 
L 626.907216 92.676648 
L 632.659794 94.439797 
L 636.494845 95.465157 
L 640.329897 96.208032 
L 644.164948 96.543024 
L 648 96.484733 
L 648 96.484733 
" style="fill:none;stroke:#0000ff;stroke-linecap:square;stroke-width:1.5;"/>
   </g>
   <g id="line2d_87">
    <path clip-path="url(#p465509cb61)" d="M 109.171492 361 
L 109.175258 212.758858 
L 111.092784 167.316621 
L 113.010309 212.758858 
L 114.927835 137.280936 
L 116.845361 137.280936 
L 116.851039 361 
M 126.427887 361 
L 126.43299 160.002054 
L 126.438093 361 
M 130.263699 361 
L 130.268041 190.037739 
L 130.272383 361 
M 212.717883 361 
L 212.721649 212.758858 
L 212.725416 361 
M 220.387986 361 
L 220.391753 212.758858 
L 228.061856 212.758858 
L 228.065622 361 
M 233.810091 361 
L 233.814433 190.037739 
L 235.731959 190.037739 
L 237.649485 160.002054 
L 239.56701 212.758858 
L 241.484536 134.156702 
L 243.402062 190.037739 
L 245.319588 190.037739 
L 247.237113 144.595502 
L 249.154639 167.316621 
L 251.072165 144.595502 
L 252.989691 140.734616 
L 254.907216 137.280936 
L 256.824742 144.595502 
L 258.742268 140.734616 
L 260.659794 134.156702 
L 262.57732 154.025618 
L 264.494845 140.734616 
L 266.412371 103.530376 
L 268.329897 144.595502 
L 270.247423 105.959609 
L 272.164948 111.435583 
L 274.082474 119.88713 
L 276 99.153265 
L 277.917526 105.959609 
L 279.835052 91.838698 
L 281.752577 148.972614 
L 283.670103 93.520074 
L 285.587629 91.029283 
L 287.505155 92.668607 
L 289.42268 57.507953 
L 291.340206 74.444892 
L 293.257732 74.930526 
L 295.175258 77.472857 
L 297.092784 84.524132 
L 299.010309 73.029724 
L 300.927835 58.088139 
L 302.845361 73.029724 
L 304.762887 72.11912 
L 306.680412 93.520074 
L 308.597938 116.241193 
L 310.515464 119.88713 
L 312.43299 98.144581 
L 314.350515 99.153265 
L 316.268041 84.524132 
L 318.185567 67.910831 
L 320.103093 67.130326 
L 322.020619 103.530376 
L 323.938144 98.144581 
L 325.85567 80.229072 
L 327.773196 80.809258 
L 329.690722 79.658977 
L 331.608247 91.838698 
L 333.525773 87.977812 
L 335.443299 96.21581 
L 337.360825 98.144581 
L 339.278351 89.468053 
L 341.195876 71.233129 
L 343.113402 89.468053 
L 345.030928 90.239374 
L 346.948454 64.536233 
L 348.865979 102.380095 
L 350.783505 83.238491 
L 352.701031 55.826577 
L 354.618557 67.910831 
L 356.536082 65.993346 
L 358.453608 57.221666 
L 360.371134 64.894484 
L 362.28866 79.098627 
L 364.206186 123.989933 
L 366.123711 67.518255 
L 368.041237 87.977812 
L 369.958763 65.993346 
L 371.876289 55.554545 
L 373.793814 64.181855 
L 375.71134 65.256694 
L 377.628866 71.673131 
L 379.546392 61.15389 
L 381.463918 69.529908 
L 383.381443 81.399898 
L 385.298969 78.005871 
L 387.216495 74.930526 
L 389.134021 66.367974 
L 391.051546 78.547696 
L 392.969072 74.444892 
L 394.886598 78.005871 
L 396.804124 94.39425 
L 398.721649 73.966349 
L 400.639175 79.658977 
L 402.556701 112.960493 
L 404.474227 69.947488 
L 406.391753 87.257351 
L 408.309278 121.874383 
L 410.226804 58.678779 
L 412.14433 80.229072 
L 414.061856 74.930526 
L 415.979381 88.714464 
L 417.896907 119.88713 
L 419.814433 160.002054 
L 421.731959 79.098627 
L 423.649485 105.959609 
L 425.56701 93.520074 
L 427.484536 94.39425 
L 429.402062 99.153265 
L 431.319588 105.959609 
L 433.237113 103.530376 
L 435.154639 105.959609 
L 437.072165 102.380095 
L 438.989691 116.241193 
L 440.907216 111.435583 
L 442.824742 112.960493 
L 444.742268 128.680728 
L 446.659794 140.734616 
L 448.57732 119.88713 
L 450.494845 131.3045 
L 452.412371 118.013497 
L 454.329897 128.680728 
L 456.247423 116.241193 
L 458.164948 131.3045 
L 460.082474 148.972614 
L 462 119.88713 
L 463.917526 119.88713 
L 465.835052 123.989933 
L 467.752577 109.97847 
L 469.670103 160.002054 
L 471.587629 104.722495 
L 473.505155 131.3045 
L 475.42268 100.193976 
L 477.340206 118.013497 
L 479.257732 144.595502 
L 481.175258 118.013497 
L 483.092784 160.002054 
L 485.010309 121.874383 
L 486.927835 131.3045 
L 488.845361 112.960493 
L 490.762887 118.013497 
L 492.680412 134.156702 
L 494.597938 112.960493 
L 496.515464 160.002054 
L 498.43299 121.874383 
L 500.350515 103.530376 
L 502.268041 111.435583 
L 506.103093 98.144581 
L 508.020619 108.583381 
L 509.938144 111.435583 
L 511.85567 104.722495 
L 513.773196 104.722495 
L 515.690722 123.989933 
L 517.608247 108.583381 
L 519.525773 118.013497 
L 521.443299 123.989933 
L 523.360825 131.3045 
L 525.278351 128.680728 
L 527.195876 123.989933 
L 531.030928 82.614098 
L 532.948454 95.292379 
L 534.865979 84.524132 
L 536.783505 148.972614 
L 538.701031 102.380095 
L 540.618557 116.241193 
L 542.536082 109.97847 
L 544.453608 87.977812 
L 546.371134 131.3045 
L 548.28866 98.144581 
L 550.206186 118.013497 
L 552.123711 100.193976 
L 554.041237 119.88713 
L 555.958763 119.88713 
L 557.876289 85.186369 
L 559.793814 121.874383 
L 561.71134 98.144581 
L 563.628866 116.241193 
L 565.546392 83.238491 
L 567.463918 114.559817 
L 569.381443 101.268815 
L 571.298969 82.001376 
L 573.216495 99.153265 
L 575.134021 101.268815 
L 577.051546 82.001376 
L 578.969072 99.153265 
L 580.886598 123.989933 
L 582.804124 94.39425 
L 584.721649 134.156702 
L 586.639175 76.948372 
L 588.556701 87.977812 
L 590.474227 116.241193 
L 592.391753 82.001376 
L 594.309278 103.530376 
L 596.226804 83.875009 
L 598.14433 91.838698 
L 600.061856 83.238491 
L 601.979381 87.257351 
L 603.896907 97.166011 
L 605.814433 78.005871 
L 607.731959 144.595502 
L 609.649485 93.520074 
L 611.56701 84.524132 
L 613.484536 79.658977 
L 615.402062 98.144581 
L 617.319588 85.186369 
L 619.237113 83.875009 
L 621.154639 83.875009 
L 623.072165 87.257351 
L 624.989691 98.144581 
L 626.907216 76.948372 
L 630.742268 104.722495 
L 632.659794 83.238491 
L 634.57732 88.714464 
L 636.494845 87.977812 
L 638.412371 82.001376 
L 640.329897 84.524132 
L 642.247423 87.257351 
L 644.164948 95.292379 
L 646.082474 98.144581 
L 648 112.960493 
L 648 112.960493 
" style="fill:none;stroke:#ff0000;stroke-linecap:square;stroke-opacity:0.7;stroke-width:1.5;"/>
   </g>
   <g id="patch_3">
    <path d="M 90 315 
L 90 43.2 
" style="fill:none;stroke:#000000;stroke-linecap:square;stroke-linejoin:miter;stroke-width:0.8;"/>
   </g>
   <g id="patch_4">
    <path d="M 648 315 
L 648 43.2 
" style="fill:none;stroke:#000000;stroke-linecap:square;stroke-linejoin:miter;stroke-width:0.8;"/>
   </g>
   <g id="patch_5">
    <path d="M 90 315 
L 648 315 
" style="fill:none;stroke:#000000;stroke-linecap:square;stroke-linejoin:miter;stroke-width:0.8;"/>
   </g>
   <g id="patch_6">
    <path d="M 90 43.2 
L 648 43.2 
" style="fill:none;stroke:#000000;stroke-linecap:square;stroke-linejoin:miter;stroke-width:0.8;"/>
   </g>
   <g id="text_15">
    <!-- 412   -->
    <g transform="translate(325.446563 37.2)scale(0.12 -0.12)">
     <defs>
      <path d="M 37.796875 64.3125 
L 12.890625 25.390625 
L 37.796875 25.390625 
z
M 35.203125 72.90625 
L 47.609375 72.90625 
L 47.609375 25.390625 
L 58.015625 25.390625 
L 58.015625 17.1875 
L 47.609375 17.1875 
L 47.609375 0 
L 37.796875 0 
L 37.796875 17.1875 
L 4.890625 17.1875 
L 4.890625 26.703125 
z
" id="DejaVuSans-52"/>
      <path id="DejaVuSans-32"/>
      <path d="M 18.171875 54.6875 
L 18.171875 -20.796875 
L 9.078125 -20.796875 
L 9.078125 54.6875 
z
" id="DejaVuSans-1503"/>
      <path d="M 18.171875 54.6875 
L 18.171875 0 
L 9.078125 0 
L 9.078125 54.6875 
z
" id="DejaVuSans-1493"/>
      <path d="M 47.359375 27.828125 
L 47.359375 0 
L 38.28125 0 
L 38.28125 27.828125 
Q 38.28125 31.390625 37.765625 34.265625 
Q 37.25 37.15625 36 39.71875 
Q 34.765625 42.28125 32.8125 43.984375 
Q 30.859375 45.703125 27.78125 46.703125 
Q 24.703125 47.703125 20.703125 47.703125 
L 4.296875 47.703125 
L 4.296875 54.6875 
L 20.65625 54.6875 
Q 26.8125 54.6875 31.46875 53.390625 
Q 36.140625 52.09375 39.109375 49.828125 
Q 42.09375 47.5625 43.96875 44.109375 
Q 45.84375 40.671875 46.59375 36.734375 
Q 47.359375 32.8125 47.359375 27.828125 
z
" id="DejaVuSans-1512"/>
      <path d="M 21 0 
L 11.8125 0 
L 4.296875 54.6875 
L 13.328125 54.6875 
L 16.890625 28.953125 
Q 19.234375 29 21.0625 29.359375 
Q 22.90625 29.734375 24.265625 30.53125 
Q 25.640625 31.34375 26.609375 32.203125 
Q 27.59375 33.0625 28.296875 34.625 
Q 29 36.1875 29.40625 37.46875 
Q 29.828125 38.765625 30.1875 41.03125 
Q 30.5625 43.3125 30.75 45 
Q 30.953125 46.6875 31.265625 49.640625 
Q 31.59375 52.59375 31.890625 54.6875 
L 39.9375 54.6875 
Q 39.0625 42 37.890625 36.96875 
Q 35.890625 28.609375 30.609375 25.25 
Q 25.984375 22.265625 17.828125 21.96875 
L 19.921875 6.984375 
Q 24.703125 6.984375 28.390625 7.34375 
Q 32.078125 7.71875 35.640625 8.6875 
Q 39.203125 9.671875 41.8125 11.296875 
Q 44.4375 12.9375 46.84375 15.5 
Q 49.265625 18.0625 50.953125 21.625 
Q 52.640625 25.203125 54 30 
Q 55.375 34.8125 56.203125 40.90625 
Q 57.03125 47.015625 57.515625 54.6875 
L 66.546875 54.6875 
Q 65.671875 46.578125 64.640625 40.421875 
Q 63.625 34.28125 62.125 28.703125 
Q 60.640625 23.140625 58.8125 19.15625 
Q 56.984375 15.1875 54.421875 11.84375 
Q 51.859375 8.5 48.703125 6.375 
Q 45.5625 4.25 41.375 2.75 
Q 37.203125 1.265625 32.25 0.625 
Q 27.296875 0 21 0 
z
" id="DejaVuSans-1513"/>
      <path d="M 19.140625 33.40625 
L 19.140625 0 
L 10.109375 0 
L 10.109375 29.6875 
z
M 56.25 27.828125 
L 56.25 0 
L 47.21875 0 
L 47.21875 29.6875 
Q 47.21875 40.234375 44.0625 43.96875 
Q 40.921875 47.703125 31.84375 47.703125 
L 9.078125 47.703125 
L 9.078125 54.6875 
L 31.734375 54.6875 
Q 45.265625 54.6875 50.75 48.578125 
Q 56.25 42.484375 56.25 27.828125 
z
" id="DejaVuSans-1492"/>
      <path d="M 56.25 29.59375 
L 56.25 0 
L 47.171875 0 
L 47.171875 30.90625 
Q 47.171875 40.578125 44 44.140625 
Q 40.828125 47.703125 31.84375 47.703125 
L 18.109375 47.703125 
L 18.109375 0 
L 9.078125 0 
L 9.078125 54.6875 
L 31.734375 54.6875 
Q 45.21875 54.6875 50.734375 48.828125 
Q 56.25 42.96875 56.25 29.59375 
z
" id="DejaVuSans-1495"/>
      <path d="M 30.328125 54.6875 
L 30.328125 47.703125 
L 26.421875 47.703125 
Q 22.171875 47.703125 20.578125 43.921875 
Q 19 40.140625 19 30.90625 
L 19 0 
L 9.90625 0 
L 9.90625 30.90625 
Q 9.90625 37.109375 11.78125 41.453125 
Q 13.671875 45.796875 16.40625 47.703125 
L 4.296875 47.703125 
L 4.296875 54.6875 
z
" id="DejaVuSans-1494"/>
      <path d="M 4.296875 54.6875 
L 14.890625 54.6875 
Q 15.09375 54.15625 16.703125 50.3125 
Q 18.3125 46.484375 19.390625 42.671875 
Q 20.75 46.09375 22.625 48.53125 
Q 24.515625 50.984375 26.359375 52.296875 
Q 28.21875 53.609375 30.609375 54.34375 
Q 33.015625 55.078125 34.859375 55.265625 
Q 36.71875 55.46875 39.203125 55.46875 
Q 58.84375 55.46875 58.84375 29.59375 
L 58.84375 0 
L 31.390625 0 
L 31.390625 6.9375 
L 49.75 6.9375 
L 49.75 29.59375 
Q 49.75 39.109375 46.765625 43.671875 
Q 43.796875 48.25 39.0625 48.25 
Q 30.28125 48.25 26.078125 40.4375 
Q 23.734375 35.984375 21.6875 25.921875 
Q 21.578125 25.25 21.34375 24.125 
L 16.546875 0 
L 7.46875 0 
L 11.375 20.40625 
Q 11.53125 21.1875 11.890625 22.96875 
Q 12.25 24.75 12.375 25.40625 
Q 12.5 26.078125 12.671875 27.3125 
Q 12.84375 28.5625 12.90625 29.515625 
Q 12.984375 30.46875 12.984375 31.546875 
Q 12.984375 34.671875 10.71875 41.09375 
Q 8.453125 47.515625 4.296875 54.6875 
z
" id="DejaVuSans-1502"/>
     </defs>
     <use xlink:href="#DejaVuSans-52"/>
     <use x="63.623047" xlink:href="#DejaVuSans-49"/>
     <use x="127.246094" xlink:href="#DejaVuSans-50"/>
     <use x="190.869141" xlink:href="#DejaVuSans-32"/>
     <use x="222.65625" xlink:href="#DejaVuSans-1503"/>
     <use x="249.902344" xlink:href="#DejaVuSans-1493"/>
     <use x="277.148438" xlink:href="#DejaVuSans-1512"/>
     <use x="333.59375" xlink:href="#DejaVuSans-1513"/>
     <use x="404.443359" xlink:href="#DejaVuSans-1492"/>
     <use x="469.775391" xlink:href="#DejaVuSans-32"/>
     <use x="501.5625" xlink:href="#DejaVuSans-1495"/>
     <use x="566.894531" xlink:href="#DejaVuSans-1512"/>
     <use x="623.339844" xlink:href="#DejaVuSans-1494"/>
     <use x="657.958984" xlink:href="#DejaVuSans-1502"/>
    </g>
   </g>
   <g id="legend_1">
    <g id="patch_7">
     <path d="M 97 95.234375 
L 221.582812 95.234375 
Q 223.582812 95.234375 223.582812 93.234375 
L 223.582812 50.2 
Q 223.582812 48.2 221.582812 48.2 
L 97 48.2 
Q 95 48.2 95 50.2 
L 95 93.234375 
Q 95 95.234375 97 95.234375 
z
" style="fill:#ffffff;opacity:0.8;stroke:#cccccc;stroke-linejoin:miter;"/>
    </g>
    <g id="line2d_88">
     <path d="M 99 56.298437 
L 119 56.298437 
" style="fill:none;stroke:#008000;stroke-linecap:square;stroke-width:1.5;"/>
    </g>
    <g id="line2d_89"/>
    <g id="text_16">
     <!-- Test-adjusted -->
     <g transform="translate(127 59.798437)scale(0.1 -0.1)">
      <defs>
       <path d="M -0.296875 72.90625 
L 61.375 72.90625 
L 61.375 64.59375 
L 35.5 64.59375 
L 35.5 0 
L 25.59375 0 
L 25.59375 64.59375 
L -0.296875 64.59375 
z
" id="DejaVuSans-84"/>
       <path d="M 44.28125 53.078125 
L 44.28125 44.578125 
Q 40.484375 46.53125 36.375 47.5 
Q 32.28125 48.484375 27.875 48.484375 
Q 21.1875 48.484375 17.84375 46.4375 
Q 14.5 44.390625 14.5 40.28125 
Q 14.5 37.15625 16.890625 35.375 
Q 19.28125 33.59375 26.515625 31.984375 
L 29.59375 31.296875 
Q 39.15625 29.25 43.1875 25.515625 
Q 47.21875 21.78125 47.21875 15.09375 
Q 47.21875 7.46875 41.1875 3.015625 
Q 35.15625 -1.421875 24.609375 -1.421875 
Q 20.21875 -1.421875 15.453125 -0.5625 
Q 10.6875 0.296875 5.421875 2 
L 5.421875 11.28125 
Q 10.40625 8.6875 15.234375 7.390625 
Q 20.0625 6.109375 24.8125 6.109375 
Q 31.15625 6.109375 34.5625 8.28125 
Q 37.984375 10.453125 37.984375 14.40625 
Q 37.984375 18.0625 35.515625 20.015625 
Q 33.0625 21.96875 24.703125 23.78125 
L 21.578125 24.515625 
Q 13.234375 26.265625 9.515625 29.90625 
Q 5.8125 33.546875 5.8125 39.890625 
Q 5.8125 47.609375 11.28125 51.796875 
Q 16.75 56 26.8125 56 
Q 31.78125 56 36.171875 55.265625 
Q 40.578125 54.546875 44.28125 53.078125 
z
" id="DejaVuSans-115"/>
       <path d="M 4.890625 31.390625 
L 31.203125 31.390625 
L 31.203125 23.390625 
L 4.890625 23.390625 
z
" id="DejaVuSans-45"/>
       <path d="M 9.421875 54.6875 
L 18.40625 54.6875 
L 18.40625 -0.984375 
Q 18.40625 -11.421875 14.421875 -16.109375 
Q 10.453125 -20.796875 1.609375 -20.796875 
L -1.8125 -20.796875 
L -1.8125 -13.1875 
L 0.59375 -13.1875 
Q 5.71875 -13.1875 7.5625 -10.8125 
Q 9.421875 -8.453125 9.421875 -0.984375 
z
M 9.421875 75.984375 
L 18.40625 75.984375 
L 18.40625 64.59375 
L 9.421875 64.59375 
z
" id="DejaVuSans-106"/>
      </defs>
      <use xlink:href="#DejaVuSans-84"/>
      <use x="44.083984" xlink:href="#DejaVuSans-101"/>
      <use x="105.607422" xlink:href="#DejaVuSans-115"/>
      <use x="157.707031" xlink:href="#DejaVuSans-116"/>
      <use x="196.916016" xlink:href="#DejaVuSans-45"/>
      <use x="233" xlink:href="#DejaVuSans-97"/>
      <use x="294.279297" xlink:href="#DejaVuSans-100"/>
      <use x="357.755859" xlink:href="#DejaVuSans-106"/>
      <use x="385.539062" xlink:href="#DejaVuSans-117"/>
      <use x="448.917969" xlink:href="#DejaVuSans-115"/>
      <use x="501.017578" xlink:href="#DejaVuSans-116"/>
      <use x="540.226562" xlink:href="#DejaVuSans-101"/>
      <use x="601.75" xlink:href="#DejaVuSans-100"/>
     </g>
    </g>
    <g id="line2d_90">
     <path d="M 99 70.976562 
L 119 70.976562 
" style="fill:none;stroke:#0000ff;stroke-linecap:square;stroke-width:1.5;"/>
    </g>
    <g id="line2d_91"/>
    <g id="text_17">
     <!-- Infections -->
     <g transform="translate(127 74.476562)scale(0.1 -0.1)">
      <defs>
       <path d="M 9.8125 72.90625 
L 19.671875 72.90625 
L 19.671875 0 
L 9.8125 0 
z
" id="DejaVuSans-73"/>
       <path d="M 37.109375 75.984375 
L 37.109375 68.5 
L 28.515625 68.5 
Q 23.6875 68.5 21.796875 66.546875 
Q 19.921875 64.59375 19.921875 59.515625 
L 19.921875 54.6875 
L 34.71875 54.6875 
L 34.71875 47.703125 
L 19.921875 47.703125 
L 19.921875 0 
L 10.890625 0 
L 10.890625 47.703125 
L 2.296875 47.703125 
L 2.296875 54.6875 
L 10.890625 54.6875 
L 10.890625 58.5 
Q 10.890625 67.625 15.140625 71.796875 
Q 19.390625 75.984375 28.609375 75.984375 
z
" id="DejaVuSans-102"/>
       <path d="M 9.421875 54.6875 
L 18.40625 54.6875 
L 18.40625 0 
L 9.421875 0 
z
M 9.421875 75.984375 
L 18.40625 75.984375 
L 18.40625 64.59375 
L 9.421875 64.59375 
z
" id="DejaVuSans-105"/>
      </defs>
      <use xlink:href="#DejaVuSans-73"/>
      <use x="29.492188" xlink:href="#DejaVuSans-110"/>
      <use x="92.871094" xlink:href="#DejaVuSans-102"/>
      <use x="128.076172" xlink:href="#DejaVuSans-101"/>
      <use x="189.599609" xlink:href="#DejaVuSans-99"/>
      <use x="244.580078" xlink:href="#DejaVuSans-116"/>
      <use x="283.789062" xlink:href="#DejaVuSans-105"/>
      <use x="311.572266" xlink:href="#DejaVuSans-111"/>
      <use x="372.753906" xlink:href="#DejaVuSans-110"/>
      <use x="436.132812" xlink:href="#DejaVuSans-115"/>
     </g>
    </g>
    <g id="line2d_92">
     <path d="M 99 85.654687 
L 119 85.654687 
" style="fill:none;stroke:#ff0000;stroke-linecap:square;stroke-opacity:0.7;stroke-width:1.5;"/>
    </g>
    <g id="line2d_93"/>
    <g id="text_18">
     <!-- Reported Positives -->
     <g transform="translate(127 89.154687)scale(0.1 -0.1)">
      <defs>
       <path d="M 44.390625 34.1875 
Q 47.5625 33.109375 50.5625 29.59375 
Q 53.5625 26.078125 56.59375 19.921875 
L 66.609375 0 
L 56 0 
L 46.6875 18.703125 
Q 43.0625 26.03125 39.671875 28.421875 
Q 36.28125 30.8125 30.421875 30.8125 
L 19.671875 30.8125 
L 19.671875 0 
L 9.8125 0 
L 9.8125 72.90625 
L 32.078125 72.90625 
Q 44.578125 72.90625 50.734375 67.671875 
Q 56.890625 62.453125 56.890625 51.90625 
Q 56.890625 45.015625 53.6875 40.46875 
Q 50.484375 35.9375 44.390625 34.1875 
z
M 19.671875 64.796875 
L 19.671875 38.921875 
L 32.078125 38.921875 
Q 39.203125 38.921875 42.84375 42.21875 
Q 46.484375 45.515625 46.484375 51.90625 
Q 46.484375 58.296875 42.84375 61.546875 
Q 39.203125 64.796875 32.078125 64.796875 
z
" id="DejaVuSans-82"/>
       <path d="M 41.109375 46.296875 
Q 39.59375 47.171875 37.8125 47.578125 
Q 36.03125 48 33.890625 48 
Q 26.265625 48 22.1875 43.046875 
Q 18.109375 38.09375 18.109375 28.8125 
L 18.109375 0 
L 9.078125 0 
L 9.078125 54.6875 
L 18.109375 54.6875 
L 18.109375 46.1875 
Q 20.953125 51.171875 25.484375 53.578125 
Q 30.03125 56 36.53125 56 
Q 37.453125 56 38.578125 55.875 
Q 39.703125 55.765625 41.0625 55.515625 
z
" id="DejaVuSans-114"/>
       <path d="M 19.671875 64.796875 
L 19.671875 37.40625 
L 32.078125 37.40625 
Q 38.96875 37.40625 42.71875 40.96875 
Q 46.484375 44.53125 46.484375 51.125 
Q 46.484375 57.671875 42.71875 61.234375 
Q 38.96875 64.796875 32.078125 64.796875 
z
M 9.8125 72.90625 
L 32.078125 72.90625 
Q 44.34375 72.90625 50.609375 67.359375 
Q 56.890625 61.8125 56.890625 51.125 
Q 56.890625 40.328125 50.609375 34.8125 
Q 44.34375 29.296875 32.078125 29.296875 
L 19.671875 29.296875 
L 19.671875 0 
L 9.8125 0 
z
" id="DejaVuSans-80"/>
      </defs>
      <use xlink:href="#DejaVuSans-82"/>
      <use x="64.982422" xlink:href="#DejaVuSans-101"/>
      <use x="126.505859" xlink:href="#DejaVuSans-112"/>
      <use x="189.982422" xlink:href="#DejaVuSans-111"/>
      <use x="251.164062" xlink:href="#DejaVuSans-114"/>
      <use x="292.277344" xlink:href="#DejaVuSans-116"/>
      <use x="331.486328" xlink:href="#DejaVuSans-101"/>
      <use x="393.009766" xlink:href="#DejaVuSans-100"/>
      <use x="456.486328" xlink:href="#DejaVuSans-32"/>
      <use x="488.273438" xlink:href="#DejaVuSans-80"/>
      <use x="544.951172" xlink:href="#DejaVuSans-111"/>
      <use x="606.132812" xlink:href="#DejaVuSans-115"/>
      <use x="658.232422" xlink:href="#DejaVuSans-105"/>
      <use x="686.015625" xlink:href="#DejaVuSans-116"/>
      <use x="725.224609" xlink:href="#DejaVuSans-105"/>
      <use x="753.007812" xlink:href="#DejaVuSans-118"/>
      <use x="812.1875" xlink:href="#DejaVuSans-101"/>
      <use x="873.710938" xlink:href="#DejaVuSans-115"/>
     </g>
    </g>
   </g>
  </g>
 </g>
 <defs>
  <clipPath id="p465509cb61">
   <rect height="271.8" width="558" x="90" y="43.2"/>
  </clipPath>
 </defs>
</svg>
