<?xml version="1.0" encoding="utf-8" standalone="no"?>
<!DOCTYPE svg PUBLIC "-//W3C//DTD SVG 1.1//EN"
  "http://www.w3.org/Graphics/SVG/1.1/DTD/svg11.dtd">
<!-- Created with matplotlib (https://matplotlib.org/) -->
<svg height="360pt" version="1.1" viewBox="0 0 720 360" width="720pt" xmlns="http://www.w3.org/2000/svg" xmlns:xlink="http://www.w3.org/1999/xlink">
 <metadata>
  <rdf:RDF xmlns:cc="http://creativecommons.org/ns#" xmlns:dc="http://purl.org/dc/elements/1.1/" xmlns:rdf="http://www.w3.org/1999/02/22-rdf-syntax-ns#">
   <cc:Work>
    <dc:type rdf:resource="http://purl.org/dc/dcmitype/StillImage"/>
    <dc:date>2021-04-19T03:56:02.423812</dc:date>
    <dc:format>image/svg+xml</dc:format>
    <dc:creator>
     <cc:Agent>
      <dc:title>Matplotlib v3.3.2, https://matplotlib.org/</dc:title>
     </cc:Agent>
    </dc:creator>
   </cc:Work>
  </rdf:RDF>
 </metadata>
 <defs>
  <style type="text/css">*{stroke-linecap:butt;stroke-linejoin:round;}</style>
 </defs>
 <g id="figure_1">
  <g id="patch_1">
   <path d="M 0 360 
L 720 360 
L 720 0 
L 0 0 
z
" style="fill:#ffffff;"/>
  </g>
  <g id="axes_1">
   <g id="patch_2">
    <path d="M 90 315 
L 648 315 
L 648 43.2 
L 90 43.2 
z
" style="fill:#ffffff;"/>
   </g>
   <g id="matplotlib.axis_1">
    <g id="xtick_1">
     <g id="line2d_1">
      <defs>
       <path d="M 0 0 
L 0 3.5 
" id="m254b67071a" style="stroke:#000000;stroke-width:0.8;"/>
      </defs>
      <g>
       <use style="stroke:#000000;stroke-width:0.8;" x="90" xlink:href="#m254b67071a" y="315"/>
      </g>
     </g>
    </g>
    <g id="xtick_2">
     <g id="line2d_2">
      <g>
       <use style="stroke:#000000;stroke-width:0.8;" x="109.827411" xlink:href="#m254b67071a" y="315"/>
      </g>
     </g>
     <g id="text_1">
      <!-- Apr -->
      <g transform="translate(101.177411 329.598437)scale(0.1 -0.1)">
       <defs>
        <path d="M 34.1875 63.1875 
L 20.796875 26.90625 
L 47.609375 26.90625 
z
M 28.609375 72.90625 
L 39.796875 72.90625 
L 67.578125 0 
L 57.328125 0 
L 50.6875 18.703125 
L 17.828125 18.703125 
L 11.1875 0 
L 0.78125 0 
z
" id="DejaVuSans-65"/>
        <path d="M 18.109375 8.203125 
L 18.109375 -20.796875 
L 9.078125 -20.796875 
L 9.078125 54.6875 
L 18.109375 54.6875 
L 18.109375 46.390625 
Q 20.953125 51.265625 25.265625 53.625 
Q 29.59375 56 35.59375 56 
Q 45.5625 56 51.78125 48.09375 
Q 58.015625 40.1875 58.015625 27.296875 
Q 58.015625 14.40625 51.78125 6.484375 
Q 45.5625 -1.421875 35.59375 -1.421875 
Q 29.59375 -1.421875 25.265625 0.953125 
Q 20.953125 3.328125 18.109375 8.203125 
z
M 48.6875 27.296875 
Q 48.6875 37.203125 44.609375 42.84375 
Q 40.53125 48.484375 33.40625 48.484375 
Q 26.265625 48.484375 22.1875 42.84375 
Q 18.109375 37.203125 18.109375 27.296875 
Q 18.109375 17.390625 22.1875 11.75 
Q 26.265625 6.109375 33.40625 6.109375 
Q 40.53125 6.109375 44.609375 11.75 
Q 48.6875 17.390625 48.6875 27.296875 
z
" id="DejaVuSans-112"/>
        <path d="M 41.109375 46.296875 
Q 39.59375 47.171875 37.8125 47.578125 
Q 36.03125 48 33.890625 48 
Q 26.265625 48 22.1875 43.046875 
Q 18.109375 38.09375 18.109375 28.8125 
L 18.109375 0 
L 9.078125 0 
L 9.078125 54.6875 
L 18.109375 54.6875 
L 18.109375 46.1875 
Q 20.953125 51.171875 25.484375 53.578125 
Q 30.03125 56 36.53125 56 
Q 37.453125 56 38.578125 55.875 
Q 39.703125 55.765625 41.0625 55.515625 
z
" id="DejaVuSans-114"/>
       </defs>
       <use xlink:href="#DejaVuSans-65"/>
       <use x="68.408203" xlink:href="#DejaVuSans-112"/>
       <use x="131.884766" xlink:href="#DejaVuSans-114"/>
      </g>
     </g>
    </g>
    <g id="xtick_3">
     <g id="line2d_3">
      <g>
       <use style="stroke:#000000;stroke-width:0.8;" x="152.314721" xlink:href="#m254b67071a" y="315"/>
      </g>
     </g>
     <g id="text_2">
      <!-- May -->
      <g transform="translate(141.977221 329.598437)scale(0.1 -0.1)">
       <defs>
        <path d="M 9.8125 72.90625 
L 24.515625 72.90625 
L 43.109375 23.296875 
L 61.8125 72.90625 
L 76.515625 72.90625 
L 76.515625 0 
L 66.890625 0 
L 66.890625 64.015625 
L 48.09375 14.015625 
L 38.1875 14.015625 
L 19.390625 64.015625 
L 19.390625 0 
L 9.8125 0 
z
" id="DejaVuSans-77"/>
        <path d="M 34.28125 27.484375 
Q 23.390625 27.484375 19.1875 25 
Q 14.984375 22.515625 14.984375 16.5 
Q 14.984375 11.71875 18.140625 8.90625 
Q 21.296875 6.109375 26.703125 6.109375 
Q 34.1875 6.109375 38.703125 11.40625 
Q 43.21875 16.703125 43.21875 25.484375 
L 43.21875 27.484375 
z
M 52.203125 31.203125 
L 52.203125 0 
L 43.21875 0 
L 43.21875 8.296875 
Q 40.140625 3.328125 35.546875 0.953125 
Q 30.953125 -1.421875 24.3125 -1.421875 
Q 15.921875 -1.421875 10.953125 3.296875 
Q 6 8.015625 6 15.921875 
Q 6 25.140625 12.171875 29.828125 
Q 18.359375 34.515625 30.609375 34.515625 
L 43.21875 34.515625 
L 43.21875 35.40625 
Q 43.21875 41.609375 39.140625 45 
Q 35.0625 48.390625 27.6875 48.390625 
Q 23 48.390625 18.546875 47.265625 
Q 14.109375 46.140625 10.015625 43.890625 
L 10.015625 52.203125 
Q 14.9375 54.109375 19.578125 55.046875 
Q 24.21875 56 28.609375 56 
Q 40.484375 56 46.34375 49.84375 
Q 52.203125 43.703125 52.203125 31.203125 
z
" id="DejaVuSans-97"/>
        <path d="M 32.171875 -5.078125 
Q 28.375 -14.84375 24.75 -17.8125 
Q 21.140625 -20.796875 15.09375 -20.796875 
L 7.90625 -20.796875 
L 7.90625 -13.28125 
L 13.1875 -13.28125 
Q 16.890625 -13.28125 18.9375 -11.515625 
Q 21 -9.765625 23.484375 -3.21875 
L 25.09375 0.875 
L 2.984375 54.6875 
L 12.5 54.6875 
L 29.59375 11.921875 
L 46.6875 54.6875 
L 56.203125 54.6875 
z
" id="DejaVuSans-121"/>
       </defs>
       <use xlink:href="#DejaVuSans-77"/>
       <use x="86.279297" xlink:href="#DejaVuSans-97"/>
       <use x="147.558594" xlink:href="#DejaVuSans-121"/>
      </g>
     </g>
    </g>
    <g id="xtick_4">
     <g id="line2d_4">
      <g>
       <use style="stroke:#000000;stroke-width:0.8;" x="196.218274" xlink:href="#m254b67071a" y="315"/>
      </g>
     </g>
     <g id="text_3">
      <!-- Jun -->
      <g transform="translate(188.405774 329.598437)scale(0.1 -0.1)">
       <defs>
        <path d="M 9.8125 72.90625 
L 19.671875 72.90625 
L 19.671875 5.078125 
Q 19.671875 -8.109375 14.671875 -14.0625 
Q 9.671875 -20.015625 -1.421875 -20.015625 
L -5.171875 -20.015625 
L -5.171875 -11.71875 
L -2.09375 -11.71875 
Q 4.4375 -11.71875 7.125 -8.046875 
Q 9.8125 -4.390625 9.8125 5.078125 
z
" id="DejaVuSans-74"/>
        <path d="M 8.5 21.578125 
L 8.5 54.6875 
L 17.484375 54.6875 
L 17.484375 21.921875 
Q 17.484375 14.15625 20.5 10.265625 
Q 23.53125 6.390625 29.59375 6.390625 
Q 36.859375 6.390625 41.078125 11.03125 
Q 45.3125 15.671875 45.3125 23.6875 
L 45.3125 54.6875 
L 54.296875 54.6875 
L 54.296875 0 
L 45.3125 0 
L 45.3125 8.40625 
Q 42.046875 3.421875 37.71875 1 
Q 33.40625 -1.421875 27.6875 -1.421875 
Q 18.265625 -1.421875 13.375 4.4375 
Q 8.5 10.296875 8.5 21.578125 
z
M 31.109375 56 
z
" id="DejaVuSans-117"/>
        <path d="M 54.890625 33.015625 
L 54.890625 0 
L 45.90625 0 
L 45.90625 32.71875 
Q 45.90625 40.484375 42.875 44.328125 
Q 39.84375 48.1875 33.796875 48.1875 
Q 26.515625 48.1875 22.3125 43.546875 
Q 18.109375 38.921875 18.109375 30.90625 
L 18.109375 0 
L 9.078125 0 
L 9.078125 54.6875 
L 18.109375 54.6875 
L 18.109375 46.1875 
Q 21.34375 51.125 25.703125 53.5625 
Q 30.078125 56 35.796875 56 
Q 45.21875 56 50.046875 50.171875 
Q 54.890625 44.34375 54.890625 33.015625 
z
" id="DejaVuSans-110"/>
       </defs>
       <use xlink:href="#DejaVuSans-74"/>
       <use x="29.492188" xlink:href="#DejaVuSans-117"/>
       <use x="92.871094" xlink:href="#DejaVuSans-110"/>
      </g>
     </g>
    </g>
    <g id="xtick_5">
     <g id="line2d_5">
      <g>
       <use style="stroke:#000000;stroke-width:0.8;" x="238.705584" xlink:href="#m254b67071a" y="315"/>
      </g>
     </g>
     <g id="text_4">
      <!-- Jul -->
      <g transform="translate(232.672771 329.598437)scale(0.1 -0.1)">
       <defs>
        <path d="M 9.421875 75.984375 
L 18.40625 75.984375 
L 18.40625 0 
L 9.421875 0 
z
" id="DejaVuSans-108"/>
       </defs>
       <use xlink:href="#DejaVuSans-74"/>
       <use x="29.492188" xlink:href="#DejaVuSans-117"/>
       <use x="92.871094" xlink:href="#DejaVuSans-108"/>
      </g>
     </g>
    </g>
    <g id="xtick_6">
     <g id="line2d_6">
      <g>
       <use style="stroke:#000000;stroke-width:0.8;" x="282.609137" xlink:href="#m254b67071a" y="315"/>
      </g>
     </g>
     <g id="text_5">
      <!-- Aug -->
      <g transform="translate(272.845856 329.598437)scale(0.1 -0.1)">
       <defs>
        <path d="M 45.40625 27.984375 
Q 45.40625 37.75 41.375 43.109375 
Q 37.359375 48.484375 30.078125 48.484375 
Q 22.859375 48.484375 18.828125 43.109375 
Q 14.796875 37.75 14.796875 27.984375 
Q 14.796875 18.265625 18.828125 12.890625 
Q 22.859375 7.515625 30.078125 7.515625 
Q 37.359375 7.515625 41.375 12.890625 
Q 45.40625 18.265625 45.40625 27.984375 
z
M 54.390625 6.78125 
Q 54.390625 -7.171875 48.1875 -13.984375 
Q 42 -20.796875 29.203125 -20.796875 
Q 24.46875 -20.796875 20.265625 -20.09375 
Q 16.0625 -19.390625 12.109375 -17.921875 
L 12.109375 -9.1875 
Q 16.0625 -11.328125 19.921875 -12.34375 
Q 23.78125 -13.375 27.78125 -13.375 
Q 36.625 -13.375 41.015625 -8.765625 
Q 45.40625 -4.15625 45.40625 5.171875 
L 45.40625 9.625 
Q 42.625 4.78125 38.28125 2.390625 
Q 33.9375 0 27.875 0 
Q 17.828125 0 11.671875 7.65625 
Q 5.515625 15.328125 5.515625 27.984375 
Q 5.515625 40.671875 11.671875 48.328125 
Q 17.828125 56 27.875 56 
Q 33.9375 56 38.28125 53.609375 
Q 42.625 51.21875 45.40625 46.390625 
L 45.40625 54.6875 
L 54.390625 54.6875 
z
" id="DejaVuSans-103"/>
       </defs>
       <use xlink:href="#DejaVuSans-65"/>
       <use x="68.408203" xlink:href="#DejaVuSans-117"/>
       <use x="131.787109" xlink:href="#DejaVuSans-103"/>
      </g>
     </g>
    </g>
    <g id="xtick_7">
     <g id="line2d_7">
      <g>
       <use style="stroke:#000000;stroke-width:0.8;" x="326.51269" xlink:href="#m254b67071a" y="315"/>
      </g>
     </g>
     <g id="text_6">
      <!-- Sep -->
      <g transform="translate(317.08769 329.598437)scale(0.1 -0.1)">
       <defs>
        <path d="M 53.515625 70.515625 
L 53.515625 60.890625 
Q 47.90625 63.578125 42.921875 64.890625 
Q 37.9375 66.21875 33.296875 66.21875 
Q 25.25 66.21875 20.875 63.09375 
Q 16.5 59.96875 16.5 54.203125 
Q 16.5 49.359375 19.40625 46.890625 
Q 22.3125 44.4375 30.421875 42.921875 
L 36.375 41.703125 
Q 47.40625 39.59375 52.65625 34.296875 
Q 57.90625 29 57.90625 20.125 
Q 57.90625 9.515625 50.796875 4.046875 
Q 43.703125 -1.421875 29.984375 -1.421875 
Q 24.8125 -1.421875 18.96875 -0.25 
Q 13.140625 0.921875 6.890625 3.21875 
L 6.890625 13.375 
Q 12.890625 10.015625 18.65625 8.296875 
Q 24.421875 6.59375 29.984375 6.59375 
Q 38.421875 6.59375 43.015625 9.90625 
Q 47.609375 13.234375 47.609375 19.390625 
Q 47.609375 24.75 44.3125 27.78125 
Q 41.015625 30.8125 33.5 32.328125 
L 27.484375 33.5 
Q 16.453125 35.6875 11.515625 40.375 
Q 6.59375 45.0625 6.59375 53.421875 
Q 6.59375 63.09375 13.40625 68.65625 
Q 20.21875 74.21875 32.171875 74.21875 
Q 37.3125 74.21875 42.625 73.28125 
Q 47.953125 72.359375 53.515625 70.515625 
z
" id="DejaVuSans-83"/>
        <path d="M 56.203125 29.59375 
L 56.203125 25.203125 
L 14.890625 25.203125 
Q 15.484375 15.921875 20.484375 11.0625 
Q 25.484375 6.203125 34.421875 6.203125 
Q 39.59375 6.203125 44.453125 7.46875 
Q 49.3125 8.734375 54.109375 11.28125 
L 54.109375 2.78125 
Q 49.265625 0.734375 44.1875 -0.34375 
Q 39.109375 -1.421875 33.890625 -1.421875 
Q 20.796875 -1.421875 13.15625 6.1875 
Q 5.515625 13.8125 5.515625 26.8125 
Q 5.515625 40.234375 12.765625 48.109375 
Q 20.015625 56 32.328125 56 
Q 43.359375 56 49.78125 48.890625 
Q 56.203125 41.796875 56.203125 29.59375 
z
M 47.21875 32.234375 
Q 47.125 39.59375 43.09375 43.984375 
Q 39.0625 48.390625 32.421875 48.390625 
Q 24.90625 48.390625 20.390625 44.140625 
Q 15.875 39.890625 15.1875 32.171875 
z
" id="DejaVuSans-101"/>
       </defs>
       <use xlink:href="#DejaVuSans-83"/>
       <use x="63.476562" xlink:href="#DejaVuSans-101"/>
       <use x="125" xlink:href="#DejaVuSans-112"/>
      </g>
     </g>
    </g>
    <g id="xtick_8">
     <g id="line2d_8">
      <g>
       <use style="stroke:#000000;stroke-width:0.8;" x="369" xlink:href="#m254b67071a" y="315"/>
      </g>
     </g>
     <g id="text_7">
      <!-- Oct -->
      <g transform="translate(360.354688 329.598437)scale(0.1 -0.1)">
       <defs>
        <path d="M 39.40625 66.21875 
Q 28.65625 66.21875 22.328125 58.203125 
Q 16.015625 50.203125 16.015625 36.375 
Q 16.015625 22.609375 22.328125 14.59375 
Q 28.65625 6.59375 39.40625 6.59375 
Q 50.140625 6.59375 56.421875 14.59375 
Q 62.703125 22.609375 62.703125 36.375 
Q 62.703125 50.203125 56.421875 58.203125 
Q 50.140625 66.21875 39.40625 66.21875 
z
M 39.40625 74.21875 
Q 54.734375 74.21875 63.90625 63.9375 
Q 73.09375 53.65625 73.09375 36.375 
Q 73.09375 19.140625 63.90625 8.859375 
Q 54.734375 -1.421875 39.40625 -1.421875 
Q 24.03125 -1.421875 14.8125 8.828125 
Q 5.609375 19.09375 5.609375 36.375 
Q 5.609375 53.65625 14.8125 63.9375 
Q 24.03125 74.21875 39.40625 74.21875 
z
" id="DejaVuSans-79"/>
        <path d="M 48.78125 52.59375 
L 48.78125 44.1875 
Q 44.96875 46.296875 41.140625 47.34375 
Q 37.3125 48.390625 33.40625 48.390625 
Q 24.65625 48.390625 19.8125 42.84375 
Q 14.984375 37.3125 14.984375 27.296875 
Q 14.984375 17.28125 19.8125 11.734375 
Q 24.65625 6.203125 33.40625 6.203125 
Q 37.3125 6.203125 41.140625 7.25 
Q 44.96875 8.296875 48.78125 10.40625 
L 48.78125 2.09375 
Q 45.015625 0.34375 40.984375 -0.53125 
Q 36.96875 -1.421875 32.421875 -1.421875 
Q 20.0625 -1.421875 12.78125 6.34375 
Q 5.515625 14.109375 5.515625 27.296875 
Q 5.515625 40.671875 12.859375 48.328125 
Q 20.21875 56 33.015625 56 
Q 37.15625 56 41.109375 55.140625 
Q 45.0625 54.296875 48.78125 52.59375 
z
" id="DejaVuSans-99"/>
        <path d="M 18.3125 70.21875 
L 18.3125 54.6875 
L 36.8125 54.6875 
L 36.8125 47.703125 
L 18.3125 47.703125 
L 18.3125 18.015625 
Q 18.3125 11.328125 20.140625 9.421875 
Q 21.96875 7.515625 27.59375 7.515625 
L 36.8125 7.515625 
L 36.8125 0 
L 27.59375 0 
Q 17.1875 0 13.234375 3.875 
Q 9.28125 7.765625 9.28125 18.015625 
L 9.28125 47.703125 
L 2.6875 47.703125 
L 2.6875 54.6875 
L 9.28125 54.6875 
L 9.28125 70.21875 
z
" id="DejaVuSans-116"/>
       </defs>
       <use xlink:href="#DejaVuSans-79"/>
       <use x="78.710938" xlink:href="#DejaVuSans-99"/>
       <use x="133.691406" xlink:href="#DejaVuSans-116"/>
      </g>
     </g>
    </g>
    <g id="xtick_9">
     <g id="line2d_9">
      <g>
       <use style="stroke:#000000;stroke-width:0.8;" x="412.903553" xlink:href="#m254b67071a" y="315"/>
      </g>
     </g>
     <g id="text_8">
      <!-- Nov -->
      <g transform="translate(403.144178 329.598437)scale(0.1 -0.1)">
       <defs>
        <path d="M 9.8125 72.90625 
L 23.09375 72.90625 
L 55.421875 11.921875 
L 55.421875 72.90625 
L 64.984375 72.90625 
L 64.984375 0 
L 51.703125 0 
L 19.390625 60.984375 
L 19.390625 0 
L 9.8125 0 
z
" id="DejaVuSans-78"/>
        <path d="M 30.609375 48.390625 
Q 23.390625 48.390625 19.1875 42.75 
Q 14.984375 37.109375 14.984375 27.296875 
Q 14.984375 17.484375 19.15625 11.84375 
Q 23.34375 6.203125 30.609375 6.203125 
Q 37.796875 6.203125 41.984375 11.859375 
Q 46.1875 17.53125 46.1875 27.296875 
Q 46.1875 37.015625 41.984375 42.703125 
Q 37.796875 48.390625 30.609375 48.390625 
z
M 30.609375 56 
Q 42.328125 56 49.015625 48.375 
Q 55.71875 40.765625 55.71875 27.296875 
Q 55.71875 13.875 49.015625 6.21875 
Q 42.328125 -1.421875 30.609375 -1.421875 
Q 18.84375 -1.421875 12.171875 6.21875 
Q 5.515625 13.875 5.515625 27.296875 
Q 5.515625 40.765625 12.171875 48.375 
Q 18.84375 56 30.609375 56 
z
" id="DejaVuSans-111"/>
        <path d="M 2.984375 54.6875 
L 12.5 54.6875 
L 29.59375 8.796875 
L 46.6875 54.6875 
L 56.203125 54.6875 
L 35.6875 0 
L 23.484375 0 
z
" id="DejaVuSans-118"/>
       </defs>
       <use xlink:href="#DejaVuSans-78"/>
       <use x="74.804688" xlink:href="#DejaVuSans-111"/>
       <use x="135.986328" xlink:href="#DejaVuSans-118"/>
      </g>
     </g>
    </g>
    <g id="xtick_10">
     <g id="line2d_10">
      <g>
       <use style="stroke:#000000;stroke-width:0.8;" x="455.390863" xlink:href="#m254b67071a" y="315"/>
      </g>
     </g>
     <g id="text_9">
      <!-- Dec -->
      <g transform="translate(445.715082 329.598437)scale(0.1 -0.1)">
       <defs>
        <path d="M 19.671875 64.796875 
L 19.671875 8.109375 
L 31.59375 8.109375 
Q 46.6875 8.109375 53.6875 14.9375 
Q 60.6875 21.78125 60.6875 36.53125 
Q 60.6875 51.171875 53.6875 57.984375 
Q 46.6875 64.796875 31.59375 64.796875 
z
M 9.8125 72.90625 
L 30.078125 72.90625 
Q 51.265625 72.90625 61.171875 64.09375 
Q 71.09375 55.28125 71.09375 36.53125 
Q 71.09375 17.671875 61.125 8.828125 
Q 51.171875 0 30.078125 0 
L 9.8125 0 
z
" id="DejaVuSans-68"/>
       </defs>
       <use xlink:href="#DejaVuSans-68"/>
       <use x="77.001953" xlink:href="#DejaVuSans-101"/>
       <use x="138.525391" xlink:href="#DejaVuSans-99"/>
      </g>
     </g>
    </g>
    <g id="xtick_11">
     <g id="line2d_11">
      <g>
       <use style="stroke:#000000;stroke-width:0.8;" x="499.294416" xlink:href="#m254b67071a" y="315"/>
      </g>
     </g>
     <g id="text_10">
      <!-- Jan -->
      <g transform="translate(491.586604 329.598437)scale(0.1 -0.1)">
       <use xlink:href="#DejaVuSans-74"/>
       <use x="29.492188" xlink:href="#DejaVuSans-97"/>
       <use x="90.771484" xlink:href="#DejaVuSans-110"/>
      </g>
      <!-- 2021 -->
      <g transform="translate(486.569416 340.79625)scale(0.1 -0.1)">
       <defs>
        <path d="M 19.1875 8.296875 
L 53.609375 8.296875 
L 53.609375 0 
L 7.328125 0 
L 7.328125 8.296875 
Q 12.9375 14.109375 22.625 23.890625 
Q 32.328125 33.6875 34.8125 36.53125 
Q 39.546875 41.84375 41.421875 45.53125 
Q 43.3125 49.21875 43.3125 52.78125 
Q 43.3125 58.59375 39.234375 62.25 
Q 35.15625 65.921875 28.609375 65.921875 
Q 23.96875 65.921875 18.8125 64.3125 
Q 13.671875 62.703125 7.8125 59.421875 
L 7.8125 69.390625 
Q 13.765625 71.78125 18.9375 73 
Q 24.125 74.21875 28.421875 74.21875 
Q 39.75 74.21875 46.484375 68.546875 
Q 53.21875 62.890625 53.21875 53.421875 
Q 53.21875 48.921875 51.53125 44.890625 
Q 49.859375 40.875 45.40625 35.40625 
Q 44.1875 33.984375 37.640625 27.21875 
Q 31.109375 20.453125 19.1875 8.296875 
z
" id="DejaVuSans-50"/>
        <path d="M 31.78125 66.40625 
Q 24.171875 66.40625 20.328125 58.90625 
Q 16.5 51.421875 16.5 36.375 
Q 16.5 21.390625 20.328125 13.890625 
Q 24.171875 6.390625 31.78125 6.390625 
Q 39.453125 6.390625 43.28125 13.890625 
Q 47.125 21.390625 47.125 36.375 
Q 47.125 51.421875 43.28125 58.90625 
Q 39.453125 66.40625 31.78125 66.40625 
z
M 31.78125 74.21875 
Q 44.046875 74.21875 50.515625 64.515625 
Q 56.984375 54.828125 56.984375 36.375 
Q 56.984375 17.96875 50.515625 8.265625 
Q 44.046875 -1.421875 31.78125 -1.421875 
Q 19.53125 -1.421875 13.0625 8.265625 
Q 6.59375 17.96875 6.59375 36.375 
Q 6.59375 54.828125 13.0625 64.515625 
Q 19.53125 74.21875 31.78125 74.21875 
z
" id="DejaVuSans-48"/>
        <path d="M 12.40625 8.296875 
L 28.515625 8.296875 
L 28.515625 63.921875 
L 10.984375 60.40625 
L 10.984375 69.390625 
L 28.421875 72.90625 
L 38.28125 72.90625 
L 38.28125 8.296875 
L 54.390625 8.296875 
L 54.390625 0 
L 12.40625 0 
z
" id="DejaVuSans-49"/>
       </defs>
       <use xlink:href="#DejaVuSans-50"/>
       <use x="63.623047" xlink:href="#DejaVuSans-48"/>
       <use x="127.246094" xlink:href="#DejaVuSans-50"/>
       <use x="190.869141" xlink:href="#DejaVuSans-49"/>
      </g>
     </g>
    </g>
    <g id="xtick_12">
     <g id="line2d_12">
      <g>
       <use style="stroke:#000000;stroke-width:0.8;" x="543.19797" xlink:href="#m254b67071a" y="315"/>
      </g>
     </g>
     <g id="text_11">
      <!-- Feb -->
      <g transform="translate(534.346407 329.598437)scale(0.1 -0.1)">
       <defs>
        <path d="M 9.8125 72.90625 
L 51.703125 72.90625 
L 51.703125 64.59375 
L 19.671875 64.59375 
L 19.671875 43.109375 
L 48.578125 43.109375 
L 48.578125 34.8125 
L 19.671875 34.8125 
L 19.671875 0 
L 9.8125 0 
z
" id="DejaVuSans-70"/>
        <path d="M 48.6875 27.296875 
Q 48.6875 37.203125 44.609375 42.84375 
Q 40.53125 48.484375 33.40625 48.484375 
Q 26.265625 48.484375 22.1875 42.84375 
Q 18.109375 37.203125 18.109375 27.296875 
Q 18.109375 17.390625 22.1875 11.75 
Q 26.265625 6.109375 33.40625 6.109375 
Q 40.53125 6.109375 44.609375 11.75 
Q 48.6875 17.390625 48.6875 27.296875 
z
M 18.109375 46.390625 
Q 20.953125 51.265625 25.265625 53.625 
Q 29.59375 56 35.59375 56 
Q 45.5625 56 51.78125 48.09375 
Q 58.015625 40.1875 58.015625 27.296875 
Q 58.015625 14.40625 51.78125 6.484375 
Q 45.5625 -1.421875 35.59375 -1.421875 
Q 29.59375 -1.421875 25.265625 0.953125 
Q 20.953125 3.328125 18.109375 8.203125 
L 18.109375 0 
L 9.078125 0 
L 9.078125 75.984375 
L 18.109375 75.984375 
z
" id="DejaVuSans-98"/>
       </defs>
       <use xlink:href="#DejaVuSans-70"/>
       <use x="52.019531" xlink:href="#DejaVuSans-101"/>
       <use x="113.542969" xlink:href="#DejaVuSans-98"/>
      </g>
     </g>
    </g>
    <g id="xtick_13">
     <g id="line2d_13">
      <g>
       <use style="stroke:#000000;stroke-width:0.8;" x="582.852792" xlink:href="#m254b67071a" y="315"/>
      </g>
     </g>
     <g id="text_12">
      <!-- Mar -->
      <g transform="translate(573.419198 329.598437)scale(0.1 -0.1)">
       <use xlink:href="#DejaVuSans-77"/>
       <use x="86.279297" xlink:href="#DejaVuSans-97"/>
       <use x="147.558594" xlink:href="#DejaVuSans-114"/>
      </g>
     </g>
    </g>
    <g id="xtick_14">
     <g id="line2d_14">
      <g>
       <use style="stroke:#000000;stroke-width:0.8;" x="626.756345" xlink:href="#m254b67071a" y="315"/>
      </g>
     </g>
     <g id="text_13">
      <!-- Apr -->
      <g transform="translate(618.106345 329.598437)scale(0.1 -0.1)">
       <use xlink:href="#DejaVuSans-65"/>
       <use x="68.408203" xlink:href="#DejaVuSans-112"/>
       <use x="131.884766" xlink:href="#DejaVuSans-114"/>
      </g>
     </g>
    </g>
    <g id="xtick_15">
     <g id="line2d_15">
      <g>
       <use style="stroke:#000000;stroke-width:0.8;" x="648" xlink:href="#m254b67071a" y="315"/>
      </g>
     </g>
    </g>
    <g id="xtick_16">
     <g id="line2d_16">
      <defs>
       <path d="M 0 0 
L 0 2 
" id="m57d5f522ab" style="stroke:#000000;stroke-width:0.6;"/>
      </defs>
      <g>
       <use style="stroke:#000000;stroke-width:0.6;" x="97.081218" xlink:href="#m57d5f522ab" y="315"/>
      </g>
     </g>
    </g>
    <g id="xtick_17">
     <g id="line2d_17">
      <g>
       <use style="stroke:#000000;stroke-width:0.6;" x="106.994924" xlink:href="#m57d5f522ab" y="315"/>
      </g>
     </g>
    </g>
    <g id="xtick_18">
     <g id="line2d_18">
      <g>
       <use style="stroke:#000000;stroke-width:0.6;" x="116.908629" xlink:href="#m57d5f522ab" y="315"/>
      </g>
     </g>
    </g>
    <g id="xtick_19">
     <g id="line2d_19">
      <g>
       <use style="stroke:#000000;stroke-width:0.6;" x="126.822335" xlink:href="#m57d5f522ab" y="315"/>
      </g>
     </g>
    </g>
    <g id="xtick_20">
     <g id="line2d_20">
      <g>
       <use style="stroke:#000000;stroke-width:0.6;" x="136.736041" xlink:href="#m57d5f522ab" y="315"/>
      </g>
     </g>
    </g>
    <g id="xtick_21">
     <g id="line2d_21">
      <g>
       <use style="stroke:#000000;stroke-width:0.6;" x="146.649746" xlink:href="#m57d5f522ab" y="315"/>
      </g>
     </g>
    </g>
    <g id="xtick_22">
     <g id="line2d_22">
      <g>
       <use style="stroke:#000000;stroke-width:0.6;" x="156.563452" xlink:href="#m57d5f522ab" y="315"/>
      </g>
     </g>
    </g>
    <g id="xtick_23">
     <g id="line2d_23">
      <g>
       <use style="stroke:#000000;stroke-width:0.6;" x="166.477157" xlink:href="#m57d5f522ab" y="315"/>
      </g>
     </g>
    </g>
    <g id="xtick_24">
     <g id="line2d_24">
      <g>
       <use style="stroke:#000000;stroke-width:0.6;" x="176.390863" xlink:href="#m57d5f522ab" y="315"/>
      </g>
     </g>
    </g>
    <g id="xtick_25">
     <g id="line2d_25">
      <g>
       <use style="stroke:#000000;stroke-width:0.6;" x="186.304569" xlink:href="#m57d5f522ab" y="315"/>
      </g>
     </g>
    </g>
    <g id="xtick_26">
     <g id="line2d_26">
      <g>
       <use style="stroke:#000000;stroke-width:0.6;" x="206.13198" xlink:href="#m57d5f522ab" y="315"/>
      </g>
     </g>
    </g>
    <g id="xtick_27">
     <g id="line2d_27">
      <g>
       <use style="stroke:#000000;stroke-width:0.6;" x="216.045685" xlink:href="#m57d5f522ab" y="315"/>
      </g>
     </g>
    </g>
    <g id="xtick_28">
     <g id="line2d_28">
      <g>
       <use style="stroke:#000000;stroke-width:0.6;" x="225.959391" xlink:href="#m57d5f522ab" y="315"/>
      </g>
     </g>
    </g>
    <g id="xtick_29">
     <g id="line2d_29">
      <g>
       <use style="stroke:#000000;stroke-width:0.6;" x="235.873096" xlink:href="#m57d5f522ab" y="315"/>
      </g>
     </g>
    </g>
    <g id="xtick_30">
     <g id="line2d_30">
      <g>
       <use style="stroke:#000000;stroke-width:0.6;" x="245.786802" xlink:href="#m57d5f522ab" y="315"/>
      </g>
     </g>
    </g>
    <g id="xtick_31">
     <g id="line2d_31">
      <g>
       <use style="stroke:#000000;stroke-width:0.6;" x="255.700508" xlink:href="#m57d5f522ab" y="315"/>
      </g>
     </g>
    </g>
    <g id="xtick_32">
     <g id="line2d_32">
      <g>
       <use style="stroke:#000000;stroke-width:0.6;" x="265.614213" xlink:href="#m57d5f522ab" y="315"/>
      </g>
     </g>
    </g>
    <g id="xtick_33">
     <g id="line2d_33">
      <g>
       <use style="stroke:#000000;stroke-width:0.6;" x="275.527919" xlink:href="#m57d5f522ab" y="315"/>
      </g>
     </g>
    </g>
    <g id="xtick_34">
     <g id="line2d_34">
      <g>
       <use style="stroke:#000000;stroke-width:0.6;" x="285.441624" xlink:href="#m57d5f522ab" y="315"/>
      </g>
     </g>
    </g>
    <g id="xtick_35">
     <g id="line2d_35">
      <g>
       <use style="stroke:#000000;stroke-width:0.6;" x="295.35533" xlink:href="#m57d5f522ab" y="315"/>
      </g>
     </g>
    </g>
    <g id="xtick_36">
     <g id="line2d_36">
      <g>
       <use style="stroke:#000000;stroke-width:0.6;" x="305.269036" xlink:href="#m57d5f522ab" y="315"/>
      </g>
     </g>
    </g>
    <g id="xtick_37">
     <g id="line2d_37">
      <g>
       <use style="stroke:#000000;stroke-width:0.6;" x="315.182741" xlink:href="#m57d5f522ab" y="315"/>
      </g>
     </g>
    </g>
    <g id="xtick_38">
     <g id="line2d_38">
      <g>
       <use style="stroke:#000000;stroke-width:0.6;" x="325.096447" xlink:href="#m57d5f522ab" y="315"/>
      </g>
     </g>
    </g>
    <g id="xtick_39">
     <g id="line2d_39">
      <g>
       <use style="stroke:#000000;stroke-width:0.6;" x="335.010152" xlink:href="#m57d5f522ab" y="315"/>
      </g>
     </g>
    </g>
    <g id="xtick_40">
     <g id="line2d_40">
      <g>
       <use style="stroke:#000000;stroke-width:0.6;" x="344.923858" xlink:href="#m57d5f522ab" y="315"/>
      </g>
     </g>
    </g>
    <g id="xtick_41">
     <g id="line2d_41">
      <g>
       <use style="stroke:#000000;stroke-width:0.6;" x="354.837563" xlink:href="#m57d5f522ab" y="315"/>
      </g>
     </g>
    </g>
    <g id="xtick_42">
     <g id="line2d_42">
      <g>
       <use style="stroke:#000000;stroke-width:0.6;" x="364.751269" xlink:href="#m57d5f522ab" y="315"/>
      </g>
     </g>
    </g>
    <g id="xtick_43">
     <g id="line2d_43">
      <g>
       <use style="stroke:#000000;stroke-width:0.6;" x="374.664975" xlink:href="#m57d5f522ab" y="315"/>
      </g>
     </g>
    </g>
    <g id="xtick_44">
     <g id="line2d_44">
      <g>
       <use style="stroke:#000000;stroke-width:0.6;" x="384.57868" xlink:href="#m57d5f522ab" y="315"/>
      </g>
     </g>
    </g>
    <g id="xtick_45">
     <g id="line2d_45">
      <g>
       <use style="stroke:#000000;stroke-width:0.6;" x="394.492386" xlink:href="#m57d5f522ab" y="315"/>
      </g>
     </g>
    </g>
    <g id="xtick_46">
     <g id="line2d_46">
      <g>
       <use style="stroke:#000000;stroke-width:0.6;" x="404.406091" xlink:href="#m57d5f522ab" y="315"/>
      </g>
     </g>
    </g>
    <g id="xtick_47">
     <g id="line2d_47">
      <g>
       <use style="stroke:#000000;stroke-width:0.6;" x="414.319797" xlink:href="#m57d5f522ab" y="315"/>
      </g>
     </g>
    </g>
    <g id="xtick_48">
     <g id="line2d_48">
      <g>
       <use style="stroke:#000000;stroke-width:0.6;" x="424.233503" xlink:href="#m57d5f522ab" y="315"/>
      </g>
     </g>
    </g>
    <g id="xtick_49">
     <g id="line2d_49">
      <g>
       <use style="stroke:#000000;stroke-width:0.6;" x="434.147208" xlink:href="#m57d5f522ab" y="315"/>
      </g>
     </g>
    </g>
    <g id="xtick_50">
     <g id="line2d_50">
      <g>
       <use style="stroke:#000000;stroke-width:0.6;" x="444.060914" xlink:href="#m57d5f522ab" y="315"/>
      </g>
     </g>
    </g>
    <g id="xtick_51">
     <g id="line2d_51">
      <g>
       <use style="stroke:#000000;stroke-width:0.6;" x="453.974619" xlink:href="#m57d5f522ab" y="315"/>
      </g>
     </g>
    </g>
    <g id="xtick_52">
     <g id="line2d_52">
      <g>
       <use style="stroke:#000000;stroke-width:0.6;" x="463.888325" xlink:href="#m57d5f522ab" y="315"/>
      </g>
     </g>
    </g>
    <g id="xtick_53">
     <g id="line2d_53">
      <g>
       <use style="stroke:#000000;stroke-width:0.6;" x="473.80203" xlink:href="#m57d5f522ab" y="315"/>
      </g>
     </g>
    </g>
    <g id="xtick_54">
     <g id="line2d_54">
      <g>
       <use style="stroke:#000000;stroke-width:0.6;" x="483.715736" xlink:href="#m57d5f522ab" y="315"/>
      </g>
     </g>
    </g>
    <g id="xtick_55">
     <g id="line2d_55">
      <g>
       <use style="stroke:#000000;stroke-width:0.6;" x="493.629442" xlink:href="#m57d5f522ab" y="315"/>
      </g>
     </g>
    </g>
    <g id="xtick_56">
     <g id="line2d_56">
      <g>
       <use style="stroke:#000000;stroke-width:0.6;" x="503.543147" xlink:href="#m57d5f522ab" y="315"/>
      </g>
     </g>
    </g>
    <g id="xtick_57">
     <g id="line2d_57">
      <g>
       <use style="stroke:#000000;stroke-width:0.6;" x="513.456853" xlink:href="#m57d5f522ab" y="315"/>
      </g>
     </g>
    </g>
    <g id="xtick_58">
     <g id="line2d_58">
      <g>
       <use style="stroke:#000000;stroke-width:0.6;" x="523.370558" xlink:href="#m57d5f522ab" y="315"/>
      </g>
     </g>
    </g>
    <g id="xtick_59">
     <g id="line2d_59">
      <g>
       <use style="stroke:#000000;stroke-width:0.6;" x="533.284264" xlink:href="#m57d5f522ab" y="315"/>
      </g>
     </g>
    </g>
    <g id="xtick_60">
     <g id="line2d_60">
      <g>
       <use style="stroke:#000000;stroke-width:0.6;" x="553.111675" xlink:href="#m57d5f522ab" y="315"/>
      </g>
     </g>
    </g>
    <g id="xtick_61">
     <g id="line2d_61">
      <g>
       <use style="stroke:#000000;stroke-width:0.6;" x="563.025381" xlink:href="#m57d5f522ab" y="315"/>
      </g>
     </g>
    </g>
    <g id="xtick_62">
     <g id="line2d_62">
      <g>
       <use style="stroke:#000000;stroke-width:0.6;" x="572.939086" xlink:href="#m57d5f522ab" y="315"/>
      </g>
     </g>
    </g>
    <g id="xtick_63">
     <g id="line2d_63">
      <g>
       <use style="stroke:#000000;stroke-width:0.6;" x="592.766497" xlink:href="#m57d5f522ab" y="315"/>
      </g>
     </g>
    </g>
    <g id="xtick_64">
     <g id="line2d_64">
      <g>
       <use style="stroke:#000000;stroke-width:0.6;" x="602.680203" xlink:href="#m57d5f522ab" y="315"/>
      </g>
     </g>
    </g>
    <g id="xtick_65">
     <g id="line2d_65">
      <g>
       <use style="stroke:#000000;stroke-width:0.6;" x="612.593909" xlink:href="#m57d5f522ab" y="315"/>
      </g>
     </g>
    </g>
    <g id="xtick_66">
     <g id="line2d_66">
      <g>
       <use style="stroke:#000000;stroke-width:0.6;" x="622.507614" xlink:href="#m57d5f522ab" y="315"/>
      </g>
     </g>
    </g>
    <g id="xtick_67">
     <g id="line2d_67">
      <g>
       <use style="stroke:#000000;stroke-width:0.6;" x="632.42132" xlink:href="#m57d5f522ab" y="315"/>
      </g>
     </g>
    </g>
    <g id="xtick_68">
     <g id="line2d_68">
      <g>
       <use style="stroke:#000000;stroke-width:0.6;" x="642.335025" xlink:href="#m57d5f522ab" y="315"/>
      </g>
     </g>
    </g>
    <g id="text_14">
     <!-- date -->
     <g transform="translate(357.725 354.474375)scale(0.1 -0.1)">
      <defs>
       <path d="M 45.40625 46.390625 
L 45.40625 75.984375 
L 54.390625 75.984375 
L 54.390625 0 
L 45.40625 0 
L 45.40625 8.203125 
Q 42.578125 3.328125 38.25 0.953125 
Q 33.9375 -1.421875 27.875 -1.421875 
Q 17.96875 -1.421875 11.734375 6.484375 
Q 5.515625 14.40625 5.515625 27.296875 
Q 5.515625 40.1875 11.734375 48.09375 
Q 17.96875 56 27.875 56 
Q 33.9375 56 38.25 53.625 
Q 42.578125 51.265625 45.40625 46.390625 
z
M 14.796875 27.296875 
Q 14.796875 17.390625 18.875 11.75 
Q 22.953125 6.109375 30.078125 6.109375 
Q 37.203125 6.109375 41.296875 11.75 
Q 45.40625 17.390625 45.40625 27.296875 
Q 45.40625 37.203125 41.296875 42.84375 
Q 37.203125 48.484375 30.078125 48.484375 
Q 22.953125 48.484375 18.875 42.84375 
Q 14.796875 37.203125 14.796875 27.296875 
z
" id="DejaVuSans-100"/>
      </defs>
      <use xlink:href="#DejaVuSans-100"/>
      <use x="63.476562" xlink:href="#DejaVuSans-97"/>
      <use x="124.755859" xlink:href="#DejaVuSans-116"/>
      <use x="163.964844" xlink:href="#DejaVuSans-101"/>
     </g>
    </g>
   </g>
   <g id="matplotlib.axis_2">
    <g id="ytick_1">
     <g id="line2d_69">
      <defs>
       <path d="M 0 0 
L -3.5 0 
" id="mff19f11ade" style="stroke:#000000;stroke-width:0.8;"/>
      </defs>
      <g>
       <use style="stroke:#000000;stroke-width:0.8;" x="90" xlink:href="#mff19f11ade" y="294.737326"/>
      </g>
     </g>
     <g id="text_15">
      <!-- $\mathdefault{10^{-1}}$ -->
      <g transform="translate(59.5 298.536545)scale(0.1 -0.1)">
       <defs>
        <path d="M 10.59375 35.5 
L 73.1875 35.5 
L 73.1875 27.203125 
L 10.59375 27.203125 
z
" id="DejaVuSans-8722"/>
       </defs>
       <use transform="translate(0 0.684375)" xlink:href="#DejaVuSans-49"/>
       <use transform="translate(63.623047 0.684375)" xlink:href="#DejaVuSans-48"/>
       <use transform="translate(128.203125 38.965625)scale(0.7)" xlink:href="#DejaVuSans-8722"/>
       <use transform="translate(186.855469 38.965625)scale(0.7)" xlink:href="#DejaVuSans-49"/>
      </g>
     </g>
    </g>
    <g id="ytick_2">
     <g id="line2d_70">
      <g>
       <use style="stroke:#000000;stroke-width:0.8;" x="90" xlink:href="#mff19f11ade" y="232.681335"/>
      </g>
     </g>
     <g id="text_16">
      <!-- $\mathdefault{10^{0}}$ -->
      <g transform="translate(65.4 236.480554)scale(0.1 -0.1)">
       <use transform="translate(0 0.765625)" xlink:href="#DejaVuSans-49"/>
       <use transform="translate(63.623047 0.765625)" xlink:href="#DejaVuSans-48"/>
       <use transform="translate(128.203125 39.046875)scale(0.7)" xlink:href="#DejaVuSans-48"/>
      </g>
     </g>
    </g>
    <g id="ytick_3">
     <g id="line2d_71">
      <g>
       <use style="stroke:#000000;stroke-width:0.8;" x="90" xlink:href="#mff19f11ade" y="170.625344"/>
      </g>
     </g>
     <g id="text_17">
      <!-- $\mathdefault{10^{1}}$ -->
      <g transform="translate(65.4 174.424563)scale(0.1 -0.1)">
       <use transform="translate(0 0.684375)" xlink:href="#DejaVuSans-49"/>
       <use transform="translate(63.623047 0.684375)" xlink:href="#DejaVuSans-48"/>
       <use transform="translate(128.203125 38.965625)scale(0.7)" xlink:href="#DejaVuSans-49"/>
      </g>
     </g>
    </g>
    <g id="ytick_4">
     <g id="line2d_72">
      <g>
       <use style="stroke:#000000;stroke-width:0.8;" x="90" xlink:href="#mff19f11ade" y="108.569353"/>
      </g>
     </g>
     <g id="text_18">
      <!-- $\mathdefault{10^{2}}$ -->
      <g transform="translate(65.4 112.368572)scale(0.1 -0.1)">
       <use transform="translate(0 0.765625)" xlink:href="#DejaVuSans-49"/>
       <use transform="translate(63.623047 0.765625)" xlink:href="#DejaVuSans-48"/>
       <use transform="translate(128.203125 39.046875)scale(0.7)" xlink:href="#DejaVuSans-50"/>
      </g>
     </g>
    </g>
    <g id="ytick_5">
     <g id="line2d_73">
      <g>
       <use style="stroke:#000000;stroke-width:0.8;" x="90" xlink:href="#mff19f11ade" y="46.513363"/>
      </g>
     </g>
     <g id="text_19">
      <!-- $\mathdefault{10^{3}}$ -->
      <g transform="translate(65.4 50.312581)scale(0.1 -0.1)">
       <defs>
        <path d="M 40.578125 39.3125 
Q 47.65625 37.796875 51.625 33 
Q 55.609375 28.21875 55.609375 21.1875 
Q 55.609375 10.40625 48.1875 4.484375 
Q 40.765625 -1.421875 27.09375 -1.421875 
Q 22.515625 -1.421875 17.65625 -0.515625 
Q 12.796875 0.390625 7.625 2.203125 
L 7.625 11.71875 
Q 11.71875 9.328125 16.59375 8.109375 
Q 21.484375 6.890625 26.8125 6.890625 
Q 36.078125 6.890625 40.9375 10.546875 
Q 45.796875 14.203125 45.796875 21.1875 
Q 45.796875 27.640625 41.28125 31.265625 
Q 36.765625 34.90625 28.71875 34.90625 
L 20.21875 34.90625 
L 20.21875 43.015625 
L 29.109375 43.015625 
Q 36.375 43.015625 40.234375 45.921875 
Q 44.09375 48.828125 44.09375 54.296875 
Q 44.09375 59.90625 40.109375 62.90625 
Q 36.140625 65.921875 28.71875 65.921875 
Q 24.65625 65.921875 20.015625 65.03125 
Q 15.375 64.15625 9.8125 62.3125 
L 9.8125 71.09375 
Q 15.4375 72.65625 20.34375 73.4375 
Q 25.25 74.21875 29.59375 74.21875 
Q 40.828125 74.21875 47.359375 69.109375 
Q 53.90625 64.015625 53.90625 55.328125 
Q 53.90625 49.265625 50.4375 45.09375 
Q 46.96875 40.921875 40.578125 39.3125 
z
" id="DejaVuSans-51"/>
       </defs>
       <use transform="translate(0 0.765625)" xlink:href="#DejaVuSans-49"/>
       <use transform="translate(63.623047 0.765625)" xlink:href="#DejaVuSans-48"/>
       <use transform="translate(128.203125 39.046875)scale(0.7)" xlink:href="#DejaVuSans-51"/>
      </g>
     </g>
    </g>
    <g id="ytick_6">
     <g id="line2d_74">
      <defs>
       <path d="M 0 0 
L -2 0 
" id="m1867c5b642" style="stroke:#000000;stroke-width:0.6;"/>
      </defs>
      <g>
       <use style="stroke:#000000;stroke-width:0.6;" x="90" xlink:href="#m1867c5b642" y="313.418041"/>
      </g>
     </g>
    </g>
    <g id="ytick_7">
     <g id="line2d_75">
      <g>
       <use style="stroke:#000000;stroke-width:0.6;" x="90" xlink:href="#m1867c5b642" y="308.50437"/>
      </g>
     </g>
    </g>
    <g id="ytick_8">
     <g id="line2d_76">
      <g>
       <use style="stroke:#000000;stroke-width:0.6;" x="90" xlink:href="#m1867c5b642" y="304.349921"/>
      </g>
     </g>
    </g>
    <g id="ytick_9">
     <g id="line2d_77">
      <g>
       <use style="stroke:#000000;stroke-width:0.6;" x="90" xlink:href="#m1867c5b642" y="300.751173"/>
      </g>
     </g>
    </g>
    <g id="ytick_10">
     <g id="line2d_78">
      <g>
       <use style="stroke:#000000;stroke-width:0.6;" x="90" xlink:href="#m1867c5b642" y="297.576853"/>
      </g>
     </g>
    </g>
    <g id="ytick_11">
     <g id="line2d_79">
      <g>
       <use style="stroke:#000000;stroke-width:0.6;" x="90" xlink:href="#m1867c5b642" y="276.056612"/>
      </g>
     </g>
    </g>
    <g id="ytick_12">
     <g id="line2d_80">
      <g>
       <use style="stroke:#000000;stroke-width:0.6;" x="90" xlink:href="#m1867c5b642" y="265.129094"/>
      </g>
     </g>
    </g>
    <g id="ytick_13">
     <g id="line2d_81">
      <g>
       <use style="stroke:#000000;stroke-width:0.6;" x="90" xlink:href="#m1867c5b642" y="257.375897"/>
      </g>
     </g>
    </g>
    <g id="ytick_14">
     <g id="line2d_82">
      <g>
       <use style="stroke:#000000;stroke-width:0.6;" x="90" xlink:href="#m1867c5b642" y="251.36205"/>
      </g>
     </g>
    </g>
    <g id="ytick_15">
     <g id="line2d_83">
      <g>
       <use style="stroke:#000000;stroke-width:0.6;" x="90" xlink:href="#m1867c5b642" y="246.448379"/>
      </g>
     </g>
    </g>
    <g id="ytick_16">
     <g id="line2d_84">
      <g>
       <use style="stroke:#000000;stroke-width:0.6;" x="90" xlink:href="#m1867c5b642" y="242.29393"/>
      </g>
     </g>
    </g>
    <g id="ytick_17">
     <g id="line2d_85">
      <g>
       <use style="stroke:#000000;stroke-width:0.6;" x="90" xlink:href="#m1867c5b642" y="238.695182"/>
      </g>
     </g>
    </g>
    <g id="ytick_18">
     <g id="line2d_86">
      <g>
       <use style="stroke:#000000;stroke-width:0.6;" x="90" xlink:href="#m1867c5b642" y="235.520862"/>
      </g>
     </g>
    </g>
    <g id="ytick_19">
     <g id="line2d_87">
      <g>
       <use style="stroke:#000000;stroke-width:0.6;" x="90" xlink:href="#m1867c5b642" y="214.000621"/>
      </g>
     </g>
    </g>
    <g id="ytick_20">
     <g id="line2d_88">
      <g>
       <use style="stroke:#000000;stroke-width:0.6;" x="90" xlink:href="#m1867c5b642" y="203.073103"/>
      </g>
     </g>
    </g>
    <g id="ytick_21">
     <g id="line2d_89">
      <g>
       <use style="stroke:#000000;stroke-width:0.6;" x="90" xlink:href="#m1867c5b642" y="195.319906"/>
      </g>
     </g>
    </g>
    <g id="ytick_22">
     <g id="line2d_90">
      <g>
       <use style="stroke:#000000;stroke-width:0.6;" x="90" xlink:href="#m1867c5b642" y="189.306059"/>
      </g>
     </g>
    </g>
    <g id="ytick_23">
     <g id="line2d_91">
      <g>
       <use style="stroke:#000000;stroke-width:0.6;" x="90" xlink:href="#m1867c5b642" y="184.392388"/>
      </g>
     </g>
    </g>
    <g id="ytick_24">
     <g id="line2d_92">
      <g>
       <use style="stroke:#000000;stroke-width:0.6;" x="90" xlink:href="#m1867c5b642" y="180.237939"/>
      </g>
     </g>
    </g>
    <g id="ytick_25">
     <g id="line2d_93">
      <g>
       <use style="stroke:#000000;stroke-width:0.6;" x="90" xlink:href="#m1867c5b642" y="176.639191"/>
      </g>
     </g>
    </g>
    <g id="ytick_26">
     <g id="line2d_94">
      <g>
       <use style="stroke:#000000;stroke-width:0.6;" x="90" xlink:href="#m1867c5b642" y="173.464871"/>
      </g>
     </g>
    </g>
    <g id="ytick_27">
     <g id="line2d_95">
      <g>
       <use style="stroke:#000000;stroke-width:0.6;" x="90" xlink:href="#m1867c5b642" y="151.94463"/>
      </g>
     </g>
    </g>
    <g id="ytick_28">
     <g id="line2d_96">
      <g>
       <use style="stroke:#000000;stroke-width:0.6;" x="90" xlink:href="#m1867c5b642" y="141.017112"/>
      </g>
     </g>
    </g>
    <g id="ytick_29">
     <g id="line2d_97">
      <g>
       <use style="stroke:#000000;stroke-width:0.6;" x="90" xlink:href="#m1867c5b642" y="133.263915"/>
      </g>
     </g>
    </g>
    <g id="ytick_30">
     <g id="line2d_98">
      <g>
       <use style="stroke:#000000;stroke-width:0.6;" x="90" xlink:href="#m1867c5b642" y="127.250068"/>
      </g>
     </g>
    </g>
    <g id="ytick_31">
     <g id="line2d_99">
      <g>
       <use style="stroke:#000000;stroke-width:0.6;" x="90" xlink:href="#m1867c5b642" y="122.336397"/>
      </g>
     </g>
    </g>
    <g id="ytick_32">
     <g id="line2d_100">
      <g>
       <use style="stroke:#000000;stroke-width:0.6;" x="90" xlink:href="#m1867c5b642" y="118.181948"/>
      </g>
     </g>
    </g>
    <g id="ytick_33">
     <g id="line2d_101">
      <g>
       <use style="stroke:#000000;stroke-width:0.6;" x="90" xlink:href="#m1867c5b642" y="114.5832"/>
      </g>
     </g>
    </g>
    <g id="ytick_34">
     <g id="line2d_102">
      <g>
       <use style="stroke:#000000;stroke-width:0.6;" x="90" xlink:href="#m1867c5b642" y="111.40888"/>
      </g>
     </g>
    </g>
    <g id="ytick_35">
     <g id="line2d_103">
      <g>
       <use style="stroke:#000000;stroke-width:0.6;" x="90" xlink:href="#m1867c5b642" y="89.888639"/>
      </g>
     </g>
    </g>
    <g id="ytick_36">
     <g id="line2d_104">
      <g>
       <use style="stroke:#000000;stroke-width:0.6;" x="90" xlink:href="#m1867c5b642" y="78.961121"/>
      </g>
     </g>
    </g>
    <g id="ytick_37">
     <g id="line2d_105">
      <g>
       <use style="stroke:#000000;stroke-width:0.6;" x="90" xlink:href="#m1867c5b642" y="71.207924"/>
      </g>
     </g>
    </g>
    <g id="ytick_38">
     <g id="line2d_106">
      <g>
       <use style="stroke:#000000;stroke-width:0.6;" x="90" xlink:href="#m1867c5b642" y="65.194077"/>
      </g>
     </g>
    </g>
    <g id="ytick_39">
     <g id="line2d_107">
      <g>
       <use style="stroke:#000000;stroke-width:0.6;" x="90" xlink:href="#m1867c5b642" y="60.280406"/>
      </g>
     </g>
    </g>
    <g id="ytick_40">
     <g id="line2d_108">
      <g>
       <use style="stroke:#000000;stroke-width:0.6;" x="90" xlink:href="#m1867c5b642" y="56.125957"/>
      </g>
     </g>
    </g>
    <g id="ytick_41">
     <g id="line2d_109">
      <g>
       <use style="stroke:#000000;stroke-width:0.6;" x="90" xlink:href="#m1867c5b642" y="52.527209"/>
      </g>
     </g>
    </g>
    <g id="ytick_42">
     <g id="line2d_110">
      <g>
       <use style="stroke:#000000;stroke-width:0.6;" x="90" xlink:href="#m1867c5b642" y="49.352889"/>
      </g>
     </g>
    </g>
   </g>
   <g id="line2d_111">
    <path clip-path="url(#p4c6c0c0c66)" d="M 94.24467 361 
L 94.248731 182.938709 
L 95.664975 171.103247 
L 97.081218 166.444318 
L 98.497462 163.790522 
L 99.913706 160.851724 
L 101.329949 159.371236 
L 102.746193 156.987874 
L 104.162437 156.763546 
L 105.57868 156.215382 
L 106.994924 155.094393 
L 108.411168 155.097031 
L 109.827411 154.768321 
L 111.243655 154.643304 
L 112.659898 154.083033 
L 119.741117 155.261376 
L 121.15736 155.622174 
L 122.573604 156.211547 
L 125.406091 157.898409 
L 126.822335 158.811485 
L 129.654822 161.110297 
L 132.48731 164.031936 
L 135.319797 167.415923 
L 138.152284 171.323292 
L 140.984772 175.702088 
L 145.233503 183.004485 
L 146.649746 185.488932 
L 162.228426 215.252473 
L 163.64467 217.797285 
L 170.725888 229.249895 
L 173.558376 232.890317 
L 176.390863 236.247704 
L 177.807107 237.374162 
L 179.22335 239.177745 
L 180.639594 240.261245 
L 183.472081 242.003273 
L 184.888325 242.630696 
L 186.304569 243.058445 
L 187.720812 243.284259 
L 189.137056 243.3062 
L 190.553299 243.120951 
L 191.969543 242.726344 
L 193.385787 242.123795 
L 194.80203 241.317145 
L 196.218274 240.312475 
L 197.634518 239.117208 
L 199.050761 237.740104 
L 201.883249 234.482286 
L 204.715736 230.616005 
L 207.548223 226.202728 
L 210.380711 221.289529 
L 213.213198 215.920146 
L 216.045685 210.138475 
L 220.294416 200.806492 
L 225.959391 187.576797 
L 233.040609 170.960244 
L 237.28934 161.667831 
L 240.121827 155.974113 
L 242.954315 150.762099 
L 245.786802 146.053279 
L 248.619289 141.813585 
L 251.451777 137.998736 
L 254.284264 134.571966 
L 257.116751 131.486122 
L 259.949239 128.675374 
L 264.19797 124.853625 
L 268.446701 121.391885 
L 272.695431 118.241582 
L 275.527919 116.3346 
L 278.360406 114.627469 
L 281.192893 113.18079 
L 284.025381 112.05386 
L 286.857868 111.292087 
L 289.690355 110.931439 
L 292.522843 110.976451 
L 295.35533 111.401461 
L 298.187817 112.158452 
L 301.020305 113.170041 
L 309.517766 116.537953 
L 312.350254 117.329336 
L 315.182741 117.74844 
L 316.598985 117.786475 
L 318.015228 117.697628 
L 319.431472 117.476042 
L 320.847716 117.117867 
L 322.263959 116.621709 
L 323.680203 115.989297 
L 325.096447 115.224809 
L 327.928934 113.323642 
L 330.761421 110.983679 
L 333.593909 108.280749 
L 336.426396 105.29633 
L 340.675127 100.454114 
L 349.172589 90.506343 
L 352.005076 87.509826 
L 354.837563 84.901099 
L 356.253807 83.791386 
L 357.670051 82.838421 
L 359.086294 82.060377 
L 360.502538 81.472273 
L 361.918782 81.085799 
L 363.335025 80.909978 
L 364.751269 80.951376 
L 366.167513 81.214187 
L 367.583756 81.700389 
L 369 82.409415 
L 370.416244 83.337905 
L 371.832487 84.480059 
L 373.248731 85.82816 
L 374.664975 87.373219 
L 376.081218 89.105242 
L 378.913706 93.085491 
L 381.746193 97.672926 
L 384.57868 102.76479 
L 387.411168 108.254491 
L 391.659898 116.987506 
L 401.573604 137.737462 
L 405.822335 145.999949 
L 408.654822 151.119571 
L 411.48731 155.879704 
L 414.319797 160.250798 
L 417.152284 164.212366 
L 419.984772 167.753978 
L 422.817259 170.878665 
L 425.649746 173.593305 
L 428.482234 175.901801 
L 431.314721 177.805335 
L 434.147208 179.302676 
L 436.979695 180.379309 
L 438.395939 180.749981 
L 439.812183 181.000144 
L 441.228426 181.12177 
L 442.64467 181.10579 
L 444.060914 180.942544 
L 445.477157 180.62241 
L 446.893401 180.135749 
L 448.309645 179.473655 
L 449.725888 178.627965 
L 451.142132 177.590402 
L 452.558376 176.353574 
L 453.974619 174.913822 
L 455.390863 173.270085 
L 456.807107 171.421204 
L 458.22335 169.368109 
L 461.055838 164.667416 
L 463.888325 159.222564 
L 466.720812 153.126129 
L 469.553299 146.499991 
L 473.80203 135.90152 
L 482.299492 114.386339 
L 486.548223 104.355799 
L 489.380711 98.138509 
L 492.213198 92.335084 
L 495.045685 86.980654 
L 497.878173 82.129403 
L 500.71066 77.831528 
L 503.543147 74.124548 
L 506.375635 71.030088 
L 507.791878 69.717336 
L 509.208122 68.560592 
L 510.624365 67.55746 
L 512.040609 66.704732 
L 513.456853 65.999202 
L 514.873096 65.437406 
L 516.28934 65.015499 
L 517.705584 64.729113 
L 519.121827 64.573316 
L 520.538071 64.542737 
L 521.954315 64.631524 
L 524.786802 65.141501 
L 527.619289 66.058722 
L 530.451777 67.346405 
L 533.284264 68.97045 
L 536.116751 70.903704 
L 538.949239 73.120121 
L 541.781726 75.591567 
L 546.030457 79.698408 
L 550.279188 84.144593 
L 563.025381 97.791145 
L 567.274112 101.926384 
L 572.939086 107.03304 
L 580.020305 113.3111 
L 582.852792 116.042316 
L 585.685279 119.024263 
L 588.517766 122.320678 
L 591.350254 125.976486 
L 594.182741 130.014974 
L 597.015228 134.440795 
L 599.847716 139.245061 
L 602.680203 144.40613 
L 606.928934 152.748606 
L 611.177665 161.692777 
L 616.84264 174.286073 
L 625.340102 193.910386 
L 640.918782 229.971954 
L 648 246.014234 
L 648 246.014234 
" style="fill:none;stroke:#008000;stroke-linecap:square;stroke-width:1.5;"/>
   </g>
   <g id="line2d_112">
    <path clip-path="url(#p4c6c0c0c66)" d="M 90 108.582681 
L 91.416244 241.404617 
L 92.832487 169.945784 
L 94.248731 152.750533 
L 95.664975 151.286273 
L 97.081218 152.701609 
L 98.497462 153.246559 
L 101.329949 153.105378 
L 104.162437 153.263563 
L 106.994924 153.727598 
L 109.827411 154.61918 
L 111.243655 155.246659 
L 112.659898 156.014832 
L 114.076142 156.943643 
L 115.492386 158.03632 
L 116.908629 159.292911 
L 119.741117 162.432168 
L 121.15736 164.220153 
L 123.989848 168.394683 
L 126.822335 173.270521 
L 129.654822 178.75314 
L 132.48731 184.75099 
L 136.736041 194.455143 
L 145.233503 214.233301 
L 148.06599 220.376143 
L 150.898477 226.084543 
L 153.730964 231.306697 
L 156.563452 235.961933 
L 159.395939 240.003263 
L 162.228426 243.372954 
L 163.64467 244.78205 
L 165.060914 246.002147 
L 166.477157 247.035475 
L 167.893401 247.879749 
L 169.309645 248.520026 
L 170.725888 248.959915 
L 172.142132 249.213577 
L 173.558376 249.280683 
L 174.974619 249.140295 
L 176.390863 248.798728 
L 177.807107 248.274555 
L 179.22335 247.576978 
L 180.639594 246.704535 
L 182.055838 245.667291 
L 183.472081 244.468867 
L 184.888325 243.099799 
L 187.720812 239.872047 
L 190.553299 236.115997 
L 193.385787 231.892315 
L 196.218274 227.269927 
L 199.050761 222.280516 
L 201.883249 216.9081 
L 204.715736 211.159518 
L 208.964467 201.89817 
L 213.213198 191.967116 
L 225.959391 161.580404 
L 228.791878 155.486911 
L 231.624365 149.894616 
L 234.456853 144.878328 
L 237.28934 140.465425 
L 240.121827 136.616764 
L 242.954315 133.172281 
L 245.786802 130.081823 
L 248.619289 127.346481 
L 252.86802 123.711211 
L 257.116751 120.352463 
L 261.365482 117.23234 
L 265.614213 114.386204 
L 268.446701 112.695633 
L 271.279188 111.283253 
L 274.111675 110.225099 
L 275.527919 109.874521 
L 278.360406 109.529938 
L 279.77665 109.530332 
L 281.192893 109.662635 
L 282.609137 109.930574 
L 285.441624 110.821866 
L 288.274112 112.080026 
L 291.106599 113.596647 
L 296.771574 116.81805 
L 299.604061 118.070129 
L 301.020305 118.534759 
L 302.436548 118.875908 
L 303.852792 119.087382 
L 305.269036 119.151138 
L 306.685279 119.058973 
L 308.101523 118.814338 
L 309.517766 118.40858 
L 310.93401 117.837749 
L 312.350254 117.112306 
L 313.766497 116.249149 
L 316.598985 114.131187 
L 319.431472 111.558451 
L 322.263959 108.632669 
L 326.51269 103.78823 
L 332.177665 96.829871 
L 339.258883 88.086387 
L 342.091371 84.924536 
L 344.923858 82.173052 
L 346.340102 81.010627 
L 347.756345 80.0264 
L 349.172589 79.245677 
L 350.588832 78.698864 
L 352.005076 78.41615 
L 353.42132 78.421368 
L 354.837563 78.720177 
L 356.253807 79.309849 
L 357.670051 80.190373 
L 359.086294 81.366017 
L 360.502538 82.835977 
L 361.918782 84.595041 
L 363.335025 86.637245 
L 364.751269 88.943479 
L 367.583756 94.240222 
L 370.416244 100.305689 
L 373.248731 106.977004 
L 377.497462 117.728919 
L 385.994924 139.765209 
L 388.827411 146.632577 
L 391.659898 153.072721 
L 394.492386 158.989501 
L 397.324873 164.234811 
L 400.15736 168.803278 
L 402.989848 172.722025 
L 405.822335 175.969036 
L 408.654822 178.566422 
L 411.48731 180.588973 
L 414.319797 182.13832 
L 417.152284 183.340692 
L 419.984772 184.217313 
L 422.817259 184.76014 
L 425.649746 184.967559 
L 428.482234 184.852685 
L 431.314721 184.330324 
L 432.730964 183.899228 
L 434.147208 183.324601 
L 435.563452 182.60264 
L 436.979695 181.73112 
L 438.395939 180.69832 
L 439.812183 179.497963 
L 441.228426 178.129292 
L 442.64467 176.585419 
L 444.060914 174.866888 
L 445.477157 172.970011 
L 448.309645 168.603595 
L 451.142132 163.559893 
L 453.974619 157.825396 
L 456.807107 151.497888 
L 459.639594 144.650258 
L 463.888325 133.731725 
L 472.385787 111.52492 
L 476.634518 101.207517 
L 479.467005 94.859549 
L 482.299492 88.994491 
L 485.13198 83.608408 
L 487.964467 78.676788 
L 490.796954 74.345528 
L 493.629442 70.675415 
L 495.045685 69.100032 
L 496.461929 67.70186 
L 497.878173 66.47901 
L 499.294416 65.429761 
L 500.71066 64.555126 
L 502.126904 63.865933 
L 503.543147 63.35117 
L 504.959391 62.994413 
L 506.375635 62.786287 
L 507.791878 62.723026 
L 509.208122 62.806529 
L 510.624365 63.028233 
L 512.040609 63.382354 
L 514.873096 64.448639 
L 517.705584 65.927008 
L 520.538071 67.737823 
L 523.370558 69.900795 
L 526.203046 72.355719 
L 529.035533 75.098646 
L 531.86802 78.106146 
L 536.116751 83.022939 
L 548.862944 98.373185 
L 551.695431 101.456527 
L 554.527919 104.237239 
L 558.77665 108.008115 
L 563.025381 111.470672 
L 568.690355 116.106333 
L 571.522843 118.723946 
L 574.35533 121.71246 
L 577.187817 125.222183 
L 580.020305 129.285294 
L 582.852792 133.922001 
L 585.685279 139.145867 
L 588.517766 144.915055 
L 591.350254 151.188628 
L 594.182741 157.922511 
L 598.431472 168.757919 
L 602.680203 180.300909 
L 608.345178 196.329538 
L 629.588832 257.01959 
L 633.837563 268.400182 
L 639.502538 282.872007 
L 643.751269 293.114338 
L 648 302.645455 
L 648 302.645455 
" style="fill:none;stroke:#0000ff;stroke-linecap:square;stroke-width:1.5;"/>
   </g>
   <g id="line2d_113">
    <path clip-path="url(#p4c6c0c0c66)" d="M 104.158315 361 
L 104.162437 180.237939 
L 105.57868 189.306059 
L 106.994924 161.557224 
L 108.411168 165.711674 
L 109.827411 150.629707 
L 111.243655 150.629707 
L 112.659898 165.711674 
L 114.076142 148.177965 
L 115.492386 136.862663 
L 118.324873 180.237939 
L 119.741117 170.625344 
L 121.15736 180.237939 
L 122.573604 156.324608 
L 123.989848 150.629707 
L 125.406091 159.697827 
L 126.822335 141.930778 
L 128.238579 168.05668 
L 129.654822 159.697827 
L 131.071066 170.625344 
L 132.48731 170.625344 
L 133.903553 144.873762 
L 135.319797 180.237939 
L 136.736041 165.711674 
L 138.152284 168.05668 
L 139.568528 157.958477 
L 140.984772 145.930783 
L 142.401015 156.324608 
L 143.817259 189.306059 
L 145.233503 184.392388 
L 146.649746 170.625344 
L 148.06599 195.319906 
L 149.482234 214.000621 
L 150.898477 180.237939 
L 152.314721 232.681335 
L 152.317649 361 
M 156.559849 361 
L 156.563452 203.073103 
L 156.567054 361 
M 159.393011 361 
L 159.395939 232.681335 
L 160.812183 214.000621 
L 162.228426 214.000621 
L 162.23178 361 
M 167.890473 361 
L 167.893401 232.681335 
L 169.309645 184.392388 
L 169.313672 361 
M 176.387934 361 
L 176.390863 232.681335 
L 176.393791 361 
M 180.636665 361 
L 180.639594 232.681335 
L 182.055838 232.681335 
L 182.058766 361 
M 190.549946 361 
L 190.553299 214.000621 
L 190.556653 361 
M 196.215346 361 
L 196.218274 232.681335 
L 196.221203 361 
M 199.047159 361 
L 199.050761 203.073103 
L 200.467005 203.073103 
L 201.883249 232.681335 
L 201.886177 361 
M 204.712808 361 
L 204.715736 232.681335 
L 206.13198 203.073103 
L 206.135582 361 
M 208.961113 361 
L 208.964467 214.000621 
L 210.380711 214.000621 
L 211.796954 232.681335 
L 213.213198 232.681335 
L 213.216126 361 
M 216.042083 361 
L 216.045685 203.073103 
L 217.461929 214.000621 
L 218.878173 195.319906 
L 220.294416 203.073103 
L 221.71066 203.073103 
L 221.714262 361 
M 224.540219 361 
L 224.543147 232.681335 
L 225.959391 170.625344 
L 227.375635 176.639191 
L 228.791878 170.625344 
L 230.208122 170.625344 
L 231.624365 180.237939 
L 233.040609 214.000621 
L 234.456853 232.681335 
L 235.873096 170.625344 
L 237.28934 168.05668 
L 238.705584 131.314832 
L 240.121827 139.277762 
L 241.538071 145.930783 
L 242.954315 165.711674 
L 244.370558 157.958477 
L 245.786802 141.017112 
L 247.203046 145.930783 
L 248.619289 134.646299 
L 250.035533 136.103441 
L 251.451777 140.133408 
L 252.86802 144.873762 
L 254.284264 141.930778 
L 255.700508 125.679688 
L 257.116751 137.643894 
L 258.532995 120.597047 
L 259.949239 124.681404 
L 262.781726 141.017112 
L 264.19797 141.930778 
L 265.614213 136.103441 
L 267.030457 112.014536 
L 268.446701 123.250064 
L 269.862944 120.1792 
L 271.279188 125.679688 
L 272.695431 133.263915 
L 274.111675 127.250068 
L 275.527919 126.193047 
L 276.944162 112.014536 
L 278.360406 109.113828 
L 279.77665 112.322546 
L 281.192893 114.5832 
L 282.609137 141.017112 
L 284.025381 132.598435 
L 285.441624 95.073172 
L 286.857868 100.883617 
L 288.274112 110.816536 
L 289.690355 106.998973 
L 291.106599 101.087019 
L 292.522843 121.021474 
L 293.939086 109.66953 
L 295.35533 105.275518 
L 296.771574 98.18631 
L 298.187817 102.555507 
L 299.604061 98.370274 
L 301.020305 113.591043 
L 302.436548 131.948992 
L 303.852792 119.362454 
L 305.269036 118.181948 
L 306.685279 110.525175 
L 308.101523 118.569733 
L 309.517766 121.021474 
L 310.93401 127.250068 
L 312.350254 151.94463 
L 313.766497 128.350244 
L 315.182741 115.26553 
L 316.598985 125.679688 
L 318.015228 123.250064 
L 319.431472 115.965584 
L 320.847716 140.133408 
L 322.263959 157.958477 
L 323.680203 136.103441 
L 326.51269 101.916333 
L 327.928934 92.135821 
L 329.345178 115.613284 
L 330.761421 114.248406 
L 332.177665 133.946244 
L 333.593909 110.525175 
L 335.010152 101.498486 
L 336.426396 94.748462 
L 337.84264 100.681739 
L 339.258883 101.706599 
L 340.675127 103.655683 
L 342.091371 115.26553 
L 343.507614 121.452693 
L 344.923858 93.487386 
L 346.340102 87.814494 
L 347.756345 91.413242 
L 349.172589 89.354947 
L 350.588832 91.699953 
L 352.005076 105.51508 
L 353.42132 142.87651 
L 354.837563 108.569353 
L 356.253807 77.221771 
L 357.670051 83.874792 
L 359.086294 67.092003 
L 360.502538 74.961117 
L 361.918782 81.601749 
L 363.335025 94.268617 
L 364.751269 140.133408 
L 366.167513 84.419266 
L 367.583756 56.78855 
L 369 67.324337 
L 370.416244 69.384485 
L 371.832487 105.51508 
L 373.248731 97.641836 
L 374.664975 68.213876 
L 376.081218 72.947274 
L 377.497462 83.130547 
L 378.913706 82.817771 
L 380.329949 92.728165 
L 381.746193 141.017112 
L 383.162437 108.035661 
L 384.57868 83.660045 
L 385.994924 100.085023 
L 387.411168 102.127711 
L 388.827411 113.268277 
L 390.243655 119.767733 
L 391.659898 170.625344 
L 393.076142 133.946244 
L 394.492386 109.951737 
L 395.908629 130.695251 
L 397.324873 129.49725 
L 398.741117 131.948992 
L 400.15736 141.930778 
L 401.573604 195.319906 
L 402.989848 148.177965 
L 404.406091 136.103441 
L 405.822335 159.697827 
L 407.238579 163.554477 
L 408.654822 163.554477 
L 410.071066 157.958477 
L 411.48731 214.000621 
L 412.903553 184.392388 
L 414.319797 157.958477 
L 415.736041 163.554477 
L 417.152284 189.306059 
L 418.568528 170.625344 
L 419.984772 180.237939 
L 421.401015 232.681335 
L 422.817259 161.557224 
L 424.233503 154.784156 
L 425.649746 173.464871 
L 427.06599 161.557224 
L 428.482234 170.625344 
L 429.898477 149.375966 
L 431.314721 214.000621 
L 434.147208 163.554477 
L 436.979695 189.306059 
L 438.395939 165.711674 
L 439.812183 203.073103 
L 439.815785 361 
M 442.640271 361 
L 442.64467 168.05668 
L 444.060914 176.639191 
L 445.477157 203.073103 
L 446.893401 173.464871 
L 448.309645 173.464871 
L 449.725888 232.681335 
L 451.142132 203.073103 
L 452.558376 168.05668 
L 453.974619 173.464871 
L 455.390863 176.639191 
L 456.807107 165.711674 
L 458.22335 157.958477 
L 459.639594 184.392388 
L 461.055838 195.319906 
L 462.472081 170.625344 
L 463.888325 157.958477 
L 465.304569 168.05668 
L 466.720812 149.375966 
L 468.137056 147.030959 
L 469.553299 143.856639 
L 470.969543 170.625344 
L 472.385787 144.873762 
L 473.80203 131.948992 
L 475.218274 121.452693 
L 476.634518 126.716376 
L 478.050761 119.362454 
L 479.467005 127.250068 
L 480.883249 140.133408 
L 482.299492 122.336397 
L 483.715736 99.694428 
L 485.13198 95.401841 
L 486.548223 100.282464 
L 487.964467 99.501233 
L 489.380711 99.889018 
L 490.796954 127.794543 
L 492.213198 108.569353 
L 493.629442 82.817771 
L 495.045685 84.419266 
L 496.461929 84.640174 
L 497.878173 75.746903 
L 499.294416 81.306128 
L 500.71066 102.990203 
L 502.126904 81.800648 
L 503.543147 65.410549 
L 504.959391 61.194073 
L 506.375635 67.324337 
L 507.791878 74.04745 
L 509.208122 67.266065 
L 510.624365 89.888639 
L 512.040609 61.333834 
L 513.456853 59.790787 
L 514.873096 62.772819 
L 516.28934 55.554545 
L 517.705584 64.819386 
L 519.121827 69.510717 
L 520.538071 79.782014 
L 521.954315 72.238008 
L 523.370558 57.146042 
L 524.786802 60.056749 
L 526.203046 64.92591 
L 527.619289 64.502317 
L 529.035533 67.034231 
L 530.451777 117.422727 
L 531.86802 75.508753 
L 533.284264 59.790787 
L 534.700508 71.006549 
L 536.116751 69.384485 
L 537.532995 69.447527 
L 538.949239 73.823793 
L 540.365482 130.089595 
L 541.781726 76.310912 
L 543.19797 61.947984 
L 544.614213 67.6176 
L 546.030457 72.168097 
L 547.446701 73.528441 
L 548.862944 85.42793 
L 550.279188 121.890923 
L 551.695431 87.442757 
L 553.111675 72.378376 
L 554.527919 83.98281 
L 557.360406 97.822108 
L 558.77665 99.309414 
L 560.192893 147.030959 
L 561.609137 103.210209 
L 563.025381 93.333822 
L 564.441624 99.309414 
L 565.857868 100.282464 
L 567.274112 111.11108 
L 568.690355 120.1792 
L 570.106599 180.237939 
L 571.522843 107.25443 
L 572.939086 104.338012 
L 574.35533 110.525175 
L 575.771574 104.569349 
L 577.187817 108.840216 
L 578.604061 132.598435 
L 580.020305 151.94463 
L 581.436548 120.1792 
L 582.852792 106.000689 
L 584.269036 105.038066 
L 585.685279 107.512333 
L 587.101523 116.322551 
L 588.517766 111.40888 
L 589.93401 151.94463 
L 591.350254 133.946244 
L 592.766497 108.569353 
L 594.182741 124.681404 
L 595.598985 131.314832 
L 597.015228 127.250068 
L 598.431472 143.856639 
L 599.847716 195.319906 
L 601.263959 134.646299 
L 602.680203 135.365023 
L 604.096447 140.133408 
L 605.51269 141.930778 
L 606.928934 141.930778 
L 608.345178 157.958477 
L 609.761421 214.000621 
L 611.177665 153.327013 
L 612.593909 153.327013 
L 614.010152 173.464871 
L 615.426396 161.557224 
L 616.84264 159.697827 
L 618.258883 189.306059 
L 619.675127 232.681335 
L 619.678055 361 
M 622.50426 361 
L 622.507614 214.000621 
L 623.923858 203.073103 
L 625.340102 180.237939 
L 626.756345 232.681335 
L 628.172589 214.000621 
L 628.175943 361 
M 631.002148 361 
L 631.005076 232.681335 
L 632.42132 189.306059 
L 633.837563 189.306059 
L 635.253807 203.073103 
L 635.25741 361 
M 638.082692 361 
L 638.086294 203.073103 
L 638.089897 361 
M 642.331423 361 
L 642.335025 203.073103 
L 642.338628 361 
M 645.164584 361 
L 645.167513 232.681335 
L 645.170441 361 
" style="fill:none;stroke:#ff0000;stroke-linecap:square;stroke-opacity:0.7;stroke-width:1.5;"/>
   </g>
   <g id="patch_3">
    <path d="M 90 315 
L 90 43.2 
" style="fill:none;stroke:#000000;stroke-linecap:square;stroke-linejoin:miter;stroke-width:0.8;"/>
   </g>
   <g id="patch_4">
    <path d="M 648 315 
L 648 43.2 
" style="fill:none;stroke:#000000;stroke-linecap:square;stroke-linejoin:miter;stroke-width:0.8;"/>
   </g>
   <g id="patch_5">
    <path d="M 90 315 
L 648 315 
" style="fill:none;stroke:#000000;stroke-linecap:square;stroke-linejoin:miter;stroke-width:0.8;"/>
   </g>
   <g id="patch_6">
    <path d="M 90 43.2 
L 648 43.2 
" style="fill:none;stroke:#000000;stroke-linecap:square;stroke-linejoin:miter;stroke-width:0.8;"/>
   </g>
   <g id="text_20">
    <!-- 74  -->
    <g transform="translate(333.233437 37.2)scale(0.12 -0.12)">
     <defs>
      <path d="M 8.203125 72.90625 
L 55.078125 72.90625 
L 55.078125 68.703125 
L 28.609375 0 
L 18.3125 0 
L 43.21875 64.59375 
L 8.203125 64.59375 
z
" id="DejaVuSans-55"/>
      <path d="M 37.796875 64.3125 
L 12.890625 25.390625 
L 37.796875 25.390625 
z
M 35.203125 72.90625 
L 47.609375 72.90625 
L 47.609375 25.390625 
L 58.015625 25.390625 
L 58.015625 17.1875 
L 47.609375 17.1875 
L 47.609375 0 
L 37.796875 0 
L 37.796875 17.1875 
L 4.890625 17.1875 
L 4.890625 26.703125 
z
" id="DejaVuSans-52"/>
      <path id="DejaVuSans-32"/>
      <path d="M 19.140625 33.40625 
L 19.140625 0 
L 10.109375 0 
L 10.109375 29.6875 
z
M 56.25 27.828125 
L 56.25 0 
L 47.21875 0 
L 47.21875 29.6875 
Q 47.21875 40.234375 44.0625 43.96875 
Q 40.921875 47.703125 31.84375 47.703125 
L 9.078125 47.703125 
L 9.078125 54.6875 
L 31.734375 54.6875 
Q 45.265625 54.6875 50.75 48.578125 
Q 56.25 42.484375 56.25 27.828125 
z
" id="DejaVuSans-1492"/>
      <path d="M 18.796875 0 
L 38.53125 47.703125 
L 4.296875 47.703125 
L 4.296875 72.90625 
L 13.421875 72.90625 
L 13.421875 54.6875 
L 49.21875 54.640625 
L 49.078125 49.265625 
L 28.328125 0 
z
" id="DejaVuSans-1500"/>
      <path d="M 43.75 20.0625 
L 57.671875 0 
L 47.078125 0 
L 26.765625 29.296875 
Q 25.390625 28.609375 24.53125 28.09375 
Q 23.6875 27.59375 22.3125 26.296875 
Q 20.953125 25 20.140625 23.40625 
Q 19.34375 21.828125 18.703125 19.140625 
Q 18.0625 16.453125 18.0625 13.09375 
L 18.0625 0 
L 9.078125 0 
L 9.078125 9.03125 
Q 9.078125 12.984375 9.5625 16.359375 
Q 10.0625 19.734375 10.8125 22.078125 
Q 11.578125 24.421875 12.796875 26.390625 
Q 14.015625 28.375 15.109375 29.59375 
Q 16.21875 30.8125 17.796875 31.875 
Q 19.390625 32.953125 20.453125 33.46875 
Q 21.53125 33.984375 23.046875 34.625 
L 9.1875 54.6875 
L 19.78125 54.6875 
L 40.09375 25.390625 
Q 41.40625 26.03125 42.25 26.53125 
Q 43.109375 27.046875 44.46875 28.359375 
Q 45.84375 29.6875 46.671875 31.265625 
Q 47.515625 32.859375 48.140625 35.546875 
Q 48.78125 38.234375 48.78125 41.609375 
L 48.78125 54.6875 
L 57.765625 54.6875 
L 57.765625 45.65625 
Q 57.765625 41.65625 57.265625 38.3125 
Q 56.78125 34.96875 56.03125 32.59375 
Q 55.28125 30.21875 54.046875 28.234375 
Q 52.828125 26.265625 51.703125 25.0625 
Q 50.59375 23.875 49.03125 22.796875 
Q 47.46875 21.734375 46.390625 21.21875 
Q 45.3125 20.703125 43.75 20.0625 
z
" id="DejaVuSans-1488"/>
      <path d="M 4.296875 54.6875 
L 14.890625 54.6875 
Q 15.09375 54.15625 16.703125 50.3125 
Q 18.3125 46.484375 19.390625 42.671875 
Q 20.75 46.09375 22.625 48.53125 
Q 24.515625 50.984375 26.359375 52.296875 
Q 28.21875 53.609375 30.609375 54.34375 
Q 33.015625 55.078125 34.859375 55.265625 
Q 36.71875 55.46875 39.203125 55.46875 
Q 58.84375 55.46875 58.84375 29.59375 
L 58.84375 0 
L 31.390625 0 
L 31.390625 6.9375 
L 49.75 6.9375 
L 49.75 29.59375 
Q 49.75 39.109375 46.765625 43.671875 
Q 43.796875 48.25 39.0625 48.25 
Q 30.28125 48.25 26.078125 40.4375 
Q 23.734375 35.984375 21.6875 25.921875 
Q 21.578125 25.25 21.34375 24.125 
L 16.546875 0 
L 7.46875 0 
L 11.375 20.40625 
Q 11.53125 21.1875 11.890625 22.96875 
Q 12.25 24.75 12.375 25.40625 
Q 12.5 26.078125 12.671875 27.3125 
Q 12.84375 28.5625 12.90625 29.515625 
Q 12.984375 30.46875 12.984375 31.546875 
Q 12.984375 34.671875 10.71875 41.09375 
Q 8.453125 47.515625 4.296875 54.6875 
z
" id="DejaVuSans-1502"/>
      <path d="M 47.359375 27.828125 
L 47.359375 0 
L 38.28125 0 
L 38.28125 27.828125 
Q 38.28125 31.390625 37.765625 34.265625 
Q 37.25 37.15625 36 39.71875 
Q 34.765625 42.28125 32.8125 43.984375 
Q 30.859375 45.703125 27.78125 46.703125 
Q 24.703125 47.703125 20.703125 47.703125 
L 4.296875 47.703125 
L 4.296875 54.6875 
L 20.65625 54.6875 
Q 26.8125 54.6875 31.46875 53.390625 
Q 36.140625 52.09375 39.109375 49.828125 
Q 42.09375 47.5625 43.96875 44.109375 
Q 45.84375 40.671875 46.59375 36.734375 
Q 47.359375 32.8125 47.359375 27.828125 
z
" id="DejaVuSans-1512"/>
     </defs>
     <use xlink:href="#DejaVuSans-55"/>
     <use x="63.623047" xlink:href="#DejaVuSans-52"/>
     <use x="127.246094" xlink:href="#DejaVuSans-32"/>
     <use x="159.033203" xlink:href="#DejaVuSans-1492"/>
     <use x="224.365234" xlink:href="#DejaVuSans-1500"/>
     <use x="281.201172" xlink:href="#DejaVuSans-1500"/>
     <use x="338.037109" xlink:href="#DejaVuSans-1488"/>
     <use x="404.882812" xlink:href="#DejaVuSans-1502"/>
     <use x="472.802734" xlink:href="#DejaVuSans-1488"/>
     <use x="539.648438" xlink:href="#DejaVuSans-1512"/>
    </g>
   </g>
   <g id="legend_1">
    <g id="patch_7">
     <path d="M 97 95.234375 
L 221.582812 95.234375 
Q 223.582812 95.234375 223.582812 93.234375 
L 223.582812 50.2 
Q 223.582812 48.2 221.582812 48.2 
L 97 48.2 
Q 95 48.2 95 50.2 
L 95 93.234375 
Q 95 95.234375 97 95.234375 
z
" style="fill:#ffffff;opacity:0.8;stroke:#cccccc;stroke-linejoin:miter;"/>
    </g>
    <g id="line2d_114">
     <path d="M 99 56.298437 
L 119 56.298437 
" style="fill:none;stroke:#008000;stroke-linecap:square;stroke-width:1.5;"/>
    </g>
    <g id="line2d_115"/>
    <g id="text_21">
     <!-- Test-adjusted -->
     <g transform="translate(127 59.798437)scale(0.1 -0.1)">
      <defs>
       <path d="M -0.296875 72.90625 
L 61.375 72.90625 
L 61.375 64.59375 
L 35.5 64.59375 
L 35.5 0 
L 25.59375 0 
L 25.59375 64.59375 
L -0.296875 64.59375 
z
" id="DejaVuSans-84"/>
       <path d="M 44.28125 53.078125 
L 44.28125 44.578125 
Q 40.484375 46.53125 36.375 47.5 
Q 32.28125 48.484375 27.875 48.484375 
Q 21.1875 48.484375 17.84375 46.4375 
Q 14.5 44.390625 14.5 40.28125 
Q 14.5 37.15625 16.890625 35.375 
Q 19.28125 33.59375 26.515625 31.984375 
L 29.59375 31.296875 
Q 39.15625 29.25 43.1875 25.515625 
Q 47.21875 21.78125 47.21875 15.09375 
Q 47.21875 7.46875 41.1875 3.015625 
Q 35.15625 -1.421875 24.609375 -1.421875 
Q 20.21875 -1.421875 15.453125 -0.5625 
Q 10.6875 0.296875 5.421875 2 
L 5.421875 11.28125 
Q 10.40625 8.6875 15.234375 7.390625 
Q 20.0625 6.109375 24.8125 6.109375 
Q 31.15625 6.109375 34.5625 8.28125 
Q 37.984375 10.453125 37.984375 14.40625 
Q 37.984375 18.0625 35.515625 20.015625 
Q 33.0625 21.96875 24.703125 23.78125 
L 21.578125 24.515625 
Q 13.234375 26.265625 9.515625 29.90625 
Q 5.8125 33.546875 5.8125 39.890625 
Q 5.8125 47.609375 11.28125 51.796875 
Q 16.75 56 26.8125 56 
Q 31.78125 56 36.171875 55.265625 
Q 40.578125 54.546875 44.28125 53.078125 
z
" id="DejaVuSans-115"/>
       <path d="M 4.890625 31.390625 
L 31.203125 31.390625 
L 31.203125 23.390625 
L 4.890625 23.390625 
z
" id="DejaVuSans-45"/>
       <path d="M 9.421875 54.6875 
L 18.40625 54.6875 
L 18.40625 -0.984375 
Q 18.40625 -11.421875 14.421875 -16.109375 
Q 10.453125 -20.796875 1.609375 -20.796875 
L -1.8125 -20.796875 
L -1.8125 -13.1875 
L 0.59375 -13.1875 
Q 5.71875 -13.1875 7.5625 -10.8125 
Q 9.421875 -8.453125 9.421875 -0.984375 
z
M 9.421875 75.984375 
L 18.40625 75.984375 
L 18.40625 64.59375 
L 9.421875 64.59375 
z
" id="DejaVuSans-106"/>
      </defs>
      <use xlink:href="#DejaVuSans-84"/>
      <use x="44.083984" xlink:href="#DejaVuSans-101"/>
      <use x="105.607422" xlink:href="#DejaVuSans-115"/>
      <use x="157.707031" xlink:href="#DejaVuSans-116"/>
      <use x="196.916016" xlink:href="#DejaVuSans-45"/>
      <use x="233" xlink:href="#DejaVuSans-97"/>
      <use x="294.279297" xlink:href="#DejaVuSans-100"/>
      <use x="357.755859" xlink:href="#DejaVuSans-106"/>
      <use x="385.539062" xlink:href="#DejaVuSans-117"/>
      <use x="448.917969" xlink:href="#DejaVuSans-115"/>
      <use x="501.017578" xlink:href="#DejaVuSans-116"/>
      <use x="540.226562" xlink:href="#DejaVuSans-101"/>
      <use x="601.75" xlink:href="#DejaVuSans-100"/>
     </g>
    </g>
    <g id="line2d_116">
     <path d="M 99 70.976562 
L 119 70.976562 
" style="fill:none;stroke:#0000ff;stroke-linecap:square;stroke-width:1.5;"/>
    </g>
    <g id="line2d_117"/>
    <g id="text_22">
     <!-- Infections -->
     <g transform="translate(127 74.476562)scale(0.1 -0.1)">
      <defs>
       <path d="M 9.8125 72.90625 
L 19.671875 72.90625 
L 19.671875 0 
L 9.8125 0 
z
" id="DejaVuSans-73"/>
       <path d="M 37.109375 75.984375 
L 37.109375 68.5 
L 28.515625 68.5 
Q 23.6875 68.5 21.796875 66.546875 
Q 19.921875 64.59375 19.921875 59.515625 
L 19.921875 54.6875 
L 34.71875 54.6875 
L 34.71875 47.703125 
L 19.921875 47.703125 
L 19.921875 0 
L 10.890625 0 
L 10.890625 47.703125 
L 2.296875 47.703125 
L 2.296875 54.6875 
L 10.890625 54.6875 
L 10.890625 58.5 
Q 10.890625 67.625 15.140625 71.796875 
Q 19.390625 75.984375 28.609375 75.984375 
z
" id="DejaVuSans-102"/>
       <path d="M 9.421875 54.6875 
L 18.40625 54.6875 
L 18.40625 0 
L 9.421875 0 
z
M 9.421875 75.984375 
L 18.40625 75.984375 
L 18.40625 64.59375 
L 9.421875 64.59375 
z
" id="DejaVuSans-105"/>
      </defs>
      <use xlink:href="#DejaVuSans-73"/>
      <use x="29.492188" xlink:href="#DejaVuSans-110"/>
      <use x="92.871094" xlink:href="#DejaVuSans-102"/>
      <use x="128.076172" xlink:href="#DejaVuSans-101"/>
      <use x="189.599609" xlink:href="#DejaVuSans-99"/>
      <use x="244.580078" xlink:href="#DejaVuSans-116"/>
      <use x="283.789062" xlink:href="#DejaVuSans-105"/>
      <use x="311.572266" xlink:href="#DejaVuSans-111"/>
      <use x="372.753906" xlink:href="#DejaVuSans-110"/>
      <use x="436.132812" xlink:href="#DejaVuSans-115"/>
     </g>
    </g>
    <g id="line2d_118">
     <path d="M 99 85.654687 
L 119 85.654687 
" style="fill:none;stroke:#ff0000;stroke-linecap:square;stroke-opacity:0.7;stroke-width:1.5;"/>
    </g>
    <g id="line2d_119"/>
    <g id="text_23">
     <!-- Reported Positives -->
     <g transform="translate(127 89.154687)scale(0.1 -0.1)">
      <defs>
       <path d="M 44.390625 34.1875 
Q 47.5625 33.109375 50.5625 29.59375 
Q 53.5625 26.078125 56.59375 19.921875 
L 66.609375 0 
L 56 0 
L 46.6875 18.703125 
Q 43.0625 26.03125 39.671875 28.421875 
Q 36.28125 30.8125 30.421875 30.8125 
L 19.671875 30.8125 
L 19.671875 0 
L 9.8125 0 
L 9.8125 72.90625 
L 32.078125 72.90625 
Q 44.578125 72.90625 50.734375 67.671875 
Q 56.890625 62.453125 56.890625 51.90625 
Q 56.890625 45.015625 53.6875 40.46875 
Q 50.484375 35.9375 44.390625 34.1875 
z
M 19.671875 64.796875 
L 19.671875 38.921875 
L 32.078125 38.921875 
Q 39.203125 38.921875 42.84375 42.21875 
Q 46.484375 45.515625 46.484375 51.90625 
Q 46.484375 58.296875 42.84375 61.546875 
Q 39.203125 64.796875 32.078125 64.796875 
z
" id="DejaVuSans-82"/>
       <path d="M 19.671875 64.796875 
L 19.671875 37.40625 
L 32.078125 37.40625 
Q 38.96875 37.40625 42.71875 40.96875 
Q 46.484375 44.53125 46.484375 51.125 
Q 46.484375 57.671875 42.71875 61.234375 
Q 38.96875 64.796875 32.078125 64.796875 
z
M 9.8125 72.90625 
L 32.078125 72.90625 
Q 44.34375 72.90625 50.609375 67.359375 
Q 56.890625 61.8125 56.890625 51.125 
Q 56.890625 40.328125 50.609375 34.8125 
Q 44.34375 29.296875 32.078125 29.296875 
L 19.671875 29.296875 
L 19.671875 0 
L 9.8125 0 
z
" id="DejaVuSans-80"/>
      </defs>
      <use xlink:href="#DejaVuSans-82"/>
      <use x="64.982422" xlink:href="#DejaVuSans-101"/>
      <use x="126.505859" xlink:href="#DejaVuSans-112"/>
      <use x="189.982422" xlink:href="#DejaVuSans-111"/>
      <use x="251.164062" xlink:href="#DejaVuSans-114"/>
      <use x="292.277344" xlink:href="#DejaVuSans-116"/>
      <use x="331.486328" xlink:href="#DejaVuSans-101"/>
      <use x="393.009766" xlink:href="#DejaVuSans-100"/>
      <use x="456.486328" xlink:href="#DejaVuSans-32"/>
      <use x="488.273438" xlink:href="#DejaVuSans-80"/>
      <use x="544.951172" xlink:href="#DejaVuSans-111"/>
      <use x="606.132812" xlink:href="#DejaVuSans-115"/>
      <use x="658.232422" xlink:href="#DejaVuSans-105"/>
      <use x="686.015625" xlink:href="#DejaVuSans-116"/>
      <use x="725.224609" xlink:href="#DejaVuSans-105"/>
      <use x="753.007812" xlink:href="#DejaVuSans-118"/>
      <use x="812.1875" xlink:href="#DejaVuSans-101"/>
      <use x="873.710938" xlink:href="#DejaVuSans-115"/>
     </g>
    </g>
   </g>
  </g>
 </g>
 <defs>
  <clipPath id="p4c6c0c0c66">
   <rect height="271.8" width="558" x="90" y="43.2"/>
  </clipPath>
 </defs>
</svg>
