<?xml version="1.0" encoding="utf-8" standalone="no"?>
<!DOCTYPE svg PUBLIC "-//W3C//DTD SVG 1.1//EN"
  "http://www.w3.org/Graphics/SVG/1.1/DTD/svg11.dtd">
<!-- Created with matplotlib (https://matplotlib.org/) -->
<svg height="360pt" version="1.1" viewBox="0 0 720 360" width="720pt" xmlns="http://www.w3.org/2000/svg" xmlns:xlink="http://www.w3.org/1999/xlink">
 <metadata>
  <rdf:RDF xmlns:cc="http://creativecommons.org/ns#" xmlns:dc="http://purl.org/dc/elements/1.1/" xmlns:rdf="http://www.w3.org/1999/02/22-rdf-syntax-ns#">
   <cc:Work>
    <dc:type rdf:resource="http://purl.org/dc/dcmitype/StillImage"/>
    <dc:date>2021-03-11T13:47:57.462295</dc:date>
    <dc:format>image/svg+xml</dc:format>
    <dc:creator>
     <cc:Agent>
      <dc:title>Matplotlib v3.3.2, https://matplotlib.org/</dc:title>
     </cc:Agent>
    </dc:creator>
   </cc:Work>
  </rdf:RDF>
 </metadata>
 <defs>
  <style type="text/css">*{stroke-linecap:butt;stroke-linejoin:round;}</style>
 </defs>
 <g id="figure_1">
  <g id="patch_1">
   <path d="M 0 360 
L 720 360 
L 720 0 
L 0 0 
z
" style="fill:#ffffff;"/>
  </g>
  <g id="axes_1">
   <g id="patch_2">
    <path d="M 90 315 
L 648 315 
L 648 43.2 
L 90 43.2 
z
" style="fill:#ffffff;"/>
   </g>
   <g id="matplotlib.axis_1">
    <g id="xtick_1">
     <g id="line2d_1">
      <defs>
       <path d="M 0 0 
L 0 3.5 
" id="mae47e29baf" style="stroke:#000000;stroke-width:0.8;"/>
      </defs>
      <g>
       <use style="stroke:#000000;stroke-width:0.8;" x="90" xlink:href="#mae47e29baf" y="315"/>
      </g>
     </g>
    </g>
    <g id="xtick_2">
     <g id="line2d_2">
      <g>
       <use style="stroke:#000000;stroke-width:0.8;" x="122.280992" xlink:href="#mae47e29baf" y="315"/>
      </g>
     </g>
     <g id="text_1">
      <!-- Apr -->
      <g transform="translate(113.630992 329.598437)scale(0.1 -0.1)">
       <defs>
        <path d="M 34.1875 63.1875 
L 20.796875 26.90625 
L 47.609375 26.90625 
z
M 28.609375 72.90625 
L 39.796875 72.90625 
L 67.578125 0 
L 57.328125 0 
L 50.6875 18.703125 
L 17.828125 18.703125 
L 11.1875 0 
L 0.78125 0 
z
" id="DejaVuSans-65"/>
        <path d="M 18.109375 8.203125 
L 18.109375 -20.796875 
L 9.078125 -20.796875 
L 9.078125 54.6875 
L 18.109375 54.6875 
L 18.109375 46.390625 
Q 20.953125 51.265625 25.265625 53.625 
Q 29.59375 56 35.59375 56 
Q 45.5625 56 51.78125 48.09375 
Q 58.015625 40.1875 58.015625 27.296875 
Q 58.015625 14.40625 51.78125 6.484375 
Q 45.5625 -1.421875 35.59375 -1.421875 
Q 29.59375 -1.421875 25.265625 0.953125 
Q 20.953125 3.328125 18.109375 8.203125 
z
M 48.6875 27.296875 
Q 48.6875 37.203125 44.609375 42.84375 
Q 40.53125 48.484375 33.40625 48.484375 
Q 26.265625 48.484375 22.1875 42.84375 
Q 18.109375 37.203125 18.109375 27.296875 
Q 18.109375 17.390625 22.1875 11.75 
Q 26.265625 6.109375 33.40625 6.109375 
Q 40.53125 6.109375 44.609375 11.75 
Q 48.6875 17.390625 48.6875 27.296875 
z
" id="DejaVuSans-112"/>
        <path d="M 41.109375 46.296875 
Q 39.59375 47.171875 37.8125 47.578125 
Q 36.03125 48 33.890625 48 
Q 26.265625 48 22.1875 43.046875 
Q 18.109375 38.09375 18.109375 28.8125 
L 18.109375 0 
L 9.078125 0 
L 9.078125 54.6875 
L 18.109375 54.6875 
L 18.109375 46.1875 
Q 20.953125 51.171875 25.484375 53.578125 
Q 30.03125 56 36.53125 56 
Q 37.453125 56 38.578125 55.875 
Q 39.703125 55.765625 41.0625 55.515625 
z
" id="DejaVuSans-114"/>
       </defs>
       <use xlink:href="#DejaVuSans-65"/>
       <use x="68.408203" xlink:href="#DejaVuSans-112"/>
       <use x="131.884766" xlink:href="#DejaVuSans-114"/>
      </g>
     </g>
    </g>
    <g id="xtick_3">
     <g id="line2d_3">
      <g>
       <use style="stroke:#000000;stroke-width:0.8;" x="168.396694" xlink:href="#mae47e29baf" y="315"/>
      </g>
     </g>
     <g id="text_2">
      <!-- May -->
      <g transform="translate(158.059194 329.598437)scale(0.1 -0.1)">
       <defs>
        <path d="M 9.8125 72.90625 
L 24.515625 72.90625 
L 43.109375 23.296875 
L 61.8125 72.90625 
L 76.515625 72.90625 
L 76.515625 0 
L 66.890625 0 
L 66.890625 64.015625 
L 48.09375 14.015625 
L 38.1875 14.015625 
L 19.390625 64.015625 
L 19.390625 0 
L 9.8125 0 
z
" id="DejaVuSans-77"/>
        <path d="M 34.28125 27.484375 
Q 23.390625 27.484375 19.1875 25 
Q 14.984375 22.515625 14.984375 16.5 
Q 14.984375 11.71875 18.140625 8.90625 
Q 21.296875 6.109375 26.703125 6.109375 
Q 34.1875 6.109375 38.703125 11.40625 
Q 43.21875 16.703125 43.21875 25.484375 
L 43.21875 27.484375 
z
M 52.203125 31.203125 
L 52.203125 0 
L 43.21875 0 
L 43.21875 8.296875 
Q 40.140625 3.328125 35.546875 0.953125 
Q 30.953125 -1.421875 24.3125 -1.421875 
Q 15.921875 -1.421875 10.953125 3.296875 
Q 6 8.015625 6 15.921875 
Q 6 25.140625 12.171875 29.828125 
Q 18.359375 34.515625 30.609375 34.515625 
L 43.21875 34.515625 
L 43.21875 35.40625 
Q 43.21875 41.609375 39.140625 45 
Q 35.0625 48.390625 27.6875 48.390625 
Q 23 48.390625 18.546875 47.265625 
Q 14.109375 46.140625 10.015625 43.890625 
L 10.015625 52.203125 
Q 14.9375 54.109375 19.578125 55.046875 
Q 24.21875 56 28.609375 56 
Q 40.484375 56 46.34375 49.84375 
Q 52.203125 43.703125 52.203125 31.203125 
z
" id="DejaVuSans-97"/>
        <path d="M 32.171875 -5.078125 
Q 28.375 -14.84375 24.75 -17.8125 
Q 21.140625 -20.796875 15.09375 -20.796875 
L 7.90625 -20.796875 
L 7.90625 -13.28125 
L 13.1875 -13.28125 
Q 16.890625 -13.28125 18.9375 -11.515625 
Q 21 -9.765625 23.484375 -3.21875 
L 25.09375 0.875 
L 2.984375 54.6875 
L 12.5 54.6875 
L 29.59375 11.921875 
L 46.6875 54.6875 
L 56.203125 54.6875 
z
" id="DejaVuSans-121"/>
       </defs>
       <use xlink:href="#DejaVuSans-77"/>
       <use x="86.279297" xlink:href="#DejaVuSans-97"/>
       <use x="147.558594" xlink:href="#DejaVuSans-121"/>
      </g>
     </g>
    </g>
    <g id="xtick_4">
     <g id="line2d_4">
      <g>
       <use style="stroke:#000000;stroke-width:0.8;" x="216.049587" xlink:href="#mae47e29baf" y="315"/>
      </g>
     </g>
     <g id="text_3">
      <!-- Jun -->
      <g transform="translate(208.237087 329.598437)scale(0.1 -0.1)">
       <defs>
        <path d="M 9.8125 72.90625 
L 19.671875 72.90625 
L 19.671875 5.078125 
Q 19.671875 -8.109375 14.671875 -14.0625 
Q 9.671875 -20.015625 -1.421875 -20.015625 
L -5.171875 -20.015625 
L -5.171875 -11.71875 
L -2.09375 -11.71875 
Q 4.4375 -11.71875 7.125 -8.046875 
Q 9.8125 -4.390625 9.8125 5.078125 
z
" id="DejaVuSans-74"/>
        <path d="M 8.5 21.578125 
L 8.5 54.6875 
L 17.484375 54.6875 
L 17.484375 21.921875 
Q 17.484375 14.15625 20.5 10.265625 
Q 23.53125 6.390625 29.59375 6.390625 
Q 36.859375 6.390625 41.078125 11.03125 
Q 45.3125 15.671875 45.3125 23.6875 
L 45.3125 54.6875 
L 54.296875 54.6875 
L 54.296875 0 
L 45.3125 0 
L 45.3125 8.40625 
Q 42.046875 3.421875 37.71875 1 
Q 33.40625 -1.421875 27.6875 -1.421875 
Q 18.265625 -1.421875 13.375 4.4375 
Q 8.5 10.296875 8.5 21.578125 
z
M 31.109375 56 
z
" id="DejaVuSans-117"/>
        <path d="M 54.890625 33.015625 
L 54.890625 0 
L 45.90625 0 
L 45.90625 32.71875 
Q 45.90625 40.484375 42.875 44.328125 
Q 39.84375 48.1875 33.796875 48.1875 
Q 26.515625 48.1875 22.3125 43.546875 
Q 18.109375 38.921875 18.109375 30.90625 
L 18.109375 0 
L 9.078125 0 
L 9.078125 54.6875 
L 18.109375 54.6875 
L 18.109375 46.1875 
Q 21.34375 51.125 25.703125 53.5625 
Q 30.078125 56 35.796875 56 
Q 45.21875 56 50.046875 50.171875 
Q 54.890625 44.34375 54.890625 33.015625 
z
" id="DejaVuSans-110"/>
       </defs>
       <use xlink:href="#DejaVuSans-74"/>
       <use x="29.492188" xlink:href="#DejaVuSans-117"/>
       <use x="92.871094" xlink:href="#DejaVuSans-110"/>
      </g>
     </g>
    </g>
    <g id="xtick_5">
     <g id="line2d_5">
      <g>
       <use style="stroke:#000000;stroke-width:0.8;" x="262.165289" xlink:href="#mae47e29baf" y="315"/>
      </g>
     </g>
     <g id="text_4">
      <!-- Jul -->
      <g transform="translate(256.132477 329.598437)scale(0.1 -0.1)">
       <defs>
        <path d="M 9.421875 75.984375 
L 18.40625 75.984375 
L 18.40625 0 
L 9.421875 0 
z
" id="DejaVuSans-108"/>
       </defs>
       <use xlink:href="#DejaVuSans-74"/>
       <use x="29.492188" xlink:href="#DejaVuSans-117"/>
       <use x="92.871094" xlink:href="#DejaVuSans-108"/>
      </g>
     </g>
    </g>
    <g id="xtick_6">
     <g id="line2d_6">
      <g>
       <use style="stroke:#000000;stroke-width:0.8;" x="309.818182" xlink:href="#mae47e29baf" y="315"/>
      </g>
     </g>
     <g id="text_5">
      <!-- Aug -->
      <g transform="translate(300.054901 329.598437)scale(0.1 -0.1)">
       <defs>
        <path d="M 45.40625 27.984375 
Q 45.40625 37.75 41.375 43.109375 
Q 37.359375 48.484375 30.078125 48.484375 
Q 22.859375 48.484375 18.828125 43.109375 
Q 14.796875 37.75 14.796875 27.984375 
Q 14.796875 18.265625 18.828125 12.890625 
Q 22.859375 7.515625 30.078125 7.515625 
Q 37.359375 7.515625 41.375 12.890625 
Q 45.40625 18.265625 45.40625 27.984375 
z
M 54.390625 6.78125 
Q 54.390625 -7.171875 48.1875 -13.984375 
Q 42 -20.796875 29.203125 -20.796875 
Q 24.46875 -20.796875 20.265625 -20.09375 
Q 16.0625 -19.390625 12.109375 -17.921875 
L 12.109375 -9.1875 
Q 16.0625 -11.328125 19.921875 -12.34375 
Q 23.78125 -13.375 27.78125 -13.375 
Q 36.625 -13.375 41.015625 -8.765625 
Q 45.40625 -4.15625 45.40625 5.171875 
L 45.40625 9.625 
Q 42.625 4.78125 38.28125 2.390625 
Q 33.9375 0 27.875 0 
Q 17.828125 0 11.671875 7.65625 
Q 5.515625 15.328125 5.515625 27.984375 
Q 5.515625 40.671875 11.671875 48.328125 
Q 17.828125 56 27.875 56 
Q 33.9375 56 38.28125 53.609375 
Q 42.625 51.21875 45.40625 46.390625 
L 45.40625 54.6875 
L 54.390625 54.6875 
z
" id="DejaVuSans-103"/>
       </defs>
       <use xlink:href="#DejaVuSans-65"/>
       <use x="68.408203" xlink:href="#DejaVuSans-117"/>
       <use x="131.787109" xlink:href="#DejaVuSans-103"/>
      </g>
     </g>
    </g>
    <g id="xtick_7">
     <g id="line2d_7">
      <g>
       <use style="stroke:#000000;stroke-width:0.8;" x="357.471074" xlink:href="#mae47e29baf" y="315"/>
      </g>
     </g>
     <g id="text_6">
      <!-- Sep -->
      <g transform="translate(348.046074 329.598437)scale(0.1 -0.1)">
       <defs>
        <path d="M 53.515625 70.515625 
L 53.515625 60.890625 
Q 47.90625 63.578125 42.921875 64.890625 
Q 37.9375 66.21875 33.296875 66.21875 
Q 25.25 66.21875 20.875 63.09375 
Q 16.5 59.96875 16.5 54.203125 
Q 16.5 49.359375 19.40625 46.890625 
Q 22.3125 44.4375 30.421875 42.921875 
L 36.375 41.703125 
Q 47.40625 39.59375 52.65625 34.296875 
Q 57.90625 29 57.90625 20.125 
Q 57.90625 9.515625 50.796875 4.046875 
Q 43.703125 -1.421875 29.984375 -1.421875 
Q 24.8125 -1.421875 18.96875 -0.25 
Q 13.140625 0.921875 6.890625 3.21875 
L 6.890625 13.375 
Q 12.890625 10.015625 18.65625 8.296875 
Q 24.421875 6.59375 29.984375 6.59375 
Q 38.421875 6.59375 43.015625 9.90625 
Q 47.609375 13.234375 47.609375 19.390625 
Q 47.609375 24.75 44.3125 27.78125 
Q 41.015625 30.8125 33.5 32.328125 
L 27.484375 33.5 
Q 16.453125 35.6875 11.515625 40.375 
Q 6.59375 45.0625 6.59375 53.421875 
Q 6.59375 63.09375 13.40625 68.65625 
Q 20.21875 74.21875 32.171875 74.21875 
Q 37.3125 74.21875 42.625 73.28125 
Q 47.953125 72.359375 53.515625 70.515625 
z
" id="DejaVuSans-83"/>
        <path d="M 56.203125 29.59375 
L 56.203125 25.203125 
L 14.890625 25.203125 
Q 15.484375 15.921875 20.484375 11.0625 
Q 25.484375 6.203125 34.421875 6.203125 
Q 39.59375 6.203125 44.453125 7.46875 
Q 49.3125 8.734375 54.109375 11.28125 
L 54.109375 2.78125 
Q 49.265625 0.734375 44.1875 -0.34375 
Q 39.109375 -1.421875 33.890625 -1.421875 
Q 20.796875 -1.421875 13.15625 6.1875 
Q 5.515625 13.8125 5.515625 26.8125 
Q 5.515625 40.234375 12.765625 48.109375 
Q 20.015625 56 32.328125 56 
Q 43.359375 56 49.78125 48.890625 
Q 56.203125 41.796875 56.203125 29.59375 
z
M 47.21875 32.234375 
Q 47.125 39.59375 43.09375 43.984375 
Q 39.0625 48.390625 32.421875 48.390625 
Q 24.90625 48.390625 20.390625 44.140625 
Q 15.875 39.890625 15.1875 32.171875 
z
" id="DejaVuSans-101"/>
       </defs>
       <use xlink:href="#DejaVuSans-83"/>
       <use x="63.476562" xlink:href="#DejaVuSans-101"/>
       <use x="125" xlink:href="#DejaVuSans-112"/>
      </g>
     </g>
    </g>
    <g id="xtick_8">
     <g id="line2d_8">
      <g>
       <use style="stroke:#000000;stroke-width:0.8;" x="403.586777" xlink:href="#mae47e29baf" y="315"/>
      </g>
     </g>
     <g id="text_7">
      <!-- Oct -->
      <g transform="translate(394.941464 329.598437)scale(0.1 -0.1)">
       <defs>
        <path d="M 39.40625 66.21875 
Q 28.65625 66.21875 22.328125 58.203125 
Q 16.015625 50.203125 16.015625 36.375 
Q 16.015625 22.609375 22.328125 14.59375 
Q 28.65625 6.59375 39.40625 6.59375 
Q 50.140625 6.59375 56.421875 14.59375 
Q 62.703125 22.609375 62.703125 36.375 
Q 62.703125 50.203125 56.421875 58.203125 
Q 50.140625 66.21875 39.40625 66.21875 
z
M 39.40625 74.21875 
Q 54.734375 74.21875 63.90625 63.9375 
Q 73.09375 53.65625 73.09375 36.375 
Q 73.09375 19.140625 63.90625 8.859375 
Q 54.734375 -1.421875 39.40625 -1.421875 
Q 24.03125 -1.421875 14.8125 8.828125 
Q 5.609375 19.09375 5.609375 36.375 
Q 5.609375 53.65625 14.8125 63.9375 
Q 24.03125 74.21875 39.40625 74.21875 
z
" id="DejaVuSans-79"/>
        <path d="M 48.78125 52.59375 
L 48.78125 44.1875 
Q 44.96875 46.296875 41.140625 47.34375 
Q 37.3125 48.390625 33.40625 48.390625 
Q 24.65625 48.390625 19.8125 42.84375 
Q 14.984375 37.3125 14.984375 27.296875 
Q 14.984375 17.28125 19.8125 11.734375 
Q 24.65625 6.203125 33.40625 6.203125 
Q 37.3125 6.203125 41.140625 7.25 
Q 44.96875 8.296875 48.78125 10.40625 
L 48.78125 2.09375 
Q 45.015625 0.34375 40.984375 -0.53125 
Q 36.96875 -1.421875 32.421875 -1.421875 
Q 20.0625 -1.421875 12.78125 6.34375 
Q 5.515625 14.109375 5.515625 27.296875 
Q 5.515625 40.671875 12.859375 48.328125 
Q 20.21875 56 33.015625 56 
Q 37.15625 56 41.109375 55.140625 
Q 45.0625 54.296875 48.78125 52.59375 
z
" id="DejaVuSans-99"/>
        <path d="M 18.3125 70.21875 
L 18.3125 54.6875 
L 36.8125 54.6875 
L 36.8125 47.703125 
L 18.3125 47.703125 
L 18.3125 18.015625 
Q 18.3125 11.328125 20.140625 9.421875 
Q 21.96875 7.515625 27.59375 7.515625 
L 36.8125 7.515625 
L 36.8125 0 
L 27.59375 0 
Q 17.1875 0 13.234375 3.875 
Q 9.28125 7.765625 9.28125 18.015625 
L 9.28125 47.703125 
L 2.6875 47.703125 
L 2.6875 54.6875 
L 9.28125 54.6875 
L 9.28125 70.21875 
z
" id="DejaVuSans-116"/>
       </defs>
       <use xlink:href="#DejaVuSans-79"/>
       <use x="78.710938" xlink:href="#DejaVuSans-99"/>
       <use x="133.691406" xlink:href="#DejaVuSans-116"/>
      </g>
     </g>
    </g>
    <g id="xtick_9">
     <g id="line2d_9">
      <g>
       <use style="stroke:#000000;stroke-width:0.8;" x="451.239669" xlink:href="#mae47e29baf" y="315"/>
      </g>
     </g>
     <g id="text_8">
      <!-- Nov -->
      <g transform="translate(441.480294 329.598437)scale(0.1 -0.1)">
       <defs>
        <path d="M 9.8125 72.90625 
L 23.09375 72.90625 
L 55.421875 11.921875 
L 55.421875 72.90625 
L 64.984375 72.90625 
L 64.984375 0 
L 51.703125 0 
L 19.390625 60.984375 
L 19.390625 0 
L 9.8125 0 
z
" id="DejaVuSans-78"/>
        <path d="M 30.609375 48.390625 
Q 23.390625 48.390625 19.1875 42.75 
Q 14.984375 37.109375 14.984375 27.296875 
Q 14.984375 17.484375 19.15625 11.84375 
Q 23.34375 6.203125 30.609375 6.203125 
Q 37.796875 6.203125 41.984375 11.859375 
Q 46.1875 17.53125 46.1875 27.296875 
Q 46.1875 37.015625 41.984375 42.703125 
Q 37.796875 48.390625 30.609375 48.390625 
z
M 30.609375 56 
Q 42.328125 56 49.015625 48.375 
Q 55.71875 40.765625 55.71875 27.296875 
Q 55.71875 13.875 49.015625 6.21875 
Q 42.328125 -1.421875 30.609375 -1.421875 
Q 18.84375 -1.421875 12.171875 6.21875 
Q 5.515625 13.875 5.515625 27.296875 
Q 5.515625 40.765625 12.171875 48.375 
Q 18.84375 56 30.609375 56 
z
" id="DejaVuSans-111"/>
        <path d="M 2.984375 54.6875 
L 12.5 54.6875 
L 29.59375 8.796875 
L 46.6875 54.6875 
L 56.203125 54.6875 
L 35.6875 0 
L 23.484375 0 
z
" id="DejaVuSans-118"/>
       </defs>
       <use xlink:href="#DejaVuSans-78"/>
       <use x="74.804688" xlink:href="#DejaVuSans-111"/>
       <use x="135.986328" xlink:href="#DejaVuSans-118"/>
      </g>
     </g>
    </g>
    <g id="xtick_10">
     <g id="line2d_10">
      <g>
       <use style="stroke:#000000;stroke-width:0.8;" x="497.355372" xlink:href="#mae47e29baf" y="315"/>
      </g>
     </g>
     <g id="text_9">
      <!-- Dec -->
      <g transform="translate(487.679591 329.598437)scale(0.1 -0.1)">
       <defs>
        <path d="M 19.671875 64.796875 
L 19.671875 8.109375 
L 31.59375 8.109375 
Q 46.6875 8.109375 53.6875 14.9375 
Q 60.6875 21.78125 60.6875 36.53125 
Q 60.6875 51.171875 53.6875 57.984375 
Q 46.6875 64.796875 31.59375 64.796875 
z
M 9.8125 72.90625 
L 30.078125 72.90625 
Q 51.265625 72.90625 61.171875 64.09375 
Q 71.09375 55.28125 71.09375 36.53125 
Q 71.09375 17.671875 61.125 8.828125 
Q 51.171875 0 30.078125 0 
L 9.8125 0 
z
" id="DejaVuSans-68"/>
       </defs>
       <use xlink:href="#DejaVuSans-68"/>
       <use x="77.001953" xlink:href="#DejaVuSans-101"/>
       <use x="138.525391" xlink:href="#DejaVuSans-99"/>
      </g>
     </g>
    </g>
    <g id="xtick_11">
     <g id="line2d_11">
      <g>
       <use style="stroke:#000000;stroke-width:0.8;" x="545.008264" xlink:href="#mae47e29baf" y="315"/>
      </g>
     </g>
     <g id="text_10">
      <!-- Jan -->
      <g transform="translate(537.300452 329.598437)scale(0.1 -0.1)">
       <use xlink:href="#DejaVuSans-74"/>
       <use x="29.492188" xlink:href="#DejaVuSans-97"/>
       <use x="90.771484" xlink:href="#DejaVuSans-110"/>
      </g>
      <!-- 2021 -->
      <g transform="translate(532.283264 340.79625)scale(0.1 -0.1)">
       <defs>
        <path d="M 19.1875 8.296875 
L 53.609375 8.296875 
L 53.609375 0 
L 7.328125 0 
L 7.328125 8.296875 
Q 12.9375 14.109375 22.625 23.890625 
Q 32.328125 33.6875 34.8125 36.53125 
Q 39.546875 41.84375 41.421875 45.53125 
Q 43.3125 49.21875 43.3125 52.78125 
Q 43.3125 58.59375 39.234375 62.25 
Q 35.15625 65.921875 28.609375 65.921875 
Q 23.96875 65.921875 18.8125 64.3125 
Q 13.671875 62.703125 7.8125 59.421875 
L 7.8125 69.390625 
Q 13.765625 71.78125 18.9375 73 
Q 24.125 74.21875 28.421875 74.21875 
Q 39.75 74.21875 46.484375 68.546875 
Q 53.21875 62.890625 53.21875 53.421875 
Q 53.21875 48.921875 51.53125 44.890625 
Q 49.859375 40.875 45.40625 35.40625 
Q 44.1875 33.984375 37.640625 27.21875 
Q 31.109375 20.453125 19.1875 8.296875 
z
" id="DejaVuSans-50"/>
        <path d="M 31.78125 66.40625 
Q 24.171875 66.40625 20.328125 58.90625 
Q 16.5 51.421875 16.5 36.375 
Q 16.5 21.390625 20.328125 13.890625 
Q 24.171875 6.390625 31.78125 6.390625 
Q 39.453125 6.390625 43.28125 13.890625 
Q 47.125 21.390625 47.125 36.375 
Q 47.125 51.421875 43.28125 58.90625 
Q 39.453125 66.40625 31.78125 66.40625 
z
M 31.78125 74.21875 
Q 44.046875 74.21875 50.515625 64.515625 
Q 56.984375 54.828125 56.984375 36.375 
Q 56.984375 17.96875 50.515625 8.265625 
Q 44.046875 -1.421875 31.78125 -1.421875 
Q 19.53125 -1.421875 13.0625 8.265625 
Q 6.59375 17.96875 6.59375 36.375 
Q 6.59375 54.828125 13.0625 64.515625 
Q 19.53125 74.21875 31.78125 74.21875 
z
" id="DejaVuSans-48"/>
        <path d="M 12.40625 8.296875 
L 28.515625 8.296875 
L 28.515625 63.921875 
L 10.984375 60.40625 
L 10.984375 69.390625 
L 28.421875 72.90625 
L 38.28125 72.90625 
L 38.28125 8.296875 
L 54.390625 8.296875 
L 54.390625 0 
L 12.40625 0 
z
" id="DejaVuSans-49"/>
       </defs>
       <use xlink:href="#DejaVuSans-50"/>
       <use x="63.623047" xlink:href="#DejaVuSans-48"/>
       <use x="127.246094" xlink:href="#DejaVuSans-50"/>
       <use x="190.869141" xlink:href="#DejaVuSans-49"/>
      </g>
     </g>
    </g>
    <g id="xtick_12">
     <g id="line2d_12">
      <g>
       <use style="stroke:#000000;stroke-width:0.8;" x="592.661157" xlink:href="#mae47e29baf" y="315"/>
      </g>
     </g>
     <g id="text_11">
      <!-- Feb -->
      <g transform="translate(583.809595 329.598437)scale(0.1 -0.1)">
       <defs>
        <path d="M 9.8125 72.90625 
L 51.703125 72.90625 
L 51.703125 64.59375 
L 19.671875 64.59375 
L 19.671875 43.109375 
L 48.578125 43.109375 
L 48.578125 34.8125 
L 19.671875 34.8125 
L 19.671875 0 
L 9.8125 0 
z
" id="DejaVuSans-70"/>
        <path d="M 48.6875 27.296875 
Q 48.6875 37.203125 44.609375 42.84375 
Q 40.53125 48.484375 33.40625 48.484375 
Q 26.265625 48.484375 22.1875 42.84375 
Q 18.109375 37.203125 18.109375 27.296875 
Q 18.109375 17.390625 22.1875 11.75 
Q 26.265625 6.109375 33.40625 6.109375 
Q 40.53125 6.109375 44.609375 11.75 
Q 48.6875 17.390625 48.6875 27.296875 
z
M 18.109375 46.390625 
Q 20.953125 51.265625 25.265625 53.625 
Q 29.59375 56 35.59375 56 
Q 45.5625 56 51.78125 48.09375 
Q 58.015625 40.1875 58.015625 27.296875 
Q 58.015625 14.40625 51.78125 6.484375 
Q 45.5625 -1.421875 35.59375 -1.421875 
Q 29.59375 -1.421875 25.265625 0.953125 
Q 20.953125 3.328125 18.109375 8.203125 
L 18.109375 0 
L 9.078125 0 
L 9.078125 75.984375 
L 18.109375 75.984375 
z
" id="DejaVuSans-98"/>
       </defs>
       <use xlink:href="#DejaVuSans-70"/>
       <use x="52.019531" xlink:href="#DejaVuSans-101"/>
       <use x="113.542969" xlink:href="#DejaVuSans-98"/>
      </g>
     </g>
    </g>
    <g id="xtick_13">
     <g id="line2d_13">
      <g>
       <use style="stroke:#000000;stroke-width:0.8;" x="635.702479" xlink:href="#mae47e29baf" y="315"/>
      </g>
     </g>
     <g id="text_12">
      <!-- Mar -->
      <g transform="translate(626.268886 329.598437)scale(0.1 -0.1)">
       <use xlink:href="#DejaVuSans-77"/>
       <use x="86.279297" xlink:href="#DejaVuSans-97"/>
       <use x="147.558594" xlink:href="#DejaVuSans-114"/>
      </g>
     </g>
    </g>
    <g id="xtick_14">
     <g id="line2d_14">
      <g>
       <use style="stroke:#000000;stroke-width:0.8;" x="648" xlink:href="#mae47e29baf" y="315"/>
      </g>
     </g>
    </g>
    <g id="xtick_15">
     <g id="line2d_15">
      <defs>
       <path d="M 0 0 
L 0 2 
" id="mc87da1158e" style="stroke:#000000;stroke-width:0.6;"/>
      </defs>
      <g>
       <use style="stroke:#000000;stroke-width:0.6;" x="97.68595" xlink:href="#mc87da1158e" y="315"/>
      </g>
     </g>
    </g>
    <g id="xtick_16">
     <g id="line2d_16">
      <g>
       <use style="stroke:#000000;stroke-width:0.6;" x="108.446281" xlink:href="#mc87da1158e" y="315"/>
      </g>
     </g>
    </g>
    <g id="xtick_17">
     <g id="line2d_17">
      <g>
       <use style="stroke:#000000;stroke-width:0.6;" x="119.206612" xlink:href="#mc87da1158e" y="315"/>
      </g>
     </g>
    </g>
    <g id="xtick_18">
     <g id="line2d_18">
      <g>
       <use style="stroke:#000000;stroke-width:0.6;" x="129.966942" xlink:href="#mc87da1158e" y="315"/>
      </g>
     </g>
    </g>
    <g id="xtick_19">
     <g id="line2d_19">
      <g>
       <use style="stroke:#000000;stroke-width:0.6;" x="140.727273" xlink:href="#mc87da1158e" y="315"/>
      </g>
     </g>
    </g>
    <g id="xtick_20">
     <g id="line2d_20">
      <g>
       <use style="stroke:#000000;stroke-width:0.6;" x="151.487603" xlink:href="#mc87da1158e" y="315"/>
      </g>
     </g>
    </g>
    <g id="xtick_21">
     <g id="line2d_21">
      <g>
       <use style="stroke:#000000;stroke-width:0.6;" x="162.247934" xlink:href="#mc87da1158e" y="315"/>
      </g>
     </g>
    </g>
    <g id="xtick_22">
     <g id="line2d_22">
      <g>
       <use style="stroke:#000000;stroke-width:0.6;" x="173.008264" xlink:href="#mc87da1158e" y="315"/>
      </g>
     </g>
    </g>
    <g id="xtick_23">
     <g id="line2d_23">
      <g>
       <use style="stroke:#000000;stroke-width:0.6;" x="183.768595" xlink:href="#mc87da1158e" y="315"/>
      </g>
     </g>
    </g>
    <g id="xtick_24">
     <g id="line2d_24">
      <g>
       <use style="stroke:#000000;stroke-width:0.6;" x="194.528926" xlink:href="#mc87da1158e" y="315"/>
      </g>
     </g>
    </g>
    <g id="xtick_25">
     <g id="line2d_25">
      <g>
       <use style="stroke:#000000;stroke-width:0.6;" x="205.289256" xlink:href="#mc87da1158e" y="315"/>
      </g>
     </g>
    </g>
    <g id="xtick_26">
     <g id="line2d_26">
      <g>
       <use style="stroke:#000000;stroke-width:0.6;" x="226.809917" xlink:href="#mc87da1158e" y="315"/>
      </g>
     </g>
    </g>
    <g id="xtick_27">
     <g id="line2d_27">
      <g>
       <use style="stroke:#000000;stroke-width:0.6;" x="237.570248" xlink:href="#mc87da1158e" y="315"/>
      </g>
     </g>
    </g>
    <g id="xtick_28">
     <g id="line2d_28">
      <g>
       <use style="stroke:#000000;stroke-width:0.6;" x="248.330579" xlink:href="#mc87da1158e" y="315"/>
      </g>
     </g>
    </g>
    <g id="xtick_29">
     <g id="line2d_29">
      <g>
       <use style="stroke:#000000;stroke-width:0.6;" x="259.090909" xlink:href="#mc87da1158e" y="315"/>
      </g>
     </g>
    </g>
    <g id="xtick_30">
     <g id="line2d_30">
      <g>
       <use style="stroke:#000000;stroke-width:0.6;" x="269.85124" xlink:href="#mc87da1158e" y="315"/>
      </g>
     </g>
    </g>
    <g id="xtick_31">
     <g id="line2d_31">
      <g>
       <use style="stroke:#000000;stroke-width:0.6;" x="280.61157" xlink:href="#mc87da1158e" y="315"/>
      </g>
     </g>
    </g>
    <g id="xtick_32">
     <g id="line2d_32">
      <g>
       <use style="stroke:#000000;stroke-width:0.6;" x="291.371901" xlink:href="#mc87da1158e" y="315"/>
      </g>
     </g>
    </g>
    <g id="xtick_33">
     <g id="line2d_33">
      <g>
       <use style="stroke:#000000;stroke-width:0.6;" x="302.132231" xlink:href="#mc87da1158e" y="315"/>
      </g>
     </g>
    </g>
    <g id="xtick_34">
     <g id="line2d_34">
      <g>
       <use style="stroke:#000000;stroke-width:0.6;" x="312.892562" xlink:href="#mc87da1158e" y="315"/>
      </g>
     </g>
    </g>
    <g id="xtick_35">
     <g id="line2d_35">
      <g>
       <use style="stroke:#000000;stroke-width:0.6;" x="323.652893" xlink:href="#mc87da1158e" y="315"/>
      </g>
     </g>
    </g>
    <g id="xtick_36">
     <g id="line2d_36">
      <g>
       <use style="stroke:#000000;stroke-width:0.6;" x="334.413223" xlink:href="#mc87da1158e" y="315"/>
      </g>
     </g>
    </g>
    <g id="xtick_37">
     <g id="line2d_37">
      <g>
       <use style="stroke:#000000;stroke-width:0.6;" x="345.173554" xlink:href="#mc87da1158e" y="315"/>
      </g>
     </g>
    </g>
    <g id="xtick_38">
     <g id="line2d_38">
      <g>
       <use style="stroke:#000000;stroke-width:0.6;" x="355.933884" xlink:href="#mc87da1158e" y="315"/>
      </g>
     </g>
    </g>
    <g id="xtick_39">
     <g id="line2d_39">
      <g>
       <use style="stroke:#000000;stroke-width:0.6;" x="366.694215" xlink:href="#mc87da1158e" y="315"/>
      </g>
     </g>
    </g>
    <g id="xtick_40">
     <g id="line2d_40">
      <g>
       <use style="stroke:#000000;stroke-width:0.6;" x="377.454545" xlink:href="#mc87da1158e" y="315"/>
      </g>
     </g>
    </g>
    <g id="xtick_41">
     <g id="line2d_41">
      <g>
       <use style="stroke:#000000;stroke-width:0.6;" x="388.214876" xlink:href="#mc87da1158e" y="315"/>
      </g>
     </g>
    </g>
    <g id="xtick_42">
     <g id="line2d_42">
      <g>
       <use style="stroke:#000000;stroke-width:0.6;" x="398.975207" xlink:href="#mc87da1158e" y="315"/>
      </g>
     </g>
    </g>
    <g id="xtick_43">
     <g id="line2d_43">
      <g>
       <use style="stroke:#000000;stroke-width:0.6;" x="409.735537" xlink:href="#mc87da1158e" y="315"/>
      </g>
     </g>
    </g>
    <g id="xtick_44">
     <g id="line2d_44">
      <g>
       <use style="stroke:#000000;stroke-width:0.6;" x="420.495868" xlink:href="#mc87da1158e" y="315"/>
      </g>
     </g>
    </g>
    <g id="xtick_45">
     <g id="line2d_45">
      <g>
       <use style="stroke:#000000;stroke-width:0.6;" x="431.256198" xlink:href="#mc87da1158e" y="315"/>
      </g>
     </g>
    </g>
    <g id="xtick_46">
     <g id="line2d_46">
      <g>
       <use style="stroke:#000000;stroke-width:0.6;" x="442.016529" xlink:href="#mc87da1158e" y="315"/>
      </g>
     </g>
    </g>
    <g id="xtick_47">
     <g id="line2d_47">
      <g>
       <use style="stroke:#000000;stroke-width:0.6;" x="452.77686" xlink:href="#mc87da1158e" y="315"/>
      </g>
     </g>
    </g>
    <g id="xtick_48">
     <g id="line2d_48">
      <g>
       <use style="stroke:#000000;stroke-width:0.6;" x="463.53719" xlink:href="#mc87da1158e" y="315"/>
      </g>
     </g>
    </g>
    <g id="xtick_49">
     <g id="line2d_49">
      <g>
       <use style="stroke:#000000;stroke-width:0.6;" x="474.297521" xlink:href="#mc87da1158e" y="315"/>
      </g>
     </g>
    </g>
    <g id="xtick_50">
     <g id="line2d_50">
      <g>
       <use style="stroke:#000000;stroke-width:0.6;" x="485.057851" xlink:href="#mc87da1158e" y="315"/>
      </g>
     </g>
    </g>
    <g id="xtick_51">
     <g id="line2d_51">
      <g>
       <use style="stroke:#000000;stroke-width:0.6;" x="495.818182" xlink:href="#mc87da1158e" y="315"/>
      </g>
     </g>
    </g>
    <g id="xtick_52">
     <g id="line2d_52">
      <g>
       <use style="stroke:#000000;stroke-width:0.6;" x="506.578512" xlink:href="#mc87da1158e" y="315"/>
      </g>
     </g>
    </g>
    <g id="xtick_53">
     <g id="line2d_53">
      <g>
       <use style="stroke:#000000;stroke-width:0.6;" x="517.338843" xlink:href="#mc87da1158e" y="315"/>
      </g>
     </g>
    </g>
    <g id="xtick_54">
     <g id="line2d_54">
      <g>
       <use style="stroke:#000000;stroke-width:0.6;" x="528.099174" xlink:href="#mc87da1158e" y="315"/>
      </g>
     </g>
    </g>
    <g id="xtick_55">
     <g id="line2d_55">
      <g>
       <use style="stroke:#000000;stroke-width:0.6;" x="538.859504" xlink:href="#mc87da1158e" y="315"/>
      </g>
     </g>
    </g>
    <g id="xtick_56">
     <g id="line2d_56">
      <g>
       <use style="stroke:#000000;stroke-width:0.6;" x="549.619835" xlink:href="#mc87da1158e" y="315"/>
      </g>
     </g>
    </g>
    <g id="xtick_57">
     <g id="line2d_57">
      <g>
       <use style="stroke:#000000;stroke-width:0.6;" x="560.380165" xlink:href="#mc87da1158e" y="315"/>
      </g>
     </g>
    </g>
    <g id="xtick_58">
     <g id="line2d_58">
      <g>
       <use style="stroke:#000000;stroke-width:0.6;" x="571.140496" xlink:href="#mc87da1158e" y="315"/>
      </g>
     </g>
    </g>
    <g id="xtick_59">
     <g id="line2d_59">
      <g>
       <use style="stroke:#000000;stroke-width:0.6;" x="581.900826" xlink:href="#mc87da1158e" y="315"/>
      </g>
     </g>
    </g>
    <g id="xtick_60">
     <g id="line2d_60">
      <g>
       <use style="stroke:#000000;stroke-width:0.6;" x="603.421488" xlink:href="#mc87da1158e" y="315"/>
      </g>
     </g>
    </g>
    <g id="xtick_61">
     <g id="line2d_61">
      <g>
       <use style="stroke:#000000;stroke-width:0.6;" x="614.181818" xlink:href="#mc87da1158e" y="315"/>
      </g>
     </g>
    </g>
    <g id="xtick_62">
     <g id="line2d_62">
      <g>
       <use style="stroke:#000000;stroke-width:0.6;" x="624.942149" xlink:href="#mc87da1158e" y="315"/>
      </g>
     </g>
    </g>
    <g id="xtick_63">
     <g id="line2d_63">
      <g>
       <use style="stroke:#000000;stroke-width:0.6;" x="646.46281" xlink:href="#mc87da1158e" y="315"/>
      </g>
     </g>
    </g>
    <g id="text_13">
     <!-- date -->
     <g transform="translate(357.725 354.474375)scale(0.1 -0.1)">
      <defs>
       <path d="M 45.40625 46.390625 
L 45.40625 75.984375 
L 54.390625 75.984375 
L 54.390625 0 
L 45.40625 0 
L 45.40625 8.203125 
Q 42.578125 3.328125 38.25 0.953125 
Q 33.9375 -1.421875 27.875 -1.421875 
Q 17.96875 -1.421875 11.734375 6.484375 
Q 5.515625 14.40625 5.515625 27.296875 
Q 5.515625 40.1875 11.734375 48.09375 
Q 17.96875 56 27.875 56 
Q 33.9375 56 38.25 53.625 
Q 42.578125 51.265625 45.40625 46.390625 
z
M 14.796875 27.296875 
Q 14.796875 17.390625 18.875 11.75 
Q 22.953125 6.109375 30.078125 6.109375 
Q 37.203125 6.109375 41.296875 11.75 
Q 45.40625 17.390625 45.40625 27.296875 
Q 45.40625 37.203125 41.296875 42.84375 
Q 37.203125 48.484375 30.078125 48.484375 
Q 22.953125 48.484375 18.875 42.84375 
Q 14.796875 37.203125 14.796875 27.296875 
z
" id="DejaVuSans-100"/>
      </defs>
      <use xlink:href="#DejaVuSans-100"/>
      <use x="63.476562" xlink:href="#DejaVuSans-97"/>
      <use x="124.755859" xlink:href="#DejaVuSans-116"/>
      <use x="163.964844" xlink:href="#DejaVuSans-101"/>
     </g>
    </g>
   </g>
   <g id="matplotlib.axis_2">
    <g id="ytick_1">
     <g id="line2d_64">
      <defs>
       <path d="M 0 0 
L -3.5 0 
" id="m42d9d0537b" style="stroke:#000000;stroke-width:0.8;"/>
      </defs>
      <g>
       <use style="stroke:#000000;stroke-width:0.8;" x="90" xlink:href="#m42d9d0537b" y="288.520641"/>
      </g>
     </g>
     <g id="text_14">
      <!-- $\mathdefault{10^{0}}$ -->
      <g transform="translate(65.4 292.31986)scale(0.1 -0.1)">
       <use transform="translate(0 0.765625)" xlink:href="#DejaVuSans-49"/>
       <use transform="translate(63.623047 0.765625)" xlink:href="#DejaVuSans-48"/>
       <use transform="translate(128.203125 39.046875)scale(0.7)" xlink:href="#DejaVuSans-48"/>
      </g>
     </g>
    </g>
    <g id="ytick_2">
     <g id="line2d_65">
      <g>
       <use style="stroke:#000000;stroke-width:0.8;" x="90" xlink:href="#m42d9d0537b" y="206.08613"/>
      </g>
     </g>
     <g id="text_15">
      <!-- $\mathdefault{10^{1}}$ -->
      <g transform="translate(65.4 209.885348)scale(0.1 -0.1)">
       <use transform="translate(0 0.684375)" xlink:href="#DejaVuSans-49"/>
       <use transform="translate(63.623047 0.684375)" xlink:href="#DejaVuSans-48"/>
       <use transform="translate(128.203125 38.965625)scale(0.7)" xlink:href="#DejaVuSans-49"/>
      </g>
     </g>
    </g>
    <g id="ytick_3">
     <g id="line2d_66">
      <g>
       <use style="stroke:#000000;stroke-width:0.8;" x="90" xlink:href="#m42d9d0537b" y="123.651618"/>
      </g>
     </g>
     <g id="text_16">
      <!-- $\mathdefault{10^{2}}$ -->
      <g transform="translate(65.4 127.450837)scale(0.1 -0.1)">
       <use transform="translate(0 0.765625)" xlink:href="#DejaVuSans-49"/>
       <use transform="translate(63.623047 0.765625)" xlink:href="#DejaVuSans-48"/>
       <use transform="translate(128.203125 39.046875)scale(0.7)" xlink:href="#DejaVuSans-50"/>
      </g>
     </g>
    </g>
    <g id="ytick_4">
     <g id="line2d_67">
      <defs>
       <path d="M 0 0 
L -2 0 
" id="m3aeffcbdaf" style="stroke:#000000;stroke-width:0.6;"/>
      </defs>
      <g>
       <use style="stroke:#000000;stroke-width:0.6;" x="90" xlink:href="#m3aeffcbdaf" y="313.335902"/>
      </g>
     </g>
    </g>
    <g id="ytick_5">
     <g id="line2d_68">
      <g>
       <use style="stroke:#000000;stroke-width:0.6;" x="90" xlink:href="#m3aeffcbdaf" y="306.808634"/>
      </g>
     </g>
    </g>
    <g id="ytick_6">
     <g id="line2d_69">
      <g>
       <use style="stroke:#000000;stroke-width:0.6;" x="90" xlink:href="#m3aeffcbdaf" y="301.289908"/>
      </g>
     </g>
    </g>
    <g id="ytick_7">
     <g id="line2d_70">
      <g>
       <use style="stroke:#000000;stroke-width:0.6;" x="90" xlink:href="#m3aeffcbdaf" y="296.509371"/>
      </g>
     </g>
    </g>
    <g id="ytick_8">
     <g id="line2d_71">
      <g>
       <use style="stroke:#000000;stroke-width:0.6;" x="90" xlink:href="#m3aeffcbdaf" y="292.292637"/>
      </g>
     </g>
    </g>
    <g id="ytick_9">
     <g id="line2d_72">
      <g>
       <use style="stroke:#000000;stroke-width:0.6;" x="90" xlink:href="#m3aeffcbdaf" y="263.70538"/>
      </g>
     </g>
    </g>
    <g id="ytick_10">
     <g id="line2d_73">
      <g>
       <use style="stroke:#000000;stroke-width:0.6;" x="90" xlink:href="#m3aeffcbdaf" y="249.189383"/>
      </g>
     </g>
    </g>
    <g id="ytick_11">
     <g id="line2d_74">
      <g>
       <use style="stroke:#000000;stroke-width:0.6;" x="90" xlink:href="#m3aeffcbdaf" y="238.89012"/>
      </g>
     </g>
    </g>
    <g id="ytick_12">
     <g id="line2d_75">
      <g>
       <use style="stroke:#000000;stroke-width:0.6;" x="90" xlink:href="#m3aeffcbdaf" y="230.90139"/>
      </g>
     </g>
    </g>
    <g id="ytick_13">
     <g id="line2d_76">
      <g>
       <use style="stroke:#000000;stroke-width:0.6;" x="90" xlink:href="#m3aeffcbdaf" y="224.374123"/>
      </g>
     </g>
    </g>
    <g id="ytick_14">
     <g id="line2d_77">
      <g>
       <use style="stroke:#000000;stroke-width:0.6;" x="90" xlink:href="#m3aeffcbdaf" y="218.855397"/>
      </g>
     </g>
    </g>
    <g id="ytick_15">
     <g id="line2d_78">
      <g>
       <use style="stroke:#000000;stroke-width:0.6;" x="90" xlink:href="#m3aeffcbdaf" y="214.074859"/>
      </g>
     </g>
    </g>
    <g id="ytick_16">
     <g id="line2d_79">
      <g>
       <use style="stroke:#000000;stroke-width:0.6;" x="90" xlink:href="#m3aeffcbdaf" y="209.858126"/>
      </g>
     </g>
    </g>
    <g id="ytick_17">
     <g id="line2d_80">
      <g>
       <use style="stroke:#000000;stroke-width:0.6;" x="90" xlink:href="#m3aeffcbdaf" y="181.270869"/>
      </g>
     </g>
    </g>
    <g id="ytick_18">
     <g id="line2d_81">
      <g>
       <use style="stroke:#000000;stroke-width:0.6;" x="90" xlink:href="#m3aeffcbdaf" y="166.754872"/>
      </g>
     </g>
    </g>
    <g id="ytick_19">
     <g id="line2d_82">
      <g>
       <use style="stroke:#000000;stroke-width:0.6;" x="90" xlink:href="#m3aeffcbdaf" y="156.455608"/>
      </g>
     </g>
    </g>
    <g id="ytick_20">
     <g id="line2d_83">
      <g>
       <use style="stroke:#000000;stroke-width:0.6;" x="90" xlink:href="#m3aeffcbdaf" y="148.466879"/>
      </g>
     </g>
    </g>
    <g id="ytick_21">
     <g id="line2d_84">
      <g>
       <use style="stroke:#000000;stroke-width:0.6;" x="90" xlink:href="#m3aeffcbdaf" y="141.939611"/>
      </g>
     </g>
    </g>
    <g id="ytick_22">
     <g id="line2d_85">
      <g>
       <use style="stroke:#000000;stroke-width:0.6;" x="90" xlink:href="#m3aeffcbdaf" y="136.420886"/>
      </g>
     </g>
    </g>
    <g id="ytick_23">
     <g id="line2d_86">
      <g>
       <use style="stroke:#000000;stroke-width:0.6;" x="90" xlink:href="#m3aeffcbdaf" y="131.640348"/>
      </g>
     </g>
    </g>
    <g id="ytick_24">
     <g id="line2d_87">
      <g>
       <use style="stroke:#000000;stroke-width:0.6;" x="90" xlink:href="#m3aeffcbdaf" y="127.423615"/>
      </g>
     </g>
    </g>
    <g id="ytick_25">
     <g id="line2d_88">
      <g>
       <use style="stroke:#000000;stroke-width:0.6;" x="90" xlink:href="#m3aeffcbdaf" y="98.836358"/>
      </g>
     </g>
    </g>
    <g id="ytick_26">
     <g id="line2d_89">
      <g>
       <use style="stroke:#000000;stroke-width:0.6;" x="90" xlink:href="#m3aeffcbdaf" y="84.320361"/>
      </g>
     </g>
    </g>
    <g id="ytick_27">
     <g id="line2d_90">
      <g>
       <use style="stroke:#000000;stroke-width:0.6;" x="90" xlink:href="#m3aeffcbdaf" y="74.021097"/>
      </g>
     </g>
    </g>
    <g id="ytick_28">
     <g id="line2d_91">
      <g>
       <use style="stroke:#000000;stroke-width:0.6;" x="90" xlink:href="#m3aeffcbdaf" y="66.032367"/>
      </g>
     </g>
    </g>
    <g id="ytick_29">
     <g id="line2d_92">
      <g>
       <use style="stroke:#000000;stroke-width:0.6;" x="90" xlink:href="#m3aeffcbdaf" y="59.5051"/>
      </g>
     </g>
    </g>
    <g id="ytick_30">
     <g id="line2d_93">
      <g>
       <use style="stroke:#000000;stroke-width:0.6;" x="90" xlink:href="#m3aeffcbdaf" y="53.986374"/>
      </g>
     </g>
    </g>
    <g id="ytick_31">
     <g id="line2d_94">
      <g>
       <use style="stroke:#000000;stroke-width:0.6;" x="90" xlink:href="#m3aeffcbdaf" y="49.205836"/>
      </g>
     </g>
    </g>
    <g id="ytick_32">
     <g id="line2d_95">
      <g>
       <use style="stroke:#000000;stroke-width:0.6;" x="90" xlink:href="#m3aeffcbdaf" y="44.989103"/>
      </g>
     </g>
    </g>
   </g>
   <g id="line2d_96">
    <path clip-path="url(#p4dc7388af0)" d="M 94.609242 361 
L 94.61157 236.039605 
L 96.14876 220.250939 
L 97.68595 213.257677 
L 99.22314 208.114015 
L 100.760331 202.452317 
L 102.297521 198.603926 
L 103.834711 193.828205 
L 105.371901 191.388082 
L 106.909091 188.570778 
L 108.446281 185.275148 
L 109.983471 183.089978 
L 111.520661 180.677688 
L 114.595041 176.177495 
L 117.669421 173.020751 
L 119.206612 171.666192 
L 120.743802 170.547378 
L 122.280992 169.717693 
L 123.818182 169.080911 
L 125.355372 168.779786 
L 126.892562 168.788707 
L 128.429752 169.04958 
L 129.966942 169.515409 
L 131.504132 170.266515 
L 133.041322 171.247293 
L 134.578512 172.515456 
L 136.115702 173.96678 
L 137.652893 175.655746 
L 139.190083 177.52932 
L 142.264463 181.894392 
L 145.338843 186.970043 
L 148.413223 192.661646 
L 151.487603 198.816012 
L 156.099174 208.894159 
L 160.710744 219.48441 
L 169.933884 240.826396 
L 174.545455 250.823969 
L 177.619835 257.039901 
L 180.694215 262.631823 
L 183.768595 267.689966 
L 188.380165 273.827108 
L 189.917355 275.379434 
L 191.454545 276.701129 
L 192.991736 277.749344 
L 194.528926 278.497849 
L 196.066116 278.931675 
L 197.603306 279.034653 
L 199.140496 278.790667 
L 200.677686 278.186032 
L 202.214876 277.210056 
L 203.752066 275.854724 
L 205.289256 274.116629 
L 206.826446 271.997398 
L 208.363636 269.504577 
L 209.900826 266.653046 
L 211.438017 263.466514 
L 214.512397 256.221644 
L 217.586777 248.084065 
L 229.884298 214.085592 
L 232.958678 206.671114 
L 236.033058 199.898503 
L 239.107438 193.677208 
L 243.719008 185.05109 
L 265.239669 146.482761 
L 268.31405 141.544953 
L 271.38843 137.030468 
L 274.46281 132.980923 
L 277.53719 129.435174 
L 280.61157 126.42134 
L 283.68595 123.948988 
L 285.22314 122.917689 
L 286.760331 122.022777 
L 288.297521 121.264266 
L 289.834711 120.641285 
L 291.371901 120.152517 
L 292.909091 119.796802 
L 294.446281 119.571917 
L 295.983471 119.474936 
L 297.520661 119.501602 
L 300.595041 119.900338 
L 303.669421 120.70651 
L 306.743802 121.834833 
L 311.355372 123.912157 
L 317.504132 126.774647 
L 320.578512 127.98078 
L 323.652893 128.910814 
L 326.727273 129.49338 
L 329.801653 129.67422 
L 331.338843 129.603942 
L 332.876033 129.421141 
L 334.413223 129.121853 
L 335.950413 128.704162 
L 337.487603 128.16801 
L 340.561983 126.741372 
L 343.636364 124.847537 
L 346.710744 122.520959 
L 349.785124 119.822004 
L 352.859504 116.805009 
L 355.933884 113.527127 
L 360.545455 108.271052 
L 368.231405 99.057069 
L 374.380165 91.692198 
L 377.454545 88.207047 
L 380.528926 84.991617 
L 383.603306 82.186867 
L 385.140496 80.991318 
L 386.677686 79.962612 
L 388.214876 79.122076 
L 389.752066 78.490694 
L 391.289256 78.087523 
L 392.826446 77.927682 
L 394.363636 78.022067 
L 395.900826 78.37793 
L 397.438017 78.999119 
L 398.975207 79.885965 
L 400.512397 81.035041 
L 402.049587 82.439939 
L 403.586777 84.092116 
L 405.123967 85.9807 
L 406.661157 88.092505 
L 409.735537 92.924188 
L 412.809917 98.4513 
L 415.884298 104.525781 
L 420.495868 114.323517 
L 429.719008 134.358229 
L 432.793388 140.566625 
L 435.867769 146.285235 
L 438.942149 151.391927 
L 442.016529 155.79924 
L 443.553719 157.724881 
L 445.090909 159.462667 
L 446.628099 161.014425 
L 448.165289 162.385512 
L 449.702479 163.58451 
L 451.239669 164.621889 
L 452.77686 165.50872 
L 454.31405 166.255754 
L 455.85124 166.872917 
L 458.92562 167.755358 
L 462 168.229489 
L 465.07438 168.35317 
L 468.14876 168.175207 
L 471.22314 167.736639 
L 474.297521 167.055456 
L 477.371901 166.118155 
L 480.446281 164.889526 
L 483.520661 163.326868 
L 486.595041 161.383316 
L 489.669421 159.034773 
L 492.743802 156.313201 
L 495.818182 153.28381 
L 500.429752 148.303009 
L 505.041322 142.957061 
L 509.652893 137.333057 
L 514.264463 131.414394 
L 518.876033 125.139603 
L 523.487603 118.469939 
L 528.099174 111.384149 
L 532.710744 103.904523 
L 543.471074 86.045765 
L 546.545455 81.379878 
L 549.619835 77.193713 
L 552.694215 73.60633 
L 554.231405 72.05844 
L 555.768595 70.678257 
L 557.305785 69.465465 
L 558.842975 68.418727 
L 560.380165 67.536333 
L 561.917355 66.81516 
L 563.454545 66.250188 
L 564.991736 65.835023 
L 566.528926 65.561326 
L 568.066116 65.419086 
L 571.140496 65.486154 
L 574.214876 65.949196 
L 577.289256 66.724506 
L 580.363636 67.744632 
L 583.438017 68.971577 
L 586.512397 70.391412 
L 589.586777 72.007313 
L 592.661157 73.832149 
L 595.735537 75.877536 
L 598.809917 78.144152 
L 603.421488 81.898808 
L 609.570248 87.30247 
L 615.719008 92.69025 
L 620.330579 96.406846 
L 623.404959 98.643468 
L 626.479339 100.673262 
L 629.553719 102.508564 
L 634.165289 104.946649 
L 638.77686 107.118797 
L 643.38843 109.114756 
L 648 110.856236 
L 648 110.856236 
" style="fill:none;stroke:#008000;stroke-linecap:square;stroke-width:1.5;"/>
   </g>
   <g id="line2d_97">
    <path clip-path="url(#p4dc7388af0)" d="M 90 138.223597 
L 91.53719 302.645455 
L 93.07438 207.71301 
L 94.61157 184.768882 
L 96.14876 182.012671 
L 97.68595 181.808645 
L 99.22314 179.875089 
L 100.760331 177.371299 
L 102.297521 175.132581 
L 105.371901 171.335481 
L 106.909091 169.739659 
L 108.446281 168.406334 
L 109.983471 167.372482 
L 111.520661 166.676568 
L 113.057851 166.32167 
L 114.595041 166.320153 
L 116.132231 166.674744 
L 117.669421 167.366343 
L 119.206612 168.378944 
L 120.743802 169.790988 
L 122.280992 171.401048 
L 123.818182 173.325355 
L 125.355372 175.534956 
L 126.892562 177.985497 
L 128.429752 180.671715 
L 131.504132 186.716107 
L 134.578512 193.528051 
L 137.652893 201.006464 
L 142.264463 213.099101 
L 148.413223 230.161004 
L 154.561983 247.055432 
L 157.636364 254.964426 
L 160.710744 262.360037 
L 163.785124 269.085615 
L 166.859504 275.018531 
L 168.396694 277.639315 
L 169.933884 280.016755 
L 171.471074 282.135553 
L 173.008264 283.974336 
L 174.545455 285.519969 
L 176.082645 286.770497 
L 177.619835 287.719472 
L 179.157025 288.350888 
L 180.694215 288.664364 
L 182.231405 288.668929 
L 183.768595 288.361128 
L 185.305785 287.743443 
L 186.842975 286.821703 
L 188.380165 285.585608 
L 189.917355 284.024123 
L 191.454545 282.136349 
L 192.991736 279.92137 
L 194.528926 277.392218 
L 196.066116 274.557038 
L 197.603306 271.415973 
L 199.140496 267.979332 
L 202.214876 260.284731 
L 205.289256 251.674169 
L 209.900826 237.776509 
L 214.512397 223.696234 
L 217.586777 214.878967 
L 220.661157 206.771852 
L 223.735537 199.552882 
L 226.809917 193.187919 
L 229.884298 187.47613 
L 234.495868 179.537636 
L 240.644628 168.978312 
L 246.793388 157.756369 
L 254.479339 143.721617 
L 257.553719 138.679565 
L 260.628099 134.129616 
L 263.702479 130.173935 
L 266.77686 126.760345 
L 269.85124 123.906082 
L 271.38843 122.720438 
L 272.92562 121.693158 
L 274.46281 120.811998 
L 276 120.071878 
L 277.53719 119.480444 
L 279.07438 119.046572 
L 280.61157 118.75259 
L 282.14876 118.603492 
L 283.68595 118.605834 
L 285.22314 118.744135 
L 286.760331 119.019397 
L 288.297521 119.434277 
L 291.371901 120.625041 
L 294.446281 122.202981 
L 299.057851 125.003015 
L 303.669421 127.8379 
L 306.743802 129.493459 
L 309.818182 130.761972 
L 312.892562 131.588787 
L 314.429752 131.830753 
L 315.966942 131.948538 
L 317.504132 131.95376 
L 319.041322 131.841254 
L 320.578512 131.595487 
L 323.652893 130.726678 
L 325.190083 130.129362 
L 326.727273 129.411294 
L 328.264463 128.556126 
L 331.338843 126.481503 
L 334.413223 123.989547 
L 337.487603 121.061142 
L 340.561983 117.820439 
L 345.173554 112.593191 
L 351.322314 105.053284 
L 365.157025 88.002298 
L 368.231405 84.539874 
L 371.305785 81.40579 
L 372.842975 80.021938 
L 374.380165 78.789441 
L 375.917355 77.737767 
L 377.454545 76.908786 
L 378.991736 76.339926 
L 380.528926 76.053921 
L 382.066116 76.071161 
L 383.603306 76.424061 
L 385.140496 77.140376 
L 386.677686 78.225858 
L 388.214876 79.669482 
L 389.752066 81.463072 
L 391.289256 83.600073 
L 392.826446 86.065575 
L 394.363636 88.838498 
L 395.900826 91.885563 
L 398.975207 98.707939 
L 402.049587 106.289933 
L 406.661157 118.432182 
L 412.809917 134.765625 
L 415.884298 142.455094 
L 418.958678 149.520398 
L 422.033058 155.812647 
L 423.570248 158.621095 
L 425.107438 161.166174 
L 426.644628 163.442518 
L 428.181818 165.450731 
L 429.719008 167.190829 
L 431.256198 168.668571 
L 432.793388 169.901689 
L 434.330579 170.89744 
L 435.867769 171.668303 
L 437.404959 172.240906 
L 438.942149 172.641293 
L 440.479339 172.885904 
L 443.553719 173.02871 
L 446.628099 172.894266 
L 449.702479 172.519808 
L 452.77686 171.913352 
L 455.85124 171.154428 
L 458.92562 170.219932 
L 463.53719 168.564667 
L 466.61157 167.284879 
L 469.68595 165.774111 
L 472.760331 163.92138 
L 475.834711 161.699689 
L 478.909091 159.051093 
L 481.983471 155.957094 
L 486.595041 150.770599 
L 492.743802 143.442063 
L 500.429752 133.848141 
L 505.041322 127.774594 
L 509.652893 121.300256 
L 514.264463 114.399054 
L 518.876033 107.096454 
L 523.487603 99.348177 
L 534.247934 81.02497 
L 537.322314 76.382666 
L 538.859504 74.285847 
L 540.396694 72.391916 
L 541.933884 70.695508 
L 543.471074 69.205856 
L 545.008264 67.935642 
L 546.545455 66.88162 
L 548.082645 66.023614 
L 549.619835 65.353833 
L 551.157025 64.85914 
L 552.694215 64.531451 
L 554.231405 64.371414 
L 555.768595 64.38161 
L 557.305785 64.543294 
L 558.842975 64.833231 
L 561.917355 65.739005 
L 564.991736 66.934546 
L 569.603306 69.073416 
L 574.214876 71.44436 
L 577.289256 73.214694 
L 580.363636 75.193895 
L 583.438017 77.412896 
L 586.512397 79.91437 
L 589.586777 82.682865 
L 594.198347 87.225286 
L 601.884298 94.806241 
L 604.958678 97.587288 
L 608.033058 100.111989 
L 611.107438 102.32813 
L 614.181818 104.218631 
L 617.256198 105.84176 
L 621.867769 107.950741 
L 626.479339 109.795055 
L 637.239669 113.858211 
L 640.31405 114.662665 
L 643.38843 115.166963 
L 646.46281 115.420171 
L 648 115.41033 
L 648 115.41033 
" style="fill:none;stroke:#0000ff;stroke-linecap:square;stroke-width:1.5;"/>
   </g>
   <g id="line2d_98">
    <path clip-path="url(#p4dc7388af0)" d="M 105.370549 361 
L 105.371901 288.520641 
L 106.909091 209.858126 
L 108.446281 191.570133 
L 109.983471 194.040136 
L 111.520661 199.558862 
L 113.057851 155.571592 
L 114.595041 174.743602 
L 116.132231 173.282139 
L 117.669421 189.259599 
L 119.206612 174.743602 
L 120.743802 167.968577 
L 122.280992 149.928341 
L 123.818182 165.580968 
L 125.355372 167.968577 
L 126.892562 181.270869 
L 128.429752 149.928341 
L 129.966942 154.708879 
L 133.041322 181.270869 
L 134.578512 187.089185 
L 136.115702 202.673944 
L 137.652893 174.743602 
L 139.190083 174.743602 
L 140.727273 169.224876 
L 142.264463 165.580968 
L 143.801653 179.524139 
L 145.338843 218.855397 
L 146.876033 191.570133 
L 148.413223 187.089185 
L 149.950413 238.89012 
L 151.487603 179.524139 
L 153.024793 179.524139 
L 154.561983 218.855397 
L 156.099174 194.040136 
L 157.636364 202.673944 
L 159.173554 238.89012 
L 160.710744 249.189383 
L 162.247934 209.858126 
L 163.785124 238.89012 
L 165.322314 238.89012 
L 166.859504 224.374123 
L 168.396694 214.074859 
L 169.933884 263.70538 
L 171.471074 288.520641 
L 173.008264 263.70538 
L 173.010078 361 
M 176.080831 361 
L 176.082645 263.70538 
L 177.619835 249.189383 
L 179.157025 238.89012 
L 179.1593 361 
M 182.229591 361 
L 182.231405 263.70538 
L 183.768595 288.520641 
L 183.769947 361 
M 186.841624 361 
L 186.842975 288.520641 
L 186.844327 361 
M 189.916004 361 
L 189.917355 288.520641 
L 189.918707 361 
M 192.989652 361 
L 192.991736 249.189383 
L 194.528926 263.70538 
L 196.066116 238.89012 
L 197.603306 263.70538 
L 197.60512 361 
M 206.824633 361 
L 206.826446 263.70538 
L 208.363636 263.70538 
L 209.900826 288.520641 
L 211.438017 249.189383 
L 211.440101 361 
M 216.047503 361 
L 216.049587 249.189383 
L 217.586777 249.189383 
L 219.123967 288.520641 
L 220.661157 238.89012 
L 222.198347 224.374123 
L 223.735537 230.90139 
L 225.272727 238.89012 
L 226.809917 230.90139 
L 228.347107 189.259599 
L 229.884298 181.270869 
L 231.421488 214.074859 
L 232.958678 191.570133 
L 234.495868 196.693265 
L 236.033058 218.855397 
L 237.570248 194.040136 
L 239.107438 199.558862 
L 240.644628 176.267272 
L 242.181818 187.089185 
L 243.719008 194.040136 
L 245.256198 196.693265 
L 246.793388 206.08613 
L 248.330579 167.968577 
L 249.867769 183.107213 
L 251.404959 173.282139 
L 252.942149 176.267272 
L 254.479339 187.089185 
L 256.016529 179.524139 
L 257.553719 169.224876 
L 259.090909 154.708879 
L 260.628099 145.711608 
L 262.165289 147.757928 
L 263.702479 137.989057 
L 265.239669 144.409615 
L 266.77686 149.928341 
L 268.31405 146.380802 
L 269.85124 138.527426 
L 271.38843 129.469935 
L 272.92562 135.412344 
L 274.46281 125.487962 
L 276 140.192882 
L 277.53719 137.458664 
L 279.07438 130.756331 
L 280.61157 121.229381 
L 282.14876 125.11308 
L 283.68595 121.904889 
L 285.22314 114.258754 
L 286.760331 120.896347 
L 288.297521 136.420886 
L 289.834711 141.939611 
L 291.371901 115.950447 
L 292.909091 126.249711 
L 294.446281 102.807802 
L 295.983471 107.961718 
L 299.057851 137.458664 
L 300.595041 134.431437 
L 302.132231 109.135621 
L 303.669421 107.275418 
L 305.206612 109.616177 
L 306.743802 113.712165 
L 308.280992 125.487962 
L 309.818182 161.236146 
L 311.355372 155.571592 
L 312.892562 112.907618 
L 314.429752 124.011429 
L 315.966942 120.239432 
L 317.504132 120.566383 
L 320.578512 152.238875 
L 322.115702 141.347848 
L 323.652893 129.469935 
L 325.190083 122.247483 
L 326.727273 129.469935 
L 328.264463 126.636751 
L 329.801653 132.546747 
L 331.338843 135.412344 
L 332.876033 143.153316 
L 334.413223 125.487962 
L 335.950413 117.124351 
L 337.487603 127.028021 
L 339.024793 131.640348 
L 340.561983 136.936015 
L 342.099174 145.054693 
L 343.636364 128.228162 
L 345.173554 125.11308 
L 346.710744 113.441969 
L 348.247934 108.193439 
L 349.785124 122.942667 
L 351.322314 107.961718 
L 352.859504 143.775955 
L 355.933884 112.643404 
L 357.471074 111.097803 
L 359.008264 96.247216 
L 360.545455 105.078358 
L 362.082645 96.581806 
L 363.619835 135.412344 
L 365.157025 112.907618 
L 366.694215 98.127407 
L 368.231405 98.836358 
L 369.768595 92.608681 
L 371.305785 90.70471 
L 372.842975 97.260516 
L 374.380165 110.103271 
L 375.917355 92.910799 
L 377.454545 89.306062 
L 378.991736 81.675757 
L 380.528926 94.619624 
L 382.066116 89.169156 
L 383.603306 77.992542 
L 385.140496 91.279837 
L 386.677686 120.239432 
L 388.214876 91.279837 
L 389.752066 66.975504 
L 391.289256 70.204377 
L 392.826446 65.393683 
L 394.363636 62.620182 
L 395.900826 72.359709 
L 397.438017 95.261809 
L 398.975207 147.062744 
L 400.512397 71.850684 
L 402.049587 57.588295 
L 403.586777 71.682604 
L 405.123967 71.018068 
L 406.661157 98.127407 
L 408.198347 102.608354 
L 409.735537 80.908175 
L 411.272727 82.916226 
L 412.809917 96.247216 
L 414.347107 100.29782 
L 415.884298 106.38035 
L 417.421488 147.062744 
L 418.958678 120.566383 
L 420.495868 96.41412 
L 422.033058 108.661431 
L 423.570248 119.594355 
L 425.107438 118.338055 
L 426.644628 129.893618 
L 428.181818 177.858683 
L 429.719008 149.190153 
L 431.256198 134.918531 
L 432.793388 144.409615 
L 434.330579 144.409615 
L 435.867769 146.380802 
L 437.404959 155.571592 
L 438.942149 238.89012 
L 440.479339 176.267272 
L 442.016529 164.444338 
L 443.553719 158.291952 
L 445.090909 174.743602 
L 446.628099 162.273925 
L 448.165289 159.246698 
L 449.702479 214.074859 
L 451.239669 147.757928 
L 452.77686 144.409615 
L 454.31405 161.236146 
L 455.85124 167.968577 
L 457.38843 149.928341 
L 458.92562 165.580968 
L 460.46281 206.08613 
L 462 166.754872 
L 463.53719 176.267272 
L 465.07438 173.282139 
L 466.61157 173.282139 
L 468.14876 166.754872 
L 469.68595 149.190153 
L 471.22314 199.558862 
L 472.760331 151.452012 
L 474.297521 153.866467 
L 475.834711 170.526868 
L 477.371901 161.236146 
L 478.909091 156.455608 
L 480.446281 185.042865 
L 481.983471 199.558862 
L 483.520661 154.708879 
L 485.057851 176.267272 
L 486.595041 162.273925 
L 488.132231 164.444338 
L 489.669421 159.246698 
L 491.206612 162.273925 
L 492.743802 174.743602 
L 494.280992 148.466879 
L 495.818182 146.380802 
L 497.355372 147.757928 
L 498.892562 151.452012 
L 500.429752 140.765708 
L 501.966942 136.420886 
L 503.504132 164.444338 
L 505.041322 139.629077 
L 506.578512 142.541321 
L 508.115702 138.527426 
L 509.652893 130.756331 
L 512.727273 136.420886 
L 514.264463 153.866467 
L 515.801653 132.546747 
L 517.338843 133.476691 
L 518.876033 108.897741 
L 520.413223 120.566383 
L 521.950413 116.827247 
L 523.487603 126.249711 
L 525.024793 132.090679 
L 526.561983 116.240334 
L 528.099174 104.028404 
L 529.636364 103.616895 
L 531.173554 112.120754 
L 532.710744 101.82149 
L 534.247934 107.961718 
L 535.785124 128.637319 
L 537.322314 102.410011 
L 540.396694 84.800916 
L 541.933884 83.26213 
L 543.471074 84.680171 
L 545.008264 88.626708 
L 546.545455 101.627447 
L 548.082645 83.96413 
L 549.619835 64.628232 
L 551.157025 66.902067 
L 552.694215 68.939757 
L 554.231405 65.183296 
L 555.768595 68.095539 
L 557.305785 80.908175 
L 558.842975 69.724895 
L 560.380165 60.350353 
L 561.917355 62.750604 
L 563.454545 59.985656 
L 564.991736 56.584467 
L 566.528926 66.319926 
L 568.066116 90.138677 
L 569.603306 74.744371 
L 571.140496 55.554545 
L 572.677686 63.744216 
L 574.214876 66.392178 
L 577.289256 63.878806 
L 578.826446 110.349326 
L 580.363636 77.00623 
L 581.900826 63.811447 
L 583.438017 70.772013 
L 584.975207 68.476808 
L 586.512397 69.48754 
L 588.049587 73.931707 
L 589.586777 100.672701 
L 592.661157 57.815242 
L 594.198347 65.253287 
L 595.735537 69.804364 
L 597.272727 77.3975 
L 598.809917 70.284919 
L 600.347107 117.423941 
L 601.884298 80.156705 
L 603.421488 66.464576 
L 604.958678 74.021097 
L 606.495868 78.496078 
L 608.033058 86.662732 
L 609.570248 86.662732 
L 611.107438 115.377621 
L 612.644628 94.779094 
L 614.181818 90.138677 
L 615.719008 89.581454 
L 617.256198 93.215489 
L 618.793388 97.952341 
L 620.330579 100.29782 
L 621.867769 153.043423 
L 623.404959 112.120754 
L 624.942149 90.279349 
L 626.479339 99.559632 
L 628.016529 93.988756 
L 629.553719 99.559632 
L 631.090909 101.627447 
L 632.628099 150.682071 
L 634.165289 98.303333 
L 635.702479 95.915724 
L 637.239669 104.235946 
L 638.77686 99.015811 
L 640.31405 106.38035 
L 641.85124 99.377439 
L 643.38843 129.051206 
L 644.92562 118.960695 
L 646.46281 97.952341 
L 648 119.594355 
L 648 119.594355 
" style="fill:none;stroke:#ff0000;stroke-linecap:square;stroke-opacity:0.7;stroke-width:1.5;"/>
   </g>
   <g id="patch_3">
    <path d="M 90 315 
L 90 43.2 
" style="fill:none;stroke:#000000;stroke-linecap:square;stroke-linejoin:miter;stroke-width:0.8;"/>
   </g>
   <g id="patch_4">
    <path d="M 648 315 
L 648 43.2 
" style="fill:none;stroke:#000000;stroke-linecap:square;stroke-linejoin:miter;stroke-width:0.8;"/>
   </g>
   <g id="patch_5">
    <path d="M 90 315 
L 648 315 
" style="fill:none;stroke:#000000;stroke-linecap:square;stroke-linejoin:miter;stroke-width:0.8;"/>
   </g>
   <g id="patch_6">
    <path d="M 90 43.2 
L 648 43.2 
" style="fill:none;stroke:#000000;stroke-linecap:square;stroke-linejoin:miter;stroke-width:0.8;"/>
   </g>
   <g id="text_17">
    <!-- 422    -->
    <g transform="translate(313.716563 37.2)scale(0.12 -0.12)">
     <defs>
      <path d="M 37.796875 64.3125 
L 12.890625 25.390625 
L 37.796875 25.390625 
z
M 35.203125 72.90625 
L 47.609375 72.90625 
L 47.609375 25.390625 
L 58.015625 25.390625 
L 58.015625 17.1875 
L 47.609375 17.1875 
L 47.609375 0 
L 37.796875 0 
L 37.796875 17.1875 
L 4.890625 17.1875 
L 4.890625 26.703125 
z
" id="DejaVuSans-52"/>
      <path id="DejaVuSans-32"/>
      <path d="M 19.140625 33.40625 
L 19.140625 0 
L 10.109375 0 
L 10.109375 29.6875 
z
M 56.25 27.828125 
L 56.25 0 
L 47.21875 0 
L 47.21875 29.6875 
Q 47.21875 40.234375 44.0625 43.96875 
Q 40.921875 47.703125 31.84375 47.703125 
L 9.078125 47.703125 
L 9.078125 54.6875 
L 31.734375 54.6875 
Q 45.265625 54.6875 50.75 48.578125 
Q 56.25 42.484375 56.25 27.828125 
z
" id="DejaVuSans-1492"/>
      <path d="M 18.171875 54.6875 
L 18.171875 0 
L 9.078125 0 
L 9.078125 54.6875 
z
" id="DejaVuSans-1493"/>
      <path d="M 19.34375 -20.796875 
L 19.34375 33.40625 
L 10.25 29.6875 
L 10.25 -20.796875 
z
M 33.0625 0 
L 52.78125 47.703125 
L 9.078125 47.703125 
L 9.078125 54.640625 
L 63.328125 54.640625 
L 63.328125 49.265625 
L 42.578125 0 
z
" id="DejaVuSans-1511"/>
      <path d="M 56.640625 29.59375 
L 56.640625 0 
L 47.5625 0 
L 47.5625 29.6875 
Q 47.5625 33.296875 47.3125 35.71875 
Q 47.078125 38.140625 46.1875 40.59375 
Q 45.3125 43.0625 43.75 44.484375 
Q 42.1875 45.90625 39.453125 46.796875 
Q 36.71875 47.703125 32.8125 47.703125 
L 20.796875 47.703125 
L 20.796875 20.21875 
Q 20.796875 9.765625 17.796875 4.6875 
Q 14.796875 -0.390625 7.375 -0.390625 
Q 4.78125 -0.390625 0.984375 0.390625 
L 0.984375 7.375 
Q 4.15625 6.6875 6 6.6875 
Q 9.46875 6.6875 10.59375 9.46875 
Q 11.71875 12.25 11.71875 20.21875 
L 11.71875 47.703125 
L 3.265625 47.703125 
L 3.265625 54.6875 
L 32.8125 54.6875 
Q 39.796875 54.6875 44.5 53.046875 
Q 49.21875 51.421875 51.859375 48.046875 
Q 54.5 44.671875 55.5625 40.28125 
Q 56.640625 35.890625 56.640625 29.59375 
z
" id="DejaVuSans-1514"/>
      <path d="M 56.25 29.59375 
L 56.25 0 
L 47.171875 0 
L 47.171875 30.90625 
Q 47.171875 40.578125 44 44.140625 
Q 40.828125 47.703125 31.84375 47.703125 
L 18.109375 47.703125 
L 18.109375 0 
L 9.078125 0 
L 9.078125 54.6875 
L 31.734375 54.6875 
Q 45.21875 54.6875 50.734375 48.828125 
Q 56.25 42.96875 56.25 29.59375 
z
" id="DejaVuSans-1495"/>
      <path d="M 9.078125 54.6875 
L 29.890625 54.6875 
Q 42.484375 54.6875 49.703125 47.5625 
Q 56.9375 40.4375 56.9375 27.34375 
Q 56.9375 14.265625 49.6875 7.125 
Q 42.4375 0 29.890625 0 
L 9.078125 0 
L 9.078125 6.9375 
L 26.171875 6.9375 
Q 37.703125 6.9375 42.796875 11.625 
Q 47.90625 16.3125 47.90625 27.9375 
Q 47.90625 38.625 42.625 43.15625 
Q 37.359375 47.703125 26.21875 47.703125 
L 18.171875 47.703125 
L 18.109375 36.859375 
Q 18.0625 33.296875 19.8125 31.609375 
Q 21.578125 29.9375 25.203125 29.9375 
Q 27.203125 29.9375 30.46875 30.5625 
L 30.46875 23.140625 
Q 26.46875 22.359375 23.1875 22.359375 
Q 16.65625 22.359375 12.859375 25.96875 
Q 9.078125 29.59375 9.078125 38.1875 
z
" id="DejaVuSans-1508"/>
      <path d="M 47.359375 27.828125 
L 47.359375 0 
L 38.28125 0 
L 38.28125 27.828125 
Q 38.28125 31.390625 37.765625 34.265625 
Q 37.25 37.15625 36 39.71875 
Q 34.765625 42.28125 32.8125 43.984375 
Q 30.859375 45.703125 27.78125 46.703125 
Q 24.703125 47.703125 20.703125 47.703125 
L 4.296875 47.703125 
L 4.296875 54.6875 
L 20.65625 54.6875 
Q 26.8125 54.6875 31.46875 53.390625 
Q 36.140625 52.09375 39.109375 49.828125 
Q 42.09375 47.5625 43.96875 44.109375 
Q 45.84375 40.671875 46.59375 36.734375 
Q 47.359375 32.8125 47.359375 27.828125 
z
" id="DejaVuSans-1512"/>
      <path d="M 30.328125 54.6875 
L 30.328125 47.703125 
L 26.421875 47.703125 
Q 22.171875 47.703125 20.578125 43.921875 
Q 19 40.140625 19 30.90625 
L 19 0 
L 9.90625 0 
L 9.90625 30.90625 
Q 9.90625 37.109375 11.78125 41.453125 
Q 13.671875 45.796875 16.40625 47.703125 
L 4.296875 47.703125 
L 4.296875 54.6875 
z
" id="DejaVuSans-1494"/>
      <path d="M 43.75 20.0625 
L 57.671875 0 
L 47.078125 0 
L 26.765625 29.296875 
Q 25.390625 28.609375 24.53125 28.09375 
Q 23.6875 27.59375 22.3125 26.296875 
Q 20.953125 25 20.140625 23.40625 
Q 19.34375 21.828125 18.703125 19.140625 
Q 18.0625 16.453125 18.0625 13.09375 
L 18.0625 0 
L 9.078125 0 
L 9.078125 9.03125 
Q 9.078125 12.984375 9.5625 16.359375 
Q 10.0625 19.734375 10.8125 22.078125 
Q 11.578125 24.421875 12.796875 26.390625 
Q 14.015625 28.375 15.109375 29.59375 
Q 16.21875 30.8125 17.796875 31.875 
Q 19.390625 32.953125 20.453125 33.46875 
Q 21.53125 33.984375 23.046875 34.625 
L 9.1875 54.6875 
L 19.78125 54.6875 
L 40.09375 25.390625 
Q 41.40625 26.03125 42.25 26.53125 
Q 43.109375 27.046875 44.46875 28.359375 
Q 45.84375 29.6875 46.671875 31.265625 
Q 47.515625 32.859375 48.140625 35.546875 
Q 48.78125 38.234375 48.78125 41.609375 
L 48.78125 54.6875 
L 57.765625 54.6875 
L 57.765625 45.65625 
Q 57.765625 41.65625 57.265625 38.3125 
Q 56.78125 34.96875 56.03125 32.59375 
Q 55.28125 30.21875 54.046875 28.234375 
Q 52.828125 26.265625 51.703125 25.0625 
Q 50.59375 23.875 49.03125 22.796875 
Q 47.46875 21.734375 46.390625 21.21875 
Q 45.3125 20.703125 43.75 20.0625 
z
" id="DejaVuSans-1488"/>
     </defs>
     <use xlink:href="#DejaVuSans-52"/>
     <use x="63.623047" xlink:href="#DejaVuSans-50"/>
     <use x="127.246094" xlink:href="#DejaVuSans-50"/>
     <use x="190.869141" xlink:href="#DejaVuSans-32"/>
     <use x="222.65625" xlink:href="#DejaVuSans-1492"/>
     <use x="287.988281" xlink:href="#DejaVuSans-1493"/>
     <use x="315.234375" xlink:href="#DejaVuSans-1493"/>
     <use x="342.480469" xlink:href="#DejaVuSans-1511"/>
     <use x="413.427734" xlink:href="#DejaVuSans-1514"/>
     <use x="479.150391" xlink:href="#DejaVuSans-32"/>
     <use x="510.9375" xlink:href="#DejaVuSans-1495"/>
     <use x="576.269531" xlink:href="#DejaVuSans-1514"/>
     <use x="641.992188" xlink:href="#DejaVuSans-1508"/>
     <use x="704.443359" xlink:href="#DejaVuSans-32"/>
     <use x="736.230469" xlink:href="#DejaVuSans-1512"/>
     <use x="792.675781" xlink:href="#DejaVuSans-1493"/>
     <use x="819.921875" xlink:href="#DejaVuSans-1494"/>
     <use x="854.541016" xlink:href="#DejaVuSans-1488"/>
    </g>
   </g>
   <g id="legend_1">
    <g id="patch_7">
     <path d="M 97 95.234375 
L 221.582812 95.234375 
Q 223.582812 95.234375 223.582812 93.234375 
L 223.582812 50.2 
Q 223.582812 48.2 221.582812 48.2 
L 97 48.2 
Q 95 48.2 95 50.2 
L 95 93.234375 
Q 95 95.234375 97 95.234375 
z
" style="fill:#ffffff;opacity:0.8;stroke:#cccccc;stroke-linejoin:miter;"/>
    </g>
    <g id="line2d_99">
     <path d="M 99 56.298437 
L 119 56.298437 
" style="fill:none;stroke:#008000;stroke-linecap:square;stroke-width:1.5;"/>
    </g>
    <g id="line2d_100"/>
    <g id="text_18">
     <!-- Test-adjusted -->
     <g transform="translate(127 59.798437)scale(0.1 -0.1)">
      <defs>
       <path d="M -0.296875 72.90625 
L 61.375 72.90625 
L 61.375 64.59375 
L 35.5 64.59375 
L 35.5 0 
L 25.59375 0 
L 25.59375 64.59375 
L -0.296875 64.59375 
z
" id="DejaVuSans-84"/>
       <path d="M 44.28125 53.078125 
L 44.28125 44.578125 
Q 40.484375 46.53125 36.375 47.5 
Q 32.28125 48.484375 27.875 48.484375 
Q 21.1875 48.484375 17.84375 46.4375 
Q 14.5 44.390625 14.5 40.28125 
Q 14.5 37.15625 16.890625 35.375 
Q 19.28125 33.59375 26.515625 31.984375 
L 29.59375 31.296875 
Q 39.15625 29.25 43.1875 25.515625 
Q 47.21875 21.78125 47.21875 15.09375 
Q 47.21875 7.46875 41.1875 3.015625 
Q 35.15625 -1.421875 24.609375 -1.421875 
Q 20.21875 -1.421875 15.453125 -0.5625 
Q 10.6875 0.296875 5.421875 2 
L 5.421875 11.28125 
Q 10.40625 8.6875 15.234375 7.390625 
Q 20.0625 6.109375 24.8125 6.109375 
Q 31.15625 6.109375 34.5625 8.28125 
Q 37.984375 10.453125 37.984375 14.40625 
Q 37.984375 18.0625 35.515625 20.015625 
Q 33.0625 21.96875 24.703125 23.78125 
L 21.578125 24.515625 
Q 13.234375 26.265625 9.515625 29.90625 
Q 5.8125 33.546875 5.8125 39.890625 
Q 5.8125 47.609375 11.28125 51.796875 
Q 16.75 56 26.8125 56 
Q 31.78125 56 36.171875 55.265625 
Q 40.578125 54.546875 44.28125 53.078125 
z
" id="DejaVuSans-115"/>
       <path d="M 4.890625 31.390625 
L 31.203125 31.390625 
L 31.203125 23.390625 
L 4.890625 23.390625 
z
" id="DejaVuSans-45"/>
       <path d="M 9.421875 54.6875 
L 18.40625 54.6875 
L 18.40625 -0.984375 
Q 18.40625 -11.421875 14.421875 -16.109375 
Q 10.453125 -20.796875 1.609375 -20.796875 
L -1.8125 -20.796875 
L -1.8125 -13.1875 
L 0.59375 -13.1875 
Q 5.71875 -13.1875 7.5625 -10.8125 
Q 9.421875 -8.453125 9.421875 -0.984375 
z
M 9.421875 75.984375 
L 18.40625 75.984375 
L 18.40625 64.59375 
L 9.421875 64.59375 
z
" id="DejaVuSans-106"/>
      </defs>
      <use xlink:href="#DejaVuSans-84"/>
      <use x="44.083984" xlink:href="#DejaVuSans-101"/>
      <use x="105.607422" xlink:href="#DejaVuSans-115"/>
      <use x="157.707031" xlink:href="#DejaVuSans-116"/>
      <use x="196.916016" xlink:href="#DejaVuSans-45"/>
      <use x="233" xlink:href="#DejaVuSans-97"/>
      <use x="294.279297" xlink:href="#DejaVuSans-100"/>
      <use x="357.755859" xlink:href="#DejaVuSans-106"/>
      <use x="385.539062" xlink:href="#DejaVuSans-117"/>
      <use x="448.917969" xlink:href="#DejaVuSans-115"/>
      <use x="501.017578" xlink:href="#DejaVuSans-116"/>
      <use x="540.226562" xlink:href="#DejaVuSans-101"/>
      <use x="601.75" xlink:href="#DejaVuSans-100"/>
     </g>
    </g>
    <g id="line2d_101">
     <path d="M 99 70.976562 
L 119 70.976562 
" style="fill:none;stroke:#0000ff;stroke-linecap:square;stroke-width:1.5;"/>
    </g>
    <g id="line2d_102"/>
    <g id="text_19">
     <!-- Infections -->
     <g transform="translate(127 74.476562)scale(0.1 -0.1)">
      <defs>
       <path d="M 9.8125 72.90625 
L 19.671875 72.90625 
L 19.671875 0 
L 9.8125 0 
z
" id="DejaVuSans-73"/>
       <path d="M 37.109375 75.984375 
L 37.109375 68.5 
L 28.515625 68.5 
Q 23.6875 68.5 21.796875 66.546875 
Q 19.921875 64.59375 19.921875 59.515625 
L 19.921875 54.6875 
L 34.71875 54.6875 
L 34.71875 47.703125 
L 19.921875 47.703125 
L 19.921875 0 
L 10.890625 0 
L 10.890625 47.703125 
L 2.296875 47.703125 
L 2.296875 54.6875 
L 10.890625 54.6875 
L 10.890625 58.5 
Q 10.890625 67.625 15.140625 71.796875 
Q 19.390625 75.984375 28.609375 75.984375 
z
" id="DejaVuSans-102"/>
       <path d="M 9.421875 54.6875 
L 18.40625 54.6875 
L 18.40625 0 
L 9.421875 0 
z
M 9.421875 75.984375 
L 18.40625 75.984375 
L 18.40625 64.59375 
L 9.421875 64.59375 
z
" id="DejaVuSans-105"/>
      </defs>
      <use xlink:href="#DejaVuSans-73"/>
      <use x="29.492188" xlink:href="#DejaVuSans-110"/>
      <use x="92.871094" xlink:href="#DejaVuSans-102"/>
      <use x="128.076172" xlink:href="#DejaVuSans-101"/>
      <use x="189.599609" xlink:href="#DejaVuSans-99"/>
      <use x="244.580078" xlink:href="#DejaVuSans-116"/>
      <use x="283.789062" xlink:href="#DejaVuSans-105"/>
      <use x="311.572266" xlink:href="#DejaVuSans-111"/>
      <use x="372.753906" xlink:href="#DejaVuSans-110"/>
      <use x="436.132812" xlink:href="#DejaVuSans-115"/>
     </g>
    </g>
    <g id="line2d_103">
     <path d="M 99 85.654687 
L 119 85.654687 
" style="fill:none;stroke:#ff0000;stroke-linecap:square;stroke-opacity:0.7;stroke-width:1.5;"/>
    </g>
    <g id="line2d_104"/>
    <g id="text_20">
     <!-- Reported Positives -->
     <g transform="translate(127 89.154687)scale(0.1 -0.1)">
      <defs>
       <path d="M 44.390625 34.1875 
Q 47.5625 33.109375 50.5625 29.59375 
Q 53.5625 26.078125 56.59375 19.921875 
L 66.609375 0 
L 56 0 
L 46.6875 18.703125 
Q 43.0625 26.03125 39.671875 28.421875 
Q 36.28125 30.8125 30.421875 30.8125 
L 19.671875 30.8125 
L 19.671875 0 
L 9.8125 0 
L 9.8125 72.90625 
L 32.078125 72.90625 
Q 44.578125 72.90625 50.734375 67.671875 
Q 56.890625 62.453125 56.890625 51.90625 
Q 56.890625 45.015625 53.6875 40.46875 
Q 50.484375 35.9375 44.390625 34.1875 
z
M 19.671875 64.796875 
L 19.671875 38.921875 
L 32.078125 38.921875 
Q 39.203125 38.921875 42.84375 42.21875 
Q 46.484375 45.515625 46.484375 51.90625 
Q 46.484375 58.296875 42.84375 61.546875 
Q 39.203125 64.796875 32.078125 64.796875 
z
" id="DejaVuSans-82"/>
       <path d="M 19.671875 64.796875 
L 19.671875 37.40625 
L 32.078125 37.40625 
Q 38.96875 37.40625 42.71875 40.96875 
Q 46.484375 44.53125 46.484375 51.125 
Q 46.484375 57.671875 42.71875 61.234375 
Q 38.96875 64.796875 32.078125 64.796875 
z
M 9.8125 72.90625 
L 32.078125 72.90625 
Q 44.34375 72.90625 50.609375 67.359375 
Q 56.890625 61.8125 56.890625 51.125 
Q 56.890625 40.328125 50.609375 34.8125 
Q 44.34375 29.296875 32.078125 29.296875 
L 19.671875 29.296875 
L 19.671875 0 
L 9.8125 0 
z
" id="DejaVuSans-80"/>
      </defs>
      <use xlink:href="#DejaVuSans-82"/>
      <use x="64.982422" xlink:href="#DejaVuSans-101"/>
      <use x="126.505859" xlink:href="#DejaVuSans-112"/>
      <use x="189.982422" xlink:href="#DejaVuSans-111"/>
      <use x="251.164062" xlink:href="#DejaVuSans-114"/>
      <use x="292.277344" xlink:href="#DejaVuSans-116"/>
      <use x="331.486328" xlink:href="#DejaVuSans-101"/>
      <use x="393.009766" xlink:href="#DejaVuSans-100"/>
      <use x="456.486328" xlink:href="#DejaVuSans-32"/>
      <use x="488.273438" xlink:href="#DejaVuSans-80"/>
      <use x="544.951172" xlink:href="#DejaVuSans-111"/>
      <use x="606.132812" xlink:href="#DejaVuSans-115"/>
      <use x="658.232422" xlink:href="#DejaVuSans-105"/>
      <use x="686.015625" xlink:href="#DejaVuSans-116"/>
      <use x="725.224609" xlink:href="#DejaVuSans-105"/>
      <use x="753.007812" xlink:href="#DejaVuSans-118"/>
      <use x="812.1875" xlink:href="#DejaVuSans-101"/>
      <use x="873.710938" xlink:href="#DejaVuSans-115"/>
     </g>
    </g>
   </g>
  </g>
 </g>
 <defs>
  <clipPath id="p4dc7388af0">
   <rect height="271.8" width="558" x="90" y="43.2"/>
  </clipPath>
 </defs>
</svg>
