<?xml version="1.0" encoding="utf-8" standalone="no"?>
<!DOCTYPE svg PUBLIC "-//W3C//DTD SVG 1.1//EN"
  "http://www.w3.org/Graphics/SVG/1.1/DTD/svg11.dtd">
<!-- Created with matplotlib (https://matplotlib.org/) -->
<svg height="360pt" version="1.1" viewBox="0 0 720 360" width="720pt" xmlns="http://www.w3.org/2000/svg" xmlns:xlink="http://www.w3.org/1999/xlink">
 <metadata>
  <rdf:RDF xmlns:cc="http://creativecommons.org/ns#" xmlns:dc="http://purl.org/dc/elements/1.1/" xmlns:rdf="http://www.w3.org/1999/02/22-rdf-syntax-ns#">
   <cc:Work>
    <dc:type rdf:resource="http://purl.org/dc/dcmitype/StillImage"/>
    <dc:date>2021-03-07T19:42:05.196616</dc:date>
    <dc:format>image/svg+xml</dc:format>
    <dc:creator>
     <cc:Agent>
      <dc:title>Matplotlib v3.3.2, https://matplotlib.org/</dc:title>
     </cc:Agent>
    </dc:creator>
   </cc:Work>
  </rdf:RDF>
 </metadata>
 <defs>
  <style type="text/css">*{stroke-linecap:butt;stroke-linejoin:round;}</style>
 </defs>
 <g id="figure_1">
  <g id="patch_1">
   <path d="M 0 360 
L 720 360 
L 720 0 
L 0 0 
z
" style="fill:#ffffff;"/>
  </g>
  <g id="axes_1">
   <g id="patch_2">
    <path d="M 90 315 
L 648 315 
L 648 43.2 
L 90 43.2 
z
" style="fill:#ffffff;"/>
   </g>
   <g id="PolyCollection_1">
    <defs>
     <path d="M 90 -59.696878 
L 90 -111.062794 
L 91.655786 -109.11347 
L 93.311573 -108.319293 
L 94.967359 -107.915422 
L 96.623145 -106.505637 
L 98.278932 -109.034422 
L 99.934718 -105.488088 
L 101.590504 -105.183238 
L 103.246291 -107.511072 
L 104.902077 -107.545239 
L 106.557864 -104.392257 
L 108.21365 -105.125748 
L 109.869436 -105.568477 
L 111.525223 -101.495228 
L 113.181009 -105.081366 
L 114.836795 -102.946176 
L 116.492582 -106.402247 
L 118.148368 -107.048788 
L 119.804154 -104.476735 
L 121.459941 -107.952986 
L 123.115727 -106.406326 
L 124.771513 -106.76888 
L 126.4273 -110.274388 
L 128.083086 -112.021304 
L 129.738872 -113.024354 
L 131.394659 -116.844294 
L 133.050445 -113.394763 
L 134.706231 -118.109782 
L 136.362018 -122.735788 
L 138.017804 -123.099724 
L 139.673591 -123.133205 
L 141.329377 -130.967386 
L 142.985163 -132.532896 
L 144.64095 -136.762995 
L 146.296736 -136.159975 
L 147.952522 -141.169349 
L 149.608309 -143.217935 
L 151.264095 -153.06973 
L 152.919881 -154.523978 
L 154.575668 -160.983631 
L 156.231454 -160.005101 
L 157.88724 -161.1959 
L 159.543027 -168.837249 
L 161.198813 -169.636514 
L 162.854599 -176.403965 
L 164.510386 -181.02383 
L 166.166172 -183.713571 
L 167.821958 -195.29182 
L 169.477745 -199.221119 
L 171.133531 -205.46316 
L 172.789318 -207.866954 
L 174.445104 -209.06377 
L 176.10089 -221.808076 
L 177.756677 -225.144442 
L 179.412463 -222.125565 
L 181.068249 -227.533964 
L 182.724036 -242.391463 
L 184.379822 -245.712588 
L 186.035608 -251.547302 
L 187.691395 -254.864315 
L 189.347181 -254.368908 
L 191.002967 -263.586182 
L 192.658754 -266.813151 
L 194.31454 -268.723453 
L 195.970326 -266.128644 
L 197.626113 -273.419618 
L 199.281899 -279.545199 
L 200.937685 -283.078973 
L 202.593472 -276.623705 
L 204.249258 -283.54269 
L 205.905045 -284.22457 
L 207.560831 -287.297193 
L 209.216617 -291.865042 
L 210.872404 -288.538995 
L 212.52819 -293.33227 
L 214.183976 -296.450595 
L 215.839763 -293.915328 
L 217.495549 -294.848091 
L 219.151335 -300.361768 
L 220.807122 -304.445455 
L 222.462908 -303.35819 
L 224.118694 -294.657616 
L 225.774481 -290.729157 
L 227.430267 -289.298759 
L 229.086053 -289.340224 
L 230.74184 -289.025109 
L 232.397626 -278.778908 
L 234.053412 -282.754734 
L 235.709199 -276.802589 
L 237.364985 -266.634849 
L 239.020772 -267.880382 
L 240.676558 -253.27648 
L 242.332344 -248.242409 
L 243.988131 -238.252737 
L 245.643917 -237.151233 
L 247.299703 -225.09455 
L 248.95549 -222.456493 
L 250.611276 -213.684741 
L 252.267062 -202.721657 
L 253.922849 -202.597905 
L 255.578635 -191.749906 
L 257.234421 -189.15967 
L 258.890208 -180.215218 
L 260.545994 -174.937792 
L 262.20178 -168.506338 
L 263.857567 -166.682564 
L 265.513353 -162.061 
L 267.169139 -157.685641 
L 268.824926 -155.303515 
L 270.480712 -153.838569 
L 272.136499 -151.819633 
L 273.792285 -150.522959 
L 275.448071 -152.268989 
L 277.103858 -149.315154 
L 278.759644 -150.992755 
L 280.41543 -152.352853 
L 282.071217 -152.797507 
L 283.727003 -155.170486 
L 285.382789 -159.520293 
L 287.038576 -162.933586 
L 288.694362 -162.263264 
L 290.350148 -164.659943 
L 292.005935 -166.309167 
L 293.661721 -167.610181 
L 295.317507 -172.041387 
L 296.973294 -176.883994 
L 298.62908 -178.350001 
L 300.284866 -181.757793 
L 301.940653 -185.964885 
L 303.596439 -184.345485 
L 305.252226 -191.61737 
L 306.908012 -193.301764 
L 308.563798 -195.634671 
L 310.219585 -202.519323 
L 311.875371 -208.209295 
L 313.531157 -208.748522 
L 315.186944 -208.950393 
L 316.84273 -217.231164 
L 318.498516 -214.404224 
L 320.154303 -213.857154 
L 321.810089 -214.209847 
L 323.465875 -214.067059 
L 325.121662 -213.391729 
L 326.777448 -213.576052 
L 328.433234 -212.461236 
L 330.089021 -218.30295 
L 331.744807 -221.003751 
L 333.400593 -217.091324 
L 335.05638 -222.421239 
L 336.712166 -225.8286 
L 338.367953 -231.866494 
L 340.023739 -231.854721 
L 341.679525 -235.468463 
L 343.335312 -237.118357 
L 344.991098 -243.321947 
L 346.646884 -243.701558 
L 348.302671 -249.150778 
L 349.958457 -251.207243 
L 351.614243 -249.116031 
L 353.27003 -249.900144 
L 354.925816 -254.698815 
L 356.581602 -249.517598 
L 358.237389 -250.757604 
L 359.893175 -241.304375 
L 361.548961 -237.02439 
L 363.204748 -231.089729 
L 364.860534 -226.81232 
L 366.51632 -217.296168 
L 368.172107 -211.605218 
L 369.827893 -199.890618 
L 371.48368 -193.417181 
L 373.139466 -184.808197 
L 374.795252 -176.276886 
L 376.451039 -169.016728 
L 378.106825 -161.253695 
L 379.762611 -153.436488 
L 381.418398 -147.660418 
L 383.074184 -139.445991 
L 384.72997 -132.745747 
L 386.385757 -127.646051 
L 388.041543 -120.15395 
L 389.697329 -117.667134 
L 391.353116 -111.459063 
L 393.008902 -105.752719 
L 394.664688 -100.766345 
L 396.320475 -99.380598 
L 397.976261 -95.01139 
L 399.632047 -93.107466 
L 401.287834 -92.449016 
L 402.94362 -89.281512 
L 404.599407 -88.011583 
L 406.255193 -89.713041 
L 407.910979 -87.458112 
L 409.566766 -86.965356 
L 411.222552 -86.485305 
L 412.878338 -87.193522 
L 414.534125 -87.886342 
L 416.189911 -89.051861 
L 417.845697 -91.308758 
L 419.501484 -87.687295 
L 421.15727 -91.346292 
L 422.813056 -90.639155 
L 424.468843 -93.023627 
L 426.124629 -98.04255 
L 427.780415 -97.942538 
L 429.436202 -98.930748 
L 431.091988 -103.246182 
L 432.747774 -107.154762 
L 434.403561 -108.459745 
L 436.059347 -111.529215 
L 437.715134 -112.420867 
L 439.37092 -117.47833 
L 441.026706 -119.718562 
L 442.682493 -122.807849 
L 444.338279 -127.58803 
L 445.994065 -132.980553 
L 447.649852 -135.264115 
L 449.305638 -139.79794 
L 450.961424 -147.319119 
L 452.617211 -150.091122 
L 454.272997 -157.69875 
L 455.928783 -163.387431 
L 457.58457 -172.091142 
L 459.240356 -177.900208 
L 460.896142 -186.184151 
L 462.551929 -191.758038 
L 464.207715 -190.400685 
L 465.863501 -200.075602 
L 467.519288 -215.979086 
L 469.175074 -216.626456 
L 470.830861 -223.686152 
L 472.486647 -226.815923 
L 474.142433 -238.768563 
L 475.79822 -244.82338 
L 477.454006 -247.702278 
L 479.109792 -241.799067 
L 480.765579 -245.74266 
L 482.421365 -247.626284 
L 484.077151 -247.919846 
L 485.732938 -248.946126 
L 487.388724 -252.858485 
L 489.04451 -247.928189 
L 490.700297 -251.611979 
L 492.356083 -251.237361 
L 494.011869 -245.260947 
L 495.667656 -243.127429 
L 497.323442 -243.965431 
L 498.979228 -242.60104 
L 500.635015 -247.100813 
L 502.290801 -245.0663 
L 503.946588 -245.081063 
L 505.602374 -241.777427 
L 507.25816 -239.832003 
L 508.913947 -237.258309 
L 510.569733 -242.409711 
L 512.225519 -236.200558 
L 513.881306 -238.625741 
L 515.537092 -239.639205 
L 517.192878 -238.047927 
L 518.848665 -233.566207 
L 520.504451 -235.674863 
L 522.160237 -233.630972 
L 523.816024 -233.541948 
L 525.47181 -229.289053 
L 527.127596 -228.767694 
L 528.783383 -233.134887 
L 530.439169 -234.151711 
L 532.094955 -231.742106 
L 533.750742 -229.86657 
L 535.406528 -231.381638 
L 537.062315 -233.347883 
L 538.718101 -229.179843 
L 540.373887 -233.149338 
L 542.029674 -232.969837 
L 543.68546 -229.201548 
L 545.341246 -229.638413 
L 546.997033 -228.36345 
L 548.652819 -228.858749 
L 550.308605 -228.572325 
L 551.964392 -230.45454 
L 553.620178 -227.758708 
L 555.275964 -225.035041 
L 556.931751 -225.984614 
L 558.587537 -222.696693 
L 560.243323 -221.170482 
L 561.89911 -218.853252 
L 563.554896 -215.844852 
L 565.210682 -218.510238 
L 566.866469 -214.887745 
L 568.522255 -210.275699 
L 570.178042 -209.395523 
L 571.833828 -204.762751 
L 573.489614 -200.845439 
L 575.145401 -201.113786 
L 576.801187 -197.37747 
L 578.456973 -191.151621 
L 580.11276 -186.486529 
L 581.768546 -180.208137 
L 583.424332 -178.350371 
L 585.080119 -171.913657 
L 586.735905 -163.560171 
L 588.391691 -160.069115 
L 590.047478 -151.944073 
L 591.703264 -151.064164 
L 593.35905 -144.638914 
L 595.014837 -141.552004 
L 596.670623 -137.131555 
L 598.326409 -135.651096 
L 599.982196 -131.245382 
L 601.637982 -130.101787 
L 603.293769 -132.444667 
L 604.949555 -131.789755 
L 606.605341 -131.020475 
L 608.261128 -130.531205 
L 609.916914 -129.780101 
L 611.5727 -134.207244 
L 613.228487 -131.506965 
L 614.884273 -138.100874 
L 616.540059 -139.475934 
L 618.195846 -146.06467 
L 619.851632 -149.058857 
L 621.507418 -154.88926 
L 623.163205 -159.867218 
L 624.818991 -162.307472 
L 626.474777 -168.566518 
L 628.130564 -172.849375 
L 629.78635 -183.755067 
L 631.442136 -188.25689 
L 633.097923 -196.859097 
L 634.753709 -200.291335 
L 636.409496 -204.431558 
L 638.065282 -214.280942 
L 639.721068 -218.33381 
L 641.376855 -217.887851 
L 643.032641 -228.627064 
L 644.688427 -229.442326 
L 646.344214 -228.962576 
L 648 -230.912395 
L 649.655786 -236.752788 
L 651.311573 -229.332018 
L 652.967359 -234.156937 
L 654.623145 -245.864436 
L 656.278932 -243.045303 
L 657.934718 -245.206647 
L 659.590504 -250.091952 
L 661.246291 -244.360202 
L 661.246291 -114.957751 
L 661.246291 -114.957751 
L 659.590504 -124.245295 
L 657.934718 -126.359693 
L 656.278932 -128.653183 
L 654.623145 -135.240505 
L 652.967359 -124.445589 
L 651.311573 -124.531003 
L 649.655786 -132.963401 
L 648 -134.703057 
L 646.344214 -136.698052 
L 644.688427 -141.329662 
L 643.032641 -144.347983 
L 641.376855 -139.608855 
L 639.721068 -141.727293 
L 638.065282 -144.749834 
L 636.409496 -139.434066 
L 634.753709 -140.265414 
L 633.097923 -139.535867 
L 631.442136 -136.502118 
L 629.78635 -135.113021 
L 628.130564 -128.240333 
L 626.474777 -125.499567 
L 624.818991 -121.280707 
L 623.163205 -120.673041 
L 621.507418 -114.957014 
L 619.851632 -112.913634 
L 618.195846 -109.472446 
L 616.540059 -104.031369 
L 614.884273 -104.339281 
L 613.228487 -98.55451 
L 611.5727 -102.097829 
L 609.916914 -98.903489 
L 608.261128 -98.166351 
L 606.605341 -98.332402 
L 604.949555 -97.464635 
L 603.293769 -98.096537 
L 601.637982 -98.065664 
L 599.982196 -97.144989 
L 598.326409 -101.242049 
L 596.670623 -102.213301 
L 595.014837 -107.143191 
L 593.35905 -110.931175 
L 591.703264 -114.648334 
L 590.047478 -115.478641 
L 588.391691 -120.170451 
L 586.735905 -123.276441 
L 585.080119 -129.821365 
L 583.424332 -134.951159 
L 581.768546 -135.359762 
L 580.11276 -141.284348 
L 578.456973 -145.532547 
L 576.801187 -152.444438 
L 575.145401 -152.516584 
L 573.489614 -150.82555 
L 571.833828 -154.58001 
L 570.178042 -159.048166 
L 568.522255 -162.066626 
L 566.866469 -164.347679 
L 565.210682 -167.448325 
L 563.554896 -163.747856 
L 561.89911 -167.7196 
L 560.243323 -168.481764 
L 558.587537 -168.059123 
L 556.931751 -172.285133 
L 555.275964 -170.076672 
L 553.620178 -173.869289 
L 551.964392 -177.973048 
L 550.308605 -175.631442 
L 548.652819 -175.659212 
L 546.997033 -174.874477 
L 545.341246 -173.233638 
L 543.68546 -172.209779 
L 542.029674 -175.439917 
L 540.373887 -177.328694 
L 538.718101 -173.228315 
L 537.062315 -177.166758 
L 535.406528 -175.286113 
L 533.750742 -173.669237 
L 532.094955 -174.519818 
L 530.439169 -179.463519 
L 528.783383 -176.99017 
L 527.127596 -175.037807 
L 525.47181 -175.290271 
L 523.816024 -178.796113 
L 522.160237 -179.074949 
L 520.504451 -177.576968 
L 518.848665 -175.763085 
L 517.192878 -179.83282 
L 515.537092 -181.098971 
L 513.881306 -178.571603 
L 512.225519 -177.199516 
L 510.569733 -181.032537 
L 508.913947 -176.341231 
L 507.25816 -180.270563 
L 505.602374 -183.012178 
L 503.946588 -183.531471 
L 502.290801 -184.181431 
L 500.635015 -188.402389 
L 498.979228 -184.460896 
L 497.323442 -181.374564 
L 495.667656 -177.482304 
L 494.011869 -182.201562 
L 492.356083 -188.245828 
L 490.700297 -183.860809 
L 489.04451 -179.31324 
L 487.388724 -184.264872 
L 485.732938 -181.262855 
L 484.077151 -181.19155 
L 482.421365 -176.807134 
L 480.765579 -175.750591 
L 479.109792 -172.137153 
L 477.454006 -179.027375 
L 475.79822 -176.938094 
L 474.142433 -171.604166 
L 472.486647 -164.330565 
L 470.830861 -164.484167 
L 469.175074 -158.355295 
L 467.519288 -156.991289 
L 465.863501 -147.294596 
L 464.207715 -139.287879 
L 462.551929 -139.404675 
L 460.896142 -134.264354 
L 459.240356 -130.519628 
L 457.58457 -125.112102 
L 455.928783 -120.35436 
L 454.272997 -113.624223 
L 452.617211 -107.685133 
L 450.961424 -106.137223 
L 449.305638 -101.738212 
L 447.649852 -96.641053 
L 445.994065 -95.74933 
L 444.338279 -91.3551 
L 442.682493 -86.439226 
L 441.026706 -84.47899 
L 439.37092 -83.254949 
L 437.715134 -79.849199 
L 436.059347 -79.252449 
L 434.403561 -76.447826 
L 432.747774 -76.212621 
L 431.091988 -73.420118 
L 429.436202 -69.932458 
L 427.780415 -69.753546 
L 426.124629 -70.485166 
L 424.468843 -65.950803 
L 422.813056 -65.752632 
L 421.15727 -66.194011 
L 419.501484 -62.965283 
L 417.845697 -65.419058 
L 416.189911 -63.859141 
L 414.534125 -63.737555 
L 412.878338 -62.092937 
L 411.222552 -62.36127 
L 409.566766 -63.869552 
L 407.910979 -63.838406 
L 406.255193 -66.030534 
L 404.599407 -65.025826 
L 402.94362 -66.105819 
L 401.287834 -68.706612 
L 399.632047 -69.09623 
L 397.976261 -70.822474 
L 396.320475 -73.938042 
L 394.664688 -75.174145 
L 393.008902 -78.556667 
L 391.353116 -83.496413 
L 389.697329 -87.805779 
L 388.041543 -89.459696 
L 386.385757 -96.807391 
L 384.72997 -100.835608 
L 383.074184 -106.599652 
L 381.418398 -112.174518 
L 379.762611 -115.612147 
L 378.106825 -121.950485 
L 376.451039 -127.763526 
L 374.795252 -134.661499 
L 373.139466 -140.657518 
L 371.48368 -147.190847 
L 369.827893 -153.85888 
L 368.172107 -160.247858 
L 366.51632 -163.127703 
L 364.860534 -170.565036 
L 363.204748 -175.356645 
L 361.548961 -178.993468 
L 359.893175 -182.051239 
L 358.237389 -190.863406 
L 356.581602 -191.165663 
L 354.925816 -195.183923 
L 353.27003 -189.026399 
L 351.614243 -187.630455 
L 349.958457 -189.336952 
L 348.302671 -188.105599 
L 346.646884 -183.828065 
L 344.991098 -183.019187 
L 343.335312 -177.906505 
L 341.679525 -179.721385 
L 340.023739 -177.592425 
L 338.367953 -177.132607 
L 336.712166 -171.249695 
L 335.05638 -170.158992 
L 333.400593 -167.507921 
L 331.744807 -169.808097 
L 330.089021 -166.092214 
L 328.433234 -161.513618 
L 326.777448 -161.551559 
L 325.121662 -157.38439 
L 323.465875 -160.159132 
L 321.810089 -156.790507 
L 320.154303 -155.51172 
L 318.498516 -156.858023 
L 316.84273 -159.967552 
L 315.186944 -153.782169 
L 313.531157 -154.119934 
L 311.875371 -154.359129 
L 310.219585 -151.187513 
L 308.563798 -145.440212 
L 306.908012 -144.606143 
L 305.252226 -145.251554 
L 303.596439 -139.658774 
L 301.940653 -141.553848 
L 300.284866 -138.133355 
L 298.62908 -133.808453 
L 296.973294 -132.301452 
L 295.317507 -124.935304 
L 293.661721 -123.952238 
L 292.005935 -122.476459 
L 290.350148 -121.165007 
L 288.694362 -118.386031 
L 287.038576 -118.407958 
L 285.382789 -116.472232 
L 283.727003 -114.153095 
L 282.071217 -114.380187 
L 280.41543 -113.08333 
L 278.759644 -112.686217 
L 277.103858 -111.933922 
L 275.448071 -114.772072 
L 273.792285 -112.711094 
L 272.136499 -112.637156 
L 270.480712 -113.363518 
L 268.824926 -115.034837 
L 267.169139 -116.215707 
L 265.513353 -119.185179 
L 263.857567 -123.847164 
L 262.20178 -125.472395 
L 260.545994 -131.032092 
L 258.890208 -132.599147 
L 257.234421 -141.78963 
L 255.578635 -141.663011 
L 253.922849 -151.348324 
L 252.267062 -149.590272 
L 250.611276 -161.611 
L 248.95549 -168.572848 
L 247.299703 -169.600089 
L 245.643917 -177.454923 
L 243.988131 -178.204361 
L 242.332344 -185.187281 
L 240.676558 -187.067114 
L 239.020772 -197.442333 
L 237.364985 -191.836071 
L 235.709199 -202.262295 
L 234.053412 -205.507241 
L 232.397626 -200.989732 
L 230.74184 -209.128385 
L 229.086053 -210.547443 
L 227.430267 -212.450926 
L 225.774481 -211.317305 
L 224.118694 -210.792697 
L 222.462908 -216.901237 
L 220.807122 -216.682318 
L 219.151335 -213.3933 
L 217.495549 -212.832401 
L 215.839763 -210.352966 
L 214.183976 -212.830571 
L 212.52819 -206.142689 
L 210.872404 -202.913054 
L 209.216617 -205.226299 
L 207.560831 -204.550765 
L 205.905045 -200.618689 
L 204.249258 -198.155155 
L 202.593472 -189.670111 
L 200.937685 -199.467465 
L 199.281899 -194.416212 
L 197.626113 -190.888529 
L 195.970326 -184.44264 
L 194.31454 -187.869498 
L 192.658754 -187.216946 
L 191.002967 -184.096867 
L 189.347181 -177.005778 
L 187.691395 -174.856136 
L 186.035608 -175.49831 
L 184.379822 -170.160562 
L 182.724036 -167.401354 
L 181.068249 -153.652538 
L 179.412463 -152.376312 
L 177.756677 -156.905422 
L 176.10089 -154.872079 
L 174.445104 -144.585134 
L 172.789318 -145.87716 
L 171.133531 -141.870672 
L 169.477745 -138.759096 
L 167.821958 -136.338878 
L 166.166172 -125.17606 
L 164.510386 -124.638327 
L 162.854599 -123.140404 
L 161.198813 -116.487251 
L 159.543027 -115.204944 
L 157.88724 -108.567643 
L 156.231454 -109.160903 
L 154.575668 -111.866039 
L 152.919881 -105.626763 
L 151.264095 -103.936486 
L 149.608309 -97.381269 
L 147.952522 -96.244248 
L 146.296736 -91.860749 
L 144.64095 -93.479192 
L 142.985163 -89.247604 
L 141.329377 -88.377144 
L 139.673591 -81.59391 
L 138.017804 -83.916734 
L 136.362018 -81.41397 
L 134.706231 -79.840173 
L 133.050445 -76.259734 
L 131.394659 -79.160336 
L 129.738872 -75.468129 
L 128.083086 -77.368815 
L 126.4273 -75.533446 
L 124.771513 -72.139156 
L 123.115727 -70.998319 
L 121.459941 -71.950567 
L 119.804154 -69.801154 
L 118.148368 -71.956609 
L 116.492582 -70.579439 
L 114.836795 -67.898393 
L 113.181009 -68.294984 
L 111.525223 -64.355572 
L 109.869436 -68.561068 
L 108.21365 -66.863127 
L 106.557864 -66.47665 
L 104.902077 -66.546857 
L 103.246291 -67.065071 
L 101.590504 -63.207711 
L 99.934718 -60.024888 
L 98.278932 -61.650357 
L 96.623145 -59.290965 
L 94.967359 -60.206345 
L 93.311573 -58.378798 
L 91.655786 -57.354545 
L 90 -59.696878 
z
" id="m87722ed8e1" style="stroke:#fdcbb6;stroke-opacity:0.8;"/>
    </defs>
    <g clip-path="url(#pbae371957d)">
     <use style="fill:#fdcbb6;fill-opacity:0.8;stroke:#fdcbb6;stroke-opacity:0.8;" x="0" xlink:href="#m87722ed8e1" y="360"/>
    </g>
   </g>
   <g id="matplotlib.axis_1">
    <g id="xtick_1">
     <g id="line2d_1">
      <defs>
       <path d="M 0 0 
L 0 3.5 
" id="m97a6ad9233" style="stroke:#000000;stroke-width:0.8;"/>
      </defs>
      <g>
       <use style="stroke:#000000;stroke-width:0.8;" x="90" xlink:href="#m97a6ad9233" y="315"/>
      </g>
     </g>
    </g>
    <g id="xtick_2">
     <g id="line2d_2">
      <g>
       <use style="stroke:#000000;stroke-width:0.8;" x="101.590504" xlink:href="#m97a6ad9233" y="315"/>
      </g>
     </g>
     <g id="text_1">
      <!-- Apr -->
      <g transform="translate(92.940504 329.598437)scale(0.1 -0.1)">
       <defs>
        <path d="M 34.1875 63.1875 
L 20.796875 26.90625 
L 47.609375 26.90625 
z
M 28.609375 72.90625 
L 39.796875 72.90625 
L 67.578125 0 
L 57.328125 0 
L 50.6875 18.703125 
L 17.828125 18.703125 
L 11.1875 0 
L 0.78125 0 
z
" id="DejaVuSans-65"/>
        <path d="M 18.109375 8.203125 
L 18.109375 -20.796875 
L 9.078125 -20.796875 
L 9.078125 54.6875 
L 18.109375 54.6875 
L 18.109375 46.390625 
Q 20.953125 51.265625 25.265625 53.625 
Q 29.59375 56 35.59375 56 
Q 45.5625 56 51.78125 48.09375 
Q 58.015625 40.1875 58.015625 27.296875 
Q 58.015625 14.40625 51.78125 6.484375 
Q 45.5625 -1.421875 35.59375 -1.421875 
Q 29.59375 -1.421875 25.265625 0.953125 
Q 20.953125 3.328125 18.109375 8.203125 
z
M 48.6875 27.296875 
Q 48.6875 37.203125 44.609375 42.84375 
Q 40.53125 48.484375 33.40625 48.484375 
Q 26.265625 48.484375 22.1875 42.84375 
Q 18.109375 37.203125 18.109375 27.296875 
Q 18.109375 17.390625 22.1875 11.75 
Q 26.265625 6.109375 33.40625 6.109375 
Q 40.53125 6.109375 44.609375 11.75 
Q 48.6875 17.390625 48.6875 27.296875 
z
" id="DejaVuSans-112"/>
        <path d="M 41.109375 46.296875 
Q 39.59375 47.171875 37.8125 47.578125 
Q 36.03125 48 33.890625 48 
Q 26.265625 48 22.1875 43.046875 
Q 18.109375 38.09375 18.109375 28.8125 
L 18.109375 0 
L 9.078125 0 
L 9.078125 54.6875 
L 18.109375 54.6875 
L 18.109375 46.1875 
Q 20.953125 51.171875 25.484375 53.578125 
Q 30.03125 56 36.53125 56 
Q 37.453125 56 38.578125 55.875 
Q 39.703125 55.765625 41.0625 55.515625 
z
" id="DejaVuSans-114"/>
       </defs>
       <use xlink:href="#DejaVuSans-65"/>
       <use x="68.408203" xlink:href="#DejaVuSans-112"/>
       <use x="131.884766" xlink:href="#DejaVuSans-114"/>
      </g>
     </g>
    </g>
    <g id="xtick_3">
     <g id="line2d_3">
      <g>
       <use style="stroke:#000000;stroke-width:0.8;" x="151.264095" xlink:href="#m97a6ad9233" y="315"/>
      </g>
     </g>
     <g id="text_2">
      <!-- May -->
      <g transform="translate(140.926595 329.598437)scale(0.1 -0.1)">
       <defs>
        <path d="M 9.8125 72.90625 
L 24.515625 72.90625 
L 43.109375 23.296875 
L 61.8125 72.90625 
L 76.515625 72.90625 
L 76.515625 0 
L 66.890625 0 
L 66.890625 64.015625 
L 48.09375 14.015625 
L 38.1875 14.015625 
L 19.390625 64.015625 
L 19.390625 0 
L 9.8125 0 
z
" id="DejaVuSans-77"/>
        <path d="M 34.28125 27.484375 
Q 23.390625 27.484375 19.1875 25 
Q 14.984375 22.515625 14.984375 16.5 
Q 14.984375 11.71875 18.140625 8.90625 
Q 21.296875 6.109375 26.703125 6.109375 
Q 34.1875 6.109375 38.703125 11.40625 
Q 43.21875 16.703125 43.21875 25.484375 
L 43.21875 27.484375 
z
M 52.203125 31.203125 
L 52.203125 0 
L 43.21875 0 
L 43.21875 8.296875 
Q 40.140625 3.328125 35.546875 0.953125 
Q 30.953125 -1.421875 24.3125 -1.421875 
Q 15.921875 -1.421875 10.953125 3.296875 
Q 6 8.015625 6 15.921875 
Q 6 25.140625 12.171875 29.828125 
Q 18.359375 34.515625 30.609375 34.515625 
L 43.21875 34.515625 
L 43.21875 35.40625 
Q 43.21875 41.609375 39.140625 45 
Q 35.0625 48.390625 27.6875 48.390625 
Q 23 48.390625 18.546875 47.265625 
Q 14.109375 46.140625 10.015625 43.890625 
L 10.015625 52.203125 
Q 14.9375 54.109375 19.578125 55.046875 
Q 24.21875 56 28.609375 56 
Q 40.484375 56 46.34375 49.84375 
Q 52.203125 43.703125 52.203125 31.203125 
z
" id="DejaVuSans-97"/>
        <path d="M 32.171875 -5.078125 
Q 28.375 -14.84375 24.75 -17.8125 
Q 21.140625 -20.796875 15.09375 -20.796875 
L 7.90625 -20.796875 
L 7.90625 -13.28125 
L 13.1875 -13.28125 
Q 16.890625 -13.28125 18.9375 -11.515625 
Q 21 -9.765625 23.484375 -3.21875 
L 25.09375 0.875 
L 2.984375 54.6875 
L 12.5 54.6875 
L 29.59375 11.921875 
L 46.6875 54.6875 
L 56.203125 54.6875 
z
" id="DejaVuSans-121"/>
       </defs>
       <use xlink:href="#DejaVuSans-77"/>
       <use x="86.279297" xlink:href="#DejaVuSans-97"/>
       <use x="147.558594" xlink:href="#DejaVuSans-121"/>
      </g>
     </g>
    </g>
    <g id="xtick_4">
     <g id="line2d_4">
      <g>
       <use style="stroke:#000000;stroke-width:0.8;" x="202.593472" xlink:href="#m97a6ad9233" y="315"/>
      </g>
     </g>
     <g id="text_3">
      <!-- Jun -->
      <g transform="translate(194.780972 329.598437)scale(0.1 -0.1)">
       <defs>
        <path d="M 9.8125 72.90625 
L 19.671875 72.90625 
L 19.671875 5.078125 
Q 19.671875 -8.109375 14.671875 -14.0625 
Q 9.671875 -20.015625 -1.421875 -20.015625 
L -5.171875 -20.015625 
L -5.171875 -11.71875 
L -2.09375 -11.71875 
Q 4.4375 -11.71875 7.125 -8.046875 
Q 9.8125 -4.390625 9.8125 5.078125 
z
" id="DejaVuSans-74"/>
        <path d="M 8.5 21.578125 
L 8.5 54.6875 
L 17.484375 54.6875 
L 17.484375 21.921875 
Q 17.484375 14.15625 20.5 10.265625 
Q 23.53125 6.390625 29.59375 6.390625 
Q 36.859375 6.390625 41.078125 11.03125 
Q 45.3125 15.671875 45.3125 23.6875 
L 45.3125 54.6875 
L 54.296875 54.6875 
L 54.296875 0 
L 45.3125 0 
L 45.3125 8.40625 
Q 42.046875 3.421875 37.71875 1 
Q 33.40625 -1.421875 27.6875 -1.421875 
Q 18.265625 -1.421875 13.375 4.4375 
Q 8.5 10.296875 8.5 21.578125 
z
M 31.109375 56 
z
" id="DejaVuSans-117"/>
        <path d="M 54.890625 33.015625 
L 54.890625 0 
L 45.90625 0 
L 45.90625 32.71875 
Q 45.90625 40.484375 42.875 44.328125 
Q 39.84375 48.1875 33.796875 48.1875 
Q 26.515625 48.1875 22.3125 43.546875 
Q 18.109375 38.921875 18.109375 30.90625 
L 18.109375 0 
L 9.078125 0 
L 9.078125 54.6875 
L 18.109375 54.6875 
L 18.109375 46.1875 
Q 21.34375 51.125 25.703125 53.5625 
Q 30.078125 56 35.796875 56 
Q 45.21875 56 50.046875 50.171875 
Q 54.890625 44.34375 54.890625 33.015625 
z
" id="DejaVuSans-110"/>
       </defs>
       <use xlink:href="#DejaVuSans-74"/>
       <use x="29.492188" xlink:href="#DejaVuSans-117"/>
       <use x="92.871094" xlink:href="#DejaVuSans-110"/>
      </g>
     </g>
    </g>
    <g id="xtick_5">
     <g id="line2d_5">
      <g>
       <use style="stroke:#000000;stroke-width:0.8;" x="252.267062" xlink:href="#m97a6ad9233" y="315"/>
      </g>
     </g>
     <g id="text_4">
      <!-- Jul -->
      <g transform="translate(246.23425 329.598437)scale(0.1 -0.1)">
       <defs>
        <path d="M 9.421875 75.984375 
L 18.40625 75.984375 
L 18.40625 0 
L 9.421875 0 
z
" id="DejaVuSans-108"/>
       </defs>
       <use xlink:href="#DejaVuSans-74"/>
       <use x="29.492188" xlink:href="#DejaVuSans-117"/>
       <use x="92.871094" xlink:href="#DejaVuSans-108"/>
      </g>
     </g>
    </g>
    <g id="xtick_6">
     <g id="line2d_6">
      <g>
       <use style="stroke:#000000;stroke-width:0.8;" x="303.596439" xlink:href="#m97a6ad9233" y="315"/>
      </g>
     </g>
     <g id="text_5">
      <!-- Aug -->
      <g transform="translate(293.833158 329.598437)scale(0.1 -0.1)">
       <defs>
        <path d="M 45.40625 27.984375 
Q 45.40625 37.75 41.375 43.109375 
Q 37.359375 48.484375 30.078125 48.484375 
Q 22.859375 48.484375 18.828125 43.109375 
Q 14.796875 37.75 14.796875 27.984375 
Q 14.796875 18.265625 18.828125 12.890625 
Q 22.859375 7.515625 30.078125 7.515625 
Q 37.359375 7.515625 41.375 12.890625 
Q 45.40625 18.265625 45.40625 27.984375 
z
M 54.390625 6.78125 
Q 54.390625 -7.171875 48.1875 -13.984375 
Q 42 -20.796875 29.203125 -20.796875 
Q 24.46875 -20.796875 20.265625 -20.09375 
Q 16.0625 -19.390625 12.109375 -17.921875 
L 12.109375 -9.1875 
Q 16.0625 -11.328125 19.921875 -12.34375 
Q 23.78125 -13.375 27.78125 -13.375 
Q 36.625 -13.375 41.015625 -8.765625 
Q 45.40625 -4.15625 45.40625 5.171875 
L 45.40625 9.625 
Q 42.625 4.78125 38.28125 2.390625 
Q 33.9375 0 27.875 0 
Q 17.828125 0 11.671875 7.65625 
Q 5.515625 15.328125 5.515625 27.984375 
Q 5.515625 40.671875 11.671875 48.328125 
Q 17.828125 56 27.875 56 
Q 33.9375 56 38.28125 53.609375 
Q 42.625 51.21875 45.40625 46.390625 
L 45.40625 54.6875 
L 54.390625 54.6875 
z
" id="DejaVuSans-103"/>
       </defs>
       <use xlink:href="#DejaVuSans-65"/>
       <use x="68.408203" xlink:href="#DejaVuSans-117"/>
       <use x="131.787109" xlink:href="#DejaVuSans-103"/>
      </g>
     </g>
    </g>
    <g id="xtick_7">
     <g id="line2d_7">
      <g>
       <use style="stroke:#000000;stroke-width:0.8;" x="354.925816" xlink:href="#m97a6ad9233" y="315"/>
      </g>
     </g>
     <g id="text_6">
      <!-- Sep -->
      <g transform="translate(345.500816 329.598437)scale(0.1 -0.1)">
       <defs>
        <path d="M 53.515625 70.515625 
L 53.515625 60.890625 
Q 47.90625 63.578125 42.921875 64.890625 
Q 37.9375 66.21875 33.296875 66.21875 
Q 25.25 66.21875 20.875 63.09375 
Q 16.5 59.96875 16.5 54.203125 
Q 16.5 49.359375 19.40625 46.890625 
Q 22.3125 44.4375 30.421875 42.921875 
L 36.375 41.703125 
Q 47.40625 39.59375 52.65625 34.296875 
Q 57.90625 29 57.90625 20.125 
Q 57.90625 9.515625 50.796875 4.046875 
Q 43.703125 -1.421875 29.984375 -1.421875 
Q 24.8125 -1.421875 18.96875 -0.25 
Q 13.140625 0.921875 6.890625 3.21875 
L 6.890625 13.375 
Q 12.890625 10.015625 18.65625 8.296875 
Q 24.421875 6.59375 29.984375 6.59375 
Q 38.421875 6.59375 43.015625 9.90625 
Q 47.609375 13.234375 47.609375 19.390625 
Q 47.609375 24.75 44.3125 27.78125 
Q 41.015625 30.8125 33.5 32.328125 
L 27.484375 33.5 
Q 16.453125 35.6875 11.515625 40.375 
Q 6.59375 45.0625 6.59375 53.421875 
Q 6.59375 63.09375 13.40625 68.65625 
Q 20.21875 74.21875 32.171875 74.21875 
Q 37.3125 74.21875 42.625 73.28125 
Q 47.953125 72.359375 53.515625 70.515625 
z
" id="DejaVuSans-83"/>
        <path d="M 56.203125 29.59375 
L 56.203125 25.203125 
L 14.890625 25.203125 
Q 15.484375 15.921875 20.484375 11.0625 
Q 25.484375 6.203125 34.421875 6.203125 
Q 39.59375 6.203125 44.453125 7.46875 
Q 49.3125 8.734375 54.109375 11.28125 
L 54.109375 2.78125 
Q 49.265625 0.734375 44.1875 -0.34375 
Q 39.109375 -1.421875 33.890625 -1.421875 
Q 20.796875 -1.421875 13.15625 6.1875 
Q 5.515625 13.8125 5.515625 26.8125 
Q 5.515625 40.234375 12.765625 48.109375 
Q 20.015625 56 32.328125 56 
Q 43.359375 56 49.78125 48.890625 
Q 56.203125 41.796875 56.203125 29.59375 
z
M 47.21875 32.234375 
Q 47.125 39.59375 43.09375 43.984375 
Q 39.0625 48.390625 32.421875 48.390625 
Q 24.90625 48.390625 20.390625 44.140625 
Q 15.875 39.890625 15.1875 32.171875 
z
" id="DejaVuSans-101"/>
       </defs>
       <use xlink:href="#DejaVuSans-83"/>
       <use x="63.476562" xlink:href="#DejaVuSans-101"/>
       <use x="125" xlink:href="#DejaVuSans-112"/>
      </g>
     </g>
    </g>
    <g id="xtick_8">
     <g id="line2d_8">
      <g>
       <use style="stroke:#000000;stroke-width:0.8;" x="404.599407" xlink:href="#m97a6ad9233" y="315"/>
      </g>
     </g>
     <g id="text_7">
      <!-- Oct -->
      <g transform="translate(395.954094 329.598437)scale(0.1 -0.1)">
       <defs>
        <path d="M 39.40625 66.21875 
Q 28.65625 66.21875 22.328125 58.203125 
Q 16.015625 50.203125 16.015625 36.375 
Q 16.015625 22.609375 22.328125 14.59375 
Q 28.65625 6.59375 39.40625 6.59375 
Q 50.140625 6.59375 56.421875 14.59375 
Q 62.703125 22.609375 62.703125 36.375 
Q 62.703125 50.203125 56.421875 58.203125 
Q 50.140625 66.21875 39.40625 66.21875 
z
M 39.40625 74.21875 
Q 54.734375 74.21875 63.90625 63.9375 
Q 73.09375 53.65625 73.09375 36.375 
Q 73.09375 19.140625 63.90625 8.859375 
Q 54.734375 -1.421875 39.40625 -1.421875 
Q 24.03125 -1.421875 14.8125 8.828125 
Q 5.609375 19.09375 5.609375 36.375 
Q 5.609375 53.65625 14.8125 63.9375 
Q 24.03125 74.21875 39.40625 74.21875 
z
" id="DejaVuSans-79"/>
        <path d="M 48.78125 52.59375 
L 48.78125 44.1875 
Q 44.96875 46.296875 41.140625 47.34375 
Q 37.3125 48.390625 33.40625 48.390625 
Q 24.65625 48.390625 19.8125 42.84375 
Q 14.984375 37.3125 14.984375 27.296875 
Q 14.984375 17.28125 19.8125 11.734375 
Q 24.65625 6.203125 33.40625 6.203125 
Q 37.3125 6.203125 41.140625 7.25 
Q 44.96875 8.296875 48.78125 10.40625 
L 48.78125 2.09375 
Q 45.015625 0.34375 40.984375 -0.53125 
Q 36.96875 -1.421875 32.421875 -1.421875 
Q 20.0625 -1.421875 12.78125 6.34375 
Q 5.515625 14.109375 5.515625 27.296875 
Q 5.515625 40.671875 12.859375 48.328125 
Q 20.21875 56 33.015625 56 
Q 37.15625 56 41.109375 55.140625 
Q 45.0625 54.296875 48.78125 52.59375 
z
" id="DejaVuSans-99"/>
        <path d="M 18.3125 70.21875 
L 18.3125 54.6875 
L 36.8125 54.6875 
L 36.8125 47.703125 
L 18.3125 47.703125 
L 18.3125 18.015625 
Q 18.3125 11.328125 20.140625 9.421875 
Q 21.96875 7.515625 27.59375 7.515625 
L 36.8125 7.515625 
L 36.8125 0 
L 27.59375 0 
Q 17.1875 0 13.234375 3.875 
Q 9.28125 7.765625 9.28125 18.015625 
L 9.28125 47.703125 
L 2.6875 47.703125 
L 2.6875 54.6875 
L 9.28125 54.6875 
L 9.28125 70.21875 
z
" id="DejaVuSans-116"/>
       </defs>
       <use xlink:href="#DejaVuSans-79"/>
       <use x="78.710938" xlink:href="#DejaVuSans-99"/>
       <use x="133.691406" xlink:href="#DejaVuSans-116"/>
      </g>
     </g>
    </g>
    <g id="xtick_9">
     <g id="line2d_9">
      <g>
       <use style="stroke:#000000;stroke-width:0.8;" x="455.928783" xlink:href="#m97a6ad9233" y="315"/>
      </g>
     </g>
     <g id="text_8">
      <!-- Nov -->
      <g transform="translate(446.169408 329.598437)scale(0.1 -0.1)">
       <defs>
        <path d="M 9.8125 72.90625 
L 23.09375 72.90625 
L 55.421875 11.921875 
L 55.421875 72.90625 
L 64.984375 72.90625 
L 64.984375 0 
L 51.703125 0 
L 19.390625 60.984375 
L 19.390625 0 
L 9.8125 0 
z
" id="DejaVuSans-78"/>
        <path d="M 30.609375 48.390625 
Q 23.390625 48.390625 19.1875 42.75 
Q 14.984375 37.109375 14.984375 27.296875 
Q 14.984375 17.484375 19.15625 11.84375 
Q 23.34375 6.203125 30.609375 6.203125 
Q 37.796875 6.203125 41.984375 11.859375 
Q 46.1875 17.53125 46.1875 27.296875 
Q 46.1875 37.015625 41.984375 42.703125 
Q 37.796875 48.390625 30.609375 48.390625 
z
M 30.609375 56 
Q 42.328125 56 49.015625 48.375 
Q 55.71875 40.765625 55.71875 27.296875 
Q 55.71875 13.875 49.015625 6.21875 
Q 42.328125 -1.421875 30.609375 -1.421875 
Q 18.84375 -1.421875 12.171875 6.21875 
Q 5.515625 13.875 5.515625 27.296875 
Q 5.515625 40.765625 12.171875 48.375 
Q 18.84375 56 30.609375 56 
z
" id="DejaVuSans-111"/>
        <path d="M 2.984375 54.6875 
L 12.5 54.6875 
L 29.59375 8.796875 
L 46.6875 54.6875 
L 56.203125 54.6875 
L 35.6875 0 
L 23.484375 0 
z
" id="DejaVuSans-118"/>
       </defs>
       <use xlink:href="#DejaVuSans-78"/>
       <use x="74.804688" xlink:href="#DejaVuSans-111"/>
       <use x="135.986328" xlink:href="#DejaVuSans-118"/>
      </g>
     </g>
    </g>
    <g id="xtick_10">
     <g id="line2d_10">
      <g>
       <use style="stroke:#000000;stroke-width:0.8;" x="505.602374" xlink:href="#m97a6ad9233" y="315"/>
      </g>
     </g>
     <g id="text_9">
      <!-- Dec -->
      <g transform="translate(495.926593 329.598437)scale(0.1 -0.1)">
       <defs>
        <path d="M 19.671875 64.796875 
L 19.671875 8.109375 
L 31.59375 8.109375 
Q 46.6875 8.109375 53.6875 14.9375 
Q 60.6875 21.78125 60.6875 36.53125 
Q 60.6875 51.171875 53.6875 57.984375 
Q 46.6875 64.796875 31.59375 64.796875 
z
M 9.8125 72.90625 
L 30.078125 72.90625 
Q 51.265625 72.90625 61.171875 64.09375 
Q 71.09375 55.28125 71.09375 36.53125 
Q 71.09375 17.671875 61.125 8.828125 
Q 51.171875 0 30.078125 0 
L 9.8125 0 
z
" id="DejaVuSans-68"/>
       </defs>
       <use xlink:href="#DejaVuSans-68"/>
       <use x="77.001953" xlink:href="#DejaVuSans-101"/>
       <use x="138.525391" xlink:href="#DejaVuSans-99"/>
      </g>
     </g>
    </g>
    <g id="xtick_11">
     <g id="line2d_11">
      <g>
       <use style="stroke:#000000;stroke-width:0.8;" x="556.931751" xlink:href="#m97a6ad9233" y="315"/>
      </g>
     </g>
     <g id="text_10">
      <!-- Jan -->
      <g transform="translate(549.223938 329.598437)scale(0.1 -0.1)">
       <use xlink:href="#DejaVuSans-74"/>
       <use x="29.492188" xlink:href="#DejaVuSans-97"/>
       <use x="90.771484" xlink:href="#DejaVuSans-110"/>
      </g>
      <!-- 2021 -->
      <g transform="translate(544.206751 340.79625)scale(0.1 -0.1)">
       <defs>
        <path d="M 19.1875 8.296875 
L 53.609375 8.296875 
L 53.609375 0 
L 7.328125 0 
L 7.328125 8.296875 
Q 12.9375 14.109375 22.625 23.890625 
Q 32.328125 33.6875 34.8125 36.53125 
Q 39.546875 41.84375 41.421875 45.53125 
Q 43.3125 49.21875 43.3125 52.78125 
Q 43.3125 58.59375 39.234375 62.25 
Q 35.15625 65.921875 28.609375 65.921875 
Q 23.96875 65.921875 18.8125 64.3125 
Q 13.671875 62.703125 7.8125 59.421875 
L 7.8125 69.390625 
Q 13.765625 71.78125 18.9375 73 
Q 24.125 74.21875 28.421875 74.21875 
Q 39.75 74.21875 46.484375 68.546875 
Q 53.21875 62.890625 53.21875 53.421875 
Q 53.21875 48.921875 51.53125 44.890625 
Q 49.859375 40.875 45.40625 35.40625 
Q 44.1875 33.984375 37.640625 27.21875 
Q 31.109375 20.453125 19.1875 8.296875 
z
" id="DejaVuSans-50"/>
        <path d="M 31.78125 66.40625 
Q 24.171875 66.40625 20.328125 58.90625 
Q 16.5 51.421875 16.5 36.375 
Q 16.5 21.390625 20.328125 13.890625 
Q 24.171875 6.390625 31.78125 6.390625 
Q 39.453125 6.390625 43.28125 13.890625 
Q 47.125 21.390625 47.125 36.375 
Q 47.125 51.421875 43.28125 58.90625 
Q 39.453125 66.40625 31.78125 66.40625 
z
M 31.78125 74.21875 
Q 44.046875 74.21875 50.515625 64.515625 
Q 56.984375 54.828125 56.984375 36.375 
Q 56.984375 17.96875 50.515625 8.265625 
Q 44.046875 -1.421875 31.78125 -1.421875 
Q 19.53125 -1.421875 13.0625 8.265625 
Q 6.59375 17.96875 6.59375 36.375 
Q 6.59375 54.828125 13.0625 64.515625 
Q 19.53125 74.21875 31.78125 74.21875 
z
" id="DejaVuSans-48"/>
        <path d="M 12.40625 8.296875 
L 28.515625 8.296875 
L 28.515625 63.921875 
L 10.984375 60.40625 
L 10.984375 69.390625 
L 28.421875 72.90625 
L 38.28125 72.90625 
L 38.28125 8.296875 
L 54.390625 8.296875 
L 54.390625 0 
L 12.40625 0 
z
" id="DejaVuSans-49"/>
       </defs>
       <use xlink:href="#DejaVuSans-50"/>
       <use x="63.623047" xlink:href="#DejaVuSans-48"/>
       <use x="127.246094" xlink:href="#DejaVuSans-50"/>
       <use x="190.869141" xlink:href="#DejaVuSans-49"/>
      </g>
     </g>
    </g>
    <g id="xtick_12">
     <g id="line2d_12">
      <g>
       <use style="stroke:#000000;stroke-width:0.8;" x="608.261128" xlink:href="#m97a6ad9233" y="315"/>
      </g>
     </g>
     <g id="text_11">
      <!-- Feb -->
      <g transform="translate(599.409565 329.598437)scale(0.1 -0.1)">
       <defs>
        <path d="M 9.8125 72.90625 
L 51.703125 72.90625 
L 51.703125 64.59375 
L 19.671875 64.59375 
L 19.671875 43.109375 
L 48.578125 43.109375 
L 48.578125 34.8125 
L 19.671875 34.8125 
L 19.671875 0 
L 9.8125 0 
z
" id="DejaVuSans-70"/>
        <path d="M 48.6875 27.296875 
Q 48.6875 37.203125 44.609375 42.84375 
Q 40.53125 48.484375 33.40625 48.484375 
Q 26.265625 48.484375 22.1875 42.84375 
Q 18.109375 37.203125 18.109375 27.296875 
Q 18.109375 17.390625 22.1875 11.75 
Q 26.265625 6.109375 33.40625 6.109375 
Q 40.53125 6.109375 44.609375 11.75 
Q 48.6875 17.390625 48.6875 27.296875 
z
M 18.109375 46.390625 
Q 20.953125 51.265625 25.265625 53.625 
Q 29.59375 56 35.59375 56 
Q 45.5625 56 51.78125 48.09375 
Q 58.015625 40.1875 58.015625 27.296875 
Q 58.015625 14.40625 51.78125 6.484375 
Q 45.5625 -1.421875 35.59375 -1.421875 
Q 29.59375 -1.421875 25.265625 0.953125 
Q 20.953125 3.328125 18.109375 8.203125 
L 18.109375 0 
L 9.078125 0 
L 9.078125 75.984375 
L 18.109375 75.984375 
z
" id="DejaVuSans-98"/>
       </defs>
       <use xlink:href="#DejaVuSans-70"/>
       <use x="52.019531" xlink:href="#DejaVuSans-101"/>
       <use x="113.542969" xlink:href="#DejaVuSans-98"/>
      </g>
     </g>
    </g>
    <g id="xtick_13">
     <g id="line2d_13">
      <g>
       <use style="stroke:#000000;stroke-width:0.8;" x="648" xlink:href="#m97a6ad9233" y="315"/>
      </g>
     </g>
    </g>
    <g id="xtick_14">
     <g id="line2d_14">
      <defs>
       <path d="M 0 0 
L 0 2 
" id="m3db87cd017" style="stroke:#000000;stroke-width:0.6;"/>
      </defs>
      <g>
       <use style="stroke:#000000;stroke-width:0.6;" x="98.278932" xlink:href="#m3db87cd017" y="315"/>
      </g>
     </g>
    </g>
    <g id="xtick_15">
     <g id="line2d_15">
      <g>
       <use style="stroke:#000000;stroke-width:0.6;" x="109.869436" xlink:href="#m3db87cd017" y="315"/>
      </g>
     </g>
    </g>
    <g id="xtick_16">
     <g id="line2d_16">
      <g>
       <use style="stroke:#000000;stroke-width:0.6;" x="121.459941" xlink:href="#m3db87cd017" y="315"/>
      </g>
     </g>
    </g>
    <g id="xtick_17">
     <g id="line2d_17">
      <g>
       <use style="stroke:#000000;stroke-width:0.6;" x="133.050445" xlink:href="#m3db87cd017" y="315"/>
      </g>
     </g>
    </g>
    <g id="xtick_18">
     <g id="line2d_18">
      <g>
       <use style="stroke:#000000;stroke-width:0.6;" x="144.64095" xlink:href="#m3db87cd017" y="315"/>
      </g>
     </g>
    </g>
    <g id="xtick_19">
     <g id="line2d_19">
      <g>
       <use style="stroke:#000000;stroke-width:0.6;" x="156.231454" xlink:href="#m3db87cd017" y="315"/>
      </g>
     </g>
    </g>
    <g id="xtick_20">
     <g id="line2d_20">
      <g>
       <use style="stroke:#000000;stroke-width:0.6;" x="167.821958" xlink:href="#m3db87cd017" y="315"/>
      </g>
     </g>
    </g>
    <g id="xtick_21">
     <g id="line2d_21">
      <g>
       <use style="stroke:#000000;stroke-width:0.6;" x="179.412463" xlink:href="#m3db87cd017" y="315"/>
      </g>
     </g>
    </g>
    <g id="xtick_22">
     <g id="line2d_22">
      <g>
       <use style="stroke:#000000;stroke-width:0.6;" x="191.002967" xlink:href="#m3db87cd017" y="315"/>
      </g>
     </g>
    </g>
    <g id="xtick_23">
     <g id="line2d_23">
      <g>
       <use style="stroke:#000000;stroke-width:0.6;" x="214.183976" xlink:href="#m3db87cd017" y="315"/>
      </g>
     </g>
    </g>
    <g id="xtick_24">
     <g id="line2d_24">
      <g>
       <use style="stroke:#000000;stroke-width:0.6;" x="225.774481" xlink:href="#m3db87cd017" y="315"/>
      </g>
     </g>
    </g>
    <g id="xtick_25">
     <g id="line2d_25">
      <g>
       <use style="stroke:#000000;stroke-width:0.6;" x="237.364985" xlink:href="#m3db87cd017" y="315"/>
      </g>
     </g>
    </g>
    <g id="xtick_26">
     <g id="line2d_26">
      <g>
       <use style="stroke:#000000;stroke-width:0.6;" x="248.95549" xlink:href="#m3db87cd017" y="315"/>
      </g>
     </g>
    </g>
    <g id="xtick_27">
     <g id="line2d_27">
      <g>
       <use style="stroke:#000000;stroke-width:0.6;" x="260.545994" xlink:href="#m3db87cd017" y="315"/>
      </g>
     </g>
    </g>
    <g id="xtick_28">
     <g id="line2d_28">
      <g>
       <use style="stroke:#000000;stroke-width:0.6;" x="272.136499" xlink:href="#m3db87cd017" y="315"/>
      </g>
     </g>
    </g>
    <g id="xtick_29">
     <g id="line2d_29">
      <g>
       <use style="stroke:#000000;stroke-width:0.6;" x="283.727003" xlink:href="#m3db87cd017" y="315"/>
      </g>
     </g>
    </g>
    <g id="xtick_30">
     <g id="line2d_30">
      <g>
       <use style="stroke:#000000;stroke-width:0.6;" x="295.317507" xlink:href="#m3db87cd017" y="315"/>
      </g>
     </g>
    </g>
    <g id="xtick_31">
     <g id="line2d_31">
      <g>
       <use style="stroke:#000000;stroke-width:0.6;" x="306.908012" xlink:href="#m3db87cd017" y="315"/>
      </g>
     </g>
    </g>
    <g id="xtick_32">
     <g id="line2d_32">
      <g>
       <use style="stroke:#000000;stroke-width:0.6;" x="318.498516" xlink:href="#m3db87cd017" y="315"/>
      </g>
     </g>
    </g>
    <g id="xtick_33">
     <g id="line2d_33">
      <g>
       <use style="stroke:#000000;stroke-width:0.6;" x="330.089021" xlink:href="#m3db87cd017" y="315"/>
      </g>
     </g>
    </g>
    <g id="xtick_34">
     <g id="line2d_34">
      <g>
       <use style="stroke:#000000;stroke-width:0.6;" x="341.679525" xlink:href="#m3db87cd017" y="315"/>
      </g>
     </g>
    </g>
    <g id="xtick_35">
     <g id="line2d_35">
      <g>
       <use style="stroke:#000000;stroke-width:0.6;" x="353.27003" xlink:href="#m3db87cd017" y="315"/>
      </g>
     </g>
    </g>
    <g id="xtick_36">
     <g id="line2d_36">
      <g>
       <use style="stroke:#000000;stroke-width:0.6;" x="364.860534" xlink:href="#m3db87cd017" y="315"/>
      </g>
     </g>
    </g>
    <g id="xtick_37">
     <g id="line2d_37">
      <g>
       <use style="stroke:#000000;stroke-width:0.6;" x="376.451039" xlink:href="#m3db87cd017" y="315"/>
      </g>
     </g>
    </g>
    <g id="xtick_38">
     <g id="line2d_38">
      <g>
       <use style="stroke:#000000;stroke-width:0.6;" x="388.041543" xlink:href="#m3db87cd017" y="315"/>
      </g>
     </g>
    </g>
    <g id="xtick_39">
     <g id="line2d_39">
      <g>
       <use style="stroke:#000000;stroke-width:0.6;" x="399.632047" xlink:href="#m3db87cd017" y="315"/>
      </g>
     </g>
    </g>
    <g id="xtick_40">
     <g id="line2d_40">
      <g>
       <use style="stroke:#000000;stroke-width:0.6;" x="411.222552" xlink:href="#m3db87cd017" y="315"/>
      </g>
     </g>
    </g>
    <g id="xtick_41">
     <g id="line2d_41">
      <g>
       <use style="stroke:#000000;stroke-width:0.6;" x="422.813056" xlink:href="#m3db87cd017" y="315"/>
      </g>
     </g>
    </g>
    <g id="xtick_42">
     <g id="line2d_42">
      <g>
       <use style="stroke:#000000;stroke-width:0.6;" x="434.403561" xlink:href="#m3db87cd017" y="315"/>
      </g>
     </g>
    </g>
    <g id="xtick_43">
     <g id="line2d_43">
      <g>
       <use style="stroke:#000000;stroke-width:0.6;" x="445.994065" xlink:href="#m3db87cd017" y="315"/>
      </g>
     </g>
    </g>
    <g id="xtick_44">
     <g id="line2d_44">
      <g>
       <use style="stroke:#000000;stroke-width:0.6;" x="457.58457" xlink:href="#m3db87cd017" y="315"/>
      </g>
     </g>
    </g>
    <g id="xtick_45">
     <g id="line2d_45">
      <g>
       <use style="stroke:#000000;stroke-width:0.6;" x="469.175074" xlink:href="#m3db87cd017" y="315"/>
      </g>
     </g>
    </g>
    <g id="xtick_46">
     <g id="line2d_46">
      <g>
       <use style="stroke:#000000;stroke-width:0.6;" x="480.765579" xlink:href="#m3db87cd017" y="315"/>
      </g>
     </g>
    </g>
    <g id="xtick_47">
     <g id="line2d_47">
      <g>
       <use style="stroke:#000000;stroke-width:0.6;" x="492.356083" xlink:href="#m3db87cd017" y="315"/>
      </g>
     </g>
    </g>
    <g id="xtick_48">
     <g id="line2d_48">
      <g>
       <use style="stroke:#000000;stroke-width:0.6;" x="503.946588" xlink:href="#m3db87cd017" y="315"/>
      </g>
     </g>
    </g>
    <g id="xtick_49">
     <g id="line2d_49">
      <g>
       <use style="stroke:#000000;stroke-width:0.6;" x="515.537092" xlink:href="#m3db87cd017" y="315"/>
      </g>
     </g>
    </g>
    <g id="xtick_50">
     <g id="line2d_50">
      <g>
       <use style="stroke:#000000;stroke-width:0.6;" x="527.127596" xlink:href="#m3db87cd017" y="315"/>
      </g>
     </g>
    </g>
    <g id="xtick_51">
     <g id="line2d_51">
      <g>
       <use style="stroke:#000000;stroke-width:0.6;" x="538.718101" xlink:href="#m3db87cd017" y="315"/>
      </g>
     </g>
    </g>
    <g id="xtick_52">
     <g id="line2d_52">
      <g>
       <use style="stroke:#000000;stroke-width:0.6;" x="550.308605" xlink:href="#m3db87cd017" y="315"/>
      </g>
     </g>
    </g>
    <g id="xtick_53">
     <g id="line2d_53">
      <g>
       <use style="stroke:#000000;stroke-width:0.6;" x="561.89911" xlink:href="#m3db87cd017" y="315"/>
      </g>
     </g>
    </g>
    <g id="xtick_54">
     <g id="line2d_54">
      <g>
       <use style="stroke:#000000;stroke-width:0.6;" x="573.489614" xlink:href="#m3db87cd017" y="315"/>
      </g>
     </g>
    </g>
    <g id="xtick_55">
     <g id="line2d_55">
      <g>
       <use style="stroke:#000000;stroke-width:0.6;" x="585.080119" xlink:href="#m3db87cd017" y="315"/>
      </g>
     </g>
    </g>
    <g id="xtick_56">
     <g id="line2d_56">
      <g>
       <use style="stroke:#000000;stroke-width:0.6;" x="596.670623" xlink:href="#m3db87cd017" y="315"/>
      </g>
     </g>
    </g>
    <g id="xtick_57">
     <g id="line2d_57">
      <g>
       <use style="stroke:#000000;stroke-width:0.6;" x="619.851632" xlink:href="#m3db87cd017" y="315"/>
      </g>
     </g>
    </g>
    <g id="xtick_58">
     <g id="line2d_58">
      <g>
       <use style="stroke:#000000;stroke-width:0.6;" x="631.442136" xlink:href="#m3db87cd017" y="315"/>
      </g>
     </g>
    </g>
    <g id="xtick_59">
     <g id="line2d_59">
      <g>
       <use style="stroke:#000000;stroke-width:0.6;" x="643.032641" xlink:href="#m3db87cd017" y="315"/>
      </g>
     </g>
    </g>
    <g id="text_12">
     <!-- date -->
     <g transform="translate(357.725 354.474375)scale(0.1 -0.1)">
      <defs>
       <path d="M 45.40625 46.390625 
L 45.40625 75.984375 
L 54.390625 75.984375 
L 54.390625 0 
L 45.40625 0 
L 45.40625 8.203125 
Q 42.578125 3.328125 38.25 0.953125 
Q 33.9375 -1.421875 27.875 -1.421875 
Q 17.96875 -1.421875 11.734375 6.484375 
Q 5.515625 14.40625 5.515625 27.296875 
Q 5.515625 40.1875 11.734375 48.09375 
Q 17.96875 56 27.875 56 
Q 33.9375 56 38.25 53.625 
Q 42.578125 51.265625 45.40625 46.390625 
z
M 14.796875 27.296875 
Q 14.796875 17.390625 18.875 11.75 
Q 22.953125 6.109375 30.078125 6.109375 
Q 37.203125 6.109375 41.296875 11.75 
Q 45.40625 17.390625 45.40625 27.296875 
Q 45.40625 37.203125 41.296875 42.84375 
Q 37.203125 48.484375 30.078125 48.484375 
Q 22.953125 48.484375 18.875 42.84375 
Q 14.796875 37.203125 14.796875 27.296875 
z
" id="DejaVuSans-100"/>
      </defs>
      <use xlink:href="#DejaVuSans-100"/>
      <use x="63.476562" xlink:href="#DejaVuSans-97"/>
      <use x="124.755859" xlink:href="#DejaVuSans-116"/>
      <use x="163.964844" xlink:href="#DejaVuSans-101"/>
     </g>
    </g>
   </g>
   <g id="matplotlib.axis_2">
    <g id="ytick_1">
     <g id="line2d_60">
      <path clip-path="url(#pbae371957d)" d="M 90 284.091104 
L 648 284.091104 
" style="fill:none;stroke:#b0b0b0;stroke-dasharray:0.8,1.32;stroke-dashoffset:0;stroke-width:0.8;"/>
     </g>
     <g id="line2d_61">
      <defs>
       <path d="M 0 0 
L -3.5 0 
" id="m61706233c2" style="stroke:#000000;stroke-width:0.8;"/>
      </defs>
      <g>
       <use style="stroke:#000000;stroke-width:0.8;" x="90" xlink:href="#m61706233c2" y="284.091104"/>
      </g>
     </g>
     <g id="text_13">
      <!-- 0.50 -->
      <g transform="translate(60.734375 287.890323)scale(0.1 -0.1)">
       <defs>
        <path d="M 10.6875 12.40625 
L 21 12.40625 
L 21 0 
L 10.6875 0 
z
" id="DejaVuSans-46"/>
        <path d="M 10.796875 72.90625 
L 49.515625 72.90625 
L 49.515625 64.59375 
L 19.828125 64.59375 
L 19.828125 46.734375 
Q 21.96875 47.46875 24.109375 47.828125 
Q 26.265625 48.1875 28.421875 48.1875 
Q 40.625 48.1875 47.75 41.5 
Q 54.890625 34.8125 54.890625 23.390625 
Q 54.890625 11.625 47.5625 5.09375 
Q 40.234375 -1.421875 26.90625 -1.421875 
Q 22.3125 -1.421875 17.546875 -0.640625 
Q 12.796875 0.140625 7.71875 1.703125 
L 7.71875 11.625 
Q 12.109375 9.234375 16.796875 8.0625 
Q 21.484375 6.890625 26.703125 6.890625 
Q 35.15625 6.890625 40.078125 11.328125 
Q 45.015625 15.765625 45.015625 23.390625 
Q 45.015625 31 40.078125 35.4375 
Q 35.15625 39.890625 26.703125 39.890625 
Q 22.75 39.890625 18.8125 39.015625 
Q 14.890625 38.140625 10.796875 36.28125 
z
" id="DejaVuSans-53"/>
       </defs>
       <use xlink:href="#DejaVuSans-48"/>
       <use x="63.623047" xlink:href="#DejaVuSans-46"/>
       <use x="95.410156" xlink:href="#DejaVuSans-53"/>
       <use x="159.033203" xlink:href="#DejaVuSans-48"/>
      </g>
     </g>
    </g>
    <g id="ytick_2">
     <g id="line2d_62">
      <path clip-path="url(#pbae371957d)" d="M 90 246.706676 
L 648 246.706676 
" style="fill:none;stroke:#b0b0b0;stroke-dasharray:0.8,1.32;stroke-dashoffset:0;stroke-width:0.8;"/>
     </g>
     <g id="line2d_63">
      <g>
       <use style="stroke:#000000;stroke-width:0.8;" x="90" xlink:href="#m61706233c2" y="246.706676"/>
      </g>
     </g>
     <g id="text_14">
      <!-- 0.75 -->
      <g transform="translate(60.734375 250.505895)scale(0.1 -0.1)">
       <defs>
        <path d="M 8.203125 72.90625 
L 55.078125 72.90625 
L 55.078125 68.703125 
L 28.609375 0 
L 18.3125 0 
L 43.21875 64.59375 
L 8.203125 64.59375 
z
" id="DejaVuSans-55"/>
       </defs>
       <use xlink:href="#DejaVuSans-48"/>
       <use x="63.623047" xlink:href="#DejaVuSans-46"/>
       <use x="95.410156" xlink:href="#DejaVuSans-55"/>
       <use x="159.033203" xlink:href="#DejaVuSans-53"/>
      </g>
     </g>
    </g>
    <g id="ytick_3">
     <g id="line2d_64">
      <path clip-path="url(#pbae371957d)" d="M 90 209.322248 
L 648 209.322248 
" style="fill:none;stroke:#b0b0b0;stroke-dasharray:0.8,1.32;stroke-dashoffset:0;stroke-width:0.8;"/>
     </g>
     <g id="line2d_65">
      <g>
       <use style="stroke:#000000;stroke-width:0.8;" x="90" xlink:href="#m61706233c2" y="209.322248"/>
      </g>
     </g>
     <g id="text_15">
      <!-- 1.00 -->
      <g transform="translate(60.734375 213.121467)scale(0.1 -0.1)">
       <use xlink:href="#DejaVuSans-49"/>
       <use x="63.623047" xlink:href="#DejaVuSans-46"/>
       <use x="95.410156" xlink:href="#DejaVuSans-48"/>
       <use x="159.033203" xlink:href="#DejaVuSans-48"/>
      </g>
     </g>
    </g>
    <g id="ytick_4">
     <g id="line2d_66">
      <path clip-path="url(#pbae371957d)" d="M 90 171.93782 
L 648 171.93782 
" style="fill:none;stroke:#b0b0b0;stroke-dasharray:0.8,1.32;stroke-dashoffset:0;stroke-width:0.8;"/>
     </g>
     <g id="line2d_67">
      <g>
       <use style="stroke:#000000;stroke-width:0.8;" x="90" xlink:href="#m61706233c2" y="171.93782"/>
      </g>
     </g>
     <g id="text_16">
      <!-- 1.25 -->
      <g transform="translate(60.734375 175.737038)scale(0.1 -0.1)">
       <use xlink:href="#DejaVuSans-49"/>
       <use x="63.623047" xlink:href="#DejaVuSans-46"/>
       <use x="95.410156" xlink:href="#DejaVuSans-50"/>
       <use x="159.033203" xlink:href="#DejaVuSans-53"/>
      </g>
     </g>
    </g>
    <g id="ytick_5">
     <g id="line2d_68">
      <path clip-path="url(#pbae371957d)" d="M 90 134.553391 
L 648 134.553391 
" style="fill:none;stroke:#b0b0b0;stroke-dasharray:0.8,1.32;stroke-dashoffset:0;stroke-width:0.8;"/>
     </g>
     <g id="line2d_69">
      <g>
       <use style="stroke:#000000;stroke-width:0.8;" x="90" xlink:href="#m61706233c2" y="134.553391"/>
      </g>
     </g>
     <g id="text_17">
      <!-- 1.50 -->
      <g transform="translate(60.734375 138.35261)scale(0.1 -0.1)">
       <use xlink:href="#DejaVuSans-49"/>
       <use x="63.623047" xlink:href="#DejaVuSans-46"/>
       <use x="95.410156" xlink:href="#DejaVuSans-53"/>
       <use x="159.033203" xlink:href="#DejaVuSans-48"/>
      </g>
     </g>
    </g>
    <g id="ytick_6">
     <g id="line2d_70">
      <path clip-path="url(#pbae371957d)" d="M 90 97.168963 
L 648 97.168963 
" style="fill:none;stroke:#b0b0b0;stroke-dasharray:0.8,1.32;stroke-dashoffset:0;stroke-width:0.8;"/>
     </g>
     <g id="line2d_71">
      <g>
       <use style="stroke:#000000;stroke-width:0.8;" x="90" xlink:href="#m61706233c2" y="97.168963"/>
      </g>
     </g>
     <g id="text_18">
      <!-- 1.75 -->
      <g transform="translate(60.734375 100.968182)scale(0.1 -0.1)">
       <use xlink:href="#DejaVuSans-49"/>
       <use x="63.623047" xlink:href="#DejaVuSans-46"/>
       <use x="95.410156" xlink:href="#DejaVuSans-55"/>
       <use x="159.033203" xlink:href="#DejaVuSans-53"/>
      </g>
     </g>
    </g>
    <g id="ytick_7">
     <g id="line2d_72">
      <path clip-path="url(#pbae371957d)" d="M 90 59.784535 
L 648 59.784535 
" style="fill:none;stroke:#b0b0b0;stroke-dasharray:0.8,1.32;stroke-dashoffset:0;stroke-width:0.8;"/>
     </g>
     <g id="line2d_73">
      <g>
       <use style="stroke:#000000;stroke-width:0.8;" x="90" xlink:href="#m61706233c2" y="59.784535"/>
      </g>
     </g>
     <g id="text_19">
      <!-- 2.00 -->
      <g transform="translate(60.734375 63.583754)scale(0.1 -0.1)">
       <use xlink:href="#DejaVuSans-50"/>
       <use x="63.623047" xlink:href="#DejaVuSans-46"/>
       <use x="95.410156" xlink:href="#DejaVuSans-48"/>
       <use x="159.033203" xlink:href="#DejaVuSans-48"/>
      </g>
     </g>
    </g>
   </g>
   <g id="line2d_74">
    <path clip-path="url(#pbae371957d)" d="M 90 276.264836 
L 93.311573 275.343257 
L 94.967359 274.744674 
L 96.623145 275.109961 
L 98.278932 274.643481 
L 99.934718 274.470776 
L 101.590504 274.442909 
L 103.246291 274.851113 
L 104.902077 274.07775 
L 106.557864 274.069161 
L 108.21365 273.941421 
L 109.869436 273.012101 
L 111.525223 273.136844 
L 113.181009 272.91034 
L 114.836795 272.148365 
L 116.492582 271.68966 
L 118.148368 271.371596 
L 119.804154 272.323451 
L 121.459941 270.731481 
L 123.115727 269.820283 
L 124.771513 268.598475 
L 126.4273 267.96851 
L 128.083086 266.099 
L 129.738872 265.269263 
L 131.394659 263.294218 
L 133.050445 262.213938 
L 134.706231 260.127104 
L 136.362018 258.280922 
L 138.017804 255.915164 
L 139.673591 253.806756 
L 141.329377 250.927094 
L 142.985163 247.615501 
L 144.64095 245.244769 
L 146.296736 242.584195 
L 147.952522 240.528746 
L 149.608309 237.821205 
L 152.919881 230.357246 
L 154.575668 228.006 
L 156.231454 224.004204 
L 157.88724 221.207141 
L 159.543027 216.831375 
L 164.510386 207.072442 
L 166.166172 203.112307 
L 167.821958 198.677069 
L 169.477745 193.141891 
L 171.133531 190.385335 
L 172.789318 185.862815 
L 174.445104 180.548241 
L 176.10089 175.981247 
L 177.756677 170.799227 
L 179.412463 167.766693 
L 181.068249 163.088951 
L 182.724036 157.975151 
L 184.379822 155.091509 
L 186.035608 150.87838 
L 187.691395 145.865969 
L 189.347181 143.246015 
L 191.002967 138.812932 
L 192.658754 135.416462 
L 194.31454 131.355964 
L 195.970326 129.233316 
L 197.626113 128.313112 
L 199.281899 124.68416 
L 200.937685 122.88648 
L 202.593472 120.552175 
L 205.905045 116.38612 
L 207.560831 115.710949 
L 209.216617 113.419202 
L 210.872404 110.045333 
L 212.52819 109.098552 
L 214.183976 107.789418 
L 215.839763 106.162679 
L 217.495549 105.944596 
L 219.151335 106.174714 
L 220.807122 104.300711 
L 222.462908 104.545427 
L 224.118694 104.618324 
L 225.774481 106.225084 
L 227.430267 107.440887 
L 229.086053 108.508244 
L 230.74184 109.409405 
L 232.397626 113.643695 
L 234.053412 115.927668 
L 235.709199 118.92277 
L 240.676558 134.723785 
L 242.332344 141.317395 
L 243.988131 146.891385 
L 245.643917 153.648813 
L 247.299703 159.157385 
L 252.267062 179.989656 
L 255.578635 192.151383 
L 257.234421 196.612558 
L 260.545994 207.288469 
L 262.20178 211.883725 
L 263.857567 214.397368 
L 265.513353 219.600624 
L 267.169139 221.472061 
L 268.824926 224.332914 
L 270.480712 225.463247 
L 272.136499 227.129431 
L 273.792285 227.458422 
L 275.448071 226.501392 
L 277.103858 227.331433 
L 278.759644 226.4697 
L 280.41543 225.266471 
L 282.071217 225.058888 
L 283.727003 224.110645 
L 285.382789 222.876105 
L 287.038576 221.293345 
L 288.694362 219.997422 
L 290.350148 217.871486 
L 292.005935 215.003275 
L 293.661721 212.489307 
L 295.317507 210.612482 
L 296.973294 207.401871 
L 298.62908 204.661678 
L 300.284866 200.97285 
L 301.940653 198.262878 
L 308.563798 184.095332 
L 310.219585 182.321398 
L 311.875371 180.042953 
L 313.531157 178.34869 
L 315.186944 175.951564 
L 316.84273 174.73446 
L 318.498516 174.156496 
L 320.154303 172.697918 
L 321.810089 172.279688 
L 323.465875 173.590995 
L 325.121662 172.459533 
L 326.777448 172.832496 
L 328.433234 172.772433 
L 330.089021 169.629323 
L 331.744807 168.853605 
L 333.400593 166.362303 
L 335.05638 163.298901 
L 336.712166 160.705447 
L 338.367953 157.386322 
L 340.023739 155.403152 
L 341.679525 151.370328 
L 343.335312 149.245569 
L 344.991098 147.391346 
L 346.646884 142.659624 
L 348.302671 142.548159 
L 349.958457 140.042132 
L 351.614243 140.035392 
L 353.27003 140.228884 
L 354.925816 139.778882 
L 356.581602 139.656823 
L 358.237389 143.049325 
L 359.893175 146.102326 
L 361.548961 149.946772 
L 364.860534 159.976692 
L 368.172107 174.104035 
L 369.827893 180.672552 
L 373.139466 195.413584 
L 374.795252 201.595958 
L 376.451039 210.072905 
L 384.72997 242.596238 
L 389.697329 258.286578 
L 394.664688 269.750209 
L 396.320475 273.196449 
L 397.976261 275.72458 
L 399.632047 278.582755 
L 401.287834 279.984625 
L 402.94362 281.698587 
L 406.255193 283.853828 
L 407.910979 284.501987 
L 411.222552 284.591392 
L 412.878338 284.524508 
L 417.845697 283.057229 
L 421.15727 281.335574 
L 422.813056 279.985129 
L 424.468843 279.038999 
L 426.124629 277.2727 
L 429.436202 274.313375 
L 431.091988 271.914626 
L 432.747774 269.91332 
L 434.403561 267.311135 
L 436.059347 264.08963 
L 437.715134 261.784314 
L 439.37092 259.157678 
L 441.026706 256.905807 
L 442.682493 252.739503 
L 444.338279 250.195789 
L 445.994065 246.348726 
L 447.649852 241.346677 
L 449.305638 237.754538 
L 450.961424 233.630339 
L 452.617211 229.044028 
L 454.272997 223.196799 
L 457.58457 212.580179 
L 459.240356 207.187246 
L 460.896142 200.534763 
L 462.551929 194.42693 
L 465.863501 183.951157 
L 469.175074 173.802841 
L 470.830861 167.714762 
L 477.454006 150.633561 
L 479.109792 149.769884 
L 480.765579 145.23804 
L 482.421365 144.01051 
L 484.077151 144.171032 
L 485.732938 143.307653 
L 487.388724 144.36945 
L 489.04451 143.970512 
L 490.700297 144.762109 
L 492.356083 145.175507 
L 494.011869 145.401421 
L 495.667656 145.328041 
L 497.323442 147.331811 
L 498.979228 145.623196 
L 500.635015 144.393835 
L 502.290801 146.94647 
L 503.946588 147.321514 
L 505.602374 147.25485 
L 507.25816 147.726022 
L 508.913947 149.056755 
L 510.569733 148.436307 
L 512.225519 150.623475 
L 513.881306 151.770668 
L 517.192878 152.007386 
L 518.848665 154.000828 
L 520.504451 154.891698 
L 522.160237 156.181094 
L 523.816024 157.729218 
L 525.47181 157.793801 
L 527.127596 156.44347 
L 528.783383 156.012932 
L 530.439169 157.537407 
L 532.094955 158.434333 
L 533.750742 158.163778 
L 535.406528 156.676563 
L 537.062315 156.684542 
L 538.718101 157.66533 
L 540.373887 158.493091 
L 542.029674 157.613886 
L 543.68546 159.34633 
L 545.341246 158.712536 
L 546.997033 159.004078 
L 548.652819 159.162462 
L 550.308605 158.572042 
L 551.964392 159.709982 
L 556.931751 161.839981 
L 558.587537 163.695628 
L 560.243323 166.151913 
L 561.89911 165.994049 
L 563.554896 167.817314 
L 565.210682 170.353801 
L 566.866469 173.162913 
L 568.522255 174.286794 
L 570.178042 176.57859 
L 571.833828 178.559422 
L 573.489614 181.956131 
L 576.801187 187.079139 
L 578.456973 191.883808 
L 580.11276 195.617435 
L 581.768546 200.329838 
L 583.424332 205.532971 
L 585.080119 211.508054 
L 588.391691 221.279436 
L 590.047478 224.674528 
L 591.703264 230.472676 
L 595.014837 236.737779 
L 596.670623 239.477708 
L 598.326409 242.605567 
L 599.982196 244.666009 
L 601.637982 245.751359 
L 604.949555 246.280058 
L 606.605341 246.200617 
L 608.261128 246.648597 
L 609.916914 245.541931 
L 611.5727 244.218126 
L 614.884273 239.479518 
L 616.540059 236.023004 
L 619.851632 229.709512 
L 621.507418 225.797656 
L 624.818991 216.464526 
L 628.130564 207.814224 
L 629.78635 202.862932 
L 631.442136 198.685234 
L 633.097923 193.528657 
L 634.753709 188.742555 
L 636.409496 186.587374 
L 639.721068 180.912303 
L 643.032641 177.810246 
L 644.688427 177.925742 
L 646.344214 176.669054 
L 648 174.763891 
L 649.655786 176.006352 
L 651.311573 177.397288 
L 652.967359 176.577825 
L 654.623145 175.945904 
L 656.278932 176.769418 
L 657.934718 177.061871 
L 659.590504 178.137819 
L 661.246291 176.428979 
L 661.246291 176.428979 
" style="fill:none;stroke:#fc997a;stroke-linecap:square;stroke-width:1.5;"/>
   </g>
   <g id="line2d_75">
    <path clip-path="url(#pbae371957d)" d="M 90 209.322248 
L 648 209.322248 
" style="fill:none;stroke:#000000;stroke-dasharray:3.7,1.6;stroke-dashoffset:0;"/>
   </g>
   <g id="patch_3">
    <path d="M 90 315 
L 90 43.2 
" style="fill:none;stroke:#000000;stroke-linecap:square;stroke-linejoin:miter;stroke-width:0.8;"/>
   </g>
   <g id="patch_4">
    <path d="M 648 315 
L 648 43.2 
" style="fill:none;stroke:#000000;stroke-linecap:square;stroke-linejoin:miter;stroke-width:0.8;"/>
   </g>
   <g id="patch_5">
    <path d="M 90 315 
L 648 315 
" style="fill:none;stroke:#000000;stroke-linecap:square;stroke-linejoin:miter;stroke-width:0.8;"/>
   </g>
   <g id="patch_6">
    <path d="M 90 43.2 
L 648 43.2 
" style="fill:none;stroke:#000000;stroke-linecap:square;stroke-linejoin:miter;stroke-width:0.8;"/>
   </g>
   <g id="text_20">
    <!-- 622   $R_t$ -->
    <g transform="translate(321.96 37.2)scale(0.12 -0.12)">
     <defs>
      <path d="M 33.015625 40.375 
Q 26.375 40.375 22.484375 35.828125 
Q 18.609375 31.296875 18.609375 23.390625 
Q 18.609375 15.53125 22.484375 10.953125 
Q 26.375 6.390625 33.015625 6.390625 
Q 39.65625 6.390625 43.53125 10.953125 
Q 47.40625 15.53125 47.40625 23.390625 
Q 47.40625 31.296875 43.53125 35.828125 
Q 39.65625 40.375 33.015625 40.375 
z
M 52.59375 71.296875 
L 52.59375 62.3125 
Q 48.875 64.0625 45.09375 64.984375 
Q 41.3125 65.921875 37.59375 65.921875 
Q 27.828125 65.921875 22.671875 59.328125 
Q 17.53125 52.734375 16.796875 39.40625 
Q 19.671875 43.65625 24.015625 45.921875 
Q 28.375 48.1875 33.59375 48.1875 
Q 44.578125 48.1875 50.953125 41.515625 
Q 57.328125 34.859375 57.328125 23.390625 
Q 57.328125 12.15625 50.6875 5.359375 
Q 44.046875 -1.421875 33.015625 -1.421875 
Q 20.359375 -1.421875 13.671875 8.265625 
Q 6.984375 17.96875 6.984375 36.375 
Q 6.984375 53.65625 15.1875 63.9375 
Q 23.390625 74.21875 37.203125 74.21875 
Q 40.921875 74.21875 44.703125 73.484375 
Q 48.484375 72.75 52.59375 71.296875 
z
" id="DejaVuSans-54"/>
      <path id="DejaVuSans-32"/>
      <path d="M 47.359375 27.828125 
L 47.359375 0 
L 38.28125 0 
L 38.28125 27.828125 
Q 38.28125 31.390625 37.765625 34.265625 
Q 37.25 37.15625 36 39.71875 
Q 34.765625 42.28125 32.8125 43.984375 
Q 30.859375 45.703125 27.78125 46.703125 
Q 24.703125 47.703125 20.703125 47.703125 
L 4.296875 47.703125 
L 4.296875 54.6875 
L 20.65625 54.6875 
Q 26.8125 54.6875 31.46875 53.390625 
Q 36.140625 52.09375 39.109375 49.828125 
Q 42.09375 47.5625 43.96875 44.109375 
Q 45.84375 40.671875 46.59375 36.734375 
Q 47.359375 32.8125 47.359375 27.828125 
z
" id="DejaVuSans-1512"/>
      <path d="M 18.171875 54.6875 
L 18.171875 0 
L 9.078125 0 
L 9.078125 54.6875 
z
" id="DejaVuSans-1493"/>
      <path d="M 21 0 
L 11.8125 0 
L 4.296875 54.6875 
L 13.328125 54.6875 
L 16.890625 28.953125 
Q 19.234375 29 21.0625 29.359375 
Q 22.90625 29.734375 24.265625 30.53125 
Q 25.640625 31.34375 26.609375 32.203125 
Q 27.59375 33.0625 28.296875 34.625 
Q 29 36.1875 29.40625 37.46875 
Q 29.828125 38.765625 30.1875 41.03125 
Q 30.5625 43.3125 30.75 45 
Q 30.953125 46.6875 31.265625 49.640625 
Q 31.59375 52.59375 31.890625 54.6875 
L 39.9375 54.6875 
Q 39.0625 42 37.890625 36.96875 
Q 35.890625 28.609375 30.609375 25.25 
Q 25.984375 22.265625 17.828125 21.96875 
L 19.921875 6.984375 
Q 24.703125 6.984375 28.390625 7.34375 
Q 32.078125 7.71875 35.640625 8.6875 
Q 39.203125 9.671875 41.8125 11.296875 
Q 44.4375 12.9375 46.84375 15.5 
Q 49.265625 18.0625 50.953125 21.625 
Q 52.640625 25.203125 54 30 
Q 55.375 34.8125 56.203125 40.90625 
Q 57.03125 47.015625 57.515625 54.6875 
L 66.546875 54.6875 
Q 65.671875 46.578125 64.640625 40.421875 
Q 63.625 34.28125 62.125 28.703125 
Q 60.640625 23.140625 58.8125 19.15625 
Q 56.984375 15.1875 54.421875 11.84375 
Q 51.859375 8.5 48.703125 6.375 
Q 45.5625 4.25 41.375 2.75 
Q 37.203125 1.265625 32.25 0.625 
Q 27.296875 0 21 0 
z
" id="DejaVuSans-1513"/>
      <path d="M 36.328125 6.984375 
L 36.328125 29.59375 
Q 36.328125 33.25 36.0625 35.671875 
Q 35.796875 38.09375 34.859375 40.578125 
Q 33.9375 43.0625 32.25 44.484375 
Q 30.5625 45.90625 27.609375 46.796875 
Q 24.65625 47.703125 20.40625 47.703125 
L 4.296875 47.703125 
L 4.296875 54.6875 
L 20.40625 54.6875 
Q 26.421875 54.6875 30.734375 53.5625 
Q 35.0625 52.4375 37.890625 50.359375 
Q 40.71875 48.296875 42.40625 44.890625 
Q 44.09375 41.5 44.75 37.453125 
Q 45.40625 33.40625 45.40625 27.828125 
L 45.40625 6.984375 
L 53.515625 6.984375 
L 53.515625 0 
L 4.296875 0 
L 4.296875 6.984375 
z
" id="DejaVuSans-1489"/>
      <path d="M 30.328125 54.6875 
L 30.328125 47.703125 
L 26.421875 47.703125 
Q 22.171875 47.703125 20.578125 43.921875 
Q 19 40.140625 19 30.90625 
L 19 0 
L 9.90625 0 
L 9.90625 30.90625 
Q 9.90625 37.109375 11.78125 41.453125 
Q 13.671875 45.796875 16.40625 47.703125 
L 4.296875 47.703125 
L 4.296875 54.6875 
z
" id="DejaVuSans-1494"/>
      <path d="M 43.75 20.0625 
L 57.671875 0 
L 47.078125 0 
L 26.765625 29.296875 
Q 25.390625 28.609375 24.53125 28.09375 
Q 23.6875 27.59375 22.3125 26.296875 
Q 20.953125 25 20.140625 23.40625 
Q 19.34375 21.828125 18.703125 19.140625 
Q 18.0625 16.453125 18.0625 13.09375 
L 18.0625 0 
L 9.078125 0 
L 9.078125 9.03125 
Q 9.078125 12.984375 9.5625 16.359375 
Q 10.0625 19.734375 10.8125 22.078125 
Q 11.578125 24.421875 12.796875 26.390625 
Q 14.015625 28.375 15.109375 29.59375 
Q 16.21875 30.8125 17.796875 31.875 
Q 19.390625 32.953125 20.453125 33.46875 
Q 21.53125 33.984375 23.046875 34.625 
L 9.1875 54.6875 
L 19.78125 54.6875 
L 40.09375 25.390625 
Q 41.40625 26.03125 42.25 26.53125 
Q 43.109375 27.046875 44.46875 28.359375 
Q 45.84375 29.6875 46.671875 31.265625 
Q 47.515625 32.859375 48.140625 35.546875 
Q 48.78125 38.234375 48.78125 41.609375 
L 48.78125 54.6875 
L 57.765625 54.6875 
L 57.765625 45.65625 
Q 57.765625 41.65625 57.265625 38.3125 
Q 56.78125 34.96875 56.03125 32.59375 
Q 55.28125 30.21875 54.046875 28.234375 
Q 52.828125 26.265625 51.703125 25.0625 
Q 50.59375 23.875 49.03125 22.796875 
Q 47.46875 21.734375 46.390625 21.21875 
Q 45.3125 20.703125 43.75 20.0625 
z
" id="DejaVuSans-1488"/>
      <path d="M 25.203125 64.796875 
L 20.21875 38.921875 
L 32.90625 38.921875 
Q 40.375 38.921875 44.984375 43.046875 
Q 49.609375 47.171875 49.609375 53.8125 
Q 49.609375 59.125 46.5 61.953125 
Q 43.40625 64.796875 37.59375 64.796875 
z
M 43.3125 35.015625 
Q 46.4375 34.28125 48.515625 31.390625 
Q 50.59375 28.515625 53.328125 19.921875 
L 59.515625 0 
L 49.125 0 
L 43.40625 18.703125 
Q 41.21875 25.921875 38.328125 28.359375 
Q 35.453125 30.8125 29.5 30.8125 
L 18.609375 30.8125 
L 12.59375 0 
L 2.6875 0 
L 16.890625 72.90625 
L 39.109375 72.90625 
Q 49.21875 72.90625 54.609375 68.328125 
Q 60.015625 63.765625 60.015625 55.171875 
Q 60.015625 47.5625 55.421875 41.984375 
Q 50.828125 36.421875 43.3125 35.015625 
z
" id="DejaVuSans-Oblique-82"/>
      <path d="M 42.28125 54.6875 
L 40.921875 47.703125 
L 23 47.703125 
L 17.1875 18.015625 
Q 16.890625 16.359375 16.75 15.234375 
Q 16.609375 14.109375 16.609375 13.484375 
Q 16.609375 10.359375 18.484375 8.9375 
Q 20.359375 7.515625 24.515625 7.515625 
L 33.59375 7.515625 
L 32.078125 0 
L 23.484375 0 
Q 15.484375 0 11.546875 3.125 
Q 7.625 6.25 7.625 12.59375 
Q 7.625 13.71875 7.765625 15.0625 
Q 7.90625 16.40625 8.203125 18.015625 
L 14.015625 47.703125 
L 6.390625 47.703125 
L 7.8125 54.6875 
L 15.28125 54.6875 
L 18.3125 70.21875 
L 27.296875 70.21875 
L 24.3125 54.6875 
z
" id="DejaVuSans-Oblique-116"/>
     </defs>
     <use transform="translate(0 0.78125)" xlink:href="#DejaVuSans-54"/>
     <use transform="translate(63.623047 0.78125)" xlink:href="#DejaVuSans-50"/>
     <use transform="translate(127.246094 0.78125)" xlink:href="#DejaVuSans-50"/>
     <use transform="translate(190.869141 0.78125)" xlink:href="#DejaVuSans-32"/>
     <use transform="translate(222.65625 0.78125)" xlink:href="#DejaVuSans-1512"/>
     <use transform="translate(279.101562 0.78125)" xlink:href="#DejaVuSans-1493"/>
     <use transform="translate(306.347656 0.78125)" xlink:href="#DejaVuSans-1513"/>
     <use transform="translate(377.197266 0.78125)" xlink:href="#DejaVuSans-1489"/>
     <use transform="translate(435.009766 0.78125)" xlink:href="#DejaVuSans-32"/>
     <use transform="translate(466.796875 0.78125)" xlink:href="#DejaVuSans-1512"/>
     <use transform="translate(523.242188 0.78125)" xlink:href="#DejaVuSans-1493"/>
     <use transform="translate(550.488281 0.78125)" xlink:href="#DejaVuSans-1494"/>
     <use transform="translate(585.107422 0.78125)" xlink:href="#DejaVuSans-1488"/>
     <use transform="translate(651.953125 0.78125)" xlink:href="#DejaVuSans-32"/>
     <use transform="translate(683.740234 0.78125)" xlink:href="#DejaVuSans-Oblique-82"/>
     <use transform="translate(753.222656 -15.625)scale(0.7)" xlink:href="#DejaVuSans-Oblique-116"/>
    </g>
   </g>
  </g>
 </g>
 <defs>
  <clipPath id="pbae371957d">
   <rect height="271.8" width="558" x="90" y="43.2"/>
  </clipPath>
 </defs>
</svg>
