<?xml version="1.0" encoding="utf-8" standalone="no"?>
<!DOCTYPE svg PUBLIC "-//W3C//DTD SVG 1.1//EN"
  "http://www.w3.org/Graphics/SVG/1.1/DTD/svg11.dtd">
<!-- Created with matplotlib (https://matplotlib.org/) -->
<svg height="360pt" version="1.1" viewBox="0 0 720 360" width="720pt" xmlns="http://www.w3.org/2000/svg" xmlns:xlink="http://www.w3.org/1999/xlink">
 <metadata>
  <rdf:RDF xmlns:cc="http://creativecommons.org/ns#" xmlns:dc="http://purl.org/dc/elements/1.1/" xmlns:rdf="http://www.w3.org/1999/02/22-rdf-syntax-ns#">
   <cc:Work>
    <dc:type rdf:resource="http://purl.org/dc/dcmitype/StillImage"/>
    <dc:date>2021-02-21T07:54:21.313007</dc:date>
    <dc:format>image/svg+xml</dc:format>
    <dc:creator>
     <cc:Agent>
      <dc:title>Matplotlib v3.3.2, https://matplotlib.org/</dc:title>
     </cc:Agent>
    </dc:creator>
   </cc:Work>
  </rdf:RDF>
 </metadata>
 <defs>
  <style type="text/css">*{stroke-linecap:butt;stroke-linejoin:round;}</style>
 </defs>
 <g id="figure_1">
  <g id="patch_1">
   <path d="M 0 360 
L 720 360 
L 720 0 
L 0 0 
z
" style="fill:#ffffff;"/>
  </g>
  <g id="axes_1">
   <g id="patch_2">
    <path d="M 90 315 
L 648 315 
L 648 43.2 
L 90 43.2 
z
" style="fill:#ffffff;"/>
   </g>
   <g id="PolyCollection_1">
    <defs>
     <path d="M 90 -57.354545 
L 90 -102.05109 
L 91.706422 -103.213362 
L 93.412844 -104.021683 
L 95.119266 -99.171037 
L 96.825688 -100.714345 
L 98.53211 -102.437191 
L 100.238532 -98.286076 
L 101.944954 -102.066249 
L 103.651376 -100.505734 
L 105.357798 -104.610928 
L 107.06422 -106.02961 
L 108.770642 -105.072331 
L 110.477064 -110.048266 
L 112.183486 -107.159107 
L 113.889908 -111.520421 
L 115.59633 -111.643484 
L 117.302752 -111.817175 
L 119.009174 -112.129069 
L 120.715596 -114.091407 
L 122.422018 -113.998749 
L 124.12844 -115.357427 
L 125.834862 -112.754336 
L 127.541284 -115.509782 
L 129.247706 -117.749107 
L 130.954128 -118.686229 
L 132.66055 -117.200322 
L 134.366972 -118.782025 
L 136.073394 -119.14121 
L 137.779817 -121.646919 
L 139.486239 -120.108826 
L 141.192661 -120.232723 
L 142.899083 -125.954068 
L 144.605505 -126.309872 
L 146.311927 -128.814751 
L 148.018349 -127.818283 
L 149.724771 -131.888625 
L 151.431193 -131.684125 
L 153.137615 -133.475829 
L 154.844037 -137.469969 
L 156.550459 -142.312697 
L 158.256881 -138.844797 
L 159.963303 -142.750395 
L 161.669725 -145.034572 
L 163.376147 -144.684026 
L 165.082569 -150.528265 
L 166.788991 -156.545149 
L 168.495413 -158.979218 
L 170.201835 -163.066166 
L 171.908257 -167.574631 
L 173.614679 -169.113534 
L 175.321101 -172.198244 
L 177.027523 -179.547077 
L 178.733945 -181.267401 
L 180.440367 -187.6062 
L 182.146789 -193.003659 
L 183.853211 -202.149476 
L 185.559633 -206.550934 
L 187.266055 -207.636528 
L 188.972477 -213.676193 
L 190.678899 -223.28637 
L 192.385321 -227.553571 
L 194.091743 -229.960984 
L 195.798165 -238.306405 
L 197.504587 -242.439606 
L 199.211009 -249.962894 
L 200.917431 -251.932105 
L 202.623853 -259.81002 
L 204.330275 -259.875546 
L 206.036697 -269.08968 
L 207.743119 -275.144328 
L 209.449541 -276.611877 
L 211.155963 -283.407473 
L 212.862385 -285.664461 
L 214.568807 -291.75568 
L 216.275229 -289.872435 
L 217.981651 -293.593531 
L 219.688073 -296.846049 
L 221.394495 -300.141815 
L 223.100917 -303.812234 
L 224.807339 -304.445455 
L 226.513761 -301.679209 
L 228.220183 -298.018334 
L 229.926606 -296.596672 
L 231.633028 -298.391857 
L 233.33945 -291.604616 
L 235.045872 -290.920643 
L 236.752294 -280.662874 
L 238.458716 -272.467371 
L 240.165138 -266.341477 
L 241.87156 -256.283858 
L 243.577982 -251.033488 
L 245.284404 -241.592613 
L 246.990826 -233.542854 
L 248.697248 -229.152509 
L 250.40367 -221.652113 
L 252.110092 -211.699338 
L 253.816514 -204.11651 
L 255.522936 -197.258513 
L 257.229358 -197.078024 
L 258.93578 -192.830907 
L 260.642202 -190.255956 
L 262.348624 -186.864852 
L 264.055046 -181.479364 
L 265.761468 -180.812907 
L 267.46789 -177.581344 
L 269.174312 -177.296184 
L 270.880734 -175.516914 
L 272.587156 -175.313727 
L 274.293578 -170.734454 
L 276 -168.458537 
L 277.706422 -167.790747 
L 279.412844 -167.981683 
L 281.119266 -165.82658 
L 282.825688 -165.038359 
L 284.53211 -167.073396 
L 286.238532 -164.518154 
L 287.944954 -163.607725 
L 289.651376 -164.905827 
L 291.357798 -171.847756 
L 293.06422 -168.610312 
L 294.770642 -169.942242 
L 296.477064 -169.690698 
L 298.183486 -169.205201 
L 299.889908 -168.983181 
L 301.59633 -171.156754 
L 303.302752 -170.128252 
L 305.009174 -169.130618 
L 306.715596 -166.607119 
L 308.422018 -166.066589 
L 310.12844 -167.564414 
L 311.834862 -165.53027 
L 313.541284 -167.868881 
L 315.247706 -164.913029 
L 316.954128 -162.655289 
L 318.66055 -161.305791 
L 320.366972 -160.384945 
L 322.073394 -164.568934 
L 323.779817 -165.847254 
L 325.486239 -169.930588 
L 327.192661 -172.068359 
L 328.899083 -171.858701 
L 330.605505 -178.05042 
L 332.311927 -180.513892 
L 334.018349 -189.067837 
L 335.724771 -195.248527 
L 337.431193 -198.196948 
L 339.137615 -206.509337 
L 340.844037 -212.931623 
L 342.550459 -218.992455 
L 344.256881 -224.689718 
L 345.963303 -228.001303 
L 347.669725 -229.982117 
L 349.376147 -236.484636 
L 351.082569 -240.463016 
L 352.788991 -236.905507 
L 354.495413 -231.580354 
L 356.201835 -230.240921 
L 357.908257 -231.172919 
L 359.614679 -224.039962 
L 361.321101 -216.003116 
L 363.027523 -210.201029 
L 364.733945 -203.399617 
L 366.440367 -194.1449 
L 368.146789 -192.771186 
L 369.853211 -184.436966 
L 371.559633 -180.454865 
L 373.266055 -176.275242 
L 374.972477 -172.391062 
L 376.678899 -167.761192 
L 378.385321 -161.225681 
L 380.091743 -161.38221 
L 381.798165 -155.95879 
L 383.504587 -152.590689 
L 385.211009 -150.577522 
L 386.917431 -146.449268 
L 388.623853 -145.256036 
L 390.330275 -140.074477 
L 392.036697 -136.651223 
L 393.743119 -135.167045 
L 395.449541 -129.308855 
L 397.155963 -126.082363 
L 398.862385 -122.259891 
L 400.568807 -120.50282 
L 402.275229 -116.865991 
L 403.981651 -116.528534 
L 405.688073 -111.90371 
L 407.394495 -111.982751 
L 409.100917 -107.644704 
L 410.807339 -106.758801 
L 412.513761 -102.826214 
L 414.220183 -102.545974 
L 415.926606 -103.730384 
L 417.633028 -103.871028 
L 419.33945 -103.255614 
L 421.045872 -103.621006 
L 422.752294 -102.94734 
L 424.458716 -105.039654 
L 426.165138 -105.32768 
L 427.87156 -105.925895 
L 429.577982 -106.981208 
L 431.284404 -107.568882 
L 432.990826 -110.647947 
L 434.697248 -112.356455 
L 436.40367 -115.469864 
L 438.110092 -114.095372 
L 439.816514 -117.082967 
L 441.522936 -118.710615 
L 443.229358 -121.386955 
L 444.93578 -122.869051 
L 446.642202 -125.217159 
L 448.348624 -126.287257 
L 450.055046 -131.781317 
L 451.761468 -137.120813 
L 453.46789 -137.452707 
L 455.174312 -143.000063 
L 456.880734 -146.803345 
L 458.587156 -149.122081 
L 460.293578 -156.041626 
L 462 -160.132606 
L 463.706422 -162.785206 
L 465.412844 -169.124764 
L 467.119266 -171.632896 
L 468.825688 -179.618201 
L 470.53211 -178.64091 
L 472.238532 -183.035524 
L 473.944954 -183.462823 
L 475.651376 -183.326464 
L 477.357798 -187.545804 
L 479.06422 -186.868013 
L 480.770642 -192.363654 
L 482.477064 -192.214086 
L 484.183486 -193.556549 
L 485.889908 -193.652685 
L 487.59633 -193.178663 
L 489.302752 -192.889181 
L 491.009174 -198.356637 
L 492.715596 -195.918402 
L 494.422018 -195.668146 
L 496.12844 -197.719676 
L 497.834862 -195.18302 
L 499.541284 -197.362798 
L 501.247706 -199.580713 
L 502.954128 -199.961016 
L 504.66055 -195.977208 
L 506.366972 -196.08659 
L 508.073394 -202.920761 
L 509.779817 -203.798163 
L 511.486239 -205.841323 
L 513.192661 -209.644266 
L 514.899083 -214.742446 
L 516.605505 -219.583195 
L 518.311927 -219.391371 
L 520.018349 -224.935755 
L 521.724771 -221.94383 
L 523.431193 -220.329712 
L 525.137615 -224.915238 
L 526.844037 -223.264688 
L 528.550459 -224.344296 
L 530.256881 -221.709795 
L 531.963303 -219.237741 
L 533.669725 -217.4592 
L 535.376147 -212.622662 
L 537.082569 -211.384139 
L 538.788991 -209.145771 
L 540.495413 -209.47776 
L 542.201835 -207.402794 
L 543.908257 -201.849821 
L 545.614679 -198.226686 
L 547.321101 -198.377707 
L 549.027523 -195.11408 
L 550.733945 -195.527808 
L 552.440367 -192.81116 
L 554.146789 -190.610442 
L 555.853211 -187.756024 
L 557.559633 -185.059278 
L 559.266055 -182.320097 
L 560.972477 -179.394346 
L 562.678899 -179.432314 
L 564.385321 -170.980908 
L 566.091743 -166.28216 
L 567.798165 -164.304711 
L 569.504587 -158.6425 
L 571.211009 -156.702883 
L 572.917431 -153.219339 
L 574.623853 -153.39008 
L 576.330275 -147.478946 
L 578.036697 -146.38216 
L 579.743119 -146.102896 
L 581.449541 -146.040357 
L 583.155963 -147.704513 
L 584.862385 -145.116429 
L 586.568807 -143.805874 
L 588.275229 -145.03459 
L 589.981651 -145.849716 
L 591.688073 -145.925814 
L 593.394495 -146.264017 
L 595.100917 -149.802165 
L 596.807339 -153.819146 
L 598.513761 -151.946902 
L 600.220183 -155.046827 
L 601.926606 -156.374119 
L 603.633028 -157.680316 
L 605.33945 -156.373233 
L 607.045872 -162.055834 
L 608.752294 -165.77787 
L 610.458716 -163.410081 
L 612.165138 -163.904399 
L 613.87156 -161.536274 
L 615.577982 -160.197801 
L 617.284404 -155.968046 
L 618.990826 -154.611506 
L 620.697248 -153.491519 
L 622.40367 -148.656362 
L 624.110092 -145.762172 
L 625.816514 -142.108172 
L 627.522936 -139.488312 
L 629.229358 -135.2044 
L 630.93578 -133.560899 
L 632.642202 -131.054473 
L 634.348624 -129.444863 
L 636.055046 -130.048717 
L 637.761468 -131.678872 
L 639.46789 -127.160075 
L 641.174312 -129.155747 
L 642.880734 -128.396418 
L 644.587156 -130.331401 
L 646.293578 -130.308482 
L 648 -134.253538 
L 649.706422 -137.572908 
L 651.412844 -130.531797 
L 653.119266 -137.844349 
L 654.825688 -140.809117 
L 656.53211 -145.642793 
L 658.238532 -144.346931 
L 659.944954 -140.837385 
L 661.651376 -143.753842 
L 661.651376 -68.72988 
L 661.651376 -68.72988 
L 659.944954 -67.980825 
L 658.238532 -74.312068 
L 656.53211 -76.976921 
L 654.825688 -75.913758 
L 653.119266 -72.257792 
L 651.412844 -67.268535 
L 649.706422 -77.692814 
L 648 -77.890211 
L 646.293578 -76.136383 
L 644.587156 -79.218652 
L 642.880734 -80.314846 
L 641.174312 -83.415445 
L 639.46789 -83.729427 
L 637.761468 -90.138799 
L 636.055046 -90.576373 
L 634.348624 -91.233666 
L 632.642202 -94.25065 
L 630.93578 -97.105893 
L 629.229358 -100.73208 
L 627.522936 -103.97345 
L 625.816514 -106.360396 
L 624.110092 -108.712797 
L 622.40367 -111.650945 
L 620.697248 -116.354675 
L 618.990826 -119.371922 
L 617.284404 -119.51636 
L 615.577982 -124.035799 
L 613.87156 -123.414883 
L 612.165138 -125.685879 
L 610.458716 -124.44028 
L 608.752294 -125.619594 
L 607.045872 -123.304875 
L 605.33945 -120.547759 
L 603.633028 -122.525609 
L 601.926606 -121.77807 
L 600.220183 -121.026409 
L 598.513761 -117.702884 
L 596.807339 -118.365348 
L 595.100917 -115.258956 
L 593.394495 -111.517091 
L 591.688073 -112.080341 
L 589.981651 -111.82728 
L 588.275229 -110.784868 
L 586.568807 -111.036663 
L 584.862385 -110.49097 
L 583.155963 -113.430149 
L 581.449541 -113.490115 
L 579.743119 -114.237377 
L 578.036697 -113.695371 
L 576.330275 -113.698727 
L 574.623853 -119.119231 
L 572.917431 -118.728043 
L 571.211009 -121.30382 
L 569.504587 -122.54496 
L 567.798165 -126.849106 
L 566.091743 -125.455372 
L 564.385321 -132.213994 
L 562.678899 -138.755515 
L 560.972477 -137.788032 
L 559.266055 -141.651857 
L 557.559633 -144.783835 
L 555.853211 -146.018798 
L 554.146789 -147.288898 
L 552.440367 -151.000845 
L 550.733945 -153.994344 
L 549.027523 -155.090188 
L 547.321101 -156.588705 
L 545.614679 -156.216038 
L 543.908257 -158.281101 
L 542.201835 -161.862595 
L 540.495413 -163.411955 
L 538.788991 -162.511954 
L 537.082569 -163.726773 
L 535.376147 -166.859239 
L 533.669725 -167.754495 
L 531.963303 -168.794468 
L 530.256881 -168.294305 
L 528.550459 -171.931491 
L 526.844037 -171.555967 
L 525.137615 -173.780736 
L 523.431193 -168.990026 
L 521.724771 -171.616581 
L 520.018349 -173.957753 
L 518.311927 -169.863601 
L 516.605505 -170.92682 
L 514.899083 -166.844381 
L 513.192661 -161.754487 
L 511.486239 -159.162927 
L 509.779817 -158.501457 
L 508.073394 -159.072298 
L 506.366972 -151.573531 
L 504.66055 -151.423912 
L 502.954128 -154.367793 
L 501.247706 -152.181241 
L 499.541284 -149.650154 
L 497.834862 -146.848429 
L 496.12844 -150.406951 
L 494.422018 -149.574861 
L 492.715596 -149.399468 
L 491.009174 -148.976139 
L 489.302752 -144.073955 
L 487.59633 -147.875754 
L 485.889908 -147.377351 
L 484.183486 -150.009076 
L 482.477064 -149.123789 
L 480.770642 -148.781207 
L 479.06422 -143.533226 
L 477.357798 -145.565467 
L 475.651376 -141.973255 
L 473.944954 -140.573131 
L 472.238532 -139.225203 
L 470.53211 -134.875624 
L 468.825688 -135.274485 
L 467.119266 -129.650529 
L 465.412844 -127.186919 
L 463.706422 -122.552162 
L 462 -121.624162 
L 460.293578 -117.376372 
L 458.587156 -111.184409 
L 456.880734 -111.532778 
L 455.174312 -108.965315 
L 453.46789 -104.830991 
L 451.761468 -104.804561 
L 450.055046 -100.905366 
L 448.348624 -95.931758 
L 446.642202 -95.440688 
L 444.93578 -94.03248 
L 443.229358 -93.471127 
L 441.522936 -89.946655 
L 439.816514 -89.863427 
L 438.110092 -88.427756 
L 436.40367 -88.852481 
L 434.697248 -84.890188 
L 432.990826 -84.448688 
L 431.284404 -80.868953 
L 429.577982 -79.479352 
L 427.87156 -78.718223 
L 426.165138 -78.939371 
L 424.458716 -79.156648 
L 422.752294 -77.32041 
L 421.045872 -79.03469 
L 419.33945 -80.136852 
L 417.633028 -79.504287 
L 415.926606 -79.952972 
L 414.220183 -78.976499 
L 412.513761 -80.594063 
L 410.807339 -83.261378 
L 409.100917 -83.418727 
L 407.394495 -86.007198 
L 405.688073 -86.390022 
L 403.981651 -89.939882 
L 402.275229 -90.716228 
L 400.568807 -93.531446 
L 398.862385 -95.737546 
L 397.155963 -98.253501 
L 395.449541 -100.827985 
L 393.743119 -105.095583 
L 392.036697 -105.784883 
L 390.330275 -106.703026 
L 388.623853 -112.43742 
L 386.917431 -114.071203 
L 385.211009 -116.338562 
L 383.504587 -119.000496 
L 381.798165 -120.614309 
L 380.091743 -124.3407 
L 378.385321 -123.25189 
L 376.678899 -130.986797 
L 374.972477 -134.992705 
L 373.266055 -136.120292 
L 371.559633 -140.219121 
L 369.853211 -142.668124 
L 368.146789 -150.777552 
L 366.440367 -150.144596 
L 364.733945 -160.788805 
L 363.027523 -164.57882 
L 361.321101 -168.297308 
L 359.614679 -173.747672 
L 357.908257 -179.493548 
L 356.201835 -175.965454 
L 354.495413 -177.734091 
L 352.788991 -183.692699 
L 351.082569 -184.732607 
L 349.376147 -181.43994 
L 347.669725 -179.471089 
L 345.963303 -179.089756 
L 344.256881 -175.064956 
L 342.550459 -169.368043 
L 340.844037 -164.597891 
L 339.137615 -158.643994 
L 337.431193 -151.103519 
L 335.724771 -149.514908 
L 334.018349 -144.586598 
L 332.311927 -138.557723 
L 330.605505 -138.295927 
L 328.899083 -134.782851 
L 327.192661 -132.719863 
L 325.486239 -132.383039 
L 323.779817 -127.977699 
L 322.073394 -126.295626 
L 320.366972 -122.528354 
L 318.66055 -124.358349 
L 316.954128 -122.521243 
L 315.247706 -125.653273 
L 313.541284 -128.260549 
L 311.834862 -125.848442 
L 310.12844 -128.59467 
L 308.422018 -127.989492 
L 306.715596 -127.610286 
L 305.009174 -129.132599 
L 303.302752 -131.068039 
L 301.59633 -132.04142 
L 299.889908 -131.912847 
L 298.183486 -131.985796 
L 296.477064 -131.039494 
L 294.770642 -131.242316 
L 293.06422 -127.893756 
L 291.357798 -132.022564 
L 289.651376 -126.281744 
L 287.944954 -126.323564 
L 286.238532 -127.043823 
L 284.53211 -129.511187 
L 282.825688 -126.684967 
L 281.119266 -127.223508 
L 279.412844 -129.218451 
L 277.706422 -129.257873 
L 276 -129.193362 
L 274.293578 -130.187202 
L 272.587156 -134.792415 
L 270.880734 -135.916342 
L 269.174312 -138.099497 
L 267.46789 -138.659242 
L 265.761468 -138.703606 
L 264.055046 -137.260707 
L 262.348624 -144.284437 
L 260.642202 -146.036992 
L 258.93578 -148.065159 
L 257.229358 -151.74362 
L 255.522936 -153.130843 
L 253.816514 -156.994841 
L 252.110092 -162.495173 
L 250.40367 -168.08454 
L 248.697248 -172.948103 
L 246.990826 -175.67904 
L 245.284404 -184.388434 
L 243.577982 -190.269212 
L 241.87156 -192.951515 
L 240.165138 -199.040749 
L 238.458716 -201.04648 
L 236.752294 -212.305306 
L 235.045872 -219.158418 
L 233.33945 -218.310496 
L 231.633028 -222.019309 
L 229.926606 -218.82541 
L 228.220183 -216.728188 
L 226.513761 -217.139572 
L 224.807339 -218.672773 
L 223.100917 -221.225993 
L 221.394495 -215.953719 
L 219.688073 -214.498053 
L 217.981651 -210.424448 
L 216.275229 -207.276906 
L 214.568807 -209.683168 
L 212.862385 -204.599621 
L 211.155963 -202.525646 
L 209.449541 -197.5815 
L 207.743119 -196.821197 
L 206.036697 -187.826533 
L 204.330275 -179.27811 
L 202.623853 -180.950042 
L 200.917431 -177.389428 
L 199.211009 -176.861097 
L 197.504587 -169.696581 
L 195.798165 -166.500988 
L 194.091743 -159.519029 
L 192.385321 -158.246411 
L 190.678899 -156.069908 
L 188.972477 -147.030846 
L 187.266055 -142.301273 
L 185.559633 -142.995649 
L 183.853211 -139.031846 
L 182.146789 -130.109781 
L 180.440367 -129.330182 
L 178.733945 -128.056678 
L 177.027523 -128.277695 
L 175.321101 -117.920256 
L 173.614679 -117.484748 
L 171.908257 -116.486704 
L 170.201835 -112.568211 
L 168.495413 -110.214916 
L 166.788991 -108.083673 
L 165.082569 -103.340698 
L 163.376147 -98.657131 
L 161.669725 -99.73296 
L 159.963303 -98.270961 
L 158.256881 -92.950422 
L 156.550459 -97.842405 
L 154.844037 -92.702212 
L 153.137615 -89.881034 
L 151.431193 -89.058536 
L 149.724771 -91.00059 
L 148.018349 -88.320838 
L 146.311927 -89.758097 
L 144.605505 -87.321126 
L 142.899083 -88.875269 
L 141.192661 -83.270215 
L 139.486239 -83.844082 
L 137.779817 -85.986643 
L 136.073394 -84.75461 
L 134.366972 -83.92867 
L 132.66055 -80.415566 
L 130.954128 -81.907192 
L 129.247706 -79.989949 
L 127.541284 -77.925836 
L 125.834862 -75.358306 
L 124.12844 -78.58759 
L 122.422018 -77.961957 
L 120.715596 -77.243339 
L 119.009174 -75.147699 
L 117.302752 -74.461338 
L 115.59633 -74.259588 
L 113.889908 -74.269271 
L 112.183486 -70.576736 
L 110.477064 -73.845279 
L 108.770642 -69.347046 
L 107.06422 -70.350825 
L 105.357798 -69.598448 
L 103.651376 -66.275419 
L 101.944954 -67.767628 
L 100.238532 -63.904615 
L 98.53211 -65.66383 
L 96.825688 -63.736458 
L 95.119266 -59.941738 
L 93.412844 -61.656502 
L 91.706422 -59.917048 
L 90 -57.354545 
z
" id="m00caca10a4" style="stroke:#fdcbb6;stroke-opacity:0.8;"/>
    </defs>
    <g clip-path="url(#p2e821e448e)">
     <use style="fill:#fdcbb6;fill-opacity:0.8;stroke:#fdcbb6;stroke-opacity:0.8;" x="0" xlink:href="#m00caca10a4" y="360"/>
    </g>
   </g>
   <g id="matplotlib.axis_1">
    <g id="xtick_1">
     <g id="line2d_1">
      <defs>
       <path d="M 0 0 
L 0 3.5 
" id="mf65673e5fc" style="stroke:#000000;stroke-width:0.8;"/>
      </defs>
      <g>
       <use style="stroke:#000000;stroke-width:0.8;" x="90" xlink:href="#mf65673e5fc" y="315"/>
      </g>
     </g>
    </g>
    <g id="xtick_2">
     <g id="line2d_2">
      <g>
       <use style="stroke:#000000;stroke-width:0.8;" x="108.770642" xlink:href="#mf65673e5fc" y="315"/>
      </g>
     </g>
     <g id="text_1">
      <!-- Apr -->
      <g transform="translate(100.120642 329.598437)scale(0.1 -0.1)">
       <defs>
        <path d="M 34.1875 63.1875 
L 20.796875 26.90625 
L 47.609375 26.90625 
z
M 28.609375 72.90625 
L 39.796875 72.90625 
L 67.578125 0 
L 57.328125 0 
L 50.6875 18.703125 
L 17.828125 18.703125 
L 11.1875 0 
L 0.78125 0 
z
" id="DejaVuSans-65"/>
        <path d="M 18.109375 8.203125 
L 18.109375 -20.796875 
L 9.078125 -20.796875 
L 9.078125 54.6875 
L 18.109375 54.6875 
L 18.109375 46.390625 
Q 20.953125 51.265625 25.265625 53.625 
Q 29.59375 56 35.59375 56 
Q 45.5625 56 51.78125 48.09375 
Q 58.015625 40.1875 58.015625 27.296875 
Q 58.015625 14.40625 51.78125 6.484375 
Q 45.5625 -1.421875 35.59375 -1.421875 
Q 29.59375 -1.421875 25.265625 0.953125 
Q 20.953125 3.328125 18.109375 8.203125 
z
M 48.6875 27.296875 
Q 48.6875 37.203125 44.609375 42.84375 
Q 40.53125 48.484375 33.40625 48.484375 
Q 26.265625 48.484375 22.1875 42.84375 
Q 18.109375 37.203125 18.109375 27.296875 
Q 18.109375 17.390625 22.1875 11.75 
Q 26.265625 6.109375 33.40625 6.109375 
Q 40.53125 6.109375 44.609375 11.75 
Q 48.6875 17.390625 48.6875 27.296875 
z
" id="DejaVuSans-112"/>
        <path d="M 41.109375 46.296875 
Q 39.59375 47.171875 37.8125 47.578125 
Q 36.03125 48 33.890625 48 
Q 26.265625 48 22.1875 43.046875 
Q 18.109375 38.09375 18.109375 28.8125 
L 18.109375 0 
L 9.078125 0 
L 9.078125 54.6875 
L 18.109375 54.6875 
L 18.109375 46.1875 
Q 20.953125 51.171875 25.484375 53.578125 
Q 30.03125 56 36.53125 56 
Q 37.453125 56 38.578125 55.875 
Q 39.703125 55.765625 41.0625 55.515625 
z
" id="DejaVuSans-114"/>
       </defs>
       <use xlink:href="#DejaVuSans-65"/>
       <use x="68.408203" xlink:href="#DejaVuSans-112"/>
       <use x="131.884766" xlink:href="#DejaVuSans-114"/>
      </g>
     </g>
    </g>
    <g id="xtick_3">
     <g id="line2d_3">
      <g>
       <use style="stroke:#000000;stroke-width:0.8;" x="159.963303" xlink:href="#mf65673e5fc" y="315"/>
      </g>
     </g>
     <g id="text_2">
      <!-- May -->
      <g transform="translate(149.625803 329.598437)scale(0.1 -0.1)">
       <defs>
        <path d="M 9.8125 72.90625 
L 24.515625 72.90625 
L 43.109375 23.296875 
L 61.8125 72.90625 
L 76.515625 72.90625 
L 76.515625 0 
L 66.890625 0 
L 66.890625 64.015625 
L 48.09375 14.015625 
L 38.1875 14.015625 
L 19.390625 64.015625 
L 19.390625 0 
L 9.8125 0 
z
" id="DejaVuSans-77"/>
        <path d="M 34.28125 27.484375 
Q 23.390625 27.484375 19.1875 25 
Q 14.984375 22.515625 14.984375 16.5 
Q 14.984375 11.71875 18.140625 8.90625 
Q 21.296875 6.109375 26.703125 6.109375 
Q 34.1875 6.109375 38.703125 11.40625 
Q 43.21875 16.703125 43.21875 25.484375 
L 43.21875 27.484375 
z
M 52.203125 31.203125 
L 52.203125 0 
L 43.21875 0 
L 43.21875 8.296875 
Q 40.140625 3.328125 35.546875 0.953125 
Q 30.953125 -1.421875 24.3125 -1.421875 
Q 15.921875 -1.421875 10.953125 3.296875 
Q 6 8.015625 6 15.921875 
Q 6 25.140625 12.171875 29.828125 
Q 18.359375 34.515625 30.609375 34.515625 
L 43.21875 34.515625 
L 43.21875 35.40625 
Q 43.21875 41.609375 39.140625 45 
Q 35.0625 48.390625 27.6875 48.390625 
Q 23 48.390625 18.546875 47.265625 
Q 14.109375 46.140625 10.015625 43.890625 
L 10.015625 52.203125 
Q 14.9375 54.109375 19.578125 55.046875 
Q 24.21875 56 28.609375 56 
Q 40.484375 56 46.34375 49.84375 
Q 52.203125 43.703125 52.203125 31.203125 
z
" id="DejaVuSans-97"/>
        <path d="M 32.171875 -5.078125 
Q 28.375 -14.84375 24.75 -17.8125 
Q 21.140625 -20.796875 15.09375 -20.796875 
L 7.90625 -20.796875 
L 7.90625 -13.28125 
L 13.1875 -13.28125 
Q 16.890625 -13.28125 18.9375 -11.515625 
Q 21 -9.765625 23.484375 -3.21875 
L 25.09375 0.875 
L 2.984375 54.6875 
L 12.5 54.6875 
L 29.59375 11.921875 
L 46.6875 54.6875 
L 56.203125 54.6875 
z
" id="DejaVuSans-121"/>
       </defs>
       <use xlink:href="#DejaVuSans-77"/>
       <use x="86.279297" xlink:href="#DejaVuSans-97"/>
       <use x="147.558594" xlink:href="#DejaVuSans-121"/>
      </g>
     </g>
    </g>
    <g id="xtick_4">
     <g id="line2d_4">
      <g>
       <use style="stroke:#000000;stroke-width:0.8;" x="212.862385" xlink:href="#mf65673e5fc" y="315"/>
      </g>
     </g>
     <g id="text_3">
      <!-- Jun -->
      <g transform="translate(205.049885 329.598437)scale(0.1 -0.1)">
       <defs>
        <path d="M 9.8125 72.90625 
L 19.671875 72.90625 
L 19.671875 5.078125 
Q 19.671875 -8.109375 14.671875 -14.0625 
Q 9.671875 -20.015625 -1.421875 -20.015625 
L -5.171875 -20.015625 
L -5.171875 -11.71875 
L -2.09375 -11.71875 
Q 4.4375 -11.71875 7.125 -8.046875 
Q 9.8125 -4.390625 9.8125 5.078125 
z
" id="DejaVuSans-74"/>
        <path d="M 8.5 21.578125 
L 8.5 54.6875 
L 17.484375 54.6875 
L 17.484375 21.921875 
Q 17.484375 14.15625 20.5 10.265625 
Q 23.53125 6.390625 29.59375 6.390625 
Q 36.859375 6.390625 41.078125 11.03125 
Q 45.3125 15.671875 45.3125 23.6875 
L 45.3125 54.6875 
L 54.296875 54.6875 
L 54.296875 0 
L 45.3125 0 
L 45.3125 8.40625 
Q 42.046875 3.421875 37.71875 1 
Q 33.40625 -1.421875 27.6875 -1.421875 
Q 18.265625 -1.421875 13.375 4.4375 
Q 8.5 10.296875 8.5 21.578125 
z
M 31.109375 56 
z
" id="DejaVuSans-117"/>
        <path d="M 54.890625 33.015625 
L 54.890625 0 
L 45.90625 0 
L 45.90625 32.71875 
Q 45.90625 40.484375 42.875 44.328125 
Q 39.84375 48.1875 33.796875 48.1875 
Q 26.515625 48.1875 22.3125 43.546875 
Q 18.109375 38.921875 18.109375 30.90625 
L 18.109375 0 
L 9.078125 0 
L 9.078125 54.6875 
L 18.109375 54.6875 
L 18.109375 46.1875 
Q 21.34375 51.125 25.703125 53.5625 
Q 30.078125 56 35.796875 56 
Q 45.21875 56 50.046875 50.171875 
Q 54.890625 44.34375 54.890625 33.015625 
z
" id="DejaVuSans-110"/>
       </defs>
       <use xlink:href="#DejaVuSans-74"/>
       <use x="29.492188" xlink:href="#DejaVuSans-117"/>
       <use x="92.871094" xlink:href="#DejaVuSans-110"/>
      </g>
     </g>
    </g>
    <g id="xtick_5">
     <g id="line2d_5">
      <g>
       <use style="stroke:#000000;stroke-width:0.8;" x="264.055046" xlink:href="#mf65673e5fc" y="315"/>
      </g>
     </g>
     <g id="text_4">
      <!-- Jul -->
      <g transform="translate(258.022233 329.598437)scale(0.1 -0.1)">
       <defs>
        <path d="M 9.421875 75.984375 
L 18.40625 75.984375 
L 18.40625 0 
L 9.421875 0 
z
" id="DejaVuSans-108"/>
       </defs>
       <use xlink:href="#DejaVuSans-74"/>
       <use x="29.492188" xlink:href="#DejaVuSans-117"/>
       <use x="92.871094" xlink:href="#DejaVuSans-108"/>
      </g>
     </g>
    </g>
    <g id="xtick_6">
     <g id="line2d_6">
      <g>
       <use style="stroke:#000000;stroke-width:0.8;" x="316.954128" xlink:href="#mf65673e5fc" y="315"/>
      </g>
     </g>
     <g id="text_5">
      <!-- Aug -->
      <g transform="translate(307.190847 329.598437)scale(0.1 -0.1)">
       <defs>
        <path d="M 45.40625 27.984375 
Q 45.40625 37.75 41.375 43.109375 
Q 37.359375 48.484375 30.078125 48.484375 
Q 22.859375 48.484375 18.828125 43.109375 
Q 14.796875 37.75 14.796875 27.984375 
Q 14.796875 18.265625 18.828125 12.890625 
Q 22.859375 7.515625 30.078125 7.515625 
Q 37.359375 7.515625 41.375 12.890625 
Q 45.40625 18.265625 45.40625 27.984375 
z
M 54.390625 6.78125 
Q 54.390625 -7.171875 48.1875 -13.984375 
Q 42 -20.796875 29.203125 -20.796875 
Q 24.46875 -20.796875 20.265625 -20.09375 
Q 16.0625 -19.390625 12.109375 -17.921875 
L 12.109375 -9.1875 
Q 16.0625 -11.328125 19.921875 -12.34375 
Q 23.78125 -13.375 27.78125 -13.375 
Q 36.625 -13.375 41.015625 -8.765625 
Q 45.40625 -4.15625 45.40625 5.171875 
L 45.40625 9.625 
Q 42.625 4.78125 38.28125 2.390625 
Q 33.9375 0 27.875 0 
Q 17.828125 0 11.671875 7.65625 
Q 5.515625 15.328125 5.515625 27.984375 
Q 5.515625 40.671875 11.671875 48.328125 
Q 17.828125 56 27.875 56 
Q 33.9375 56 38.28125 53.609375 
Q 42.625 51.21875 45.40625 46.390625 
L 45.40625 54.6875 
L 54.390625 54.6875 
z
" id="DejaVuSans-103"/>
       </defs>
       <use xlink:href="#DejaVuSans-65"/>
       <use x="68.408203" xlink:href="#DejaVuSans-117"/>
       <use x="131.787109" xlink:href="#DejaVuSans-103"/>
      </g>
     </g>
    </g>
    <g id="xtick_7">
     <g id="line2d_7">
      <g>
       <use style="stroke:#000000;stroke-width:0.8;" x="369.853211" xlink:href="#mf65673e5fc" y="315"/>
      </g>
     </g>
     <g id="text_6">
      <!-- Sep -->
      <g transform="translate(360.428211 329.598437)scale(0.1 -0.1)">
       <defs>
        <path d="M 53.515625 70.515625 
L 53.515625 60.890625 
Q 47.90625 63.578125 42.921875 64.890625 
Q 37.9375 66.21875 33.296875 66.21875 
Q 25.25 66.21875 20.875 63.09375 
Q 16.5 59.96875 16.5 54.203125 
Q 16.5 49.359375 19.40625 46.890625 
Q 22.3125 44.4375 30.421875 42.921875 
L 36.375 41.703125 
Q 47.40625 39.59375 52.65625 34.296875 
Q 57.90625 29 57.90625 20.125 
Q 57.90625 9.515625 50.796875 4.046875 
Q 43.703125 -1.421875 29.984375 -1.421875 
Q 24.8125 -1.421875 18.96875 -0.25 
Q 13.140625 0.921875 6.890625 3.21875 
L 6.890625 13.375 
Q 12.890625 10.015625 18.65625 8.296875 
Q 24.421875 6.59375 29.984375 6.59375 
Q 38.421875 6.59375 43.015625 9.90625 
Q 47.609375 13.234375 47.609375 19.390625 
Q 47.609375 24.75 44.3125 27.78125 
Q 41.015625 30.8125 33.5 32.328125 
L 27.484375 33.5 
Q 16.453125 35.6875 11.515625 40.375 
Q 6.59375 45.0625 6.59375 53.421875 
Q 6.59375 63.09375 13.40625 68.65625 
Q 20.21875 74.21875 32.171875 74.21875 
Q 37.3125 74.21875 42.625 73.28125 
Q 47.953125 72.359375 53.515625 70.515625 
z
" id="DejaVuSans-83"/>
        <path d="M 56.203125 29.59375 
L 56.203125 25.203125 
L 14.890625 25.203125 
Q 15.484375 15.921875 20.484375 11.0625 
Q 25.484375 6.203125 34.421875 6.203125 
Q 39.59375 6.203125 44.453125 7.46875 
Q 49.3125 8.734375 54.109375 11.28125 
L 54.109375 2.78125 
Q 49.265625 0.734375 44.1875 -0.34375 
Q 39.109375 -1.421875 33.890625 -1.421875 
Q 20.796875 -1.421875 13.15625 6.1875 
Q 5.515625 13.8125 5.515625 26.8125 
Q 5.515625 40.234375 12.765625 48.109375 
Q 20.015625 56 32.328125 56 
Q 43.359375 56 49.78125 48.890625 
Q 56.203125 41.796875 56.203125 29.59375 
z
M 47.21875 32.234375 
Q 47.125 39.59375 43.09375 43.984375 
Q 39.0625 48.390625 32.421875 48.390625 
Q 24.90625 48.390625 20.390625 44.140625 
Q 15.875 39.890625 15.1875 32.171875 
z
" id="DejaVuSans-101"/>
       </defs>
       <use xlink:href="#DejaVuSans-83"/>
       <use x="63.476562" xlink:href="#DejaVuSans-101"/>
       <use x="125" xlink:href="#DejaVuSans-112"/>
      </g>
     </g>
    </g>
    <g id="xtick_8">
     <g id="line2d_8">
      <g>
       <use style="stroke:#000000;stroke-width:0.8;" x="421.045872" xlink:href="#mf65673e5fc" y="315"/>
      </g>
     </g>
     <g id="text_7">
      <!-- Oct -->
      <g transform="translate(412.400559 329.598437)scale(0.1 -0.1)">
       <defs>
        <path d="M 39.40625 66.21875 
Q 28.65625 66.21875 22.328125 58.203125 
Q 16.015625 50.203125 16.015625 36.375 
Q 16.015625 22.609375 22.328125 14.59375 
Q 28.65625 6.59375 39.40625 6.59375 
Q 50.140625 6.59375 56.421875 14.59375 
Q 62.703125 22.609375 62.703125 36.375 
Q 62.703125 50.203125 56.421875 58.203125 
Q 50.140625 66.21875 39.40625 66.21875 
z
M 39.40625 74.21875 
Q 54.734375 74.21875 63.90625 63.9375 
Q 73.09375 53.65625 73.09375 36.375 
Q 73.09375 19.140625 63.90625 8.859375 
Q 54.734375 -1.421875 39.40625 -1.421875 
Q 24.03125 -1.421875 14.8125 8.828125 
Q 5.609375 19.09375 5.609375 36.375 
Q 5.609375 53.65625 14.8125 63.9375 
Q 24.03125 74.21875 39.40625 74.21875 
z
" id="DejaVuSans-79"/>
        <path d="M 48.78125 52.59375 
L 48.78125 44.1875 
Q 44.96875 46.296875 41.140625 47.34375 
Q 37.3125 48.390625 33.40625 48.390625 
Q 24.65625 48.390625 19.8125 42.84375 
Q 14.984375 37.3125 14.984375 27.296875 
Q 14.984375 17.28125 19.8125 11.734375 
Q 24.65625 6.203125 33.40625 6.203125 
Q 37.3125 6.203125 41.140625 7.25 
Q 44.96875 8.296875 48.78125 10.40625 
L 48.78125 2.09375 
Q 45.015625 0.34375 40.984375 -0.53125 
Q 36.96875 -1.421875 32.421875 -1.421875 
Q 20.0625 -1.421875 12.78125 6.34375 
Q 5.515625 14.109375 5.515625 27.296875 
Q 5.515625 40.671875 12.859375 48.328125 
Q 20.21875 56 33.015625 56 
Q 37.15625 56 41.109375 55.140625 
Q 45.0625 54.296875 48.78125 52.59375 
z
" id="DejaVuSans-99"/>
        <path d="M 18.3125 70.21875 
L 18.3125 54.6875 
L 36.8125 54.6875 
L 36.8125 47.703125 
L 18.3125 47.703125 
L 18.3125 18.015625 
Q 18.3125 11.328125 20.140625 9.421875 
Q 21.96875 7.515625 27.59375 7.515625 
L 36.8125 7.515625 
L 36.8125 0 
L 27.59375 0 
Q 17.1875 0 13.234375 3.875 
Q 9.28125 7.765625 9.28125 18.015625 
L 9.28125 47.703125 
L 2.6875 47.703125 
L 2.6875 54.6875 
L 9.28125 54.6875 
L 9.28125 70.21875 
z
" id="DejaVuSans-116"/>
       </defs>
       <use xlink:href="#DejaVuSans-79"/>
       <use x="78.710938" xlink:href="#DejaVuSans-99"/>
       <use x="133.691406" xlink:href="#DejaVuSans-116"/>
      </g>
     </g>
    </g>
    <g id="xtick_9">
     <g id="line2d_9">
      <g>
       <use style="stroke:#000000;stroke-width:0.8;" x="473.944954" xlink:href="#mf65673e5fc" y="315"/>
      </g>
     </g>
     <g id="text_8">
      <!-- Nov -->
      <g transform="translate(464.185579 329.598437)scale(0.1 -0.1)">
       <defs>
        <path d="M 9.8125 72.90625 
L 23.09375 72.90625 
L 55.421875 11.921875 
L 55.421875 72.90625 
L 64.984375 72.90625 
L 64.984375 0 
L 51.703125 0 
L 19.390625 60.984375 
L 19.390625 0 
L 9.8125 0 
z
" id="DejaVuSans-78"/>
        <path d="M 30.609375 48.390625 
Q 23.390625 48.390625 19.1875 42.75 
Q 14.984375 37.109375 14.984375 27.296875 
Q 14.984375 17.484375 19.15625 11.84375 
Q 23.34375 6.203125 30.609375 6.203125 
Q 37.796875 6.203125 41.984375 11.859375 
Q 46.1875 17.53125 46.1875 27.296875 
Q 46.1875 37.015625 41.984375 42.703125 
Q 37.796875 48.390625 30.609375 48.390625 
z
M 30.609375 56 
Q 42.328125 56 49.015625 48.375 
Q 55.71875 40.765625 55.71875 27.296875 
Q 55.71875 13.875 49.015625 6.21875 
Q 42.328125 -1.421875 30.609375 -1.421875 
Q 18.84375 -1.421875 12.171875 6.21875 
Q 5.515625 13.875 5.515625 27.296875 
Q 5.515625 40.765625 12.171875 48.375 
Q 18.84375 56 30.609375 56 
z
" id="DejaVuSans-111"/>
        <path d="M 2.984375 54.6875 
L 12.5 54.6875 
L 29.59375 8.796875 
L 46.6875 54.6875 
L 56.203125 54.6875 
L 35.6875 0 
L 23.484375 0 
z
" id="DejaVuSans-118"/>
       </defs>
       <use xlink:href="#DejaVuSans-78"/>
       <use x="74.804688" xlink:href="#DejaVuSans-111"/>
       <use x="135.986328" xlink:href="#DejaVuSans-118"/>
      </g>
     </g>
    </g>
    <g id="xtick_10">
     <g id="line2d_10">
      <g>
       <use style="stroke:#000000;stroke-width:0.8;" x="525.137615" xlink:href="#mf65673e5fc" y="315"/>
      </g>
     </g>
     <g id="text_9">
      <!-- Dec -->
      <g transform="translate(515.461833 329.598437)scale(0.1 -0.1)">
       <defs>
        <path d="M 19.671875 64.796875 
L 19.671875 8.109375 
L 31.59375 8.109375 
Q 46.6875 8.109375 53.6875 14.9375 
Q 60.6875 21.78125 60.6875 36.53125 
Q 60.6875 51.171875 53.6875 57.984375 
Q 46.6875 64.796875 31.59375 64.796875 
z
M 9.8125 72.90625 
L 30.078125 72.90625 
Q 51.265625 72.90625 61.171875 64.09375 
Q 71.09375 55.28125 71.09375 36.53125 
Q 71.09375 17.671875 61.125 8.828125 
Q 51.171875 0 30.078125 0 
L 9.8125 0 
z
" id="DejaVuSans-68"/>
       </defs>
       <use xlink:href="#DejaVuSans-68"/>
       <use x="77.001953" xlink:href="#DejaVuSans-101"/>
       <use x="138.525391" xlink:href="#DejaVuSans-99"/>
      </g>
     </g>
    </g>
    <g id="xtick_11">
     <g id="line2d_11">
      <g>
       <use style="stroke:#000000;stroke-width:0.8;" x="578.036697" xlink:href="#mf65673e5fc" y="315"/>
      </g>
     </g>
     <g id="text_10">
      <!-- Jan -->
      <g transform="translate(570.328885 329.598437)scale(0.1 -0.1)">
       <use xlink:href="#DejaVuSans-74"/>
       <use x="29.492188" xlink:href="#DejaVuSans-97"/>
       <use x="90.771484" xlink:href="#DejaVuSans-110"/>
      </g>
      <!-- 2021 -->
      <g transform="translate(565.311697 340.79625)scale(0.1 -0.1)">
       <defs>
        <path d="M 19.1875 8.296875 
L 53.609375 8.296875 
L 53.609375 0 
L 7.328125 0 
L 7.328125 8.296875 
Q 12.9375 14.109375 22.625 23.890625 
Q 32.328125 33.6875 34.8125 36.53125 
Q 39.546875 41.84375 41.421875 45.53125 
Q 43.3125 49.21875 43.3125 52.78125 
Q 43.3125 58.59375 39.234375 62.25 
Q 35.15625 65.921875 28.609375 65.921875 
Q 23.96875 65.921875 18.8125 64.3125 
Q 13.671875 62.703125 7.8125 59.421875 
L 7.8125 69.390625 
Q 13.765625 71.78125 18.9375 73 
Q 24.125 74.21875 28.421875 74.21875 
Q 39.75 74.21875 46.484375 68.546875 
Q 53.21875 62.890625 53.21875 53.421875 
Q 53.21875 48.921875 51.53125 44.890625 
Q 49.859375 40.875 45.40625 35.40625 
Q 44.1875 33.984375 37.640625 27.21875 
Q 31.109375 20.453125 19.1875 8.296875 
z
" id="DejaVuSans-50"/>
        <path d="M 31.78125 66.40625 
Q 24.171875 66.40625 20.328125 58.90625 
Q 16.5 51.421875 16.5 36.375 
Q 16.5 21.390625 20.328125 13.890625 
Q 24.171875 6.390625 31.78125 6.390625 
Q 39.453125 6.390625 43.28125 13.890625 
Q 47.125 21.390625 47.125 36.375 
Q 47.125 51.421875 43.28125 58.90625 
Q 39.453125 66.40625 31.78125 66.40625 
z
M 31.78125 74.21875 
Q 44.046875 74.21875 50.515625 64.515625 
Q 56.984375 54.828125 56.984375 36.375 
Q 56.984375 17.96875 50.515625 8.265625 
Q 44.046875 -1.421875 31.78125 -1.421875 
Q 19.53125 -1.421875 13.0625 8.265625 
Q 6.59375 17.96875 6.59375 36.375 
Q 6.59375 54.828125 13.0625 64.515625 
Q 19.53125 74.21875 31.78125 74.21875 
z
" id="DejaVuSans-48"/>
        <path d="M 12.40625 8.296875 
L 28.515625 8.296875 
L 28.515625 63.921875 
L 10.984375 60.40625 
L 10.984375 69.390625 
L 28.421875 72.90625 
L 38.28125 72.90625 
L 38.28125 8.296875 
L 54.390625 8.296875 
L 54.390625 0 
L 12.40625 0 
z
" id="DejaVuSans-49"/>
       </defs>
       <use xlink:href="#DejaVuSans-50"/>
       <use x="63.623047" xlink:href="#DejaVuSans-48"/>
       <use x="127.246094" xlink:href="#DejaVuSans-50"/>
       <use x="190.869141" xlink:href="#DejaVuSans-49"/>
      </g>
     </g>
    </g>
    <g id="xtick_12">
     <g id="line2d_12">
      <g>
       <use style="stroke:#000000;stroke-width:0.8;" x="630.93578" xlink:href="#mf65673e5fc" y="315"/>
      </g>
     </g>
     <g id="text_11">
      <!-- Feb -->
      <g transform="translate(622.084217 329.598437)scale(0.1 -0.1)">
       <defs>
        <path d="M 9.8125 72.90625 
L 51.703125 72.90625 
L 51.703125 64.59375 
L 19.671875 64.59375 
L 19.671875 43.109375 
L 48.578125 43.109375 
L 48.578125 34.8125 
L 19.671875 34.8125 
L 19.671875 0 
L 9.8125 0 
z
" id="DejaVuSans-70"/>
        <path d="M 48.6875 27.296875 
Q 48.6875 37.203125 44.609375 42.84375 
Q 40.53125 48.484375 33.40625 48.484375 
Q 26.265625 48.484375 22.1875 42.84375 
Q 18.109375 37.203125 18.109375 27.296875 
Q 18.109375 17.390625 22.1875 11.75 
Q 26.265625 6.109375 33.40625 6.109375 
Q 40.53125 6.109375 44.609375 11.75 
Q 48.6875 17.390625 48.6875 27.296875 
z
M 18.109375 46.390625 
Q 20.953125 51.265625 25.265625 53.625 
Q 29.59375 56 35.59375 56 
Q 45.5625 56 51.78125 48.09375 
Q 58.015625 40.1875 58.015625 27.296875 
Q 58.015625 14.40625 51.78125 6.484375 
Q 45.5625 -1.421875 35.59375 -1.421875 
Q 29.59375 -1.421875 25.265625 0.953125 
Q 20.953125 3.328125 18.109375 8.203125 
L 18.109375 0 
L 9.078125 0 
L 9.078125 75.984375 
L 18.109375 75.984375 
z
" id="DejaVuSans-98"/>
       </defs>
       <use xlink:href="#DejaVuSans-70"/>
       <use x="52.019531" xlink:href="#DejaVuSans-101"/>
       <use x="113.542969" xlink:href="#DejaVuSans-98"/>
      </g>
     </g>
    </g>
    <g id="xtick_13">
     <g id="line2d_13">
      <g>
       <use style="stroke:#000000;stroke-width:0.8;" x="648" xlink:href="#mf65673e5fc" y="315"/>
      </g>
     </g>
    </g>
    <g id="xtick_14">
     <g id="line2d_14">
      <defs>
       <path d="M 0 0 
L 0 2 
" id="mfa3f31c7b6" style="stroke:#000000;stroke-width:0.6;"/>
      </defs>
      <g>
       <use style="stroke:#000000;stroke-width:0.6;" x="93.412844" xlink:href="#mfa3f31c7b6" y="315"/>
      </g>
     </g>
    </g>
    <g id="xtick_15">
     <g id="line2d_15">
      <g>
       <use style="stroke:#000000;stroke-width:0.6;" x="105.357798" xlink:href="#mfa3f31c7b6" y="315"/>
      </g>
     </g>
    </g>
    <g id="xtick_16">
     <g id="line2d_16">
      <g>
       <use style="stroke:#000000;stroke-width:0.6;" x="117.302752" xlink:href="#mfa3f31c7b6" y="315"/>
      </g>
     </g>
    </g>
    <g id="xtick_17">
     <g id="line2d_17">
      <g>
       <use style="stroke:#000000;stroke-width:0.6;" x="129.247706" xlink:href="#mfa3f31c7b6" y="315"/>
      </g>
     </g>
    </g>
    <g id="xtick_18">
     <g id="line2d_18">
      <g>
       <use style="stroke:#000000;stroke-width:0.6;" x="141.192661" xlink:href="#mfa3f31c7b6" y="315"/>
      </g>
     </g>
    </g>
    <g id="xtick_19">
     <g id="line2d_19">
      <g>
       <use style="stroke:#000000;stroke-width:0.6;" x="153.137615" xlink:href="#mfa3f31c7b6" y="315"/>
      </g>
     </g>
    </g>
    <g id="xtick_20">
     <g id="line2d_20">
      <g>
       <use style="stroke:#000000;stroke-width:0.6;" x="165.082569" xlink:href="#mfa3f31c7b6" y="315"/>
      </g>
     </g>
    </g>
    <g id="xtick_21">
     <g id="line2d_21">
      <g>
       <use style="stroke:#000000;stroke-width:0.6;" x="177.027523" xlink:href="#mfa3f31c7b6" y="315"/>
      </g>
     </g>
    </g>
    <g id="xtick_22">
     <g id="line2d_22">
      <g>
       <use style="stroke:#000000;stroke-width:0.6;" x="188.972477" xlink:href="#mfa3f31c7b6" y="315"/>
      </g>
     </g>
    </g>
    <g id="xtick_23">
     <g id="line2d_23">
      <g>
       <use style="stroke:#000000;stroke-width:0.6;" x="200.917431" xlink:href="#mfa3f31c7b6" y="315"/>
      </g>
     </g>
    </g>
    <g id="xtick_24">
     <g id="line2d_24">
      <g>
       <use style="stroke:#000000;stroke-width:0.6;" x="224.807339" xlink:href="#mfa3f31c7b6" y="315"/>
      </g>
     </g>
    </g>
    <g id="xtick_25">
     <g id="line2d_25">
      <g>
       <use style="stroke:#000000;stroke-width:0.6;" x="236.752294" xlink:href="#mfa3f31c7b6" y="315"/>
      </g>
     </g>
    </g>
    <g id="xtick_26">
     <g id="line2d_26">
      <g>
       <use style="stroke:#000000;stroke-width:0.6;" x="248.697248" xlink:href="#mfa3f31c7b6" y="315"/>
      </g>
     </g>
    </g>
    <g id="xtick_27">
     <g id="line2d_27">
      <g>
       <use style="stroke:#000000;stroke-width:0.6;" x="260.642202" xlink:href="#mfa3f31c7b6" y="315"/>
      </g>
     </g>
    </g>
    <g id="xtick_28">
     <g id="line2d_28">
      <g>
       <use style="stroke:#000000;stroke-width:0.6;" x="272.587156" xlink:href="#mfa3f31c7b6" y="315"/>
      </g>
     </g>
    </g>
    <g id="xtick_29">
     <g id="line2d_29">
      <g>
       <use style="stroke:#000000;stroke-width:0.6;" x="284.53211" xlink:href="#mfa3f31c7b6" y="315"/>
      </g>
     </g>
    </g>
    <g id="xtick_30">
     <g id="line2d_30">
      <g>
       <use style="stroke:#000000;stroke-width:0.6;" x="296.477064" xlink:href="#mfa3f31c7b6" y="315"/>
      </g>
     </g>
    </g>
    <g id="xtick_31">
     <g id="line2d_31">
      <g>
       <use style="stroke:#000000;stroke-width:0.6;" x="308.422018" xlink:href="#mfa3f31c7b6" y="315"/>
      </g>
     </g>
    </g>
    <g id="xtick_32">
     <g id="line2d_32">
      <g>
       <use style="stroke:#000000;stroke-width:0.6;" x="320.366972" xlink:href="#mfa3f31c7b6" y="315"/>
      </g>
     </g>
    </g>
    <g id="xtick_33">
     <g id="line2d_33">
      <g>
       <use style="stroke:#000000;stroke-width:0.6;" x="332.311927" xlink:href="#mfa3f31c7b6" y="315"/>
      </g>
     </g>
    </g>
    <g id="xtick_34">
     <g id="line2d_34">
      <g>
       <use style="stroke:#000000;stroke-width:0.6;" x="344.256881" xlink:href="#mfa3f31c7b6" y="315"/>
      </g>
     </g>
    </g>
    <g id="xtick_35">
     <g id="line2d_35">
      <g>
       <use style="stroke:#000000;stroke-width:0.6;" x="356.201835" xlink:href="#mfa3f31c7b6" y="315"/>
      </g>
     </g>
    </g>
    <g id="xtick_36">
     <g id="line2d_36">
      <g>
       <use style="stroke:#000000;stroke-width:0.6;" x="368.146789" xlink:href="#mfa3f31c7b6" y="315"/>
      </g>
     </g>
    </g>
    <g id="xtick_37">
     <g id="line2d_37">
      <g>
       <use style="stroke:#000000;stroke-width:0.6;" x="380.091743" xlink:href="#mfa3f31c7b6" y="315"/>
      </g>
     </g>
    </g>
    <g id="xtick_38">
     <g id="line2d_38">
      <g>
       <use style="stroke:#000000;stroke-width:0.6;" x="392.036697" xlink:href="#mfa3f31c7b6" y="315"/>
      </g>
     </g>
    </g>
    <g id="xtick_39">
     <g id="line2d_39">
      <g>
       <use style="stroke:#000000;stroke-width:0.6;" x="403.981651" xlink:href="#mfa3f31c7b6" y="315"/>
      </g>
     </g>
    </g>
    <g id="xtick_40">
     <g id="line2d_40">
      <g>
       <use style="stroke:#000000;stroke-width:0.6;" x="415.926606" xlink:href="#mfa3f31c7b6" y="315"/>
      </g>
     </g>
    </g>
    <g id="xtick_41">
     <g id="line2d_41">
      <g>
       <use style="stroke:#000000;stroke-width:0.6;" x="427.87156" xlink:href="#mfa3f31c7b6" y="315"/>
      </g>
     </g>
    </g>
    <g id="xtick_42">
     <g id="line2d_42">
      <g>
       <use style="stroke:#000000;stroke-width:0.6;" x="439.816514" xlink:href="#mfa3f31c7b6" y="315"/>
      </g>
     </g>
    </g>
    <g id="xtick_43">
     <g id="line2d_43">
      <g>
       <use style="stroke:#000000;stroke-width:0.6;" x="451.761468" xlink:href="#mfa3f31c7b6" y="315"/>
      </g>
     </g>
    </g>
    <g id="xtick_44">
     <g id="line2d_44">
      <g>
       <use style="stroke:#000000;stroke-width:0.6;" x="463.706422" xlink:href="#mfa3f31c7b6" y="315"/>
      </g>
     </g>
    </g>
    <g id="xtick_45">
     <g id="line2d_45">
      <g>
       <use style="stroke:#000000;stroke-width:0.6;" x="475.651376" xlink:href="#mfa3f31c7b6" y="315"/>
      </g>
     </g>
    </g>
    <g id="xtick_46">
     <g id="line2d_46">
      <g>
       <use style="stroke:#000000;stroke-width:0.6;" x="487.59633" xlink:href="#mfa3f31c7b6" y="315"/>
      </g>
     </g>
    </g>
    <g id="xtick_47">
     <g id="line2d_47">
      <g>
       <use style="stroke:#000000;stroke-width:0.6;" x="499.541284" xlink:href="#mfa3f31c7b6" y="315"/>
      </g>
     </g>
    </g>
    <g id="xtick_48">
     <g id="line2d_48">
      <g>
       <use style="stroke:#000000;stroke-width:0.6;" x="511.486239" xlink:href="#mfa3f31c7b6" y="315"/>
      </g>
     </g>
    </g>
    <g id="xtick_49">
     <g id="line2d_49">
      <g>
       <use style="stroke:#000000;stroke-width:0.6;" x="523.431193" xlink:href="#mfa3f31c7b6" y="315"/>
      </g>
     </g>
    </g>
    <g id="xtick_50">
     <g id="line2d_50">
      <g>
       <use style="stroke:#000000;stroke-width:0.6;" x="535.376147" xlink:href="#mfa3f31c7b6" y="315"/>
      </g>
     </g>
    </g>
    <g id="xtick_51">
     <g id="line2d_51">
      <g>
       <use style="stroke:#000000;stroke-width:0.6;" x="547.321101" xlink:href="#mfa3f31c7b6" y="315"/>
      </g>
     </g>
    </g>
    <g id="xtick_52">
     <g id="line2d_52">
      <g>
       <use style="stroke:#000000;stroke-width:0.6;" x="559.266055" xlink:href="#mfa3f31c7b6" y="315"/>
      </g>
     </g>
    </g>
    <g id="xtick_53">
     <g id="line2d_53">
      <g>
       <use style="stroke:#000000;stroke-width:0.6;" x="571.211009" xlink:href="#mfa3f31c7b6" y="315"/>
      </g>
     </g>
    </g>
    <g id="xtick_54">
     <g id="line2d_54">
      <g>
       <use style="stroke:#000000;stroke-width:0.6;" x="583.155963" xlink:href="#mfa3f31c7b6" y="315"/>
      </g>
     </g>
    </g>
    <g id="xtick_55">
     <g id="line2d_55">
      <g>
       <use style="stroke:#000000;stroke-width:0.6;" x="595.100917" xlink:href="#mfa3f31c7b6" y="315"/>
      </g>
     </g>
    </g>
    <g id="xtick_56">
     <g id="line2d_56">
      <g>
       <use style="stroke:#000000;stroke-width:0.6;" x="607.045872" xlink:href="#mfa3f31c7b6" y="315"/>
      </g>
     </g>
    </g>
    <g id="xtick_57">
     <g id="line2d_57">
      <g>
       <use style="stroke:#000000;stroke-width:0.6;" x="618.990826" xlink:href="#mfa3f31c7b6" y="315"/>
      </g>
     </g>
    </g>
    <g id="xtick_58">
     <g id="line2d_58">
      <g>
       <use style="stroke:#000000;stroke-width:0.6;" x="642.880734" xlink:href="#mfa3f31c7b6" y="315"/>
      </g>
     </g>
    </g>
    <g id="text_12">
     <!-- date -->
     <g transform="translate(357.725 354.474375)scale(0.1 -0.1)">
      <defs>
       <path d="M 45.40625 46.390625 
L 45.40625 75.984375 
L 54.390625 75.984375 
L 54.390625 0 
L 45.40625 0 
L 45.40625 8.203125 
Q 42.578125 3.328125 38.25 0.953125 
Q 33.9375 -1.421875 27.875 -1.421875 
Q 17.96875 -1.421875 11.734375 6.484375 
Q 5.515625 14.40625 5.515625 27.296875 
Q 5.515625 40.1875 11.734375 48.09375 
Q 17.96875 56 27.875 56 
Q 33.9375 56 38.25 53.625 
Q 42.578125 51.265625 45.40625 46.390625 
z
M 14.796875 27.296875 
Q 14.796875 17.390625 18.875 11.75 
Q 22.953125 6.109375 30.078125 6.109375 
Q 37.203125 6.109375 41.296875 11.75 
Q 45.40625 17.390625 45.40625 27.296875 
Q 45.40625 37.203125 41.296875 42.84375 
Q 37.203125 48.484375 30.078125 48.484375 
Q 22.953125 48.484375 18.875 42.84375 
Q 14.796875 37.203125 14.796875 27.296875 
z
" id="DejaVuSans-100"/>
      </defs>
      <use xlink:href="#DejaVuSans-100"/>
      <use x="63.476562" xlink:href="#DejaVuSans-97"/>
      <use x="124.755859" xlink:href="#DejaVuSans-116"/>
      <use x="163.964844" xlink:href="#DejaVuSans-101"/>
     </g>
    </g>
   </g>
   <g id="matplotlib.axis_2">
    <g id="ytick_1">
     <g id="line2d_59">
      <path clip-path="url(#p2e821e448e)" d="M 90 285.16661 
L 648 285.16661 
" style="fill:none;stroke:#b0b0b0;stroke-dasharray:0.8,1.32;stroke-dashoffset:0;stroke-width:0.8;"/>
     </g>
     <g id="line2d_60">
      <defs>
       <path d="M 0 0 
L -3.5 0 
" id="mcaa0efaea4" style="stroke:#000000;stroke-width:0.8;"/>
      </defs>
      <g>
       <use style="stroke:#000000;stroke-width:0.8;" x="90" xlink:href="#mcaa0efaea4" y="285.16661"/>
      </g>
     </g>
     <g id="text_13">
      <!-- 0.50 -->
      <g transform="translate(60.734375 288.965829)scale(0.1 -0.1)">
       <defs>
        <path d="M 10.6875 12.40625 
L 21 12.40625 
L 21 0 
L 10.6875 0 
z
" id="DejaVuSans-46"/>
        <path d="M 10.796875 72.90625 
L 49.515625 72.90625 
L 49.515625 64.59375 
L 19.828125 64.59375 
L 19.828125 46.734375 
Q 21.96875 47.46875 24.109375 47.828125 
Q 26.265625 48.1875 28.421875 48.1875 
Q 40.625 48.1875 47.75 41.5 
Q 54.890625 34.8125 54.890625 23.390625 
Q 54.890625 11.625 47.5625 5.09375 
Q 40.234375 -1.421875 26.90625 -1.421875 
Q 22.3125 -1.421875 17.546875 -0.640625 
Q 12.796875 0.140625 7.71875 1.703125 
L 7.71875 11.625 
Q 12.109375 9.234375 16.796875 8.0625 
Q 21.484375 6.890625 26.703125 6.890625 
Q 35.15625 6.890625 40.078125 11.328125 
Q 45.015625 15.765625 45.015625 23.390625 
Q 45.015625 31 40.078125 35.4375 
Q 35.15625 39.890625 26.703125 39.890625 
Q 22.75 39.890625 18.8125 39.015625 
Q 14.890625 38.140625 10.796875 36.28125 
z
" id="DejaVuSans-53"/>
       </defs>
       <use xlink:href="#DejaVuSans-48"/>
       <use x="63.623047" xlink:href="#DejaVuSans-46"/>
       <use x="95.410156" xlink:href="#DejaVuSans-53"/>
       <use x="159.033203" xlink:href="#DejaVuSans-48"/>
      </g>
     </g>
    </g>
    <g id="ytick_2">
     <g id="line2d_61">
      <path clip-path="url(#p2e821e448e)" d="M 90 251.428156 
L 648 251.428156 
" style="fill:none;stroke:#b0b0b0;stroke-dasharray:0.8,1.32;stroke-dashoffset:0;stroke-width:0.8;"/>
     </g>
     <g id="line2d_62">
      <g>
       <use style="stroke:#000000;stroke-width:0.8;" x="90" xlink:href="#mcaa0efaea4" y="251.428156"/>
      </g>
     </g>
     <g id="text_14">
      <!-- 0.75 -->
      <g transform="translate(60.734375 255.227374)scale(0.1 -0.1)">
       <defs>
        <path d="M 8.203125 72.90625 
L 55.078125 72.90625 
L 55.078125 68.703125 
L 28.609375 0 
L 18.3125 0 
L 43.21875 64.59375 
L 8.203125 64.59375 
z
" id="DejaVuSans-55"/>
       </defs>
       <use xlink:href="#DejaVuSans-48"/>
       <use x="63.623047" xlink:href="#DejaVuSans-46"/>
       <use x="95.410156" xlink:href="#DejaVuSans-55"/>
       <use x="159.033203" xlink:href="#DejaVuSans-53"/>
      </g>
     </g>
    </g>
    <g id="ytick_3">
     <g id="line2d_63">
      <path clip-path="url(#p2e821e448e)" d="M 90 217.689701 
L 648 217.689701 
" style="fill:none;stroke:#b0b0b0;stroke-dasharray:0.8,1.32;stroke-dashoffset:0;stroke-width:0.8;"/>
     </g>
     <g id="line2d_64">
      <g>
       <use style="stroke:#000000;stroke-width:0.8;" x="90" xlink:href="#mcaa0efaea4" y="217.689701"/>
      </g>
     </g>
     <g id="text_15">
      <!-- 1.00 -->
      <g transform="translate(60.734375 221.48892)scale(0.1 -0.1)">
       <use xlink:href="#DejaVuSans-49"/>
       <use x="63.623047" xlink:href="#DejaVuSans-46"/>
       <use x="95.410156" xlink:href="#DejaVuSans-48"/>
       <use x="159.033203" xlink:href="#DejaVuSans-48"/>
      </g>
     </g>
    </g>
    <g id="ytick_4">
     <g id="line2d_65">
      <path clip-path="url(#p2e821e448e)" d="M 90 183.951246 
L 648 183.951246 
" style="fill:none;stroke:#b0b0b0;stroke-dasharray:0.8,1.32;stroke-dashoffset:0;stroke-width:0.8;"/>
     </g>
     <g id="line2d_66">
      <g>
       <use style="stroke:#000000;stroke-width:0.8;" x="90" xlink:href="#mcaa0efaea4" y="183.951246"/>
      </g>
     </g>
     <g id="text_16">
      <!-- 1.25 -->
      <g transform="translate(60.734375 187.750465)scale(0.1 -0.1)">
       <use xlink:href="#DejaVuSans-49"/>
       <use x="63.623047" xlink:href="#DejaVuSans-46"/>
       <use x="95.410156" xlink:href="#DejaVuSans-50"/>
       <use x="159.033203" xlink:href="#DejaVuSans-53"/>
      </g>
     </g>
    </g>
    <g id="ytick_5">
     <g id="line2d_67">
      <path clip-path="url(#p2e821e448e)" d="M 90 150.212792 
L 648 150.212792 
" style="fill:none;stroke:#b0b0b0;stroke-dasharray:0.8,1.32;stroke-dashoffset:0;stroke-width:0.8;"/>
     </g>
     <g id="line2d_68">
      <g>
       <use style="stroke:#000000;stroke-width:0.8;" x="90" xlink:href="#mcaa0efaea4" y="150.212792"/>
      </g>
     </g>
     <g id="text_17">
      <!-- 1.50 -->
      <g transform="translate(60.734375 154.012011)scale(0.1 -0.1)">
       <use xlink:href="#DejaVuSans-49"/>
       <use x="63.623047" xlink:href="#DejaVuSans-46"/>
       <use x="95.410156" xlink:href="#DejaVuSans-53"/>
       <use x="159.033203" xlink:href="#DejaVuSans-48"/>
      </g>
     </g>
    </g>
    <g id="ytick_6">
     <g id="line2d_69">
      <path clip-path="url(#p2e821e448e)" d="M 90 116.474337 
L 648 116.474337 
" style="fill:none;stroke:#b0b0b0;stroke-dasharray:0.8,1.32;stroke-dashoffset:0;stroke-width:0.8;"/>
     </g>
     <g id="line2d_70">
      <g>
       <use style="stroke:#000000;stroke-width:0.8;" x="90" xlink:href="#mcaa0efaea4" y="116.474337"/>
      </g>
     </g>
     <g id="text_18">
      <!-- 1.75 -->
      <g transform="translate(60.734375 120.273556)scale(0.1 -0.1)">
       <use xlink:href="#DejaVuSans-49"/>
       <use x="63.623047" xlink:href="#DejaVuSans-46"/>
       <use x="95.410156" xlink:href="#DejaVuSans-55"/>
       <use x="159.033203" xlink:href="#DejaVuSans-53"/>
      </g>
     </g>
    </g>
    <g id="ytick_7">
     <g id="line2d_71">
      <path clip-path="url(#p2e821e448e)" d="M 90 82.735883 
L 648 82.735883 
" style="fill:none;stroke:#b0b0b0;stroke-dasharray:0.8,1.32;stroke-dashoffset:0;stroke-width:0.8;"/>
     </g>
     <g id="line2d_72">
      <g>
       <use style="stroke:#000000;stroke-width:0.8;" x="90" xlink:href="#mcaa0efaea4" y="82.735883"/>
      </g>
     </g>
     <g id="text_19">
      <!-- 2.00 -->
      <g transform="translate(60.734375 86.535102)scale(0.1 -0.1)">
       <use xlink:href="#DejaVuSans-50"/>
       <use x="63.623047" xlink:href="#DejaVuSans-46"/>
       <use x="95.410156" xlink:href="#DejaVuSans-48"/>
       <use x="159.033203" xlink:href="#DejaVuSans-48"/>
      </g>
     </g>
    </g>
    <g id="ytick_8">
     <g id="line2d_73">
      <path clip-path="url(#p2e821e448e)" d="M 90 48.997428 
L 648 48.997428 
" style="fill:none;stroke:#b0b0b0;stroke-dasharray:0.8,1.32;stroke-dashoffset:0;stroke-width:0.8;"/>
     </g>
     <g id="line2d_74">
      <g>
       <use style="stroke:#000000;stroke-width:0.8;" x="90" xlink:href="#mcaa0efaea4" y="48.997428"/>
      </g>
     </g>
     <g id="text_20">
      <!-- 2.25 -->
      <g transform="translate(60.734375 52.796647)scale(0.1 -0.1)">
       <use xlink:href="#DejaVuSans-50"/>
       <use x="63.623047" xlink:href="#DejaVuSans-46"/>
       <use x="95.410156" xlink:href="#DejaVuSans-50"/>
       <use x="159.033203" xlink:href="#DejaVuSans-53"/>
      </g>
     </g>
    </g>
   </g>
   <g id="line2d_75">
    <path clip-path="url(#p2e821e448e)" d="M 90 280.365956 
L 91.706422 279.74083 
L 95.119266 278.220786 
L 96.825688 277.005254 
L 98.53211 276.985672 
L 101.944954 275.554925 
L 103.651376 274.437566 
L 105.357798 272.557156 
L 107.06422 271.339106 
L 108.770642 270.805384 
L 110.477064 269.38389 
L 112.183486 268.861257 
L 113.889908 267.058397 
L 115.59633 266.089172 
L 117.302752 264.701394 
L 119.009174 264.399556 
L 120.715596 264.523706 
L 122.422018 263.944965 
L 124.12844 263.209865 
L 125.834862 262.809188 
L 127.541284 262.771782 
L 129.247706 261.262612 
L 130.954128 260.875161 
L 134.366972 258.891556 
L 136.073394 258.898684 
L 137.779817 257.130285 
L 139.486239 256.009124 
L 141.192661 255.552353 
L 142.899083 254.247062 
L 144.605505 253.238093 
L 146.311927 251.906048 
L 148.018349 250.928154 
L 149.724771 250.245326 
L 151.431193 248.439058 
L 153.137615 246.314576 
L 154.844037 243.526449 
L 156.550459 242.878444 
L 158.256881 240.83146 
L 161.669725 235.869489 
L 163.376147 233.711789 
L 165.082569 231.321334 
L 166.788991 227.620894 
L 168.495413 224.997389 
L 170.201835 222.149816 
L 171.908257 218.161457 
L 173.614679 214.840689 
L 175.321101 211.929735 
L 177.027523 207.391615 
L 178.733945 204.043751 
L 180.440367 199.137521 
L 182.146789 195.635073 
L 183.853211 189.918861 
L 185.559633 186.214057 
L 187.266055 181.955537 
L 188.972477 176.520253 
L 190.678899 173.199258 
L 192.385321 166.923945 
L 194.091743 162.151543 
L 195.798165 156.077945 
L 197.504587 152.161407 
L 199.211009 148.996329 
L 202.623853 138.447823 
L 204.330275 135.628686 
L 206.036697 130.721605 
L 209.449541 123.115718 
L 211.155963 120.519132 
L 212.862385 116.494531 
L 214.568807 112.105847 
L 216.275229 108.971339 
L 217.981651 104.571754 
L 219.688073 102.625187 
L 221.394495 100.173727 
L 223.100917 100.393761 
L 226.513761 97.763623 
L 228.220183 97.304242 
L 229.926606 98.752967 
L 231.633028 101.909277 
L 233.33945 103.469072 
L 236.752294 113.732901 
L 238.458716 119.381664 
L 240.165138 125.977137 
L 241.87156 134.192022 
L 243.577982 140.102244 
L 245.284404 147.700418 
L 246.990826 154.562687 
L 248.697248 160.296088 
L 250.40367 168.713636 
L 252.110092 173.06507 
L 253.816514 178.274872 
L 255.522936 182.587453 
L 257.229358 186.382047 
L 258.93578 188.54745 
L 260.642202 191.032981 
L 262.348624 193.299944 
L 267.46789 201.041342 
L 269.174312 202.944376 
L 270.880734 205.405001 
L 272.587156 206.870326 
L 274.293578 209.313521 
L 276 210.505656 
L 277.706422 212.53998 
L 279.412844 213.501406 
L 281.119266 214.220355 
L 282.825688 213.577091 
L 286.238532 213.009248 
L 287.944954 212.587546 
L 289.651376 212.332578 
L 291.357798 210.693772 
L 293.06422 210.657728 
L 294.770642 209.716395 
L 296.477064 210.19083 
L 299.889908 209.051982 
L 301.59633 210.019795 
L 303.302752 209.795726 
L 305.009174 210.599241 
L 306.715596 210.72106 
L 308.422018 211.403004 
L 311.834862 214.03026 
L 313.541284 214.712128 
L 315.247706 215.256334 
L 316.954128 215.494759 
L 320.366972 215.337569 
L 322.073394 215.933148 
L 323.779817 213.591712 
L 327.192661 209.469089 
L 328.899083 206.370413 
L 330.605505 202.662974 
L 334.018349 192.924953 
L 335.724771 187.637752 
L 337.431193 181.161907 
L 339.137615 175.6564 
L 340.844037 169.762606 
L 342.550459 165.497909 
L 344.256881 160.808692 
L 345.963303 157.168565 
L 347.669725 152.866599 
L 349.376147 151.342204 
L 351.082569 151.168715 
L 352.788991 151.202187 
L 354.495413 150.091897 
L 356.201835 151.97876 
L 357.908257 155.88845 
L 361.321101 165.937839 
L 364.733945 178.287787 
L 366.440367 185.525824 
L 368.146789 189.588841 
L 371.559633 199.138972 
L 373.266055 203.989825 
L 374.972477 207.533036 
L 376.678899 210.513343 
L 378.385321 214.940236 
L 380.091743 218.721411 
L 381.798165 220.795981 
L 385.211009 226.981006 
L 386.917431 229.408019 
L 388.623853 232.289811 
L 397.155963 248.308977 
L 398.862385 250.980028 
L 400.568807 253.112572 
L 402.275229 255.609929 
L 403.981651 258.374503 
L 405.688073 260.042845 
L 407.394495 262.557324 
L 410.807339 265.729466 
L 412.513761 266.621129 
L 414.220183 266.84226 
L 415.926606 267.367361 
L 417.633028 268.258077 
L 419.33945 268.408025 
L 421.045872 268.130089 
L 422.752294 268.796591 
L 424.458716 267.826835 
L 427.87156 266.634103 
L 429.577982 265.772415 
L 431.284404 264.251557 
L 434.697248 261.869452 
L 436.40367 260.174961 
L 439.816514 257.936711 
L 441.522936 256.017439 
L 443.229358 253.597622 
L 444.93578 251.484018 
L 446.642202 249.182489 
L 448.348624 246.680686 
L 450.055046 243.487915 
L 451.761468 241.146916 
L 453.46789 237.733556 
L 455.174312 234.720643 
L 456.880734 231.164663 
L 458.587156 226.663959 
L 462 220.282782 
L 465.412844 212.720701 
L 467.119266 210.254419 
L 468.825688 205.521126 
L 472.238532 199.506731 
L 473.944954 196.848981 
L 475.651376 194.788011 
L 479.06422 192.509996 
L 480.770642 189.900792 
L 482.477064 189.10129 
L 484.183486 189.12133 
L 485.889908 188.492055 
L 487.59633 188.866407 
L 489.302752 188.561218 
L 491.009174 188.644185 
L 492.715596 187.496595 
L 494.422018 189.220329 
L 496.12844 187.378832 
L 497.834862 188.6105 
L 499.541284 187.880174 
L 501.247706 186.4823 
L 504.66055 183.124262 
L 506.366972 182.265792 
L 508.073394 180.595884 
L 509.779817 176.919534 
L 511.486239 175.308155 
L 513.192661 172.121937 
L 514.899083 169.531535 
L 516.605505 167.334144 
L 518.311927 165.730502 
L 520.018349 163.511136 
L 521.724771 162.707272 
L 523.431193 160.406325 
L 525.137615 161.393318 
L 526.844037 162.159906 
L 528.550459 162.132589 
L 530.256881 163.175857 
L 531.963303 164.90063 
L 533.669725 167.912623 
L 535.376147 170.031648 
L 537.082569 171.873696 
L 538.788991 173.890809 
L 540.495413 175.594181 
L 545.614679 182.525608 
L 547.321101 183.79722 
L 549.027523 186.35747 
L 550.733945 187.447269 
L 552.440367 187.984183 
L 554.146789 190.10169 
L 555.853211 191.358027 
L 562.678899 203.938337 
L 564.385321 206.130309 
L 566.091743 210.149879 
L 569.504587 216.653184 
L 571.211009 220.765575 
L 572.917431 222.838095 
L 574.623853 224.649073 
L 576.330275 227.136393 
L 578.036697 229.202952 
L 579.743119 230.43277 
L 583.155963 232.10481 
L 584.862385 232.998902 
L 588.275229 232.002436 
L 589.981651 231.43108 
L 591.688073 230.400823 
L 593.394495 229.566985 
L 595.100917 228.580179 
L 596.807339 226.76775 
L 598.513761 225.154984 
L 600.220183 223.191386 
L 601.926606 221.864484 
L 603.633028 220.00179 
L 607.045872 216.660233 
L 608.752294 216.022729 
L 610.458716 215.856141 
L 612.165138 217.012423 
L 613.87156 217.329712 
L 615.577982 219.452794 
L 617.284404 220.625417 
L 618.990826 223.617172 
L 622.40367 230.08651 
L 624.110092 232.387291 
L 625.816514 236.011111 
L 627.522936 238.143155 
L 629.229358 241.318434 
L 630.93578 243.720238 
L 634.348624 247.665782 
L 636.055046 249.287216 
L 637.761468 251.388947 
L 639.46789 252.213966 
L 644.587156 254.111818 
L 646.293578 253.756796 
L 648 254.898571 
L 649.706422 254.806929 
L 651.412844 255.116512 
L 653.119266 255.155085 
L 654.825688 254.96471 
L 656.53211 253.231179 
L 658.238532 253.704011 
L 659.944954 253.84208 
L 661.651376 253.528292 
L 661.651376 253.528292 
" style="fill:none;stroke:#fc997a;stroke-linecap:square;stroke-width:1.5;"/>
   </g>
   <g id="line2d_76">
    <path clip-path="url(#p2e821e448e)" d="M 90 217.689701 
L 648 217.689701 
" style="fill:none;stroke:#000000;stroke-dasharray:3.7,1.6;stroke-dashoffset:0;"/>
   </g>
   <g id="patch_3">
    <path d="M 90 315 
L 90 43.2 
" style="fill:none;stroke:#000000;stroke-linecap:square;stroke-linejoin:miter;stroke-width:0.8;"/>
   </g>
   <g id="patch_4">
    <path d="M 648 315 
L 648 43.2 
" style="fill:none;stroke:#000000;stroke-linecap:square;stroke-linejoin:miter;stroke-width:0.8;"/>
   </g>
   <g id="patch_5">
    <path d="M 90 315 
L 648 315 
" style="fill:none;stroke:#000000;stroke-linecap:square;stroke-linejoin:miter;stroke-width:0.8;"/>
   </g>
   <g id="patch_6">
    <path d="M 90 43.2 
L 648 43.2 
" style="fill:none;stroke:#000000;stroke-linecap:square;stroke-linejoin:miter;stroke-width:0.8;"/>
   </g>
   <g id="text_21">
    <!-- 245   $R_t$ -->
    <g transform="translate(319.74 37.2)scale(0.12 -0.12)">
     <defs>
      <path d="M 37.796875 64.3125 
L 12.890625 25.390625 
L 37.796875 25.390625 
z
M 35.203125 72.90625 
L 47.609375 72.90625 
L 47.609375 25.390625 
L 58.015625 25.390625 
L 58.015625 17.1875 
L 47.609375 17.1875 
L 47.609375 0 
L 37.796875 0 
L 37.796875 17.1875 
L 4.890625 17.1875 
L 4.890625 26.703125 
z
" id="DejaVuSans-52"/>
      <path id="DejaVuSans-32"/>
      <path d="M 19.140625 33.40625 
L 19.140625 0 
L 10.109375 0 
L 10.109375 29.6875 
z
M 56.25 27.828125 
L 56.25 0 
L 47.21875 0 
L 47.21875 29.6875 
Q 47.21875 40.234375 44.0625 43.96875 
Q 40.921875 47.703125 31.84375 47.703125 
L 9.078125 47.703125 
L 9.078125 54.6875 
L 31.734375 54.6875 
Q 45.265625 54.6875 50.75 48.578125 
Q 56.25 42.484375 56.25 27.828125 
z
" id="DejaVuSans-1492"/>
      <path d="M 15.71875 54.6875 
L 15.71875 24.125 
L 6.640625 20.40625 
L 6.640625 54.6875 
z
" id="DejaVuSans-1497"/>
      <path d="M 47.359375 27.828125 
L 47.359375 0 
L 38.28125 0 
L 38.28125 27.828125 
Q 38.28125 31.390625 37.765625 34.265625 
Q 37.25 37.15625 36 39.71875 
Q 34.765625 42.28125 32.8125 43.984375 
Q 30.859375 45.703125 27.78125 46.703125 
Q 24.703125 47.703125 20.703125 47.703125 
L 4.296875 47.703125 
L 4.296875 54.6875 
L 20.65625 54.6875 
Q 26.8125 54.6875 31.46875 53.390625 
Q 36.140625 52.09375 39.109375 49.828125 
Q 42.09375 47.5625 43.96875 44.109375 
Q 45.84375 40.671875 46.59375 36.734375 
Q 47.359375 32.8125 47.359375 27.828125 
z
" id="DejaVuSans-1512"/>
      <path d="M 21.78125 6.984375 
L 21.78125 36.28125 
Q 21.78125 42.28125 19.328125 44.984375 
Q 16.890625 47.703125 11.71875 47.703125 
L 5.5625 47.703125 
L 5.5625 54.6875 
L 11.71875 54.6875 
Q 21.734375 54.6875 26.296875 50.359375 
Q 30.859375 46.046875 30.859375 35.25 
L 30.859375 0 
L 4.296875 0 
L 4.296875 6.984375 
z
" id="DejaVuSans-1504"/>
      <path d="M 18.171875 54.6875 
L 18.171875 0 
L 9.078125 0 
L 9.078125 54.6875 
z
" id="DejaVuSans-1493"/>
      <path d="M 30.328125 54.6875 
L 30.328125 47.703125 
L 26.421875 47.703125 
Q 22.171875 47.703125 20.578125 43.921875 
Q 19 40.140625 19 30.90625 
L 19 0 
L 9.90625 0 
L 9.90625 30.90625 
Q 9.90625 37.109375 11.78125 41.453125 
Q 13.671875 45.796875 16.40625 47.703125 
L 4.296875 47.703125 
L 4.296875 54.6875 
z
" id="DejaVuSans-1494"/>
      <path d="M 43.75 20.0625 
L 57.671875 0 
L 47.078125 0 
L 26.765625 29.296875 
Q 25.390625 28.609375 24.53125 28.09375 
Q 23.6875 27.59375 22.3125 26.296875 
Q 20.953125 25 20.140625 23.40625 
Q 19.34375 21.828125 18.703125 19.140625 
Q 18.0625 16.453125 18.0625 13.09375 
L 18.0625 0 
L 9.078125 0 
L 9.078125 9.03125 
Q 9.078125 12.984375 9.5625 16.359375 
Q 10.0625 19.734375 10.8125 22.078125 
Q 11.578125 24.421875 12.796875 26.390625 
Q 14.015625 28.375 15.109375 29.59375 
Q 16.21875 30.8125 17.796875 31.875 
Q 19.390625 32.953125 20.453125 33.46875 
Q 21.53125 33.984375 23.046875 34.625 
L 9.1875 54.6875 
L 19.78125 54.6875 
L 40.09375 25.390625 
Q 41.40625 26.03125 42.25 26.53125 
Q 43.109375 27.046875 44.46875 28.359375 
Q 45.84375 29.6875 46.671875 31.265625 
Q 47.515625 32.859375 48.140625 35.546875 
Q 48.78125 38.234375 48.78125 41.609375 
L 48.78125 54.6875 
L 57.765625 54.6875 
L 57.765625 45.65625 
Q 57.765625 41.65625 57.265625 38.3125 
Q 56.78125 34.96875 56.03125 32.59375 
Q 55.28125 30.21875 54.046875 28.234375 
Q 52.828125 26.265625 51.703125 25.0625 
Q 50.59375 23.875 49.03125 22.796875 
Q 47.46875 21.734375 46.390625 21.21875 
Q 45.3125 20.703125 43.75 20.0625 
z
" id="DejaVuSans-1488"/>
      <path d="M 25.203125 64.796875 
L 20.21875 38.921875 
L 32.90625 38.921875 
Q 40.375 38.921875 44.984375 43.046875 
Q 49.609375 47.171875 49.609375 53.8125 
Q 49.609375 59.125 46.5 61.953125 
Q 43.40625 64.796875 37.59375 64.796875 
z
M 43.3125 35.015625 
Q 46.4375 34.28125 48.515625 31.390625 
Q 50.59375 28.515625 53.328125 19.921875 
L 59.515625 0 
L 49.125 0 
L 43.40625 18.703125 
Q 41.21875 25.921875 38.328125 28.359375 
Q 35.453125 30.8125 29.5 30.8125 
L 18.609375 30.8125 
L 12.59375 0 
L 2.6875 0 
L 16.890625 72.90625 
L 39.109375 72.90625 
Q 49.21875 72.90625 54.609375 68.328125 
Q 60.015625 63.765625 60.015625 55.171875 
Q 60.015625 47.5625 55.421875 41.984375 
Q 50.828125 36.421875 43.3125 35.015625 
z
" id="DejaVuSans-Oblique-82"/>
      <path d="M 42.28125 54.6875 
L 40.921875 47.703125 
L 23 47.703125 
L 17.1875 18.015625 
Q 16.890625 16.359375 16.75 15.234375 
Q 16.609375 14.109375 16.609375 13.484375 
Q 16.609375 10.359375 18.484375 8.9375 
Q 20.359375 7.515625 24.515625 7.515625 
L 33.59375 7.515625 
L 32.078125 0 
L 23.484375 0 
Q 15.484375 0 11.546875 3.125 
Q 7.625 6.25 7.625 12.59375 
Q 7.625 13.71875 7.765625 15.0625 
Q 7.90625 16.40625 8.203125 18.015625 
L 14.015625 47.703125 
L 6.390625 47.703125 
L 7.8125 54.6875 
L 15.28125 54.6875 
L 18.3125 70.21875 
L 27.296875 70.21875 
L 24.3125 54.6875 
z
" id="DejaVuSans-Oblique-116"/>
     </defs>
     <use transform="translate(0 0.78125)" xlink:href="#DejaVuSans-50"/>
     <use transform="translate(63.623047 0.78125)" xlink:href="#DejaVuSans-52"/>
     <use transform="translate(127.246094 0.78125)" xlink:href="#DejaVuSans-53"/>
     <use transform="translate(190.869141 0.78125)" xlink:href="#DejaVuSans-32"/>
     <use transform="translate(222.65625 0.78125)" xlink:href="#DejaVuSans-1492"/>
     <use transform="translate(287.988281 0.78125)" xlink:href="#DejaVuSans-1497"/>
     <use transform="translate(310.351562 0.78125)" xlink:href="#DejaVuSans-1512"/>
     <use transform="translate(366.796875 0.78125)" xlink:href="#DejaVuSans-1492"/>
     <use transform="translate(432.128906 0.78125)" xlink:href="#DejaVuSans-1504"/>
     <use transform="translate(472.167969 0.78125)" xlink:href="#DejaVuSans-32"/>
     <use transform="translate(503.955078 0.78125)" xlink:href="#DejaVuSans-1512"/>
     <use transform="translate(560.400391 0.78125)" xlink:href="#DejaVuSans-1493"/>
     <use transform="translate(587.646484 0.78125)" xlink:href="#DejaVuSans-1494"/>
     <use transform="translate(622.265625 0.78125)" xlink:href="#DejaVuSans-1488"/>
     <use transform="translate(689.111328 0.78125)" xlink:href="#DejaVuSans-32"/>
     <use transform="translate(720.898438 0.78125)" xlink:href="#DejaVuSans-Oblique-82"/>
     <use transform="translate(790.380859 -15.625)scale(0.7)" xlink:href="#DejaVuSans-Oblique-116"/>
    </g>
   </g>
  </g>
 </g>
 <defs>
  <clipPath id="p2e821e448e">
   <rect height="271.8" width="558" x="90" y="43.2"/>
  </clipPath>
 </defs>
</svg>
