<?xml version="1.0" encoding="utf-8" standalone="no"?>
<!DOCTYPE svg PUBLIC "-//W3C//DTD SVG 1.1//EN"
  "http://www.w3.org/Graphics/SVG/1.1/DTD/svg11.dtd">
<!-- Created with matplotlib (https://matplotlib.org/) -->
<svg height="360pt" version="1.1" viewBox="0 0 720 360" width="720pt" xmlns="http://www.w3.org/2000/svg" xmlns:xlink="http://www.w3.org/1999/xlink">
 <metadata>
  <rdf:RDF xmlns:cc="http://creativecommons.org/ns#" xmlns:dc="http://purl.org/dc/elements/1.1/" xmlns:rdf="http://www.w3.org/1999/02/22-rdf-syntax-ns#">
   <cc:Work>
    <dc:type rdf:resource="http://purl.org/dc/dcmitype/StillImage"/>
    <dc:date>2021-02-07T04:13:25.074058</dc:date>
    <dc:format>image/svg+xml</dc:format>
    <dc:creator>
     <cc:Agent>
      <dc:title>Matplotlib v3.3.2, https://matplotlib.org/</dc:title>
     </cc:Agent>
    </dc:creator>
   </cc:Work>
  </rdf:RDF>
 </metadata>
 <defs>
  <style type="text/css">*{stroke-linecap:butt;stroke-linejoin:round;}</style>
 </defs>
 <g id="figure_1">
  <g id="patch_1">
   <path d="M 0 360 
L 720 360 
L 720 0 
L 0 0 
z
" style="fill:#ffffff;"/>
  </g>
  <g id="axes_1">
   <g id="patch_2">
    <path d="M 90 315 
L 648 315 
L 648 43.2 
L 90 43.2 
z
" style="fill:#ffffff;"/>
   </g>
   <g id="PolyCollection_1">
    <defs>
     <path d="M 90 -62.23137 
L 90 -126.730445 
L 91.74375 -128.823919 
L 93.4875 -134.180793 
L 95.23125 -128.603112 
L 96.975 -122.43241 
L 98.71875 -123.217391 
L 100.4625 -125.495208 
L 102.20625 -124.531675 
L 103.95 -121.500841 
L 105.69375 -121.308819 
L 107.4375 -120.734396 
L 109.18125 -116.693616 
L 110.925 -120.234042 
L 112.66875 -116.10359 
L 114.4125 -113.162639 
L 116.15625 -115.612708 
L 117.9 -115.38042 
L 119.64375 -115.865692 
L 121.3875 -113.652269 
L 123.13125 -116.223696 
L 124.875 -114.565841 
L 126.61875 -112.512879 
L 128.3625 -112.508429 
L 130.10625 -111.029747 
L 131.85 -111.516642 
L 133.59375 -110.271005 
L 135.3375 -113.507781 
L 137.08125 -111.73688 
L 138.825 -110.232241 
L 140.56875 -113.326525 
L 142.3125 -117.795997 
L 144.05625 -118.022356 
L 145.8 -116.140713 
L 147.54375 -119.951706 
L 149.2875 -120.652245 
L 151.03125 -123.798498 
L 152.775 -127.968393 
L 154.51875 -130.712641 
L 156.2625 -128.967739 
L 158.00625 -133.992999 
L 159.75 -137.771124 
L 161.49375 -143.660064 
L 163.2375 -154.235673 
L 164.98125 -152.645094 
L 166.725 -158.246634 
L 168.46875 -163.750719 
L 170.2125 -167.218511 
L 171.95625 -177.408158 
L 173.7 -181.396312 
L 175.44375 -186.002831 
L 177.1875 -193.90067 
L 178.93125 -204.585979 
L 180.675 -202.612047 
L 182.41875 -216.415089 
L 184.1625 -222.93226 
L 185.90625 -227.121613 
L 187.65 -237.849787 
L 189.39375 -246.674193 
L 191.1375 -256.023611 
L 192.88125 -263.400076 
L 194.625 -262.495001 
L 196.36875 -277.471939 
L 198.1125 -283.160754 
L 199.85625 -284.600195 
L 201.6 -295.439333 
L 203.34375 -288.788691 
L 205.0875 -294.853997 
L 206.83125 -294.543581 
L 208.575 -304.445455 
L 210.31875 -298.029451 
L 212.0625 -295.719067 
L 213.80625 -295.493807 
L 215.55 -286.501825 
L 217.29375 -281.478789 
L 219.0375 -272.724454 
L 220.78125 -262.421622 
L 222.525 -246.969415 
L 224.26875 -236.857345 
L 226.0125 -230.45586 
L 227.75625 -220.205538 
L 229.5 -207.870235 
L 231.24375 -198.993614 
L 232.9875 -195.433218 
L 234.73125 -186.128917 
L 236.475 -178.176176 
L 238.21875 -170.99568 
L 239.9625 -168.991906 
L 241.70625 -169.495683 
L 243.45 -163.389728 
L 245.19375 -164.54084 
L 246.9375 -166.890955 
L 248.68125 -167.802643 
L 250.425 -168.427484 
L 252.16875 -168.061269 
L 253.9125 -170.631302 
L 255.65625 -170.72526 
L 257.4 -175.432591 
L 259.14375 -180.790598 
L 260.8875 -179.499143 
L 262.63125 -187.064053 
L 264.375 -189.155796 
L 266.11875 -193.04972 
L 267.8625 -193.317804 
L 269.60625 -197.80252 
L 271.35 -204.160617 
L 273.09375 -205.125424 
L 274.8375 -202.279677 
L 276.58125 -205.047375 
L 278.325 -205.727655 
L 280.06875 -208.981018 
L 281.8125 -212.042162 
L 283.55625 -208.503526 
L 285.3 -215.289713 
L 287.04375 -213.143072 
L 288.7875 -207.947678 
L 290.53125 -210.582903 
L 292.275 -211.58844 
L 294.01875 -208.50105 
L 295.7625 -209.95307 
L 297.50625 -209.006117 
L 299.25 -215.560645 
L 300.99375 -215.142308 
L 302.7375 -218.552211 
L 304.48125 -221.563278 
L 306.225 -223.576856 
L 307.96875 -218.471636 
L 309.7125 -228.358381 
L 311.45625 -228.26125 
L 313.2 -221.638257 
L 314.94375 -223.404737 
L 316.6875 -222.862606 
L 318.43125 -217.174791 
L 320.175 -216.692725 
L 321.91875 -209.388114 
L 323.6625 -204.184553 
L 325.40625 -199.978706 
L 327.15 -187.151479 
L 328.89375 -179.477344 
L 330.6375 -177.909477 
L 332.38125 -166.479538 
L 334.125 -167.424675 
L 335.86875 -162.868521 
L 337.6125 -154.618452 
L 339.35625 -151.405331 
L 341.1 -150.585312 
L 342.84375 -149.522165 
L 344.5875 -148.827932 
L 346.33125 -149.21096 
L 348.075 -148.862596 
L 349.81875 -151.279152 
L 351.5625 -152.631663 
L 353.30625 -155.050314 
L 355.05 -159.676687 
L 356.79375 -166.705681 
L 358.5375 -171.042714 
L 360.28125 -173.048214 
L 362.025 -179.171228 
L 363.76875 -182.917149 
L 365.5125 -191.872313 
L 367.25625 -197.562916 
L 369 -203.757369 
L 370.74375 -211.28567 
L 372.4875 -217.649658 
L 374.23125 -225.184957 
L 375.975 -228.967393 
L 377.71875 -239.948029 
L 379.4625 -245.187223 
L 381.20625 -247.975672 
L 382.95 -256.978077 
L 384.69375 -257.287311 
L 386.4375 -255.567209 
L 388.18125 -258.061318 
L 389.925 -252.591129 
L 391.66875 -249.687061 
L 393.4125 -248.644328 
L 395.15625 -245.468101 
L 396.9 -236.745321 
L 398.64375 -226.812046 
L 400.3875 -220.865603 
L 402.13125 -215.747041 
L 403.875 -208.218196 
L 405.61875 -198.334653 
L 407.3625 -192.352239 
L 409.10625 -185.308614 
L 410.85 -176.486342 
L 412.59375 -165.824258 
L 414.3375 -157.666204 
L 416.08125 -150.751819 
L 417.825 -142.974801 
L 419.56875 -138.763248 
L 421.3125 -132.192425 
L 423.05625 -126.58895 
L 424.8 -120.446215 
L 426.54375 -116.140394 
L 428.2875 -111.925197 
L 430.03125 -106.719562 
L 431.775 -104.774785 
L 433.51875 -99.3114 
L 435.2625 -96.976497 
L 437.00625 -95.393786 
L 438.75 -93.898119 
L 440.49375 -89.236601 
L 442.2375 -91.345804 
L 443.98125 -88.347296 
L 445.725 -88.231884 
L 447.46875 -85.621412 
L 449.2125 -85.890985 
L 450.95625 -85.838168 
L 452.7 -84.905826 
L 454.44375 -83.622313 
L 456.1875 -83.469134 
L 457.93125 -86.161417 
L 459.675 -85.885531 
L 461.41875 -84.732279 
L 463.1625 -86.267419 
L 464.90625 -87.887317 
L 466.65 -91.322047 
L 468.39375 -93.189187 
L 470.1375 -97.258047 
L 471.88125 -100.498511 
L 473.625 -102.477752 
L 475.36875 -104.765628 
L 477.1125 -110.483484 
L 478.85625 -117.101893 
L 480.6 -121.526773 
L 482.34375 -125.407805 
L 484.0875 -135.730466 
L 485.83125 -139.258228 
L 487.575 -145.329994 
L 489.31875 -152.013024 
L 491.0625 -159.463241 
L 492.80625 -166.949726 
L 494.55 -179.432468 
L 496.29375 -188.582983 
L 498.0375 -194.941549 
L 499.78125 -206.805305 
L 501.525 -216.641108 
L 503.26875 -225.941328 
L 505.0125 -233.46577 
L 506.75625 -243.839867 
L 508.5 -249.005857 
L 510.24375 -264.523256 
L 511.9875 -275.951646 
L 513.73125 -278.031843 
L 515.475 -279.707331 
L 517.21875 -291.762357 
L 518.9625 -295.714748 
L 520.70625 -299.775005 
L 522.45 -297.475842 
L 524.19375 -301.979098 
L 525.9375 -297.575461 
L 527.68125 -294.53225 
L 529.425 -291.379641 
L 531.16875 -286.839241 
L 532.9125 -286.358235 
L 534.65625 -285.969481 
L 536.4 -286.285628 
L 538.14375 -279.461712 
L 539.8875 -278.256652 
L 541.63125 -278.650545 
L 543.375 -280.822228 
L 545.11875 -280.877206 
L 546.8625 -276.757743 
L 548.60625 -274.837495 
L 550.35 -276.630555 
L 552.09375 -281.521825 
L 553.8375 -275.677876 
L 555.58125 -272.560103 
L 557.325 -276.565602 
L 559.06875 -276.830728 
L 560.8125 -280.205922 
L 562.55625 -273.306661 
L 564.3 -268.092567 
L 566.04375 -270.041904 
L 567.7875 -268.649528 
L 569.53125 -264.489876 
L 571.275 -259.265743 
L 573.01875 -253.213025 
L 574.7625 -250.425789 
L 576.50625 -248.387594 
L 578.25 -241.473587 
L 579.99375 -240.133604 
L 581.7375 -234.781094 
L 583.48125 -231.772887 
L 585.225 -231.683842 
L 586.96875 -225.852084 
L 588.7125 -224.281401 
L 590.45625 -217.192776 
L 592.2 -214.348112 
L 593.94375 -210.942827 
L 595.6875 -206.198532 
L 597.43125 -195.928816 
L 599.175 -192.801841 
L 600.91875 -191.645003 
L 602.6625 -186.141535 
L 604.40625 -184.046106 
L 606.15 -182.397835 
L 607.89375 -179.156948 
L 609.6375 -179.261423 
L 611.38125 -175.799913 
L 613.125 -177.543011 
L 614.86875 -177.454168 
L 616.6125 -176.273871 
L 618.35625 -176.052656 
L 620.1 -174.229497 
L 621.84375 -174.060226 
L 623.5875 -174.216166 
L 625.33125 -175.484886 
L 627.075 -175.319275 
L 628.81875 -180.005733 
L 630.5625 -181.437562 
L 632.30625 -187.566813 
L 634.05 -189.514668 
L 635.79375 -193.661774 
L 637.5375 -197.074449 
L 639.28125 -200.206774 
L 641.025 -204.554738 
L 642.76875 -203.393785 
L 644.5125 -211.983855 
L 646.25625 -212.50634 
L 648 -218.030199 
L 649.74375 -216.709992 
L 651.4875 -215.62723 
L 653.23125 -225.247793 
L 654.975 -220.368792 
L 656.71875 -228.719278 
L 658.4625 -230.492352 
L 660.20625 -232.032837 
L 661.95 -238.157243 
L 661.95 -111.869969 
L 661.95 -111.869969 
L 660.20625 -108.053651 
L 658.4625 -110.897523 
L 656.71875 -112.546712 
L 654.975 -106.102877 
L 653.23125 -114.831876 
L 651.4875 -109.456946 
L 649.74375 -113.972945 
L 648 -120.893949 
L 646.25625 -118.983644 
L 644.5125 -128.368333 
L 642.76875 -124.624857 
L 641.025 -131.802338 
L 639.28125 -133.313334 
L 637.5375 -131.879803 
L 635.79375 -130.956039 
L 634.05 -133.119204 
L 632.30625 -135.347349 
L 630.5625 -129.375136 
L 628.81875 -131.267176 
L 627.075 -127.645677 
L 625.33125 -131.009566 
L 623.5875 -129.941873 
L 621.84375 -128.389489 
L 620.1 -128.550504 
L 618.35625 -130.146229 
L 616.6125 -128.438211 
L 614.86875 -131.101249 
L 613.125 -128.729787 
L 611.38125 -128.695616 
L 609.6375 -132.728023 
L 607.89375 -132.604006 
L 606.15 -135.296492 
L 604.40625 -138.832772 
L 602.6625 -141.137273 
L 600.91875 -147.151897 
L 599.175 -144.282897 
L 597.43125 -146.085258 
L 595.6875 -152.036875 
L 593.94375 -155.91826 
L 592.2 -158.944083 
L 590.45625 -161.175032 
L 588.7125 -165.991951 
L 586.96875 -167.596498 
L 585.225 -170.651004 
L 583.48125 -173.420294 
L 581.7375 -174.125971 
L 579.99375 -179.451323 
L 578.25 -179.555046 
L 576.50625 -186.164032 
L 574.7625 -185.253927 
L 573.01875 -188.65873 
L 571.275 -197.007208 
L 569.53125 -198.573086 
L 567.7875 -199.145692 
L 566.04375 -201.311797 
L 564.3 -198.937384 
L 562.55625 -202.116264 
L 560.8125 -207.489799 
L 559.06875 -208.603777 
L 557.325 -208.124594 
L 555.58125 -204.298426 
L 553.8375 -204.65848 
L 552.09375 -209.904705 
L 550.35 -208.304381 
L 548.60625 -204.78447 
L 546.8625 -207.860238 
L 545.11875 -207.654456 
L 543.375 -205.101242 
L 541.63125 -203.48356 
L 539.8875 -202.430085 
L 538.14375 -206.087013 
L 536.4 -211.879812 
L 534.65625 -211.120806 
L 532.9125 -209.543543 
L 531.16875 -207.372765 
L 529.425 -211.730151 
L 527.68125 -214.999109 
L 525.9375 -215.423659 
L 524.19375 -220.847313 
L 522.45 -215.977 
L 520.70625 -216.884418 
L 518.9625 -214.384205 
L 517.21875 -211.486048 
L 515.475 -198.10933 
L 513.73125 -200.721467 
L 511.9875 -200.102539 
L 510.24375 -189.511069 
L 508.5 -176.85404 
L 506.75625 -175.934442 
L 505.0125 -164.520851 
L 503.26875 -159.686654 
L 501.525 -151.416854 
L 499.78125 -145.728659 
L 498.0375 -135.139891 
L 496.29375 -133.502067 
L 494.55 -127.314686 
L 492.80625 -120.953492 
L 491.0625 -114.006952 
L 489.31875 -109.005177 
L 487.575 -103.641281 
L 485.83125 -99.365332 
L 484.0875 -94.991757 
L 482.34375 -86.535164 
L 480.6 -84.435427 
L 478.85625 -80.193864 
L 477.1125 -76.470893 
L 475.36875 -72.265848 
L 473.625 -71.243256 
L 471.88125 -69.439747 
L 470.1375 -66.477727 
L 468.39375 -64.013205 
L 466.65 -62.556697 
L 464.90625 -58.101562 
L 463.1625 -58.880697 
L 461.41875 -58.236489 
L 459.675 -60.074649 
L 457.93125 -59.84563 
L 456.1875 -57.354545 
L 454.44375 -57.529999 
L 452.7 -58.522353 
L 450.95625 -58.900514 
L 449.2125 -60.255126 
L 447.46875 -59.900958 
L 445.725 -62.012732 
L 443.98125 -61.668133 
L 442.2375 -64.135905 
L 440.49375 -62.502089 
L 438.75 -67.1145 
L 437.00625 -67.496489 
L 435.2625 -69.019445 
L 433.51875 -70.849213 
L 431.775 -76.000167 
L 430.03125 -76.293842 
L 428.2875 -80.780811 
L 426.54375 -84.185021 
L 424.8 -88.943449 
L 423.05625 -93.702303 
L 421.3125 -98.122802 
L 419.56875 -103.108544 
L 417.825 -106.747329 
L 416.08125 -113.967073 
L 414.3375 -117.111358 
L 412.59375 -122.92421 
L 410.85 -131.112131 
L 409.10625 -137.859273 
L 407.3625 -143.679401 
L 405.61875 -146.748095 
L 403.875 -157.987337 
L 402.13125 -163.017794 
L 400.3875 -166.019928 
L 398.64375 -170.86411 
L 396.9 -176.848113 
L 395.15625 -187.583563 
L 393.4125 -187.868344 
L 391.66875 -187.294118 
L 389.925 -189.699774 
L 388.18125 -191.779193 
L 386.4375 -190.697093 
L 384.69375 -191.965717 
L 382.95 -190.340963 
L 381.20625 -185.207273 
L 379.4625 -182.327982 
L 377.71875 -180.298899 
L 375.975 -170.084802 
L 374.23125 -170.584136 
L 372.4875 -162.549975 
L 370.74375 -158.211381 
L 369 -152.610678 
L 367.25625 -147.021987 
L 365.5125 -142.476814 
L 363.76875 -137.080544 
L 362.025 -131.617908 
L 360.28125 -126.612483 
L 358.5375 -125.010739 
L 356.79375 -122.738716 
L 355.05 -118.457313 
L 353.30625 -113.16407 
L 351.5625 -114.631978 
L 349.81875 -112.736772 
L 348.075 -109.247267 
L 346.33125 -110.201229 
L 344.5875 -108.560838 
L 342.84375 -108.148483 
L 341.1 -110.793577 
L 339.35625 -110.743856 
L 337.6125 -112.572606 
L 335.86875 -119.923425 
L 334.125 -121.748369 
L 332.38125 -121.648972 
L 330.6375 -129.168783 
L 328.89375 -129.193557 
L 327.15 -137.540257 
L 325.40625 -146.407527 
L 323.6625 -150.023297 
L 321.91875 -153.301344 
L 320.175 -158.38608 
L 318.43125 -159.40663 
L 316.6875 -162.801143 
L 314.94375 -165.79155 
L 313.2 -163.266398 
L 311.45625 -169.328508 
L 309.7125 -169.15688 
L 307.96875 -162.228394 
L 306.225 -166.90453 
L 304.48125 -163.203402 
L 302.7375 -163.316234 
L 300.99375 -159.06654 
L 299.25 -160.812258 
L 297.50625 -153.728412 
L 295.7625 -155.149145 
L 294.01875 -156.745923 
L 292.275 -158.674876 
L 290.53125 -156.018966 
L 288.7875 -150.688397 
L 287.04375 -152.901392 
L 285.3 -153.358884 
L 283.55625 -147.41937 
L 281.8125 -152.635776 
L 280.06875 -149.588609 
L 278.325 -145.746156 
L 276.58125 -145.671619 
L 274.8375 -143.144073 
L 273.09375 -149.860482 
L 271.35 -146.993137 
L 269.60625 -143.184649 
L 267.8625 -140.659735 
L 266.11875 -139.782823 
L 264.375 -137.238755 
L 262.63125 -135.634453 
L 260.8875 -130.663383 
L 259.14375 -131.224713 
L 257.4 -125.853437 
L 255.65625 -122.576982 
L 253.9125 -122.266049 
L 252.16875 -123.169821 
L 250.425 -120.845115 
L 248.68125 -120.304035 
L 246.9375 -119.978911 
L 245.19375 -118.432434 
L 243.45 -118.062064 
L 241.70625 -122.851623 
L 239.9625 -121.369496 
L 238.21875 -122.928833 
L 236.475 -127.479242 
L 234.73125 -132.726864 
L 232.9875 -139.543764 
L 231.24375 -140.555189 
L 229.5 -145.378822 
L 227.75625 -153.015505 
L 226.0125 -159.152177 
L 224.26875 -163.569534 
L 222.525 -167.774296 
L 220.78125 -178.09224 
L 219.0375 -183.522686 
L 217.29375 -189.317831 
L 215.55 -197.02136 
L 213.80625 -202.162602 
L 212.0625 -202.782327 
L 210.31875 -205.14473 
L 208.575 -211.279187 
L 206.83125 -201.77107 
L 205.0875 -207.018114 
L 203.34375 -201.633506 
L 201.6 -210.544319 
L 199.85625 -199.514637 
L 198.1125 -199.593842 
L 196.36875 -193.121038 
L 194.625 -182.60705 
L 192.88125 -181.761611 
L 191.1375 -177.994719 
L 189.39375 -167.943469 
L 187.65 -162.522865 
L 185.90625 -156.064364 
L 184.1625 -155.095599 
L 182.41875 -150.18197 
L 180.675 -138.057381 
L 178.93125 -138.234106 
L 177.1875 -129.851679 
L 175.44375 -124.439791 
L 173.7 -122.752466 
L 171.95625 -120.468888 
L 170.2125 -109.167754 
L 168.46875 -107.85727 
L 166.725 -104.03014 
L 164.98125 -102.529043 
L 163.2375 -105.035362 
L 161.49375 -96.366538 
L 159.75 -92.951372 
L 158.00625 -90.897951 
L 156.2625 -85.029694 
L 154.51875 -87.986706 
L 152.775 -86.477124 
L 151.03125 -83.78635 
L 149.2875 -81.735808 
L 147.54375 -80.764668 
L 145.8 -78.455843 
L 144.05625 -79.437056 
L 142.3125 -77.708249 
L 140.56875 -76.117274 
L 138.825 -72.21445 
L 137.08125 -73.60083 
L 135.3375 -75.678989 
L 133.59375 -73.05101 
L 131.85 -74.053638 
L 130.10625 -72.667247 
L 128.3625 -74.450753 
L 126.61875 -73.431734 
L 124.875 -76.107349 
L 123.13125 -77.535166 
L 121.3875 -74.973325 
L 119.64375 -77.793915 
L 117.9 -77.845748 
L 116.15625 -78.128304 
L 114.4125 -75.285182 
L 112.66875 -76.221503 
L 110.925 -78.328832 
L 109.18125 -74.682481 
L 107.4375 -77.242344 
L 105.69375 -75.964178 
L 103.95 -74.690435 
L 102.20625 -76.707344 
L 100.4625 -77.058359 
L 98.71875 -72.868608 
L 96.975 -67.937829 
L 95.23125 -71.676676 
L 93.4875 -74.126911 
L 91.74375 -67.065238 
L 90 -62.23137 
z
" id="mc488515e2a" style="stroke:#fdcbb6;stroke-opacity:0.8;"/>
    </defs>
    <g clip-path="url(#p9cd9cb1b5b)">
     <use style="fill:#fdcbb6;fill-opacity:0.8;stroke:#fdcbb6;stroke-opacity:0.8;" x="0" xlink:href="#mc488515e2a" y="360"/>
    </g>
   </g>
   <g id="matplotlib.axis_1">
    <g id="xtick_1">
     <g id="line2d_1">
      <defs>
       <path d="M 0 0 
L 0 3.5 
" id="m002e74e65f" style="stroke:#000000;stroke-width:0.8;"/>
      </defs>
      <g>
       <use style="stroke:#000000;stroke-width:0.8;" x="90" xlink:href="#m002e74e65f" y="315"/>
      </g>
     </g>
    </g>
    <g id="xtick_2">
     <g id="line2d_2">
      <g>
       <use style="stroke:#000000;stroke-width:0.8;" x="121.3875" xlink:href="#m002e74e65f" y="315"/>
      </g>
     </g>
     <g id="text_1">
      <!-- Apr -->
      <g transform="translate(112.7375 329.598437)scale(0.1 -0.1)">
       <defs>
        <path d="M 34.1875 63.1875 
L 20.796875 26.90625 
L 47.609375 26.90625 
z
M 28.609375 72.90625 
L 39.796875 72.90625 
L 67.578125 0 
L 57.328125 0 
L 50.6875 18.703125 
L 17.828125 18.703125 
L 11.1875 0 
L 0.78125 0 
z
" id="DejaVuSans-65"/>
        <path d="M 18.109375 8.203125 
L 18.109375 -20.796875 
L 9.078125 -20.796875 
L 9.078125 54.6875 
L 18.109375 54.6875 
L 18.109375 46.390625 
Q 20.953125 51.265625 25.265625 53.625 
Q 29.59375 56 35.59375 56 
Q 45.5625 56 51.78125 48.09375 
Q 58.015625 40.1875 58.015625 27.296875 
Q 58.015625 14.40625 51.78125 6.484375 
Q 45.5625 -1.421875 35.59375 -1.421875 
Q 29.59375 -1.421875 25.265625 0.953125 
Q 20.953125 3.328125 18.109375 8.203125 
z
M 48.6875 27.296875 
Q 48.6875 37.203125 44.609375 42.84375 
Q 40.53125 48.484375 33.40625 48.484375 
Q 26.265625 48.484375 22.1875 42.84375 
Q 18.109375 37.203125 18.109375 27.296875 
Q 18.109375 17.390625 22.1875 11.75 
Q 26.265625 6.109375 33.40625 6.109375 
Q 40.53125 6.109375 44.609375 11.75 
Q 48.6875 17.390625 48.6875 27.296875 
z
" id="DejaVuSans-112"/>
        <path d="M 41.109375 46.296875 
Q 39.59375 47.171875 37.8125 47.578125 
Q 36.03125 48 33.890625 48 
Q 26.265625 48 22.1875 43.046875 
Q 18.109375 38.09375 18.109375 28.8125 
L 18.109375 0 
L 9.078125 0 
L 9.078125 54.6875 
L 18.109375 54.6875 
L 18.109375 46.1875 
Q 20.953125 51.171875 25.484375 53.578125 
Q 30.03125 56 36.53125 56 
Q 37.453125 56 38.578125 55.875 
Q 39.703125 55.765625 41.0625 55.515625 
z
" id="DejaVuSans-114"/>
       </defs>
       <use xlink:href="#DejaVuSans-65"/>
       <use x="68.408203" xlink:href="#DejaVuSans-112"/>
       <use x="131.884766" xlink:href="#DejaVuSans-114"/>
      </g>
     </g>
    </g>
    <g id="xtick_3">
     <g id="line2d_3">
      <g>
       <use style="stroke:#000000;stroke-width:0.8;" x="173.7" xlink:href="#m002e74e65f" y="315"/>
      </g>
     </g>
     <g id="text_2">
      <!-- May -->
      <g transform="translate(163.3625 329.598437)scale(0.1 -0.1)">
       <defs>
        <path d="M 9.8125 72.90625 
L 24.515625 72.90625 
L 43.109375 23.296875 
L 61.8125 72.90625 
L 76.515625 72.90625 
L 76.515625 0 
L 66.890625 0 
L 66.890625 64.015625 
L 48.09375 14.015625 
L 38.1875 14.015625 
L 19.390625 64.015625 
L 19.390625 0 
L 9.8125 0 
z
" id="DejaVuSans-77"/>
        <path d="M 34.28125 27.484375 
Q 23.390625 27.484375 19.1875 25 
Q 14.984375 22.515625 14.984375 16.5 
Q 14.984375 11.71875 18.140625 8.90625 
Q 21.296875 6.109375 26.703125 6.109375 
Q 34.1875 6.109375 38.703125 11.40625 
Q 43.21875 16.703125 43.21875 25.484375 
L 43.21875 27.484375 
z
M 52.203125 31.203125 
L 52.203125 0 
L 43.21875 0 
L 43.21875 8.296875 
Q 40.140625 3.328125 35.546875 0.953125 
Q 30.953125 -1.421875 24.3125 -1.421875 
Q 15.921875 -1.421875 10.953125 3.296875 
Q 6 8.015625 6 15.921875 
Q 6 25.140625 12.171875 29.828125 
Q 18.359375 34.515625 30.609375 34.515625 
L 43.21875 34.515625 
L 43.21875 35.40625 
Q 43.21875 41.609375 39.140625 45 
Q 35.0625 48.390625 27.6875 48.390625 
Q 23 48.390625 18.546875 47.265625 
Q 14.109375 46.140625 10.015625 43.890625 
L 10.015625 52.203125 
Q 14.9375 54.109375 19.578125 55.046875 
Q 24.21875 56 28.609375 56 
Q 40.484375 56 46.34375 49.84375 
Q 52.203125 43.703125 52.203125 31.203125 
z
" id="DejaVuSans-97"/>
        <path d="M 32.171875 -5.078125 
Q 28.375 -14.84375 24.75 -17.8125 
Q 21.140625 -20.796875 15.09375 -20.796875 
L 7.90625 -20.796875 
L 7.90625 -13.28125 
L 13.1875 -13.28125 
Q 16.890625 -13.28125 18.9375 -11.515625 
Q 21 -9.765625 23.484375 -3.21875 
L 25.09375 0.875 
L 2.984375 54.6875 
L 12.5 54.6875 
L 29.59375 11.921875 
L 46.6875 54.6875 
L 56.203125 54.6875 
z
" id="DejaVuSans-121"/>
       </defs>
       <use xlink:href="#DejaVuSans-77"/>
       <use x="86.279297" xlink:href="#DejaVuSans-97"/>
       <use x="147.558594" xlink:href="#DejaVuSans-121"/>
      </g>
     </g>
    </g>
    <g id="xtick_4">
     <g id="line2d_4">
      <g>
       <use style="stroke:#000000;stroke-width:0.8;" x="227.75625" xlink:href="#m002e74e65f" y="315"/>
      </g>
     </g>
     <g id="text_3">
      <!-- Jun -->
      <g transform="translate(219.94375 329.598437)scale(0.1 -0.1)">
       <defs>
        <path d="M 9.8125 72.90625 
L 19.671875 72.90625 
L 19.671875 5.078125 
Q 19.671875 -8.109375 14.671875 -14.0625 
Q 9.671875 -20.015625 -1.421875 -20.015625 
L -5.171875 -20.015625 
L -5.171875 -11.71875 
L -2.09375 -11.71875 
Q 4.4375 -11.71875 7.125 -8.046875 
Q 9.8125 -4.390625 9.8125 5.078125 
z
" id="DejaVuSans-74"/>
        <path d="M 8.5 21.578125 
L 8.5 54.6875 
L 17.484375 54.6875 
L 17.484375 21.921875 
Q 17.484375 14.15625 20.5 10.265625 
Q 23.53125 6.390625 29.59375 6.390625 
Q 36.859375 6.390625 41.078125 11.03125 
Q 45.3125 15.671875 45.3125 23.6875 
L 45.3125 54.6875 
L 54.296875 54.6875 
L 54.296875 0 
L 45.3125 0 
L 45.3125 8.40625 
Q 42.046875 3.421875 37.71875 1 
Q 33.40625 -1.421875 27.6875 -1.421875 
Q 18.265625 -1.421875 13.375 4.4375 
Q 8.5 10.296875 8.5 21.578125 
z
M 31.109375 56 
z
" id="DejaVuSans-117"/>
        <path d="M 54.890625 33.015625 
L 54.890625 0 
L 45.90625 0 
L 45.90625 32.71875 
Q 45.90625 40.484375 42.875 44.328125 
Q 39.84375 48.1875 33.796875 48.1875 
Q 26.515625 48.1875 22.3125 43.546875 
Q 18.109375 38.921875 18.109375 30.90625 
L 18.109375 0 
L 9.078125 0 
L 9.078125 54.6875 
L 18.109375 54.6875 
L 18.109375 46.1875 
Q 21.34375 51.125 25.703125 53.5625 
Q 30.078125 56 35.796875 56 
Q 45.21875 56 50.046875 50.171875 
Q 54.890625 44.34375 54.890625 33.015625 
z
" id="DejaVuSans-110"/>
       </defs>
       <use xlink:href="#DejaVuSans-74"/>
       <use x="29.492188" xlink:href="#DejaVuSans-117"/>
       <use x="92.871094" xlink:href="#DejaVuSans-110"/>
      </g>
     </g>
    </g>
    <g id="xtick_5">
     <g id="line2d_5">
      <g>
       <use style="stroke:#000000;stroke-width:0.8;" x="280.06875" xlink:href="#m002e74e65f" y="315"/>
      </g>
     </g>
     <g id="text_4">
      <!-- Jul -->
      <g transform="translate(274.035938 329.598437)scale(0.1 -0.1)">
       <defs>
        <path d="M 9.421875 75.984375 
L 18.40625 75.984375 
L 18.40625 0 
L 9.421875 0 
z
" id="DejaVuSans-108"/>
       </defs>
       <use xlink:href="#DejaVuSans-74"/>
       <use x="29.492188" xlink:href="#DejaVuSans-117"/>
       <use x="92.871094" xlink:href="#DejaVuSans-108"/>
      </g>
     </g>
    </g>
    <g id="xtick_6">
     <g id="line2d_6">
      <g>
       <use style="stroke:#000000;stroke-width:0.8;" x="334.125" xlink:href="#m002e74e65f" y="315"/>
      </g>
     </g>
     <g id="text_5">
      <!-- Aug -->
      <g transform="translate(324.361719 329.598437)scale(0.1 -0.1)">
       <defs>
        <path d="M 45.40625 27.984375 
Q 45.40625 37.75 41.375 43.109375 
Q 37.359375 48.484375 30.078125 48.484375 
Q 22.859375 48.484375 18.828125 43.109375 
Q 14.796875 37.75 14.796875 27.984375 
Q 14.796875 18.265625 18.828125 12.890625 
Q 22.859375 7.515625 30.078125 7.515625 
Q 37.359375 7.515625 41.375 12.890625 
Q 45.40625 18.265625 45.40625 27.984375 
z
M 54.390625 6.78125 
Q 54.390625 -7.171875 48.1875 -13.984375 
Q 42 -20.796875 29.203125 -20.796875 
Q 24.46875 -20.796875 20.265625 -20.09375 
Q 16.0625 -19.390625 12.109375 -17.921875 
L 12.109375 -9.1875 
Q 16.0625 -11.328125 19.921875 -12.34375 
Q 23.78125 -13.375 27.78125 -13.375 
Q 36.625 -13.375 41.015625 -8.765625 
Q 45.40625 -4.15625 45.40625 5.171875 
L 45.40625 9.625 
Q 42.625 4.78125 38.28125 2.390625 
Q 33.9375 0 27.875 0 
Q 17.828125 0 11.671875 7.65625 
Q 5.515625 15.328125 5.515625 27.984375 
Q 5.515625 40.671875 11.671875 48.328125 
Q 17.828125 56 27.875 56 
Q 33.9375 56 38.28125 53.609375 
Q 42.625 51.21875 45.40625 46.390625 
L 45.40625 54.6875 
L 54.390625 54.6875 
z
" id="DejaVuSans-103"/>
       </defs>
       <use xlink:href="#DejaVuSans-65"/>
       <use x="68.408203" xlink:href="#DejaVuSans-117"/>
       <use x="131.787109" xlink:href="#DejaVuSans-103"/>
      </g>
     </g>
    </g>
    <g id="xtick_7">
     <g id="line2d_7">
      <g>
       <use style="stroke:#000000;stroke-width:0.8;" x="388.18125" xlink:href="#m002e74e65f" y="315"/>
      </g>
     </g>
     <g id="text_6">
      <!-- Sep -->
      <g transform="translate(378.75625 329.598437)scale(0.1 -0.1)">
       <defs>
        <path d="M 53.515625 70.515625 
L 53.515625 60.890625 
Q 47.90625 63.578125 42.921875 64.890625 
Q 37.9375 66.21875 33.296875 66.21875 
Q 25.25 66.21875 20.875 63.09375 
Q 16.5 59.96875 16.5 54.203125 
Q 16.5 49.359375 19.40625 46.890625 
Q 22.3125 44.4375 30.421875 42.921875 
L 36.375 41.703125 
Q 47.40625 39.59375 52.65625 34.296875 
Q 57.90625 29 57.90625 20.125 
Q 57.90625 9.515625 50.796875 4.046875 
Q 43.703125 -1.421875 29.984375 -1.421875 
Q 24.8125 -1.421875 18.96875 -0.25 
Q 13.140625 0.921875 6.890625 3.21875 
L 6.890625 13.375 
Q 12.890625 10.015625 18.65625 8.296875 
Q 24.421875 6.59375 29.984375 6.59375 
Q 38.421875 6.59375 43.015625 9.90625 
Q 47.609375 13.234375 47.609375 19.390625 
Q 47.609375 24.75 44.3125 27.78125 
Q 41.015625 30.8125 33.5 32.328125 
L 27.484375 33.5 
Q 16.453125 35.6875 11.515625 40.375 
Q 6.59375 45.0625 6.59375 53.421875 
Q 6.59375 63.09375 13.40625 68.65625 
Q 20.21875 74.21875 32.171875 74.21875 
Q 37.3125 74.21875 42.625 73.28125 
Q 47.953125 72.359375 53.515625 70.515625 
z
" id="DejaVuSans-83"/>
        <path d="M 56.203125 29.59375 
L 56.203125 25.203125 
L 14.890625 25.203125 
Q 15.484375 15.921875 20.484375 11.0625 
Q 25.484375 6.203125 34.421875 6.203125 
Q 39.59375 6.203125 44.453125 7.46875 
Q 49.3125 8.734375 54.109375 11.28125 
L 54.109375 2.78125 
Q 49.265625 0.734375 44.1875 -0.34375 
Q 39.109375 -1.421875 33.890625 -1.421875 
Q 20.796875 -1.421875 13.15625 6.1875 
Q 5.515625 13.8125 5.515625 26.8125 
Q 5.515625 40.234375 12.765625 48.109375 
Q 20.015625 56 32.328125 56 
Q 43.359375 56 49.78125 48.890625 
Q 56.203125 41.796875 56.203125 29.59375 
z
M 47.21875 32.234375 
Q 47.125 39.59375 43.09375 43.984375 
Q 39.0625 48.390625 32.421875 48.390625 
Q 24.90625 48.390625 20.390625 44.140625 
Q 15.875 39.890625 15.1875 32.171875 
z
" id="DejaVuSans-101"/>
       </defs>
       <use xlink:href="#DejaVuSans-83"/>
       <use x="63.476562" xlink:href="#DejaVuSans-101"/>
       <use x="125" xlink:href="#DejaVuSans-112"/>
      </g>
     </g>
    </g>
    <g id="xtick_8">
     <g id="line2d_8">
      <g>
       <use style="stroke:#000000;stroke-width:0.8;" x="440.49375" xlink:href="#m002e74e65f" y="315"/>
      </g>
     </g>
     <g id="text_7">
      <!-- Oct -->
      <g transform="translate(431.848438 329.598437)scale(0.1 -0.1)">
       <defs>
        <path d="M 39.40625 66.21875 
Q 28.65625 66.21875 22.328125 58.203125 
Q 16.015625 50.203125 16.015625 36.375 
Q 16.015625 22.609375 22.328125 14.59375 
Q 28.65625 6.59375 39.40625 6.59375 
Q 50.140625 6.59375 56.421875 14.59375 
Q 62.703125 22.609375 62.703125 36.375 
Q 62.703125 50.203125 56.421875 58.203125 
Q 50.140625 66.21875 39.40625 66.21875 
z
M 39.40625 74.21875 
Q 54.734375 74.21875 63.90625 63.9375 
Q 73.09375 53.65625 73.09375 36.375 
Q 73.09375 19.140625 63.90625 8.859375 
Q 54.734375 -1.421875 39.40625 -1.421875 
Q 24.03125 -1.421875 14.8125 8.828125 
Q 5.609375 19.09375 5.609375 36.375 
Q 5.609375 53.65625 14.8125 63.9375 
Q 24.03125 74.21875 39.40625 74.21875 
z
" id="DejaVuSans-79"/>
        <path d="M 48.78125 52.59375 
L 48.78125 44.1875 
Q 44.96875 46.296875 41.140625 47.34375 
Q 37.3125 48.390625 33.40625 48.390625 
Q 24.65625 48.390625 19.8125 42.84375 
Q 14.984375 37.3125 14.984375 27.296875 
Q 14.984375 17.28125 19.8125 11.734375 
Q 24.65625 6.203125 33.40625 6.203125 
Q 37.3125 6.203125 41.140625 7.25 
Q 44.96875 8.296875 48.78125 10.40625 
L 48.78125 2.09375 
Q 45.015625 0.34375 40.984375 -0.53125 
Q 36.96875 -1.421875 32.421875 -1.421875 
Q 20.0625 -1.421875 12.78125 6.34375 
Q 5.515625 14.109375 5.515625 27.296875 
Q 5.515625 40.671875 12.859375 48.328125 
Q 20.21875 56 33.015625 56 
Q 37.15625 56 41.109375 55.140625 
Q 45.0625 54.296875 48.78125 52.59375 
z
" id="DejaVuSans-99"/>
        <path d="M 18.3125 70.21875 
L 18.3125 54.6875 
L 36.8125 54.6875 
L 36.8125 47.703125 
L 18.3125 47.703125 
L 18.3125 18.015625 
Q 18.3125 11.328125 20.140625 9.421875 
Q 21.96875 7.515625 27.59375 7.515625 
L 36.8125 7.515625 
L 36.8125 0 
L 27.59375 0 
Q 17.1875 0 13.234375 3.875 
Q 9.28125 7.765625 9.28125 18.015625 
L 9.28125 47.703125 
L 2.6875 47.703125 
L 2.6875 54.6875 
L 9.28125 54.6875 
L 9.28125 70.21875 
z
" id="DejaVuSans-116"/>
       </defs>
       <use xlink:href="#DejaVuSans-79"/>
       <use x="78.710938" xlink:href="#DejaVuSans-99"/>
       <use x="133.691406" xlink:href="#DejaVuSans-116"/>
      </g>
     </g>
    </g>
    <g id="xtick_9">
     <g id="line2d_9">
      <g>
       <use style="stroke:#000000;stroke-width:0.8;" x="494.55" xlink:href="#m002e74e65f" y="315"/>
      </g>
     </g>
     <g id="text_8">
      <!-- Nov -->
      <g transform="translate(484.790625 329.598437)scale(0.1 -0.1)">
       <defs>
        <path d="M 9.8125 72.90625 
L 23.09375 72.90625 
L 55.421875 11.921875 
L 55.421875 72.90625 
L 64.984375 72.90625 
L 64.984375 0 
L 51.703125 0 
L 19.390625 60.984375 
L 19.390625 0 
L 9.8125 0 
z
" id="DejaVuSans-78"/>
        <path d="M 30.609375 48.390625 
Q 23.390625 48.390625 19.1875 42.75 
Q 14.984375 37.109375 14.984375 27.296875 
Q 14.984375 17.484375 19.15625 11.84375 
Q 23.34375 6.203125 30.609375 6.203125 
Q 37.796875 6.203125 41.984375 11.859375 
Q 46.1875 17.53125 46.1875 27.296875 
Q 46.1875 37.015625 41.984375 42.703125 
Q 37.796875 48.390625 30.609375 48.390625 
z
M 30.609375 56 
Q 42.328125 56 49.015625 48.375 
Q 55.71875 40.765625 55.71875 27.296875 
Q 55.71875 13.875 49.015625 6.21875 
Q 42.328125 -1.421875 30.609375 -1.421875 
Q 18.84375 -1.421875 12.171875 6.21875 
Q 5.515625 13.875 5.515625 27.296875 
Q 5.515625 40.765625 12.171875 48.375 
Q 18.84375 56 30.609375 56 
z
" id="DejaVuSans-111"/>
        <path d="M 2.984375 54.6875 
L 12.5 54.6875 
L 29.59375 8.796875 
L 46.6875 54.6875 
L 56.203125 54.6875 
L 35.6875 0 
L 23.484375 0 
z
" id="DejaVuSans-118"/>
       </defs>
       <use xlink:href="#DejaVuSans-78"/>
       <use x="74.804688" xlink:href="#DejaVuSans-111"/>
       <use x="135.986328" xlink:href="#DejaVuSans-118"/>
      </g>
     </g>
    </g>
    <g id="xtick_10">
     <g id="line2d_10">
      <g>
       <use style="stroke:#000000;stroke-width:0.8;" x="546.8625" xlink:href="#m002e74e65f" y="315"/>
      </g>
     </g>
     <g id="text_9">
      <!-- Dec -->
      <g transform="translate(537.186719 329.598437)scale(0.1 -0.1)">
       <defs>
        <path d="M 19.671875 64.796875 
L 19.671875 8.109375 
L 31.59375 8.109375 
Q 46.6875 8.109375 53.6875 14.9375 
Q 60.6875 21.78125 60.6875 36.53125 
Q 60.6875 51.171875 53.6875 57.984375 
Q 46.6875 64.796875 31.59375 64.796875 
z
M 9.8125 72.90625 
L 30.078125 72.90625 
Q 51.265625 72.90625 61.171875 64.09375 
Q 71.09375 55.28125 71.09375 36.53125 
Q 71.09375 17.671875 61.125 8.828125 
Q 51.171875 0 30.078125 0 
L 9.8125 0 
z
" id="DejaVuSans-68"/>
       </defs>
       <use xlink:href="#DejaVuSans-68"/>
       <use x="77.001953" xlink:href="#DejaVuSans-101"/>
       <use x="138.525391" xlink:href="#DejaVuSans-99"/>
      </g>
     </g>
    </g>
    <g id="xtick_11">
     <g id="line2d_11">
      <g>
       <use style="stroke:#000000;stroke-width:0.8;" x="600.91875" xlink:href="#m002e74e65f" y="315"/>
      </g>
     </g>
     <g id="text_10">
      <!-- Jan -->
      <g transform="translate(593.210938 329.598437)scale(0.1 -0.1)">
       <use xlink:href="#DejaVuSans-74"/>
       <use x="29.492188" xlink:href="#DejaVuSans-97"/>
       <use x="90.771484" xlink:href="#DejaVuSans-110"/>
      </g>
      <!-- 2021 -->
      <g transform="translate(588.19375 340.79625)scale(0.1 -0.1)">
       <defs>
        <path d="M 19.1875 8.296875 
L 53.609375 8.296875 
L 53.609375 0 
L 7.328125 0 
L 7.328125 8.296875 
Q 12.9375 14.109375 22.625 23.890625 
Q 32.328125 33.6875 34.8125 36.53125 
Q 39.546875 41.84375 41.421875 45.53125 
Q 43.3125 49.21875 43.3125 52.78125 
Q 43.3125 58.59375 39.234375 62.25 
Q 35.15625 65.921875 28.609375 65.921875 
Q 23.96875 65.921875 18.8125 64.3125 
Q 13.671875 62.703125 7.8125 59.421875 
L 7.8125 69.390625 
Q 13.765625 71.78125 18.9375 73 
Q 24.125 74.21875 28.421875 74.21875 
Q 39.75 74.21875 46.484375 68.546875 
Q 53.21875 62.890625 53.21875 53.421875 
Q 53.21875 48.921875 51.53125 44.890625 
Q 49.859375 40.875 45.40625 35.40625 
Q 44.1875 33.984375 37.640625 27.21875 
Q 31.109375 20.453125 19.1875 8.296875 
z
" id="DejaVuSans-50"/>
        <path d="M 31.78125 66.40625 
Q 24.171875 66.40625 20.328125 58.90625 
Q 16.5 51.421875 16.5 36.375 
Q 16.5 21.390625 20.328125 13.890625 
Q 24.171875 6.390625 31.78125 6.390625 
Q 39.453125 6.390625 43.28125 13.890625 
Q 47.125 21.390625 47.125 36.375 
Q 47.125 51.421875 43.28125 58.90625 
Q 39.453125 66.40625 31.78125 66.40625 
z
M 31.78125 74.21875 
Q 44.046875 74.21875 50.515625 64.515625 
Q 56.984375 54.828125 56.984375 36.375 
Q 56.984375 17.96875 50.515625 8.265625 
Q 44.046875 -1.421875 31.78125 -1.421875 
Q 19.53125 -1.421875 13.0625 8.265625 
Q 6.59375 17.96875 6.59375 36.375 
Q 6.59375 54.828125 13.0625 64.515625 
Q 19.53125 74.21875 31.78125 74.21875 
z
" id="DejaVuSans-48"/>
        <path d="M 12.40625 8.296875 
L 28.515625 8.296875 
L 28.515625 63.921875 
L 10.984375 60.40625 
L 10.984375 69.390625 
L 28.421875 72.90625 
L 38.28125 72.90625 
L 38.28125 8.296875 
L 54.390625 8.296875 
L 54.390625 0 
L 12.40625 0 
z
" id="DejaVuSans-49"/>
       </defs>
       <use xlink:href="#DejaVuSans-50"/>
       <use x="63.623047" xlink:href="#DejaVuSans-48"/>
       <use x="127.246094" xlink:href="#DejaVuSans-50"/>
       <use x="190.869141" xlink:href="#DejaVuSans-49"/>
      </g>
     </g>
    </g>
    <g id="xtick_12">
     <g id="line2d_12">
      <g>
       <use style="stroke:#000000;stroke-width:0.8;" x="648" xlink:href="#m002e74e65f" y="315"/>
      </g>
     </g>
    </g>
    <g id="xtick_13">
     <g id="line2d_13">
      <defs>
       <path d="M 0 0 
L 0 2 
" id="m57d59aac59" style="stroke:#000000;stroke-width:0.6;"/>
      </defs>
      <g>
       <use style="stroke:#000000;stroke-width:0.6;" x="93.4875" xlink:href="#m57d59aac59" y="315"/>
      </g>
     </g>
    </g>
    <g id="xtick_14">
     <g id="line2d_14">
      <g>
       <use style="stroke:#000000;stroke-width:0.6;" x="105.69375" xlink:href="#m57d59aac59" y="315"/>
      </g>
     </g>
    </g>
    <g id="xtick_15">
     <g id="line2d_15">
      <g>
       <use style="stroke:#000000;stroke-width:0.6;" x="117.9" xlink:href="#m57d59aac59" y="315"/>
      </g>
     </g>
    </g>
    <g id="xtick_16">
     <g id="line2d_16">
      <g>
       <use style="stroke:#000000;stroke-width:0.6;" x="130.10625" xlink:href="#m57d59aac59" y="315"/>
      </g>
     </g>
    </g>
    <g id="xtick_17">
     <g id="line2d_17">
      <g>
       <use style="stroke:#000000;stroke-width:0.6;" x="142.3125" xlink:href="#m57d59aac59" y="315"/>
      </g>
     </g>
    </g>
    <g id="xtick_18">
     <g id="line2d_18">
      <g>
       <use style="stroke:#000000;stroke-width:0.6;" x="154.51875" xlink:href="#m57d59aac59" y="315"/>
      </g>
     </g>
    </g>
    <g id="xtick_19">
     <g id="line2d_19">
      <g>
       <use style="stroke:#000000;stroke-width:0.6;" x="166.725" xlink:href="#m57d59aac59" y="315"/>
      </g>
     </g>
    </g>
    <g id="xtick_20">
     <g id="line2d_20">
      <g>
       <use style="stroke:#000000;stroke-width:0.6;" x="178.93125" xlink:href="#m57d59aac59" y="315"/>
      </g>
     </g>
    </g>
    <g id="xtick_21">
     <g id="line2d_21">
      <g>
       <use style="stroke:#000000;stroke-width:0.6;" x="191.1375" xlink:href="#m57d59aac59" y="315"/>
      </g>
     </g>
    </g>
    <g id="xtick_22">
     <g id="line2d_22">
      <g>
       <use style="stroke:#000000;stroke-width:0.6;" x="203.34375" xlink:href="#m57d59aac59" y="315"/>
      </g>
     </g>
    </g>
    <g id="xtick_23">
     <g id="line2d_23">
      <g>
       <use style="stroke:#000000;stroke-width:0.6;" x="215.55" xlink:href="#m57d59aac59" y="315"/>
      </g>
     </g>
    </g>
    <g id="xtick_24">
     <g id="line2d_24">
      <g>
       <use style="stroke:#000000;stroke-width:0.6;" x="239.9625" xlink:href="#m57d59aac59" y="315"/>
      </g>
     </g>
    </g>
    <g id="xtick_25">
     <g id="line2d_25">
      <g>
       <use style="stroke:#000000;stroke-width:0.6;" x="252.16875" xlink:href="#m57d59aac59" y="315"/>
      </g>
     </g>
    </g>
    <g id="xtick_26">
     <g id="line2d_26">
      <g>
       <use style="stroke:#000000;stroke-width:0.6;" x="264.375" xlink:href="#m57d59aac59" y="315"/>
      </g>
     </g>
    </g>
    <g id="xtick_27">
     <g id="line2d_27">
      <g>
       <use style="stroke:#000000;stroke-width:0.6;" x="276.58125" xlink:href="#m57d59aac59" y="315"/>
      </g>
     </g>
    </g>
    <g id="xtick_28">
     <g id="line2d_28">
      <g>
       <use style="stroke:#000000;stroke-width:0.6;" x="288.7875" xlink:href="#m57d59aac59" y="315"/>
      </g>
     </g>
    </g>
    <g id="xtick_29">
     <g id="line2d_29">
      <g>
       <use style="stroke:#000000;stroke-width:0.6;" x="300.99375" xlink:href="#m57d59aac59" y="315"/>
      </g>
     </g>
    </g>
    <g id="xtick_30">
     <g id="line2d_30">
      <g>
       <use style="stroke:#000000;stroke-width:0.6;" x="313.2" xlink:href="#m57d59aac59" y="315"/>
      </g>
     </g>
    </g>
    <g id="xtick_31">
     <g id="line2d_31">
      <g>
       <use style="stroke:#000000;stroke-width:0.6;" x="325.40625" xlink:href="#m57d59aac59" y="315"/>
      </g>
     </g>
    </g>
    <g id="xtick_32">
     <g id="line2d_32">
      <g>
       <use style="stroke:#000000;stroke-width:0.6;" x="337.6125" xlink:href="#m57d59aac59" y="315"/>
      </g>
     </g>
    </g>
    <g id="xtick_33">
     <g id="line2d_33">
      <g>
       <use style="stroke:#000000;stroke-width:0.6;" x="349.81875" xlink:href="#m57d59aac59" y="315"/>
      </g>
     </g>
    </g>
    <g id="xtick_34">
     <g id="line2d_34">
      <g>
       <use style="stroke:#000000;stroke-width:0.6;" x="362.025" xlink:href="#m57d59aac59" y="315"/>
      </g>
     </g>
    </g>
    <g id="xtick_35">
     <g id="line2d_35">
      <g>
       <use style="stroke:#000000;stroke-width:0.6;" x="374.23125" xlink:href="#m57d59aac59" y="315"/>
      </g>
     </g>
    </g>
    <g id="xtick_36">
     <g id="line2d_36">
      <g>
       <use style="stroke:#000000;stroke-width:0.6;" x="386.4375" xlink:href="#m57d59aac59" y="315"/>
      </g>
     </g>
    </g>
    <g id="xtick_37">
     <g id="line2d_37">
      <g>
       <use style="stroke:#000000;stroke-width:0.6;" x="398.64375" xlink:href="#m57d59aac59" y="315"/>
      </g>
     </g>
    </g>
    <g id="xtick_38">
     <g id="line2d_38">
      <g>
       <use style="stroke:#000000;stroke-width:0.6;" x="410.85" xlink:href="#m57d59aac59" y="315"/>
      </g>
     </g>
    </g>
    <g id="xtick_39">
     <g id="line2d_39">
      <g>
       <use style="stroke:#000000;stroke-width:0.6;" x="423.05625" xlink:href="#m57d59aac59" y="315"/>
      </g>
     </g>
    </g>
    <g id="xtick_40">
     <g id="line2d_40">
      <g>
       <use style="stroke:#000000;stroke-width:0.6;" x="435.2625" xlink:href="#m57d59aac59" y="315"/>
      </g>
     </g>
    </g>
    <g id="xtick_41">
     <g id="line2d_41">
      <g>
       <use style="stroke:#000000;stroke-width:0.6;" x="447.46875" xlink:href="#m57d59aac59" y="315"/>
      </g>
     </g>
    </g>
    <g id="xtick_42">
     <g id="line2d_42">
      <g>
       <use style="stroke:#000000;stroke-width:0.6;" x="459.675" xlink:href="#m57d59aac59" y="315"/>
      </g>
     </g>
    </g>
    <g id="xtick_43">
     <g id="line2d_43">
      <g>
       <use style="stroke:#000000;stroke-width:0.6;" x="471.88125" xlink:href="#m57d59aac59" y="315"/>
      </g>
     </g>
    </g>
    <g id="xtick_44">
     <g id="line2d_44">
      <g>
       <use style="stroke:#000000;stroke-width:0.6;" x="484.0875" xlink:href="#m57d59aac59" y="315"/>
      </g>
     </g>
    </g>
    <g id="xtick_45">
     <g id="line2d_45">
      <g>
       <use style="stroke:#000000;stroke-width:0.6;" x="496.29375" xlink:href="#m57d59aac59" y="315"/>
      </g>
     </g>
    </g>
    <g id="xtick_46">
     <g id="line2d_46">
      <g>
       <use style="stroke:#000000;stroke-width:0.6;" x="508.5" xlink:href="#m57d59aac59" y="315"/>
      </g>
     </g>
    </g>
    <g id="xtick_47">
     <g id="line2d_47">
      <g>
       <use style="stroke:#000000;stroke-width:0.6;" x="520.70625" xlink:href="#m57d59aac59" y="315"/>
      </g>
     </g>
    </g>
    <g id="xtick_48">
     <g id="line2d_48">
      <g>
       <use style="stroke:#000000;stroke-width:0.6;" x="532.9125" xlink:href="#m57d59aac59" y="315"/>
      </g>
     </g>
    </g>
    <g id="xtick_49">
     <g id="line2d_49">
      <g>
       <use style="stroke:#000000;stroke-width:0.6;" x="545.11875" xlink:href="#m57d59aac59" y="315"/>
      </g>
     </g>
    </g>
    <g id="xtick_50">
     <g id="line2d_50">
      <g>
       <use style="stroke:#000000;stroke-width:0.6;" x="557.325" xlink:href="#m57d59aac59" y="315"/>
      </g>
     </g>
    </g>
    <g id="xtick_51">
     <g id="line2d_51">
      <g>
       <use style="stroke:#000000;stroke-width:0.6;" x="569.53125" xlink:href="#m57d59aac59" y="315"/>
      </g>
     </g>
    </g>
    <g id="xtick_52">
     <g id="line2d_52">
      <g>
       <use style="stroke:#000000;stroke-width:0.6;" x="581.7375" xlink:href="#m57d59aac59" y="315"/>
      </g>
     </g>
    </g>
    <g id="xtick_53">
     <g id="line2d_53">
      <g>
       <use style="stroke:#000000;stroke-width:0.6;" x="593.94375" xlink:href="#m57d59aac59" y="315"/>
      </g>
     </g>
    </g>
    <g id="xtick_54">
     <g id="line2d_54">
      <g>
       <use style="stroke:#000000;stroke-width:0.6;" x="606.15" xlink:href="#m57d59aac59" y="315"/>
      </g>
     </g>
    </g>
    <g id="xtick_55">
     <g id="line2d_55">
      <g>
       <use style="stroke:#000000;stroke-width:0.6;" x="618.35625" xlink:href="#m57d59aac59" y="315"/>
      </g>
     </g>
    </g>
    <g id="xtick_56">
     <g id="line2d_56">
      <g>
       <use style="stroke:#000000;stroke-width:0.6;" x="630.5625" xlink:href="#m57d59aac59" y="315"/>
      </g>
     </g>
    </g>
    <g id="xtick_57">
     <g id="line2d_57">
      <g>
       <use style="stroke:#000000;stroke-width:0.6;" x="642.76875" xlink:href="#m57d59aac59" y="315"/>
      </g>
     </g>
    </g>
    <g id="text_11">
     <!-- date -->
     <g transform="translate(357.725 354.474375)scale(0.1 -0.1)">
      <defs>
       <path d="M 45.40625 46.390625 
L 45.40625 75.984375 
L 54.390625 75.984375 
L 54.390625 0 
L 45.40625 0 
L 45.40625 8.203125 
Q 42.578125 3.328125 38.25 0.953125 
Q 33.9375 -1.421875 27.875 -1.421875 
Q 17.96875 -1.421875 11.734375 6.484375 
Q 5.515625 14.40625 5.515625 27.296875 
Q 5.515625 40.1875 11.734375 48.09375 
Q 17.96875 56 27.875 56 
Q 33.9375 56 38.25 53.625 
Q 42.578125 51.265625 45.40625 46.390625 
z
M 14.796875 27.296875 
Q 14.796875 17.390625 18.875 11.75 
Q 22.953125 6.109375 30.078125 6.109375 
Q 37.203125 6.109375 41.296875 11.75 
Q 45.40625 17.390625 45.40625 27.296875 
Q 45.40625 37.203125 41.296875 42.84375 
Q 37.203125 48.484375 30.078125 48.484375 
Q 22.953125 48.484375 18.875 42.84375 
Q 14.796875 37.203125 14.796875 27.296875 
z
" id="DejaVuSans-100"/>
      </defs>
      <use xlink:href="#DejaVuSans-100"/>
      <use x="63.476562" xlink:href="#DejaVuSans-97"/>
      <use x="124.755859" xlink:href="#DejaVuSans-116"/>
      <use x="163.964844" xlink:href="#DejaVuSans-101"/>
     </g>
    </g>
   </g>
   <g id="matplotlib.axis_2">
    <g id="ytick_1">
     <g id="line2d_58">
      <path clip-path="url(#p9cd9cb1b5b)" d="M 90 305.555259 
L 648 305.555259 
" style="fill:none;stroke:#b0b0b0;stroke-dasharray:0.8,1.32;stroke-dashoffset:0;stroke-width:0.8;"/>
     </g>
     <g id="line2d_59">
      <defs>
       <path d="M 0 0 
L -3.5 0 
" id="macba3cc74c" style="stroke:#000000;stroke-width:0.8;"/>
      </defs>
      <g>
       <use style="stroke:#000000;stroke-width:0.8;" x="90" xlink:href="#macba3cc74c" y="305.555259"/>
      </g>
     </g>
     <g id="text_12">
      <!-- 0.4 -->
      <g transform="translate(67.096875 309.354478)scale(0.1 -0.1)">
       <defs>
        <path d="M 10.6875 12.40625 
L 21 12.40625 
L 21 0 
L 10.6875 0 
z
" id="DejaVuSans-46"/>
        <path d="M 37.796875 64.3125 
L 12.890625 25.390625 
L 37.796875 25.390625 
z
M 35.203125 72.90625 
L 47.609375 72.90625 
L 47.609375 25.390625 
L 58.015625 25.390625 
L 58.015625 17.1875 
L 47.609375 17.1875 
L 47.609375 0 
L 37.796875 0 
L 37.796875 17.1875 
L 4.890625 17.1875 
L 4.890625 26.703125 
z
" id="DejaVuSans-52"/>
       </defs>
       <use xlink:href="#DejaVuSans-48"/>
       <use x="63.623047" xlink:href="#DejaVuSans-46"/>
       <use x="95.410156" xlink:href="#DejaVuSans-52"/>
      </g>
     </g>
    </g>
    <g id="ytick_2">
     <g id="line2d_60">
      <path clip-path="url(#p9cd9cb1b5b)" d="M 90 273.705285 
L 648 273.705285 
" style="fill:none;stroke:#b0b0b0;stroke-dasharray:0.8,1.32;stroke-dashoffset:0;stroke-width:0.8;"/>
     </g>
     <g id="line2d_61">
      <g>
       <use style="stroke:#000000;stroke-width:0.8;" x="90" xlink:href="#macba3cc74c" y="273.705285"/>
      </g>
     </g>
     <g id="text_13">
      <!-- 0.6 -->
      <g transform="translate(67.096875 277.504504)scale(0.1 -0.1)">
       <defs>
        <path d="M 33.015625 40.375 
Q 26.375 40.375 22.484375 35.828125 
Q 18.609375 31.296875 18.609375 23.390625 
Q 18.609375 15.53125 22.484375 10.953125 
Q 26.375 6.390625 33.015625 6.390625 
Q 39.65625 6.390625 43.53125 10.953125 
Q 47.40625 15.53125 47.40625 23.390625 
Q 47.40625 31.296875 43.53125 35.828125 
Q 39.65625 40.375 33.015625 40.375 
z
M 52.59375 71.296875 
L 52.59375 62.3125 
Q 48.875 64.0625 45.09375 64.984375 
Q 41.3125 65.921875 37.59375 65.921875 
Q 27.828125 65.921875 22.671875 59.328125 
Q 17.53125 52.734375 16.796875 39.40625 
Q 19.671875 43.65625 24.015625 45.921875 
Q 28.375 48.1875 33.59375 48.1875 
Q 44.578125 48.1875 50.953125 41.515625 
Q 57.328125 34.859375 57.328125 23.390625 
Q 57.328125 12.15625 50.6875 5.359375 
Q 44.046875 -1.421875 33.015625 -1.421875 
Q 20.359375 -1.421875 13.671875 8.265625 
Q 6.984375 17.96875 6.984375 36.375 
Q 6.984375 53.65625 15.1875 63.9375 
Q 23.390625 74.21875 37.203125 74.21875 
Q 40.921875 74.21875 44.703125 73.484375 
Q 48.484375 72.75 52.59375 71.296875 
z
" id="DejaVuSans-54"/>
       </defs>
       <use xlink:href="#DejaVuSans-48"/>
       <use x="63.623047" xlink:href="#DejaVuSans-46"/>
       <use x="95.410156" xlink:href="#DejaVuSans-54"/>
      </g>
     </g>
    </g>
    <g id="ytick_3">
     <g id="line2d_62">
      <path clip-path="url(#p9cd9cb1b5b)" d="M 90 241.855312 
L 648 241.855312 
" style="fill:none;stroke:#b0b0b0;stroke-dasharray:0.8,1.32;stroke-dashoffset:0;stroke-width:0.8;"/>
     </g>
     <g id="line2d_63">
      <g>
       <use style="stroke:#000000;stroke-width:0.8;" x="90" xlink:href="#macba3cc74c" y="241.855312"/>
      </g>
     </g>
     <g id="text_14">
      <!-- 0.8 -->
      <g transform="translate(67.096875 245.65453)scale(0.1 -0.1)">
       <defs>
        <path d="M 31.78125 34.625 
Q 24.75 34.625 20.71875 30.859375 
Q 16.703125 27.09375 16.703125 20.515625 
Q 16.703125 13.921875 20.71875 10.15625 
Q 24.75 6.390625 31.78125 6.390625 
Q 38.8125 6.390625 42.859375 10.171875 
Q 46.921875 13.96875 46.921875 20.515625 
Q 46.921875 27.09375 42.890625 30.859375 
Q 38.875 34.625 31.78125 34.625 
z
M 21.921875 38.8125 
Q 15.578125 40.375 12.03125 44.71875 
Q 8.5 49.078125 8.5 55.328125 
Q 8.5 64.0625 14.71875 69.140625 
Q 20.953125 74.21875 31.78125 74.21875 
Q 42.671875 74.21875 48.875 69.140625 
Q 55.078125 64.0625 55.078125 55.328125 
Q 55.078125 49.078125 51.53125 44.71875 
Q 48 40.375 41.703125 38.8125 
Q 48.828125 37.15625 52.796875 32.3125 
Q 56.78125 27.484375 56.78125 20.515625 
Q 56.78125 9.90625 50.3125 4.234375 
Q 43.84375 -1.421875 31.78125 -1.421875 
Q 19.734375 -1.421875 13.25 4.234375 
Q 6.78125 9.90625 6.78125 20.515625 
Q 6.78125 27.484375 10.78125 32.3125 
Q 14.796875 37.15625 21.921875 38.8125 
z
M 18.3125 54.390625 
Q 18.3125 48.734375 21.84375 45.5625 
Q 25.390625 42.390625 31.78125 42.390625 
Q 38.140625 42.390625 41.71875 45.5625 
Q 45.3125 48.734375 45.3125 54.390625 
Q 45.3125 60.0625 41.71875 63.234375 
Q 38.140625 66.40625 31.78125 66.40625 
Q 25.390625 66.40625 21.84375 63.234375 
Q 18.3125 60.0625 18.3125 54.390625 
z
" id="DejaVuSans-56"/>
       </defs>
       <use xlink:href="#DejaVuSans-48"/>
       <use x="63.623047" xlink:href="#DejaVuSans-46"/>
       <use x="95.410156" xlink:href="#DejaVuSans-56"/>
      </g>
     </g>
    </g>
    <g id="ytick_4">
     <g id="line2d_64">
      <path clip-path="url(#p9cd9cb1b5b)" d="M 90 210.005338 
L 648 210.005338 
" style="fill:none;stroke:#b0b0b0;stroke-dasharray:0.8,1.32;stroke-dashoffset:0;stroke-width:0.8;"/>
     </g>
     <g id="line2d_65">
      <g>
       <use style="stroke:#000000;stroke-width:0.8;" x="90" xlink:href="#macba3cc74c" y="210.005338"/>
      </g>
     </g>
     <g id="text_15">
      <!-- 1.0 -->
      <g transform="translate(67.096875 213.804557)scale(0.1 -0.1)">
       <use xlink:href="#DejaVuSans-49"/>
       <use x="63.623047" xlink:href="#DejaVuSans-46"/>
       <use x="95.410156" xlink:href="#DejaVuSans-48"/>
      </g>
     </g>
    </g>
    <g id="ytick_5">
     <g id="line2d_66">
      <path clip-path="url(#p9cd9cb1b5b)" d="M 90 178.155364 
L 648 178.155364 
" style="fill:none;stroke:#b0b0b0;stroke-dasharray:0.8,1.32;stroke-dashoffset:0;stroke-width:0.8;"/>
     </g>
     <g id="line2d_67">
      <g>
       <use style="stroke:#000000;stroke-width:0.8;" x="90" xlink:href="#macba3cc74c" y="178.155364"/>
      </g>
     </g>
     <g id="text_16">
      <!-- 1.2 -->
      <g transform="translate(67.096875 181.954583)scale(0.1 -0.1)">
       <use xlink:href="#DejaVuSans-49"/>
       <use x="63.623047" xlink:href="#DejaVuSans-46"/>
       <use x="95.410156" xlink:href="#DejaVuSans-50"/>
      </g>
     </g>
    </g>
    <g id="ytick_6">
     <g id="line2d_68">
      <path clip-path="url(#p9cd9cb1b5b)" d="M 90 146.305391 
L 648 146.305391 
" style="fill:none;stroke:#b0b0b0;stroke-dasharray:0.8,1.32;stroke-dashoffset:0;stroke-width:0.8;"/>
     </g>
     <g id="line2d_69">
      <g>
       <use style="stroke:#000000;stroke-width:0.8;" x="90" xlink:href="#macba3cc74c" y="146.305391"/>
      </g>
     </g>
     <g id="text_17">
      <!-- 1.4 -->
      <g transform="translate(67.096875 150.104609)scale(0.1 -0.1)">
       <use xlink:href="#DejaVuSans-49"/>
       <use x="63.623047" xlink:href="#DejaVuSans-46"/>
       <use x="95.410156" xlink:href="#DejaVuSans-52"/>
      </g>
     </g>
    </g>
    <g id="ytick_7">
     <g id="line2d_70">
      <path clip-path="url(#p9cd9cb1b5b)" d="M 90 114.455417 
L 648 114.455417 
" style="fill:none;stroke:#b0b0b0;stroke-dasharray:0.8,1.32;stroke-dashoffset:0;stroke-width:0.8;"/>
     </g>
     <g id="line2d_71">
      <g>
       <use style="stroke:#000000;stroke-width:0.8;" x="90" xlink:href="#macba3cc74c" y="114.455417"/>
      </g>
     </g>
     <g id="text_18">
      <!-- 1.6 -->
      <g transform="translate(67.096875 118.254636)scale(0.1 -0.1)">
       <use xlink:href="#DejaVuSans-49"/>
       <use x="63.623047" xlink:href="#DejaVuSans-46"/>
       <use x="95.410156" xlink:href="#DejaVuSans-54"/>
      </g>
     </g>
    </g>
    <g id="ytick_8">
     <g id="line2d_72">
      <path clip-path="url(#p9cd9cb1b5b)" d="M 90 82.605443 
L 648 82.605443 
" style="fill:none;stroke:#b0b0b0;stroke-dasharray:0.8,1.32;stroke-dashoffset:0;stroke-width:0.8;"/>
     </g>
     <g id="line2d_73">
      <g>
       <use style="stroke:#000000;stroke-width:0.8;" x="90" xlink:href="#macba3cc74c" y="82.605443"/>
      </g>
     </g>
     <g id="text_19">
      <!-- 1.8 -->
      <g transform="translate(67.096875 86.404662)scale(0.1 -0.1)">
       <use xlink:href="#DejaVuSans-49"/>
       <use x="63.623047" xlink:href="#DejaVuSans-46"/>
       <use x="95.410156" xlink:href="#DejaVuSans-56"/>
      </g>
     </g>
    </g>
    <g id="ytick_9">
     <g id="line2d_74">
      <path clip-path="url(#p9cd9cb1b5b)" d="M 90 50.75547 
L 648 50.75547 
" style="fill:none;stroke:#b0b0b0;stroke-dasharray:0.8,1.32;stroke-dashoffset:0;stroke-width:0.8;"/>
     </g>
     <g id="line2d_75">
      <g>
       <use style="stroke:#000000;stroke-width:0.8;" x="90" xlink:href="#macba3cc74c" y="50.75547"/>
      </g>
     </g>
     <g id="text_20">
      <!-- 2.0 -->
      <g transform="translate(67.096875 54.554689)scale(0.1 -0.1)">
       <use xlink:href="#DejaVuSans-50"/>
       <use x="63.623047" xlink:href="#DejaVuSans-46"/>
       <use x="95.410156" xlink:href="#DejaVuSans-48"/>
      </g>
     </g>
    </g>
   </g>
   <g id="line2d_76">
    <path clip-path="url(#p9cd9cb1b5b)" d="M 90 260.122511 
L 91.74375 261.187599 
L 93.4875 259.555873 
L 95.23125 259.614631 
L 96.975 258.999168 
L 98.71875 259.164176 
L 100.4625 260.325359 
L 102.20625 260.25084 
L 105.69375 259.828053 
L 107.4375 261.187055 
L 109.18125 262.335568 
L 110.925 262.883319 
L 112.66875 263.133391 
L 114.4125 262.797366 
L 116.15625 263.509894 
L 117.9 264.486636 
L 119.64375 264.335517 
L 121.3875 264.640235 
L 123.13125 264.792729 
L 124.875 265.958046 
L 126.61875 266.122323 
L 128.3625 265.713034 
L 130.10625 265.88435 
L 131.85 266.561628 
L 133.59375 266.673621 
L 137.08125 266.548178 
L 138.825 266.350593 
L 140.56875 264.487986 
L 142.3125 264.428045 
L 144.05625 262.781283 
L 145.8 261.909832 
L 147.54375 258.984052 
L 149.2875 256.403359 
L 151.03125 254.607351 
L 152.775 251.818614 
L 154.51875 250.654461 
L 156.2625 248.858324 
L 158.00625 244.847947 
L 159.75 241.83922 
L 161.49375 237.418927 
L 163.2375 234.637591 
L 164.98125 230.597187 
L 166.725 227.639834 
L 168.46875 223.587301 
L 170.2125 218.130812 
L 171.95625 213.34344 
L 173.7 208.104359 
L 177.1875 196.401699 
L 178.93125 189.530325 
L 180.675 183.225306 
L 182.41875 178.1818 
L 187.65 158.842484 
L 191.1375 143.98502 
L 192.88125 138.337613 
L 194.625 132.024509 
L 196.36875 123.915598 
L 198.1125 118.781825 
L 199.85625 115.496027 
L 201.6 110.814079 
L 203.34375 107.224657 
L 205.0875 106.026267 
L 206.83125 105.406311 
L 208.575 105.424564 
L 210.31875 105.028741 
L 212.0625 106.67135 
L 213.80625 110.402971 
L 215.55 115.176203 
L 217.29375 121.440632 
L 219.0375 130.131067 
L 220.78125 137.656576 
L 224.26875 156.286458 
L 226.0125 164.728149 
L 229.5 182.959342 
L 231.24375 190.333267 
L 232.9875 197.045686 
L 234.73125 201.585839 
L 236.475 205.539142 
L 238.21875 210.755773 
L 239.9625 214.393375 
L 241.70625 215.978727 
L 243.45 217.808157 
L 245.19375 217.164347 
L 246.9375 217.759167 
L 248.68125 217.766598 
L 250.425 215.982742 
L 252.16875 214.691846 
L 253.9125 212.03203 
L 255.65625 210.62802 
L 259.14375 206.016782 
L 260.8875 202.725392 
L 264.375 196.606598 
L 266.11875 194.17932 
L 267.8625 191.515235 
L 269.60625 187.955593 
L 271.35 185.736454 
L 273.09375 183.13822 
L 274.8375 183.80642 
L 276.58125 182.450094 
L 278.325 179.762973 
L 280.06875 179.287768 
L 281.8125 180.058994 
L 287.04375 181.048168 
L 288.7875 179.379563 
L 290.53125 179.427005 
L 292.275 179.165239 
L 294.01875 178.181046 
L 295.7625 175.893055 
L 297.50625 173.846484 
L 299.25 172.816767 
L 300.99375 171.206293 
L 302.7375 169.04218 
L 304.48125 167.222844 
L 306.225 165.870119 
L 307.96875 164.768016 
L 309.7125 162.994426 
L 311.45625 163.610474 
L 314.94375 167.417409 
L 316.6875 170.298722 
L 318.43125 171.831028 
L 320.175 176.355397 
L 321.91875 179.268162 
L 323.6625 184.320131 
L 325.40625 188.80586 
L 327.15 196.07257 
L 328.89375 201.738982 
L 332.38125 211.947855 
L 334.125 216.759103 
L 337.6125 224.184804 
L 339.35625 226.640284 
L 342.84375 230.389919 
L 344.5875 230.93056 
L 348.075 229.587969 
L 349.81875 228.208561 
L 351.5625 226.169516 
L 353.30625 223.788643 
L 355.05 221.855071 
L 356.79375 217.564272 
L 358.5375 214.459014 
L 360.28125 209.331134 
L 362.025 204.829061 
L 365.5125 193.485639 
L 367.25625 186.418578 
L 370.74375 175.280279 
L 372.4875 169.311213 
L 374.23125 161.801959 
L 375.975 157.613666 
L 377.71875 150.595544 
L 379.4625 145.50839 
L 381.20625 141.618994 
L 382.95 137.368957 
L 384.69375 137.528011 
L 386.4375 135.602719 
L 388.18125 136.899585 
L 389.925 137.51107 
L 393.4125 141.831989 
L 395.15625 146.165093 
L 396.9 150.886962 
L 398.64375 158.481057 
L 400.3875 163.932132 
L 402.13125 168.959325 
L 405.61875 185.413858 
L 407.3625 190.578775 
L 409.10625 199.047391 
L 410.85 206.575736 
L 412.59375 213.548073 
L 414.3375 221.344337 
L 417.825 235.136712 
L 419.56875 240.2415 
L 421.3125 246.152426 
L 423.05625 251.266103 
L 424.8 254.592104 
L 428.2875 264.453441 
L 430.03125 267.598468 
L 431.775 271.028315 
L 433.51875 273.642403 
L 435.2625 275.472802 
L 437.00625 278.316089 
L 438.75 279.813901 
L 440.49375 281.913238 
L 442.2375 283.269844 
L 443.98125 284.459093 
L 445.725 285.835135 
L 447.46875 286.576135 
L 449.2125 287.56699 
L 450.95625 288.765084 
L 452.7 289.092032 
L 454.44375 289.228169 
L 456.1875 288.588749 
L 457.93125 288.450178 
L 461.41875 287.569095 
L 463.1625 286.5493 
L 464.90625 285.172269 
L 466.65 283.624108 
L 468.39375 281.312899 
L 470.1375 279.605837 
L 471.88125 275.819724 
L 473.625 272.405385 
L 477.1125 266.069636 
L 478.85625 261.846722 
L 480.6 256.953872 
L 482.34375 252.492709 
L 485.83125 242.180607 
L 487.575 235.642759 
L 491.0625 221.754263 
L 492.80625 213.332392 
L 494.55 206.524712 
L 496.29375 199.171436 
L 499.78125 182.82285 
L 501.525 173.579983 
L 503.26875 165.085889 
L 505.0125 155.887548 
L 506.75625 148.006676 
L 508.5 138.950371 
L 510.24375 133.003169 
L 511.9875 125.129492 
L 515.475 114.339304 
L 517.21875 110.085661 
L 518.9625 106.686889 
L 520.70625 106.702037 
L 522.45 102.698717 
L 524.19375 103.592296 
L 525.9375 101.877577 
L 527.68125 103.108886 
L 529.425 104.982506 
L 531.16875 107.118173 
L 532.9125 110.862218 
L 534.65625 112.325839 
L 536.4 114.17849 
L 538.14375 116.199068 
L 539.8875 117.838585 
L 541.63125 118.816054 
L 543.375 118.898955 
L 545.11875 119.619136 
L 546.8625 118.567622 
L 548.60625 117.080411 
L 550.35 117.388151 
L 552.09375 117.547563 
L 553.8375 117.017434 
L 555.58125 118.968353 
L 557.325 118.969794 
L 559.06875 118.365701 
L 560.8125 116.363271 
L 562.55625 117.913378 
L 564.3 120.863168 
L 566.04375 121.212209 
L 567.7875 125.891568 
L 569.53125 128.172301 
L 571.275 134.001984 
L 573.01875 136.835013 
L 576.50625 143.193001 
L 579.99375 150.124151 
L 581.7375 151.814585 
L 585.225 158.951236 
L 586.96875 161.996942 
L 588.7125 165.674187 
L 590.45625 169.842209 
L 592.2 174.396295 
L 593.94375 178.089273 
L 595.6875 180.333692 
L 597.43125 184.97149 
L 599.175 188.261269 
L 600.91875 193.814829 
L 602.6625 197.450461 
L 604.40625 197.961474 
L 606.15 201.284613 
L 607.89375 204.153249 
L 609.6375 204.887275 
L 611.38125 206.465803 
L 613.125 206.752453 
L 614.86875 206.717234 
L 616.6125 208.729621 
L 618.35625 208.415739 
L 620.1 208.663092 
L 621.84375 207.842134 
L 623.5875 207.606523 
L 625.33125 205.927205 
L 627.075 206.56547 
L 628.81875 203.539183 
L 630.5625 202.738759 
L 632.30625 201.613566 
L 634.05 198.832706 
L 635.79375 198.307748 
L 637.5375 197.944172 
L 639.28125 195.256319 
L 641.025 195.202807 
L 642.76875 192.009876 
L 644.5125 192.322714 
L 646.25625 192.05986 
L 648 190.880627 
L 649.74375 192.86917 
L 651.4875 192.300429 
L 653.23125 193.910702 
L 654.975 192.568318 
L 656.71875 192.174367 
L 658.4625 192.179307 
L 660.20625 191.526648 
L 661.95 193.264963 
L 661.95 193.264963 
" style="fill:none;stroke:#fc997a;stroke-linecap:square;stroke-width:1.5;"/>
   </g>
   <g id="line2d_77">
    <path clip-path="url(#p9cd9cb1b5b)" d="M 90 210.005338 
L 648 210.005338 
" style="fill:none;stroke:#000000;stroke-dasharray:3.7,1.6;stroke-dashoffset:0;"/>
   </g>
   <g id="patch_3">
    <path d="M 90 315 
L 90 43.2 
" style="fill:none;stroke:#000000;stroke-linecap:square;stroke-linejoin:miter;stroke-width:0.8;"/>
   </g>
   <g id="patch_4">
    <path d="M 648 315 
L 648 43.2 
" style="fill:none;stroke:#000000;stroke-linecap:square;stroke-linejoin:miter;stroke-width:0.8;"/>
   </g>
   <g id="patch_5">
    <path d="M 90 315 
L 648 315 
" style="fill:none;stroke:#000000;stroke-linecap:square;stroke-linejoin:miter;stroke-width:0.8;"/>
   </g>
   <g id="patch_6">
    <path d="M 90 43.2 
L 648 43.2 
" style="fill:none;stroke:#000000;stroke-linecap:square;stroke-linejoin:miter;stroke-width:0.8;"/>
   </g>
   <g id="text_21">
    <!-- 212    $R_t$ -->
    <g transform="translate(306.72 37.2)scale(0.12 -0.12)">
     <defs>
      <path id="DejaVuSans-32"/>
      <path d="M 15.71875 54.6875 
L 15.71875 24.125 
L 6.640625 20.40625 
L 6.640625 54.6875 
z
" id="DejaVuSans-1497"/>
      <path d="M 56.25 29.59375 
L 56.25 0 
L 47.171875 0 
L 47.171875 30.90625 
Q 47.171875 40.578125 44 44.140625 
Q 40.828125 47.703125 31.84375 47.703125 
L 18.109375 47.703125 
L 18.109375 0 
L 9.078125 0 
L 9.078125 54.6875 
L 31.734375 54.6875 
Q 45.21875 54.6875 50.734375 48.828125 
Q 56.25 42.96875 56.25 29.59375 
z
" id="DejaVuSans-1495"/>
      <path d="M 47.359375 27.828125 
L 47.359375 0 
L 38.28125 0 
L 38.28125 27.828125 
Q 38.28125 31.390625 37.765625 34.265625 
Q 37.25 37.15625 36 39.71875 
Q 34.765625 42.28125 32.8125 43.984375 
Q 30.859375 45.703125 27.78125 46.703125 
Q 24.703125 47.703125 20.703125 47.703125 
L 4.296875 47.703125 
L 4.296875 54.6875 
L 20.65625 54.6875 
Q 26.8125 54.6875 31.46875 53.390625 
Q 36.140625 52.09375 39.109375 49.828125 
Q 42.09375 47.5625 43.96875 44.109375 
Q 45.84375 40.671875 46.59375 36.734375 
Q 47.359375 32.8125 47.359375 27.828125 
z
" id="DejaVuSans-1512"/>
      <path d="M 30.328125 54.6875 
L 30.328125 47.703125 
L 26.421875 47.703125 
Q 22.171875 47.703125 20.578125 43.921875 
Q 19 40.140625 19 30.90625 
L 19 0 
L 9.90625 0 
L 9.90625 30.90625 
Q 9.90625 37.109375 11.78125 41.453125 
Q 13.671875 45.796875 16.40625 47.703125 
L 4.296875 47.703125 
L 4.296875 54.6875 
z
" id="DejaVuSans-1494"/>
      <path d="M 4.296875 54.6875 
L 14.890625 54.6875 
Q 15.09375 54.15625 16.703125 50.3125 
Q 18.3125 46.484375 19.390625 42.671875 
Q 20.75 46.09375 22.625 48.53125 
Q 24.515625 50.984375 26.359375 52.296875 
Q 28.21875 53.609375 30.609375 54.34375 
Q 33.015625 55.078125 34.859375 55.265625 
Q 36.71875 55.46875 39.203125 55.46875 
Q 58.84375 55.46875 58.84375 29.59375 
L 58.84375 0 
L 31.390625 0 
L 31.390625 6.9375 
L 49.75 6.9375 
L 49.75 29.59375 
Q 49.75 39.109375 46.765625 43.671875 
Q 43.796875 48.25 39.0625 48.25 
Q 30.28125 48.25 26.078125 40.4375 
Q 23.734375 35.984375 21.6875 25.921875 
Q 21.578125 25.25 21.34375 24.125 
L 16.546875 0 
L 7.46875 0 
L 11.375 20.40625 
Q 11.53125 21.1875 11.890625 22.96875 
Q 12.25 24.75 12.375 25.40625 
Q 12.5 26.078125 12.671875 27.3125 
Q 12.84375 28.5625 12.90625 29.515625 
Q 12.984375 30.46875 12.984375 31.546875 
Q 12.984375 34.671875 10.71875 41.09375 
Q 8.453125 47.515625 4.296875 54.6875 
z
" id="DejaVuSans-1502"/>
      <path d="M 18.171875 54.6875 
L 18.171875 -20.796875 
L 9.078125 -20.796875 
L 9.078125 54.6875 
z
" id="DejaVuSans-1503"/>
      <path d="M 18.171875 54.6875 
L 18.171875 0 
L 9.078125 0 
L 9.078125 54.6875 
z
" id="DejaVuSans-1493"/>
      <path d="M 18.796875 0 
L 38.53125 47.703125 
L 4.296875 47.703125 
L 4.296875 72.90625 
L 13.421875 72.90625 
L 13.421875 54.6875 
L 49.21875 54.640625 
L 49.078125 49.265625 
L 28.328125 0 
z
" id="DejaVuSans-1500"/>
      <path d="M 44.140625 40.828125 
L 44.140625 54.6875 
L 53.515625 54.6875 
L 53.515625 40.828125 
Q 53.515625 35.0625 53.046875 30.71875 
Q 52.59375 26.375 51.390625 22.09375 
Q 50.203125 17.828125 48.046875 14.5 
Q 45.90625 11.1875 42.578125 8.078125 
Q 39.265625 4.984375 34.515625 2.390625 
Q 29.78125 -0.203125 23.4375 -2.484375 
L 4.6875 -9.28125 
L 4.6875 -1.03125 
L 18.953125 4.046875 
L 4.296875 54.6875 
L 13.765625 54.6875 
L 27.25 7.125 
Q 33.6875 9.90625 37.203125 13.5625 
Q 40.71875 17.234375 42.421875 23.671875 
Q 44.140625 30.125 44.140625 40.828125 
z
" id="DejaVuSans-1506"/>
      <path d="M 31.203125 29.59375 
Q 31.203125 22.5625 32.890625 14.75 
Q 34.578125 6.9375 38.328125 0 
L 28.609375 0 
Q 25.78125 6.59375 24.5625 12.0625 
Q 22.953125 8.109375 21.234375 5.59375 
Q 19.53125 3.078125 17.578125 1.75 
Q 15.625 0.4375 13.671875 -0.015625 
Q 11.71875 -0.484375 9.03125 -0.484375 
Q 6.78125 -0.484375 4.296875 0.203125 
L 4.296875 8.453125 
Q 5.953125 7.953125 7.71875 7.953125 
Q 9.859375 7.953125 11.546875 8.265625 
Q 13.234375 8.59375 15.328125 9.859375 
Q 17.4375 11.140625 18.796875 13.359375 
Q 20.171875 15.578125 21.140625 19.71875 
Q 22.125 23.875 22.125 29.59375 
Q 22.125 36.96875 20.875 40.890625 
Q 19.625 44.828125 17.15625 46.265625 
Q 14.703125 47.703125 10.203125 47.703125 
L 5.8125 47.703125 
L 5.8125 54.6875 
L 10.5 54.6875 
Q 21.296875 54.6875 26.25 48.734375 
Q 31.203125 42.78125 31.203125 29.59375 
z
" id="DejaVuSans-1490"/>
      <path d="M 25.203125 64.796875 
L 20.21875 38.921875 
L 32.90625 38.921875 
Q 40.375 38.921875 44.984375 43.046875 
Q 49.609375 47.171875 49.609375 53.8125 
Q 49.609375 59.125 46.5 61.953125 
Q 43.40625 64.796875 37.59375 64.796875 
z
M 43.3125 35.015625 
Q 46.4375 34.28125 48.515625 31.390625 
Q 50.59375 28.515625 53.328125 19.921875 
L 59.515625 0 
L 49.125 0 
L 43.40625 18.703125 
Q 41.21875 25.921875 38.328125 28.359375 
Q 35.453125 30.8125 29.5 30.8125 
L 18.609375 30.8125 
L 12.59375 0 
L 2.6875 0 
L 16.890625 72.90625 
L 39.109375 72.90625 
Q 49.21875 72.90625 54.609375 68.328125 
Q 60.015625 63.765625 60.015625 55.171875 
Q 60.015625 47.5625 55.421875 41.984375 
Q 50.828125 36.421875 43.3125 35.015625 
z
" id="DejaVuSans-Oblique-82"/>
      <path d="M 42.28125 54.6875 
L 40.921875 47.703125 
L 23 47.703125 
L 17.1875 18.015625 
Q 16.890625 16.359375 16.75 15.234375 
Q 16.609375 14.109375 16.609375 13.484375 
Q 16.609375 10.359375 18.484375 8.9375 
Q 20.359375 7.515625 24.515625 7.515625 
L 33.59375 7.515625 
L 32.078125 0 
L 23.484375 0 
Q 15.484375 0 11.546875 3.125 
Q 7.625 6.25 7.625 12.59375 
Q 7.625 13.71875 7.765625 15.0625 
Q 7.90625 16.40625 8.203125 18.015625 
L 14.015625 47.703125 
L 6.390625 47.703125 
L 7.8125 54.6875 
L 15.28125 54.6875 
L 18.3125 70.21875 
L 27.296875 70.21875 
L 24.3125 54.6875 
z
" id="DejaVuSans-Oblique-116"/>
     </defs>
     <use transform="translate(0 0.78125)" xlink:href="#DejaVuSans-50"/>
     <use transform="translate(63.623047 0.78125)" xlink:href="#DejaVuSans-49"/>
     <use transform="translate(127.246094 0.78125)" xlink:href="#DejaVuSans-50"/>
     <use transform="translate(190.869141 0.78125)" xlink:href="#DejaVuSans-32"/>
     <use transform="translate(222.65625 0.78125)" xlink:href="#DejaVuSans-1497"/>
     <use transform="translate(245.019531 0.78125)" xlink:href="#DejaVuSans-1495"/>
     <use transform="translate(310.351562 0.78125)" xlink:href="#DejaVuSans-1512"/>
     <use transform="translate(366.796875 0.78125)" xlink:href="#DejaVuSans-1494"/>
     <use transform="translate(401.416016 0.78125)" xlink:href="#DejaVuSans-1502"/>
     <use transform="translate(469.335938 0.78125)" xlink:href="#DejaVuSans-32"/>
     <use transform="translate(501.123047 0.78125)" xlink:href="#DejaVuSans-1503"/>
     <use transform="translate(528.369141 0.78125)" xlink:href="#DejaVuSans-1493"/>
     <use transform="translate(555.615234 0.78125)" xlink:href="#DejaVuSans-1497"/>
     <use transform="translate(577.978516 0.78125)" xlink:href="#DejaVuSans-1500"/>
     <use transform="translate(634.814453 0.78125)" xlink:href="#DejaVuSans-1506"/>
     <use transform="translate(697.412109 0.78125)" xlink:href="#DejaVuSans-32"/>
     <use transform="translate(729.199219 0.78125)" xlink:href="#DejaVuSans-1500"/>
     <use transform="translate(786.035156 0.78125)" xlink:href="#DejaVuSans-1497"/>
     <use transform="translate(808.398438 0.78125)" xlink:href="#DejaVuSans-1500"/>
     <use transform="translate(865.234375 0.78125)" xlink:href="#DejaVuSans-1490"/>
     <use transform="translate(906.445312 0.78125)" xlink:href="#DejaVuSans-32"/>
     <use transform="translate(938.232422 0.78125)" xlink:href="#DejaVuSans-Oblique-82"/>
     <use transform="translate(1007.714844 -15.625)scale(0.7)" xlink:href="#DejaVuSans-Oblique-116"/>
    </g>
   </g>
  </g>
 </g>
 <defs>
  <clipPath id="p9cd9cb1b5b">
   <rect height="271.8" width="558" x="90" y="43.2"/>
  </clipPath>
 </defs>
</svg>
