<?xml version="1.0" encoding="utf-8" standalone="no"?>
<!DOCTYPE svg PUBLIC "-//W3C//DTD SVG 1.1//EN"
  "http://www.w3.org/Graphics/SVG/1.1/DTD/svg11.dtd">
<!-- Created with matplotlib (https://matplotlib.org/) -->
<svg height="360pt" version="1.1" viewBox="0 0 720 360" width="720pt" xmlns="http://www.w3.org/2000/svg" xmlns:xlink="http://www.w3.org/1999/xlink">
 <metadata>
  <rdf:RDF xmlns:cc="http://creativecommons.org/ns#" xmlns:dc="http://purl.org/dc/elements/1.1/" xmlns:rdf="http://www.w3.org/1999/02/22-rdf-syntax-ns#">
   <cc:Work>
    <dc:type rdf:resource="http://purl.org/dc/dcmitype/StillImage"/>
    <dc:date>2021-04-25T17:46:23.679709</dc:date>
    <dc:format>image/svg+xml</dc:format>
    <dc:creator>
     <cc:Agent>
      <dc:title>Matplotlib v3.3.2, https://matplotlib.org/</dc:title>
     </cc:Agent>
    </dc:creator>
   </cc:Work>
  </rdf:RDF>
 </metadata>
 <defs>
  <style type="text/css">*{stroke-linecap:butt;stroke-linejoin:round;}</style>
 </defs>
 <g id="figure_1">
  <g id="patch_1">
   <path d="M 0 360 
L 720 360 
L 720 0 
L 0 0 
z
" style="fill:#ffffff;"/>
  </g>
  <g id="axes_1">
   <g id="patch_2">
    <path d="M 90 315 
L 648 315 
L 648 43.2 
L 90 43.2 
z
" style="fill:#ffffff;"/>
   </g>
   <g id="PolyCollection_1">
    <defs>
     <path d="M 90 -147.486277 
L 90 -246.540249 
L 91.395 -244.208739 
L 92.79 -236.399729 
L 94.185 -242.608005 
L 95.58 -235.722387 
L 96.975 -226.825802 
L 98.37 -220.915782 
L 99.765 -214.030987 
L 101.16 -209.005265 
L 102.555 -198.666538 
L 103.95 -188.792519 
L 105.345 -180.77558 
L 106.74 -175.549857 
L 108.135 -165.103452 
L 109.53 -160.068902 
L 110.925 -152.939561 
L 112.32 -144.831632 
L 113.715 -137.332284 
L 115.11 -133.403617 
L 116.505 -126.632276 
L 117.9 -121.73746 
L 119.295 -117.690542 
L 120.69 -112.299357 
L 122.085 -108.97999 
L 123.48 -104.456886 
L 124.875 -101.655097 
L 126.27 -98.618239 
L 127.665 -94.953337 
L 129.06 -93.251959 
L 130.455 -93.318969 
L 131.85 -90.935232 
L 133.245 -87.480776 
L 134.64 -87.540817 
L 136.035 -87.725126 
L 137.43 -86.257999 
L 138.825 -86.182721 
L 140.22 -85.650203 
L 141.615 -85.389352 
L 143.01 -87.27619 
L 144.405 -88.885753 
L 145.8 -89.096434 
L 147.195 -90.455421 
L 148.59 -92.954388 
L 149.985 -97.454928 
L 151.38 -97.441554 
L 152.775 -100.164935 
L 154.17 -103.654693 
L 155.565 -107.218423 
L 156.96 -111.92459 
L 158.355 -114.951404 
L 159.75 -119.519896 
L 161.145 -123.01482 
L 162.54 -129.451929 
L 163.935 -135.025538 
L 165.33 -140.460757 
L 166.725 -146.235938 
L 168.12 -151.407784 
L 169.515 -159.149306 
L 170.91 -165.212655 
L 172.305 -171.126858 
L 173.7 -178.709599 
L 175.095 -190.793135 
L 176.49 -193.49093 
L 177.885 -204.578814 
L 179.28 -213.443871 
L 180.675 -220.471606 
L 182.07 -231.776242 
L 183.465 -237.607678 
L 184.86 -252.879803 
L 186.255 -259.463526 
L 187.65 -270.714716 
L 189.045 -274.34987 
L 190.44 -284.906633 
L 191.835 -293.676739 
L 193.23 -296.135515 
L 194.625 -299.948056 
L 196.02 -296.660445 
L 197.415 -304.445455 
L 198.81 -295.575427 
L 200.205 -296.311158 
L 201.6 -290.145633 
L 202.995 -287.624708 
L 204.39 -273.912725 
L 205.785 -263.655741 
L 207.18 -260.223196 
L 208.575 -250.82721 
L 209.97 -244.766586 
L 211.365 -239.393051 
L 212.76 -234.388481 
L 214.155 -227.016586 
L 215.55 -227.417653 
L 216.945 -224.481591 
L 218.34 -221.419636 
L 219.735 -222.538879 
L 221.13 -221.820602 
L 222.525 -227.270876 
L 223.92 -226.485055 
L 225.315 -233.490542 
L 226.71 -232.562458 
L 228.105 -234.555627 
L 229.5 -232.054201 
L 230.895 -234.404722 
L 232.29 -234.776086 
L 233.685 -233.28383 
L 235.08 -231.33059 
L 236.475 -226.909351 
L 237.87 -223.084151 
L 239.265 -219.116758 
L 240.66 -219.611769 
L 242.055 -214.631352 
L 243.45 -211.214707 
L 244.845 -206.994588 
L 246.24 -201.449989 
L 247.635 -199.134558 
L 249.03 -193.564039 
L 250.425 -191.70361 
L 251.82 -188.493943 
L 253.215 -183.565533 
L 254.61 -178.331408 
L 256.005 -178.681928 
L 257.4 -173.866964 
L 258.795 -168.675909 
L 260.19 -166.921643 
L 261.585 -164.719665 
L 262.98 -158.223869 
L 264.375 -155.843319 
L 265.77 -154.257693 
L 267.165 -154.242405 
L 268.56 -147.625624 
L 269.955 -146.689299 
L 271.35 -144.921697 
L 272.745 -140.114962 
L 274.14 -140.093349 
L 275.535 -140.534029 
L 276.93 -140.293791 
L 278.325 -140.92499 
L 279.72 -142.410449 
L 281.115 -142.934418 
L 282.51 -146.28187 
L 283.905 -145.178218 
L 285.3 -146.496518 
L 286.695 -148.333591 
L 288.09 -152.261307 
L 289.485 -153.141552 
L 290.88 -156.931154 
L 292.275 -157.653296 
L 293.67 -159.896256 
L 295.065 -163.565242 
L 296.46 -168.427508 
L 297.855 -171.087563 
L 299.25 -174.623577 
L 300.645 -178.514043 
L 302.04 -185.267948 
L 303.435 -183.96739 
L 304.83 -184.92722 
L 306.225 -189.875802 
L 307.62 -190.593445 
L 309.015 -192.682311 
L 310.41 -194.889099 
L 311.805 -197.622266 
L 313.2 -198.30002 
L 314.595 -203.599674 
L 315.99 -198.243969 
L 317.385 -199.516326 
L 318.78 -199.942827 
L 320.175 -201.457895 
L 321.57 -205.492569 
L 322.965 -204.447097 
L 324.36 -207.970058 
L 325.755 -204.92139 
L 327.15 -206.81062 
L 328.545 -203.304273 
L 329.94 -207.561235 
L 331.335 -210.63036 
L 332.73 -205.647108 
L 334.125 -208.615545 
L 335.52 -203.527661 
L 336.915 -200.506353 
L 338.31 -200.413553 
L 339.705 -200.78839 
L 341.1 -197.603752 
L 342.495 -196.392767 
L 343.89 -190.90005 
L 345.285 -191.058177 
L 346.68 -186.585115 
L 348.075 -177.976544 
L 349.47 -172.891922 
L 350.865 -164.610233 
L 352.26 -157.040745 
L 353.655 -149.653612 
L 355.05 -141.236003 
L 356.445 -136.978087 
L 357.84 -127.667546 
L 359.235 -120.266833 
L 360.63 -114.425882 
L 362.025 -111.301577 
L 363.42 -106.858681 
L 364.815 -101.692857 
L 366.21 -97.830954 
L 367.605 -95.085536 
L 369 -91.9733 
L 370.395 -90.239554 
L 371.79 -89.704578 
L 373.185 -87.447704 
L 374.58 -88.892634 
L 375.975 -88.212944 
L 377.37 -87.684134 
L 378.765 -88.773894 
L 380.16 -89.599086 
L 381.555 -92.083422 
L 382.95 -94.769484 
L 384.345 -96.890867 
L 385.74 -98.61298 
L 387.135 -102.942127 
L 388.53 -106.667023 
L 389.925 -110.870226 
L 391.32 -116.145023 
L 392.715 -118.708465 
L 394.11 -123.337531 
L 395.505 -128.348193 
L 396.9 -133.076213 
L 398.295 -139.317475 
L 399.69 -143.273598 
L 401.085 -148.795097 
L 402.48 -150.659295 
L 403.875 -156.1046 
L 405.27 -157.91717 
L 406.665 -159.705707 
L 408.06 -160.400217 
L 409.455 -163.456106 
L 410.85 -163.985675 
L 412.245 -163.716991 
L 413.64 -167.668375 
L 415.035 -169.333284 
L 416.43 -169.883417 
L 417.825 -168.794715 
L 419.22 -173.670125 
L 420.615 -174.742951 
L 422.01 -178.163032 
L 423.405 -176.742247 
L 424.8 -175.397478 
L 426.195 -178.590907 
L 427.59 -179.503863 
L 428.985 -177.754369 
L 430.38 -178.68583 
L 431.775 -181.18994 
L 433.17 -180.940375 
L 434.565 -186.016566 
L 435.96 -184.181264 
L 437.355 -188.328535 
L 438.75 -194.779001 
L 440.145 -194.976183 
L 441.54 -195.859764 
L 442.935 -203.775928 
L 444.33 -204.207101 
L 445.725 -203.741761 
L 447.12 -203.76302 
L 448.515 -202.453637 
L 449.91 -205.017726 
L 451.305 -208.008219 
L 452.7 -205.735687 
L 454.095 -205.585529 
L 455.49 -212.160309 
L 456.885 -205.301296 
L 458.28 -204.70305 
L 459.675 -207.782346 
L 461.07 -208.499769 
L 462.465 -207.467198 
L 463.86 -211.935305 
L 465.255 -212.078221 
L 466.65 -210.737189 
L 468.045 -213.818221 
L 469.44 -212.040503 
L 470.835 -215.668111 
L 472.23 -220.775998 
L 473.625 -221.723174 
L 475.02 -224.474781 
L 476.415 -223.273196 
L 477.81 -224.348131 
L 479.205 -228.295983 
L 480.6 -228.718519 
L 481.995 -232.39742 
L 483.39 -228.147619 
L 484.785 -226.752157 
L 486.18 -226.364699 
L 487.575 -223.091258 
L 488.97 -223.14796 
L 490.365 -223.268235 
L 491.76 -222.162873 
L 493.155 -218.8308 
L 494.55 -209.456818 
L 495.945 -206.834288 
L 497.34 -201.631264 
L 498.735 -191.600079 
L 500.13 -190.790796 
L 501.525 -186.246058 
L 502.92 -179.368115 
L 504.315 -174.73479 
L 505.71 -169.412621 
L 507.105 -165.66856 
L 508.5 -165.197293 
L 509.895 -157.998861 
L 511.29 -153.181993 
L 512.685 -151.942075 
L 514.08 -150.816277 
L 515.475 -150.576272 
L 516.87 -149.356025 
L 518.265 -147.67844 
L 519.66 -146.650601 
L 521.055 -147.767709 
L 522.45 -144.735263 
L 523.845 -143.680392 
L 525.24 -144.301046 
L 526.635 -144.149741 
L 528.03 -143.203186 
L 529.425 -143.439934 
L 530.82 -141.169857 
L 532.215 -140.196694 
L 533.61 -139.239852 
L 535.005 -138.472881 
L 536.4 -136.033585 
L 537.795 -137.428084 
L 539.19 -131.970093 
L 540.585 -134.711445 
L 541.98 -132.607821 
L 543.375 -132.54605 
L 544.77 -130.950534 
L 546.165 -133.519253 
L 547.56 -133.772646 
L 548.955 -133.63312 
L 550.35 -136.785849 
L 551.745 -133.709399 
L 553.14 -135.184831 
L 554.535 -138.176373 
L 555.93 -139.869223 
L 557.325 -142.59981 
L 558.72 -138.698182 
L 560.115 -141.977117 
L 561.51 -142.665014 
L 562.905 -143.651289 
L 564.3 -142.863368 
L 565.695 -140.572585 
L 567.09 -142.453449 
L 568.485 -138.214477 
L 569.88 -136.583511 
L 571.275 -134.997063 
L 572.67 -131.331222 
L 574.065 -127.420677 
L 575.46 -123.782541 
L 576.855 -121.299542 
L 578.25 -118.242962 
L 579.645 -114.427024 
L 581.04 -112.020653 
L 582.435 -107.669772 
L 583.83 -105.635716 
L 585.225 -101.285526 
L 586.62 -98.552204 
L 588.015 -96.555601 
L 589.41 -96.971325 
L 590.805 -96.746989 
L 592.2 -97.119049 
L 593.595 -94.812164 
L 594.99 -94.030473 
L 596.385 -95.996615 
L 597.78 -96.112717 
L 599.175 -95.957807 
L 600.57 -94.527796 
L 601.965 -94.7031 
L 603.36 -96.305594 
L 604.755 -97.959881 
L 606.15 -98.914364 
L 607.545 -99.500938 
L 608.94 -101.405911 
L 610.335 -101.940511 
L 611.73 -106.095497 
L 613.125 -104.871273 
L 614.52 -108.232754 
L 615.915 -106.029617 
L 617.31 -109.750367 
L 618.705 -107.945064 
L 620.1 -108.000521 
L 621.495 -112.289253 
L 622.89 -111.595744 
L 624.285 -112.024523 
L 625.68 -109.728477 
L 627.075 -109.470173 
L 628.47 -110.240031 
L 629.865 -108.379556 
L 631.26 -112.770534 
L 632.655 -112.224655 
L 634.05 -110.961873 
L 635.445 -111.517876 
L 636.84 -112.503345 
L 638.235 -113.174992 
L 639.63 -112.059322 
L 641.025 -113.795693 
L 642.42 -115.795024 
L 643.815 -117.684358 
L 645.21 -121.482347 
L 646.605 -125.034791 
L 648 -125.77877 
L 649.395 -122.889952 
L 650.79 -128.508457 
L 652.185 -122.78882 
L 653.58 -129.89782 
L 654.975 -128.274426 
L 656.37 -127.743523 
L 657.765 -128.700434 
L 659.16 -131.517963 
L 659.16 -60.356423 
L 659.16 -60.356423 
L 657.765 -58.671523 
L 656.37 -58.146101 
L 654.975 -57.830704 
L 653.58 -61.692042 
L 652.185 -57.354545 
L 650.79 -64.49319 
L 649.395 -61.94128 
L 648 -66.956543 
L 646.605 -68.747188 
L 645.21 -69.007013 
L 643.815 -66.510511 
L 642.42 -66.11192 
L 641.025 -65.991281 
L 639.63 -68.005648 
L 638.235 -71.883488 
L 636.84 -72.753357 
L 635.445 -74.008249 
L 634.05 -74.743361 
L 632.655 -76.950495 
L 631.26 -78.204923 
L 629.865 -75.521649 
L 628.47 -78.404014 
L 627.075 -79.389297 
L 625.68 -78.995144 
L 624.285 -82.130058 
L 622.89 -81.85974 
L 621.495 -83.567956 
L 620.1 -81.357365 
L 618.705 -81.788594 
L 617.31 -82.959101 
L 615.915 -79.92707 
L 614.52 -82.184491 
L 613.125 -79.541608 
L 611.73 -81.218612 
L 610.335 -77.689823 
L 608.94 -78.576804 
L 607.545 -77.498653 
L 606.15 -76.748154 
L 604.755 -76.047042 
L 603.36 -74.801043 
L 601.965 -73.198039 
L 600.57 -73.283415 
L 599.175 -74.370449 
L 597.78 -73.951075 
L 596.385 -73.28973 
L 594.99 -71.447181 
L 593.595 -73.498532 
L 592.2 -74.213287 
L 590.805 -74.257532 
L 589.41 -75.335536 
L 588.015 -74.622239 
L 586.62 -76.684397 
L 585.225 -78.497746 
L 583.83 -81.824597 
L 582.435 -83.005643 
L 581.04 -85.728777 
L 579.645 -87.127379 
L 578.25 -91.022158 
L 576.855 -92.139748 
L 575.46 -94.058257 
L 574.065 -97.341153 
L 572.67 -100.815294 
L 571.275 -104.501303 
L 569.88 -106.475699 
L 568.485 -108.389564 
L 567.09 -112.00474 
L 565.695 -110.583501 
L 564.3 -112.29473 
L 562.905 -112.65619 
L 561.51 -110.735696 
L 560.115 -108.73555 
L 558.72 -105.509979 
L 557.325 -110.312725 
L 555.93 -107.672893 
L 554.535 -107.138916 
L 553.14 -104.545156 
L 551.745 -104.154171 
L 550.35 -105.517783 
L 548.955 -103.056676 
L 547.56 -102.076983 
L 546.165 -103.469843 
L 544.77 -102.250969 
L 543.375 -103.417647 
L 541.98 -104.041991 
L 540.585 -105.912118 
L 539.19 -101.565093 
L 537.795 -106.151489 
L 536.4 -103.828109 
L 535.005 -107.354402 
L 533.61 -106.936661 
L 532.215 -107.012303 
L 530.82 -108.754936 
L 529.425 -110.419958 
L 528.03 -110.48076 
L 526.635 -111.454061 
L 525.24 -112.619307 
L 523.845 -113.530771 
L 522.45 -114.122057 
L 521.055 -116.685832 
L 519.66 -116.38882 
L 518.265 -117.409168 
L 516.87 -118.086871 
L 515.475 -118.24165 
L 514.08 -119.459988 
L 512.685 -119.283212 
L 511.29 -120.768272 
L 509.895 -123.469885 
L 508.5 -128.981553 
L 507.105 -128.93974 
L 505.71 -131.954874 
L 504.315 -135.965435 
L 502.92 -140.301253 
L 501.525 -146.394338 
L 500.13 -150.268019 
L 498.735 -150.368311 
L 497.34 -158.438341 
L 495.945 -162.217193 
L 494.55 -162.598157 
L 493.155 -171.590685 
L 491.76 -173.612066 
L 490.365 -174.525152 
L 488.97 -176.162044 
L 487.575 -176.396466 
L 486.18 -178.883666 
L 484.785 -179.653755 
L 483.39 -180.451503 
L 481.995 -181.421367 
L 480.6 -178.214674 
L 479.205 -178.662718 
L 477.81 -173.763103 
L 476.415 -173.324993 
L 475.02 -175.387331 
L 473.625 -173.754496 
L 472.23 -175.517857 
L 470.835 -171.674711 
L 469.44 -167.681339 
L 468.045 -169.637209 
L 466.65 -167.655352 
L 465.255 -167.542979 
L 463.86 -166.256263 
L 462.465 -162.204763 
L 461.07 -162.715596 
L 459.675 -161.749089 
L 458.28 -160.252906 
L 456.885 -160.496378 
L 455.49 -166.214325 
L 454.095 -161.536826 
L 452.7 -162.095145 
L 451.305 -163.128703 
L 449.91 -161.870277 
L 448.515 -157.587253 
L 447.12 -160.142185 
L 445.725 -159.451389 
L 444.33 -160.424501 
L 442.935 -159.358832 
L 441.54 -154.502633 
L 440.145 -152.333484 
L 438.75 -152.37465 
L 437.355 -145.544397 
L 435.96 -144.158207 
L 434.565 -146.209465 
L 433.17 -140.513665 
L 431.775 -141.030155 
L 430.38 -137.319782 
L 428.985 -136.832074 
L 427.59 -136.444186 
L 426.195 -136.061928 
L 424.8 -133.272271 
L 423.405 -135.231944 
L 422.01 -135.11482 
L 420.615 -133.283553 
L 419.22 -132.895251 
L 417.825 -129.10927 
L 416.43 -131.46214 
L 415.035 -130.614542 
L 413.64 -128.714438 
L 412.245 -124.972999 
L 410.85 -124.780107 
L 409.455 -126.380768 
L 408.06 -123.566261 
L 406.665 -122.587422 
L 405.27 -122.406865 
L 403.875 -119.956183 
L 402.48 -115.283918 
L 401.085 -114.02469 
L 399.69 -110.506163 
L 398.295 -107.88875 
L 396.9 -102.133996 
L 395.505 -98.846338 
L 394.11 -95.271819 
L 392.715 -91.480662 
L 391.32 -90.10783 
L 389.925 -85.412513 
L 388.53 -82.984133 
L 387.135 -80.260747 
L 385.74 -76.656587 
L 384.345 -75.292005 
L 382.95 -73.271607 
L 381.555 -70.076241 
L 380.16 -67.909017 
L 378.765 -68.540216 
L 377.37 -67.237309 
L 375.975 -67.466222 
L 374.58 -67.831183 
L 373.185 -66.756747 
L 371.79 -68.169072 
L 370.395 -69.476915 
L 369 -70.341962 
L 367.605 -73.895157 
L 366.21 -75.067695 
L 364.815 -78.677017 
L 363.42 -83.474801 
L 362.025 -85.971121 
L 360.63 -88.872033 
L 359.235 -93.714092 
L 357.84 -99.725055 
L 356.445 -107.501517 
L 355.05 -110.076366 
L 353.655 -115.386377 
L 352.26 -123.52678 
L 350.865 -127.868151 
L 349.47 -134.098901 
L 348.075 -138.876584 
L 346.68 -147.412216 
L 345.285 -150.595097 
L 343.89 -149.302166 
L 342.495 -155.136329 
L 341.1 -156.673343 
L 339.705 -159.245818 
L 338.31 -160.126536 
L 336.915 -156.278926 
L 335.52 -159.851915 
L 334.125 -164.643162 
L 332.73 -161.088023 
L 331.335 -163.843907 
L 329.94 -163.602078 
L 328.545 -160.650789 
L 327.15 -162.444028 
L 325.755 -159.428812 
L 324.36 -162.044375 
L 322.965 -158.849781 
L 321.57 -160.615615 
L 320.175 -156.597504 
L 318.78 -156.897485 
L 317.385 -158.124372 
L 315.99 -155.106876 
L 314.595 -159.877073 
L 313.2 -153.327974 
L 311.805 -153.920035 
L 310.41 -153.148457 
L 309.015 -150.859146 
L 307.62 -149.034415 
L 306.225 -149.062086 
L 304.83 -143.375439 
L 303.435 -142.29934 
L 302.04 -143.799554 
L 300.645 -137.6707 
L 299.25 -135.944139 
L 297.855 -132.346186 
L 296.46 -131.309097 
L 295.065 -127.548446 
L 293.67 -126.255162 
L 292.275 -124.665227 
L 290.88 -122.171761 
L 289.485 -119.34517 
L 288.09 -119.053427 
L 286.695 -116.515282 
L 285.3 -113.348461 
L 283.905 -112.06219 
L 282.51 -112.131184 
L 281.115 -111.315517 
L 279.72 -111.149847 
L 278.325 -109.084346 
L 276.93 -109.119156 
L 275.535 -110.194603 
L 274.14 -110.817236 
L 272.745 -110.965433 
L 271.35 -113.830256 
L 269.955 -113.979111 
L 268.56 -115.742237 
L 267.165 -120.441376 
L 265.77 -119.598699 
L 264.375 -120.53624 
L 262.98 -123.270064 
L 261.585 -128.323568 
L 260.19 -130.833198 
L 258.795 -131.288229 
L 257.4 -136.485767 
L 256.005 -139.283454 
L 254.61 -138.160006 
L 253.215 -144.51933 
L 251.82 -147.583775 
L 250.425 -150.901196 
L 249.03 -152.519036 
L 247.635 -156.979088 
L 246.24 -157.10209 
L 244.845 -162.46996 
L 243.45 -166.268391 
L 242.055 -168.940431 
L 240.66 -173.029324 
L 239.265 -169.594424 
L 237.87 -174.069891 
L 236.475 -177.044701 
L 235.08 -183.840121 
L 233.685 -184.653128 
L 232.29 -182.387856 
L 230.895 -183.009964 
L 229.5 -180.954923 
L 228.105 -185.316614 
L 226.71 -183.106352 
L 225.315 -182.451334 
L 223.92 -176.625472 
L 222.525 -179.679893 
L 221.13 -175.304467 
L 219.735 -176.985871 
L 218.34 -174.904772 
L 216.945 -176.136131 
L 215.55 -178.886162 
L 214.155 -175.214388 
L 212.76 -180.563048 
L 211.365 -185.052859 
L 209.97 -190.359779 
L 208.575 -193.810412 
L 207.18 -200.832595 
L 205.785 -204.719457 
L 204.39 -210.148637 
L 202.995 -217.911138 
L 201.6 -220.675599 
L 200.205 -221.697494 
L 198.81 -220.339877 
L 197.415 -230.271914 
L 196.02 -226.606819 
L 194.625 -228.40722 
L 193.23 -224.088955 
L 191.835 -217.258076 
L 190.44 -213.306069 
L 189.045 -206.657269 
L 187.65 -204.411195 
L 186.255 -195.954353 
L 184.86 -189.231189 
L 183.465 -176.620282 
L 182.07 -174.570002 
L 180.675 -164.12751 
L 179.28 -162.162556 
L 177.885 -151.707326 
L 176.49 -143.950313 
L 175.095 -142.245148 
L 173.7 -133.264155 
L 172.305 -126.614205 
L 170.91 -123.582187 
L 169.515 -118.281469 
L 168.12 -112.852278 
L 166.725 -108.608781 
L 165.33 -104.10553 
L 163.935 -99.309272 
L 162.54 -95.707649 
L 161.145 -88.910207 
L 159.75 -88.008711 
L 158.355 -85.161324 
L 156.96 -82.308183 
L 155.565 -79.851995 
L 154.17 -76.124721 
L 152.775 -74.477731 
L 151.38 -72.302045 
L 149.985 -72.083547 
L 148.59 -68.958433 
L 147.195 -66.855459 
L 145.8 -66.8872 
L 144.405 -66.769999 
L 143.01 -65.579815 
L 141.615 -63.397688 
L 140.22 -64.289917 
L 138.825 -65.468476 
L 137.43 -65.46104 
L 136.035 -66.370155 
L 134.64 -66.660399 
L 133.245 -66.576223 
L 131.85 -69.079866 
L 130.455 -71.016695 
L 129.06 -70.966668 
L 127.665 -71.900846 
L 126.27 -74.443937 
L 124.875 -76.519203 
L 123.48 -78.969744 
L 122.085 -82.872791 
L 120.69 -86.429659 
L 119.295 -88.988887 
L 117.9 -93.896962 
L 116.505 -98.251493 
L 115.11 -103.546491 
L 113.715 -105.394275 
L 112.32 -112.033147 
L 110.925 -119.132171 
L 109.53 -123.895674 
L 108.135 -127.942708 
L 106.74 -135.887922 
L 105.345 -138.242265 
L 103.95 -143.082272 
L 102.555 -148.309916 
L 101.16 -152.488748 
L 99.765 -152.034793 
L 98.37 -151.847912 
L 96.975 -153.741208 
L 95.58 -155.9334 
L 94.185 -158.947839 
L 92.79 -145.545938 
L 91.395 -150.463968 
L 90 -147.486277 
z
" id="m93c5ba4df5" style="stroke:#fdcbb6;stroke-opacity:0.8;"/>
    </defs>
    <g clip-path="url(#pe4dbf61546)">
     <use style="fill:#fdcbb6;fill-opacity:0.8;stroke:#fdcbb6;stroke-opacity:0.8;" x="0" xlink:href="#m93c5ba4df5" y="360"/>
    </g>
   </g>
   <g id="matplotlib.axis_1">
    <g id="xtick_1">
     <g id="line2d_1">
      <defs>
       <path d="M 0 0 
L 0 3.5 
" id="m9c8fb64a53" style="stroke:#000000;stroke-width:0.8;"/>
      </defs>
      <g>
       <use style="stroke:#000000;stroke-width:0.8;" x="90" xlink:href="#m9c8fb64a53" y="315"/>
      </g>
     </g>
    </g>
    <g id="xtick_2">
     <g id="line2d_2">
      <g>
       <use style="stroke:#000000;stroke-width:0.8;" x="119.295" xlink:href="#m9c8fb64a53" y="315"/>
      </g>
     </g>
     <g id="text_1">
      <!-- Apr -->
      <g transform="translate(110.645 329.598437)scale(0.1 -0.1)">
       <defs>
        <path d="M 34.1875 63.1875 
L 20.796875 26.90625 
L 47.609375 26.90625 
z
M 28.609375 72.90625 
L 39.796875 72.90625 
L 67.578125 0 
L 57.328125 0 
L 50.6875 18.703125 
L 17.828125 18.703125 
L 11.1875 0 
L 0.78125 0 
z
" id="DejaVuSans-65"/>
        <path d="M 18.109375 8.203125 
L 18.109375 -20.796875 
L 9.078125 -20.796875 
L 9.078125 54.6875 
L 18.109375 54.6875 
L 18.109375 46.390625 
Q 20.953125 51.265625 25.265625 53.625 
Q 29.59375 56 35.59375 56 
Q 45.5625 56 51.78125 48.09375 
Q 58.015625 40.1875 58.015625 27.296875 
Q 58.015625 14.40625 51.78125 6.484375 
Q 45.5625 -1.421875 35.59375 -1.421875 
Q 29.59375 -1.421875 25.265625 0.953125 
Q 20.953125 3.328125 18.109375 8.203125 
z
M 48.6875 27.296875 
Q 48.6875 37.203125 44.609375 42.84375 
Q 40.53125 48.484375 33.40625 48.484375 
Q 26.265625 48.484375 22.1875 42.84375 
Q 18.109375 37.203125 18.109375 27.296875 
Q 18.109375 17.390625 22.1875 11.75 
Q 26.265625 6.109375 33.40625 6.109375 
Q 40.53125 6.109375 44.609375 11.75 
Q 48.6875 17.390625 48.6875 27.296875 
z
" id="DejaVuSans-112"/>
        <path d="M 41.109375 46.296875 
Q 39.59375 47.171875 37.8125 47.578125 
Q 36.03125 48 33.890625 48 
Q 26.265625 48 22.1875 43.046875 
Q 18.109375 38.09375 18.109375 28.8125 
L 18.109375 0 
L 9.078125 0 
L 9.078125 54.6875 
L 18.109375 54.6875 
L 18.109375 46.1875 
Q 20.953125 51.171875 25.484375 53.578125 
Q 30.03125 56 36.53125 56 
Q 37.453125 56 38.578125 55.875 
Q 39.703125 55.765625 41.0625 55.515625 
z
" id="DejaVuSans-114"/>
       </defs>
       <use xlink:href="#DejaVuSans-65"/>
       <use x="68.408203" xlink:href="#DejaVuSans-112"/>
       <use x="131.884766" xlink:href="#DejaVuSans-114"/>
      </g>
     </g>
    </g>
    <g id="xtick_3">
     <g id="line2d_3">
      <g>
       <use style="stroke:#000000;stroke-width:0.8;" x="161.145" xlink:href="#m9c8fb64a53" y="315"/>
      </g>
     </g>
     <g id="text_2">
      <!-- May -->
      <g transform="translate(150.8075 329.598437)scale(0.1 -0.1)">
       <defs>
        <path d="M 9.8125 72.90625 
L 24.515625 72.90625 
L 43.109375 23.296875 
L 61.8125 72.90625 
L 76.515625 72.90625 
L 76.515625 0 
L 66.890625 0 
L 66.890625 64.015625 
L 48.09375 14.015625 
L 38.1875 14.015625 
L 19.390625 64.015625 
L 19.390625 0 
L 9.8125 0 
z
" id="DejaVuSans-77"/>
        <path d="M 34.28125 27.484375 
Q 23.390625 27.484375 19.1875 25 
Q 14.984375 22.515625 14.984375 16.5 
Q 14.984375 11.71875 18.140625 8.90625 
Q 21.296875 6.109375 26.703125 6.109375 
Q 34.1875 6.109375 38.703125 11.40625 
Q 43.21875 16.703125 43.21875 25.484375 
L 43.21875 27.484375 
z
M 52.203125 31.203125 
L 52.203125 0 
L 43.21875 0 
L 43.21875 8.296875 
Q 40.140625 3.328125 35.546875 0.953125 
Q 30.953125 -1.421875 24.3125 -1.421875 
Q 15.921875 -1.421875 10.953125 3.296875 
Q 6 8.015625 6 15.921875 
Q 6 25.140625 12.171875 29.828125 
Q 18.359375 34.515625 30.609375 34.515625 
L 43.21875 34.515625 
L 43.21875 35.40625 
Q 43.21875 41.609375 39.140625 45 
Q 35.0625 48.390625 27.6875 48.390625 
Q 23 48.390625 18.546875 47.265625 
Q 14.109375 46.140625 10.015625 43.890625 
L 10.015625 52.203125 
Q 14.9375 54.109375 19.578125 55.046875 
Q 24.21875 56 28.609375 56 
Q 40.484375 56 46.34375 49.84375 
Q 52.203125 43.703125 52.203125 31.203125 
z
" id="DejaVuSans-97"/>
        <path d="M 32.171875 -5.078125 
Q 28.375 -14.84375 24.75 -17.8125 
Q 21.140625 -20.796875 15.09375 -20.796875 
L 7.90625 -20.796875 
L 7.90625 -13.28125 
L 13.1875 -13.28125 
Q 16.890625 -13.28125 18.9375 -11.515625 
Q 21 -9.765625 23.484375 -3.21875 
L 25.09375 0.875 
L 2.984375 54.6875 
L 12.5 54.6875 
L 29.59375 11.921875 
L 46.6875 54.6875 
L 56.203125 54.6875 
z
" id="DejaVuSans-121"/>
       </defs>
       <use xlink:href="#DejaVuSans-77"/>
       <use x="86.279297" xlink:href="#DejaVuSans-97"/>
       <use x="147.558594" xlink:href="#DejaVuSans-121"/>
      </g>
     </g>
    </g>
    <g id="xtick_4">
     <g id="line2d_4">
      <g>
       <use style="stroke:#000000;stroke-width:0.8;" x="204.39" xlink:href="#m9c8fb64a53" y="315"/>
      </g>
     </g>
     <g id="text_3">
      <!-- Jun -->
      <g transform="translate(196.5775 329.598437)scale(0.1 -0.1)">
       <defs>
        <path d="M 9.8125 72.90625 
L 19.671875 72.90625 
L 19.671875 5.078125 
Q 19.671875 -8.109375 14.671875 -14.0625 
Q 9.671875 -20.015625 -1.421875 -20.015625 
L -5.171875 -20.015625 
L -5.171875 -11.71875 
L -2.09375 -11.71875 
Q 4.4375 -11.71875 7.125 -8.046875 
Q 9.8125 -4.390625 9.8125 5.078125 
z
" id="DejaVuSans-74"/>
        <path d="M 8.5 21.578125 
L 8.5 54.6875 
L 17.484375 54.6875 
L 17.484375 21.921875 
Q 17.484375 14.15625 20.5 10.265625 
Q 23.53125 6.390625 29.59375 6.390625 
Q 36.859375 6.390625 41.078125 11.03125 
Q 45.3125 15.671875 45.3125 23.6875 
L 45.3125 54.6875 
L 54.296875 54.6875 
L 54.296875 0 
L 45.3125 0 
L 45.3125 8.40625 
Q 42.046875 3.421875 37.71875 1 
Q 33.40625 -1.421875 27.6875 -1.421875 
Q 18.265625 -1.421875 13.375 4.4375 
Q 8.5 10.296875 8.5 21.578125 
z
M 31.109375 56 
z
" id="DejaVuSans-117"/>
        <path d="M 54.890625 33.015625 
L 54.890625 0 
L 45.90625 0 
L 45.90625 32.71875 
Q 45.90625 40.484375 42.875 44.328125 
Q 39.84375 48.1875 33.796875 48.1875 
Q 26.515625 48.1875 22.3125 43.546875 
Q 18.109375 38.921875 18.109375 30.90625 
L 18.109375 0 
L 9.078125 0 
L 9.078125 54.6875 
L 18.109375 54.6875 
L 18.109375 46.1875 
Q 21.34375 51.125 25.703125 53.5625 
Q 30.078125 56 35.796875 56 
Q 45.21875 56 50.046875 50.171875 
Q 54.890625 44.34375 54.890625 33.015625 
z
" id="DejaVuSans-110"/>
       </defs>
       <use xlink:href="#DejaVuSans-74"/>
       <use x="29.492188" xlink:href="#DejaVuSans-117"/>
       <use x="92.871094" xlink:href="#DejaVuSans-110"/>
      </g>
     </g>
    </g>
    <g id="xtick_5">
     <g id="line2d_5">
      <g>
       <use style="stroke:#000000;stroke-width:0.8;" x="246.24" xlink:href="#m9c8fb64a53" y="315"/>
      </g>
     </g>
     <g id="text_4">
      <!-- Jul -->
      <g transform="translate(240.207188 329.598437)scale(0.1 -0.1)">
       <defs>
        <path d="M 9.421875 75.984375 
L 18.40625 75.984375 
L 18.40625 0 
L 9.421875 0 
z
" id="DejaVuSans-108"/>
       </defs>
       <use xlink:href="#DejaVuSans-74"/>
       <use x="29.492188" xlink:href="#DejaVuSans-117"/>
       <use x="92.871094" xlink:href="#DejaVuSans-108"/>
      </g>
     </g>
    </g>
    <g id="xtick_6">
     <g id="line2d_6">
      <g>
       <use style="stroke:#000000;stroke-width:0.8;" x="289.485" xlink:href="#m9c8fb64a53" y="315"/>
      </g>
     </g>
     <g id="text_5">
      <!-- Aug -->
      <g transform="translate(279.721719 329.598437)scale(0.1 -0.1)">
       <defs>
        <path d="M 45.40625 27.984375 
Q 45.40625 37.75 41.375 43.109375 
Q 37.359375 48.484375 30.078125 48.484375 
Q 22.859375 48.484375 18.828125 43.109375 
Q 14.796875 37.75 14.796875 27.984375 
Q 14.796875 18.265625 18.828125 12.890625 
Q 22.859375 7.515625 30.078125 7.515625 
Q 37.359375 7.515625 41.375 12.890625 
Q 45.40625 18.265625 45.40625 27.984375 
z
M 54.390625 6.78125 
Q 54.390625 -7.171875 48.1875 -13.984375 
Q 42 -20.796875 29.203125 -20.796875 
Q 24.46875 -20.796875 20.265625 -20.09375 
Q 16.0625 -19.390625 12.109375 -17.921875 
L 12.109375 -9.1875 
Q 16.0625 -11.328125 19.921875 -12.34375 
Q 23.78125 -13.375 27.78125 -13.375 
Q 36.625 -13.375 41.015625 -8.765625 
Q 45.40625 -4.15625 45.40625 5.171875 
L 45.40625 9.625 
Q 42.625 4.78125 38.28125 2.390625 
Q 33.9375 0 27.875 0 
Q 17.828125 0 11.671875 7.65625 
Q 5.515625 15.328125 5.515625 27.984375 
Q 5.515625 40.671875 11.671875 48.328125 
Q 17.828125 56 27.875 56 
Q 33.9375 56 38.28125 53.609375 
Q 42.625 51.21875 45.40625 46.390625 
L 45.40625 54.6875 
L 54.390625 54.6875 
z
" id="DejaVuSans-103"/>
       </defs>
       <use xlink:href="#DejaVuSans-65"/>
       <use x="68.408203" xlink:href="#DejaVuSans-117"/>
       <use x="131.787109" xlink:href="#DejaVuSans-103"/>
      </g>
     </g>
    </g>
    <g id="xtick_7">
     <g id="line2d_7">
      <g>
       <use style="stroke:#000000;stroke-width:0.8;" x="332.73" xlink:href="#m9c8fb64a53" y="315"/>
      </g>
     </g>
     <g id="text_6">
      <!-- Sep -->
      <g transform="translate(323.305 329.598437)scale(0.1 -0.1)">
       <defs>
        <path d="M 53.515625 70.515625 
L 53.515625 60.890625 
Q 47.90625 63.578125 42.921875 64.890625 
Q 37.9375 66.21875 33.296875 66.21875 
Q 25.25 66.21875 20.875 63.09375 
Q 16.5 59.96875 16.5 54.203125 
Q 16.5 49.359375 19.40625 46.890625 
Q 22.3125 44.4375 30.421875 42.921875 
L 36.375 41.703125 
Q 47.40625 39.59375 52.65625 34.296875 
Q 57.90625 29 57.90625 20.125 
Q 57.90625 9.515625 50.796875 4.046875 
Q 43.703125 -1.421875 29.984375 -1.421875 
Q 24.8125 -1.421875 18.96875 -0.25 
Q 13.140625 0.921875 6.890625 3.21875 
L 6.890625 13.375 
Q 12.890625 10.015625 18.65625 8.296875 
Q 24.421875 6.59375 29.984375 6.59375 
Q 38.421875 6.59375 43.015625 9.90625 
Q 47.609375 13.234375 47.609375 19.390625 
Q 47.609375 24.75 44.3125 27.78125 
Q 41.015625 30.8125 33.5 32.328125 
L 27.484375 33.5 
Q 16.453125 35.6875 11.515625 40.375 
Q 6.59375 45.0625 6.59375 53.421875 
Q 6.59375 63.09375 13.40625 68.65625 
Q 20.21875 74.21875 32.171875 74.21875 
Q 37.3125 74.21875 42.625 73.28125 
Q 47.953125 72.359375 53.515625 70.515625 
z
" id="DejaVuSans-83"/>
        <path d="M 56.203125 29.59375 
L 56.203125 25.203125 
L 14.890625 25.203125 
Q 15.484375 15.921875 20.484375 11.0625 
Q 25.484375 6.203125 34.421875 6.203125 
Q 39.59375 6.203125 44.453125 7.46875 
Q 49.3125 8.734375 54.109375 11.28125 
L 54.109375 2.78125 
Q 49.265625 0.734375 44.1875 -0.34375 
Q 39.109375 -1.421875 33.890625 -1.421875 
Q 20.796875 -1.421875 13.15625 6.1875 
Q 5.515625 13.8125 5.515625 26.8125 
Q 5.515625 40.234375 12.765625 48.109375 
Q 20.015625 56 32.328125 56 
Q 43.359375 56 49.78125 48.890625 
Q 56.203125 41.796875 56.203125 29.59375 
z
M 47.21875 32.234375 
Q 47.125 39.59375 43.09375 43.984375 
Q 39.0625 48.390625 32.421875 48.390625 
Q 24.90625 48.390625 20.390625 44.140625 
Q 15.875 39.890625 15.1875 32.171875 
z
" id="DejaVuSans-101"/>
       </defs>
       <use xlink:href="#DejaVuSans-83"/>
       <use x="63.476562" xlink:href="#DejaVuSans-101"/>
       <use x="125" xlink:href="#DejaVuSans-112"/>
      </g>
     </g>
    </g>
    <g id="xtick_8">
     <g id="line2d_8">
      <g>
       <use style="stroke:#000000;stroke-width:0.8;" x="374.58" xlink:href="#m9c8fb64a53" y="315"/>
      </g>
     </g>
     <g id="text_7">
      <!-- Oct -->
      <g transform="translate(365.934688 329.598437)scale(0.1 -0.1)">
       <defs>
        <path d="M 39.40625 66.21875 
Q 28.65625 66.21875 22.328125 58.203125 
Q 16.015625 50.203125 16.015625 36.375 
Q 16.015625 22.609375 22.328125 14.59375 
Q 28.65625 6.59375 39.40625 6.59375 
Q 50.140625 6.59375 56.421875 14.59375 
Q 62.703125 22.609375 62.703125 36.375 
Q 62.703125 50.203125 56.421875 58.203125 
Q 50.140625 66.21875 39.40625 66.21875 
z
M 39.40625 74.21875 
Q 54.734375 74.21875 63.90625 63.9375 
Q 73.09375 53.65625 73.09375 36.375 
Q 73.09375 19.140625 63.90625 8.859375 
Q 54.734375 -1.421875 39.40625 -1.421875 
Q 24.03125 -1.421875 14.8125 8.828125 
Q 5.609375 19.09375 5.609375 36.375 
Q 5.609375 53.65625 14.8125 63.9375 
Q 24.03125 74.21875 39.40625 74.21875 
z
" id="DejaVuSans-79"/>
        <path d="M 48.78125 52.59375 
L 48.78125 44.1875 
Q 44.96875 46.296875 41.140625 47.34375 
Q 37.3125 48.390625 33.40625 48.390625 
Q 24.65625 48.390625 19.8125 42.84375 
Q 14.984375 37.3125 14.984375 27.296875 
Q 14.984375 17.28125 19.8125 11.734375 
Q 24.65625 6.203125 33.40625 6.203125 
Q 37.3125 6.203125 41.140625 7.25 
Q 44.96875 8.296875 48.78125 10.40625 
L 48.78125 2.09375 
Q 45.015625 0.34375 40.984375 -0.53125 
Q 36.96875 -1.421875 32.421875 -1.421875 
Q 20.0625 -1.421875 12.78125 6.34375 
Q 5.515625 14.109375 5.515625 27.296875 
Q 5.515625 40.671875 12.859375 48.328125 
Q 20.21875 56 33.015625 56 
Q 37.15625 56 41.109375 55.140625 
Q 45.0625 54.296875 48.78125 52.59375 
z
" id="DejaVuSans-99"/>
        <path d="M 18.3125 70.21875 
L 18.3125 54.6875 
L 36.8125 54.6875 
L 36.8125 47.703125 
L 18.3125 47.703125 
L 18.3125 18.015625 
Q 18.3125 11.328125 20.140625 9.421875 
Q 21.96875 7.515625 27.59375 7.515625 
L 36.8125 7.515625 
L 36.8125 0 
L 27.59375 0 
Q 17.1875 0 13.234375 3.875 
Q 9.28125 7.765625 9.28125 18.015625 
L 9.28125 47.703125 
L 2.6875 47.703125 
L 2.6875 54.6875 
L 9.28125 54.6875 
L 9.28125 70.21875 
z
" id="DejaVuSans-116"/>
       </defs>
       <use xlink:href="#DejaVuSans-79"/>
       <use x="78.710938" xlink:href="#DejaVuSans-99"/>
       <use x="133.691406" xlink:href="#DejaVuSans-116"/>
      </g>
     </g>
    </g>
    <g id="xtick_9">
     <g id="line2d_9">
      <g>
       <use style="stroke:#000000;stroke-width:0.8;" x="417.825" xlink:href="#m9c8fb64a53" y="315"/>
      </g>
     </g>
     <g id="text_8">
      <!-- Nov -->
      <g transform="translate(408.065625 329.598437)scale(0.1 -0.1)">
       <defs>
        <path d="M 9.8125 72.90625 
L 23.09375 72.90625 
L 55.421875 11.921875 
L 55.421875 72.90625 
L 64.984375 72.90625 
L 64.984375 0 
L 51.703125 0 
L 19.390625 60.984375 
L 19.390625 0 
L 9.8125 0 
z
" id="DejaVuSans-78"/>
        <path d="M 30.609375 48.390625 
Q 23.390625 48.390625 19.1875 42.75 
Q 14.984375 37.109375 14.984375 27.296875 
Q 14.984375 17.484375 19.15625 11.84375 
Q 23.34375 6.203125 30.609375 6.203125 
Q 37.796875 6.203125 41.984375 11.859375 
Q 46.1875 17.53125 46.1875 27.296875 
Q 46.1875 37.015625 41.984375 42.703125 
Q 37.796875 48.390625 30.609375 48.390625 
z
M 30.609375 56 
Q 42.328125 56 49.015625 48.375 
Q 55.71875 40.765625 55.71875 27.296875 
Q 55.71875 13.875 49.015625 6.21875 
Q 42.328125 -1.421875 30.609375 -1.421875 
Q 18.84375 -1.421875 12.171875 6.21875 
Q 5.515625 13.875 5.515625 27.296875 
Q 5.515625 40.765625 12.171875 48.375 
Q 18.84375 56 30.609375 56 
z
" id="DejaVuSans-111"/>
        <path d="M 2.984375 54.6875 
L 12.5 54.6875 
L 29.59375 8.796875 
L 46.6875 54.6875 
L 56.203125 54.6875 
L 35.6875 0 
L 23.484375 0 
z
" id="DejaVuSans-118"/>
       </defs>
       <use xlink:href="#DejaVuSans-78"/>
       <use x="74.804688" xlink:href="#DejaVuSans-111"/>
       <use x="135.986328" xlink:href="#DejaVuSans-118"/>
      </g>
     </g>
    </g>
    <g id="xtick_10">
     <g id="line2d_10">
      <g>
       <use style="stroke:#000000;stroke-width:0.8;" x="459.675" xlink:href="#m9c8fb64a53" y="315"/>
      </g>
     </g>
     <g id="text_9">
      <!-- Dec -->
      <g transform="translate(449.999219 329.598437)scale(0.1 -0.1)">
       <defs>
        <path d="M 19.671875 64.796875 
L 19.671875 8.109375 
L 31.59375 8.109375 
Q 46.6875 8.109375 53.6875 14.9375 
Q 60.6875 21.78125 60.6875 36.53125 
Q 60.6875 51.171875 53.6875 57.984375 
Q 46.6875 64.796875 31.59375 64.796875 
z
M 9.8125 72.90625 
L 30.078125 72.90625 
Q 51.265625 72.90625 61.171875 64.09375 
Q 71.09375 55.28125 71.09375 36.53125 
Q 71.09375 17.671875 61.125 8.828125 
Q 51.171875 0 30.078125 0 
L 9.8125 0 
z
" id="DejaVuSans-68"/>
       </defs>
       <use xlink:href="#DejaVuSans-68"/>
       <use x="77.001953" xlink:href="#DejaVuSans-101"/>
       <use x="138.525391" xlink:href="#DejaVuSans-99"/>
      </g>
     </g>
    </g>
    <g id="xtick_11">
     <g id="line2d_11">
      <g>
       <use style="stroke:#000000;stroke-width:0.8;" x="502.92" xlink:href="#m9c8fb64a53" y="315"/>
      </g>
     </g>
     <g id="text_10">
      <!-- Jan -->
      <g transform="translate(495.212188 329.598437)scale(0.1 -0.1)">
       <use xlink:href="#DejaVuSans-74"/>
       <use x="29.492188" xlink:href="#DejaVuSans-97"/>
       <use x="90.771484" xlink:href="#DejaVuSans-110"/>
      </g>
      <!-- 2021 -->
      <g transform="translate(490.195 340.79625)scale(0.1 -0.1)">
       <defs>
        <path d="M 19.1875 8.296875 
L 53.609375 8.296875 
L 53.609375 0 
L 7.328125 0 
L 7.328125 8.296875 
Q 12.9375 14.109375 22.625 23.890625 
Q 32.328125 33.6875 34.8125 36.53125 
Q 39.546875 41.84375 41.421875 45.53125 
Q 43.3125 49.21875 43.3125 52.78125 
Q 43.3125 58.59375 39.234375 62.25 
Q 35.15625 65.921875 28.609375 65.921875 
Q 23.96875 65.921875 18.8125 64.3125 
Q 13.671875 62.703125 7.8125 59.421875 
L 7.8125 69.390625 
Q 13.765625 71.78125 18.9375 73 
Q 24.125 74.21875 28.421875 74.21875 
Q 39.75 74.21875 46.484375 68.546875 
Q 53.21875 62.890625 53.21875 53.421875 
Q 53.21875 48.921875 51.53125 44.890625 
Q 49.859375 40.875 45.40625 35.40625 
Q 44.1875 33.984375 37.640625 27.21875 
Q 31.109375 20.453125 19.1875 8.296875 
z
" id="DejaVuSans-50"/>
        <path d="M 31.78125 66.40625 
Q 24.171875 66.40625 20.328125 58.90625 
Q 16.5 51.421875 16.5 36.375 
Q 16.5 21.390625 20.328125 13.890625 
Q 24.171875 6.390625 31.78125 6.390625 
Q 39.453125 6.390625 43.28125 13.890625 
Q 47.125 21.390625 47.125 36.375 
Q 47.125 51.421875 43.28125 58.90625 
Q 39.453125 66.40625 31.78125 66.40625 
z
M 31.78125 74.21875 
Q 44.046875 74.21875 50.515625 64.515625 
Q 56.984375 54.828125 56.984375 36.375 
Q 56.984375 17.96875 50.515625 8.265625 
Q 44.046875 -1.421875 31.78125 -1.421875 
Q 19.53125 -1.421875 13.0625 8.265625 
Q 6.59375 17.96875 6.59375 36.375 
Q 6.59375 54.828125 13.0625 64.515625 
Q 19.53125 74.21875 31.78125 74.21875 
z
" id="DejaVuSans-48"/>
        <path d="M 12.40625 8.296875 
L 28.515625 8.296875 
L 28.515625 63.921875 
L 10.984375 60.40625 
L 10.984375 69.390625 
L 28.421875 72.90625 
L 38.28125 72.90625 
L 38.28125 8.296875 
L 54.390625 8.296875 
L 54.390625 0 
L 12.40625 0 
z
" id="DejaVuSans-49"/>
       </defs>
       <use xlink:href="#DejaVuSans-50"/>
       <use x="63.623047" xlink:href="#DejaVuSans-48"/>
       <use x="127.246094" xlink:href="#DejaVuSans-50"/>
       <use x="190.869141" xlink:href="#DejaVuSans-49"/>
      </g>
     </g>
    </g>
    <g id="xtick_12">
     <g id="line2d_12">
      <g>
       <use style="stroke:#000000;stroke-width:0.8;" x="546.165" xlink:href="#m9c8fb64a53" y="315"/>
      </g>
     </g>
     <g id="text_11">
      <!-- Feb -->
      <g transform="translate(537.313438 329.598437)scale(0.1 -0.1)">
       <defs>
        <path d="M 9.8125 72.90625 
L 51.703125 72.90625 
L 51.703125 64.59375 
L 19.671875 64.59375 
L 19.671875 43.109375 
L 48.578125 43.109375 
L 48.578125 34.8125 
L 19.671875 34.8125 
L 19.671875 0 
L 9.8125 0 
z
" id="DejaVuSans-70"/>
        <path d="M 48.6875 27.296875 
Q 48.6875 37.203125 44.609375 42.84375 
Q 40.53125 48.484375 33.40625 48.484375 
Q 26.265625 48.484375 22.1875 42.84375 
Q 18.109375 37.203125 18.109375 27.296875 
Q 18.109375 17.390625 22.1875 11.75 
Q 26.265625 6.109375 33.40625 6.109375 
Q 40.53125 6.109375 44.609375 11.75 
Q 48.6875 17.390625 48.6875 27.296875 
z
M 18.109375 46.390625 
Q 20.953125 51.265625 25.265625 53.625 
Q 29.59375 56 35.59375 56 
Q 45.5625 56 51.78125 48.09375 
Q 58.015625 40.1875 58.015625 27.296875 
Q 58.015625 14.40625 51.78125 6.484375 
Q 45.5625 -1.421875 35.59375 -1.421875 
Q 29.59375 -1.421875 25.265625 0.953125 
Q 20.953125 3.328125 18.109375 8.203125 
L 18.109375 0 
L 9.078125 0 
L 9.078125 75.984375 
L 18.109375 75.984375 
z
" id="DejaVuSans-98"/>
       </defs>
       <use xlink:href="#DejaVuSans-70"/>
       <use x="52.019531" xlink:href="#DejaVuSans-101"/>
       <use x="113.542969" xlink:href="#DejaVuSans-98"/>
      </g>
     </g>
    </g>
    <g id="xtick_13">
     <g id="line2d_13">
      <g>
       <use style="stroke:#000000;stroke-width:0.8;" x="585.225" xlink:href="#m9c8fb64a53" y="315"/>
      </g>
     </g>
     <g id="text_12">
      <!-- Mar -->
      <g transform="translate(575.791406 329.598437)scale(0.1 -0.1)">
       <use xlink:href="#DejaVuSans-77"/>
       <use x="86.279297" xlink:href="#DejaVuSans-97"/>
       <use x="147.558594" xlink:href="#DejaVuSans-114"/>
      </g>
     </g>
    </g>
    <g id="xtick_14">
     <g id="line2d_14">
      <g>
       <use style="stroke:#000000;stroke-width:0.8;" x="628.47" xlink:href="#m9c8fb64a53" y="315"/>
      </g>
     </g>
     <g id="text_13">
      <!-- Apr -->
      <g transform="translate(619.82 329.598437)scale(0.1 -0.1)">
       <use xlink:href="#DejaVuSans-65"/>
       <use x="68.408203" xlink:href="#DejaVuSans-112"/>
       <use x="131.884766" xlink:href="#DejaVuSans-114"/>
      </g>
     </g>
    </g>
    <g id="xtick_15">
     <g id="line2d_15">
      <g>
       <use style="stroke:#000000;stroke-width:0.8;" x="648" xlink:href="#m9c8fb64a53" y="315"/>
      </g>
     </g>
    </g>
    <g id="xtick_16">
     <g id="line2d_16">
      <defs>
       <path d="M 0 0 
L 0 2 
" id="m8607a84537" style="stroke:#000000;stroke-width:0.6;"/>
      </defs>
      <g>
       <use style="stroke:#000000;stroke-width:0.6;" x="96.975" xlink:href="#m8607a84537" y="315"/>
      </g>
     </g>
    </g>
    <g id="xtick_17">
     <g id="line2d_17">
      <g>
       <use style="stroke:#000000;stroke-width:0.6;" x="106.74" xlink:href="#m8607a84537" y="315"/>
      </g>
     </g>
    </g>
    <g id="xtick_18">
     <g id="line2d_18">
      <g>
       <use style="stroke:#000000;stroke-width:0.6;" x="116.505" xlink:href="#m8607a84537" y="315"/>
      </g>
     </g>
    </g>
    <g id="xtick_19">
     <g id="line2d_19">
      <g>
       <use style="stroke:#000000;stroke-width:0.6;" x="126.27" xlink:href="#m8607a84537" y="315"/>
      </g>
     </g>
    </g>
    <g id="xtick_20">
     <g id="line2d_20">
      <g>
       <use style="stroke:#000000;stroke-width:0.6;" x="136.035" xlink:href="#m8607a84537" y="315"/>
      </g>
     </g>
    </g>
    <g id="xtick_21">
     <g id="line2d_21">
      <g>
       <use style="stroke:#000000;stroke-width:0.6;" x="145.8" xlink:href="#m8607a84537" y="315"/>
      </g>
     </g>
    </g>
    <g id="xtick_22">
     <g id="line2d_22">
      <g>
       <use style="stroke:#000000;stroke-width:0.6;" x="155.565" xlink:href="#m8607a84537" y="315"/>
      </g>
     </g>
    </g>
    <g id="xtick_23">
     <g id="line2d_23">
      <g>
       <use style="stroke:#000000;stroke-width:0.6;" x="165.33" xlink:href="#m8607a84537" y="315"/>
      </g>
     </g>
    </g>
    <g id="xtick_24">
     <g id="line2d_24">
      <g>
       <use style="stroke:#000000;stroke-width:0.6;" x="175.095" xlink:href="#m8607a84537" y="315"/>
      </g>
     </g>
    </g>
    <g id="xtick_25">
     <g id="line2d_25">
      <g>
       <use style="stroke:#000000;stroke-width:0.6;" x="184.86" xlink:href="#m8607a84537" y="315"/>
      </g>
     </g>
    </g>
    <g id="xtick_26">
     <g id="line2d_26">
      <g>
       <use style="stroke:#000000;stroke-width:0.6;" x="194.625" xlink:href="#m8607a84537" y="315"/>
      </g>
     </g>
    </g>
    <g id="xtick_27">
     <g id="line2d_27">
      <g>
       <use style="stroke:#000000;stroke-width:0.6;" x="214.155" xlink:href="#m8607a84537" y="315"/>
      </g>
     </g>
    </g>
    <g id="xtick_28">
     <g id="line2d_28">
      <g>
       <use style="stroke:#000000;stroke-width:0.6;" x="223.92" xlink:href="#m8607a84537" y="315"/>
      </g>
     </g>
    </g>
    <g id="xtick_29">
     <g id="line2d_29">
      <g>
       <use style="stroke:#000000;stroke-width:0.6;" x="233.685" xlink:href="#m8607a84537" y="315"/>
      </g>
     </g>
    </g>
    <g id="xtick_30">
     <g id="line2d_30">
      <g>
       <use style="stroke:#000000;stroke-width:0.6;" x="243.45" xlink:href="#m8607a84537" y="315"/>
      </g>
     </g>
    </g>
    <g id="xtick_31">
     <g id="line2d_31">
      <g>
       <use style="stroke:#000000;stroke-width:0.6;" x="253.215" xlink:href="#m8607a84537" y="315"/>
      </g>
     </g>
    </g>
    <g id="xtick_32">
     <g id="line2d_32">
      <g>
       <use style="stroke:#000000;stroke-width:0.6;" x="262.98" xlink:href="#m8607a84537" y="315"/>
      </g>
     </g>
    </g>
    <g id="xtick_33">
     <g id="line2d_33">
      <g>
       <use style="stroke:#000000;stroke-width:0.6;" x="272.745" xlink:href="#m8607a84537" y="315"/>
      </g>
     </g>
    </g>
    <g id="xtick_34">
     <g id="line2d_34">
      <g>
       <use style="stroke:#000000;stroke-width:0.6;" x="282.51" xlink:href="#m8607a84537" y="315"/>
      </g>
     </g>
    </g>
    <g id="xtick_35">
     <g id="line2d_35">
      <g>
       <use style="stroke:#000000;stroke-width:0.6;" x="292.275" xlink:href="#m8607a84537" y="315"/>
      </g>
     </g>
    </g>
    <g id="xtick_36">
     <g id="line2d_36">
      <g>
       <use style="stroke:#000000;stroke-width:0.6;" x="302.04" xlink:href="#m8607a84537" y="315"/>
      </g>
     </g>
    </g>
    <g id="xtick_37">
     <g id="line2d_37">
      <g>
       <use style="stroke:#000000;stroke-width:0.6;" x="311.805" xlink:href="#m8607a84537" y="315"/>
      </g>
     </g>
    </g>
    <g id="xtick_38">
     <g id="line2d_38">
      <g>
       <use style="stroke:#000000;stroke-width:0.6;" x="321.57" xlink:href="#m8607a84537" y="315"/>
      </g>
     </g>
    </g>
    <g id="xtick_39">
     <g id="line2d_39">
      <g>
       <use style="stroke:#000000;stroke-width:0.6;" x="331.335" xlink:href="#m8607a84537" y="315"/>
      </g>
     </g>
    </g>
    <g id="xtick_40">
     <g id="line2d_40">
      <g>
       <use style="stroke:#000000;stroke-width:0.6;" x="341.1" xlink:href="#m8607a84537" y="315"/>
      </g>
     </g>
    </g>
    <g id="xtick_41">
     <g id="line2d_41">
      <g>
       <use style="stroke:#000000;stroke-width:0.6;" x="350.865" xlink:href="#m8607a84537" y="315"/>
      </g>
     </g>
    </g>
    <g id="xtick_42">
     <g id="line2d_42">
      <g>
       <use style="stroke:#000000;stroke-width:0.6;" x="360.63" xlink:href="#m8607a84537" y="315"/>
      </g>
     </g>
    </g>
    <g id="xtick_43">
     <g id="line2d_43">
      <g>
       <use style="stroke:#000000;stroke-width:0.6;" x="370.395" xlink:href="#m8607a84537" y="315"/>
      </g>
     </g>
    </g>
    <g id="xtick_44">
     <g id="line2d_44">
      <g>
       <use style="stroke:#000000;stroke-width:0.6;" x="380.16" xlink:href="#m8607a84537" y="315"/>
      </g>
     </g>
    </g>
    <g id="xtick_45">
     <g id="line2d_45">
      <g>
       <use style="stroke:#000000;stroke-width:0.6;" x="389.925" xlink:href="#m8607a84537" y="315"/>
      </g>
     </g>
    </g>
    <g id="xtick_46">
     <g id="line2d_46">
      <g>
       <use style="stroke:#000000;stroke-width:0.6;" x="399.69" xlink:href="#m8607a84537" y="315"/>
      </g>
     </g>
    </g>
    <g id="xtick_47">
     <g id="line2d_47">
      <g>
       <use style="stroke:#000000;stroke-width:0.6;" x="409.455" xlink:href="#m8607a84537" y="315"/>
      </g>
     </g>
    </g>
    <g id="xtick_48">
     <g id="line2d_48">
      <g>
       <use style="stroke:#000000;stroke-width:0.6;" x="419.22" xlink:href="#m8607a84537" y="315"/>
      </g>
     </g>
    </g>
    <g id="xtick_49">
     <g id="line2d_49">
      <g>
       <use style="stroke:#000000;stroke-width:0.6;" x="428.985" xlink:href="#m8607a84537" y="315"/>
      </g>
     </g>
    </g>
    <g id="xtick_50">
     <g id="line2d_50">
      <g>
       <use style="stroke:#000000;stroke-width:0.6;" x="438.75" xlink:href="#m8607a84537" y="315"/>
      </g>
     </g>
    </g>
    <g id="xtick_51">
     <g id="line2d_51">
      <g>
       <use style="stroke:#000000;stroke-width:0.6;" x="448.515" xlink:href="#m8607a84537" y="315"/>
      </g>
     </g>
    </g>
    <g id="xtick_52">
     <g id="line2d_52">
      <g>
       <use style="stroke:#000000;stroke-width:0.6;" x="458.28" xlink:href="#m8607a84537" y="315"/>
      </g>
     </g>
    </g>
    <g id="xtick_53">
     <g id="line2d_53">
      <g>
       <use style="stroke:#000000;stroke-width:0.6;" x="468.045" xlink:href="#m8607a84537" y="315"/>
      </g>
     </g>
    </g>
    <g id="xtick_54">
     <g id="line2d_54">
      <g>
       <use style="stroke:#000000;stroke-width:0.6;" x="477.81" xlink:href="#m8607a84537" y="315"/>
      </g>
     </g>
    </g>
    <g id="xtick_55">
     <g id="line2d_55">
      <g>
       <use style="stroke:#000000;stroke-width:0.6;" x="487.575" xlink:href="#m8607a84537" y="315"/>
      </g>
     </g>
    </g>
    <g id="xtick_56">
     <g id="line2d_56">
      <g>
       <use style="stroke:#000000;stroke-width:0.6;" x="497.34" xlink:href="#m8607a84537" y="315"/>
      </g>
     </g>
    </g>
    <g id="xtick_57">
     <g id="line2d_57">
      <g>
       <use style="stroke:#000000;stroke-width:0.6;" x="507.105" xlink:href="#m8607a84537" y="315"/>
      </g>
     </g>
    </g>
    <g id="xtick_58">
     <g id="line2d_58">
      <g>
       <use style="stroke:#000000;stroke-width:0.6;" x="516.87" xlink:href="#m8607a84537" y="315"/>
      </g>
     </g>
    </g>
    <g id="xtick_59">
     <g id="line2d_59">
      <g>
       <use style="stroke:#000000;stroke-width:0.6;" x="526.635" xlink:href="#m8607a84537" y="315"/>
      </g>
     </g>
    </g>
    <g id="xtick_60">
     <g id="line2d_60">
      <g>
       <use style="stroke:#000000;stroke-width:0.6;" x="536.4" xlink:href="#m8607a84537" y="315"/>
      </g>
     </g>
    </g>
    <g id="xtick_61">
     <g id="line2d_61">
      <g>
       <use style="stroke:#000000;stroke-width:0.6;" x="555.93" xlink:href="#m8607a84537" y="315"/>
      </g>
     </g>
    </g>
    <g id="xtick_62">
     <g id="line2d_62">
      <g>
       <use style="stroke:#000000;stroke-width:0.6;" x="565.695" xlink:href="#m8607a84537" y="315"/>
      </g>
     </g>
    </g>
    <g id="xtick_63">
     <g id="line2d_63">
      <g>
       <use style="stroke:#000000;stroke-width:0.6;" x="575.46" xlink:href="#m8607a84537" y="315"/>
      </g>
     </g>
    </g>
    <g id="xtick_64">
     <g id="line2d_64">
      <g>
       <use style="stroke:#000000;stroke-width:0.6;" x="594.99" xlink:href="#m8607a84537" y="315"/>
      </g>
     </g>
    </g>
    <g id="xtick_65">
     <g id="line2d_65">
      <g>
       <use style="stroke:#000000;stroke-width:0.6;" x="604.755" xlink:href="#m8607a84537" y="315"/>
      </g>
     </g>
    </g>
    <g id="xtick_66">
     <g id="line2d_66">
      <g>
       <use style="stroke:#000000;stroke-width:0.6;" x="614.52" xlink:href="#m8607a84537" y="315"/>
      </g>
     </g>
    </g>
    <g id="xtick_67">
     <g id="line2d_67">
      <g>
       <use style="stroke:#000000;stroke-width:0.6;" x="624.285" xlink:href="#m8607a84537" y="315"/>
      </g>
     </g>
    </g>
    <g id="xtick_68">
     <g id="line2d_68">
      <g>
       <use style="stroke:#000000;stroke-width:0.6;" x="634.05" xlink:href="#m8607a84537" y="315"/>
      </g>
     </g>
    </g>
    <g id="xtick_69">
     <g id="line2d_69">
      <g>
       <use style="stroke:#000000;stroke-width:0.6;" x="643.815" xlink:href="#m8607a84537" y="315"/>
      </g>
     </g>
    </g>
    <g id="text_14">
     <!-- date -->
     <g transform="translate(357.725 354.474375)scale(0.1 -0.1)">
      <defs>
       <path d="M 45.40625 46.390625 
L 45.40625 75.984375 
L 54.390625 75.984375 
L 54.390625 0 
L 45.40625 0 
L 45.40625 8.203125 
Q 42.578125 3.328125 38.25 0.953125 
Q 33.9375 -1.421875 27.875 -1.421875 
Q 17.96875 -1.421875 11.734375 6.484375 
Q 5.515625 14.40625 5.515625 27.296875 
Q 5.515625 40.1875 11.734375 48.09375 
Q 17.96875 56 27.875 56 
Q 33.9375 56 38.25 53.625 
Q 42.578125 51.265625 45.40625 46.390625 
z
M 14.796875 27.296875 
Q 14.796875 17.390625 18.875 11.75 
Q 22.953125 6.109375 30.078125 6.109375 
Q 37.203125 6.109375 41.296875 11.75 
Q 45.40625 17.390625 45.40625 27.296875 
Q 45.40625 37.203125 41.296875 42.84375 
Q 37.203125 48.484375 30.078125 48.484375 
Q 22.953125 48.484375 18.875 42.84375 
Q 14.796875 37.203125 14.796875 27.296875 
z
" id="DejaVuSans-100"/>
      </defs>
      <use xlink:href="#DejaVuSans-100"/>
      <use x="63.476562" xlink:href="#DejaVuSans-97"/>
      <use x="124.755859" xlink:href="#DejaVuSans-116"/>
      <use x="163.964844" xlink:href="#DejaVuSans-101"/>
     </g>
    </g>
   </g>
   <g id="matplotlib.axis_2">
    <g id="ytick_1">
     <g id="line2d_70">
      <path clip-path="url(#pe4dbf61546)" d="M 90 284.707225 
L 648 284.707225 
" style="fill:none;stroke:#b0b0b0;stroke-dasharray:0.8,1.32;stroke-dashoffset:0;stroke-width:0.8;"/>
     </g>
     <g id="line2d_71">
      <defs>
       <path d="M 0 0 
L -3.5 0 
" id="m3217991303" style="stroke:#000000;stroke-width:0.8;"/>
      </defs>
      <g>
       <use style="stroke:#000000;stroke-width:0.8;" x="90" xlink:href="#m3217991303" y="284.707225"/>
      </g>
     </g>
     <g id="text_15">
      <!-- 0.50 -->
      <g transform="translate(60.734375 288.506444)scale(0.1 -0.1)">
       <defs>
        <path d="M 10.6875 12.40625 
L 21 12.40625 
L 21 0 
L 10.6875 0 
z
" id="DejaVuSans-46"/>
        <path d="M 10.796875 72.90625 
L 49.515625 72.90625 
L 49.515625 64.59375 
L 19.828125 64.59375 
L 19.828125 46.734375 
Q 21.96875 47.46875 24.109375 47.828125 
Q 26.265625 48.1875 28.421875 48.1875 
Q 40.625 48.1875 47.75 41.5 
Q 54.890625 34.8125 54.890625 23.390625 
Q 54.890625 11.625 47.5625 5.09375 
Q 40.234375 -1.421875 26.90625 -1.421875 
Q 22.3125 -1.421875 17.546875 -0.640625 
Q 12.796875 0.140625 7.71875 1.703125 
L 7.71875 11.625 
Q 12.109375 9.234375 16.796875 8.0625 
Q 21.484375 6.890625 26.703125 6.890625 
Q 35.15625 6.890625 40.078125 11.328125 
Q 45.015625 15.765625 45.015625 23.390625 
Q 45.015625 31 40.078125 35.4375 
Q 35.15625 39.890625 26.703125 39.890625 
Q 22.75 39.890625 18.8125 39.015625 
Q 14.890625 38.140625 10.796875 36.28125 
z
" id="DejaVuSans-53"/>
       </defs>
       <use xlink:href="#DejaVuSans-48"/>
       <use x="63.623047" xlink:href="#DejaVuSans-46"/>
       <use x="95.410156" xlink:href="#DejaVuSans-53"/>
       <use x="159.033203" xlink:href="#DejaVuSans-48"/>
      </g>
     </g>
    </g>
    <g id="ytick_2">
     <g id="line2d_72">
      <path clip-path="url(#pe4dbf61546)" d="M 90 250.421565 
L 648 250.421565 
" style="fill:none;stroke:#b0b0b0;stroke-dasharray:0.8,1.32;stroke-dashoffset:0;stroke-width:0.8;"/>
     </g>
     <g id="line2d_73">
      <g>
       <use style="stroke:#000000;stroke-width:0.8;" x="90" xlink:href="#m3217991303" y="250.421565"/>
      </g>
     </g>
     <g id="text_16">
      <!-- 0.75 -->
      <g transform="translate(60.734375 254.220784)scale(0.1 -0.1)">
       <defs>
        <path d="M 8.203125 72.90625 
L 55.078125 72.90625 
L 55.078125 68.703125 
L 28.609375 0 
L 18.3125 0 
L 43.21875 64.59375 
L 8.203125 64.59375 
z
" id="DejaVuSans-55"/>
       </defs>
       <use xlink:href="#DejaVuSans-48"/>
       <use x="63.623047" xlink:href="#DejaVuSans-46"/>
       <use x="95.410156" xlink:href="#DejaVuSans-55"/>
       <use x="159.033203" xlink:href="#DejaVuSans-53"/>
      </g>
     </g>
    </g>
    <g id="ytick_3">
     <g id="line2d_74">
      <path clip-path="url(#pe4dbf61546)" d="M 90 216.135906 
L 648 216.135906 
" style="fill:none;stroke:#b0b0b0;stroke-dasharray:0.8,1.32;stroke-dashoffset:0;stroke-width:0.8;"/>
     </g>
     <g id="line2d_75">
      <g>
       <use style="stroke:#000000;stroke-width:0.8;" x="90" xlink:href="#m3217991303" y="216.135906"/>
      </g>
     </g>
     <g id="text_17">
      <!-- 1.00 -->
      <g transform="translate(60.734375 219.935124)scale(0.1 -0.1)">
       <use xlink:href="#DejaVuSans-49"/>
       <use x="63.623047" xlink:href="#DejaVuSans-46"/>
       <use x="95.410156" xlink:href="#DejaVuSans-48"/>
       <use x="159.033203" xlink:href="#DejaVuSans-48"/>
      </g>
     </g>
    </g>
    <g id="ytick_4">
     <g id="line2d_76">
      <path clip-path="url(#pe4dbf61546)" d="M 90 181.850246 
L 648 181.850246 
" style="fill:none;stroke:#b0b0b0;stroke-dasharray:0.8,1.32;stroke-dashoffset:0;stroke-width:0.8;"/>
     </g>
     <g id="line2d_77">
      <g>
       <use style="stroke:#000000;stroke-width:0.8;" x="90" xlink:href="#m3217991303" y="181.850246"/>
      </g>
     </g>
     <g id="text_18">
      <!-- 1.25 -->
      <g transform="translate(60.734375 185.649464)scale(0.1 -0.1)">
       <use xlink:href="#DejaVuSans-49"/>
       <use x="63.623047" xlink:href="#DejaVuSans-46"/>
       <use x="95.410156" xlink:href="#DejaVuSans-50"/>
       <use x="159.033203" xlink:href="#DejaVuSans-53"/>
      </g>
     </g>
    </g>
    <g id="ytick_5">
     <g id="line2d_78">
      <path clip-path="url(#pe4dbf61546)" d="M 90 147.564586 
L 648 147.564586 
" style="fill:none;stroke:#b0b0b0;stroke-dasharray:0.8,1.32;stroke-dashoffset:0;stroke-width:0.8;"/>
     </g>
     <g id="line2d_79">
      <g>
       <use style="stroke:#000000;stroke-width:0.8;" x="90" xlink:href="#m3217991303" y="147.564586"/>
      </g>
     </g>
     <g id="text_19">
      <!-- 1.50 -->
      <g transform="translate(60.734375 151.363805)scale(0.1 -0.1)">
       <use xlink:href="#DejaVuSans-49"/>
       <use x="63.623047" xlink:href="#DejaVuSans-46"/>
       <use x="95.410156" xlink:href="#DejaVuSans-53"/>
       <use x="159.033203" xlink:href="#DejaVuSans-48"/>
      </g>
     </g>
    </g>
    <g id="ytick_6">
     <g id="line2d_80">
      <path clip-path="url(#pe4dbf61546)" d="M 90 113.278926 
L 648 113.278926 
" style="fill:none;stroke:#b0b0b0;stroke-dasharray:0.8,1.32;stroke-dashoffset:0;stroke-width:0.8;"/>
     </g>
     <g id="line2d_81">
      <g>
       <use style="stroke:#000000;stroke-width:0.8;" x="90" xlink:href="#m3217991303" y="113.278926"/>
      </g>
     </g>
     <g id="text_20">
      <!-- 1.75 -->
      <g transform="translate(60.734375 117.078145)scale(0.1 -0.1)">
       <use xlink:href="#DejaVuSans-49"/>
       <use x="63.623047" xlink:href="#DejaVuSans-46"/>
       <use x="95.410156" xlink:href="#DejaVuSans-55"/>
       <use x="159.033203" xlink:href="#DejaVuSans-53"/>
      </g>
     </g>
    </g>
    <g id="ytick_7">
     <g id="line2d_82">
      <path clip-path="url(#pe4dbf61546)" d="M 90 78.993266 
L 648 78.993266 
" style="fill:none;stroke:#b0b0b0;stroke-dasharray:0.8,1.32;stroke-dashoffset:0;stroke-width:0.8;"/>
     </g>
     <g id="line2d_83">
      <g>
       <use style="stroke:#000000;stroke-width:0.8;" x="90" xlink:href="#m3217991303" y="78.993266"/>
      </g>
     </g>
     <g id="text_21">
      <!-- 2.00 -->
      <g transform="translate(60.734375 82.792485)scale(0.1 -0.1)">
       <use xlink:href="#DejaVuSans-50"/>
       <use x="63.623047" xlink:href="#DejaVuSans-46"/>
       <use x="95.410156" xlink:href="#DejaVuSans-48"/>
       <use x="159.033203" xlink:href="#DejaVuSans-48"/>
      </g>
     </g>
    </g>
    <g id="ytick_8">
     <g id="line2d_84">
      <path clip-path="url(#pe4dbf61546)" d="M 90 44.707606 
L 648 44.707606 
" style="fill:none;stroke:#b0b0b0;stroke-dasharray:0.8,1.32;stroke-dashoffset:0;stroke-width:0.8;"/>
     </g>
     <g id="line2d_85">
      <g>
       <use style="stroke:#000000;stroke-width:0.8;" x="90" xlink:href="#m3217991303" y="44.707606"/>
      </g>
     </g>
     <g id="text_22">
      <!-- 2.25 -->
      <g transform="translate(60.734375 48.506825)scale(0.1 -0.1)">
       <use xlink:href="#DejaVuSans-50"/>
       <use x="63.623047" xlink:href="#DejaVuSans-46"/>
       <use x="95.410156" xlink:href="#DejaVuSans-50"/>
       <use x="159.033203" xlink:href="#DejaVuSans-53"/>
      </g>
     </g>
    </g>
   </g>
   <g id="line2d_86">
    <path clip-path="url(#pe4dbf61546)" d="M 90 160.318712 
L 91.395 161.54608 
L 92.79 162.440006 
L 94.185 163.507963 
L 95.58 167.152315 
L 96.975 166.198517 
L 98.37 171.310232 
L 99.765 174.994687 
L 101.16 180.092514 
L 102.555 184.654064 
L 103.95 191.91647 
L 106.74 205.176595 
L 108.135 212.174575 
L 109.53 218.220137 
L 110.925 224.978391 
L 112.32 230.867595 
L 113.715 237.387574 
L 117.9 252.256658 
L 119.295 256.055456 
L 122.085 264.222414 
L 124.875 270.106795 
L 126.27 272.594876 
L 127.665 275.503642 
L 130.455 279.73011 
L 131.85 280.648315 
L 134.64 283.569769 
L 136.035 283.719159 
L 137.43 284.169947 
L 138.825 284.11573 
L 140.22 284.221913 
L 141.615 283.648554 
L 143.01 283.273263 
L 145.8 281.218442 
L 147.195 280.050163 
L 151.38 274.800313 
L 152.775 272.088465 
L 154.17 269.88253 
L 158.355 259.779503 
L 159.75 256.142533 
L 161.145 252.11444 
L 163.935 242.187417 
L 165.33 237.831302 
L 169.515 220.862345 
L 170.91 215.641293 
L 173.7 202.930592 
L 175.095 194.984711 
L 176.49 188.225104 
L 177.885 179.986161 
L 179.28 173.982324 
L 182.07 156.553163 
L 184.86 139.68475 
L 186.255 131.224296 
L 187.65 126.171393 
L 189.045 117.930828 
L 190.44 111.662223 
L 191.835 104.840021 
L 193.23 99.223446 
L 194.625 97.989913 
L 196.02 96.164021 
L 197.415 96.634671 
L 198.81 97.915535 
L 200.205 101.230095 
L 201.6 105.709548 
L 205.785 124.109605 
L 208.575 137.014925 
L 209.97 141.181945 
L 211.365 146.119469 
L 212.76 150.450456 
L 214.155 152.865801 
L 215.55 155.718141 
L 216.945 157.242683 
L 219.735 158.771813 
L 221.13 157.038893 
L 222.525 156.730516 
L 223.92 155.930729 
L 226.71 151.885371 
L 228.105 152.407063 
L 229.5 150.275141 
L 230.895 150.594248 
L 232.29 150.630204 
L 233.685 151.889019 
L 235.08 153.389107 
L 236.475 157.409607 
L 239.265 161.484744 
L 240.66 165.174029 
L 242.055 168.227921 
L 243.45 171.979177 
L 244.845 175.117842 
L 246.24 178.742772 
L 247.635 181.560169 
L 249.03 185.066104 
L 250.425 188.935755 
L 251.82 191.585733 
L 253.215 195.564658 
L 254.61 198.854806 
L 256.005 202.476869 
L 257.4 205.673679 
L 262.98 216.8644 
L 264.375 220.024663 
L 265.77 222.690583 
L 267.165 224.67823 
L 268.56 227.583548 
L 269.955 229.401911 
L 271.35 230.691341 
L 272.745 232.814331 
L 274.14 234.367622 
L 275.535 234.755932 
L 276.93 235.332057 
L 278.325 234.890934 
L 279.72 234.865195 
L 281.115 233.56801 
L 282.51 232.548618 
L 283.905 231.213485 
L 286.695 227.452107 
L 288.09 225.062868 
L 289.485 223.243886 
L 290.88 219.580311 
L 292.275 218.117297 
L 293.67 215.276265 
L 295.065 212.811816 
L 299.25 203.531084 
L 300.645 201.604265 
L 303.435 195.897823 
L 304.83 193.7826 
L 306.225 192.226526 
L 307.62 188.867473 
L 309.015 187.095389 
L 310.41 185.046654 
L 311.805 183.922338 
L 313.2 184.048169 
L 314.595 181.926192 
L 315.99 181.598699 
L 317.385 179.640244 
L 318.78 178.544494 
L 320.175 178.534695 
L 321.57 178.379265 
L 322.965 177.256589 
L 324.36 175.538004 
L 325.755 175.168477 
L 327.15 175.588272 
L 328.545 176.441754 
L 329.94 175.397038 
L 331.335 176.253991 
L 332.73 175.787031 
L 334.125 175.947161 
L 335.52 176.838722 
L 336.915 177.124913 
L 338.31 178.446312 
L 339.705 179.953028 
L 342.495 183.575648 
L 345.285 190.714614 
L 348.075 200.481818 
L 349.47 206.055405 
L 352.26 218.325418 
L 356.445 239.554407 
L 362.025 262.553563 
L 363.42 266.484735 
L 364.815 269.413339 
L 366.21 273.039452 
L 367.605 276.035316 
L 369 278.584965 
L 370.395 279.640409 
L 371.79 280.971382 
L 374.58 282.313749 
L 377.37 281.598578 
L 378.765 280.986539 
L 380.16 279.955548 
L 382.95 276.505589 
L 384.345 275.00626 
L 385.74 271.172737 
L 387.135 268.375877 
L 391.32 257.663423 
L 392.715 253.53164 
L 394.11 249.779179 
L 398.295 237.249709 
L 399.69 233.366939 
L 401.085 229.871189 
L 402.48 226.79777 
L 403.875 222.712019 
L 405.27 220.620826 
L 406.665 218.14876 
L 408.06 216.879212 
L 409.455 214.555576 
L 410.85 213.7372 
L 412.245 213.345414 
L 413.64 212.495838 
L 415.035 211.127281 
L 416.43 210.553973 
L 417.825 208.859521 
L 419.22 208.232823 
L 420.615 207.083332 
L 422.01 205.409869 
L 423.405 205.418704 
L 424.8 204.298666 
L 426.195 203.539279 
L 427.59 203.032309 
L 428.985 202.241982 
L 430.38 200.84468 
L 433.17 197.151888 
L 435.96 192.914868 
L 437.355 190.508474 
L 440.145 184.631054 
L 442.935 181.040165 
L 444.33 180.256023 
L 445.725 178.31451 
L 447.12 178.661777 
L 448.515 178.426715 
L 449.91 177.314265 
L 452.7 177.237959 
L 454.095 175.611707 
L 455.49 175.819229 
L 456.885 176.439547 
L 458.28 175.649582 
L 459.675 173.553857 
L 461.07 173.551349 
L 462.465 172.354419 
L 463.86 170.658517 
L 465.255 169.570206 
L 466.65 169.307101 
L 468.045 168.225576 
L 469.44 167.854376 
L 470.835 166.011567 
L 472.23 163.910506 
L 473.625 162.100423 
L 475.02 162.37511 
L 476.415 159.67828 
L 477.81 158.922127 
L 480.6 156.266894 
L 481.995 156.235643 
L 483.39 156.373052 
L 484.785 154.997443 
L 486.18 156.085628 
L 487.575 157.328483 
L 488.97 159.258755 
L 490.365 162.413158 
L 491.76 162.599074 
L 493.155 166.570954 
L 498.735 185.696616 
L 501.525 196.916553 
L 505.71 209.164228 
L 507.105 212.496582 
L 509.895 217.26729 
L 511.29 220.544201 
L 512.685 222.027634 
L 514.08 224.843645 
L 515.475 226.601378 
L 516.87 227.592987 
L 518.265 227.835498 
L 519.66 228.738292 
L 521.055 229.915529 
L 522.45 230.715683 
L 523.845 231.646988 
L 525.24 232.22186 
L 526.635 232.376617 
L 528.03 232.788452 
L 529.425 233.836885 
L 530.82 235.318227 
L 532.215 235.872693 
L 533.61 236.628863 
L 535.005 236.837396 
L 536.4 238.830023 
L 537.795 239.387594 
L 539.19 239.59407 
L 540.585 240.64942 
L 541.98 242.074875 
L 544.77 242.2005 
L 546.165 241.746384 
L 547.56 241.799304 
L 550.35 240.699031 
L 553.14 238.47345 
L 554.535 237.944827 
L 558.72 233.533055 
L 560.115 233.246544 
L 561.51 232.658763 
L 562.905 231.831714 
L 564.3 232.567671 
L 565.695 232.859604 
L 567.09 234.627989 
L 571.275 241.048537 
L 572.67 243.715161 
L 574.065 246.739599 
L 575.46 249.277135 
L 578.25 255.50772 
L 579.645 258.697258 
L 581.04 261.213968 
L 582.435 264.705847 
L 583.83 267.157858 
L 585.225 269.088618 
L 586.62 271.223334 
L 588.015 272.836927 
L 589.41 273.681882 
L 590.805 274.816997 
L 592.2 275.569912 
L 593.595 276.164581 
L 594.99 276.276431 
L 596.385 276.520462 
L 597.78 276.597854 
L 599.175 276.118902 
L 600.57 275.958428 
L 601.965 275.102838 
L 603.36 274.609321 
L 604.755 273.107432 
L 606.15 271.899284 
L 607.545 271.31627 
L 608.94 270.11302 
L 611.73 268.57141 
L 613.125 267.506301 
L 615.915 266.337593 
L 617.31 265.370769 
L 618.705 264.555807 
L 620.1 264.257113 
L 624.285 264.630478 
L 627.075 265.318619 
L 628.47 265.199246 
L 629.865 265.643705 
L 631.26 266.436432 
L 632.655 266.816601 
L 634.05 266.560239 
L 635.445 266.058856 
L 636.84 266.189327 
L 638.235 265.75112 
L 641.025 266.064894 
L 642.42 266.400249 
L 643.815 265.816673 
L 645.21 264.997647 
L 646.605 265.047925 
L 648 266.659315 
L 649.395 265.863965 
L 650.79 265.720213 
L 652.185 265.092262 
L 653.58 266.130763 
L 654.975 266.224025 
L 656.37 267.054902 
L 657.765 266.005587 
L 659.16 265.117102 
L 659.16 265.117102 
" style="fill:none;stroke:#fc997a;stroke-linecap:square;stroke-width:1.5;"/>
   </g>
   <g id="line2d_87">
    <path clip-path="url(#pe4dbf61546)" d="M 90 216.135906 
L 648 216.135906 
" style="fill:none;stroke:#000000;stroke-dasharray:3.7,1.6;stroke-dashoffset:0;"/>
   </g>
   <g id="patch_3">
    <path d="M 90 315 
L 90 43.2 
" style="fill:none;stroke:#000000;stroke-linecap:square;stroke-linejoin:miter;stroke-width:0.8;"/>
   </g>
   <g id="patch_4">
    <path d="M 648 315 
L 648 43.2 
" style="fill:none;stroke:#000000;stroke-linecap:square;stroke-linejoin:miter;stroke-width:0.8;"/>
   </g>
   <g id="patch_5">
    <path d="M 90 315 
L 648 315 
" style="fill:none;stroke:#000000;stroke-linecap:square;stroke-linejoin:miter;stroke-width:0.8;"/>
   </g>
   <g id="patch_6">
    <path d="M 90 43.2 
L 648 43.2 
" style="fill:none;stroke:#000000;stroke-linecap:square;stroke-linejoin:miter;stroke-width:0.8;"/>
   </g>
   <g id="text_23">
    <!-- 422    $R_t$ -->
    <g transform="translate(305.82 37.2)scale(0.12 -0.12)">
     <defs>
      <path d="M 37.796875 64.3125 
L 12.890625 25.390625 
L 37.796875 25.390625 
z
M 35.203125 72.90625 
L 47.609375 72.90625 
L 47.609375 25.390625 
L 58.015625 25.390625 
L 58.015625 17.1875 
L 47.609375 17.1875 
L 47.609375 0 
L 37.796875 0 
L 37.796875 17.1875 
L 4.890625 17.1875 
L 4.890625 26.703125 
z
" id="DejaVuSans-52"/>
      <path id="DejaVuSans-32"/>
      <path d="M 19.140625 33.40625 
L 19.140625 0 
L 10.109375 0 
L 10.109375 29.6875 
z
M 56.25 27.828125 
L 56.25 0 
L 47.21875 0 
L 47.21875 29.6875 
Q 47.21875 40.234375 44.0625 43.96875 
Q 40.921875 47.703125 31.84375 47.703125 
L 9.078125 47.703125 
L 9.078125 54.6875 
L 31.734375 54.6875 
Q 45.265625 54.6875 50.75 48.578125 
Q 56.25 42.484375 56.25 27.828125 
z
" id="DejaVuSans-1492"/>
      <path d="M 18.171875 54.6875 
L 18.171875 0 
L 9.078125 0 
L 9.078125 54.6875 
z
" id="DejaVuSans-1493"/>
      <path d="M 19.34375 -20.796875 
L 19.34375 33.40625 
L 10.25 29.6875 
L 10.25 -20.796875 
z
M 33.0625 0 
L 52.78125 47.703125 
L 9.078125 47.703125 
L 9.078125 54.640625 
L 63.328125 54.640625 
L 63.328125 49.265625 
L 42.578125 0 
z
" id="DejaVuSans-1511"/>
      <path d="M 56.640625 29.59375 
L 56.640625 0 
L 47.5625 0 
L 47.5625 29.6875 
Q 47.5625 33.296875 47.3125 35.71875 
Q 47.078125 38.140625 46.1875 40.59375 
Q 45.3125 43.0625 43.75 44.484375 
Q 42.1875 45.90625 39.453125 46.796875 
Q 36.71875 47.703125 32.8125 47.703125 
L 20.796875 47.703125 
L 20.796875 20.21875 
Q 20.796875 9.765625 17.796875 4.6875 
Q 14.796875 -0.390625 7.375 -0.390625 
Q 4.78125 -0.390625 0.984375 0.390625 
L 0.984375 7.375 
Q 4.15625 6.6875 6 6.6875 
Q 9.46875 6.6875 10.59375 9.46875 
Q 11.71875 12.25 11.71875 20.21875 
L 11.71875 47.703125 
L 3.265625 47.703125 
L 3.265625 54.6875 
L 32.8125 54.6875 
Q 39.796875 54.6875 44.5 53.046875 
Q 49.21875 51.421875 51.859375 48.046875 
Q 54.5 44.671875 55.5625 40.28125 
Q 56.640625 35.890625 56.640625 29.59375 
z
" id="DejaVuSans-1514"/>
      <path d="M 56.25 29.59375 
L 56.25 0 
L 47.171875 0 
L 47.171875 30.90625 
Q 47.171875 40.578125 44 44.140625 
Q 40.828125 47.703125 31.84375 47.703125 
L 18.109375 47.703125 
L 18.109375 0 
L 9.078125 0 
L 9.078125 54.6875 
L 31.734375 54.6875 
Q 45.21875 54.6875 50.734375 48.828125 
Q 56.25 42.96875 56.25 29.59375 
z
" id="DejaVuSans-1495"/>
      <path d="M 9.078125 54.6875 
L 29.890625 54.6875 
Q 42.484375 54.6875 49.703125 47.5625 
Q 56.9375 40.4375 56.9375 27.34375 
Q 56.9375 14.265625 49.6875 7.125 
Q 42.4375 0 29.890625 0 
L 9.078125 0 
L 9.078125 6.9375 
L 26.171875 6.9375 
Q 37.703125 6.9375 42.796875 11.625 
Q 47.90625 16.3125 47.90625 27.9375 
Q 47.90625 38.625 42.625 43.15625 
Q 37.359375 47.703125 26.21875 47.703125 
L 18.171875 47.703125 
L 18.109375 36.859375 
Q 18.0625 33.296875 19.8125 31.609375 
Q 21.578125 29.9375 25.203125 29.9375 
Q 27.203125 29.9375 30.46875 30.5625 
L 30.46875 23.140625 
Q 26.46875 22.359375 23.1875 22.359375 
Q 16.65625 22.359375 12.859375 25.96875 
Q 9.078125 29.59375 9.078125 38.1875 
z
" id="DejaVuSans-1508"/>
      <path d="M 47.359375 27.828125 
L 47.359375 0 
L 38.28125 0 
L 38.28125 27.828125 
Q 38.28125 31.390625 37.765625 34.265625 
Q 37.25 37.15625 36 39.71875 
Q 34.765625 42.28125 32.8125 43.984375 
Q 30.859375 45.703125 27.78125 46.703125 
Q 24.703125 47.703125 20.703125 47.703125 
L 4.296875 47.703125 
L 4.296875 54.6875 
L 20.65625 54.6875 
Q 26.8125 54.6875 31.46875 53.390625 
Q 36.140625 52.09375 39.109375 49.828125 
Q 42.09375 47.5625 43.96875 44.109375 
Q 45.84375 40.671875 46.59375 36.734375 
Q 47.359375 32.8125 47.359375 27.828125 
z
" id="DejaVuSans-1512"/>
      <path d="M 30.328125 54.6875 
L 30.328125 47.703125 
L 26.421875 47.703125 
Q 22.171875 47.703125 20.578125 43.921875 
Q 19 40.140625 19 30.90625 
L 19 0 
L 9.90625 0 
L 9.90625 30.90625 
Q 9.90625 37.109375 11.78125 41.453125 
Q 13.671875 45.796875 16.40625 47.703125 
L 4.296875 47.703125 
L 4.296875 54.6875 
z
" id="DejaVuSans-1494"/>
      <path d="M 43.75 20.0625 
L 57.671875 0 
L 47.078125 0 
L 26.765625 29.296875 
Q 25.390625 28.609375 24.53125 28.09375 
Q 23.6875 27.59375 22.3125 26.296875 
Q 20.953125 25 20.140625 23.40625 
Q 19.34375 21.828125 18.703125 19.140625 
Q 18.0625 16.453125 18.0625 13.09375 
L 18.0625 0 
L 9.078125 0 
L 9.078125 9.03125 
Q 9.078125 12.984375 9.5625 16.359375 
Q 10.0625 19.734375 10.8125 22.078125 
Q 11.578125 24.421875 12.796875 26.390625 
Q 14.015625 28.375 15.109375 29.59375 
Q 16.21875 30.8125 17.796875 31.875 
Q 19.390625 32.953125 20.453125 33.46875 
Q 21.53125 33.984375 23.046875 34.625 
L 9.1875 54.6875 
L 19.78125 54.6875 
L 40.09375 25.390625 
Q 41.40625 26.03125 42.25 26.53125 
Q 43.109375 27.046875 44.46875 28.359375 
Q 45.84375 29.6875 46.671875 31.265625 
Q 47.515625 32.859375 48.140625 35.546875 
Q 48.78125 38.234375 48.78125 41.609375 
L 48.78125 54.6875 
L 57.765625 54.6875 
L 57.765625 45.65625 
Q 57.765625 41.65625 57.265625 38.3125 
Q 56.78125 34.96875 56.03125 32.59375 
Q 55.28125 30.21875 54.046875 28.234375 
Q 52.828125 26.265625 51.703125 25.0625 
Q 50.59375 23.875 49.03125 22.796875 
Q 47.46875 21.734375 46.390625 21.21875 
Q 45.3125 20.703125 43.75 20.0625 
z
" id="DejaVuSans-1488"/>
      <path d="M 25.203125 64.796875 
L 20.21875 38.921875 
L 32.90625 38.921875 
Q 40.375 38.921875 44.984375 43.046875 
Q 49.609375 47.171875 49.609375 53.8125 
Q 49.609375 59.125 46.5 61.953125 
Q 43.40625 64.796875 37.59375 64.796875 
z
M 43.3125 35.015625 
Q 46.4375 34.28125 48.515625 31.390625 
Q 50.59375 28.515625 53.328125 19.921875 
L 59.515625 0 
L 49.125 0 
L 43.40625 18.703125 
Q 41.21875 25.921875 38.328125 28.359375 
Q 35.453125 30.8125 29.5 30.8125 
L 18.609375 30.8125 
L 12.59375 0 
L 2.6875 0 
L 16.890625 72.90625 
L 39.109375 72.90625 
Q 49.21875 72.90625 54.609375 68.328125 
Q 60.015625 63.765625 60.015625 55.171875 
Q 60.015625 47.5625 55.421875 41.984375 
Q 50.828125 36.421875 43.3125 35.015625 
z
" id="DejaVuSans-Oblique-82"/>
      <path d="M 42.28125 54.6875 
L 40.921875 47.703125 
L 23 47.703125 
L 17.1875 18.015625 
Q 16.890625 16.359375 16.75 15.234375 
Q 16.609375 14.109375 16.609375 13.484375 
Q 16.609375 10.359375 18.484375 8.9375 
Q 20.359375 7.515625 24.515625 7.515625 
L 33.59375 7.515625 
L 32.078125 0 
L 23.484375 0 
Q 15.484375 0 11.546875 3.125 
Q 7.625 6.25 7.625 12.59375 
Q 7.625 13.71875 7.765625 15.0625 
Q 7.90625 16.40625 8.203125 18.015625 
L 14.015625 47.703125 
L 6.390625 47.703125 
L 7.8125 54.6875 
L 15.28125 54.6875 
L 18.3125 70.21875 
L 27.296875 70.21875 
L 24.3125 54.6875 
z
" id="DejaVuSans-Oblique-116"/>
     </defs>
     <use transform="translate(0 0.78125)" xlink:href="#DejaVuSans-52"/>
     <use transform="translate(63.623047 0.78125)" xlink:href="#DejaVuSans-50"/>
     <use transform="translate(127.246094 0.78125)" xlink:href="#DejaVuSans-50"/>
     <use transform="translate(190.869141 0.78125)" xlink:href="#DejaVuSans-32"/>
     <use transform="translate(222.65625 0.78125)" xlink:href="#DejaVuSans-1492"/>
     <use transform="translate(287.988281 0.78125)" xlink:href="#DejaVuSans-1493"/>
     <use transform="translate(315.234375 0.78125)" xlink:href="#DejaVuSans-1493"/>
     <use transform="translate(342.480469 0.78125)" xlink:href="#DejaVuSans-1511"/>
     <use transform="translate(413.427734 0.78125)" xlink:href="#DejaVuSans-1514"/>
     <use transform="translate(479.150391 0.78125)" xlink:href="#DejaVuSans-32"/>
     <use transform="translate(510.9375 0.78125)" xlink:href="#DejaVuSans-1495"/>
     <use transform="translate(576.269531 0.78125)" xlink:href="#DejaVuSans-1514"/>
     <use transform="translate(641.992188 0.78125)" xlink:href="#DejaVuSans-1508"/>
     <use transform="translate(704.443359 0.78125)" xlink:href="#DejaVuSans-32"/>
     <use transform="translate(736.230469 0.78125)" xlink:href="#DejaVuSans-1512"/>
     <use transform="translate(792.675781 0.78125)" xlink:href="#DejaVuSans-1493"/>
     <use transform="translate(819.921875 0.78125)" xlink:href="#DejaVuSans-1494"/>
     <use transform="translate(854.541016 0.78125)" xlink:href="#DejaVuSans-1488"/>
     <use transform="translate(921.386719 0.78125)" xlink:href="#DejaVuSans-32"/>
     <use transform="translate(953.173828 0.78125)" xlink:href="#DejaVuSans-Oblique-82"/>
     <use transform="translate(1022.65625 -15.625)scale(0.7)" xlink:href="#DejaVuSans-Oblique-116"/>
    </g>
   </g>
  </g>
 </g>
 <defs>
  <clipPath id="pe4dbf61546">
   <rect height="271.8" width="558" x="90" y="43.2"/>
  </clipPath>
 </defs>
</svg>
