<?xml version="1.0" encoding="utf-8" standalone="no"?>
<!DOCTYPE svg PUBLIC "-//W3C//DTD SVG 1.1//EN"
  "http://www.w3.org/Graphics/SVG/1.1/DTD/svg11.dtd">
<!-- Created with matplotlib (https://matplotlib.org/) -->
<svg height="360pt" version="1.1" viewBox="0 0 720 360" width="720pt" xmlns="http://www.w3.org/2000/svg" xmlns:xlink="http://www.w3.org/1999/xlink">
 <metadata>
  <rdf:RDF xmlns:cc="http://creativecommons.org/ns#" xmlns:dc="http://purl.org/dc/elements/1.1/" xmlns:rdf="http://www.w3.org/1999/02/22-rdf-syntax-ns#">
   <cc:Work>
    <dc:type rdf:resource="http://purl.org/dc/dcmitype/StillImage"/>
    <dc:date>2021-01-25T10:46:38.634977</dc:date>
    <dc:format>image/svg+xml</dc:format>
    <dc:creator>
     <cc:Agent>
      <dc:title>Matplotlib v3.3.2, https://matplotlib.org/</dc:title>
     </cc:Agent>
    </dc:creator>
   </cc:Work>
  </rdf:RDF>
 </metadata>
 <defs>
  <style type="text/css">*{stroke-linecap:butt;stroke-linejoin:round;}</style>
 </defs>
 <g id="figure_1">
  <g id="patch_1">
   <path d="M 0 360 
L 720 360 
L 720 0 
L 0 0 
z
" style="fill:#ffffff;"/>
  </g>
  <g id="axes_1">
   <g id="patch_2">
    <path d="M 90 315 
L 648 315 
L 648 43.2 
L 90 43.2 
z
" style="fill:#ffffff;"/>
   </g>
   <g id="PolyCollection_1">
    <defs>
     <path d="M 90 -57.354545 
L 90 -99.479104 
L 91.86 -102.344367 
L 93.72 -102.888887 
L 95.58 -101.132303 
L 97.44 -103.281233 
L 99.3 -102.191387 
L 101.16 -104.897452 
L 103.02 -103.26594 
L 104.88 -105.590145 
L 106.74 -104.931166 
L 108.6 -108.796124 
L 110.46 -106.982843 
L 112.32 -108.171577 
L 114.18 -109.830136 
L 116.04 -112.418775 
L 117.9 -113.131628 
L 119.76 -114.120884 
L 121.62 -114.800093 
L 123.48 -117.725378 
L 125.34 -117.282246 
L 127.2 -114.484419 
L 129.06 -117.778424 
L 130.92 -119.065592 
L 132.78 -117.420021 
L 134.64 -117.789912 
L 136.5 -116.857539 
L 138.36 -117.226058 
L 140.22 -118.083131 
L 142.08 -118.211724 
L 143.94 -118.450405 
L 145.8 -120.155852 
L 147.66 -122.594805 
L 149.52 -122.954131 
L 151.38 -125.898094 
L 153.24 -126.780427 
L 155.1 -129.071538 
L 156.96 -130.590132 
L 158.82 -131.000424 
L 160.68 -137.736661 
L 162.54 -135.780505 
L 164.4 -140.670295 
L 166.26 -143.343404 
L 168.12 -141.975469 
L 169.98 -150.325806 
L 171.84 -154.126831 
L 173.7 -156.679025 
L 175.56 -160.738519 
L 177.42 -161.748049 
L 179.28 -165.334736 
L 181.14 -168.380226 
L 183 -174.256585 
L 184.86 -174.950143 
L 186.72 -180.681531 
L 188.58 -185.03647 
L 190.44 -195.057874 
L 192.3 -197.450618 
L 194.16 -199.49959 
L 196.02 -206.782312 
L 197.88 -211.110863 
L 199.74 -216.511702 
L 201.6 -220.356477 
L 203.46 -225.433909 
L 205.32 -235.403896 
L 207.18 -240.964712 
L 209.04 -247.780074 
L 210.9 -251.339801 
L 212.76 -254.961144 
L 214.62 -261.870193 
L 216.48 -263.606414 
L 218.34 -269.304014 
L 220.2 -271.393949 
L 222.06 -283.575017 
L 223.92 -286.12513 
L 225.78 -286.289825 
L 227.64 -291.46658 
L 229.5 -292.865861 
L 231.36 -303.057558 
L 233.22 -304.445455 
L 235.08 -300.560774 
L 236.94 -297.680537 
L 238.8 -301.166562 
L 240.66 -298.422231 
L 242.52 -297.535243 
L 244.38 -299.447251 
L 246.24 -290.533206 
L 248.1 -286.429806 
L 249.96 -280.576694 
L 251.82 -278.914555 
L 253.68 -264.713305 
L 255.54 -260.284069 
L 257.4 -252.194235 
L 259.26 -242.782403 
L 261.12 -231.485986 
L 262.98 -228.786881 
L 264.84 -217.957479 
L 266.7 -212.464641 
L 268.56 -203.712086 
L 270.42 -200.505792 
L 272.28 -198.022913 
L 274.14 -196.332903 
L 276 -195.237262 
L 277.86 -189.180128 
L 279.72 -188.343524 
L 281.58 -183.948468 
L 283.44 -179.884943 
L 285.3 -176.075609 
L 287.16 -171.961746 
L 289.02 -170.782615 
L 290.88 -170.968892 
L 292.74 -171.242847 
L 294.6 -164.84087 
L 296.46 -165.80892 
L 298.32 -169.783685 
L 300.18 -167.142982 
L 302.04 -165.44931 
L 303.9 -163.020042 
L 305.76 -164.091586 
L 307.62 -167.698659 
L 309.48 -166.050399 
L 311.34 -166.913997 
L 313.2 -167.659253 
L 315.06 -173.266548 
L 316.92 -172.461759 
L 318.78 -170.066272 
L 320.64 -167.005693 
L 322.5 -167.594402 
L 324.36 -167.43528 
L 326.22 -168.463286 
L 328.08 -167.288514 
L 329.94 -168.853136 
L 331.8 -164.830056 
L 333.66 -164.067945 
L 335.52 -161.196051 
L 337.38 -164.50688 
L 339.24 -162.31201 
L 341.1 -164.042262 
L 342.96 -165.995483 
L 344.82 -168.857617 
L 346.68 -168.425832 
L 348.54 -169.998871 
L 350.4 -172.788395 
L 352.26 -177.291621 
L 354.12 -181.2204 
L 355.98 -183.01372 
L 357.84 -190.965382 
L 359.7 -200.216656 
L 361.56 -201.708673 
L 363.42 -210.381883 
L 365.28 -215.566534 
L 367.14 -224.528837 
L 369 -229.660533 
L 370.86 -233.655804 
L 372.72 -232.640004 
L 374.58 -235.885254 
L 376.44 -234.725731 
L 378.3 -238.326277 
L 380.16 -231.548416 
L 382.02 -227.427493 
L 383.88 -218.560031 
L 385.74 -215.626907 
L 387.6 -209.404804 
L 389.46 -199.465489 
L 391.32 -196.132591 
L 393.18 -192.519471 
L 395.04 -187.061521 
L 396.9 -181.102224 
L 398.76 -175.650523 
L 400.62 -172.264442 
L 402.48 -167.277709 
L 404.34 -162.185371 
L 406.2 -159.486347 
L 408.06 -153.000304 
L 409.92 -151.517271 
L 411.78 -148.495243 
L 413.64 -147.504688 
L 415.5 -141.396596 
L 417.36 -140.483443 
L 419.22 -137.894378 
L 421.08 -133.133308 
L 422.94 -131.260454 
L 424.8 -124.657581 
L 426.66 -122.012462 
L 428.52 -120.184391 
L 430.38 -115.995244 
L 432.24 -116.667305 
L 434.1 -112.768287 
L 435.96 -110.598029 
L 437.82 -107.025866 
L 439.68 -106.508392 
L 441.54 -106.840402 
L 443.4 -105.490778 
L 445.26 -105.187226 
L 447.12 -104.731181 
L 448.98 -105.615518 
L 450.84 -105.081457 
L 452.7 -105.40868 
L 454.56 -104.939497 
L 456.42 -105.183122 
L 458.28 -104.562748 
L 460.14 -105.707378 
L 462 -107.384751 
L 463.86 -107.90223 
L 465.72 -108.555408 
L 467.58 -111.059677 
L 469.44 -110.287153 
L 471.3 -116.725784 
L 473.16 -117.048972 
L 475.02 -119.934898 
L 476.88 -124.131408 
L 478.74 -125.245641 
L 480.6 -131.083451 
L 482.46 -130.39301 
L 484.32 -136.212803 
L 486.18 -139.869657 
L 488.04 -142.29425 
L 489.9 -146.714559 
L 491.76 -152.500381 
L 493.62 -155.864595 
L 495.48 -160.935212 
L 497.34 -162.540257 
L 499.2 -165.736225 
L 501.06 -169.157156 
L 502.92 -171.350805 
L 504.78 -178.504002 
L 506.64 -176.413928 
L 508.5 -183.491185 
L 510.36 -189.25425 
L 512.22 -189.030776 
L 514.08 -189.03124 
L 515.94 -192.646126 
L 517.8 -192.520544 
L 519.66 -194.802374 
L 521.52 -195.420192 
L 523.38 -196.119856 
L 525.24 -195.344288 
L 527.1 -198.095138 
L 528.96 -196.857961 
L 530.82 -192.846126 
L 532.68 -195.176102 
L 534.54 -194.780475 
L 536.4 -192.813076 
L 538.26 -195.878643 
L 540.12 -201.246481 
L 541.98 -202.69152 
L 543.84 -204.101752 
L 545.7 -205.161231 
L 547.56 -205.706246 
L 549.42 -210.479075 
L 551.28 -210.023548 
L 553.14 -215.006082 
L 555 -214.467182 
L 556.86 -213.775118 
L 558.72 -217.664046 
L 560.58 -220.568314 
L 562.44 -224.849396 
L 564.3 -218.253733 
L 566.16 -221.109169 
L 568.02 -217.001984 
L 569.88 -214.237275 
L 571.74 -217.904571 
L 573.6 -212.907002 
L 575.46 -211.541897 
L 577.32 -209.277508 
L 579.18 -205.766448 
L 581.04 -202.531352 
L 582.9 -204.521503 
L 584.76 -200.293804 
L 586.62 -199.000294 
L 588.48 -199.074002 
L 590.34 -197.463773 
L 592.2 -194.494987 
L 594.06 -192.791892 
L 595.92 -194.696295 
L 597.78 -189.190389 
L 599.64 -186.020631 
L 601.5 -185.295408 
L 603.36 -180.980338 
L 605.22 -179.287836 
L 607.08 -177.561778 
L 608.94 -171.088631 
L 610.8 -167.200753 
L 612.66 -162.766185 
L 614.52 -158.744011 
L 616.38 -155.514142 
L 618.24 -152.419423 
L 620.1 -148.84346 
L 621.96 -145.473998 
L 623.82 -142.871353 
L 625.68 -141.631425 
L 627.54 -141.706511 
L 629.4 -141.419819 
L 631.26 -138.939019 
L 633.12 -141.079039 
L 634.98 -137.907773 
L 636.84 -137.220407 
L 638.7 -138.386214 
L 640.56 -140.85141 
L 642.42 -142.814725 
L 644.28 -144.441092 
L 646.14 -143.755033 
L 648 -143.411616 
L 649.86 -142.457087 
L 651.72 -141.707752 
L 653.58 -139.588496 
L 655.44 -146.240353 
L 657.3 -148.514872 
L 659.16 -147.306953 
L 661.02 -151.617878 
L 662.88 -151.756086 
L 662.88 -78.070097 
L 662.88 -78.070097 
L 661.02 -78.552294 
L 659.16 -76.372883 
L 657.3 -79.772925 
L 655.44 -80.352644 
L 653.58 -77.33312 
L 651.72 -80.811376 
L 649.86 -84.062185 
L 648 -86.903361 
L 646.14 -88.291591 
L 644.28 -90.881258 
L 642.42 -91.646555 
L 640.56 -91.887162 
L 638.7 -92.307108 
L 636.84 -93.731374 
L 634.98 -94.645888 
L 633.12 -100.593786 
L 631.26 -99.445626 
L 629.4 -102.952649 
L 627.54 -104.010065 
L 625.68 -105.280561 
L 623.82 -107.611221 
L 621.96 -111.620511 
L 620.1 -114.688752 
L 618.24 -117.32554 
L 616.38 -121.104678 
L 614.52 -123.520352 
L 612.66 -127.377985 
L 610.8 -132.06122 
L 608.94 -134.398115 
L 607.08 -139.378318 
L 605.22 -141.452627 
L 603.36 -140.195651 
L 601.5 -145.731181 
L 599.64 -144.803811 
L 597.78 -148.1652 
L 595.92 -151.78611 
L 594.06 -150.727775 
L 592.2 -152.543781 
L 590.34 -153.68065 
L 588.48 -155.794236 
L 586.62 -157.406837 
L 584.76 -156.07698 
L 582.9 -159.476567 
L 581.04 -160.944813 
L 579.18 -162.497365 
L 577.32 -164.2571 
L 575.46 -167.405614 
L 573.6 -166.544632 
L 571.74 -168.918641 
L 569.88 -161.640188 
L 568.02 -166.520015 
L 566.16 -168.640961 
L 564.3 -166.263453 
L 562.44 -172.276753 
L 560.58 -170.109372 
L 558.72 -169.119566 
L 556.86 -165.950641 
L 555 -167.462966 
L 553.14 -165.654978 
L 551.28 -163.869985 
L 549.42 -162.053686 
L 547.56 -159.440749 
L 545.7 -157.440064 
L 543.84 -157.93833 
L 541.98 -157.01864 
L 540.12 -154.910336 
L 538.26 -150.964425 
L 536.4 -148.258633 
L 534.54 -149.073542 
L 532.68 -149.568876 
L 530.82 -148.825601 
L 528.96 -152.634218 
L 527.1 -153.113482 
L 525.24 -149.169341 
L 523.38 -147.394185 
L 521.52 -147.433045 
L 519.66 -147.528687 
L 517.8 -145.723049 
L 515.94 -145.771444 
L 514.08 -145.039968 
L 512.22 -144.618313 
L 510.36 -146.230402 
L 508.5 -140.244201 
L 506.64 -132.893969 
L 504.78 -135.978592 
L 502.92 -131.138034 
L 501.06 -131.423072 
L 499.2 -128.926601 
L 497.34 -124.048176 
L 495.48 -123.39473 
L 493.62 -119.653297 
L 491.76 -115.530453 
L 489.9 -112.626563 
L 488.04 -107.932192 
L 486.18 -106.386395 
L 484.32 -104.390188 
L 482.46 -99.642068 
L 480.6 -100.588384 
L 478.74 -95.136128 
L 476.88 -95.314281 
L 475.02 -91.1058 
L 473.16 -90.546219 
L 471.3 -91.271918 
L 469.44 -84.67251 
L 467.58 -86.742192 
L 465.72 -85.169028 
L 463.86 -84.098602 
L 462 -84.015613 
L 460.14 -82.485954 
L 458.28 -82.182175 
L 456.42 -82.166876 
L 454.56 -81.442675 
L 452.7 -80.857359 
L 450.84 -80.924496 
L 448.98 -80.923183 
L 447.12 -81.321424 
L 445.26 -80.844907 
L 443.4 -82.177445 
L 441.54 -83.485608 
L 439.68 -82.263084 
L 437.82 -83.494235 
L 435.96 -86.057297 
L 434.1 -87.658749 
L 432.24 -91.472036 
L 430.38 -90.647502 
L 428.52 -94.532098 
L 426.66 -95.281957 
L 424.8 -97.410769 
L 422.94 -102.456496 
L 421.08 -104.514561 
L 419.22 -107.437037 
L 417.36 -109.19079 
L 415.5 -109.221536 
L 413.64 -114.478417 
L 411.78 -115.115298 
L 409.92 -117.327662 
L 408.06 -118.54222 
L 406.2 -124.018843 
L 404.34 -127.694142 
L 402.48 -130.661702 
L 400.62 -134.830139 
L 398.76 -138.254012 
L 396.9 -141.646951 
L 395.04 -146.730476 
L 393.18 -152.425549 
L 391.32 -153.430789 
L 389.46 -157.067326 
L 387.6 -165.60379 
L 385.74 -167.614678 
L 383.88 -167.780111 
L 382.02 -177.050507 
L 380.16 -179.51898 
L 378.3 -182.644779 
L 376.44 -181.070418 
L 374.58 -181.792692 
L 372.72 -180.483917 
L 370.86 -181.034199 
L 369 -176.495814 
L 367.14 -175.822217 
L 365.28 -168.647006 
L 363.42 -163.001028 
L 361.56 -155.348314 
L 359.7 -156.567276 
L 357.84 -148.24182 
L 355.98 -142.55611 
L 354.12 -140.629796 
L 352.26 -137.824584 
L 350.4 -133.57811 
L 348.54 -131.782442 
L 346.68 -130.224488 
L 344.82 -129.939332 
L 342.96 -128.097067 
L 341.1 -126.02983 
L 339.24 -124.044944 
L 337.38 -123.822621 
L 335.52 -120.551619 
L 333.66 -125.470185 
L 331.8 -127.167061 
L 329.94 -130.256887 
L 328.08 -128.483606 
L 326.22 -129.426188 
L 324.36 -129.0658 
L 322.5 -129.290936 
L 320.64 -127.735743 
L 318.78 -130.527113 
L 316.92 -132.962771 
L 315.06 -133.213791 
L 313.2 -129.473048 
L 311.34 -128.911915 
L 309.48 -129.518114 
L 307.62 -130.860418 
L 305.76 -128.244064 
L 303.9 -125.233998 
L 302.04 -126.980465 
L 300.18 -127.70188 
L 298.32 -130.488316 
L 296.46 -126.923702 
L 294.6 -125.272338 
L 292.74 -133.316911 
L 290.88 -131.426475 
L 289.02 -131.676129 
L 287.16 -132.015706 
L 285.3 -134.762835 
L 283.44 -138.658384 
L 281.58 -142.126048 
L 279.72 -145.046639 
L 277.86 -144.27145 
L 276 -150.826795 
L 274.14 -151.548254 
L 272.28 -152.988235 
L 270.42 -154.815698 
L 268.56 -159.315427 
L 266.7 -163.540262 
L 264.84 -168.040141 
L 262.98 -175.801275 
L 261.12 -173.257875 
L 259.26 -184.862271 
L 257.4 -190.25581 
L 255.54 -193.125576 
L 253.68 -197.589454 
L 251.82 -208.128312 
L 249.96 -207.626949 
L 248.1 -214.027375 
L 246.24 -214.993007 
L 244.38 -224.112181 
L 242.52 -216.528192 
L 240.66 -216.819672 
L 238.8 -220.124776 
L 236.94 -212.601966 
L 235.08 -216.044794 
L 233.22 -218.559676 
L 231.36 -217.170991 
L 229.5 -207.187455 
L 227.64 -205.066602 
L 225.78 -204.719116 
L 223.92 -205.901733 
L 222.06 -201.756186 
L 220.2 -187.760143 
L 218.34 -190.015056 
L 216.48 -184.122872 
L 214.62 -183.67706 
L 212.76 -178.908019 
L 210.9 -177.049653 
L 209.04 -174.980679 
L 207.18 -167.299412 
L 205.32 -164.743148 
L 203.46 -156.724019 
L 201.6 -155.174309 
L 199.74 -153.42115 
L 197.88 -149.032826 
L 196.02 -147.201414 
L 194.16 -141.123091 
L 192.3 -137.886974 
L 190.44 -137.503788 
L 188.58 -127.574402 
L 186.72 -124.780598 
L 184.86 -122.391461 
L 183 -121.450821 
L 181.14 -114.126742 
L 179.28 -113.021502 
L 177.42 -113.810023 
L 175.56 -113.134346 
L 173.7 -109.797872 
L 171.84 -107.747443 
L 169.98 -105.36924 
L 168.12 -96.431408 
L 166.26 -99.47693 
L 164.4 -98.521046 
L 162.54 -94.834654 
L 160.68 -97.180426 
L 158.82 -93.280824 
L 156.96 -93.398123 
L 155.1 -91.410693 
L 153.24 -88.360841 
L 151.38 -87.558192 
L 149.52 -84.456158 
L 147.66 -85.002525 
L 145.8 -81.760372 
L 143.94 -81.874184 
L 142.08 -81.146553 
L 140.22 -83.249046 
L 138.36 -80.709545 
L 136.5 -80.804607 
L 134.64 -83.474068 
L 132.78 -82.456425 
L 130.92 -83.76706 
L 129.06 -82.91058 
L 127.2 -80.121701 
L 125.34 -82.526685 
L 123.48 -81.588127 
L 121.62 -80.127356 
L 119.76 -80.068957 
L 117.9 -78.84715 
L 116.04 -77.41463 
L 114.18 -75.12826 
L 112.32 -73.474783 
L 110.46 -71.222628 
L 108.6 -72.232675 
L 106.74 -68.924592 
L 104.88 -70.947175 
L 103.02 -68.771467 
L 101.16 -69.181986 
L 99.3 -65.921755 
L 97.44 -64.698999 
L 95.58 -62.238824 
L 93.72 -62.983107 
L 91.86 -61.886924 
L 90 -57.354545 
z
" id="m2b3ad0509f" style="stroke:#fdcbb6;stroke-opacity:0.8;"/>
    </defs>
    <g clip-path="url(#p05eb6d6d0e)">
     <use style="fill:#fdcbb6;fill-opacity:0.8;stroke:#fdcbb6;stroke-opacity:0.8;" x="0" xlink:href="#m2b3ad0509f" y="360"/>
    </g>
   </g>
   <g id="matplotlib.axis_1">
    <g id="xtick_1">
     <g id="line2d_1">
      <defs>
       <path d="M 0 0 
L 0 3.5 
" id="mab89e79a19" style="stroke:#000000;stroke-width:0.8;"/>
      </defs>
      <g>
       <use style="stroke:#000000;stroke-width:0.8;" x="90" xlink:href="#mab89e79a19" y="315"/>
      </g>
     </g>
    </g>
    <g id="xtick_2">
     <g id="line2d_2">
      <g>
       <use style="stroke:#000000;stroke-width:0.8;" x="110.46" xlink:href="#mab89e79a19" y="315"/>
      </g>
     </g>
     <g id="text_1">
      <!-- Apr -->
      <g transform="translate(101.81 329.598437)scale(0.1 -0.1)">
       <defs>
        <path d="M 34.1875 63.1875 
L 20.796875 26.90625 
L 47.609375 26.90625 
z
M 28.609375 72.90625 
L 39.796875 72.90625 
L 67.578125 0 
L 57.328125 0 
L 50.6875 18.703125 
L 17.828125 18.703125 
L 11.1875 0 
L 0.78125 0 
z
" id="DejaVuSans-65"/>
        <path d="M 18.109375 8.203125 
L 18.109375 -20.796875 
L 9.078125 -20.796875 
L 9.078125 54.6875 
L 18.109375 54.6875 
L 18.109375 46.390625 
Q 20.953125 51.265625 25.265625 53.625 
Q 29.59375 56 35.59375 56 
Q 45.5625 56 51.78125 48.09375 
Q 58.015625 40.1875 58.015625 27.296875 
Q 58.015625 14.40625 51.78125 6.484375 
Q 45.5625 -1.421875 35.59375 -1.421875 
Q 29.59375 -1.421875 25.265625 0.953125 
Q 20.953125 3.328125 18.109375 8.203125 
z
M 48.6875 27.296875 
Q 48.6875 37.203125 44.609375 42.84375 
Q 40.53125 48.484375 33.40625 48.484375 
Q 26.265625 48.484375 22.1875 42.84375 
Q 18.109375 37.203125 18.109375 27.296875 
Q 18.109375 17.390625 22.1875 11.75 
Q 26.265625 6.109375 33.40625 6.109375 
Q 40.53125 6.109375 44.609375 11.75 
Q 48.6875 17.390625 48.6875 27.296875 
z
" id="DejaVuSans-112"/>
        <path d="M 41.109375 46.296875 
Q 39.59375 47.171875 37.8125 47.578125 
Q 36.03125 48 33.890625 48 
Q 26.265625 48 22.1875 43.046875 
Q 18.109375 38.09375 18.109375 28.8125 
L 18.109375 0 
L 9.078125 0 
L 9.078125 54.6875 
L 18.109375 54.6875 
L 18.109375 46.1875 
Q 20.953125 51.171875 25.484375 53.578125 
Q 30.03125 56 36.53125 56 
Q 37.453125 56 38.578125 55.875 
Q 39.703125 55.765625 41.0625 55.515625 
z
" id="DejaVuSans-114"/>
       </defs>
       <use xlink:href="#DejaVuSans-65"/>
       <use x="68.408203" xlink:href="#DejaVuSans-112"/>
       <use x="131.884766" xlink:href="#DejaVuSans-114"/>
      </g>
     </g>
    </g>
    <g id="xtick_3">
     <g id="line2d_3">
      <g>
       <use style="stroke:#000000;stroke-width:0.8;" x="166.26" xlink:href="#mab89e79a19" y="315"/>
      </g>
     </g>
     <g id="text_2">
      <!-- May -->
      <g transform="translate(155.9225 329.598437)scale(0.1 -0.1)">
       <defs>
        <path d="M 9.8125 72.90625 
L 24.515625 72.90625 
L 43.109375 23.296875 
L 61.8125 72.90625 
L 76.515625 72.90625 
L 76.515625 0 
L 66.890625 0 
L 66.890625 64.015625 
L 48.09375 14.015625 
L 38.1875 14.015625 
L 19.390625 64.015625 
L 19.390625 0 
L 9.8125 0 
z
" id="DejaVuSans-77"/>
        <path d="M 34.28125 27.484375 
Q 23.390625 27.484375 19.1875 25 
Q 14.984375 22.515625 14.984375 16.5 
Q 14.984375 11.71875 18.140625 8.90625 
Q 21.296875 6.109375 26.703125 6.109375 
Q 34.1875 6.109375 38.703125 11.40625 
Q 43.21875 16.703125 43.21875 25.484375 
L 43.21875 27.484375 
z
M 52.203125 31.203125 
L 52.203125 0 
L 43.21875 0 
L 43.21875 8.296875 
Q 40.140625 3.328125 35.546875 0.953125 
Q 30.953125 -1.421875 24.3125 -1.421875 
Q 15.921875 -1.421875 10.953125 3.296875 
Q 6 8.015625 6 15.921875 
Q 6 25.140625 12.171875 29.828125 
Q 18.359375 34.515625 30.609375 34.515625 
L 43.21875 34.515625 
L 43.21875 35.40625 
Q 43.21875 41.609375 39.140625 45 
Q 35.0625 48.390625 27.6875 48.390625 
Q 23 48.390625 18.546875 47.265625 
Q 14.109375 46.140625 10.015625 43.890625 
L 10.015625 52.203125 
Q 14.9375 54.109375 19.578125 55.046875 
Q 24.21875 56 28.609375 56 
Q 40.484375 56 46.34375 49.84375 
Q 52.203125 43.703125 52.203125 31.203125 
z
" id="DejaVuSans-97"/>
        <path d="M 32.171875 -5.078125 
Q 28.375 -14.84375 24.75 -17.8125 
Q 21.140625 -20.796875 15.09375 -20.796875 
L 7.90625 -20.796875 
L 7.90625 -13.28125 
L 13.1875 -13.28125 
Q 16.890625 -13.28125 18.9375 -11.515625 
Q 21 -9.765625 23.484375 -3.21875 
L 25.09375 0.875 
L 2.984375 54.6875 
L 12.5 54.6875 
L 29.59375 11.921875 
L 46.6875 54.6875 
L 56.203125 54.6875 
z
" id="DejaVuSans-121"/>
       </defs>
       <use xlink:href="#DejaVuSans-77"/>
       <use x="86.279297" xlink:href="#DejaVuSans-97"/>
       <use x="147.558594" xlink:href="#DejaVuSans-121"/>
      </g>
     </g>
    </g>
    <g id="xtick_4">
     <g id="line2d_4">
      <g>
       <use style="stroke:#000000;stroke-width:0.8;" x="223.92" xlink:href="#mab89e79a19" y="315"/>
      </g>
     </g>
     <g id="text_3">
      <!-- Jun -->
      <g transform="translate(216.1075 329.598437)scale(0.1 -0.1)">
       <defs>
        <path d="M 9.8125 72.90625 
L 19.671875 72.90625 
L 19.671875 5.078125 
Q 19.671875 -8.109375 14.671875 -14.0625 
Q 9.671875 -20.015625 -1.421875 -20.015625 
L -5.171875 -20.015625 
L -5.171875 -11.71875 
L -2.09375 -11.71875 
Q 4.4375 -11.71875 7.125 -8.046875 
Q 9.8125 -4.390625 9.8125 5.078125 
z
" id="DejaVuSans-74"/>
        <path d="M 8.5 21.578125 
L 8.5 54.6875 
L 17.484375 54.6875 
L 17.484375 21.921875 
Q 17.484375 14.15625 20.5 10.265625 
Q 23.53125 6.390625 29.59375 6.390625 
Q 36.859375 6.390625 41.078125 11.03125 
Q 45.3125 15.671875 45.3125 23.6875 
L 45.3125 54.6875 
L 54.296875 54.6875 
L 54.296875 0 
L 45.3125 0 
L 45.3125 8.40625 
Q 42.046875 3.421875 37.71875 1 
Q 33.40625 -1.421875 27.6875 -1.421875 
Q 18.265625 -1.421875 13.375 4.4375 
Q 8.5 10.296875 8.5 21.578125 
z
M 31.109375 56 
z
" id="DejaVuSans-117"/>
        <path d="M 54.890625 33.015625 
L 54.890625 0 
L 45.90625 0 
L 45.90625 32.71875 
Q 45.90625 40.484375 42.875 44.328125 
Q 39.84375 48.1875 33.796875 48.1875 
Q 26.515625 48.1875 22.3125 43.546875 
Q 18.109375 38.921875 18.109375 30.90625 
L 18.109375 0 
L 9.078125 0 
L 9.078125 54.6875 
L 18.109375 54.6875 
L 18.109375 46.1875 
Q 21.34375 51.125 25.703125 53.5625 
Q 30.078125 56 35.796875 56 
Q 45.21875 56 50.046875 50.171875 
Q 54.890625 44.34375 54.890625 33.015625 
z
" id="DejaVuSans-110"/>
       </defs>
       <use xlink:href="#DejaVuSans-74"/>
       <use x="29.492188" xlink:href="#DejaVuSans-117"/>
       <use x="92.871094" xlink:href="#DejaVuSans-110"/>
      </g>
     </g>
    </g>
    <g id="xtick_5">
     <g id="line2d_5">
      <g>
       <use style="stroke:#000000;stroke-width:0.8;" x="279.72" xlink:href="#mab89e79a19" y="315"/>
      </g>
     </g>
     <g id="text_4">
      <!-- Jul -->
      <g transform="translate(273.687188 329.598437)scale(0.1 -0.1)">
       <defs>
        <path d="M 9.421875 75.984375 
L 18.40625 75.984375 
L 18.40625 0 
L 9.421875 0 
z
" id="DejaVuSans-108"/>
       </defs>
       <use xlink:href="#DejaVuSans-74"/>
       <use x="29.492188" xlink:href="#DejaVuSans-117"/>
       <use x="92.871094" xlink:href="#DejaVuSans-108"/>
      </g>
     </g>
    </g>
    <g id="xtick_6">
     <g id="line2d_6">
      <g>
       <use style="stroke:#000000;stroke-width:0.8;" x="337.38" xlink:href="#mab89e79a19" y="315"/>
      </g>
     </g>
     <g id="text_5">
      <!-- Aug -->
      <g transform="translate(327.616719 329.598437)scale(0.1 -0.1)">
       <defs>
        <path d="M 45.40625 27.984375 
Q 45.40625 37.75 41.375 43.109375 
Q 37.359375 48.484375 30.078125 48.484375 
Q 22.859375 48.484375 18.828125 43.109375 
Q 14.796875 37.75 14.796875 27.984375 
Q 14.796875 18.265625 18.828125 12.890625 
Q 22.859375 7.515625 30.078125 7.515625 
Q 37.359375 7.515625 41.375 12.890625 
Q 45.40625 18.265625 45.40625 27.984375 
z
M 54.390625 6.78125 
Q 54.390625 -7.171875 48.1875 -13.984375 
Q 42 -20.796875 29.203125 -20.796875 
Q 24.46875 -20.796875 20.265625 -20.09375 
Q 16.0625 -19.390625 12.109375 -17.921875 
L 12.109375 -9.1875 
Q 16.0625 -11.328125 19.921875 -12.34375 
Q 23.78125 -13.375 27.78125 -13.375 
Q 36.625 -13.375 41.015625 -8.765625 
Q 45.40625 -4.15625 45.40625 5.171875 
L 45.40625 9.625 
Q 42.625 4.78125 38.28125 2.390625 
Q 33.9375 0 27.875 0 
Q 17.828125 0 11.671875 7.65625 
Q 5.515625 15.328125 5.515625 27.984375 
Q 5.515625 40.671875 11.671875 48.328125 
Q 17.828125 56 27.875 56 
Q 33.9375 56 38.28125 53.609375 
Q 42.625 51.21875 45.40625 46.390625 
L 45.40625 54.6875 
L 54.390625 54.6875 
z
" id="DejaVuSans-103"/>
       </defs>
       <use xlink:href="#DejaVuSans-65"/>
       <use x="68.408203" xlink:href="#DejaVuSans-117"/>
       <use x="131.787109" xlink:href="#DejaVuSans-103"/>
      </g>
     </g>
    </g>
    <g id="xtick_7">
     <g id="line2d_7">
      <g>
       <use style="stroke:#000000;stroke-width:0.8;" x="395.04" xlink:href="#mab89e79a19" y="315"/>
      </g>
     </g>
     <g id="text_6">
      <!-- Sep -->
      <g transform="translate(385.615 329.598437)scale(0.1 -0.1)">
       <defs>
        <path d="M 53.515625 70.515625 
L 53.515625 60.890625 
Q 47.90625 63.578125 42.921875 64.890625 
Q 37.9375 66.21875 33.296875 66.21875 
Q 25.25 66.21875 20.875 63.09375 
Q 16.5 59.96875 16.5 54.203125 
Q 16.5 49.359375 19.40625 46.890625 
Q 22.3125 44.4375 30.421875 42.921875 
L 36.375 41.703125 
Q 47.40625 39.59375 52.65625 34.296875 
Q 57.90625 29 57.90625 20.125 
Q 57.90625 9.515625 50.796875 4.046875 
Q 43.703125 -1.421875 29.984375 -1.421875 
Q 24.8125 -1.421875 18.96875 -0.25 
Q 13.140625 0.921875 6.890625 3.21875 
L 6.890625 13.375 
Q 12.890625 10.015625 18.65625 8.296875 
Q 24.421875 6.59375 29.984375 6.59375 
Q 38.421875 6.59375 43.015625 9.90625 
Q 47.609375 13.234375 47.609375 19.390625 
Q 47.609375 24.75 44.3125 27.78125 
Q 41.015625 30.8125 33.5 32.328125 
L 27.484375 33.5 
Q 16.453125 35.6875 11.515625 40.375 
Q 6.59375 45.0625 6.59375 53.421875 
Q 6.59375 63.09375 13.40625 68.65625 
Q 20.21875 74.21875 32.171875 74.21875 
Q 37.3125 74.21875 42.625 73.28125 
Q 47.953125 72.359375 53.515625 70.515625 
z
" id="DejaVuSans-83"/>
        <path d="M 56.203125 29.59375 
L 56.203125 25.203125 
L 14.890625 25.203125 
Q 15.484375 15.921875 20.484375 11.0625 
Q 25.484375 6.203125 34.421875 6.203125 
Q 39.59375 6.203125 44.453125 7.46875 
Q 49.3125 8.734375 54.109375 11.28125 
L 54.109375 2.78125 
Q 49.265625 0.734375 44.1875 -0.34375 
Q 39.109375 -1.421875 33.890625 -1.421875 
Q 20.796875 -1.421875 13.15625 6.1875 
Q 5.515625 13.8125 5.515625 26.8125 
Q 5.515625 40.234375 12.765625 48.109375 
Q 20.015625 56 32.328125 56 
Q 43.359375 56 49.78125 48.890625 
Q 56.203125 41.796875 56.203125 29.59375 
z
M 47.21875 32.234375 
Q 47.125 39.59375 43.09375 43.984375 
Q 39.0625 48.390625 32.421875 48.390625 
Q 24.90625 48.390625 20.390625 44.140625 
Q 15.875 39.890625 15.1875 32.171875 
z
" id="DejaVuSans-101"/>
       </defs>
       <use xlink:href="#DejaVuSans-83"/>
       <use x="63.476562" xlink:href="#DejaVuSans-101"/>
       <use x="125" xlink:href="#DejaVuSans-112"/>
      </g>
     </g>
    </g>
    <g id="xtick_8">
     <g id="line2d_8">
      <g>
       <use style="stroke:#000000;stroke-width:0.8;" x="450.84" xlink:href="#mab89e79a19" y="315"/>
      </g>
     </g>
     <g id="text_7">
      <!-- Oct -->
      <g transform="translate(442.194687 329.598437)scale(0.1 -0.1)">
       <defs>
        <path d="M 39.40625 66.21875 
Q 28.65625 66.21875 22.328125 58.203125 
Q 16.015625 50.203125 16.015625 36.375 
Q 16.015625 22.609375 22.328125 14.59375 
Q 28.65625 6.59375 39.40625 6.59375 
Q 50.140625 6.59375 56.421875 14.59375 
Q 62.703125 22.609375 62.703125 36.375 
Q 62.703125 50.203125 56.421875 58.203125 
Q 50.140625 66.21875 39.40625 66.21875 
z
M 39.40625 74.21875 
Q 54.734375 74.21875 63.90625 63.9375 
Q 73.09375 53.65625 73.09375 36.375 
Q 73.09375 19.140625 63.90625 8.859375 
Q 54.734375 -1.421875 39.40625 -1.421875 
Q 24.03125 -1.421875 14.8125 8.828125 
Q 5.609375 19.09375 5.609375 36.375 
Q 5.609375 53.65625 14.8125 63.9375 
Q 24.03125 74.21875 39.40625 74.21875 
z
" id="DejaVuSans-79"/>
        <path d="M 48.78125 52.59375 
L 48.78125 44.1875 
Q 44.96875 46.296875 41.140625 47.34375 
Q 37.3125 48.390625 33.40625 48.390625 
Q 24.65625 48.390625 19.8125 42.84375 
Q 14.984375 37.3125 14.984375 27.296875 
Q 14.984375 17.28125 19.8125 11.734375 
Q 24.65625 6.203125 33.40625 6.203125 
Q 37.3125 6.203125 41.140625 7.25 
Q 44.96875 8.296875 48.78125 10.40625 
L 48.78125 2.09375 
Q 45.015625 0.34375 40.984375 -0.53125 
Q 36.96875 -1.421875 32.421875 -1.421875 
Q 20.0625 -1.421875 12.78125 6.34375 
Q 5.515625 14.109375 5.515625 27.296875 
Q 5.515625 40.671875 12.859375 48.328125 
Q 20.21875 56 33.015625 56 
Q 37.15625 56 41.109375 55.140625 
Q 45.0625 54.296875 48.78125 52.59375 
z
" id="DejaVuSans-99"/>
        <path d="M 18.3125 70.21875 
L 18.3125 54.6875 
L 36.8125 54.6875 
L 36.8125 47.703125 
L 18.3125 47.703125 
L 18.3125 18.015625 
Q 18.3125 11.328125 20.140625 9.421875 
Q 21.96875 7.515625 27.59375 7.515625 
L 36.8125 7.515625 
L 36.8125 0 
L 27.59375 0 
Q 17.1875 0 13.234375 3.875 
Q 9.28125 7.765625 9.28125 18.015625 
L 9.28125 47.703125 
L 2.6875 47.703125 
L 2.6875 54.6875 
L 9.28125 54.6875 
L 9.28125 70.21875 
z
" id="DejaVuSans-116"/>
       </defs>
       <use xlink:href="#DejaVuSans-79"/>
       <use x="78.710938" xlink:href="#DejaVuSans-99"/>
       <use x="133.691406" xlink:href="#DejaVuSans-116"/>
      </g>
     </g>
    </g>
    <g id="xtick_9">
     <g id="line2d_9">
      <g>
       <use style="stroke:#000000;stroke-width:0.8;" x="508.5" xlink:href="#mab89e79a19" y="315"/>
      </g>
     </g>
     <g id="text_8">
      <!-- Nov -->
      <g transform="translate(498.740625 329.598437)scale(0.1 -0.1)">
       <defs>
        <path d="M 9.8125 72.90625 
L 23.09375 72.90625 
L 55.421875 11.921875 
L 55.421875 72.90625 
L 64.984375 72.90625 
L 64.984375 0 
L 51.703125 0 
L 19.390625 60.984375 
L 19.390625 0 
L 9.8125 0 
z
" id="DejaVuSans-78"/>
        <path d="M 30.609375 48.390625 
Q 23.390625 48.390625 19.1875 42.75 
Q 14.984375 37.109375 14.984375 27.296875 
Q 14.984375 17.484375 19.15625 11.84375 
Q 23.34375 6.203125 30.609375 6.203125 
Q 37.796875 6.203125 41.984375 11.859375 
Q 46.1875 17.53125 46.1875 27.296875 
Q 46.1875 37.015625 41.984375 42.703125 
Q 37.796875 48.390625 30.609375 48.390625 
z
M 30.609375 56 
Q 42.328125 56 49.015625 48.375 
Q 55.71875 40.765625 55.71875 27.296875 
Q 55.71875 13.875 49.015625 6.21875 
Q 42.328125 -1.421875 30.609375 -1.421875 
Q 18.84375 -1.421875 12.171875 6.21875 
Q 5.515625 13.875 5.515625 27.296875 
Q 5.515625 40.765625 12.171875 48.375 
Q 18.84375 56 30.609375 56 
z
" id="DejaVuSans-111"/>
        <path d="M 2.984375 54.6875 
L 12.5 54.6875 
L 29.59375 8.796875 
L 46.6875 54.6875 
L 56.203125 54.6875 
L 35.6875 0 
L 23.484375 0 
z
" id="DejaVuSans-118"/>
       </defs>
       <use xlink:href="#DejaVuSans-78"/>
       <use x="74.804688" xlink:href="#DejaVuSans-111"/>
       <use x="135.986328" xlink:href="#DejaVuSans-118"/>
      </g>
     </g>
    </g>
    <g id="xtick_10">
     <g id="line2d_10">
      <g>
       <use style="stroke:#000000;stroke-width:0.8;" x="564.3" xlink:href="#mab89e79a19" y="315"/>
      </g>
     </g>
     <g id="text_9">
      <!-- Dec -->
      <g transform="translate(554.624219 329.598437)scale(0.1 -0.1)">
       <defs>
        <path d="M 19.671875 64.796875 
L 19.671875 8.109375 
L 31.59375 8.109375 
Q 46.6875 8.109375 53.6875 14.9375 
Q 60.6875 21.78125 60.6875 36.53125 
Q 60.6875 51.171875 53.6875 57.984375 
Q 46.6875 64.796875 31.59375 64.796875 
z
M 9.8125 72.90625 
L 30.078125 72.90625 
Q 51.265625 72.90625 61.171875 64.09375 
Q 71.09375 55.28125 71.09375 36.53125 
Q 71.09375 17.671875 61.125 8.828125 
Q 51.171875 0 30.078125 0 
L 9.8125 0 
z
" id="DejaVuSans-68"/>
       </defs>
       <use xlink:href="#DejaVuSans-68"/>
       <use x="77.001953" xlink:href="#DejaVuSans-101"/>
       <use x="138.525391" xlink:href="#DejaVuSans-99"/>
      </g>
     </g>
    </g>
    <g id="xtick_11">
     <g id="line2d_11">
      <g>
       <use style="stroke:#000000;stroke-width:0.8;" x="621.96" xlink:href="#mab89e79a19" y="315"/>
      </g>
     </g>
     <g id="text_10">
      <!-- Jan -->
      <g transform="translate(614.252187 329.598437)scale(0.1 -0.1)">
       <use xlink:href="#DejaVuSans-74"/>
       <use x="29.492188" xlink:href="#DejaVuSans-97"/>
       <use x="90.771484" xlink:href="#DejaVuSans-110"/>
      </g>
      <!-- 2021 -->
      <g transform="translate(609.235 340.79625)scale(0.1 -0.1)">
       <defs>
        <path d="M 19.1875 8.296875 
L 53.609375 8.296875 
L 53.609375 0 
L 7.328125 0 
L 7.328125 8.296875 
Q 12.9375 14.109375 22.625 23.890625 
Q 32.328125 33.6875 34.8125 36.53125 
Q 39.546875 41.84375 41.421875 45.53125 
Q 43.3125 49.21875 43.3125 52.78125 
Q 43.3125 58.59375 39.234375 62.25 
Q 35.15625 65.921875 28.609375 65.921875 
Q 23.96875 65.921875 18.8125 64.3125 
Q 13.671875 62.703125 7.8125 59.421875 
L 7.8125 69.390625 
Q 13.765625 71.78125 18.9375 73 
Q 24.125 74.21875 28.421875 74.21875 
Q 39.75 74.21875 46.484375 68.546875 
Q 53.21875 62.890625 53.21875 53.421875 
Q 53.21875 48.921875 51.53125 44.890625 
Q 49.859375 40.875 45.40625 35.40625 
Q 44.1875 33.984375 37.640625 27.21875 
Q 31.109375 20.453125 19.1875 8.296875 
z
" id="DejaVuSans-50"/>
        <path d="M 31.78125 66.40625 
Q 24.171875 66.40625 20.328125 58.90625 
Q 16.5 51.421875 16.5 36.375 
Q 16.5 21.390625 20.328125 13.890625 
Q 24.171875 6.390625 31.78125 6.390625 
Q 39.453125 6.390625 43.28125 13.890625 
Q 47.125 21.390625 47.125 36.375 
Q 47.125 51.421875 43.28125 58.90625 
Q 39.453125 66.40625 31.78125 66.40625 
z
M 31.78125 74.21875 
Q 44.046875 74.21875 50.515625 64.515625 
Q 56.984375 54.828125 56.984375 36.375 
Q 56.984375 17.96875 50.515625 8.265625 
Q 44.046875 -1.421875 31.78125 -1.421875 
Q 19.53125 -1.421875 13.0625 8.265625 
Q 6.59375 17.96875 6.59375 36.375 
Q 6.59375 54.828125 13.0625 64.515625 
Q 19.53125 74.21875 31.78125 74.21875 
z
" id="DejaVuSans-48"/>
        <path d="M 12.40625 8.296875 
L 28.515625 8.296875 
L 28.515625 63.921875 
L 10.984375 60.40625 
L 10.984375 69.390625 
L 28.421875 72.90625 
L 38.28125 72.90625 
L 38.28125 8.296875 
L 54.390625 8.296875 
L 54.390625 0 
L 12.40625 0 
z
" id="DejaVuSans-49"/>
       </defs>
       <use xlink:href="#DejaVuSans-50"/>
       <use x="63.623047" xlink:href="#DejaVuSans-48"/>
       <use x="127.246094" xlink:href="#DejaVuSans-50"/>
       <use x="190.869141" xlink:href="#DejaVuSans-49"/>
      </g>
     </g>
    </g>
    <g id="xtick_12">
     <g id="line2d_12">
      <g>
       <use style="stroke:#000000;stroke-width:0.8;" x="648" xlink:href="#mab89e79a19" y="315"/>
      </g>
     </g>
    </g>
    <g id="xtick_13">
     <g id="line2d_13">
      <defs>
       <path d="M 0 0 
L 0 2 
" id="m6bf91e3731" style="stroke:#000000;stroke-width:0.6;"/>
      </defs>
      <g>
       <use style="stroke:#000000;stroke-width:0.6;" x="93.72" xlink:href="#m6bf91e3731" y="315"/>
      </g>
     </g>
    </g>
    <g id="xtick_14">
     <g id="line2d_14">
      <g>
       <use style="stroke:#000000;stroke-width:0.6;" x="106.74" xlink:href="#m6bf91e3731" y="315"/>
      </g>
     </g>
    </g>
    <g id="xtick_15">
     <g id="line2d_15">
      <g>
       <use style="stroke:#000000;stroke-width:0.6;" x="119.76" xlink:href="#m6bf91e3731" y="315"/>
      </g>
     </g>
    </g>
    <g id="xtick_16">
     <g id="line2d_16">
      <g>
       <use style="stroke:#000000;stroke-width:0.6;" x="132.78" xlink:href="#m6bf91e3731" y="315"/>
      </g>
     </g>
    </g>
    <g id="xtick_17">
     <g id="line2d_17">
      <g>
       <use style="stroke:#000000;stroke-width:0.6;" x="145.8" xlink:href="#m6bf91e3731" y="315"/>
      </g>
     </g>
    </g>
    <g id="xtick_18">
     <g id="line2d_18">
      <g>
       <use style="stroke:#000000;stroke-width:0.6;" x="158.82" xlink:href="#m6bf91e3731" y="315"/>
      </g>
     </g>
    </g>
    <g id="xtick_19">
     <g id="line2d_19">
      <g>
       <use style="stroke:#000000;stroke-width:0.6;" x="171.84" xlink:href="#m6bf91e3731" y="315"/>
      </g>
     </g>
    </g>
    <g id="xtick_20">
     <g id="line2d_20">
      <g>
       <use style="stroke:#000000;stroke-width:0.6;" x="184.86" xlink:href="#m6bf91e3731" y="315"/>
      </g>
     </g>
    </g>
    <g id="xtick_21">
     <g id="line2d_21">
      <g>
       <use style="stroke:#000000;stroke-width:0.6;" x="197.88" xlink:href="#m6bf91e3731" y="315"/>
      </g>
     </g>
    </g>
    <g id="xtick_22">
     <g id="line2d_22">
      <g>
       <use style="stroke:#000000;stroke-width:0.6;" x="210.9" xlink:href="#m6bf91e3731" y="315"/>
      </g>
     </g>
    </g>
    <g id="xtick_23">
     <g id="line2d_23">
      <g>
       <use style="stroke:#000000;stroke-width:0.6;" x="236.94" xlink:href="#m6bf91e3731" y="315"/>
      </g>
     </g>
    </g>
    <g id="xtick_24">
     <g id="line2d_24">
      <g>
       <use style="stroke:#000000;stroke-width:0.6;" x="249.96" xlink:href="#m6bf91e3731" y="315"/>
      </g>
     </g>
    </g>
    <g id="xtick_25">
     <g id="line2d_25">
      <g>
       <use style="stroke:#000000;stroke-width:0.6;" x="262.98" xlink:href="#m6bf91e3731" y="315"/>
      </g>
     </g>
    </g>
    <g id="xtick_26">
     <g id="line2d_26">
      <g>
       <use style="stroke:#000000;stroke-width:0.6;" x="276" xlink:href="#m6bf91e3731" y="315"/>
      </g>
     </g>
    </g>
    <g id="xtick_27">
     <g id="line2d_27">
      <g>
       <use style="stroke:#000000;stroke-width:0.6;" x="289.02" xlink:href="#m6bf91e3731" y="315"/>
      </g>
     </g>
    </g>
    <g id="xtick_28">
     <g id="line2d_28">
      <g>
       <use style="stroke:#000000;stroke-width:0.6;" x="302.04" xlink:href="#m6bf91e3731" y="315"/>
      </g>
     </g>
    </g>
    <g id="xtick_29">
     <g id="line2d_29">
      <g>
       <use style="stroke:#000000;stroke-width:0.6;" x="315.06" xlink:href="#m6bf91e3731" y="315"/>
      </g>
     </g>
    </g>
    <g id="xtick_30">
     <g id="line2d_30">
      <g>
       <use style="stroke:#000000;stroke-width:0.6;" x="328.08" xlink:href="#m6bf91e3731" y="315"/>
      </g>
     </g>
    </g>
    <g id="xtick_31">
     <g id="line2d_31">
      <g>
       <use style="stroke:#000000;stroke-width:0.6;" x="341.1" xlink:href="#m6bf91e3731" y="315"/>
      </g>
     </g>
    </g>
    <g id="xtick_32">
     <g id="line2d_32">
      <g>
       <use style="stroke:#000000;stroke-width:0.6;" x="354.12" xlink:href="#m6bf91e3731" y="315"/>
      </g>
     </g>
    </g>
    <g id="xtick_33">
     <g id="line2d_33">
      <g>
       <use style="stroke:#000000;stroke-width:0.6;" x="367.14" xlink:href="#m6bf91e3731" y="315"/>
      </g>
     </g>
    </g>
    <g id="xtick_34">
     <g id="line2d_34">
      <g>
       <use style="stroke:#000000;stroke-width:0.6;" x="380.16" xlink:href="#m6bf91e3731" y="315"/>
      </g>
     </g>
    </g>
    <g id="xtick_35">
     <g id="line2d_35">
      <g>
       <use style="stroke:#000000;stroke-width:0.6;" x="393.18" xlink:href="#m6bf91e3731" y="315"/>
      </g>
     </g>
    </g>
    <g id="xtick_36">
     <g id="line2d_36">
      <g>
       <use style="stroke:#000000;stroke-width:0.6;" x="406.2" xlink:href="#m6bf91e3731" y="315"/>
      </g>
     </g>
    </g>
    <g id="xtick_37">
     <g id="line2d_37">
      <g>
       <use style="stroke:#000000;stroke-width:0.6;" x="419.22" xlink:href="#m6bf91e3731" y="315"/>
      </g>
     </g>
    </g>
    <g id="xtick_38">
     <g id="line2d_38">
      <g>
       <use style="stroke:#000000;stroke-width:0.6;" x="432.24" xlink:href="#m6bf91e3731" y="315"/>
      </g>
     </g>
    </g>
    <g id="xtick_39">
     <g id="line2d_39">
      <g>
       <use style="stroke:#000000;stroke-width:0.6;" x="445.26" xlink:href="#m6bf91e3731" y="315"/>
      </g>
     </g>
    </g>
    <g id="xtick_40">
     <g id="line2d_40">
      <g>
       <use style="stroke:#000000;stroke-width:0.6;" x="458.28" xlink:href="#m6bf91e3731" y="315"/>
      </g>
     </g>
    </g>
    <g id="xtick_41">
     <g id="line2d_41">
      <g>
       <use style="stroke:#000000;stroke-width:0.6;" x="471.3" xlink:href="#m6bf91e3731" y="315"/>
      </g>
     </g>
    </g>
    <g id="xtick_42">
     <g id="line2d_42">
      <g>
       <use style="stroke:#000000;stroke-width:0.6;" x="484.32" xlink:href="#m6bf91e3731" y="315"/>
      </g>
     </g>
    </g>
    <g id="xtick_43">
     <g id="line2d_43">
      <g>
       <use style="stroke:#000000;stroke-width:0.6;" x="497.34" xlink:href="#m6bf91e3731" y="315"/>
      </g>
     </g>
    </g>
    <g id="xtick_44">
     <g id="line2d_44">
      <g>
       <use style="stroke:#000000;stroke-width:0.6;" x="510.36" xlink:href="#m6bf91e3731" y="315"/>
      </g>
     </g>
    </g>
    <g id="xtick_45">
     <g id="line2d_45">
      <g>
       <use style="stroke:#000000;stroke-width:0.6;" x="523.38" xlink:href="#m6bf91e3731" y="315"/>
      </g>
     </g>
    </g>
    <g id="xtick_46">
     <g id="line2d_46">
      <g>
       <use style="stroke:#000000;stroke-width:0.6;" x="536.4" xlink:href="#m6bf91e3731" y="315"/>
      </g>
     </g>
    </g>
    <g id="xtick_47">
     <g id="line2d_47">
      <g>
       <use style="stroke:#000000;stroke-width:0.6;" x="549.42" xlink:href="#m6bf91e3731" y="315"/>
      </g>
     </g>
    </g>
    <g id="xtick_48">
     <g id="line2d_48">
      <g>
       <use style="stroke:#000000;stroke-width:0.6;" x="562.44" xlink:href="#m6bf91e3731" y="315"/>
      </g>
     </g>
    </g>
    <g id="xtick_49">
     <g id="line2d_49">
      <g>
       <use style="stroke:#000000;stroke-width:0.6;" x="575.46" xlink:href="#m6bf91e3731" y="315"/>
      </g>
     </g>
    </g>
    <g id="xtick_50">
     <g id="line2d_50">
      <g>
       <use style="stroke:#000000;stroke-width:0.6;" x="588.48" xlink:href="#m6bf91e3731" y="315"/>
      </g>
     </g>
    </g>
    <g id="xtick_51">
     <g id="line2d_51">
      <g>
       <use style="stroke:#000000;stroke-width:0.6;" x="601.5" xlink:href="#m6bf91e3731" y="315"/>
      </g>
     </g>
    </g>
    <g id="xtick_52">
     <g id="line2d_52">
      <g>
       <use style="stroke:#000000;stroke-width:0.6;" x="614.52" xlink:href="#m6bf91e3731" y="315"/>
      </g>
     </g>
    </g>
    <g id="xtick_53">
     <g id="line2d_53">
      <g>
       <use style="stroke:#000000;stroke-width:0.6;" x="627.54" xlink:href="#m6bf91e3731" y="315"/>
      </g>
     </g>
    </g>
    <g id="xtick_54">
     <g id="line2d_54">
      <g>
       <use style="stroke:#000000;stroke-width:0.6;" x="640.56" xlink:href="#m6bf91e3731" y="315"/>
      </g>
     </g>
    </g>
    <g id="text_11">
     <!-- date -->
     <g transform="translate(357.725 354.474375)scale(0.1 -0.1)">
      <defs>
       <path d="M 45.40625 46.390625 
L 45.40625 75.984375 
L 54.390625 75.984375 
L 54.390625 0 
L 45.40625 0 
L 45.40625 8.203125 
Q 42.578125 3.328125 38.25 0.953125 
Q 33.9375 -1.421875 27.875 -1.421875 
Q 17.96875 -1.421875 11.734375 6.484375 
Q 5.515625 14.40625 5.515625 27.296875 
Q 5.515625 40.1875 11.734375 48.09375 
Q 17.96875 56 27.875 56 
Q 33.9375 56 38.25 53.625 
Q 42.578125 51.265625 45.40625 46.390625 
z
M 14.796875 27.296875 
Q 14.796875 17.390625 18.875 11.75 
Q 22.953125 6.109375 30.078125 6.109375 
Q 37.203125 6.109375 41.296875 11.75 
Q 45.40625 17.390625 45.40625 27.296875 
Q 45.40625 37.203125 41.296875 42.84375 
Q 37.203125 48.484375 30.078125 48.484375 
Q 22.953125 48.484375 18.875 42.84375 
Q 14.796875 37.203125 14.796875 27.296875 
z
" id="DejaVuSans-100"/>
      </defs>
      <use xlink:href="#DejaVuSans-100"/>
      <use x="63.476562" xlink:href="#DejaVuSans-97"/>
      <use x="124.755859" xlink:href="#DejaVuSans-116"/>
      <use x="163.964844" xlink:href="#DejaVuSans-101"/>
     </g>
    </g>
   </g>
   <g id="matplotlib.axis_2">
    <g id="ytick_1">
     <g id="line2d_55">
      <path clip-path="url(#p05eb6d6d0e)" d="M 90 284.336296 
L 648 284.336296 
" style="fill:none;stroke:#b0b0b0;stroke-dasharray:0.8,1.32;stroke-dashoffset:0;stroke-width:0.8;"/>
     </g>
     <g id="line2d_56">
      <defs>
       <path d="M 0 0 
L -3.5 0 
" id="mb51e0fa5e7" style="stroke:#000000;stroke-width:0.8;"/>
      </defs>
      <g>
       <use style="stroke:#000000;stroke-width:0.8;" x="90" xlink:href="#mb51e0fa5e7" y="284.336296"/>
      </g>
     </g>
     <g id="text_12">
      <!-- 0.50 -->
      <g transform="translate(60.734375 288.135515)scale(0.1 -0.1)">
       <defs>
        <path d="M 10.6875 12.40625 
L 21 12.40625 
L 21 0 
L 10.6875 0 
z
" id="DejaVuSans-46"/>
        <path d="M 10.796875 72.90625 
L 49.515625 72.90625 
L 49.515625 64.59375 
L 19.828125 64.59375 
L 19.828125 46.734375 
Q 21.96875 47.46875 24.109375 47.828125 
Q 26.265625 48.1875 28.421875 48.1875 
Q 40.625 48.1875 47.75 41.5 
Q 54.890625 34.8125 54.890625 23.390625 
Q 54.890625 11.625 47.5625 5.09375 
Q 40.234375 -1.421875 26.90625 -1.421875 
Q 22.3125 -1.421875 17.546875 -0.640625 
Q 12.796875 0.140625 7.71875 1.703125 
L 7.71875 11.625 
Q 12.109375 9.234375 16.796875 8.0625 
Q 21.484375 6.890625 26.703125 6.890625 
Q 35.15625 6.890625 40.078125 11.328125 
Q 45.015625 15.765625 45.015625 23.390625 
Q 45.015625 31 40.078125 35.4375 
Q 35.15625 39.890625 26.703125 39.890625 
Q 22.75 39.890625 18.8125 39.015625 
Q 14.890625 38.140625 10.796875 36.28125 
z
" id="DejaVuSans-53"/>
       </defs>
       <use xlink:href="#DejaVuSans-48"/>
       <use x="63.623047" xlink:href="#DejaVuSans-46"/>
       <use x="95.410156" xlink:href="#DejaVuSans-53"/>
       <use x="159.033203" xlink:href="#DejaVuSans-48"/>
      </g>
     </g>
    </g>
    <g id="ytick_2">
     <g id="line2d_57">
      <path clip-path="url(#p05eb6d6d0e)" d="M 90 250.959153 
L 648 250.959153 
" style="fill:none;stroke:#b0b0b0;stroke-dasharray:0.8,1.32;stroke-dashoffset:0;stroke-width:0.8;"/>
     </g>
     <g id="line2d_58">
      <g>
       <use style="stroke:#000000;stroke-width:0.8;" x="90" xlink:href="#mb51e0fa5e7" y="250.959153"/>
      </g>
     </g>
     <g id="text_13">
      <!-- 0.75 -->
      <g transform="translate(60.734375 254.758371)scale(0.1 -0.1)">
       <defs>
        <path d="M 8.203125 72.90625 
L 55.078125 72.90625 
L 55.078125 68.703125 
L 28.609375 0 
L 18.3125 0 
L 43.21875 64.59375 
L 8.203125 64.59375 
z
" id="DejaVuSans-55"/>
       </defs>
       <use xlink:href="#DejaVuSans-48"/>
       <use x="63.623047" xlink:href="#DejaVuSans-46"/>
       <use x="95.410156" xlink:href="#DejaVuSans-55"/>
       <use x="159.033203" xlink:href="#DejaVuSans-53"/>
      </g>
     </g>
    </g>
    <g id="ytick_3">
     <g id="line2d_59">
      <path clip-path="url(#p05eb6d6d0e)" d="M 90 217.582009 
L 648 217.582009 
" style="fill:none;stroke:#b0b0b0;stroke-dasharray:0.8,1.32;stroke-dashoffset:0;stroke-width:0.8;"/>
     </g>
     <g id="line2d_60">
      <g>
       <use style="stroke:#000000;stroke-width:0.8;" x="90" xlink:href="#mb51e0fa5e7" y="217.582009"/>
      </g>
     </g>
     <g id="text_14">
      <!-- 1.00 -->
      <g transform="translate(60.734375 221.381228)scale(0.1 -0.1)">
       <use xlink:href="#DejaVuSans-49"/>
       <use x="63.623047" xlink:href="#DejaVuSans-46"/>
       <use x="95.410156" xlink:href="#DejaVuSans-48"/>
       <use x="159.033203" xlink:href="#DejaVuSans-48"/>
      </g>
     </g>
    </g>
    <g id="ytick_4">
     <g id="line2d_61">
      <path clip-path="url(#p05eb6d6d0e)" d="M 90 184.204865 
L 648 184.204865 
" style="fill:none;stroke:#b0b0b0;stroke-dasharray:0.8,1.32;stroke-dashoffset:0;stroke-width:0.8;"/>
     </g>
     <g id="line2d_62">
      <g>
       <use style="stroke:#000000;stroke-width:0.8;" x="90" xlink:href="#mb51e0fa5e7" y="184.204865"/>
      </g>
     </g>
     <g id="text_15">
      <!-- 1.25 -->
      <g transform="translate(60.734375 188.004084)scale(0.1 -0.1)">
       <use xlink:href="#DejaVuSans-49"/>
       <use x="63.623047" xlink:href="#DejaVuSans-46"/>
       <use x="95.410156" xlink:href="#DejaVuSans-50"/>
       <use x="159.033203" xlink:href="#DejaVuSans-53"/>
      </g>
     </g>
    </g>
    <g id="ytick_5">
     <g id="line2d_63">
      <path clip-path="url(#p05eb6d6d0e)" d="M 90 150.827721 
L 648 150.827721 
" style="fill:none;stroke:#b0b0b0;stroke-dasharray:0.8,1.32;stroke-dashoffset:0;stroke-width:0.8;"/>
     </g>
     <g id="line2d_64">
      <g>
       <use style="stroke:#000000;stroke-width:0.8;" x="90" xlink:href="#mb51e0fa5e7" y="150.827721"/>
      </g>
     </g>
     <g id="text_16">
      <!-- 1.50 -->
      <g transform="translate(60.734375 154.62694)scale(0.1 -0.1)">
       <use xlink:href="#DejaVuSans-49"/>
       <use x="63.623047" xlink:href="#DejaVuSans-46"/>
       <use x="95.410156" xlink:href="#DejaVuSans-53"/>
       <use x="159.033203" xlink:href="#DejaVuSans-48"/>
      </g>
     </g>
    </g>
    <g id="ytick_6">
     <g id="line2d_65">
      <path clip-path="url(#p05eb6d6d0e)" d="M 90 117.450578 
L 648 117.450578 
" style="fill:none;stroke:#b0b0b0;stroke-dasharray:0.8,1.32;stroke-dashoffset:0;stroke-width:0.8;"/>
     </g>
     <g id="line2d_66">
      <g>
       <use style="stroke:#000000;stroke-width:0.8;" x="90" xlink:href="#mb51e0fa5e7" y="117.450578"/>
      </g>
     </g>
     <g id="text_17">
      <!-- 1.75 -->
      <g transform="translate(60.734375 121.249796)scale(0.1 -0.1)">
       <use xlink:href="#DejaVuSans-49"/>
       <use x="63.623047" xlink:href="#DejaVuSans-46"/>
       <use x="95.410156" xlink:href="#DejaVuSans-55"/>
       <use x="159.033203" xlink:href="#DejaVuSans-53"/>
      </g>
     </g>
    </g>
    <g id="ytick_7">
     <g id="line2d_67">
      <path clip-path="url(#p05eb6d6d0e)" d="M 90 84.073434 
L 648 84.073434 
" style="fill:none;stroke:#b0b0b0;stroke-dasharray:0.8,1.32;stroke-dashoffset:0;stroke-width:0.8;"/>
     </g>
     <g id="line2d_68">
      <g>
       <use style="stroke:#000000;stroke-width:0.8;" x="90" xlink:href="#mb51e0fa5e7" y="84.073434"/>
      </g>
     </g>
     <g id="text_18">
      <!-- 2.00 -->
      <g transform="translate(60.734375 87.872653)scale(0.1 -0.1)">
       <use xlink:href="#DejaVuSans-50"/>
       <use x="63.623047" xlink:href="#DejaVuSans-46"/>
       <use x="95.410156" xlink:href="#DejaVuSans-48"/>
       <use x="159.033203" xlink:href="#DejaVuSans-48"/>
      </g>
     </g>
    </g>
    <g id="ytick_8">
     <g id="line2d_69">
      <path clip-path="url(#p05eb6d6d0e)" d="M 90 50.69629 
L 648 50.69629 
" style="fill:none;stroke:#b0b0b0;stroke-dasharray:0.8,1.32;stroke-dashoffset:0;stroke-width:0.8;"/>
     </g>
     <g id="line2d_70">
      <g>
       <use style="stroke:#000000;stroke-width:0.8;" x="90" xlink:href="#mb51e0fa5e7" y="50.69629"/>
      </g>
     </g>
     <g id="text_19">
      <!-- 2.25 -->
      <g transform="translate(60.734375 54.495509)scale(0.1 -0.1)">
       <use xlink:href="#DejaVuSans-50"/>
       <use x="63.623047" xlink:href="#DejaVuSans-46"/>
       <use x="95.410156" xlink:href="#DejaVuSans-50"/>
       <use x="159.033203" xlink:href="#DejaVuSans-53"/>
      </g>
     </g>
    </g>
   </g>
   <g id="line2d_71">
    <path clip-path="url(#p05eb6d6d0e)" d="M 90 276.741678 
L 91.86 277.084988 
L 93.72 276.892756 
L 95.58 276.457038 
L 97.44 275.547394 
L 99.3 274.387615 
L 101.16 273.632138 
L 103.02 272.599544 
L 104.88 272.161057 
L 108.6 269.161794 
L 110.46 268.420877 
L 112.32 267.559863 
L 114.18 266.436707 
L 116.04 265.476738 
L 117.9 263.844637 
L 119.76 263.594189 
L 123.48 261.260891 
L 125.34 260.73297 
L 127.2 260.821334 
L 130.92 260.456276 
L 132.78 259.291564 
L 134.64 259.261314 
L 136.5 259.605011 
L 138.36 258.969545 
L 140.22 258.832776 
L 142.08 257.701184 
L 143.94 257.965672 
L 145.8 257.278583 
L 147.66 255.910438 
L 151.38 253.740433 
L 153.24 251.383405 
L 156.96 248.514132 
L 158.82 246.25136 
L 160.68 245.093529 
L 162.54 243.496086 
L 166.26 238.701571 
L 168.12 236.116245 
L 169.98 232.485066 
L 171.84 230.013735 
L 173.7 228.668159 
L 177.42 222.009209 
L 179.28 218.891025 
L 181.14 215.158739 
L 183 213.429303 
L 184.86 208.862348 
L 188.58 200.531174 
L 190.44 195.165961 
L 192.3 191.38282 
L 194.16 186.099011 
L 197.88 179.037728 
L 199.74 174.73129 
L 201.6 168.90601 
L 203.46 165.171138 
L 205.32 161.096638 
L 207.18 154.726556 
L 209.04 149.827738 
L 210.9 146.43494 
L 212.76 142.543324 
L 214.62 137.973007 
L 216.48 134.140022 
L 218.34 128.26893 
L 220.2 124.447124 
L 222.06 121.022199 
L 223.92 116.116999 
L 225.78 111.744178 
L 227.64 111.055232 
L 229.5 109.003213 
L 231.36 105.292009 
L 233.22 101.989942 
L 235.08 102.956212 
L 236.94 100.339829 
L 238.8 100.987356 
L 240.66 99.226373 
L 242.52 100.563805 
L 244.38 103.945422 
L 246.24 104.705275 
L 248.1 106.535038 
L 249.96 111.981225 
L 251.82 118.324584 
L 253.68 123.738926 
L 255.54 131.448377 
L 257.4 138.387633 
L 259.26 146.615948 
L 261.12 152.942733 
L 262.98 161.573197 
L 264.84 165.780252 
L 266.7 172.127699 
L 268.56 176.166785 
L 270.42 181.430945 
L 272.28 185.031275 
L 276 190.793381 
L 279.72 196.438808 
L 281.58 198.946655 
L 283.44 201.205863 
L 285.3 202.89746 
L 290.88 210.045686 
L 292.74 210.815752 
L 294.6 212.025095 
L 296.46 212.196445 
L 298.32 213.427112 
L 300.18 212.329629 
L 302.04 213.249379 
L 303.9 213.477026 
L 305.76 213.523097 
L 307.62 213.203049 
L 309.48 211.843598 
L 311.34 210.791379 
L 313.2 209.934728 
L 315.06 210.627192 
L 316.92 210.321776 
L 318.78 210.743817 
L 320.64 209.962947 
L 322.5 210.491933 
L 324.36 211.292884 
L 326.22 210.870003 
L 328.08 211.705881 
L 329.94 211.937027 
L 331.8 212.963908 
L 333.66 213.847741 
L 335.52 214.525458 
L 337.38 214.963956 
L 339.24 214.649971 
L 341.1 213.83729 
L 342.96 213.629157 
L 344.82 212.836915 
L 346.68 211.203742 
L 348.54 209.034584 
L 350.4 205.31511 
L 352.26 202.582254 
L 354.12 197.657107 
L 355.98 194.002551 
L 357.84 189.215519 
L 361.56 177.998262 
L 363.42 171.212687 
L 367.14 160.80672 
L 369 156.745743 
L 370.86 153.701266 
L 372.72 152.286595 
L 376.44 151.056654 
L 378.3 151.337847 
L 382.02 156.551812 
L 385.74 165.979308 
L 391.32 184.385895 
L 395.04 195.66167 
L 396.9 198.65754 
L 398.76 202.920265 
L 400.62 207.466021 
L 402.48 210.785331 
L 404.34 214.455984 
L 406.2 218.784721 
L 408.06 221.424779 
L 409.92 224.658939 
L 411.78 227.362894 
L 413.64 230.671497 
L 415.5 232.889865 
L 417.36 235.909634 
L 419.22 239.285113 
L 421.08 241.382781 
L 428.52 253.220698 
L 430.38 255.804725 
L 434.1 258.964332 
L 435.96 261.014828 
L 437.82 263.423768 
L 441.54 265.851826 
L 443.4 266.680208 
L 445.26 266.999985 
L 447.12 267.951418 
L 448.98 267.580493 
L 450.84 267.905863 
L 452.7 267.68009 
L 454.56 266.958606 
L 456.42 266.849919 
L 458.28 266.62287 
L 460.14 265.248408 
L 462 264.313082 
L 463.86 264.037398 
L 465.72 262.436871 
L 467.58 261.13852 
L 469.44 260.010769 
L 473.16 255.931795 
L 475.02 253.240663 
L 476.88 251.750843 
L 478.74 249.292583 
L 480.6 246.022197 
L 484.32 240.648163 
L 486.18 237.541751 
L 488.04 233.938585 
L 489.9 231.298369 
L 491.76 227.10848 
L 493.62 224.327617 
L 495.48 220.230207 
L 497.34 216.610855 
L 499.2 213.446183 
L 501.06 209.146186 
L 502.92 205.30977 
L 504.78 202.392501 
L 506.64 199.8953 
L 508.5 196.856635 
L 510.36 194.622444 
L 512.22 191.552385 
L 517.8 188.914925 
L 519.66 186.994043 
L 521.52 186.489604 
L 523.38 185.86966 
L 525.24 187.265247 
L 527.1 186.617161 
L 528.96 186.548579 
L 530.82 187.681154 
L 532.68 185.967212 
L 534.54 185.722794 
L 536.4 186.10939 
L 538.26 183.532198 
L 540.12 182.226829 
L 541.98 182.083989 
L 543.84 179.467777 
L 545.7 179.237951 
L 547.56 178.130451 
L 549.42 175.057844 
L 551.28 174.222277 
L 553.14 170.933558 
L 555 170.466131 
L 558.72 167.349129 
L 562.44 165.541774 
L 564.3 165.410217 
L 566.16 165.159089 
L 568.02 166.232521 
L 569.88 165.684943 
L 573.6 168.665884 
L 575.46 169.758108 
L 577.32 172.795155 
L 579.18 173.934739 
L 581.04 175.348379 
L 582.9 178.278945 
L 586.62 181.043129 
L 588.48 183.10573 
L 590.34 184.595458 
L 592.2 186.282696 
L 594.06 187.668559 
L 595.92 187.977895 
L 597.78 191.48331 
L 599.64 192.827102 
L 601.5 194.41531 
L 603.36 196.823701 
L 605.22 201.025281 
L 607.08 204.575873 
L 608.94 207.235257 
L 610.8 211.399024 
L 612.66 214.617996 
L 614.52 218.455375 
L 618.24 224.748859 
L 620.1 227.636021 
L 621.96 229.822043 
L 623.82 232.838042 
L 625.68 234.634351 
L 627.54 236.879375 
L 629.4 238.602923 
L 631.26 239.953556 
L 633.12 241.107641 
L 636.84 242.107121 
L 638.7 243.225716 
L 640.56 244.209516 
L 642.42 245.852501 
L 644.28 246.177694 
L 646.14 246.282417 
L 648 246.66862 
L 649.86 246.875955 
L 651.72 246.838217 
L 653.58 246.661302 
L 655.44 246.986395 
L 657.3 246.360726 
L 659.16 246.867203 
L 661.02 246.954261 
L 662.88 245.945555 
L 662.88 245.945555 
" style="fill:none;stroke:#fc997a;stroke-linecap:square;stroke-width:1.5;"/>
   </g>
   <g id="line2d_72">
    <path clip-path="url(#p05eb6d6d0e)" d="M 90 217.582009 
L 648 217.582009 
" style="fill:none;stroke:#000000;stroke-dasharray:3.7,1.6;stroke-dashoffset:0;"/>
   </g>
   <g id="patch_3">
    <path d="M 90 315 
L 90 43.2 
" style="fill:none;stroke:#000000;stroke-linecap:square;stroke-linejoin:miter;stroke-width:0.8;"/>
   </g>
   <g id="patch_4">
    <path d="M 648 315 
L 648 43.2 
" style="fill:none;stroke:#000000;stroke-linecap:square;stroke-linejoin:miter;stroke-width:0.8;"/>
   </g>
   <g id="patch_5">
    <path d="M 90 315 
L 648 315 
" style="fill:none;stroke:#000000;stroke-linecap:square;stroke-linejoin:miter;stroke-width:0.8;"/>
   </g>
   <g id="patch_6">
    <path d="M 90 43.2 
L 648 43.2 
" style="fill:none;stroke:#000000;stroke-linecap:square;stroke-linejoin:miter;stroke-width:0.8;"/>
   </g>
   <g id="text_20">
    <!-- 245   $R_t$ -->
    <g transform="translate(319.74 37.2)scale(0.12 -0.12)">
     <defs>
      <path d="M 37.796875 64.3125 
L 12.890625 25.390625 
L 37.796875 25.390625 
z
M 35.203125 72.90625 
L 47.609375 72.90625 
L 47.609375 25.390625 
L 58.015625 25.390625 
L 58.015625 17.1875 
L 47.609375 17.1875 
L 47.609375 0 
L 37.796875 0 
L 37.796875 17.1875 
L 4.890625 17.1875 
L 4.890625 26.703125 
z
" id="DejaVuSans-52"/>
      <path id="DejaVuSans-32"/>
      <path d="M 19.140625 33.40625 
L 19.140625 0 
L 10.109375 0 
L 10.109375 29.6875 
z
M 56.25 27.828125 
L 56.25 0 
L 47.21875 0 
L 47.21875 29.6875 
Q 47.21875 40.234375 44.0625 43.96875 
Q 40.921875 47.703125 31.84375 47.703125 
L 9.078125 47.703125 
L 9.078125 54.6875 
L 31.734375 54.6875 
Q 45.265625 54.6875 50.75 48.578125 
Q 56.25 42.484375 56.25 27.828125 
z
" id="DejaVuSans-1492"/>
      <path d="M 15.71875 54.6875 
L 15.71875 24.125 
L 6.640625 20.40625 
L 6.640625 54.6875 
z
" id="DejaVuSans-1497"/>
      <path d="M 47.359375 27.828125 
L 47.359375 0 
L 38.28125 0 
L 38.28125 27.828125 
Q 38.28125 31.390625 37.765625 34.265625 
Q 37.25 37.15625 36 39.71875 
Q 34.765625 42.28125 32.8125 43.984375 
Q 30.859375 45.703125 27.78125 46.703125 
Q 24.703125 47.703125 20.703125 47.703125 
L 4.296875 47.703125 
L 4.296875 54.6875 
L 20.65625 54.6875 
Q 26.8125 54.6875 31.46875 53.390625 
Q 36.140625 52.09375 39.109375 49.828125 
Q 42.09375 47.5625 43.96875 44.109375 
Q 45.84375 40.671875 46.59375 36.734375 
Q 47.359375 32.8125 47.359375 27.828125 
z
" id="DejaVuSans-1512"/>
      <path d="M 21.78125 6.984375 
L 21.78125 36.28125 
Q 21.78125 42.28125 19.328125 44.984375 
Q 16.890625 47.703125 11.71875 47.703125 
L 5.5625 47.703125 
L 5.5625 54.6875 
L 11.71875 54.6875 
Q 21.734375 54.6875 26.296875 50.359375 
Q 30.859375 46.046875 30.859375 35.25 
L 30.859375 0 
L 4.296875 0 
L 4.296875 6.984375 
z
" id="DejaVuSans-1504"/>
      <path d="M 18.171875 54.6875 
L 18.171875 0 
L 9.078125 0 
L 9.078125 54.6875 
z
" id="DejaVuSans-1493"/>
      <path d="M 30.328125 54.6875 
L 30.328125 47.703125 
L 26.421875 47.703125 
Q 22.171875 47.703125 20.578125 43.921875 
Q 19 40.140625 19 30.90625 
L 19 0 
L 9.90625 0 
L 9.90625 30.90625 
Q 9.90625 37.109375 11.78125 41.453125 
Q 13.671875 45.796875 16.40625 47.703125 
L 4.296875 47.703125 
L 4.296875 54.6875 
z
" id="DejaVuSans-1494"/>
      <path d="M 43.75 20.0625 
L 57.671875 0 
L 47.078125 0 
L 26.765625 29.296875 
Q 25.390625 28.609375 24.53125 28.09375 
Q 23.6875 27.59375 22.3125 26.296875 
Q 20.953125 25 20.140625 23.40625 
Q 19.34375 21.828125 18.703125 19.140625 
Q 18.0625 16.453125 18.0625 13.09375 
L 18.0625 0 
L 9.078125 0 
L 9.078125 9.03125 
Q 9.078125 12.984375 9.5625 16.359375 
Q 10.0625 19.734375 10.8125 22.078125 
Q 11.578125 24.421875 12.796875 26.390625 
Q 14.015625 28.375 15.109375 29.59375 
Q 16.21875 30.8125 17.796875 31.875 
Q 19.390625 32.953125 20.453125 33.46875 
Q 21.53125 33.984375 23.046875 34.625 
L 9.1875 54.6875 
L 19.78125 54.6875 
L 40.09375 25.390625 
Q 41.40625 26.03125 42.25 26.53125 
Q 43.109375 27.046875 44.46875 28.359375 
Q 45.84375 29.6875 46.671875 31.265625 
Q 47.515625 32.859375 48.140625 35.546875 
Q 48.78125 38.234375 48.78125 41.609375 
L 48.78125 54.6875 
L 57.765625 54.6875 
L 57.765625 45.65625 
Q 57.765625 41.65625 57.265625 38.3125 
Q 56.78125 34.96875 56.03125 32.59375 
Q 55.28125 30.21875 54.046875 28.234375 
Q 52.828125 26.265625 51.703125 25.0625 
Q 50.59375 23.875 49.03125 22.796875 
Q 47.46875 21.734375 46.390625 21.21875 
Q 45.3125 20.703125 43.75 20.0625 
z
" id="DejaVuSans-1488"/>
      <path d="M 25.203125 64.796875 
L 20.21875 38.921875 
L 32.90625 38.921875 
Q 40.375 38.921875 44.984375 43.046875 
Q 49.609375 47.171875 49.609375 53.8125 
Q 49.609375 59.125 46.5 61.953125 
Q 43.40625 64.796875 37.59375 64.796875 
z
M 43.3125 35.015625 
Q 46.4375 34.28125 48.515625 31.390625 
Q 50.59375 28.515625 53.328125 19.921875 
L 59.515625 0 
L 49.125 0 
L 43.40625 18.703125 
Q 41.21875 25.921875 38.328125 28.359375 
Q 35.453125 30.8125 29.5 30.8125 
L 18.609375 30.8125 
L 12.59375 0 
L 2.6875 0 
L 16.890625 72.90625 
L 39.109375 72.90625 
Q 49.21875 72.90625 54.609375 68.328125 
Q 60.015625 63.765625 60.015625 55.171875 
Q 60.015625 47.5625 55.421875 41.984375 
Q 50.828125 36.421875 43.3125 35.015625 
z
" id="DejaVuSans-Oblique-82"/>
      <path d="M 42.28125 54.6875 
L 40.921875 47.703125 
L 23 47.703125 
L 17.1875 18.015625 
Q 16.890625 16.359375 16.75 15.234375 
Q 16.609375 14.109375 16.609375 13.484375 
Q 16.609375 10.359375 18.484375 8.9375 
Q 20.359375 7.515625 24.515625 7.515625 
L 33.59375 7.515625 
L 32.078125 0 
L 23.484375 0 
Q 15.484375 0 11.546875 3.125 
Q 7.625 6.25 7.625 12.59375 
Q 7.625 13.71875 7.765625 15.0625 
Q 7.90625 16.40625 8.203125 18.015625 
L 14.015625 47.703125 
L 6.390625 47.703125 
L 7.8125 54.6875 
L 15.28125 54.6875 
L 18.3125 70.21875 
L 27.296875 70.21875 
L 24.3125 54.6875 
z
" id="DejaVuSans-Oblique-116"/>
     </defs>
     <use transform="translate(0 0.78125)" xlink:href="#DejaVuSans-50"/>
     <use transform="translate(63.623047 0.78125)" xlink:href="#DejaVuSans-52"/>
     <use transform="translate(127.246094 0.78125)" xlink:href="#DejaVuSans-53"/>
     <use transform="translate(190.869141 0.78125)" xlink:href="#DejaVuSans-32"/>
     <use transform="translate(222.65625 0.78125)" xlink:href="#DejaVuSans-1492"/>
     <use transform="translate(287.988281 0.78125)" xlink:href="#DejaVuSans-1497"/>
     <use transform="translate(310.351562 0.78125)" xlink:href="#DejaVuSans-1512"/>
     <use transform="translate(366.796875 0.78125)" xlink:href="#DejaVuSans-1492"/>
     <use transform="translate(432.128906 0.78125)" xlink:href="#DejaVuSans-1504"/>
     <use transform="translate(472.167969 0.78125)" xlink:href="#DejaVuSans-32"/>
     <use transform="translate(503.955078 0.78125)" xlink:href="#DejaVuSans-1512"/>
     <use transform="translate(560.400391 0.78125)" xlink:href="#DejaVuSans-1493"/>
     <use transform="translate(587.646484 0.78125)" xlink:href="#DejaVuSans-1494"/>
     <use transform="translate(622.265625 0.78125)" xlink:href="#DejaVuSans-1488"/>
     <use transform="translate(689.111328 0.78125)" xlink:href="#DejaVuSans-32"/>
     <use transform="translate(720.898438 0.78125)" xlink:href="#DejaVuSans-Oblique-82"/>
     <use transform="translate(790.380859 -15.625)scale(0.7)" xlink:href="#DejaVuSans-Oblique-116"/>
    </g>
   </g>
  </g>
 </g>
 <defs>
  <clipPath id="p05eb6d6d0e">
   <rect height="271.8" width="558" x="90" y="43.2"/>
  </clipPath>
 </defs>
</svg>
