<?xml version="1.0" encoding="utf-8" standalone="no"?>
<!DOCTYPE svg PUBLIC "-//W3C//DTD SVG 1.1//EN"
  "http://www.w3.org/Graphics/SVG/1.1/DTD/svg11.dtd">
<!-- Created with matplotlib (https://matplotlib.org/) -->
<svg height="360pt" version="1.1" viewBox="0 0 720 360" width="720pt" xmlns="http://www.w3.org/2000/svg" xmlns:xlink="http://www.w3.org/1999/xlink">
 <metadata>
  <rdf:RDF xmlns:cc="http://creativecommons.org/ns#" xmlns:dc="http://purl.org/dc/elements/1.1/" xmlns:rdf="http://www.w3.org/1999/02/22-rdf-syntax-ns#">
   <cc:Work>
    <dc:type rdf:resource="http://purl.org/dc/dcmitype/StillImage"/>
    <dc:date>2021-02-24T18:41:12.464345</dc:date>
    <dc:format>image/svg+xml</dc:format>
    <dc:creator>
     <cc:Agent>
      <dc:title>Matplotlib v3.3.2, https://matplotlib.org/</dc:title>
     </cc:Agent>
    </dc:creator>
   </cc:Work>
  </rdf:RDF>
 </metadata>
 <defs>
  <style type="text/css">*{stroke-linecap:butt;stroke-linejoin:round;}</style>
 </defs>
 <g id="figure_1">
  <g id="patch_1">
   <path d="M 0 360 
L 720 360 
L 720 0 
L 0 0 
z
" style="fill:#ffffff;"/>
  </g>
  <g id="axes_1">
   <g id="patch_2">
    <path d="M 90 315 
L 648 315 
L 648 43.2 
L 90 43.2 
z
" style="fill:#ffffff;"/>
   </g>
   <g id="PolyCollection_1">
    <defs>
     <path d="M 90 -102.507232 
L 90 -191.318951 
L 91.696049 -191.88598 
L 93.392097 -187.502012 
L 95.088146 -190.95737 
L 96.784195 -190.005482 
L 98.480243 -188.815337 
L 100.176292 -191.765509 
L 101.87234 -182.407109 
L 103.568389 -181.149283 
L 105.264438 -180.844336 
L 106.960486 -176.386571 
L 108.656535 -173.599192 
L 110.352584 -168.048836 
L 112.048632 -164.550259 
L 113.744681 -154.169928 
L 115.440729 -153.144256 
L 117.136778 -149.496023 
L 118.832827 -142.620538 
L 120.528875 -134.422512 
L 122.224924 -131.227091 
L 123.920973 -128.099499 
L 125.617021 -122.035178 
L 127.31307 -117.317357 
L 129.009119 -114.313764 
L 130.705167 -111.779095 
L 132.401216 -109.223536 
L 134.097264 -106.338437 
L 135.793313 -106.289117 
L 137.489362 -103.727482 
L 139.18541 -105.239575 
L 140.881459 -104.506153 
L 142.577508 -103.977478 
L 144.273556 -105.789562 
L 145.969605 -106.097644 
L 147.665653 -108.569664 
L 149.361702 -110.168903 
L 151.057751 -109.853948 
L 152.753799 -112.114504 
L 154.449848 -114.843993 
L 156.145897 -117.754505 
L 157.841945 -119.117575 
L 159.537994 -121.167912 
L 161.234043 -123.200471 
L 162.930091 -131.669396 
L 164.62614 -135.572237 
L 166.322188 -137.011026 
L 168.018237 -140.088504 
L 169.714286 -148.993775 
L 171.410334 -153.975906 
L 173.106383 -159.618123 
L 174.802432 -162.374073 
L 176.49848 -165.079912 
L 178.194529 -175.916198 
L 179.890578 -182.120357 
L 181.586626 -186.891978 
L 183.282675 -194.260145 
L 184.978723 -200.916937 
L 186.674772 -208.692052 
L 188.370821 -217.777402 
L 190.066869 -227.790293 
L 191.762918 -230.396388 
L 193.458967 -240.435071 
L 195.155015 -243.025899 
L 196.851064 -250.648902 
L 198.547112 -255.678873 
L 200.243161 -267.853437 
L 201.93921 -266.428418 
L 203.635258 -271.224993 
L 205.331307 -276.875501 
L 207.027356 -280.926852 
L 208.723404 -286.93006 
L 210.419453 -285.201209 
L 212.115502 -280.387 
L 213.81155 -278.800319 
L 215.507599 -279.273148 
L 217.203647 -276.041995 
L 218.899696 -268.76101 
L 220.595745 -271.333701 
L 222.291793 -266.980888 
L 223.987842 -259.950311 
L 225.683891 -263.249865 
L 227.379939 -258.265244 
L 229.075988 -259.106488 
L 230.772036 -258.151583 
L 232.468085 -254.684566 
L 234.164134 -254.221018 
L 235.860182 -253.761383 
L 237.556231 -251.075238 
L 239.25228 -259.414601 
L 240.948328 -253.756598 
L 242.644377 -248.080546 
L 244.340426 -251.897203 
L 246.036474 -253.272011 
L 247.732523 -250.20987 
L 249.428571 -246.146748 
L 251.12462 -246.770673 
L 252.820669 -248.192947 
L 254.516717 -253.368873 
L 256.212766 -247.348405 
L 257.908815 -245.296451 
L 259.604863 -245.657238 
L 261.300912 -247.350448 
L 262.99696 -247.792543 
L 264.693009 -246.964002 
L 266.389058 -246.957796 
L 268.085106 -239.139245 
L 269.781155 -238.149154 
L 271.477204 -242.276447 
L 273.173252 -237.438955 
L 274.869301 -234.007298 
L 276.56535 -233.890335 
L 278.261398 -230.03863 
L 279.957447 -222.771552 
L 281.653495 -218.464099 
L 283.349544 -213.393091 
L 285.045593 -209.918331 
L 286.741641 -207.922649 
L 288.43769 -206.021547 
L 290.133739 -203.14698 
L 291.829787 -192.177096 
L 293.525836 -192.347747 
L 295.221884 -188.56682 
L 296.917933 -188.16181 
L 298.613982 -182.638496 
L 300.31003 -180.025306 
L 302.006079 -179.308864 
L 303.702128 -178.945672 
L 305.398176 -178.958775 
L 307.094225 -179.34734 
L 308.790274 -178.078027 
L 310.486322 -179.926864 
L 312.182371 -179.698411 
L 313.878419 -182.119285 
L 315.574468 -182.55484 
L 317.270517 -184.318954 
L 318.966565 -182.305457 
L 320.662614 -184.320382 
L 322.358663 -187.789967 
L 324.054711 -191.244798 
L 325.75076 -193.312378 
L 327.446809 -197.61598 
L 329.142857 -202.944739 
L 330.838906 -207.338274 
L 332.534954 -210.100795 
L 334.231003 -216.112469 
L 335.927052 -220.368185 
L 337.6231 -225.63603 
L 339.319149 -235.705517 
L 341.015198 -234.900496 
L 342.711246 -234.023035 
L 344.407295 -238.799388 
L 346.103343 -243.698984 
L 347.799392 -248.278628 
L 349.495441 -251.205128 
L 351.191489 -256.901844 
L 352.887538 -252.976076 
L 354.583587 -254.116984 
L 356.279635 -251.814517 
L 357.975684 -253.316341 
L 359.671733 -247.364699 
L 361.367781 -242.664683 
L 363.06383 -237.184963 
L 364.759878 -232.042209 
L 366.455927 -229.091667 
L 368.151976 -221.007493 
L 369.848024 -211.009562 
L 371.544073 -209.229444 
L 373.240122 -199.063712 
L 374.93617 -192.473492 
L 376.632219 -181.938549 
L 378.328267 -178.657571 
L 380.024316 -172.34553 
L 381.720365 -169.954769 
L 383.416413 -161.343342 
L 385.112462 -156.230102 
L 386.808511 -151.825301 
L 388.504559 -145.808445 
L 390.200608 -138.758462 
L 391.896657 -140.282994 
L 393.592705 -132.221161 
L 395.288754 -125.032787 
L 396.984802 -123.769344 
L 398.680851 -119.70226 
L 400.3769 -116.044853 
L 402.072948 -112.315967 
L 403.768997 -110.750682 
L 405.465046 -105.008733 
L 407.161094 -102.403974 
L 408.857143 -101.802418 
L 410.553191 -100.198924 
L 412.24924 -97.081273 
L 413.945289 -95.072725 
L 415.641337 -95.718023 
L 417.337386 -93.233931 
L 419.033435 -92.672013 
L 420.729483 -94.91547 
L 422.425532 -94.710826 
L 424.121581 -94.082171 
L 425.817629 -93.104033 
L 427.513678 -96.006995 
L 429.209726 -95.707573 
L 430.905775 -98.386285 
L 432.601824 -99.559738 
L 434.297872 -101.983712 
L 435.993921 -102.266862 
L 437.68997 -106.835563 
L 439.386018 -107.1565 
L 441.082067 -109.032171 
L 442.778116 -113.008474 
L 444.474164 -116.766917 
L 446.170213 -121.116575 
L 447.866261 -122.498271 
L 449.56231 -128.388787 
L 451.258359 -131.403808 
L 452.954407 -139.947363 
L 454.650456 -140.411537 
L 456.346505 -144.490508 
L 458.042553 -148.528771 
L 459.738602 -155.082483 
L 461.43465 -156.646478 
L 463.130699 -163.637957 
L 464.826748 -164.814898 
L 466.522796 -173.593515 
L 468.218845 -173.579082 
L 469.914894 -178.836835 
L 471.610942 -178.802403 
L 473.306991 -184.879231 
L 475.00304 -183.166336 
L 476.699088 -185.696192 
L 478.395137 -190.097298 
L 480.091185 -190.201234 
L 481.787234 -193.823014 
L 483.483283 -197.673359 
L 485.179331 -194.577633 
L 486.87538 -199.785999 
L 488.571429 -201.036416 
L 490.267477 -198.68762 
L 491.963526 -202.8496 
L 493.659574 -207.225117 
L 495.355623 -205.020445 
L 497.051672 -206.828587 
L 498.74772 -201.506394 
L 500.443769 -205.900258 
L 502.139818 -202.997476 
L 503.835866 -204.008834 
L 505.531915 -206.772759 
L 507.227964 -211.334739 
L 508.924012 -211.231933 
L 510.620061 -211.887643 
L 512.316109 -221.289124 
L 514.012158 -222.118036 
L 515.708207 -227.816551 
L 517.404255 -230.623311 
L 519.100304 -235.204163 
L 520.796353 -247.349876 
L 522.492401 -253.440666 
L 524.18845 -259.502042 
L 525.884498 -261.112075 
L 527.580547 -274.99332 
L 529.276596 -277.53639 
L 530.972644 -284.910126 
L 532.668693 -293.002525 
L 534.364742 -295.807484 
L 536.06079 -304.445455 
L 537.756839 -302.589879 
L 539.452888 -303.919206 
L 541.148936 -304.189126 
L 542.844985 -301.575893 
L 544.541033 -304.333867 
L 546.237082 -297.969492 
L 547.933131 -293.006021 
L 549.629179 -283.20157 
L 551.325228 -280.162609 
L 553.021277 -274.649504 
L 554.717325 -274.424535 
L 556.413374 -270.208325 
L 558.109422 -255.255947 
L 559.805471 -256.591353 
L 561.50152 -247.680102 
L 563.197568 -240.145137 
L 564.893617 -238.313977 
L 566.589666 -233.795381 
L 568.285714 -231.933192 
L 569.981763 -226.255763 
L 571.677812 -221.691174 
L 573.37386 -216.004112 
L 575.069909 -220.283127 
L 576.765957 -215.768782 
L 578.462006 -212.571098 
L 580.158055 -216.839273 
L 581.854103 -209.702501 
L 583.550152 -211.697765 
L 585.246201 -209.326175 
L 586.942249 -212.474267 
L 588.638298 -208.590261 
L 590.334347 -204.282354 
L 592.030395 -205.860502 
L 593.726444 -205.341075 
L 595.422492 -207.923856 
L 597.118541 -206.719518 
L 598.81459 -200.717482 
L 600.510638 -197.215403 
L 602.206687 -194.716319 
L 603.902736 -194.456972 
L 605.598784 -190.499102 
L 607.294833 -182.633187 
L 608.990881 -179.214844 
L 610.68693 -172.281241 
L 612.382979 -165.938349 
L 614.079027 -164.976476 
L 615.775076 -157.563665 
L 617.471125 -151.564586 
L 619.167173 -147.457936 
L 620.863222 -145.24146 
L 622.559271 -141.537839 
L 624.255319 -142.193416 
L 625.951368 -140.566309 
L 627.647416 -134.167039 
L 629.343465 -131.335531 
L 631.039514 -129.887277 
L 632.735562 -132.718313 
L 634.431611 -128.265027 
L 636.12766 -130.803484 
L 637.823708 -133.346207 
L 639.519757 -131.216113 
L 641.215805 -133.482581 
L 642.911854 -133.983153 
L 644.607903 -137.397661 
L 646.303951 -135.382951 
L 648 -141.647337 
L 649.696049 -138.25906 
L 651.392097 -134.535433 
L 653.088146 -138.454578 
L 654.784195 -141.597992 
L 656.480243 -143.269904 
L 658.176292 -144.831096 
L 659.87234 -147.265065 
L 661.568389 -152.566334 
L 661.568389 -62.328054 
L 661.568389 -62.328054 
L 659.87234 -60.336244 
L 658.176292 -57.961229 
L 656.480243 -57.354545 
L 654.784195 -57.407067 
L 653.088146 -58.198449 
L 651.392097 -58.752194 
L 649.696049 -65.105522 
L 648 -71.329176 
L 646.303951 -67.790635 
L 644.607903 -72.352753 
L 642.911854 -73.980854 
L 641.215805 -75.174692 
L 639.519757 -75.88944 
L 637.823708 -79.590496 
L 636.12766 -78.570056 
L 634.431611 -78.952734 
L 632.735562 -85.222982 
L 631.039514 -85.167079 
L 629.343465 -87.294359 
L 627.647416 -89.531222 
L 625.951368 -95.528377 
L 624.255319 -97.653667 
L 622.559271 -98.734184 
L 620.863222 -103.193742 
L 619.167173 -105.885246 
L 617.471125 -109.311129 
L 615.775076 -114.112892 
L 614.079027 -121.562302 
L 612.382979 -121.502883 
L 610.68693 -124.515676 
L 608.990881 -131.709796 
L 607.294833 -134.31971 
L 605.598784 -138.38119 
L 603.902736 -141.242175 
L 602.206687 -141.598532 
L 600.510638 -144.895724 
L 598.81459 -149.099083 
L 597.118541 -153.304504 
L 595.422492 -155.253312 
L 593.726444 -151.84259 
L 592.030395 -154.38323 
L 590.334347 -152.317976 
L 588.638298 -156.932058 
L 586.942249 -159.43993 
L 585.246201 -155.574644 
L 583.550152 -160.364241 
L 581.854103 -156.923659 
L 580.158055 -162.974845 
L 578.462006 -157.778774 
L 576.765957 -160.00952 
L 575.069909 -164.291569 
L 573.37386 -160.387955 
L 571.677812 -165.715229 
L 569.981763 -170.480603 
L 568.285714 -169.064613 
L 566.589666 -172.822691 
L 564.893617 -177.646473 
L 563.197568 -182.075822 
L 561.50152 -186.378168 
L 559.805471 -193.81957 
L 558.109422 -192.258995 
L 556.413374 -202.626084 
L 554.717325 -207.743218 
L 553.021277 -206.284822 
L 551.325228 -209.644765 
L 549.629179 -211.09621 
L 547.933131 -218.830409 
L 546.237082 -223.968755 
L 544.541033 -229.89569 
L 542.844985 -228.15644 
L 541.148936 -229.93596 
L 539.452888 -229.970306 
L 537.756839 -227.234061 
L 536.06079 -230.835074 
L 534.364742 -225.432236 
L 532.668693 -221.539166 
L 530.972644 -214.778313 
L 529.276596 -207.58401 
L 527.580547 -204.773712 
L 525.884498 -192.564092 
L 524.18845 -192.415008 
L 522.492401 -188.114405 
L 520.796353 -183.257724 
L 519.100304 -172.143616 
L 517.404255 -172.319746 
L 515.708207 -169.859069 
L 514.012158 -164.54701 
L 512.316109 -162.80382 
L 510.620061 -155.444324 
L 508.924012 -151.879917 
L 507.227964 -152.433897 
L 505.531915 -148.929057 
L 503.835866 -146.731227 
L 502.139818 -147.875056 
L 500.443769 -146.726337 
L 498.74772 -143.967221 
L 497.051672 -151.686615 
L 495.355623 -147.486978 
L 493.659574 -149.391631 
L 491.963526 -145.834033 
L 490.267477 -143.012651 
L 488.571429 -147.074374 
L 486.87538 -147.425238 
L 485.179331 -141.41792 
L 483.483283 -143.286535 
L 481.787234 -137.426922 
L 480.091185 -133.21551 
L 478.395137 -132.865109 
L 476.699088 -128.708333 
L 475.00304 -126.001064 
L 473.306991 -130.398985 
L 471.610942 -126.225179 
L 469.914894 -127.841151 
L 468.218845 -122.948256 
L 466.522796 -123.900246 
L 464.826748 -118.090072 
L 463.130699 -117.245431 
L 461.43465 -113.008799 
L 459.738602 -110.976482 
L 458.042553 -108.377948 
L 456.346505 -103.939828 
L 454.650456 -100.080966 
L 452.954407 -98.733944 
L 451.258359 -91.178747 
L 449.56231 -90.473221 
L 447.866261 -86.424489 
L 446.170213 -86.920755 
L 444.474164 -84.065483 
L 442.778116 -80.891331 
L 441.082067 -77.18094 
L 439.386018 -74.597315 
L 437.68997 -74.619116 
L 435.993921 -70.175783 
L 434.297872 -70.952629 
L 432.601824 -69.68076 
L 430.905775 -68.810302 
L 429.209726 -66.341589 
L 427.513678 -66.934241 
L 425.817629 -65.354584 
L 424.121581 -65.501866 
L 422.425532 -67.141048 
L 420.729483 -66.985148 
L 419.033435 -64.994471 
L 417.337386 -65.921497 
L 415.641337 -66.174292 
L 413.945289 -66.568027 
L 412.24924 -69.393008 
L 410.553191 -70.911766 
L 408.857143 -71.981127 
L 407.161094 -73.370073 
L 405.465046 -75.19234 
L 403.768997 -79.233652 
L 402.072948 -81.486277 
L 400.3769 -83.949236 
L 398.680851 -86.681882 
L 396.984802 -90.438749 
L 395.288754 -92.288003 
L 393.592705 -96.352963 
L 391.896657 -102.981027 
L 390.200608 -101.116722 
L 388.504559 -108.616285 
L 386.808511 -111.414993 
L 385.112462 -115.456811 
L 383.416413 -119.90871 
L 381.720365 -126.813389 
L 380.024316 -127.584226 
L 378.328267 -133.001191 
L 376.632219 -135.565665 
L 374.93617 -143.803107 
L 373.240122 -147.622903 
L 371.544073 -155.992266 
L 369.848024 -156.732519 
L 368.151976 -163.641726 
L 366.455927 -169.791252 
L 364.759878 -173.030707 
L 363.06383 -175.339975 
L 361.367781 -179.332294 
L 359.671733 -185.988152 
L 357.975684 -190.084447 
L 356.279635 -189.113785 
L 354.583587 -189.313058 
L 352.887538 -189.570931 
L 351.191489 -190.653456 
L 349.495441 -185.223808 
L 347.799392 -185.125328 
L 346.103343 -182.109732 
L 344.407295 -181.29609 
L 342.711246 -176.313669 
L 341.015198 -176.654314 
L 339.319149 -174.691877 
L 337.6231 -166.204449 
L 335.927052 -163.391231 
L 334.231003 -159.288865 
L 332.534954 -156.594319 
L 330.838906 -154.668163 
L 329.142857 -150.689835 
L 327.446809 -145.016714 
L 325.75076 -143.090069 
L 324.054711 -142.719675 
L 322.358663 -138.361058 
L 320.662614 -135.901591 
L 318.966565 -134.279551 
L 317.270517 -137.192683 
L 315.574468 -136.447833 
L 313.878419 -135.954384 
L 312.182371 -134.05994 
L 310.486322 -134.650541 
L 308.790274 -131.374272 
L 307.094225 -131.780294 
L 305.398176 -132.128561 
L 303.702128 -129.418748 
L 302.006079 -133.43793 
L 300.31003 -133.032951 
L 298.613982 -136.266257 
L 296.917933 -139.360358 
L 295.221884 -141.963794 
L 293.525836 -144.890562 
L 291.829787 -141.575609 
L 290.133739 -150.185471 
L 288.43769 -150.860726 
L 286.741641 -152.571427 
L 285.045593 -154.708194 
L 283.349544 -154.205146 
L 281.653495 -162.783559 
L 279.957447 -165.852158 
L 278.261398 -172.696087 
L 276.56535 -177.211761 
L 274.869301 -175.411094 
L 273.173252 -176.797264 
L 271.477204 -183.601651 
L 269.781155 -178.060575 
L 268.085106 -173.582539 
L 266.389058 -182.770729 
L 264.693009 -183.284088 
L 262.99696 -181.925209 
L 261.300912 -182.461661 
L 259.604863 -179.317036 
L 257.908815 -180.408043 
L 256.212766 -178.801955 
L 254.516717 -186.379786 
L 252.820669 -180.398908 
L 251.12462 -180.291096 
L 249.428571 -178.68551 
L 247.732523 -183.437188 
L 246.036474 -186.157957 
L 244.340426 -183.119448 
L 242.644377 -181.232319 
L 240.948328 -185.071714 
L 239.25228 -188.313196 
L 237.556231 -179.521206 
L 235.860182 -182.244514 
L 234.164134 -183.871312 
L 232.468085 -181.394773 
L 230.772036 -183.070337 
L 229.075988 -181.527476 
L 227.379939 -180.803781 
L 225.683891 -184.162082 
L 223.987842 -181.075095 
L 222.291793 -188.392068 
L 220.595745 -192.017003 
L 218.899696 -191.684533 
L 217.203647 -193.873668 
L 215.507599 -196.287799 
L 213.81155 -192.05778 
L 212.115502 -189.92774 
L 210.419453 -197.128137 
L 208.723404 -199.127618 
L 207.027356 -197.306878 
L 205.331307 -192.660985 
L 203.635258 -188.365839 
L 201.93921 -184.037216 
L 200.243161 -185.799546 
L 198.547112 -175.884998 
L 196.851064 -174.365692 
L 195.155015 -169.2474 
L 193.458967 -165.709973 
L 191.762918 -159.96288 
L 190.066869 -155.722643 
L 188.370821 -149.089835 
L 186.674772 -143.613765 
L 184.978723 -136.965928 
L 183.282675 -132.280834 
L 181.586626 -128.037314 
L 179.890578 -124.966904 
L 178.194529 -119.292698 
L 176.49848 -111.402676 
L 174.802432 -112.913869 
L 173.106383 -111.387244 
L 171.410334 -105.946304 
L 169.714286 -103.93698 
L 168.018237 -95.257089 
L 166.322188 -93.028632 
L 164.62614 -90.442866 
L 162.930091 -87.797521 
L 161.234043 -81.884637 
L 159.537994 -80.432069 
L 157.841945 -79.450763 
L 156.145897 -79.639871 
L 154.449848 -78.984376 
L 152.753799 -75.918664 
L 151.057751 -72.878531 
L 149.361702 -73.973957 
L 147.665653 -71.703026 
L 145.969605 -69.674061 
L 144.273556 -69.995133 
L 142.577508 -70.106693 
L 140.881459 -69.984142 
L 139.18541 -70.523593 
L 137.489362 -69.280006 
L 135.793313 -71.739752 
L 134.097264 -69.752666 
L 132.401216 -72.701032 
L 130.705167 -75.929892 
L 129.009119 -77.743868 
L 127.31307 -79.133211 
L 125.617021 -84.416865 
L 123.920973 -87.544274 
L 122.224924 -92.145147 
L 120.528875 -92.241246 
L 118.832827 -100.062574 
L 117.136778 -103.444889 
L 115.440729 -106.076482 
L 113.744681 -104.378074 
L 112.048632 -112.401214 
L 110.352584 -115.022181 
L 108.656535 -116.216932 
L 106.960486 -116.969369 
L 105.264438 -118.200638 
L 103.568389 -116.234985 
L 101.87234 -112.50513 
L 100.176292 -119.575506 
L 98.480243 -113.236347 
L 96.784195 -109.102444 
L 95.088146 -109.948456 
L 93.392097 -104.851491 
L 91.696049 -106.246146 
L 90 -102.507232 
z
" id="m7fa19eb70a" style="stroke:#fdcbb6;stroke-opacity:0.8;"/>
    </defs>
    <g clip-path="url(#p4fd18bad0c)">
     <use style="fill:#fdcbb6;fill-opacity:0.8;stroke:#fdcbb6;stroke-opacity:0.8;" x="0" xlink:href="#m7fa19eb70a" y="360"/>
    </g>
   </g>
   <g id="matplotlib.axis_1">
    <g id="xtick_1">
     <g id="line2d_1">
      <defs>
       <path d="M 0 0 
L 0 3.5 
" id="m0cdb6ca277" style="stroke:#000000;stroke-width:0.8;"/>
      </defs>
      <g>
       <use style="stroke:#000000;stroke-width:0.8;" x="90" xlink:href="#m0cdb6ca277" y="315"/>
      </g>
     </g>
    </g>
    <g id="xtick_2">
     <g id="line2d_2">
      <g>
       <use style="stroke:#000000;stroke-width:0.8;" x="106.960486" xlink:href="#m0cdb6ca277" y="315"/>
      </g>
     </g>
     <g id="text_1">
      <!-- Apr -->
      <g transform="translate(98.310486 329.598437)scale(0.1 -0.1)">
       <defs>
        <path d="M 34.1875 63.1875 
L 20.796875 26.90625 
L 47.609375 26.90625 
z
M 28.609375 72.90625 
L 39.796875 72.90625 
L 67.578125 0 
L 57.328125 0 
L 50.6875 18.703125 
L 17.828125 18.703125 
L 11.1875 0 
L 0.78125 0 
z
" id="DejaVuSans-65"/>
        <path d="M 18.109375 8.203125 
L 18.109375 -20.796875 
L 9.078125 -20.796875 
L 9.078125 54.6875 
L 18.109375 54.6875 
L 18.109375 46.390625 
Q 20.953125 51.265625 25.265625 53.625 
Q 29.59375 56 35.59375 56 
Q 45.5625 56 51.78125 48.09375 
Q 58.015625 40.1875 58.015625 27.296875 
Q 58.015625 14.40625 51.78125 6.484375 
Q 45.5625 -1.421875 35.59375 -1.421875 
Q 29.59375 -1.421875 25.265625 0.953125 
Q 20.953125 3.328125 18.109375 8.203125 
z
M 48.6875 27.296875 
Q 48.6875 37.203125 44.609375 42.84375 
Q 40.53125 48.484375 33.40625 48.484375 
Q 26.265625 48.484375 22.1875 42.84375 
Q 18.109375 37.203125 18.109375 27.296875 
Q 18.109375 17.390625 22.1875 11.75 
Q 26.265625 6.109375 33.40625 6.109375 
Q 40.53125 6.109375 44.609375 11.75 
Q 48.6875 17.390625 48.6875 27.296875 
z
" id="DejaVuSans-112"/>
        <path d="M 41.109375 46.296875 
Q 39.59375 47.171875 37.8125 47.578125 
Q 36.03125 48 33.890625 48 
Q 26.265625 48 22.1875 43.046875 
Q 18.109375 38.09375 18.109375 28.8125 
L 18.109375 0 
L 9.078125 0 
L 9.078125 54.6875 
L 18.109375 54.6875 
L 18.109375 46.1875 
Q 20.953125 51.171875 25.484375 53.578125 
Q 30.03125 56 36.53125 56 
Q 37.453125 56 38.578125 55.875 
Q 39.703125 55.765625 41.0625 55.515625 
z
" id="DejaVuSans-114"/>
       </defs>
       <use xlink:href="#DejaVuSans-65"/>
       <use x="68.408203" xlink:href="#DejaVuSans-112"/>
       <use x="131.884766" xlink:href="#DejaVuSans-114"/>
      </g>
     </g>
    </g>
    <g id="xtick_3">
     <g id="line2d_3">
      <g>
       <use style="stroke:#000000;stroke-width:0.8;" x="157.841945" xlink:href="#m0cdb6ca277" y="315"/>
      </g>
     </g>
     <g id="text_2">
      <!-- May -->
      <g transform="translate(147.504445 329.598437)scale(0.1 -0.1)">
       <defs>
        <path d="M 9.8125 72.90625 
L 24.515625 72.90625 
L 43.109375 23.296875 
L 61.8125 72.90625 
L 76.515625 72.90625 
L 76.515625 0 
L 66.890625 0 
L 66.890625 64.015625 
L 48.09375 14.015625 
L 38.1875 14.015625 
L 19.390625 64.015625 
L 19.390625 0 
L 9.8125 0 
z
" id="DejaVuSans-77"/>
        <path d="M 34.28125 27.484375 
Q 23.390625 27.484375 19.1875 25 
Q 14.984375 22.515625 14.984375 16.5 
Q 14.984375 11.71875 18.140625 8.90625 
Q 21.296875 6.109375 26.703125 6.109375 
Q 34.1875 6.109375 38.703125 11.40625 
Q 43.21875 16.703125 43.21875 25.484375 
L 43.21875 27.484375 
z
M 52.203125 31.203125 
L 52.203125 0 
L 43.21875 0 
L 43.21875 8.296875 
Q 40.140625 3.328125 35.546875 0.953125 
Q 30.953125 -1.421875 24.3125 -1.421875 
Q 15.921875 -1.421875 10.953125 3.296875 
Q 6 8.015625 6 15.921875 
Q 6 25.140625 12.171875 29.828125 
Q 18.359375 34.515625 30.609375 34.515625 
L 43.21875 34.515625 
L 43.21875 35.40625 
Q 43.21875 41.609375 39.140625 45 
Q 35.0625 48.390625 27.6875 48.390625 
Q 23 48.390625 18.546875 47.265625 
Q 14.109375 46.140625 10.015625 43.890625 
L 10.015625 52.203125 
Q 14.9375 54.109375 19.578125 55.046875 
Q 24.21875 56 28.609375 56 
Q 40.484375 56 46.34375 49.84375 
Q 52.203125 43.703125 52.203125 31.203125 
z
" id="DejaVuSans-97"/>
        <path d="M 32.171875 -5.078125 
Q 28.375 -14.84375 24.75 -17.8125 
Q 21.140625 -20.796875 15.09375 -20.796875 
L 7.90625 -20.796875 
L 7.90625 -13.28125 
L 13.1875 -13.28125 
Q 16.890625 -13.28125 18.9375 -11.515625 
Q 21 -9.765625 23.484375 -3.21875 
L 25.09375 0.875 
L 2.984375 54.6875 
L 12.5 54.6875 
L 29.59375 11.921875 
L 46.6875 54.6875 
L 56.203125 54.6875 
z
" id="DejaVuSans-121"/>
       </defs>
       <use xlink:href="#DejaVuSans-77"/>
       <use x="86.279297" xlink:href="#DejaVuSans-97"/>
       <use x="147.558594" xlink:href="#DejaVuSans-121"/>
      </g>
     </g>
    </g>
    <g id="xtick_4">
     <g id="line2d_4">
      <g>
       <use style="stroke:#000000;stroke-width:0.8;" x="210.419453" xlink:href="#m0cdb6ca277" y="315"/>
      </g>
     </g>
     <g id="text_3">
      <!-- Jun -->
      <g transform="translate(202.606953 329.598437)scale(0.1 -0.1)">
       <defs>
        <path d="M 9.8125 72.90625 
L 19.671875 72.90625 
L 19.671875 5.078125 
Q 19.671875 -8.109375 14.671875 -14.0625 
Q 9.671875 -20.015625 -1.421875 -20.015625 
L -5.171875 -20.015625 
L -5.171875 -11.71875 
L -2.09375 -11.71875 
Q 4.4375 -11.71875 7.125 -8.046875 
Q 9.8125 -4.390625 9.8125 5.078125 
z
" id="DejaVuSans-74"/>
        <path d="M 8.5 21.578125 
L 8.5 54.6875 
L 17.484375 54.6875 
L 17.484375 21.921875 
Q 17.484375 14.15625 20.5 10.265625 
Q 23.53125 6.390625 29.59375 6.390625 
Q 36.859375 6.390625 41.078125 11.03125 
Q 45.3125 15.671875 45.3125 23.6875 
L 45.3125 54.6875 
L 54.296875 54.6875 
L 54.296875 0 
L 45.3125 0 
L 45.3125 8.40625 
Q 42.046875 3.421875 37.71875 1 
Q 33.40625 -1.421875 27.6875 -1.421875 
Q 18.265625 -1.421875 13.375 4.4375 
Q 8.5 10.296875 8.5 21.578125 
z
M 31.109375 56 
z
" id="DejaVuSans-117"/>
        <path d="M 54.890625 33.015625 
L 54.890625 0 
L 45.90625 0 
L 45.90625 32.71875 
Q 45.90625 40.484375 42.875 44.328125 
Q 39.84375 48.1875 33.796875 48.1875 
Q 26.515625 48.1875 22.3125 43.546875 
Q 18.109375 38.921875 18.109375 30.90625 
L 18.109375 0 
L 9.078125 0 
L 9.078125 54.6875 
L 18.109375 54.6875 
L 18.109375 46.1875 
Q 21.34375 51.125 25.703125 53.5625 
Q 30.078125 56 35.796875 56 
Q 45.21875 56 50.046875 50.171875 
Q 54.890625 44.34375 54.890625 33.015625 
z
" id="DejaVuSans-110"/>
       </defs>
       <use xlink:href="#DejaVuSans-74"/>
       <use x="29.492188" xlink:href="#DejaVuSans-117"/>
       <use x="92.871094" xlink:href="#DejaVuSans-110"/>
      </g>
     </g>
    </g>
    <g id="xtick_5">
     <g id="line2d_5">
      <g>
       <use style="stroke:#000000;stroke-width:0.8;" x="261.300912" xlink:href="#m0cdb6ca277" y="315"/>
      </g>
     </g>
     <g id="text_4">
      <!-- Jul -->
      <g transform="translate(255.268099 329.598437)scale(0.1 -0.1)">
       <defs>
        <path d="M 9.421875 75.984375 
L 18.40625 75.984375 
L 18.40625 0 
L 9.421875 0 
z
" id="DejaVuSans-108"/>
       </defs>
       <use xlink:href="#DejaVuSans-74"/>
       <use x="29.492188" xlink:href="#DejaVuSans-117"/>
       <use x="92.871094" xlink:href="#DejaVuSans-108"/>
      </g>
     </g>
    </g>
    <g id="xtick_6">
     <g id="line2d_6">
      <g>
       <use style="stroke:#000000;stroke-width:0.8;" x="313.878419" xlink:href="#m0cdb6ca277" y="315"/>
      </g>
     </g>
     <g id="text_5">
      <!-- Aug -->
      <g transform="translate(304.115138 329.598437)scale(0.1 -0.1)">
       <defs>
        <path d="M 45.40625 27.984375 
Q 45.40625 37.75 41.375 43.109375 
Q 37.359375 48.484375 30.078125 48.484375 
Q 22.859375 48.484375 18.828125 43.109375 
Q 14.796875 37.75 14.796875 27.984375 
Q 14.796875 18.265625 18.828125 12.890625 
Q 22.859375 7.515625 30.078125 7.515625 
Q 37.359375 7.515625 41.375 12.890625 
Q 45.40625 18.265625 45.40625 27.984375 
z
M 54.390625 6.78125 
Q 54.390625 -7.171875 48.1875 -13.984375 
Q 42 -20.796875 29.203125 -20.796875 
Q 24.46875 -20.796875 20.265625 -20.09375 
Q 16.0625 -19.390625 12.109375 -17.921875 
L 12.109375 -9.1875 
Q 16.0625 -11.328125 19.921875 -12.34375 
Q 23.78125 -13.375 27.78125 -13.375 
Q 36.625 -13.375 41.015625 -8.765625 
Q 45.40625 -4.15625 45.40625 5.171875 
L 45.40625 9.625 
Q 42.625 4.78125 38.28125 2.390625 
Q 33.9375 0 27.875 0 
Q 17.828125 0 11.671875 7.65625 
Q 5.515625 15.328125 5.515625 27.984375 
Q 5.515625 40.671875 11.671875 48.328125 
Q 17.828125 56 27.875 56 
Q 33.9375 56 38.28125 53.609375 
Q 42.625 51.21875 45.40625 46.390625 
L 45.40625 54.6875 
L 54.390625 54.6875 
z
" id="DejaVuSans-103"/>
       </defs>
       <use xlink:href="#DejaVuSans-65"/>
       <use x="68.408203" xlink:href="#DejaVuSans-117"/>
       <use x="131.787109" xlink:href="#DejaVuSans-103"/>
      </g>
     </g>
    </g>
    <g id="xtick_7">
     <g id="line2d_7">
      <g>
       <use style="stroke:#000000;stroke-width:0.8;" x="366.455927" xlink:href="#m0cdb6ca277" y="315"/>
      </g>
     </g>
     <g id="text_6">
      <!-- Sep -->
      <g transform="translate(357.030927 329.598437)scale(0.1 -0.1)">
       <defs>
        <path d="M 53.515625 70.515625 
L 53.515625 60.890625 
Q 47.90625 63.578125 42.921875 64.890625 
Q 37.9375 66.21875 33.296875 66.21875 
Q 25.25 66.21875 20.875 63.09375 
Q 16.5 59.96875 16.5 54.203125 
Q 16.5 49.359375 19.40625 46.890625 
Q 22.3125 44.4375 30.421875 42.921875 
L 36.375 41.703125 
Q 47.40625 39.59375 52.65625 34.296875 
Q 57.90625 29 57.90625 20.125 
Q 57.90625 9.515625 50.796875 4.046875 
Q 43.703125 -1.421875 29.984375 -1.421875 
Q 24.8125 -1.421875 18.96875 -0.25 
Q 13.140625 0.921875 6.890625 3.21875 
L 6.890625 13.375 
Q 12.890625 10.015625 18.65625 8.296875 
Q 24.421875 6.59375 29.984375 6.59375 
Q 38.421875 6.59375 43.015625 9.90625 
Q 47.609375 13.234375 47.609375 19.390625 
Q 47.609375 24.75 44.3125 27.78125 
Q 41.015625 30.8125 33.5 32.328125 
L 27.484375 33.5 
Q 16.453125 35.6875 11.515625 40.375 
Q 6.59375 45.0625 6.59375 53.421875 
Q 6.59375 63.09375 13.40625 68.65625 
Q 20.21875 74.21875 32.171875 74.21875 
Q 37.3125 74.21875 42.625 73.28125 
Q 47.953125 72.359375 53.515625 70.515625 
z
" id="DejaVuSans-83"/>
        <path d="M 56.203125 29.59375 
L 56.203125 25.203125 
L 14.890625 25.203125 
Q 15.484375 15.921875 20.484375 11.0625 
Q 25.484375 6.203125 34.421875 6.203125 
Q 39.59375 6.203125 44.453125 7.46875 
Q 49.3125 8.734375 54.109375 11.28125 
L 54.109375 2.78125 
Q 49.265625 0.734375 44.1875 -0.34375 
Q 39.109375 -1.421875 33.890625 -1.421875 
Q 20.796875 -1.421875 13.15625 6.1875 
Q 5.515625 13.8125 5.515625 26.8125 
Q 5.515625 40.234375 12.765625 48.109375 
Q 20.015625 56 32.328125 56 
Q 43.359375 56 49.78125 48.890625 
Q 56.203125 41.796875 56.203125 29.59375 
z
M 47.21875 32.234375 
Q 47.125 39.59375 43.09375 43.984375 
Q 39.0625 48.390625 32.421875 48.390625 
Q 24.90625 48.390625 20.390625 44.140625 
Q 15.875 39.890625 15.1875 32.171875 
z
" id="DejaVuSans-101"/>
       </defs>
       <use xlink:href="#DejaVuSans-83"/>
       <use x="63.476562" xlink:href="#DejaVuSans-101"/>
       <use x="125" xlink:href="#DejaVuSans-112"/>
      </g>
     </g>
    </g>
    <g id="xtick_8">
     <g id="line2d_8">
      <g>
       <use style="stroke:#000000;stroke-width:0.8;" x="417.337386" xlink:href="#m0cdb6ca277" y="315"/>
      </g>
     </g>
     <g id="text_7">
      <!-- Oct -->
      <g transform="translate(408.692074 329.598437)scale(0.1 -0.1)">
       <defs>
        <path d="M 39.40625 66.21875 
Q 28.65625 66.21875 22.328125 58.203125 
Q 16.015625 50.203125 16.015625 36.375 
Q 16.015625 22.609375 22.328125 14.59375 
Q 28.65625 6.59375 39.40625 6.59375 
Q 50.140625 6.59375 56.421875 14.59375 
Q 62.703125 22.609375 62.703125 36.375 
Q 62.703125 50.203125 56.421875 58.203125 
Q 50.140625 66.21875 39.40625 66.21875 
z
M 39.40625 74.21875 
Q 54.734375 74.21875 63.90625 63.9375 
Q 73.09375 53.65625 73.09375 36.375 
Q 73.09375 19.140625 63.90625 8.859375 
Q 54.734375 -1.421875 39.40625 -1.421875 
Q 24.03125 -1.421875 14.8125 8.828125 
Q 5.609375 19.09375 5.609375 36.375 
Q 5.609375 53.65625 14.8125 63.9375 
Q 24.03125 74.21875 39.40625 74.21875 
z
" id="DejaVuSans-79"/>
        <path d="M 48.78125 52.59375 
L 48.78125 44.1875 
Q 44.96875 46.296875 41.140625 47.34375 
Q 37.3125 48.390625 33.40625 48.390625 
Q 24.65625 48.390625 19.8125 42.84375 
Q 14.984375 37.3125 14.984375 27.296875 
Q 14.984375 17.28125 19.8125 11.734375 
Q 24.65625 6.203125 33.40625 6.203125 
Q 37.3125 6.203125 41.140625 7.25 
Q 44.96875 8.296875 48.78125 10.40625 
L 48.78125 2.09375 
Q 45.015625 0.34375 40.984375 -0.53125 
Q 36.96875 -1.421875 32.421875 -1.421875 
Q 20.0625 -1.421875 12.78125 6.34375 
Q 5.515625 14.109375 5.515625 27.296875 
Q 5.515625 40.671875 12.859375 48.328125 
Q 20.21875 56 33.015625 56 
Q 37.15625 56 41.109375 55.140625 
Q 45.0625 54.296875 48.78125 52.59375 
z
" id="DejaVuSans-99"/>
        <path d="M 18.3125 70.21875 
L 18.3125 54.6875 
L 36.8125 54.6875 
L 36.8125 47.703125 
L 18.3125 47.703125 
L 18.3125 18.015625 
Q 18.3125 11.328125 20.140625 9.421875 
Q 21.96875 7.515625 27.59375 7.515625 
L 36.8125 7.515625 
L 36.8125 0 
L 27.59375 0 
Q 17.1875 0 13.234375 3.875 
Q 9.28125 7.765625 9.28125 18.015625 
L 9.28125 47.703125 
L 2.6875 47.703125 
L 2.6875 54.6875 
L 9.28125 54.6875 
L 9.28125 70.21875 
z
" id="DejaVuSans-116"/>
       </defs>
       <use xlink:href="#DejaVuSans-79"/>
       <use x="78.710938" xlink:href="#DejaVuSans-99"/>
       <use x="133.691406" xlink:href="#DejaVuSans-116"/>
      </g>
     </g>
    </g>
    <g id="xtick_9">
     <g id="line2d_9">
      <g>
       <use style="stroke:#000000;stroke-width:0.8;" x="469.914894" xlink:href="#m0cdb6ca277" y="315"/>
      </g>
     </g>
     <g id="text_8">
      <!-- Nov -->
      <g transform="translate(460.155519 329.598437)scale(0.1 -0.1)">
       <defs>
        <path d="M 9.8125 72.90625 
L 23.09375 72.90625 
L 55.421875 11.921875 
L 55.421875 72.90625 
L 64.984375 72.90625 
L 64.984375 0 
L 51.703125 0 
L 19.390625 60.984375 
L 19.390625 0 
L 9.8125 0 
z
" id="DejaVuSans-78"/>
        <path d="M 30.609375 48.390625 
Q 23.390625 48.390625 19.1875 42.75 
Q 14.984375 37.109375 14.984375 27.296875 
Q 14.984375 17.484375 19.15625 11.84375 
Q 23.34375 6.203125 30.609375 6.203125 
Q 37.796875 6.203125 41.984375 11.859375 
Q 46.1875 17.53125 46.1875 27.296875 
Q 46.1875 37.015625 41.984375 42.703125 
Q 37.796875 48.390625 30.609375 48.390625 
z
M 30.609375 56 
Q 42.328125 56 49.015625 48.375 
Q 55.71875 40.765625 55.71875 27.296875 
Q 55.71875 13.875 49.015625 6.21875 
Q 42.328125 -1.421875 30.609375 -1.421875 
Q 18.84375 -1.421875 12.171875 6.21875 
Q 5.515625 13.875 5.515625 27.296875 
Q 5.515625 40.765625 12.171875 48.375 
Q 18.84375 56 30.609375 56 
z
" id="DejaVuSans-111"/>
        <path d="M 2.984375 54.6875 
L 12.5 54.6875 
L 29.59375 8.796875 
L 46.6875 54.6875 
L 56.203125 54.6875 
L 35.6875 0 
L 23.484375 0 
z
" id="DejaVuSans-118"/>
       </defs>
       <use xlink:href="#DejaVuSans-78"/>
       <use x="74.804688" xlink:href="#DejaVuSans-111"/>
       <use x="135.986328" xlink:href="#DejaVuSans-118"/>
      </g>
     </g>
    </g>
    <g id="xtick_10">
     <g id="line2d_10">
      <g>
       <use style="stroke:#000000;stroke-width:0.8;" x="520.796353" xlink:href="#m0cdb6ca277" y="315"/>
      </g>
     </g>
     <g id="text_9">
      <!-- Dec -->
      <g transform="translate(511.120571 329.598437)scale(0.1 -0.1)">
       <defs>
        <path d="M 19.671875 64.796875 
L 19.671875 8.109375 
L 31.59375 8.109375 
Q 46.6875 8.109375 53.6875 14.9375 
Q 60.6875 21.78125 60.6875 36.53125 
Q 60.6875 51.171875 53.6875 57.984375 
Q 46.6875 64.796875 31.59375 64.796875 
z
M 9.8125 72.90625 
L 30.078125 72.90625 
Q 51.265625 72.90625 61.171875 64.09375 
Q 71.09375 55.28125 71.09375 36.53125 
Q 71.09375 17.671875 61.125 8.828125 
Q 51.171875 0 30.078125 0 
L 9.8125 0 
z
" id="DejaVuSans-68"/>
       </defs>
       <use xlink:href="#DejaVuSans-68"/>
       <use x="77.001953" xlink:href="#DejaVuSans-101"/>
       <use x="138.525391" xlink:href="#DejaVuSans-99"/>
      </g>
     </g>
    </g>
    <g id="xtick_11">
     <g id="line2d_11">
      <g>
       <use style="stroke:#000000;stroke-width:0.8;" x="573.37386" xlink:href="#m0cdb6ca277" y="315"/>
      </g>
     </g>
     <g id="text_10">
      <!-- Jan -->
      <g transform="translate(565.666048 329.598437)scale(0.1 -0.1)">
       <use xlink:href="#DejaVuSans-74"/>
       <use x="29.492188" xlink:href="#DejaVuSans-97"/>
       <use x="90.771484" xlink:href="#DejaVuSans-110"/>
      </g>
      <!-- 2021 -->
      <g transform="translate(560.64886 340.79625)scale(0.1 -0.1)">
       <defs>
        <path d="M 19.1875 8.296875 
L 53.609375 8.296875 
L 53.609375 0 
L 7.328125 0 
L 7.328125 8.296875 
Q 12.9375 14.109375 22.625 23.890625 
Q 32.328125 33.6875 34.8125 36.53125 
Q 39.546875 41.84375 41.421875 45.53125 
Q 43.3125 49.21875 43.3125 52.78125 
Q 43.3125 58.59375 39.234375 62.25 
Q 35.15625 65.921875 28.609375 65.921875 
Q 23.96875 65.921875 18.8125 64.3125 
Q 13.671875 62.703125 7.8125 59.421875 
L 7.8125 69.390625 
Q 13.765625 71.78125 18.9375 73 
Q 24.125 74.21875 28.421875 74.21875 
Q 39.75 74.21875 46.484375 68.546875 
Q 53.21875 62.890625 53.21875 53.421875 
Q 53.21875 48.921875 51.53125 44.890625 
Q 49.859375 40.875 45.40625 35.40625 
Q 44.1875 33.984375 37.640625 27.21875 
Q 31.109375 20.453125 19.1875 8.296875 
z
" id="DejaVuSans-50"/>
        <path d="M 31.78125 66.40625 
Q 24.171875 66.40625 20.328125 58.90625 
Q 16.5 51.421875 16.5 36.375 
Q 16.5 21.390625 20.328125 13.890625 
Q 24.171875 6.390625 31.78125 6.390625 
Q 39.453125 6.390625 43.28125 13.890625 
Q 47.125 21.390625 47.125 36.375 
Q 47.125 51.421875 43.28125 58.90625 
Q 39.453125 66.40625 31.78125 66.40625 
z
M 31.78125 74.21875 
Q 44.046875 74.21875 50.515625 64.515625 
Q 56.984375 54.828125 56.984375 36.375 
Q 56.984375 17.96875 50.515625 8.265625 
Q 44.046875 -1.421875 31.78125 -1.421875 
Q 19.53125 -1.421875 13.0625 8.265625 
Q 6.59375 17.96875 6.59375 36.375 
Q 6.59375 54.828125 13.0625 64.515625 
Q 19.53125 74.21875 31.78125 74.21875 
z
" id="DejaVuSans-48"/>
        <path d="M 12.40625 8.296875 
L 28.515625 8.296875 
L 28.515625 63.921875 
L 10.984375 60.40625 
L 10.984375 69.390625 
L 28.421875 72.90625 
L 38.28125 72.90625 
L 38.28125 8.296875 
L 54.390625 8.296875 
L 54.390625 0 
L 12.40625 0 
z
" id="DejaVuSans-49"/>
       </defs>
       <use xlink:href="#DejaVuSans-50"/>
       <use x="63.623047" xlink:href="#DejaVuSans-48"/>
       <use x="127.246094" xlink:href="#DejaVuSans-50"/>
       <use x="190.869141" xlink:href="#DejaVuSans-49"/>
      </g>
     </g>
    </g>
    <g id="xtick_12">
     <g id="line2d_12">
      <g>
       <use style="stroke:#000000;stroke-width:0.8;" x="625.951368" xlink:href="#m0cdb6ca277" y="315"/>
      </g>
     </g>
     <g id="text_11">
      <!-- Feb -->
      <g transform="translate(617.099805 329.598437)scale(0.1 -0.1)">
       <defs>
        <path d="M 9.8125 72.90625 
L 51.703125 72.90625 
L 51.703125 64.59375 
L 19.671875 64.59375 
L 19.671875 43.109375 
L 48.578125 43.109375 
L 48.578125 34.8125 
L 19.671875 34.8125 
L 19.671875 0 
L 9.8125 0 
z
" id="DejaVuSans-70"/>
        <path d="M 48.6875 27.296875 
Q 48.6875 37.203125 44.609375 42.84375 
Q 40.53125 48.484375 33.40625 48.484375 
Q 26.265625 48.484375 22.1875 42.84375 
Q 18.109375 37.203125 18.109375 27.296875 
Q 18.109375 17.390625 22.1875 11.75 
Q 26.265625 6.109375 33.40625 6.109375 
Q 40.53125 6.109375 44.609375 11.75 
Q 48.6875 17.390625 48.6875 27.296875 
z
M 18.109375 46.390625 
Q 20.953125 51.265625 25.265625 53.625 
Q 29.59375 56 35.59375 56 
Q 45.5625 56 51.78125 48.09375 
Q 58.015625 40.1875 58.015625 27.296875 
Q 58.015625 14.40625 51.78125 6.484375 
Q 45.5625 -1.421875 35.59375 -1.421875 
Q 29.59375 -1.421875 25.265625 0.953125 
Q 20.953125 3.328125 18.109375 8.203125 
L 18.109375 0 
L 9.078125 0 
L 9.078125 75.984375 
L 18.109375 75.984375 
z
" id="DejaVuSans-98"/>
       </defs>
       <use xlink:href="#DejaVuSans-70"/>
       <use x="52.019531" xlink:href="#DejaVuSans-101"/>
       <use x="113.542969" xlink:href="#DejaVuSans-98"/>
      </g>
     </g>
    </g>
    <g id="xtick_13">
     <g id="line2d_13">
      <g>
       <use style="stroke:#000000;stroke-width:0.8;" x="648" xlink:href="#m0cdb6ca277" y="315"/>
      </g>
     </g>
    </g>
    <g id="xtick_14">
     <g id="line2d_14">
      <defs>
       <path d="M 0 0 
L 0 2 
" id="m6666c4e6fe" style="stroke:#000000;stroke-width:0.6;"/>
      </defs>
      <g>
       <use style="stroke:#000000;stroke-width:0.6;" x="91.696049" xlink:href="#m6666c4e6fe" y="315"/>
      </g>
     </g>
    </g>
    <g id="xtick_15">
     <g id="line2d_15">
      <g>
       <use style="stroke:#000000;stroke-width:0.6;" x="103.568389" xlink:href="#m6666c4e6fe" y="315"/>
      </g>
     </g>
    </g>
    <g id="xtick_16">
     <g id="line2d_16">
      <g>
       <use style="stroke:#000000;stroke-width:0.6;" x="115.440729" xlink:href="#m6666c4e6fe" y="315"/>
      </g>
     </g>
    </g>
    <g id="xtick_17">
     <g id="line2d_17">
      <g>
       <use style="stroke:#000000;stroke-width:0.6;" x="127.31307" xlink:href="#m6666c4e6fe" y="315"/>
      </g>
     </g>
    </g>
    <g id="xtick_18">
     <g id="line2d_18">
      <g>
       <use style="stroke:#000000;stroke-width:0.6;" x="139.18541" xlink:href="#m6666c4e6fe" y="315"/>
      </g>
     </g>
    </g>
    <g id="xtick_19">
     <g id="line2d_19">
      <g>
       <use style="stroke:#000000;stroke-width:0.6;" x="151.057751" xlink:href="#m6666c4e6fe" y="315"/>
      </g>
     </g>
    </g>
    <g id="xtick_20">
     <g id="line2d_20">
      <g>
       <use style="stroke:#000000;stroke-width:0.6;" x="162.930091" xlink:href="#m6666c4e6fe" y="315"/>
      </g>
     </g>
    </g>
    <g id="xtick_21">
     <g id="line2d_21">
      <g>
       <use style="stroke:#000000;stroke-width:0.6;" x="174.802432" xlink:href="#m6666c4e6fe" y="315"/>
      </g>
     </g>
    </g>
    <g id="xtick_22">
     <g id="line2d_22">
      <g>
       <use style="stroke:#000000;stroke-width:0.6;" x="186.674772" xlink:href="#m6666c4e6fe" y="315"/>
      </g>
     </g>
    </g>
    <g id="xtick_23">
     <g id="line2d_23">
      <g>
       <use style="stroke:#000000;stroke-width:0.6;" x="198.547112" xlink:href="#m6666c4e6fe" y="315"/>
      </g>
     </g>
    </g>
    <g id="xtick_24">
     <g id="line2d_24">
      <g>
       <use style="stroke:#000000;stroke-width:0.6;" x="222.291793" xlink:href="#m6666c4e6fe" y="315"/>
      </g>
     </g>
    </g>
    <g id="xtick_25">
     <g id="line2d_25">
      <g>
       <use style="stroke:#000000;stroke-width:0.6;" x="234.164134" xlink:href="#m6666c4e6fe" y="315"/>
      </g>
     </g>
    </g>
    <g id="xtick_26">
     <g id="line2d_26">
      <g>
       <use style="stroke:#000000;stroke-width:0.6;" x="246.036474" xlink:href="#m6666c4e6fe" y="315"/>
      </g>
     </g>
    </g>
    <g id="xtick_27">
     <g id="line2d_27">
      <g>
       <use style="stroke:#000000;stroke-width:0.6;" x="257.908815" xlink:href="#m6666c4e6fe" y="315"/>
      </g>
     </g>
    </g>
    <g id="xtick_28">
     <g id="line2d_28">
      <g>
       <use style="stroke:#000000;stroke-width:0.6;" x="269.781155" xlink:href="#m6666c4e6fe" y="315"/>
      </g>
     </g>
    </g>
    <g id="xtick_29">
     <g id="line2d_29">
      <g>
       <use style="stroke:#000000;stroke-width:0.6;" x="281.653495" xlink:href="#m6666c4e6fe" y="315"/>
      </g>
     </g>
    </g>
    <g id="xtick_30">
     <g id="line2d_30">
      <g>
       <use style="stroke:#000000;stroke-width:0.6;" x="293.525836" xlink:href="#m6666c4e6fe" y="315"/>
      </g>
     </g>
    </g>
    <g id="xtick_31">
     <g id="line2d_31">
      <g>
       <use style="stroke:#000000;stroke-width:0.6;" x="305.398176" xlink:href="#m6666c4e6fe" y="315"/>
      </g>
     </g>
    </g>
    <g id="xtick_32">
     <g id="line2d_32">
      <g>
       <use style="stroke:#000000;stroke-width:0.6;" x="317.270517" xlink:href="#m6666c4e6fe" y="315"/>
      </g>
     </g>
    </g>
    <g id="xtick_33">
     <g id="line2d_33">
      <g>
       <use style="stroke:#000000;stroke-width:0.6;" x="329.142857" xlink:href="#m6666c4e6fe" y="315"/>
      </g>
     </g>
    </g>
    <g id="xtick_34">
     <g id="line2d_34">
      <g>
       <use style="stroke:#000000;stroke-width:0.6;" x="341.015198" xlink:href="#m6666c4e6fe" y="315"/>
      </g>
     </g>
    </g>
    <g id="xtick_35">
     <g id="line2d_35">
      <g>
       <use style="stroke:#000000;stroke-width:0.6;" x="352.887538" xlink:href="#m6666c4e6fe" y="315"/>
      </g>
     </g>
    </g>
    <g id="xtick_36">
     <g id="line2d_36">
      <g>
       <use style="stroke:#000000;stroke-width:0.6;" x="364.759878" xlink:href="#m6666c4e6fe" y="315"/>
      </g>
     </g>
    </g>
    <g id="xtick_37">
     <g id="line2d_37">
      <g>
       <use style="stroke:#000000;stroke-width:0.6;" x="376.632219" xlink:href="#m6666c4e6fe" y="315"/>
      </g>
     </g>
    </g>
    <g id="xtick_38">
     <g id="line2d_38">
      <g>
       <use style="stroke:#000000;stroke-width:0.6;" x="388.504559" xlink:href="#m6666c4e6fe" y="315"/>
      </g>
     </g>
    </g>
    <g id="xtick_39">
     <g id="line2d_39">
      <g>
       <use style="stroke:#000000;stroke-width:0.6;" x="400.3769" xlink:href="#m6666c4e6fe" y="315"/>
      </g>
     </g>
    </g>
    <g id="xtick_40">
     <g id="line2d_40">
      <g>
       <use style="stroke:#000000;stroke-width:0.6;" x="412.24924" xlink:href="#m6666c4e6fe" y="315"/>
      </g>
     </g>
    </g>
    <g id="xtick_41">
     <g id="line2d_41">
      <g>
       <use style="stroke:#000000;stroke-width:0.6;" x="424.121581" xlink:href="#m6666c4e6fe" y="315"/>
      </g>
     </g>
    </g>
    <g id="xtick_42">
     <g id="line2d_42">
      <g>
       <use style="stroke:#000000;stroke-width:0.6;" x="435.993921" xlink:href="#m6666c4e6fe" y="315"/>
      </g>
     </g>
    </g>
    <g id="xtick_43">
     <g id="line2d_43">
      <g>
       <use style="stroke:#000000;stroke-width:0.6;" x="447.866261" xlink:href="#m6666c4e6fe" y="315"/>
      </g>
     </g>
    </g>
    <g id="xtick_44">
     <g id="line2d_44">
      <g>
       <use style="stroke:#000000;stroke-width:0.6;" x="459.738602" xlink:href="#m6666c4e6fe" y="315"/>
      </g>
     </g>
    </g>
    <g id="xtick_45">
     <g id="line2d_45">
      <g>
       <use style="stroke:#000000;stroke-width:0.6;" x="471.610942" xlink:href="#m6666c4e6fe" y="315"/>
      </g>
     </g>
    </g>
    <g id="xtick_46">
     <g id="line2d_46">
      <g>
       <use style="stroke:#000000;stroke-width:0.6;" x="483.483283" xlink:href="#m6666c4e6fe" y="315"/>
      </g>
     </g>
    </g>
    <g id="xtick_47">
     <g id="line2d_47">
      <g>
       <use style="stroke:#000000;stroke-width:0.6;" x="495.355623" xlink:href="#m6666c4e6fe" y="315"/>
      </g>
     </g>
    </g>
    <g id="xtick_48">
     <g id="line2d_48">
      <g>
       <use style="stroke:#000000;stroke-width:0.6;" x="507.227964" xlink:href="#m6666c4e6fe" y="315"/>
      </g>
     </g>
    </g>
    <g id="xtick_49">
     <g id="line2d_49">
      <g>
       <use style="stroke:#000000;stroke-width:0.6;" x="519.100304" xlink:href="#m6666c4e6fe" y="315"/>
      </g>
     </g>
    </g>
    <g id="xtick_50">
     <g id="line2d_50">
      <g>
       <use style="stroke:#000000;stroke-width:0.6;" x="530.972644" xlink:href="#m6666c4e6fe" y="315"/>
      </g>
     </g>
    </g>
    <g id="xtick_51">
     <g id="line2d_51">
      <g>
       <use style="stroke:#000000;stroke-width:0.6;" x="542.844985" xlink:href="#m6666c4e6fe" y="315"/>
      </g>
     </g>
    </g>
    <g id="xtick_52">
     <g id="line2d_52">
      <g>
       <use style="stroke:#000000;stroke-width:0.6;" x="554.717325" xlink:href="#m6666c4e6fe" y="315"/>
      </g>
     </g>
    </g>
    <g id="xtick_53">
     <g id="line2d_53">
      <g>
       <use style="stroke:#000000;stroke-width:0.6;" x="566.589666" xlink:href="#m6666c4e6fe" y="315"/>
      </g>
     </g>
    </g>
    <g id="xtick_54">
     <g id="line2d_54">
      <g>
       <use style="stroke:#000000;stroke-width:0.6;" x="578.462006" xlink:href="#m6666c4e6fe" y="315"/>
      </g>
     </g>
    </g>
    <g id="xtick_55">
     <g id="line2d_55">
      <g>
       <use style="stroke:#000000;stroke-width:0.6;" x="590.334347" xlink:href="#m6666c4e6fe" y="315"/>
      </g>
     </g>
    </g>
    <g id="xtick_56">
     <g id="line2d_56">
      <g>
       <use style="stroke:#000000;stroke-width:0.6;" x="602.206687" xlink:href="#m6666c4e6fe" y="315"/>
      </g>
     </g>
    </g>
    <g id="xtick_57">
     <g id="line2d_57">
      <g>
       <use style="stroke:#000000;stroke-width:0.6;" x="614.079027" xlink:href="#m6666c4e6fe" y="315"/>
      </g>
     </g>
    </g>
    <g id="xtick_58">
     <g id="line2d_58">
      <g>
       <use style="stroke:#000000;stroke-width:0.6;" x="637.823708" xlink:href="#m6666c4e6fe" y="315"/>
      </g>
     </g>
    </g>
    <g id="text_12">
     <!-- date -->
     <g transform="translate(357.725 354.474375)scale(0.1 -0.1)">
      <defs>
       <path d="M 45.40625 46.390625 
L 45.40625 75.984375 
L 54.390625 75.984375 
L 54.390625 0 
L 45.40625 0 
L 45.40625 8.203125 
Q 42.578125 3.328125 38.25 0.953125 
Q 33.9375 -1.421875 27.875 -1.421875 
Q 17.96875 -1.421875 11.734375 6.484375 
Q 5.515625 14.40625 5.515625 27.296875 
Q 5.515625 40.1875 11.734375 48.09375 
Q 17.96875 56 27.875 56 
Q 33.9375 56 38.25 53.625 
Q 42.578125 51.265625 45.40625 46.390625 
z
M 14.796875 27.296875 
Q 14.796875 17.390625 18.875 11.75 
Q 22.953125 6.109375 30.078125 6.109375 
Q 37.203125 6.109375 41.296875 11.75 
Q 45.40625 17.390625 45.40625 27.296875 
Q 45.40625 37.203125 41.296875 42.84375 
Q 37.203125 48.484375 30.078125 48.484375 
Q 22.953125 48.484375 18.875 42.84375 
Q 14.796875 37.203125 14.796875 27.296875 
z
" id="DejaVuSans-100"/>
      </defs>
      <use xlink:href="#DejaVuSans-100"/>
      <use x="63.476562" xlink:href="#DejaVuSans-97"/>
      <use x="124.755859" xlink:href="#DejaVuSans-116"/>
      <use x="163.964844" xlink:href="#DejaVuSans-101"/>
     </g>
    </g>
   </g>
   <g id="matplotlib.axis_2">
    <g id="ytick_1">
     <g id="line2d_59">
      <path clip-path="url(#p4fd18bad0c)" d="M 90 303.783411 
L 648 303.783411 
" style="fill:none;stroke:#b0b0b0;stroke-dasharray:0.8,1.32;stroke-dashoffset:0;stroke-width:0.8;"/>
     </g>
     <g id="line2d_60">
      <defs>
       <path d="M 0 0 
L -3.5 0 
" id="mb7a76f6fff" style="stroke:#000000;stroke-width:0.8;"/>
      </defs>
      <g>
       <use style="stroke:#000000;stroke-width:0.8;" x="90" xlink:href="#mb7a76f6fff" y="303.783411"/>
      </g>
     </g>
     <g id="text_13">
      <!-- 0.4 -->
      <g transform="translate(67.096875 307.58263)scale(0.1 -0.1)">
       <defs>
        <path d="M 10.6875 12.40625 
L 21 12.40625 
L 21 0 
L 10.6875 0 
z
" id="DejaVuSans-46"/>
        <path d="M 37.796875 64.3125 
L 12.890625 25.390625 
L 37.796875 25.390625 
z
M 35.203125 72.90625 
L 47.609375 72.90625 
L 47.609375 25.390625 
L 58.015625 25.390625 
L 58.015625 17.1875 
L 47.609375 17.1875 
L 47.609375 0 
L 37.796875 0 
L 37.796875 17.1875 
L 4.890625 17.1875 
L 4.890625 26.703125 
z
" id="DejaVuSans-52"/>
       </defs>
       <use xlink:href="#DejaVuSans-48"/>
       <use x="63.623047" xlink:href="#DejaVuSans-46"/>
       <use x="95.410156" xlink:href="#DejaVuSans-52"/>
      </g>
     </g>
    </g>
    <g id="ytick_2">
     <g id="line2d_61">
      <path clip-path="url(#p4fd18bad0c)" d="M 90 270.957122 
L 648 270.957122 
" style="fill:none;stroke:#b0b0b0;stroke-dasharray:0.8,1.32;stroke-dashoffset:0;stroke-width:0.8;"/>
     </g>
     <g id="line2d_62">
      <g>
       <use style="stroke:#000000;stroke-width:0.8;" x="90" xlink:href="#mb7a76f6fff" y="270.957122"/>
      </g>
     </g>
     <g id="text_14">
      <!-- 0.6 -->
      <g transform="translate(67.096875 274.756341)scale(0.1 -0.1)">
       <defs>
        <path d="M 33.015625 40.375 
Q 26.375 40.375 22.484375 35.828125 
Q 18.609375 31.296875 18.609375 23.390625 
Q 18.609375 15.53125 22.484375 10.953125 
Q 26.375 6.390625 33.015625 6.390625 
Q 39.65625 6.390625 43.53125 10.953125 
Q 47.40625 15.53125 47.40625 23.390625 
Q 47.40625 31.296875 43.53125 35.828125 
Q 39.65625 40.375 33.015625 40.375 
z
M 52.59375 71.296875 
L 52.59375 62.3125 
Q 48.875 64.0625 45.09375 64.984375 
Q 41.3125 65.921875 37.59375 65.921875 
Q 27.828125 65.921875 22.671875 59.328125 
Q 17.53125 52.734375 16.796875 39.40625 
Q 19.671875 43.65625 24.015625 45.921875 
Q 28.375 48.1875 33.59375 48.1875 
Q 44.578125 48.1875 50.953125 41.515625 
Q 57.328125 34.859375 57.328125 23.390625 
Q 57.328125 12.15625 50.6875 5.359375 
Q 44.046875 -1.421875 33.015625 -1.421875 
Q 20.359375 -1.421875 13.671875 8.265625 
Q 6.984375 17.96875 6.984375 36.375 
Q 6.984375 53.65625 15.1875 63.9375 
Q 23.390625 74.21875 37.203125 74.21875 
Q 40.921875 74.21875 44.703125 73.484375 
Q 48.484375 72.75 52.59375 71.296875 
z
" id="DejaVuSans-54"/>
       </defs>
       <use xlink:href="#DejaVuSans-48"/>
       <use x="63.623047" xlink:href="#DejaVuSans-46"/>
       <use x="95.410156" xlink:href="#DejaVuSans-54"/>
      </g>
     </g>
    </g>
    <g id="ytick_3">
     <g id="line2d_63">
      <path clip-path="url(#p4fd18bad0c)" d="M 90 238.130833 
L 648 238.130833 
" style="fill:none;stroke:#b0b0b0;stroke-dasharray:0.8,1.32;stroke-dashoffset:0;stroke-width:0.8;"/>
     </g>
     <g id="line2d_64">
      <g>
       <use style="stroke:#000000;stroke-width:0.8;" x="90" xlink:href="#mb7a76f6fff" y="238.130833"/>
      </g>
     </g>
     <g id="text_15">
      <!-- 0.8 -->
      <g transform="translate(67.096875 241.930052)scale(0.1 -0.1)">
       <defs>
        <path d="M 31.78125 34.625 
Q 24.75 34.625 20.71875 30.859375 
Q 16.703125 27.09375 16.703125 20.515625 
Q 16.703125 13.921875 20.71875 10.15625 
Q 24.75 6.390625 31.78125 6.390625 
Q 38.8125 6.390625 42.859375 10.171875 
Q 46.921875 13.96875 46.921875 20.515625 
Q 46.921875 27.09375 42.890625 30.859375 
Q 38.875 34.625 31.78125 34.625 
z
M 21.921875 38.8125 
Q 15.578125 40.375 12.03125 44.71875 
Q 8.5 49.078125 8.5 55.328125 
Q 8.5 64.0625 14.71875 69.140625 
Q 20.953125 74.21875 31.78125 74.21875 
Q 42.671875 74.21875 48.875 69.140625 
Q 55.078125 64.0625 55.078125 55.328125 
Q 55.078125 49.078125 51.53125 44.71875 
Q 48 40.375 41.703125 38.8125 
Q 48.828125 37.15625 52.796875 32.3125 
Q 56.78125 27.484375 56.78125 20.515625 
Q 56.78125 9.90625 50.3125 4.234375 
Q 43.84375 -1.421875 31.78125 -1.421875 
Q 19.734375 -1.421875 13.25 4.234375 
Q 6.78125 9.90625 6.78125 20.515625 
Q 6.78125 27.484375 10.78125 32.3125 
Q 14.796875 37.15625 21.921875 38.8125 
z
M 18.3125 54.390625 
Q 18.3125 48.734375 21.84375 45.5625 
Q 25.390625 42.390625 31.78125 42.390625 
Q 38.140625 42.390625 41.71875 45.5625 
Q 45.3125 48.734375 45.3125 54.390625 
Q 45.3125 60.0625 41.71875 63.234375 
Q 38.140625 66.40625 31.78125 66.40625 
Q 25.390625 66.40625 21.84375 63.234375 
Q 18.3125 60.0625 18.3125 54.390625 
z
" id="DejaVuSans-56"/>
       </defs>
       <use xlink:href="#DejaVuSans-48"/>
       <use x="63.623047" xlink:href="#DejaVuSans-46"/>
       <use x="95.410156" xlink:href="#DejaVuSans-56"/>
      </g>
     </g>
    </g>
    <g id="ytick_4">
     <g id="line2d_65">
      <path clip-path="url(#p4fd18bad0c)" d="M 90 205.304544 
L 648 205.304544 
" style="fill:none;stroke:#b0b0b0;stroke-dasharray:0.8,1.32;stroke-dashoffset:0;stroke-width:0.8;"/>
     </g>
     <g id="line2d_66">
      <g>
       <use style="stroke:#000000;stroke-width:0.8;" x="90" xlink:href="#mb7a76f6fff" y="205.304544"/>
      </g>
     </g>
     <g id="text_16">
      <!-- 1.0 -->
      <g transform="translate(67.096875 209.103763)scale(0.1 -0.1)">
       <use xlink:href="#DejaVuSans-49"/>
       <use x="63.623047" xlink:href="#DejaVuSans-46"/>
       <use x="95.410156" xlink:href="#DejaVuSans-48"/>
      </g>
     </g>
    </g>
    <g id="ytick_5">
     <g id="line2d_67">
      <path clip-path="url(#p4fd18bad0c)" d="M 90 172.478256 
L 648 172.478256 
" style="fill:none;stroke:#b0b0b0;stroke-dasharray:0.8,1.32;stroke-dashoffset:0;stroke-width:0.8;"/>
     </g>
     <g id="line2d_68">
      <g>
       <use style="stroke:#000000;stroke-width:0.8;" x="90" xlink:href="#mb7a76f6fff" y="172.478256"/>
      </g>
     </g>
     <g id="text_17">
      <!-- 1.2 -->
      <g transform="translate(67.096875 176.277474)scale(0.1 -0.1)">
       <use xlink:href="#DejaVuSans-49"/>
       <use x="63.623047" xlink:href="#DejaVuSans-46"/>
       <use x="95.410156" xlink:href="#DejaVuSans-50"/>
      </g>
     </g>
    </g>
    <g id="ytick_6">
     <g id="line2d_69">
      <path clip-path="url(#p4fd18bad0c)" d="M 90 139.651967 
L 648 139.651967 
" style="fill:none;stroke:#b0b0b0;stroke-dasharray:0.8,1.32;stroke-dashoffset:0;stroke-width:0.8;"/>
     </g>
     <g id="line2d_70">
      <g>
       <use style="stroke:#000000;stroke-width:0.8;" x="90" xlink:href="#mb7a76f6fff" y="139.651967"/>
      </g>
     </g>
     <g id="text_18">
      <!-- 1.4 -->
      <g transform="translate(67.096875 143.451186)scale(0.1 -0.1)">
       <use xlink:href="#DejaVuSans-49"/>
       <use x="63.623047" xlink:href="#DejaVuSans-46"/>
       <use x="95.410156" xlink:href="#DejaVuSans-52"/>
      </g>
     </g>
    </g>
    <g id="ytick_7">
     <g id="line2d_71">
      <path clip-path="url(#p4fd18bad0c)" d="M 90 106.825678 
L 648 106.825678 
" style="fill:none;stroke:#b0b0b0;stroke-dasharray:0.8,1.32;stroke-dashoffset:0;stroke-width:0.8;"/>
     </g>
     <g id="line2d_72">
      <g>
       <use style="stroke:#000000;stroke-width:0.8;" x="90" xlink:href="#mb7a76f6fff" y="106.825678"/>
      </g>
     </g>
     <g id="text_19">
      <!-- 1.6 -->
      <g transform="translate(67.096875 110.624897)scale(0.1 -0.1)">
       <use xlink:href="#DejaVuSans-49"/>
       <use x="63.623047" xlink:href="#DejaVuSans-46"/>
       <use x="95.410156" xlink:href="#DejaVuSans-54"/>
      </g>
     </g>
    </g>
    <g id="ytick_8">
     <g id="line2d_73">
      <path clip-path="url(#p4fd18bad0c)" d="M 90 73.999389 
L 648 73.999389 
" style="fill:none;stroke:#b0b0b0;stroke-dasharray:0.8,1.32;stroke-dashoffset:0;stroke-width:0.8;"/>
     </g>
     <g id="line2d_74">
      <g>
       <use style="stroke:#000000;stroke-width:0.8;" x="90" xlink:href="#mb7a76f6fff" y="73.999389"/>
      </g>
     </g>
     <g id="text_20">
      <!-- 1.8 -->
      <g transform="translate(67.096875 77.798608)scale(0.1 -0.1)">
       <use xlink:href="#DejaVuSans-49"/>
       <use x="63.623047" xlink:href="#DejaVuSans-46"/>
       <use x="95.410156" xlink:href="#DejaVuSans-56"/>
      </g>
     </g>
    </g>
   </g>
   <g id="line2d_75">
    <path clip-path="url(#p4fd18bad0c)" d="M 90 210.036838 
L 91.696049 209.318794 
L 93.392097 209.782196 
L 95.088146 208.499587 
L 96.784195 208.468667 
L 98.480243 209.31704 
L 100.176292 209.541766 
L 101.87234 210.03382 
L 103.568389 211.995288 
L 106.960486 215.13743 
L 108.656535 216.315417 
L 110.352584 219.218857 
L 112.048632 223.18606 
L 113.744681 226.497379 
L 115.440729 231.59788 
L 117.136778 235.285825 
L 118.832827 240.383572 
L 122.224924 248.648945 
L 123.920973 252.005256 
L 127.31307 259.663136 
L 129.009119 262.515956 
L 130.705167 264.916184 
L 132.401216 266.665888 
L 134.097264 269.623651 
L 135.793313 270.343782 
L 137.489362 271.512407 
L 139.18541 271.363027 
L 142.577508 271.704896 
L 144.273556 272.414124 
L 145.969605 270.316329 
L 149.361702 268.165178 
L 151.057751 266.770951 
L 152.753799 265.205084 
L 154.449848 262.628422 
L 156.145897 261.701068 
L 157.841945 259.329791 
L 161.234043 253.107328 
L 162.930091 250.522329 
L 164.62614 247.089895 
L 166.322188 243.170088 
L 168.018237 240.391673 
L 169.714286 235.868277 
L 171.410334 230.638524 
L 173.106383 225.83736 
L 174.802432 221.699612 
L 176.49848 215.067434 
L 178.194529 210.737024 
L 179.890578 204.71521 
L 181.586626 200.032516 
L 186.674772 180.868016 
L 188.370821 175.775445 
L 190.066869 169.713954 
L 191.762918 162.136204 
L 193.458967 155.524221 
L 195.155015 150.175132 
L 196.851064 143.599749 
L 201.93921 131.578144 
L 203.635258 128.070816 
L 205.331307 125.426952 
L 207.027356 122.44972 
L 208.723404 121.571056 
L 210.419453 119.93986 
L 212.115502 120.873292 
L 213.81155 121.263119 
L 217.203647 124.854004 
L 218.899696 128.967999 
L 220.595745 130.289361 
L 222.291793 130.776405 
L 223.987842 133.683635 
L 225.683891 136.145519 
L 227.379939 137.63714 
L 229.075988 137.307884 
L 230.772036 138.80727 
L 232.468085 139.681305 
L 234.164134 139.115311 
L 235.860182 139.898271 
L 237.556231 140.83021 
L 240.948328 141.188314 
L 242.644377 142.297305 
L 244.340426 142.316109 
L 246.036474 143.118494 
L 247.732523 142.770875 
L 249.428571 142.926538 
L 251.12462 143.236872 
L 252.820669 143.82047 
L 254.516717 142.292998 
L 256.212766 141.847475 
L 257.908815 144.877166 
L 259.604863 143.336997 
L 261.300912 143.435405 
L 262.99696 143.654209 
L 264.693009 145.541413 
L 266.389058 146.411687 
L 269.781155 149.432785 
L 271.477204 151.101884 
L 276.56535 158.244061 
L 278.261398 160.140395 
L 279.957447 165.24765 
L 281.653495 170.885474 
L 283.349544 172.428365 
L 285.045593 177.251315 
L 286.741641 179.902896 
L 288.43769 183.948319 
L 290.133739 187.531729 
L 291.829787 190.698874 
L 293.525836 193.343251 
L 295.221884 195.049615 
L 296.917933 198.020974 
L 298.613982 200.116984 
L 300.31003 200.953449 
L 303.702128 202.88515 
L 305.398176 203.149089 
L 307.094225 204.409169 
L 308.790274 204.618641 
L 310.486322 203.54613 
L 312.182371 203.215963 
L 313.878419 202.44031 
L 315.574468 200.533732 
L 317.270517 200.223794 
L 318.966565 199.040245 
L 320.662614 196.845547 
L 324.054711 193.146251 
L 325.75076 190.546423 
L 327.446809 187.442367 
L 329.142857 184.930814 
L 330.838906 179.983875 
L 334.231003 173.031148 
L 335.927052 168.641803 
L 337.6231 165.759111 
L 339.319149 160.584952 
L 341.015198 156.9838 
L 342.711246 152.488234 
L 344.407295 148.341418 
L 346.103343 145.609813 
L 347.799392 142.222943 
L 349.495441 139.780662 
L 351.191489 137.937246 
L 352.887538 139.214852 
L 354.583587 138.11888 
L 356.279635 140.118201 
L 357.975684 141.858133 
L 359.671733 144.4145 
L 361.367781 148.113439 
L 363.06383 150.754359 
L 364.759878 156.730711 
L 366.455927 161.553858 
L 373.240122 185.514324 
L 374.93617 192.075491 
L 376.632219 196.713548 
L 380.024316 209.030909 
L 381.720365 213.972224 
L 383.416413 219.483782 
L 386.808511 228.917225 
L 390.200608 237.177366 
L 391.896657 242.615551 
L 393.592705 246.864507 
L 395.288754 250.644336 
L 396.984802 254.055512 
L 400.3769 260.273112 
L 402.072948 263.962352 
L 403.768997 266.66716 
L 405.465046 268.9038 
L 407.161094 271.518623 
L 408.857143 273.447149 
L 410.553191 275.799119 
L 412.24924 277.448067 
L 413.945289 278.922447 
L 415.641337 279.363801 
L 417.337386 280.588449 
L 419.033435 280.733831 
L 420.729483 280.76491 
L 424.121581 279.984942 
L 425.817629 279.987928 
L 427.513678 279.056464 
L 429.209726 277.464497 
L 430.905775 276.894765 
L 432.601824 276.025307 
L 434.297872 274.451545 
L 435.993921 272.135386 
L 437.68997 270.633014 
L 441.082067 265.531638 
L 442.778116 262.39197 
L 444.474164 260.171851 
L 446.170213 256.944571 
L 447.866261 253.116563 
L 449.56231 249.739382 
L 451.258359 246.114229 
L 452.954407 241.91664 
L 454.650456 238.604049 
L 456.346505 235.853228 
L 458.042553 232.08367 
L 459.738602 227.483528 
L 463.130699 220.901778 
L 464.826748 216.990617 
L 466.522796 213.606255 
L 469.914894 208.400815 
L 471.610942 205.484087 
L 473.306991 202.855763 
L 475.00304 201.839272 
L 476.699088 199.028836 
L 478.395137 196.711163 
L 480.091185 195.405463 
L 481.787234 194.641096 
L 483.483283 193.082296 
L 485.179331 191.84708 
L 486.87538 189.334995 
L 488.571429 189.429182 
L 490.267477 187.078154 
L 491.963526 185.114536 
L 493.659574 183.572837 
L 495.355623 183.90164 
L 497.051672 184.400417 
L 498.74772 183.551676 
L 500.443769 185.11243 
L 502.139818 183.821419 
L 503.835866 182.735447 
L 505.531915 180.790522 
L 507.227964 178.328766 
L 508.924012 176.45867 
L 510.620061 175.039795 
L 512.316109 172.11705 
L 514.012158 166.998165 
L 515.708207 161.415058 
L 517.404255 158.378212 
L 520.796353 146.885095 
L 522.492401 140.338455 
L 524.18845 134.578988 
L 525.884498 126.197617 
L 527.580547 121.349689 
L 532.668693 101.685368 
L 534.364742 99.178333 
L 536.06079 95.669334 
L 537.756839 94.019048 
L 539.452888 93.449665 
L 541.148936 94.127785 
L 542.844985 94.314683 
L 544.541033 97.794622 
L 546.237082 100.745076 
L 547.933131 105.426381 
L 549.629179 107.559976 
L 551.325228 114.40225 
L 553.021277 116.299367 
L 556.413374 127.71699 
L 558.109422 131.445014 
L 559.805471 136.820938 
L 561.50152 141.51886 
L 563.197568 147.000341 
L 566.589666 153.758979 
L 568.285714 160.336277 
L 569.981763 161.994172 
L 571.677812 164.225498 
L 573.37386 167.357057 
L 575.069909 169.163673 
L 576.765957 170.525092 
L 578.462006 172.291507 
L 580.158055 173.874016 
L 581.854103 173.354073 
L 583.550152 175.305025 
L 585.246201 175.548446 
L 586.942249 176.483463 
L 588.638298 176.602625 
L 590.334347 178.204103 
L 592.030395 179.408627 
L 593.726444 181.059751 
L 595.422492 180.812453 
L 597.118541 181.025417 
L 598.81459 185.40631 
L 600.510638 186.790643 
L 603.902736 192.803051 
L 605.598784 195.39732 
L 607.294833 200.369308 
L 608.990881 204.416028 
L 610.68693 209.002368 
L 614.079027 219.15026 
L 619.167173 232.032663 
L 620.863222 235.8709 
L 624.255319 241.535916 
L 625.951368 244.747527 
L 629.343465 249.100296 
L 631.039514 251.847015 
L 632.735562 252.329847 
L 636.12766 254.072386 
L 637.823708 256.071996 
L 639.519757 255.521545 
L 641.215805 257.014278 
L 642.911854 257.581597 
L 644.607903 258.296694 
L 646.303951 257.177722 
L 648 256.711681 
L 651.392097 256.884002 
L 653.088146 256.616818 
L 654.784195 256.794131 
L 656.480243 258.326506 
L 658.176292 258.766827 
L 659.87234 257.696123 
L 661.568389 258.210752 
L 661.568389 258.210752 
" style="fill:none;stroke:#fc997a;stroke-linecap:square;stroke-width:1.5;"/>
   </g>
   <g id="line2d_76">
    <path clip-path="url(#p4fd18bad0c)" d="M 90 205.304544 
L 648 205.304544 
" style="fill:none;stroke:#000000;stroke-dasharray:3.7,1.6;stroke-dashoffset:0;"/>
   </g>
   <g id="patch_3">
    <path d="M 90 315 
L 90 43.2 
" style="fill:none;stroke:#000000;stroke-linecap:square;stroke-linejoin:miter;stroke-width:0.8;"/>
   </g>
   <g id="patch_4">
    <path d="M 648 315 
L 648 43.2 
" style="fill:none;stroke:#000000;stroke-linecap:square;stroke-linejoin:miter;stroke-width:0.8;"/>
   </g>
   <g id="patch_5">
    <path d="M 90 315 
L 648 315 
" style="fill:none;stroke:#000000;stroke-linecap:square;stroke-linejoin:miter;stroke-width:0.8;"/>
   </g>
   <g id="patch_6">
    <path d="M 90 43.2 
L 648 43.2 
" style="fill:none;stroke:#000000;stroke-linecap:square;stroke-linejoin:miter;stroke-width:0.8;"/>
   </g>
   <g id="text_21">
    <!-- 621   $R_t$ -->
    <g transform="translate(325.44 37.2)scale(0.12 -0.12)">
     <defs>
      <path id="DejaVuSans-32"/>
      <path d="M 47.359375 27.828125 
L 47.359375 0 
L 38.28125 0 
L 38.28125 27.828125 
Q 38.28125 31.390625 37.765625 34.265625 
Q 37.25 37.15625 36 39.71875 
Q 34.765625 42.28125 32.8125 43.984375 
Q 30.859375 45.703125 27.78125 46.703125 
Q 24.703125 47.703125 20.703125 47.703125 
L 4.296875 47.703125 
L 4.296875 54.6875 
L 20.65625 54.6875 
Q 26.8125 54.6875 31.46875 53.390625 
Q 36.140625 52.09375 39.109375 49.828125 
Q 42.09375 47.5625 43.96875 44.109375 
Q 45.84375 40.671875 46.59375 36.734375 
Q 47.359375 32.8125 47.359375 27.828125 
z
" id="DejaVuSans-1512"/>
      <path d="M 31.203125 29.59375 
Q 31.203125 22.5625 32.890625 14.75 
Q 34.578125 6.9375 38.328125 0 
L 28.609375 0 
Q 25.78125 6.59375 24.5625 12.0625 
Q 22.953125 8.109375 21.234375 5.59375 
Q 19.53125 3.078125 17.578125 1.75 
Q 15.625 0.4375 13.671875 -0.015625 
Q 11.71875 -0.484375 9.03125 -0.484375 
Q 6.78125 -0.484375 4.296875 0.203125 
L 4.296875 8.453125 
Q 5.953125 7.953125 7.71875 7.953125 
Q 9.859375 7.953125 11.546875 8.265625 
Q 13.234375 8.59375 15.328125 9.859375 
Q 17.4375 11.140625 18.796875 13.359375 
Q 20.171875 15.578125 21.140625 19.71875 
Q 22.125 23.875 22.125 29.59375 
Q 22.125 36.96875 20.875 40.890625 
Q 19.625 44.828125 17.15625 46.265625 
Q 14.703125 47.703125 10.203125 47.703125 
L 5.8125 47.703125 
L 5.8125 54.6875 
L 10.5 54.6875 
Q 21.296875 54.6875 26.25 48.734375 
Q 31.203125 42.78125 31.203125 29.59375 
z
" id="DejaVuSans-1490"/>
      <path d="M 18.171875 54.6875 
L 18.171875 0 
L 9.078125 0 
L 9.078125 54.6875 
z
" id="DejaVuSans-1493"/>
      <path d="M 30.328125 54.6875 
L 30.328125 47.703125 
L 26.421875 47.703125 
Q 22.171875 47.703125 20.578125 43.921875 
Q 19 40.140625 19 30.90625 
L 19 0 
L 9.90625 0 
L 9.90625 30.90625 
Q 9.90625 37.109375 11.78125 41.453125 
Q 13.671875 45.796875 16.40625 47.703125 
L 4.296875 47.703125 
L 4.296875 54.6875 
z
" id="DejaVuSans-1494"/>
      <path d="M 43.75 20.0625 
L 57.671875 0 
L 47.078125 0 
L 26.765625 29.296875 
Q 25.390625 28.609375 24.53125 28.09375 
Q 23.6875 27.59375 22.3125 26.296875 
Q 20.953125 25 20.140625 23.40625 
Q 19.34375 21.828125 18.703125 19.140625 
Q 18.0625 16.453125 18.0625 13.09375 
L 18.0625 0 
L 9.078125 0 
L 9.078125 9.03125 
Q 9.078125 12.984375 9.5625 16.359375 
Q 10.0625 19.734375 10.8125 22.078125 
Q 11.578125 24.421875 12.796875 26.390625 
Q 14.015625 28.375 15.109375 29.59375 
Q 16.21875 30.8125 17.796875 31.875 
Q 19.390625 32.953125 20.453125 33.46875 
Q 21.53125 33.984375 23.046875 34.625 
L 9.1875 54.6875 
L 19.78125 54.6875 
L 40.09375 25.390625 
Q 41.40625 26.03125 42.25 26.53125 
Q 43.109375 27.046875 44.46875 28.359375 
Q 45.84375 29.6875 46.671875 31.265625 
Q 47.515625 32.859375 48.140625 35.546875 
Q 48.78125 38.234375 48.78125 41.609375 
L 48.78125 54.6875 
L 57.765625 54.6875 
L 57.765625 45.65625 
Q 57.765625 41.65625 57.265625 38.3125 
Q 56.78125 34.96875 56.03125 32.59375 
Q 55.28125 30.21875 54.046875 28.234375 
Q 52.828125 26.265625 51.703125 25.0625 
Q 50.59375 23.875 49.03125 22.796875 
Q 47.46875 21.734375 46.390625 21.21875 
Q 45.3125 20.703125 43.75 20.0625 
z
" id="DejaVuSans-1488"/>
      <path d="M 25.203125 64.796875 
L 20.21875 38.921875 
L 32.90625 38.921875 
Q 40.375 38.921875 44.984375 43.046875 
Q 49.609375 47.171875 49.609375 53.8125 
Q 49.609375 59.125 46.5 61.953125 
Q 43.40625 64.796875 37.59375 64.796875 
z
M 43.3125 35.015625 
Q 46.4375 34.28125 48.515625 31.390625 
Q 50.59375 28.515625 53.328125 19.921875 
L 59.515625 0 
L 49.125 0 
L 43.40625 18.703125 
Q 41.21875 25.921875 38.328125 28.359375 
Q 35.453125 30.8125 29.5 30.8125 
L 18.609375 30.8125 
L 12.59375 0 
L 2.6875 0 
L 16.890625 72.90625 
L 39.109375 72.90625 
Q 49.21875 72.90625 54.609375 68.328125 
Q 60.015625 63.765625 60.015625 55.171875 
Q 60.015625 47.5625 55.421875 41.984375 
Q 50.828125 36.421875 43.3125 35.015625 
z
" id="DejaVuSans-Oblique-82"/>
      <path d="M 42.28125 54.6875 
L 40.921875 47.703125 
L 23 47.703125 
L 17.1875 18.015625 
Q 16.890625 16.359375 16.75 15.234375 
Q 16.609375 14.109375 16.609375 13.484375 
Q 16.609375 10.359375 18.484375 8.9375 
Q 20.359375 7.515625 24.515625 7.515625 
L 33.59375 7.515625 
L 32.078125 0 
L 23.484375 0 
Q 15.484375 0 11.546875 3.125 
Q 7.625 6.25 7.625 12.59375 
Q 7.625 13.71875 7.765625 15.0625 
Q 7.90625 16.40625 8.203125 18.015625 
L 14.015625 47.703125 
L 6.390625 47.703125 
L 7.8125 54.6875 
L 15.28125 54.6875 
L 18.3125 70.21875 
L 27.296875 70.21875 
L 24.3125 54.6875 
z
" id="DejaVuSans-Oblique-116"/>
     </defs>
     <use transform="translate(0 0.78125)" xlink:href="#DejaVuSans-54"/>
     <use transform="translate(63.623047 0.78125)" xlink:href="#DejaVuSans-50"/>
     <use transform="translate(127.246094 0.78125)" xlink:href="#DejaVuSans-49"/>
     <use transform="translate(190.869141 0.78125)" xlink:href="#DejaVuSans-32"/>
     <use transform="translate(222.65625 0.78125)" xlink:href="#DejaVuSans-1512"/>
     <use transform="translate(279.101562 0.78125)" xlink:href="#DejaVuSans-1512"/>
     <use transform="translate(335.546875 0.78125)" xlink:href="#DejaVuSans-1490"/>
     <use transform="translate(376.757812 0.78125)" xlink:href="#DejaVuSans-32"/>
     <use transform="translate(408.544922 0.78125)" xlink:href="#DejaVuSans-1512"/>
     <use transform="translate(464.990234 0.78125)" xlink:href="#DejaVuSans-1493"/>
     <use transform="translate(492.236328 0.78125)" xlink:href="#DejaVuSans-1494"/>
     <use transform="translate(526.855469 0.78125)" xlink:href="#DejaVuSans-1488"/>
     <use transform="translate(593.701172 0.78125)" xlink:href="#DejaVuSans-32"/>
     <use transform="translate(625.488281 0.78125)" xlink:href="#DejaVuSans-Oblique-82"/>
     <use transform="translate(694.970703 -15.625)scale(0.7)" xlink:href="#DejaVuSans-Oblique-116"/>
    </g>
   </g>
  </g>
 </g>
 <defs>
  <clipPath id="p4fd18bad0c">
   <rect height="271.8" width="558" x="90" y="43.2"/>
  </clipPath>
 </defs>
</svg>
