<?xml version="1.0" encoding="utf-8" standalone="no"?>
<!DOCTYPE svg PUBLIC "-//W3C//DTD SVG 1.1//EN"
  "http://www.w3.org/Graphics/SVG/1.1/DTD/svg11.dtd">
<!-- Created with matplotlib (https://matplotlib.org/) -->
<svg height="360pt" version="1.1" viewBox="0 0 720 360" width="720pt" xmlns="http://www.w3.org/2000/svg" xmlns:xlink="http://www.w3.org/1999/xlink">
 <metadata>
  <rdf:RDF xmlns:cc="http://creativecommons.org/ns#" xmlns:dc="http://purl.org/dc/elements/1.1/" xmlns:rdf="http://www.w3.org/1999/02/22-rdf-syntax-ns#">
   <cc:Work>
    <dc:type rdf:resource="http://purl.org/dc/dcmitype/StillImage"/>
    <dc:date>2021-05-03T02:42:07.279777</dc:date>
    <dc:format>image/svg+xml</dc:format>
    <dc:creator>
     <cc:Agent>
      <dc:title>Matplotlib v3.3.2, https://matplotlib.org/</dc:title>
     </cc:Agent>
    </dc:creator>
   </cc:Work>
  </rdf:RDF>
 </metadata>
 <defs>
  <style type="text/css">*{stroke-linecap:butt;stroke-linejoin:round;}</style>
 </defs>
 <g id="figure_1">
  <g id="patch_1">
   <path d="M 0 360 
L 720 360 
L 720 0 
L 0 0 
z
" style="fill:#ffffff;"/>
  </g>
  <g id="axes_1">
   <g id="patch_2">
    <path d="M 90 315 
L 648 315 
L 648 43.2 
L 90 43.2 
z
" style="fill:#ffffff;"/>
   </g>
   <g id="PolyCollection_1">
    <defs>
     <path d="M 90 -128.310053 
L 90 -205.289678 
L 91.405542 -203.09234 
L 92.811083 -202.395333 
L 94.216625 -197.478595 
L 95.622166 -201.073145 
L 97.027708 -198.963012 
L 98.433249 -191.145085 
L 99.838791 -191.484001 
L 101.244332 -193.449623 
L 102.649874 -190.326802 
L 104.055416 -188.759764 
L 105.460957 -185.153299 
L 106.866499 -178.976304 
L 108.27204 -176.511841 
L 109.677582 -176.809495 
L 111.083123 -172.001162 
L 112.488665 -165.934004 
L 113.894207 -164.188603 
L 115.299748 -157.833247 
L 116.70529 -152.321741 
L 118.110831 -149.659849 
L 119.516373 -144.683817 
L 120.921914 -142.383634 
L 122.327456 -138.164555 
L 123.732997 -136.63025 
L 125.138539 -134.951493 
L 126.544081 -133.48018 
L 127.949622 -132.237098 
L 129.355164 -130.16483 
L 130.760705 -127.996788 
L 132.166247 -129.203639 
L 133.571788 -130.200391 
L 134.97733 -127.334114 
L 136.382872 -129.657984 
L 137.788413 -131.170285 
L 139.193955 -133.530384 
L 140.599496 -132.90891 
L 142.005038 -136.373899 
L 143.410579 -136.743333 
L 144.816121 -139.173546 
L 146.221662 -142.428601 
L 147.627204 -146.229125 
L 149.032746 -148.252179 
L 150.438287 -151.568542 
L 151.843829 -155.335416 
L 153.24937 -156.721348 
L 154.654912 -162.47077 
L 156.060453 -166.426624 
L 157.465995 -172.929978 
L 158.871537 -175.818086 
L 160.277078 -181.328857 
L 161.68262 -188.936626 
L 163.088161 -195.173273 
L 164.493703 -198.596884 
L 165.899244 -205.943355 
L 167.304786 -209.173189 
L 168.710327 -217.169226 
L 170.115869 -220.888265 
L 171.521411 -232.879177 
L 172.926952 -238.685809 
L 174.332494 -246.122131 
L 175.738035 -253.335273 
L 177.143577 -260.412649 
L 178.549118 -264.634218 
L 179.95466 -269.808851 
L 181.360202 -276.7045 
L 182.765743 -274.075578 
L 184.171285 -277.576029 
L 185.576826 -281.283731 
L 186.982368 -285.189851 
L 188.387909 -284.602411 
L 189.793451 -285.526368 
L 191.198992 -288.895899 
L 192.604534 -284.417124 
L 194.010076 -279.937717 
L 195.415617 -282.464777 
L 196.821159 -282.82383 
L 198.2267 -276.333399 
L 199.632242 -271.611871 
L 201.037783 -269.08676 
L 202.443325 -271.325757 
L 203.848866 -265.699206 
L 205.254408 -267.333476 
L 206.65995 -263.500031 
L 208.065491 -263.312811 
L 209.471033 -261.411446 
L 210.876574 -262.699865 
L 212.282116 -257.530991 
L 213.687657 -261.559179 
L 215.093199 -261.417955 
L 216.498741 -262.391379 
L 217.904282 -263.778805 
L 219.309824 -258.646028 
L 220.715365 -255.94471 
L 222.120907 -256.48962 
L 223.526448 -258.84076 
L 224.93199 -252.705657 
L 226.337531 -257.958938 
L 227.743073 -254.626677 
L 229.148615 -257.724122 
L 230.554156 -258.313446 
L 231.959698 -258.563439 
L 233.365239 -254.080642 
L 234.770781 -257.945065 
L 236.176322 -253.21318 
L 237.581864 -250.138096 
L 238.987406 -248.43215 
L 240.392947 -244.174188 
L 241.798489 -245.962274 
L 243.20403 -240.759641 
L 244.609572 -243.313804 
L 246.015113 -241.372574 
L 247.420655 -233.423815 
L 248.826196 -227.373358 
L 250.231738 -223.71459 
L 251.63728 -220.821859 
L 253.042821 -218.934576 
L 254.448363 -215.806518 
L 255.853904 -209.683146 
L 257.259446 -206.023154 
L 258.664987 -204.267656 
L 260.070529 -199.498068 
L 261.476071 -196.529977 
L 262.881612 -194.655123 
L 264.287154 -195.2332 
L 265.692695 -195.802262 
L 267.098237 -194.460315 
L 268.503778 -189.9098 
L 269.90932 -192.232733 
L 271.314861 -195.423915 
L 272.720403 -194.693425 
L 274.125945 -197.628362 
L 275.531486 -194.549763 
L 276.937028 -199.241635 
L 278.342569 -200.622295 
L 279.748111 -203.984798 
L 281.153652 -203.549944 
L 282.559194 -205.433843 
L 283.964736 -208.502487 
L 285.370277 -210.256041 
L 286.775819 -212.351845 
L 288.18136 -217.492297 
L 289.586902 -220.161176 
L 290.992443 -223.749673 
L 292.397985 -228.618772 
L 293.803526 -227.660529 
L 295.209068 -237.338038 
L 296.61461 -239.790821 
L 298.020151 -244.479863 
L 299.425693 -247.416008 
L 300.831234 -247.498014 
L 302.236776 -251.297875 
L 303.642317 -258.371152 
L 305.047859 -259.156762 
L 306.453401 -260.336017 
L 307.858942 -263.745666 
L 309.264484 -257.730943 
L 310.670025 -256.822375 
L 312.075567 -258.218993 
L 313.481108 -252.675377 
L 314.88665 -248.342465 
L 316.292191 -245.59871 
L 317.697733 -241.562861 
L 319.103275 -237.607954 
L 320.508816 -231.015144 
L 321.914358 -224.712053 
L 323.319899 -220.076593 
L 324.725441 -216.335149 
L 326.130982 -212.034865 
L 327.536524 -202.87921 
L 328.942065 -199.287908 
L 330.347607 -190.646507 
L 331.753149 -186.838313 
L 333.15869 -179.868683 
L 334.564232 -174.713852 
L 335.969773 -170.6918 
L 337.375315 -166.516304 
L 338.780856 -161.751527 
L 340.186398 -156.992046 
L 341.59194 -153.160282 
L 342.997481 -148.960976 
L 344.403023 -148.847374 
L 345.808564 -145.925095 
L 347.214106 -142.352882 
L 348.619647 -136.306524 
L 350.025189 -134.41672 
L 351.43073 -131.021571 
L 352.836272 -127.23154 
L 354.241814 -126.225031 
L 355.647355 -124.123643 
L 357.052897 -122.939425 
L 358.458438 -121.39978 
L 359.86398 -120.124852 
L 361.269521 -119.820978 
L 362.675063 -119.583322 
L 364.080605 -119.397997 
L 365.486146 -118.609937 
L 366.891688 -119.586914 
L 368.297229 -119.938206 
L 369.702771 -120.21974 
L 371.108312 -121.801114 
L 372.513854 -123.307533 
L 373.919395 -123.054108 
L 375.324937 -124.426094 
L 376.730479 -125.544089 
L 378.13602 -130.600909 
L 379.541562 -129.213803 
L 380.947103 -131.651663 
L 382.352645 -136.46085 
L 383.758186 -140.665946 
L 385.163728 -140.53974 
L 386.56927 -144.808886 
L 387.974811 -148.498415 
L 389.380353 -153.112129 
L 390.785894 -157.017308 
L 392.191436 -163.203481 
L 393.596977 -166.462907 
L 395.002519 -169.573125 
L 396.40806 -176.9902 
L 397.813602 -173.605697 
L 399.219144 -179.696048 
L 400.624685 -184.101251 
L 402.030227 -188.319531 
L 403.435768 -190.87029 
L 404.84131 -196.317395 
L 406.246851 -193.877843 
L 407.652393 -197.786585 
L 409.057935 -200.575336 
L 410.463476 -200.477979 
L 411.869018 -206.590799 
L 413.274559 -205.801314 
L 414.680101 -210.52905 
L 416.085642 -212.27076 
L 417.491184 -212.867103 
L 418.896725 -210.909119 
L 420.302267 -212.538586 
L 421.707809 -214.445723 
L 423.11335 -221.471686 
L 424.518892 -213.809596 
L 425.924433 -218.590847 
L 427.329975 -216.796794 
L 428.735516 -217.383117 
L 430.141058 -219.048143 
L 431.546599 -220.013591 
L 432.952141 -219.783288 
L 434.357683 -224.186008 
L 435.763224 -218.897235 
L 437.168766 -228.825271 
L 438.574307 -226.3711 
L 439.979849 -227.63195 
L 441.38539 -234.442237 
L 442.790932 -237.824351 
L 444.196474 -239.310652 
L 445.602015 -245.180518 
L 447.007557 -251.415415 
L 448.413098 -258.007928 
L 449.81864 -268.448505 
L 451.224181 -266.685674 
L 452.629723 -272.517868 
L 454.035264 -279.49561 
L 455.440806 -285.111006 
L 456.846348 -295.246135 
L 458.251889 -301.20071 
L 459.657431 -296.299949 
L 461.062972 -299.228132 
L 462.468514 -300.201251 
L 463.874055 -304.445455 
L 465.279597 -302.220597 
L 466.685139 -301.405415 
L 468.09068 -300.327549 
L 469.496222 -292.754176 
L 470.901763 -292.142143 
L 472.307305 -290.595112 
L 473.712846 -287.551044 
L 475.118388 -277.271917 
L 476.523929 -274.611698 
L 477.929471 -264.37443 
L 479.335013 -262.552542 
L 480.740554 -258.280148 
L 482.146096 -253.949683 
L 483.551637 -248.570545 
L 484.957179 -242.16506 
L 486.36272 -234.781616 
L 487.768262 -231.225778 
L 489.173804 -234.617078 
L 490.579345 -229.501829 
L 491.984887 -227.60711 
L 493.390428 -227.700102 
L 494.79597 -223.643652 
L 496.201511 -221.883774 
L 497.607053 -220.556342 
L 499.012594 -220.443754 
L 500.418136 -223.134511 
L 501.823678 -217.801202 
L 503.229219 -218.438877 
L 504.634761 -220.116529 
L 506.040302 -214.293811 
L 507.445844 -214.714918 
L 508.851385 -211.66905 
L 510.256927 -216.218032 
L 511.662469 -212.130172 
L 513.06801 -210.539376 
L 514.473552 -208.066929 
L 515.879093 -208.396579 
L 517.284635 -202.367879 
L 518.690176 -203.294393 
L 520.095718 -194.309206 
L 521.501259 -190.440032 
L 522.906801 -188.449049 
L 524.312343 -183.423051 
L 525.717884 -180.214751 
L 527.123426 -174.468978 
L 528.528967 -171.014832 
L 529.934509 -168.699267 
L 531.34005 -166.820352 
L 532.745592 -166.944774 
L 534.151134 -161.552246 
L 535.556675 -156.849143 
L 536.962217 -159.567919 
L 538.367758 -156.868375 
L 539.7733 -157.812851 
L 541.178841 -154.73894 
L 542.584383 -155.831225 
L 543.989924 -154.982517 
L 545.395466 -154.12195 
L 546.801008 -152.29137 
L 548.206549 -155.521193 
L 549.612091 -155.520206 
L 551.017632 -153.399017 
L 552.423174 -154.873392 
L 553.828715 -153.82181 
L 555.234257 -152.49613 
L 556.639798 -151.690052 
L 558.04534 -152.835178 
L 559.450882 -150.585641 
L 560.856423 -147.631992 
L 562.261965 -148.65988 
L 563.667506 -146.377082 
L 565.073048 -146.163465 
L 566.478589 -143.126278 
L 567.884131 -138.640997 
L 569.289673 -141.466918 
L 570.695214 -135.401563 
L 572.100756 -133.252768 
L 573.506297 -133.231698 
L 574.911839 -131.759822 
L 576.31738 -131.848364 
L 577.722922 -130.18776 
L 579.128463 -130.460027 
L 580.534005 -129.115596 
L 581.939547 -128.746112 
L 583.345088 -132.245692 
L 584.75063 -130.440161 
L 586.156171 -127.483993 
L 587.561713 -131.573597 
L 588.967254 -130.061138 
L 590.372796 -127.635883 
L 591.778338 -129.475595 
L 593.183879 -129.984305 
L 594.589421 -128.614102 
L 595.994962 -127.738961 
L 597.400504 -126.540028 
L 598.806045 -125.899541 
L 600.211587 -122.381292 
L 601.617128 -123.850813 
L 603.02267 -118.854958 
L 604.428212 -118.483869 
L 605.833753 -119.150113 
L 607.239295 -118.219248 
L 608.644836 -117.671437 
L 610.050378 -117.344913 
L 611.455919 -115.860849 
L 612.861461 -114.927028 
L 614.267003 -113.275427 
L 615.672544 -113.937596 
L 617.078086 -113.711302 
L 618.483627 -111.197171 
L 619.889169 -111.196627 
L 621.29471 -111.578847 
L 622.700252 -112.078996 
L 624.105793 -112.474736 
L 625.511335 -113.563491 
L 626.916877 -110.596417 
L 628.322418 -111.412063 
L 629.72796 -113.28333 
L 631.133501 -112.635906 
L 632.539043 -109.243024 
L 633.944584 -110.61295 
L 635.350126 -116.925653 
L 636.755668 -116.619315 
L 638.161209 -116.409409 
L 639.566751 -113.932935 
L 640.972292 -117.631822 
L 642.377834 -116.410807 
L 643.783375 -116.814269 
L 645.188917 -116.075703 
L 646.594458 -119.012353 
L 648 -121.059559 
L 649.405542 -120.42249 
L 650.811083 -118.763933 
L 652.216625 -120.969255 
L 653.622166 -120.687477 
L 655.027708 -120.086428 
L 656.433249 -123.049033 
L 657.838791 -121.895149 
L 657.838791 -57.589286 
L 657.838791 -57.589286 
L 656.433249 -60.0764 
L 655.027708 -57.557907 
L 653.622166 -59.425414 
L 652.216625 -58.547847 
L 650.811083 -57.354545 
L 649.405542 -60.1348 
L 648 -62.09138 
L 646.594458 -62.002454 
L 645.188917 -60.472116 
L 643.783375 -60.943718 
L 642.377834 -62.594413 
L 640.972292 -64.389571 
L 639.566751 -63.442354 
L 638.161209 -66.025147 
L 636.755668 -66.690971 
L 635.350126 -68.31481 
L 633.944584 -64.604251 
L 632.539043 -65.06996 
L 631.133501 -69.247285 
L 629.72796 -70.158223 
L 628.322418 -68.753081 
L 626.916877 -69.690671 
L 625.511335 -71.062892 
L 624.105793 -71.537904 
L 622.700252 -72.108122 
L 621.29471 -74.652748 
L 619.889169 -74.466377 
L 618.483627 -75.412359 
L 617.078086 -78.390241 
L 615.672544 -78.400962 
L 614.267003 -79.167736 
L 612.861461 -81.057131 
L 611.455919 -81.185899 
L 610.050378 -83.761591 
L 608.644836 -83.72106 
L 607.239295 -85.942514 
L 605.833753 -88.080822 
L 604.428212 -88.505297 
L 603.02267 -87.952433 
L 601.617128 -92.161428 
L 600.211587 -91.818245 
L 598.806045 -95.015746 
L 597.400504 -95.4422 
L 595.994962 -95.8503 
L 594.589421 -96.183061 
L 593.183879 -97.944862 
L 591.778338 -99.301527 
L 590.372796 -98.616089 
L 588.967254 -101.484544 
L 587.561713 -101.607909 
L 586.156171 -97.857118 
L 584.75063 -101.837514 
L 583.345088 -102.788201 
L 581.939547 -101.822038 
L 580.534005 -101.698887 
L 579.128463 -103.332971 
L 577.722922 -103.081046 
L 576.31738 -104.039824 
L 574.911839 -103.376542 
L 573.506297 -105.709366 
L 572.100756 -103.479548 
L 570.695214 -104.821842 
L 569.289673 -109.997976 
L 567.884131 -107.399066 
L 566.478589 -110.902652 
L 565.073048 -113.757483 
L 563.667506 -114.044696 
L 562.261965 -116.738099 
L 560.856423 -115.550309 
L 559.450882 -117.93262 
L 558.04534 -119.99778 
L 556.639798 -120.569279 
L 555.234257 -120.269078 
L 553.828715 -122.483365 
L 552.423174 -122.274637 
L 551.017632 -120.297168 
L 549.612091 -123.166838 
L 548.206549 -123.659394 
L 546.801008 -120.063561 
L 545.395466 -121.273642 
L 543.989924 -121.916759 
L 542.584383 -122.65068 
L 541.178841 -121.3538 
L 539.7733 -124.688336 
L 538.367758 -123.614382 
L 536.962217 -126.746509 
L 535.556675 -122.854865 
L 534.151134 -126.39799 
L 532.745592 -130.358092 
L 531.34005 -130.256772 
L 529.934509 -132.158787 
L 528.528967 -133.181672 
L 527.123426 -135.0437 
L 525.717884 -139.904131 
L 524.312343 -143.645106 
L 522.906801 -147.686842 
L 521.501259 -147.54142 
L 520.095718 -149.850758 
L 518.690176 -158.947937 
L 517.284635 -157.70912 
L 515.879093 -164.883686 
L 514.473552 -162.74044 
L 513.06801 -163.694389 
L 511.662469 -165.774107 
L 510.256927 -171.155738 
L 508.851385 -167.2617 
L 507.445844 -170.464943 
L 506.040302 -168.242851 
L 504.634761 -174.537329 
L 503.229219 -171.592002 
L 501.823678 -172.798541 
L 500.418136 -178.652095 
L 499.012594 -175.909489 
L 497.607053 -175.281798 
L 496.201511 -176.159719 
L 494.79597 -177.133707 
L 493.390428 -178.805757 
L 491.984887 -180.328554 
L 490.579345 -182.014901 
L 489.173804 -184.819862 
L 487.768262 -181.854291 
L 486.36272 -186.042695 
L 484.957179 -194.502089 
L 483.551637 -196.549833 
L 482.146096 -199.167705 
L 480.740554 -201.018186 
L 479.335013 -203.230432 
L 477.929471 -207.819233 
L 476.523929 -214.183753 
L 475.118388 -215.683055 
L 473.712846 -222.380023 
L 472.307305 -227.108278 
L 470.901763 -225.743612 
L 469.496222 -228.761423 
L 468.09068 -234.379582 
L 466.685139 -234.401504 
L 465.279597 -233.139995 
L 463.874055 -235.933771 
L 462.468514 -234.549707 
L 461.062972 -235.80664 
L 459.657431 -234.5912 
L 458.251889 -233.299148 
L 456.846348 -228.987157 
L 455.440806 -220.615957 
L 454.035264 -215.923772 
L 452.629723 -208.854598 
L 451.224181 -204.651743 
L 449.81864 -207.971265 
L 448.413098 -199.786473 
L 447.007557 -193.417158 
L 445.602015 -189.885216 
L 444.196474 -184.846943 
L 442.790932 -185.036323 
L 441.38539 -180.971607 
L 439.979849 -174.661899 
L 438.574307 -175.401663 
L 437.168766 -175.592573 
L 435.763224 -165.94297 
L 434.357683 -172.177867 
L 432.952141 -168.283461 
L 431.546599 -166.87811 
L 430.141058 -165.564163 
L 428.735516 -164.850618 
L 427.329975 -163.403816 
L 425.924433 -169.103803 
L 424.518892 -160.470522 
L 423.11335 -169.898912 
L 421.707809 -162.167443 
L 420.302267 -159.988056 
L 418.896725 -159.314977 
L 417.491184 -162.614606 
L 416.085642 -164.304445 
L 414.680101 -162.01544 
L 413.274559 -159.831134 
L 411.869018 -158.798385 
L 410.463476 -153.561486 
L 409.057935 -153.052207 
L 407.652393 -152.055849 
L 406.246851 -147.362576 
L 404.84131 -151.227251 
L 403.435768 -146.543759 
L 402.030227 -143.491698 
L 400.624685 -141.399409 
L 399.219144 -138.969869 
L 397.813602 -133.920257 
L 396.40806 -136.413454 
L 395.002519 -129.681621 
L 393.596977 -126.508336 
L 392.191436 -126.215192 
L 390.785894 -121.118785 
L 389.380353 -116.735039 
L 387.974811 -115.221814 
L 386.56927 -112.631855 
L 385.163728 -109.328923 
L 383.758186 -110.76602 
L 382.352645 -106.364781 
L 380.947103 -103.339926 
L 379.541562 -100.168661 
L 378.13602 -102.314917 
L 376.730479 -98.116839 
L 375.324937 -97.781525 
L 373.919395 -96.685158 
L 372.513854 -97.166619 
L 371.108312 -96.361352 
L 369.702771 -94.923556 
L 368.297229 -94.435711 
L 366.891688 -94.607499 
L 365.486146 -93.024111 
L 364.080605 -94.074628 
L 362.675063 -93.952418 
L 361.269521 -94.374781 
L 359.86398 -93.40737 
L 358.458438 -95.137072 
L 357.052897 -96.798271 
L 355.647355 -97.483301 
L 354.241814 -98.424144 
L 352.836272 -99.413408 
L 351.43073 -99.84912 
L 350.025189 -103.253805 
L 348.619647 -104.368371 
L 347.214106 -109.415875 
L 345.808564 -112.660862 
L 344.403023 -115.293705 
L 342.997481 -115.002686 
L 341.59194 -120.117933 
L 340.186398 -124.366859 
L 338.780856 -127.250284 
L 337.375315 -131.005602 
L 335.969773 -136.346995 
L 334.564232 -138.4449 
L 333.15869 -141.714185 
L 331.753149 -146.551532 
L 330.347607 -147.842826 
L 328.942065 -155.472469 
L 327.536524 -157.440504 
L 326.130982 -162.797581 
L 324.725441 -167.172852 
L 323.319899 -169.228772 
L 321.914358 -172.315139 
L 320.508816 -178.708646 
L 319.103275 -184.950552 
L 317.697733 -187.180035 
L 316.292191 -190.241112 
L 314.88665 -195.332046 
L 313.481108 -198.720641 
L 312.075567 -201.098567 
L 310.670025 -199.897615 
L 309.264484 -199.764558 
L 307.858942 -205.843019 
L 306.453401 -201.984946 
L 305.047859 -201.014526 
L 303.642317 -200.597869 
L 302.236776 -197.849499 
L 300.831234 -192.551262 
L 299.425693 -194.022078 
L 298.020151 -192.162876 
L 296.61461 -188.302658 
L 295.209068 -185.733183 
L 293.803526 -178.889873 
L 292.397985 -177.681343 
L 290.992443 -172.959009 
L 289.586902 -170.712088 
L 288.18136 -168.989777 
L 286.775819 -167.54781 
L 285.370277 -165.172277 
L 283.964736 -163.699091 
L 282.559194 -161.1537 
L 281.153652 -158.74344 
L 279.748111 -158.982064 
L 278.342569 -156.575133 
L 276.937028 -156.286704 
L 275.531486 -152.668531 
L 274.125945 -157.322906 
L 272.720403 -153.054915 
L 271.314861 -152.015138 
L 269.90932 -151.837958 
L 268.503778 -152.427616 
L 267.098237 -154.147917 
L 265.692695 -156.168823 
L 264.287154 -152.259569 
L 262.881612 -152.930606 
L 261.476071 -154.702243 
L 260.070529 -157.392375 
L 258.664987 -159.011842 
L 257.259446 -161.148292 
L 255.853904 -162.659777 
L 254.448363 -167.99426 
L 253.042821 -169.26818 
L 251.63728 -171.967491 
L 250.231738 -171.65933 
L 248.826196 -174.946267 
L 247.420655 -179.340115 
L 246.015113 -187.51559 
L 244.609572 -187.786706 
L 243.20403 -187.285221 
L 241.798489 -194.32554 
L 240.392947 -189.476663 
L 238.987406 -194.614978 
L 237.581864 -197.873258 
L 236.176322 -199.331618 
L 234.770781 -199.573601 
L 233.365239 -197.610731 
L 231.959698 -199.936086 
L 230.554156 -198.353374 
L 229.148615 -198.581972 
L 227.743073 -195.677025 
L 226.337531 -198.934452 
L 224.93199 -195.714738 
L 223.526448 -201.698016 
L 222.120907 -198.893162 
L 220.715365 -198.250743 
L 219.309824 -199.921075 
L 217.904282 -205.444001 
L 216.498741 -203.55542 
L 215.093199 -203.9048 
L 213.687657 -201.982989 
L 212.282116 -196.241107 
L 210.876574 -202.553835 
L 209.471033 -199.600553 
L 208.065491 -201.527627 
L 206.65995 -199.46575 
L 205.254408 -202.940194 
L 203.848866 -201.716825 
L 202.443325 -204.580202 
L 201.037783 -200.177959 
L 199.632242 -202.558254 
L 198.2267 -205.986539 
L 196.821159 -213.017208 
L 195.415617 -212.893172 
L 194.010076 -207.748123 
L 192.604534 -210.81032 
L 191.198992 -212.76568 
L 189.793451 -209.010008 
L 188.387909 -212.0413 
L 186.982368 -211.144469 
L 185.576826 -203.192966 
L 184.171285 -203.964322 
L 182.765743 -200.133324 
L 181.360202 -203.766464 
L 179.95466 -197.719532 
L 178.549118 -191.666176 
L 177.143577 -190.348485 
L 175.738035 -185.262076 
L 174.332494 -181.574383 
L 172.926952 -176.420939 
L 171.521411 -170.780753 
L 170.115869 -165.500236 
L 168.710327 -163.242445 
L 167.304786 -156.882334 
L 165.899244 -154.3091 
L 164.493703 -147.684471 
L 163.088161 -144.779844 
L 161.68262 -138.691658 
L 160.277078 -135.764587 
L 158.871537 -129.570453 
L 157.465995 -126.799059 
L 156.060453 -123.478603 
L 154.654912 -121.091719 
L 153.24937 -116.573132 
L 151.843829 -114.826376 
L 150.438287 -113.587067 
L 149.032746 -111.596597 
L 147.627204 -109.356775 
L 146.221662 -106.624386 
L 144.816121 -106.690296 
L 143.410579 -104.302258 
L 142.005038 -103.657395 
L 140.599496 -100.349575 
L 139.193955 -101.162569 
L 137.788413 -99.047179 
L 136.382872 -97.380814 
L 134.97733 -96.698316 
L 133.571788 -99.415837 
L 132.166247 -98.086327 
L 130.760705 -97.281237 
L 129.355164 -99.968976 
L 127.949622 -101.142678 
L 126.544081 -101.955369 
L 125.138539 -103.70832 
L 123.732997 -104.572098 
L 122.327456 -105.740227 
L 120.921914 -109.027798 
L 119.516373 -111.470831 
L 118.110831 -114.677069 
L 116.70529 -117.13084 
L 115.299748 -121.002553 
L 113.894207 -124.79884 
L 112.488665 -124.881301 
L 111.083123 -127.165345 
L 109.677582 -131.627619 
L 108.27204 -128.761813 
L 106.866499 -130.453586 
L 105.460957 -134.033578 
L 104.055416 -136.940481 
L 102.649874 -136.793523 
L 101.244332 -138.647738 
L 99.838791 -133.472199 
L 98.433249 -130.940047 
L 97.027708 -134.957911 
L 95.622166 -134.778895 
L 94.216625 -125.50623 
L 92.811083 -127.818771 
L 91.405542 -127.565503 
L 90 -128.310053 
z
" id="m4d35ab6170" style="stroke:#fdcbb6;stroke-opacity:0.8;"/>
    </defs>
    <g clip-path="url(#p06d603a0f6)">
     <use style="fill:#fdcbb6;fill-opacity:0.8;stroke:#fdcbb6;stroke-opacity:0.8;" x="0" xlink:href="#m4d35ab6170" y="360"/>
    </g>
   </g>
   <g id="matplotlib.axis_1">
    <g id="xtick_1">
     <g id="line2d_1">
      <defs>
       <path d="M 0 0 
L 0 3.5 
" id="mf003abb5a6" style="stroke:#000000;stroke-width:0.8;"/>
      </defs>
      <g>
       <use style="stroke:#000000;stroke-width:0.8;" x="90" xlink:href="#mf003abb5a6" y="315"/>
      </g>
     </g>
    </g>
    <g id="xtick_2">
     <g id="line2d_2">
      <g>
       <use style="stroke:#000000;stroke-width:0.8;" x="104.055416" xlink:href="#mf003abb5a6" y="315"/>
      </g>
     </g>
     <g id="text_1">
      <!-- Apr -->
      <g transform="translate(95.405416 329.598437)scale(0.1 -0.1)">
       <defs>
        <path d="M 34.1875 63.1875 
L 20.796875 26.90625 
L 47.609375 26.90625 
z
M 28.609375 72.90625 
L 39.796875 72.90625 
L 67.578125 0 
L 57.328125 0 
L 50.6875 18.703125 
L 17.828125 18.703125 
L 11.1875 0 
L 0.78125 0 
z
" id="DejaVuSans-65"/>
        <path d="M 18.109375 8.203125 
L 18.109375 -20.796875 
L 9.078125 -20.796875 
L 9.078125 54.6875 
L 18.109375 54.6875 
L 18.109375 46.390625 
Q 20.953125 51.265625 25.265625 53.625 
Q 29.59375 56 35.59375 56 
Q 45.5625 56 51.78125 48.09375 
Q 58.015625 40.1875 58.015625 27.296875 
Q 58.015625 14.40625 51.78125 6.484375 
Q 45.5625 -1.421875 35.59375 -1.421875 
Q 29.59375 -1.421875 25.265625 0.953125 
Q 20.953125 3.328125 18.109375 8.203125 
z
M 48.6875 27.296875 
Q 48.6875 37.203125 44.609375 42.84375 
Q 40.53125 48.484375 33.40625 48.484375 
Q 26.265625 48.484375 22.1875 42.84375 
Q 18.109375 37.203125 18.109375 27.296875 
Q 18.109375 17.390625 22.1875 11.75 
Q 26.265625 6.109375 33.40625 6.109375 
Q 40.53125 6.109375 44.609375 11.75 
Q 48.6875 17.390625 48.6875 27.296875 
z
" id="DejaVuSans-112"/>
        <path d="M 41.109375 46.296875 
Q 39.59375 47.171875 37.8125 47.578125 
Q 36.03125 48 33.890625 48 
Q 26.265625 48 22.1875 43.046875 
Q 18.109375 38.09375 18.109375 28.8125 
L 18.109375 0 
L 9.078125 0 
L 9.078125 54.6875 
L 18.109375 54.6875 
L 18.109375 46.1875 
Q 20.953125 51.171875 25.484375 53.578125 
Q 30.03125 56 36.53125 56 
Q 37.453125 56 38.578125 55.875 
Q 39.703125 55.765625 41.0625 55.515625 
z
" id="DejaVuSans-114"/>
       </defs>
       <use xlink:href="#DejaVuSans-65"/>
       <use x="68.408203" xlink:href="#DejaVuSans-112"/>
       <use x="131.884766" xlink:href="#DejaVuSans-114"/>
      </g>
     </g>
    </g>
    <g id="xtick_3">
     <g id="line2d_3">
      <g>
       <use style="stroke:#000000;stroke-width:0.8;" x="146.221662" xlink:href="#mf003abb5a6" y="315"/>
      </g>
     </g>
     <g id="text_2">
      <!-- May -->
      <g transform="translate(135.884162 329.598437)scale(0.1 -0.1)">
       <defs>
        <path d="M 9.8125 72.90625 
L 24.515625 72.90625 
L 43.109375 23.296875 
L 61.8125 72.90625 
L 76.515625 72.90625 
L 76.515625 0 
L 66.890625 0 
L 66.890625 64.015625 
L 48.09375 14.015625 
L 38.1875 14.015625 
L 19.390625 64.015625 
L 19.390625 0 
L 9.8125 0 
z
" id="DejaVuSans-77"/>
        <path d="M 34.28125 27.484375 
Q 23.390625 27.484375 19.1875 25 
Q 14.984375 22.515625 14.984375 16.5 
Q 14.984375 11.71875 18.140625 8.90625 
Q 21.296875 6.109375 26.703125 6.109375 
Q 34.1875 6.109375 38.703125 11.40625 
Q 43.21875 16.703125 43.21875 25.484375 
L 43.21875 27.484375 
z
M 52.203125 31.203125 
L 52.203125 0 
L 43.21875 0 
L 43.21875 8.296875 
Q 40.140625 3.328125 35.546875 0.953125 
Q 30.953125 -1.421875 24.3125 -1.421875 
Q 15.921875 -1.421875 10.953125 3.296875 
Q 6 8.015625 6 15.921875 
Q 6 25.140625 12.171875 29.828125 
Q 18.359375 34.515625 30.609375 34.515625 
L 43.21875 34.515625 
L 43.21875 35.40625 
Q 43.21875 41.609375 39.140625 45 
Q 35.0625 48.390625 27.6875 48.390625 
Q 23 48.390625 18.546875 47.265625 
Q 14.109375 46.140625 10.015625 43.890625 
L 10.015625 52.203125 
Q 14.9375 54.109375 19.578125 55.046875 
Q 24.21875 56 28.609375 56 
Q 40.484375 56 46.34375 49.84375 
Q 52.203125 43.703125 52.203125 31.203125 
z
" id="DejaVuSans-97"/>
        <path d="M 32.171875 -5.078125 
Q 28.375 -14.84375 24.75 -17.8125 
Q 21.140625 -20.796875 15.09375 -20.796875 
L 7.90625 -20.796875 
L 7.90625 -13.28125 
L 13.1875 -13.28125 
Q 16.890625 -13.28125 18.9375 -11.515625 
Q 21 -9.765625 23.484375 -3.21875 
L 25.09375 0.875 
L 2.984375 54.6875 
L 12.5 54.6875 
L 29.59375 11.921875 
L 46.6875 54.6875 
L 56.203125 54.6875 
z
" id="DejaVuSans-121"/>
       </defs>
       <use xlink:href="#DejaVuSans-77"/>
       <use x="86.279297" xlink:href="#DejaVuSans-97"/>
       <use x="147.558594" xlink:href="#DejaVuSans-121"/>
      </g>
     </g>
    </g>
    <g id="xtick_4">
     <g id="line2d_4">
      <g>
       <use style="stroke:#000000;stroke-width:0.8;" x="189.793451" xlink:href="#mf003abb5a6" y="315"/>
      </g>
     </g>
     <g id="text_3">
      <!-- Jun -->
      <g transform="translate(181.980951 329.598437)scale(0.1 -0.1)">
       <defs>
        <path d="M 9.8125 72.90625 
L 19.671875 72.90625 
L 19.671875 5.078125 
Q 19.671875 -8.109375 14.671875 -14.0625 
Q 9.671875 -20.015625 -1.421875 -20.015625 
L -5.171875 -20.015625 
L -5.171875 -11.71875 
L -2.09375 -11.71875 
Q 4.4375 -11.71875 7.125 -8.046875 
Q 9.8125 -4.390625 9.8125 5.078125 
z
" id="DejaVuSans-74"/>
        <path d="M 8.5 21.578125 
L 8.5 54.6875 
L 17.484375 54.6875 
L 17.484375 21.921875 
Q 17.484375 14.15625 20.5 10.265625 
Q 23.53125 6.390625 29.59375 6.390625 
Q 36.859375 6.390625 41.078125 11.03125 
Q 45.3125 15.671875 45.3125 23.6875 
L 45.3125 54.6875 
L 54.296875 54.6875 
L 54.296875 0 
L 45.3125 0 
L 45.3125 8.40625 
Q 42.046875 3.421875 37.71875 1 
Q 33.40625 -1.421875 27.6875 -1.421875 
Q 18.265625 -1.421875 13.375 4.4375 
Q 8.5 10.296875 8.5 21.578125 
z
M 31.109375 56 
z
" id="DejaVuSans-117"/>
        <path d="M 54.890625 33.015625 
L 54.890625 0 
L 45.90625 0 
L 45.90625 32.71875 
Q 45.90625 40.484375 42.875 44.328125 
Q 39.84375 48.1875 33.796875 48.1875 
Q 26.515625 48.1875 22.3125 43.546875 
Q 18.109375 38.921875 18.109375 30.90625 
L 18.109375 0 
L 9.078125 0 
L 9.078125 54.6875 
L 18.109375 54.6875 
L 18.109375 46.1875 
Q 21.34375 51.125 25.703125 53.5625 
Q 30.078125 56 35.796875 56 
Q 45.21875 56 50.046875 50.171875 
Q 54.890625 44.34375 54.890625 33.015625 
z
" id="DejaVuSans-110"/>
       </defs>
       <use xlink:href="#DejaVuSans-74"/>
       <use x="29.492188" xlink:href="#DejaVuSans-117"/>
       <use x="92.871094" xlink:href="#DejaVuSans-110"/>
      </g>
     </g>
    </g>
    <g id="xtick_5">
     <g id="line2d_5">
      <g>
       <use style="stroke:#000000;stroke-width:0.8;" x="231.959698" xlink:href="#mf003abb5a6" y="315"/>
      </g>
     </g>
     <g id="text_4">
      <!-- Jul -->
      <g transform="translate(225.926885 329.598437)scale(0.1 -0.1)">
       <defs>
        <path d="M 9.421875 75.984375 
L 18.40625 75.984375 
L 18.40625 0 
L 9.421875 0 
z
" id="DejaVuSans-108"/>
       </defs>
       <use xlink:href="#DejaVuSans-74"/>
       <use x="29.492188" xlink:href="#DejaVuSans-117"/>
       <use x="92.871094" xlink:href="#DejaVuSans-108"/>
      </g>
     </g>
    </g>
    <g id="xtick_6">
     <g id="line2d_6">
      <g>
       <use style="stroke:#000000;stroke-width:0.8;" x="275.531486" xlink:href="#mf003abb5a6" y="315"/>
      </g>
     </g>
     <g id="text_5">
      <!-- Aug -->
      <g transform="translate(265.768205 329.598437)scale(0.1 -0.1)">
       <defs>
        <path d="M 45.40625 27.984375 
Q 45.40625 37.75 41.375 43.109375 
Q 37.359375 48.484375 30.078125 48.484375 
Q 22.859375 48.484375 18.828125 43.109375 
Q 14.796875 37.75 14.796875 27.984375 
Q 14.796875 18.265625 18.828125 12.890625 
Q 22.859375 7.515625 30.078125 7.515625 
Q 37.359375 7.515625 41.375 12.890625 
Q 45.40625 18.265625 45.40625 27.984375 
z
M 54.390625 6.78125 
Q 54.390625 -7.171875 48.1875 -13.984375 
Q 42 -20.796875 29.203125 -20.796875 
Q 24.46875 -20.796875 20.265625 -20.09375 
Q 16.0625 -19.390625 12.109375 -17.921875 
L 12.109375 -9.1875 
Q 16.0625 -11.328125 19.921875 -12.34375 
Q 23.78125 -13.375 27.78125 -13.375 
Q 36.625 -13.375 41.015625 -8.765625 
Q 45.40625 -4.15625 45.40625 5.171875 
L 45.40625 9.625 
Q 42.625 4.78125 38.28125 2.390625 
Q 33.9375 0 27.875 0 
Q 17.828125 0 11.671875 7.65625 
Q 5.515625 15.328125 5.515625 27.984375 
Q 5.515625 40.671875 11.671875 48.328125 
Q 17.828125 56 27.875 56 
Q 33.9375 56 38.28125 53.609375 
Q 42.625 51.21875 45.40625 46.390625 
L 45.40625 54.6875 
L 54.390625 54.6875 
z
" id="DejaVuSans-103"/>
       </defs>
       <use xlink:href="#DejaVuSans-65"/>
       <use x="68.408203" xlink:href="#DejaVuSans-117"/>
       <use x="131.787109" xlink:href="#DejaVuSans-103"/>
      </g>
     </g>
    </g>
    <g id="xtick_7">
     <g id="line2d_7">
      <g>
       <use style="stroke:#000000;stroke-width:0.8;" x="319.103275" xlink:href="#mf003abb5a6" y="315"/>
      </g>
     </g>
     <g id="text_6">
      <!-- Sep -->
      <g transform="translate(309.678275 329.598437)scale(0.1 -0.1)">
       <defs>
        <path d="M 53.515625 70.515625 
L 53.515625 60.890625 
Q 47.90625 63.578125 42.921875 64.890625 
Q 37.9375 66.21875 33.296875 66.21875 
Q 25.25 66.21875 20.875 63.09375 
Q 16.5 59.96875 16.5 54.203125 
Q 16.5 49.359375 19.40625 46.890625 
Q 22.3125 44.4375 30.421875 42.921875 
L 36.375 41.703125 
Q 47.40625 39.59375 52.65625 34.296875 
Q 57.90625 29 57.90625 20.125 
Q 57.90625 9.515625 50.796875 4.046875 
Q 43.703125 -1.421875 29.984375 -1.421875 
Q 24.8125 -1.421875 18.96875 -0.25 
Q 13.140625 0.921875 6.890625 3.21875 
L 6.890625 13.375 
Q 12.890625 10.015625 18.65625 8.296875 
Q 24.421875 6.59375 29.984375 6.59375 
Q 38.421875 6.59375 43.015625 9.90625 
Q 47.609375 13.234375 47.609375 19.390625 
Q 47.609375 24.75 44.3125 27.78125 
Q 41.015625 30.8125 33.5 32.328125 
L 27.484375 33.5 
Q 16.453125 35.6875 11.515625 40.375 
Q 6.59375 45.0625 6.59375 53.421875 
Q 6.59375 63.09375 13.40625 68.65625 
Q 20.21875 74.21875 32.171875 74.21875 
Q 37.3125 74.21875 42.625 73.28125 
Q 47.953125 72.359375 53.515625 70.515625 
z
" id="DejaVuSans-83"/>
        <path d="M 56.203125 29.59375 
L 56.203125 25.203125 
L 14.890625 25.203125 
Q 15.484375 15.921875 20.484375 11.0625 
Q 25.484375 6.203125 34.421875 6.203125 
Q 39.59375 6.203125 44.453125 7.46875 
Q 49.3125 8.734375 54.109375 11.28125 
L 54.109375 2.78125 
Q 49.265625 0.734375 44.1875 -0.34375 
Q 39.109375 -1.421875 33.890625 -1.421875 
Q 20.796875 -1.421875 13.15625 6.1875 
Q 5.515625 13.8125 5.515625 26.8125 
Q 5.515625 40.234375 12.765625 48.109375 
Q 20.015625 56 32.328125 56 
Q 43.359375 56 49.78125 48.890625 
Q 56.203125 41.796875 56.203125 29.59375 
z
M 47.21875 32.234375 
Q 47.125 39.59375 43.09375 43.984375 
Q 39.0625 48.390625 32.421875 48.390625 
Q 24.90625 48.390625 20.390625 44.140625 
Q 15.875 39.890625 15.1875 32.171875 
z
" id="DejaVuSans-101"/>
       </defs>
       <use xlink:href="#DejaVuSans-83"/>
       <use x="63.476562" xlink:href="#DejaVuSans-101"/>
       <use x="125" xlink:href="#DejaVuSans-112"/>
      </g>
     </g>
    </g>
    <g id="xtick_8">
     <g id="line2d_8">
      <g>
       <use style="stroke:#000000;stroke-width:0.8;" x="361.269521" xlink:href="#mf003abb5a6" y="315"/>
      </g>
     </g>
     <g id="text_7">
      <!-- Oct -->
      <g transform="translate(352.624209 329.598437)scale(0.1 -0.1)">
       <defs>
        <path d="M 39.40625 66.21875 
Q 28.65625 66.21875 22.328125 58.203125 
Q 16.015625 50.203125 16.015625 36.375 
Q 16.015625 22.609375 22.328125 14.59375 
Q 28.65625 6.59375 39.40625 6.59375 
Q 50.140625 6.59375 56.421875 14.59375 
Q 62.703125 22.609375 62.703125 36.375 
Q 62.703125 50.203125 56.421875 58.203125 
Q 50.140625 66.21875 39.40625 66.21875 
z
M 39.40625 74.21875 
Q 54.734375 74.21875 63.90625 63.9375 
Q 73.09375 53.65625 73.09375 36.375 
Q 73.09375 19.140625 63.90625 8.859375 
Q 54.734375 -1.421875 39.40625 -1.421875 
Q 24.03125 -1.421875 14.8125 8.828125 
Q 5.609375 19.09375 5.609375 36.375 
Q 5.609375 53.65625 14.8125 63.9375 
Q 24.03125 74.21875 39.40625 74.21875 
z
" id="DejaVuSans-79"/>
        <path d="M 48.78125 52.59375 
L 48.78125 44.1875 
Q 44.96875 46.296875 41.140625 47.34375 
Q 37.3125 48.390625 33.40625 48.390625 
Q 24.65625 48.390625 19.8125 42.84375 
Q 14.984375 37.3125 14.984375 27.296875 
Q 14.984375 17.28125 19.8125 11.734375 
Q 24.65625 6.203125 33.40625 6.203125 
Q 37.3125 6.203125 41.140625 7.25 
Q 44.96875 8.296875 48.78125 10.40625 
L 48.78125 2.09375 
Q 45.015625 0.34375 40.984375 -0.53125 
Q 36.96875 -1.421875 32.421875 -1.421875 
Q 20.0625 -1.421875 12.78125 6.34375 
Q 5.515625 14.109375 5.515625 27.296875 
Q 5.515625 40.671875 12.859375 48.328125 
Q 20.21875 56 33.015625 56 
Q 37.15625 56 41.109375 55.140625 
Q 45.0625 54.296875 48.78125 52.59375 
z
" id="DejaVuSans-99"/>
        <path d="M 18.3125 70.21875 
L 18.3125 54.6875 
L 36.8125 54.6875 
L 36.8125 47.703125 
L 18.3125 47.703125 
L 18.3125 18.015625 
Q 18.3125 11.328125 20.140625 9.421875 
Q 21.96875 7.515625 27.59375 7.515625 
L 36.8125 7.515625 
L 36.8125 0 
L 27.59375 0 
Q 17.1875 0 13.234375 3.875 
Q 9.28125 7.765625 9.28125 18.015625 
L 9.28125 47.703125 
L 2.6875 47.703125 
L 2.6875 54.6875 
L 9.28125 54.6875 
L 9.28125 70.21875 
z
" id="DejaVuSans-116"/>
       </defs>
       <use xlink:href="#DejaVuSans-79"/>
       <use x="78.710938" xlink:href="#DejaVuSans-99"/>
       <use x="133.691406" xlink:href="#DejaVuSans-116"/>
      </g>
     </g>
    </g>
    <g id="xtick_9">
     <g id="line2d_9">
      <g>
       <use style="stroke:#000000;stroke-width:0.8;" x="404.84131" xlink:href="#mf003abb5a6" y="315"/>
      </g>
     </g>
     <g id="text_8">
      <!-- Nov -->
      <g transform="translate(395.081935 329.598437)scale(0.1 -0.1)">
       <defs>
        <path d="M 9.8125 72.90625 
L 23.09375 72.90625 
L 55.421875 11.921875 
L 55.421875 72.90625 
L 64.984375 72.90625 
L 64.984375 0 
L 51.703125 0 
L 19.390625 60.984375 
L 19.390625 0 
L 9.8125 0 
z
" id="DejaVuSans-78"/>
        <path d="M 30.609375 48.390625 
Q 23.390625 48.390625 19.1875 42.75 
Q 14.984375 37.109375 14.984375 27.296875 
Q 14.984375 17.484375 19.15625 11.84375 
Q 23.34375 6.203125 30.609375 6.203125 
Q 37.796875 6.203125 41.984375 11.859375 
Q 46.1875 17.53125 46.1875 27.296875 
Q 46.1875 37.015625 41.984375 42.703125 
Q 37.796875 48.390625 30.609375 48.390625 
z
M 30.609375 56 
Q 42.328125 56 49.015625 48.375 
Q 55.71875 40.765625 55.71875 27.296875 
Q 55.71875 13.875 49.015625 6.21875 
Q 42.328125 -1.421875 30.609375 -1.421875 
Q 18.84375 -1.421875 12.171875 6.21875 
Q 5.515625 13.875 5.515625 27.296875 
Q 5.515625 40.765625 12.171875 48.375 
Q 18.84375 56 30.609375 56 
z
" id="DejaVuSans-111"/>
        <path d="M 2.984375 54.6875 
L 12.5 54.6875 
L 29.59375 8.796875 
L 46.6875 54.6875 
L 56.203125 54.6875 
L 35.6875 0 
L 23.484375 0 
z
" id="DejaVuSans-118"/>
       </defs>
       <use xlink:href="#DejaVuSans-78"/>
       <use x="74.804688" xlink:href="#DejaVuSans-111"/>
       <use x="135.986328" xlink:href="#DejaVuSans-118"/>
      </g>
     </g>
    </g>
    <g id="xtick_10">
     <g id="line2d_10">
      <g>
       <use style="stroke:#000000;stroke-width:0.8;" x="447.007557" xlink:href="#mf003abb5a6" y="315"/>
      </g>
     </g>
     <g id="text_9">
      <!-- Dec -->
      <g transform="translate(437.331775 329.598437)scale(0.1 -0.1)">
       <defs>
        <path d="M 19.671875 64.796875 
L 19.671875 8.109375 
L 31.59375 8.109375 
Q 46.6875 8.109375 53.6875 14.9375 
Q 60.6875 21.78125 60.6875 36.53125 
Q 60.6875 51.171875 53.6875 57.984375 
Q 46.6875 64.796875 31.59375 64.796875 
z
M 9.8125 72.90625 
L 30.078125 72.90625 
Q 51.265625 72.90625 61.171875 64.09375 
Q 71.09375 55.28125 71.09375 36.53125 
Q 71.09375 17.671875 61.125 8.828125 
Q 51.171875 0 30.078125 0 
L 9.8125 0 
z
" id="DejaVuSans-68"/>
       </defs>
       <use xlink:href="#DejaVuSans-68"/>
       <use x="77.001953" xlink:href="#DejaVuSans-101"/>
       <use x="138.525391" xlink:href="#DejaVuSans-99"/>
      </g>
     </g>
    </g>
    <g id="xtick_11">
     <g id="line2d_11">
      <g>
       <use style="stroke:#000000;stroke-width:0.8;" x="490.579345" xlink:href="#mf003abb5a6" y="315"/>
      </g>
     </g>
     <g id="text_10">
      <!-- Jan -->
      <g transform="translate(482.871533 329.598437)scale(0.1 -0.1)">
       <use xlink:href="#DejaVuSans-74"/>
       <use x="29.492188" xlink:href="#DejaVuSans-97"/>
       <use x="90.771484" xlink:href="#DejaVuSans-110"/>
      </g>
      <!-- 2021 -->
      <g transform="translate(477.854345 340.79625)scale(0.1 -0.1)">
       <defs>
        <path d="M 19.1875 8.296875 
L 53.609375 8.296875 
L 53.609375 0 
L 7.328125 0 
L 7.328125 8.296875 
Q 12.9375 14.109375 22.625 23.890625 
Q 32.328125 33.6875 34.8125 36.53125 
Q 39.546875 41.84375 41.421875 45.53125 
Q 43.3125 49.21875 43.3125 52.78125 
Q 43.3125 58.59375 39.234375 62.25 
Q 35.15625 65.921875 28.609375 65.921875 
Q 23.96875 65.921875 18.8125 64.3125 
Q 13.671875 62.703125 7.8125 59.421875 
L 7.8125 69.390625 
Q 13.765625 71.78125 18.9375 73 
Q 24.125 74.21875 28.421875 74.21875 
Q 39.75 74.21875 46.484375 68.546875 
Q 53.21875 62.890625 53.21875 53.421875 
Q 53.21875 48.921875 51.53125 44.890625 
Q 49.859375 40.875 45.40625 35.40625 
Q 44.1875 33.984375 37.640625 27.21875 
Q 31.109375 20.453125 19.1875 8.296875 
z
" id="DejaVuSans-50"/>
        <path d="M 31.78125 66.40625 
Q 24.171875 66.40625 20.328125 58.90625 
Q 16.5 51.421875 16.5 36.375 
Q 16.5 21.390625 20.328125 13.890625 
Q 24.171875 6.390625 31.78125 6.390625 
Q 39.453125 6.390625 43.28125 13.890625 
Q 47.125 21.390625 47.125 36.375 
Q 47.125 51.421875 43.28125 58.90625 
Q 39.453125 66.40625 31.78125 66.40625 
z
M 31.78125 74.21875 
Q 44.046875 74.21875 50.515625 64.515625 
Q 56.984375 54.828125 56.984375 36.375 
Q 56.984375 17.96875 50.515625 8.265625 
Q 44.046875 -1.421875 31.78125 -1.421875 
Q 19.53125 -1.421875 13.0625 8.265625 
Q 6.59375 17.96875 6.59375 36.375 
Q 6.59375 54.828125 13.0625 64.515625 
Q 19.53125 74.21875 31.78125 74.21875 
z
" id="DejaVuSans-48"/>
        <path d="M 12.40625 8.296875 
L 28.515625 8.296875 
L 28.515625 63.921875 
L 10.984375 60.40625 
L 10.984375 69.390625 
L 28.421875 72.90625 
L 38.28125 72.90625 
L 38.28125 8.296875 
L 54.390625 8.296875 
L 54.390625 0 
L 12.40625 0 
z
" id="DejaVuSans-49"/>
       </defs>
       <use xlink:href="#DejaVuSans-50"/>
       <use x="63.623047" xlink:href="#DejaVuSans-48"/>
       <use x="127.246094" xlink:href="#DejaVuSans-50"/>
       <use x="190.869141" xlink:href="#DejaVuSans-49"/>
      </g>
     </g>
    </g>
    <g id="xtick_12">
     <g id="line2d_12">
      <g>
       <use style="stroke:#000000;stroke-width:0.8;" x="534.151134" xlink:href="#mf003abb5a6" y="315"/>
      </g>
     </g>
     <g id="text_11">
      <!-- Feb -->
      <g transform="translate(525.299571 329.598437)scale(0.1 -0.1)">
       <defs>
        <path d="M 9.8125 72.90625 
L 51.703125 72.90625 
L 51.703125 64.59375 
L 19.671875 64.59375 
L 19.671875 43.109375 
L 48.578125 43.109375 
L 48.578125 34.8125 
L 19.671875 34.8125 
L 19.671875 0 
L 9.8125 0 
z
" id="DejaVuSans-70"/>
        <path d="M 48.6875 27.296875 
Q 48.6875 37.203125 44.609375 42.84375 
Q 40.53125 48.484375 33.40625 48.484375 
Q 26.265625 48.484375 22.1875 42.84375 
Q 18.109375 37.203125 18.109375 27.296875 
Q 18.109375 17.390625 22.1875 11.75 
Q 26.265625 6.109375 33.40625 6.109375 
Q 40.53125 6.109375 44.609375 11.75 
Q 48.6875 17.390625 48.6875 27.296875 
z
M 18.109375 46.390625 
Q 20.953125 51.265625 25.265625 53.625 
Q 29.59375 56 35.59375 56 
Q 45.5625 56 51.78125 48.09375 
Q 58.015625 40.1875 58.015625 27.296875 
Q 58.015625 14.40625 51.78125 6.484375 
Q 45.5625 -1.421875 35.59375 -1.421875 
Q 29.59375 -1.421875 25.265625 0.953125 
Q 20.953125 3.328125 18.109375 8.203125 
L 18.109375 0 
L 9.078125 0 
L 9.078125 75.984375 
L 18.109375 75.984375 
z
" id="DejaVuSans-98"/>
       </defs>
       <use xlink:href="#DejaVuSans-70"/>
       <use x="52.019531" xlink:href="#DejaVuSans-101"/>
       <use x="113.542969" xlink:href="#DejaVuSans-98"/>
      </g>
     </g>
    </g>
    <g id="xtick_13">
     <g id="line2d_13">
      <g>
       <use style="stroke:#000000;stroke-width:0.8;" x="573.506297" xlink:href="#mf003abb5a6" y="315"/>
      </g>
     </g>
     <g id="text_12">
      <!-- Mar -->
      <g transform="translate(564.072703 329.598437)scale(0.1 -0.1)">
       <use xlink:href="#DejaVuSans-77"/>
       <use x="86.279297" xlink:href="#DejaVuSans-97"/>
       <use x="147.558594" xlink:href="#DejaVuSans-114"/>
      </g>
     </g>
    </g>
    <g id="xtick_14">
     <g id="line2d_14">
      <g>
       <use style="stroke:#000000;stroke-width:0.8;" x="617.078086" xlink:href="#mf003abb5a6" y="315"/>
      </g>
     </g>
     <g id="text_13">
      <!-- Apr -->
      <g transform="translate(608.428086 329.598437)scale(0.1 -0.1)">
       <use xlink:href="#DejaVuSans-65"/>
       <use x="68.408203" xlink:href="#DejaVuSans-112"/>
       <use x="131.884766" xlink:href="#DejaVuSans-114"/>
      </g>
     </g>
    </g>
    <g id="xtick_15">
     <g id="line2d_15">
      <g>
       <use style="stroke:#000000;stroke-width:0.8;" x="648" xlink:href="#mf003abb5a6" y="315"/>
      </g>
     </g>
    </g>
    <g id="xtick_16">
     <g id="line2d_16">
      <defs>
       <path d="M 0 0 
L 0 2 
" id="m5ffa54b084" style="stroke:#000000;stroke-width:0.6;"/>
      </defs>
      <g>
       <use style="stroke:#000000;stroke-width:0.6;" x="91.405542" xlink:href="#m5ffa54b084" y="315"/>
      </g>
     </g>
    </g>
    <g id="xtick_17">
     <g id="line2d_17">
      <g>
       <use style="stroke:#000000;stroke-width:0.6;" x="101.244332" xlink:href="#m5ffa54b084" y="315"/>
      </g>
     </g>
    </g>
    <g id="xtick_18">
     <g id="line2d_18">
      <g>
       <use style="stroke:#000000;stroke-width:0.6;" x="111.083123" xlink:href="#m5ffa54b084" y="315"/>
      </g>
     </g>
    </g>
    <g id="xtick_19">
     <g id="line2d_19">
      <g>
       <use style="stroke:#000000;stroke-width:0.6;" x="120.921914" xlink:href="#m5ffa54b084" y="315"/>
      </g>
     </g>
    </g>
    <g id="xtick_20">
     <g id="line2d_20">
      <g>
       <use style="stroke:#000000;stroke-width:0.6;" x="130.760705" xlink:href="#m5ffa54b084" y="315"/>
      </g>
     </g>
    </g>
    <g id="xtick_21">
     <g id="line2d_21">
      <g>
       <use style="stroke:#000000;stroke-width:0.6;" x="140.599496" xlink:href="#m5ffa54b084" y="315"/>
      </g>
     </g>
    </g>
    <g id="xtick_22">
     <g id="line2d_22">
      <g>
       <use style="stroke:#000000;stroke-width:0.6;" x="150.438287" xlink:href="#m5ffa54b084" y="315"/>
      </g>
     </g>
    </g>
    <g id="xtick_23">
     <g id="line2d_23">
      <g>
       <use style="stroke:#000000;stroke-width:0.6;" x="160.277078" xlink:href="#m5ffa54b084" y="315"/>
      </g>
     </g>
    </g>
    <g id="xtick_24">
     <g id="line2d_24">
      <g>
       <use style="stroke:#000000;stroke-width:0.6;" x="170.115869" xlink:href="#m5ffa54b084" y="315"/>
      </g>
     </g>
    </g>
    <g id="xtick_25">
     <g id="line2d_25">
      <g>
       <use style="stroke:#000000;stroke-width:0.6;" x="179.95466" xlink:href="#m5ffa54b084" y="315"/>
      </g>
     </g>
    </g>
    <g id="xtick_26">
     <g id="line2d_26">
      <g>
       <use style="stroke:#000000;stroke-width:0.6;" x="199.632242" xlink:href="#m5ffa54b084" y="315"/>
      </g>
     </g>
    </g>
    <g id="xtick_27">
     <g id="line2d_27">
      <g>
       <use style="stroke:#000000;stroke-width:0.6;" x="209.471033" xlink:href="#m5ffa54b084" y="315"/>
      </g>
     </g>
    </g>
    <g id="xtick_28">
     <g id="line2d_28">
      <g>
       <use style="stroke:#000000;stroke-width:0.6;" x="219.309824" xlink:href="#m5ffa54b084" y="315"/>
      </g>
     </g>
    </g>
    <g id="xtick_29">
     <g id="line2d_29">
      <g>
       <use style="stroke:#000000;stroke-width:0.6;" x="229.148615" xlink:href="#m5ffa54b084" y="315"/>
      </g>
     </g>
    </g>
    <g id="xtick_30">
     <g id="line2d_30">
      <g>
       <use style="stroke:#000000;stroke-width:0.6;" x="238.987406" xlink:href="#m5ffa54b084" y="315"/>
      </g>
     </g>
    </g>
    <g id="xtick_31">
     <g id="line2d_31">
      <g>
       <use style="stroke:#000000;stroke-width:0.6;" x="248.826196" xlink:href="#m5ffa54b084" y="315"/>
      </g>
     </g>
    </g>
    <g id="xtick_32">
     <g id="line2d_32">
      <g>
       <use style="stroke:#000000;stroke-width:0.6;" x="258.664987" xlink:href="#m5ffa54b084" y="315"/>
      </g>
     </g>
    </g>
    <g id="xtick_33">
     <g id="line2d_33">
      <g>
       <use style="stroke:#000000;stroke-width:0.6;" x="268.503778" xlink:href="#m5ffa54b084" y="315"/>
      </g>
     </g>
    </g>
    <g id="xtick_34">
     <g id="line2d_34">
      <g>
       <use style="stroke:#000000;stroke-width:0.6;" x="278.342569" xlink:href="#m5ffa54b084" y="315"/>
      </g>
     </g>
    </g>
    <g id="xtick_35">
     <g id="line2d_35">
      <g>
       <use style="stroke:#000000;stroke-width:0.6;" x="288.18136" xlink:href="#m5ffa54b084" y="315"/>
      </g>
     </g>
    </g>
    <g id="xtick_36">
     <g id="line2d_36">
      <g>
       <use style="stroke:#000000;stroke-width:0.6;" x="298.020151" xlink:href="#m5ffa54b084" y="315"/>
      </g>
     </g>
    </g>
    <g id="xtick_37">
     <g id="line2d_37">
      <g>
       <use style="stroke:#000000;stroke-width:0.6;" x="307.858942" xlink:href="#m5ffa54b084" y="315"/>
      </g>
     </g>
    </g>
    <g id="xtick_38">
     <g id="line2d_38">
      <g>
       <use style="stroke:#000000;stroke-width:0.6;" x="317.697733" xlink:href="#m5ffa54b084" y="315"/>
      </g>
     </g>
    </g>
    <g id="xtick_39">
     <g id="line2d_39">
      <g>
       <use style="stroke:#000000;stroke-width:0.6;" x="327.536524" xlink:href="#m5ffa54b084" y="315"/>
      </g>
     </g>
    </g>
    <g id="xtick_40">
     <g id="line2d_40">
      <g>
       <use style="stroke:#000000;stroke-width:0.6;" x="337.375315" xlink:href="#m5ffa54b084" y="315"/>
      </g>
     </g>
    </g>
    <g id="xtick_41">
     <g id="line2d_41">
      <g>
       <use style="stroke:#000000;stroke-width:0.6;" x="347.214106" xlink:href="#m5ffa54b084" y="315"/>
      </g>
     </g>
    </g>
    <g id="xtick_42">
     <g id="line2d_42">
      <g>
       <use style="stroke:#000000;stroke-width:0.6;" x="357.052897" xlink:href="#m5ffa54b084" y="315"/>
      </g>
     </g>
    </g>
    <g id="xtick_43">
     <g id="line2d_43">
      <g>
       <use style="stroke:#000000;stroke-width:0.6;" x="366.891688" xlink:href="#m5ffa54b084" y="315"/>
      </g>
     </g>
    </g>
    <g id="xtick_44">
     <g id="line2d_44">
      <g>
       <use style="stroke:#000000;stroke-width:0.6;" x="376.730479" xlink:href="#m5ffa54b084" y="315"/>
      </g>
     </g>
    </g>
    <g id="xtick_45">
     <g id="line2d_45">
      <g>
       <use style="stroke:#000000;stroke-width:0.6;" x="386.56927" xlink:href="#m5ffa54b084" y="315"/>
      </g>
     </g>
    </g>
    <g id="xtick_46">
     <g id="line2d_46">
      <g>
       <use style="stroke:#000000;stroke-width:0.6;" x="396.40806" xlink:href="#m5ffa54b084" y="315"/>
      </g>
     </g>
    </g>
    <g id="xtick_47">
     <g id="line2d_47">
      <g>
       <use style="stroke:#000000;stroke-width:0.6;" x="406.246851" xlink:href="#m5ffa54b084" y="315"/>
      </g>
     </g>
    </g>
    <g id="xtick_48">
     <g id="line2d_48">
      <g>
       <use style="stroke:#000000;stroke-width:0.6;" x="416.085642" xlink:href="#m5ffa54b084" y="315"/>
      </g>
     </g>
    </g>
    <g id="xtick_49">
     <g id="line2d_49">
      <g>
       <use style="stroke:#000000;stroke-width:0.6;" x="425.924433" xlink:href="#m5ffa54b084" y="315"/>
      </g>
     </g>
    </g>
    <g id="xtick_50">
     <g id="line2d_50">
      <g>
       <use style="stroke:#000000;stroke-width:0.6;" x="435.763224" xlink:href="#m5ffa54b084" y="315"/>
      </g>
     </g>
    </g>
    <g id="xtick_51">
     <g id="line2d_51">
      <g>
       <use style="stroke:#000000;stroke-width:0.6;" x="445.602015" xlink:href="#m5ffa54b084" y="315"/>
      </g>
     </g>
    </g>
    <g id="xtick_52">
     <g id="line2d_52">
      <g>
       <use style="stroke:#000000;stroke-width:0.6;" x="455.440806" xlink:href="#m5ffa54b084" y="315"/>
      </g>
     </g>
    </g>
    <g id="xtick_53">
     <g id="line2d_53">
      <g>
       <use style="stroke:#000000;stroke-width:0.6;" x="465.279597" xlink:href="#m5ffa54b084" y="315"/>
      </g>
     </g>
    </g>
    <g id="xtick_54">
     <g id="line2d_54">
      <g>
       <use style="stroke:#000000;stroke-width:0.6;" x="475.118388" xlink:href="#m5ffa54b084" y="315"/>
      </g>
     </g>
    </g>
    <g id="xtick_55">
     <g id="line2d_55">
      <g>
       <use style="stroke:#000000;stroke-width:0.6;" x="484.957179" xlink:href="#m5ffa54b084" y="315"/>
      </g>
     </g>
    </g>
    <g id="xtick_56">
     <g id="line2d_56">
      <g>
       <use style="stroke:#000000;stroke-width:0.6;" x="494.79597" xlink:href="#m5ffa54b084" y="315"/>
      </g>
     </g>
    </g>
    <g id="xtick_57">
     <g id="line2d_57">
      <g>
       <use style="stroke:#000000;stroke-width:0.6;" x="504.634761" xlink:href="#m5ffa54b084" y="315"/>
      </g>
     </g>
    </g>
    <g id="xtick_58">
     <g id="line2d_58">
      <g>
       <use style="stroke:#000000;stroke-width:0.6;" x="514.473552" xlink:href="#m5ffa54b084" y="315"/>
      </g>
     </g>
    </g>
    <g id="xtick_59">
     <g id="line2d_59">
      <g>
       <use style="stroke:#000000;stroke-width:0.6;" x="524.312343" xlink:href="#m5ffa54b084" y="315"/>
      </g>
     </g>
    </g>
    <g id="xtick_60">
     <g id="line2d_60">
      <g>
       <use style="stroke:#000000;stroke-width:0.6;" x="543.989924" xlink:href="#m5ffa54b084" y="315"/>
      </g>
     </g>
    </g>
    <g id="xtick_61">
     <g id="line2d_61">
      <g>
       <use style="stroke:#000000;stroke-width:0.6;" x="553.828715" xlink:href="#m5ffa54b084" y="315"/>
      </g>
     </g>
    </g>
    <g id="xtick_62">
     <g id="line2d_62">
      <g>
       <use style="stroke:#000000;stroke-width:0.6;" x="563.667506" xlink:href="#m5ffa54b084" y="315"/>
      </g>
     </g>
    </g>
    <g id="xtick_63">
     <g id="line2d_63">
      <g>
       <use style="stroke:#000000;stroke-width:0.6;" x="583.345088" xlink:href="#m5ffa54b084" y="315"/>
      </g>
     </g>
    </g>
    <g id="xtick_64">
     <g id="line2d_64">
      <g>
       <use style="stroke:#000000;stroke-width:0.6;" x="593.183879" xlink:href="#m5ffa54b084" y="315"/>
      </g>
     </g>
    </g>
    <g id="xtick_65">
     <g id="line2d_65">
      <g>
       <use style="stroke:#000000;stroke-width:0.6;" x="603.02267" xlink:href="#m5ffa54b084" y="315"/>
      </g>
     </g>
    </g>
    <g id="xtick_66">
     <g id="line2d_66">
      <g>
       <use style="stroke:#000000;stroke-width:0.6;" x="612.861461" xlink:href="#m5ffa54b084" y="315"/>
      </g>
     </g>
    </g>
    <g id="xtick_67">
     <g id="line2d_67">
      <g>
       <use style="stroke:#000000;stroke-width:0.6;" x="622.700252" xlink:href="#m5ffa54b084" y="315"/>
      </g>
     </g>
    </g>
    <g id="xtick_68">
     <g id="line2d_68">
      <g>
       <use style="stroke:#000000;stroke-width:0.6;" x="632.539043" xlink:href="#m5ffa54b084" y="315"/>
      </g>
     </g>
    </g>
    <g id="xtick_69">
     <g id="line2d_69">
      <g>
       <use style="stroke:#000000;stroke-width:0.6;" x="642.377834" xlink:href="#m5ffa54b084" y="315"/>
      </g>
     </g>
    </g>
    <g id="text_14">
     <!-- date -->
     <g transform="translate(357.725 354.474375)scale(0.1 -0.1)">
      <defs>
       <path d="M 45.40625 46.390625 
L 45.40625 75.984375 
L 54.390625 75.984375 
L 54.390625 0 
L 45.40625 0 
L 45.40625 8.203125 
Q 42.578125 3.328125 38.25 0.953125 
Q 33.9375 -1.421875 27.875 -1.421875 
Q 17.96875 -1.421875 11.734375 6.484375 
Q 5.515625 14.40625 5.515625 27.296875 
Q 5.515625 40.1875 11.734375 48.09375 
Q 17.96875 56 27.875 56 
Q 33.9375 56 38.25 53.625 
Q 42.578125 51.265625 45.40625 46.390625 
z
M 14.796875 27.296875 
Q 14.796875 17.390625 18.875 11.75 
Q 22.953125 6.109375 30.078125 6.109375 
Q 37.203125 6.109375 41.296875 11.75 
Q 45.40625 17.390625 45.40625 27.296875 
Q 45.40625 37.203125 41.296875 42.84375 
Q 37.203125 48.484375 30.078125 48.484375 
Q 22.953125 48.484375 18.875 42.84375 
Q 14.796875 37.203125 14.796875 27.296875 
z
" id="DejaVuSans-100"/>
      </defs>
      <use xlink:href="#DejaVuSans-100"/>
      <use x="63.476562" xlink:href="#DejaVuSans-97"/>
      <use x="124.755859" xlink:href="#DejaVuSans-116"/>
      <use x="163.964844" xlink:href="#DejaVuSans-101"/>
     </g>
    </g>
   </g>
   <g id="matplotlib.axis_2">
    <g id="ytick_1">
     <g id="line2d_70">
      <path clip-path="url(#p06d603a0f6)" d="M 90 296.238798 
L 648 296.238798 
" style="fill:none;stroke:#b0b0b0;stroke-dasharray:0.8,1.32;stroke-dashoffset:0;stroke-width:0.8;"/>
     </g>
     <g id="line2d_71">
      <defs>
       <path d="M 0 0 
L -3.5 0 
" id="m49759b9e20" style="stroke:#000000;stroke-width:0.8;"/>
      </defs>
      <g>
       <use style="stroke:#000000;stroke-width:0.8;" x="90" xlink:href="#m49759b9e20" y="296.238798"/>
      </g>
     </g>
     <g id="text_15">
      <!-- 0.25 -->
      <g transform="translate(60.734375 300.038017)scale(0.1 -0.1)">
       <defs>
        <path d="M 10.6875 12.40625 
L 21 12.40625 
L 21 0 
L 10.6875 0 
z
" id="DejaVuSans-46"/>
        <path d="M 10.796875 72.90625 
L 49.515625 72.90625 
L 49.515625 64.59375 
L 19.828125 64.59375 
L 19.828125 46.734375 
Q 21.96875 47.46875 24.109375 47.828125 
Q 26.265625 48.1875 28.421875 48.1875 
Q 40.625 48.1875 47.75 41.5 
Q 54.890625 34.8125 54.890625 23.390625 
Q 54.890625 11.625 47.5625 5.09375 
Q 40.234375 -1.421875 26.90625 -1.421875 
Q 22.3125 -1.421875 17.546875 -0.640625 
Q 12.796875 0.140625 7.71875 1.703125 
L 7.71875 11.625 
Q 12.109375 9.234375 16.796875 8.0625 
Q 21.484375 6.890625 26.703125 6.890625 
Q 35.15625 6.890625 40.078125 11.328125 
Q 45.015625 15.765625 45.015625 23.390625 
Q 45.015625 31 40.078125 35.4375 
Q 35.15625 39.890625 26.703125 39.890625 
Q 22.75 39.890625 18.8125 39.015625 
Q 14.890625 38.140625 10.796875 36.28125 
z
" id="DejaVuSans-53"/>
       </defs>
       <use xlink:href="#DejaVuSans-48"/>
       <use x="63.623047" xlink:href="#DejaVuSans-46"/>
       <use x="95.410156" xlink:href="#DejaVuSans-50"/>
       <use x="159.033203" xlink:href="#DejaVuSans-53"/>
      </g>
     </g>
    </g>
    <g id="ytick_2">
     <g id="line2d_72">
      <path clip-path="url(#p06d603a0f6)" d="M 90 259.775414 
L 648 259.775414 
" style="fill:none;stroke:#b0b0b0;stroke-dasharray:0.8,1.32;stroke-dashoffset:0;stroke-width:0.8;"/>
     </g>
     <g id="line2d_73">
      <g>
       <use style="stroke:#000000;stroke-width:0.8;" x="90" xlink:href="#m49759b9e20" y="259.775414"/>
      </g>
     </g>
     <g id="text_16">
      <!-- 0.50 -->
      <g transform="translate(60.734375 263.574633)scale(0.1 -0.1)">
       <use xlink:href="#DejaVuSans-48"/>
       <use x="63.623047" xlink:href="#DejaVuSans-46"/>
       <use x="95.410156" xlink:href="#DejaVuSans-53"/>
       <use x="159.033203" xlink:href="#DejaVuSans-48"/>
      </g>
     </g>
    </g>
    <g id="ytick_3">
     <g id="line2d_74">
      <path clip-path="url(#p06d603a0f6)" d="M 90 223.31203 
L 648 223.31203 
" style="fill:none;stroke:#b0b0b0;stroke-dasharray:0.8,1.32;stroke-dashoffset:0;stroke-width:0.8;"/>
     </g>
     <g id="line2d_75">
      <g>
       <use style="stroke:#000000;stroke-width:0.8;" x="90" xlink:href="#m49759b9e20" y="223.31203"/>
      </g>
     </g>
     <g id="text_17">
      <!-- 0.75 -->
      <g transform="translate(60.734375 227.111249)scale(0.1 -0.1)">
       <defs>
        <path d="M 8.203125 72.90625 
L 55.078125 72.90625 
L 55.078125 68.703125 
L 28.609375 0 
L 18.3125 0 
L 43.21875 64.59375 
L 8.203125 64.59375 
z
" id="DejaVuSans-55"/>
       </defs>
       <use xlink:href="#DejaVuSans-48"/>
       <use x="63.623047" xlink:href="#DejaVuSans-46"/>
       <use x="95.410156" xlink:href="#DejaVuSans-55"/>
       <use x="159.033203" xlink:href="#DejaVuSans-53"/>
      </g>
     </g>
    </g>
    <g id="ytick_4">
     <g id="line2d_76">
      <path clip-path="url(#p06d603a0f6)" d="M 90 186.848646 
L 648 186.848646 
" style="fill:none;stroke:#b0b0b0;stroke-dasharray:0.8,1.32;stroke-dashoffset:0;stroke-width:0.8;"/>
     </g>
     <g id="line2d_77">
      <g>
       <use style="stroke:#000000;stroke-width:0.8;" x="90" xlink:href="#m49759b9e20" y="186.848646"/>
      </g>
     </g>
     <g id="text_18">
      <!-- 1.00 -->
      <g transform="translate(60.734375 190.647865)scale(0.1 -0.1)">
       <use xlink:href="#DejaVuSans-49"/>
       <use x="63.623047" xlink:href="#DejaVuSans-46"/>
       <use x="95.410156" xlink:href="#DejaVuSans-48"/>
       <use x="159.033203" xlink:href="#DejaVuSans-48"/>
      </g>
     </g>
    </g>
    <g id="ytick_5">
     <g id="line2d_78">
      <path clip-path="url(#p06d603a0f6)" d="M 90 150.385262 
L 648 150.385262 
" style="fill:none;stroke:#b0b0b0;stroke-dasharray:0.8,1.32;stroke-dashoffset:0;stroke-width:0.8;"/>
     </g>
     <g id="line2d_79">
      <g>
       <use style="stroke:#000000;stroke-width:0.8;" x="90" xlink:href="#m49759b9e20" y="150.385262"/>
      </g>
     </g>
     <g id="text_19">
      <!-- 1.25 -->
      <g transform="translate(60.734375 154.184481)scale(0.1 -0.1)">
       <use xlink:href="#DejaVuSans-49"/>
       <use x="63.623047" xlink:href="#DejaVuSans-46"/>
       <use x="95.410156" xlink:href="#DejaVuSans-50"/>
       <use x="159.033203" xlink:href="#DejaVuSans-53"/>
      </g>
     </g>
    </g>
    <g id="ytick_6">
     <g id="line2d_80">
      <path clip-path="url(#p06d603a0f6)" d="M 90 113.921878 
L 648 113.921878 
" style="fill:none;stroke:#b0b0b0;stroke-dasharray:0.8,1.32;stroke-dashoffset:0;stroke-width:0.8;"/>
     </g>
     <g id="line2d_81">
      <g>
       <use style="stroke:#000000;stroke-width:0.8;" x="90" xlink:href="#m49759b9e20" y="113.921878"/>
      </g>
     </g>
     <g id="text_20">
      <!-- 1.50 -->
      <g transform="translate(60.734375 117.721097)scale(0.1 -0.1)">
       <use xlink:href="#DejaVuSans-49"/>
       <use x="63.623047" xlink:href="#DejaVuSans-46"/>
       <use x="95.410156" xlink:href="#DejaVuSans-53"/>
       <use x="159.033203" xlink:href="#DejaVuSans-48"/>
      </g>
     </g>
    </g>
    <g id="ytick_7">
     <g id="line2d_82">
      <path clip-path="url(#p06d603a0f6)" d="M 90 77.458494 
L 648 77.458494 
" style="fill:none;stroke:#b0b0b0;stroke-dasharray:0.8,1.32;stroke-dashoffset:0;stroke-width:0.8;"/>
     </g>
     <g id="line2d_83">
      <g>
       <use style="stroke:#000000;stroke-width:0.8;" x="90" xlink:href="#m49759b9e20" y="77.458494"/>
      </g>
     </g>
     <g id="text_21">
      <!-- 1.75 -->
      <g transform="translate(60.734375 81.257713)scale(0.1 -0.1)">
       <use xlink:href="#DejaVuSans-49"/>
       <use x="63.623047" xlink:href="#DejaVuSans-46"/>
       <use x="95.410156" xlink:href="#DejaVuSans-55"/>
       <use x="159.033203" xlink:href="#DejaVuSans-53"/>
      </g>
     </g>
    </g>
   </g>
   <g id="line2d_84">
    <path clip-path="url(#p06d603a0f6)" d="M 90 193.104843 
L 91.405542 192.818264 
L 92.811083 193.919358 
L 94.216625 194.697297 
L 95.622166 193.885594 
L 98.433249 194.199603 
L 99.838791 194.434982 
L 101.244332 194.825281 
L 102.649874 195.812732 
L 104.055416 197.020588 
L 105.460957 198.579188 
L 108.27204 203.434833 
L 109.677582 206.17564 
L 111.083123 210.147032 
L 112.488665 213.275591 
L 113.894207 217.349542 
L 116.70529 224.99645 
L 118.110831 229.035924 
L 119.516373 232.093042 
L 122.327456 237.432499 
L 125.138539 240.581673 
L 126.544081 242.5276 
L 127.949622 244.110539 
L 129.355164 244.966515 
L 130.760705 246.31511 
L 132.166247 246.599047 
L 134.97733 246.170327 
L 137.788413 244.643658 
L 140.599496 242.514258 
L 142.005038 240.913614 
L 144.816121 236.750162 
L 146.221662 235.347215 
L 147.627204 232.720049 
L 149.032746 230.921441 
L 150.438287 227.910627 
L 151.843829 223.986491 
L 153.24937 220.968489 
L 154.654912 216.7782 
L 156.060453 213.507788 
L 157.465995 210.565749 
L 160.277078 201.175493 
L 161.68262 196.233806 
L 163.088161 190.332137 
L 164.493703 186.386555 
L 170.115869 165.462277 
L 172.926952 152.616203 
L 174.332494 148.512254 
L 177.143577 136.187642 
L 178.549118 130.860081 
L 179.95466 126.249985 
L 181.360202 123.065519 
L 184.171285 115.960952 
L 185.576826 115.08582 
L 186.982368 113.253332 
L 188.387909 109.938652 
L 189.793451 110.077436 
L 191.198992 109.852002 
L 194.010076 111.842216 
L 198.2267 117.739212 
L 199.632242 119.843218 
L 201.037783 121.287261 
L 202.443325 121.883236 
L 203.848866 124.477511 
L 205.254408 124.859879 
L 208.065491 126.3593 
L 209.471033 126.926526 
L 210.876574 127.095877 
L 212.282116 127.45902 
L 213.687657 128.299652 
L 215.093199 129.577466 
L 216.498741 128.236505 
L 217.904282 130.499155 
L 219.309824 130.366446 
L 220.715365 131.46247 
L 222.120907 130.975312 
L 223.526448 131.932498 
L 226.337531 130.97753 
L 227.743073 131.458696 
L 229.148615 131.402161 
L 230.554156 130.624911 
L 231.959698 132.541195 
L 233.365239 132.072172 
L 234.770781 133.758149 
L 236.176322 133.71085 
L 237.581864 134.353017 
L 238.987406 136.761397 
L 240.392947 138.624314 
L 241.798489 139.356102 
L 243.20403 142.914681 
L 244.609572 147.040227 
L 246.015113 149.58963 
L 247.420655 151.744593 
L 248.826196 154.448882 
L 250.231738 158.673513 
L 251.63728 161.542346 
L 254.448363 168.061132 
L 255.853904 171.26978 
L 257.259446 175.02362 
L 258.664987 178.193671 
L 260.070529 180.543861 
L 261.476071 182.509331 
L 262.881612 183.542887 
L 264.287154 185.647322 
L 265.692695 185.778745 
L 267.098237 186.28285 
L 268.503778 187.029064 
L 269.90932 186.043574 
L 271.314861 185.330039 
L 272.720403 185.076277 
L 274.125945 184.232808 
L 275.531486 182.967104 
L 276.937028 182.474842 
L 278.342569 181.018834 
L 279.748111 180.11777 
L 281.153652 178.01068 
L 282.559194 177.013272 
L 283.964736 173.66875 
L 285.370277 171.90463 
L 286.775819 169.263997 
L 288.18136 166.089633 
L 289.586902 163.768878 
L 290.992443 160.079242 
L 292.397985 158.118777 
L 293.803526 154.606527 
L 295.209068 149.26439 
L 296.61461 146.334263 
L 298.020151 144.383565 
L 303.642317 131.304167 
L 305.047859 130.396234 
L 306.453401 129.969861 
L 307.858942 128.128748 
L 309.264484 129.491607 
L 310.670025 130.659796 
L 312.075567 130.896591 
L 313.481108 135.139047 
L 314.88665 137.82154 
L 317.697733 145.269031 
L 319.103275 148.479463 
L 320.508816 155.316672 
L 323.319899 163.729544 
L 324.725441 170.322647 
L 326.130982 175.346669 
L 328.942065 183.691918 
L 330.347607 189.513189 
L 331.753149 194.07127 
L 333.15869 199.446276 
L 334.564232 203.962036 
L 340.186398 219.963506 
L 341.59194 223.097383 
L 342.997481 227.10584 
L 344.403023 229.714153 
L 345.808564 232.561824 
L 347.214106 235.011558 
L 348.619647 238.398824 
L 350.025189 241.329049 
L 352.836272 245.624496 
L 358.458438 251.9904 
L 359.86398 252.030271 
L 361.269521 253.551303 
L 364.080605 254.228254 
L 365.486146 254.086625 
L 371.108312 251.245735 
L 372.513854 250.549258 
L 375.324937 247.825663 
L 378.13602 244.458905 
L 379.541562 242.323542 
L 380.947103 240.414834 
L 383.758186 235.488753 
L 385.163728 233.0723 
L 386.56927 230.160973 
L 387.974811 226.403133 
L 389.380353 223.194973 
L 390.785894 219.668337 
L 392.191436 216.599786 
L 395.002519 209.338174 
L 397.813602 204.038958 
L 400.624685 197.260839 
L 402.030227 194.61095 
L 403.435768 191.456886 
L 406.246851 186.969162 
L 407.652393 184.935551 
L 409.057935 182.686652 
L 410.463476 180.188875 
L 411.869018 178.98456 
L 413.274559 176.894284 
L 414.680101 175.805322 
L 416.085642 173.858792 
L 417.491184 172.613652 
L 418.896725 172.005581 
L 420.302267 170.068224 
L 421.707809 169.482527 
L 423.11335 168.544011 
L 424.518892 166.480257 
L 425.924433 166.72627 
L 427.329975 166.013545 
L 428.735516 166.029517 
L 430.141058 165.534591 
L 431.546599 165.399429 
L 432.952141 165.004011 
L 434.357683 163.618572 
L 435.763224 162.908533 
L 437.168766 160.953874 
L 438.574307 157.705605 
L 439.979849 153.940209 
L 441.38539 151.398746 
L 442.790932 148.46158 
L 445.602015 139.343969 
L 447.007557 135.733155 
L 448.413098 130.546167 
L 449.81864 124.165406 
L 451.224181 120.918934 
L 452.629723 114.385909 
L 454.035264 109.926464 
L 455.440806 104.109348 
L 458.251889 96.649899 
L 459.657431 93.84282 
L 461.062972 92.579083 
L 462.468514 90.939997 
L 463.874055 89.981453 
L 465.279597 89.55636 
L 466.685139 90.243135 
L 468.09068 93.487278 
L 469.496222 98.467882 
L 470.901763 101.888669 
L 472.307305 105.968065 
L 473.712846 107.931726 
L 476.523929 118.480411 
L 477.929471 121.351559 
L 482.146096 134.251892 
L 483.551637 139.424267 
L 484.957179 142.494627 
L 486.36272 145.832124 
L 487.768262 149.526911 
L 490.579345 153.375687 
L 491.984887 154.343368 
L 493.390428 157.013562 
L 494.79597 157.527523 
L 496.201511 159.481283 
L 497.607053 161.111756 
L 499.012594 161.572646 
L 500.418136 162.579279 
L 501.823678 163.021047 
L 504.634761 165.143245 
L 506.040302 165.7591 
L 507.445844 166.11122 
L 508.851385 166.874502 
L 510.256927 168.873659 
L 513.06801 170.422351 
L 514.473552 172.370467 
L 515.879093 175.294375 
L 517.284635 177.629879 
L 518.690176 180.805683 
L 521.501259 188.45281 
L 522.906801 191.317358 
L 524.312343 194.805364 
L 525.717884 198.821098 
L 527.123426 202.023583 
L 528.528967 205.941733 
L 529.934509 208.195115 
L 531.34005 210.715303 
L 532.745592 212.486657 
L 534.151134 215.155291 
L 535.556675 216.408482 
L 538.367758 219.324285 
L 539.7733 219.42099 
L 541.178841 220.198432 
L 542.584383 220.799242 
L 543.989924 220.730387 
L 545.395466 221.141879 
L 546.801008 221.169423 
L 548.206549 221.347186 
L 549.612091 222.462092 
L 552.423174 222.49309 
L 553.828715 222.20328 
L 556.639798 223.812797 
L 558.04534 224.765804 
L 559.450882 225.393794 
L 560.856423 226.415071 
L 562.261965 227.749083 
L 563.667506 229.749974 
L 565.073048 231.060669 
L 567.884131 235.190324 
L 569.289673 236.53924 
L 570.695214 238.161398 
L 572.100756 239.544688 
L 573.506297 240.674362 
L 574.911839 241.553691 
L 576.31738 242.979198 
L 577.722922 244.179884 
L 580.534005 245.228737 
L 581.939547 244.686478 
L 583.345088 244.900743 
L 584.75063 245.683857 
L 586.156171 244.936621 
L 587.561713 245.773802 
L 588.967254 246.112595 
L 590.372796 246.833302 
L 591.778338 246.802195 
L 593.183879 247.479374 
L 594.589421 248.497756 
L 595.994962 249.300732 
L 597.400504 249.474784 
L 598.806045 250.642849 
L 600.211587 251.05293 
L 601.617128 253.06131 
L 603.02267 253.940502 
L 604.428212 254.987748 
L 605.833753 256.587804 
L 607.239295 257.625989 
L 610.050378 260.524138 
L 611.455919 261.579344 
L 612.861461 262.860191 
L 614.267003 263.795324 
L 617.078086 265.250018 
L 619.889169 266.229847 
L 621.29471 266.133169 
L 622.700252 266.490925 
L 625.511335 267.834172 
L 626.916877 268.331299 
L 628.322418 268.05073 
L 629.72796 268.430896 
L 631.133501 268.973951 
L 632.539043 268.671229 
L 635.350126 269.140121 
L 636.755668 268.539976 
L 638.161209 268.898393 
L 639.566751 268.752436 
L 640.972292 268.898293 
L 642.377834 268.230957 
L 645.188917 268.238813 
L 646.594458 268.012262 
L 648 269.179553 
L 650.811083 269.03296 
L 652.216625 269.666176 
L 655.027708 268.289056 
L 656.433249 268.467725 
L 657.838791 269.022952 
L 657.838791 269.022952 
" style="fill:none;stroke:#fc997a;stroke-linecap:square;stroke-width:1.5;"/>
   </g>
   <g id="line2d_85">
    <path clip-path="url(#p06d603a0f6)" d="M 90 186.848646 
L 648 186.848646 
" style="fill:none;stroke:#000000;stroke-dasharray:3.7,1.6;stroke-dashoffset:0;"/>
   </g>
   <g id="patch_3">
    <path d="M 90 315 
L 90 43.2 
" style="fill:none;stroke:#000000;stroke-linecap:square;stroke-linejoin:miter;stroke-width:0.8;"/>
   </g>
   <g id="patch_4">
    <path d="M 648 315 
L 648 43.2 
" style="fill:none;stroke:#000000;stroke-linecap:square;stroke-linejoin:miter;stroke-width:0.8;"/>
   </g>
   <g id="patch_5">
    <path d="M 90 315 
L 648 315 
" style="fill:none;stroke:#000000;stroke-linecap:square;stroke-linejoin:miter;stroke-width:0.8;"/>
   </g>
   <g id="patch_6">
    <path d="M 90 43.2 
L 648 43.2 
" style="fill:none;stroke:#000000;stroke-linecap:square;stroke-linejoin:miter;stroke-width:0.8;"/>
   </g>
   <g id="text_22">
    <!-- 621   $R_t$ -->
    <g transform="translate(325.44 37.2)scale(0.12 -0.12)">
     <defs>
      <path d="M 33.015625 40.375 
Q 26.375 40.375 22.484375 35.828125 
Q 18.609375 31.296875 18.609375 23.390625 
Q 18.609375 15.53125 22.484375 10.953125 
Q 26.375 6.390625 33.015625 6.390625 
Q 39.65625 6.390625 43.53125 10.953125 
Q 47.40625 15.53125 47.40625 23.390625 
Q 47.40625 31.296875 43.53125 35.828125 
Q 39.65625 40.375 33.015625 40.375 
z
M 52.59375 71.296875 
L 52.59375 62.3125 
Q 48.875 64.0625 45.09375 64.984375 
Q 41.3125 65.921875 37.59375 65.921875 
Q 27.828125 65.921875 22.671875 59.328125 
Q 17.53125 52.734375 16.796875 39.40625 
Q 19.671875 43.65625 24.015625 45.921875 
Q 28.375 48.1875 33.59375 48.1875 
Q 44.578125 48.1875 50.953125 41.515625 
Q 57.328125 34.859375 57.328125 23.390625 
Q 57.328125 12.15625 50.6875 5.359375 
Q 44.046875 -1.421875 33.015625 -1.421875 
Q 20.359375 -1.421875 13.671875 8.265625 
Q 6.984375 17.96875 6.984375 36.375 
Q 6.984375 53.65625 15.1875 63.9375 
Q 23.390625 74.21875 37.203125 74.21875 
Q 40.921875 74.21875 44.703125 73.484375 
Q 48.484375 72.75 52.59375 71.296875 
z
" id="DejaVuSans-54"/>
      <path id="DejaVuSans-32"/>
      <path d="M 47.359375 27.828125 
L 47.359375 0 
L 38.28125 0 
L 38.28125 27.828125 
Q 38.28125 31.390625 37.765625 34.265625 
Q 37.25 37.15625 36 39.71875 
Q 34.765625 42.28125 32.8125 43.984375 
Q 30.859375 45.703125 27.78125 46.703125 
Q 24.703125 47.703125 20.703125 47.703125 
L 4.296875 47.703125 
L 4.296875 54.6875 
L 20.65625 54.6875 
Q 26.8125 54.6875 31.46875 53.390625 
Q 36.140625 52.09375 39.109375 49.828125 
Q 42.09375 47.5625 43.96875 44.109375 
Q 45.84375 40.671875 46.59375 36.734375 
Q 47.359375 32.8125 47.359375 27.828125 
z
" id="DejaVuSans-1512"/>
      <path d="M 31.203125 29.59375 
Q 31.203125 22.5625 32.890625 14.75 
Q 34.578125 6.9375 38.328125 0 
L 28.609375 0 
Q 25.78125 6.59375 24.5625 12.0625 
Q 22.953125 8.109375 21.234375 5.59375 
Q 19.53125 3.078125 17.578125 1.75 
Q 15.625 0.4375 13.671875 -0.015625 
Q 11.71875 -0.484375 9.03125 -0.484375 
Q 6.78125 -0.484375 4.296875 0.203125 
L 4.296875 8.453125 
Q 5.953125 7.953125 7.71875 7.953125 
Q 9.859375 7.953125 11.546875 8.265625 
Q 13.234375 8.59375 15.328125 9.859375 
Q 17.4375 11.140625 18.796875 13.359375 
Q 20.171875 15.578125 21.140625 19.71875 
Q 22.125 23.875 22.125 29.59375 
Q 22.125 36.96875 20.875 40.890625 
Q 19.625 44.828125 17.15625 46.265625 
Q 14.703125 47.703125 10.203125 47.703125 
L 5.8125 47.703125 
L 5.8125 54.6875 
L 10.5 54.6875 
Q 21.296875 54.6875 26.25 48.734375 
Q 31.203125 42.78125 31.203125 29.59375 
z
" id="DejaVuSans-1490"/>
      <path d="M 18.171875 54.6875 
L 18.171875 0 
L 9.078125 0 
L 9.078125 54.6875 
z
" id="DejaVuSans-1493"/>
      <path d="M 30.328125 54.6875 
L 30.328125 47.703125 
L 26.421875 47.703125 
Q 22.171875 47.703125 20.578125 43.921875 
Q 19 40.140625 19 30.90625 
L 19 0 
L 9.90625 0 
L 9.90625 30.90625 
Q 9.90625 37.109375 11.78125 41.453125 
Q 13.671875 45.796875 16.40625 47.703125 
L 4.296875 47.703125 
L 4.296875 54.6875 
z
" id="DejaVuSans-1494"/>
      <path d="M 43.75 20.0625 
L 57.671875 0 
L 47.078125 0 
L 26.765625 29.296875 
Q 25.390625 28.609375 24.53125 28.09375 
Q 23.6875 27.59375 22.3125 26.296875 
Q 20.953125 25 20.140625 23.40625 
Q 19.34375 21.828125 18.703125 19.140625 
Q 18.0625 16.453125 18.0625 13.09375 
L 18.0625 0 
L 9.078125 0 
L 9.078125 9.03125 
Q 9.078125 12.984375 9.5625 16.359375 
Q 10.0625 19.734375 10.8125 22.078125 
Q 11.578125 24.421875 12.796875 26.390625 
Q 14.015625 28.375 15.109375 29.59375 
Q 16.21875 30.8125 17.796875 31.875 
Q 19.390625 32.953125 20.453125 33.46875 
Q 21.53125 33.984375 23.046875 34.625 
L 9.1875 54.6875 
L 19.78125 54.6875 
L 40.09375 25.390625 
Q 41.40625 26.03125 42.25 26.53125 
Q 43.109375 27.046875 44.46875 28.359375 
Q 45.84375 29.6875 46.671875 31.265625 
Q 47.515625 32.859375 48.140625 35.546875 
Q 48.78125 38.234375 48.78125 41.609375 
L 48.78125 54.6875 
L 57.765625 54.6875 
L 57.765625 45.65625 
Q 57.765625 41.65625 57.265625 38.3125 
Q 56.78125 34.96875 56.03125 32.59375 
Q 55.28125 30.21875 54.046875 28.234375 
Q 52.828125 26.265625 51.703125 25.0625 
Q 50.59375 23.875 49.03125 22.796875 
Q 47.46875 21.734375 46.390625 21.21875 
Q 45.3125 20.703125 43.75 20.0625 
z
" id="DejaVuSans-1488"/>
      <path d="M 25.203125 64.796875 
L 20.21875 38.921875 
L 32.90625 38.921875 
Q 40.375 38.921875 44.984375 43.046875 
Q 49.609375 47.171875 49.609375 53.8125 
Q 49.609375 59.125 46.5 61.953125 
Q 43.40625 64.796875 37.59375 64.796875 
z
M 43.3125 35.015625 
Q 46.4375 34.28125 48.515625 31.390625 
Q 50.59375 28.515625 53.328125 19.921875 
L 59.515625 0 
L 49.125 0 
L 43.40625 18.703125 
Q 41.21875 25.921875 38.328125 28.359375 
Q 35.453125 30.8125 29.5 30.8125 
L 18.609375 30.8125 
L 12.59375 0 
L 2.6875 0 
L 16.890625 72.90625 
L 39.109375 72.90625 
Q 49.21875 72.90625 54.609375 68.328125 
Q 60.015625 63.765625 60.015625 55.171875 
Q 60.015625 47.5625 55.421875 41.984375 
Q 50.828125 36.421875 43.3125 35.015625 
z
" id="DejaVuSans-Oblique-82"/>
      <path d="M 42.28125 54.6875 
L 40.921875 47.703125 
L 23 47.703125 
L 17.1875 18.015625 
Q 16.890625 16.359375 16.75 15.234375 
Q 16.609375 14.109375 16.609375 13.484375 
Q 16.609375 10.359375 18.484375 8.9375 
Q 20.359375 7.515625 24.515625 7.515625 
L 33.59375 7.515625 
L 32.078125 0 
L 23.484375 0 
Q 15.484375 0 11.546875 3.125 
Q 7.625 6.25 7.625 12.59375 
Q 7.625 13.71875 7.765625 15.0625 
Q 7.90625 16.40625 8.203125 18.015625 
L 14.015625 47.703125 
L 6.390625 47.703125 
L 7.8125 54.6875 
L 15.28125 54.6875 
L 18.3125 70.21875 
L 27.296875 70.21875 
L 24.3125 54.6875 
z
" id="DejaVuSans-Oblique-116"/>
     </defs>
     <use transform="translate(0 0.78125)" xlink:href="#DejaVuSans-54"/>
     <use transform="translate(63.623047 0.78125)" xlink:href="#DejaVuSans-50"/>
     <use transform="translate(127.246094 0.78125)" xlink:href="#DejaVuSans-49"/>
     <use transform="translate(190.869141 0.78125)" xlink:href="#DejaVuSans-32"/>
     <use transform="translate(222.65625 0.78125)" xlink:href="#DejaVuSans-1512"/>
     <use transform="translate(279.101562 0.78125)" xlink:href="#DejaVuSans-1512"/>
     <use transform="translate(335.546875 0.78125)" xlink:href="#DejaVuSans-1490"/>
     <use transform="translate(376.757812 0.78125)" xlink:href="#DejaVuSans-32"/>
     <use transform="translate(408.544922 0.78125)" xlink:href="#DejaVuSans-1512"/>
     <use transform="translate(464.990234 0.78125)" xlink:href="#DejaVuSans-1493"/>
     <use transform="translate(492.236328 0.78125)" xlink:href="#DejaVuSans-1494"/>
     <use transform="translate(526.855469 0.78125)" xlink:href="#DejaVuSans-1488"/>
     <use transform="translate(593.701172 0.78125)" xlink:href="#DejaVuSans-32"/>
     <use transform="translate(625.488281 0.78125)" xlink:href="#DejaVuSans-Oblique-82"/>
     <use transform="translate(694.970703 -15.625)scale(0.7)" xlink:href="#DejaVuSans-Oblique-116"/>
    </g>
   </g>
  </g>
 </g>
 <defs>
  <clipPath id="p06d603a0f6">
   <rect height="271.8" width="558" x="90" y="43.2"/>
  </clipPath>
 </defs>
</svg>
