<?xml version="1.0" encoding="utf-8" standalone="no"?>
<!DOCTYPE svg PUBLIC "-//W3C//DTD SVG 1.1//EN"
  "http://www.w3.org/Graphics/SVG/1.1/DTD/svg11.dtd">
<!-- Created with matplotlib (https://matplotlib.org/) -->
<svg height="360pt" version="1.1" viewBox="0 0 720 360" width="720pt" xmlns="http://www.w3.org/2000/svg" xmlns:xlink="http://www.w3.org/1999/xlink">
 <metadata>
  <rdf:RDF xmlns:cc="http://creativecommons.org/ns#" xmlns:dc="http://purl.org/dc/elements/1.1/" xmlns:rdf="http://www.w3.org/1999/02/22-rdf-syntax-ns#">
   <cc:Work>
    <dc:type rdf:resource="http://purl.org/dc/dcmitype/StillImage"/>
    <dc:date>2021-01-04T06:07:42.564027</dc:date>
    <dc:format>image/svg+xml</dc:format>
    <dc:creator>
     <cc:Agent>
      <dc:title>Matplotlib v3.3.2, https://matplotlib.org/</dc:title>
     </cc:Agent>
    </dc:creator>
   </cc:Work>
  </rdf:RDF>
 </metadata>
 <defs>
  <style type="text/css">*{stroke-linecap:butt;stroke-linejoin:round;}</style>
 </defs>
 <g id="figure_1">
  <g id="patch_1">
   <path d="M 0 360 
L 720 360 
L 720 0 
L 0 0 
z
" style="fill:#ffffff;"/>
  </g>
  <g id="axes_1">
   <g id="patch_2">
    <path d="M 90 315 
L 648 315 
L 648 43.2 
L 90 43.2 
z
" style="fill:#ffffff;"/>
   </g>
   <g id="matplotlib.axis_1">
    <g id="xtick_1">
     <g id="line2d_1">
      <defs>
       <path d="M 0 0 
L 0 3.5 
" id="me31003574f" style="stroke:#000000;stroke-width:0.8;"/>
      </defs>
      <g>
       <use style="stroke:#000000;stroke-width:0.8;" x="90" xlink:href="#me31003574f" y="315"/>
      </g>
     </g>
    </g>
    <g id="xtick_2">
     <g id="line2d_2">
      <g>
       <use style="stroke:#000000;stroke-width:0.8;" x="127.702703" xlink:href="#me31003574f" y="315"/>
      </g>
     </g>
     <g id="text_1">
      <!-- Apr -->
      <g transform="translate(119.052703 329.598437)scale(0.1 -0.1)">
       <defs>
        <path d="M 34.1875 63.1875 
L 20.796875 26.90625 
L 47.609375 26.90625 
z
M 28.609375 72.90625 
L 39.796875 72.90625 
L 67.578125 0 
L 57.328125 0 
L 50.6875 18.703125 
L 17.828125 18.703125 
L 11.1875 0 
L 0.78125 0 
z
" id="DejaVuSans-65"/>
        <path d="M 18.109375 8.203125 
L 18.109375 -20.796875 
L 9.078125 -20.796875 
L 9.078125 54.6875 
L 18.109375 54.6875 
L 18.109375 46.390625 
Q 20.953125 51.265625 25.265625 53.625 
Q 29.59375 56 35.59375 56 
Q 45.5625 56 51.78125 48.09375 
Q 58.015625 40.1875 58.015625 27.296875 
Q 58.015625 14.40625 51.78125 6.484375 
Q 45.5625 -1.421875 35.59375 -1.421875 
Q 29.59375 -1.421875 25.265625 0.953125 
Q 20.953125 3.328125 18.109375 8.203125 
z
M 48.6875 27.296875 
Q 48.6875 37.203125 44.609375 42.84375 
Q 40.53125 48.484375 33.40625 48.484375 
Q 26.265625 48.484375 22.1875 42.84375 
Q 18.109375 37.203125 18.109375 27.296875 
Q 18.109375 17.390625 22.1875 11.75 
Q 26.265625 6.109375 33.40625 6.109375 
Q 40.53125 6.109375 44.609375 11.75 
Q 48.6875 17.390625 48.6875 27.296875 
z
" id="DejaVuSans-112"/>
        <path d="M 41.109375 46.296875 
Q 39.59375 47.171875 37.8125 47.578125 
Q 36.03125 48 33.890625 48 
Q 26.265625 48 22.1875 43.046875 
Q 18.109375 38.09375 18.109375 28.8125 
L 18.109375 0 
L 9.078125 0 
L 9.078125 54.6875 
L 18.109375 54.6875 
L 18.109375 46.1875 
Q 20.953125 51.171875 25.484375 53.578125 
Q 30.03125 56 36.53125 56 
Q 37.453125 56 38.578125 55.875 
Q 39.703125 55.765625 41.0625 55.515625 
z
" id="DejaVuSans-114"/>
       </defs>
       <use xlink:href="#DejaVuSans-65"/>
       <use x="68.408203" xlink:href="#DejaVuSans-112"/>
       <use x="131.884766" xlink:href="#DejaVuSans-114"/>
      </g>
     </g>
    </g>
    <g id="xtick_3">
     <g id="line2d_3">
      <g>
       <use style="stroke:#000000;stroke-width:0.8;" x="184.256757" xlink:href="#me31003574f" y="315"/>
      </g>
     </g>
     <g id="text_2">
      <!-- May -->
      <g transform="translate(173.919257 329.598437)scale(0.1 -0.1)">
       <defs>
        <path d="M 9.8125 72.90625 
L 24.515625 72.90625 
L 43.109375 23.296875 
L 61.8125 72.90625 
L 76.515625 72.90625 
L 76.515625 0 
L 66.890625 0 
L 66.890625 64.015625 
L 48.09375 14.015625 
L 38.1875 14.015625 
L 19.390625 64.015625 
L 19.390625 0 
L 9.8125 0 
z
" id="DejaVuSans-77"/>
        <path d="M 34.28125 27.484375 
Q 23.390625 27.484375 19.1875 25 
Q 14.984375 22.515625 14.984375 16.5 
Q 14.984375 11.71875 18.140625 8.90625 
Q 21.296875 6.109375 26.703125 6.109375 
Q 34.1875 6.109375 38.703125 11.40625 
Q 43.21875 16.703125 43.21875 25.484375 
L 43.21875 27.484375 
z
M 52.203125 31.203125 
L 52.203125 0 
L 43.21875 0 
L 43.21875 8.296875 
Q 40.140625 3.328125 35.546875 0.953125 
Q 30.953125 -1.421875 24.3125 -1.421875 
Q 15.921875 -1.421875 10.953125 3.296875 
Q 6 8.015625 6 15.921875 
Q 6 25.140625 12.171875 29.828125 
Q 18.359375 34.515625 30.609375 34.515625 
L 43.21875 34.515625 
L 43.21875 35.40625 
Q 43.21875 41.609375 39.140625 45 
Q 35.0625 48.390625 27.6875 48.390625 
Q 23 48.390625 18.546875 47.265625 
Q 14.109375 46.140625 10.015625 43.890625 
L 10.015625 52.203125 
Q 14.9375 54.109375 19.578125 55.046875 
Q 24.21875 56 28.609375 56 
Q 40.484375 56 46.34375 49.84375 
Q 52.203125 43.703125 52.203125 31.203125 
z
" id="DejaVuSans-97"/>
        <path d="M 32.171875 -5.078125 
Q 28.375 -14.84375 24.75 -17.8125 
Q 21.140625 -20.796875 15.09375 -20.796875 
L 7.90625 -20.796875 
L 7.90625 -13.28125 
L 13.1875 -13.28125 
Q 16.890625 -13.28125 18.9375 -11.515625 
Q 21 -9.765625 23.484375 -3.21875 
L 25.09375 0.875 
L 2.984375 54.6875 
L 12.5 54.6875 
L 29.59375 11.921875 
L 46.6875 54.6875 
L 56.203125 54.6875 
z
" id="DejaVuSans-121"/>
       </defs>
       <use xlink:href="#DejaVuSans-77"/>
       <use x="86.279297" xlink:href="#DejaVuSans-97"/>
       <use x="147.558594" xlink:href="#DejaVuSans-121"/>
      </g>
     </g>
    </g>
    <g id="xtick_4">
     <g id="line2d_4">
      <g>
       <use style="stroke:#000000;stroke-width:0.8;" x="242.695946" xlink:href="#me31003574f" y="315"/>
      </g>
     </g>
     <g id="text_3">
      <!-- Jun -->
      <g transform="translate(234.883446 329.598437)scale(0.1 -0.1)">
       <defs>
        <path d="M 9.8125 72.90625 
L 19.671875 72.90625 
L 19.671875 5.078125 
Q 19.671875 -8.109375 14.671875 -14.0625 
Q 9.671875 -20.015625 -1.421875 -20.015625 
L -5.171875 -20.015625 
L -5.171875 -11.71875 
L -2.09375 -11.71875 
Q 4.4375 -11.71875 7.125 -8.046875 
Q 9.8125 -4.390625 9.8125 5.078125 
z
" id="DejaVuSans-74"/>
        <path d="M 8.5 21.578125 
L 8.5 54.6875 
L 17.484375 54.6875 
L 17.484375 21.921875 
Q 17.484375 14.15625 20.5 10.265625 
Q 23.53125 6.390625 29.59375 6.390625 
Q 36.859375 6.390625 41.078125 11.03125 
Q 45.3125 15.671875 45.3125 23.6875 
L 45.3125 54.6875 
L 54.296875 54.6875 
L 54.296875 0 
L 45.3125 0 
L 45.3125 8.40625 
Q 42.046875 3.421875 37.71875 1 
Q 33.40625 -1.421875 27.6875 -1.421875 
Q 18.265625 -1.421875 13.375 4.4375 
Q 8.5 10.296875 8.5 21.578125 
z
M 31.109375 56 
z
" id="DejaVuSans-117"/>
        <path d="M 54.890625 33.015625 
L 54.890625 0 
L 45.90625 0 
L 45.90625 32.71875 
Q 45.90625 40.484375 42.875 44.328125 
Q 39.84375 48.1875 33.796875 48.1875 
Q 26.515625 48.1875 22.3125 43.546875 
Q 18.109375 38.921875 18.109375 30.90625 
L 18.109375 0 
L 9.078125 0 
L 9.078125 54.6875 
L 18.109375 54.6875 
L 18.109375 46.1875 
Q 21.34375 51.125 25.703125 53.5625 
Q 30.078125 56 35.796875 56 
Q 45.21875 56 50.046875 50.171875 
Q 54.890625 44.34375 54.890625 33.015625 
z
" id="DejaVuSans-110"/>
       </defs>
       <use xlink:href="#DejaVuSans-74"/>
       <use x="29.492188" xlink:href="#DejaVuSans-117"/>
       <use x="92.871094" xlink:href="#DejaVuSans-110"/>
      </g>
     </g>
    </g>
    <g id="xtick_5">
     <g id="line2d_5">
      <g>
       <use style="stroke:#000000;stroke-width:0.8;" x="299.25" xlink:href="#me31003574f" y="315"/>
      </g>
     </g>
     <g id="text_4">
      <!-- Jul -->
      <g transform="translate(293.217188 329.598437)scale(0.1 -0.1)">
       <defs>
        <path d="M 9.421875 75.984375 
L 18.40625 75.984375 
L 18.40625 0 
L 9.421875 0 
z
" id="DejaVuSans-108"/>
       </defs>
       <use xlink:href="#DejaVuSans-74"/>
       <use x="29.492188" xlink:href="#DejaVuSans-117"/>
       <use x="92.871094" xlink:href="#DejaVuSans-108"/>
      </g>
     </g>
    </g>
    <g id="xtick_6">
     <g id="line2d_6">
      <g>
       <use style="stroke:#000000;stroke-width:0.8;" x="357.689189" xlink:href="#me31003574f" y="315"/>
      </g>
     </g>
     <g id="text_5">
      <!-- Aug -->
      <g transform="translate(347.925908 329.598437)scale(0.1 -0.1)">
       <defs>
        <path d="M 45.40625 27.984375 
Q 45.40625 37.75 41.375 43.109375 
Q 37.359375 48.484375 30.078125 48.484375 
Q 22.859375 48.484375 18.828125 43.109375 
Q 14.796875 37.75 14.796875 27.984375 
Q 14.796875 18.265625 18.828125 12.890625 
Q 22.859375 7.515625 30.078125 7.515625 
Q 37.359375 7.515625 41.375 12.890625 
Q 45.40625 18.265625 45.40625 27.984375 
z
M 54.390625 6.78125 
Q 54.390625 -7.171875 48.1875 -13.984375 
Q 42 -20.796875 29.203125 -20.796875 
Q 24.46875 -20.796875 20.265625 -20.09375 
Q 16.0625 -19.390625 12.109375 -17.921875 
L 12.109375 -9.1875 
Q 16.0625 -11.328125 19.921875 -12.34375 
Q 23.78125 -13.375 27.78125 -13.375 
Q 36.625 -13.375 41.015625 -8.765625 
Q 45.40625 -4.15625 45.40625 5.171875 
L 45.40625 9.625 
Q 42.625 4.78125 38.28125 2.390625 
Q 33.9375 0 27.875 0 
Q 17.828125 0 11.671875 7.65625 
Q 5.515625 15.328125 5.515625 27.984375 
Q 5.515625 40.671875 11.671875 48.328125 
Q 17.828125 56 27.875 56 
Q 33.9375 56 38.28125 53.609375 
Q 42.625 51.21875 45.40625 46.390625 
L 45.40625 54.6875 
L 54.390625 54.6875 
z
" id="DejaVuSans-103"/>
       </defs>
       <use xlink:href="#DejaVuSans-65"/>
       <use x="68.408203" xlink:href="#DejaVuSans-117"/>
       <use x="131.787109" xlink:href="#DejaVuSans-103"/>
      </g>
     </g>
    </g>
    <g id="xtick_7">
     <g id="line2d_7">
      <g>
       <use style="stroke:#000000;stroke-width:0.8;" x="416.128378" xlink:href="#me31003574f" y="315"/>
      </g>
     </g>
     <g id="text_6">
      <!-- Sep -->
      <g transform="translate(406.703378 329.598437)scale(0.1 -0.1)">
       <defs>
        <path d="M 53.515625 70.515625 
L 53.515625 60.890625 
Q 47.90625 63.578125 42.921875 64.890625 
Q 37.9375 66.21875 33.296875 66.21875 
Q 25.25 66.21875 20.875 63.09375 
Q 16.5 59.96875 16.5 54.203125 
Q 16.5 49.359375 19.40625 46.890625 
Q 22.3125 44.4375 30.421875 42.921875 
L 36.375 41.703125 
Q 47.40625 39.59375 52.65625 34.296875 
Q 57.90625 29 57.90625 20.125 
Q 57.90625 9.515625 50.796875 4.046875 
Q 43.703125 -1.421875 29.984375 -1.421875 
Q 24.8125 -1.421875 18.96875 -0.25 
Q 13.140625 0.921875 6.890625 3.21875 
L 6.890625 13.375 
Q 12.890625 10.015625 18.65625 8.296875 
Q 24.421875 6.59375 29.984375 6.59375 
Q 38.421875 6.59375 43.015625 9.90625 
Q 47.609375 13.234375 47.609375 19.390625 
Q 47.609375 24.75 44.3125 27.78125 
Q 41.015625 30.8125 33.5 32.328125 
L 27.484375 33.5 
Q 16.453125 35.6875 11.515625 40.375 
Q 6.59375 45.0625 6.59375 53.421875 
Q 6.59375 63.09375 13.40625 68.65625 
Q 20.21875 74.21875 32.171875 74.21875 
Q 37.3125 74.21875 42.625 73.28125 
Q 47.953125 72.359375 53.515625 70.515625 
z
" id="DejaVuSans-83"/>
        <path d="M 56.203125 29.59375 
L 56.203125 25.203125 
L 14.890625 25.203125 
Q 15.484375 15.921875 20.484375 11.0625 
Q 25.484375 6.203125 34.421875 6.203125 
Q 39.59375 6.203125 44.453125 7.46875 
Q 49.3125 8.734375 54.109375 11.28125 
L 54.109375 2.78125 
Q 49.265625 0.734375 44.1875 -0.34375 
Q 39.109375 -1.421875 33.890625 -1.421875 
Q 20.796875 -1.421875 13.15625 6.1875 
Q 5.515625 13.8125 5.515625 26.8125 
Q 5.515625 40.234375 12.765625 48.109375 
Q 20.015625 56 32.328125 56 
Q 43.359375 56 49.78125 48.890625 
Q 56.203125 41.796875 56.203125 29.59375 
z
M 47.21875 32.234375 
Q 47.125 39.59375 43.09375 43.984375 
Q 39.0625 48.390625 32.421875 48.390625 
Q 24.90625 48.390625 20.390625 44.140625 
Q 15.875 39.890625 15.1875 32.171875 
z
" id="DejaVuSans-101"/>
       </defs>
       <use xlink:href="#DejaVuSans-83"/>
       <use x="63.476562" xlink:href="#DejaVuSans-101"/>
       <use x="125" xlink:href="#DejaVuSans-112"/>
      </g>
     </g>
    </g>
    <g id="xtick_8">
     <g id="line2d_8">
      <g>
       <use style="stroke:#000000;stroke-width:0.8;" x="472.682432" xlink:href="#me31003574f" y="315"/>
      </g>
     </g>
     <g id="text_7">
      <!-- Oct -->
      <g transform="translate(464.03712 329.598437)scale(0.1 -0.1)">
       <defs>
        <path d="M 39.40625 66.21875 
Q 28.65625 66.21875 22.328125 58.203125 
Q 16.015625 50.203125 16.015625 36.375 
Q 16.015625 22.609375 22.328125 14.59375 
Q 28.65625 6.59375 39.40625 6.59375 
Q 50.140625 6.59375 56.421875 14.59375 
Q 62.703125 22.609375 62.703125 36.375 
Q 62.703125 50.203125 56.421875 58.203125 
Q 50.140625 66.21875 39.40625 66.21875 
z
M 39.40625 74.21875 
Q 54.734375 74.21875 63.90625 63.9375 
Q 73.09375 53.65625 73.09375 36.375 
Q 73.09375 19.140625 63.90625 8.859375 
Q 54.734375 -1.421875 39.40625 -1.421875 
Q 24.03125 -1.421875 14.8125 8.828125 
Q 5.609375 19.09375 5.609375 36.375 
Q 5.609375 53.65625 14.8125 63.9375 
Q 24.03125 74.21875 39.40625 74.21875 
z
" id="DejaVuSans-79"/>
        <path d="M 48.78125 52.59375 
L 48.78125 44.1875 
Q 44.96875 46.296875 41.140625 47.34375 
Q 37.3125 48.390625 33.40625 48.390625 
Q 24.65625 48.390625 19.8125 42.84375 
Q 14.984375 37.3125 14.984375 27.296875 
Q 14.984375 17.28125 19.8125 11.734375 
Q 24.65625 6.203125 33.40625 6.203125 
Q 37.3125 6.203125 41.140625 7.25 
Q 44.96875 8.296875 48.78125 10.40625 
L 48.78125 2.09375 
Q 45.015625 0.34375 40.984375 -0.53125 
Q 36.96875 -1.421875 32.421875 -1.421875 
Q 20.0625 -1.421875 12.78125 6.34375 
Q 5.515625 14.109375 5.515625 27.296875 
Q 5.515625 40.671875 12.859375 48.328125 
Q 20.21875 56 33.015625 56 
Q 37.15625 56 41.109375 55.140625 
Q 45.0625 54.296875 48.78125 52.59375 
z
" id="DejaVuSans-99"/>
        <path d="M 18.3125 70.21875 
L 18.3125 54.6875 
L 36.8125 54.6875 
L 36.8125 47.703125 
L 18.3125 47.703125 
L 18.3125 18.015625 
Q 18.3125 11.328125 20.140625 9.421875 
Q 21.96875 7.515625 27.59375 7.515625 
L 36.8125 7.515625 
L 36.8125 0 
L 27.59375 0 
Q 17.1875 0 13.234375 3.875 
Q 9.28125 7.765625 9.28125 18.015625 
L 9.28125 47.703125 
L 2.6875 47.703125 
L 2.6875 54.6875 
L 9.28125 54.6875 
L 9.28125 70.21875 
z
" id="DejaVuSans-116"/>
       </defs>
       <use xlink:href="#DejaVuSans-79"/>
       <use x="78.710938" xlink:href="#DejaVuSans-99"/>
       <use x="133.691406" xlink:href="#DejaVuSans-116"/>
      </g>
     </g>
    </g>
    <g id="xtick_9">
     <g id="line2d_9">
      <g>
       <use style="stroke:#000000;stroke-width:0.8;" x="531.121622" xlink:href="#me31003574f" y="315"/>
      </g>
     </g>
     <g id="text_8">
      <!-- Nov -->
      <g transform="translate(521.362247 329.598437)scale(0.1 -0.1)">
       <defs>
        <path d="M 9.8125 72.90625 
L 23.09375 72.90625 
L 55.421875 11.921875 
L 55.421875 72.90625 
L 64.984375 72.90625 
L 64.984375 0 
L 51.703125 0 
L 19.390625 60.984375 
L 19.390625 0 
L 9.8125 0 
z
" id="DejaVuSans-78"/>
        <path d="M 30.609375 48.390625 
Q 23.390625 48.390625 19.1875 42.75 
Q 14.984375 37.109375 14.984375 27.296875 
Q 14.984375 17.484375 19.15625 11.84375 
Q 23.34375 6.203125 30.609375 6.203125 
Q 37.796875 6.203125 41.984375 11.859375 
Q 46.1875 17.53125 46.1875 27.296875 
Q 46.1875 37.015625 41.984375 42.703125 
Q 37.796875 48.390625 30.609375 48.390625 
z
M 30.609375 56 
Q 42.328125 56 49.015625 48.375 
Q 55.71875 40.765625 55.71875 27.296875 
Q 55.71875 13.875 49.015625 6.21875 
Q 42.328125 -1.421875 30.609375 -1.421875 
Q 18.84375 -1.421875 12.171875 6.21875 
Q 5.515625 13.875 5.515625 27.296875 
Q 5.515625 40.765625 12.171875 48.375 
Q 18.84375 56 30.609375 56 
z
" id="DejaVuSans-111"/>
        <path d="M 2.984375 54.6875 
L 12.5 54.6875 
L 29.59375 8.796875 
L 46.6875 54.6875 
L 56.203125 54.6875 
L 35.6875 0 
L 23.484375 0 
z
" id="DejaVuSans-118"/>
       </defs>
       <use xlink:href="#DejaVuSans-78"/>
       <use x="74.804688" xlink:href="#DejaVuSans-111"/>
       <use x="135.986328" xlink:href="#DejaVuSans-118"/>
      </g>
     </g>
    </g>
    <g id="xtick_10">
     <g id="line2d_10">
      <g>
       <use style="stroke:#000000;stroke-width:0.8;" x="587.675676" xlink:href="#me31003574f" y="315"/>
      </g>
     </g>
     <g id="text_9">
      <!-- Dec -->
      <g transform="translate(577.999894 329.598437)scale(0.1 -0.1)">
       <defs>
        <path d="M 19.671875 64.796875 
L 19.671875 8.109375 
L 31.59375 8.109375 
Q 46.6875 8.109375 53.6875 14.9375 
Q 60.6875 21.78125 60.6875 36.53125 
Q 60.6875 51.171875 53.6875 57.984375 
Q 46.6875 64.796875 31.59375 64.796875 
z
M 9.8125 72.90625 
L 30.078125 72.90625 
Q 51.265625 72.90625 61.171875 64.09375 
Q 71.09375 55.28125 71.09375 36.53125 
Q 71.09375 17.671875 61.125 8.828125 
Q 51.171875 0 30.078125 0 
L 9.8125 0 
z
" id="DejaVuSans-68"/>
       </defs>
       <use xlink:href="#DejaVuSans-68"/>
       <use x="77.001953" xlink:href="#DejaVuSans-101"/>
       <use x="138.525391" xlink:href="#DejaVuSans-99"/>
      </g>
     </g>
    </g>
    <g id="xtick_11">
     <g id="line2d_11">
      <g>
       <use style="stroke:#000000;stroke-width:0.8;" x="646.114865" xlink:href="#me31003574f" y="315"/>
      </g>
     </g>
     <g id="text_10">
      <!-- Jan -->
      <g transform="translate(638.407052 329.598437)scale(0.1 -0.1)">
       <use xlink:href="#DejaVuSans-74"/>
       <use x="29.492188" xlink:href="#DejaVuSans-97"/>
       <use x="90.771484" xlink:href="#DejaVuSans-110"/>
      </g>
      <!-- 2021 -->
      <g transform="translate(633.389865 340.79625)scale(0.1 -0.1)">
       <defs>
        <path d="M 19.1875 8.296875 
L 53.609375 8.296875 
L 53.609375 0 
L 7.328125 0 
L 7.328125 8.296875 
Q 12.9375 14.109375 22.625 23.890625 
Q 32.328125 33.6875 34.8125 36.53125 
Q 39.546875 41.84375 41.421875 45.53125 
Q 43.3125 49.21875 43.3125 52.78125 
Q 43.3125 58.59375 39.234375 62.25 
Q 35.15625 65.921875 28.609375 65.921875 
Q 23.96875 65.921875 18.8125 64.3125 
Q 13.671875 62.703125 7.8125 59.421875 
L 7.8125 69.390625 
Q 13.765625 71.78125 18.9375 73 
Q 24.125 74.21875 28.421875 74.21875 
Q 39.75 74.21875 46.484375 68.546875 
Q 53.21875 62.890625 53.21875 53.421875 
Q 53.21875 48.921875 51.53125 44.890625 
Q 49.859375 40.875 45.40625 35.40625 
Q 44.1875 33.984375 37.640625 27.21875 
Q 31.109375 20.453125 19.1875 8.296875 
z
" id="DejaVuSans-50"/>
        <path d="M 31.78125 66.40625 
Q 24.171875 66.40625 20.328125 58.90625 
Q 16.5 51.421875 16.5 36.375 
Q 16.5 21.390625 20.328125 13.890625 
Q 24.171875 6.390625 31.78125 6.390625 
Q 39.453125 6.390625 43.28125 13.890625 
Q 47.125 21.390625 47.125 36.375 
Q 47.125 51.421875 43.28125 58.90625 
Q 39.453125 66.40625 31.78125 66.40625 
z
M 31.78125 74.21875 
Q 44.046875 74.21875 50.515625 64.515625 
Q 56.984375 54.828125 56.984375 36.375 
Q 56.984375 17.96875 50.515625 8.265625 
Q 44.046875 -1.421875 31.78125 -1.421875 
Q 19.53125 -1.421875 13.0625 8.265625 
Q 6.59375 17.96875 6.59375 36.375 
Q 6.59375 54.828125 13.0625 64.515625 
Q 19.53125 74.21875 31.78125 74.21875 
z
" id="DejaVuSans-48"/>
        <path d="M 12.40625 8.296875 
L 28.515625 8.296875 
L 28.515625 63.921875 
L 10.984375 60.40625 
L 10.984375 69.390625 
L 28.421875 72.90625 
L 38.28125 72.90625 
L 38.28125 8.296875 
L 54.390625 8.296875 
L 54.390625 0 
L 12.40625 0 
z
" id="DejaVuSans-49"/>
       </defs>
       <use xlink:href="#DejaVuSans-50"/>
       <use x="63.623047" xlink:href="#DejaVuSans-48"/>
       <use x="127.246094" xlink:href="#DejaVuSans-50"/>
       <use x="190.869141" xlink:href="#DejaVuSans-49"/>
      </g>
     </g>
    </g>
    <g id="xtick_12">
     <g id="line2d_12">
      <g>
       <use style="stroke:#000000;stroke-width:0.8;" x="648" xlink:href="#me31003574f" y="315"/>
      </g>
     </g>
    </g>
    <g id="xtick_13">
     <g id="line2d_13">
      <defs>
       <path d="M 0 0 
L 0 2 
" id="m33a4421873" style="stroke:#000000;stroke-width:0.6;"/>
      </defs>
      <g>
       <use style="stroke:#000000;stroke-width:0.6;" x="97.540541" xlink:href="#m33a4421873" y="315"/>
      </g>
     </g>
    </g>
    <g id="xtick_14">
     <g id="line2d_14">
      <g>
       <use style="stroke:#000000;stroke-width:0.6;" x="110.736486" xlink:href="#m33a4421873" y="315"/>
      </g>
     </g>
    </g>
    <g id="xtick_15">
     <g id="line2d_15">
      <g>
       <use style="stroke:#000000;stroke-width:0.6;" x="123.932432" xlink:href="#m33a4421873" y="315"/>
      </g>
     </g>
    </g>
    <g id="xtick_16">
     <g id="line2d_16">
      <g>
       <use style="stroke:#000000;stroke-width:0.6;" x="137.128378" xlink:href="#m33a4421873" y="315"/>
      </g>
     </g>
    </g>
    <g id="xtick_17">
     <g id="line2d_17">
      <g>
       <use style="stroke:#000000;stroke-width:0.6;" x="150.324324" xlink:href="#m33a4421873" y="315"/>
      </g>
     </g>
    </g>
    <g id="xtick_18">
     <g id="line2d_18">
      <g>
       <use style="stroke:#000000;stroke-width:0.6;" x="163.52027" xlink:href="#m33a4421873" y="315"/>
      </g>
     </g>
    </g>
    <g id="xtick_19">
     <g id="line2d_19">
      <g>
       <use style="stroke:#000000;stroke-width:0.6;" x="176.716216" xlink:href="#m33a4421873" y="315"/>
      </g>
     </g>
    </g>
    <g id="xtick_20">
     <g id="line2d_20">
      <g>
       <use style="stroke:#000000;stroke-width:0.6;" x="189.912162" xlink:href="#m33a4421873" y="315"/>
      </g>
     </g>
    </g>
    <g id="xtick_21">
     <g id="line2d_21">
      <g>
       <use style="stroke:#000000;stroke-width:0.6;" x="203.108108" xlink:href="#m33a4421873" y="315"/>
      </g>
     </g>
    </g>
    <g id="xtick_22">
     <g id="line2d_22">
      <g>
       <use style="stroke:#000000;stroke-width:0.6;" x="216.304054" xlink:href="#m33a4421873" y="315"/>
      </g>
     </g>
    </g>
    <g id="xtick_23">
     <g id="line2d_23">
      <g>
       <use style="stroke:#000000;stroke-width:0.6;" x="229.5" xlink:href="#m33a4421873" y="315"/>
      </g>
     </g>
    </g>
    <g id="xtick_24">
     <g id="line2d_24">
      <g>
       <use style="stroke:#000000;stroke-width:0.6;" x="255.891892" xlink:href="#m33a4421873" y="315"/>
      </g>
     </g>
    </g>
    <g id="xtick_25">
     <g id="line2d_25">
      <g>
       <use style="stroke:#000000;stroke-width:0.6;" x="269.087838" xlink:href="#m33a4421873" y="315"/>
      </g>
     </g>
    </g>
    <g id="xtick_26">
     <g id="line2d_26">
      <g>
       <use style="stroke:#000000;stroke-width:0.6;" x="282.283784" xlink:href="#m33a4421873" y="315"/>
      </g>
     </g>
    </g>
    <g id="xtick_27">
     <g id="line2d_27">
      <g>
       <use style="stroke:#000000;stroke-width:0.6;" x="295.47973" xlink:href="#m33a4421873" y="315"/>
      </g>
     </g>
    </g>
    <g id="xtick_28">
     <g id="line2d_28">
      <g>
       <use style="stroke:#000000;stroke-width:0.6;" x="308.675676" xlink:href="#m33a4421873" y="315"/>
      </g>
     </g>
    </g>
    <g id="xtick_29">
     <g id="line2d_29">
      <g>
       <use style="stroke:#000000;stroke-width:0.6;" x="321.871622" xlink:href="#m33a4421873" y="315"/>
      </g>
     </g>
    </g>
    <g id="xtick_30">
     <g id="line2d_30">
      <g>
       <use style="stroke:#000000;stroke-width:0.6;" x="335.067568" xlink:href="#m33a4421873" y="315"/>
      </g>
     </g>
    </g>
    <g id="xtick_31">
     <g id="line2d_31">
      <g>
       <use style="stroke:#000000;stroke-width:0.6;" x="348.263514" xlink:href="#m33a4421873" y="315"/>
      </g>
     </g>
    </g>
    <g id="xtick_32">
     <g id="line2d_32">
      <g>
       <use style="stroke:#000000;stroke-width:0.6;" x="361.459459" xlink:href="#m33a4421873" y="315"/>
      </g>
     </g>
    </g>
    <g id="xtick_33">
     <g id="line2d_33">
      <g>
       <use style="stroke:#000000;stroke-width:0.6;" x="374.655405" xlink:href="#m33a4421873" y="315"/>
      </g>
     </g>
    </g>
    <g id="xtick_34">
     <g id="line2d_34">
      <g>
       <use style="stroke:#000000;stroke-width:0.6;" x="387.851351" xlink:href="#m33a4421873" y="315"/>
      </g>
     </g>
    </g>
    <g id="xtick_35">
     <g id="line2d_35">
      <g>
       <use style="stroke:#000000;stroke-width:0.6;" x="401.047297" xlink:href="#m33a4421873" y="315"/>
      </g>
     </g>
    </g>
    <g id="xtick_36">
     <g id="line2d_36">
      <g>
       <use style="stroke:#000000;stroke-width:0.6;" x="414.243243" xlink:href="#m33a4421873" y="315"/>
      </g>
     </g>
    </g>
    <g id="xtick_37">
     <g id="line2d_37">
      <g>
       <use style="stroke:#000000;stroke-width:0.6;" x="427.439189" xlink:href="#m33a4421873" y="315"/>
      </g>
     </g>
    </g>
    <g id="xtick_38">
     <g id="line2d_38">
      <g>
       <use style="stroke:#000000;stroke-width:0.6;" x="440.635135" xlink:href="#m33a4421873" y="315"/>
      </g>
     </g>
    </g>
    <g id="xtick_39">
     <g id="line2d_39">
      <g>
       <use style="stroke:#000000;stroke-width:0.6;" x="453.831081" xlink:href="#m33a4421873" y="315"/>
      </g>
     </g>
    </g>
    <g id="xtick_40">
     <g id="line2d_40">
      <g>
       <use style="stroke:#000000;stroke-width:0.6;" x="467.027027" xlink:href="#m33a4421873" y="315"/>
      </g>
     </g>
    </g>
    <g id="xtick_41">
     <g id="line2d_41">
      <g>
       <use style="stroke:#000000;stroke-width:0.6;" x="480.222973" xlink:href="#m33a4421873" y="315"/>
      </g>
     </g>
    </g>
    <g id="xtick_42">
     <g id="line2d_42">
      <g>
       <use style="stroke:#000000;stroke-width:0.6;" x="493.418919" xlink:href="#m33a4421873" y="315"/>
      </g>
     </g>
    </g>
    <g id="xtick_43">
     <g id="line2d_43">
      <g>
       <use style="stroke:#000000;stroke-width:0.6;" x="506.614865" xlink:href="#m33a4421873" y="315"/>
      </g>
     </g>
    </g>
    <g id="xtick_44">
     <g id="line2d_44">
      <g>
       <use style="stroke:#000000;stroke-width:0.6;" x="519.810811" xlink:href="#m33a4421873" y="315"/>
      </g>
     </g>
    </g>
    <g id="xtick_45">
     <g id="line2d_45">
      <g>
       <use style="stroke:#000000;stroke-width:0.6;" x="533.006757" xlink:href="#m33a4421873" y="315"/>
      </g>
     </g>
    </g>
    <g id="xtick_46">
     <g id="line2d_46">
      <g>
       <use style="stroke:#000000;stroke-width:0.6;" x="546.202703" xlink:href="#m33a4421873" y="315"/>
      </g>
     </g>
    </g>
    <g id="xtick_47">
     <g id="line2d_47">
      <g>
       <use style="stroke:#000000;stroke-width:0.6;" x="559.398649" xlink:href="#m33a4421873" y="315"/>
      </g>
     </g>
    </g>
    <g id="xtick_48">
     <g id="line2d_48">
      <g>
       <use style="stroke:#000000;stroke-width:0.6;" x="572.594595" xlink:href="#m33a4421873" y="315"/>
      </g>
     </g>
    </g>
    <g id="xtick_49">
     <g id="line2d_49">
      <g>
       <use style="stroke:#000000;stroke-width:0.6;" x="585.790541" xlink:href="#m33a4421873" y="315"/>
      </g>
     </g>
    </g>
    <g id="xtick_50">
     <g id="line2d_50">
      <g>
       <use style="stroke:#000000;stroke-width:0.6;" x="598.986486" xlink:href="#m33a4421873" y="315"/>
      </g>
     </g>
    </g>
    <g id="xtick_51">
     <g id="line2d_51">
      <g>
       <use style="stroke:#000000;stroke-width:0.6;" x="612.182432" xlink:href="#m33a4421873" y="315"/>
      </g>
     </g>
    </g>
    <g id="xtick_52">
     <g id="line2d_52">
      <g>
       <use style="stroke:#000000;stroke-width:0.6;" x="625.378378" xlink:href="#m33a4421873" y="315"/>
      </g>
     </g>
    </g>
    <g id="xtick_53">
     <g id="line2d_53">
      <g>
       <use style="stroke:#000000;stroke-width:0.6;" x="638.574324" xlink:href="#m33a4421873" y="315"/>
      </g>
     </g>
    </g>
    <g id="text_11">
     <!-- date -->
     <g transform="translate(357.725 354.474375)scale(0.1 -0.1)">
      <defs>
       <path d="M 45.40625 46.390625 
L 45.40625 75.984375 
L 54.390625 75.984375 
L 54.390625 0 
L 45.40625 0 
L 45.40625 8.203125 
Q 42.578125 3.328125 38.25 0.953125 
Q 33.9375 -1.421875 27.875 -1.421875 
Q 17.96875 -1.421875 11.734375 6.484375 
Q 5.515625 14.40625 5.515625 27.296875 
Q 5.515625 40.1875 11.734375 48.09375 
Q 17.96875 56 27.875 56 
Q 33.9375 56 38.25 53.625 
Q 42.578125 51.265625 45.40625 46.390625 
z
M 14.796875 27.296875 
Q 14.796875 17.390625 18.875 11.75 
Q 22.953125 6.109375 30.078125 6.109375 
Q 37.203125 6.109375 41.296875 11.75 
Q 45.40625 17.390625 45.40625 27.296875 
Q 45.40625 37.203125 41.296875 42.84375 
Q 37.203125 48.484375 30.078125 48.484375 
Q 22.953125 48.484375 18.875 42.84375 
Q 14.796875 37.203125 14.796875 27.296875 
z
" id="DejaVuSans-100"/>
      </defs>
      <use xlink:href="#DejaVuSans-100"/>
      <use x="63.476562" xlink:href="#DejaVuSans-97"/>
      <use x="124.755859" xlink:href="#DejaVuSans-116"/>
      <use x="163.964844" xlink:href="#DejaVuSans-101"/>
     </g>
    </g>
   </g>
   <g id="matplotlib.axis_2">
    <g id="ytick_1">
     <g id="line2d_54">
      <defs>
       <path d="M 0 0 
L -3.5 0 
" id="m57a40aeaa2" style="stroke:#000000;stroke-width:0.8;"/>
      </defs>
      <g>
       <use style="stroke:#000000;stroke-width:0.8;" x="90" xlink:href="#m57a40aeaa2" y="290.571402"/>
      </g>
     </g>
     <g id="text_12">
      <!-- $\mathdefault{10^{-1}}$ -->
      <g transform="translate(59.5 294.370621)scale(0.1 -0.1)">
       <defs>
        <path d="M 10.59375 35.5 
L 73.1875 35.5 
L 73.1875 27.203125 
L 10.59375 27.203125 
z
" id="DejaVuSans-8722"/>
       </defs>
       <use transform="translate(0 0.684375)" xlink:href="#DejaVuSans-49"/>
       <use transform="translate(63.623047 0.684375)" xlink:href="#DejaVuSans-48"/>
       <use transform="translate(128.203125 38.965625)scale(0.7)" xlink:href="#DejaVuSans-8722"/>
       <use transform="translate(186.855469 38.965625)scale(0.7)" xlink:href="#DejaVuSans-49"/>
      </g>
     </g>
    </g>
    <g id="ytick_2">
     <g id="line2d_55">
      <g>
       <use style="stroke:#000000;stroke-width:0.8;" x="90" xlink:href="#m57a40aeaa2" y="224.557547"/>
      </g>
     </g>
     <g id="text_13">
      <!-- $\mathdefault{10^{0}}$ -->
      <g transform="translate(65.4 228.356765)scale(0.1 -0.1)">
       <use transform="translate(0 0.765625)" xlink:href="#DejaVuSans-49"/>
       <use transform="translate(63.623047 0.765625)" xlink:href="#DejaVuSans-48"/>
       <use transform="translate(128.203125 39.046875)scale(0.7)" xlink:href="#DejaVuSans-48"/>
      </g>
     </g>
    </g>
    <g id="ytick_3">
     <g id="line2d_56">
      <g>
       <use style="stroke:#000000;stroke-width:0.8;" x="90" xlink:href="#m57a40aeaa2" y="158.543691"/>
      </g>
     </g>
     <g id="text_14">
      <!-- $\mathdefault{10^{1}}$ -->
      <g transform="translate(65.4 162.34291)scale(0.1 -0.1)">
       <use transform="translate(0 0.684375)" xlink:href="#DejaVuSans-49"/>
       <use transform="translate(63.623047 0.684375)" xlink:href="#DejaVuSans-48"/>
       <use transform="translate(128.203125 38.965625)scale(0.7)" xlink:href="#DejaVuSans-49"/>
      </g>
     </g>
    </g>
    <g id="ytick_4">
     <g id="line2d_57">
      <g>
       <use style="stroke:#000000;stroke-width:0.8;" x="90" xlink:href="#m57a40aeaa2" y="92.529835"/>
      </g>
     </g>
     <g id="text_15">
      <!-- $\mathdefault{10^{2}}$ -->
      <g transform="translate(65.4 96.329054)scale(0.1 -0.1)">
       <use transform="translate(0 0.765625)" xlink:href="#DejaVuSans-49"/>
       <use transform="translate(63.623047 0.765625)" xlink:href="#DejaVuSans-48"/>
       <use transform="translate(128.203125 39.046875)scale(0.7)" xlink:href="#DejaVuSans-50"/>
      </g>
     </g>
    </g>
    <g id="ytick_5">
     <g id="line2d_58">
      <defs>
       <path d="M 0 0 
L -2 0 
" id="m4cf9a9c380" style="stroke:#000000;stroke-width:0.6;"/>
      </defs>
      <g>
       <use style="stroke:#000000;stroke-width:0.6;" x="90" xlink:href="#m4cf9a9c380" y="310.443553"/>
      </g>
     </g>
    </g>
    <g id="ytick_6">
     <g id="line2d_59">
      <g>
       <use style="stroke:#000000;stroke-width:0.6;" x="90" xlink:href="#m4cf9a9c380" y="305.216494"/>
      </g>
     </g>
    </g>
    <g id="ytick_7">
     <g id="line2d_60">
      <g>
       <use style="stroke:#000000;stroke-width:0.6;" x="90" xlink:href="#m4cf9a9c380" y="300.797078"/>
      </g>
     </g>
    </g>
    <g id="ytick_8">
     <g id="line2d_61">
      <g>
       <use style="stroke:#000000;stroke-width:0.6;" x="90" xlink:href="#m4cf9a9c380" y="296.968806"/>
      </g>
     </g>
    </g>
    <g id="ytick_9">
     <g id="line2d_62">
      <g>
       <use style="stroke:#000000;stroke-width:0.6;" x="90" xlink:href="#m4cf9a9c380" y="293.592031"/>
      </g>
     </g>
    </g>
    <g id="ytick_10">
     <g id="line2d_63">
      <g>
       <use style="stroke:#000000;stroke-width:0.6;" x="90" xlink:href="#m4cf9a9c380" y="270.699252"/>
      </g>
     </g>
    </g>
    <g id="ytick_11">
     <g id="line2d_64">
      <g>
       <use style="stroke:#000000;stroke-width:0.6;" x="90" xlink:href="#m4cf9a9c380" y="259.074789"/>
      </g>
     </g>
    </g>
    <g id="ytick_12">
     <g id="line2d_65">
      <g>
       <use style="stroke:#000000;stroke-width:0.6;" x="90" xlink:href="#m4cf9a9c380" y="250.827101"/>
      </g>
     </g>
    </g>
    <g id="ytick_13">
     <g id="line2d_66">
      <g>
       <use style="stroke:#000000;stroke-width:0.6;" x="90" xlink:href="#m4cf9a9c380" y="244.429697"/>
      </g>
     </g>
    </g>
    <g id="ytick_14">
     <g id="line2d_67">
      <g>
       <use style="stroke:#000000;stroke-width:0.6;" x="90" xlink:href="#m4cf9a9c380" y="239.202638"/>
      </g>
     </g>
    </g>
    <g id="ytick_15">
     <g id="line2d_68">
      <g>
       <use style="stroke:#000000;stroke-width:0.6;" x="90" xlink:href="#m4cf9a9c380" y="234.783222"/>
      </g>
     </g>
    </g>
    <g id="ytick_16">
     <g id="line2d_69">
      <g>
       <use style="stroke:#000000;stroke-width:0.6;" x="90" xlink:href="#m4cf9a9c380" y="230.95495"/>
      </g>
     </g>
    </g>
    <g id="ytick_17">
     <g id="line2d_70">
      <g>
       <use style="stroke:#000000;stroke-width:0.6;" x="90" xlink:href="#m4cf9a9c380" y="227.578175"/>
      </g>
     </g>
    </g>
    <g id="ytick_18">
     <g id="line2d_71">
      <g>
       <use style="stroke:#000000;stroke-width:0.6;" x="90" xlink:href="#m4cf9a9c380" y="204.685396"/>
      </g>
     </g>
    </g>
    <g id="ytick_19">
     <g id="line2d_72">
      <g>
       <use style="stroke:#000000;stroke-width:0.6;" x="90" xlink:href="#m4cf9a9c380" y="193.060933"/>
      </g>
     </g>
    </g>
    <g id="ytick_20">
     <g id="line2d_73">
      <g>
       <use style="stroke:#000000;stroke-width:0.6;" x="90" xlink:href="#m4cf9a9c380" y="184.813245"/>
      </g>
     </g>
    </g>
    <g id="ytick_21">
     <g id="line2d_74">
      <g>
       <use style="stroke:#000000;stroke-width:0.6;" x="90" xlink:href="#m4cf9a9c380" y="178.415842"/>
      </g>
     </g>
    </g>
    <g id="ytick_22">
     <g id="line2d_75">
      <g>
       <use style="stroke:#000000;stroke-width:0.6;" x="90" xlink:href="#m4cf9a9c380" y="173.188782"/>
      </g>
     </g>
    </g>
    <g id="ytick_23">
     <g id="line2d_76">
      <g>
       <use style="stroke:#000000;stroke-width:0.6;" x="90" xlink:href="#m4cf9a9c380" y="168.769367"/>
      </g>
     </g>
    </g>
    <g id="ytick_24">
     <g id="line2d_77">
      <g>
       <use style="stroke:#000000;stroke-width:0.6;" x="90" xlink:href="#m4cf9a9c380" y="164.941095"/>
      </g>
     </g>
    </g>
    <g id="ytick_25">
     <g id="line2d_78">
      <g>
       <use style="stroke:#000000;stroke-width:0.6;" x="90" xlink:href="#m4cf9a9c380" y="161.564319"/>
      </g>
     </g>
    </g>
    <g id="ytick_26">
     <g id="line2d_79">
      <g>
       <use style="stroke:#000000;stroke-width:0.6;" x="90" xlink:href="#m4cf9a9c380" y="138.67154"/>
      </g>
     </g>
    </g>
    <g id="ytick_27">
     <g id="line2d_80">
      <g>
       <use style="stroke:#000000;stroke-width:0.6;" x="90" xlink:href="#m4cf9a9c380" y="127.047077"/>
      </g>
     </g>
    </g>
    <g id="ytick_28">
     <g id="line2d_81">
      <g>
       <use style="stroke:#000000;stroke-width:0.6;" x="90" xlink:href="#m4cf9a9c380" y="118.79939"/>
      </g>
     </g>
    </g>
    <g id="ytick_29">
     <g id="line2d_82">
      <g>
       <use style="stroke:#000000;stroke-width:0.6;" x="90" xlink:href="#m4cf9a9c380" y="112.401986"/>
      </g>
     </g>
    </g>
    <g id="ytick_30">
     <g id="line2d_83">
      <g>
       <use style="stroke:#000000;stroke-width:0.6;" x="90" xlink:href="#m4cf9a9c380" y="107.174927"/>
      </g>
     </g>
    </g>
    <g id="ytick_31">
     <g id="line2d_84">
      <g>
       <use style="stroke:#000000;stroke-width:0.6;" x="90" xlink:href="#m4cf9a9c380" y="102.755511"/>
      </g>
     </g>
    </g>
    <g id="ytick_32">
     <g id="line2d_85">
      <g>
       <use style="stroke:#000000;stroke-width:0.6;" x="90" xlink:href="#m4cf9a9c380" y="98.927239"/>
      </g>
     </g>
    </g>
    <g id="ytick_33">
     <g id="line2d_86">
      <g>
       <use style="stroke:#000000;stroke-width:0.6;" x="90" xlink:href="#m4cf9a9c380" y="95.550464"/>
      </g>
     </g>
    </g>
    <g id="ytick_34">
     <g id="line2d_87">
      <g>
       <use style="stroke:#000000;stroke-width:0.6;" x="90" xlink:href="#m4cf9a9c380" y="72.657685"/>
      </g>
     </g>
    </g>
    <g id="ytick_35">
     <g id="line2d_88">
      <g>
       <use style="stroke:#000000;stroke-width:0.6;" x="90" xlink:href="#m4cf9a9c380" y="61.033222"/>
      </g>
     </g>
    </g>
    <g id="ytick_36">
     <g id="line2d_89">
      <g>
       <use style="stroke:#000000;stroke-width:0.6;" x="90" xlink:href="#m4cf9a9c380" y="52.785534"/>
      </g>
     </g>
    </g>
    <g id="ytick_37">
     <g id="line2d_90">
      <g>
       <use style="stroke:#000000;stroke-width:0.6;" x="90" xlink:href="#m4cf9a9c380" y="46.38813"/>
      </g>
     </g>
    </g>
   </g>
   <g id="line2d_91">
    <path clip-path="url(#pf385a182e5)" d="M 95.650213 361 
L 95.655405 179.047467 
L 97.540541 166.512246 
L 99.425676 162.238539 
L 103.195946 159.467159 
L 105.081081 159.791564 
L 106.966216 158.826405 
L 108.851351 160.794772 
L 110.736486 162.402659 
L 112.621622 163.030123 
L 114.506757 165.480323 
L 116.391892 167.318831 
L 118.277027 169.50492 
L 120.162162 170.560749 
L 123.932432 175.750897 
L 129.587838 182.81849 
L 131.472973 184.816825 
L 133.358108 187.224727 
L 137.128378 192.791441 
L 139.013514 195.108642 
L 142.783784 200.041502 
L 144.668919 202.9841 
L 146.554054 205.490392 
L 148.439189 208.213789 
L 150.324324 210.639655 
L 152.209459 213.446254 
L 154.094595 215.960587 
L 155.97973 218.803939 
L 157.864865 221.446052 
L 159.75 224.403047 
L 163.52027 229.851375 
L 165.405405 232.023534 
L 167.290541 235.302312 
L 171.060811 241.088977 
L 172.945946 243.40355 
L 174.831081 246.555592 
L 180.486486 254.80991 
L 182.371622 256.999773 
L 184.256757 259.80376 
L 188.027027 264.854971 
L 189.912162 266.34348 
L 191.797297 269.224244 
L 193.682432 271.611567 
L 195.567568 273.410367 
L 197.452703 276.186388 
L 201.222973 278.834319 
L 203.108108 280.277659 
L 204.993243 282.351493 
L 206.878378 282.20689 
L 208.763514 286.368941 
L 214.418919 289.584358 
L 216.304054 290.556476 
L 218.189189 291.352711 
L 220.074324 291.966144 
L 221.959459 292.398251 
L 223.844595 292.648737 
L 225.72973 292.715188 
L 227.614865 292.596093 
L 229.5 292.287571 
L 231.385135 291.789569 
L 233.27027 291.103065 
L 235.155405 290.229018 
L 237.040541 289.173483 
L 238.925676 287.942429 
L 240.810811 286.54157 
L 242.695946 284.977573 
L 246.466216 281.39224 
L 250.236486 277.233729 
L 254.006757 272.549067 
L 257.777027 267.394502 
L 261.547297 261.850419 
L 267.202703 252.967935 
L 272.858108 243.575846 
L 278.513514 233.791555 
L 284.168919 223.61024 
L 289.824324 212.983055 
L 295.47973 201.816653 
L 301.135135 190.025988 
L 308.675676 173.554406 
L 316.216216 157.109368 
L 319.986486 149.29083 
L 323.756757 141.968897 
L 327.527027 135.311086 
L 329.412162 132.28555 
L 331.297297 129.485898 
L 333.182432 126.924222 
L 335.067568 124.608252 
L 336.952703 122.541133 
L 338.837838 120.720571 
L 340.722973 119.13959 
L 342.608108 117.789246 
L 344.493243 116.658847 
L 346.378378 115.734556 
L 348.263514 114.999471 
L 350.148649 114.434731 
L 352.033784 114.019501 
L 355.804054 113.551549 
L 359.574324 113.433927 
L 365.22973 113.619209 
L 376.540541 114.204638 
L 380.310811 114.236759 
L 384.081081 114.077288 
L 387.851351 113.64318 
L 391.621622 112.857655 
L 395.391892 111.663026 
L 399.162162 110.032416 
L 402.932432 107.975851 
L 406.702703 105.529757 
L 410.472973 102.748357 
L 414.243243 99.685737 
L 419.898649 94.753559 
L 425.554054 89.804341 
L 429.324324 86.779499 
L 433.094595 84.191864 
L 434.97973 83.1128 
L 436.864865 82.199247 
L 438.75 81.463527 
L 440.635135 80.914492 
L 442.52027 80.558403 
L 444.405405 80.398447 
L 446.290541 80.434203 
L 448.175676 80.662445 
L 450.060811 81.07769 
L 451.945946 81.673321 
L 453.831081 82.441978 
L 455.716216 83.374699 
L 457.601351 84.460728 
L 461.371622 87.044397 
L 465.141892 90.08868 
L 468.912162 93.475893 
L 476.452703 100.760312 
L 482.108108 106.117241 
L 485.878378 109.378943 
L 489.648649 112.241926 
L 491.533784 113.49007 
L 493.418919 114.601674 
L 495.304054 115.568526 
L 497.189189 116.383556 
L 499.074324 117.042209 
L 500.959459 117.543327 
L 502.844595 117.887772 
L 504.72973 118.078017 
L 506.614865 118.119576 
L 508.5 118.021945 
L 512.27027 117.464039 
L 516.040541 116.526815 
L 521.695946 114.711438 
L 533.006757 110.933736 
L 542.432432 107.904864 
L 548.087838 105.83007 
L 551.858108 104.249725 
L 555.628378 102.49421 
L 561.283784 99.584212 
L 576.364865 91.565956 
L 582.02027 88.987465 
L 585.790541 87.474798 
L 591.445946 85.505478 
L 597.101351 83.825754 
L 610.297297 80.085568 
L 615.952703 78.180867 
L 621.608108 75.989509 
L 627.263514 73.491168 
L 632.918919 70.731582 
L 638.574324 67.743163 
L 644.22973 64.509088 
L 648 62.166488 
L 648 62.166488 
" style="fill:none;stroke:#008000;stroke-linecap:square;stroke-width:1.5;"/>
   </g>
   <g id="line2d_92">
    <path clip-path="url(#pf385a182e5)" d="M 90 104.91518 
L 91.885135 261.407285 
L 93.77027 185.397158 
L 95.655405 167.192281 
L 97.540541 166.338767 
L 101.310811 173.276367 
L 103.195946 176.10793 
L 122.047297 202.175939 
L 125.817568 207.683605 
L 127.702703 210.994193 
L 131.472973 216.676029 
L 137.128378 225.964252 
L 144.668919 238.803354 
L 154.094595 254.848268 
L 159.75 263.97336 
L 163.52027 269.712662 
L 167.290541 275.069403 
L 171.060811 280.031193 
L 174.831081 284.592966 
L 178.601351 288.684251 
L 182.371622 292.263803 
L 186.141892 295.317842 
L 189.912162 297.900715 
L 191.797297 299.008112 
L 193.682432 299.983138 
L 195.567568 300.815811 
L 197.452703 301.493794 
L 199.337838 302.012005 
L 201.222973 302.378348 
L 203.108108 302.593522 
L 204.993243 302.645455 
L 206.878378 302.531127 
L 208.763514 302.261486 
L 210.648649 301.835851 
L 212.533784 301.256052 
L 214.418919 300.533626 
L 216.304054 299.664094 
L 218.189189 298.649022 
L 220.074324 297.490176 
L 221.959459 296.17413 
L 223.844595 294.705101 
L 227.614865 291.335332 
L 231.385135 287.452407 
L 235.155405 283.12192 
L 238.925676 278.373086 
L 242.695946 273.185696 
L 246.466216 267.604547 
L 252.121622 258.626178 
L 257.777027 249.215751 
L 265.317568 236.145835 
L 270.972973 226.009049 
L 276.628378 215.428612 
L 282.283784 204.362893 
L 287.939189 192.669206 
L 293.594595 180.284441 
L 304.905405 155.059856 
L 308.675676 147.16525 
L 312.445946 139.816247 
L 316.216216 133.239242 
L 318.101351 130.280894 
L 319.986486 127.595931 
L 321.871622 125.213703 
L 323.756757 123.141685 
L 325.641892 121.379755 
L 327.527027 119.922525 
L 329.412162 118.761301 
L 331.297297 117.877191 
L 333.182432 117.237238 
L 335.067568 116.81249 
L 336.952703 116.593814 
L 338.837838 116.557881 
L 342.608108 116.858323 
L 357.689189 118.935827 
L 363.344595 119.326968 
L 367.114865 119.370992 
L 370.885135 119.230627 
L 374.655405 118.784749 
L 376.540541 118.388782 
L 378.425676 117.871278 
L 380.310811 117.238027 
L 382.195946 116.477423 
L 384.081081 115.582566 
L 387.851351 113.430978 
L 391.621622 110.840353 
L 395.391892 107.907122 
L 399.162162 104.695818 
L 404.817568 99.522854 
L 412.358108 92.353175 
L 416.128378 89.061639 
L 418.013514 87.582028 
L 419.898649 86.266483 
L 421.783784 85.144402 
L 423.668919 84.23471 
L 425.554054 83.554772 
L 427.439189 83.118212 
L 429.324324 82.935024 
L 431.209459 83.013939 
L 433.094595 83.342825 
L 434.97973 83.91835 
L 436.864865 84.741013 
L 438.75 85.793549 
L 440.635135 87.049506 
L 442.52027 88.491343 
L 444.405405 90.101443 
L 448.175676 93.789272 
L 451.945946 97.941812 
L 459.486486 106.829172 
L 463.256757 111.184248 
L 467.027027 115.223079 
L 470.797297 118.743277 
L 472.682432 120.285578 
L 474.567568 121.665701 
L 476.452703 122.875236 
L 478.337838 123.892538 
L 480.222973 124.707403 
L 482.108108 125.335776 
L 483.993243 125.781536 
L 485.878378 126.046023 
L 487.763514 126.140812 
L 489.648649 126.071776 
L 491.533784 125.830536 
L 493.418919 125.442453 
L 495.304054 124.937089 
L 499.074324 123.568868 
L 504.72973 121.014421 
L 512.27027 117.56084 
L 516.040541 116.125806 
L 521.695946 114.286468 
L 529.236486 111.992736 
L 533.006757 110.646631 
L 536.777027 109.094843 
L 540.547297 107.336596 
L 544.317568 105.349605 
L 549.972973 102.082071 
L 557.513514 97.686797 
L 561.283784 95.652466 
L 565.054054 93.799265 
L 568.824324 92.140767 
L 572.594595 90.735137 
L 576.364865 89.510211 
L 582.02027 87.957031 
L 595.216216 84.71822 
L 598.986486 83.544631 
L 602.756757 82.201192 
L 608.412162 79.893554 
L 614.067568 77.278506 
L 619.722973 74.331292 
L 627.263514 70.181691 
L 632.918919 66.80421 
L 636.689189 64.365327 
L 640.459459 61.669735 
L 644.22973 58.751994 
L 648 55.554545 
L 648 55.554545 
" style="fill:none;stroke:#0000ff;stroke-linecap:square;stroke-width:1.5;"/>
   </g>
   <g id="line2d_93">
    <path clip-path="url(#pf385a182e5)" d="M 108.845867 361 
L 108.851351 168.769367 
L 110.736486 173.188782 
L 112.621622 148.897216 
L 114.506757 158.543691 
L 116.391892 178.415842 
L 118.277027 178.415842 
L 120.162162 204.685396 
L 122.047297 224.557547 
L 123.932432 155.8112 
L 123.938286 361 
M 127.697109 361 
L 127.702703 164.941095 
L 129.587838 184.813245 
L 131.472973 173.188782 
L 133.358108 204.685396 
L 135.243243 224.557547 
L 137.128378 204.685396 
L 139.013514 224.557547 
L 140.898649 184.813245 
L 142.783784 161.564319 
L 144.668919 224.557547 
L 146.554054 204.685396 
L 148.439189 224.557547 
L 150.324324 193.060933 
L 152.209459 173.188782 
L 154.094595 193.060933 
L 155.97973 193.060933 
L 157.864865 204.685396 
L 157.869327 361 
M 178.597455 361 
L 178.601351 224.557547 
L 178.605248 361 
M 184.252294 361 
L 184.256757 204.685396 
L 184.261219 361 
M 244.577185 361 
L 244.581081 224.557547 
L 244.584977 361 
M 261.543401 361 
L 261.547297 224.557547 
L 265.317568 224.557547 
L 265.321464 361 
M 274.738781 361 
L 274.743243 204.685396 
L 274.747706 361 
M 278.509617 361 
L 278.513514 224.557547 
L 280.398649 204.685396 
L 282.283784 224.557547 
L 284.168919 204.685396 
L 284.173381 361 
M 287.934396 361 
L 287.939189 193.060933 
L 289.824324 193.060933 
L 291.709459 204.685396 
L 291.713922 361 
M 297.360402 361 
L 297.364865 204.685396 
L 299.25 204.685396 
L 301.135135 224.557547 
L 303.02027 193.060933 
L 304.905405 193.060933 
L 306.790541 204.685396 
L 308.675676 168.769367 
L 312.445946 148.897216 
L 314.331081 148.897216 
L 316.216216 164.941095 
L 318.101351 193.060933 
L 319.986486 193.060933 
L 321.871622 140.142091 
L 323.756757 151.021851 
L 325.641892 134.664642 
L 327.527027 137.272753 
L 329.412162 124.314587 
L 331.297297 117.400602 
L 333.182432 146.919228 
L 335.067568 118.091466 
L 338.837838 116.725996 
L 340.722973 105.776139 
L 342.608108 111.27755 
L 344.493243 110.731448 
L 346.378378 141.692169 
L 348.263514 101.162354 
L 350.148649 108.645477 
L 352.033784 119.525237 
L 353.918919 98.219315 
L 355.804054 115.422614 
L 357.689189 137.272753 
L 359.574324 164.941095 
L 361.459459 129.025065 
L 363.344595 121.034504 
L 365.22973 110.731448 
L 367.114865 108.645477 
L 369 121.034504 
L 370.885135 125.196793 
L 372.77027 104.880146 
L 374.655405 118.79939 
L 376.540541 98.571092 
L 378.425676 101.162354 
L 380.310811 118.091466 
L 382.195946 106.701041 
L 384.081081 114.17592 
L 385.966216 133.444481 
L 387.851351 129.025065 
L 389.736486 122.627662 
L 391.621622 129.025065 
L 393.506757 99.287866 
L 395.391892 114.17592 
L 397.277027 121.034504 
L 399.162162 119.525237 
L 401.047297 105.324643 
L 402.932432 109.152915 
L 404.817568 100.02302 
L 406.702703 101.947867 
L 408.587838 95.550464 
L 410.472973 111.27755 
L 412.358108 103.586568 
L 414.243243 100.39779 
L 416.128378 104.442436 
L 418.013514 97.528452 
L 419.898649 104.442436 
L 421.783784 96.194748 
L 423.668919 90.059168 
L 425.554054 90.323404 
L 427.439189 93.403084 
L 429.324324 94.92034 
L 431.209459 94.92034 
L 433.094595 80.525639 
L 434.97973 75.36152 
L 436.864865 82.88336 
L 438.75 68.156473 
L 440.635135 67.670538 
L 442.52027 79.597744 
L 444.405405 83.088877 
L 446.290541 79.597744 
L 448.175676 81.484573 
L 451.945946 85.903989 
L 453.831081 74.738247 
L 455.716216 88.522937 
L 457.601351 82.075717 
L 459.486486 76.650252 
L 461.371622 84.353911 
L 463.256757 84.139157 
L 465.141892 107.656778 
L 467.027027 111.834255 
L 468.912162 83.088877 
L 470.797297 94.303769 
L 472.682432 83.295877 
L 474.567568 85.452492 
L 476.452703 114.792491 
L 478.337838 104.880146 
L 480.222973 109.669495 
L 482.108108 118.79939 
L 483.993243 112.981187 
L 485.878378 116.066899 
L 487.763514 110.195555 
L 489.648649 133.444481 
L 491.533784 115.422614 
L 493.418919 109.669495 
L 495.304054 118.091466 
L 497.189189 116.066899 
L 499.074324 121.034504 
L 500.959459 111.834255 
L 502.844595 148.897216 
L 506.614865 115.422614 
L 508.5 114.17592 
L 510.385135 115.422614 
L 512.27027 110.731448 
L 514.155405 123.458718 
L 516.040541 125.196793 
L 517.925676 121.034504 
L 519.810811 118.091466 
L 521.695946 103.168028 
L 523.581081 106.701041 
L 525.466216 115.422614 
L 527.351351 98.927239 
L 529.236486 114.17592 
L 531.121622 112.401986 
L 533.006757 104.880146 
L 534.891892 104.442436 
L 536.777027 106.701041 
L 538.662162 113.57233 
L 540.547297 110.195555 
L 542.432432 128.019016 
L 544.317568 113.57233 
L 546.202703 103.586568 
L 548.087838 111.27755 
L 549.972973 103.168028 
L 551.858108 101.947867 
L 553.743243 98.927239 
L 555.628378 112.401986 
L 557.513514 112.401986 
L 559.398649 101.947867 
L 561.283784 98.927239 
L 563.168919 94.610397 
L 565.054054 101.947867 
L 566.939189 85.007995 
L 568.824324 103.168028 
L 570.709459 101.55242 
L 572.594595 91.405399 
L 574.47973 94.610397 
L 576.364865 93.403084 
L 578.25 83.714417 
L 580.135135 87.064854 
L 582.02027 93.70018 
L 583.905405 88.028624 
L 585.790541 84.139157 
L 587.675676 83.504384 
L 589.560811 79.055088 
L 591.445946 90.590099 
L 593.331081 76.650252 
L 595.216216 86.132432 
L 597.101351 88.522937 
L 598.986486 85.229382 
L 600.871622 84.139157 
L 602.756757 89.025923 
L 604.641892 77.999652 
L 608.412162 85.229382 
L 610.297297 79.965306 
L 612.182432 78.698941 
L 614.067568 76.322597 
L 615.952703 88.274715 
L 617.837838 71.1227 
L 619.722973 85.903989 
L 621.608108 87.064854 
L 623.493243 68.901176 
L 625.378378 80.905372 
L 627.263514 65.580341 
L 629.148649 71.1227 
L 631.033784 70.055807 
L 632.918919 68.279255 
L 634.804054 71.949761 
L 636.689189 75.36152 
L 638.574324 73.236885 
L 640.459459 64.48176 
L 642.344595 60.371953 
L 644.22973 57.869603 
L 646.114865 67.550331 
L 648 66.839482 
L 648 66.839482 
" style="fill:none;stroke:#ff0000;stroke-linecap:square;stroke-opacity:0.7;stroke-width:1.5;"/>
   </g>
   <g id="patch_3">
    <path d="M 90 315 
L 90 43.2 
" style="fill:none;stroke:#000000;stroke-linecap:square;stroke-linejoin:miter;stroke-width:0.8;"/>
   </g>
   <g id="patch_4">
    <path d="M 648 315 
L 648 43.2 
" style="fill:none;stroke:#000000;stroke-linecap:square;stroke-linejoin:miter;stroke-width:0.8;"/>
   </g>
   <g id="patch_5">
    <path d="M 90 315 
L 648 315 
" style="fill:none;stroke:#000000;stroke-linecap:square;stroke-linejoin:miter;stroke-width:0.8;"/>
   </g>
   <g id="patch_6">
    <path d="M 90 43.2 
L 648 43.2 
" style="fill:none;stroke:#000000;stroke-linecap:square;stroke-linejoin:miter;stroke-width:0.8;"/>
   </g>
   <g id="text_16">
    <!-- 237 -  -->
    <g transform="translate(315.565313 37.2)scale(0.12 -0.12)">
     <defs>
      <path d="M 40.578125 39.3125 
Q 47.65625 37.796875 51.625 33 
Q 55.609375 28.21875 55.609375 21.1875 
Q 55.609375 10.40625 48.1875 4.484375 
Q 40.765625 -1.421875 27.09375 -1.421875 
Q 22.515625 -1.421875 17.65625 -0.515625 
Q 12.796875 0.390625 7.625 2.203125 
L 7.625 11.71875 
Q 11.71875 9.328125 16.59375 8.109375 
Q 21.484375 6.890625 26.8125 6.890625 
Q 36.078125 6.890625 40.9375 10.546875 
Q 45.796875 14.203125 45.796875 21.1875 
Q 45.796875 27.640625 41.28125 31.265625 
Q 36.765625 34.90625 28.71875 34.90625 
L 20.21875 34.90625 
L 20.21875 43.015625 
L 29.109375 43.015625 
Q 36.375 43.015625 40.234375 45.921875 
Q 44.09375 48.828125 44.09375 54.296875 
Q 44.09375 59.90625 40.109375 62.90625 
Q 36.140625 65.921875 28.71875 65.921875 
Q 24.65625 65.921875 20.015625 65.03125 
Q 15.375 64.15625 9.8125 62.3125 
L 9.8125 71.09375 
Q 15.4375 72.65625 20.34375 73.4375 
Q 25.25 74.21875 29.59375 74.21875 
Q 40.828125 74.21875 47.359375 69.109375 
Q 53.90625 64.015625 53.90625 55.328125 
Q 53.90625 49.265625 50.4375 45.09375 
Q 46.96875 40.921875 40.578125 39.3125 
z
" id="DejaVuSans-51"/>
      <path d="M 8.203125 72.90625 
L 55.078125 72.90625 
L 55.078125 68.703125 
L 28.609375 0 
L 18.3125 0 
L 43.21875 64.59375 
L 8.203125 64.59375 
z
" id="DejaVuSans-55"/>
      <path id="DejaVuSans-32"/>
      <path d="M 18.171875 54.6875 
L 18.171875 -20.796875 
L 9.078125 -20.796875 
L 9.078125 54.6875 
z
" id="DejaVuSans-1503"/>
      <path d="M 44.140625 40.828125 
L 44.140625 54.6875 
L 53.515625 54.6875 
L 53.515625 40.828125 
Q 53.515625 35.0625 53.046875 30.71875 
Q 52.59375 26.375 51.390625 22.09375 
Q 50.203125 17.828125 48.046875 14.5 
Q 45.90625 11.1875 42.578125 8.078125 
Q 39.265625 4.984375 34.515625 2.390625 
Q 29.78125 -0.203125 23.4375 -2.484375 
L 4.6875 -9.28125 
L 4.6875 -1.03125 
L 18.953125 4.046875 
L 4.296875 54.6875 
L 13.765625 54.6875 
L 27.25 7.125 
Q 33.6875 9.90625 37.203125 13.5625 
Q 40.71875 17.234375 42.421875 23.671875 
Q 44.140625 30.125 44.140625 40.828125 
z
" id="DejaVuSans-1506"/>
      <path d="M 47.359375 27.828125 
L 47.359375 0 
L 38.28125 0 
L 38.28125 27.828125 
Q 38.28125 31.390625 37.765625 34.265625 
Q 37.25 37.15625 36 39.71875 
Q 34.765625 42.28125 32.8125 43.984375 
Q 30.859375 45.703125 27.78125 46.703125 
Q 24.703125 47.703125 20.703125 47.703125 
L 4.296875 47.703125 
L 4.296875 54.6875 
L 20.65625 54.6875 
Q 26.8125 54.6875 31.46875 53.390625 
Q 36.140625 52.09375 39.109375 49.828125 
Q 42.09375 47.5625 43.96875 44.109375 
Q 45.84375 40.671875 46.59375 36.734375 
Q 47.359375 32.8125 47.359375 27.828125 
z
" id="DejaVuSans-1512"/>
      <path d="M 15.71875 54.6875 
L 15.71875 24.125 
L 6.640625 20.40625 
L 6.640625 54.6875 
z
" id="DejaVuSans-1497"/>
      <path d="M 56.640625 29.59375 
L 56.640625 0 
L 47.5625 0 
L 47.5625 29.6875 
Q 47.5625 33.296875 47.3125 35.71875 
Q 47.078125 38.140625 46.1875 40.59375 
Q 45.3125 43.0625 43.75 44.484375 
Q 42.1875 45.90625 39.453125 46.796875 
Q 36.71875 47.703125 32.8125 47.703125 
L 20.796875 47.703125 
L 20.796875 20.21875 
Q 20.796875 9.765625 17.796875 4.6875 
Q 14.796875 -0.390625 7.375 -0.390625 
Q 4.78125 -0.390625 0.984375 0.390625 
L 0.984375 7.375 
Q 4.15625 6.6875 6 6.6875 
Q 9.46875 6.6875 10.59375 9.46875 
Q 11.71875 12.25 11.71875 20.21875 
L 11.71875 47.703125 
L 3.265625 47.703125 
L 3.265625 54.6875 
L 32.8125 54.6875 
Q 39.796875 54.6875 44.5 53.046875 
Q 49.21875 51.421875 51.859375 48.046875 
Q 54.5 44.671875 55.5625 40.28125 
Q 56.640625 35.890625 56.640625 29.59375 
z
" id="DejaVuSans-1514"/>
      <path d="M 4.890625 31.390625 
L 31.203125 31.390625 
L 31.203125 23.390625 
L 4.890625 23.390625 
z
" id="DejaVuSans-45"/>
      <path d="M 36.921875 6.9375 
L 4.296875 54.6875 
L 14.9375 54.6875 
L 33.84375 27 
Q 34.03125 27.15625 34.375 27.390625 
Q 35.546875 28.21875 36.171875 28.75 
Q 36.8125 29.296875 37.890625 30.5625 
Q 38.96875 31.84375 39.546875 33.171875 
Q 40.140625 34.515625 40.59375 36.71875 
Q 41.0625 38.921875 41.0625 41.609375 
L 41.0625 54.6875 
L 50.046875 54.6875 
L 50.046875 45.65625 
Q 50.046875 42.046875 49.609375 38.984375 
Q 49.171875 35.9375 48.53125 33.78125 
Q 47.90625 31.640625 46.78125 29.75 
Q 45.65625 27.875 44.71875 26.75 
Q 43.796875 25.640625 42.3125 24.484375 
Q 40.828125 23.34375 39.9375 22.828125 
Q 39.0625 22.3125 37.59375 21.53125 
L 50.25 3.46875 
L 50.25 0 
L 4.296875 0 
L 4.296875 6.9375 
z
" id="DejaVuSans-1510"/>
      <path d="M 21.78125 6.984375 
L 21.78125 36.28125 
Q 21.78125 42.28125 19.328125 44.984375 
Q 16.890625 47.703125 11.71875 47.703125 
L 5.5625 47.703125 
L 5.5625 54.6875 
L 11.71875 54.6875 
Q 21.734375 54.6875 26.296875 50.359375 
Q 30.859375 46.046875 30.859375 35.25 
L 30.859375 0 
L 4.296875 0 
L 4.296875 6.984375 
z
" id="DejaVuSans-1504"/>
      <path d="M 19.140625 33.40625 
L 19.140625 0 
L 10.109375 0 
L 10.109375 29.6875 
z
M 56.25 27.828125 
L 56.25 0 
L 47.21875 0 
L 47.21875 29.6875 
Q 47.21875 40.234375 44.0625 43.96875 
Q 40.921875 47.703125 31.84375 47.703125 
L 9.078125 47.703125 
L 9.078125 54.6875 
L 31.734375 54.6875 
Q 45.265625 54.6875 50.75 48.578125 
Q 56.25 42.484375 56.25 27.828125 
z
" id="DejaVuSans-1492"/>
     </defs>
     <use xlink:href="#DejaVuSans-50"/>
     <use x="63.623047" xlink:href="#DejaVuSans-51"/>
     <use x="127.246094" xlink:href="#DejaVuSans-55"/>
     <use x="190.869141" xlink:href="#DejaVuSans-32"/>
     <use x="222.65625" xlink:href="#DejaVuSans-1503"/>
     <use x="249.902344" xlink:href="#DejaVuSans-1506"/>
     <use x="312.5" xlink:href="#DejaVuSans-1512"/>
     <use x="368.945312" xlink:href="#DejaVuSans-1497"/>
     <use x="391.308594" xlink:href="#DejaVuSans-1514"/>
     <use x="457.03125" xlink:href="#DejaVuSans-45"/>
     <use x="493.115234" xlink:href="#DejaVuSans-1514"/>
     <use x="558.837891" xlink:href="#DejaVuSans-1512"/>
     <use x="615.283203" xlink:href="#DejaVuSans-1510"/>
     <use x="674.609375" xlink:href="#DejaVuSans-1504"/>
     <use x="714.648438" xlink:href="#DejaVuSans-32"/>
     <use x="746.435547" xlink:href="#DejaVuSans-1497"/>
     <use x="768.798828" xlink:href="#DejaVuSans-1512"/>
     <use x="825.244141" xlink:href="#DejaVuSans-1492"/>
    </g>
   </g>
   <g id="legend_1">
    <g id="patch_7">
     <path d="M 97 95.234375 
L 221.582812 95.234375 
Q 223.582812 95.234375 223.582812 93.234375 
L 223.582812 50.2 
Q 223.582812 48.2 221.582812 48.2 
L 97 48.2 
Q 95 48.2 95 50.2 
L 95 93.234375 
Q 95 95.234375 97 95.234375 
z
" style="fill:#ffffff;opacity:0.8;stroke:#cccccc;stroke-linejoin:miter;"/>
    </g>
    <g id="line2d_94">
     <path d="M 99 56.298437 
L 119 56.298437 
" style="fill:none;stroke:#008000;stroke-linecap:square;stroke-width:1.5;"/>
    </g>
    <g id="line2d_95"/>
    <g id="text_17">
     <!-- Test-adjusted -->
     <g transform="translate(127 59.798437)scale(0.1 -0.1)">
      <defs>
       <path d="M -0.296875 72.90625 
L 61.375 72.90625 
L 61.375 64.59375 
L 35.5 64.59375 
L 35.5 0 
L 25.59375 0 
L 25.59375 64.59375 
L -0.296875 64.59375 
z
" id="DejaVuSans-84"/>
       <path d="M 44.28125 53.078125 
L 44.28125 44.578125 
Q 40.484375 46.53125 36.375 47.5 
Q 32.28125 48.484375 27.875 48.484375 
Q 21.1875 48.484375 17.84375 46.4375 
Q 14.5 44.390625 14.5 40.28125 
Q 14.5 37.15625 16.890625 35.375 
Q 19.28125 33.59375 26.515625 31.984375 
L 29.59375 31.296875 
Q 39.15625 29.25 43.1875 25.515625 
Q 47.21875 21.78125 47.21875 15.09375 
Q 47.21875 7.46875 41.1875 3.015625 
Q 35.15625 -1.421875 24.609375 -1.421875 
Q 20.21875 -1.421875 15.453125 -0.5625 
Q 10.6875 0.296875 5.421875 2 
L 5.421875 11.28125 
Q 10.40625 8.6875 15.234375 7.390625 
Q 20.0625 6.109375 24.8125 6.109375 
Q 31.15625 6.109375 34.5625 8.28125 
Q 37.984375 10.453125 37.984375 14.40625 
Q 37.984375 18.0625 35.515625 20.015625 
Q 33.0625 21.96875 24.703125 23.78125 
L 21.578125 24.515625 
Q 13.234375 26.265625 9.515625 29.90625 
Q 5.8125 33.546875 5.8125 39.890625 
Q 5.8125 47.609375 11.28125 51.796875 
Q 16.75 56 26.8125 56 
Q 31.78125 56 36.171875 55.265625 
Q 40.578125 54.546875 44.28125 53.078125 
z
" id="DejaVuSans-115"/>
       <path d="M 9.421875 54.6875 
L 18.40625 54.6875 
L 18.40625 -0.984375 
Q 18.40625 -11.421875 14.421875 -16.109375 
Q 10.453125 -20.796875 1.609375 -20.796875 
L -1.8125 -20.796875 
L -1.8125 -13.1875 
L 0.59375 -13.1875 
Q 5.71875 -13.1875 7.5625 -10.8125 
Q 9.421875 -8.453125 9.421875 -0.984375 
z
M 9.421875 75.984375 
L 18.40625 75.984375 
L 18.40625 64.59375 
L 9.421875 64.59375 
z
" id="DejaVuSans-106"/>
      </defs>
      <use xlink:href="#DejaVuSans-84"/>
      <use x="44.083984" xlink:href="#DejaVuSans-101"/>
      <use x="105.607422" xlink:href="#DejaVuSans-115"/>
      <use x="157.707031" xlink:href="#DejaVuSans-116"/>
      <use x="196.916016" xlink:href="#DejaVuSans-45"/>
      <use x="233" xlink:href="#DejaVuSans-97"/>
      <use x="294.279297" xlink:href="#DejaVuSans-100"/>
      <use x="357.755859" xlink:href="#DejaVuSans-106"/>
      <use x="385.539062" xlink:href="#DejaVuSans-117"/>
      <use x="448.917969" xlink:href="#DejaVuSans-115"/>
      <use x="501.017578" xlink:href="#DejaVuSans-116"/>
      <use x="540.226562" xlink:href="#DejaVuSans-101"/>
      <use x="601.75" xlink:href="#DejaVuSans-100"/>
     </g>
    </g>
    <g id="line2d_96">
     <path d="M 99 70.976562 
L 119 70.976562 
" style="fill:none;stroke:#0000ff;stroke-linecap:square;stroke-width:1.5;"/>
    </g>
    <g id="line2d_97"/>
    <g id="text_18">
     <!-- Infections -->
     <g transform="translate(127 74.476562)scale(0.1 -0.1)">
      <defs>
       <path d="M 9.8125 72.90625 
L 19.671875 72.90625 
L 19.671875 0 
L 9.8125 0 
z
" id="DejaVuSans-73"/>
       <path d="M 37.109375 75.984375 
L 37.109375 68.5 
L 28.515625 68.5 
Q 23.6875 68.5 21.796875 66.546875 
Q 19.921875 64.59375 19.921875 59.515625 
L 19.921875 54.6875 
L 34.71875 54.6875 
L 34.71875 47.703125 
L 19.921875 47.703125 
L 19.921875 0 
L 10.890625 0 
L 10.890625 47.703125 
L 2.296875 47.703125 
L 2.296875 54.6875 
L 10.890625 54.6875 
L 10.890625 58.5 
Q 10.890625 67.625 15.140625 71.796875 
Q 19.390625 75.984375 28.609375 75.984375 
z
" id="DejaVuSans-102"/>
       <path d="M 9.421875 54.6875 
L 18.40625 54.6875 
L 18.40625 0 
L 9.421875 0 
z
M 9.421875 75.984375 
L 18.40625 75.984375 
L 18.40625 64.59375 
L 9.421875 64.59375 
z
" id="DejaVuSans-105"/>
      </defs>
      <use xlink:href="#DejaVuSans-73"/>
      <use x="29.492188" xlink:href="#DejaVuSans-110"/>
      <use x="92.871094" xlink:href="#DejaVuSans-102"/>
      <use x="128.076172" xlink:href="#DejaVuSans-101"/>
      <use x="189.599609" xlink:href="#DejaVuSans-99"/>
      <use x="244.580078" xlink:href="#DejaVuSans-116"/>
      <use x="283.789062" xlink:href="#DejaVuSans-105"/>
      <use x="311.572266" xlink:href="#DejaVuSans-111"/>
      <use x="372.753906" xlink:href="#DejaVuSans-110"/>
      <use x="436.132812" xlink:href="#DejaVuSans-115"/>
     </g>
    </g>
    <g id="line2d_98">
     <path d="M 99 85.654687 
L 119 85.654687 
" style="fill:none;stroke:#ff0000;stroke-linecap:square;stroke-opacity:0.7;stroke-width:1.5;"/>
    </g>
    <g id="line2d_99"/>
    <g id="text_19">
     <!-- Reported Positives -->
     <g transform="translate(127 89.154687)scale(0.1 -0.1)">
      <defs>
       <path d="M 44.390625 34.1875 
Q 47.5625 33.109375 50.5625 29.59375 
Q 53.5625 26.078125 56.59375 19.921875 
L 66.609375 0 
L 56 0 
L 46.6875 18.703125 
Q 43.0625 26.03125 39.671875 28.421875 
Q 36.28125 30.8125 30.421875 30.8125 
L 19.671875 30.8125 
L 19.671875 0 
L 9.8125 0 
L 9.8125 72.90625 
L 32.078125 72.90625 
Q 44.578125 72.90625 50.734375 67.671875 
Q 56.890625 62.453125 56.890625 51.90625 
Q 56.890625 45.015625 53.6875 40.46875 
Q 50.484375 35.9375 44.390625 34.1875 
z
M 19.671875 64.796875 
L 19.671875 38.921875 
L 32.078125 38.921875 
Q 39.203125 38.921875 42.84375 42.21875 
Q 46.484375 45.515625 46.484375 51.90625 
Q 46.484375 58.296875 42.84375 61.546875 
Q 39.203125 64.796875 32.078125 64.796875 
z
" id="DejaVuSans-82"/>
       <path d="M 19.671875 64.796875 
L 19.671875 37.40625 
L 32.078125 37.40625 
Q 38.96875 37.40625 42.71875 40.96875 
Q 46.484375 44.53125 46.484375 51.125 
Q 46.484375 57.671875 42.71875 61.234375 
Q 38.96875 64.796875 32.078125 64.796875 
z
M 9.8125 72.90625 
L 32.078125 72.90625 
Q 44.34375 72.90625 50.609375 67.359375 
Q 56.890625 61.8125 56.890625 51.125 
Q 56.890625 40.328125 50.609375 34.8125 
Q 44.34375 29.296875 32.078125 29.296875 
L 19.671875 29.296875 
L 19.671875 0 
L 9.8125 0 
z
" id="DejaVuSans-80"/>
      </defs>
      <use xlink:href="#DejaVuSans-82"/>
      <use x="64.982422" xlink:href="#DejaVuSans-101"/>
      <use x="126.505859" xlink:href="#DejaVuSans-112"/>
      <use x="189.982422" xlink:href="#DejaVuSans-111"/>
      <use x="251.164062" xlink:href="#DejaVuSans-114"/>
      <use x="292.277344" xlink:href="#DejaVuSans-116"/>
      <use x="331.486328" xlink:href="#DejaVuSans-101"/>
      <use x="393.009766" xlink:href="#DejaVuSans-100"/>
      <use x="456.486328" xlink:href="#DejaVuSans-32"/>
      <use x="488.273438" xlink:href="#DejaVuSans-80"/>
      <use x="544.951172" xlink:href="#DejaVuSans-111"/>
      <use x="606.132812" xlink:href="#DejaVuSans-115"/>
      <use x="658.232422" xlink:href="#DejaVuSans-105"/>
      <use x="686.015625" xlink:href="#DejaVuSans-116"/>
      <use x="725.224609" xlink:href="#DejaVuSans-105"/>
      <use x="753.007812" xlink:href="#DejaVuSans-118"/>
      <use x="812.1875" xlink:href="#DejaVuSans-101"/>
      <use x="873.710938" xlink:href="#DejaVuSans-115"/>
     </g>
    </g>
   </g>
  </g>
 </g>
 <defs>
  <clipPath id="pf385a182e5">
   <rect height="271.8" width="558" x="90" y="43.2"/>
  </clipPath>
 </defs>
</svg>
