<?xml version="1.0" encoding="utf-8" standalone="no"?>
<!DOCTYPE svg PUBLIC "-//W3C//DTD SVG 1.1//EN"
  "http://www.w3.org/Graphics/SVG/1.1/DTD/svg11.dtd">
<!-- Created with matplotlib (https://matplotlib.org/) -->
<svg height="360pt" version="1.1" viewBox="0 0 720 360" width="720pt" xmlns="http://www.w3.org/2000/svg" xmlns:xlink="http://www.w3.org/1999/xlink">
 <metadata>
  <rdf:RDF xmlns:cc="http://creativecommons.org/ns#" xmlns:dc="http://purl.org/dc/elements/1.1/" xmlns:rdf="http://www.w3.org/1999/02/22-rdf-syntax-ns#">
   <cc:Work>
    <dc:type rdf:resource="http://purl.org/dc/dcmitype/StillImage"/>
    <dc:date>2021-04-05T00:41:23.719546</dc:date>
    <dc:format>image/svg+xml</dc:format>
    <dc:creator>
     <cc:Agent>
      <dc:title>Matplotlib v3.3.2, https://matplotlib.org/</dc:title>
     </cc:Agent>
    </dc:creator>
   </cc:Work>
  </rdf:RDF>
 </metadata>
 <defs>
  <style type="text/css">*{stroke-linecap:butt;stroke-linejoin:round;}</style>
 </defs>
 <g id="figure_1">
  <g id="patch_1">
   <path d="M 0 360 
L 720 360 
L 720 0 
L 0 0 
z
" style="fill:#ffffff;"/>
  </g>
  <g id="axes_1">
   <g id="patch_2">
    <path d="M 90 315 
L 648 315 
L 648 43.2 
L 90 43.2 
z
" style="fill:#ffffff;"/>
   </g>
   <g id="matplotlib.axis_1">
    <g id="xtick_1">
     <g id="line2d_1">
      <defs>
       <path d="M 0 0 
L 0 3.5 
" id="md2062d79cc" style="stroke:#000000;stroke-width:0.8;"/>
      </defs>
      <g>
       <use style="stroke:#000000;stroke-width:0.8;" x="90" xlink:href="#md2062d79cc" y="315"/>
      </g>
     </g>
    </g>
    <g id="xtick_2">
     <g id="line2d_2">
      <g>
       <use style="stroke:#000000;stroke-width:0.8;" x="121.639175" xlink:href="#md2062d79cc" y="315"/>
      </g>
     </g>
     <g id="text_1">
      <!-- Apr -->
      <g transform="translate(112.989175 329.598437)scale(0.1 -0.1)">
       <defs>
        <path d="M 34.1875 63.1875 
L 20.796875 26.90625 
L 47.609375 26.90625 
z
M 28.609375 72.90625 
L 39.796875 72.90625 
L 67.578125 0 
L 57.328125 0 
L 50.6875 18.703125 
L 17.828125 18.703125 
L 11.1875 0 
L 0.78125 0 
z
" id="DejaVuSans-65"/>
        <path d="M 18.109375 8.203125 
L 18.109375 -20.796875 
L 9.078125 -20.796875 
L 9.078125 54.6875 
L 18.109375 54.6875 
L 18.109375 46.390625 
Q 20.953125 51.265625 25.265625 53.625 
Q 29.59375 56 35.59375 56 
Q 45.5625 56 51.78125 48.09375 
Q 58.015625 40.1875 58.015625 27.296875 
Q 58.015625 14.40625 51.78125 6.484375 
Q 45.5625 -1.421875 35.59375 -1.421875 
Q 29.59375 -1.421875 25.265625 0.953125 
Q 20.953125 3.328125 18.109375 8.203125 
z
M 48.6875 27.296875 
Q 48.6875 37.203125 44.609375 42.84375 
Q 40.53125 48.484375 33.40625 48.484375 
Q 26.265625 48.484375 22.1875 42.84375 
Q 18.109375 37.203125 18.109375 27.296875 
Q 18.109375 17.390625 22.1875 11.75 
Q 26.265625 6.109375 33.40625 6.109375 
Q 40.53125 6.109375 44.609375 11.75 
Q 48.6875 17.390625 48.6875 27.296875 
z
" id="DejaVuSans-112"/>
        <path d="M 41.109375 46.296875 
Q 39.59375 47.171875 37.8125 47.578125 
Q 36.03125 48 33.890625 48 
Q 26.265625 48 22.1875 43.046875 
Q 18.109375 38.09375 18.109375 28.8125 
L 18.109375 0 
L 9.078125 0 
L 9.078125 54.6875 
L 18.109375 54.6875 
L 18.109375 46.1875 
Q 20.953125 51.171875 25.484375 53.578125 
Q 30.03125 56 36.53125 56 
Q 37.453125 56 38.578125 55.875 
Q 39.703125 55.765625 41.0625 55.515625 
z
" id="DejaVuSans-114"/>
       </defs>
       <use xlink:href="#DejaVuSans-65"/>
       <use x="68.408203" xlink:href="#DejaVuSans-112"/>
       <use x="131.884766" xlink:href="#DejaVuSans-114"/>
      </g>
     </g>
    </g>
    <g id="xtick_3">
     <g id="line2d_3">
      <g>
       <use style="stroke:#000000;stroke-width:0.8;" x="164.783505" xlink:href="#md2062d79cc" y="315"/>
      </g>
     </g>
     <g id="text_2">
      <!-- May -->
      <g transform="translate(154.446005 329.598437)scale(0.1 -0.1)">
       <defs>
        <path d="M 9.8125 72.90625 
L 24.515625 72.90625 
L 43.109375 23.296875 
L 61.8125 72.90625 
L 76.515625 72.90625 
L 76.515625 0 
L 66.890625 0 
L 66.890625 64.015625 
L 48.09375 14.015625 
L 38.1875 14.015625 
L 19.390625 64.015625 
L 19.390625 0 
L 9.8125 0 
z
" id="DejaVuSans-77"/>
        <path d="M 34.28125 27.484375 
Q 23.390625 27.484375 19.1875 25 
Q 14.984375 22.515625 14.984375 16.5 
Q 14.984375 11.71875 18.140625 8.90625 
Q 21.296875 6.109375 26.703125 6.109375 
Q 34.1875 6.109375 38.703125 11.40625 
Q 43.21875 16.703125 43.21875 25.484375 
L 43.21875 27.484375 
z
M 52.203125 31.203125 
L 52.203125 0 
L 43.21875 0 
L 43.21875 8.296875 
Q 40.140625 3.328125 35.546875 0.953125 
Q 30.953125 -1.421875 24.3125 -1.421875 
Q 15.921875 -1.421875 10.953125 3.296875 
Q 6 8.015625 6 15.921875 
Q 6 25.140625 12.171875 29.828125 
Q 18.359375 34.515625 30.609375 34.515625 
L 43.21875 34.515625 
L 43.21875 35.40625 
Q 43.21875 41.609375 39.140625 45 
Q 35.0625 48.390625 27.6875 48.390625 
Q 23 48.390625 18.546875 47.265625 
Q 14.109375 46.140625 10.015625 43.890625 
L 10.015625 52.203125 
Q 14.9375 54.109375 19.578125 55.046875 
Q 24.21875 56 28.609375 56 
Q 40.484375 56 46.34375 49.84375 
Q 52.203125 43.703125 52.203125 31.203125 
z
" id="DejaVuSans-97"/>
        <path d="M 32.171875 -5.078125 
Q 28.375 -14.84375 24.75 -17.8125 
Q 21.140625 -20.796875 15.09375 -20.796875 
L 7.90625 -20.796875 
L 7.90625 -13.28125 
L 13.1875 -13.28125 
Q 16.890625 -13.28125 18.9375 -11.515625 
Q 21 -9.765625 23.484375 -3.21875 
L 25.09375 0.875 
L 2.984375 54.6875 
L 12.5 54.6875 
L 29.59375 11.921875 
L 46.6875 54.6875 
L 56.203125 54.6875 
z
" id="DejaVuSans-121"/>
       </defs>
       <use xlink:href="#DejaVuSans-77"/>
       <use x="86.279297" xlink:href="#DejaVuSans-97"/>
       <use x="147.558594" xlink:href="#DejaVuSans-121"/>
      </g>
     </g>
    </g>
    <g id="xtick_4">
     <g id="line2d_4">
      <g>
       <use style="stroke:#000000;stroke-width:0.8;" x="209.365979" xlink:href="#md2062d79cc" y="315"/>
      </g>
     </g>
     <g id="text_3">
      <!-- Jun -->
      <g transform="translate(201.553479 329.598437)scale(0.1 -0.1)">
       <defs>
        <path d="M 9.8125 72.90625 
L 19.671875 72.90625 
L 19.671875 5.078125 
Q 19.671875 -8.109375 14.671875 -14.0625 
Q 9.671875 -20.015625 -1.421875 -20.015625 
L -5.171875 -20.015625 
L -5.171875 -11.71875 
L -2.09375 -11.71875 
Q 4.4375 -11.71875 7.125 -8.046875 
Q 9.8125 -4.390625 9.8125 5.078125 
z
" id="DejaVuSans-74"/>
        <path d="M 8.5 21.578125 
L 8.5 54.6875 
L 17.484375 54.6875 
L 17.484375 21.921875 
Q 17.484375 14.15625 20.5 10.265625 
Q 23.53125 6.390625 29.59375 6.390625 
Q 36.859375 6.390625 41.078125 11.03125 
Q 45.3125 15.671875 45.3125 23.6875 
L 45.3125 54.6875 
L 54.296875 54.6875 
L 54.296875 0 
L 45.3125 0 
L 45.3125 8.40625 
Q 42.046875 3.421875 37.71875 1 
Q 33.40625 -1.421875 27.6875 -1.421875 
Q 18.265625 -1.421875 13.375 4.4375 
Q 8.5 10.296875 8.5 21.578125 
z
M 31.109375 56 
z
" id="DejaVuSans-117"/>
        <path d="M 54.890625 33.015625 
L 54.890625 0 
L 45.90625 0 
L 45.90625 32.71875 
Q 45.90625 40.484375 42.875 44.328125 
Q 39.84375 48.1875 33.796875 48.1875 
Q 26.515625 48.1875 22.3125 43.546875 
Q 18.109375 38.921875 18.109375 30.90625 
L 18.109375 0 
L 9.078125 0 
L 9.078125 54.6875 
L 18.109375 54.6875 
L 18.109375 46.1875 
Q 21.34375 51.125 25.703125 53.5625 
Q 30.078125 56 35.796875 56 
Q 45.21875 56 50.046875 50.171875 
Q 54.890625 44.34375 54.890625 33.015625 
z
" id="DejaVuSans-110"/>
       </defs>
       <use xlink:href="#DejaVuSans-74"/>
       <use x="29.492188" xlink:href="#DejaVuSans-117"/>
       <use x="92.871094" xlink:href="#DejaVuSans-110"/>
      </g>
     </g>
    </g>
    <g id="xtick_5">
     <g id="line2d_5">
      <g>
       <use style="stroke:#000000;stroke-width:0.8;" x="252.510309" xlink:href="#md2062d79cc" y="315"/>
      </g>
     </g>
     <g id="text_4">
      <!-- Jul -->
      <g transform="translate(246.477497 329.598437)scale(0.1 -0.1)">
       <defs>
        <path d="M 9.421875 75.984375 
L 18.40625 75.984375 
L 18.40625 0 
L 9.421875 0 
z
" id="DejaVuSans-108"/>
       </defs>
       <use xlink:href="#DejaVuSans-74"/>
       <use x="29.492188" xlink:href="#DejaVuSans-117"/>
       <use x="92.871094" xlink:href="#DejaVuSans-108"/>
      </g>
     </g>
    </g>
    <g id="xtick_6">
     <g id="line2d_6">
      <g>
       <use style="stroke:#000000;stroke-width:0.8;" x="297.092784" xlink:href="#md2062d79cc" y="315"/>
      </g>
     </g>
     <g id="text_5">
      <!-- Aug -->
      <g transform="translate(287.329502 329.598437)scale(0.1 -0.1)">
       <defs>
        <path d="M 45.40625 27.984375 
Q 45.40625 37.75 41.375 43.109375 
Q 37.359375 48.484375 30.078125 48.484375 
Q 22.859375 48.484375 18.828125 43.109375 
Q 14.796875 37.75 14.796875 27.984375 
Q 14.796875 18.265625 18.828125 12.890625 
Q 22.859375 7.515625 30.078125 7.515625 
Q 37.359375 7.515625 41.375 12.890625 
Q 45.40625 18.265625 45.40625 27.984375 
z
M 54.390625 6.78125 
Q 54.390625 -7.171875 48.1875 -13.984375 
Q 42 -20.796875 29.203125 -20.796875 
Q 24.46875 -20.796875 20.265625 -20.09375 
Q 16.0625 -19.390625 12.109375 -17.921875 
L 12.109375 -9.1875 
Q 16.0625 -11.328125 19.921875 -12.34375 
Q 23.78125 -13.375 27.78125 -13.375 
Q 36.625 -13.375 41.015625 -8.765625 
Q 45.40625 -4.15625 45.40625 5.171875 
L 45.40625 9.625 
Q 42.625 4.78125 38.28125 2.390625 
Q 33.9375 0 27.875 0 
Q 17.828125 0 11.671875 7.65625 
Q 5.515625 15.328125 5.515625 27.984375 
Q 5.515625 40.671875 11.671875 48.328125 
Q 17.828125 56 27.875 56 
Q 33.9375 56 38.28125 53.609375 
Q 42.625 51.21875 45.40625 46.390625 
L 45.40625 54.6875 
L 54.390625 54.6875 
z
" id="DejaVuSans-103"/>
       </defs>
       <use xlink:href="#DejaVuSans-65"/>
       <use x="68.408203" xlink:href="#DejaVuSans-117"/>
       <use x="131.787109" xlink:href="#DejaVuSans-103"/>
      </g>
     </g>
    </g>
    <g id="xtick_7">
     <g id="line2d_7">
      <g>
       <use style="stroke:#000000;stroke-width:0.8;" x="341.675258" xlink:href="#md2062d79cc" y="315"/>
      </g>
     </g>
     <g id="text_6">
      <!-- Sep -->
      <g transform="translate(332.250258 329.598437)scale(0.1 -0.1)">
       <defs>
        <path d="M 53.515625 70.515625 
L 53.515625 60.890625 
Q 47.90625 63.578125 42.921875 64.890625 
Q 37.9375 66.21875 33.296875 66.21875 
Q 25.25 66.21875 20.875 63.09375 
Q 16.5 59.96875 16.5 54.203125 
Q 16.5 49.359375 19.40625 46.890625 
Q 22.3125 44.4375 30.421875 42.921875 
L 36.375 41.703125 
Q 47.40625 39.59375 52.65625 34.296875 
Q 57.90625 29 57.90625 20.125 
Q 57.90625 9.515625 50.796875 4.046875 
Q 43.703125 -1.421875 29.984375 -1.421875 
Q 24.8125 -1.421875 18.96875 -0.25 
Q 13.140625 0.921875 6.890625 3.21875 
L 6.890625 13.375 
Q 12.890625 10.015625 18.65625 8.296875 
Q 24.421875 6.59375 29.984375 6.59375 
Q 38.421875 6.59375 43.015625 9.90625 
Q 47.609375 13.234375 47.609375 19.390625 
Q 47.609375 24.75 44.3125 27.78125 
Q 41.015625 30.8125 33.5 32.328125 
L 27.484375 33.5 
Q 16.453125 35.6875 11.515625 40.375 
Q 6.59375 45.0625 6.59375 53.421875 
Q 6.59375 63.09375 13.40625 68.65625 
Q 20.21875 74.21875 32.171875 74.21875 
Q 37.3125 74.21875 42.625 73.28125 
Q 47.953125 72.359375 53.515625 70.515625 
z
" id="DejaVuSans-83"/>
        <path d="M 56.203125 29.59375 
L 56.203125 25.203125 
L 14.890625 25.203125 
Q 15.484375 15.921875 20.484375 11.0625 
Q 25.484375 6.203125 34.421875 6.203125 
Q 39.59375 6.203125 44.453125 7.46875 
Q 49.3125 8.734375 54.109375 11.28125 
L 54.109375 2.78125 
Q 49.265625 0.734375 44.1875 -0.34375 
Q 39.109375 -1.421875 33.890625 -1.421875 
Q 20.796875 -1.421875 13.15625 6.1875 
Q 5.515625 13.8125 5.515625 26.8125 
Q 5.515625 40.234375 12.765625 48.109375 
Q 20.015625 56 32.328125 56 
Q 43.359375 56 49.78125 48.890625 
Q 56.203125 41.796875 56.203125 29.59375 
z
M 47.21875 32.234375 
Q 47.125 39.59375 43.09375 43.984375 
Q 39.0625 48.390625 32.421875 48.390625 
Q 24.90625 48.390625 20.390625 44.140625 
Q 15.875 39.890625 15.1875 32.171875 
z
" id="DejaVuSans-101"/>
       </defs>
       <use xlink:href="#DejaVuSans-83"/>
       <use x="63.476562" xlink:href="#DejaVuSans-101"/>
       <use x="125" xlink:href="#DejaVuSans-112"/>
      </g>
     </g>
    </g>
    <g id="xtick_8">
     <g id="line2d_8">
      <g>
       <use style="stroke:#000000;stroke-width:0.8;" x="384.819588" xlink:href="#md2062d79cc" y="315"/>
      </g>
     </g>
     <g id="text_7">
      <!-- Oct -->
      <g transform="translate(376.174275 329.598437)scale(0.1 -0.1)">
       <defs>
        <path d="M 39.40625 66.21875 
Q 28.65625 66.21875 22.328125 58.203125 
Q 16.015625 50.203125 16.015625 36.375 
Q 16.015625 22.609375 22.328125 14.59375 
Q 28.65625 6.59375 39.40625 6.59375 
Q 50.140625 6.59375 56.421875 14.59375 
Q 62.703125 22.609375 62.703125 36.375 
Q 62.703125 50.203125 56.421875 58.203125 
Q 50.140625 66.21875 39.40625 66.21875 
z
M 39.40625 74.21875 
Q 54.734375 74.21875 63.90625 63.9375 
Q 73.09375 53.65625 73.09375 36.375 
Q 73.09375 19.140625 63.90625 8.859375 
Q 54.734375 -1.421875 39.40625 -1.421875 
Q 24.03125 -1.421875 14.8125 8.828125 
Q 5.609375 19.09375 5.609375 36.375 
Q 5.609375 53.65625 14.8125 63.9375 
Q 24.03125 74.21875 39.40625 74.21875 
z
" id="DejaVuSans-79"/>
        <path d="M 48.78125 52.59375 
L 48.78125 44.1875 
Q 44.96875 46.296875 41.140625 47.34375 
Q 37.3125 48.390625 33.40625 48.390625 
Q 24.65625 48.390625 19.8125 42.84375 
Q 14.984375 37.3125 14.984375 27.296875 
Q 14.984375 17.28125 19.8125 11.734375 
Q 24.65625 6.203125 33.40625 6.203125 
Q 37.3125 6.203125 41.140625 7.25 
Q 44.96875 8.296875 48.78125 10.40625 
L 48.78125 2.09375 
Q 45.015625 0.34375 40.984375 -0.53125 
Q 36.96875 -1.421875 32.421875 -1.421875 
Q 20.0625 -1.421875 12.78125 6.34375 
Q 5.515625 14.109375 5.515625 27.296875 
Q 5.515625 40.671875 12.859375 48.328125 
Q 20.21875 56 33.015625 56 
Q 37.15625 56 41.109375 55.140625 
Q 45.0625 54.296875 48.78125 52.59375 
z
" id="DejaVuSans-99"/>
        <path d="M 18.3125 70.21875 
L 18.3125 54.6875 
L 36.8125 54.6875 
L 36.8125 47.703125 
L 18.3125 47.703125 
L 18.3125 18.015625 
Q 18.3125 11.328125 20.140625 9.421875 
Q 21.96875 7.515625 27.59375 7.515625 
L 36.8125 7.515625 
L 36.8125 0 
L 27.59375 0 
Q 17.1875 0 13.234375 3.875 
Q 9.28125 7.765625 9.28125 18.015625 
L 9.28125 47.703125 
L 2.6875 47.703125 
L 2.6875 54.6875 
L 9.28125 54.6875 
L 9.28125 70.21875 
z
" id="DejaVuSans-116"/>
       </defs>
       <use xlink:href="#DejaVuSans-79"/>
       <use x="78.710938" xlink:href="#DejaVuSans-99"/>
       <use x="133.691406" xlink:href="#DejaVuSans-116"/>
      </g>
     </g>
    </g>
    <g id="xtick_9">
     <g id="line2d_9">
      <g>
       <use style="stroke:#000000;stroke-width:0.8;" x="429.402062" xlink:href="#md2062d79cc" y="315"/>
      </g>
     </g>
     <g id="text_8">
      <!-- Nov -->
      <g transform="translate(419.642687 329.598437)scale(0.1 -0.1)">
       <defs>
        <path d="M 9.8125 72.90625 
L 23.09375 72.90625 
L 55.421875 11.921875 
L 55.421875 72.90625 
L 64.984375 72.90625 
L 64.984375 0 
L 51.703125 0 
L 19.390625 60.984375 
L 19.390625 0 
L 9.8125 0 
z
" id="DejaVuSans-78"/>
        <path d="M 30.609375 48.390625 
Q 23.390625 48.390625 19.1875 42.75 
Q 14.984375 37.109375 14.984375 27.296875 
Q 14.984375 17.484375 19.15625 11.84375 
Q 23.34375 6.203125 30.609375 6.203125 
Q 37.796875 6.203125 41.984375 11.859375 
Q 46.1875 17.53125 46.1875 27.296875 
Q 46.1875 37.015625 41.984375 42.703125 
Q 37.796875 48.390625 30.609375 48.390625 
z
M 30.609375 56 
Q 42.328125 56 49.015625 48.375 
Q 55.71875 40.765625 55.71875 27.296875 
Q 55.71875 13.875 49.015625 6.21875 
Q 42.328125 -1.421875 30.609375 -1.421875 
Q 18.84375 -1.421875 12.171875 6.21875 
Q 5.515625 13.875 5.515625 27.296875 
Q 5.515625 40.765625 12.171875 48.375 
Q 18.84375 56 30.609375 56 
z
" id="DejaVuSans-111"/>
        <path d="M 2.984375 54.6875 
L 12.5 54.6875 
L 29.59375 8.796875 
L 46.6875 54.6875 
L 56.203125 54.6875 
L 35.6875 0 
L 23.484375 0 
z
" id="DejaVuSans-118"/>
       </defs>
       <use xlink:href="#DejaVuSans-78"/>
       <use x="74.804688" xlink:href="#DejaVuSans-111"/>
       <use x="135.986328" xlink:href="#DejaVuSans-118"/>
      </g>
     </g>
    </g>
    <g id="xtick_10">
     <g id="line2d_10">
      <g>
       <use style="stroke:#000000;stroke-width:0.8;" x="472.546392" xlink:href="#md2062d79cc" y="315"/>
      </g>
     </g>
     <g id="text_9">
      <!-- Dec -->
      <g transform="translate(462.870611 329.598437)scale(0.1 -0.1)">
       <defs>
        <path d="M 19.671875 64.796875 
L 19.671875 8.109375 
L 31.59375 8.109375 
Q 46.6875 8.109375 53.6875 14.9375 
Q 60.6875 21.78125 60.6875 36.53125 
Q 60.6875 51.171875 53.6875 57.984375 
Q 46.6875 64.796875 31.59375 64.796875 
z
M 9.8125 72.90625 
L 30.078125 72.90625 
Q 51.265625 72.90625 61.171875 64.09375 
Q 71.09375 55.28125 71.09375 36.53125 
Q 71.09375 17.671875 61.125 8.828125 
Q 51.171875 0 30.078125 0 
L 9.8125 0 
z
" id="DejaVuSans-68"/>
       </defs>
       <use xlink:href="#DejaVuSans-68"/>
       <use x="77.001953" xlink:href="#DejaVuSans-101"/>
       <use x="138.525391" xlink:href="#DejaVuSans-99"/>
      </g>
     </g>
    </g>
    <g id="xtick_11">
     <g id="line2d_11">
      <g>
       <use style="stroke:#000000;stroke-width:0.8;" x="517.128866" xlink:href="#md2062d79cc" y="315"/>
      </g>
     </g>
     <g id="text_10">
      <!-- Jan -->
      <g transform="translate(509.421053 329.598437)scale(0.1 -0.1)">
       <use xlink:href="#DejaVuSans-74"/>
       <use x="29.492188" xlink:href="#DejaVuSans-97"/>
       <use x="90.771484" xlink:href="#DejaVuSans-110"/>
      </g>
      <!-- 2021 -->
      <g transform="translate(504.403866 340.79625)scale(0.1 -0.1)">
       <defs>
        <path d="M 19.1875 8.296875 
L 53.609375 8.296875 
L 53.609375 0 
L 7.328125 0 
L 7.328125 8.296875 
Q 12.9375 14.109375 22.625 23.890625 
Q 32.328125 33.6875 34.8125 36.53125 
Q 39.546875 41.84375 41.421875 45.53125 
Q 43.3125 49.21875 43.3125 52.78125 
Q 43.3125 58.59375 39.234375 62.25 
Q 35.15625 65.921875 28.609375 65.921875 
Q 23.96875 65.921875 18.8125 64.3125 
Q 13.671875 62.703125 7.8125 59.421875 
L 7.8125 69.390625 
Q 13.765625 71.78125 18.9375 73 
Q 24.125 74.21875 28.421875 74.21875 
Q 39.75 74.21875 46.484375 68.546875 
Q 53.21875 62.890625 53.21875 53.421875 
Q 53.21875 48.921875 51.53125 44.890625 
Q 49.859375 40.875 45.40625 35.40625 
Q 44.1875 33.984375 37.640625 27.21875 
Q 31.109375 20.453125 19.1875 8.296875 
z
" id="DejaVuSans-50"/>
        <path d="M 31.78125 66.40625 
Q 24.171875 66.40625 20.328125 58.90625 
Q 16.5 51.421875 16.5 36.375 
Q 16.5 21.390625 20.328125 13.890625 
Q 24.171875 6.390625 31.78125 6.390625 
Q 39.453125 6.390625 43.28125 13.890625 
Q 47.125 21.390625 47.125 36.375 
Q 47.125 51.421875 43.28125 58.90625 
Q 39.453125 66.40625 31.78125 66.40625 
z
M 31.78125 74.21875 
Q 44.046875 74.21875 50.515625 64.515625 
Q 56.984375 54.828125 56.984375 36.375 
Q 56.984375 17.96875 50.515625 8.265625 
Q 44.046875 -1.421875 31.78125 -1.421875 
Q 19.53125 -1.421875 13.0625 8.265625 
Q 6.59375 17.96875 6.59375 36.375 
Q 6.59375 54.828125 13.0625 64.515625 
Q 19.53125 74.21875 31.78125 74.21875 
z
" id="DejaVuSans-48"/>
        <path d="M 12.40625 8.296875 
L 28.515625 8.296875 
L 28.515625 63.921875 
L 10.984375 60.40625 
L 10.984375 69.390625 
L 28.421875 72.90625 
L 38.28125 72.90625 
L 38.28125 8.296875 
L 54.390625 8.296875 
L 54.390625 0 
L 12.40625 0 
z
" id="DejaVuSans-49"/>
       </defs>
       <use xlink:href="#DejaVuSans-50"/>
       <use x="63.623047" xlink:href="#DejaVuSans-48"/>
       <use x="127.246094" xlink:href="#DejaVuSans-50"/>
       <use x="190.869141" xlink:href="#DejaVuSans-49"/>
      </g>
     </g>
    </g>
    <g id="xtick_12">
     <g id="line2d_12">
      <g>
       <use style="stroke:#000000;stroke-width:0.8;" x="561.71134" xlink:href="#md2062d79cc" y="315"/>
      </g>
     </g>
     <g id="text_11">
      <!-- Feb -->
      <g transform="translate(552.859778 329.598437)scale(0.1 -0.1)">
       <defs>
        <path d="M 9.8125 72.90625 
L 51.703125 72.90625 
L 51.703125 64.59375 
L 19.671875 64.59375 
L 19.671875 43.109375 
L 48.578125 43.109375 
L 48.578125 34.8125 
L 19.671875 34.8125 
L 19.671875 0 
L 9.8125 0 
z
" id="DejaVuSans-70"/>
        <path d="M 48.6875 27.296875 
Q 48.6875 37.203125 44.609375 42.84375 
Q 40.53125 48.484375 33.40625 48.484375 
Q 26.265625 48.484375 22.1875 42.84375 
Q 18.109375 37.203125 18.109375 27.296875 
Q 18.109375 17.390625 22.1875 11.75 
Q 26.265625 6.109375 33.40625 6.109375 
Q 40.53125 6.109375 44.609375 11.75 
Q 48.6875 17.390625 48.6875 27.296875 
z
M 18.109375 46.390625 
Q 20.953125 51.265625 25.265625 53.625 
Q 29.59375 56 35.59375 56 
Q 45.5625 56 51.78125 48.09375 
Q 58.015625 40.1875 58.015625 27.296875 
Q 58.015625 14.40625 51.78125 6.484375 
Q 45.5625 -1.421875 35.59375 -1.421875 
Q 29.59375 -1.421875 25.265625 0.953125 
Q 20.953125 3.328125 18.109375 8.203125 
L 18.109375 0 
L 9.078125 0 
L 9.078125 75.984375 
L 18.109375 75.984375 
z
" id="DejaVuSans-98"/>
       </defs>
       <use xlink:href="#DejaVuSans-70"/>
       <use x="52.019531" xlink:href="#DejaVuSans-101"/>
       <use x="113.542969" xlink:href="#DejaVuSans-98"/>
      </g>
     </g>
    </g>
    <g id="xtick_13">
     <g id="line2d_13">
      <g>
       <use style="stroke:#000000;stroke-width:0.8;" x="601.979381" xlink:href="#md2062d79cc" y="315"/>
      </g>
     </g>
     <g id="text_12">
      <!-- Mar -->
      <g transform="translate(592.545788 329.598437)scale(0.1 -0.1)">
       <use xlink:href="#DejaVuSans-77"/>
       <use x="86.279297" xlink:href="#DejaVuSans-97"/>
       <use x="147.558594" xlink:href="#DejaVuSans-114"/>
      </g>
     </g>
    </g>
    <g id="xtick_14">
     <g id="line2d_14">
      <g>
       <use style="stroke:#000000;stroke-width:0.8;" x="646.561856" xlink:href="#md2062d79cc" y="315"/>
      </g>
     </g>
     <g id="text_13">
      <!-- Apr -->
      <g transform="translate(637.911856 329.598437)scale(0.1 -0.1)">
       <use xlink:href="#DejaVuSans-65"/>
       <use x="68.408203" xlink:href="#DejaVuSans-112"/>
       <use x="131.884766" xlink:href="#DejaVuSans-114"/>
      </g>
     </g>
    </g>
    <g id="xtick_15">
     <g id="line2d_15">
      <g>
       <use style="stroke:#000000;stroke-width:0.8;" x="648" xlink:href="#md2062d79cc" y="315"/>
      </g>
     </g>
    </g>
    <g id="xtick_16">
     <g id="line2d_16">
      <defs>
       <path d="M 0 0 
L 0 2 
" id="m82d5fddcb5" style="stroke:#000000;stroke-width:0.6;"/>
      </defs>
      <g>
       <use style="stroke:#000000;stroke-width:0.6;" x="98.628866" xlink:href="#m82d5fddcb5" y="315"/>
      </g>
     </g>
    </g>
    <g id="xtick_17">
     <g id="line2d_17">
      <g>
       <use style="stroke:#000000;stroke-width:0.6;" x="108.695876" xlink:href="#m82d5fddcb5" y="315"/>
      </g>
     </g>
    </g>
    <g id="xtick_18">
     <g id="line2d_18">
      <g>
       <use style="stroke:#000000;stroke-width:0.6;" x="118.762887" xlink:href="#m82d5fddcb5" y="315"/>
      </g>
     </g>
    </g>
    <g id="xtick_19">
     <g id="line2d_19">
      <g>
       <use style="stroke:#000000;stroke-width:0.6;" x="128.829897" xlink:href="#m82d5fddcb5" y="315"/>
      </g>
     </g>
    </g>
    <g id="xtick_20">
     <g id="line2d_20">
      <g>
       <use style="stroke:#000000;stroke-width:0.6;" x="138.896907" xlink:href="#m82d5fddcb5" y="315"/>
      </g>
     </g>
    </g>
    <g id="xtick_21">
     <g id="line2d_21">
      <g>
       <use style="stroke:#000000;stroke-width:0.6;" x="148.963918" xlink:href="#m82d5fddcb5" y="315"/>
      </g>
     </g>
    </g>
    <g id="xtick_22">
     <g id="line2d_22">
      <g>
       <use style="stroke:#000000;stroke-width:0.6;" x="159.030928" xlink:href="#m82d5fddcb5" y="315"/>
      </g>
     </g>
    </g>
    <g id="xtick_23">
     <g id="line2d_23">
      <g>
       <use style="stroke:#000000;stroke-width:0.6;" x="169.097938" xlink:href="#m82d5fddcb5" y="315"/>
      </g>
     </g>
    </g>
    <g id="xtick_24">
     <g id="line2d_24">
      <g>
       <use style="stroke:#000000;stroke-width:0.6;" x="179.164948" xlink:href="#m82d5fddcb5" y="315"/>
      </g>
     </g>
    </g>
    <g id="xtick_25">
     <g id="line2d_25">
      <g>
       <use style="stroke:#000000;stroke-width:0.6;" x="189.231959" xlink:href="#m82d5fddcb5" y="315"/>
      </g>
     </g>
    </g>
    <g id="xtick_26">
     <g id="line2d_26">
      <g>
       <use style="stroke:#000000;stroke-width:0.6;" x="199.298969" xlink:href="#m82d5fddcb5" y="315"/>
      </g>
     </g>
    </g>
    <g id="xtick_27">
     <g id="line2d_27">
      <g>
       <use style="stroke:#000000;stroke-width:0.6;" x="219.43299" xlink:href="#m82d5fddcb5" y="315"/>
      </g>
     </g>
    </g>
    <g id="xtick_28">
     <g id="line2d_28">
      <g>
       <use style="stroke:#000000;stroke-width:0.6;" x="229.5" xlink:href="#m82d5fddcb5" y="315"/>
      </g>
     </g>
    </g>
    <g id="xtick_29">
     <g id="line2d_29">
      <g>
       <use style="stroke:#000000;stroke-width:0.6;" x="239.56701" xlink:href="#m82d5fddcb5" y="315"/>
      </g>
     </g>
    </g>
    <g id="xtick_30">
     <g id="line2d_30">
      <g>
       <use style="stroke:#000000;stroke-width:0.6;" x="249.634021" xlink:href="#m82d5fddcb5" y="315"/>
      </g>
     </g>
    </g>
    <g id="xtick_31">
     <g id="line2d_31">
      <g>
       <use style="stroke:#000000;stroke-width:0.6;" x="259.701031" xlink:href="#m82d5fddcb5" y="315"/>
      </g>
     </g>
    </g>
    <g id="xtick_32">
     <g id="line2d_32">
      <g>
       <use style="stroke:#000000;stroke-width:0.6;" x="269.768041" xlink:href="#m82d5fddcb5" y="315"/>
      </g>
     </g>
    </g>
    <g id="xtick_33">
     <g id="line2d_33">
      <g>
       <use style="stroke:#000000;stroke-width:0.6;" x="279.835052" xlink:href="#m82d5fddcb5" y="315"/>
      </g>
     </g>
    </g>
    <g id="xtick_34">
     <g id="line2d_34">
      <g>
       <use style="stroke:#000000;stroke-width:0.6;" x="289.902062" xlink:href="#m82d5fddcb5" y="315"/>
      </g>
     </g>
    </g>
    <g id="xtick_35">
     <g id="line2d_35">
      <g>
       <use style="stroke:#000000;stroke-width:0.6;" x="299.969072" xlink:href="#m82d5fddcb5" y="315"/>
      </g>
     </g>
    </g>
    <g id="xtick_36">
     <g id="line2d_36">
      <g>
       <use style="stroke:#000000;stroke-width:0.6;" x="310.036082" xlink:href="#m82d5fddcb5" y="315"/>
      </g>
     </g>
    </g>
    <g id="xtick_37">
     <g id="line2d_37">
      <g>
       <use style="stroke:#000000;stroke-width:0.6;" x="320.103093" xlink:href="#m82d5fddcb5" y="315"/>
      </g>
     </g>
    </g>
    <g id="xtick_38">
     <g id="line2d_38">
      <g>
       <use style="stroke:#000000;stroke-width:0.6;" x="330.170103" xlink:href="#m82d5fddcb5" y="315"/>
      </g>
     </g>
    </g>
    <g id="xtick_39">
     <g id="line2d_39">
      <g>
       <use style="stroke:#000000;stroke-width:0.6;" x="340.237113" xlink:href="#m82d5fddcb5" y="315"/>
      </g>
     </g>
    </g>
    <g id="xtick_40">
     <g id="line2d_40">
      <g>
       <use style="stroke:#000000;stroke-width:0.6;" x="350.304124" xlink:href="#m82d5fddcb5" y="315"/>
      </g>
     </g>
    </g>
    <g id="xtick_41">
     <g id="line2d_41">
      <g>
       <use style="stroke:#000000;stroke-width:0.6;" x="360.371134" xlink:href="#m82d5fddcb5" y="315"/>
      </g>
     </g>
    </g>
    <g id="xtick_42">
     <g id="line2d_42">
      <g>
       <use style="stroke:#000000;stroke-width:0.6;" x="370.438144" xlink:href="#m82d5fddcb5" y="315"/>
      </g>
     </g>
    </g>
    <g id="xtick_43">
     <g id="line2d_43">
      <g>
       <use style="stroke:#000000;stroke-width:0.6;" x="380.505155" xlink:href="#m82d5fddcb5" y="315"/>
      </g>
     </g>
    </g>
    <g id="xtick_44">
     <g id="line2d_44">
      <g>
       <use style="stroke:#000000;stroke-width:0.6;" x="390.572165" xlink:href="#m82d5fddcb5" y="315"/>
      </g>
     </g>
    </g>
    <g id="xtick_45">
     <g id="line2d_45">
      <g>
       <use style="stroke:#000000;stroke-width:0.6;" x="400.639175" xlink:href="#m82d5fddcb5" y="315"/>
      </g>
     </g>
    </g>
    <g id="xtick_46">
     <g id="line2d_46">
      <g>
       <use style="stroke:#000000;stroke-width:0.6;" x="410.706186" xlink:href="#m82d5fddcb5" y="315"/>
      </g>
     </g>
    </g>
    <g id="xtick_47">
     <g id="line2d_47">
      <g>
       <use style="stroke:#000000;stroke-width:0.6;" x="420.773196" xlink:href="#m82d5fddcb5" y="315"/>
      </g>
     </g>
    </g>
    <g id="xtick_48">
     <g id="line2d_48">
      <g>
       <use style="stroke:#000000;stroke-width:0.6;" x="430.840206" xlink:href="#m82d5fddcb5" y="315"/>
      </g>
     </g>
    </g>
    <g id="xtick_49">
     <g id="line2d_49">
      <g>
       <use style="stroke:#000000;stroke-width:0.6;" x="440.907216" xlink:href="#m82d5fddcb5" y="315"/>
      </g>
     </g>
    </g>
    <g id="xtick_50">
     <g id="line2d_50">
      <g>
       <use style="stroke:#000000;stroke-width:0.6;" x="450.974227" xlink:href="#m82d5fddcb5" y="315"/>
      </g>
     </g>
    </g>
    <g id="xtick_51">
     <g id="line2d_51">
      <g>
       <use style="stroke:#000000;stroke-width:0.6;" x="461.041237" xlink:href="#m82d5fddcb5" y="315"/>
      </g>
     </g>
    </g>
    <g id="xtick_52">
     <g id="line2d_52">
      <g>
       <use style="stroke:#000000;stroke-width:0.6;" x="471.108247" xlink:href="#m82d5fddcb5" y="315"/>
      </g>
     </g>
    </g>
    <g id="xtick_53">
     <g id="line2d_53">
      <g>
       <use style="stroke:#000000;stroke-width:0.6;" x="481.175258" xlink:href="#m82d5fddcb5" y="315"/>
      </g>
     </g>
    </g>
    <g id="xtick_54">
     <g id="line2d_54">
      <g>
       <use style="stroke:#000000;stroke-width:0.6;" x="491.242268" xlink:href="#m82d5fddcb5" y="315"/>
      </g>
     </g>
    </g>
    <g id="xtick_55">
     <g id="line2d_55">
      <g>
       <use style="stroke:#000000;stroke-width:0.6;" x="501.309278" xlink:href="#m82d5fddcb5" y="315"/>
      </g>
     </g>
    </g>
    <g id="xtick_56">
     <g id="line2d_56">
      <g>
       <use style="stroke:#000000;stroke-width:0.6;" x="511.376289" xlink:href="#m82d5fddcb5" y="315"/>
      </g>
     </g>
    </g>
    <g id="xtick_57">
     <g id="line2d_57">
      <g>
       <use style="stroke:#000000;stroke-width:0.6;" x="521.443299" xlink:href="#m82d5fddcb5" y="315"/>
      </g>
     </g>
    </g>
    <g id="xtick_58">
     <g id="line2d_58">
      <g>
       <use style="stroke:#000000;stroke-width:0.6;" x="531.510309" xlink:href="#m82d5fddcb5" y="315"/>
      </g>
     </g>
    </g>
    <g id="xtick_59">
     <g id="line2d_59">
      <g>
       <use style="stroke:#000000;stroke-width:0.6;" x="541.57732" xlink:href="#m82d5fddcb5" y="315"/>
      </g>
     </g>
    </g>
    <g id="xtick_60">
     <g id="line2d_60">
      <g>
       <use style="stroke:#000000;stroke-width:0.6;" x="551.64433" xlink:href="#m82d5fddcb5" y="315"/>
      </g>
     </g>
    </g>
    <g id="xtick_61">
     <g id="line2d_61">
      <g>
       <use style="stroke:#000000;stroke-width:0.6;" x="571.778351" xlink:href="#m82d5fddcb5" y="315"/>
      </g>
     </g>
    </g>
    <g id="xtick_62">
     <g id="line2d_62">
      <g>
       <use style="stroke:#000000;stroke-width:0.6;" x="581.845361" xlink:href="#m82d5fddcb5" y="315"/>
      </g>
     </g>
    </g>
    <g id="xtick_63">
     <g id="line2d_63">
      <g>
       <use style="stroke:#000000;stroke-width:0.6;" x="591.912371" xlink:href="#m82d5fddcb5" y="315"/>
      </g>
     </g>
    </g>
    <g id="xtick_64">
     <g id="line2d_64">
      <g>
       <use style="stroke:#000000;stroke-width:0.6;" x="612.046392" xlink:href="#m82d5fddcb5" y="315"/>
      </g>
     </g>
    </g>
    <g id="xtick_65">
     <g id="line2d_65">
      <g>
       <use style="stroke:#000000;stroke-width:0.6;" x="622.113402" xlink:href="#m82d5fddcb5" y="315"/>
      </g>
     </g>
    </g>
    <g id="xtick_66">
     <g id="line2d_66">
      <g>
       <use style="stroke:#000000;stroke-width:0.6;" x="632.180412" xlink:href="#m82d5fddcb5" y="315"/>
      </g>
     </g>
    </g>
    <g id="xtick_67">
     <g id="line2d_67">
      <g>
       <use style="stroke:#000000;stroke-width:0.6;" x="642.247423" xlink:href="#m82d5fddcb5" y="315"/>
      </g>
     </g>
    </g>
    <g id="text_14">
     <!-- date -->
     <g transform="translate(357.725 354.474375)scale(0.1 -0.1)">
      <defs>
       <path d="M 45.40625 46.390625 
L 45.40625 75.984375 
L 54.390625 75.984375 
L 54.390625 0 
L 45.40625 0 
L 45.40625 8.203125 
Q 42.578125 3.328125 38.25 0.953125 
Q 33.9375 -1.421875 27.875 -1.421875 
Q 17.96875 -1.421875 11.734375 6.484375 
Q 5.515625 14.40625 5.515625 27.296875 
Q 5.515625 40.1875 11.734375 48.09375 
Q 17.96875 56 27.875 56 
Q 33.9375 56 38.25 53.625 
Q 42.578125 51.265625 45.40625 46.390625 
z
M 14.796875 27.296875 
Q 14.796875 17.390625 18.875 11.75 
Q 22.953125 6.109375 30.078125 6.109375 
Q 37.203125 6.109375 41.296875 11.75 
Q 45.40625 17.390625 45.40625 27.296875 
Q 45.40625 37.203125 41.296875 42.84375 
Q 37.203125 48.484375 30.078125 48.484375 
Q 22.953125 48.484375 18.875 42.84375 
Q 14.796875 37.203125 14.796875 27.296875 
z
" id="DejaVuSans-100"/>
      </defs>
      <use xlink:href="#DejaVuSans-100"/>
      <use x="63.476562" xlink:href="#DejaVuSans-97"/>
      <use x="124.755859" xlink:href="#DejaVuSans-116"/>
      <use x="163.964844" xlink:href="#DejaVuSans-101"/>
     </g>
    </g>
   </g>
   <g id="matplotlib.axis_2">
    <g id="ytick_1">
     <g id="line2d_68">
      <defs>
       <path d="M 0 0 
L -3.5 0 
" id="m71e88c7f2c" style="stroke:#000000;stroke-width:0.8;"/>
      </defs>
      <g>
       <use style="stroke:#000000;stroke-width:0.8;" x="90" xlink:href="#m71e88c7f2c" y="250.492178"/>
      </g>
     </g>
     <g id="text_15">
      <!-- $\mathdefault{10^{0}}$ -->
      <g transform="translate(65.4 254.291396)scale(0.1 -0.1)">
       <use transform="translate(0 0.765625)" xlink:href="#DejaVuSans-49"/>
       <use transform="translate(63.623047 0.765625)" xlink:href="#DejaVuSans-48"/>
       <use transform="translate(128.203125 39.046875)scale(0.7)" xlink:href="#DejaVuSans-48"/>
      </g>
     </g>
    </g>
    <g id="ytick_2">
     <g id="line2d_69">
      <g>
       <use style="stroke:#000000;stroke-width:0.8;" x="90" xlink:href="#m71e88c7f2c" y="176.74861"/>
      </g>
     </g>
     <g id="text_16">
      <!-- $\mathdefault{10^{1}}$ -->
      <g transform="translate(65.4 180.547828)scale(0.1 -0.1)">
       <use transform="translate(0 0.684375)" xlink:href="#DejaVuSans-49"/>
       <use transform="translate(63.623047 0.684375)" xlink:href="#DejaVuSans-48"/>
       <use transform="translate(128.203125 38.965625)scale(0.7)" xlink:href="#DejaVuSans-49"/>
      </g>
     </g>
    </g>
    <g id="ytick_3">
     <g id="line2d_70">
      <g>
       <use style="stroke:#000000;stroke-width:0.8;" x="90" xlink:href="#m71e88c7f2c" y="103.005042"/>
      </g>
     </g>
     <g id="text_17">
      <!-- $\mathdefault{10^{2}}$ -->
      <g transform="translate(65.4 106.80426)scale(0.1 -0.1)">
       <use transform="translate(0 0.765625)" xlink:href="#DejaVuSans-49"/>
       <use transform="translate(63.623047 0.765625)" xlink:href="#DejaVuSans-48"/>
       <use transform="translate(128.203125 39.046875)scale(0.7)" xlink:href="#DejaVuSans-50"/>
      </g>
     </g>
    </g>
    <g id="ytick_4">
     <g id="line2d_71">
      <defs>
       <path d="M 0 0 
L -2 0 
" id="m084f725474" style="stroke:#000000;stroke-width:0.6;"/>
      </defs>
      <g>
       <use style="stroke:#000000;stroke-width:0.6;" x="90" xlink:href="#m084f725474" y="302.03672"/>
      </g>
     </g>
    </g>
    <g id="ytick_5">
     <g id="line2d_72">
      <g>
       <use style="stroke:#000000;stroke-width:0.6;" x="90" xlink:href="#m084f725474" y="289.051122"/>
      </g>
     </g>
    </g>
    <g id="ytick_6">
     <g id="line2d_73">
      <g>
       <use style="stroke:#000000;stroke-width:0.6;" x="90" xlink:href="#m084f725474" y="279.837694"/>
      </g>
     </g>
    </g>
    <g id="ytick_7">
     <g id="line2d_74">
      <g>
       <use style="stroke:#000000;stroke-width:0.6;" x="90" xlink:href="#m084f725474" y="272.691204"/>
      </g>
     </g>
    </g>
    <g id="ytick_8">
     <g id="line2d_75">
      <g>
       <use style="stroke:#000000;stroke-width:0.6;" x="90" xlink:href="#m084f725474" y="266.852096"/>
      </g>
     </g>
    </g>
    <g id="ytick_9">
     <g id="line2d_76">
      <g>
       <use style="stroke:#000000;stroke-width:0.6;" x="90" xlink:href="#m084f725474" y="261.915201"/>
      </g>
     </g>
    </g>
    <g id="ytick_10">
     <g id="line2d_77">
      <g>
       <use style="stroke:#000000;stroke-width:0.6;" x="90" xlink:href="#m084f725474" y="257.638668"/>
      </g>
     </g>
    </g>
    <g id="ytick_11">
     <g id="line2d_78">
      <g>
       <use style="stroke:#000000;stroke-width:0.6;" x="90" xlink:href="#m084f725474" y="253.866498"/>
      </g>
     </g>
    </g>
    <g id="ytick_12">
     <g id="line2d_79">
      <g>
       <use style="stroke:#000000;stroke-width:0.6;" x="90" xlink:href="#m084f725474" y="228.293152"/>
      </g>
     </g>
    </g>
    <g id="ytick_13">
     <g id="line2d_80">
      <g>
       <use style="stroke:#000000;stroke-width:0.6;" x="90" xlink:href="#m084f725474" y="215.307554"/>
      </g>
     </g>
    </g>
    <g id="ytick_14">
     <g id="line2d_81">
      <g>
       <use style="stroke:#000000;stroke-width:0.6;" x="90" xlink:href="#m084f725474" y="206.094126"/>
      </g>
     </g>
    </g>
    <g id="ytick_15">
     <g id="line2d_82">
      <g>
       <use style="stroke:#000000;stroke-width:0.6;" x="90" xlink:href="#m084f725474" y="198.947636"/>
      </g>
     </g>
    </g>
    <g id="ytick_16">
     <g id="line2d_83">
      <g>
       <use style="stroke:#000000;stroke-width:0.6;" x="90" xlink:href="#m084f725474" y="193.108528"/>
      </g>
     </g>
    </g>
    <g id="ytick_17">
     <g id="line2d_84">
      <g>
       <use style="stroke:#000000;stroke-width:0.6;" x="90" xlink:href="#m084f725474" y="188.171633"/>
      </g>
     </g>
    </g>
    <g id="ytick_18">
     <g id="line2d_85">
      <g>
       <use style="stroke:#000000;stroke-width:0.6;" x="90" xlink:href="#m084f725474" y="183.8951"/>
      </g>
     </g>
    </g>
    <g id="ytick_19">
     <g id="line2d_86">
      <g>
       <use style="stroke:#000000;stroke-width:0.6;" x="90" xlink:href="#m084f725474" y="180.12293"/>
      </g>
     </g>
    </g>
    <g id="ytick_20">
     <g id="line2d_87">
      <g>
       <use style="stroke:#000000;stroke-width:0.6;" x="90" xlink:href="#m084f725474" y="154.549584"/>
      </g>
     </g>
    </g>
    <g id="ytick_21">
     <g id="line2d_88">
      <g>
       <use style="stroke:#000000;stroke-width:0.6;" x="90" xlink:href="#m084f725474" y="141.563986"/>
      </g>
     </g>
    </g>
    <g id="ytick_22">
     <g id="line2d_89">
      <g>
       <use style="stroke:#000000;stroke-width:0.6;" x="90" xlink:href="#m084f725474" y="132.350558"/>
      </g>
     </g>
    </g>
    <g id="ytick_23">
     <g id="line2d_90">
      <g>
       <use style="stroke:#000000;stroke-width:0.6;" x="90" xlink:href="#m084f725474" y="125.204068"/>
      </g>
     </g>
    </g>
    <g id="ytick_24">
     <g id="line2d_91">
      <g>
       <use style="stroke:#000000;stroke-width:0.6;" x="90" xlink:href="#m084f725474" y="119.36496"/>
      </g>
     </g>
    </g>
    <g id="ytick_25">
     <g id="line2d_92">
      <g>
       <use style="stroke:#000000;stroke-width:0.6;" x="90" xlink:href="#m084f725474" y="114.428065"/>
      </g>
     </g>
    </g>
    <g id="ytick_26">
     <g id="line2d_93">
      <g>
       <use style="stroke:#000000;stroke-width:0.6;" x="90" xlink:href="#m084f725474" y="110.151532"/>
      </g>
     </g>
    </g>
    <g id="ytick_27">
     <g id="line2d_94">
      <g>
       <use style="stroke:#000000;stroke-width:0.6;" x="90" xlink:href="#m084f725474" y="106.379362"/>
      </g>
     </g>
    </g>
    <g id="ytick_28">
     <g id="line2d_95">
      <g>
       <use style="stroke:#000000;stroke-width:0.6;" x="90" xlink:href="#m084f725474" y="80.806016"/>
      </g>
     </g>
    </g>
    <g id="ytick_29">
     <g id="line2d_96">
      <g>
       <use style="stroke:#000000;stroke-width:0.6;" x="90" xlink:href="#m084f725474" y="67.820418"/>
      </g>
     </g>
    </g>
    <g id="ytick_30">
     <g id="line2d_97">
      <g>
       <use style="stroke:#000000;stroke-width:0.6;" x="90" xlink:href="#m084f725474" y="58.60699"/>
      </g>
     </g>
    </g>
    <g id="ytick_31">
     <g id="line2d_98">
      <g>
       <use style="stroke:#000000;stroke-width:0.6;" x="90" xlink:href="#m084f725474" y="51.4605"/>
      </g>
     </g>
    </g>
    <g id="ytick_32">
     <g id="line2d_99">
      <g>
       <use style="stroke:#000000;stroke-width:0.6;" x="90" xlink:href="#m084f725474" y="45.621392"/>
      </g>
     </g>
    </g>
   </g>
   <g id="line2d_100">
    <path clip-path="url(#p958134cf3c)" d="M 94.312124 361 
L 94.314433 242.570118 
L 95.752577 228.454282 
L 97.190722 222.297019 
L 98.628866 217.888207 
L 100.06701 213.021476 
L 101.505155 209.772419 
L 102.943299 205.639264 
L 104.381443 203.611021 
L 105.819588 201.191294 
L 107.257732 198.26462 
L 108.695876 196.286737 
L 113.010309 189.469863 
L 118.762887 182.109231 
L 121.639175 178.99432 
L 123.07732 177.690364 
L 124.515464 176.585136 
L 125.953608 175.645065 
L 127.391753 174.850272 
L 128.829897 174.270989 
L 130.268041 173.881235 
L 131.706186 173.728513 
L 133.14433 173.75708 
L 134.582474 174.008721 
L 136.020619 174.458944 
L 137.458763 175.13623 
L 138.896907 176.008706 
L 140.335052 177.098059 
L 141.773196 178.379801 
L 143.21134 179.865803 
L 144.649485 181.529688 
L 147.525773 185.373996 
L 150.402062 189.896285 
L 153.278351 194.944103 
L 156.154639 200.473348 
L 160.469072 209.378443 
L 176.28866 243.130355 
L 179.164948 248.600703 
L 182.041237 253.807857 
L 184.917526 258.455676 
L 187.793814 262.568802 
L 190.670103 266.055267 
L 192.108247 267.541436 
L 193.546392 268.844301 
L 194.984536 269.955427 
L 196.42268 270.866118 
L 197.860825 271.567798 
L 199.298969 272.052074 
L 200.737113 272.311995 
L 202.175258 272.342844 
L 203.613402 272.140544 
L 205.051546 271.701652 
L 206.489691 271.023918 
L 207.927835 270.106902 
L 209.365979 268.950038 
L 210.804124 267.551041 
L 212.242268 265.906763 
L 213.680412 264.017102 
L 215.118557 261.884389 
L 216.556701 259.512078 
L 217.994845 256.90415 
L 220.871134 250.999381 
L 223.747423 244.223597 
L 226.623711 236.659826 
L 229.5 228.423268 
L 232.376289 219.625751 
L 236.690722 205.615381 
L 243.881443 181.15125 
L 249.634021 161.829826 
L 252.510309 152.771962 
L 255.386598 144.405659 
L 258.262887 136.936621 
L 259.701031 133.594165 
L 261.139175 130.53511 
L 262.57732 127.770983 
L 264.015464 125.31075 
L 265.453608 123.159782 
L 266.891753 121.319245 
L 268.329897 119.786643 
L 269.768041 118.557112 
L 271.206186 117.623654 
L 272.64433 116.976306 
L 274.082474 116.601791 
L 275.520619 116.484187 
L 276.958763 116.606363 
L 278.396907 116.950819 
L 279.835052 117.500254 
L 281.273196 118.237588 
L 282.71134 119.145569 
L 285.587629 121.404183 
L 288.463918 124.140751 
L 291.340206 127.23578 
L 295.654639 132.313168 
L 304.283505 142.674633 
L 307.159794 145.795049 
L 310.036082 148.57034 
L 312.912371 150.90788 
L 314.350515 151.882777 
L 315.78866 152.7105 
L 317.226804 153.37812 
L 318.664948 153.873629 
L 320.103093 154.186418 
L 321.541237 154.308208 
L 322.979381 154.234017 
L 324.417526 153.961455 
L 325.85567 153.490539 
L 327.293814 152.824777 
L 328.731959 151.971293 
L 330.170103 150.939466 
L 331.608247 149.739745 
L 334.484536 146.879296 
L 337.360825 143.468789 
L 340.237113 139.594034 
L 343.113402 135.355412 
L 347.427835 128.520668 
L 358.93299 109.751155 
L 361.809278 105.46604 
L 364.685567 101.591124 
L 367.561856 98.260467 
L 369 96.843045 
L 370.438144 95.613109 
L 371.876289 94.584038 
L 373.314433 93.767665 
L 374.752577 93.174134 
L 376.190722 92.811595 
L 377.628866 92.685253 
L 379.06701 92.797174 
L 380.505155 93.146833 
L 381.943299 93.731532 
L 383.381443 94.546781 
L 384.819588 95.58703 
L 386.257732 96.845479 
L 387.695876 98.313376 
L 389.134021 99.97996 
L 392.010309 103.862102 
L 394.886598 108.397952 
L 397.762887 113.488278 
L 400.639175 119.031658 
L 404.953608 127.970387 
L 420.773196 161.755957 
L 423.649485 167.235616 
L 426.525773 172.310208 
L 429.402062 176.907625 
L 432.278351 180.956299 
L 435.154639 184.391045 
L 436.592784 185.862246 
L 438.030928 187.162649 
L 439.469072 188.288744 
L 440.907216 189.238474 
L 442.345361 190.011158 
L 443.783505 190.607054 
L 445.221649 191.027503 
L 446.659794 191.275288 
L 448.097938 191.355034 
L 449.536082 191.272412 
L 450.974227 191.034626 
L 452.412371 190.650491 
L 453.850515 190.129335 
L 456.726804 188.709213 
L 459.603093 186.836822 
L 462.479381 184.567045 
L 465.35567 181.955569 
L 468.231959 179.036743 
L 471.108247 175.819341 
L 473.984536 172.283993 
L 476.860825 168.376661 
L 479.737113 164.023623 
L 482.613402 159.142928 
L 485.489691 153.66439 
L 488.365979 147.566913 
L 491.242268 140.9173 
L 495.556701 130.248937 
L 501.309278 115.865574 
L 505.623711 105.792396 
L 508.5 99.621146 
L 511.376289 93.97467 
L 514.252577 88.909755 
L 517.128866 84.468426 
L 520.005155 80.696387 
L 521.443299 79.072932 
L 522.881443 77.627835 
L 524.319588 76.361402 
L 525.757732 75.271962 
L 527.195876 74.35724 
L 528.634021 73.61416 
L 530.072165 73.039468 
L 531.510309 72.630879 
L 532.948454 72.385809 
L 534.386598 72.300267 
L 535.824742 72.368934 
L 537.262887 72.585239 
L 538.701031 72.942516 
L 540.139175 73.433917 
L 543.015464 74.787999 
L 545.891753 76.580424 
L 548.768041 78.742791 
L 551.64433 81.217262 
L 554.520619 83.954386 
L 558.835052 88.469721 
L 563.149485 93.38054 
L 568.902062 100.305776 
L 577.530928 110.76293 
L 581.845361 115.638176 
L 586.159794 120.087913 
L 590.474227 124.094833 
L 594.78866 127.763761 
L 601.979381 133.747028 
L 604.85567 136.341804 
L 607.731959 139.166486 
L 610.608247 142.270819 
L 613.484536 145.686432 
L 616.360825 149.420587 
L 619.237113 153.455125 
L 623.551546 159.999896 
L 627.865979 167.001459 
L 633.618557 176.771027 
L 646.561856 198.956912 
L 648 201.312247 
L 648 201.312247 
" style="fill:none;stroke:#008000;stroke-linecap:square;stroke-width:1.5;"/>
   </g>
   <g id="line2d_101">
    <path clip-path="url(#p958134cf3c)" d="M 90 154.265518 
L 91.438144 302.645455 
L 92.876289 217.722089 
L 94.314433 197.203726 
L 95.752577 194.788656 
L 97.190722 194.7057 
L 98.628866 193.030673 
L 101.505155 188.573716 
L 105.819588 182.456014 
L 108.695876 178.800257 
L 111.572165 175.660714 
L 113.010309 174.356512 
L 114.448454 173.255338 
L 115.886598 172.373258 
L 117.324742 171.72457 
L 118.762887 171.362943 
L 120.201031 171.167598 
L 121.639175 171.232341 
L 123.07732 171.56128 
L 124.515464 172.148485 
L 125.953608 172.998937 
L 127.391753 174.119258 
L 128.829897 175.506393 
L 130.268041 177.144948 
L 131.706186 179.024861 
L 133.14433 181.143647 
L 134.582474 183.49158 
L 137.458763 188.832637 
L 140.335052 194.914223 
L 143.21134 201.603989 
L 147.525773 212.435112 
L 157.592784 238.464785 
L 160.469072 245.417314 
L 163.345361 251.928726 
L 166.221649 257.905626 
L 169.097938 263.296501 
L 171.974227 268.011069 
L 173.412371 270.056139 
L 174.850515 271.894818 
L 176.28866 273.519496 
L 177.726804 274.912928 
L 179.164948 276.085995 
L 180.603093 277.052824 
L 182.041237 277.809967 
L 183.479381 278.35092 
L 184.917526 278.673764 
L 186.35567 278.78013 
L 187.793814 278.678576 
L 189.231959 278.372269 
L 190.670103 277.863691 
L 192.108247 277.144907 
L 193.546392 276.20862 
L 194.984536 275.06063 
L 196.42268 273.719105 
L 197.860825 272.192512 
L 199.298969 270.472654 
L 200.737113 268.558305 
L 203.613402 264.175806 
L 205.051546 261.70404 
L 207.927835 256.100729 
L 210.804124 249.735426 
L 213.680412 242.641967 
L 216.556701 234.830643 
L 219.43299 226.388552 
L 223.747423 212.809094 
L 228.061856 198.392849 
L 242.443299 149.170474 
L 245.319588 140.351835 
L 248.195876 132.462304 
L 249.634021 128.923606 
L 251.072165 125.706669 
L 252.510309 122.834983 
L 253.948454 120.324155 
L 255.386598 118.188122 
L 256.824742 116.423046 
L 258.262887 115.031497 
L 259.701031 114.023089 
L 261.139175 113.385131 
L 262.57732 113.096806 
L 264.015464 113.139829 
L 265.453608 113.504672 
L 266.891753 114.171181 
L 268.329897 115.10024 
L 269.768041 116.252186 
L 271.206186 117.59024 
L 274.082474 120.733074 
L 276.958763 124.370525 
L 281.273196 130.326491 
L 291.340206 144.445082 
L 294.216495 147.988681 
L 297.092784 151.116572 
L 299.969072 153.740853 
L 301.407216 154.805315 
L 302.845361 155.69241 
L 304.283505 156.416448 
L 305.721649 156.976115 
L 307.159794 157.364051 
L 308.597938 157.559162 
L 310.036082 157.526967 
L 311.474227 157.266312 
L 312.912371 156.789236 
L 314.350515 156.096498 
L 315.78866 155.195727 
L 317.226804 154.10345 
L 318.664948 152.843443 
L 321.541237 149.83412 
L 324.417526 146.307117 
L 327.293814 142.378052 
L 330.170103 138.091379 
L 334.484536 131.067765 
L 340.237113 121.22319 
L 345.989691 111.381028 
L 350.304124 104.429409 
L 353.180412 100.16336 
L 356.056701 96.420097 
L 357.494845 94.810411 
L 358.93299 93.382997 
L 360.371134 92.166195 
L 361.809278 91.182294 
L 363.247423 90.457311 
L 364.685567 90.020898 
L 366.123711 89.874564 
L 367.561856 90.015448 
L 369 90.460856 
L 370.438144 91.217893 
L 371.876289 92.286833 
L 373.314433 93.649755 
L 374.752577 95.293429 
L 376.190722 97.206967 
L 377.628866 99.37269 
L 379.06701 101.779126 
L 381.943299 107.271853 
L 384.819588 113.467717 
L 387.695876 120.195546 
L 392.010309 131.020514 
L 403.515464 160.607335 
L 406.391753 167.363094 
L 409.268041 173.614876 
L 412.14433 179.220944 
L 415.020619 184.141181 
L 417.896907 188.340122 
L 419.335052 190.134899 
L 420.773196 191.715075 
L 422.21134 193.083282 
L 423.649485 194.239772 
L 425.087629 195.182935 
L 426.525773 195.913864 
L 427.963918 196.441857 
L 429.402062 196.782286 
L 430.840206 196.953016 
L 432.278351 196.952723 
L 433.716495 196.788733 
L 435.154639 196.472801 
L 436.592784 196.017946 
L 438.030928 195.431859 
L 440.907216 193.870971 
L 443.783505 191.878216 
L 446.659794 189.533336 
L 449.536082 186.934968 
L 452.412371 184.078278 
L 455.28866 180.990171 
L 459.603093 176.001223 
L 462.479381 172.429948 
L 465.35567 168.592071 
L 468.231959 164.413741 
L 471.108247 159.766625 
L 473.984536 154.561247 
L 476.860825 148.711797 
L 479.737113 142.191697 
L 482.613402 135.073293 
L 494.118557 105.390395 
L 496.994845 98.861653 
L 499.871134 92.8458 
L 502.747423 87.424683 
L 505.623711 82.673591 
L 508.5 78.637837 
L 509.938144 76.88639 
L 511.376289 75.329516 
L 512.814433 73.97643 
L 514.252577 72.838579 
L 515.690722 71.913367 
L 517.128866 71.189227 
L 518.56701 70.668692 
L 520.005155 70.335787 
L 521.443299 70.17924 
L 522.881443 70.201496 
L 524.319588 70.392248 
L 525.757732 70.75343 
L 527.195876 71.29534 
L 528.634021 72.004448 
L 531.510309 73.842601 
L 534.386598 76.155166 
L 537.262887 78.873271 
L 540.139175 81.880397 
L 544.453608 86.766503 
L 548.768041 92.0544 
L 553.082474 97.675474 
L 563.149485 111.18252 
L 567.463918 116.600132 
L 570.340206 119.896171 
L 573.216495 122.890275 
L 576.092784 125.556456 
L 578.969072 127.924163 
L 583.283505 131.126468 
L 590.474227 136.368587 
L 593.350515 138.800189 
L 596.226804 141.570878 
L 599.103093 144.798709 
L 601.979381 148.485203 
L 604.85567 152.610484 
L 607.731959 157.172092 
L 612.046392 164.639849 
L 616.360825 172.57137 
L 632.180412 202.064899 
L 636.494845 209.476085 
L 639.371134 214.052085 
L 642.247423 218.335642 
L 645.123711 222.280765 
L 648 225.826639 
L 648 225.826639 
" style="fill:none;stroke:#0000ff;stroke-linecap:square;stroke-width:1.5;"/>
   </g>
   <g id="line2d_102">
    <path clip-path="url(#p958134cf3c)" d="M 104.378603 361 
L 104.381443 215.307554 
L 105.819588 206.094126 
L 107.257732 215.307554 
L 107.260572 361 
M 110.13057 361 
L 110.134021 183.8951 
L 111.572165 215.307554 
L 113.010309 193.108528 
L 114.448454 198.947636 
L 115.886598 180.12293 
L 117.324742 250.492178 
L 118.762887 183.8951 
L 120.201031 173.696165 
L 121.639175 180.12293 
L 123.07732 159.754484 
L 124.515464 151.497139 
L 125.953608 170.909502 
L 127.391753 183.8951 
L 128.829897 215.307554 
L 128.832737 361 
M 131.703598 361 
L 131.706186 228.293152 
L 133.14433 165.972607 
L 134.582474 144.938307 
L 136.020619 206.094126 
L 137.458763 159.754484 
L 138.896907 168.34602 
L 140.335052 165.972607 
L 141.773196 159.754484 
L 143.21134 198.947636 
L 144.649485 180.12293 
L 146.087629 193.108528 
L 147.525773 176.74861 
L 148.963918 215.307554 
L 150.402062 176.74861 
L 151.840206 173.696165 
L 153.278351 168.34602 
L 154.716495 173.696165 
L 156.154639 188.171633 
L 157.592784 250.492178 
L 159.030928 250.492178 
L 160.469072 228.293152 
L 161.907216 250.492178 
L 163.345361 206.094126 
L 164.783505 250.492178 
L 166.221649 228.293152 
L 166.224237 361 
M 170.533927 361 
L 170.536082 250.492178 
L 171.974227 180.12293 
L 171.977751 361 
M 176.286505 361 
L 176.28866 250.492178 
L 176.290815 361 
M 179.162793 361 
L 179.164948 250.492178 
L 179.167104 361 
M 192.106092 361 
L 192.108247 250.492178 
L 192.110403 361 
M 197.85867 361 
L 197.860825 250.492178 
L 199.298969 250.492178 
L 199.301124 361 
M 203.610815 361 
L 203.613402 228.293152 
L 203.615989 361 
M 206.487536 361 
L 206.489691 250.492178 
L 206.491846 361 
M 209.36296 361 
L 209.365979 206.094126 
L 210.804124 250.492178 
L 210.806279 361 
M 222.306691 361 
L 222.309278 228.293152 
L 222.311866 361 
M 225.183412 361 
L 225.185567 250.492178 
L 226.623711 250.492178 
L 228.061856 215.307554 
L 229.5 228.293152 
L 230.938144 228.293152 
L 232.376289 193.108528 
L 233.814433 250.492178 
L 235.252577 198.947636 
L 236.690722 250.492178 
L 238.128866 250.492178 
L 239.56701 168.34602 
L 241.005155 193.108528 
L 242.443299 198.947636 
L 243.881443 188.171633 
L 245.319588 206.094126 
L 246.757732 206.094126 
L 248.195876 180.12293 
L 249.634021 163.763012 
L 251.072165 141.563986 
L 252.510309 147.403094 
L 253.948454 165.972607 
L 255.386598 137.555458 
L 256.824742 143.773581 
L 258.262887 161.696074 
L 259.701031 130.034386 
L 261.139175 125.204068 
L 262.57732 127.874482 
L 264.015464 116.801478 
L 265.453608 116.801478 
L 266.891753 116.312516 
L 268.329897 116.312516 
L 269.768041 109.753683 
L 271.206186 110.151532 
L 272.64433 96.375118 
L 274.082474 118.314819 
L 275.520619 102.686368 
L 276.958763 119.903232 
L 278.396907 141.563986 
L 279.835052 114.428065 
L 281.273196 101.748942 
L 282.71134 129.298113 
L 284.149485 137.555458 
L 285.587629 120.450706 
L 287.025773 144.938307 
L 288.463918 148.710476 
L 289.902062 126.51145 
L 291.340206 123.337923 
L 292.778351 127.874482 
L 294.216495 117.298022 
L 295.654639 128.578388 
L 297.092784 193.108528 
L 298.530928 173.696165 
L 299.969072 125.204068 
L 301.407216 128.578388 
L 302.845361 140.513845 
L 304.283505 137.555458 
L 305.721649 157.923904 
L 307.159794 165.972607 
L 308.597938 170.909502 
L 310.036082 146.146994 
L 311.474227 130.787983 
L 312.912371 152.987009 
L 314.350515 152.987009 
L 315.78866 144.938307 
L 317.226804 183.8951 
L 318.664948 173.696165 
L 320.103093 156.192325 
L 321.541237 163.763012 
L 322.979381 154.549584 
L 324.417526 168.34602 
L 325.85567 165.972607 
L 327.293814 206.094126 
L 330.170103 131.559742 
L 331.608247 130.787983 
L 333.046392 147.403094 
L 334.484536 137.555458 
L 335.92268 141.563986 
L 337.360825 215.307554 
L 338.798969 180.12293 
L 340.237113 137.555458 
L 341.675258 133.161397 
L 343.113402 119.903232 
L 344.551546 129.298113 
L 345.989691 129.298113 
L 347.427835 168.34602 
L 348.865979 125.204068 
L 350.304124 118.835586 
L 351.742268 122.739281 
L 353.180412 107.83536 
L 354.618557 119.36496 
L 356.056701 111.375621 
L 357.494845 130.787983 
L 358.93299 147.403094 
L 360.371134 114.888885 
L 361.809278 101.442467 
L 363.247423 99.375529 
L 364.685567 103.980541 
L 366.123711 91.774756 
L 367.561856 115.356432 
L 369 168.34602 
L 370.438144 127.185716 
L 371.876289 82.787664 
L 373.314433 76.891822 
L 374.752577 77.753571 
L 376.190722 71.432854 
L 377.628866 89.595247 
L 379.06701 124.56986 
L 380.505155 168.34602 
L 381.943299 103.005042 
L 383.381443 73.151159 
L 384.819588 73.531675 
L 386.257732 80.0152 
L 387.695876 127.185716 
L 389.134021 120.450706 
L 390.572165 88.969303 
L 392.010309 90.449335 
L 393.448454 95.098996 
L 394.886598 107.465108 
L 396.324742 117.802386 
L 397.762887 161.696074 
L 399.201031 125.204068 
L 400.639175 113.525852 
L 402.07732 109.753683 
L 403.515464 124.56986 
L 404.953608 122.151623 
L 406.391753 123.337923 
L 407.829897 176.74861 
L 409.268041 163.763012 
L 410.706186 133.161397 
L 412.14433 143.773581 
L 413.582474 139.497048 
L 415.020619 173.696165 
L 416.458763 148.710476 
L 417.896907 176.74861 
L 419.335052 165.972607 
L 420.773196 156.192325 
L 422.21134 161.696074 
L 423.649485 152.987009 
L 426.525773 193.108528 
L 427.963918 228.293152 
L 429.402062 188.171633 
L 430.840206 193.108528 
L 432.278351 198.947636 
L 435.154639 198.947636 
L 436.592784 180.12293 
L 438.030928 250.492178 
L 439.469072 228.293152 
L 440.907216 170.909502 
L 442.345361 163.763012 
L 443.783505 176.74861 
L 445.221649 188.171633 
L 446.659794 193.108528 
L 448.097938 250.492178 
L 449.536082 215.307554 
L 450.974227 188.171633 
L 452.412371 193.108528 
L 453.850515 188.171633 
L 455.28866 168.34602 
L 456.726804 183.8951 
L 458.164948 250.492178 
L 459.603093 198.947636 
L 461.041237 170.909502 
L 462.479381 180.12293 
L 465.35567 180.12293 
L 466.793814 198.947636 
L 468.231959 193.108528 
L 469.670103 180.12293 
L 471.108247 151.497139 
L 472.546392 165.972607 
L 473.984536 156.192325 
L 475.42268 176.74861 
L 476.860825 168.34602 
L 478.298969 215.307554 
L 479.737113 183.8951 
L 481.175258 147.403094 
L 482.613402 156.192325 
L 484.051546 165.972607 
L 485.489691 180.12293 
L 486.927835 165.972607 
L 488.365979 193.108528 
L 489.804124 156.192325 
L 491.242268 148.710476 
L 492.680412 143.773581 
L 494.118557 121.007701 
L 495.556701 127.185716 
L 496.994845 110.554385 
L 498.43299 165.972607 
L 499.871134 136.627091 
L 501.309278 99.662764 
L 502.747423 101.748942 
L 504.185567 96.375118 
L 505.623711 110.962371 
L 507.061856 97.704206 
L 508.5 131.559742 
L 509.938144 108.588957 
L 511.376289 89.176595 
L 512.814433 85.082549 
L 514.252577 81.781515 
L 515.690722 91.774756 
L 517.128866 84.358757 
L 518.56701 102.058379 
L 520.005155 97.165934 
L 521.443299 70.259594 
L 522.881443 68.034642 
L 524.319588 78.639151 
L 525.757732 75.10063 
L 527.195876 65.653553 
L 528.634021 92.922779 
L 530.072165 77.463738 
L 531.510309 72.650736 
L 532.948454 65.454631 
L 534.386598 55.554545 
L 535.824742 71.194739 
L 537.262887 65.060454 
L 538.701031 93.63188 
L 540.139175 97.976773 
L 541.57732 56.590132 
L 543.015464 74.569059 
L 544.453608 76.609649 
L 547.329897 72.650736 
L 548.768041 126.51145 
L 550.206186 100.838177 
L 551.64433 70.144598 
L 553.082474 86.389931 
L 554.520619 78.939871 
L 555.958763 85.450673 
L 557.396907 90.233668 
L 558.835052 134.847387 
L 560.273196 111.794273 
L 561.71134 80.171808 
L 563.149485 90.233668 
L 564.587629 85.636334 
L 566.025773 84.900062 
L 567.463918 91.550008 
L 568.902062 134.847387 
L 570.340206 104.98669 
L 571.778351 89.595247 
L 573.216495 102.370834 
L 574.654639 97.976773 
L 576.092784 103.980541 
L 577.530928 117.802386 
L 578.969072 168.34602 
L 580.407216 121.574555 
L 581.845361 108.588957 
L 583.283505 118.835586 
L 584.721649 123.947968 
L 586.159794 141.563986 
L 587.597938 132.350558 
L 589.036082 163.763012 
L 590.474227 147.403094 
L 591.912371 111.375621 
L 593.350515 122.739281 
L 594.78866 136.627091 
L 596.226804 121.574555 
L 597.664948 131.559742 
L 599.103093 198.947636 
L 600.541237 141.563986 
L 601.979381 120.450706 
L 603.417526 127.874482 
L 604.85567 122.151623 
L 606.293814 134.847387 
L 607.731959 133.161397 
L 609.170103 168.34602 
L 610.608247 163.763012 
L 612.046392 122.151623 
L 613.484536 133.161397 
L 614.92268 138.511542 
L 616.360825 133.993299 
L 617.798969 143.773581 
L 619.237113 188.171633 
L 620.675258 154.549584 
L 622.113402 157.923904 
L 623.551546 159.754484 
L 624.989691 173.696165 
L 626.427835 176.74861 
L 627.865979 168.34602 
L 629.304124 193.108528 
L 630.742268 206.094126 
L 632.180412 161.696074 
L 633.618557 180.12293 
L 635.056701 206.094126 
L 636.494845 150.073508 
L 637.93299 188.171633 
L 639.371134 250.492178 
L 639.373289 361 
M 642.244583 361 
L 642.247423 215.307554 
L 643.685567 170.909502 
L 645.123711 183.8951 
L 646.561856 188.171633 
L 648 250.492178 
L 648 250.492178 
" style="fill:none;stroke:#ff0000;stroke-linecap:square;stroke-opacity:0.7;stroke-width:1.5;"/>
   </g>
   <g id="patch_3">
    <path d="M 90 315 
L 90 43.2 
" style="fill:none;stroke:#000000;stroke-linecap:square;stroke-linejoin:miter;stroke-width:0.8;"/>
   </g>
   <g id="patch_4">
    <path d="M 648 315 
L 648 43.2 
" style="fill:none;stroke:#000000;stroke-linecap:square;stroke-linejoin:miter;stroke-width:0.8;"/>
   </g>
   <g id="patch_5">
    <path d="M 90 315 
L 648 315 
" style="fill:none;stroke:#000000;stroke-linecap:square;stroke-linejoin:miter;stroke-width:0.8;"/>
   </g>
   <g id="patch_6">
    <path d="M 90 43.2 
L 648 43.2 
" style="fill:none;stroke:#000000;stroke-linecap:square;stroke-linejoin:miter;stroke-width:0.8;"/>
   </g>
   <g id="text_18">
    <!-- 76   -->
    <g transform="translate(337.485937 37.2)scale(0.12 -0.12)">
     <defs>
      <path d="M 8.203125 72.90625 
L 55.078125 72.90625 
L 55.078125 68.703125 
L 28.609375 0 
L 18.3125 0 
L 43.21875 64.59375 
L 8.203125 64.59375 
z
" id="DejaVuSans-55"/>
      <path d="M 33.015625 40.375 
Q 26.375 40.375 22.484375 35.828125 
Q 18.609375 31.296875 18.609375 23.390625 
Q 18.609375 15.53125 22.484375 10.953125 
Q 26.375 6.390625 33.015625 6.390625 
Q 39.65625 6.390625 43.53125 10.953125 
Q 47.40625 15.53125 47.40625 23.390625 
Q 47.40625 31.296875 43.53125 35.828125 
Q 39.65625 40.375 33.015625 40.375 
z
M 52.59375 71.296875 
L 52.59375 62.3125 
Q 48.875 64.0625 45.09375 64.984375 
Q 41.3125 65.921875 37.59375 65.921875 
Q 27.828125 65.921875 22.671875 59.328125 
Q 17.53125 52.734375 16.796875 39.40625 
Q 19.671875 43.65625 24.015625 45.921875 
Q 28.375 48.1875 33.59375 48.1875 
Q 44.578125 48.1875 50.953125 41.515625 
Q 57.328125 34.859375 57.328125 23.390625 
Q 57.328125 12.15625 50.6875 5.359375 
Q 44.046875 -1.421875 33.015625 -1.421875 
Q 20.359375 -1.421875 13.671875 8.265625 
Q 6.984375 17.96875 6.984375 36.375 
Q 6.984375 53.65625 15.1875 63.9375 
Q 23.390625 74.21875 37.203125 74.21875 
Q 40.921875 74.21875 44.703125 73.484375 
Q 48.484375 72.75 52.59375 71.296875 
z
" id="DejaVuSans-54"/>
      <path id="DejaVuSans-32"/>
      <path d="M 57.28125 0 
L 9.078125 0 
L 9.078125 54.6875 
L 32.671875 54.6875 
Q 39.546875 54.6875 44.234375 53.265625 
Q 48.921875 51.859375 51.828125 48.703125 
Q 54.734375 45.5625 56 40.9375 
Q 57.28125 36.328125 57.28125 29.59375 
z
M 18.171875 47.703125 
L 18.171875 6.984375 
L 48.1875 6.984375 
L 48.1875 30.90625 
Q 48.1875 40.578125 45.015625 44.140625 
Q 41.84375 47.703125 32.8125 47.703125 
z
" id="DejaVuSans-1501"/>
      <path d="M 56.25 29.59375 
L 56.25 0 
L 47.171875 0 
L 47.171875 30.90625 
Q 47.171875 40.578125 44 44.140625 
Q 40.828125 47.703125 31.84375 47.703125 
L 18.109375 47.703125 
L 18.109375 0 
L 9.078125 0 
L 9.078125 54.6875 
L 31.734375 54.6875 
Q 45.21875 54.6875 50.734375 48.828125 
Q 56.25 42.96875 56.25 29.59375 
z
" id="DejaVuSans-1495"/>
      <path d="M 18.796875 0 
L 38.53125 47.703125 
L 4.296875 47.703125 
L 4.296875 72.90625 
L 13.421875 72.90625 
L 13.421875 54.6875 
L 49.21875 54.640625 
L 49.078125 49.265625 
L 28.328125 0 
z
" id="DejaVuSans-1500"/>
      <path d="M 56.640625 29.59375 
L 56.640625 0 
L 47.5625 0 
L 47.5625 29.6875 
Q 47.5625 33.296875 47.3125 35.71875 
Q 47.078125 38.140625 46.1875 40.59375 
Q 45.3125 43.0625 43.75 44.484375 
Q 42.1875 45.90625 39.453125 46.796875 
Q 36.71875 47.703125 32.8125 47.703125 
L 20.796875 47.703125 
L 20.796875 20.21875 
Q 20.796875 9.765625 17.796875 4.6875 
Q 14.796875 -0.390625 7.375 -0.390625 
Q 4.78125 -0.390625 0.984375 0.390625 
L 0.984375 7.375 
Q 4.15625 6.6875 6 6.6875 
Q 9.46875 6.6875 10.59375 9.46875 
Q 11.71875 12.25 11.71875 20.21875 
L 11.71875 47.703125 
L 3.265625 47.703125 
L 3.265625 54.6875 
L 32.8125 54.6875 
Q 39.796875 54.6875 44.5 53.046875 
Q 49.21875 51.421875 51.859375 48.046875 
Q 54.5 44.671875 55.5625 40.28125 
Q 56.640625 35.890625 56.640625 29.59375 
z
" id="DejaVuSans-1514"/>
      <path d="M 15.71875 54.6875 
L 15.71875 24.125 
L 6.640625 20.40625 
L 6.640625 54.6875 
z
" id="DejaVuSans-1497"/>
      <path d="M 36.328125 6.984375 
L 36.328125 29.59375 
Q 36.328125 33.25 36.0625 35.671875 
Q 35.796875 38.09375 34.859375 40.578125 
Q 33.9375 43.0625 32.25 44.484375 
Q 30.5625 45.90625 27.609375 46.796875 
Q 24.65625 47.703125 20.40625 47.703125 
L 4.296875 47.703125 
L 4.296875 54.6875 
L 20.40625 54.6875 
Q 26.421875 54.6875 30.734375 53.5625 
Q 35.0625 52.4375 37.890625 50.359375 
Q 40.71875 48.296875 42.40625 44.890625 
Q 44.09375 41.5 44.75 37.453125 
Q 45.40625 33.40625 45.40625 27.828125 
L 45.40625 6.984375 
L 53.515625 6.984375 
L 53.515625 0 
L 4.296875 0 
L 4.296875 6.984375 
z
" id="DejaVuSans-1489"/>
     </defs>
     <use xlink:href="#DejaVuSans-55"/>
     <use x="63.623047" xlink:href="#DejaVuSans-54"/>
     <use x="127.246094" xlink:href="#DejaVuSans-32"/>
     <use x="159.033203" xlink:href="#DejaVuSans-1501"/>
     <use x="225.390625" xlink:href="#DejaVuSans-1495"/>
     <use x="290.722656" xlink:href="#DejaVuSans-1500"/>
     <use x="347.558594" xlink:href="#DejaVuSans-32"/>
     <use x="379.345703" xlink:href="#DejaVuSans-1514"/>
     <use x="445.068359" xlink:href="#DejaVuSans-1497"/>
     <use x="467.431641" xlink:href="#DejaVuSans-1489"/>
    </g>
   </g>
   <g id="legend_1">
    <g id="patch_7">
     <path d="M 97 95.234375 
L 221.582812 95.234375 
Q 223.582812 95.234375 223.582812 93.234375 
L 223.582812 50.2 
Q 223.582812 48.2 221.582812 48.2 
L 97 48.2 
Q 95 48.2 95 50.2 
L 95 93.234375 
Q 95 95.234375 97 95.234375 
z
" style="fill:#ffffff;opacity:0.8;stroke:#cccccc;stroke-linejoin:miter;"/>
    </g>
    <g id="line2d_103">
     <path d="M 99 56.298437 
L 119 56.298437 
" style="fill:none;stroke:#008000;stroke-linecap:square;stroke-width:1.5;"/>
    </g>
    <g id="line2d_104"/>
    <g id="text_19">
     <!-- Test-adjusted -->
     <g transform="translate(127 59.798437)scale(0.1 -0.1)">
      <defs>
       <path d="M -0.296875 72.90625 
L 61.375 72.90625 
L 61.375 64.59375 
L 35.5 64.59375 
L 35.5 0 
L 25.59375 0 
L 25.59375 64.59375 
L -0.296875 64.59375 
z
" id="DejaVuSans-84"/>
       <path d="M 44.28125 53.078125 
L 44.28125 44.578125 
Q 40.484375 46.53125 36.375 47.5 
Q 32.28125 48.484375 27.875 48.484375 
Q 21.1875 48.484375 17.84375 46.4375 
Q 14.5 44.390625 14.5 40.28125 
Q 14.5 37.15625 16.890625 35.375 
Q 19.28125 33.59375 26.515625 31.984375 
L 29.59375 31.296875 
Q 39.15625 29.25 43.1875 25.515625 
Q 47.21875 21.78125 47.21875 15.09375 
Q 47.21875 7.46875 41.1875 3.015625 
Q 35.15625 -1.421875 24.609375 -1.421875 
Q 20.21875 -1.421875 15.453125 -0.5625 
Q 10.6875 0.296875 5.421875 2 
L 5.421875 11.28125 
Q 10.40625 8.6875 15.234375 7.390625 
Q 20.0625 6.109375 24.8125 6.109375 
Q 31.15625 6.109375 34.5625 8.28125 
Q 37.984375 10.453125 37.984375 14.40625 
Q 37.984375 18.0625 35.515625 20.015625 
Q 33.0625 21.96875 24.703125 23.78125 
L 21.578125 24.515625 
Q 13.234375 26.265625 9.515625 29.90625 
Q 5.8125 33.546875 5.8125 39.890625 
Q 5.8125 47.609375 11.28125 51.796875 
Q 16.75 56 26.8125 56 
Q 31.78125 56 36.171875 55.265625 
Q 40.578125 54.546875 44.28125 53.078125 
z
" id="DejaVuSans-115"/>
       <path d="M 4.890625 31.390625 
L 31.203125 31.390625 
L 31.203125 23.390625 
L 4.890625 23.390625 
z
" id="DejaVuSans-45"/>
       <path d="M 9.421875 54.6875 
L 18.40625 54.6875 
L 18.40625 -0.984375 
Q 18.40625 -11.421875 14.421875 -16.109375 
Q 10.453125 -20.796875 1.609375 -20.796875 
L -1.8125 -20.796875 
L -1.8125 -13.1875 
L 0.59375 -13.1875 
Q 5.71875 -13.1875 7.5625 -10.8125 
Q 9.421875 -8.453125 9.421875 -0.984375 
z
M 9.421875 75.984375 
L 18.40625 75.984375 
L 18.40625 64.59375 
L 9.421875 64.59375 
z
" id="DejaVuSans-106"/>
      </defs>
      <use xlink:href="#DejaVuSans-84"/>
      <use x="44.083984" xlink:href="#DejaVuSans-101"/>
      <use x="105.607422" xlink:href="#DejaVuSans-115"/>
      <use x="157.707031" xlink:href="#DejaVuSans-116"/>
      <use x="196.916016" xlink:href="#DejaVuSans-45"/>
      <use x="233" xlink:href="#DejaVuSans-97"/>
      <use x="294.279297" xlink:href="#DejaVuSans-100"/>
      <use x="357.755859" xlink:href="#DejaVuSans-106"/>
      <use x="385.539062" xlink:href="#DejaVuSans-117"/>
      <use x="448.917969" xlink:href="#DejaVuSans-115"/>
      <use x="501.017578" xlink:href="#DejaVuSans-116"/>
      <use x="540.226562" xlink:href="#DejaVuSans-101"/>
      <use x="601.75" xlink:href="#DejaVuSans-100"/>
     </g>
    </g>
    <g id="line2d_105">
     <path d="M 99 70.976562 
L 119 70.976562 
" style="fill:none;stroke:#0000ff;stroke-linecap:square;stroke-width:1.5;"/>
    </g>
    <g id="line2d_106"/>
    <g id="text_20">
     <!-- Infections -->
     <g transform="translate(127 74.476562)scale(0.1 -0.1)">
      <defs>
       <path d="M 9.8125 72.90625 
L 19.671875 72.90625 
L 19.671875 0 
L 9.8125 0 
z
" id="DejaVuSans-73"/>
       <path d="M 37.109375 75.984375 
L 37.109375 68.5 
L 28.515625 68.5 
Q 23.6875 68.5 21.796875 66.546875 
Q 19.921875 64.59375 19.921875 59.515625 
L 19.921875 54.6875 
L 34.71875 54.6875 
L 34.71875 47.703125 
L 19.921875 47.703125 
L 19.921875 0 
L 10.890625 0 
L 10.890625 47.703125 
L 2.296875 47.703125 
L 2.296875 54.6875 
L 10.890625 54.6875 
L 10.890625 58.5 
Q 10.890625 67.625 15.140625 71.796875 
Q 19.390625 75.984375 28.609375 75.984375 
z
" id="DejaVuSans-102"/>
       <path d="M 9.421875 54.6875 
L 18.40625 54.6875 
L 18.40625 0 
L 9.421875 0 
z
M 9.421875 75.984375 
L 18.40625 75.984375 
L 18.40625 64.59375 
L 9.421875 64.59375 
z
" id="DejaVuSans-105"/>
      </defs>
      <use xlink:href="#DejaVuSans-73"/>
      <use x="29.492188" xlink:href="#DejaVuSans-110"/>
      <use x="92.871094" xlink:href="#DejaVuSans-102"/>
      <use x="128.076172" xlink:href="#DejaVuSans-101"/>
      <use x="189.599609" xlink:href="#DejaVuSans-99"/>
      <use x="244.580078" xlink:href="#DejaVuSans-116"/>
      <use x="283.789062" xlink:href="#DejaVuSans-105"/>
      <use x="311.572266" xlink:href="#DejaVuSans-111"/>
      <use x="372.753906" xlink:href="#DejaVuSans-110"/>
      <use x="436.132812" xlink:href="#DejaVuSans-115"/>
     </g>
    </g>
    <g id="line2d_107">
     <path d="M 99 85.654687 
L 119 85.654687 
" style="fill:none;stroke:#ff0000;stroke-linecap:square;stroke-opacity:0.7;stroke-width:1.5;"/>
    </g>
    <g id="line2d_108"/>
    <g id="text_21">
     <!-- Reported Positives -->
     <g transform="translate(127 89.154687)scale(0.1 -0.1)">
      <defs>
       <path d="M 44.390625 34.1875 
Q 47.5625 33.109375 50.5625 29.59375 
Q 53.5625 26.078125 56.59375 19.921875 
L 66.609375 0 
L 56 0 
L 46.6875 18.703125 
Q 43.0625 26.03125 39.671875 28.421875 
Q 36.28125 30.8125 30.421875 30.8125 
L 19.671875 30.8125 
L 19.671875 0 
L 9.8125 0 
L 9.8125 72.90625 
L 32.078125 72.90625 
Q 44.578125 72.90625 50.734375 67.671875 
Q 56.890625 62.453125 56.890625 51.90625 
Q 56.890625 45.015625 53.6875 40.46875 
Q 50.484375 35.9375 44.390625 34.1875 
z
M 19.671875 64.796875 
L 19.671875 38.921875 
L 32.078125 38.921875 
Q 39.203125 38.921875 42.84375 42.21875 
Q 46.484375 45.515625 46.484375 51.90625 
Q 46.484375 58.296875 42.84375 61.546875 
Q 39.203125 64.796875 32.078125 64.796875 
z
" id="DejaVuSans-82"/>
       <path d="M 19.671875 64.796875 
L 19.671875 37.40625 
L 32.078125 37.40625 
Q 38.96875 37.40625 42.71875 40.96875 
Q 46.484375 44.53125 46.484375 51.125 
Q 46.484375 57.671875 42.71875 61.234375 
Q 38.96875 64.796875 32.078125 64.796875 
z
M 9.8125 72.90625 
L 32.078125 72.90625 
Q 44.34375 72.90625 50.609375 67.359375 
Q 56.890625 61.8125 56.890625 51.125 
Q 56.890625 40.328125 50.609375 34.8125 
Q 44.34375 29.296875 32.078125 29.296875 
L 19.671875 29.296875 
L 19.671875 0 
L 9.8125 0 
z
" id="DejaVuSans-80"/>
      </defs>
      <use xlink:href="#DejaVuSans-82"/>
      <use x="64.982422" xlink:href="#DejaVuSans-101"/>
      <use x="126.505859" xlink:href="#DejaVuSans-112"/>
      <use x="189.982422" xlink:href="#DejaVuSans-111"/>
      <use x="251.164062" xlink:href="#DejaVuSans-114"/>
      <use x="292.277344" xlink:href="#DejaVuSans-116"/>
      <use x="331.486328" xlink:href="#DejaVuSans-101"/>
      <use x="393.009766" xlink:href="#DejaVuSans-100"/>
      <use x="456.486328" xlink:href="#DejaVuSans-32"/>
      <use x="488.273438" xlink:href="#DejaVuSans-80"/>
      <use x="544.951172" xlink:href="#DejaVuSans-111"/>
      <use x="606.132812" xlink:href="#DejaVuSans-115"/>
      <use x="658.232422" xlink:href="#DejaVuSans-105"/>
      <use x="686.015625" xlink:href="#DejaVuSans-116"/>
      <use x="725.224609" xlink:href="#DejaVuSans-105"/>
      <use x="753.007812" xlink:href="#DejaVuSans-118"/>
      <use x="812.1875" xlink:href="#DejaVuSans-101"/>
      <use x="873.710938" xlink:href="#DejaVuSans-115"/>
     </g>
    </g>
   </g>
  </g>
 </g>
 <defs>
  <clipPath id="p958134cf3c">
   <rect height="271.8" width="558" x="90" y="43.2"/>
  </clipPath>
 </defs>
</svg>
