<?xml version="1.0" encoding="utf-8" standalone="no"?>
<!DOCTYPE svg PUBLIC "-//W3C//DTD SVG 1.1//EN"
  "http://www.w3.org/Graphics/SVG/1.1/DTD/svg11.dtd">
<!-- Created with matplotlib (https://matplotlib.org/) -->
<svg height="360pt" version="1.1" viewBox="0 0 720 360" width="720pt" xmlns="http://www.w3.org/2000/svg" xmlns:xlink="http://www.w3.org/1999/xlink">
 <metadata>
  <rdf:RDF xmlns:cc="http://creativecommons.org/ns#" xmlns:dc="http://purl.org/dc/elements/1.1/" xmlns:rdf="http://www.w3.org/1999/02/22-rdf-syntax-ns#">
   <cc:Work>
    <dc:type rdf:resource="http://purl.org/dc/dcmitype/StillImage"/>
    <dc:date>2021-03-07T05:57:27.714501</dc:date>
    <dc:format>image/svg+xml</dc:format>
    <dc:creator>
     <cc:Agent>
      <dc:title>Matplotlib v3.3.2, https://matplotlib.org/</dc:title>
     </cc:Agent>
    </dc:creator>
   </cc:Work>
  </rdf:RDF>
 </metadata>
 <defs>
  <style type="text/css">*{stroke-linecap:butt;stroke-linejoin:round;}</style>
 </defs>
 <g id="figure_1">
  <g id="patch_1">
   <path d="M 0 360 
L 720 360 
L 720 0 
L 0 0 
z
" style="fill:#ffffff;"/>
  </g>
  <g id="axes_1">
   <g id="patch_2">
    <path d="M 90 315 
L 648 315 
L 648 43.2 
L 90 43.2 
z
" style="fill:#ffffff;"/>
   </g>
   <g id="matplotlib.axis_1">
    <g id="xtick_1">
     <g id="line2d_1">
      <defs>
       <path d="M 0 0 
L 0 3.5 
" id="m40470a843c" style="stroke:#000000;stroke-width:0.8;"/>
      </defs>
      <g>
       <use style="stroke:#000000;stroke-width:0.8;" x="90" xlink:href="#m40470a843c" y="315"/>
      </g>
     </g>
    </g>
    <g id="xtick_2">
     <g id="line2d_2">
      <g>
       <use style="stroke:#000000;stroke-width:0.8;" x="118.213483" xlink:href="#m40470a843c" y="315"/>
      </g>
     </g>
     <g id="text_1">
      <!-- Apr -->
      <g transform="translate(109.563483 329.598437)scale(0.1 -0.1)">
       <defs>
        <path d="M 34.1875 63.1875 
L 20.796875 26.90625 
L 47.609375 26.90625 
z
M 28.609375 72.90625 
L 39.796875 72.90625 
L 67.578125 0 
L 57.328125 0 
L 50.6875 18.703125 
L 17.828125 18.703125 
L 11.1875 0 
L 0.78125 0 
z
" id="DejaVuSans-65"/>
        <path d="M 18.109375 8.203125 
L 18.109375 -20.796875 
L 9.078125 -20.796875 
L 9.078125 54.6875 
L 18.109375 54.6875 
L 18.109375 46.390625 
Q 20.953125 51.265625 25.265625 53.625 
Q 29.59375 56 35.59375 56 
Q 45.5625 56 51.78125 48.09375 
Q 58.015625 40.1875 58.015625 27.296875 
Q 58.015625 14.40625 51.78125 6.484375 
Q 45.5625 -1.421875 35.59375 -1.421875 
Q 29.59375 -1.421875 25.265625 0.953125 
Q 20.953125 3.328125 18.109375 8.203125 
z
M 48.6875 27.296875 
Q 48.6875 37.203125 44.609375 42.84375 
Q 40.53125 48.484375 33.40625 48.484375 
Q 26.265625 48.484375 22.1875 42.84375 
Q 18.109375 37.203125 18.109375 27.296875 
Q 18.109375 17.390625 22.1875 11.75 
Q 26.265625 6.109375 33.40625 6.109375 
Q 40.53125 6.109375 44.609375 11.75 
Q 48.6875 17.390625 48.6875 27.296875 
z
" id="DejaVuSans-112"/>
        <path d="M 41.109375 46.296875 
Q 39.59375 47.171875 37.8125 47.578125 
Q 36.03125 48 33.890625 48 
Q 26.265625 48 22.1875 43.046875 
Q 18.109375 38.09375 18.109375 28.8125 
L 18.109375 0 
L 9.078125 0 
L 9.078125 54.6875 
L 18.109375 54.6875 
L 18.109375 46.1875 
Q 20.953125 51.171875 25.484375 53.578125 
Q 30.03125 56 36.53125 56 
Q 37.453125 56 38.578125 55.875 
Q 39.703125 55.765625 41.0625 55.515625 
z
" id="DejaVuSans-114"/>
       </defs>
       <use xlink:href="#DejaVuSans-65"/>
       <use x="68.408203" xlink:href="#DejaVuSans-112"/>
       <use x="131.884766" xlink:href="#DejaVuSans-114"/>
      </g>
     </g>
    </g>
    <g id="xtick_3">
     <g id="line2d_3">
      <g>
       <use style="stroke:#000000;stroke-width:0.8;" x="165.235955" xlink:href="#m40470a843c" y="315"/>
      </g>
     </g>
     <g id="text_2">
      <!-- May -->
      <g transform="translate(154.898455 329.598437)scale(0.1 -0.1)">
       <defs>
        <path d="M 9.8125 72.90625 
L 24.515625 72.90625 
L 43.109375 23.296875 
L 61.8125 72.90625 
L 76.515625 72.90625 
L 76.515625 0 
L 66.890625 0 
L 66.890625 64.015625 
L 48.09375 14.015625 
L 38.1875 14.015625 
L 19.390625 64.015625 
L 19.390625 0 
L 9.8125 0 
z
" id="DejaVuSans-77"/>
        <path d="M 34.28125 27.484375 
Q 23.390625 27.484375 19.1875 25 
Q 14.984375 22.515625 14.984375 16.5 
Q 14.984375 11.71875 18.140625 8.90625 
Q 21.296875 6.109375 26.703125 6.109375 
Q 34.1875 6.109375 38.703125 11.40625 
Q 43.21875 16.703125 43.21875 25.484375 
L 43.21875 27.484375 
z
M 52.203125 31.203125 
L 52.203125 0 
L 43.21875 0 
L 43.21875 8.296875 
Q 40.140625 3.328125 35.546875 0.953125 
Q 30.953125 -1.421875 24.3125 -1.421875 
Q 15.921875 -1.421875 10.953125 3.296875 
Q 6 8.015625 6 15.921875 
Q 6 25.140625 12.171875 29.828125 
Q 18.359375 34.515625 30.609375 34.515625 
L 43.21875 34.515625 
L 43.21875 35.40625 
Q 43.21875 41.609375 39.140625 45 
Q 35.0625 48.390625 27.6875 48.390625 
Q 23 48.390625 18.546875 47.265625 
Q 14.109375 46.140625 10.015625 43.890625 
L 10.015625 52.203125 
Q 14.9375 54.109375 19.578125 55.046875 
Q 24.21875 56 28.609375 56 
Q 40.484375 56 46.34375 49.84375 
Q 52.203125 43.703125 52.203125 31.203125 
z
" id="DejaVuSans-97"/>
        <path d="M 32.171875 -5.078125 
Q 28.375 -14.84375 24.75 -17.8125 
Q 21.140625 -20.796875 15.09375 -20.796875 
L 7.90625 -20.796875 
L 7.90625 -13.28125 
L 13.1875 -13.28125 
Q 16.890625 -13.28125 18.9375 -11.515625 
Q 21 -9.765625 23.484375 -3.21875 
L 25.09375 0.875 
L 2.984375 54.6875 
L 12.5 54.6875 
L 29.59375 11.921875 
L 46.6875 54.6875 
L 56.203125 54.6875 
z
" id="DejaVuSans-121"/>
       </defs>
       <use xlink:href="#DejaVuSans-77"/>
       <use x="86.279297" xlink:href="#DejaVuSans-97"/>
       <use x="147.558594" xlink:href="#DejaVuSans-121"/>
      </g>
     </g>
    </g>
    <g id="xtick_4">
     <g id="line2d_4">
      <g>
       <use style="stroke:#000000;stroke-width:0.8;" x="213.825843" xlink:href="#m40470a843c" y="315"/>
      </g>
     </g>
     <g id="text_3">
      <!-- Jun -->
      <g transform="translate(206.013343 329.598437)scale(0.1 -0.1)">
       <defs>
        <path d="M 9.8125 72.90625 
L 19.671875 72.90625 
L 19.671875 5.078125 
Q 19.671875 -8.109375 14.671875 -14.0625 
Q 9.671875 -20.015625 -1.421875 -20.015625 
L -5.171875 -20.015625 
L -5.171875 -11.71875 
L -2.09375 -11.71875 
Q 4.4375 -11.71875 7.125 -8.046875 
Q 9.8125 -4.390625 9.8125 5.078125 
z
" id="DejaVuSans-74"/>
        <path d="M 8.5 21.578125 
L 8.5 54.6875 
L 17.484375 54.6875 
L 17.484375 21.921875 
Q 17.484375 14.15625 20.5 10.265625 
Q 23.53125 6.390625 29.59375 6.390625 
Q 36.859375 6.390625 41.078125 11.03125 
Q 45.3125 15.671875 45.3125 23.6875 
L 45.3125 54.6875 
L 54.296875 54.6875 
L 54.296875 0 
L 45.3125 0 
L 45.3125 8.40625 
Q 42.046875 3.421875 37.71875 1 
Q 33.40625 -1.421875 27.6875 -1.421875 
Q 18.265625 -1.421875 13.375 4.4375 
Q 8.5 10.296875 8.5 21.578125 
z
M 31.109375 56 
z
" id="DejaVuSans-117"/>
        <path d="M 54.890625 33.015625 
L 54.890625 0 
L 45.90625 0 
L 45.90625 32.71875 
Q 45.90625 40.484375 42.875 44.328125 
Q 39.84375 48.1875 33.796875 48.1875 
Q 26.515625 48.1875 22.3125 43.546875 
Q 18.109375 38.921875 18.109375 30.90625 
L 18.109375 0 
L 9.078125 0 
L 9.078125 54.6875 
L 18.109375 54.6875 
L 18.109375 46.1875 
Q 21.34375 51.125 25.703125 53.5625 
Q 30.078125 56 35.796875 56 
Q 45.21875 56 50.046875 50.171875 
Q 54.890625 44.34375 54.890625 33.015625 
z
" id="DejaVuSans-110"/>
       </defs>
       <use xlink:href="#DejaVuSans-74"/>
       <use x="29.492188" xlink:href="#DejaVuSans-117"/>
       <use x="92.871094" xlink:href="#DejaVuSans-110"/>
      </g>
     </g>
    </g>
    <g id="xtick_5">
     <g id="line2d_5">
      <g>
       <use style="stroke:#000000;stroke-width:0.8;" x="260.848315" xlink:href="#m40470a843c" y="315"/>
      </g>
     </g>
     <g id="text_4">
      <!-- Jul -->
      <g transform="translate(254.815502 329.598437)scale(0.1 -0.1)">
       <defs>
        <path d="M 9.421875 75.984375 
L 18.40625 75.984375 
L 18.40625 0 
L 9.421875 0 
z
" id="DejaVuSans-108"/>
       </defs>
       <use xlink:href="#DejaVuSans-74"/>
       <use x="29.492188" xlink:href="#DejaVuSans-117"/>
       <use x="92.871094" xlink:href="#DejaVuSans-108"/>
      </g>
     </g>
    </g>
    <g id="xtick_6">
     <g id="line2d_6">
      <g>
       <use style="stroke:#000000;stroke-width:0.8;" x="309.438202" xlink:href="#m40470a843c" y="315"/>
      </g>
     </g>
     <g id="text_5">
      <!-- Aug -->
      <g transform="translate(299.674921 329.598437)scale(0.1 -0.1)">
       <defs>
        <path d="M 45.40625 27.984375 
Q 45.40625 37.75 41.375 43.109375 
Q 37.359375 48.484375 30.078125 48.484375 
Q 22.859375 48.484375 18.828125 43.109375 
Q 14.796875 37.75 14.796875 27.984375 
Q 14.796875 18.265625 18.828125 12.890625 
Q 22.859375 7.515625 30.078125 7.515625 
Q 37.359375 7.515625 41.375 12.890625 
Q 45.40625 18.265625 45.40625 27.984375 
z
M 54.390625 6.78125 
Q 54.390625 -7.171875 48.1875 -13.984375 
Q 42 -20.796875 29.203125 -20.796875 
Q 24.46875 -20.796875 20.265625 -20.09375 
Q 16.0625 -19.390625 12.109375 -17.921875 
L 12.109375 -9.1875 
Q 16.0625 -11.328125 19.921875 -12.34375 
Q 23.78125 -13.375 27.78125 -13.375 
Q 36.625 -13.375 41.015625 -8.765625 
Q 45.40625 -4.15625 45.40625 5.171875 
L 45.40625 9.625 
Q 42.625 4.78125 38.28125 2.390625 
Q 33.9375 0 27.875 0 
Q 17.828125 0 11.671875 7.65625 
Q 5.515625 15.328125 5.515625 27.984375 
Q 5.515625 40.671875 11.671875 48.328125 
Q 17.828125 56 27.875 56 
Q 33.9375 56 38.28125 53.609375 
Q 42.625 51.21875 45.40625 46.390625 
L 45.40625 54.6875 
L 54.390625 54.6875 
z
" id="DejaVuSans-103"/>
       </defs>
       <use xlink:href="#DejaVuSans-65"/>
       <use x="68.408203" xlink:href="#DejaVuSans-117"/>
       <use x="131.787109" xlink:href="#DejaVuSans-103"/>
      </g>
     </g>
    </g>
    <g id="xtick_7">
     <g id="line2d_7">
      <g>
       <use style="stroke:#000000;stroke-width:0.8;" x="358.02809" xlink:href="#m40470a843c" y="315"/>
      </g>
     </g>
     <g id="text_6">
      <!-- Sep -->
      <g transform="translate(348.60309 329.598437)scale(0.1 -0.1)">
       <defs>
        <path d="M 53.515625 70.515625 
L 53.515625 60.890625 
Q 47.90625 63.578125 42.921875 64.890625 
Q 37.9375 66.21875 33.296875 66.21875 
Q 25.25 66.21875 20.875 63.09375 
Q 16.5 59.96875 16.5 54.203125 
Q 16.5 49.359375 19.40625 46.890625 
Q 22.3125 44.4375 30.421875 42.921875 
L 36.375 41.703125 
Q 47.40625 39.59375 52.65625 34.296875 
Q 57.90625 29 57.90625 20.125 
Q 57.90625 9.515625 50.796875 4.046875 
Q 43.703125 -1.421875 29.984375 -1.421875 
Q 24.8125 -1.421875 18.96875 -0.25 
Q 13.140625 0.921875 6.890625 3.21875 
L 6.890625 13.375 
Q 12.890625 10.015625 18.65625 8.296875 
Q 24.421875 6.59375 29.984375 6.59375 
Q 38.421875 6.59375 43.015625 9.90625 
Q 47.609375 13.234375 47.609375 19.390625 
Q 47.609375 24.75 44.3125 27.78125 
Q 41.015625 30.8125 33.5 32.328125 
L 27.484375 33.5 
Q 16.453125 35.6875 11.515625 40.375 
Q 6.59375 45.0625 6.59375 53.421875 
Q 6.59375 63.09375 13.40625 68.65625 
Q 20.21875 74.21875 32.171875 74.21875 
Q 37.3125 74.21875 42.625 73.28125 
Q 47.953125 72.359375 53.515625 70.515625 
z
" id="DejaVuSans-83"/>
        <path d="M 56.203125 29.59375 
L 56.203125 25.203125 
L 14.890625 25.203125 
Q 15.484375 15.921875 20.484375 11.0625 
Q 25.484375 6.203125 34.421875 6.203125 
Q 39.59375 6.203125 44.453125 7.46875 
Q 49.3125 8.734375 54.109375 11.28125 
L 54.109375 2.78125 
Q 49.265625 0.734375 44.1875 -0.34375 
Q 39.109375 -1.421875 33.890625 -1.421875 
Q 20.796875 -1.421875 13.15625 6.1875 
Q 5.515625 13.8125 5.515625 26.8125 
Q 5.515625 40.234375 12.765625 48.109375 
Q 20.015625 56 32.328125 56 
Q 43.359375 56 49.78125 48.890625 
Q 56.203125 41.796875 56.203125 29.59375 
z
M 47.21875 32.234375 
Q 47.125 39.59375 43.09375 43.984375 
Q 39.0625 48.390625 32.421875 48.390625 
Q 24.90625 48.390625 20.390625 44.140625 
Q 15.875 39.890625 15.1875 32.171875 
z
" id="DejaVuSans-101"/>
       </defs>
       <use xlink:href="#DejaVuSans-83"/>
       <use x="63.476562" xlink:href="#DejaVuSans-101"/>
       <use x="125" xlink:href="#DejaVuSans-112"/>
      </g>
     </g>
    </g>
    <g id="xtick_8">
     <g id="line2d_8">
      <g>
       <use style="stroke:#000000;stroke-width:0.8;" x="405.050562" xlink:href="#m40470a843c" y="315"/>
      </g>
     </g>
     <g id="text_7">
      <!-- Oct -->
      <g transform="translate(396.405249 329.598437)scale(0.1 -0.1)">
       <defs>
        <path d="M 39.40625 66.21875 
Q 28.65625 66.21875 22.328125 58.203125 
Q 16.015625 50.203125 16.015625 36.375 
Q 16.015625 22.609375 22.328125 14.59375 
Q 28.65625 6.59375 39.40625 6.59375 
Q 50.140625 6.59375 56.421875 14.59375 
Q 62.703125 22.609375 62.703125 36.375 
Q 62.703125 50.203125 56.421875 58.203125 
Q 50.140625 66.21875 39.40625 66.21875 
z
M 39.40625 74.21875 
Q 54.734375 74.21875 63.90625 63.9375 
Q 73.09375 53.65625 73.09375 36.375 
Q 73.09375 19.140625 63.90625 8.859375 
Q 54.734375 -1.421875 39.40625 -1.421875 
Q 24.03125 -1.421875 14.8125 8.828125 
Q 5.609375 19.09375 5.609375 36.375 
Q 5.609375 53.65625 14.8125 63.9375 
Q 24.03125 74.21875 39.40625 74.21875 
z
" id="DejaVuSans-79"/>
        <path d="M 48.78125 52.59375 
L 48.78125 44.1875 
Q 44.96875 46.296875 41.140625 47.34375 
Q 37.3125 48.390625 33.40625 48.390625 
Q 24.65625 48.390625 19.8125 42.84375 
Q 14.984375 37.3125 14.984375 27.296875 
Q 14.984375 17.28125 19.8125 11.734375 
Q 24.65625 6.203125 33.40625 6.203125 
Q 37.3125 6.203125 41.140625 7.25 
Q 44.96875 8.296875 48.78125 10.40625 
L 48.78125 2.09375 
Q 45.015625 0.34375 40.984375 -0.53125 
Q 36.96875 -1.421875 32.421875 -1.421875 
Q 20.0625 -1.421875 12.78125 6.34375 
Q 5.515625 14.109375 5.515625 27.296875 
Q 5.515625 40.671875 12.859375 48.328125 
Q 20.21875 56 33.015625 56 
Q 37.15625 56 41.109375 55.140625 
Q 45.0625 54.296875 48.78125 52.59375 
z
" id="DejaVuSans-99"/>
        <path d="M 18.3125 70.21875 
L 18.3125 54.6875 
L 36.8125 54.6875 
L 36.8125 47.703125 
L 18.3125 47.703125 
L 18.3125 18.015625 
Q 18.3125 11.328125 20.140625 9.421875 
Q 21.96875 7.515625 27.59375 7.515625 
L 36.8125 7.515625 
L 36.8125 0 
L 27.59375 0 
Q 17.1875 0 13.234375 3.875 
Q 9.28125 7.765625 9.28125 18.015625 
L 9.28125 47.703125 
L 2.6875 47.703125 
L 2.6875 54.6875 
L 9.28125 54.6875 
L 9.28125 70.21875 
z
" id="DejaVuSans-116"/>
       </defs>
       <use xlink:href="#DejaVuSans-79"/>
       <use x="78.710938" xlink:href="#DejaVuSans-99"/>
       <use x="133.691406" xlink:href="#DejaVuSans-116"/>
      </g>
     </g>
    </g>
    <g id="xtick_9">
     <g id="line2d_9">
      <g>
       <use style="stroke:#000000;stroke-width:0.8;" x="453.640449" xlink:href="#m40470a843c" y="315"/>
      </g>
     </g>
     <g id="text_8">
      <!-- Nov -->
      <g transform="translate(443.881074 329.598437)scale(0.1 -0.1)">
       <defs>
        <path d="M 9.8125 72.90625 
L 23.09375 72.90625 
L 55.421875 11.921875 
L 55.421875 72.90625 
L 64.984375 72.90625 
L 64.984375 0 
L 51.703125 0 
L 19.390625 60.984375 
L 19.390625 0 
L 9.8125 0 
z
" id="DejaVuSans-78"/>
        <path d="M 30.609375 48.390625 
Q 23.390625 48.390625 19.1875 42.75 
Q 14.984375 37.109375 14.984375 27.296875 
Q 14.984375 17.484375 19.15625 11.84375 
Q 23.34375 6.203125 30.609375 6.203125 
Q 37.796875 6.203125 41.984375 11.859375 
Q 46.1875 17.53125 46.1875 27.296875 
Q 46.1875 37.015625 41.984375 42.703125 
Q 37.796875 48.390625 30.609375 48.390625 
z
M 30.609375 56 
Q 42.328125 56 49.015625 48.375 
Q 55.71875 40.765625 55.71875 27.296875 
Q 55.71875 13.875 49.015625 6.21875 
Q 42.328125 -1.421875 30.609375 -1.421875 
Q 18.84375 -1.421875 12.171875 6.21875 
Q 5.515625 13.875 5.515625 27.296875 
Q 5.515625 40.765625 12.171875 48.375 
Q 18.84375 56 30.609375 56 
z
" id="DejaVuSans-111"/>
        <path d="M 2.984375 54.6875 
L 12.5 54.6875 
L 29.59375 8.796875 
L 46.6875 54.6875 
L 56.203125 54.6875 
L 35.6875 0 
L 23.484375 0 
z
" id="DejaVuSans-118"/>
       </defs>
       <use xlink:href="#DejaVuSans-78"/>
       <use x="74.804688" xlink:href="#DejaVuSans-111"/>
       <use x="135.986328" xlink:href="#DejaVuSans-118"/>
      </g>
     </g>
    </g>
    <g id="xtick_10">
     <g id="line2d_10">
      <g>
       <use style="stroke:#000000;stroke-width:0.8;" x="500.662921" xlink:href="#m40470a843c" y="315"/>
      </g>
     </g>
     <g id="text_9">
      <!-- Dec -->
      <g transform="translate(490.98714 329.598437)scale(0.1 -0.1)">
       <defs>
        <path d="M 19.671875 64.796875 
L 19.671875 8.109375 
L 31.59375 8.109375 
Q 46.6875 8.109375 53.6875 14.9375 
Q 60.6875 21.78125 60.6875 36.53125 
Q 60.6875 51.171875 53.6875 57.984375 
Q 46.6875 64.796875 31.59375 64.796875 
z
M 9.8125 72.90625 
L 30.078125 72.90625 
Q 51.265625 72.90625 61.171875 64.09375 
Q 71.09375 55.28125 71.09375 36.53125 
Q 71.09375 17.671875 61.125 8.828125 
Q 51.171875 0 30.078125 0 
L 9.8125 0 
z
" id="DejaVuSans-68"/>
       </defs>
       <use xlink:href="#DejaVuSans-68"/>
       <use x="77.001953" xlink:href="#DejaVuSans-101"/>
       <use x="138.525391" xlink:href="#DejaVuSans-99"/>
      </g>
     </g>
    </g>
    <g id="xtick_11">
     <g id="line2d_11">
      <g>
       <use style="stroke:#000000;stroke-width:0.8;" x="549.252809" xlink:href="#m40470a843c" y="315"/>
      </g>
     </g>
     <g id="text_10">
      <!-- Jan -->
      <g transform="translate(541.544996 329.598437)scale(0.1 -0.1)">
       <use xlink:href="#DejaVuSans-74"/>
       <use x="29.492188" xlink:href="#DejaVuSans-97"/>
       <use x="90.771484" xlink:href="#DejaVuSans-110"/>
      </g>
      <!-- 2021 -->
      <g transform="translate(536.527809 340.79625)scale(0.1 -0.1)">
       <defs>
        <path d="M 19.1875 8.296875 
L 53.609375 8.296875 
L 53.609375 0 
L 7.328125 0 
L 7.328125 8.296875 
Q 12.9375 14.109375 22.625 23.890625 
Q 32.328125 33.6875 34.8125 36.53125 
Q 39.546875 41.84375 41.421875 45.53125 
Q 43.3125 49.21875 43.3125 52.78125 
Q 43.3125 58.59375 39.234375 62.25 
Q 35.15625 65.921875 28.609375 65.921875 
Q 23.96875 65.921875 18.8125 64.3125 
Q 13.671875 62.703125 7.8125 59.421875 
L 7.8125 69.390625 
Q 13.765625 71.78125 18.9375 73 
Q 24.125 74.21875 28.421875 74.21875 
Q 39.75 74.21875 46.484375 68.546875 
Q 53.21875 62.890625 53.21875 53.421875 
Q 53.21875 48.921875 51.53125 44.890625 
Q 49.859375 40.875 45.40625 35.40625 
Q 44.1875 33.984375 37.640625 27.21875 
Q 31.109375 20.453125 19.1875 8.296875 
z
" id="DejaVuSans-50"/>
        <path d="M 31.78125 66.40625 
Q 24.171875 66.40625 20.328125 58.90625 
Q 16.5 51.421875 16.5 36.375 
Q 16.5 21.390625 20.328125 13.890625 
Q 24.171875 6.390625 31.78125 6.390625 
Q 39.453125 6.390625 43.28125 13.890625 
Q 47.125 21.390625 47.125 36.375 
Q 47.125 51.421875 43.28125 58.90625 
Q 39.453125 66.40625 31.78125 66.40625 
z
M 31.78125 74.21875 
Q 44.046875 74.21875 50.515625 64.515625 
Q 56.984375 54.828125 56.984375 36.375 
Q 56.984375 17.96875 50.515625 8.265625 
Q 44.046875 -1.421875 31.78125 -1.421875 
Q 19.53125 -1.421875 13.0625 8.265625 
Q 6.59375 17.96875 6.59375 36.375 
Q 6.59375 54.828125 13.0625 64.515625 
Q 19.53125 74.21875 31.78125 74.21875 
z
" id="DejaVuSans-48"/>
        <path d="M 12.40625 8.296875 
L 28.515625 8.296875 
L 28.515625 63.921875 
L 10.984375 60.40625 
L 10.984375 69.390625 
L 28.421875 72.90625 
L 38.28125 72.90625 
L 38.28125 8.296875 
L 54.390625 8.296875 
L 54.390625 0 
L 12.40625 0 
z
" id="DejaVuSans-49"/>
       </defs>
       <use xlink:href="#DejaVuSans-50"/>
       <use x="63.623047" xlink:href="#DejaVuSans-48"/>
       <use x="127.246094" xlink:href="#DejaVuSans-50"/>
       <use x="190.869141" xlink:href="#DejaVuSans-49"/>
      </g>
     </g>
    </g>
    <g id="xtick_12">
     <g id="line2d_12">
      <g>
       <use style="stroke:#000000;stroke-width:0.8;" x="597.842697" xlink:href="#m40470a843c" y="315"/>
      </g>
     </g>
     <g id="text_11">
      <!-- Feb -->
      <g transform="translate(588.991134 329.598437)scale(0.1 -0.1)">
       <defs>
        <path d="M 9.8125 72.90625 
L 51.703125 72.90625 
L 51.703125 64.59375 
L 19.671875 64.59375 
L 19.671875 43.109375 
L 48.578125 43.109375 
L 48.578125 34.8125 
L 19.671875 34.8125 
L 19.671875 0 
L 9.8125 0 
z
" id="DejaVuSans-70"/>
        <path d="M 48.6875 27.296875 
Q 48.6875 37.203125 44.609375 42.84375 
Q 40.53125 48.484375 33.40625 48.484375 
Q 26.265625 48.484375 22.1875 42.84375 
Q 18.109375 37.203125 18.109375 27.296875 
Q 18.109375 17.390625 22.1875 11.75 
Q 26.265625 6.109375 33.40625 6.109375 
Q 40.53125 6.109375 44.609375 11.75 
Q 48.6875 17.390625 48.6875 27.296875 
z
M 18.109375 46.390625 
Q 20.953125 51.265625 25.265625 53.625 
Q 29.59375 56 35.59375 56 
Q 45.5625 56 51.78125 48.09375 
Q 58.015625 40.1875 58.015625 27.296875 
Q 58.015625 14.40625 51.78125 6.484375 
Q 45.5625 -1.421875 35.59375 -1.421875 
Q 29.59375 -1.421875 25.265625 0.953125 
Q 20.953125 3.328125 18.109375 8.203125 
L 18.109375 0 
L 9.078125 0 
L 9.078125 75.984375 
L 18.109375 75.984375 
z
" id="DejaVuSans-98"/>
       </defs>
       <use xlink:href="#DejaVuSans-70"/>
       <use x="52.019531" xlink:href="#DejaVuSans-101"/>
       <use x="113.542969" xlink:href="#DejaVuSans-98"/>
      </g>
     </g>
    </g>
    <g id="xtick_13">
     <g id="line2d_13">
      <g>
       <use style="stroke:#000000;stroke-width:0.8;" x="641.730337" xlink:href="#m40470a843c" y="315"/>
      </g>
     </g>
     <g id="text_12">
      <!-- Mar -->
      <g transform="translate(632.296743 329.598437)scale(0.1 -0.1)">
       <use xlink:href="#DejaVuSans-77"/>
       <use x="86.279297" xlink:href="#DejaVuSans-97"/>
       <use x="147.558594" xlink:href="#DejaVuSans-114"/>
      </g>
     </g>
    </g>
    <g id="xtick_14">
     <g id="line2d_14">
      <g>
       <use style="stroke:#000000;stroke-width:0.8;" x="648" xlink:href="#m40470a843c" y="315"/>
      </g>
     </g>
    </g>
    <g id="xtick_15">
     <g id="line2d_15">
      <defs>
       <path d="M 0 0 
L 0 2 
" id="m0fb415c0f8" style="stroke:#000000;stroke-width:0.6;"/>
      </defs>
      <g>
       <use style="stroke:#000000;stroke-width:0.6;" x="93.134831" xlink:href="#m0fb415c0f8" y="315"/>
      </g>
     </g>
    </g>
    <g id="xtick_16">
     <g id="line2d_16">
      <g>
       <use style="stroke:#000000;stroke-width:0.6;" x="104.106742" xlink:href="#m0fb415c0f8" y="315"/>
      </g>
     </g>
    </g>
    <g id="xtick_17">
     <g id="line2d_17">
      <g>
       <use style="stroke:#000000;stroke-width:0.6;" x="115.078652" xlink:href="#m0fb415c0f8" y="315"/>
      </g>
     </g>
    </g>
    <g id="xtick_18">
     <g id="line2d_18">
      <g>
       <use style="stroke:#000000;stroke-width:0.6;" x="126.050562" xlink:href="#m0fb415c0f8" y="315"/>
      </g>
     </g>
    </g>
    <g id="xtick_19">
     <g id="line2d_19">
      <g>
       <use style="stroke:#000000;stroke-width:0.6;" x="137.022472" xlink:href="#m0fb415c0f8" y="315"/>
      </g>
     </g>
    </g>
    <g id="xtick_20">
     <g id="line2d_20">
      <g>
       <use style="stroke:#000000;stroke-width:0.6;" x="147.994382" xlink:href="#m0fb415c0f8" y="315"/>
      </g>
     </g>
    </g>
    <g id="xtick_21">
     <g id="line2d_21">
      <g>
       <use style="stroke:#000000;stroke-width:0.6;" x="158.966292" xlink:href="#m0fb415c0f8" y="315"/>
      </g>
     </g>
    </g>
    <g id="xtick_22">
     <g id="line2d_22">
      <g>
       <use style="stroke:#000000;stroke-width:0.6;" x="169.938202" xlink:href="#m0fb415c0f8" y="315"/>
      </g>
     </g>
    </g>
    <g id="xtick_23">
     <g id="line2d_23">
      <g>
       <use style="stroke:#000000;stroke-width:0.6;" x="180.910112" xlink:href="#m0fb415c0f8" y="315"/>
      </g>
     </g>
    </g>
    <g id="xtick_24">
     <g id="line2d_24">
      <g>
       <use style="stroke:#000000;stroke-width:0.6;" x="191.882022" xlink:href="#m0fb415c0f8" y="315"/>
      </g>
     </g>
    </g>
    <g id="xtick_25">
     <g id="line2d_25">
      <g>
       <use style="stroke:#000000;stroke-width:0.6;" x="202.853933" xlink:href="#m0fb415c0f8" y="315"/>
      </g>
     </g>
    </g>
    <g id="xtick_26">
     <g id="line2d_26">
      <g>
       <use style="stroke:#000000;stroke-width:0.6;" x="224.797753" xlink:href="#m0fb415c0f8" y="315"/>
      </g>
     </g>
    </g>
    <g id="xtick_27">
     <g id="line2d_27">
      <g>
       <use style="stroke:#000000;stroke-width:0.6;" x="235.769663" xlink:href="#m0fb415c0f8" y="315"/>
      </g>
     </g>
    </g>
    <g id="xtick_28">
     <g id="line2d_28">
      <g>
       <use style="stroke:#000000;stroke-width:0.6;" x="246.741573" xlink:href="#m0fb415c0f8" y="315"/>
      </g>
     </g>
    </g>
    <g id="xtick_29">
     <g id="line2d_29">
      <g>
       <use style="stroke:#000000;stroke-width:0.6;" x="257.713483" xlink:href="#m0fb415c0f8" y="315"/>
      </g>
     </g>
    </g>
    <g id="xtick_30">
     <g id="line2d_30">
      <g>
       <use style="stroke:#000000;stroke-width:0.6;" x="268.685393" xlink:href="#m0fb415c0f8" y="315"/>
      </g>
     </g>
    </g>
    <g id="xtick_31">
     <g id="line2d_31">
      <g>
       <use style="stroke:#000000;stroke-width:0.6;" x="279.657303" xlink:href="#m0fb415c0f8" y="315"/>
      </g>
     </g>
    </g>
    <g id="xtick_32">
     <g id="line2d_32">
      <g>
       <use style="stroke:#000000;stroke-width:0.6;" x="290.629213" xlink:href="#m0fb415c0f8" y="315"/>
      </g>
     </g>
    </g>
    <g id="xtick_33">
     <g id="line2d_33">
      <g>
       <use style="stroke:#000000;stroke-width:0.6;" x="301.601124" xlink:href="#m0fb415c0f8" y="315"/>
      </g>
     </g>
    </g>
    <g id="xtick_34">
     <g id="line2d_34">
      <g>
       <use style="stroke:#000000;stroke-width:0.6;" x="312.573034" xlink:href="#m0fb415c0f8" y="315"/>
      </g>
     </g>
    </g>
    <g id="xtick_35">
     <g id="line2d_35">
      <g>
       <use style="stroke:#000000;stroke-width:0.6;" x="323.544944" xlink:href="#m0fb415c0f8" y="315"/>
      </g>
     </g>
    </g>
    <g id="xtick_36">
     <g id="line2d_36">
      <g>
       <use style="stroke:#000000;stroke-width:0.6;" x="334.516854" xlink:href="#m0fb415c0f8" y="315"/>
      </g>
     </g>
    </g>
    <g id="xtick_37">
     <g id="line2d_37">
      <g>
       <use style="stroke:#000000;stroke-width:0.6;" x="345.488764" xlink:href="#m0fb415c0f8" y="315"/>
      </g>
     </g>
    </g>
    <g id="xtick_38">
     <g id="line2d_38">
      <g>
       <use style="stroke:#000000;stroke-width:0.6;" x="356.460674" xlink:href="#m0fb415c0f8" y="315"/>
      </g>
     </g>
    </g>
    <g id="xtick_39">
     <g id="line2d_39">
      <g>
       <use style="stroke:#000000;stroke-width:0.6;" x="367.432584" xlink:href="#m0fb415c0f8" y="315"/>
      </g>
     </g>
    </g>
    <g id="xtick_40">
     <g id="line2d_40">
      <g>
       <use style="stroke:#000000;stroke-width:0.6;" x="378.404494" xlink:href="#m0fb415c0f8" y="315"/>
      </g>
     </g>
    </g>
    <g id="xtick_41">
     <g id="line2d_41">
      <g>
       <use style="stroke:#000000;stroke-width:0.6;" x="389.376404" xlink:href="#m0fb415c0f8" y="315"/>
      </g>
     </g>
    </g>
    <g id="xtick_42">
     <g id="line2d_42">
      <g>
       <use style="stroke:#000000;stroke-width:0.6;" x="400.348315" xlink:href="#m0fb415c0f8" y="315"/>
      </g>
     </g>
    </g>
    <g id="xtick_43">
     <g id="line2d_43">
      <g>
       <use style="stroke:#000000;stroke-width:0.6;" x="411.320225" xlink:href="#m0fb415c0f8" y="315"/>
      </g>
     </g>
    </g>
    <g id="xtick_44">
     <g id="line2d_44">
      <g>
       <use style="stroke:#000000;stroke-width:0.6;" x="422.292135" xlink:href="#m0fb415c0f8" y="315"/>
      </g>
     </g>
    </g>
    <g id="xtick_45">
     <g id="line2d_45">
      <g>
       <use style="stroke:#000000;stroke-width:0.6;" x="433.264045" xlink:href="#m0fb415c0f8" y="315"/>
      </g>
     </g>
    </g>
    <g id="xtick_46">
     <g id="line2d_46">
      <g>
       <use style="stroke:#000000;stroke-width:0.6;" x="444.235955" xlink:href="#m0fb415c0f8" y="315"/>
      </g>
     </g>
    </g>
    <g id="xtick_47">
     <g id="line2d_47">
      <g>
       <use style="stroke:#000000;stroke-width:0.6;" x="455.207865" xlink:href="#m0fb415c0f8" y="315"/>
      </g>
     </g>
    </g>
    <g id="xtick_48">
     <g id="line2d_48">
      <g>
       <use style="stroke:#000000;stroke-width:0.6;" x="466.179775" xlink:href="#m0fb415c0f8" y="315"/>
      </g>
     </g>
    </g>
    <g id="xtick_49">
     <g id="line2d_49">
      <g>
       <use style="stroke:#000000;stroke-width:0.6;" x="477.151685" xlink:href="#m0fb415c0f8" y="315"/>
      </g>
     </g>
    </g>
    <g id="xtick_50">
     <g id="line2d_50">
      <g>
       <use style="stroke:#000000;stroke-width:0.6;" x="488.123596" xlink:href="#m0fb415c0f8" y="315"/>
      </g>
     </g>
    </g>
    <g id="xtick_51">
     <g id="line2d_51">
      <g>
       <use style="stroke:#000000;stroke-width:0.6;" x="499.095506" xlink:href="#m0fb415c0f8" y="315"/>
      </g>
     </g>
    </g>
    <g id="xtick_52">
     <g id="line2d_52">
      <g>
       <use style="stroke:#000000;stroke-width:0.6;" x="510.067416" xlink:href="#m0fb415c0f8" y="315"/>
      </g>
     </g>
    </g>
    <g id="xtick_53">
     <g id="line2d_53">
      <g>
       <use style="stroke:#000000;stroke-width:0.6;" x="521.039326" xlink:href="#m0fb415c0f8" y="315"/>
      </g>
     </g>
    </g>
    <g id="xtick_54">
     <g id="line2d_54">
      <g>
       <use style="stroke:#000000;stroke-width:0.6;" x="532.011236" xlink:href="#m0fb415c0f8" y="315"/>
      </g>
     </g>
    </g>
    <g id="xtick_55">
     <g id="line2d_55">
      <g>
       <use style="stroke:#000000;stroke-width:0.6;" x="542.983146" xlink:href="#m0fb415c0f8" y="315"/>
      </g>
     </g>
    </g>
    <g id="xtick_56">
     <g id="line2d_56">
      <g>
       <use style="stroke:#000000;stroke-width:0.6;" x="553.955056" xlink:href="#m0fb415c0f8" y="315"/>
      </g>
     </g>
    </g>
    <g id="xtick_57">
     <g id="line2d_57">
      <g>
       <use style="stroke:#000000;stroke-width:0.6;" x="564.926966" xlink:href="#m0fb415c0f8" y="315"/>
      </g>
     </g>
    </g>
    <g id="xtick_58">
     <g id="line2d_58">
      <g>
       <use style="stroke:#000000;stroke-width:0.6;" x="575.898876" xlink:href="#m0fb415c0f8" y="315"/>
      </g>
     </g>
    </g>
    <g id="xtick_59">
     <g id="line2d_59">
      <g>
       <use style="stroke:#000000;stroke-width:0.6;" x="586.870787" xlink:href="#m0fb415c0f8" y="315"/>
      </g>
     </g>
    </g>
    <g id="xtick_60">
     <g id="line2d_60">
      <g>
       <use style="stroke:#000000;stroke-width:0.6;" x="608.814607" xlink:href="#m0fb415c0f8" y="315"/>
      </g>
     </g>
    </g>
    <g id="xtick_61">
     <g id="line2d_61">
      <g>
       <use style="stroke:#000000;stroke-width:0.6;" x="619.786517" xlink:href="#m0fb415c0f8" y="315"/>
      </g>
     </g>
    </g>
    <g id="xtick_62">
     <g id="line2d_62">
      <g>
       <use style="stroke:#000000;stroke-width:0.6;" x="630.758427" xlink:href="#m0fb415c0f8" y="315"/>
      </g>
     </g>
    </g>
    <g id="text_13">
     <!-- date -->
     <g transform="translate(357.725 354.474375)scale(0.1 -0.1)">
      <defs>
       <path d="M 45.40625 46.390625 
L 45.40625 75.984375 
L 54.390625 75.984375 
L 54.390625 0 
L 45.40625 0 
L 45.40625 8.203125 
Q 42.578125 3.328125 38.25 0.953125 
Q 33.9375 -1.421875 27.875 -1.421875 
Q 17.96875 -1.421875 11.734375 6.484375 
Q 5.515625 14.40625 5.515625 27.296875 
Q 5.515625 40.1875 11.734375 48.09375 
Q 17.96875 56 27.875 56 
Q 33.9375 56 38.25 53.625 
Q 42.578125 51.265625 45.40625 46.390625 
z
M 14.796875 27.296875 
Q 14.796875 17.390625 18.875 11.75 
Q 22.953125 6.109375 30.078125 6.109375 
Q 37.203125 6.109375 41.296875 11.75 
Q 45.40625 17.390625 45.40625 27.296875 
Q 45.40625 37.203125 41.296875 42.84375 
Q 37.203125 48.484375 30.078125 48.484375 
Q 22.953125 48.484375 18.875 42.84375 
Q 14.796875 37.203125 14.796875 27.296875 
z
" id="DejaVuSans-100"/>
      </defs>
      <use xlink:href="#DejaVuSans-100"/>
      <use x="63.476562" xlink:href="#DejaVuSans-97"/>
      <use x="124.755859" xlink:href="#DejaVuSans-116"/>
      <use x="163.964844" xlink:href="#DejaVuSans-101"/>
     </g>
    </g>
   </g>
   <g id="matplotlib.axis_2">
    <g id="ytick_1">
     <g id="line2d_63">
      <defs>
       <path d="M 0 0 
L -3.5 0 
" id="m9b4fc65019" style="stroke:#000000;stroke-width:0.8;"/>
      </defs>
      <g>
       <use style="stroke:#000000;stroke-width:0.8;" x="90" xlink:href="#m9b4fc65019" y="310.639369"/>
      </g>
     </g>
     <g id="text_14">
      <!-- $\mathdefault{10^{-1}}$ -->
      <g transform="translate(59.5 314.438588)scale(0.1 -0.1)">
       <defs>
        <path d="M 10.59375 35.5 
L 73.1875 35.5 
L 73.1875 27.203125 
L 10.59375 27.203125 
z
" id="DejaVuSans-8722"/>
       </defs>
       <use transform="translate(0 0.684375)" xlink:href="#DejaVuSans-49"/>
       <use transform="translate(63.623047 0.684375)" xlink:href="#DejaVuSans-48"/>
       <use transform="translate(128.203125 38.965625)scale(0.7)" xlink:href="#DejaVuSans-8722"/>
       <use transform="translate(186.855469 38.965625)scale(0.7)" xlink:href="#DejaVuSans-49"/>
      </g>
     </g>
    </g>
    <g id="ytick_2">
     <g id="line2d_64">
      <g>
       <use style="stroke:#000000;stroke-width:0.8;" x="90" xlink:href="#m9b4fc65019" y="230.398201"/>
      </g>
     </g>
     <g id="text_15">
      <!-- $\mathdefault{10^{0}}$ -->
      <g transform="translate(65.4 234.19742)scale(0.1 -0.1)">
       <use transform="translate(0 0.765625)" xlink:href="#DejaVuSans-49"/>
       <use transform="translate(63.623047 0.765625)" xlink:href="#DejaVuSans-48"/>
       <use transform="translate(128.203125 39.046875)scale(0.7)" xlink:href="#DejaVuSans-48"/>
      </g>
     </g>
    </g>
    <g id="ytick_3">
     <g id="line2d_65">
      <g>
       <use style="stroke:#000000;stroke-width:0.8;" x="90" xlink:href="#m9b4fc65019" y="150.157033"/>
      </g>
     </g>
     <g id="text_16">
      <!-- $\mathdefault{10^{1}}$ -->
      <g transform="translate(65.4 153.956252)scale(0.1 -0.1)">
       <use transform="translate(0 0.684375)" xlink:href="#DejaVuSans-49"/>
       <use transform="translate(63.623047 0.684375)" xlink:href="#DejaVuSans-48"/>
       <use transform="translate(128.203125 38.965625)scale(0.7)" xlink:href="#DejaVuSans-49"/>
      </g>
     </g>
    </g>
    <g id="ytick_4">
     <g id="line2d_66">
      <g>
       <use style="stroke:#000000;stroke-width:0.8;" x="90" xlink:href="#m9b4fc65019" y="69.915865"/>
      </g>
     </g>
     <g id="text_17">
      <!-- $\mathdefault{10^{2}}$ -->
      <g transform="translate(65.4 73.715084)scale(0.1 -0.1)">
       <use transform="translate(0 0.765625)" xlink:href="#DejaVuSans-49"/>
       <use transform="translate(63.623047 0.765625)" xlink:href="#DejaVuSans-48"/>
       <use transform="translate(128.203125 39.046875)scale(0.7)" xlink:href="#DejaVuSans-50"/>
      </g>
     </g>
    </g>
    <g id="ytick_5">
     <g id="line2d_67">
      <defs>
       <path d="M 0 0 
L -2 0 
" id="m0b28d71742" style="stroke:#000000;stroke-width:0.6;"/>
      </defs>
      <g>
       <use style="stroke:#000000;stroke-width:0.6;" x="90" xlink:href="#m0b28d71742" y="314.311004"/>
      </g>
     </g>
    </g>
    <g id="ytick_6">
     <g id="line2d_68">
      <g>
       <use style="stroke:#000000;stroke-width:0.6;" x="90" xlink:href="#m0b28d71742" y="286.484371"/>
      </g>
     </g>
    </g>
    <g id="ytick_7">
     <g id="line2d_69">
      <g>
       <use style="stroke:#000000;stroke-width:0.6;" x="90" xlink:href="#m0b28d71742" y="272.354603"/>
      </g>
     </g>
    </g>
    <g id="ytick_8">
     <g id="line2d_70">
      <g>
       <use style="stroke:#000000;stroke-width:0.6;" x="90" xlink:href="#m0b28d71742" y="262.329372"/>
      </g>
     </g>
    </g>
    <g id="ytick_9">
     <g id="line2d_71">
      <g>
       <use style="stroke:#000000;stroke-width:0.6;" x="90" xlink:href="#m0b28d71742" y="254.5532"/>
      </g>
     </g>
    </g>
    <g id="ytick_10">
     <g id="line2d_72">
      <g>
       <use style="stroke:#000000;stroke-width:0.6;" x="90" xlink:href="#m0b28d71742" y="248.199604"/>
      </g>
     </g>
    </g>
    <g id="ytick_11">
     <g id="line2d_73">
      <g>
       <use style="stroke:#000000;stroke-width:0.6;" x="90" xlink:href="#m0b28d71742" y="242.827715"/>
      </g>
     </g>
    </g>
    <g id="ytick_12">
     <g id="line2d_74">
      <g>
       <use style="stroke:#000000;stroke-width:0.6;" x="90" xlink:href="#m0b28d71742" y="238.174374"/>
      </g>
     </g>
    </g>
    <g id="ytick_13">
     <g id="line2d_75">
      <g>
       <use style="stroke:#000000;stroke-width:0.6;" x="90" xlink:href="#m0b28d71742" y="234.069836"/>
      </g>
     </g>
    </g>
    <g id="ytick_14">
     <g id="line2d_76">
      <g>
       <use style="stroke:#000000;stroke-width:0.6;" x="90" xlink:href="#m0b28d71742" y="206.243203"/>
      </g>
     </g>
    </g>
    <g id="ytick_15">
     <g id="line2d_77">
      <g>
       <use style="stroke:#000000;stroke-width:0.6;" x="90" xlink:href="#m0b28d71742" y="192.113434"/>
      </g>
     </g>
    </g>
    <g id="ytick_16">
     <g id="line2d_78">
      <g>
       <use style="stroke:#000000;stroke-width:0.6;" x="90" xlink:href="#m0b28d71742" y="182.088204"/>
      </g>
     </g>
    </g>
    <g id="ytick_17">
     <g id="line2d_79">
      <g>
       <use style="stroke:#000000;stroke-width:0.6;" x="90" xlink:href="#m0b28d71742" y="174.312031"/>
      </g>
     </g>
    </g>
    <g id="ytick_18">
     <g id="line2d_80">
      <g>
       <use style="stroke:#000000;stroke-width:0.6;" x="90" xlink:href="#m0b28d71742" y="167.958436"/>
      </g>
     </g>
    </g>
    <g id="ytick_19">
     <g id="line2d_81">
      <g>
       <use style="stroke:#000000;stroke-width:0.6;" x="90" xlink:href="#m0b28d71742" y="162.586547"/>
      </g>
     </g>
    </g>
    <g id="ytick_20">
     <g id="line2d_82">
      <g>
       <use style="stroke:#000000;stroke-width:0.6;" x="90" xlink:href="#m0b28d71742" y="157.933206"/>
      </g>
     </g>
    </g>
    <g id="ytick_21">
     <g id="line2d_83">
      <g>
       <use style="stroke:#000000;stroke-width:0.6;" x="90" xlink:href="#m0b28d71742" y="153.828667"/>
      </g>
     </g>
    </g>
    <g id="ytick_22">
     <g id="line2d_84">
      <g>
       <use style="stroke:#000000;stroke-width:0.6;" x="90" xlink:href="#m0b28d71742" y="126.002034"/>
      </g>
     </g>
    </g>
    <g id="ytick_23">
     <g id="line2d_85">
      <g>
       <use style="stroke:#000000;stroke-width:0.6;" x="90" xlink:href="#m0b28d71742" y="111.872266"/>
      </g>
     </g>
    </g>
    <g id="ytick_24">
     <g id="line2d_86">
      <g>
       <use style="stroke:#000000;stroke-width:0.6;" x="90" xlink:href="#m0b28d71742" y="101.847036"/>
      </g>
     </g>
    </g>
    <g id="ytick_25">
     <g id="line2d_87">
      <g>
       <use style="stroke:#000000;stroke-width:0.6;" x="90" xlink:href="#m0b28d71742" y="94.070863"/>
      </g>
     </g>
    </g>
    <g id="ytick_26">
     <g id="line2d_88">
      <g>
       <use style="stroke:#000000;stroke-width:0.6;" x="90" xlink:href="#m0b28d71742" y="87.717268"/>
      </g>
     </g>
    </g>
    <g id="ytick_27">
     <g id="line2d_89">
      <g>
       <use style="stroke:#000000;stroke-width:0.6;" x="90" xlink:href="#m0b28d71742" y="82.345379"/>
      </g>
     </g>
    </g>
    <g id="ytick_28">
     <g id="line2d_90">
      <g>
       <use style="stroke:#000000;stroke-width:0.6;" x="90" xlink:href="#m0b28d71742" y="77.692037"/>
      </g>
     </g>
    </g>
    <g id="ytick_29">
     <g id="line2d_91">
      <g>
       <use style="stroke:#000000;stroke-width:0.6;" x="90" xlink:href="#m0b28d71742" y="73.587499"/>
      </g>
     </g>
    </g>
    <g id="ytick_30">
     <g id="line2d_92">
      <g>
       <use style="stroke:#000000;stroke-width:0.6;" x="90" xlink:href="#m0b28d71742" y="45.760866"/>
      </g>
     </g>
    </g>
   </g>
   <g id="line2d_93">
    <path clip-path="url(#p2e7a8442a6)" d="M 94.699323 361 
L 94.702247 211.274137 
L 96.269663 196.026669 
L 97.837079 190.6985 
L 100.97191 186.676078 
L 102.539326 186.659792 
L 104.106742 185.144446 
L 105.674157 187.040225 
L 107.241573 188.490109 
L 108.808989 188.834836 
L 110.376404 191.220262 
L 111.94382 192.918788 
L 113.511236 194.986814 
L 115.078652 195.868133 
L 116.646067 198.474563 
L 119.780899 203.109057 
L 126.050562 211.789257 
L 129.185393 217.047472 
L 130.752809 219.247809 
L 137.022472 228.966905 
L 138.589888 231.47305 
L 140.157303 233.739627 
L 141.724719 236.290418 
L 143.292135 238.610135 
L 147.994382 246.13537 
L 151.129213 250.930539 
L 152.696629 252.945897 
L 154.264045 255.629441 
L 157.398876 260.378619 
L 158.966292 262.360406 
L 160.533708 264.757204 
L 165.235955 270.874554 
L 166.803371 272.487889 
L 168.370787 274.292889 
L 171.505618 277.314962 
L 173.073034 278.233789 
L 174.640449 279.568981 
L 176.207865 280.556441 
L 177.775281 281.178093 
L 179.342697 281.945549 
L 180.910112 282.056134 
L 182.477528 282.01553 
L 185.61236 281.557359 
L 187.179775 280.547037 
L 188.747191 280.307488 
L 190.314607 279.129022 
L 191.882022 277.715863 
L 193.449438 276.081459 
L 195.016854 274.202207 
L 196.58427 272.077758 
L 198.151685 269.723336 
L 201.286517 264.402212 
L 204.421348 258.387099 
L 207.55618 251.862508 
L 216.960674 231.831465 
L 220.095506 225.947297 
L 223.230337 220.852659 
L 224.797753 218.645255 
L 226.365169 216.675655 
L 227.932584 214.944722 
L 229.5 213.448093 
L 231.067416 212.176535 
L 232.634831 211.116926 
L 234.202247 210.253085 
L 235.769663 209.567153 
L 237.337079 209.040054 
L 238.904494 208.651646 
L 242.039326 208.203568 
L 245.174157 208.045541 
L 253.011236 207.856661 
L 256.146067 207.504762 
L 259.280899 206.859399 
L 262.41573 205.881826 
L 265.550562 204.56991 
L 268.685393 202.949032 
L 271.820225 201.077919 
L 276.522472 197.940858 
L 281.224719 194.541222 
L 285.926966 190.902516 
L 290.629213 186.93086 
L 295.331461 182.560342 
L 301.601124 176.264794 
L 306.303371 171.548824 
L 309.438202 168.677633 
L 312.573034 166.197798 
L 314.140449 165.147486 
L 315.707865 164.241695 
L 317.275281 163.490922 
L 318.842697 162.901771 
L 320.410112 162.475685 
L 321.977528 162.210223 
L 323.544944 162.099358 
L 325.11236 162.133691 
L 326.679775 162.300962 
L 329.814607 162.971528 
L 332.949438 163.962719 
L 340.786517 166.724692 
L 343.921348 167.480005 
L 345.488764 167.691342 
L 347.05618 167.763673 
L 348.623596 167.678138 
L 350.191011 167.417511 
L 351.758427 166.965762 
L 353.325843 166.309315 
L 354.893258 165.439281 
L 356.460674 164.352791 
L 358.02809 163.053138 
L 359.595506 161.547055 
L 361.162921 159.843851 
L 364.297753 155.910608 
L 367.432584 151.429134 
L 373.702247 141.72386 
L 376.837079 137.009793 
L 379.97191 132.722928 
L 383.106742 129.051426 
L 384.674157 127.491655 
L 386.241573 126.134615 
L 387.808989 124.991124 
L 389.376404 124.069387 
L 390.94382 123.375229 
L 392.511236 122.912693 
L 394.078652 122.685277 
L 395.646067 122.695631 
L 397.213483 122.943766 
L 398.780899 123.4267 
L 400.348315 124.139321 
L 401.91573 125.075581 
L 403.483146 126.228712 
L 405.050562 127.591144 
L 406.617978 129.154833 
L 408.185393 130.911393 
L 411.320225 134.966028 
L 414.455056 139.675818 
L 417.589888 144.958132 
L 420.724719 150.72997 
L 423.859551 156.912278 
L 428.561798 166.780507 
L 434.831461 180.61936 
L 444.235955 201.497319 
L 448.938202 211.328054 
L 452.073034 217.427434 
L 455.207865 223.038414 
L 458.342697 228.038621 
L 459.910112 230.266283 
L 461.477528 232.286429 
L 463.044944 234.078966 
L 464.61236 235.624699 
L 466.179775 236.904219 
L 467.747191 237.897418 
L 469.314607 238.584863 
L 470.882022 238.949205 
L 472.449438 238.977383 
L 474.016854 238.663305 
L 475.58427 238.006266 
L 477.151685 237.009234 
L 478.719101 235.679002 
L 480.286517 234.025682 
L 481.853933 232.06211 
L 483.421348 229.805561 
L 484.988764 227.279322 
L 488.123596 221.542675 
L 491.258427 215.140782 
L 495.960674 204.884647 
L 505.365169 184.208885 
L 513.202247 167.653844 
L 527.308989 138.565897 
L 532.011236 129.251915 
L 535.146067 123.357348 
L 538.280899 117.806876 
L 541.41573 112.638984 
L 544.550562 107.864155 
L 547.685393 103.481917 
L 550.820225 99.496105 
L 553.955056 95.920108 
L 557.089888 92.772339 
L 560.224719 90.060578 
L 563.359551 87.777349 
L 566.494382 85.890213 
L 569.629213 84.35397 
L 572.764045 83.125748 
L 575.898876 82.17456 
L 579.033708 81.48768 
L 582.168539 81.05899 
L 585.303371 80.891289 
L 588.438202 81.011115 
L 591.573034 81.456722 
L 594.707865 82.273864 
L 597.842697 83.508651 
L 600.977528 85.198873 
L 604.11236 87.364799 
L 607.247191 89.999365 
L 610.382022 93.056798 
L 613.516854 96.456583 
L 618.219101 101.991828 
L 630.758427 117.207177 
L 635.460674 122.362255 
L 638.595506 125.510214 
L 641.730337 128.410775 
L 644.865169 131.052773 
L 648 133.415295 
L 648 133.415295 
" style="fill:none;stroke:#008000;stroke-linecap:square;stroke-width:1.5;"/>
   </g>
   <g id="line2d_94">
    <path clip-path="url(#p2e7a8442a6)" d="M 90 116.099206 
L 91.567416 302.645455 
L 93.134831 210.252123 
L 94.702247 188.103049 
L 96.269663 186.897338 
L 99.404494 194.108835 
L 100.97191 196.773603 
L 113.511236 216.308428 
L 119.780899 226.490313 
L 121.348315 229.5018 
L 124.483146 234.640409 
L 138.589888 258.86727 
L 143.292135 266.379125 
L 146.426966 271.00348 
L 149.561798 275.223261 
L 152.696629 278.9578 
L 155.831461 282.139467 
L 157.398876 283.495639 
L 158.966292 284.676568 
L 160.533708 285.674451 
L 162.101124 286.479787 
L 163.668539 287.093927 
L 165.235955 287.519935 
L 166.803371 287.753756 
L 168.370787 287.7783 
L 169.938202 287.577481 
L 171.505618 287.140081 
L 173.073034 286.447467 
L 174.640449 285.50227 
L 176.207865 284.339501 
L 177.775281 282.971747 
L 179.342697 281.381471 
L 180.910112 279.558186 
L 182.477528 277.491775 
L 184.044944 275.181934 
L 187.179775 269.903293 
L 190.314607 263.909391 
L 193.449438 257.349486 
L 196.58427 250.392541 
L 205.988764 228.902085 
L 209.123596 222.573596 
L 210.691011 219.773875 
L 212.258427 217.247112 
L 213.825843 214.996234 
L 215.393258 213.042846 
L 216.960674 211.404523 
L 218.52809 210.07624 
L 220.095506 209.040827 
L 221.662921 208.275414 
L 223.230337 207.751927 
L 224.797753 207.439176 
L 226.365169 207.299937 
L 229.5 207.408364 
L 232.634831 207.83762 
L 237.337079 208.56216 
L 240.47191 208.804322 
L 243.606742 208.720104 
L 245.174157 208.51724 
L 248.308989 207.753672 
L 251.44382 206.571006 
L 254.578652 204.993956 
L 257.713483 203.087948 
L 260.848315 200.92378 
L 268.685393 195.028027 
L 274.955056 190.122253 
L 278.089888 187.508917 
L 281.224719 184.678153 
L 285.926966 179.999006 
L 298.466292 166.831356 
L 300.033708 165.458212 
L 301.601124 164.248312 
L 303.168539 163.209231 
L 304.735955 162.333826 
L 306.303371 161.648607 
L 307.870787 161.188984 
L 309.438202 160.945979 
L 311.005618 160.912045 
L 312.573034 161.09686 
L 314.140449 161.473383 
L 315.707865 162.001668 
L 318.842697 163.439032 
L 328.247191 168.478483 
L 329.814607 169.102069 
L 331.382022 169.603471 
L 332.949438 169.963347 
L 334.516854 170.161537 
L 336.08427 170.179096 
L 337.651685 169.97871 
L 339.219101 169.547412 
L 340.786517 168.891133 
L 342.353933 168.009198 
L 343.921348 166.896876 
L 345.488764 165.549381 
L 347.05618 163.958959 
L 348.623596 162.134994 
L 351.758427 157.914828 
L 354.893258 153.111526 
L 359.595506 145.155304 
L 364.297753 137.156495 
L 367.432584 132.214876 
L 369 129.978317 
L 370.567416 127.953078 
L 372.134831 126.156643 
L 373.702247 124.599092 
L 375.269663 123.285444 
L 376.837079 122.230703 
L 378.404494 121.446221 
L 379.97191 120.94195 
L 381.539326 120.723443 
L 383.106742 120.792691 
L 384.674157 121.147878 
L 386.241573 121.785665 
L 387.808989 122.707192 
L 389.376404 123.92531 
L 390.94382 125.437788 
L 392.511236 127.215349 
L 394.078652 129.232766 
L 395.646067 131.476503 
L 397.213483 133.942058 
L 400.348315 139.483553 
L 403.483146 145.764192 
L 406.617978 152.645533 
L 409.752809 160.002307 
L 414.455056 171.702261 
L 420.724719 188.124808 
L 428.561798 208.60967 
L 431.696629 216.410557 
L 434.831461 223.709877 
L 437.966292 230.353947 
L 441.101124 236.173986 
L 442.668539 238.72869 
L 444.235955 241.030497 
L 445.803371 243.065675 
L 447.370787 244.840638 
L 448.938202 246.338324 
L 450.505618 247.530041 
L 452.073034 248.411017 
L 453.640449 248.970203 
L 455.207865 249.19457 
L 456.775281 249.075255 
L 458.342697 248.633977 
L 459.910112 247.891967 
L 461.477528 246.823957 
L 463.044944 245.424553 
L 464.61236 243.710913 
L 466.179775 241.698134 
L 467.747191 239.42099 
L 470.882022 234.230276 
L 474.016854 228.211312 
L 477.151685 221.458515 
L 481.853933 210.423143 
L 489.691011 192.01851 
L 494.393258 181.595753 
L 500.662921 168.332829 
L 517.904494 132.834307 
L 522.606742 123.47454 
L 525.741573 117.659219 
L 528.876404 112.241056 
L 532.011236 107.332802 
L 535.146067 102.85915 
L 538.280899 98.796617 
L 541.41573 95.134026 
L 544.550562 91.890698 
L 547.685393 89.117116 
L 550.820225 86.839662 
L 553.955056 85.033569 
L 557.089888 83.66424 
L 560.224719 82.616693 
L 563.359551 81.824538 
L 566.494382 81.259775 
L 569.629213 80.922116 
L 572.764045 80.859029 
L 575.898876 81.059101 
L 579.033708 81.538907 
L 582.168539 82.427624 
L 583.735955 83.041682 
L 585.303371 83.776602 
L 586.870787 84.647576 
L 588.438202 85.663731 
L 590.005618 86.823247 
L 591.573034 88.135348 
L 594.707865 91.222958 
L 597.842697 94.88709 
L 600.977528 99.028655 
L 615.08427 118.59669 
L 618.219101 122.528174 
L 621.353933 126.113461 
L 624.488764 129.314887 
L 627.623596 132.176604 
L 630.758427 134.739595 
L 633.893258 137.036491 
L 637.02809 139.035893 
L 640.162921 140.714493 
L 643.297753 141.965473 
L 644.865169 142.395858 
L 646.432584 142.683873 
L 648 142.840531 
L 648 142.840531 
" style="fill:none;stroke:#0000ff;stroke-linecap:square;stroke-width:1.5;"/>
   </g>
   <g id="line2d_95">
    <path clip-path="url(#p2e7a8442a6)" d="M 105.671135 361 
L 105.674157 206.243203 
L 110.376404 206.243203 
L 110.379427 361 
M 113.508685 361 
L 113.511236 230.398201 
L 115.078652 167.958436 
L 116.646067 230.398201 
L 118.213483 174.312031 
L 121.348315 174.312031 
L 122.91573 230.398201 
L 126.050562 230.398201 
L 126.053113 361 
M 129.182096 361 
L 129.185393 192.113434 
L 129.188691 361 
M 137.019921 361 
L 137.022472 230.398201 
L 138.589888 206.243203 
L 140.157303 230.398201 
L 141.724719 153.828667 
L 143.292135 230.398201 
L 143.294686 361 
M 151.126662 361 
L 151.129213 230.398201 
L 151.131765 361 
M 157.396325 361 
L 157.398876 230.398201 
L 157.401428 361 
M 160.531157 361 
L 160.533708 230.398201 
L 160.536259 361 
M 169.93518 361 
L 169.938202 206.243203 
L 169.941224 361 
M 215.390707 361 
L 215.393258 230.398201 
L 216.960674 230.398201 
L 218.52809 206.243203 
L 220.095506 206.243203 
L 221.662921 230.398201 
L 224.797753 230.398201 
L 226.365169 141.014085 
L 227.932584 182.088204 
L 231.067416 230.398201 
L 232.634831 182.088204 
L 234.202247 206.243203 
L 235.769663 206.243203 
L 237.337079 174.312031 
L 238.904494 206.243203 
L 240.47191 230.398201 
L 242.039326 230.398201 
L 242.041877 361 
M 246.739022 361 
L 246.741573 230.398201 
L 246.744124 361 
M 249.873382 361 
L 249.876404 206.243203 
L 249.879427 361 
M 254.57563 361 
L 254.578652 206.243203 
L 254.581674 361 
M 257.70999 361 
L 257.713483 182.088204 
L 259.280899 206.243203 
L 259.283921 361 
M 263.980595 361 
L 263.983146 230.398201 
L 265.550562 182.088204 
L 265.554055 361 
M 268.682096 361 
L 268.685393 192.113434 
L 268.688691 361 
M 271.816581 361 
L 271.820225 174.312031 
L 273.38764 230.398201 
L 274.955056 192.113434 
L 276.522472 230.398201 
L 278.089888 174.312031 
L 279.657303 167.958436 
L 281.224719 162.586547 
L 282.792135 167.958436 
L 284.359551 206.243203 
L 285.926966 230.398201 
L 287.494382 182.088204 
L 289.061798 230.398201 
L 290.629213 230.398201 
L 292.196629 192.113434 
L 293.764045 192.113434 
L 295.331461 182.088204 
L 296.898876 230.398201 
L 298.466292 230.398201 
L 300.033708 206.243203 
L 301.601124 167.958436 
L 303.168539 206.243203 
L 304.735955 162.586547 
L 306.303371 167.958436 
L 307.870787 230.398201 
L 309.438202 206.243203 
L 311.005618 157.933206 
L 312.573034 162.586547 
L 314.140449 150.157033 
L 315.707865 153.828667 
L 317.275281 129.673669 
L 318.842697 150.157033 
L 320.410112 192.113434 
L 321.977528 157.933206 
L 323.544944 131.665542 
L 325.11236 136.027265 
L 326.679775 192.113434 
L 328.247191 136.027265 
L 329.814607 192.113434 
L 331.382022 141.014085 
L 332.949438 192.113434 
L 334.516854 192.113434 
L 336.08427 206.243203 
L 337.651685 182.088204 
L 339.219101 143.803437 
L 340.786517 182.088204 
L 340.79001 361 
M 343.91758 361 
L 343.921348 167.958436 
L 345.488764 182.088204 
L 347.05618 167.958436 
L 348.623596 167.958436 
L 350.191011 146.835636 
L 351.758427 182.088204 
L 353.325843 230.398201 
L 353.328394 361 
M 356.457652 361 
L 356.460674 206.243203 
L 358.02809 167.958436 
L 359.595506 192.113434 
L 361.162921 157.933206 
L 362.730337 146.835636 
L 364.297753 153.828667 
L 365.865169 174.312031 
L 367.432584 153.828667 
L 369 153.828667 
L 370.567416 174.312031 
L 372.134831 153.828667 
L 373.702247 126.002034 
L 375.269663 153.828667 
L 376.837079 121.131569 
L 378.404494 121.131569 
L 379.97191 129.673669 
L 381.539326 126.002034 
L 383.106742 113.053677 
L 384.674157 136.027265 
L 386.241573 136.027265 
L 387.808989 230.398201 
L 389.376404 153.828667 
L 390.94382 111.872266 
L 392.511236 96.97657 
L 394.078652 114.27655 
L 395.646067 109.623209 
L 397.213483 115.543901 
L 398.780899 143.803437 
L 400.348315 131.665542 
L 401.91573 146.835636 
L 403.483146 91.388902 
L 405.050562 109.623209 
L 406.617978 126.002034 
L 408.185393 174.312031 
L 409.752809 131.665542 
L 412.88764 131.665542 
L 414.455056 136.027265 
L 416.022472 129.673669 
L 417.589888 182.088204 
L 419.157303 206.243203 
L 420.724719 157.933206 
L 422.292135 141.014085 
L 423.859551 192.113434 
L 425.426966 146.835636 
L 426.994382 206.243203 
L 428.561798 143.803437 
L 430.129213 230.398201 
L 431.696629 162.586547 
L 433.264045 146.835636 
L 434.831461 167.958436 
L 436.398876 146.835636 
L 437.966292 162.586547 
L 439.533708 230.398201 
L 439.536259 361 
M 442.665988 361 
L 442.668539 230.398201 
L 444.235955 230.398201 
L 445.803371 192.113434 
L 447.370787 230.398201 
L 448.938202 206.243203 
L 448.941224 361 
M 455.204843 361 
L 455.207865 206.243203 
L 456.775281 230.398201 
L 456.777832 361 
M 461.474977 361 
L 461.477528 230.398201 
L 461.480079 361 
M 464.609808 361 
L 464.61236 230.398201 
L 464.614911 361 
M 477.148663 361 
L 477.151685 206.243203 
L 478.719101 230.398201 
L 478.721652 361 
M 481.851381 361 
L 481.853933 230.398201 
L 481.856484 361 
M 486.553158 361 
L 486.55618 206.243203 
L 486.559202 361 
M 491.255405 361 
L 491.258427 206.243203 
L 492.825843 206.243203 
L 494.393258 167.958436 
L 495.960674 192.113434 
L 497.52809 192.113434 
L 499.095506 167.958436 
L 500.662921 230.398201 
L 502.230337 167.958436 
L 503.797753 167.958436 
L 505.365169 206.243203 
L 506.932584 192.113434 
L 508.5 174.312031 
L 510.067416 192.113434 
L 511.634831 174.312031 
L 513.202247 167.958436 
L 514.769663 143.803437 
L 516.337079 206.243203 
L 517.904494 192.113434 
L 519.47191 182.088204 
L 521.039326 133.778207 
L 522.606742 157.933206 
L 524.174157 174.312031 
L 525.741573 126.002034 
L 527.308989 174.312031 
L 528.876404 182.088204 
L 530.44382 146.835636 
L 532.011236 99.326784 
L 535.146067 119.648439 
L 536.713483 116.859087 
L 538.280899 103.63452 
L 539.848315 153.828667 
L 541.41573 111.872266 
L 542.983146 122.680637 
L 544.550562 116.859087 
L 546.117978 113.053677 
L 547.685393 107.510544 
L 549.252809 88.302967 
L 550.820225 122.680637 
L 552.38764 118.225862 
L 553.955056 94.774893 
L 555.522472 79.479521 
L 557.089888 79.479521 
L 558.657303 87.14125 
L 560.224719 66.279096 
L 561.792135 122.680637 
L 563.359551 90.749466 
L 564.926966 88.898679 
L 566.494382 82.846802 
L 568.061798 80.408864 
L 569.629213 94.774893 
L 571.196629 99.326784 
L 572.764045 91.388902 
L 574.331461 126.002034 
L 575.898876 77.259134 
L 577.466292 64.74368 
L 579.033708 62.986251 
L 580.601124 79.479521 
L 582.168539 83.355545 
L 583.735955 167.958436 
L 586.870787 81.851069 
L 588.438202 75.579373 
L 590.005618 75.171786 
L 591.573034 81.363672 
L 593.140449 82.846802 
L 594.707865 141.014085 
L 596.275281 110.729597 
L 597.842697 72.44483 
L 599.410112 67.885293 
L 600.977528 72.821572 
L 602.544944 75.579373 
L 604.11236 69.915865 
L 605.679775 98.525639 
L 607.247191 101.847036 
L 608.814607 55.554545 
L 610.382022 88.302967 
L 611.949438 82.345379 
L 613.516854 108.550869 
L 615.08427 100.98654 
L 616.651685 141.014085 
L 618.219101 110.729597 
L 619.786517 101.847036 
L 621.353933 107.510544 
L 622.921348 110.729597 
L 624.488764 157.933206 
L 626.05618 118.225862 
L 627.623596 157.933206 
L 629.191011 153.828667 
L 630.758427 111.872266 
L 632.325843 96.97657 
L 633.893258 122.680637 
L 635.460674 124.30178 
L 637.02809 136.027265 
L 638.595506 153.828667 
L 640.162921 167.958436 
L 641.730337 122.680637 
L 643.297753 113.053677 
L 644.865169 127.789518 
L 646.432584 122.680637 
L 648 126.002034 
L 648 126.002034 
" style="fill:none;stroke:#ff0000;stroke-linecap:square;stroke-opacity:0.7;stroke-width:1.5;"/>
   </g>
   <g id="patch_3">
    <path d="M 90 315 
L 90 43.2 
" style="fill:none;stroke:#000000;stroke-linecap:square;stroke-linejoin:miter;stroke-width:0.8;"/>
   </g>
   <g id="patch_4">
    <path d="M 648 315 
L 648 43.2 
" style="fill:none;stroke:#000000;stroke-linecap:square;stroke-linejoin:miter;stroke-width:0.8;"/>
   </g>
   <g id="patch_5">
    <path d="M 90 315 
L 648 315 
" style="fill:none;stroke:#000000;stroke-linecap:square;stroke-linejoin:miter;stroke-width:0.8;"/>
   </g>
   <g id="patch_6">
    <path d="M 90 43.2 
L 648 43.2 
" style="fill:none;stroke:#000000;stroke-linecap:square;stroke-linejoin:miter;stroke-width:0.8;"/>
   </g>
   <g id="text_18">
    <!-- 212    -->
    <g transform="translate(314.611875 37.2)scale(0.12 -0.12)">
     <defs>
      <path id="DejaVuSans-32"/>
      <path d="M 15.71875 54.6875 
L 15.71875 24.125 
L 6.640625 20.40625 
L 6.640625 54.6875 
z
" id="DejaVuSans-1497"/>
      <path d="M 56.25 29.59375 
L 56.25 0 
L 47.171875 0 
L 47.171875 30.90625 
Q 47.171875 40.578125 44 44.140625 
Q 40.828125 47.703125 31.84375 47.703125 
L 18.109375 47.703125 
L 18.109375 0 
L 9.078125 0 
L 9.078125 54.6875 
L 31.734375 54.6875 
Q 45.21875 54.6875 50.734375 48.828125 
Q 56.25 42.96875 56.25 29.59375 
z
" id="DejaVuSans-1495"/>
      <path d="M 47.359375 27.828125 
L 47.359375 0 
L 38.28125 0 
L 38.28125 27.828125 
Q 38.28125 31.390625 37.765625 34.265625 
Q 37.25 37.15625 36 39.71875 
Q 34.765625 42.28125 32.8125 43.984375 
Q 30.859375 45.703125 27.78125 46.703125 
Q 24.703125 47.703125 20.703125 47.703125 
L 4.296875 47.703125 
L 4.296875 54.6875 
L 20.65625 54.6875 
Q 26.8125 54.6875 31.46875 53.390625 
Q 36.140625 52.09375 39.109375 49.828125 
Q 42.09375 47.5625 43.96875 44.109375 
Q 45.84375 40.671875 46.59375 36.734375 
Q 47.359375 32.8125 47.359375 27.828125 
z
" id="DejaVuSans-1512"/>
      <path d="M 30.328125 54.6875 
L 30.328125 47.703125 
L 26.421875 47.703125 
Q 22.171875 47.703125 20.578125 43.921875 
Q 19 40.140625 19 30.90625 
L 19 0 
L 9.90625 0 
L 9.90625 30.90625 
Q 9.90625 37.109375 11.78125 41.453125 
Q 13.671875 45.796875 16.40625 47.703125 
L 4.296875 47.703125 
L 4.296875 54.6875 
z
" id="DejaVuSans-1494"/>
      <path d="M 4.296875 54.6875 
L 14.890625 54.6875 
Q 15.09375 54.15625 16.703125 50.3125 
Q 18.3125 46.484375 19.390625 42.671875 
Q 20.75 46.09375 22.625 48.53125 
Q 24.515625 50.984375 26.359375 52.296875 
Q 28.21875 53.609375 30.609375 54.34375 
Q 33.015625 55.078125 34.859375 55.265625 
Q 36.71875 55.46875 39.203125 55.46875 
Q 58.84375 55.46875 58.84375 29.59375 
L 58.84375 0 
L 31.390625 0 
L 31.390625 6.9375 
L 49.75 6.9375 
L 49.75 29.59375 
Q 49.75 39.109375 46.765625 43.671875 
Q 43.796875 48.25 39.0625 48.25 
Q 30.28125 48.25 26.078125 40.4375 
Q 23.734375 35.984375 21.6875 25.921875 
Q 21.578125 25.25 21.34375 24.125 
L 16.546875 0 
L 7.46875 0 
L 11.375 20.40625 
Q 11.53125 21.1875 11.890625 22.96875 
Q 12.25 24.75 12.375 25.40625 
Q 12.5 26.078125 12.671875 27.3125 
Q 12.84375 28.5625 12.90625 29.515625 
Q 12.984375 30.46875 12.984375 31.546875 
Q 12.984375 34.671875 10.71875 41.09375 
Q 8.453125 47.515625 4.296875 54.6875 
z
" id="DejaVuSans-1502"/>
      <path d="M 18.171875 54.6875 
L 18.171875 -20.796875 
L 9.078125 -20.796875 
L 9.078125 54.6875 
z
" id="DejaVuSans-1503"/>
      <path d="M 18.171875 54.6875 
L 18.171875 0 
L 9.078125 0 
L 9.078125 54.6875 
z
" id="DejaVuSans-1493"/>
      <path d="M 18.796875 0 
L 38.53125 47.703125 
L 4.296875 47.703125 
L 4.296875 72.90625 
L 13.421875 72.90625 
L 13.421875 54.6875 
L 49.21875 54.640625 
L 49.078125 49.265625 
L 28.328125 0 
z
" id="DejaVuSans-1500"/>
      <path d="M 44.140625 40.828125 
L 44.140625 54.6875 
L 53.515625 54.6875 
L 53.515625 40.828125 
Q 53.515625 35.0625 53.046875 30.71875 
Q 52.59375 26.375 51.390625 22.09375 
Q 50.203125 17.828125 48.046875 14.5 
Q 45.90625 11.1875 42.578125 8.078125 
Q 39.265625 4.984375 34.515625 2.390625 
Q 29.78125 -0.203125 23.4375 -2.484375 
L 4.6875 -9.28125 
L 4.6875 -1.03125 
L 18.953125 4.046875 
L 4.296875 54.6875 
L 13.765625 54.6875 
L 27.25 7.125 
Q 33.6875 9.90625 37.203125 13.5625 
Q 40.71875 17.234375 42.421875 23.671875 
Q 44.140625 30.125 44.140625 40.828125 
z
" id="DejaVuSans-1506"/>
      <path d="M 31.203125 29.59375 
Q 31.203125 22.5625 32.890625 14.75 
Q 34.578125 6.9375 38.328125 0 
L 28.609375 0 
Q 25.78125 6.59375 24.5625 12.0625 
Q 22.953125 8.109375 21.234375 5.59375 
Q 19.53125 3.078125 17.578125 1.75 
Q 15.625 0.4375 13.671875 -0.015625 
Q 11.71875 -0.484375 9.03125 -0.484375 
Q 6.78125 -0.484375 4.296875 0.203125 
L 4.296875 8.453125 
Q 5.953125 7.953125 7.71875 7.953125 
Q 9.859375 7.953125 11.546875 8.265625 
Q 13.234375 8.59375 15.328125 9.859375 
Q 17.4375 11.140625 18.796875 13.359375 
Q 20.171875 15.578125 21.140625 19.71875 
Q 22.125 23.875 22.125 29.59375 
Q 22.125 36.96875 20.875 40.890625 
Q 19.625 44.828125 17.15625 46.265625 
Q 14.703125 47.703125 10.203125 47.703125 
L 5.8125 47.703125 
L 5.8125 54.6875 
L 10.5 54.6875 
Q 21.296875 54.6875 26.25 48.734375 
Q 31.203125 42.78125 31.203125 29.59375 
z
" id="DejaVuSans-1490"/>
     </defs>
     <use xlink:href="#DejaVuSans-50"/>
     <use x="63.623047" xlink:href="#DejaVuSans-49"/>
     <use x="127.246094" xlink:href="#DejaVuSans-50"/>
     <use x="190.869141" xlink:href="#DejaVuSans-32"/>
     <use x="222.65625" xlink:href="#DejaVuSans-1497"/>
     <use x="245.019531" xlink:href="#DejaVuSans-1495"/>
     <use x="310.351562" xlink:href="#DejaVuSans-1512"/>
     <use x="366.796875" xlink:href="#DejaVuSans-1494"/>
     <use x="401.416016" xlink:href="#DejaVuSans-1502"/>
     <use x="469.335938" xlink:href="#DejaVuSans-32"/>
     <use x="501.123047" xlink:href="#DejaVuSans-1503"/>
     <use x="528.369141" xlink:href="#DejaVuSans-1493"/>
     <use x="555.615234" xlink:href="#DejaVuSans-1497"/>
     <use x="577.978516" xlink:href="#DejaVuSans-1500"/>
     <use x="634.814453" xlink:href="#DejaVuSans-1506"/>
     <use x="697.412109" xlink:href="#DejaVuSans-32"/>
     <use x="729.199219" xlink:href="#DejaVuSans-1500"/>
     <use x="786.035156" xlink:href="#DejaVuSans-1497"/>
     <use x="808.398438" xlink:href="#DejaVuSans-1500"/>
     <use x="865.234375" xlink:href="#DejaVuSans-1490"/>
    </g>
   </g>
   <g id="legend_1">
    <g id="patch_7">
     <path d="M 97 95.234375 
L 221.582812 95.234375 
Q 223.582812 95.234375 223.582812 93.234375 
L 223.582812 50.2 
Q 223.582812 48.2 221.582812 48.2 
L 97 48.2 
Q 95 48.2 95 50.2 
L 95 93.234375 
Q 95 95.234375 97 95.234375 
z
" style="fill:#ffffff;opacity:0.8;stroke:#cccccc;stroke-linejoin:miter;"/>
    </g>
    <g id="line2d_96">
     <path d="M 99 56.298437 
L 119 56.298437 
" style="fill:none;stroke:#008000;stroke-linecap:square;stroke-width:1.5;"/>
    </g>
    <g id="line2d_97"/>
    <g id="text_19">
     <!-- Test-adjusted -->
     <g transform="translate(127 59.798437)scale(0.1 -0.1)">
      <defs>
       <path d="M -0.296875 72.90625 
L 61.375 72.90625 
L 61.375 64.59375 
L 35.5 64.59375 
L 35.5 0 
L 25.59375 0 
L 25.59375 64.59375 
L -0.296875 64.59375 
z
" id="DejaVuSans-84"/>
       <path d="M 44.28125 53.078125 
L 44.28125 44.578125 
Q 40.484375 46.53125 36.375 47.5 
Q 32.28125 48.484375 27.875 48.484375 
Q 21.1875 48.484375 17.84375 46.4375 
Q 14.5 44.390625 14.5 40.28125 
Q 14.5 37.15625 16.890625 35.375 
Q 19.28125 33.59375 26.515625 31.984375 
L 29.59375 31.296875 
Q 39.15625 29.25 43.1875 25.515625 
Q 47.21875 21.78125 47.21875 15.09375 
Q 47.21875 7.46875 41.1875 3.015625 
Q 35.15625 -1.421875 24.609375 -1.421875 
Q 20.21875 -1.421875 15.453125 -0.5625 
Q 10.6875 0.296875 5.421875 2 
L 5.421875 11.28125 
Q 10.40625 8.6875 15.234375 7.390625 
Q 20.0625 6.109375 24.8125 6.109375 
Q 31.15625 6.109375 34.5625 8.28125 
Q 37.984375 10.453125 37.984375 14.40625 
Q 37.984375 18.0625 35.515625 20.015625 
Q 33.0625 21.96875 24.703125 23.78125 
L 21.578125 24.515625 
Q 13.234375 26.265625 9.515625 29.90625 
Q 5.8125 33.546875 5.8125 39.890625 
Q 5.8125 47.609375 11.28125 51.796875 
Q 16.75 56 26.8125 56 
Q 31.78125 56 36.171875 55.265625 
Q 40.578125 54.546875 44.28125 53.078125 
z
" id="DejaVuSans-115"/>
       <path d="M 4.890625 31.390625 
L 31.203125 31.390625 
L 31.203125 23.390625 
L 4.890625 23.390625 
z
" id="DejaVuSans-45"/>
       <path d="M 9.421875 54.6875 
L 18.40625 54.6875 
L 18.40625 -0.984375 
Q 18.40625 -11.421875 14.421875 -16.109375 
Q 10.453125 -20.796875 1.609375 -20.796875 
L -1.8125 -20.796875 
L -1.8125 -13.1875 
L 0.59375 -13.1875 
Q 5.71875 -13.1875 7.5625 -10.8125 
Q 9.421875 -8.453125 9.421875 -0.984375 
z
M 9.421875 75.984375 
L 18.40625 75.984375 
L 18.40625 64.59375 
L 9.421875 64.59375 
z
" id="DejaVuSans-106"/>
      </defs>
      <use xlink:href="#DejaVuSans-84"/>
      <use x="44.083984" xlink:href="#DejaVuSans-101"/>
      <use x="105.607422" xlink:href="#DejaVuSans-115"/>
      <use x="157.707031" xlink:href="#DejaVuSans-116"/>
      <use x="196.916016" xlink:href="#DejaVuSans-45"/>
      <use x="233" xlink:href="#DejaVuSans-97"/>
      <use x="294.279297" xlink:href="#DejaVuSans-100"/>
      <use x="357.755859" xlink:href="#DejaVuSans-106"/>
      <use x="385.539062" xlink:href="#DejaVuSans-117"/>
      <use x="448.917969" xlink:href="#DejaVuSans-115"/>
      <use x="501.017578" xlink:href="#DejaVuSans-116"/>
      <use x="540.226562" xlink:href="#DejaVuSans-101"/>
      <use x="601.75" xlink:href="#DejaVuSans-100"/>
     </g>
    </g>
    <g id="line2d_98">
     <path d="M 99 70.976562 
L 119 70.976562 
" style="fill:none;stroke:#0000ff;stroke-linecap:square;stroke-width:1.5;"/>
    </g>
    <g id="line2d_99"/>
    <g id="text_20">
     <!-- Infections -->
     <g transform="translate(127 74.476562)scale(0.1 -0.1)">
      <defs>
       <path d="M 9.8125 72.90625 
L 19.671875 72.90625 
L 19.671875 0 
L 9.8125 0 
z
" id="DejaVuSans-73"/>
       <path d="M 37.109375 75.984375 
L 37.109375 68.5 
L 28.515625 68.5 
Q 23.6875 68.5 21.796875 66.546875 
Q 19.921875 64.59375 19.921875 59.515625 
L 19.921875 54.6875 
L 34.71875 54.6875 
L 34.71875 47.703125 
L 19.921875 47.703125 
L 19.921875 0 
L 10.890625 0 
L 10.890625 47.703125 
L 2.296875 47.703125 
L 2.296875 54.6875 
L 10.890625 54.6875 
L 10.890625 58.5 
Q 10.890625 67.625 15.140625 71.796875 
Q 19.390625 75.984375 28.609375 75.984375 
z
" id="DejaVuSans-102"/>
       <path d="M 9.421875 54.6875 
L 18.40625 54.6875 
L 18.40625 0 
L 9.421875 0 
z
M 9.421875 75.984375 
L 18.40625 75.984375 
L 18.40625 64.59375 
L 9.421875 64.59375 
z
" id="DejaVuSans-105"/>
      </defs>
      <use xlink:href="#DejaVuSans-73"/>
      <use x="29.492188" xlink:href="#DejaVuSans-110"/>
      <use x="92.871094" xlink:href="#DejaVuSans-102"/>
      <use x="128.076172" xlink:href="#DejaVuSans-101"/>
      <use x="189.599609" xlink:href="#DejaVuSans-99"/>
      <use x="244.580078" xlink:href="#DejaVuSans-116"/>
      <use x="283.789062" xlink:href="#DejaVuSans-105"/>
      <use x="311.572266" xlink:href="#DejaVuSans-111"/>
      <use x="372.753906" xlink:href="#DejaVuSans-110"/>
      <use x="436.132812" xlink:href="#DejaVuSans-115"/>
     </g>
    </g>
    <g id="line2d_100">
     <path d="M 99 85.654687 
L 119 85.654687 
" style="fill:none;stroke:#ff0000;stroke-linecap:square;stroke-opacity:0.7;stroke-width:1.5;"/>
    </g>
    <g id="line2d_101"/>
    <g id="text_21">
     <!-- Reported Positives -->
     <g transform="translate(127 89.154687)scale(0.1 -0.1)">
      <defs>
       <path d="M 44.390625 34.1875 
Q 47.5625 33.109375 50.5625 29.59375 
Q 53.5625 26.078125 56.59375 19.921875 
L 66.609375 0 
L 56 0 
L 46.6875 18.703125 
Q 43.0625 26.03125 39.671875 28.421875 
Q 36.28125 30.8125 30.421875 30.8125 
L 19.671875 30.8125 
L 19.671875 0 
L 9.8125 0 
L 9.8125 72.90625 
L 32.078125 72.90625 
Q 44.578125 72.90625 50.734375 67.671875 
Q 56.890625 62.453125 56.890625 51.90625 
Q 56.890625 45.015625 53.6875 40.46875 
Q 50.484375 35.9375 44.390625 34.1875 
z
M 19.671875 64.796875 
L 19.671875 38.921875 
L 32.078125 38.921875 
Q 39.203125 38.921875 42.84375 42.21875 
Q 46.484375 45.515625 46.484375 51.90625 
Q 46.484375 58.296875 42.84375 61.546875 
Q 39.203125 64.796875 32.078125 64.796875 
z
" id="DejaVuSans-82"/>
       <path d="M 19.671875 64.796875 
L 19.671875 37.40625 
L 32.078125 37.40625 
Q 38.96875 37.40625 42.71875 40.96875 
Q 46.484375 44.53125 46.484375 51.125 
Q 46.484375 57.671875 42.71875 61.234375 
Q 38.96875 64.796875 32.078125 64.796875 
z
M 9.8125 72.90625 
L 32.078125 72.90625 
Q 44.34375 72.90625 50.609375 67.359375 
Q 56.890625 61.8125 56.890625 51.125 
Q 56.890625 40.328125 50.609375 34.8125 
Q 44.34375 29.296875 32.078125 29.296875 
L 19.671875 29.296875 
L 19.671875 0 
L 9.8125 0 
z
" id="DejaVuSans-80"/>
      </defs>
      <use xlink:href="#DejaVuSans-82"/>
      <use x="64.982422" xlink:href="#DejaVuSans-101"/>
      <use x="126.505859" xlink:href="#DejaVuSans-112"/>
      <use x="189.982422" xlink:href="#DejaVuSans-111"/>
      <use x="251.164062" xlink:href="#DejaVuSans-114"/>
      <use x="292.277344" xlink:href="#DejaVuSans-116"/>
      <use x="331.486328" xlink:href="#DejaVuSans-101"/>
      <use x="393.009766" xlink:href="#DejaVuSans-100"/>
      <use x="456.486328" xlink:href="#DejaVuSans-32"/>
      <use x="488.273438" xlink:href="#DejaVuSans-80"/>
      <use x="544.951172" xlink:href="#DejaVuSans-111"/>
      <use x="606.132812" xlink:href="#DejaVuSans-115"/>
      <use x="658.232422" xlink:href="#DejaVuSans-105"/>
      <use x="686.015625" xlink:href="#DejaVuSans-116"/>
      <use x="725.224609" xlink:href="#DejaVuSans-105"/>
      <use x="753.007812" xlink:href="#DejaVuSans-118"/>
      <use x="812.1875" xlink:href="#DejaVuSans-101"/>
      <use x="873.710938" xlink:href="#DejaVuSans-115"/>
     </g>
    </g>
   </g>
  </g>
 </g>
 <defs>
  <clipPath id="p2e7a8442a6">
   <rect height="271.8" width="558" x="90" y="43.2"/>
  </clipPath>
 </defs>
</svg>
