<?xml version="1.0" encoding="utf-8" standalone="no"?>
<!DOCTYPE svg PUBLIC "-//W3C//DTD SVG 1.1//EN"
  "http://www.w3.org/Graphics/SVG/1.1/DTD/svg11.dtd">
<!-- Created with matplotlib (https://matplotlib.org/) -->
<svg height="360pt" version="1.1" viewBox="0 0 720 360" width="720pt" xmlns="http://www.w3.org/2000/svg" xmlns:xlink="http://www.w3.org/1999/xlink">
 <metadata>
  <rdf:RDF xmlns:cc="http://creativecommons.org/ns#" xmlns:dc="http://purl.org/dc/elements/1.1/" xmlns:rdf="http://www.w3.org/1999/02/22-rdf-syntax-ns#">
   <cc:Work>
    <dc:type rdf:resource="http://purl.org/dc/dcmitype/StillImage"/>
    <dc:date>2021-01-20T14:24:33.730026</dc:date>
    <dc:format>image/svg+xml</dc:format>
    <dc:creator>
     <cc:Agent>
      <dc:title>Matplotlib v3.3.2, https://matplotlib.org/</dc:title>
     </cc:Agent>
    </dc:creator>
   </cc:Work>
  </rdf:RDF>
 </metadata>
 <defs>
  <style type="text/css">*{stroke-linecap:butt;stroke-linejoin:round;}</style>
 </defs>
 <g id="figure_1">
  <g id="patch_1">
   <path d="M 0 360 
L 720 360 
L 720 0 
L 0 0 
z
" style="fill:#ffffff;"/>
  </g>
  <g id="axes_1">
   <g id="patch_2">
    <path d="M 90 315 
L 648 315 
L 648 43.2 
L 90 43.2 
z
" style="fill:#ffffff;"/>
   </g>
   <g id="PolyCollection_1">
    <defs>
     <path d="M 90 -104.941725 
L 90 -184.316351 
L 91.823529 -184.68342 
L 93.647059 -183.7069 
L 95.470588 -177.726926 
L 97.294118 -177.076895 
L 99.117647 -171.282501 
L 100.941176 -170.514419 
L 102.764706 -158.116183 
L 104.588235 -156.366079 
L 106.411765 -148.693806 
L 108.235294 -145.907389 
L 110.058824 -135.221844 
L 111.882353 -134.926895 
L 113.705882 -126.196044 
L 115.529412 -121.580522 
L 117.352941 -116.820959 
L 119.176471 -113.545094 
L 121 -108.662304 
L 122.823529 -103.568371 
L 124.647059 -99.892182 
L 126.470588 -98.809606 
L 128.294118 -96.422379 
L 130.117647 -93.193498 
L 131.941176 -91.942286 
L 133.764706 -91.209498 
L 135.588235 -89.732574 
L 137.411765 -89.656828 
L 139.235294 -90.476949 
L 141.058824 -89.250857 
L 142.882353 -92.061346 
L 144.705882 -93.929943 
L 146.529412 -96.59315 
L 148.352941 -98.187141 
L 150.176471 -99.001288 
L 152 -106.801434 
L 153.823529 -109.970931 
L 155.647059 -115.086439 
L 157.470588 -114.506765 
L 159.294118 -120.636785 
L 161.117647 -125.702077 
L 162.941176 -134.114969 
L 164.764706 -134.25637 
L 166.588235 -137.118076 
L 168.411765 -145.875942 
L 170.235294 -149.754378 
L 172.058824 -156.763978 
L 173.882353 -162.85227 
L 175.705882 -170.243955 
L 177.529412 -172.9325 
L 179.352941 -181.232643 
L 181.176471 -182.04392 
L 183 -192.647786 
L 184.823529 -202.226453 
L 186.647059 -204.538895 
L 188.470588 -212.479677 
L 190.294118 -216.014714 
L 192.117647 -222.20271 
L 193.941176 -230.03077 
L 195.764706 -237.848842 
L 197.588235 -239.700162 
L 199.411765 -248.434017 
L 201.235294 -247.534264 
L 203.058824 -256.028834 
L 204.882353 -253.430274 
L 206.705882 -254.375191 
L 208.529412 -262.862205 
L 210.352941 -266.891656 
L 212.176471 -270.710789 
L 214 -271.954617 
L 215.823529 -279.217743 
L 217.647059 -275.989282 
L 219.470588 -282.812308 
L 221.294118 -280.41127 
L 223.117647 -289.528804 
L 224.941176 -282.944904 
L 226.764706 -284.475466 
L 228.588235 -285.218051 
L 230.411765 -287.727546 
L 232.235294 -282.937974 
L 234.058824 -275.347978 
L 235.882353 -278.868245 
L 237.705882 -272.180383 
L 239.529412 -270.053562 
L 241.352941 -267.169935 
L 243.176471 -259.371021 
L 245 -255.545858 
L 246.823529 -252.100912 
L 248.647059 -252.98561 
L 250.470588 -254.770548 
L 252.294118 -252.345061 
L 254.117647 -254.446955 
L 255.941176 -254.04835 
L 257.764706 -262.324236 
L 259.588235 -260.261136 
L 261.411765 -262.712591 
L 263.235294 -271.282961 
L 265.058824 -278.96201 
L 266.882353 -282.259951 
L 268.705882 -295.007974 
L 270.529412 -295.393187 
L 272.352941 -294.543805 
L 274.176471 -300.217412 
L 276 -300.670306 
L 277.823529 -304.445455 
L 279.647059 -296.235637 
L 281.470588 -292.431669 
L 283.294118 -284.029382 
L 285.117647 -276.48769 
L 286.941176 -269.771139 
L 288.764706 -259.248161 
L 290.588235 -251.895041 
L 292.411765 -239.821812 
L 294.235294 -233.763187 
L 296.058824 -220.71795 
L 297.882353 -210.483696 
L 299.705882 -200.637038 
L 301.529412 -191.263196 
L 303.352941 -180.104041 
L 305.176471 -173.114593 
L 307 -170.78224 
L 308.823529 -159.22468 
L 310.647059 -155.744612 
L 312.470588 -153.726887 
L 314.294118 -147.238256 
L 316.117647 -146.955587 
L 317.941176 -144.728179 
L 319.764706 -139.537676 
L 321.588235 -140.717471 
L 323.411765 -140.475117 
L 325.235294 -141.509691 
L 327.058824 -140.231363 
L 328.882353 -141.919746 
L 330.705882 -142.832621 
L 332.529412 -146.015815 
L 334.352941 -148.785303 
L 336.176471 -150.074788 
L 338 -156.216025 
L 339.823529 -155.915518 
L 341.647059 -158.039804 
L 343.470588 -158.545522 
L 345.294118 -162.056401 
L 347.117647 -161.867675 
L 348.941176 -166.967302 
L 350.764706 -167.827044 
L 352.588235 -170.845115 
L 354.411765 -169.09586 
L 356.235294 -171.675964 
L 358.058824 -172.068419 
L 359.882353 -176.153232 
L 361.705882 -178.952718 
L 363.529412 -182.102609 
L 365.352941 -179.369058 
L 367.176471 -185.651685 
L 369 -187.199694 
L 370.823529 -188.689288 
L 372.647059 -192.929874 
L 374.470588 -196.223307 
L 376.294118 -198.251631 
L 378.117647 -207.626637 
L 379.941176 -212.092019 
L 381.764706 -213.584756 
L 383.588235 -221.272724 
L 385.411765 -227.887597 
L 387.235294 -242.567487 
L 389.058824 -242.8986 
L 390.882353 -253.592749 
L 392.705882 -256.591679 
L 394.529412 -265.273432 
L 396.352941 -271.168898 
L 398.176471 -277.583314 
L 400 -283.465317 
L 401.823529 -288.991846 
L 403.647059 -292.533852 
L 405.470588 -294.976663 
L 407.294118 -294.364623 
L 409.117647 -297.141191 
L 410.941176 -286.726808 
L 412.764706 -279.17895 
L 414.588235 -272.848862 
L 416.411765 -266.488241 
L 418.235294 -259.572219 
L 420.058824 -250.298165 
L 421.882353 -234.320016 
L 423.705882 -226.381945 
L 425.529412 -212.996155 
L 427.352941 -203.859155 
L 429.176471 -191.976486 
L 431 -180.442635 
L 432.823529 -173.813466 
L 434.647059 -163.708353 
L 436.470588 -150.837299 
L 438.294118 -142.3592 
L 440.117647 -135.0201 
L 441.941176 -124.013674 
L 443.764706 -120.931817 
L 445.588235 -114.061252 
L 447.411765 -106.996297 
L 449.235294 -102.029243 
L 451.058824 -96.74615 
L 452.882353 -91.919873 
L 454.705882 -87.39343 
L 456.529412 -83.138508 
L 458.352941 -82.853018 
L 460.176471 -81.584692 
L 462 -81.290529 
L 463.823529 -82.764076 
L 465.647059 -82.914553 
L 467.470588 -84.65982 
L 469.294118 -84.637266 
L 471.117647 -86.677181 
L 472.941176 -87.725973 
L 474.764706 -92.359174 
L 476.588235 -98.572949 
L 478.411765 -98.666553 
L 480.235294 -100.555764 
L 482.058824 -103.065933 
L 483.882353 -106.91376 
L 485.705882 -111.803148 
L 487.529412 -114.158049 
L 489.352941 -119.191451 
L 491.176471 -124.789403 
L 493 -127.738568 
L 494.823529 -132.003087 
L 496.647059 -139.480408 
L 498.470588 -144.837982 
L 500.294118 -150.465859 
L 502.117647 -154.456736 
L 503.941176 -159.265296 
L 505.764706 -164.130271 
L 507.588235 -171.986808 
L 509.411765 -177.272376 
L 511.235294 -178.072757 
L 513.058824 -183.118167 
L 514.882353 -190.280662 
L 516.705882 -194.896578 
L 518.529412 -200.411236 
L 520.352941 -203.816753 
L 522.176471 -209.211925 
L 524 -213.352099 
L 525.823529 -219.927594 
L 527.647059 -224.261955 
L 529.470588 -234.504286 
L 531.294118 -236.253865 
L 533.117647 -244.877272 
L 534.941176 -243.193044 
L 536.764706 -249.040292 
L 538.588235 -245.214064 
L 540.411765 -249.627325 
L 542.235294 -254.292188 
L 544.058824 -253.73954 
L 545.882353 -252.833142 
L 547.705882 -253.114749 
L 549.529412 -248.745395 
L 551.352941 -253.178153 
L 553.176471 -248.038249 
L 555 -251.085658 
L 556.823529 -248.399433 
L 558.647059 -241.943473 
L 560.470588 -243.512524 
L 562.294118 -241.455163 
L 564.117647 -239.235875 
L 565.941176 -239.904483 
L 567.764706 -239.614195 
L 569.588235 -233.969931 
L 571.411765 -233.386549 
L 573.235294 -229.789436 
L 575.058824 -230.318275 
L 576.882353 -223.649093 
L 578.705882 -226.152932 
L 580.529412 -225.552516 
L 582.352941 -227.451048 
L 584.176471 -230.345249 
L 586 -225.064546 
L 587.823529 -231.242496 
L 589.647059 -232.302149 
L 591.470588 -235.856638 
L 593.294118 -231.192649 
L 595.117647 -233.238422 
L 596.941176 -231.588089 
L 598.764706 -230.619073 
L 600.588235 -232.309648 
L 602.411765 -230.79581 
L 604.235294 -230.037392 
L 606.058824 -226.159292 
L 607.882353 -220.360018 
L 609.705882 -223.855533 
L 611.529412 -225.117378 
L 613.352941 -217.105265 
L 615.176471 -218.579195 
L 617 -214.329748 
L 618.823529 -213.535015 
L 620.647059 -213.553332 
L 622.470588 -216.848152 
L 624.294118 -209.455741 
L 626.117647 -210.718811 
L 627.941176 -208.244652 
L 629.764706 -203.385159 
L 631.588235 -204.561822 
L 633.411765 -206.966543 
L 635.235294 -205.524225 
L 637.058824 -208.706117 
L 638.882353 -204.523127 
L 640.705882 -206.776178 
L 642.529412 -208.967316 
L 644.352941 -207.833882 
L 646.176471 -210.906416 
L 648 -210.326024 
L 649.823529 -214.989171 
L 651.647059 -215.285355 
L 653.470588 -223.494171 
L 655.294118 -221.355241 
L 657.117647 -231.110479 
L 658.941176 -237.638965 
L 660.764706 -244.160369 
L 662.588235 -238.975845 
L 662.588235 -113.017509 
L 662.588235 -113.017509 
L 660.764706 -118.470986 
L 658.941176 -119.330793 
L 657.117647 -116.337616 
L 655.294118 -115.640603 
L 653.470588 -120.436136 
L 651.647059 -115.668493 
L 649.823529 -121.1194 
L 648 -122.721009 
L 646.176471 -124.981998 
L 644.352941 -128.525336 
L 642.529412 -134.009255 
L 640.705882 -137.081762 
L 638.882353 -137.789518 
L 637.058824 -146.865255 
L 635.235294 -146.843568 
L 633.411765 -150.864863 
L 631.588235 -151.170274 
L 629.764706 -151.623632 
L 627.941176 -155.967001 
L 626.117647 -157.32845 
L 624.294118 -154.193417 
L 622.470588 -163.540491 
L 620.647059 -160.841497 
L 618.823529 -159.508399 
L 617 -164.073395 
L 615.176471 -167.956121 
L 613.352941 -167.873962 
L 611.529412 -172.554809 
L 609.705882 -170.39677 
L 607.882353 -167.077638 
L 606.058824 -174.666681 
L 604.235294 -175.628154 
L 602.411765 -174.176588 
L 600.588235 -174.909902 
L 598.764706 -172.257303 
L 596.941176 -176.181413 
L 595.117647 -181.895579 
L 593.294118 -176.670846 
L 591.470588 -180.844576 
L 589.647059 -178.985873 
L 587.823529 -178.083011 
L 586 -172.820767 
L 584.176471 -177.947993 
L 582.352941 -174.302172 
L 580.529412 -171.082793 
L 578.705882 -172.32566 
L 576.882353 -173.51736 
L 575.058824 -177.492356 
L 573.235294 -176.504448 
L 571.411765 -175.543271 
L 569.588235 -176.245365 
L 567.764706 -181.759754 
L 565.941176 -183.454626 
L 564.117647 -181.956941 
L 562.294118 -182.208744 
L 560.470588 -185.082675 
L 558.647059 -180.547854 
L 556.823529 -189.013158 
L 555 -189.841691 
L 553.176471 -188.381901 
L 551.352941 -192.877254 
L 549.529412 -190.184883 
L 547.705882 -192.354607 
L 545.882353 -190.383247 
L 544.058824 -192.597965 
L 542.235294 -192.222004 
L 540.411765 -187.596775 
L 538.588235 -180.865572 
L 536.764706 -184.472148 
L 534.941176 -180.198223 
L 533.117647 -179.709697 
L 531.294118 -172.244414 
L 529.470588 -174.469681 
L 527.647059 -167.020733 
L 525.823529 -164.662515 
L 524 -159.250796 
L 522.176471 -155.399213 
L 520.352941 -150.647996 
L 518.529412 -149.959093 
L 516.705882 -146.689621 
L 514.882353 -141.542317 
L 513.058824 -135.188839 
L 511.235294 -131.580058 
L 509.411765 -128.635238 
L 507.588235 -123.801717 
L 505.764706 -117.448056 
L 503.941176 -113.599017 
L 502.117647 -110.75784 
L 500.294118 -110.466778 
L 498.470588 -102.275909 
L 496.647059 -101.01171 
L 494.823529 -96.132907 
L 493 -91.019591 
L 491.176471 -90.130213 
L 489.352941 -85.900814 
L 487.529412 -80.158537 
L 485.705882 -78.953592 
L 483.882353 -76.257588 
L 482.058824 -73.133095 
L 480.235294 -71.267139 
L 478.411765 -69.272595 
L 476.588235 -69.50425 
L 474.764706 -64.977957 
L 472.941176 -62.212851 
L 471.117647 -61.24632 
L 469.294118 -60.339731 
L 467.470588 -60.532321 
L 465.647059 -58.925196 
L 463.823529 -58.911209 
L 462 -57.354545 
L 460.176471 -58.695831 
L 458.352941 -59.678686 
L 456.529412 -59.980994 
L 454.705882 -63.274817 
L 452.882353 -66.133601 
L 451.058824 -70.506458 
L 449.235294 -73.723641 
L 447.411765 -76.75981 
L 445.588235 -83.501195 
L 443.764706 -89.011646 
L 441.941176 -89.439443 
L 440.117647 -98.920731 
L 438.294118 -106.268588 
L 436.470588 -112.586465 
L 434.647059 -124.328014 
L 432.823529 -135.836515 
L 431 -140.335392 
L 429.176471 -149.144584 
L 427.352941 -157.800085 
L 425.529412 -162.278877 
L 423.705882 -172.591473 
L 421.882353 -177.998567 
L 420.058824 -191.140714 
L 418.235294 -198.921151 
L 416.411765 -205.064231 
L 414.588235 -210.632072 
L 412.764706 -213.999573 
L 410.941176 -223.081182 
L 409.117647 -228.959433 
L 407.294118 -226.03036 
L 405.470588 -225.548382 
L 403.647059 -224.859879 
L 401.823529 -222.024625 
L 400 -217.49887 
L 398.176471 -212.725244 
L 396.352941 -207.405863 
L 394.529412 -203.284178 
L 392.705882 -193.91026 
L 390.882353 -194.218659 
L 389.058824 -185.730563 
L 387.235294 -185.522049 
L 385.411765 -173.192031 
L 383.588235 -165.993128 
L 381.764706 -159.727592 
L 379.941176 -159.690361 
L 378.117647 -156.162097 
L 376.294118 -148.146604 
L 374.470588 -149.920032 
L 372.647059 -144.790495 
L 370.823529 -142.131636 
L 369 -140.743265 
L 367.176471 -138.317628 
L 365.352941 -135.704135 
L 363.529412 -138.503227 
L 361.705882 -136.64734 
L 359.882353 -134.46792 
L 358.058824 -128.69644 
L 356.235294 -132.051669 
L 354.411765 -128.341082 
L 352.588235 -129.99795 
L 350.764706 -127.604861 
L 348.941176 -128.071694 
L 347.117647 -124.036555 
L 345.294118 -121.167434 
L 343.470588 -117.838365 
L 341.647059 -117.285603 
L 339.823529 -115.98193 
L 338 -115.818379 
L 336.176471 -111.596366 
L 334.352941 -108.350755 
L 332.529412 -106.907336 
L 330.705882 -105.417129 
L 328.882353 -106.955488 
L 327.058824 -104.995439 
L 325.235294 -105.199917 
L 323.411765 -103.643796 
L 321.588235 -102.924337 
L 319.764706 -103.157391 
L 317.941176 -108.904304 
L 316.117647 -111.230377 
L 314.294118 -111.888501 
L 312.470588 -117.470791 
L 310.647059 -116.11796 
L 308.823529 -117.17448 
L 307 -129.051224 
L 305.176471 -129.857207 
L 303.352941 -135.569639 
L 301.529412 -146.200688 
L 299.705882 -153.15208 
L 297.882353 -160.545923 
L 296.058824 -167.705414 
L 294.235294 -180.015943 
L 292.411765 -184.213787 
L 290.588235 -192.740992 
L 288.764706 -197.28486 
L 286.941176 -204.618347 
L 285.117647 -210.263915 
L 283.294118 -216.361459 
L 281.470588 -222.235305 
L 279.647059 -223.48486 
L 277.823529 -227.674677 
L 276 -225.357982 
L 274.176471 -228.188356 
L 272.352941 -222.733202 
L 270.529412 -225.613482 
L 268.705882 -225.410453 
L 266.882353 -215.734485 
L 265.058824 -211.384705 
L 263.235294 -203.32612 
L 261.411765 -195.564712 
L 259.588235 -196.139732 
L 257.764706 -199.813884 
L 255.941176 -189.736034 
L 254.117647 -189.892173 
L 252.294118 -187.010546 
L 250.470588 -187.843181 
L 248.647059 -190.098331 
L 246.823529 -188.323098 
L 245 -187.779871 
L 243.176471 -190.456085 
L 241.352941 -195.242151 
L 239.529412 -196.576736 
L 237.705882 -198.760483 
L 235.882353 -204.955363 
L 234.058824 -201.75375 
L 232.235294 -209.481511 
L 230.411765 -211.18554 
L 228.588235 -211.836554 
L 226.764706 -209.044754 
L 224.941176 -208.921524 
L 223.117647 -212.735203 
L 221.294118 -202.892217 
L 219.470588 -204.736593 
L 217.647059 -196.05052 
L 215.823529 -200.825719 
L 214 -193.727942 
L 212.176471 -195.168048 
L 210.352941 -193.818113 
L 208.529412 -190.92223 
L 206.705882 -178.581055 
L 204.882353 -180.305431 
L 203.058824 -183.919753 
L 201.235294 -174.5509 
L 199.411765 -177.56022 
L 197.588235 -169.603055 
L 195.764706 -171.580093 
L 193.941176 -168.021096 
L 192.117647 -160.642474 
L 190.294118 -152.388211 
L 188.470588 -149.571341 
L 186.647059 -143.102495 
L 184.823529 -143.201404 
L 183 -134.548164 
L 181.176471 -126.48001 
L 179.352941 -126.629375 
L 177.529412 -121.531749 
L 175.705882 -118.167506 
L 173.882353 -112.152812 
L 172.058824 -106.731272 
L 170.235294 -100.751328 
L 168.411765 -97.91837 
L 166.588235 -94.579707 
L 164.764706 -91.502648 
L 162.941176 -91.630925 
L 161.117647 -84.772971 
L 159.294118 -81.004695 
L 157.470588 -77.633682 
L 155.647059 -78.605961 
L 153.823529 -74.090967 
L 152 -72.369156 
L 150.176471 -65.837632 
L 148.352941 -66.261082 
L 146.529412 -67.133516 
L 144.705882 -65.663714 
L 142.882353 -62.518056 
L 141.058824 -59.578848 
L 139.235294 -61.658051 
L 137.411765 -61.067819 
L 135.588235 -60.949513 
L 133.764706 -62.116645 
L 131.941176 -62.180064 
L 130.117647 -62.58701 
L 128.294118 -63.973308 
L 126.470588 -69.400234 
L 124.647059 -70.140601 
L 122.823529 -72.863979 
L 121 -74.939605 
L 119.176471 -79.469026 
L 117.352941 -82.15834 
L 115.529412 -86.213096 
L 113.705882 -88.518105 
L 111.882353 -96.29832 
L 110.058824 -95.302214 
L 108.235294 -102.286051 
L 106.411765 -102.690873 
L 104.588235 -106.972485 
L 102.764706 -104.876293 
L 100.941176 -111.865117 
L 99.117647 -107.676382 
L 97.294118 -109.459661 
L 95.470588 -108.340322 
L 93.647059 -112.213987 
L 91.823529 -108.800445 
L 90 -104.941725 
z
" id="m25dbd1ea50" style="stroke:#fdcbb6;stroke-opacity:0.8;"/>
    </defs>
    <g clip-path="url(#p04c81949bb)">
     <use style="fill:#fdcbb6;fill-opacity:0.8;stroke:#fdcbb6;stroke-opacity:0.8;" x="0" xlink:href="#m25dbd1ea50" y="360"/>
    </g>
   </g>
   <g id="matplotlib.axis_1">
    <g id="xtick_1">
     <g id="line2d_1">
      <defs>
       <path d="M 0 0 
L 0 3.5 
" id="m19669e4962" style="stroke:#000000;stroke-width:0.8;"/>
      </defs>
      <g>
       <use style="stroke:#000000;stroke-width:0.8;" x="90" xlink:href="#m19669e4962" y="315"/>
      </g>
     </g>
    </g>
    <g id="xtick_2">
     <g id="line2d_2">
      <g>
       <use style="stroke:#000000;stroke-width:0.8;" x="130.117647" xlink:href="#m19669e4962" y="315"/>
      </g>
     </g>
     <g id="text_1">
      <!-- Apr -->
      <g transform="translate(121.467647 329.598437)scale(0.1 -0.1)">
       <defs>
        <path d="M 34.1875 63.1875 
L 20.796875 26.90625 
L 47.609375 26.90625 
z
M 28.609375 72.90625 
L 39.796875 72.90625 
L 67.578125 0 
L 57.328125 0 
L 50.6875 18.703125 
L 17.828125 18.703125 
L 11.1875 0 
L 0.78125 0 
z
" id="DejaVuSans-65"/>
        <path d="M 18.109375 8.203125 
L 18.109375 -20.796875 
L 9.078125 -20.796875 
L 9.078125 54.6875 
L 18.109375 54.6875 
L 18.109375 46.390625 
Q 20.953125 51.265625 25.265625 53.625 
Q 29.59375 56 35.59375 56 
Q 45.5625 56 51.78125 48.09375 
Q 58.015625 40.1875 58.015625 27.296875 
Q 58.015625 14.40625 51.78125 6.484375 
Q 45.5625 -1.421875 35.59375 -1.421875 
Q 29.59375 -1.421875 25.265625 0.953125 
Q 20.953125 3.328125 18.109375 8.203125 
z
M 48.6875 27.296875 
Q 48.6875 37.203125 44.609375 42.84375 
Q 40.53125 48.484375 33.40625 48.484375 
Q 26.265625 48.484375 22.1875 42.84375 
Q 18.109375 37.203125 18.109375 27.296875 
Q 18.109375 17.390625 22.1875 11.75 
Q 26.265625 6.109375 33.40625 6.109375 
Q 40.53125 6.109375 44.609375 11.75 
Q 48.6875 17.390625 48.6875 27.296875 
z
" id="DejaVuSans-112"/>
        <path d="M 41.109375 46.296875 
Q 39.59375 47.171875 37.8125 47.578125 
Q 36.03125 48 33.890625 48 
Q 26.265625 48 22.1875 43.046875 
Q 18.109375 38.09375 18.109375 28.8125 
L 18.109375 0 
L 9.078125 0 
L 9.078125 54.6875 
L 18.109375 54.6875 
L 18.109375 46.1875 
Q 20.953125 51.171875 25.484375 53.578125 
Q 30.03125 56 36.53125 56 
Q 37.453125 56 38.578125 55.875 
Q 39.703125 55.765625 41.0625 55.515625 
z
" id="DejaVuSans-114"/>
       </defs>
       <use xlink:href="#DejaVuSans-65"/>
       <use x="68.408203" xlink:href="#DejaVuSans-112"/>
       <use x="131.884766" xlink:href="#DejaVuSans-114"/>
      </g>
     </g>
    </g>
    <g id="xtick_3">
     <g id="line2d_3">
      <g>
       <use style="stroke:#000000;stroke-width:0.8;" x="184.823529" xlink:href="#m19669e4962" y="315"/>
      </g>
     </g>
     <g id="text_2">
      <!-- May -->
      <g transform="translate(174.486029 329.598437)scale(0.1 -0.1)">
       <defs>
        <path d="M 9.8125 72.90625 
L 24.515625 72.90625 
L 43.109375 23.296875 
L 61.8125 72.90625 
L 76.515625 72.90625 
L 76.515625 0 
L 66.890625 0 
L 66.890625 64.015625 
L 48.09375 14.015625 
L 38.1875 14.015625 
L 19.390625 64.015625 
L 19.390625 0 
L 9.8125 0 
z
" id="DejaVuSans-77"/>
        <path d="M 34.28125 27.484375 
Q 23.390625 27.484375 19.1875 25 
Q 14.984375 22.515625 14.984375 16.5 
Q 14.984375 11.71875 18.140625 8.90625 
Q 21.296875 6.109375 26.703125 6.109375 
Q 34.1875 6.109375 38.703125 11.40625 
Q 43.21875 16.703125 43.21875 25.484375 
L 43.21875 27.484375 
z
M 52.203125 31.203125 
L 52.203125 0 
L 43.21875 0 
L 43.21875 8.296875 
Q 40.140625 3.328125 35.546875 0.953125 
Q 30.953125 -1.421875 24.3125 -1.421875 
Q 15.921875 -1.421875 10.953125 3.296875 
Q 6 8.015625 6 15.921875 
Q 6 25.140625 12.171875 29.828125 
Q 18.359375 34.515625 30.609375 34.515625 
L 43.21875 34.515625 
L 43.21875 35.40625 
Q 43.21875 41.609375 39.140625 45 
Q 35.0625 48.390625 27.6875 48.390625 
Q 23 48.390625 18.546875 47.265625 
Q 14.109375 46.140625 10.015625 43.890625 
L 10.015625 52.203125 
Q 14.9375 54.109375 19.578125 55.046875 
Q 24.21875 56 28.609375 56 
Q 40.484375 56 46.34375 49.84375 
Q 52.203125 43.703125 52.203125 31.203125 
z
" id="DejaVuSans-97"/>
        <path d="M 32.171875 -5.078125 
Q 28.375 -14.84375 24.75 -17.8125 
Q 21.140625 -20.796875 15.09375 -20.796875 
L 7.90625 -20.796875 
L 7.90625 -13.28125 
L 13.1875 -13.28125 
Q 16.890625 -13.28125 18.9375 -11.515625 
Q 21 -9.765625 23.484375 -3.21875 
L 25.09375 0.875 
L 2.984375 54.6875 
L 12.5 54.6875 
L 29.59375 11.921875 
L 46.6875 54.6875 
L 56.203125 54.6875 
z
" id="DejaVuSans-121"/>
       </defs>
       <use xlink:href="#DejaVuSans-77"/>
       <use x="86.279297" xlink:href="#DejaVuSans-97"/>
       <use x="147.558594" xlink:href="#DejaVuSans-121"/>
      </g>
     </g>
    </g>
    <g id="xtick_4">
     <g id="line2d_4">
      <g>
       <use style="stroke:#000000;stroke-width:0.8;" x="241.352941" xlink:href="#m19669e4962" y="315"/>
      </g>
     </g>
     <g id="text_3">
      <!-- Jun -->
      <g transform="translate(233.540441 329.598437)scale(0.1 -0.1)">
       <defs>
        <path d="M 9.8125 72.90625 
L 19.671875 72.90625 
L 19.671875 5.078125 
Q 19.671875 -8.109375 14.671875 -14.0625 
Q 9.671875 -20.015625 -1.421875 -20.015625 
L -5.171875 -20.015625 
L -5.171875 -11.71875 
L -2.09375 -11.71875 
Q 4.4375 -11.71875 7.125 -8.046875 
Q 9.8125 -4.390625 9.8125 5.078125 
z
" id="DejaVuSans-74"/>
        <path d="M 8.5 21.578125 
L 8.5 54.6875 
L 17.484375 54.6875 
L 17.484375 21.921875 
Q 17.484375 14.15625 20.5 10.265625 
Q 23.53125 6.390625 29.59375 6.390625 
Q 36.859375 6.390625 41.078125 11.03125 
Q 45.3125 15.671875 45.3125 23.6875 
L 45.3125 54.6875 
L 54.296875 54.6875 
L 54.296875 0 
L 45.3125 0 
L 45.3125 8.40625 
Q 42.046875 3.421875 37.71875 1 
Q 33.40625 -1.421875 27.6875 -1.421875 
Q 18.265625 -1.421875 13.375 4.4375 
Q 8.5 10.296875 8.5 21.578125 
z
M 31.109375 56 
z
" id="DejaVuSans-117"/>
        <path d="M 54.890625 33.015625 
L 54.890625 0 
L 45.90625 0 
L 45.90625 32.71875 
Q 45.90625 40.484375 42.875 44.328125 
Q 39.84375 48.1875 33.796875 48.1875 
Q 26.515625 48.1875 22.3125 43.546875 
Q 18.109375 38.921875 18.109375 30.90625 
L 18.109375 0 
L 9.078125 0 
L 9.078125 54.6875 
L 18.109375 54.6875 
L 18.109375 46.1875 
Q 21.34375 51.125 25.703125 53.5625 
Q 30.078125 56 35.796875 56 
Q 45.21875 56 50.046875 50.171875 
Q 54.890625 44.34375 54.890625 33.015625 
z
" id="DejaVuSans-110"/>
       </defs>
       <use xlink:href="#DejaVuSans-74"/>
       <use x="29.492188" xlink:href="#DejaVuSans-117"/>
       <use x="92.871094" xlink:href="#DejaVuSans-110"/>
      </g>
     </g>
    </g>
    <g id="xtick_5">
     <g id="line2d_5">
      <g>
       <use style="stroke:#000000;stroke-width:0.8;" x="296.058824" xlink:href="#m19669e4962" y="315"/>
      </g>
     </g>
     <g id="text_4">
      <!-- Jul -->
      <g transform="translate(290.026011 329.598437)scale(0.1 -0.1)">
       <defs>
        <path d="M 9.421875 75.984375 
L 18.40625 75.984375 
L 18.40625 0 
L 9.421875 0 
z
" id="DejaVuSans-108"/>
       </defs>
       <use xlink:href="#DejaVuSans-74"/>
       <use x="29.492188" xlink:href="#DejaVuSans-117"/>
       <use x="92.871094" xlink:href="#DejaVuSans-108"/>
      </g>
     </g>
    </g>
    <g id="xtick_6">
     <g id="line2d_6">
      <g>
       <use style="stroke:#000000;stroke-width:0.8;" x="352.588235" xlink:href="#m19669e4962" y="315"/>
      </g>
     </g>
     <g id="text_5">
      <!-- Aug -->
      <g transform="translate(342.824954 329.598437)scale(0.1 -0.1)">
       <defs>
        <path d="M 45.40625 27.984375 
Q 45.40625 37.75 41.375 43.109375 
Q 37.359375 48.484375 30.078125 48.484375 
Q 22.859375 48.484375 18.828125 43.109375 
Q 14.796875 37.75 14.796875 27.984375 
Q 14.796875 18.265625 18.828125 12.890625 
Q 22.859375 7.515625 30.078125 7.515625 
Q 37.359375 7.515625 41.375 12.890625 
Q 45.40625 18.265625 45.40625 27.984375 
z
M 54.390625 6.78125 
Q 54.390625 -7.171875 48.1875 -13.984375 
Q 42 -20.796875 29.203125 -20.796875 
Q 24.46875 -20.796875 20.265625 -20.09375 
Q 16.0625 -19.390625 12.109375 -17.921875 
L 12.109375 -9.1875 
Q 16.0625 -11.328125 19.921875 -12.34375 
Q 23.78125 -13.375 27.78125 -13.375 
Q 36.625 -13.375 41.015625 -8.765625 
Q 45.40625 -4.15625 45.40625 5.171875 
L 45.40625 9.625 
Q 42.625 4.78125 38.28125 2.390625 
Q 33.9375 0 27.875 0 
Q 17.828125 0 11.671875 7.65625 
Q 5.515625 15.328125 5.515625 27.984375 
Q 5.515625 40.671875 11.671875 48.328125 
Q 17.828125 56 27.875 56 
Q 33.9375 56 38.28125 53.609375 
Q 42.625 51.21875 45.40625 46.390625 
L 45.40625 54.6875 
L 54.390625 54.6875 
z
" id="DejaVuSans-103"/>
       </defs>
       <use xlink:href="#DejaVuSans-65"/>
       <use x="68.408203" xlink:href="#DejaVuSans-117"/>
       <use x="131.787109" xlink:href="#DejaVuSans-103"/>
      </g>
     </g>
    </g>
    <g id="xtick_7">
     <g id="line2d_7">
      <g>
       <use style="stroke:#000000;stroke-width:0.8;" x="409.117647" xlink:href="#m19669e4962" y="315"/>
      </g>
     </g>
     <g id="text_6">
      <!-- Sep -->
      <g transform="translate(399.692647 329.598437)scale(0.1 -0.1)">
       <defs>
        <path d="M 53.515625 70.515625 
L 53.515625 60.890625 
Q 47.90625 63.578125 42.921875 64.890625 
Q 37.9375 66.21875 33.296875 66.21875 
Q 25.25 66.21875 20.875 63.09375 
Q 16.5 59.96875 16.5 54.203125 
Q 16.5 49.359375 19.40625 46.890625 
Q 22.3125 44.4375 30.421875 42.921875 
L 36.375 41.703125 
Q 47.40625 39.59375 52.65625 34.296875 
Q 57.90625 29 57.90625 20.125 
Q 57.90625 9.515625 50.796875 4.046875 
Q 43.703125 -1.421875 29.984375 -1.421875 
Q 24.8125 -1.421875 18.96875 -0.25 
Q 13.140625 0.921875 6.890625 3.21875 
L 6.890625 13.375 
Q 12.890625 10.015625 18.65625 8.296875 
Q 24.421875 6.59375 29.984375 6.59375 
Q 38.421875 6.59375 43.015625 9.90625 
Q 47.609375 13.234375 47.609375 19.390625 
Q 47.609375 24.75 44.3125 27.78125 
Q 41.015625 30.8125 33.5 32.328125 
L 27.484375 33.5 
Q 16.453125 35.6875 11.515625 40.375 
Q 6.59375 45.0625 6.59375 53.421875 
Q 6.59375 63.09375 13.40625 68.65625 
Q 20.21875 74.21875 32.171875 74.21875 
Q 37.3125 74.21875 42.625 73.28125 
Q 47.953125 72.359375 53.515625 70.515625 
z
" id="DejaVuSans-83"/>
        <path d="M 56.203125 29.59375 
L 56.203125 25.203125 
L 14.890625 25.203125 
Q 15.484375 15.921875 20.484375 11.0625 
Q 25.484375 6.203125 34.421875 6.203125 
Q 39.59375 6.203125 44.453125 7.46875 
Q 49.3125 8.734375 54.109375 11.28125 
L 54.109375 2.78125 
Q 49.265625 0.734375 44.1875 -0.34375 
Q 39.109375 -1.421875 33.890625 -1.421875 
Q 20.796875 -1.421875 13.15625 6.1875 
Q 5.515625 13.8125 5.515625 26.8125 
Q 5.515625 40.234375 12.765625 48.109375 
Q 20.015625 56 32.328125 56 
Q 43.359375 56 49.78125 48.890625 
Q 56.203125 41.796875 56.203125 29.59375 
z
M 47.21875 32.234375 
Q 47.125 39.59375 43.09375 43.984375 
Q 39.0625 48.390625 32.421875 48.390625 
Q 24.90625 48.390625 20.390625 44.140625 
Q 15.875 39.890625 15.1875 32.171875 
z
" id="DejaVuSans-101"/>
       </defs>
       <use xlink:href="#DejaVuSans-83"/>
       <use x="63.476562" xlink:href="#DejaVuSans-101"/>
       <use x="125" xlink:href="#DejaVuSans-112"/>
      </g>
     </g>
    </g>
    <g id="xtick_8">
     <g id="line2d_8">
      <g>
       <use style="stroke:#000000;stroke-width:0.8;" x="463.823529" xlink:href="#m19669e4962" y="315"/>
      </g>
     </g>
     <g id="text_7">
      <!-- Oct -->
      <g transform="translate(455.178217 329.598437)scale(0.1 -0.1)">
       <defs>
        <path d="M 39.40625 66.21875 
Q 28.65625 66.21875 22.328125 58.203125 
Q 16.015625 50.203125 16.015625 36.375 
Q 16.015625 22.609375 22.328125 14.59375 
Q 28.65625 6.59375 39.40625 6.59375 
Q 50.140625 6.59375 56.421875 14.59375 
Q 62.703125 22.609375 62.703125 36.375 
Q 62.703125 50.203125 56.421875 58.203125 
Q 50.140625 66.21875 39.40625 66.21875 
z
M 39.40625 74.21875 
Q 54.734375 74.21875 63.90625 63.9375 
Q 73.09375 53.65625 73.09375 36.375 
Q 73.09375 19.140625 63.90625 8.859375 
Q 54.734375 -1.421875 39.40625 -1.421875 
Q 24.03125 -1.421875 14.8125 8.828125 
Q 5.609375 19.09375 5.609375 36.375 
Q 5.609375 53.65625 14.8125 63.9375 
Q 24.03125 74.21875 39.40625 74.21875 
z
" id="DejaVuSans-79"/>
        <path d="M 48.78125 52.59375 
L 48.78125 44.1875 
Q 44.96875 46.296875 41.140625 47.34375 
Q 37.3125 48.390625 33.40625 48.390625 
Q 24.65625 48.390625 19.8125 42.84375 
Q 14.984375 37.3125 14.984375 27.296875 
Q 14.984375 17.28125 19.8125 11.734375 
Q 24.65625 6.203125 33.40625 6.203125 
Q 37.3125 6.203125 41.140625 7.25 
Q 44.96875 8.296875 48.78125 10.40625 
L 48.78125 2.09375 
Q 45.015625 0.34375 40.984375 -0.53125 
Q 36.96875 -1.421875 32.421875 -1.421875 
Q 20.0625 -1.421875 12.78125 6.34375 
Q 5.515625 14.109375 5.515625 27.296875 
Q 5.515625 40.671875 12.859375 48.328125 
Q 20.21875 56 33.015625 56 
Q 37.15625 56 41.109375 55.140625 
Q 45.0625 54.296875 48.78125 52.59375 
z
" id="DejaVuSans-99"/>
        <path d="M 18.3125 70.21875 
L 18.3125 54.6875 
L 36.8125 54.6875 
L 36.8125 47.703125 
L 18.3125 47.703125 
L 18.3125 18.015625 
Q 18.3125 11.328125 20.140625 9.421875 
Q 21.96875 7.515625 27.59375 7.515625 
L 36.8125 7.515625 
L 36.8125 0 
L 27.59375 0 
Q 17.1875 0 13.234375 3.875 
Q 9.28125 7.765625 9.28125 18.015625 
L 9.28125 47.703125 
L 2.6875 47.703125 
L 2.6875 54.6875 
L 9.28125 54.6875 
L 9.28125 70.21875 
z
" id="DejaVuSans-116"/>
       </defs>
       <use xlink:href="#DejaVuSans-79"/>
       <use x="78.710938" xlink:href="#DejaVuSans-99"/>
       <use x="133.691406" xlink:href="#DejaVuSans-116"/>
      </g>
     </g>
    </g>
    <g id="xtick_9">
     <g id="line2d_9">
      <g>
       <use style="stroke:#000000;stroke-width:0.8;" x="520.352941" xlink:href="#m19669e4962" y="315"/>
      </g>
     </g>
     <g id="text_8">
      <!-- Nov -->
      <g transform="translate(510.593566 329.598437)scale(0.1 -0.1)">
       <defs>
        <path d="M 9.8125 72.90625 
L 23.09375 72.90625 
L 55.421875 11.921875 
L 55.421875 72.90625 
L 64.984375 72.90625 
L 64.984375 0 
L 51.703125 0 
L 19.390625 60.984375 
L 19.390625 0 
L 9.8125 0 
z
" id="DejaVuSans-78"/>
        <path d="M 30.609375 48.390625 
Q 23.390625 48.390625 19.1875 42.75 
Q 14.984375 37.109375 14.984375 27.296875 
Q 14.984375 17.484375 19.15625 11.84375 
Q 23.34375 6.203125 30.609375 6.203125 
Q 37.796875 6.203125 41.984375 11.859375 
Q 46.1875 17.53125 46.1875 27.296875 
Q 46.1875 37.015625 41.984375 42.703125 
Q 37.796875 48.390625 30.609375 48.390625 
z
M 30.609375 56 
Q 42.328125 56 49.015625 48.375 
Q 55.71875 40.765625 55.71875 27.296875 
Q 55.71875 13.875 49.015625 6.21875 
Q 42.328125 -1.421875 30.609375 -1.421875 
Q 18.84375 -1.421875 12.171875 6.21875 
Q 5.515625 13.875 5.515625 27.296875 
Q 5.515625 40.765625 12.171875 48.375 
Q 18.84375 56 30.609375 56 
z
" id="DejaVuSans-111"/>
        <path d="M 2.984375 54.6875 
L 12.5 54.6875 
L 29.59375 8.796875 
L 46.6875 54.6875 
L 56.203125 54.6875 
L 35.6875 0 
L 23.484375 0 
z
" id="DejaVuSans-118"/>
       </defs>
       <use xlink:href="#DejaVuSans-78"/>
       <use x="74.804688" xlink:href="#DejaVuSans-111"/>
       <use x="135.986328" xlink:href="#DejaVuSans-118"/>
      </g>
     </g>
    </g>
    <g id="xtick_10">
     <g id="line2d_10">
      <g>
       <use style="stroke:#000000;stroke-width:0.8;" x="575.058824" xlink:href="#m19669e4962" y="315"/>
      </g>
     </g>
     <g id="text_9">
      <!-- Dec -->
      <g transform="translate(565.383042 329.598437)scale(0.1 -0.1)">
       <defs>
        <path d="M 19.671875 64.796875 
L 19.671875 8.109375 
L 31.59375 8.109375 
Q 46.6875 8.109375 53.6875 14.9375 
Q 60.6875 21.78125 60.6875 36.53125 
Q 60.6875 51.171875 53.6875 57.984375 
Q 46.6875 64.796875 31.59375 64.796875 
z
M 9.8125 72.90625 
L 30.078125 72.90625 
Q 51.265625 72.90625 61.171875 64.09375 
Q 71.09375 55.28125 71.09375 36.53125 
Q 71.09375 17.671875 61.125 8.828125 
Q 51.171875 0 30.078125 0 
L 9.8125 0 
z
" id="DejaVuSans-68"/>
       </defs>
       <use xlink:href="#DejaVuSans-68"/>
       <use x="77.001953" xlink:href="#DejaVuSans-101"/>
       <use x="138.525391" xlink:href="#DejaVuSans-99"/>
      </g>
     </g>
    </g>
    <g id="xtick_11">
     <g id="line2d_11">
      <g>
       <use style="stroke:#000000;stroke-width:0.8;" x="631.588235" xlink:href="#m19669e4962" y="315"/>
      </g>
     </g>
     <g id="text_10">
      <!-- Jan -->
      <g transform="translate(623.880423 329.598437)scale(0.1 -0.1)">
       <use xlink:href="#DejaVuSans-74"/>
       <use x="29.492188" xlink:href="#DejaVuSans-97"/>
       <use x="90.771484" xlink:href="#DejaVuSans-110"/>
      </g>
      <!-- 2021 -->
      <g transform="translate(618.863235 340.79625)scale(0.1 -0.1)">
       <defs>
        <path d="M 19.1875 8.296875 
L 53.609375 8.296875 
L 53.609375 0 
L 7.328125 0 
L 7.328125 8.296875 
Q 12.9375 14.109375 22.625 23.890625 
Q 32.328125 33.6875 34.8125 36.53125 
Q 39.546875 41.84375 41.421875 45.53125 
Q 43.3125 49.21875 43.3125 52.78125 
Q 43.3125 58.59375 39.234375 62.25 
Q 35.15625 65.921875 28.609375 65.921875 
Q 23.96875 65.921875 18.8125 64.3125 
Q 13.671875 62.703125 7.8125 59.421875 
L 7.8125 69.390625 
Q 13.765625 71.78125 18.9375 73 
Q 24.125 74.21875 28.421875 74.21875 
Q 39.75 74.21875 46.484375 68.546875 
Q 53.21875 62.890625 53.21875 53.421875 
Q 53.21875 48.921875 51.53125 44.890625 
Q 49.859375 40.875 45.40625 35.40625 
Q 44.1875 33.984375 37.640625 27.21875 
Q 31.109375 20.453125 19.1875 8.296875 
z
" id="DejaVuSans-50"/>
        <path d="M 31.78125 66.40625 
Q 24.171875 66.40625 20.328125 58.90625 
Q 16.5 51.421875 16.5 36.375 
Q 16.5 21.390625 20.328125 13.890625 
Q 24.171875 6.390625 31.78125 6.390625 
Q 39.453125 6.390625 43.28125 13.890625 
Q 47.125 21.390625 47.125 36.375 
Q 47.125 51.421875 43.28125 58.90625 
Q 39.453125 66.40625 31.78125 66.40625 
z
M 31.78125 74.21875 
Q 44.046875 74.21875 50.515625 64.515625 
Q 56.984375 54.828125 56.984375 36.375 
Q 56.984375 17.96875 50.515625 8.265625 
Q 44.046875 -1.421875 31.78125 -1.421875 
Q 19.53125 -1.421875 13.0625 8.265625 
Q 6.59375 17.96875 6.59375 36.375 
Q 6.59375 54.828125 13.0625 64.515625 
Q 19.53125 74.21875 31.78125 74.21875 
z
" id="DejaVuSans-48"/>
        <path d="M 12.40625 8.296875 
L 28.515625 8.296875 
L 28.515625 63.921875 
L 10.984375 60.40625 
L 10.984375 69.390625 
L 28.421875 72.90625 
L 38.28125 72.90625 
L 38.28125 8.296875 
L 54.390625 8.296875 
L 54.390625 0 
L 12.40625 0 
z
" id="DejaVuSans-49"/>
       </defs>
       <use xlink:href="#DejaVuSans-50"/>
       <use x="63.623047" xlink:href="#DejaVuSans-48"/>
       <use x="127.246094" xlink:href="#DejaVuSans-50"/>
       <use x="190.869141" xlink:href="#DejaVuSans-49"/>
      </g>
     </g>
    </g>
    <g id="xtick_12">
     <g id="line2d_12">
      <g>
       <use style="stroke:#000000;stroke-width:0.8;" x="648" xlink:href="#m19669e4962" y="315"/>
      </g>
     </g>
    </g>
    <g id="xtick_13">
     <g id="line2d_13">
      <defs>
       <path d="M 0 0 
L 0 2 
" id="m6d25a90460" style="stroke:#000000;stroke-width:0.6;"/>
      </defs>
      <g>
       <use style="stroke:#000000;stroke-width:0.6;" x="100.941176" xlink:href="#m6d25a90460" y="315"/>
      </g>
     </g>
    </g>
    <g id="xtick_14">
     <g id="line2d_14">
      <g>
       <use style="stroke:#000000;stroke-width:0.6;" x="113.705882" xlink:href="#m6d25a90460" y="315"/>
      </g>
     </g>
    </g>
    <g id="xtick_15">
     <g id="line2d_15">
      <g>
       <use style="stroke:#000000;stroke-width:0.6;" x="126.470588" xlink:href="#m6d25a90460" y="315"/>
      </g>
     </g>
    </g>
    <g id="xtick_16">
     <g id="line2d_16">
      <g>
       <use style="stroke:#000000;stroke-width:0.6;" x="139.235294" xlink:href="#m6d25a90460" y="315"/>
      </g>
     </g>
    </g>
    <g id="xtick_17">
     <g id="line2d_17">
      <g>
       <use style="stroke:#000000;stroke-width:0.6;" x="152" xlink:href="#m6d25a90460" y="315"/>
      </g>
     </g>
    </g>
    <g id="xtick_18">
     <g id="line2d_18">
      <g>
       <use style="stroke:#000000;stroke-width:0.6;" x="164.764706" xlink:href="#m6d25a90460" y="315"/>
      </g>
     </g>
    </g>
    <g id="xtick_19">
     <g id="line2d_19">
      <g>
       <use style="stroke:#000000;stroke-width:0.6;" x="177.529412" xlink:href="#m6d25a90460" y="315"/>
      </g>
     </g>
    </g>
    <g id="xtick_20">
     <g id="line2d_20">
      <g>
       <use style="stroke:#000000;stroke-width:0.6;" x="190.294118" xlink:href="#m6d25a90460" y="315"/>
      </g>
     </g>
    </g>
    <g id="xtick_21">
     <g id="line2d_21">
      <g>
       <use style="stroke:#000000;stroke-width:0.6;" x="203.058824" xlink:href="#m6d25a90460" y="315"/>
      </g>
     </g>
    </g>
    <g id="xtick_22">
     <g id="line2d_22">
      <g>
       <use style="stroke:#000000;stroke-width:0.6;" x="215.823529" xlink:href="#m6d25a90460" y="315"/>
      </g>
     </g>
    </g>
    <g id="xtick_23">
     <g id="line2d_23">
      <g>
       <use style="stroke:#000000;stroke-width:0.6;" x="228.588235" xlink:href="#m6d25a90460" y="315"/>
      </g>
     </g>
    </g>
    <g id="xtick_24">
     <g id="line2d_24">
      <g>
       <use style="stroke:#000000;stroke-width:0.6;" x="254.117647" xlink:href="#m6d25a90460" y="315"/>
      </g>
     </g>
    </g>
    <g id="xtick_25">
     <g id="line2d_25">
      <g>
       <use style="stroke:#000000;stroke-width:0.6;" x="266.882353" xlink:href="#m6d25a90460" y="315"/>
      </g>
     </g>
    </g>
    <g id="xtick_26">
     <g id="line2d_26">
      <g>
       <use style="stroke:#000000;stroke-width:0.6;" x="279.647059" xlink:href="#m6d25a90460" y="315"/>
      </g>
     </g>
    </g>
    <g id="xtick_27">
     <g id="line2d_27">
      <g>
       <use style="stroke:#000000;stroke-width:0.6;" x="292.411765" xlink:href="#m6d25a90460" y="315"/>
      </g>
     </g>
    </g>
    <g id="xtick_28">
     <g id="line2d_28">
      <g>
       <use style="stroke:#000000;stroke-width:0.6;" x="305.176471" xlink:href="#m6d25a90460" y="315"/>
      </g>
     </g>
    </g>
    <g id="xtick_29">
     <g id="line2d_29">
      <g>
       <use style="stroke:#000000;stroke-width:0.6;" x="317.941176" xlink:href="#m6d25a90460" y="315"/>
      </g>
     </g>
    </g>
    <g id="xtick_30">
     <g id="line2d_30">
      <g>
       <use style="stroke:#000000;stroke-width:0.6;" x="330.705882" xlink:href="#m6d25a90460" y="315"/>
      </g>
     </g>
    </g>
    <g id="xtick_31">
     <g id="line2d_31">
      <g>
       <use style="stroke:#000000;stroke-width:0.6;" x="343.470588" xlink:href="#m6d25a90460" y="315"/>
      </g>
     </g>
    </g>
    <g id="xtick_32">
     <g id="line2d_32">
      <g>
       <use style="stroke:#000000;stroke-width:0.6;" x="356.235294" xlink:href="#m6d25a90460" y="315"/>
      </g>
     </g>
    </g>
    <g id="xtick_33">
     <g id="line2d_33">
      <g>
       <use style="stroke:#000000;stroke-width:0.6;" x="369" xlink:href="#m6d25a90460" y="315"/>
      </g>
     </g>
    </g>
    <g id="xtick_34">
     <g id="line2d_34">
      <g>
       <use style="stroke:#000000;stroke-width:0.6;" x="381.764706" xlink:href="#m6d25a90460" y="315"/>
      </g>
     </g>
    </g>
    <g id="xtick_35">
     <g id="line2d_35">
      <g>
       <use style="stroke:#000000;stroke-width:0.6;" x="394.529412" xlink:href="#m6d25a90460" y="315"/>
      </g>
     </g>
    </g>
    <g id="xtick_36">
     <g id="line2d_36">
      <g>
       <use style="stroke:#000000;stroke-width:0.6;" x="407.294118" xlink:href="#m6d25a90460" y="315"/>
      </g>
     </g>
    </g>
    <g id="xtick_37">
     <g id="line2d_37">
      <g>
       <use style="stroke:#000000;stroke-width:0.6;" x="420.058824" xlink:href="#m6d25a90460" y="315"/>
      </g>
     </g>
    </g>
    <g id="xtick_38">
     <g id="line2d_38">
      <g>
       <use style="stroke:#000000;stroke-width:0.6;" x="432.823529" xlink:href="#m6d25a90460" y="315"/>
      </g>
     </g>
    </g>
    <g id="xtick_39">
     <g id="line2d_39">
      <g>
       <use style="stroke:#000000;stroke-width:0.6;" x="445.588235" xlink:href="#m6d25a90460" y="315"/>
      </g>
     </g>
    </g>
    <g id="xtick_40">
     <g id="line2d_40">
      <g>
       <use style="stroke:#000000;stroke-width:0.6;" x="458.352941" xlink:href="#m6d25a90460" y="315"/>
      </g>
     </g>
    </g>
    <g id="xtick_41">
     <g id="line2d_41">
      <g>
       <use style="stroke:#000000;stroke-width:0.6;" x="471.117647" xlink:href="#m6d25a90460" y="315"/>
      </g>
     </g>
    </g>
    <g id="xtick_42">
     <g id="line2d_42">
      <g>
       <use style="stroke:#000000;stroke-width:0.6;" x="483.882353" xlink:href="#m6d25a90460" y="315"/>
      </g>
     </g>
    </g>
    <g id="xtick_43">
     <g id="line2d_43">
      <g>
       <use style="stroke:#000000;stroke-width:0.6;" x="496.647059" xlink:href="#m6d25a90460" y="315"/>
      </g>
     </g>
    </g>
    <g id="xtick_44">
     <g id="line2d_44">
      <g>
       <use style="stroke:#000000;stroke-width:0.6;" x="509.411765" xlink:href="#m6d25a90460" y="315"/>
      </g>
     </g>
    </g>
    <g id="xtick_45">
     <g id="line2d_45">
      <g>
       <use style="stroke:#000000;stroke-width:0.6;" x="522.176471" xlink:href="#m6d25a90460" y="315"/>
      </g>
     </g>
    </g>
    <g id="xtick_46">
     <g id="line2d_46">
      <g>
       <use style="stroke:#000000;stroke-width:0.6;" x="534.941176" xlink:href="#m6d25a90460" y="315"/>
      </g>
     </g>
    </g>
    <g id="xtick_47">
     <g id="line2d_47">
      <g>
       <use style="stroke:#000000;stroke-width:0.6;" x="547.705882" xlink:href="#m6d25a90460" y="315"/>
      </g>
     </g>
    </g>
    <g id="xtick_48">
     <g id="line2d_48">
      <g>
       <use style="stroke:#000000;stroke-width:0.6;" x="560.470588" xlink:href="#m6d25a90460" y="315"/>
      </g>
     </g>
    </g>
    <g id="xtick_49">
     <g id="line2d_49">
      <g>
       <use style="stroke:#000000;stroke-width:0.6;" x="573.235294" xlink:href="#m6d25a90460" y="315"/>
      </g>
     </g>
    </g>
    <g id="xtick_50">
     <g id="line2d_50">
      <g>
       <use style="stroke:#000000;stroke-width:0.6;" x="586" xlink:href="#m6d25a90460" y="315"/>
      </g>
     </g>
    </g>
    <g id="xtick_51">
     <g id="line2d_51">
      <g>
       <use style="stroke:#000000;stroke-width:0.6;" x="598.764706" xlink:href="#m6d25a90460" y="315"/>
      </g>
     </g>
    </g>
    <g id="xtick_52">
     <g id="line2d_52">
      <g>
       <use style="stroke:#000000;stroke-width:0.6;" x="611.529412" xlink:href="#m6d25a90460" y="315"/>
      </g>
     </g>
    </g>
    <g id="xtick_53">
     <g id="line2d_53">
      <g>
       <use style="stroke:#000000;stroke-width:0.6;" x="624.294118" xlink:href="#m6d25a90460" y="315"/>
      </g>
     </g>
    </g>
    <g id="xtick_54">
     <g id="line2d_54">
      <g>
       <use style="stroke:#000000;stroke-width:0.6;" x="637.058824" xlink:href="#m6d25a90460" y="315"/>
      </g>
     </g>
    </g>
    <g id="text_11">
     <!-- date -->
     <g transform="translate(357.725 354.474375)scale(0.1 -0.1)">
      <defs>
       <path d="M 45.40625 46.390625 
L 45.40625 75.984375 
L 54.390625 75.984375 
L 54.390625 0 
L 45.40625 0 
L 45.40625 8.203125 
Q 42.578125 3.328125 38.25 0.953125 
Q 33.9375 -1.421875 27.875 -1.421875 
Q 17.96875 -1.421875 11.734375 6.484375 
Q 5.515625 14.40625 5.515625 27.296875 
Q 5.515625 40.1875 11.734375 48.09375 
Q 17.96875 56 27.875 56 
Q 33.9375 56 38.25 53.625 
Q 42.578125 51.265625 45.40625 46.390625 
z
M 14.796875 27.296875 
Q 14.796875 17.390625 18.875 11.75 
Q 22.953125 6.109375 30.078125 6.109375 
Q 37.203125 6.109375 41.296875 11.75 
Q 45.40625 17.390625 45.40625 27.296875 
Q 45.40625 37.203125 41.296875 42.84375 
Q 37.203125 48.484375 30.078125 48.484375 
Q 22.953125 48.484375 18.875 42.84375 
Q 14.796875 37.203125 14.796875 27.296875 
z
" id="DejaVuSans-100"/>
      </defs>
      <use xlink:href="#DejaVuSans-100"/>
      <use x="63.476562" xlink:href="#DejaVuSans-97"/>
      <use x="124.755859" xlink:href="#DejaVuSans-116"/>
      <use x="163.964844" xlink:href="#DejaVuSans-101"/>
     </g>
    </g>
   </g>
   <g id="matplotlib.axis_2">
    <g id="ytick_1">
     <g id="line2d_55">
      <path clip-path="url(#p04c81949bb)" d="M 90 305.138832 
L 648 305.138832 
" style="fill:none;stroke:#b0b0b0;stroke-dasharray:0.8,1.32;stroke-dashoffset:0;stroke-width:0.8;"/>
     </g>
     <g id="line2d_56">
      <defs>
       <path d="M 0 0 
L -3.5 0 
" id="mfb2166b271" style="stroke:#000000;stroke-width:0.8;"/>
      </defs>
      <g>
       <use style="stroke:#000000;stroke-width:0.8;" x="90" xlink:href="#mfb2166b271" y="305.138832"/>
      </g>
     </g>
     <g id="text_12">
      <!-- 0.4 -->
      <g transform="translate(67.096875 308.938051)scale(0.1 -0.1)">
       <defs>
        <path d="M 10.6875 12.40625 
L 21 12.40625 
L 21 0 
L 10.6875 0 
z
" id="DejaVuSans-46"/>
        <path d="M 37.796875 64.3125 
L 12.890625 25.390625 
L 37.796875 25.390625 
z
M 35.203125 72.90625 
L 47.609375 72.90625 
L 47.609375 25.390625 
L 58.015625 25.390625 
L 58.015625 17.1875 
L 47.609375 17.1875 
L 47.609375 0 
L 37.796875 0 
L 37.796875 17.1875 
L 4.890625 17.1875 
L 4.890625 26.703125 
z
" id="DejaVuSans-52"/>
       </defs>
       <use xlink:href="#DejaVuSans-48"/>
       <use x="63.623047" xlink:href="#DejaVuSans-46"/>
       <use x="95.410156" xlink:href="#DejaVuSans-52"/>
      </g>
     </g>
    </g>
    <g id="ytick_2">
     <g id="line2d_57">
      <path clip-path="url(#p04c81949bb)" d="M 90 271.120003 
L 648 271.120003 
" style="fill:none;stroke:#b0b0b0;stroke-dasharray:0.8,1.32;stroke-dashoffset:0;stroke-width:0.8;"/>
     </g>
     <g id="line2d_58">
      <g>
       <use style="stroke:#000000;stroke-width:0.8;" x="90" xlink:href="#mfb2166b271" y="271.120003"/>
      </g>
     </g>
     <g id="text_13">
      <!-- 0.6 -->
      <g transform="translate(67.096875 274.919222)scale(0.1 -0.1)">
       <defs>
        <path d="M 33.015625 40.375 
Q 26.375 40.375 22.484375 35.828125 
Q 18.609375 31.296875 18.609375 23.390625 
Q 18.609375 15.53125 22.484375 10.953125 
Q 26.375 6.390625 33.015625 6.390625 
Q 39.65625 6.390625 43.53125 10.953125 
Q 47.40625 15.53125 47.40625 23.390625 
Q 47.40625 31.296875 43.53125 35.828125 
Q 39.65625 40.375 33.015625 40.375 
z
M 52.59375 71.296875 
L 52.59375 62.3125 
Q 48.875 64.0625 45.09375 64.984375 
Q 41.3125 65.921875 37.59375 65.921875 
Q 27.828125 65.921875 22.671875 59.328125 
Q 17.53125 52.734375 16.796875 39.40625 
Q 19.671875 43.65625 24.015625 45.921875 
Q 28.375 48.1875 33.59375 48.1875 
Q 44.578125 48.1875 50.953125 41.515625 
Q 57.328125 34.859375 57.328125 23.390625 
Q 57.328125 12.15625 50.6875 5.359375 
Q 44.046875 -1.421875 33.015625 -1.421875 
Q 20.359375 -1.421875 13.671875 8.265625 
Q 6.984375 17.96875 6.984375 36.375 
Q 6.984375 53.65625 15.1875 63.9375 
Q 23.390625 74.21875 37.203125 74.21875 
Q 40.921875 74.21875 44.703125 73.484375 
Q 48.484375 72.75 52.59375 71.296875 
z
" id="DejaVuSans-54"/>
       </defs>
       <use xlink:href="#DejaVuSans-48"/>
       <use x="63.623047" xlink:href="#DejaVuSans-46"/>
       <use x="95.410156" xlink:href="#DejaVuSans-54"/>
      </g>
     </g>
    </g>
    <g id="ytick_3">
     <g id="line2d_59">
      <path clip-path="url(#p04c81949bb)" d="M 90 237.101174 
L 648 237.101174 
" style="fill:none;stroke:#b0b0b0;stroke-dasharray:0.8,1.32;stroke-dashoffset:0;stroke-width:0.8;"/>
     </g>
     <g id="line2d_60">
      <g>
       <use style="stroke:#000000;stroke-width:0.8;" x="90" xlink:href="#mfb2166b271" y="237.101174"/>
      </g>
     </g>
     <g id="text_14">
      <!-- 0.8 -->
      <g transform="translate(67.096875 240.900393)scale(0.1 -0.1)">
       <defs>
        <path d="M 31.78125 34.625 
Q 24.75 34.625 20.71875 30.859375 
Q 16.703125 27.09375 16.703125 20.515625 
Q 16.703125 13.921875 20.71875 10.15625 
Q 24.75 6.390625 31.78125 6.390625 
Q 38.8125 6.390625 42.859375 10.171875 
Q 46.921875 13.96875 46.921875 20.515625 
Q 46.921875 27.09375 42.890625 30.859375 
Q 38.875 34.625 31.78125 34.625 
z
M 21.921875 38.8125 
Q 15.578125 40.375 12.03125 44.71875 
Q 8.5 49.078125 8.5 55.328125 
Q 8.5 64.0625 14.71875 69.140625 
Q 20.953125 74.21875 31.78125 74.21875 
Q 42.671875 74.21875 48.875 69.140625 
Q 55.078125 64.0625 55.078125 55.328125 
Q 55.078125 49.078125 51.53125 44.71875 
Q 48 40.375 41.703125 38.8125 
Q 48.828125 37.15625 52.796875 32.3125 
Q 56.78125 27.484375 56.78125 20.515625 
Q 56.78125 9.90625 50.3125 4.234375 
Q 43.84375 -1.421875 31.78125 -1.421875 
Q 19.734375 -1.421875 13.25 4.234375 
Q 6.78125 9.90625 6.78125 20.515625 
Q 6.78125 27.484375 10.78125 32.3125 
Q 14.796875 37.15625 21.921875 38.8125 
z
M 18.3125 54.390625 
Q 18.3125 48.734375 21.84375 45.5625 
Q 25.390625 42.390625 31.78125 42.390625 
Q 38.140625 42.390625 41.71875 45.5625 
Q 45.3125 48.734375 45.3125 54.390625 
Q 45.3125 60.0625 41.71875 63.234375 
Q 38.140625 66.40625 31.78125 66.40625 
Q 25.390625 66.40625 21.84375 63.234375 
Q 18.3125 60.0625 18.3125 54.390625 
z
" id="DejaVuSans-56"/>
       </defs>
       <use xlink:href="#DejaVuSans-48"/>
       <use x="63.623047" xlink:href="#DejaVuSans-46"/>
       <use x="95.410156" xlink:href="#DejaVuSans-56"/>
      </g>
     </g>
    </g>
    <g id="ytick_4">
     <g id="line2d_61">
      <path clip-path="url(#p04c81949bb)" d="M 90 203.082345 
L 648 203.082345 
" style="fill:none;stroke:#b0b0b0;stroke-dasharray:0.8,1.32;stroke-dashoffset:0;stroke-width:0.8;"/>
     </g>
     <g id="line2d_62">
      <g>
       <use style="stroke:#000000;stroke-width:0.8;" x="90" xlink:href="#mfb2166b271" y="203.082345"/>
      </g>
     </g>
     <g id="text_15">
      <!-- 1.0 -->
      <g transform="translate(67.096875 206.881564)scale(0.1 -0.1)">
       <use xlink:href="#DejaVuSans-49"/>
       <use x="63.623047" xlink:href="#DejaVuSans-46"/>
       <use x="95.410156" xlink:href="#DejaVuSans-48"/>
      </g>
     </g>
    </g>
    <g id="ytick_5">
     <g id="line2d_63">
      <path clip-path="url(#p04c81949bb)" d="M 90 169.063516 
L 648 169.063516 
" style="fill:none;stroke:#b0b0b0;stroke-dasharray:0.8,1.32;stroke-dashoffset:0;stroke-width:0.8;"/>
     </g>
     <g id="line2d_64">
      <g>
       <use style="stroke:#000000;stroke-width:0.8;" x="90" xlink:href="#mfb2166b271" y="169.063516"/>
      </g>
     </g>
     <g id="text_16">
      <!-- 1.2 -->
      <g transform="translate(67.096875 172.862734)scale(0.1 -0.1)">
       <use xlink:href="#DejaVuSans-49"/>
       <use x="63.623047" xlink:href="#DejaVuSans-46"/>
       <use x="95.410156" xlink:href="#DejaVuSans-50"/>
      </g>
     </g>
    </g>
    <g id="ytick_6">
     <g id="line2d_65">
      <path clip-path="url(#p04c81949bb)" d="M 90 135.044687 
L 648 135.044687 
" style="fill:none;stroke:#b0b0b0;stroke-dasharray:0.8,1.32;stroke-dashoffset:0;stroke-width:0.8;"/>
     </g>
     <g id="line2d_66">
      <g>
       <use style="stroke:#000000;stroke-width:0.8;" x="90" xlink:href="#mfb2166b271" y="135.044687"/>
      </g>
     </g>
     <g id="text_17">
      <!-- 1.4 -->
      <g transform="translate(67.096875 138.843905)scale(0.1 -0.1)">
       <use xlink:href="#DejaVuSans-49"/>
       <use x="63.623047" xlink:href="#DejaVuSans-46"/>
       <use x="95.410156" xlink:href="#DejaVuSans-52"/>
      </g>
     </g>
    </g>
    <g id="ytick_7">
     <g id="line2d_67">
      <path clip-path="url(#p04c81949bb)" d="M 90 101.025858 
L 648 101.025858 
" style="fill:none;stroke:#b0b0b0;stroke-dasharray:0.8,1.32;stroke-dashoffset:0;stroke-width:0.8;"/>
     </g>
     <g id="line2d_68">
      <g>
       <use style="stroke:#000000;stroke-width:0.8;" x="90" xlink:href="#mfb2166b271" y="101.025858"/>
      </g>
     </g>
     <g id="text_18">
      <!-- 1.6 -->
      <g transform="translate(67.096875 104.825076)scale(0.1 -0.1)">
       <use xlink:href="#DejaVuSans-49"/>
       <use x="63.623047" xlink:href="#DejaVuSans-46"/>
       <use x="95.410156" xlink:href="#DejaVuSans-54"/>
      </g>
     </g>
    </g>
    <g id="ytick_8">
     <g id="line2d_69">
      <path clip-path="url(#p04c81949bb)" d="M 90 67.007029 
L 648 67.007029 
" style="fill:none;stroke:#b0b0b0;stroke-dasharray:0.8,1.32;stroke-dashoffset:0;stroke-width:0.8;"/>
     </g>
     <g id="line2d_70">
      <g>
       <use style="stroke:#000000;stroke-width:0.8;" x="90" xlink:href="#mfb2166b271" y="67.007029"/>
      </g>
     </g>
     <g id="text_19">
      <!-- 1.8 -->
      <g transform="translate(67.096875 70.806247)scale(0.1 -0.1)">
       <use xlink:href="#DejaVuSans-49"/>
       <use x="63.623047" xlink:href="#DejaVuSans-46"/>
       <use x="95.410156" xlink:href="#DejaVuSans-56"/>
      </g>
     </g>
    </g>
   </g>
   <g id="line2d_71">
    <path clip-path="url(#p04c81949bb)" d="M 90 212.540974 
L 91.823529 213.033942 
L 93.647059 214.646119 
L 95.470588 213.845649 
L 97.294118 215.817624 
L 99.117647 218.339926 
L 100.941176 220.653355 
L 102.764706 224.542818 
L 104.588235 228.723312 
L 106.411765 231.608361 
L 110.058824 241.797722 
L 113.705882 250.236335 
L 115.529412 255.099271 
L 117.352941 258.782904 
L 122.823529 271.557923 
L 124.647059 274.474265 
L 126.470588 276.384441 
L 128.294118 279.07045 
L 130.117647 280.814245 
L 131.941176 281.905746 
L 133.764706 282.816275 
L 135.588235 283.31091 
L 137.411765 283.227479 
L 139.235294 283.548295 
L 141.058824 283.346775 
L 144.705882 280.32536 
L 146.529412 279.333647 
L 148.352941 276.811435 
L 150.176471 274.564814 
L 152 272.002925 
L 153.823529 268.486222 
L 159.294118 259.4013 
L 162.941176 252.403151 
L 164.764706 247.159278 
L 166.588235 243.659615 
L 168.411765 239.083193 
L 172.058824 228.393793 
L 173.882353 223.959333 
L 179.352941 207.820505 
L 181.176471 202.155048 
L 183 194.70832 
L 184.823529 189.97817 
L 188.470588 177.688732 
L 190.294118 172.818052 
L 193.941176 162.184635 
L 197.588235 153.344739 
L 199.411765 147.631174 
L 201.235294 143.252409 
L 203.058824 141.242595 
L 204.882353 139.542816 
L 206.705882 134.8798 
L 208.529412 132.725213 
L 210.352941 129.626923 
L 214 122.815247 
L 215.823529 121.065728 
L 217.647059 118.55409 
L 219.470588 115.149369 
L 221.294118 112.18068 
L 223.117647 111.451045 
L 224.941176 111.279155 
L 226.764706 110.297821 
L 230.411765 110.832457 
L 232.235294 113.332291 
L 234.058824 116.111431 
L 235.882353 118.652867 
L 237.705882 123.258031 
L 239.529412 127.156909 
L 241.352941 130.784425 
L 243.176471 135.338149 
L 245 136.403965 
L 246.823529 137.926532 
L 248.647059 139.607786 
L 250.470588 140.737623 
L 252.294118 138.943373 
L 254.117647 137.421056 
L 255.941176 136.061078 
L 257.764706 132.720341 
L 259.588235 130.290749 
L 263.235294 119.807358 
L 265.058824 114.076792 
L 266.882353 109.370486 
L 268.705882 104.219569 
L 270.529412 100.142424 
L 272.352941 98.633899 
L 276 95.327232 
L 277.823529 96.830206 
L 279.647059 101.813059 
L 283.294118 108.856078 
L 285.117647 113.620863 
L 286.941176 123.180536 
L 288.764706 130.113664 
L 292.411765 147.406947 
L 297.882353 175.521622 
L 299.705882 183.337088 
L 303.352941 200.427534 
L 305.176471 207.340053 
L 307 213.274456 
L 308.823529 217.90561 
L 312.470588 226.092113 
L 314.294118 229.334085 
L 316.117647 232.162745 
L 317.941176 233.93887 
L 319.764706 235.023099 
L 321.588235 235.922907 
L 323.411765 236.692084 
L 325.235294 235.999362 
L 327.058824 236.218023 
L 330.705882 234.107352 
L 336.176471 228.809563 
L 338 226.839962 
L 341.647059 221.639742 
L 343.470588 219.235448 
L 345.294118 217.617712 
L 347.117647 215.774875 
L 348.941176 212.377005 
L 350.764706 212.030525 
L 352.588235 210.089417 
L 354.411765 208.742419 
L 356.235294 208.195422 
L 359.882353 205.059016 
L 361.705882 202.851384 
L 363.529412 201.877733 
L 365.352941 199.612973 
L 367.176471 198.499011 
L 369 196.440995 
L 370.823529 194.552083 
L 374.470588 188.370398 
L 376.294118 184.043283 
L 378.117647 179.086144 
L 379.941176 176.333481 
L 383.588235 164.943284 
L 385.411765 158.637916 
L 387.235294 150.967193 
L 389.058824 145.532731 
L 390.882353 138.946428 
L 394.529412 123.494878 
L 396.352941 116.911838 
L 398.176471 111.50174 
L 403.647059 99.187465 
L 405.470588 97.581821 
L 407.294118 97.816905 
L 409.117647 100.859816 
L 410.941176 104.393599 
L 414.588235 117.609028 
L 416.411765 125.76942 
L 418.235294 133.136382 
L 425.529412 170.273974 
L 427.352941 177.996407 
L 429.176471 189.37261 
L 431 198.105597 
L 432.823529 207.992592 
L 434.647059 215.835541 
L 436.470588 225.212343 
L 438.294118 233.593385 
L 440.117647 242.815819 
L 441.941176 249.237417 
L 443.764706 256.557675 
L 445.588235 261.244278 
L 447.411765 267.097096 
L 449.235294 272.28786 
L 451.058824 276.078087 
L 452.882353 280.46257 
L 454.705882 283.683804 
L 456.529412 286.061045 
L 458.352941 287.945207 
L 460.176471 289.595173 
L 462 289.938174 
L 463.823529 290.696168 
L 465.647059 289.965271 
L 469.294118 287.838685 
L 471.117647 286.25169 
L 472.941176 284.489442 
L 474.764706 282.495567 
L 476.588235 279.516354 
L 480.235294 273.965451 
L 485.705882 264.294592 
L 487.529412 260.739173 
L 489.352941 256.859292 
L 491.176471 251.997522 
L 493 248.99082 
L 494.823529 245.464681 
L 496.647059 241.129682 
L 498.470588 235.654389 
L 511.235294 203.411715 
L 513.058824 199.426974 
L 514.882353 194.611042 
L 516.705882 189.402264 
L 520.352941 179.91265 
L 524 171.890061 
L 525.823529 167.257628 
L 527.647059 161.720573 
L 529.470588 158.174835 
L 531.294118 153.636117 
L 533.117647 150.639205 
L 534.941176 146.93679 
L 536.764706 144.586731 
L 538.588235 143.241077 
L 540.411765 141.203389 
L 542.235294 139.396063 
L 544.058824 139.641119 
L 545.882353 137.764313 
L 547.705882 139.47908 
L 549.529412 140.222977 
L 551.352941 138.103181 
L 553.176471 139.671855 
L 555 140.951994 
L 556.823529 140.087361 
L 558.647059 141.423136 
L 560.470588 143.398269 
L 562.294118 145.913231 
L 564.117647 147.920269 
L 565.941176 150.384266 
L 567.764706 152.212442 
L 569.588235 154.30009 
L 571.411765 155.8712 
L 573.235294 157.924094 
L 575.058824 158.517771 
L 576.882353 160.485305 
L 578.705882 161.634133 
L 580.529412 159.605094 
L 582.352941 159.15293 
L 584.176471 159.62679 
L 586 157.025049 
L 587.823529 156.008615 
L 589.647059 153.763883 
L 591.470588 153.352571 
L 593.294118 155.299967 
L 595.117647 155.239609 
L 596.941176 154.360605 
L 598.764706 155.354177 
L 600.588235 155.953972 
L 602.411765 157.17291 
L 604.235294 157.880326 
L 606.058824 159.365927 
L 609.705882 162.63602 
L 611.529412 163.958792 
L 613.352941 165.559312 
L 615.176471 167.30811 
L 617 169.302376 
L 618.823529 170.108499 
L 620.647059 172.296851 
L 622.470588 172.891097 
L 624.294118 174.875361 
L 626.117647 177.128312 
L 627.941176 178.402106 
L 631.588235 179.983895 
L 633.411765 181.06494 
L 635.235294 183.874397 
L 638.882353 184.429195 
L 640.705882 187.368472 
L 642.529412 186.213513 
L 644.352941 187.527329 
L 646.176471 187.774087 
L 648 189.152958 
L 649.823529 189.920621 
L 651.647059 190.502217 
L 653.470588 188.84995 
L 655.294118 188.82645 
L 657.117647 186.737148 
L 658.941176 189.407686 
L 660.764706 189.310235 
L 662.588235 187.231561 
L 662.588235 187.231561 
" style="fill:none;stroke:#fc997a;stroke-linecap:square;stroke-width:1.5;"/>
   </g>
   <g id="line2d_72">
    <path clip-path="url(#p04c81949bb)" d="M 90 203.082345 
L 648 203.082345 
" style="fill:none;stroke:#000000;stroke-dasharray:3.7,1.6;stroke-dashoffset:0;"/>
   </g>
   <g id="patch_3">
    <path d="M 90 315 
L 90 43.2 
" style="fill:none;stroke:#000000;stroke-linecap:square;stroke-linejoin:miter;stroke-width:0.8;"/>
   </g>
   <g id="patch_4">
    <path d="M 648 315 
L 648 43.2 
" style="fill:none;stroke:#000000;stroke-linecap:square;stroke-linejoin:miter;stroke-width:0.8;"/>
   </g>
   <g id="patch_5">
    <path d="M 90 315 
L 648 315 
" style="fill:none;stroke:#000000;stroke-linecap:square;stroke-linejoin:miter;stroke-width:0.8;"/>
   </g>
   <g id="patch_6">
    <path d="M 90 43.2 
L 648 43.2 
" style="fill:none;stroke:#000000;stroke-linecap:square;stroke-linejoin:miter;stroke-width:0.8;"/>
   </g>
   <g id="text_20">
    <!-- 442    $R_t$ -->
    <g transform="translate(306.3 37.2)scale(0.12 -0.12)">
     <defs>
      <path id="DejaVuSans-32"/>
      <path d="M 18.171875 54.6875 
L 18.171875 -20.796875 
L 9.078125 -20.796875 
L 9.078125 54.6875 
z
" id="DejaVuSans-1503"/>
      <path d="M 18.171875 54.6875 
L 18.171875 0 
L 9.078125 0 
L 9.078125 54.6875 
z
" id="DejaVuSans-1493"/>
      <path d="M 15.71875 54.6875 
L 15.71875 24.125 
L 6.640625 20.40625 
L 6.640625 54.6875 
z
" id="DejaVuSans-1497"/>
      <path d="M 36.921875 6.9375 
L 4.296875 54.6875 
L 14.9375 54.6875 
L 33.84375 27 
Q 34.03125 27.15625 34.375 27.390625 
Q 35.546875 28.21875 36.171875 28.75 
Q 36.8125 29.296875 37.890625 30.5625 
Q 38.96875 31.84375 39.546875 33.171875 
Q 40.140625 34.515625 40.59375 36.71875 
Q 41.0625 38.921875 41.0625 41.609375 
L 41.0625 54.6875 
L 50.046875 54.6875 
L 50.046875 45.65625 
Q 50.046875 42.046875 49.609375 38.984375 
Q 49.171875 35.9375 48.53125 33.78125 
Q 47.90625 31.640625 46.78125 29.75 
Q 45.65625 27.875 44.71875 26.75 
Q 43.796875 25.640625 42.3125 24.484375 
Q 40.828125 23.34375 39.9375 22.828125 
Q 39.0625 22.3125 37.59375 21.53125 
L 50.25 3.46875 
L 50.25 0 
L 4.296875 0 
L 4.296875 6.9375 
z
" id="DejaVuSans-1510"/>
      <path d="M 18.796875 0 
L 38.53125 47.703125 
L 4.296875 47.703125 
L 4.296875 72.90625 
L 13.421875 72.90625 
L 13.421875 54.6875 
L 49.21875 54.640625 
L 49.078125 49.265625 
L 28.328125 0 
z
" id="DejaVuSans-1500"/>
      <path d="M 21 0 
L 11.8125 0 
L 4.296875 54.6875 
L 13.328125 54.6875 
L 16.890625 28.953125 
Q 19.234375 29 21.0625 29.359375 
Q 22.90625 29.734375 24.265625 30.53125 
Q 25.640625 31.34375 26.609375 32.203125 
Q 27.59375 33.0625 28.296875 34.625 
Q 29 36.1875 29.40625 37.46875 
Q 29.828125 38.765625 30.1875 41.03125 
Q 30.5625 43.3125 30.75 45 
Q 30.953125 46.6875 31.265625 49.640625 
Q 31.59375 52.59375 31.890625 54.6875 
L 39.9375 54.6875 
Q 39.0625 42 37.890625 36.96875 
Q 35.890625 28.609375 30.609375 25.25 
Q 25.984375 22.265625 17.828125 21.96875 
L 19.921875 6.984375 
Q 24.703125 6.984375 28.390625 7.34375 
Q 32.078125 7.71875 35.640625 8.6875 
Q 39.203125 9.671875 41.8125 11.296875 
Q 44.4375 12.9375 46.84375 15.5 
Q 49.265625 18.0625 50.953125 21.625 
Q 52.640625 25.203125 54 30 
Q 55.375 34.8125 56.203125 40.90625 
Q 57.03125 47.015625 57.515625 54.6875 
L 66.546875 54.6875 
Q 65.671875 46.578125 64.640625 40.421875 
Q 63.625 34.28125 62.125 28.703125 
Q 60.640625 23.140625 58.8125 19.15625 
Q 56.984375 15.1875 54.421875 11.84375 
Q 51.859375 8.5 48.703125 6.375 
Q 45.5625 4.25 41.375 2.75 
Q 37.203125 1.265625 32.25 0.625 
Q 27.296875 0 21 0 
z
" id="DejaVuSans-1513"/>
      <path d="M 43.75 20.0625 
L 57.671875 0 
L 47.078125 0 
L 26.765625 29.296875 
Q 25.390625 28.609375 24.53125 28.09375 
Q 23.6875 27.59375 22.3125 26.296875 
Q 20.953125 25 20.140625 23.40625 
Q 19.34375 21.828125 18.703125 19.140625 
Q 18.0625 16.453125 18.0625 13.09375 
L 18.0625 0 
L 9.078125 0 
L 9.078125 9.03125 
Q 9.078125 12.984375 9.5625 16.359375 
Q 10.0625 19.734375 10.8125 22.078125 
Q 11.578125 24.421875 12.796875 26.390625 
Q 14.015625 28.375 15.109375 29.59375 
Q 16.21875 30.8125 17.796875 31.875 
Q 19.390625 32.953125 20.453125 33.46875 
Q 21.53125 33.984375 23.046875 34.625 
L 9.1875 54.6875 
L 19.78125 54.6875 
L 40.09375 25.390625 
Q 41.40625 26.03125 42.25 26.53125 
Q 43.109375 27.046875 44.46875 28.359375 
Q 45.84375 29.6875 46.671875 31.265625 
Q 47.515625 32.859375 48.140625 35.546875 
Q 48.78125 38.234375 48.78125 41.609375 
L 48.78125 54.6875 
L 57.765625 54.6875 
L 57.765625 45.65625 
Q 57.765625 41.65625 57.265625 38.3125 
Q 56.78125 34.96875 56.03125 32.59375 
Q 55.28125 30.21875 54.046875 28.234375 
Q 52.828125 26.265625 51.703125 25.0625 
Q 50.59375 23.875 49.03125 22.796875 
Q 47.46875 21.734375 46.390625 21.21875 
Q 45.3125 20.703125 43.75 20.0625 
z
" id="DejaVuSans-1488"/>
      <path d="M 47.359375 27.828125 
L 47.359375 0 
L 38.28125 0 
L 38.28125 27.828125 
Q 38.28125 31.390625 37.765625 34.265625 
Q 37.25 37.15625 36 39.71875 
Q 34.765625 42.28125 32.8125 43.984375 
Q 30.859375 45.703125 27.78125 46.703125 
Q 24.703125 47.703125 20.703125 47.703125 
L 4.296875 47.703125 
L 4.296875 54.6875 
L 20.65625 54.6875 
Q 26.8125 54.6875 31.46875 53.390625 
Q 36.140625 52.09375 39.109375 49.828125 
Q 42.09375 47.5625 43.96875 44.109375 
Q 45.84375 40.671875 46.59375 36.734375 
Q 47.359375 32.8125 47.359375 27.828125 
z
" id="DejaVuSans-1512"/>
      <path d="M 30.328125 54.6875 
L 30.328125 47.703125 
L 26.421875 47.703125 
Q 22.171875 47.703125 20.578125 43.921875 
Q 19 40.140625 19 30.90625 
L 19 0 
L 9.90625 0 
L 9.90625 30.90625 
Q 9.90625 37.109375 11.78125 41.453125 
Q 13.671875 45.796875 16.40625 47.703125 
L 4.296875 47.703125 
L 4.296875 54.6875 
z
" id="DejaVuSans-1494"/>
      <path d="M 25.203125 64.796875 
L 20.21875 38.921875 
L 32.90625 38.921875 
Q 40.375 38.921875 44.984375 43.046875 
Q 49.609375 47.171875 49.609375 53.8125 
Q 49.609375 59.125 46.5 61.953125 
Q 43.40625 64.796875 37.59375 64.796875 
z
M 43.3125 35.015625 
Q 46.4375 34.28125 48.515625 31.390625 
Q 50.59375 28.515625 53.328125 19.921875 
L 59.515625 0 
L 49.125 0 
L 43.40625 18.703125 
Q 41.21875 25.921875 38.328125 28.359375 
Q 35.453125 30.8125 29.5 30.8125 
L 18.609375 30.8125 
L 12.59375 0 
L 2.6875 0 
L 16.890625 72.90625 
L 39.109375 72.90625 
Q 49.21875 72.90625 54.609375 68.328125 
Q 60.015625 63.765625 60.015625 55.171875 
Q 60.015625 47.5625 55.421875 41.984375 
Q 50.828125 36.421875 43.3125 35.015625 
z
" id="DejaVuSans-Oblique-82"/>
      <path d="M 42.28125 54.6875 
L 40.921875 47.703125 
L 23 47.703125 
L 17.1875 18.015625 
Q 16.890625 16.359375 16.75 15.234375 
Q 16.609375 14.109375 16.609375 13.484375 
Q 16.609375 10.359375 18.484375 8.9375 
Q 20.359375 7.515625 24.515625 7.515625 
L 33.59375 7.515625 
L 32.078125 0 
L 23.484375 0 
Q 15.484375 0 11.546875 3.125 
Q 7.625 6.25 7.625 12.59375 
Q 7.625 13.71875 7.765625 15.0625 
Q 7.90625 16.40625 8.203125 18.015625 
L 14.015625 47.703125 
L 6.390625 47.703125 
L 7.8125 54.6875 
L 15.28125 54.6875 
L 18.3125 70.21875 
L 27.296875 70.21875 
L 24.3125 54.6875 
z
" id="DejaVuSans-Oblique-116"/>
     </defs>
     <use transform="translate(0 0.78125)" xlink:href="#DejaVuSans-52"/>
     <use transform="translate(63.623047 0.78125)" xlink:href="#DejaVuSans-52"/>
     <use transform="translate(127.246094 0.78125)" xlink:href="#DejaVuSans-50"/>
     <use transform="translate(190.869141 0.78125)" xlink:href="#DejaVuSans-32"/>
     <use transform="translate(222.65625 0.78125)" xlink:href="#DejaVuSans-1503"/>
     <use transform="translate(249.902344 0.78125)" xlink:href="#DejaVuSans-1493"/>
     <use transform="translate(277.148438 0.78125)" xlink:href="#DejaVuSans-1497"/>
     <use transform="translate(299.511719 0.78125)" xlink:href="#DejaVuSans-1510"/>
     <use transform="translate(358.837891 0.78125)" xlink:href="#DejaVuSans-1500"/>
     <use transform="translate(415.673828 0.78125)" xlink:href="#DejaVuSans-32"/>
     <use transform="translate(447.460938 0.78125)" xlink:href="#DejaVuSans-1503"/>
     <use transform="translate(474.707031 0.78125)" xlink:href="#DejaVuSans-1493"/>
     <use transform="translate(501.953125 0.78125)" xlink:href="#DejaVuSans-1513"/>
     <use transform="translate(572.802734 0.78125)" xlink:href="#DejaVuSans-1488"/>
     <use transform="translate(639.648438 0.78125)" xlink:href="#DejaVuSans-1512"/>
     <use transform="translate(696.09375 0.78125)" xlink:href="#DejaVuSans-32"/>
     <use transform="translate(727.880859 0.78125)" xlink:href="#DejaVuSans-1512"/>
     <use transform="translate(784.326172 0.78125)" xlink:href="#DejaVuSans-1493"/>
     <use transform="translate(811.572266 0.78125)" xlink:href="#DejaVuSans-1494"/>
     <use transform="translate(846.191406 0.78125)" xlink:href="#DejaVuSans-1488"/>
     <use transform="translate(913.037109 0.78125)" xlink:href="#DejaVuSans-32"/>
     <use transform="translate(944.824219 0.78125)" xlink:href="#DejaVuSans-Oblique-82"/>
     <use transform="translate(1014.306641 -15.625)scale(0.7)" xlink:href="#DejaVuSans-Oblique-116"/>
    </g>
   </g>
  </g>
 </g>
 <defs>
  <clipPath id="p04c81949bb">
   <rect height="271.8" width="558" x="90" y="43.2"/>
  </clipPath>
 </defs>
</svg>
