<?xml version="1.0" encoding="utf-8" standalone="no"?>
<!DOCTYPE svg PUBLIC "-//W3C//DTD SVG 1.1//EN"
  "http://www.w3.org/Graphics/SVG/1.1/DTD/svg11.dtd">
<!-- Created with matplotlib (https://matplotlib.org/) -->
<svg height="360pt" version="1.1" viewBox="0 0 720 360" width="720pt" xmlns="http://www.w3.org/2000/svg" xmlns:xlink="http://www.w3.org/1999/xlink">
 <metadata>
  <rdf:RDF xmlns:cc="http://creativecommons.org/ns#" xmlns:dc="http://purl.org/dc/elements/1.1/" xmlns:rdf="http://www.w3.org/1999/02/22-rdf-syntax-ns#">
   <cc:Work>
    <dc:type rdf:resource="http://purl.org/dc/dcmitype/StillImage"/>
    <dc:date>2021-03-07T07:07:41.061051</dc:date>
    <dc:format>image/svg+xml</dc:format>
    <dc:creator>
     <cc:Agent>
      <dc:title>Matplotlib v3.3.2, https://matplotlib.org/</dc:title>
     </cc:Agent>
    </dc:creator>
   </cc:Work>
  </rdf:RDF>
 </metadata>
 <defs>
  <style type="text/css">*{stroke-linecap:butt;stroke-linejoin:round;}</style>
 </defs>
 <g id="figure_1">
  <g id="patch_1">
   <path d="M 0 360 
L 720 360 
L 720 0 
L 0 0 
z
" style="fill:#ffffff;"/>
  </g>
  <g id="axes_1">
   <g id="patch_2">
    <path d="M 90 315 
L 648 315 
L 648 43.2 
L 90 43.2 
z
" style="fill:#ffffff;"/>
   </g>
   <g id="PolyCollection_1">
    <defs>
     <path d="M 90 -88.687136 
L 90 -175.984582 
L 92.19685 -179.301325 
L 94.393701 -176.085966 
L 96.590551 -177.549437 
L 98.787402 -172.026597 
L 100.984252 -172.325361 
L 103.181102 -165.082908 
L 105.377953 -166.771346 
L 107.574803 -165.904116 
L 109.771654 -166.896763 
L 111.968504 -162.546447 
L 114.165354 -162.302103 
L 116.362205 -162.577374 
L 118.559055 -162.492725 
L 120.755906 -161.289228 
L 122.952756 -161.825291 
L 125.149606 -158.913372 
L 127.346457 -161.914649 
L 129.543307 -158.452287 
L 131.740157 -155.341488 
L 133.937008 -154.255608 
L 136.133858 -153.840354 
L 138.330709 -153.407434 
L 140.527559 -152.963492 
L 142.724409 -149.664073 
L 144.92126 -151.599015 
L 147.11811 -150.300858 
L 149.314961 -148.257374 
L 151.511811 -149.384731 
L 153.708661 -151.196123 
L 155.905512 -154.032841 
L 158.102362 -150.671109 
L 160.299213 -152.681162 
L 162.496063 -156.999022 
L 164.692913 -165.645032 
L 166.889764 -165.156882 
L 169.086614 -170.27689 
L 171.283465 -171.777866 
L 173.480315 -174.241309 
L 175.677165 -181.985429 
L 177.874016 -188.330929 
L 180.070866 -190.337171 
L 182.267717 -198.555385 
L 184.464567 -200.500206 
L 186.661417 -207.78431 
L 188.858268 -214.556347 
L 191.055118 -220.541257 
L 193.251969 -228.724561 
L 195.448819 -227.348325 
L 197.645669 -226.783112 
L 199.84252 -225.422607 
L 202.03937 -229.799657 
L 204.23622 -227.199761 
L 206.433071 -228.76953 
L 208.629921 -225.223065 
L 210.826772 -228.353201 
L 213.023622 -222.478921 
L 215.220472 -221.78416 
L 217.417323 -220.644488 
L 219.614173 -219.003793 
L 221.811024 -222.637216 
L 224.007874 -221.655767 
L 226.204724 -225.794754 
L 228.401575 -226.725535 
L 230.598425 -228.532226 
L 232.795276 -234.876122 
L 234.992126 -239.814767 
L 237.188976 -243.712663 
L 239.385827 -252.391148 
L 241.582677 -250.8481 
L 243.779528 -259.710696 
L 245.976378 -261.263287 
L 248.173228 -265.73123 
L 250.370079 -270.46277 
L 252.566929 -279.894818 
L 254.76378 -279.343915 
L 256.96063 -285.733294 
L 259.15748 -285.042316 
L 261.354331 -281.792628 
L 263.551181 -281.462375 
L 265.748031 -280.921707 
L 267.944882 -282.067486 
L 270.141732 -280.11711 
L 272.338583 -268.884257 
L 274.535433 -263.664247 
L 276.732283 -259.269478 
L 278.929134 -248.350281 
L 281.125984 -247.775689 
L 283.322835 -235.331297 
L 285.519685 -235.756967 
L 287.716535 -224.68207 
L 289.913386 -218.434716 
L 292.110236 -209.029014 
L 294.307087 -204.813531 
L 296.503937 -198.998221 
L 298.700787 -188.895881 
L 300.897638 -181.236097 
L 303.094488 -175.774727 
L 305.291339 -170.484969 
L 307.488189 -163.561069 
L 309.685039 -155.509781 
L 311.88189 -145.688463 
L 314.07874 -140.549472 
L 316.275591 -136.041373 
L 318.472441 -127.348399 
L 320.669291 -123.917603 
L 322.866142 -116.434821 
L 325.062992 -112.467557 
L 327.259843 -109.205046 
L 329.456693 -107.213583 
L 331.653543 -100.39333 
L 333.850394 -97.659589 
L 336.047244 -96.540275 
L 338.244094 -96.063427 
L 340.440945 -92.465159 
L 342.637795 -92.102848 
L 344.834646 -91.82225 
L 347.031496 -91.147851 
L 349.228346 -93.643256 
L 351.425197 -95.270768 
L 353.622047 -96.733091 
L 355.818898 -99.535849 
L 358.015748 -101.080792 
L 360.212598 -102.247344 
L 362.409449 -104.051804 
L 364.606299 -105.973679 
L 366.80315 -115.833555 
L 369 -114.299937 
L 371.19685 -119.463968 
L 373.393701 -127.82865 
L 375.590551 -131.682171 
L 377.787402 -135.857127 
L 379.984252 -145.167413 
L 382.181102 -153.027287 
L 384.377953 -157.045115 
L 386.574803 -166.181853 
L 388.771654 -170.678429 
L 390.968504 -175.321762 
L 393.165354 -181.401154 
L 395.362205 -185.131683 
L 397.559055 -192.391359 
L 399.755906 -201.552539 
L 401.952756 -203.474577 
L 404.149606 -212.242666 
L 406.346457 -214.673322 
L 408.543307 -224.95224 
L 410.740157 -231.377801 
L 412.937008 -240.924803 
L 415.133858 -245.111102 
L 417.330709 -249.756009 
L 419.527559 -261.033169 
L 421.724409 -260.289156 
L 423.92126 -267.562685 
L 426.11811 -271.255036 
L 428.314961 -270.444726 
L 430.511811 -272.543073 
L 432.708661 -280.904864 
L 434.905512 -280.452234 
L 437.102362 -269.570188 
L 439.299213 -272.289686 
L 441.496063 -275.863641 
L 443.692913 -277.941634 
L 445.889764 -280.134295 
L 448.086614 -278.185164 
L 450.283465 -274.502407 
L 452.480315 -275.293262 
L 454.677165 -291.857235 
L 456.874016 -286.747552 
L 459.070866 -291.987397 
L 461.267717 -290.394178 
L 463.464567 -299.489953 
L 465.661417 -297.485609 
L 467.858268 -302.123898 
L 470.055118 -299.124858 
L 472.251969 -303.934378 
L 474.448819 -301.7371 
L 476.645669 -303.759589 
L 478.84252 -304.295656 
L 481.03937 -304.445455 
L 483.23622 -296.419762 
L 485.433071 -288.948784 
L 487.629921 -285.3274 
L 489.826772 -290.832911 
L 492.023622 -282.957841 
L 494.220472 -270.084365 
L 496.417323 -271.047096 
L 498.614173 -255.390903 
L 500.811024 -252.371103 
L 503.007874 -249.76115 
L 505.204724 -240.615228 
L 507.401575 -232.899911 
L 509.598425 -228.527122 
L 511.795276 -222.037571 
L 513.992126 -218.832203 
L 516.188976 -214.215372 
L 518.385827 -216.973767 
L 520.582677 -206.082551 
L 522.779528 -202.524464 
L 524.976378 -199.563518 
L 527.173228 -198.792146 
L 529.370079 -196.264785 
L 531.566929 -193.783802 
L 533.76378 -190.892823 
L 535.96063 -192.064555 
L 538.15748 -193.47917 
L 540.354331 -188.24156 
L 542.551181 -190.833672 
L 544.748031 -189.197617 
L 546.944882 -189.12516 
L 549.141732 -187.351685 
L 551.338583 -191.950149 
L 553.535433 -190.699669 
L 555.732283 -191.077664 
L 557.929134 -192.642028 
L 560.125984 -188.702144 
L 562.322835 -187.748557 
L 564.519685 -187.217647 
L 566.716535 -187.467861 
L 568.913386 -183.785479 
L 571.110236 -180.040261 
L 573.307087 -179.514871 
L 575.503937 -175.269186 
L 577.700787 -173.12832 
L 579.897638 -170.289191 
L 582.094488 -164.862061 
L 584.291339 -165.682386 
L 586.488189 -158.670249 
L 588.685039 -152.560834 
L 590.88189 -147.90879 
L 593.07874 -148.620239 
L 595.275591 -144.765421 
L 597.472441 -147.377534 
L 599.669291 -144.514806 
L 601.866142 -144.074421 
L 604.062992 -149.778154 
L 606.259843 -146.240893 
L 608.456693 -148.775705 
L 610.653543 -146.831525 
L 612.850394 -153.592086 
L 615.047244 -157.080789 
L 617.244094 -157.764211 
L 619.440945 -159.017686 
L 621.637795 -163.099496 
L 623.834646 -166.571997 
L 626.031496 -174.248869 
L 628.228346 -178.415295 
L 630.425197 -182.24517 
L 632.622047 -188.217284 
L 634.818898 -185.540615 
L 637.015748 -194.255013 
L 639.212598 -195.044244 
L 641.409449 -201.113371 
L 643.606299 -209.431391 
L 645.80315 -214.456488 
L 648 -211.715146 
L 650.19685 -218.322297 
L 652.393701 -215.175099 
L 654.590551 -220.502279 
L 656.787402 -223.383251 
L 658.984252 -224.831178 
L 661.181102 -221.625839 
L 663.377953 -230.186423 
L 665.574803 -232.51881 
L 665.574803 -80.744337 
L 665.574803 -80.744337 
L 663.377953 -82.227048 
L 661.181102 -76.975401 
L 658.984252 -85.382752 
L 656.787402 -88.970446 
L 654.590551 -89.877049 
L 652.393701 -94.622436 
L 650.19685 -101.058061 
L 648 -99.628905 
L 645.80315 -107.169863 
L 643.606299 -108.010542 
L 641.409449 -103.073447 
L 639.212598 -104.637625 
L 637.015748 -107.170866 
L 634.818898 -104.345684 
L 632.622047 -114.153659 
L 630.425197 -113.628506 
L 628.228346 -113.918957 
L 626.031496 -113.877282 
L 623.834646 -110.997269 
L 621.637795 -109.818114 
L 619.440945 -108.733221 
L 617.244094 -107.939684 
L 615.047244 -108.770051 
L 612.850394 -108.147216 
L 610.653543 -99.695541 
L 608.456693 -102.170732 
L 606.259843 -100.769495 
L 604.062992 -104.191735 
L 601.866142 -100.528018 
L 599.669291 -101.320618 
L 597.472441 -101.727246 
L 595.275591 -101.01065 
L 593.07874 -105.5042 
L 590.88189 -103.070156 
L 588.685039 -106.212314 
L 586.488189 -112.866338 
L 584.291339 -116.584868 
L 582.094488 -114.758491 
L 579.897638 -118.348495 
L 577.700787 -122.807276 
L 575.503937 -121.892886 
L 573.307087 -126.628444 
L 571.110236 -126.751376 
L 568.913386 -134.943851 
L 566.716535 -136.274203 
L 564.519685 -134.529792 
L 562.322835 -136.870741 
L 560.125984 -135.542109 
L 557.929134 -137.45677 
L 555.732283 -136.839984 
L 553.535433 -135.894264 
L 551.338583 -138.69326 
L 549.141732 -135.393954 
L 546.944882 -135.980048 
L 544.748031 -137.883802 
L 542.551181 -137.532794 
L 540.354331 -135.33161 
L 538.15748 -139.47305 
L 535.96063 -137.68736 
L 533.76378 -137.133778 
L 531.566929 -139.383873 
L 529.370079 -141.026422 
L 527.173228 -142.975567 
L 524.976378 -145.772023 
L 522.779528 -146.996932 
L 520.582677 -148.292344 
L 518.385827 -156.165136 
L 516.188976 -156.140764 
L 513.992126 -159.783105 
L 511.795276 -161.806625 
L 509.598425 -168.936141 
L 507.401575 -170.139113 
L 505.204724 -176.149411 
L 503.007874 -182.383291 
L 500.811024 -185.03277 
L 498.614173 -186.895255 
L 496.417323 -200.452637 
L 494.220472 -196.810248 
L 492.023622 -207.089407 
L 489.826772 -214.338034 
L 487.629921 -209.125505 
L 485.433071 -209.876399 
L 483.23622 -217.306537 
L 481.03937 -221.164368 
L 478.84252 -224.438168 
L 476.645669 -221.251875 
L 474.448819 -218.448634 
L 472.251969 -223.387556 
L 470.055118 -212.250269 
L 467.858268 -219.961466 
L 465.661417 -210.136536 
L 463.464567 -211.450111 
L 461.267717 -207.042814 
L 459.070866 -210.145352 
L 456.874016 -205.58257 
L 454.677165 -210.652707 
L 452.480315 -192.52073 
L 450.283465 -193.253675 
L 448.086614 -199.902664 
L 445.889764 -196.953333 
L 443.692913 -191.845088 
L 441.496063 -192.092525 
L 439.299213 -191.710707 
L 437.102362 -188.039287 
L 434.905512 -196.62728 
L 432.708661 -196.065907 
L 430.511811 -186.16247 
L 428.314961 -184.392245 
L 426.11811 -184.828651 
L 423.92126 -178.880384 
L 421.724409 -167.89064 
L 419.527559 -172.966013 
L 417.330709 -167.03563 
L 415.133858 -165.233461 
L 412.937008 -163.530726 
L 410.740157 -154.947885 
L 408.543307 -153.243635 
L 406.346457 -146.522076 
L 404.149606 -142.969558 
L 401.952756 -138.30355 
L 399.755906 -139.596886 
L 397.559055 -129.668392 
L 395.362205 -123.512466 
L 393.165354 -118.634805 
L 390.968504 -118.004171 
L 388.771654 -113.138311 
L 386.574803 -110.926793 
L 384.377953 -102.655139 
L 382.181102 -100.277815 
L 379.984252 -97.80628 
L 377.787402 -88.524713 
L 375.590551 -87.535316 
L 373.393701 -85.033081 
L 371.19685 -77.629853 
L 369 -73.739456 
L 366.80315 -75.295695 
L 364.606299 -65.87714 
L 362.409449 -65.772025 
L 360.212598 -64.596563 
L 358.015748 -63.733101 
L 355.818898 -62.122104 
L 353.622047 -61.047643 
L 351.425197 -60.915523 
L 349.228346 -59.925923 
L 347.031496 -57.354545 
L 344.834646 -58.15401 
L 342.637795 -58.745996 
L 340.440945 -59.875391 
L 338.244094 -63.113316 
L 336.047244 -62.455887 
L 333.850394 -63.978003 
L 331.653543 -66.242332 
L 329.456693 -71.228557 
L 327.259843 -73.407947 
L 325.062992 -74.244111 
L 322.866142 -79.194839 
L 320.669291 -83.466116 
L 318.472441 -87.021618 
L 316.275591 -93.378398 
L 314.07874 -97.108415 
L 311.88189 -99.658199 
L 309.685039 -108.009262 
L 307.488189 -114.338128 
L 305.291339 -120.617257 
L 303.094488 -126.816281 
L 300.897638 -132.119605 
L 298.700787 -140.187104 
L 296.503937 -148.68384 
L 294.307087 -150.948699 
L 292.110236 -154.678975 
L 289.913386 -161.852225 
L 287.716535 -166.629397 
L 285.519685 -172.162223 
L 283.322835 -171.459731 
L 281.125984 -180.376641 
L 278.929134 -183.311036 
L 276.732283 -193.249447 
L 274.535433 -193.152684 
L 272.338583 -194.92194 
L 270.141732 -202.378857 
L 267.944882 -202.151449 
L 265.748031 -199.362676 
L 263.551181 -202.454802 
L 261.354331 -203.249462 
L 259.15748 -207.50343 
L 256.96063 -208.012642 
L 254.76378 -203.237101 
L 252.566929 -204.495322 
L 250.370079 -199.598087 
L 248.173228 -193.553531 
L 245.976378 -190.132399 
L 243.779528 -189.045253 
L 241.582677 -180.891075 
L 239.385827 -181.595043 
L 237.188976 -175.399313 
L 234.992126 -171.324675 
L 232.795276 -168.377016 
L 230.598425 -165.291187 
L 228.401575 -162.789199 
L 226.204724 -161.059864 
L 224.007874 -155.965689 
L 221.811024 -157.259502 
L 219.614173 -153.607091 
L 217.417323 -152.153665 
L 215.220472 -154.504606 
L 213.023622 -154.602577 
L 210.826772 -160.964646 
L 208.629921 -156.172165 
L 206.433071 -160.915001 
L 204.23622 -159.66098 
L 202.03937 -163.114854 
L 199.84252 -156.530134 
L 197.645669 -157.282668 
L 195.448819 -159.909782 
L 193.251969 -158.908059 
L 191.055118 -153.486564 
L 188.858268 -150.763318 
L 186.661417 -151.049261 
L 184.464567 -144.942851 
L 182.267717 -143.930527 
L 180.070866 -136.365382 
L 177.874016 -134.080201 
L 175.677165 -128.402019 
L 173.480315 -120.364753 
L 171.283465 -119.644749 
L 169.086614 -118.698715 
L 166.889764 -113.426876 
L 164.692913 -113.647011 
L 162.496063 -110.290717 
L 160.299213 -103.893767 
L 158.102362 -102.25521 
L 155.905512 -106.737559 
L 153.708661 -102.263164 
L 151.511811 -101.252488 
L 149.314961 -99.52121 
L 147.11811 -102.141817 
L 144.92126 -103.741133 
L 142.724409 -101.76011 
L 140.527559 -102.00067 
L 138.330709 -104.209735 
L 136.133858 -105.571652 
L 133.937008 -105.772928 
L 131.740157 -105.491318 
L 129.543307 -107.953425 
L 127.346457 -109.647695 
L 125.149606 -109.599762 
L 122.952756 -112.433618 
L 120.755906 -110.708767 
L 118.559055 -111.29977 
L 116.362205 -109.443702 
L 114.165354 -110.610365 
L 111.968504 -110.99193 
L 109.771654 -113.880497 
L 107.574803 -109.888012 
L 105.377953 -107.44903 
L 103.181102 -100.750152 
L 100.984252 -105.094948 
L 98.787402 -100.471033 
L 96.590551 -101.446916 
L 94.393701 -96.235068 
L 92.19685 -95.025502 
L 90 -88.687136 
z
" id="mff2cea90b6" style="stroke:#fdcbb6;stroke-opacity:0.8;"/>
    </defs>
    <g clip-path="url(#pc7ed60f74a)">
     <use style="fill:#fdcbb6;fill-opacity:0.8;stroke:#fdcbb6;stroke-opacity:0.8;" x="0" xlink:href="#mff2cea90b6" y="360"/>
    </g>
   </g>
   <g id="matplotlib.axis_1">
    <g id="xtick_1">
     <g id="line2d_1">
      <defs>
       <path d="M 0 0 
L 0 3.5 
" id="m7035f77c05" style="stroke:#000000;stroke-width:0.8;"/>
      </defs>
      <g>
       <use style="stroke:#000000;stroke-width:0.8;" x="90" xlink:href="#m7035f77c05" y="315"/>
      </g>
     </g>
    </g>
    <g id="xtick_2">
     <g id="line2d_2">
      <g>
       <use style="stroke:#000000;stroke-width:0.8;" x="122.952756" xlink:href="#m7035f77c05" y="315"/>
      </g>
     </g>
     <g id="text_1">
      <!-- Jul -->
      <g transform="translate(116.919943 329.598437)scale(0.1 -0.1)">
       <defs>
        <path d="M 9.8125 72.90625 
L 19.671875 72.90625 
L 19.671875 5.078125 
Q 19.671875 -8.109375 14.671875 -14.0625 
Q 9.671875 -20.015625 -1.421875 -20.015625 
L -5.171875 -20.015625 
L -5.171875 -11.71875 
L -2.09375 -11.71875 
Q 4.4375 -11.71875 7.125 -8.046875 
Q 9.8125 -4.390625 9.8125 5.078125 
z
" id="DejaVuSans-74"/>
        <path d="M 8.5 21.578125 
L 8.5 54.6875 
L 17.484375 54.6875 
L 17.484375 21.921875 
Q 17.484375 14.15625 20.5 10.265625 
Q 23.53125 6.390625 29.59375 6.390625 
Q 36.859375 6.390625 41.078125 11.03125 
Q 45.3125 15.671875 45.3125 23.6875 
L 45.3125 54.6875 
L 54.296875 54.6875 
L 54.296875 0 
L 45.3125 0 
L 45.3125 8.40625 
Q 42.046875 3.421875 37.71875 1 
Q 33.40625 -1.421875 27.6875 -1.421875 
Q 18.265625 -1.421875 13.375 4.4375 
Q 8.5 10.296875 8.5 21.578125 
z
M 31.109375 56 
z
" id="DejaVuSans-117"/>
        <path d="M 9.421875 75.984375 
L 18.40625 75.984375 
L 18.40625 0 
L 9.421875 0 
z
" id="DejaVuSans-108"/>
       </defs>
       <use xlink:href="#DejaVuSans-74"/>
       <use x="29.492188" xlink:href="#DejaVuSans-117"/>
       <use x="92.871094" xlink:href="#DejaVuSans-108"/>
      </g>
     </g>
    </g>
    <g id="xtick_3">
     <g id="line2d_3">
      <g>
       <use style="stroke:#000000;stroke-width:0.8;" x="191.055118" xlink:href="#m7035f77c05" y="315"/>
      </g>
     </g>
     <g id="text_2">
      <!-- Aug -->
      <g transform="translate(181.291837 329.598437)scale(0.1 -0.1)">
       <defs>
        <path d="M 34.1875 63.1875 
L 20.796875 26.90625 
L 47.609375 26.90625 
z
M 28.609375 72.90625 
L 39.796875 72.90625 
L 67.578125 0 
L 57.328125 0 
L 50.6875 18.703125 
L 17.828125 18.703125 
L 11.1875 0 
L 0.78125 0 
z
" id="DejaVuSans-65"/>
        <path d="M 45.40625 27.984375 
Q 45.40625 37.75 41.375 43.109375 
Q 37.359375 48.484375 30.078125 48.484375 
Q 22.859375 48.484375 18.828125 43.109375 
Q 14.796875 37.75 14.796875 27.984375 
Q 14.796875 18.265625 18.828125 12.890625 
Q 22.859375 7.515625 30.078125 7.515625 
Q 37.359375 7.515625 41.375 12.890625 
Q 45.40625 18.265625 45.40625 27.984375 
z
M 54.390625 6.78125 
Q 54.390625 -7.171875 48.1875 -13.984375 
Q 42 -20.796875 29.203125 -20.796875 
Q 24.46875 -20.796875 20.265625 -20.09375 
Q 16.0625 -19.390625 12.109375 -17.921875 
L 12.109375 -9.1875 
Q 16.0625 -11.328125 19.921875 -12.34375 
Q 23.78125 -13.375 27.78125 -13.375 
Q 36.625 -13.375 41.015625 -8.765625 
Q 45.40625 -4.15625 45.40625 5.171875 
L 45.40625 9.625 
Q 42.625 4.78125 38.28125 2.390625 
Q 33.9375 0 27.875 0 
Q 17.828125 0 11.671875 7.65625 
Q 5.515625 15.328125 5.515625 27.984375 
Q 5.515625 40.671875 11.671875 48.328125 
Q 17.828125 56 27.875 56 
Q 33.9375 56 38.28125 53.609375 
Q 42.625 51.21875 45.40625 46.390625 
L 45.40625 54.6875 
L 54.390625 54.6875 
z
" id="DejaVuSans-103"/>
       </defs>
       <use xlink:href="#DejaVuSans-65"/>
       <use x="68.408203" xlink:href="#DejaVuSans-117"/>
       <use x="131.787109" xlink:href="#DejaVuSans-103"/>
      </g>
     </g>
    </g>
    <g id="xtick_4">
     <g id="line2d_4">
      <g>
       <use style="stroke:#000000;stroke-width:0.8;" x="259.15748" xlink:href="#m7035f77c05" y="315"/>
      </g>
     </g>
     <g id="text_3">
      <!-- Sep -->
      <g transform="translate(249.73248 329.598437)scale(0.1 -0.1)">
       <defs>
        <path d="M 53.515625 70.515625 
L 53.515625 60.890625 
Q 47.90625 63.578125 42.921875 64.890625 
Q 37.9375 66.21875 33.296875 66.21875 
Q 25.25 66.21875 20.875 63.09375 
Q 16.5 59.96875 16.5 54.203125 
Q 16.5 49.359375 19.40625 46.890625 
Q 22.3125 44.4375 30.421875 42.921875 
L 36.375 41.703125 
Q 47.40625 39.59375 52.65625 34.296875 
Q 57.90625 29 57.90625 20.125 
Q 57.90625 9.515625 50.796875 4.046875 
Q 43.703125 -1.421875 29.984375 -1.421875 
Q 24.8125 -1.421875 18.96875 -0.25 
Q 13.140625 0.921875 6.890625 3.21875 
L 6.890625 13.375 
Q 12.890625 10.015625 18.65625 8.296875 
Q 24.421875 6.59375 29.984375 6.59375 
Q 38.421875 6.59375 43.015625 9.90625 
Q 47.609375 13.234375 47.609375 19.390625 
Q 47.609375 24.75 44.3125 27.78125 
Q 41.015625 30.8125 33.5 32.328125 
L 27.484375 33.5 
Q 16.453125 35.6875 11.515625 40.375 
Q 6.59375 45.0625 6.59375 53.421875 
Q 6.59375 63.09375 13.40625 68.65625 
Q 20.21875 74.21875 32.171875 74.21875 
Q 37.3125 74.21875 42.625 73.28125 
Q 47.953125 72.359375 53.515625 70.515625 
z
" id="DejaVuSans-83"/>
        <path d="M 56.203125 29.59375 
L 56.203125 25.203125 
L 14.890625 25.203125 
Q 15.484375 15.921875 20.484375 11.0625 
Q 25.484375 6.203125 34.421875 6.203125 
Q 39.59375 6.203125 44.453125 7.46875 
Q 49.3125 8.734375 54.109375 11.28125 
L 54.109375 2.78125 
Q 49.265625 0.734375 44.1875 -0.34375 
Q 39.109375 -1.421875 33.890625 -1.421875 
Q 20.796875 -1.421875 13.15625 6.1875 
Q 5.515625 13.8125 5.515625 26.8125 
Q 5.515625 40.234375 12.765625 48.109375 
Q 20.015625 56 32.328125 56 
Q 43.359375 56 49.78125 48.890625 
Q 56.203125 41.796875 56.203125 29.59375 
z
M 47.21875 32.234375 
Q 47.125 39.59375 43.09375 43.984375 
Q 39.0625 48.390625 32.421875 48.390625 
Q 24.90625 48.390625 20.390625 44.140625 
Q 15.875 39.890625 15.1875 32.171875 
z
" id="DejaVuSans-101"/>
        <path d="M 18.109375 8.203125 
L 18.109375 -20.796875 
L 9.078125 -20.796875 
L 9.078125 54.6875 
L 18.109375 54.6875 
L 18.109375 46.390625 
Q 20.953125 51.265625 25.265625 53.625 
Q 29.59375 56 35.59375 56 
Q 45.5625 56 51.78125 48.09375 
Q 58.015625 40.1875 58.015625 27.296875 
Q 58.015625 14.40625 51.78125 6.484375 
Q 45.5625 -1.421875 35.59375 -1.421875 
Q 29.59375 -1.421875 25.265625 0.953125 
Q 20.953125 3.328125 18.109375 8.203125 
z
M 48.6875 27.296875 
Q 48.6875 37.203125 44.609375 42.84375 
Q 40.53125 48.484375 33.40625 48.484375 
Q 26.265625 48.484375 22.1875 42.84375 
Q 18.109375 37.203125 18.109375 27.296875 
Q 18.109375 17.390625 22.1875 11.75 
Q 26.265625 6.109375 33.40625 6.109375 
Q 40.53125 6.109375 44.609375 11.75 
Q 48.6875 17.390625 48.6875 27.296875 
z
" id="DejaVuSans-112"/>
       </defs>
       <use xlink:href="#DejaVuSans-83"/>
       <use x="63.476562" xlink:href="#DejaVuSans-101"/>
       <use x="125" xlink:href="#DejaVuSans-112"/>
      </g>
     </g>
    </g>
    <g id="xtick_5">
     <g id="line2d_5">
      <g>
       <use style="stroke:#000000;stroke-width:0.8;" x="325.062992" xlink:href="#m7035f77c05" y="315"/>
      </g>
     </g>
     <g id="text_4">
      <!-- Oct -->
      <g transform="translate(316.41768 329.598437)scale(0.1 -0.1)">
       <defs>
        <path d="M 39.40625 66.21875 
Q 28.65625 66.21875 22.328125 58.203125 
Q 16.015625 50.203125 16.015625 36.375 
Q 16.015625 22.609375 22.328125 14.59375 
Q 28.65625 6.59375 39.40625 6.59375 
Q 50.140625 6.59375 56.421875 14.59375 
Q 62.703125 22.609375 62.703125 36.375 
Q 62.703125 50.203125 56.421875 58.203125 
Q 50.140625 66.21875 39.40625 66.21875 
z
M 39.40625 74.21875 
Q 54.734375 74.21875 63.90625 63.9375 
Q 73.09375 53.65625 73.09375 36.375 
Q 73.09375 19.140625 63.90625 8.859375 
Q 54.734375 -1.421875 39.40625 -1.421875 
Q 24.03125 -1.421875 14.8125 8.828125 
Q 5.609375 19.09375 5.609375 36.375 
Q 5.609375 53.65625 14.8125 63.9375 
Q 24.03125 74.21875 39.40625 74.21875 
z
" id="DejaVuSans-79"/>
        <path d="M 48.78125 52.59375 
L 48.78125 44.1875 
Q 44.96875 46.296875 41.140625 47.34375 
Q 37.3125 48.390625 33.40625 48.390625 
Q 24.65625 48.390625 19.8125 42.84375 
Q 14.984375 37.3125 14.984375 27.296875 
Q 14.984375 17.28125 19.8125 11.734375 
Q 24.65625 6.203125 33.40625 6.203125 
Q 37.3125 6.203125 41.140625 7.25 
Q 44.96875 8.296875 48.78125 10.40625 
L 48.78125 2.09375 
Q 45.015625 0.34375 40.984375 -0.53125 
Q 36.96875 -1.421875 32.421875 -1.421875 
Q 20.0625 -1.421875 12.78125 6.34375 
Q 5.515625 14.109375 5.515625 27.296875 
Q 5.515625 40.671875 12.859375 48.328125 
Q 20.21875 56 33.015625 56 
Q 37.15625 56 41.109375 55.140625 
Q 45.0625 54.296875 48.78125 52.59375 
z
" id="DejaVuSans-99"/>
        <path d="M 18.3125 70.21875 
L 18.3125 54.6875 
L 36.8125 54.6875 
L 36.8125 47.703125 
L 18.3125 47.703125 
L 18.3125 18.015625 
Q 18.3125 11.328125 20.140625 9.421875 
Q 21.96875 7.515625 27.59375 7.515625 
L 36.8125 7.515625 
L 36.8125 0 
L 27.59375 0 
Q 17.1875 0 13.234375 3.875 
Q 9.28125 7.765625 9.28125 18.015625 
L 9.28125 47.703125 
L 2.6875 47.703125 
L 2.6875 54.6875 
L 9.28125 54.6875 
L 9.28125 70.21875 
z
" id="DejaVuSans-116"/>
       </defs>
       <use xlink:href="#DejaVuSans-79"/>
       <use x="78.710938" xlink:href="#DejaVuSans-99"/>
       <use x="133.691406" xlink:href="#DejaVuSans-116"/>
      </g>
     </g>
    </g>
    <g id="xtick_6">
     <g id="line2d_6">
      <g>
       <use style="stroke:#000000;stroke-width:0.8;" x="393.165354" xlink:href="#m7035f77c05" y="315"/>
      </g>
     </g>
     <g id="text_5">
      <!-- Nov -->
      <g transform="translate(383.405979 329.598437)scale(0.1 -0.1)">
       <defs>
        <path d="M 9.8125 72.90625 
L 23.09375 72.90625 
L 55.421875 11.921875 
L 55.421875 72.90625 
L 64.984375 72.90625 
L 64.984375 0 
L 51.703125 0 
L 19.390625 60.984375 
L 19.390625 0 
L 9.8125 0 
z
" id="DejaVuSans-78"/>
        <path d="M 30.609375 48.390625 
Q 23.390625 48.390625 19.1875 42.75 
Q 14.984375 37.109375 14.984375 27.296875 
Q 14.984375 17.484375 19.15625 11.84375 
Q 23.34375 6.203125 30.609375 6.203125 
Q 37.796875 6.203125 41.984375 11.859375 
Q 46.1875 17.53125 46.1875 27.296875 
Q 46.1875 37.015625 41.984375 42.703125 
Q 37.796875 48.390625 30.609375 48.390625 
z
M 30.609375 56 
Q 42.328125 56 49.015625 48.375 
Q 55.71875 40.765625 55.71875 27.296875 
Q 55.71875 13.875 49.015625 6.21875 
Q 42.328125 -1.421875 30.609375 -1.421875 
Q 18.84375 -1.421875 12.171875 6.21875 
Q 5.515625 13.875 5.515625 27.296875 
Q 5.515625 40.765625 12.171875 48.375 
Q 18.84375 56 30.609375 56 
z
" id="DejaVuSans-111"/>
        <path d="M 2.984375 54.6875 
L 12.5 54.6875 
L 29.59375 8.796875 
L 46.6875 54.6875 
L 56.203125 54.6875 
L 35.6875 0 
L 23.484375 0 
z
" id="DejaVuSans-118"/>
       </defs>
       <use xlink:href="#DejaVuSans-78"/>
       <use x="74.804688" xlink:href="#DejaVuSans-111"/>
       <use x="135.986328" xlink:href="#DejaVuSans-118"/>
      </g>
     </g>
    </g>
    <g id="xtick_7">
     <g id="line2d_7">
      <g>
       <use style="stroke:#000000;stroke-width:0.8;" x="459.070866" xlink:href="#m7035f77c05" y="315"/>
      </g>
     </g>
     <g id="text_6">
      <!-- Dec -->
      <g transform="translate(449.395085 329.598437)scale(0.1 -0.1)">
       <defs>
        <path d="M 19.671875 64.796875 
L 19.671875 8.109375 
L 31.59375 8.109375 
Q 46.6875 8.109375 53.6875 14.9375 
Q 60.6875 21.78125 60.6875 36.53125 
Q 60.6875 51.171875 53.6875 57.984375 
Q 46.6875 64.796875 31.59375 64.796875 
z
M 9.8125 72.90625 
L 30.078125 72.90625 
Q 51.265625 72.90625 61.171875 64.09375 
Q 71.09375 55.28125 71.09375 36.53125 
Q 71.09375 17.671875 61.125 8.828125 
Q 51.171875 0 30.078125 0 
L 9.8125 0 
z
" id="DejaVuSans-68"/>
       </defs>
       <use xlink:href="#DejaVuSans-68"/>
       <use x="77.001953" xlink:href="#DejaVuSans-101"/>
       <use x="138.525391" xlink:href="#DejaVuSans-99"/>
      </g>
     </g>
    </g>
    <g id="xtick_8">
     <g id="line2d_8">
      <g>
       <use style="stroke:#000000;stroke-width:0.8;" x="527.173228" xlink:href="#m7035f77c05" y="315"/>
      </g>
     </g>
     <g id="text_7">
      <!-- Jan -->
      <g transform="translate(519.465416 329.598437)scale(0.1 -0.1)">
       <defs>
        <path d="M 34.28125 27.484375 
Q 23.390625 27.484375 19.1875 25 
Q 14.984375 22.515625 14.984375 16.5 
Q 14.984375 11.71875 18.140625 8.90625 
Q 21.296875 6.109375 26.703125 6.109375 
Q 34.1875 6.109375 38.703125 11.40625 
Q 43.21875 16.703125 43.21875 25.484375 
L 43.21875 27.484375 
z
M 52.203125 31.203125 
L 52.203125 0 
L 43.21875 0 
L 43.21875 8.296875 
Q 40.140625 3.328125 35.546875 0.953125 
Q 30.953125 -1.421875 24.3125 -1.421875 
Q 15.921875 -1.421875 10.953125 3.296875 
Q 6 8.015625 6 15.921875 
Q 6 25.140625 12.171875 29.828125 
Q 18.359375 34.515625 30.609375 34.515625 
L 43.21875 34.515625 
L 43.21875 35.40625 
Q 43.21875 41.609375 39.140625 45 
Q 35.0625 48.390625 27.6875 48.390625 
Q 23 48.390625 18.546875 47.265625 
Q 14.109375 46.140625 10.015625 43.890625 
L 10.015625 52.203125 
Q 14.9375 54.109375 19.578125 55.046875 
Q 24.21875 56 28.609375 56 
Q 40.484375 56 46.34375 49.84375 
Q 52.203125 43.703125 52.203125 31.203125 
z
" id="DejaVuSans-97"/>
        <path d="M 54.890625 33.015625 
L 54.890625 0 
L 45.90625 0 
L 45.90625 32.71875 
Q 45.90625 40.484375 42.875 44.328125 
Q 39.84375 48.1875 33.796875 48.1875 
Q 26.515625 48.1875 22.3125 43.546875 
Q 18.109375 38.921875 18.109375 30.90625 
L 18.109375 0 
L 9.078125 0 
L 9.078125 54.6875 
L 18.109375 54.6875 
L 18.109375 46.1875 
Q 21.34375 51.125 25.703125 53.5625 
Q 30.078125 56 35.796875 56 
Q 45.21875 56 50.046875 50.171875 
Q 54.890625 44.34375 54.890625 33.015625 
z
" id="DejaVuSans-110"/>
       </defs>
       <use xlink:href="#DejaVuSans-74"/>
       <use x="29.492188" xlink:href="#DejaVuSans-97"/>
       <use x="90.771484" xlink:href="#DejaVuSans-110"/>
      </g>
      <!-- 2021 -->
      <g transform="translate(514.448228 340.79625)scale(0.1 -0.1)">
       <defs>
        <path d="M 19.1875 8.296875 
L 53.609375 8.296875 
L 53.609375 0 
L 7.328125 0 
L 7.328125 8.296875 
Q 12.9375 14.109375 22.625 23.890625 
Q 32.328125 33.6875 34.8125 36.53125 
Q 39.546875 41.84375 41.421875 45.53125 
Q 43.3125 49.21875 43.3125 52.78125 
Q 43.3125 58.59375 39.234375 62.25 
Q 35.15625 65.921875 28.609375 65.921875 
Q 23.96875 65.921875 18.8125 64.3125 
Q 13.671875 62.703125 7.8125 59.421875 
L 7.8125 69.390625 
Q 13.765625 71.78125 18.9375 73 
Q 24.125 74.21875 28.421875 74.21875 
Q 39.75 74.21875 46.484375 68.546875 
Q 53.21875 62.890625 53.21875 53.421875 
Q 53.21875 48.921875 51.53125 44.890625 
Q 49.859375 40.875 45.40625 35.40625 
Q 44.1875 33.984375 37.640625 27.21875 
Q 31.109375 20.453125 19.1875 8.296875 
z
" id="DejaVuSans-50"/>
        <path d="M 31.78125 66.40625 
Q 24.171875 66.40625 20.328125 58.90625 
Q 16.5 51.421875 16.5 36.375 
Q 16.5 21.390625 20.328125 13.890625 
Q 24.171875 6.390625 31.78125 6.390625 
Q 39.453125 6.390625 43.28125 13.890625 
Q 47.125 21.390625 47.125 36.375 
Q 47.125 51.421875 43.28125 58.90625 
Q 39.453125 66.40625 31.78125 66.40625 
z
M 31.78125 74.21875 
Q 44.046875 74.21875 50.515625 64.515625 
Q 56.984375 54.828125 56.984375 36.375 
Q 56.984375 17.96875 50.515625 8.265625 
Q 44.046875 -1.421875 31.78125 -1.421875 
Q 19.53125 -1.421875 13.0625 8.265625 
Q 6.59375 17.96875 6.59375 36.375 
Q 6.59375 54.828125 13.0625 64.515625 
Q 19.53125 74.21875 31.78125 74.21875 
z
" id="DejaVuSans-48"/>
        <path d="M 12.40625 8.296875 
L 28.515625 8.296875 
L 28.515625 63.921875 
L 10.984375 60.40625 
L 10.984375 69.390625 
L 28.421875 72.90625 
L 38.28125 72.90625 
L 38.28125 8.296875 
L 54.390625 8.296875 
L 54.390625 0 
L 12.40625 0 
z
" id="DejaVuSans-49"/>
       </defs>
       <use xlink:href="#DejaVuSans-50"/>
       <use x="63.623047" xlink:href="#DejaVuSans-48"/>
       <use x="127.246094" xlink:href="#DejaVuSans-50"/>
       <use x="190.869141" xlink:href="#DejaVuSans-49"/>
      </g>
     </g>
    </g>
    <g id="xtick_9">
     <g id="line2d_9">
      <g>
       <use style="stroke:#000000;stroke-width:0.8;" x="595.275591" xlink:href="#m7035f77c05" y="315"/>
      </g>
     </g>
     <g id="text_8">
      <!-- Feb -->
      <g transform="translate(586.424028 329.598437)scale(0.1 -0.1)">
       <defs>
        <path d="M 9.8125 72.90625 
L 51.703125 72.90625 
L 51.703125 64.59375 
L 19.671875 64.59375 
L 19.671875 43.109375 
L 48.578125 43.109375 
L 48.578125 34.8125 
L 19.671875 34.8125 
L 19.671875 0 
L 9.8125 0 
z
" id="DejaVuSans-70"/>
        <path d="M 48.6875 27.296875 
Q 48.6875 37.203125 44.609375 42.84375 
Q 40.53125 48.484375 33.40625 48.484375 
Q 26.265625 48.484375 22.1875 42.84375 
Q 18.109375 37.203125 18.109375 27.296875 
Q 18.109375 17.390625 22.1875 11.75 
Q 26.265625 6.109375 33.40625 6.109375 
Q 40.53125 6.109375 44.609375 11.75 
Q 48.6875 17.390625 48.6875 27.296875 
z
M 18.109375 46.390625 
Q 20.953125 51.265625 25.265625 53.625 
Q 29.59375 56 35.59375 56 
Q 45.5625 56 51.78125 48.09375 
Q 58.015625 40.1875 58.015625 27.296875 
Q 58.015625 14.40625 51.78125 6.484375 
Q 45.5625 -1.421875 35.59375 -1.421875 
Q 29.59375 -1.421875 25.265625 0.953125 
Q 20.953125 3.328125 18.109375 8.203125 
L 18.109375 0 
L 9.078125 0 
L 9.078125 75.984375 
L 18.109375 75.984375 
z
" id="DejaVuSans-98"/>
       </defs>
       <use xlink:href="#DejaVuSans-70"/>
       <use x="52.019531" xlink:href="#DejaVuSans-101"/>
       <use x="113.542969" xlink:href="#DejaVuSans-98"/>
      </g>
     </g>
    </g>
    <g id="xtick_10">
     <g id="line2d_10">
      <g>
       <use style="stroke:#000000;stroke-width:0.8;" x="648" xlink:href="#m7035f77c05" y="315"/>
      </g>
     </g>
    </g>
    <g id="xtick_11">
     <g id="line2d_11">
      <defs>
       <path d="M 0 0 
L 0 2 
" id="m8ceac7dcd3" style="stroke:#000000;stroke-width:0.6;"/>
      </defs>
      <g>
       <use style="stroke:#000000;stroke-width:0.6;" x="103.181102" xlink:href="#m8ceac7dcd3" y="315"/>
      </g>
     </g>
    </g>
    <g id="xtick_12">
     <g id="line2d_12">
      <g>
       <use style="stroke:#000000;stroke-width:0.6;" x="118.559055" xlink:href="#m8ceac7dcd3" y="315"/>
      </g>
     </g>
    </g>
    <g id="xtick_13">
     <g id="line2d_13">
      <g>
       <use style="stroke:#000000;stroke-width:0.6;" x="133.937008" xlink:href="#m8ceac7dcd3" y="315"/>
      </g>
     </g>
    </g>
    <g id="xtick_14">
     <g id="line2d_14">
      <g>
       <use style="stroke:#000000;stroke-width:0.6;" x="149.314961" xlink:href="#m8ceac7dcd3" y="315"/>
      </g>
     </g>
    </g>
    <g id="xtick_15">
     <g id="line2d_15">
      <g>
       <use style="stroke:#000000;stroke-width:0.6;" x="164.692913" xlink:href="#m8ceac7dcd3" y="315"/>
      </g>
     </g>
    </g>
    <g id="xtick_16">
     <g id="line2d_16">
      <g>
       <use style="stroke:#000000;stroke-width:0.6;" x="180.070866" xlink:href="#m8ceac7dcd3" y="315"/>
      </g>
     </g>
    </g>
    <g id="xtick_17">
     <g id="line2d_17">
      <g>
       <use style="stroke:#000000;stroke-width:0.6;" x="195.448819" xlink:href="#m8ceac7dcd3" y="315"/>
      </g>
     </g>
    </g>
    <g id="xtick_18">
     <g id="line2d_18">
      <g>
       <use style="stroke:#000000;stroke-width:0.6;" x="210.826772" xlink:href="#m8ceac7dcd3" y="315"/>
      </g>
     </g>
    </g>
    <g id="xtick_19">
     <g id="line2d_19">
      <g>
       <use style="stroke:#000000;stroke-width:0.6;" x="226.204724" xlink:href="#m8ceac7dcd3" y="315"/>
      </g>
     </g>
    </g>
    <g id="xtick_20">
     <g id="line2d_20">
      <g>
       <use style="stroke:#000000;stroke-width:0.6;" x="241.582677" xlink:href="#m8ceac7dcd3" y="315"/>
      </g>
     </g>
    </g>
    <g id="xtick_21">
     <g id="line2d_21">
      <g>
       <use style="stroke:#000000;stroke-width:0.6;" x="256.96063" xlink:href="#m8ceac7dcd3" y="315"/>
      </g>
     </g>
    </g>
    <g id="xtick_22">
     <g id="line2d_22">
      <g>
       <use style="stroke:#000000;stroke-width:0.6;" x="272.338583" xlink:href="#m8ceac7dcd3" y="315"/>
      </g>
     </g>
    </g>
    <g id="xtick_23">
     <g id="line2d_23">
      <g>
       <use style="stroke:#000000;stroke-width:0.6;" x="287.716535" xlink:href="#m8ceac7dcd3" y="315"/>
      </g>
     </g>
    </g>
    <g id="xtick_24">
     <g id="line2d_24">
      <g>
       <use style="stroke:#000000;stroke-width:0.6;" x="303.094488" xlink:href="#m8ceac7dcd3" y="315"/>
      </g>
     </g>
    </g>
    <g id="xtick_25">
     <g id="line2d_25">
      <g>
       <use style="stroke:#000000;stroke-width:0.6;" x="318.472441" xlink:href="#m8ceac7dcd3" y="315"/>
      </g>
     </g>
    </g>
    <g id="xtick_26">
     <g id="line2d_26">
      <g>
       <use style="stroke:#000000;stroke-width:0.6;" x="333.850394" xlink:href="#m8ceac7dcd3" y="315"/>
      </g>
     </g>
    </g>
    <g id="xtick_27">
     <g id="line2d_27">
      <g>
       <use style="stroke:#000000;stroke-width:0.6;" x="349.228346" xlink:href="#m8ceac7dcd3" y="315"/>
      </g>
     </g>
    </g>
    <g id="xtick_28">
     <g id="line2d_28">
      <g>
       <use style="stroke:#000000;stroke-width:0.6;" x="364.606299" xlink:href="#m8ceac7dcd3" y="315"/>
      </g>
     </g>
    </g>
    <g id="xtick_29">
     <g id="line2d_29">
      <g>
       <use style="stroke:#000000;stroke-width:0.6;" x="379.984252" xlink:href="#m8ceac7dcd3" y="315"/>
      </g>
     </g>
    </g>
    <g id="xtick_30">
     <g id="line2d_30">
      <g>
       <use style="stroke:#000000;stroke-width:0.6;" x="395.362205" xlink:href="#m8ceac7dcd3" y="315"/>
      </g>
     </g>
    </g>
    <g id="xtick_31">
     <g id="line2d_31">
      <g>
       <use style="stroke:#000000;stroke-width:0.6;" x="410.740157" xlink:href="#m8ceac7dcd3" y="315"/>
      </g>
     </g>
    </g>
    <g id="xtick_32">
     <g id="line2d_32">
      <g>
       <use style="stroke:#000000;stroke-width:0.6;" x="426.11811" xlink:href="#m8ceac7dcd3" y="315"/>
      </g>
     </g>
    </g>
    <g id="xtick_33">
     <g id="line2d_33">
      <g>
       <use style="stroke:#000000;stroke-width:0.6;" x="441.496063" xlink:href="#m8ceac7dcd3" y="315"/>
      </g>
     </g>
    </g>
    <g id="xtick_34">
     <g id="line2d_34">
      <g>
       <use style="stroke:#000000;stroke-width:0.6;" x="456.874016" xlink:href="#m8ceac7dcd3" y="315"/>
      </g>
     </g>
    </g>
    <g id="xtick_35">
     <g id="line2d_35">
      <g>
       <use style="stroke:#000000;stroke-width:0.6;" x="472.251969" xlink:href="#m8ceac7dcd3" y="315"/>
      </g>
     </g>
    </g>
    <g id="xtick_36">
     <g id="line2d_36">
      <g>
       <use style="stroke:#000000;stroke-width:0.6;" x="487.629921" xlink:href="#m8ceac7dcd3" y="315"/>
      </g>
     </g>
    </g>
    <g id="xtick_37">
     <g id="line2d_37">
      <g>
       <use style="stroke:#000000;stroke-width:0.6;" x="503.007874" xlink:href="#m8ceac7dcd3" y="315"/>
      </g>
     </g>
    </g>
    <g id="xtick_38">
     <g id="line2d_38">
      <g>
       <use style="stroke:#000000;stroke-width:0.6;" x="518.385827" xlink:href="#m8ceac7dcd3" y="315"/>
      </g>
     </g>
    </g>
    <g id="xtick_39">
     <g id="line2d_39">
      <g>
       <use style="stroke:#000000;stroke-width:0.6;" x="533.76378" xlink:href="#m8ceac7dcd3" y="315"/>
      </g>
     </g>
    </g>
    <g id="xtick_40">
     <g id="line2d_40">
      <g>
       <use style="stroke:#000000;stroke-width:0.6;" x="549.141732" xlink:href="#m8ceac7dcd3" y="315"/>
      </g>
     </g>
    </g>
    <g id="xtick_41">
     <g id="line2d_41">
      <g>
       <use style="stroke:#000000;stroke-width:0.6;" x="564.519685" xlink:href="#m8ceac7dcd3" y="315"/>
      </g>
     </g>
    </g>
    <g id="xtick_42">
     <g id="line2d_42">
      <g>
       <use style="stroke:#000000;stroke-width:0.6;" x="579.897638" xlink:href="#m8ceac7dcd3" y="315"/>
      </g>
     </g>
    </g>
    <g id="xtick_43">
     <g id="line2d_43">
      <g>
       <use style="stroke:#000000;stroke-width:0.6;" x="610.653543" xlink:href="#m8ceac7dcd3" y="315"/>
      </g>
     </g>
    </g>
    <g id="xtick_44">
     <g id="line2d_44">
      <g>
       <use style="stroke:#000000;stroke-width:0.6;" x="626.031496" xlink:href="#m8ceac7dcd3" y="315"/>
      </g>
     </g>
    </g>
    <g id="xtick_45">
     <g id="line2d_45">
      <g>
       <use style="stroke:#000000;stroke-width:0.6;" x="641.409449" xlink:href="#m8ceac7dcd3" y="315"/>
      </g>
     </g>
    </g>
    <g id="text_9">
     <!-- date -->
     <g transform="translate(357.725 354.474375)scale(0.1 -0.1)">
      <defs>
       <path d="M 45.40625 46.390625 
L 45.40625 75.984375 
L 54.390625 75.984375 
L 54.390625 0 
L 45.40625 0 
L 45.40625 8.203125 
Q 42.578125 3.328125 38.25 0.953125 
Q 33.9375 -1.421875 27.875 -1.421875 
Q 17.96875 -1.421875 11.734375 6.484375 
Q 5.515625 14.40625 5.515625 27.296875 
Q 5.515625 40.1875 11.734375 48.09375 
Q 17.96875 56 27.875 56 
Q 33.9375 56 38.25 53.625 
Q 42.578125 51.265625 45.40625 46.390625 
z
M 14.796875 27.296875 
Q 14.796875 17.390625 18.875 11.75 
Q 22.953125 6.109375 30.078125 6.109375 
Q 37.203125 6.109375 41.296875 11.75 
Q 45.40625 17.390625 45.40625 27.296875 
Q 45.40625 37.203125 41.296875 42.84375 
Q 37.203125 48.484375 30.078125 48.484375 
Q 22.953125 48.484375 18.875 42.84375 
Q 14.796875 37.203125 14.796875 27.296875 
z
" id="DejaVuSans-100"/>
      </defs>
      <use xlink:href="#DejaVuSans-100"/>
      <use x="63.476562" xlink:href="#DejaVuSans-97"/>
      <use x="124.755859" xlink:href="#DejaVuSans-116"/>
      <use x="163.964844" xlink:href="#DejaVuSans-101"/>
     </g>
    </g>
   </g>
   <g id="matplotlib.axis_2">
    <g id="ytick_1">
     <g id="line2d_46">
      <path clip-path="url(#pc7ed60f74a)" d="M 90 309.601574 
L 648 309.601574 
" style="fill:none;stroke:#b0b0b0;stroke-dasharray:0.8,1.32;stroke-dashoffset:0;stroke-width:0.8;"/>
     </g>
     <g id="line2d_47">
      <defs>
       <path d="M 0 0 
L -3.5 0 
" id="m987bae03da" style="stroke:#000000;stroke-width:0.8;"/>
      </defs>
      <g>
       <use style="stroke:#000000;stroke-width:0.8;" x="90" xlink:href="#m987bae03da" y="309.601574"/>
      </g>
     </g>
     <g id="text_10">
      <!-- 0.4 -->
      <g transform="translate(67.096875 313.400793)scale(0.1 -0.1)">
       <defs>
        <path d="M 10.6875 12.40625 
L 21 12.40625 
L 21 0 
L 10.6875 0 
z
" id="DejaVuSans-46"/>
        <path d="M 37.796875 64.3125 
L 12.890625 25.390625 
L 37.796875 25.390625 
z
M 35.203125 72.90625 
L 47.609375 72.90625 
L 47.609375 25.390625 
L 58.015625 25.390625 
L 58.015625 17.1875 
L 47.609375 17.1875 
L 47.609375 0 
L 37.796875 0 
L 37.796875 17.1875 
L 4.890625 17.1875 
L 4.890625 26.703125 
z
" id="DejaVuSans-52"/>
       </defs>
       <use xlink:href="#DejaVuSans-48"/>
       <use x="63.623047" xlink:href="#DejaVuSans-46"/>
       <use x="95.410156" xlink:href="#DejaVuSans-52"/>
      </g>
     </g>
    </g>
    <g id="ytick_2">
     <g id="line2d_48">
      <path clip-path="url(#pc7ed60f74a)" d="M 90 270.991685 
L 648 270.991685 
" style="fill:none;stroke:#b0b0b0;stroke-dasharray:0.8,1.32;stroke-dashoffset:0;stroke-width:0.8;"/>
     </g>
     <g id="line2d_49">
      <g>
       <use style="stroke:#000000;stroke-width:0.8;" x="90" xlink:href="#m987bae03da" y="270.991685"/>
      </g>
     </g>
     <g id="text_11">
      <!-- 0.6 -->
      <g transform="translate(67.096875 274.790903)scale(0.1 -0.1)">
       <defs>
        <path d="M 33.015625 40.375 
Q 26.375 40.375 22.484375 35.828125 
Q 18.609375 31.296875 18.609375 23.390625 
Q 18.609375 15.53125 22.484375 10.953125 
Q 26.375 6.390625 33.015625 6.390625 
Q 39.65625 6.390625 43.53125 10.953125 
Q 47.40625 15.53125 47.40625 23.390625 
Q 47.40625 31.296875 43.53125 35.828125 
Q 39.65625 40.375 33.015625 40.375 
z
M 52.59375 71.296875 
L 52.59375 62.3125 
Q 48.875 64.0625 45.09375 64.984375 
Q 41.3125 65.921875 37.59375 65.921875 
Q 27.828125 65.921875 22.671875 59.328125 
Q 17.53125 52.734375 16.796875 39.40625 
Q 19.671875 43.65625 24.015625 45.921875 
Q 28.375 48.1875 33.59375 48.1875 
Q 44.578125 48.1875 50.953125 41.515625 
Q 57.328125 34.859375 57.328125 23.390625 
Q 57.328125 12.15625 50.6875 5.359375 
Q 44.046875 -1.421875 33.015625 -1.421875 
Q 20.359375 -1.421875 13.671875 8.265625 
Q 6.984375 17.96875 6.984375 36.375 
Q 6.984375 53.65625 15.1875 63.9375 
Q 23.390625 74.21875 37.203125 74.21875 
Q 40.921875 74.21875 44.703125 73.484375 
Q 48.484375 72.75 52.59375 71.296875 
z
" id="DejaVuSans-54"/>
       </defs>
       <use xlink:href="#DejaVuSans-48"/>
       <use x="63.623047" xlink:href="#DejaVuSans-46"/>
       <use x="95.410156" xlink:href="#DejaVuSans-54"/>
      </g>
     </g>
    </g>
    <g id="ytick_3">
     <g id="line2d_50">
      <path clip-path="url(#pc7ed60f74a)" d="M 90 232.381795 
L 648 232.381795 
" style="fill:none;stroke:#b0b0b0;stroke-dasharray:0.8,1.32;stroke-dashoffset:0;stroke-width:0.8;"/>
     </g>
     <g id="line2d_51">
      <g>
       <use style="stroke:#000000;stroke-width:0.8;" x="90" xlink:href="#m987bae03da" y="232.381795"/>
      </g>
     </g>
     <g id="text_12">
      <!-- 0.8 -->
      <g transform="translate(67.096875 236.181013)scale(0.1 -0.1)">
       <defs>
        <path d="M 31.78125 34.625 
Q 24.75 34.625 20.71875 30.859375 
Q 16.703125 27.09375 16.703125 20.515625 
Q 16.703125 13.921875 20.71875 10.15625 
Q 24.75 6.390625 31.78125 6.390625 
Q 38.8125 6.390625 42.859375 10.171875 
Q 46.921875 13.96875 46.921875 20.515625 
Q 46.921875 27.09375 42.890625 30.859375 
Q 38.875 34.625 31.78125 34.625 
z
M 21.921875 38.8125 
Q 15.578125 40.375 12.03125 44.71875 
Q 8.5 49.078125 8.5 55.328125 
Q 8.5 64.0625 14.71875 69.140625 
Q 20.953125 74.21875 31.78125 74.21875 
Q 42.671875 74.21875 48.875 69.140625 
Q 55.078125 64.0625 55.078125 55.328125 
Q 55.078125 49.078125 51.53125 44.71875 
Q 48 40.375 41.703125 38.8125 
Q 48.828125 37.15625 52.796875 32.3125 
Q 56.78125 27.484375 56.78125 20.515625 
Q 56.78125 9.90625 50.3125 4.234375 
Q 43.84375 -1.421875 31.78125 -1.421875 
Q 19.734375 -1.421875 13.25 4.234375 
Q 6.78125 9.90625 6.78125 20.515625 
Q 6.78125 27.484375 10.78125 32.3125 
Q 14.796875 37.15625 21.921875 38.8125 
z
M 18.3125 54.390625 
Q 18.3125 48.734375 21.84375 45.5625 
Q 25.390625 42.390625 31.78125 42.390625 
Q 38.140625 42.390625 41.71875 45.5625 
Q 45.3125 48.734375 45.3125 54.390625 
Q 45.3125 60.0625 41.71875 63.234375 
Q 38.140625 66.40625 31.78125 66.40625 
Q 25.390625 66.40625 21.84375 63.234375 
Q 18.3125 60.0625 18.3125 54.390625 
z
" id="DejaVuSans-56"/>
       </defs>
       <use xlink:href="#DejaVuSans-48"/>
       <use x="63.623047" xlink:href="#DejaVuSans-46"/>
       <use x="95.410156" xlink:href="#DejaVuSans-56"/>
      </g>
     </g>
    </g>
    <g id="ytick_4">
     <g id="line2d_52">
      <path clip-path="url(#pc7ed60f74a)" d="M 90 193.771905 
L 648 193.771905 
" style="fill:none;stroke:#b0b0b0;stroke-dasharray:0.8,1.32;stroke-dashoffset:0;stroke-width:0.8;"/>
     </g>
     <g id="line2d_53">
      <g>
       <use style="stroke:#000000;stroke-width:0.8;" x="90" xlink:href="#m987bae03da" y="193.771905"/>
      </g>
     </g>
     <g id="text_13">
      <!-- 1.0 -->
      <g transform="translate(67.096875 197.571123)scale(0.1 -0.1)">
       <use xlink:href="#DejaVuSans-49"/>
       <use x="63.623047" xlink:href="#DejaVuSans-46"/>
       <use x="95.410156" xlink:href="#DejaVuSans-48"/>
      </g>
     </g>
    </g>
    <g id="ytick_5">
     <g id="line2d_54">
      <path clip-path="url(#pc7ed60f74a)" d="M 90 155.162015 
L 648 155.162015 
" style="fill:none;stroke:#b0b0b0;stroke-dasharray:0.8,1.32;stroke-dashoffset:0;stroke-width:0.8;"/>
     </g>
     <g id="line2d_55">
      <g>
       <use style="stroke:#000000;stroke-width:0.8;" x="90" xlink:href="#m987bae03da" y="155.162015"/>
      </g>
     </g>
     <g id="text_14">
      <!-- 1.2 -->
      <g transform="translate(67.096875 158.961234)scale(0.1 -0.1)">
       <use xlink:href="#DejaVuSans-49"/>
       <use x="63.623047" xlink:href="#DejaVuSans-46"/>
       <use x="95.410156" xlink:href="#DejaVuSans-50"/>
      </g>
     </g>
    </g>
    <g id="ytick_6">
     <g id="line2d_56">
      <path clip-path="url(#pc7ed60f74a)" d="M 90 116.552125 
L 648 116.552125 
" style="fill:none;stroke:#b0b0b0;stroke-dasharray:0.8,1.32;stroke-dashoffset:0;stroke-width:0.8;"/>
     </g>
     <g id="line2d_57">
      <g>
       <use style="stroke:#000000;stroke-width:0.8;" x="90" xlink:href="#m987bae03da" y="116.552125"/>
      </g>
     </g>
     <g id="text_15">
      <!-- 1.4 -->
      <g transform="translate(67.096875 120.351344)scale(0.1 -0.1)">
       <use xlink:href="#DejaVuSans-49"/>
       <use x="63.623047" xlink:href="#DejaVuSans-46"/>
       <use x="95.410156" xlink:href="#DejaVuSans-52"/>
      </g>
     </g>
    </g>
    <g id="ytick_7">
     <g id="line2d_58">
      <path clip-path="url(#pc7ed60f74a)" d="M 90 77.942235 
L 648 77.942235 
" style="fill:none;stroke:#b0b0b0;stroke-dasharray:0.8,1.32;stroke-dashoffset:0;stroke-width:0.8;"/>
     </g>
     <g id="line2d_59">
      <g>
       <use style="stroke:#000000;stroke-width:0.8;" x="90" xlink:href="#m987bae03da" y="77.942235"/>
      </g>
     </g>
     <g id="text_16">
      <!-- 1.6 -->
      <g transform="translate(67.096875 81.741454)scale(0.1 -0.1)">
       <use xlink:href="#DejaVuSans-49"/>
       <use x="63.623047" xlink:href="#DejaVuSans-46"/>
       <use x="95.410156" xlink:href="#DejaVuSans-54"/>
      </g>
     </g>
    </g>
   </g>
   <g id="line2d_60">
    <path clip-path="url(#pc7ed60f74a)" d="M 90 222.159586 
L 92.19685 223.256208 
L 94.393701 224.038727 
L 98.787402 224.950416 
L 100.984252 222.537006 
L 103.181102 222.56277 
L 105.377953 222.074539 
L 107.574803 222.508407 
L 109.771654 221.314245 
L 111.968504 221.543435 
L 114.165354 221.016924 
L 116.362205 222.010713 
L 118.559055 224.149265 
L 120.755906 223.255653 
L 122.952756 222.751768 
L 125.149606 224.011637 
L 127.346457 226.041742 
L 129.543307 226.438805 
L 131.740157 227.086635 
L 133.937008 228.644657 
L 136.133858 229.800686 
L 142.724409 231.675805 
L 144.92126 233.205973 
L 147.11811 234.262756 
L 149.314961 234.263693 
L 151.511811 233.118993 
L 153.708661 232.981316 
L 155.905512 232.642671 
L 158.102362 231.27999 
L 160.299213 229.299714 
L 162.496063 226.819473 
L 164.692913 222.769562 
L 166.889764 220.061989 
L 171.283465 213.584736 
L 173.480315 208.781263 
L 175.677165 204.748037 
L 177.874016 198.307724 
L 180.070866 193.916798 
L 182.267717 188.807786 
L 184.464567 185.21881 
L 186.661417 180.030779 
L 191.055118 172.074107 
L 193.251969 168.601315 
L 195.448819 168.011277 
L 197.645669 167.617009 
L 199.84252 165.523082 
L 202.03937 165.47867 
L 204.23622 166.105475 
L 206.433071 167.712509 
L 208.629921 168.001667 
L 210.826772 168.898748 
L 213.023622 169.217259 
L 215.220472 171.373548 
L 217.417323 171.659042 
L 219.614173 172.247058 
L 221.811024 170.013308 
L 224.007874 170.274674 
L 226.204724 169.026314 
L 228.401575 166.554258 
L 230.598425 162.389413 
L 232.795276 160.007647 
L 234.992126 155.367383 
L 237.188976 152.295431 
L 239.385827 147.864266 
L 241.582677 144.368966 
L 243.779528 137.528349 
L 245.976378 133.873443 
L 248.173228 129.760647 
L 250.370079 123.100532 
L 252.566929 119.005036 
L 254.76378 116.561091 
L 256.96063 115.580829 
L 259.15748 112.773362 
L 261.354331 112.627361 
L 263.551181 114.537331 
L 265.748031 117.964216 
L 267.944882 118.929807 
L 270.141732 122.838647 
L 272.338583 127.186426 
L 274.535433 132.347831 
L 276.732283 136.738779 
L 278.929134 141.918015 
L 283.322835 153.32253 
L 285.519685 160.382787 
L 287.716535 166.147429 
L 289.913386 170.133227 
L 292.110236 177.278052 
L 294.307087 183.386326 
L 296.503937 190.054914 
L 298.700787 195.784948 
L 300.897638 202.751387 
L 303.094488 207.749369 
L 305.291339 214.78224 
L 307.488189 220.518195 
L 309.685039 227.749103 
L 311.88189 233.978233 
L 316.275591 244.890902 
L 320.669291 256.697146 
L 322.866142 260.043396 
L 325.062992 264.385037 
L 327.259843 267.604205 
L 329.456693 272.432494 
L 333.850394 277.975696 
L 336.047244 280.43339 
L 338.244094 281.993043 
L 340.440945 283.752373 
L 342.637795 285.078503 
L 344.834646 285.452542 
L 347.031496 285.298257 
L 349.228346 285.418339 
L 351.425197 284.378714 
L 353.622047 282.319586 
L 355.818898 280.57123 
L 358.015748 279.186471 
L 360.212598 275.692298 
L 362.409449 273.350391 
L 364.606299 270.804095 
L 366.80315 266.532122 
L 373.393701 255.629089 
L 375.590551 249.481186 
L 379.984252 239.976666 
L 382.181102 234.886918 
L 384.377953 228.828876 
L 386.574803 222.053667 
L 388.771654 216.943945 
L 390.968504 212.218568 
L 393.165354 206.410941 
L 399.755906 190.413556 
L 401.952756 184.606158 
L 404.149606 179.811727 
L 406.346457 174.025391 
L 408.543307 170.418276 
L 410.740157 164.377386 
L 415.133858 153.655809 
L 417.330709 148.913434 
L 419.527559 144.56696 
L 421.724409 142.994109 
L 423.92126 138.477332 
L 426.11811 137.629332 
L 428.314961 134.330561 
L 430.511811 130.735677 
L 432.708661 128.891023 
L 434.905512 128.781349 
L 437.102362 126.364211 
L 439.299213 125.807141 
L 441.496063 126.795183 
L 443.692913 125.079796 
L 445.889764 124.710169 
L 448.086614 123.206903 
L 450.283465 121.390042 
L 452.480315 119.850755 
L 454.677165 116.125934 
L 456.874016 113.762292 
L 459.070866 109.625751 
L 461.267717 107.884769 
L 463.464567 104.484346 
L 465.661417 101.957084 
L 467.858268 99.112973 
L 470.055118 97.71915 
L 472.251969 99.77524 
L 474.448819 96.273325 
L 476.645669 95.938992 
L 478.84252 95.015406 
L 481.03937 99.327195 
L 483.23622 100.231436 
L 487.629921 107.832723 
L 489.826772 112.0933 
L 492.023622 117.201026 
L 494.220472 123.766304 
L 496.417323 129.080157 
L 498.614173 133.477434 
L 500.811024 138.539375 
L 505.204724 149.9049 
L 507.401575 153.826547 
L 509.598425 160.697722 
L 511.795276 165.42989 
L 513.992126 169.847227 
L 516.188976 174.744982 
L 518.385827 178.184519 
L 520.582677 181.054388 
L 522.779528 184.671839 
L 524.976378 187.440941 
L 527.173228 189.930987 
L 529.370079 191.580082 
L 531.566929 193.649938 
L 533.76378 195.490534 
L 535.96063 195.9029 
L 538.15748 197.116487 
L 540.354331 197.690195 
L 542.551181 198.557953 
L 544.748031 198.429244 
L 546.944882 197.839072 
L 549.141732 197.867671 
L 551.338583 196.682504 
L 553.535433 197.677465 
L 555.732283 196.962237 
L 557.929134 196.018038 
L 560.125984 196.086898 
L 562.322835 197.3171 
L 564.519685 198.303228 
L 566.716535 199.781789 
L 568.913386 200.222711 
L 571.110236 203.286583 
L 573.307087 204.538516 
L 575.503937 208.399271 
L 577.700787 210.685549 
L 579.897638 215.293404 
L 582.094488 218.683881 
L 584.291339 222.583859 
L 586.488189 226.044292 
L 588.685039 228.432233 
L 590.88189 231.749623 
L 593.07874 234.27036 
L 595.275591 235.573785 
L 597.472441 235.801736 
L 599.669291 236.909912 
L 601.866142 237.864389 
L 604.062992 235.744136 
L 606.259843 234.922454 
L 608.456693 234.487903 
L 610.653543 233.125795 
L 615.047244 229.036745 
L 617.244094 226.138877 
L 619.440945 224.944084 
L 621.637795 221.897653 
L 623.834646 219.596217 
L 626.031496 217.729272 
L 630.425197 211.657234 
L 632.622047 211.260205 
L 634.818898 210.44668 
L 637.015748 206.853256 
L 639.212598 204.356029 
L 641.409449 204.739759 
L 643.606299 204.691725 
L 645.80315 203.332596 
L 648 201.334543 
L 650.19685 201.871598 
L 652.393701 201.783737 
L 654.590551 201.0899 
L 658.984252 200.972963 
L 661.181102 201.613565 
L 663.377953 200.428417 
L 665.574803 201.664158 
L 665.574803 201.664158 
" style="fill:none;stroke:#fc997a;stroke-linecap:square;stroke-width:1.5;"/>
   </g>
   <g id="line2d_61">
    <path clip-path="url(#pc7ed60f74a)" d="M 90 193.771905 
L 648 193.771905 
" style="fill:none;stroke:#000000;stroke-dasharray:3.7,1.6;stroke-dashoffset:0;"/>
   </g>
   <g id="patch_3">
    <path d="M 90 315 
L 90 43.2 
" style="fill:none;stroke:#000000;stroke-linecap:square;stroke-linejoin:miter;stroke-width:0.8;"/>
   </g>
   <g id="patch_4">
    <path d="M 648 315 
L 648 43.2 
" style="fill:none;stroke:#000000;stroke-linecap:square;stroke-linejoin:miter;stroke-width:0.8;"/>
   </g>
   <g id="patch_5">
    <path d="M 90 315 
L 648 315 
" style="fill:none;stroke:#000000;stroke-linecap:square;stroke-linejoin:miter;stroke-width:0.8;"/>
   </g>
   <g id="patch_6">
    <path d="M 90 43.2 
L 648 43.2 
" style="fill:none;stroke:#000000;stroke-linecap:square;stroke-linejoin:miter;stroke-width:0.8;"/>
   </g>
   <g id="text_17">
    <!-- 231    $R_t$ -->
    <g transform="translate(313.2 37.2)scale(0.12 -0.12)">
     <defs>
      <path d="M 40.578125 39.3125 
Q 47.65625 37.796875 51.625 33 
Q 55.609375 28.21875 55.609375 21.1875 
Q 55.609375 10.40625 48.1875 4.484375 
Q 40.765625 -1.421875 27.09375 -1.421875 
Q 22.515625 -1.421875 17.65625 -0.515625 
Q 12.796875 0.390625 7.625 2.203125 
L 7.625 11.71875 
Q 11.71875 9.328125 16.59375 8.109375 
Q 21.484375 6.890625 26.8125 6.890625 
Q 36.078125 6.890625 40.9375 10.546875 
Q 45.796875 14.203125 45.796875 21.1875 
Q 45.796875 27.640625 41.28125 31.265625 
Q 36.765625 34.90625 28.71875 34.90625 
L 20.21875 34.90625 
L 20.21875 43.015625 
L 29.109375 43.015625 
Q 36.375 43.015625 40.234375 45.921875 
Q 44.09375 48.828125 44.09375 54.296875 
Q 44.09375 59.90625 40.109375 62.90625 
Q 36.140625 65.921875 28.71875 65.921875 
Q 24.65625 65.921875 20.015625 65.03125 
Q 15.375 64.15625 9.8125 62.3125 
L 9.8125 71.09375 
Q 15.4375 72.65625 20.34375 73.4375 
Q 25.25 74.21875 29.59375 74.21875 
Q 40.828125 74.21875 47.359375 69.109375 
Q 53.90625 64.015625 53.90625 55.328125 
Q 53.90625 49.265625 50.4375 45.09375 
Q 46.96875 40.921875 40.578125 39.3125 
z
" id="DejaVuSans-51"/>
      <path id="DejaVuSans-32"/>
      <path d="M 18.171875 54.6875 
L 18.171875 -20.796875 
L 9.078125 -20.796875 
L 9.078125 54.6875 
z
" id="DejaVuSans-1503"/>
      <path d="M 43.75 20.0625 
L 57.671875 0 
L 47.078125 0 
L 26.765625 29.296875 
Q 25.390625 28.609375 24.53125 28.09375 
Q 23.6875 27.59375 22.3125 26.296875 
Q 20.953125 25 20.140625 23.40625 
Q 19.34375 21.828125 18.703125 19.140625 
Q 18.0625 16.453125 18.0625 13.09375 
L 18.0625 0 
L 9.078125 0 
L 9.078125 9.03125 
Q 9.078125 12.984375 9.5625 16.359375 
Q 10.0625 19.734375 10.8125 22.078125 
Q 11.578125 24.421875 12.796875 26.390625 
Q 14.015625 28.375 15.109375 29.59375 
Q 16.21875 30.8125 17.796875 31.875 
Q 19.390625 32.953125 20.453125 33.46875 
Q 21.53125 33.984375 23.046875 34.625 
L 9.1875 54.6875 
L 19.78125 54.6875 
L 40.09375 25.390625 
Q 41.40625 26.03125 42.25 26.53125 
Q 43.109375 27.046875 44.46875 28.359375 
Q 45.84375 29.6875 46.671875 31.265625 
Q 47.515625 32.859375 48.140625 35.546875 
Q 48.78125 38.234375 48.78125 41.609375 
L 48.78125 54.6875 
L 57.765625 54.6875 
L 57.765625 45.65625 
Q 57.765625 41.65625 57.265625 38.3125 
Q 56.78125 34.96875 56.03125 32.59375 
Q 55.28125 30.21875 54.046875 28.234375 
Q 52.828125 26.265625 51.703125 25.0625 
Q 50.59375 23.875 49.03125 22.796875 
Q 47.46875 21.734375 46.390625 21.21875 
Q 45.3125 20.703125 43.75 20.0625 
z
" id="DejaVuSans-1488"/>
      <path d="M 21 0 
L 11.8125 0 
L 4.296875 54.6875 
L 13.328125 54.6875 
L 16.890625 28.953125 
Q 19.234375 29 21.0625 29.359375 
Q 22.90625 29.734375 24.265625 30.53125 
Q 25.640625 31.34375 26.609375 32.203125 
Q 27.59375 33.0625 28.296875 34.625 
Q 29 36.1875 29.40625 37.46875 
Q 29.828125 38.765625 30.1875 41.03125 
Q 30.5625 43.3125 30.75 45 
Q 30.953125 46.6875 31.265625 49.640625 
Q 31.59375 52.59375 31.890625 54.6875 
L 39.9375 54.6875 
Q 39.0625 42 37.890625 36.96875 
Q 35.890625 28.609375 30.609375 25.25 
Q 25.984375 22.265625 17.828125 21.96875 
L 19.921875 6.984375 
Q 24.703125 6.984375 28.390625 7.34375 
Q 32.078125 7.71875 35.640625 8.6875 
Q 39.203125 9.671875 41.8125 11.296875 
Q 44.4375 12.9375 46.84375 15.5 
Q 49.265625 18.0625 50.953125 21.625 
Q 52.640625 25.203125 54 30 
Q 55.375 34.8125 56.203125 40.90625 
Q 57.03125 47.015625 57.515625 54.6875 
L 66.546875 54.6875 
Q 65.671875 46.578125 64.640625 40.421875 
Q 63.625 34.28125 62.125 28.703125 
Q 60.640625 23.140625 58.8125 19.15625 
Q 56.984375 15.1875 54.421875 11.84375 
Q 51.859375 8.5 48.703125 6.375 
Q 45.5625 4.25 41.375 2.75 
Q 37.203125 1.265625 32.25 0.625 
Q 27.296875 0 21 0 
z
" id="DejaVuSans-1513"/>
      <path d="M 56.640625 29.59375 
L 56.640625 0 
L 47.5625 0 
L 47.5625 29.6875 
Q 47.5625 33.296875 47.3125 35.71875 
Q 47.078125 38.140625 46.1875 40.59375 
Q 45.3125 43.0625 43.75 44.484375 
Q 42.1875 45.90625 39.453125 46.796875 
Q 36.71875 47.703125 32.8125 47.703125 
L 20.796875 47.703125 
L 20.796875 20.21875 
Q 20.796875 9.765625 17.796875 4.6875 
Q 14.796875 -0.390625 7.375 -0.390625 
Q 4.78125 -0.390625 0.984375 0.390625 
L 0.984375 7.375 
Q 4.15625 6.6875 6 6.6875 
Q 9.46875 6.6875 10.59375 9.46875 
Q 11.71875 12.25 11.71875 20.21875 
L 11.71875 47.703125 
L 3.265625 47.703125 
L 3.265625 54.6875 
L 32.8125 54.6875 
Q 39.796875 54.6875 44.5 53.046875 
Q 49.21875 51.421875 51.859375 48.046875 
Q 54.5 44.671875 55.5625 40.28125 
Q 56.640625 35.890625 56.640625 29.59375 
z
" id="DejaVuSans-1514"/>
      <path d="M 15.71875 54.6875 
L 15.71875 24.125 
L 6.640625 20.40625 
L 6.640625 54.6875 
z
" id="DejaVuSans-1497"/>
      <path d="M 36.328125 6.984375 
L 36.328125 29.59375 
Q 36.328125 33.25 36.0625 35.671875 
Q 35.796875 38.09375 34.859375 40.578125 
Q 33.9375 43.0625 32.25 44.484375 
Q 30.5625 45.90625 27.609375 46.796875 
Q 24.65625 47.703125 20.40625 47.703125 
L 4.296875 47.703125 
L 4.296875 54.6875 
L 20.40625 54.6875 
Q 26.421875 54.6875 30.734375 53.5625 
Q 35.0625 52.4375 37.890625 50.359375 
Q 40.71875 48.296875 42.40625 44.890625 
Q 44.09375 41.5 44.75 37.453125 
Q 45.40625 33.40625 45.40625 27.828125 
L 45.40625 6.984375 
L 53.515625 6.984375 
L 53.515625 0 
L 4.296875 0 
L 4.296875 6.984375 
z
" id="DejaVuSans-1489"/>
      <path d="M 19.34375 -20.796875 
L 19.34375 33.40625 
L 10.25 29.6875 
L 10.25 -20.796875 
z
M 33.0625 0 
L 52.78125 47.703125 
L 9.078125 47.703125 
L 9.078125 54.640625 
L 63.328125 54.640625 
L 63.328125 49.265625 
L 42.578125 0 
z
" id="DejaVuSans-1511"/>
      <path d="M 4.296875 54.6875 
L 14.890625 54.6875 
Q 15.09375 54.15625 16.703125 50.3125 
Q 18.3125 46.484375 19.390625 42.671875 
Q 20.75 46.09375 22.625 48.53125 
Q 24.515625 50.984375 26.359375 52.296875 
Q 28.21875 53.609375 30.609375 54.34375 
Q 33.015625 55.078125 34.859375 55.265625 
Q 36.71875 55.46875 39.203125 55.46875 
Q 58.84375 55.46875 58.84375 29.59375 
L 58.84375 0 
L 31.390625 0 
L 31.390625 6.9375 
L 49.75 6.9375 
L 49.75 29.59375 
Q 49.75 39.109375 46.765625 43.671875 
Q 43.796875 48.25 39.0625 48.25 
Q 30.28125 48.25 26.078125 40.4375 
Q 23.734375 35.984375 21.6875 25.921875 
Q 21.578125 25.25 21.34375 24.125 
L 16.546875 0 
L 7.46875 0 
L 11.375 20.40625 
Q 11.53125 21.1875 11.890625 22.96875 
Q 12.25 24.75 12.375 25.40625 
Q 12.5 26.078125 12.671875 27.3125 
Q 12.84375 28.5625 12.90625 29.515625 
Q 12.984375 30.46875 12.984375 31.546875 
Q 12.984375 34.671875 10.71875 41.09375 
Q 8.453125 47.515625 4.296875 54.6875 
z
" id="DejaVuSans-1502"/>
      <path d="M 44.140625 40.828125 
L 44.140625 54.6875 
L 53.515625 54.6875 
L 53.515625 40.828125 
Q 53.515625 35.0625 53.046875 30.71875 
Q 52.59375 26.375 51.390625 22.09375 
Q 50.203125 17.828125 48.046875 14.5 
Q 45.90625 11.1875 42.578125 8.078125 
Q 39.265625 4.984375 34.515625 2.390625 
Q 29.78125 -0.203125 23.4375 -2.484375 
L 4.6875 -9.28125 
L 4.6875 -1.03125 
L 18.953125 4.046875 
L 4.296875 54.6875 
L 13.765625 54.6875 
L 27.25 7.125 
Q 33.6875 9.90625 37.203125 13.5625 
Q 40.71875 17.234375 42.421875 23.671875 
Q 44.140625 30.125 44.140625 40.828125 
z
" id="DejaVuSans-1506"/>
      <path d="M 25.203125 64.796875 
L 20.21875 38.921875 
L 32.90625 38.921875 
Q 40.375 38.921875 44.984375 43.046875 
Q 49.609375 47.171875 49.609375 53.8125 
Q 49.609375 59.125 46.5 61.953125 
Q 43.40625 64.796875 37.59375 64.796875 
z
M 43.3125 35.015625 
Q 46.4375 34.28125 48.515625 31.390625 
Q 50.59375 28.515625 53.328125 19.921875 
L 59.515625 0 
L 49.125 0 
L 43.40625 18.703125 
Q 41.21875 25.921875 38.328125 28.359375 
Q 35.453125 30.8125 29.5 30.8125 
L 18.609375 30.8125 
L 12.59375 0 
L 2.6875 0 
L 16.890625 72.90625 
L 39.109375 72.90625 
Q 49.21875 72.90625 54.609375 68.328125 
Q 60.015625 63.765625 60.015625 55.171875 
Q 60.015625 47.5625 55.421875 41.984375 
Q 50.828125 36.421875 43.3125 35.015625 
z
" id="DejaVuSans-Oblique-82"/>
      <path d="M 42.28125 54.6875 
L 40.921875 47.703125 
L 23 47.703125 
L 17.1875 18.015625 
Q 16.890625 16.359375 16.75 15.234375 
Q 16.609375 14.109375 16.609375 13.484375 
Q 16.609375 10.359375 18.484375 8.9375 
Q 20.359375 7.515625 24.515625 7.515625 
L 33.59375 7.515625 
L 32.078125 0 
L 23.484375 0 
Q 15.484375 0 11.546875 3.125 
Q 7.625 6.25 7.625 12.59375 
Q 7.625 13.71875 7.765625 15.0625 
Q 7.90625 16.40625 8.203125 18.015625 
L 14.015625 47.703125 
L 6.390625 47.703125 
L 7.8125 54.6875 
L 15.28125 54.6875 
L 18.3125 70.21875 
L 27.296875 70.21875 
L 24.3125 54.6875 
z
" id="DejaVuSans-Oblique-116"/>
     </defs>
     <use transform="translate(0 0.78125)" xlink:href="#DejaVuSans-50"/>
     <use transform="translate(63.623047 0.78125)" xlink:href="#DejaVuSans-51"/>
     <use transform="translate(127.246094 0.78125)" xlink:href="#DejaVuSans-49"/>
     <use transform="translate(190.869141 0.78125)" xlink:href="#DejaVuSans-32"/>
     <use transform="translate(222.65625 0.78125)" xlink:href="#DejaVuSans-1503"/>
     <use transform="translate(249.902344 0.78125)" xlink:href="#DejaVuSans-1488"/>
     <use transform="translate(316.748047 0.78125)" xlink:href="#DejaVuSans-1513"/>
     <use transform="translate(387.597656 0.78125)" xlink:href="#DejaVuSans-32"/>
     <use transform="translate(419.384766 0.78125)" xlink:href="#DejaVuSans-1514"/>
     <use transform="translate(485.107422 0.78125)" xlink:href="#DejaVuSans-1497"/>
     <use transform="translate(507.470703 0.78125)" xlink:href="#DejaVuSans-1489"/>
     <use transform="translate(565.283203 0.78125)" xlink:href="#DejaVuSans-32"/>
     <use transform="translate(597.070312 0.78125)" xlink:href="#DejaVuSans-1511"/>
     <use transform="translate(668.017578 0.78125)" xlink:href="#DejaVuSans-1502"/>
     <use transform="translate(735.9375 0.78125)" xlink:href="#DejaVuSans-1506"/>
     <use transform="translate(798.535156 0.78125)" xlink:href="#DejaVuSans-32"/>
     <use transform="translate(830.322266 0.78125)" xlink:href="#DejaVuSans-Oblique-82"/>
     <use transform="translate(899.804688 -15.625)scale(0.7)" xlink:href="#DejaVuSans-Oblique-116"/>
    </g>
   </g>
  </g>
 </g>
 <defs>
  <clipPath id="pc7ed60f74a">
   <rect height="271.8" width="558" x="90" y="43.2"/>
  </clipPath>
 </defs>
</svg>
