<?xml version="1.0" encoding="utf-8" standalone="no"?>
<!DOCTYPE svg PUBLIC "-//W3C//DTD SVG 1.1//EN"
  "http://www.w3.org/Graphics/SVG/1.1/DTD/svg11.dtd">
<!-- Created with matplotlib (https://matplotlib.org/) -->
<svg height="360pt" version="1.1" viewBox="0 0 720 360" width="720pt" xmlns="http://www.w3.org/2000/svg" xmlns:xlink="http://www.w3.org/1999/xlink">
 <metadata>
  <rdf:RDF xmlns:cc="http://creativecommons.org/ns#" xmlns:dc="http://purl.org/dc/elements/1.1/" xmlns:rdf="http://www.w3.org/1999/02/22-rdf-syntax-ns#">
   <cc:Work>
    <dc:type rdf:resource="http://purl.org/dc/dcmitype/StillImage"/>
    <dc:date>2021-02-14T16:35:20.310653</dc:date>
    <dc:format>image/svg+xml</dc:format>
    <dc:creator>
     <cc:Agent>
      <dc:title>Matplotlib v3.3.2, https://matplotlib.org/</dc:title>
     </cc:Agent>
    </dc:creator>
   </cc:Work>
  </rdf:RDF>
 </metadata>
 <defs>
  <style type="text/css">*{stroke-linecap:butt;stroke-linejoin:round;}</style>
 </defs>
 <g id="figure_1">
  <g id="patch_1">
   <path d="M 0 360 
L 720 360 
L 720 0 
L 0 0 
z
" style="fill:#ffffff;"/>
  </g>
  <g id="axes_1">
   <g id="patch_2">
    <path d="M 90 315 
L 648 315 
L 648 43.2 
L 90 43.2 
z
" style="fill:#ffffff;"/>
   </g>
   <g id="PolyCollection_1">
    <defs>
     <path d="M 90 -58.927023 
L 90 -111.995953 
L 91.794212 -108.765855 
L 93.588424 -107.962841 
L 95.382637 -110.297942 
L 97.176849 -114.644038 
L 98.971061 -110.879281 
L 100.765273 -111.136279 
L 102.559486 -111.310924 
L 104.353698 -111.2789 
L 106.14791 -113.208781 
L 107.942122 -116.937306 
L 109.736334 -115.887674 
L 111.530547 -118.907203 
L 113.324759 -119.538388 
L 115.118971 -123.163344 
L 116.913183 -128.015818 
L 118.707395 -131.914727 
L 120.501608 -129.504983 
L 122.29582 -135.440602 
L 124.090032 -141.190444 
L 125.884244 -141.038094 
L 127.678457 -144.354816 
L 129.472669 -149.992332 
L 131.266881 -151.739643 
L 133.061093 -158.587807 
L 134.855305 -160.37694 
L 136.649518 -163.972542 
L 138.44373 -167.195791 
L 140.237942 -172.973895 
L 142.032154 -179.418924 
L 143.826367 -184.942728 
L 145.620579 -190.355135 
L 147.414791 -195.510441 
L 149.209003 -203.039958 
L 151.003215 -206.73536 
L 152.797428 -215.25029 
L 154.59164 -217.500342 
L 156.385852 -220.850075 
L 158.180064 -233.606993 
L 159.974277 -242.382869 
L 161.768489 -245.703504 
L 163.562701 -249.57608 
L 165.356913 -256.560231 
L 167.151125 -260.622801 
L 168.945338 -266.117025 
L 170.73955 -283.767685 
L 172.533762 -283.103107 
L 174.327974 -287.459803 
L 176.122186 -291.659656 
L 177.916399 -294.879471 
L 179.710611 -296.855775 
L 181.504823 -304.445455 
L 183.299035 -297.549972 
L 185.093248 -297.420559 
L 186.88746 -294.158059 
L 188.681672 -294.525193 
L 190.475884 -293.580373 
L 192.270096 -293.377394 
L 194.064309 -290.44654 
L 195.858521 -283.733934 
L 197.652733 -273.382249 
L 199.446945 -276.119074 
L 201.241158 -276.076125 
L 203.03537 -261.335647 
L 204.829582 -257.101504 
L 206.623794 -256.761763 
L 208.418006 -255.761461 
L 210.212219 -251.486234 
L 212.006431 -243.873437 
L 213.800643 -247.310776 
L 215.594855 -240.864204 
L 217.389068 -236.314289 
L 219.18328 -241.249558 
L 220.977492 -239.614002 
L 222.771704 -242.646405 
L 224.565916 -240.302953 
L 226.360129 -245.755003 
L 228.154341 -246.129892 
L 229.948553 -244.680829 
L 231.742765 -248.157871 
L 233.536977 -249.020371 
L 235.33119 -252.428061 
L 237.125402 -255.593212 
L 238.919614 -254.204017 
L 240.713826 -254.351634 
L 242.508039 -266.356695 
L 244.302251 -264.157047 
L 246.096463 -258.632536 
L 247.890675 -263.137779 
L 249.684887 -261.937551 
L 251.4791 -262.497079 
L 253.273312 -259.921072 
L 255.067524 -256.748479 
L 256.861736 -249.761759 
L 258.655949 -239.689955 
L 260.450161 -233.863029 
L 262.244373 -230.567528 
L 264.038585 -216.130378 
L 265.832797 -206.679534 
L 267.62701 -201.949386 
L 269.421222 -191.986173 
L 271.215434 -185.139436 
L 273.009646 -176.284174 
L 274.803859 -166.925344 
L 276.598071 -160.499367 
L 278.392283 -153.733238 
L 280.186495 -146.040558 
L 281.980707 -142.862584 
L 283.77492 -138.124382 
L 285.569132 -133.929136 
L 287.363344 -132.039296 
L 289.157556 -127.72855 
L 290.951768 -132.174536 
L 292.745981 -129.636044 
L 294.540193 -128.562536 
L 296.334405 -128.113372 
L 298.128617 -131.369362 
L 299.92283 -130.297716 
L 301.717042 -132.661484 
L 303.511254 -134.356285 
L 305.305466 -136.235587 
L 307.099678 -140.443615 
L 308.893891 -142.753488 
L 310.688103 -147.043371 
L 312.482315 -147.845742 
L 314.276527 -153.047994 
L 316.07074 -158.645059 
L 317.864952 -163.0961 
L 319.659164 -168.111548 
L 321.453376 -175.680621 
L 323.247588 -184.994262 
L 325.041801 -188.344201 
L 326.836013 -195.71303 
L 328.630225 -210.212647 
L 330.424437 -211.726821 
L 332.21865 -222.892086 
L 334.012862 -235.461108 
L 335.807074 -242.485242 
L 337.601286 -248.927529 
L 339.395498 -258.925344 
L 341.189711 -264.749362 
L 342.983923 -272.692846 
L 344.778135 -277.898956 
L 346.572347 -278.272683 
L 348.366559 -281.723644 
L 350.160772 -281.331849 
L 351.954984 -280.802104 
L 353.749196 -279.027574 
L 355.543408 -278.189007 
L 357.337621 -263.83786 
L 359.131833 -258.781086 
L 360.926045 -257.840959 
L 362.720257 -248.811944 
L 364.514469 -243.307193 
L 366.308682 -234.966611 
L 368.102894 -228.941219 
L 369.897106 -216.331146 
L 371.691318 -210.843015 
L 373.485531 -204.552957 
L 375.279743 -196.514544 
L 377.073955 -192.659677 
L 378.868167 -185.490242 
L 380.662379 -180.188242 
L 382.456592 -176.677111 
L 384.250804 -168.453993 
L 386.045016 -164.204709 
L 387.839228 -161.186639 
L 389.633441 -155.349406 
L 391.427653 -146.353023 
L 393.221865 -140.324949 
L 395.016077 -136.451059 
L 396.810289 -135.159693 
L 398.604502 -129.147225 
L 400.398714 -124.360952 
L 402.192926 -124.250657 
L 403.987138 -119.563905 
L 405.78135 -118.392114 
L 407.575563 -114.575623 
L 409.369775 -111.043846 
L 411.163987 -111.288344 
L 412.958199 -108.574658 
L 414.752412 -108.647005 
L 416.546624 -107.999729 
L 418.340836 -108.374304 
L 420.135048 -107.564101 
L 421.92926 -107.947302 
L 423.723473 -108.259733 
L 425.517685 -111.370425 
L 427.311897 -111.901185 
L 429.106109 -110.49392 
L 430.900322 -114.866502 
L 432.694534 -118.259801 
L 434.488746 -119.283263 
L 436.282958 -124.996421 
L 438.07717 -126.381233 
L 439.871383 -132.504548 
L 441.665595 -134.690056 
L 443.459807 -139.36251 
L 445.254019 -145.29126 
L 447.048232 -147.513361 
L 448.842444 -151.976383 
L 450.636656 -159.865119 
L 452.430868 -162.119425 
L 454.22508 -165.980432 
L 456.019293 -171.850601 
L 457.813505 -176.410915 
L 459.607717 -181.515263 
L 461.401929 -183.933081 
L 463.196141 -187.212768 
L 464.990354 -197.574216 
L 466.784566 -204.061592 
L 468.578778 -209.627244 
L 470.37299 -212.132225 
L 472.167203 -217.627859 
L 473.961415 -220.3248 
L 475.755627 -225.762781 
L 477.549839 -224.929868 
L 479.344051 -226.141428 
L 481.138264 -227.257292 
L 482.932476 -230.006161 
L 484.726688 -232.843826 
L 486.5209 -231.967465 
L 488.315113 -228.192773 
L 490.109325 -229.716339 
L 491.903537 -226.406578 
L 493.697749 -227.556472 
L 495.491961 -217.782245 
L 497.286174 -218.958946 
L 499.080386 -216.152239 
L 500.874598 -212.405213 
L 502.66881 -208.784321 
L 504.463023 -207.971908 
L 506.257235 -198.88685 
L 508.051447 -194.453169 
L 509.845659 -195.051249 
L 511.639871 -187.688167 
L 513.434084 -185.913807 
L 515.228296 -183.959792 
L 517.022508 -185.715341 
L 518.81672 -188.135545 
L 520.610932 -184.352449 
L 522.405145 -186.679065 
L 524.199357 -185.549593 
L 525.993569 -184.473094 
L 527.787781 -191.826358 
L 529.581994 -190.915469 
L 531.376206 -195.893819 
L 533.170418 -200.953678 
L 534.96463 -211.186761 
L 536.758842 -211.550351 
L 538.553055 -217.360453 
L 540.347267 -227.237251 
L 542.141479 -233.112706 
L 543.935691 -238.653276 
L 545.729904 -243.879731 
L 547.524116 -247.614523 
L 549.318328 -252.288341 
L 551.11254 -264.36464 
L 552.906752 -257.576391 
L 554.700965 -266.722639 
L 556.495177 -266.717695 
L 558.289389 -268.869379 
L 560.083601 -271.549944 
L 561.877814 -266.495005 
L 563.672026 -269.219617 
L 565.466238 -256.941184 
L 567.26045 -255.362969 
L 569.054662 -249.073453 
L 570.848875 -241.743646 
L 572.643087 -230.443894 
L 574.437299 -228.403755 
L 576.231511 -219.517332 
L 578.025723 -211.001506 
L 579.819936 -208.308453 
L 581.614148 -201.6599 
L 583.40836 -198.632451 
L 585.202572 -198.856209 
L 586.996785 -192.833779 
L 588.790997 -193.394926 
L 590.585209 -194.367213 
L 592.379421 -192.852113 
L 594.173633 -199.574734 
L 595.967846 -198.944316 
L 597.762058 -201.709316 
L 599.55627 -207.102305 
L 601.350482 -204.586468 
L 603.144695 -206.182757 
L 604.938907 -206.655893 
L 606.733119 -209.96872 
L 608.527331 -212.008292 
L 610.321543 -219.427874 
L 612.115756 -217.029236 
L 613.909968 -221.629964 
L 615.70418 -221.696709 
L 617.498392 -225.402876 
L 619.292605 -218.419396 
L 621.086817 -220.791627 
L 622.881029 -216.346511 
L 624.675241 -222.266099 
L 626.469453 -218.669928 
L 628.263666 -213.716169 
L 630.057878 -214.770592 
L 631.85209 -217.855949 
L 633.646302 -211.219241 
L 635.440514 -211.903019 
L 637.234727 -209.403944 
L 639.028939 -207.01081 
L 640.823151 -209.52153 
L 642.617363 -213.609951 
L 644.411576 -213.022571 
L 646.205788 -216.432647 
L 648 -221.300306 
L 649.794212 -233.715949 
L 651.588424 -226.802373 
L 653.382637 -222.808916 
L 655.176849 -223.45842 
L 656.971061 -226.082803 
L 658.765273 -224.249843 
L 660.559486 -227.21467 
L 662.353698 -233.862019 
L 662.353698 -108.800893 
L 662.353698 -108.800893 
L 660.559486 -109.576483 
L 658.765273 -108.945809 
L 656.971061 -113.374607 
L 655.176849 -113.664365 
L 653.382637 -118.391023 
L 651.588424 -124.614074 
L 649.794212 -132.597158 
L 648 -128.488269 
L 646.205788 -127.480586 
L 644.411576 -128.722538 
L 642.617363 -131.726381 
L 640.823151 -133.714168 
L 639.028939 -134.173921 
L 637.234727 -139.998415 
L 635.440514 -146.7771 
L 633.646302 -150.308176 
L 631.85209 -160.792002 
L 630.057878 -157.2961 
L 628.263666 -158.182535 
L 626.469453 -161.561891 
L 624.675241 -165.984503 
L 622.881029 -163.983149 
L 621.086817 -166.653294 
L 619.292605 -164.692853 
L 617.498392 -169.941764 
L 615.70418 -168.580629 
L 613.909968 -168.602867 
L 612.115756 -161.563414 
L 610.321543 -166.040304 
L 608.527331 -162.961148 
L 606.733119 -159.457968 
L 604.938907 -159.251091 
L 603.144695 -157.267582 
L 601.350482 -155.060935 
L 599.55627 -157.45471 
L 597.762058 -154.408955 
L 595.967846 -154.746735 
L 594.173633 -150.173249 
L 592.379421 -146.367719 
L 590.585209 -148.71853 
L 588.790997 -145.853354 
L 586.996785 -146.131293 
L 585.202572 -152.109426 
L 583.40836 -151.177085 
L 581.614148 -151.590582 
L 579.819936 -156.416054 
L 578.025723 -158.148149 
L 576.231511 -165.857966 
L 574.437299 -172.382838 
L 572.643087 -173.138507 
L 570.848875 -182.437751 
L 569.054662 -187.552432 
L 567.26045 -195.49506 
L 565.466238 -195.238176 
L 563.672026 -201.371983 
L 561.877814 -202.758455 
L 560.083601 -206.077519 
L 558.289389 -205.476973 
L 556.495177 -201.320821 
L 554.700965 -201.139833 
L 552.906752 -192.70819 
L 551.11254 -199.053736 
L 549.318328 -188.136593 
L 547.524116 -185.198839 
L 545.729904 -183.594529 
L 543.935691 -180.559815 
L 542.141479 -177.879477 
L 540.347267 -169.935222 
L 538.553055 -162.73087 
L 536.758842 -158.105525 
L 534.96463 -157.461657 
L 533.170418 -150.118654 
L 531.376206 -147.123619 
L 529.581994 -143.248824 
L 527.787781 -142.951413 
L 525.993569 -140.189468 
L 524.199357 -139.768218 
L 522.405145 -140.367794 
L 520.610932 -138.221659 
L 518.81672 -141.899113 
L 517.022508 -138.44799 
L 515.228296 -137.468256 
L 513.434084 -139.589096 
L 511.639871 -142.174257 
L 509.845659 -146.601128 
L 508.051447 -143.595794 
L 506.257235 -148.004988 
L 504.463023 -153.341678 
L 502.66881 -153.020927 
L 500.874598 -156.077774 
L 499.080386 -160.349816 
L 497.286174 -161.209876 
L 495.491961 -159.009248 
L 493.697749 -168.425158 
L 491.903537 -168.094283 
L 490.109325 -172.758519 
L 488.315113 -167.906216 
L 486.5209 -170.229253 
L 484.726688 -169.974805 
L 482.932476 -167.968628 
L 481.138264 -169.176223 
L 479.344051 -169.063624 
L 477.549839 -166.058222 
L 475.755627 -165.666405 
L 473.961415 -161.431857 
L 472.167203 -159.792122 
L 470.37299 -155.948394 
L 468.578778 -155.865939 
L 466.784566 -151.841413 
L 464.990354 -148.338416 
L 463.196141 -139.43463 
L 461.401929 -138.877746 
L 459.607717 -135.719768 
L 457.813505 -128.399525 
L 456.019293 -125.586065 
L 454.22508 -121.62454 
L 452.430868 -117.982997 
L 450.636656 -119.045785 
L 448.842444 -111.131362 
L 447.048232 -108.860044 
L 445.254019 -106.37202 
L 443.459807 -101.886405 
L 441.665595 -96.645125 
L 439.871383 -95.491243 
L 438.07717 -91.503886 
L 436.282958 -91.582762 
L 434.488746 -87.667272 
L 432.694534 -86.731495 
L 430.900322 -84.711783 
L 429.106109 -80.870516 
L 427.311897 -82.632181 
L 425.517685 -80.132004 
L 423.723473 -78.489442 
L 421.92926 -78.111316 
L 420.135048 -77.560358 
L 418.340836 -78.957277 
L 416.546624 -79.530906 
L 414.752412 -80.031654 
L 412.958199 -80.831183 
L 411.163987 -82.563128 
L 409.369775 -81.493506 
L 407.575563 -83.721099 
L 405.78135 -87.953773 
L 403.987138 -89.264377 
L 402.192926 -94.337061 
L 400.398714 -94.003175 
L 398.604502 -97.761274 
L 396.810289 -101.826857 
L 395.016077 -101.386635 
L 393.221865 -105.151121 
L 391.427653 -108.835119 
L 389.633441 -117.210244 
L 387.839228 -120.949982 
L 386.045016 -121.508163 
L 384.250804 -127.300733 
L 382.456592 -133.387957 
L 380.662379 -137.456489 
L 378.868167 -142.10717 
L 377.073955 -148.969133 
L 375.279743 -151.265339 
L 373.485531 -158.244187 
L 371.691318 -160.28972 
L 369.897106 -162.776383 
L 368.102894 -173.742202 
L 366.308682 -178.344459 
L 364.514469 -182.800304 
L 362.720257 -187.002521 
L 360.926045 -196.678328 
L 359.131833 -195.96781 
L 357.337621 -200.582224 
L 355.543408 -209.085465 
L 353.749196 -206.264497 
L 351.954984 -205.325631 
L 350.160772 -207.370643 
L 348.366559 -208.833707 
L 346.572347 -209.010421 
L 344.778135 -210.324765 
L 342.983923 -204.951505 
L 341.189711 -200.179933 
L 339.395498 -194.926226 
L 337.601286 -188.118983 
L 335.807074 -182.171365 
L 334.012862 -175.899346 
L 332.21865 -168.122828 
L 330.424437 -159.839803 
L 328.630225 -155.785089 
L 326.836013 -144.456441 
L 325.041801 -139.150372 
L 323.247588 -135.946413 
L 321.453376 -128.313714 
L 319.659164 -123.382041 
L 317.864952 -120.072535 
L 316.07074 -115.9983 
L 314.276527 -112.889497 
L 312.482315 -108.35486 
L 310.688103 -107.789864 
L 308.893891 -105.52382 
L 307.099678 -104.638644 
L 305.305466 -100.435471 
L 303.511254 -100.407942 
L 301.717042 -98.035522 
L 299.92283 -95.657401 
L 298.128617 -98.111465 
L 296.334405 -94.814666 
L 294.540193 -95.72423 
L 292.745981 -96.495889 
L 290.951768 -98.372739 
L 289.157556 -95.089857 
L 287.363344 -99.437332 
L 285.569132 -100.978856 
L 283.77492 -103.193915 
L 281.980707 -108.24356 
L 280.186495 -109.559347 
L 278.392283 -116.446903 
L 276.598071 -121.371275 
L 274.803859 -124.777643 
L 273.009646 -131.887059 
L 271.215434 -139.982837 
L 269.421222 -146.075331 
L 267.62701 -154.215153 
L 265.832797 -155.308867 
L 264.038585 -161.167113 
L 262.244373 -173.283965 
L 260.450161 -173.906418 
L 258.655949 -179.029576 
L 256.861736 -186.339201 
L 255.067524 -191.937652 
L 253.273312 -194.42948 
L 251.4791 -197.285884 
L 249.684887 -197.128197 
L 247.890675 -196.811712 
L 246.096463 -193.185794 
L 244.302251 -198.434727 
L 242.508039 -202.842902 
L 240.713826 -192.003118 
L 238.919614 -195.239386 
L 237.125402 -197.155295 
L 235.33119 -191.657665 
L 233.536977 -184.939437 
L 231.742765 -185.419166 
L 229.948553 -180.042923 
L 228.154341 -178.578518 
L 226.360129 -178.555733 
L 224.565916 -176.344321 
L 222.771704 -177.609205 
L 220.977492 -171.00058 
L 219.18328 -174.765077 
L 217.389068 -168.018169 
L 215.594855 -172.440784 
L 213.800643 -178.570137 
L 212.006431 -174.75114 
L 210.212219 -180.727356 
L 208.418006 -182.324977 
L 206.623794 -183.645572 
L 204.829582 -183.847651 
L 203.03537 -184.564236 
L 201.241158 -194.484835 
L 199.446945 -196.673378 
L 197.652733 -194.279122 
L 195.858521 -202.41863 
L 194.064309 -206.245174 
L 192.270096 -211.630478 
L 190.475884 -207.497585 
L 188.681672 -208.735583 
L 186.88746 -209.375392 
L 185.093248 -213.552826 
L 183.299035 -211.053706 
L 181.504823 -213.835788 
L 179.710611 -209.306628 
L 177.916399 -206.749839 
L 176.122186 -203.85473 
L 174.327974 -202.66605 
L 172.533762 -196.865585 
L 170.73955 -196.675074 
L 168.945338 -181.1394 
L 167.151125 -176.871607 
L 165.356913 -176.312428 
L 163.562701 -174.718114 
L 161.768489 -170.21334 
L 159.974277 -169.447179 
L 158.180064 -163.889115 
L 156.385852 -156.300373 
L 154.59164 -150.42736 
L 152.797428 -150.783629 
L 151.003215 -144.11569 
L 149.209003 -140.579084 
L 147.414791 -135.765977 
L 145.620579 -132.770025 
L 143.826367 -127.487855 
L 142.032154 -122.81619 
L 140.237942 -116.893669 
L 138.44373 -115.570534 
L 136.649518 -114.66294 
L 134.855305 -112.764002 
L 133.061093 -110.533827 
L 131.266881 -103.907823 
L 129.472669 -101.199759 
L 127.678457 -99.394017 
L 125.884244 -96.657217 
L 124.090032 -96.983327 
L 122.29582 -93.826051 
L 120.501608 -86.561637 
L 118.707395 -89.022918 
L 116.913183 -86.126209 
L 115.118971 -80.832889 
L 113.324759 -77.512593 
L 111.530547 -76.980189 
L 109.736334 -73.555543 
L 107.942122 -73.997311 
L 106.14791 -70.314221 
L 104.353698 -69.425383 
L 102.559486 -67.91677 
L 100.765273 -66.835761 
L 98.971061 -63.652382 
L 97.176849 -65.941091 
L 95.382637 -62.493998 
L 93.588424 -59.374057 
L 91.794212 -57.354545 
L 90 -58.927023 
z
" id="m62e9b8de6e" style="stroke:#fdcbb6;stroke-opacity:0.8;"/>
    </defs>
    <g clip-path="url(#pcea1eeae2e)">
     <use style="fill:#fdcbb6;fill-opacity:0.8;stroke:#fdcbb6;stroke-opacity:0.8;" x="0" xlink:href="#m62e9b8de6e" y="360"/>
    </g>
   </g>
   <g id="matplotlib.axis_1">
    <g id="xtick_1">
     <g id="line2d_1">
      <defs>
       <path d="M 0 0 
L 0 3.5 
" id="mff58f17067" style="stroke:#000000;stroke-width:0.8;"/>
      </defs>
      <g>
       <use style="stroke:#000000;stroke-width:0.8;" x="90" xlink:href="#mff58f17067" y="315"/>
      </g>
     </g>
    </g>
    <g id="xtick_2">
     <g id="line2d_2">
      <g>
       <use style="stroke:#000000;stroke-width:0.8;" x="93.588424" xlink:href="#mff58f17067" y="315"/>
      </g>
     </g>
     <g id="text_1">
      <!-- Apr -->
      <g transform="translate(84.938424 329.598437)scale(0.1 -0.1)">
       <defs>
        <path d="M 34.1875 63.1875 
L 20.796875 26.90625 
L 47.609375 26.90625 
z
M 28.609375 72.90625 
L 39.796875 72.90625 
L 67.578125 0 
L 57.328125 0 
L 50.6875 18.703125 
L 17.828125 18.703125 
L 11.1875 0 
L 0.78125 0 
z
" id="DejaVuSans-65"/>
        <path d="M 18.109375 8.203125 
L 18.109375 -20.796875 
L 9.078125 -20.796875 
L 9.078125 54.6875 
L 18.109375 54.6875 
L 18.109375 46.390625 
Q 20.953125 51.265625 25.265625 53.625 
Q 29.59375 56 35.59375 56 
Q 45.5625 56 51.78125 48.09375 
Q 58.015625 40.1875 58.015625 27.296875 
Q 58.015625 14.40625 51.78125 6.484375 
Q 45.5625 -1.421875 35.59375 -1.421875 
Q 29.59375 -1.421875 25.265625 0.953125 
Q 20.953125 3.328125 18.109375 8.203125 
z
M 48.6875 27.296875 
Q 48.6875 37.203125 44.609375 42.84375 
Q 40.53125 48.484375 33.40625 48.484375 
Q 26.265625 48.484375 22.1875 42.84375 
Q 18.109375 37.203125 18.109375 27.296875 
Q 18.109375 17.390625 22.1875 11.75 
Q 26.265625 6.109375 33.40625 6.109375 
Q 40.53125 6.109375 44.609375 11.75 
Q 48.6875 17.390625 48.6875 27.296875 
z
" id="DejaVuSans-112"/>
        <path d="M 41.109375 46.296875 
Q 39.59375 47.171875 37.8125 47.578125 
Q 36.03125 48 33.890625 48 
Q 26.265625 48 22.1875 43.046875 
Q 18.109375 38.09375 18.109375 28.8125 
L 18.109375 0 
L 9.078125 0 
L 9.078125 54.6875 
L 18.109375 54.6875 
L 18.109375 46.1875 
Q 20.953125 51.171875 25.484375 53.578125 
Q 30.03125 56 36.53125 56 
Q 37.453125 56 38.578125 55.875 
Q 39.703125 55.765625 41.0625 55.515625 
z
" id="DejaVuSans-114"/>
       </defs>
       <use xlink:href="#DejaVuSans-65"/>
       <use x="68.408203" xlink:href="#DejaVuSans-112"/>
       <use x="131.884766" xlink:href="#DejaVuSans-114"/>
      </g>
     </g>
    </g>
    <g id="xtick_3">
     <g id="line2d_3">
      <g>
       <use style="stroke:#000000;stroke-width:0.8;" x="147.414791" xlink:href="#mff58f17067" y="315"/>
      </g>
     </g>
     <g id="text_2">
      <!-- May -->
      <g transform="translate(137.077291 329.598437)scale(0.1 -0.1)">
       <defs>
        <path d="M 9.8125 72.90625 
L 24.515625 72.90625 
L 43.109375 23.296875 
L 61.8125 72.90625 
L 76.515625 72.90625 
L 76.515625 0 
L 66.890625 0 
L 66.890625 64.015625 
L 48.09375 14.015625 
L 38.1875 14.015625 
L 19.390625 64.015625 
L 19.390625 0 
L 9.8125 0 
z
" id="DejaVuSans-77"/>
        <path d="M 34.28125 27.484375 
Q 23.390625 27.484375 19.1875 25 
Q 14.984375 22.515625 14.984375 16.5 
Q 14.984375 11.71875 18.140625 8.90625 
Q 21.296875 6.109375 26.703125 6.109375 
Q 34.1875 6.109375 38.703125 11.40625 
Q 43.21875 16.703125 43.21875 25.484375 
L 43.21875 27.484375 
z
M 52.203125 31.203125 
L 52.203125 0 
L 43.21875 0 
L 43.21875 8.296875 
Q 40.140625 3.328125 35.546875 0.953125 
Q 30.953125 -1.421875 24.3125 -1.421875 
Q 15.921875 -1.421875 10.953125 3.296875 
Q 6 8.015625 6 15.921875 
Q 6 25.140625 12.171875 29.828125 
Q 18.359375 34.515625 30.609375 34.515625 
L 43.21875 34.515625 
L 43.21875 35.40625 
Q 43.21875 41.609375 39.140625 45 
Q 35.0625 48.390625 27.6875 48.390625 
Q 23 48.390625 18.546875 47.265625 
Q 14.109375 46.140625 10.015625 43.890625 
L 10.015625 52.203125 
Q 14.9375 54.109375 19.578125 55.046875 
Q 24.21875 56 28.609375 56 
Q 40.484375 56 46.34375 49.84375 
Q 52.203125 43.703125 52.203125 31.203125 
z
" id="DejaVuSans-97"/>
        <path d="M 32.171875 -5.078125 
Q 28.375 -14.84375 24.75 -17.8125 
Q 21.140625 -20.796875 15.09375 -20.796875 
L 7.90625 -20.796875 
L 7.90625 -13.28125 
L 13.1875 -13.28125 
Q 16.890625 -13.28125 18.9375 -11.515625 
Q 21 -9.765625 23.484375 -3.21875 
L 25.09375 0.875 
L 2.984375 54.6875 
L 12.5 54.6875 
L 29.59375 11.921875 
L 46.6875 54.6875 
L 56.203125 54.6875 
z
" id="DejaVuSans-121"/>
       </defs>
       <use xlink:href="#DejaVuSans-77"/>
       <use x="86.279297" xlink:href="#DejaVuSans-97"/>
       <use x="147.558594" xlink:href="#DejaVuSans-121"/>
      </g>
     </g>
    </g>
    <g id="xtick_4">
     <g id="line2d_4">
      <g>
       <use style="stroke:#000000;stroke-width:0.8;" x="203.03537" xlink:href="#mff58f17067" y="315"/>
      </g>
     </g>
     <g id="text_3">
      <!-- Jun -->
      <g transform="translate(195.22287 329.598437)scale(0.1 -0.1)">
       <defs>
        <path d="M 9.8125 72.90625 
L 19.671875 72.90625 
L 19.671875 5.078125 
Q 19.671875 -8.109375 14.671875 -14.0625 
Q 9.671875 -20.015625 -1.421875 -20.015625 
L -5.171875 -20.015625 
L -5.171875 -11.71875 
L -2.09375 -11.71875 
Q 4.4375 -11.71875 7.125 -8.046875 
Q 9.8125 -4.390625 9.8125 5.078125 
z
" id="DejaVuSans-74"/>
        <path d="M 8.5 21.578125 
L 8.5 54.6875 
L 17.484375 54.6875 
L 17.484375 21.921875 
Q 17.484375 14.15625 20.5 10.265625 
Q 23.53125 6.390625 29.59375 6.390625 
Q 36.859375 6.390625 41.078125 11.03125 
Q 45.3125 15.671875 45.3125 23.6875 
L 45.3125 54.6875 
L 54.296875 54.6875 
L 54.296875 0 
L 45.3125 0 
L 45.3125 8.40625 
Q 42.046875 3.421875 37.71875 1 
Q 33.40625 -1.421875 27.6875 -1.421875 
Q 18.265625 -1.421875 13.375 4.4375 
Q 8.5 10.296875 8.5 21.578125 
z
M 31.109375 56 
z
" id="DejaVuSans-117"/>
        <path d="M 54.890625 33.015625 
L 54.890625 0 
L 45.90625 0 
L 45.90625 32.71875 
Q 45.90625 40.484375 42.875 44.328125 
Q 39.84375 48.1875 33.796875 48.1875 
Q 26.515625 48.1875 22.3125 43.546875 
Q 18.109375 38.921875 18.109375 30.90625 
L 18.109375 0 
L 9.078125 0 
L 9.078125 54.6875 
L 18.109375 54.6875 
L 18.109375 46.1875 
Q 21.34375 51.125 25.703125 53.5625 
Q 30.078125 56 35.796875 56 
Q 45.21875 56 50.046875 50.171875 
Q 54.890625 44.34375 54.890625 33.015625 
z
" id="DejaVuSans-110"/>
       </defs>
       <use xlink:href="#DejaVuSans-74"/>
       <use x="29.492188" xlink:href="#DejaVuSans-117"/>
       <use x="92.871094" xlink:href="#DejaVuSans-110"/>
      </g>
     </g>
    </g>
    <g id="xtick_5">
     <g id="line2d_5">
      <g>
       <use style="stroke:#000000;stroke-width:0.8;" x="256.861736" xlink:href="#mff58f17067" y="315"/>
      </g>
     </g>
     <g id="text_4">
      <!-- Jul -->
      <g transform="translate(250.828924 329.598437)scale(0.1 -0.1)">
       <defs>
        <path d="M 9.421875 75.984375 
L 18.40625 75.984375 
L 18.40625 0 
L 9.421875 0 
z
" id="DejaVuSans-108"/>
       </defs>
       <use xlink:href="#DejaVuSans-74"/>
       <use x="29.492188" xlink:href="#DejaVuSans-117"/>
       <use x="92.871094" xlink:href="#DejaVuSans-108"/>
      </g>
     </g>
    </g>
    <g id="xtick_6">
     <g id="line2d_6">
      <g>
       <use style="stroke:#000000;stroke-width:0.8;" x="312.482315" xlink:href="#mff58f17067" y="315"/>
      </g>
     </g>
     <g id="text_5">
      <!-- Aug -->
      <g transform="translate(302.719034 329.598437)scale(0.1 -0.1)">
       <defs>
        <path d="M 45.40625 27.984375 
Q 45.40625 37.75 41.375 43.109375 
Q 37.359375 48.484375 30.078125 48.484375 
Q 22.859375 48.484375 18.828125 43.109375 
Q 14.796875 37.75 14.796875 27.984375 
Q 14.796875 18.265625 18.828125 12.890625 
Q 22.859375 7.515625 30.078125 7.515625 
Q 37.359375 7.515625 41.375 12.890625 
Q 45.40625 18.265625 45.40625 27.984375 
z
M 54.390625 6.78125 
Q 54.390625 -7.171875 48.1875 -13.984375 
Q 42 -20.796875 29.203125 -20.796875 
Q 24.46875 -20.796875 20.265625 -20.09375 
Q 16.0625 -19.390625 12.109375 -17.921875 
L 12.109375 -9.1875 
Q 16.0625 -11.328125 19.921875 -12.34375 
Q 23.78125 -13.375 27.78125 -13.375 
Q 36.625 -13.375 41.015625 -8.765625 
Q 45.40625 -4.15625 45.40625 5.171875 
L 45.40625 9.625 
Q 42.625 4.78125 38.28125 2.390625 
Q 33.9375 0 27.875 0 
Q 17.828125 0 11.671875 7.65625 
Q 5.515625 15.328125 5.515625 27.984375 
Q 5.515625 40.671875 11.671875 48.328125 
Q 17.828125 56 27.875 56 
Q 33.9375 56 38.28125 53.609375 
Q 42.625 51.21875 45.40625 46.390625 
L 45.40625 54.6875 
L 54.390625 54.6875 
z
" id="DejaVuSans-103"/>
       </defs>
       <use xlink:href="#DejaVuSans-65"/>
       <use x="68.408203" xlink:href="#DejaVuSans-117"/>
       <use x="131.787109" xlink:href="#DejaVuSans-103"/>
      </g>
     </g>
    </g>
    <g id="xtick_7">
     <g id="line2d_7">
      <g>
       <use style="stroke:#000000;stroke-width:0.8;" x="368.102894" xlink:href="#mff58f17067" y="315"/>
      </g>
     </g>
     <g id="text_6">
      <!-- Sep -->
      <g transform="translate(358.677894 329.598437)scale(0.1 -0.1)">
       <defs>
        <path d="M 53.515625 70.515625 
L 53.515625 60.890625 
Q 47.90625 63.578125 42.921875 64.890625 
Q 37.9375 66.21875 33.296875 66.21875 
Q 25.25 66.21875 20.875 63.09375 
Q 16.5 59.96875 16.5 54.203125 
Q 16.5 49.359375 19.40625 46.890625 
Q 22.3125 44.4375 30.421875 42.921875 
L 36.375 41.703125 
Q 47.40625 39.59375 52.65625 34.296875 
Q 57.90625 29 57.90625 20.125 
Q 57.90625 9.515625 50.796875 4.046875 
Q 43.703125 -1.421875 29.984375 -1.421875 
Q 24.8125 -1.421875 18.96875 -0.25 
Q 13.140625 0.921875 6.890625 3.21875 
L 6.890625 13.375 
Q 12.890625 10.015625 18.65625 8.296875 
Q 24.421875 6.59375 29.984375 6.59375 
Q 38.421875 6.59375 43.015625 9.90625 
Q 47.609375 13.234375 47.609375 19.390625 
Q 47.609375 24.75 44.3125 27.78125 
Q 41.015625 30.8125 33.5 32.328125 
L 27.484375 33.5 
Q 16.453125 35.6875 11.515625 40.375 
Q 6.59375 45.0625 6.59375 53.421875 
Q 6.59375 63.09375 13.40625 68.65625 
Q 20.21875 74.21875 32.171875 74.21875 
Q 37.3125 74.21875 42.625 73.28125 
Q 47.953125 72.359375 53.515625 70.515625 
z
" id="DejaVuSans-83"/>
        <path d="M 56.203125 29.59375 
L 56.203125 25.203125 
L 14.890625 25.203125 
Q 15.484375 15.921875 20.484375 11.0625 
Q 25.484375 6.203125 34.421875 6.203125 
Q 39.59375 6.203125 44.453125 7.46875 
Q 49.3125 8.734375 54.109375 11.28125 
L 54.109375 2.78125 
Q 49.265625 0.734375 44.1875 -0.34375 
Q 39.109375 -1.421875 33.890625 -1.421875 
Q 20.796875 -1.421875 13.15625 6.1875 
Q 5.515625 13.8125 5.515625 26.8125 
Q 5.515625 40.234375 12.765625 48.109375 
Q 20.015625 56 32.328125 56 
Q 43.359375 56 49.78125 48.890625 
Q 56.203125 41.796875 56.203125 29.59375 
z
M 47.21875 32.234375 
Q 47.125 39.59375 43.09375 43.984375 
Q 39.0625 48.390625 32.421875 48.390625 
Q 24.90625 48.390625 20.390625 44.140625 
Q 15.875 39.890625 15.1875 32.171875 
z
" id="DejaVuSans-101"/>
       </defs>
       <use xlink:href="#DejaVuSans-83"/>
       <use x="63.476562" xlink:href="#DejaVuSans-101"/>
       <use x="125" xlink:href="#DejaVuSans-112"/>
      </g>
     </g>
    </g>
    <g id="xtick_8">
     <g id="line2d_8">
      <g>
       <use style="stroke:#000000;stroke-width:0.8;" x="421.92926" xlink:href="#mff58f17067" y="315"/>
      </g>
     </g>
     <g id="text_7">
      <!-- Oct -->
      <g transform="translate(413.283948 329.598437)scale(0.1 -0.1)">
       <defs>
        <path d="M 39.40625 66.21875 
Q 28.65625 66.21875 22.328125 58.203125 
Q 16.015625 50.203125 16.015625 36.375 
Q 16.015625 22.609375 22.328125 14.59375 
Q 28.65625 6.59375 39.40625 6.59375 
Q 50.140625 6.59375 56.421875 14.59375 
Q 62.703125 22.609375 62.703125 36.375 
Q 62.703125 50.203125 56.421875 58.203125 
Q 50.140625 66.21875 39.40625 66.21875 
z
M 39.40625 74.21875 
Q 54.734375 74.21875 63.90625 63.9375 
Q 73.09375 53.65625 73.09375 36.375 
Q 73.09375 19.140625 63.90625 8.859375 
Q 54.734375 -1.421875 39.40625 -1.421875 
Q 24.03125 -1.421875 14.8125 8.828125 
Q 5.609375 19.09375 5.609375 36.375 
Q 5.609375 53.65625 14.8125 63.9375 
Q 24.03125 74.21875 39.40625 74.21875 
z
" id="DejaVuSans-79"/>
        <path d="M 48.78125 52.59375 
L 48.78125 44.1875 
Q 44.96875 46.296875 41.140625 47.34375 
Q 37.3125 48.390625 33.40625 48.390625 
Q 24.65625 48.390625 19.8125 42.84375 
Q 14.984375 37.3125 14.984375 27.296875 
Q 14.984375 17.28125 19.8125 11.734375 
Q 24.65625 6.203125 33.40625 6.203125 
Q 37.3125 6.203125 41.140625 7.25 
Q 44.96875 8.296875 48.78125 10.40625 
L 48.78125 2.09375 
Q 45.015625 0.34375 40.984375 -0.53125 
Q 36.96875 -1.421875 32.421875 -1.421875 
Q 20.0625 -1.421875 12.78125 6.34375 
Q 5.515625 14.109375 5.515625 27.296875 
Q 5.515625 40.671875 12.859375 48.328125 
Q 20.21875 56 33.015625 56 
Q 37.15625 56 41.109375 55.140625 
Q 45.0625 54.296875 48.78125 52.59375 
z
" id="DejaVuSans-99"/>
        <path d="M 18.3125 70.21875 
L 18.3125 54.6875 
L 36.8125 54.6875 
L 36.8125 47.703125 
L 18.3125 47.703125 
L 18.3125 18.015625 
Q 18.3125 11.328125 20.140625 9.421875 
Q 21.96875 7.515625 27.59375 7.515625 
L 36.8125 7.515625 
L 36.8125 0 
L 27.59375 0 
Q 17.1875 0 13.234375 3.875 
Q 9.28125 7.765625 9.28125 18.015625 
L 9.28125 47.703125 
L 2.6875 47.703125 
L 2.6875 54.6875 
L 9.28125 54.6875 
L 9.28125 70.21875 
z
" id="DejaVuSans-116"/>
       </defs>
       <use xlink:href="#DejaVuSans-79"/>
       <use x="78.710938" xlink:href="#DejaVuSans-99"/>
       <use x="133.691406" xlink:href="#DejaVuSans-116"/>
      </g>
     </g>
    </g>
    <g id="xtick_9">
     <g id="line2d_9">
      <g>
       <use style="stroke:#000000;stroke-width:0.8;" x="477.549839" xlink:href="#mff58f17067" y="315"/>
      </g>
     </g>
     <g id="text_8">
      <!-- Nov -->
      <g transform="translate(467.790464 329.598437)scale(0.1 -0.1)">
       <defs>
        <path d="M 9.8125 72.90625 
L 23.09375 72.90625 
L 55.421875 11.921875 
L 55.421875 72.90625 
L 64.984375 72.90625 
L 64.984375 0 
L 51.703125 0 
L 19.390625 60.984375 
L 19.390625 0 
L 9.8125 0 
z
" id="DejaVuSans-78"/>
        <path d="M 30.609375 48.390625 
Q 23.390625 48.390625 19.1875 42.75 
Q 14.984375 37.109375 14.984375 27.296875 
Q 14.984375 17.484375 19.15625 11.84375 
Q 23.34375 6.203125 30.609375 6.203125 
Q 37.796875 6.203125 41.984375 11.859375 
Q 46.1875 17.53125 46.1875 27.296875 
Q 46.1875 37.015625 41.984375 42.703125 
Q 37.796875 48.390625 30.609375 48.390625 
z
M 30.609375 56 
Q 42.328125 56 49.015625 48.375 
Q 55.71875 40.765625 55.71875 27.296875 
Q 55.71875 13.875 49.015625 6.21875 
Q 42.328125 -1.421875 30.609375 -1.421875 
Q 18.84375 -1.421875 12.171875 6.21875 
Q 5.515625 13.875 5.515625 27.296875 
Q 5.515625 40.765625 12.171875 48.375 
Q 18.84375 56 30.609375 56 
z
" id="DejaVuSans-111"/>
        <path d="M 2.984375 54.6875 
L 12.5 54.6875 
L 29.59375 8.796875 
L 46.6875 54.6875 
L 56.203125 54.6875 
L 35.6875 0 
L 23.484375 0 
z
" id="DejaVuSans-118"/>
       </defs>
       <use xlink:href="#DejaVuSans-78"/>
       <use x="74.804688" xlink:href="#DejaVuSans-111"/>
       <use x="135.986328" xlink:href="#DejaVuSans-118"/>
      </g>
     </g>
    </g>
    <g id="xtick_10">
     <g id="line2d_10">
      <g>
       <use style="stroke:#000000;stroke-width:0.8;" x="531.376206" xlink:href="#mff58f17067" y="315"/>
      </g>
     </g>
     <g id="text_9">
      <!-- Dec -->
      <g transform="translate(521.700425 329.598437)scale(0.1 -0.1)">
       <defs>
        <path d="M 19.671875 64.796875 
L 19.671875 8.109375 
L 31.59375 8.109375 
Q 46.6875 8.109375 53.6875 14.9375 
Q 60.6875 21.78125 60.6875 36.53125 
Q 60.6875 51.171875 53.6875 57.984375 
Q 46.6875 64.796875 31.59375 64.796875 
z
M 9.8125 72.90625 
L 30.078125 72.90625 
Q 51.265625 72.90625 61.171875 64.09375 
Q 71.09375 55.28125 71.09375 36.53125 
Q 71.09375 17.671875 61.125 8.828125 
Q 51.171875 0 30.078125 0 
L 9.8125 0 
z
" id="DejaVuSans-68"/>
       </defs>
       <use xlink:href="#DejaVuSans-68"/>
       <use x="77.001953" xlink:href="#DejaVuSans-101"/>
       <use x="138.525391" xlink:href="#DejaVuSans-99"/>
      </g>
     </g>
    </g>
    <g id="xtick_11">
     <g id="line2d_11">
      <g>
       <use style="stroke:#000000;stroke-width:0.8;" x="586.996785" xlink:href="#mff58f17067" y="315"/>
      </g>
     </g>
     <g id="text_10">
      <!-- Jan -->
      <g transform="translate(579.288972 329.598437)scale(0.1 -0.1)">
       <use xlink:href="#DejaVuSans-74"/>
       <use x="29.492188" xlink:href="#DejaVuSans-97"/>
       <use x="90.771484" xlink:href="#DejaVuSans-110"/>
      </g>
      <!-- 2021 -->
      <g transform="translate(574.271785 340.79625)scale(0.1 -0.1)">
       <defs>
        <path d="M 19.1875 8.296875 
L 53.609375 8.296875 
L 53.609375 0 
L 7.328125 0 
L 7.328125 8.296875 
Q 12.9375 14.109375 22.625 23.890625 
Q 32.328125 33.6875 34.8125 36.53125 
Q 39.546875 41.84375 41.421875 45.53125 
Q 43.3125 49.21875 43.3125 52.78125 
Q 43.3125 58.59375 39.234375 62.25 
Q 35.15625 65.921875 28.609375 65.921875 
Q 23.96875 65.921875 18.8125 64.3125 
Q 13.671875 62.703125 7.8125 59.421875 
L 7.8125 69.390625 
Q 13.765625 71.78125 18.9375 73 
Q 24.125 74.21875 28.421875 74.21875 
Q 39.75 74.21875 46.484375 68.546875 
Q 53.21875 62.890625 53.21875 53.421875 
Q 53.21875 48.921875 51.53125 44.890625 
Q 49.859375 40.875 45.40625 35.40625 
Q 44.1875 33.984375 37.640625 27.21875 
Q 31.109375 20.453125 19.1875 8.296875 
z
" id="DejaVuSans-50"/>
        <path d="M 31.78125 66.40625 
Q 24.171875 66.40625 20.328125 58.90625 
Q 16.5 51.421875 16.5 36.375 
Q 16.5 21.390625 20.328125 13.890625 
Q 24.171875 6.390625 31.78125 6.390625 
Q 39.453125 6.390625 43.28125 13.890625 
Q 47.125 21.390625 47.125 36.375 
Q 47.125 51.421875 43.28125 58.90625 
Q 39.453125 66.40625 31.78125 66.40625 
z
M 31.78125 74.21875 
Q 44.046875 74.21875 50.515625 64.515625 
Q 56.984375 54.828125 56.984375 36.375 
Q 56.984375 17.96875 50.515625 8.265625 
Q 44.046875 -1.421875 31.78125 -1.421875 
Q 19.53125 -1.421875 13.0625 8.265625 
Q 6.59375 17.96875 6.59375 36.375 
Q 6.59375 54.828125 13.0625 64.515625 
Q 19.53125 74.21875 31.78125 74.21875 
z
" id="DejaVuSans-48"/>
        <path d="M 12.40625 8.296875 
L 28.515625 8.296875 
L 28.515625 63.921875 
L 10.984375 60.40625 
L 10.984375 69.390625 
L 28.421875 72.90625 
L 38.28125 72.90625 
L 38.28125 8.296875 
L 54.390625 8.296875 
L 54.390625 0 
L 12.40625 0 
z
" id="DejaVuSans-49"/>
       </defs>
       <use xlink:href="#DejaVuSans-50"/>
       <use x="63.623047" xlink:href="#DejaVuSans-48"/>
       <use x="127.246094" xlink:href="#DejaVuSans-50"/>
       <use x="190.869141" xlink:href="#DejaVuSans-49"/>
      </g>
     </g>
    </g>
    <g id="xtick_12">
     <g id="line2d_12">
      <g>
       <use style="stroke:#000000;stroke-width:0.8;" x="642.617363" xlink:href="#mff58f17067" y="315"/>
      </g>
     </g>
     <g id="text_11">
      <!-- Feb -->
      <g transform="translate(633.765801 329.598437)scale(0.1 -0.1)">
       <defs>
        <path d="M 9.8125 72.90625 
L 51.703125 72.90625 
L 51.703125 64.59375 
L 19.671875 64.59375 
L 19.671875 43.109375 
L 48.578125 43.109375 
L 48.578125 34.8125 
L 19.671875 34.8125 
L 19.671875 0 
L 9.8125 0 
z
" id="DejaVuSans-70"/>
        <path d="M 48.6875 27.296875 
Q 48.6875 37.203125 44.609375 42.84375 
Q 40.53125 48.484375 33.40625 48.484375 
Q 26.265625 48.484375 22.1875 42.84375 
Q 18.109375 37.203125 18.109375 27.296875 
Q 18.109375 17.390625 22.1875 11.75 
Q 26.265625 6.109375 33.40625 6.109375 
Q 40.53125 6.109375 44.609375 11.75 
Q 48.6875 17.390625 48.6875 27.296875 
z
M 18.109375 46.390625 
Q 20.953125 51.265625 25.265625 53.625 
Q 29.59375 56 35.59375 56 
Q 45.5625 56 51.78125 48.09375 
Q 58.015625 40.1875 58.015625 27.296875 
Q 58.015625 14.40625 51.78125 6.484375 
Q 45.5625 -1.421875 35.59375 -1.421875 
Q 29.59375 -1.421875 25.265625 0.953125 
Q 20.953125 3.328125 18.109375 8.203125 
L 18.109375 0 
L 9.078125 0 
L 9.078125 75.984375 
L 18.109375 75.984375 
z
" id="DejaVuSans-98"/>
       </defs>
       <use xlink:href="#DejaVuSans-70"/>
       <use x="52.019531" xlink:href="#DejaVuSans-101"/>
       <use x="113.542969" xlink:href="#DejaVuSans-98"/>
      </g>
     </g>
    </g>
    <g id="xtick_13">
     <g id="line2d_13">
      <g>
       <use style="stroke:#000000;stroke-width:0.8;" x="648" xlink:href="#mff58f17067" y="315"/>
      </g>
     </g>
    </g>
    <g id="xtick_14">
     <g id="line2d_14">
      <defs>
       <path d="M 0 0 
L 0 2 
" id="m19488ecfa6" style="stroke:#000000;stroke-width:0.6;"/>
      </defs>
      <g>
       <use style="stroke:#000000;stroke-width:0.6;" x="102.559486" xlink:href="#m19488ecfa6" y="315"/>
      </g>
     </g>
    </g>
    <g id="xtick_15">
     <g id="line2d_15">
      <g>
       <use style="stroke:#000000;stroke-width:0.6;" x="115.118971" xlink:href="#m19488ecfa6" y="315"/>
      </g>
     </g>
    </g>
    <g id="xtick_16">
     <g id="line2d_16">
      <g>
       <use style="stroke:#000000;stroke-width:0.6;" x="127.678457" xlink:href="#m19488ecfa6" y="315"/>
      </g>
     </g>
    </g>
    <g id="xtick_17">
     <g id="line2d_17">
      <g>
       <use style="stroke:#000000;stroke-width:0.6;" x="140.237942" xlink:href="#m19488ecfa6" y="315"/>
      </g>
     </g>
    </g>
    <g id="xtick_18">
     <g id="line2d_18">
      <g>
       <use style="stroke:#000000;stroke-width:0.6;" x="152.797428" xlink:href="#m19488ecfa6" y="315"/>
      </g>
     </g>
    </g>
    <g id="xtick_19">
     <g id="line2d_19">
      <g>
       <use style="stroke:#000000;stroke-width:0.6;" x="165.356913" xlink:href="#m19488ecfa6" y="315"/>
      </g>
     </g>
    </g>
    <g id="xtick_20">
     <g id="line2d_20">
      <g>
       <use style="stroke:#000000;stroke-width:0.6;" x="177.916399" xlink:href="#m19488ecfa6" y="315"/>
      </g>
     </g>
    </g>
    <g id="xtick_21">
     <g id="line2d_21">
      <g>
       <use style="stroke:#000000;stroke-width:0.6;" x="190.475884" xlink:href="#m19488ecfa6" y="315"/>
      </g>
     </g>
    </g>
    <g id="xtick_22">
     <g id="line2d_22">
      <g>
       <use style="stroke:#000000;stroke-width:0.6;" x="215.594855" xlink:href="#m19488ecfa6" y="315"/>
      </g>
     </g>
    </g>
    <g id="xtick_23">
     <g id="line2d_23">
      <g>
       <use style="stroke:#000000;stroke-width:0.6;" x="228.154341" xlink:href="#m19488ecfa6" y="315"/>
      </g>
     </g>
    </g>
    <g id="xtick_24">
     <g id="line2d_24">
      <g>
       <use style="stroke:#000000;stroke-width:0.6;" x="240.713826" xlink:href="#m19488ecfa6" y="315"/>
      </g>
     </g>
    </g>
    <g id="xtick_25">
     <g id="line2d_25">
      <g>
       <use style="stroke:#000000;stroke-width:0.6;" x="253.273312" xlink:href="#m19488ecfa6" y="315"/>
      </g>
     </g>
    </g>
    <g id="xtick_26">
     <g id="line2d_26">
      <g>
       <use style="stroke:#000000;stroke-width:0.6;" x="265.832797" xlink:href="#m19488ecfa6" y="315"/>
      </g>
     </g>
    </g>
    <g id="xtick_27">
     <g id="line2d_27">
      <g>
       <use style="stroke:#000000;stroke-width:0.6;" x="278.392283" xlink:href="#m19488ecfa6" y="315"/>
      </g>
     </g>
    </g>
    <g id="xtick_28">
     <g id="line2d_28">
      <g>
       <use style="stroke:#000000;stroke-width:0.6;" x="290.951768" xlink:href="#m19488ecfa6" y="315"/>
      </g>
     </g>
    </g>
    <g id="xtick_29">
     <g id="line2d_29">
      <g>
       <use style="stroke:#000000;stroke-width:0.6;" x="303.511254" xlink:href="#m19488ecfa6" y="315"/>
      </g>
     </g>
    </g>
    <g id="xtick_30">
     <g id="line2d_30">
      <g>
       <use style="stroke:#000000;stroke-width:0.6;" x="316.07074" xlink:href="#m19488ecfa6" y="315"/>
      </g>
     </g>
    </g>
    <g id="xtick_31">
     <g id="line2d_31">
      <g>
       <use style="stroke:#000000;stroke-width:0.6;" x="328.630225" xlink:href="#m19488ecfa6" y="315"/>
      </g>
     </g>
    </g>
    <g id="xtick_32">
     <g id="line2d_32">
      <g>
       <use style="stroke:#000000;stroke-width:0.6;" x="341.189711" xlink:href="#m19488ecfa6" y="315"/>
      </g>
     </g>
    </g>
    <g id="xtick_33">
     <g id="line2d_33">
      <g>
       <use style="stroke:#000000;stroke-width:0.6;" x="353.749196" xlink:href="#m19488ecfa6" y="315"/>
      </g>
     </g>
    </g>
    <g id="xtick_34">
     <g id="line2d_34">
      <g>
       <use style="stroke:#000000;stroke-width:0.6;" x="366.308682" xlink:href="#m19488ecfa6" y="315"/>
      </g>
     </g>
    </g>
    <g id="xtick_35">
     <g id="line2d_35">
      <g>
       <use style="stroke:#000000;stroke-width:0.6;" x="378.868167" xlink:href="#m19488ecfa6" y="315"/>
      </g>
     </g>
    </g>
    <g id="xtick_36">
     <g id="line2d_36">
      <g>
       <use style="stroke:#000000;stroke-width:0.6;" x="391.427653" xlink:href="#m19488ecfa6" y="315"/>
      </g>
     </g>
    </g>
    <g id="xtick_37">
     <g id="line2d_37">
      <g>
       <use style="stroke:#000000;stroke-width:0.6;" x="403.987138" xlink:href="#m19488ecfa6" y="315"/>
      </g>
     </g>
    </g>
    <g id="xtick_38">
     <g id="line2d_38">
      <g>
       <use style="stroke:#000000;stroke-width:0.6;" x="416.546624" xlink:href="#m19488ecfa6" y="315"/>
      </g>
     </g>
    </g>
    <g id="xtick_39">
     <g id="line2d_39">
      <g>
       <use style="stroke:#000000;stroke-width:0.6;" x="429.106109" xlink:href="#m19488ecfa6" y="315"/>
      </g>
     </g>
    </g>
    <g id="xtick_40">
     <g id="line2d_40">
      <g>
       <use style="stroke:#000000;stroke-width:0.6;" x="441.665595" xlink:href="#m19488ecfa6" y="315"/>
      </g>
     </g>
    </g>
    <g id="xtick_41">
     <g id="line2d_41">
      <g>
       <use style="stroke:#000000;stroke-width:0.6;" x="454.22508" xlink:href="#m19488ecfa6" y="315"/>
      </g>
     </g>
    </g>
    <g id="xtick_42">
     <g id="line2d_42">
      <g>
       <use style="stroke:#000000;stroke-width:0.6;" x="466.784566" xlink:href="#m19488ecfa6" y="315"/>
      </g>
     </g>
    </g>
    <g id="xtick_43">
     <g id="line2d_43">
      <g>
       <use style="stroke:#000000;stroke-width:0.6;" x="479.344051" xlink:href="#m19488ecfa6" y="315"/>
      </g>
     </g>
    </g>
    <g id="xtick_44">
     <g id="line2d_44">
      <g>
       <use style="stroke:#000000;stroke-width:0.6;" x="491.903537" xlink:href="#m19488ecfa6" y="315"/>
      </g>
     </g>
    </g>
    <g id="xtick_45">
     <g id="line2d_45">
      <g>
       <use style="stroke:#000000;stroke-width:0.6;" x="504.463023" xlink:href="#m19488ecfa6" y="315"/>
      </g>
     </g>
    </g>
    <g id="xtick_46">
     <g id="line2d_46">
      <g>
       <use style="stroke:#000000;stroke-width:0.6;" x="517.022508" xlink:href="#m19488ecfa6" y="315"/>
      </g>
     </g>
    </g>
    <g id="xtick_47">
     <g id="line2d_47">
      <g>
       <use style="stroke:#000000;stroke-width:0.6;" x="529.581994" xlink:href="#m19488ecfa6" y="315"/>
      </g>
     </g>
    </g>
    <g id="xtick_48">
     <g id="line2d_48">
      <g>
       <use style="stroke:#000000;stroke-width:0.6;" x="542.141479" xlink:href="#m19488ecfa6" y="315"/>
      </g>
     </g>
    </g>
    <g id="xtick_49">
     <g id="line2d_49">
      <g>
       <use style="stroke:#000000;stroke-width:0.6;" x="554.700965" xlink:href="#m19488ecfa6" y="315"/>
      </g>
     </g>
    </g>
    <g id="xtick_50">
     <g id="line2d_50">
      <g>
       <use style="stroke:#000000;stroke-width:0.6;" x="567.26045" xlink:href="#m19488ecfa6" y="315"/>
      </g>
     </g>
    </g>
    <g id="xtick_51">
     <g id="line2d_51">
      <g>
       <use style="stroke:#000000;stroke-width:0.6;" x="579.819936" xlink:href="#m19488ecfa6" y="315"/>
      </g>
     </g>
    </g>
    <g id="xtick_52">
     <g id="line2d_52">
      <g>
       <use style="stroke:#000000;stroke-width:0.6;" x="592.379421" xlink:href="#m19488ecfa6" y="315"/>
      </g>
     </g>
    </g>
    <g id="xtick_53">
     <g id="line2d_53">
      <g>
       <use style="stroke:#000000;stroke-width:0.6;" x="604.938907" xlink:href="#m19488ecfa6" y="315"/>
      </g>
     </g>
    </g>
    <g id="xtick_54">
     <g id="line2d_54">
      <g>
       <use style="stroke:#000000;stroke-width:0.6;" x="617.498392" xlink:href="#m19488ecfa6" y="315"/>
      </g>
     </g>
    </g>
    <g id="xtick_55">
     <g id="line2d_55">
      <g>
       <use style="stroke:#000000;stroke-width:0.6;" x="630.057878" xlink:href="#m19488ecfa6" y="315"/>
      </g>
     </g>
    </g>
    <g id="text_12">
     <!-- date -->
     <g transform="translate(357.725 354.474375)scale(0.1 -0.1)">
      <defs>
       <path d="M 45.40625 46.390625 
L 45.40625 75.984375 
L 54.390625 75.984375 
L 54.390625 0 
L 45.40625 0 
L 45.40625 8.203125 
Q 42.578125 3.328125 38.25 0.953125 
Q 33.9375 -1.421875 27.875 -1.421875 
Q 17.96875 -1.421875 11.734375 6.484375 
Q 5.515625 14.40625 5.515625 27.296875 
Q 5.515625 40.1875 11.734375 48.09375 
Q 17.96875 56 27.875 56 
Q 33.9375 56 38.25 53.625 
Q 42.578125 51.265625 45.40625 46.390625 
z
M 14.796875 27.296875 
Q 14.796875 17.390625 18.875 11.75 
Q 22.953125 6.109375 30.078125 6.109375 
Q 37.203125 6.109375 41.296875 11.75 
Q 45.40625 17.390625 45.40625 27.296875 
Q 45.40625 37.203125 41.296875 42.84375 
Q 37.203125 48.484375 30.078125 48.484375 
Q 22.953125 48.484375 18.875 42.84375 
Q 14.796875 37.203125 14.796875 27.296875 
z
" id="DejaVuSans-100"/>
      </defs>
      <use xlink:href="#DejaVuSans-100"/>
      <use x="63.476562" xlink:href="#DejaVuSans-97"/>
      <use x="124.755859" xlink:href="#DejaVuSans-116"/>
      <use x="163.964844" xlink:href="#DejaVuSans-101"/>
     </g>
    </g>
   </g>
   <g id="matplotlib.axis_2">
    <g id="ytick_1">
     <g id="line2d_56">
      <path clip-path="url(#pcea1eeae2e)" d="M 90 293.927607 
L 648 293.927607 
" style="fill:none;stroke:#b0b0b0;stroke-dasharray:0.8,1.32;stroke-dashoffset:0;stroke-width:0.8;"/>
     </g>
     <g id="line2d_57">
      <defs>
       <path d="M 0 0 
L -3.5 0 
" id="m428fd01753" style="stroke:#000000;stroke-width:0.8;"/>
      </defs>
      <g>
       <use style="stroke:#000000;stroke-width:0.8;" x="90" xlink:href="#m428fd01753" y="293.927607"/>
      </g>
     </g>
     <g id="text_13">
      <!-- 0.4 -->
      <g transform="translate(67.096875 297.726825)scale(0.1 -0.1)">
       <defs>
        <path d="M 10.6875 12.40625 
L 21 12.40625 
L 21 0 
L 10.6875 0 
z
" id="DejaVuSans-46"/>
        <path d="M 37.796875 64.3125 
L 12.890625 25.390625 
L 37.796875 25.390625 
z
M 35.203125 72.90625 
L 47.609375 72.90625 
L 47.609375 25.390625 
L 58.015625 25.390625 
L 58.015625 17.1875 
L 47.609375 17.1875 
L 47.609375 0 
L 37.796875 0 
L 37.796875 17.1875 
L 4.890625 17.1875 
L 4.890625 26.703125 
z
" id="DejaVuSans-52"/>
       </defs>
       <use xlink:href="#DejaVuSans-48"/>
       <use x="63.623047" xlink:href="#DejaVuSans-46"/>
       <use x="95.410156" xlink:href="#DejaVuSans-52"/>
      </g>
     </g>
    </g>
    <g id="ytick_2">
     <g id="line2d_58">
      <path clip-path="url(#pcea1eeae2e)" d="M 90 262.426121 
L 648 262.426121 
" style="fill:none;stroke:#b0b0b0;stroke-dasharray:0.8,1.32;stroke-dashoffset:0;stroke-width:0.8;"/>
     </g>
     <g id="line2d_59">
      <g>
       <use style="stroke:#000000;stroke-width:0.8;" x="90" xlink:href="#m428fd01753" y="262.426121"/>
      </g>
     </g>
     <g id="text_14">
      <!-- 0.6 -->
      <g transform="translate(67.096875 266.22534)scale(0.1 -0.1)">
       <defs>
        <path d="M 33.015625 40.375 
Q 26.375 40.375 22.484375 35.828125 
Q 18.609375 31.296875 18.609375 23.390625 
Q 18.609375 15.53125 22.484375 10.953125 
Q 26.375 6.390625 33.015625 6.390625 
Q 39.65625 6.390625 43.53125 10.953125 
Q 47.40625 15.53125 47.40625 23.390625 
Q 47.40625 31.296875 43.53125 35.828125 
Q 39.65625 40.375 33.015625 40.375 
z
M 52.59375 71.296875 
L 52.59375 62.3125 
Q 48.875 64.0625 45.09375 64.984375 
Q 41.3125 65.921875 37.59375 65.921875 
Q 27.828125 65.921875 22.671875 59.328125 
Q 17.53125 52.734375 16.796875 39.40625 
Q 19.671875 43.65625 24.015625 45.921875 
Q 28.375 48.1875 33.59375 48.1875 
Q 44.578125 48.1875 50.953125 41.515625 
Q 57.328125 34.859375 57.328125 23.390625 
Q 57.328125 12.15625 50.6875 5.359375 
Q 44.046875 -1.421875 33.015625 -1.421875 
Q 20.359375 -1.421875 13.671875 8.265625 
Q 6.984375 17.96875 6.984375 36.375 
Q 6.984375 53.65625 15.1875 63.9375 
Q 23.390625 74.21875 37.203125 74.21875 
Q 40.921875 74.21875 44.703125 73.484375 
Q 48.484375 72.75 52.59375 71.296875 
z
" id="DejaVuSans-54"/>
       </defs>
       <use xlink:href="#DejaVuSans-48"/>
       <use x="63.623047" xlink:href="#DejaVuSans-46"/>
       <use x="95.410156" xlink:href="#DejaVuSans-54"/>
      </g>
     </g>
    </g>
    <g id="ytick_3">
     <g id="line2d_60">
      <path clip-path="url(#pcea1eeae2e)" d="M 90 230.924636 
L 648 230.924636 
" style="fill:none;stroke:#b0b0b0;stroke-dasharray:0.8,1.32;stroke-dashoffset:0;stroke-width:0.8;"/>
     </g>
     <g id="line2d_61">
      <g>
       <use style="stroke:#000000;stroke-width:0.8;" x="90" xlink:href="#m428fd01753" y="230.924636"/>
      </g>
     </g>
     <g id="text_15">
      <!-- 0.8 -->
      <g transform="translate(67.096875 234.723854)scale(0.1 -0.1)">
       <defs>
        <path d="M 31.78125 34.625 
Q 24.75 34.625 20.71875 30.859375 
Q 16.703125 27.09375 16.703125 20.515625 
Q 16.703125 13.921875 20.71875 10.15625 
Q 24.75 6.390625 31.78125 6.390625 
Q 38.8125 6.390625 42.859375 10.171875 
Q 46.921875 13.96875 46.921875 20.515625 
Q 46.921875 27.09375 42.890625 30.859375 
Q 38.875 34.625 31.78125 34.625 
z
M 21.921875 38.8125 
Q 15.578125 40.375 12.03125 44.71875 
Q 8.5 49.078125 8.5 55.328125 
Q 8.5 64.0625 14.71875 69.140625 
Q 20.953125 74.21875 31.78125 74.21875 
Q 42.671875 74.21875 48.875 69.140625 
Q 55.078125 64.0625 55.078125 55.328125 
Q 55.078125 49.078125 51.53125 44.71875 
Q 48 40.375 41.703125 38.8125 
Q 48.828125 37.15625 52.796875 32.3125 
Q 56.78125 27.484375 56.78125 20.515625 
Q 56.78125 9.90625 50.3125 4.234375 
Q 43.84375 -1.421875 31.78125 -1.421875 
Q 19.734375 -1.421875 13.25 4.234375 
Q 6.78125 9.90625 6.78125 20.515625 
Q 6.78125 27.484375 10.78125 32.3125 
Q 14.796875 37.15625 21.921875 38.8125 
z
M 18.3125 54.390625 
Q 18.3125 48.734375 21.84375 45.5625 
Q 25.390625 42.390625 31.78125 42.390625 
Q 38.140625 42.390625 41.71875 45.5625 
Q 45.3125 48.734375 45.3125 54.390625 
Q 45.3125 60.0625 41.71875 63.234375 
Q 38.140625 66.40625 31.78125 66.40625 
Q 25.390625 66.40625 21.84375 63.234375 
Q 18.3125 60.0625 18.3125 54.390625 
z
" id="DejaVuSans-56"/>
       </defs>
       <use xlink:href="#DejaVuSans-48"/>
       <use x="63.623047" xlink:href="#DejaVuSans-46"/>
       <use x="95.410156" xlink:href="#DejaVuSans-56"/>
      </g>
     </g>
    </g>
    <g id="ytick_4">
     <g id="line2d_62">
      <path clip-path="url(#pcea1eeae2e)" d="M 90 199.42315 
L 648 199.42315 
" style="fill:none;stroke:#b0b0b0;stroke-dasharray:0.8,1.32;stroke-dashoffset:0;stroke-width:0.8;"/>
     </g>
     <g id="line2d_63">
      <g>
       <use style="stroke:#000000;stroke-width:0.8;" x="90" xlink:href="#m428fd01753" y="199.42315"/>
      </g>
     </g>
     <g id="text_16">
      <!-- 1.0 -->
      <g transform="translate(67.096875 203.222369)scale(0.1 -0.1)">
       <use xlink:href="#DejaVuSans-49"/>
       <use x="63.623047" xlink:href="#DejaVuSans-46"/>
       <use x="95.410156" xlink:href="#DejaVuSans-48"/>
      </g>
     </g>
    </g>
    <g id="ytick_5">
     <g id="line2d_64">
      <path clip-path="url(#pcea1eeae2e)" d="M 90 167.921665 
L 648 167.921665 
" style="fill:none;stroke:#b0b0b0;stroke-dasharray:0.8,1.32;stroke-dashoffset:0;stroke-width:0.8;"/>
     </g>
     <g id="line2d_65">
      <g>
       <use style="stroke:#000000;stroke-width:0.8;" x="90" xlink:href="#m428fd01753" y="167.921665"/>
      </g>
     </g>
     <g id="text_17">
      <!-- 1.2 -->
      <g transform="translate(67.096875 171.720884)scale(0.1 -0.1)">
       <use xlink:href="#DejaVuSans-49"/>
       <use x="63.623047" xlink:href="#DejaVuSans-46"/>
       <use x="95.410156" xlink:href="#DejaVuSans-50"/>
      </g>
     </g>
    </g>
    <g id="ytick_6">
     <g id="line2d_66">
      <path clip-path="url(#pcea1eeae2e)" d="M 90 136.420179 
L 648 136.420179 
" style="fill:none;stroke:#b0b0b0;stroke-dasharray:0.8,1.32;stroke-dashoffset:0;stroke-width:0.8;"/>
     </g>
     <g id="line2d_67">
      <g>
       <use style="stroke:#000000;stroke-width:0.8;" x="90" xlink:href="#m428fd01753" y="136.420179"/>
      </g>
     </g>
     <g id="text_18">
      <!-- 1.4 -->
      <g transform="translate(67.096875 140.219398)scale(0.1 -0.1)">
       <use xlink:href="#DejaVuSans-49"/>
       <use x="63.623047" xlink:href="#DejaVuSans-46"/>
       <use x="95.410156" xlink:href="#DejaVuSans-52"/>
      </g>
     </g>
    </g>
    <g id="ytick_7">
     <g id="line2d_68">
      <path clip-path="url(#pcea1eeae2e)" d="M 90 104.918694 
L 648 104.918694 
" style="fill:none;stroke:#b0b0b0;stroke-dasharray:0.8,1.32;stroke-dashoffset:0;stroke-width:0.8;"/>
     </g>
     <g id="line2d_69">
      <g>
       <use style="stroke:#000000;stroke-width:0.8;" x="90" xlink:href="#m428fd01753" y="104.918694"/>
      </g>
     </g>
     <g id="text_19">
      <!-- 1.6 -->
      <g transform="translate(67.096875 108.717913)scale(0.1 -0.1)">
       <use xlink:href="#DejaVuSans-49"/>
       <use x="63.623047" xlink:href="#DejaVuSans-46"/>
       <use x="95.410156" xlink:href="#DejaVuSans-54"/>
      </g>
     </g>
    </g>
    <g id="ytick_8">
     <g id="line2d_70">
      <path clip-path="url(#pcea1eeae2e)" d="M 90 73.417209 
L 648 73.417209 
" style="fill:none;stroke:#b0b0b0;stroke-dasharray:0.8,1.32;stroke-dashoffset:0;stroke-width:0.8;"/>
     </g>
     <g id="line2d_71">
      <g>
       <use style="stroke:#000000;stroke-width:0.8;" x="90" xlink:href="#m428fd01753" y="73.417209"/>
      </g>
     </g>
     <g id="text_20">
      <!-- 1.8 -->
      <g transform="translate(67.096875 77.216427)scale(0.1 -0.1)">
       <use xlink:href="#DejaVuSans-49"/>
       <use x="63.623047" xlink:href="#DejaVuSans-46"/>
       <use x="95.410156" xlink:href="#DejaVuSans-56"/>
      </g>
     </g>
    </g>
   </g>
   <g id="line2d_72">
    <path clip-path="url(#pcea1eeae2e)" d="M 90 275.623917 
L 91.794212 274.773399 
L 93.588424 274.706655 
L 95.382637 274.410276 
L 97.176849 273.490746 
L 98.971061 272.008743 
L 100.765273 272.039088 
L 102.559486 269.402313 
L 104.353698 268.449334 
L 106.14791 266.632441 
L 107.942122 265.117526 
L 109.736334 262.937076 
L 113.324759 259.034974 
L 115.118971 256.367119 
L 118.707395 251.616706 
L 127.678457 237.441623 
L 129.472669 233.604285 
L 131.266881 230.251465 
L 133.061093 227.681066 
L 134.855305 223.593989 
L 136.649518 220.508528 
L 138.44373 216.303104 
L 140.237942 212.557678 
L 142.032154 207.292126 
L 143.826367 203.700331 
L 145.620579 199.382881 
L 147.414791 193.535339 
L 149.209003 189.182294 
L 151.003215 183.851132 
L 152.797428 179.529935 
L 154.59164 173.682918 
L 156.385852 168.74853 
L 158.180064 163.234464 
L 159.974277 155.427787 
L 161.768489 151.713787 
L 163.562701 144.389707 
L 165.356913 141.107053 
L 167.151125 134.455894 
L 168.945338 132.180927 
L 170.73955 126.880968 
L 172.533762 123.333288 
L 174.327974 117.959953 
L 176.122186 115.651531 
L 177.916399 112.417662 
L 179.710611 107.124035 
L 181.504823 103.826691 
L 183.299035 102.804629 
L 185.093248 103.14 
L 186.88746 105.085001 
L 188.681672 107.41557 
L 190.475884 108.140194 
L 192.270096 111.910812 
L 194.064309 114.368782 
L 195.858521 118.042082 
L 197.652733 122.848412 
L 199.446945 126.185192 
L 201.241158 130.48371 
L 203.03537 133.351985 
L 204.829582 135.428038 
L 206.623794 141.205207 
L 208.418006 142.346004 
L 210.212219 146.351191 
L 212.006431 148.356616 
L 213.800643 149.051641 
L 215.594855 152.002312 
L 217.389068 151.357718 
L 219.18328 151.942613 
L 220.977492 152.318004 
L 222.771704 151.41569 
L 224.565916 150.330929 
L 226.360129 151.063851 
L 228.154341 148.111573 
L 229.948553 147.212605 
L 231.742765 143.632136 
L 233.536977 142.112383 
L 235.33119 140.015984 
L 238.919614 133.968195 
L 240.713826 131.317204 
L 242.508039 130.291066 
L 244.302251 127.990408 
L 246.096463 127.280904 
L 247.890675 126.081703 
L 249.684887 127.579465 
L 253.273312 131.562909 
L 255.067524 136.308341 
L 256.861736 142.454532 
L 258.655949 147.804107 
L 260.450161 155.115808 
L 265.832797 176.058877 
L 267.62701 183.36283 
L 269.421222 191.833296 
L 271.215434 198.612012 
L 273.009646 206.040475 
L 274.803859 212.74621 
L 276.598071 218.466491 
L 278.392283 224.761492 
L 280.186495 230.083368 
L 281.980707 233.99262 
L 283.77492 237.118669 
L 287.363344 242.788362 
L 289.157556 244.119235 
L 290.951768 245.883912 
L 292.745981 246.753123 
L 294.540193 246.674316 
L 296.334405 247.077021 
L 298.128617 245.959769 
L 299.92283 245.436248 
L 303.511254 242.420267 
L 307.099678 238.824188 
L 308.893891 236.631368 
L 310.688103 232.022299 
L 312.482315 230.313573 
L 314.276527 227.223515 
L 316.07074 222.652566 
L 317.864952 218.935009 
L 319.659164 213.649494 
L 323.247588 200.974359 
L 326.836013 188.512787 
L 328.630225 180.405105 
L 330.424437 172.870429 
L 332.21865 165.872312 
L 334.012862 156.622476 
L 337.601286 140.350882 
L 339.395498 133.721971 
L 341.189711 126.148803 
L 342.983923 119.085879 
L 344.778135 114.449673 
L 346.572347 110.799246 
L 348.366559 109.868449 
L 350.160772 109.546043 
L 351.954984 110.76526 
L 353.749196 113.861218 
L 355.543408 119.327428 
L 357.337621 123.147626 
L 359.131833 128.543313 
L 360.926045 134.797088 
L 362.720257 142.592153 
L 366.308682 155.188692 
L 368.102894 160.419502 
L 371.691318 174.045208 
L 373.485531 179.00532 
L 377.073955 190.0846 
L 378.868167 194.965696 
L 382.456592 206.617478 
L 386.045016 216.505123 
L 387.839228 221.259535 
L 389.633441 225.35176 
L 391.427653 230.93425 
L 393.221865 235.949733 
L 395.016077 240.38331 
L 396.810289 243.934013 
L 400.398714 250.584977 
L 402.192926 253.303438 
L 403.987138 255.084331 
L 405.78135 257.332946 
L 407.575563 259.903578 
L 411.163987 262.798856 
L 416.546624 265.583023 
L 418.340836 265.824836 
L 420.135048 265.511281 
L 421.92926 265.756933 
L 423.723473 264.63636 
L 425.517685 264.20013 
L 430.900322 260.246223 
L 434.488746 254.714044 
L 436.282958 252.191535 
L 438.07717 249.093809 
L 439.871383 245.491215 
L 441.665595 241.220036 
L 443.459807 237.914846 
L 448.842444 226.90372 
L 450.636656 222.59037 
L 452.430868 219.251471 
L 454.22508 215.114835 
L 457.813505 205.568354 
L 459.607717 201.877809 
L 461.401929 197.038589 
L 463.196141 193.265672 
L 464.990354 188.239139 
L 468.578778 180.935247 
L 470.37299 176.643338 
L 472.167203 174.335489 
L 473.961415 170.959939 
L 477.549839 163.446848 
L 479.344051 161.57799 
L 481.138264 159.472066 
L 482.932476 158.817323 
L 484.726688 157.804654 
L 488.315113 158.604403 
L 490.109325 160.659858 
L 491.903537 162.163132 
L 495.491961 166.866899 
L 499.080386 172.506989 
L 502.66881 180.270254 
L 504.463023 182.381064 
L 509.845659 189.823109 
L 511.639871 191.498522 
L 513.434084 193.559405 
L 515.228296 196.004396 
L 517.022508 196.931066 
L 518.81672 198.618468 
L 520.610932 198.453779 
L 522.405145 197.276325 
L 524.199357 196.724334 
L 527.787781 193.570795 
L 529.581994 190.45393 
L 531.376206 186.795254 
L 533.170418 183.463991 
L 534.96463 177.904923 
L 536.758842 174.24809 
L 538.553055 168.937884 
L 540.347267 163.172429 
L 542.141479 157.999006 
L 545.729904 146.549243 
L 547.524116 140.367415 
L 549.318328 133.482698 
L 551.11254 131.252247 
L 552.906752 126.713088 
L 554.700965 124.639042 
L 556.495177 123.284498 
L 558.289389 122.865489 
L 560.083601 123.345026 
L 561.877814 125.072673 
L 563.672026 127.763201 
L 565.466238 132.404395 
L 567.26045 136.046744 
L 569.054662 141.950641 
L 572.643087 156.24041 
L 574.437299 161.359279 
L 576.231511 167.831497 
L 579.819936 176.133829 
L 581.614148 181.187004 
L 583.40836 183.78892 
L 585.202572 186.93249 
L 586.996785 187.717435 
L 588.790997 189.103351 
L 590.585209 189.058847 
L 592.379421 188.046405 
L 594.173633 187.965513 
L 595.967846 185.738576 
L 597.762058 184.028239 
L 599.55627 182.679976 
L 601.350482 179.16849 
L 603.144695 176.874841 
L 604.938907 175.041177 
L 606.733119 172.858587 
L 608.527331 170.199145 
L 610.321543 168.009636 
L 612.115756 167.063966 
L 613.909968 165.227991 
L 615.70418 165.96435 
L 617.498392 165.852756 
L 619.292605 165.329327 
L 621.086817 165.95691 
L 622.881029 167.47891 
L 624.675241 169.434979 
L 626.469453 171.71588 
L 628.263666 172.610717 
L 630.057878 176.049836 
L 631.85209 177.282353 
L 633.646302 177.743542 
L 635.440514 180.186496 
L 637.234727 182.077897 
L 639.028939 183.788241 
L 640.823151 185.318852 
L 642.617363 184.867947 
L 644.411576 185.335889 
L 646.205788 185.029249 
L 648 185.49541 
L 649.794212 185.21308 
L 651.588424 186.907288 
L 653.382637 185.500353 
L 655.176849 186.502286 
L 656.971061 186.61802 
L 658.765273 188.065628 
L 660.559486 185.471612 
L 662.353698 188.824267 
L 662.353698 188.824267 
" style="fill:none;stroke:#fc997a;stroke-linecap:square;stroke-width:1.5;"/>
   </g>
   <g id="line2d_73">
    <path clip-path="url(#pcea1eeae2e)" d="M 90 199.42315 
L 648 199.42315 
" style="fill:none;stroke:#000000;stroke-dasharray:3.7,1.6;stroke-dashoffset:0;"/>
   </g>
   <g id="patch_3">
    <path d="M 90 315 
L 90 43.2 
" style="fill:none;stroke:#000000;stroke-linecap:square;stroke-linejoin:miter;stroke-width:0.8;"/>
   </g>
   <g id="patch_4">
    <path d="M 648 315 
L 648 43.2 
" style="fill:none;stroke:#000000;stroke-linecap:square;stroke-linejoin:miter;stroke-width:0.8;"/>
   </g>
   <g id="patch_5">
    <path d="M 90 315 
L 648 315 
" style="fill:none;stroke:#000000;stroke-linecap:square;stroke-linejoin:miter;stroke-width:0.8;"/>
   </g>
   <g id="patch_6">
    <path d="M 90 43.2 
L 648 43.2 
" style="fill:none;stroke:#000000;stroke-linecap:square;stroke-linejoin:miter;stroke-width:0.8;"/>
   </g>
   <g id="text_21">
    <!-- 625  $R_t$ -->
    <g transform="translate(329.28 37.2)scale(0.12 -0.12)">
     <defs>
      <path d="M 10.796875 72.90625 
L 49.515625 72.90625 
L 49.515625 64.59375 
L 19.828125 64.59375 
L 19.828125 46.734375 
Q 21.96875 47.46875 24.109375 47.828125 
Q 26.265625 48.1875 28.421875 48.1875 
Q 40.625 48.1875 47.75 41.5 
Q 54.890625 34.8125 54.890625 23.390625 
Q 54.890625 11.625 47.5625 5.09375 
Q 40.234375 -1.421875 26.90625 -1.421875 
Q 22.3125 -1.421875 17.546875 -0.640625 
Q 12.796875 0.140625 7.71875 1.703125 
L 7.71875 11.625 
Q 12.109375 9.234375 16.796875 8.0625 
Q 21.484375 6.890625 26.703125 6.890625 
Q 35.15625 6.890625 40.078125 11.328125 
Q 45.015625 15.765625 45.015625 23.390625 
Q 45.015625 31 40.078125 35.4375 
Q 35.15625 39.890625 26.703125 39.890625 
Q 22.75 39.890625 18.8125 39.015625 
Q 14.890625 38.140625 10.796875 36.28125 
z
" id="DejaVuSans-53"/>
      <path id="DejaVuSans-32"/>
      <path d="M 19.140625 33.40625 
L 19.140625 0 
L 10.109375 0 
L 10.109375 29.6875 
z
M 56.25 27.828125 
L 56.25 0 
L 47.21875 0 
L 47.21875 29.6875 
Q 47.21875 40.234375 44.0625 43.96875 
Q 40.921875 47.703125 31.84375 47.703125 
L 9.078125 47.703125 
L 9.078125 54.6875 
L 31.734375 54.6875 
Q 45.265625 54.6875 50.75 48.578125 
Q 56.25 42.484375 56.25 27.828125 
z
" id="DejaVuSans-1492"/>
      <path d="M 36.328125 6.984375 
L 36.328125 29.59375 
Q 36.328125 33.25 36.0625 35.671875 
Q 35.796875 38.09375 34.859375 40.578125 
Q 33.9375 43.0625 32.25 44.484375 
Q 30.5625 45.90625 27.609375 46.796875 
Q 24.65625 47.703125 20.40625 47.703125 
L 4.296875 47.703125 
L 4.296875 54.6875 
L 20.40625 54.6875 
Q 26.421875 54.6875 30.734375 53.5625 
Q 35.0625 52.4375 37.890625 50.359375 
Q 40.71875 48.296875 42.40625 44.890625 
Q 44.09375 41.5 44.75 37.453125 
Q 45.40625 33.40625 45.40625 27.828125 
L 45.40625 6.984375 
L 53.515625 6.984375 
L 53.515625 0 
L 4.296875 0 
L 4.296875 6.984375 
z
" id="DejaVuSans-1489"/>
      <path d="M 47.359375 27.828125 
L 47.359375 0 
L 38.28125 0 
L 38.28125 27.828125 
Q 38.28125 31.390625 37.765625 34.265625 
Q 37.25 37.15625 36 39.71875 
Q 34.765625 42.28125 32.8125 43.984375 
Q 30.859375 45.703125 27.78125 46.703125 
Q 24.703125 47.703125 20.703125 47.703125 
L 4.296875 47.703125 
L 4.296875 54.6875 
L 20.65625 54.6875 
Q 26.8125 54.6875 31.46875 53.390625 
Q 36.140625 52.09375 39.109375 49.828125 
Q 42.09375 47.5625 43.96875 44.109375 
Q 45.84375 40.671875 46.59375 36.734375 
Q 47.359375 32.8125 47.359375 27.828125 
z
" id="DejaVuSans-1512"/>
      <path d="M 44.140625 40.828125 
L 44.140625 54.6875 
L 53.515625 54.6875 
L 53.515625 40.828125 
Q 53.515625 35.0625 53.046875 30.71875 
Q 52.59375 26.375 51.390625 22.09375 
Q 50.203125 17.828125 48.046875 14.5 
Q 45.90625 11.1875 42.578125 8.078125 
Q 39.265625 4.984375 34.515625 2.390625 
Q 29.78125 -0.203125 23.4375 -2.484375 
L 4.6875 -9.28125 
L 4.6875 -1.03125 
L 18.953125 4.046875 
L 4.296875 54.6875 
L 13.765625 54.6875 
L 27.25 7.125 
Q 33.6875 9.90625 37.203125 13.5625 
Q 40.71875 17.234375 42.421875 23.671875 
Q 44.140625 30.125 44.140625 40.828125 
z
" id="DejaVuSans-1506"/>
      <path d="M 25.203125 64.796875 
L 20.21875 38.921875 
L 32.90625 38.921875 
Q 40.375 38.921875 44.984375 43.046875 
Q 49.609375 47.171875 49.609375 53.8125 
Q 49.609375 59.125 46.5 61.953125 
Q 43.40625 64.796875 37.59375 64.796875 
z
M 43.3125 35.015625 
Q 46.4375 34.28125 48.515625 31.390625 
Q 50.59375 28.515625 53.328125 19.921875 
L 59.515625 0 
L 49.125 0 
L 43.40625 18.703125 
Q 41.21875 25.921875 38.328125 28.359375 
Q 35.453125 30.8125 29.5 30.8125 
L 18.609375 30.8125 
L 12.59375 0 
L 2.6875 0 
L 16.890625 72.90625 
L 39.109375 72.90625 
Q 49.21875 72.90625 54.609375 68.328125 
Q 60.015625 63.765625 60.015625 55.171875 
Q 60.015625 47.5625 55.421875 41.984375 
Q 50.828125 36.421875 43.3125 35.015625 
z
" id="DejaVuSans-Oblique-82"/>
      <path d="M 42.28125 54.6875 
L 40.921875 47.703125 
L 23 47.703125 
L 17.1875 18.015625 
Q 16.890625 16.359375 16.75 15.234375 
Q 16.609375 14.109375 16.609375 13.484375 
Q 16.609375 10.359375 18.484375 8.9375 
Q 20.359375 7.515625 24.515625 7.515625 
L 33.59375 7.515625 
L 32.078125 0 
L 23.484375 0 
Q 15.484375 0 11.546875 3.125 
Q 7.625 6.25 7.625 12.59375 
Q 7.625 13.71875 7.765625 15.0625 
Q 7.90625 16.40625 8.203125 18.015625 
L 14.015625 47.703125 
L 6.390625 47.703125 
L 7.8125 54.6875 
L 15.28125 54.6875 
L 18.3125 70.21875 
L 27.296875 70.21875 
L 24.3125 54.6875 
z
" id="DejaVuSans-Oblique-116"/>
     </defs>
     <use transform="translate(0 0.78125)" xlink:href="#DejaVuSans-54"/>
     <use transform="translate(63.623047 0.78125)" xlink:href="#DejaVuSans-50"/>
     <use transform="translate(127.246094 0.78125)" xlink:href="#DejaVuSans-53"/>
     <use transform="translate(190.869141 0.78125)" xlink:href="#DejaVuSans-32"/>
     <use transform="translate(222.65625 0.78125)" xlink:href="#DejaVuSans-1492"/>
     <use transform="translate(287.988281 0.78125)" xlink:href="#DejaVuSans-1489"/>
     <use transform="translate(345.800781 0.78125)" xlink:href="#DejaVuSans-1512"/>
     <use transform="translate(402.246094 0.78125)" xlink:href="#DejaVuSans-1506"/>
     <use transform="translate(464.84375 0.78125)" xlink:href="#DejaVuSans-1492"/>
     <use transform="translate(530.175781 0.78125)" xlink:href="#DejaVuSans-32"/>
     <use transform="translate(561.962891 0.78125)" xlink:href="#DejaVuSans-Oblique-82"/>
     <use transform="translate(631.445312 -15.625)scale(0.7)" xlink:href="#DejaVuSans-Oblique-116"/>
    </g>
   </g>
  </g>
 </g>
 <defs>
  <clipPath id="pcea1eeae2e">
   <rect height="271.8" width="558" x="90" y="43.2"/>
  </clipPath>
 </defs>
</svg>
