<?xml version="1.0" encoding="utf-8" standalone="no"?>
<!DOCTYPE svg PUBLIC "-//W3C//DTD SVG 1.1//EN"
  "http://www.w3.org/Graphics/SVG/1.1/DTD/svg11.dtd">
<!-- Created with matplotlib (https://matplotlib.org/) -->
<svg height="360pt" version="1.1" viewBox="0 0 720 360" width="720pt" xmlns="http://www.w3.org/2000/svg" xmlns:xlink="http://www.w3.org/1999/xlink">
 <metadata>
  <rdf:RDF xmlns:cc="http://creativecommons.org/ns#" xmlns:dc="http://purl.org/dc/elements/1.1/" xmlns:rdf="http://www.w3.org/1999/02/22-rdf-syntax-ns#">
   <cc:Work>
    <dc:type rdf:resource="http://purl.org/dc/dcmitype/StillImage"/>
    <dc:date>2021-02-21T06:13:34.098119</dc:date>
    <dc:format>image/svg+xml</dc:format>
    <dc:creator>
     <cc:Agent>
      <dc:title>Matplotlib v3.3.2, https://matplotlib.org/</dc:title>
     </cc:Agent>
    </dc:creator>
   </cc:Work>
  </rdf:RDF>
 </metadata>
 <defs>
  <style type="text/css">*{stroke-linecap:butt;stroke-linejoin:round;}</style>
 </defs>
 <g id="figure_1">
  <g id="patch_1">
   <path d="M 0 360 
L 720 360 
L 720 0 
L 0 0 
z
" style="fill:#ffffff;"/>
  </g>
  <g id="axes_1">
   <g id="patch_2">
    <path d="M 90 315 
L 648 315 
L 648 43.2 
L 90 43.2 
z
" style="fill:#ffffff;"/>
   </g>
   <g id="PolyCollection_1">
    <defs>
     <path d="M 90 -63.022013 
L 90 -101.924897 
L 91.660714 -99.413771 
L 93.321429 -97.806318 
L 94.982143 -97.451399 
L 96.642857 -98.965253 
L 98.303571 -97.956878 
L 99.964286 -97.919945 
L 101.625 -98.546777 
L 103.285714 -98.10524 
L 104.946429 -95.280836 
L 106.607143 -93.114414 
L 108.267857 -95.035419 
L 109.928571 -94.439921 
L 111.589286 -92.785297 
L 113.25 -91.245219 
L 114.910714 -90.907297 
L 116.571429 -92.36876 
L 118.232143 -91.429931 
L 119.892857 -88.80224 
L 121.553571 -87.878995 
L 123.214286 -86.272805 
L 124.875 -84.445592 
L 126.535714 -86.860835 
L 128.196429 -84.839312 
L 129.857143 -84.745739 
L 131.517857 -83.691913 
L 133.178571 -82.165011 
L 134.839286 -82.560783 
L 136.5 -82.59792 
L 138.160714 -82.592037 
L 139.821429 -82.827929 
L 141.482143 -82.81661 
L 143.142857 -86.425415 
L 144.803571 -87.456834 
L 146.464286 -88.227067 
L 148.125 -90.756389 
L 149.785714 -90.697938 
L 151.446429 -93.827855 
L 153.107143 -93.043463 
L 154.767857 -94.820701 
L 156.428571 -96.972752 
L 158.089286 -101.3619 
L 159.75 -101.991865 
L 161.410714 -103.861746 
L 163.071429 -104.579361 
L 164.732143 -108.059528 
L 166.392857 -109.331215 
L 168.053571 -115.292555 
L 169.714286 -114.936733 
L 171.375 -117.326427 
L 173.035714 -122.679596 
L 174.696429 -126.674846 
L 176.357143 -129.286402 
L 178.017857 -130.534741 
L 179.678571 -134.955928 
L 181.339286 -140.511702 
L 183 -141.355273 
L 184.660714 -150.765897 
L 186.321429 -149.958201 
L 187.982143 -157.021029 
L 189.642857 -157.947503 
L 191.303571 -162.166931 
L 192.964286 -165.991582 
L 194.625 -173.023353 
L 196.285714 -177.196403 
L 197.946429 -188.220301 
L 199.607143 -191.276947 
L 201.267857 -190.932014 
L 202.928571 -194.634119 
L 204.589286 -200.052334 
L 206.25 -208.371167 
L 207.910714 -211.492423 
L 209.571429 -217.85237 
L 211.232143 -226.223721 
L 212.892857 -225.281931 
L 214.553571 -228.804512 
L 216.214286 -232.531849 
L 217.875 -234.686637 
L 219.535714 -244.585127 
L 221.196429 -242.508388 
L 222.857143 -243.160689 
L 224.517857 -251.154779 
L 226.178571 -252.517623 
L 227.839286 -261.09779 
L 229.5 -260.595888 
L 231.160714 -265.363088 
L 232.821429 -263.970101 
L 234.482143 -263.146437 
L 236.142857 -264.507831 
L 237.803571 -267.111965 
L 239.464286 -266.914004 
L 241.125 -265.064429 
L 242.785714 -262.550722 
L 244.446429 -272.392357 
L 246.107143 -266.665546 
L 247.767857 -267.690742 
L 249.428571 -268.814023 
L 251.089286 -271.226422 
L 252.75 -269.996779 
L 254.410714 -268.403798 
L 256.071429 -279.894565 
L 257.732143 -283.253396 
L 259.392857 -286.307417 
L 261.053571 -291.225569 
L 262.714286 -290.857844 
L 264.375 -294.139399 
L 266.035714 -294.700746 
L 267.696429 -304.445455 
L 269.357143 -299.056856 
L 271.017857 -292.661704 
L 272.678571 -290.556961 
L 274.339286 -290.995569 
L 276 -291.017768 
L 277.660714 -286.56585 
L 279.321429 -281.162151 
L 280.982143 -277.25886 
L 282.642857 -265.682581 
L 284.303571 -258.991969 
L 285.964286 -249.581446 
L 287.625 -238.15033 
L 289.285714 -230.014056 
L 290.946429 -217.562682 
L 292.607143 -209.910598 
L 294.267857 -203.910131 
L 295.928571 -187.802877 
L 297.589286 -175.51308 
L 299.25 -169.051511 
L 300.910714 -162.676051 
L 302.571429 -156.790597 
L 304.232143 -150.25606 
L 305.892857 -145.944254 
L 307.553571 -145.243462 
L 309.214286 -142.669365 
L 310.875 -138.331331 
L 312.535714 -140.078413 
L 314.196429 -138.640571 
L 315.857143 -138.468404 
L 317.517857 -142.628347 
L 319.178571 -140.527801 
L 320.839286 -141.952394 
L 322.5 -143.740605 
L 324.160714 -144.789815 
L 325.821429 -144.027165 
L 327.482143 -143.452698 
L 329.142857 -146.767442 
L 330.803571 -146.632139 
L 332.464286 -147.874422 
L 334.125 -150.617797 
L 335.785714 -155.027733 
L 337.446429 -154.613054 
L 339.107143 -161.696016 
L 340.767857 -165.56648 
L 342.428571 -167.47914 
L 344.089286 -168.978067 
L 345.75 -175.822383 
L 347.410714 -179.024539 
L 349.071429 -183.950109 
L 350.732143 -182.216753 
L 352.392857 -187.742541 
L 354.053571 -188.230052 
L 355.714286 -191.393858 
L 357.375 -192.693541 
L 359.035714 -194.37721 
L 360.696429 -198.131053 
L 362.357143 -197.877951 
L 364.017857 -198.47643 
L 365.678571 -200.728865 
L 367.339286 -199.01122 
L 369 -198.269025 
L 370.660714 -200.542839 
L 372.321429 -197.012559 
L 373.982143 -194.051002 
L 375.642857 -187.835731 
L 377.303571 -181.185223 
L 378.964286 -176.033226 
L 380.625 -170.284663 
L 382.285714 -163.369759 
L 383.946429 -156.071566 
L 385.607143 -151.14016 
L 387.267857 -139.323324 
L 388.928571 -135.078988 
L 390.589286 -131.210151 
L 392.25 -123.825864 
L 393.910714 -117.656621 
L 395.571429 -115.436602 
L 397.232143 -112.351051 
L 398.892857 -107.675952 
L 400.553571 -107.327803 
L 402.214286 -104.471415 
L 403.875 -100.434007 
L 405.535714 -98.88164 
L 407.196429 -98.331818 
L 408.857143 -98.662335 
L 410.517857 -98.130295 
L 412.178571 -100.22472 
L 413.839286 -98.157526 
L 415.5 -100.152598 
L 417.160714 -102.843969 
L 418.821429 -105.195183 
L 420.482143 -109.76034 
L 422.142857 -109.985808 
L 423.803571 -115.362878 
L 425.464286 -117.73288 
L 427.125 -123.886175 
L 428.785714 -124.72003 
L 430.446429 -131.050833 
L 432.107143 -134.413796 
L 433.767857 -139.082294 
L 435.428571 -145.433564 
L 437.089286 -149.662281 
L 438.75 -155.120059 
L 440.410714 -157.495264 
L 442.071429 -159.967517 
L 443.732143 -163.957805 
L 445.392857 -170.542427 
L 447.053571 -169.961083 
L 448.714286 -169.521964 
L 450.375 -173.704858 
L 452.035714 -173.120541 
L 453.696429 -174.644763 
L 455.357143 -176.032096 
L 457.017857 -170.911099 
L 458.678571 -168.657909 
L 460.339286 -170.644964 
L 462 -168.448178 
L 463.660714 -163.769874 
L 465.321429 -163.650828 
L 466.982143 -161.735529 
L 468.642857 -163.980951 
L 470.303571 -163.306225 
L 471.964286 -160.820175 
L 473.625 -160.755273 
L 475.285714 -165.456665 
L 476.946429 -166.545433 
L 478.607143 -170.201559 
L 480.267857 -171.659671 
L 481.928571 -172.729051 
L 483.589286 -174.87513 
L 485.25 -175.581069 
L 486.910714 -175.940996 
L 488.571429 -176.767183 
L 490.232143 -180.713095 
L 491.892857 -180.451204 
L 493.553571 -179.933585 
L 495.214286 -182.037343 
L 496.875 -177.805534 
L 498.535714 -177.180529 
L 500.196429 -176.437209 
L 501.857143 -177.624689 
L 503.517857 -173.674597 
L 505.178571 -173.93521 
L 506.839286 -169.065597 
L 508.5 -169.03662 
L 510.160714 -166.004225 
L 511.821429 -164.184664 
L 513.482143 -163.077654 
L 515.142857 -160.014558 
L 516.803571 -160.334511 
L 518.464286 -157.602604 
L 520.125 -160.521525 
L 521.785714 -158.665627 
L 523.446429 -156.632492 
L 525.107143 -157.985135 
L 526.767857 -160.048108 
L 528.428571 -158.862389 
L 530.089286 -163.238094 
L 531.75 -166.27754 
L 533.410714 -165.357706 
L 535.071429 -166.50861 
L 536.732143 -167.106169 
L 538.392857 -171.400546 
L 540.053571 -171.661103 
L 541.714286 -174.457865 
L 543.375 -179.119766 
L 545.035714 -177.764226 
L 546.696429 -179.47024 
L 548.357143 -179.771122 
L 550.017857 -176.978996 
L 551.678571 -179.732683 
L 553.339286 -178.836973 
L 555 -180.874683 
L 556.660714 -179.218738 
L 558.321429 -176.937892 
L 559.982143 -177.591884 
L 561.642857 -172.49095 
L 563.303571 -172.274449 
L 564.964286 -167.762207 
L 566.625 -163.464985 
L 568.285714 -160.442895 
L 569.946429 -155.247809 
L 571.607143 -151.586592 
L 573.267857 -148.207731 
L 574.928571 -146.496862 
L 576.589286 -141.690969 
L 578.25 -140.782955 
L 579.910714 -137.107806 
L 581.571429 -132.189359 
L 583.232143 -129.389836 
L 584.892857 -126.477142 
L 586.553571 -122.809182 
L 588.214286 -122.183784 
L 589.875 -120.312947 
L 591.535714 -119.172348 
L 593.196429 -121.536462 
L 594.857143 -121.670148 
L 596.517857 -118.791741 
L 598.178571 -118.186767 
L 599.839286 -120.582135 
L 601.5 -121.648624 
L 603.160714 -122.120654 
L 604.821429 -126.276343 
L 606.482143 -127.056282 
L 608.142857 -131.237178 
L 609.803571 -130.535534 
L 611.464286 -129.676787 
L 613.125 -130.631151 
L 614.785714 -133.170156 
L 616.446429 -134.062145 
L 618.107143 -136.807914 
L 619.767857 -137.877896 
L 621.428571 -141.402075 
L 623.089286 -137.674438 
L 624.75 -139.259333 
L 626.410714 -140.875259 
L 628.071429 -139.308507 
L 629.732143 -140.599805 
L 631.392857 -142.121055 
L 633.053571 -142.797241 
L 634.714286 -143.268423 
L 636.375 -144.664815 
L 638.035714 -145.427068 
L 639.696429 -148.453013 
L 641.357143 -152.174901 
L 643.017857 -150.927273 
L 644.678571 -154.219008 
L 646.339286 -156.151313 
L 648 -151.827828 
L 649.660714 -156.130523 
L 651.321429 -161.17466 
L 652.982143 -157.042082 
L 654.642857 -157.059024 
L 656.303571 -162.563928 
L 657.964286 -165.319898 
L 659.625 -164.204177 
L 661.285714 -165.38513 
L 661.285714 -81.214809 
L 661.285714 -81.214809 
L 659.625 -83.708817 
L 657.964286 -88.504443 
L 656.303571 -89.626326 
L 654.642857 -87.407422 
L 652.982143 -88.068987 
L 651.321429 -96.762496 
L 649.660714 -94.034491 
L 648 -92.440625 
L 646.339286 -100.085731 
L 644.678571 -102.42038 
L 643.017857 -100.545309 
L 641.357143 -105.239684 
L 639.696429 -103.515081 
L 638.035714 -105.80211 
L 636.375 -107.972279 
L 634.714286 -106.268677 
L 633.053571 -106.573377 
L 631.392857 -107.899601 
L 629.732143 -107.462312 
L 628.071429 -107.236965 
L 626.410714 -109.574566 
L 624.75 -108.502174 
L 623.089286 -106.06683 
L 621.428571 -109.882814 
L 619.767857 -106.62452 
L 618.107143 -105.903127 
L 616.446429 -105.066845 
L 614.785714 -103.894703 
L 613.125 -102.375545 
L 611.464286 -100.98247 
L 609.803571 -101.97335 
L 608.142857 -102.53878 
L 606.482143 -99.851749 
L 604.821429 -97.418489 
L 603.160714 -94.515221 
L 601.5 -94.486917 
L 599.839286 -94.073403 
L 598.178571 -93.221549 
L 596.517857 -92.931131 
L 594.857143 -94.81019 
L 593.196429 -95.427937 
L 591.535714 -93.853364 
L 589.875 -94.429653 
L 588.214286 -95.212218 
L 586.553571 -95.724958 
L 584.892857 -99.060895 
L 583.232143 -101.151286 
L 581.571429 -103.172557 
L 579.910714 -107.308098 
L 578.25 -110.19489 
L 576.589286 -111.731195 
L 574.928571 -114.897353 
L 573.267857 -117.685439 
L 571.607143 -121.520813 
L 569.946429 -123.362288 
L 568.285714 -127.450821 
L 566.625 -127.854608 
L 564.964286 -131.871767 
L 563.303571 -135.044382 
L 561.642857 -132.693743 
L 559.982143 -137.228695 
L 558.321429 -137.963108 
L 556.660714 -139.506381 
L 555 -141.148296 
L 553.339286 -140.564287 
L 551.678571 -140.686439 
L 550.017857 -138.472155 
L 548.357143 -140.832505 
L 546.696429 -142.116762 
L 545.035714 -140.590788 
L 543.375 -140.496579 
L 541.714286 -137.434183 
L 540.053571 -134.13076 
L 538.392857 -135.694347 
L 536.732143 -132.910115 
L 535.071429 -130.116354 
L 533.410714 -127.504261 
L 531.75 -129.805006 
L 530.089286 -126.739215 
L 528.428571 -123.657566 
L 526.767857 -124.43813 
L 525.107143 -124.855749 
L 523.446429 -122.67995 
L 521.785714 -125.135187 
L 520.125 -126.40512 
L 518.464286 -124.437735 
L 516.803571 -126.49347 
L 515.142857 -125.1372 
L 513.482143 -128.84771 
L 511.821429 -129.549645 
L 510.160714 -130.056961 
L 508.5 -131.797387 
L 506.839286 -131.625469 
L 505.178571 -135.193167 
L 503.517857 -136.040066 
L 501.857143 -137.976043 
L 500.196429 -137.520049 
L 498.535714 -138.524698 
L 496.875 -139.648919 
L 495.214286 -143.305788 
L 493.553571 -141.943001 
L 491.892857 -141.256692 
L 490.232143 -141.80343 
L 488.571429 -138.504051 
L 486.910714 -137.861642 
L 485.25 -136.172072 
L 483.589286 -136.39398 
L 481.928571 -133.37181 
L 480.267857 -132.306997 
L 478.607143 -132.397772 
L 476.946429 -129.847232 
L 475.285714 -129.089919 
L 473.625 -126.784944 
L 471.964286 -124.090669 
L 470.303571 -127.496502 
L 468.642857 -128.583438 
L 466.982143 -127.891636 
L 465.321429 -127.476462 
L 463.660714 -127.447235 
L 462 -133.122002 
L 460.339286 -134.375826 
L 458.678571 -131.717761 
L 457.017857 -135.319631 
L 455.357143 -135.072341 
L 453.696429 -135.154919 
L 452.035714 -135.039236 
L 450.375 -137.178918 
L 448.714286 -133.244003 
L 447.053571 -134.387833 
L 445.392857 -133.519255 
L 443.732143 -128.03428 
L 442.071429 -123.653518 
L 440.410714 -122.05882 
L 438.75 -121.078022 
L 437.089286 -115.633087 
L 435.428571 -114.219346 
L 433.767857 -109.507288 
L 432.107143 -105.251457 
L 430.446429 -102.023284 
L 428.785714 -96.534505 
L 427.125 -95.448398 
L 425.464286 -90.863218 
L 423.803571 -89.378933 
L 422.142857 -86.07009 
L 420.482143 -85.062293 
L 418.821429 -82.641282 
L 417.160714 -80.661722 
L 415.5 -77.285608 
L 413.839286 -74.781441 
L 412.178571 -77.699292 
L 410.517857 -76.162033 
L 408.857143 -77.820564 
L 407.196429 -77.368678 
L 405.535714 -77.478517 
L 403.875 -78.908178 
L 402.214286 -81.640111 
L 400.553571 -84.255447 
L 398.892857 -84.658289 
L 397.232143 -87.750524 
L 395.571429 -90.44095 
L 393.910714 -91.481386 
L 392.25 -96.70708 
L 390.589286 -103.320596 
L 388.928571 -107.129307 
L 387.267857 -109.133152 
L 385.607143 -118.510324 
L 383.946429 -122.539396 
L 382.285714 -128.75074 
L 380.625 -132.434563 
L 378.964286 -139.653578 
L 377.303571 -144.645196 
L 375.642857 -148.83114 
L 373.982143 -154.924684 
L 372.321429 -157.155022 
L 370.660714 -159.088623 
L 369 -156.951583 
L 367.339286 -157.422143 
L 365.678571 -159.737878 
L 364.017857 -156.767025 
L 362.357143 -156.667765 
L 360.696429 -156.57476 
L 359.035714 -153.873771 
L 357.375 -152.152616 
L 355.714286 -150.571557 
L 354.053571 -148.465643 
L 352.392857 -149.500364 
L 350.732143 -141.361489 
L 349.071429 -145.219393 
L 347.410714 -141.897186 
L 345.75 -139.039555 
L 344.089286 -134.015863 
L 342.428571 -131.116034 
L 340.767857 -128.689109 
L 339.107143 -124.769257 
L 337.446429 -121.100104 
L 335.785714 -122.355537 
L 334.125 -118.44409 
L 332.464286 -116.605945 
L 330.803571 -116.416969 
L 329.142857 -117.103311 
L 327.482143 -112.157268 
L 325.821429 -112.036663 
L 324.160714 -112.150241 
L 322.5 -111.835757 
L 320.839286 -110.997172 
L 319.178571 -110.214438 
L 317.517857 -111.783679 
L 315.857143 -107.159085 
L 314.196429 -108.619395 
L 312.535714 -108.594923 
L 310.875 -108.644473 
L 309.214286 -112.752369 
L 307.553571 -114.20649 
L 305.892857 -113.937163 
L 304.232143 -119.785954 
L 302.571429 -124.242334 
L 300.910714 -128.031901 
L 299.25 -133.957617 
L 297.589286 -137.143936 
L 295.928571 -147.787775 
L 294.267857 -159.499024 
L 292.607143 -163.091512 
L 290.946429 -170.296531 
L 289.285714 -178.82508 
L 287.625 -185.655753 
L 285.964286 -192.089938 
L 284.303571 -200.29031 
L 282.642857 -205.30476 
L 280.982143 -217.401438 
L 279.321429 -218.805372 
L 277.660714 -222.925858 
L 276 -224.68724 
L 274.339286 -224.494184 
L 272.678571 -228.318859 
L 271.017857 -227.809577 
L 269.357143 -230.315194 
L 267.696429 -232.841282 
L 266.035714 -225.583832 
L 264.375 -218.327829 
L 262.714286 -215.970887 
L 261.053571 -217.376461 
L 259.392857 -214.136072 
L 257.732143 -212.034042 
L 256.071429 -209.125689 
L 254.410714 -200.315209 
L 252.75 -199.556092 
L 251.089286 -199.43307 
L 249.428571 -196.263471 
L 247.767857 -194.208045 
L 246.107143 -190.905601 
L 244.446429 -193.540687 
L 242.785714 -183.623055 
L 241.125 -186.173338 
L 239.464286 -187.565639 
L 237.803571 -187.101608 
L 236.142857 -182.891355 
L 234.482143 -184.266296 
L 232.821429 -186.12744 
L 231.160714 -183.423581 
L 229.5 -179.345769 
L 227.839286 -184.023291 
L 226.178571 -177.363594 
L 224.517857 -175.093311 
L 222.857143 -168.229794 
L 221.196429 -168.74142 
L 219.535714 -168.897691 
L 217.875 -164.700345 
L 216.214286 -162.647689 
L 214.553571 -159.901859 
L 212.892857 -157.863135 
L 211.232143 -157.810818 
L 209.571429 -148.677013 
L 207.910714 -144.086716 
L 206.25 -139.861763 
L 204.589286 -133.762504 
L 202.928571 -128.744104 
L 201.267857 -127.808894 
L 199.607143 -131.418882 
L 197.946429 -129.537563 
L 196.285714 -122.590937 
L 194.625 -118.601268 
L 192.964286 -112.580789 
L 191.303571 -112.002897 
L 189.642857 -108.884022 
L 187.982143 -109.118566 
L 186.321429 -103.708358 
L 184.660714 -104.617001 
L 183 -97.921778 
L 181.339286 -98.100697 
L 179.678571 -93.669302 
L 178.017857 -89.447333 
L 176.357143 -89.703927 
L 174.696429 -86.51491 
L 173.035714 -83.306955 
L 171.375 -79.492616 
L 169.714286 -78.520081 
L 168.053571 -79.009593 
L 166.392857 -75.057175 
L 164.732143 -74.082497 
L 163.071429 -70.597588 
L 161.410714 -69.355971 
L 159.75 -68.122273 
L 158.089286 -67.74242 
L 156.428571 -64.72876 
L 154.767857 -63.124842 
L 153.107143 -63.005147 
L 151.446429 -63.155971 
L 149.785714 -60.989056 
L 148.125 -62.29864 
L 146.464286 -60.76818 
L 144.803571 -61.13518 
L 143.142857 -60.042993 
L 141.482143 -57.661639 
L 139.821429 -57.457366 
L 138.160714 -57.354545 
L 136.5 -58.101974 
L 134.839286 -58.174099 
L 133.178571 -58.877123 
L 131.517857 -59.597671 
L 129.857143 -59.23079 
L 128.196429 -59.379677 
L 126.535714 -61.768754 
L 124.875 -60.040867 
L 123.214286 -61.434192 
L 121.553571 -62.185881 
L 119.892857 -64.158192 
L 118.232143 -66.004549 
L 116.571429 -67.263807 
L 114.910714 -66.810397 
L 113.25 -66.440662 
L 111.589286 -67.005577 
L 109.928571 -68.558916 
L 108.267857 -68.830776 
L 106.607143 -65.844727 
L 104.946429 -65.686909 
L 103.285714 -67.735719 
L 101.625 -67.438446 
L 99.964286 -66.473478 
L 98.303571 -66.344353 
L 96.642857 -65.935861 
L 94.982143 -63.294717 
L 93.321429 -62.833833 
L 91.660714 -62.654207 
L 90 -63.022013 
z
" id="m611d1c6b0a" style="stroke:#fdcbb6;stroke-opacity:0.8;"/>
    </defs>
    <g clip-path="url(#p01f8428af4)">
     <use style="fill:#fdcbb6;fill-opacity:0.8;stroke:#fdcbb6;stroke-opacity:0.8;" x="0" xlink:href="#m611d1c6b0a" y="360"/>
    </g>
   </g>
   <g id="matplotlib.axis_1">
    <g id="xtick_1">
     <g id="line2d_1">
      <defs>
       <path d="M 0 0 
L 0 3.5 
" id="m621afd6f22" style="stroke:#000000;stroke-width:0.8;"/>
      </defs>
      <g>
       <use style="stroke:#000000;stroke-width:0.8;" x="90" xlink:href="#m621afd6f22" y="315"/>
      </g>
     </g>
    </g>
    <g id="xtick_2">
     <g id="line2d_2">
      <g>
       <use style="stroke:#000000;stroke-width:0.8;" x="123.214286" xlink:href="#m621afd6f22" y="315"/>
      </g>
     </g>
     <g id="text_1">
      <!-- Apr -->
      <g transform="translate(114.564286 329.598437)scale(0.1 -0.1)">
       <defs>
        <path d="M 34.1875 63.1875 
L 20.796875 26.90625 
L 47.609375 26.90625 
z
M 28.609375 72.90625 
L 39.796875 72.90625 
L 67.578125 0 
L 57.328125 0 
L 50.6875 18.703125 
L 17.828125 18.703125 
L 11.1875 0 
L 0.78125 0 
z
" id="DejaVuSans-65"/>
        <path d="M 18.109375 8.203125 
L 18.109375 -20.796875 
L 9.078125 -20.796875 
L 9.078125 54.6875 
L 18.109375 54.6875 
L 18.109375 46.390625 
Q 20.953125 51.265625 25.265625 53.625 
Q 29.59375 56 35.59375 56 
Q 45.5625 56 51.78125 48.09375 
Q 58.015625 40.1875 58.015625 27.296875 
Q 58.015625 14.40625 51.78125 6.484375 
Q 45.5625 -1.421875 35.59375 -1.421875 
Q 29.59375 -1.421875 25.265625 0.953125 
Q 20.953125 3.328125 18.109375 8.203125 
z
M 48.6875 27.296875 
Q 48.6875 37.203125 44.609375 42.84375 
Q 40.53125 48.484375 33.40625 48.484375 
Q 26.265625 48.484375 22.1875 42.84375 
Q 18.109375 37.203125 18.109375 27.296875 
Q 18.109375 17.390625 22.1875 11.75 
Q 26.265625 6.109375 33.40625 6.109375 
Q 40.53125 6.109375 44.609375 11.75 
Q 48.6875 17.390625 48.6875 27.296875 
z
" id="DejaVuSans-112"/>
        <path d="M 41.109375 46.296875 
Q 39.59375 47.171875 37.8125 47.578125 
Q 36.03125 48 33.890625 48 
Q 26.265625 48 22.1875 43.046875 
Q 18.109375 38.09375 18.109375 28.8125 
L 18.109375 0 
L 9.078125 0 
L 9.078125 54.6875 
L 18.109375 54.6875 
L 18.109375 46.1875 
Q 20.953125 51.171875 25.484375 53.578125 
Q 30.03125 56 36.53125 56 
Q 37.453125 56 38.578125 55.875 
Q 39.703125 55.765625 41.0625 55.515625 
z
" id="DejaVuSans-114"/>
       </defs>
       <use xlink:href="#DejaVuSans-65"/>
       <use x="68.408203" xlink:href="#DejaVuSans-112"/>
       <use x="131.884766" xlink:href="#DejaVuSans-114"/>
      </g>
     </g>
    </g>
    <g id="xtick_3">
     <g id="line2d_3">
      <g>
       <use style="stroke:#000000;stroke-width:0.8;" x="173.035714" xlink:href="#m621afd6f22" y="315"/>
      </g>
     </g>
     <g id="text_2">
      <!-- May -->
      <g transform="translate(162.698214 329.598437)scale(0.1 -0.1)">
       <defs>
        <path d="M 9.8125 72.90625 
L 24.515625 72.90625 
L 43.109375 23.296875 
L 61.8125 72.90625 
L 76.515625 72.90625 
L 76.515625 0 
L 66.890625 0 
L 66.890625 64.015625 
L 48.09375 14.015625 
L 38.1875 14.015625 
L 19.390625 64.015625 
L 19.390625 0 
L 9.8125 0 
z
" id="DejaVuSans-77"/>
        <path d="M 34.28125 27.484375 
Q 23.390625 27.484375 19.1875 25 
Q 14.984375 22.515625 14.984375 16.5 
Q 14.984375 11.71875 18.140625 8.90625 
Q 21.296875 6.109375 26.703125 6.109375 
Q 34.1875 6.109375 38.703125 11.40625 
Q 43.21875 16.703125 43.21875 25.484375 
L 43.21875 27.484375 
z
M 52.203125 31.203125 
L 52.203125 0 
L 43.21875 0 
L 43.21875 8.296875 
Q 40.140625 3.328125 35.546875 0.953125 
Q 30.953125 -1.421875 24.3125 -1.421875 
Q 15.921875 -1.421875 10.953125 3.296875 
Q 6 8.015625 6 15.921875 
Q 6 25.140625 12.171875 29.828125 
Q 18.359375 34.515625 30.609375 34.515625 
L 43.21875 34.515625 
L 43.21875 35.40625 
Q 43.21875 41.609375 39.140625 45 
Q 35.0625 48.390625 27.6875 48.390625 
Q 23 48.390625 18.546875 47.265625 
Q 14.109375 46.140625 10.015625 43.890625 
L 10.015625 52.203125 
Q 14.9375 54.109375 19.578125 55.046875 
Q 24.21875 56 28.609375 56 
Q 40.484375 56 46.34375 49.84375 
Q 52.203125 43.703125 52.203125 31.203125 
z
" id="DejaVuSans-97"/>
        <path d="M 32.171875 -5.078125 
Q 28.375 -14.84375 24.75 -17.8125 
Q 21.140625 -20.796875 15.09375 -20.796875 
L 7.90625 -20.796875 
L 7.90625 -13.28125 
L 13.1875 -13.28125 
Q 16.890625 -13.28125 18.9375 -11.515625 
Q 21 -9.765625 23.484375 -3.21875 
L 25.09375 0.875 
L 2.984375 54.6875 
L 12.5 54.6875 
L 29.59375 11.921875 
L 46.6875 54.6875 
L 56.203125 54.6875 
z
" id="DejaVuSans-121"/>
       </defs>
       <use xlink:href="#DejaVuSans-77"/>
       <use x="86.279297" xlink:href="#DejaVuSans-97"/>
       <use x="147.558594" xlink:href="#DejaVuSans-121"/>
      </g>
     </g>
    </g>
    <g id="xtick_4">
     <g id="line2d_4">
      <g>
       <use style="stroke:#000000;stroke-width:0.8;" x="224.517857" xlink:href="#m621afd6f22" y="315"/>
      </g>
     </g>
     <g id="text_3">
      <!-- Jun -->
      <g transform="translate(216.705357 329.598437)scale(0.1 -0.1)">
       <defs>
        <path d="M 9.8125 72.90625 
L 19.671875 72.90625 
L 19.671875 5.078125 
Q 19.671875 -8.109375 14.671875 -14.0625 
Q 9.671875 -20.015625 -1.421875 -20.015625 
L -5.171875 -20.015625 
L -5.171875 -11.71875 
L -2.09375 -11.71875 
Q 4.4375 -11.71875 7.125 -8.046875 
Q 9.8125 -4.390625 9.8125 5.078125 
z
" id="DejaVuSans-74"/>
        <path d="M 8.5 21.578125 
L 8.5 54.6875 
L 17.484375 54.6875 
L 17.484375 21.921875 
Q 17.484375 14.15625 20.5 10.265625 
Q 23.53125 6.390625 29.59375 6.390625 
Q 36.859375 6.390625 41.078125 11.03125 
Q 45.3125 15.671875 45.3125 23.6875 
L 45.3125 54.6875 
L 54.296875 54.6875 
L 54.296875 0 
L 45.3125 0 
L 45.3125 8.40625 
Q 42.046875 3.421875 37.71875 1 
Q 33.40625 -1.421875 27.6875 -1.421875 
Q 18.265625 -1.421875 13.375 4.4375 
Q 8.5 10.296875 8.5 21.578125 
z
M 31.109375 56 
z
" id="DejaVuSans-117"/>
        <path d="M 54.890625 33.015625 
L 54.890625 0 
L 45.90625 0 
L 45.90625 32.71875 
Q 45.90625 40.484375 42.875 44.328125 
Q 39.84375 48.1875 33.796875 48.1875 
Q 26.515625 48.1875 22.3125 43.546875 
Q 18.109375 38.921875 18.109375 30.90625 
L 18.109375 0 
L 9.078125 0 
L 9.078125 54.6875 
L 18.109375 54.6875 
L 18.109375 46.1875 
Q 21.34375 51.125 25.703125 53.5625 
Q 30.078125 56 35.796875 56 
Q 45.21875 56 50.046875 50.171875 
Q 54.890625 44.34375 54.890625 33.015625 
z
" id="DejaVuSans-110"/>
       </defs>
       <use xlink:href="#DejaVuSans-74"/>
       <use x="29.492188" xlink:href="#DejaVuSans-117"/>
       <use x="92.871094" xlink:href="#DejaVuSans-110"/>
      </g>
     </g>
    </g>
    <g id="xtick_5">
     <g id="line2d_5">
      <g>
       <use style="stroke:#000000;stroke-width:0.8;" x="274.339286" xlink:href="#m621afd6f22" y="315"/>
      </g>
     </g>
     <g id="text_4">
      <!-- Jul -->
      <g transform="translate(268.306473 329.598437)scale(0.1 -0.1)">
       <defs>
        <path d="M 9.421875 75.984375 
L 18.40625 75.984375 
L 18.40625 0 
L 9.421875 0 
z
" id="DejaVuSans-108"/>
       </defs>
       <use xlink:href="#DejaVuSans-74"/>
       <use x="29.492188" xlink:href="#DejaVuSans-117"/>
       <use x="92.871094" xlink:href="#DejaVuSans-108"/>
      </g>
     </g>
    </g>
    <g id="xtick_6">
     <g id="line2d_6">
      <g>
       <use style="stroke:#000000;stroke-width:0.8;" x="325.821429" xlink:href="#m621afd6f22" y="315"/>
      </g>
     </g>
     <g id="text_5">
      <!-- Aug -->
      <g transform="translate(316.058147 329.598437)scale(0.1 -0.1)">
       <defs>
        <path d="M 45.40625 27.984375 
Q 45.40625 37.75 41.375 43.109375 
Q 37.359375 48.484375 30.078125 48.484375 
Q 22.859375 48.484375 18.828125 43.109375 
Q 14.796875 37.75 14.796875 27.984375 
Q 14.796875 18.265625 18.828125 12.890625 
Q 22.859375 7.515625 30.078125 7.515625 
Q 37.359375 7.515625 41.375 12.890625 
Q 45.40625 18.265625 45.40625 27.984375 
z
M 54.390625 6.78125 
Q 54.390625 -7.171875 48.1875 -13.984375 
Q 42 -20.796875 29.203125 -20.796875 
Q 24.46875 -20.796875 20.265625 -20.09375 
Q 16.0625 -19.390625 12.109375 -17.921875 
L 12.109375 -9.1875 
Q 16.0625 -11.328125 19.921875 -12.34375 
Q 23.78125 -13.375 27.78125 -13.375 
Q 36.625 -13.375 41.015625 -8.765625 
Q 45.40625 -4.15625 45.40625 5.171875 
L 45.40625 9.625 
Q 42.625 4.78125 38.28125 2.390625 
Q 33.9375 0 27.875 0 
Q 17.828125 0 11.671875 7.65625 
Q 5.515625 15.328125 5.515625 27.984375 
Q 5.515625 40.671875 11.671875 48.328125 
Q 17.828125 56 27.875 56 
Q 33.9375 56 38.28125 53.609375 
Q 42.625 51.21875 45.40625 46.390625 
L 45.40625 54.6875 
L 54.390625 54.6875 
z
" id="DejaVuSans-103"/>
       </defs>
       <use xlink:href="#DejaVuSans-65"/>
       <use x="68.408203" xlink:href="#DejaVuSans-117"/>
       <use x="131.787109" xlink:href="#DejaVuSans-103"/>
      </g>
     </g>
    </g>
    <g id="xtick_7">
     <g id="line2d_7">
      <g>
       <use style="stroke:#000000;stroke-width:0.8;" x="377.303571" xlink:href="#m621afd6f22" y="315"/>
      </g>
     </g>
     <g id="text_6">
      <!-- Sep -->
      <g transform="translate(367.878571 329.598437)scale(0.1 -0.1)">
       <defs>
        <path d="M 53.515625 70.515625 
L 53.515625 60.890625 
Q 47.90625 63.578125 42.921875 64.890625 
Q 37.9375 66.21875 33.296875 66.21875 
Q 25.25 66.21875 20.875 63.09375 
Q 16.5 59.96875 16.5 54.203125 
Q 16.5 49.359375 19.40625 46.890625 
Q 22.3125 44.4375 30.421875 42.921875 
L 36.375 41.703125 
Q 47.40625 39.59375 52.65625 34.296875 
Q 57.90625 29 57.90625 20.125 
Q 57.90625 9.515625 50.796875 4.046875 
Q 43.703125 -1.421875 29.984375 -1.421875 
Q 24.8125 -1.421875 18.96875 -0.25 
Q 13.140625 0.921875 6.890625 3.21875 
L 6.890625 13.375 
Q 12.890625 10.015625 18.65625 8.296875 
Q 24.421875 6.59375 29.984375 6.59375 
Q 38.421875 6.59375 43.015625 9.90625 
Q 47.609375 13.234375 47.609375 19.390625 
Q 47.609375 24.75 44.3125 27.78125 
Q 41.015625 30.8125 33.5 32.328125 
L 27.484375 33.5 
Q 16.453125 35.6875 11.515625 40.375 
Q 6.59375 45.0625 6.59375 53.421875 
Q 6.59375 63.09375 13.40625 68.65625 
Q 20.21875 74.21875 32.171875 74.21875 
Q 37.3125 74.21875 42.625 73.28125 
Q 47.953125 72.359375 53.515625 70.515625 
z
" id="DejaVuSans-83"/>
        <path d="M 56.203125 29.59375 
L 56.203125 25.203125 
L 14.890625 25.203125 
Q 15.484375 15.921875 20.484375 11.0625 
Q 25.484375 6.203125 34.421875 6.203125 
Q 39.59375 6.203125 44.453125 7.46875 
Q 49.3125 8.734375 54.109375 11.28125 
L 54.109375 2.78125 
Q 49.265625 0.734375 44.1875 -0.34375 
Q 39.109375 -1.421875 33.890625 -1.421875 
Q 20.796875 -1.421875 13.15625 6.1875 
Q 5.515625 13.8125 5.515625 26.8125 
Q 5.515625 40.234375 12.765625 48.109375 
Q 20.015625 56 32.328125 56 
Q 43.359375 56 49.78125 48.890625 
Q 56.203125 41.796875 56.203125 29.59375 
z
M 47.21875 32.234375 
Q 47.125 39.59375 43.09375 43.984375 
Q 39.0625 48.390625 32.421875 48.390625 
Q 24.90625 48.390625 20.390625 44.140625 
Q 15.875 39.890625 15.1875 32.171875 
z
" id="DejaVuSans-101"/>
       </defs>
       <use xlink:href="#DejaVuSans-83"/>
       <use x="63.476562" xlink:href="#DejaVuSans-101"/>
       <use x="125" xlink:href="#DejaVuSans-112"/>
      </g>
     </g>
    </g>
    <g id="xtick_8">
     <g id="line2d_8">
      <g>
       <use style="stroke:#000000;stroke-width:0.8;" x="427.125" xlink:href="#m621afd6f22" y="315"/>
      </g>
     </g>
     <g id="text_7">
      <!-- Oct -->
      <g transform="translate(418.479687 329.598437)scale(0.1 -0.1)">
       <defs>
        <path d="M 39.40625 66.21875 
Q 28.65625 66.21875 22.328125 58.203125 
Q 16.015625 50.203125 16.015625 36.375 
Q 16.015625 22.609375 22.328125 14.59375 
Q 28.65625 6.59375 39.40625 6.59375 
Q 50.140625 6.59375 56.421875 14.59375 
Q 62.703125 22.609375 62.703125 36.375 
Q 62.703125 50.203125 56.421875 58.203125 
Q 50.140625 66.21875 39.40625 66.21875 
z
M 39.40625 74.21875 
Q 54.734375 74.21875 63.90625 63.9375 
Q 73.09375 53.65625 73.09375 36.375 
Q 73.09375 19.140625 63.90625 8.859375 
Q 54.734375 -1.421875 39.40625 -1.421875 
Q 24.03125 -1.421875 14.8125 8.828125 
Q 5.609375 19.09375 5.609375 36.375 
Q 5.609375 53.65625 14.8125 63.9375 
Q 24.03125 74.21875 39.40625 74.21875 
z
" id="DejaVuSans-79"/>
        <path d="M 48.78125 52.59375 
L 48.78125 44.1875 
Q 44.96875 46.296875 41.140625 47.34375 
Q 37.3125 48.390625 33.40625 48.390625 
Q 24.65625 48.390625 19.8125 42.84375 
Q 14.984375 37.3125 14.984375 27.296875 
Q 14.984375 17.28125 19.8125 11.734375 
Q 24.65625 6.203125 33.40625 6.203125 
Q 37.3125 6.203125 41.140625 7.25 
Q 44.96875 8.296875 48.78125 10.40625 
L 48.78125 2.09375 
Q 45.015625 0.34375 40.984375 -0.53125 
Q 36.96875 -1.421875 32.421875 -1.421875 
Q 20.0625 -1.421875 12.78125 6.34375 
Q 5.515625 14.109375 5.515625 27.296875 
Q 5.515625 40.671875 12.859375 48.328125 
Q 20.21875 56 33.015625 56 
Q 37.15625 56 41.109375 55.140625 
Q 45.0625 54.296875 48.78125 52.59375 
z
" id="DejaVuSans-99"/>
        <path d="M 18.3125 70.21875 
L 18.3125 54.6875 
L 36.8125 54.6875 
L 36.8125 47.703125 
L 18.3125 47.703125 
L 18.3125 18.015625 
Q 18.3125 11.328125 20.140625 9.421875 
Q 21.96875 7.515625 27.59375 7.515625 
L 36.8125 7.515625 
L 36.8125 0 
L 27.59375 0 
Q 17.1875 0 13.234375 3.875 
Q 9.28125 7.765625 9.28125 18.015625 
L 9.28125 47.703125 
L 2.6875 47.703125 
L 2.6875 54.6875 
L 9.28125 54.6875 
L 9.28125 70.21875 
z
" id="DejaVuSans-116"/>
       </defs>
       <use xlink:href="#DejaVuSans-79"/>
       <use x="78.710938" xlink:href="#DejaVuSans-99"/>
       <use x="133.691406" xlink:href="#DejaVuSans-116"/>
      </g>
     </g>
    </g>
    <g id="xtick_9">
     <g id="line2d_9">
      <g>
       <use style="stroke:#000000;stroke-width:0.8;" x="478.607143" xlink:href="#m621afd6f22" y="315"/>
      </g>
     </g>
     <g id="text_8">
      <!-- Nov -->
      <g transform="translate(468.847768 329.598437)scale(0.1 -0.1)">
       <defs>
        <path d="M 9.8125 72.90625 
L 23.09375 72.90625 
L 55.421875 11.921875 
L 55.421875 72.90625 
L 64.984375 72.90625 
L 64.984375 0 
L 51.703125 0 
L 19.390625 60.984375 
L 19.390625 0 
L 9.8125 0 
z
" id="DejaVuSans-78"/>
        <path d="M 30.609375 48.390625 
Q 23.390625 48.390625 19.1875 42.75 
Q 14.984375 37.109375 14.984375 27.296875 
Q 14.984375 17.484375 19.15625 11.84375 
Q 23.34375 6.203125 30.609375 6.203125 
Q 37.796875 6.203125 41.984375 11.859375 
Q 46.1875 17.53125 46.1875 27.296875 
Q 46.1875 37.015625 41.984375 42.703125 
Q 37.796875 48.390625 30.609375 48.390625 
z
M 30.609375 56 
Q 42.328125 56 49.015625 48.375 
Q 55.71875 40.765625 55.71875 27.296875 
Q 55.71875 13.875 49.015625 6.21875 
Q 42.328125 -1.421875 30.609375 -1.421875 
Q 18.84375 -1.421875 12.171875 6.21875 
Q 5.515625 13.875 5.515625 27.296875 
Q 5.515625 40.765625 12.171875 48.375 
Q 18.84375 56 30.609375 56 
z
" id="DejaVuSans-111"/>
        <path d="M 2.984375 54.6875 
L 12.5 54.6875 
L 29.59375 8.796875 
L 46.6875 54.6875 
L 56.203125 54.6875 
L 35.6875 0 
L 23.484375 0 
z
" id="DejaVuSans-118"/>
       </defs>
       <use xlink:href="#DejaVuSans-78"/>
       <use x="74.804688" xlink:href="#DejaVuSans-111"/>
       <use x="135.986328" xlink:href="#DejaVuSans-118"/>
      </g>
     </g>
    </g>
    <g id="xtick_10">
     <g id="line2d_10">
      <g>
       <use style="stroke:#000000;stroke-width:0.8;" x="528.428571" xlink:href="#m621afd6f22" y="315"/>
      </g>
     </g>
     <g id="text_9">
      <!-- Dec -->
      <g transform="translate(518.75279 329.598437)scale(0.1 -0.1)">
       <defs>
        <path d="M 19.671875 64.796875 
L 19.671875 8.109375 
L 31.59375 8.109375 
Q 46.6875 8.109375 53.6875 14.9375 
Q 60.6875 21.78125 60.6875 36.53125 
Q 60.6875 51.171875 53.6875 57.984375 
Q 46.6875 64.796875 31.59375 64.796875 
z
M 9.8125 72.90625 
L 30.078125 72.90625 
Q 51.265625 72.90625 61.171875 64.09375 
Q 71.09375 55.28125 71.09375 36.53125 
Q 71.09375 17.671875 61.125 8.828125 
Q 51.171875 0 30.078125 0 
L 9.8125 0 
z
" id="DejaVuSans-68"/>
       </defs>
       <use xlink:href="#DejaVuSans-68"/>
       <use x="77.001953" xlink:href="#DejaVuSans-101"/>
       <use x="138.525391" xlink:href="#DejaVuSans-99"/>
      </g>
     </g>
    </g>
    <g id="xtick_11">
     <g id="line2d_11">
      <g>
       <use style="stroke:#000000;stroke-width:0.8;" x="579.910714" xlink:href="#m621afd6f22" y="315"/>
      </g>
     </g>
     <g id="text_10">
      <!-- Jan -->
      <g transform="translate(572.202902 329.598437)scale(0.1 -0.1)">
       <use xlink:href="#DejaVuSans-74"/>
       <use x="29.492188" xlink:href="#DejaVuSans-97"/>
       <use x="90.771484" xlink:href="#DejaVuSans-110"/>
      </g>
      <!-- 2021 -->
      <g transform="translate(567.185714 340.79625)scale(0.1 -0.1)">
       <defs>
        <path d="M 19.1875 8.296875 
L 53.609375 8.296875 
L 53.609375 0 
L 7.328125 0 
L 7.328125 8.296875 
Q 12.9375 14.109375 22.625 23.890625 
Q 32.328125 33.6875 34.8125 36.53125 
Q 39.546875 41.84375 41.421875 45.53125 
Q 43.3125 49.21875 43.3125 52.78125 
Q 43.3125 58.59375 39.234375 62.25 
Q 35.15625 65.921875 28.609375 65.921875 
Q 23.96875 65.921875 18.8125 64.3125 
Q 13.671875 62.703125 7.8125 59.421875 
L 7.8125 69.390625 
Q 13.765625 71.78125 18.9375 73 
Q 24.125 74.21875 28.421875 74.21875 
Q 39.75 74.21875 46.484375 68.546875 
Q 53.21875 62.890625 53.21875 53.421875 
Q 53.21875 48.921875 51.53125 44.890625 
Q 49.859375 40.875 45.40625 35.40625 
Q 44.1875 33.984375 37.640625 27.21875 
Q 31.109375 20.453125 19.1875 8.296875 
z
" id="DejaVuSans-50"/>
        <path d="M 31.78125 66.40625 
Q 24.171875 66.40625 20.328125 58.90625 
Q 16.5 51.421875 16.5 36.375 
Q 16.5 21.390625 20.328125 13.890625 
Q 24.171875 6.390625 31.78125 6.390625 
Q 39.453125 6.390625 43.28125 13.890625 
Q 47.125 21.390625 47.125 36.375 
Q 47.125 51.421875 43.28125 58.90625 
Q 39.453125 66.40625 31.78125 66.40625 
z
M 31.78125 74.21875 
Q 44.046875 74.21875 50.515625 64.515625 
Q 56.984375 54.828125 56.984375 36.375 
Q 56.984375 17.96875 50.515625 8.265625 
Q 44.046875 -1.421875 31.78125 -1.421875 
Q 19.53125 -1.421875 13.0625 8.265625 
Q 6.59375 17.96875 6.59375 36.375 
Q 6.59375 54.828125 13.0625 64.515625 
Q 19.53125 74.21875 31.78125 74.21875 
z
" id="DejaVuSans-48"/>
        <path d="M 12.40625 8.296875 
L 28.515625 8.296875 
L 28.515625 63.921875 
L 10.984375 60.40625 
L 10.984375 69.390625 
L 28.421875 72.90625 
L 38.28125 72.90625 
L 38.28125 8.296875 
L 54.390625 8.296875 
L 54.390625 0 
L 12.40625 0 
z
" id="DejaVuSans-49"/>
       </defs>
       <use xlink:href="#DejaVuSans-50"/>
       <use x="63.623047" xlink:href="#DejaVuSans-48"/>
       <use x="127.246094" xlink:href="#DejaVuSans-50"/>
       <use x="190.869141" xlink:href="#DejaVuSans-49"/>
      </g>
     </g>
    </g>
    <g id="xtick_12">
     <g id="line2d_12">
      <g>
       <use style="stroke:#000000;stroke-width:0.8;" x="631.392857" xlink:href="#m621afd6f22" y="315"/>
      </g>
     </g>
     <g id="text_11">
      <!-- Feb -->
      <g transform="translate(622.541295 329.598437)scale(0.1 -0.1)">
       <defs>
        <path d="M 9.8125 72.90625 
L 51.703125 72.90625 
L 51.703125 64.59375 
L 19.671875 64.59375 
L 19.671875 43.109375 
L 48.578125 43.109375 
L 48.578125 34.8125 
L 19.671875 34.8125 
L 19.671875 0 
L 9.8125 0 
z
" id="DejaVuSans-70"/>
        <path d="M 48.6875 27.296875 
Q 48.6875 37.203125 44.609375 42.84375 
Q 40.53125 48.484375 33.40625 48.484375 
Q 26.265625 48.484375 22.1875 42.84375 
Q 18.109375 37.203125 18.109375 27.296875 
Q 18.109375 17.390625 22.1875 11.75 
Q 26.265625 6.109375 33.40625 6.109375 
Q 40.53125 6.109375 44.609375 11.75 
Q 48.6875 17.390625 48.6875 27.296875 
z
M 18.109375 46.390625 
Q 20.953125 51.265625 25.265625 53.625 
Q 29.59375 56 35.59375 56 
Q 45.5625 56 51.78125 48.09375 
Q 58.015625 40.1875 58.015625 27.296875 
Q 58.015625 14.40625 51.78125 6.484375 
Q 45.5625 -1.421875 35.59375 -1.421875 
Q 29.59375 -1.421875 25.265625 0.953125 
Q 20.953125 3.328125 18.109375 8.203125 
L 18.109375 0 
L 9.078125 0 
L 9.078125 75.984375 
L 18.109375 75.984375 
z
" id="DejaVuSans-98"/>
       </defs>
       <use xlink:href="#DejaVuSans-70"/>
       <use x="52.019531" xlink:href="#DejaVuSans-101"/>
       <use x="113.542969" xlink:href="#DejaVuSans-98"/>
      </g>
     </g>
    </g>
    <g id="xtick_13">
     <g id="line2d_13">
      <g>
       <use style="stroke:#000000;stroke-width:0.8;" x="648" xlink:href="#m621afd6f22" y="315"/>
      </g>
     </g>
    </g>
    <g id="xtick_14">
     <g id="line2d_14">
      <defs>
       <path d="M 0 0 
L 0 2 
" id="m2d2d8f2e2f" style="stroke:#000000;stroke-width:0.6;"/>
      </defs>
      <g>
       <use style="stroke:#000000;stroke-width:0.6;" x="96.642857" xlink:href="#m2d2d8f2e2f" y="315"/>
      </g>
     </g>
    </g>
    <g id="xtick_15">
     <g id="line2d_15">
      <g>
       <use style="stroke:#000000;stroke-width:0.6;" x="108.267857" xlink:href="#m2d2d8f2e2f" y="315"/>
      </g>
     </g>
    </g>
    <g id="xtick_16">
     <g id="line2d_16">
      <g>
       <use style="stroke:#000000;stroke-width:0.6;" x="119.892857" xlink:href="#m2d2d8f2e2f" y="315"/>
      </g>
     </g>
    </g>
    <g id="xtick_17">
     <g id="line2d_17">
      <g>
       <use style="stroke:#000000;stroke-width:0.6;" x="131.517857" xlink:href="#m2d2d8f2e2f" y="315"/>
      </g>
     </g>
    </g>
    <g id="xtick_18">
     <g id="line2d_18">
      <g>
       <use style="stroke:#000000;stroke-width:0.6;" x="143.142857" xlink:href="#m2d2d8f2e2f" y="315"/>
      </g>
     </g>
    </g>
    <g id="xtick_19">
     <g id="line2d_19">
      <g>
       <use style="stroke:#000000;stroke-width:0.6;" x="154.767857" xlink:href="#m2d2d8f2e2f" y="315"/>
      </g>
     </g>
    </g>
    <g id="xtick_20">
     <g id="line2d_20">
      <g>
       <use style="stroke:#000000;stroke-width:0.6;" x="166.392857" xlink:href="#m2d2d8f2e2f" y="315"/>
      </g>
     </g>
    </g>
    <g id="xtick_21">
     <g id="line2d_21">
      <g>
       <use style="stroke:#000000;stroke-width:0.6;" x="178.017857" xlink:href="#m2d2d8f2e2f" y="315"/>
      </g>
     </g>
    </g>
    <g id="xtick_22">
     <g id="line2d_22">
      <g>
       <use style="stroke:#000000;stroke-width:0.6;" x="189.642857" xlink:href="#m2d2d8f2e2f" y="315"/>
      </g>
     </g>
    </g>
    <g id="xtick_23">
     <g id="line2d_23">
      <g>
       <use style="stroke:#000000;stroke-width:0.6;" x="201.267857" xlink:href="#m2d2d8f2e2f" y="315"/>
      </g>
     </g>
    </g>
    <g id="xtick_24">
     <g id="line2d_24">
      <g>
       <use style="stroke:#000000;stroke-width:0.6;" x="212.892857" xlink:href="#m2d2d8f2e2f" y="315"/>
      </g>
     </g>
    </g>
    <g id="xtick_25">
     <g id="line2d_25">
      <g>
       <use style="stroke:#000000;stroke-width:0.6;" x="236.142857" xlink:href="#m2d2d8f2e2f" y="315"/>
      </g>
     </g>
    </g>
    <g id="xtick_26">
     <g id="line2d_26">
      <g>
       <use style="stroke:#000000;stroke-width:0.6;" x="247.767857" xlink:href="#m2d2d8f2e2f" y="315"/>
      </g>
     </g>
    </g>
    <g id="xtick_27">
     <g id="line2d_27">
      <g>
       <use style="stroke:#000000;stroke-width:0.6;" x="259.392857" xlink:href="#m2d2d8f2e2f" y="315"/>
      </g>
     </g>
    </g>
    <g id="xtick_28">
     <g id="line2d_28">
      <g>
       <use style="stroke:#000000;stroke-width:0.6;" x="271.017857" xlink:href="#m2d2d8f2e2f" y="315"/>
      </g>
     </g>
    </g>
    <g id="xtick_29">
     <g id="line2d_29">
      <g>
       <use style="stroke:#000000;stroke-width:0.6;" x="282.642857" xlink:href="#m2d2d8f2e2f" y="315"/>
      </g>
     </g>
    </g>
    <g id="xtick_30">
     <g id="line2d_30">
      <g>
       <use style="stroke:#000000;stroke-width:0.6;" x="294.267857" xlink:href="#m2d2d8f2e2f" y="315"/>
      </g>
     </g>
    </g>
    <g id="xtick_31">
     <g id="line2d_31">
      <g>
       <use style="stroke:#000000;stroke-width:0.6;" x="305.892857" xlink:href="#m2d2d8f2e2f" y="315"/>
      </g>
     </g>
    </g>
    <g id="xtick_32">
     <g id="line2d_32">
      <g>
       <use style="stroke:#000000;stroke-width:0.6;" x="317.517857" xlink:href="#m2d2d8f2e2f" y="315"/>
      </g>
     </g>
    </g>
    <g id="xtick_33">
     <g id="line2d_33">
      <g>
       <use style="stroke:#000000;stroke-width:0.6;" x="329.142857" xlink:href="#m2d2d8f2e2f" y="315"/>
      </g>
     </g>
    </g>
    <g id="xtick_34">
     <g id="line2d_34">
      <g>
       <use style="stroke:#000000;stroke-width:0.6;" x="340.767857" xlink:href="#m2d2d8f2e2f" y="315"/>
      </g>
     </g>
    </g>
    <g id="xtick_35">
     <g id="line2d_35">
      <g>
       <use style="stroke:#000000;stroke-width:0.6;" x="352.392857" xlink:href="#m2d2d8f2e2f" y="315"/>
      </g>
     </g>
    </g>
    <g id="xtick_36">
     <g id="line2d_36">
      <g>
       <use style="stroke:#000000;stroke-width:0.6;" x="364.017857" xlink:href="#m2d2d8f2e2f" y="315"/>
      </g>
     </g>
    </g>
    <g id="xtick_37">
     <g id="line2d_37">
      <g>
       <use style="stroke:#000000;stroke-width:0.6;" x="375.642857" xlink:href="#m2d2d8f2e2f" y="315"/>
      </g>
     </g>
    </g>
    <g id="xtick_38">
     <g id="line2d_38">
      <g>
       <use style="stroke:#000000;stroke-width:0.6;" x="387.267857" xlink:href="#m2d2d8f2e2f" y="315"/>
      </g>
     </g>
    </g>
    <g id="xtick_39">
     <g id="line2d_39">
      <g>
       <use style="stroke:#000000;stroke-width:0.6;" x="398.892857" xlink:href="#m2d2d8f2e2f" y="315"/>
      </g>
     </g>
    </g>
    <g id="xtick_40">
     <g id="line2d_40">
      <g>
       <use style="stroke:#000000;stroke-width:0.6;" x="410.517857" xlink:href="#m2d2d8f2e2f" y="315"/>
      </g>
     </g>
    </g>
    <g id="xtick_41">
     <g id="line2d_41">
      <g>
       <use style="stroke:#000000;stroke-width:0.6;" x="422.142857" xlink:href="#m2d2d8f2e2f" y="315"/>
      </g>
     </g>
    </g>
    <g id="xtick_42">
     <g id="line2d_42">
      <g>
       <use style="stroke:#000000;stroke-width:0.6;" x="433.767857" xlink:href="#m2d2d8f2e2f" y="315"/>
      </g>
     </g>
    </g>
    <g id="xtick_43">
     <g id="line2d_43">
      <g>
       <use style="stroke:#000000;stroke-width:0.6;" x="445.392857" xlink:href="#m2d2d8f2e2f" y="315"/>
      </g>
     </g>
    </g>
    <g id="xtick_44">
     <g id="line2d_44">
      <g>
       <use style="stroke:#000000;stroke-width:0.6;" x="457.017857" xlink:href="#m2d2d8f2e2f" y="315"/>
      </g>
     </g>
    </g>
    <g id="xtick_45">
     <g id="line2d_45">
      <g>
       <use style="stroke:#000000;stroke-width:0.6;" x="468.642857" xlink:href="#m2d2d8f2e2f" y="315"/>
      </g>
     </g>
    </g>
    <g id="xtick_46">
     <g id="line2d_46">
      <g>
       <use style="stroke:#000000;stroke-width:0.6;" x="480.267857" xlink:href="#m2d2d8f2e2f" y="315"/>
      </g>
     </g>
    </g>
    <g id="xtick_47">
     <g id="line2d_47">
      <g>
       <use style="stroke:#000000;stroke-width:0.6;" x="491.892857" xlink:href="#m2d2d8f2e2f" y="315"/>
      </g>
     </g>
    </g>
    <g id="xtick_48">
     <g id="line2d_48">
      <g>
       <use style="stroke:#000000;stroke-width:0.6;" x="503.517857" xlink:href="#m2d2d8f2e2f" y="315"/>
      </g>
     </g>
    </g>
    <g id="xtick_49">
     <g id="line2d_49">
      <g>
       <use style="stroke:#000000;stroke-width:0.6;" x="515.142857" xlink:href="#m2d2d8f2e2f" y="315"/>
      </g>
     </g>
    </g>
    <g id="xtick_50">
     <g id="line2d_50">
      <g>
       <use style="stroke:#000000;stroke-width:0.6;" x="526.767857" xlink:href="#m2d2d8f2e2f" y="315"/>
      </g>
     </g>
    </g>
    <g id="xtick_51">
     <g id="line2d_51">
      <g>
       <use style="stroke:#000000;stroke-width:0.6;" x="538.392857" xlink:href="#m2d2d8f2e2f" y="315"/>
      </g>
     </g>
    </g>
    <g id="xtick_52">
     <g id="line2d_52">
      <g>
       <use style="stroke:#000000;stroke-width:0.6;" x="550.017857" xlink:href="#m2d2d8f2e2f" y="315"/>
      </g>
     </g>
    </g>
    <g id="xtick_53">
     <g id="line2d_53">
      <g>
       <use style="stroke:#000000;stroke-width:0.6;" x="561.642857" xlink:href="#m2d2d8f2e2f" y="315"/>
      </g>
     </g>
    </g>
    <g id="xtick_54">
     <g id="line2d_54">
      <g>
       <use style="stroke:#000000;stroke-width:0.6;" x="573.267857" xlink:href="#m2d2d8f2e2f" y="315"/>
      </g>
     </g>
    </g>
    <g id="xtick_55">
     <g id="line2d_55">
      <g>
       <use style="stroke:#000000;stroke-width:0.6;" x="584.892857" xlink:href="#m2d2d8f2e2f" y="315"/>
      </g>
     </g>
    </g>
    <g id="xtick_56">
     <g id="line2d_56">
      <g>
       <use style="stroke:#000000;stroke-width:0.6;" x="596.517857" xlink:href="#m2d2d8f2e2f" y="315"/>
      </g>
     </g>
    </g>
    <g id="xtick_57">
     <g id="line2d_57">
      <g>
       <use style="stroke:#000000;stroke-width:0.6;" x="608.142857" xlink:href="#m2d2d8f2e2f" y="315"/>
      </g>
     </g>
    </g>
    <g id="xtick_58">
     <g id="line2d_58">
      <g>
       <use style="stroke:#000000;stroke-width:0.6;" x="619.767857" xlink:href="#m2d2d8f2e2f" y="315"/>
      </g>
     </g>
    </g>
    <g id="xtick_59">
     <g id="line2d_59">
      <g>
       <use style="stroke:#000000;stroke-width:0.6;" x="643.017857" xlink:href="#m2d2d8f2e2f" y="315"/>
      </g>
     </g>
    </g>
    <g id="text_12">
     <!-- date -->
     <g transform="translate(357.725 354.474375)scale(0.1 -0.1)">
      <defs>
       <path d="M 45.40625 46.390625 
L 45.40625 75.984375 
L 54.390625 75.984375 
L 54.390625 0 
L 45.40625 0 
L 45.40625 8.203125 
Q 42.578125 3.328125 38.25 0.953125 
Q 33.9375 -1.421875 27.875 -1.421875 
Q 17.96875 -1.421875 11.734375 6.484375 
Q 5.515625 14.40625 5.515625 27.296875 
Q 5.515625 40.1875 11.734375 48.09375 
Q 17.96875 56 27.875 56 
Q 33.9375 56 38.25 53.625 
Q 42.578125 51.265625 45.40625 46.390625 
z
M 14.796875 27.296875 
Q 14.796875 17.390625 18.875 11.75 
Q 22.953125 6.109375 30.078125 6.109375 
Q 37.203125 6.109375 41.296875 11.75 
Q 45.40625 17.390625 45.40625 27.296875 
Q 45.40625 37.203125 41.296875 42.84375 
Q 37.203125 48.484375 30.078125 48.484375 
Q 22.953125 48.484375 18.875 42.84375 
Q 14.796875 37.203125 14.796875 27.296875 
z
" id="DejaVuSans-100"/>
      </defs>
      <use xlink:href="#DejaVuSans-100"/>
      <use x="63.476562" xlink:href="#DejaVuSans-97"/>
      <use x="124.755859" xlink:href="#DejaVuSans-116"/>
      <use x="163.964844" xlink:href="#DejaVuSans-101"/>
     </g>
    </g>
   </g>
   <g id="matplotlib.axis_2">
    <g id="ytick_1">
     <g id="line2d_60">
      <path clip-path="url(#p01f8428af4)" d="M 90 291.515928 
L 648 291.515928 
" style="fill:none;stroke:#b0b0b0;stroke-dasharray:0.8,1.32;stroke-dashoffset:0;stroke-width:0.8;"/>
     </g>
     <g id="line2d_61">
      <defs>
       <path d="M 0 0 
L -3.5 0 
" id="m354ffdef6a" style="stroke:#000000;stroke-width:0.8;"/>
      </defs>
      <g>
       <use style="stroke:#000000;stroke-width:0.8;" x="90" xlink:href="#m354ffdef6a" y="291.515928"/>
      </g>
     </g>
     <g id="text_13">
      <!-- 0.50 -->
      <g transform="translate(60.734375 295.315147)scale(0.1 -0.1)">
       <defs>
        <path d="M 10.6875 12.40625 
L 21 12.40625 
L 21 0 
L 10.6875 0 
z
" id="DejaVuSans-46"/>
        <path d="M 10.796875 72.90625 
L 49.515625 72.90625 
L 49.515625 64.59375 
L 19.828125 64.59375 
L 19.828125 46.734375 
Q 21.96875 47.46875 24.109375 47.828125 
Q 26.265625 48.1875 28.421875 48.1875 
Q 40.625 48.1875 47.75 41.5 
Q 54.890625 34.8125 54.890625 23.390625 
Q 54.890625 11.625 47.5625 5.09375 
Q 40.234375 -1.421875 26.90625 -1.421875 
Q 22.3125 -1.421875 17.546875 -0.640625 
Q 12.796875 0.140625 7.71875 1.703125 
L 7.71875 11.625 
Q 12.109375 9.234375 16.796875 8.0625 
Q 21.484375 6.890625 26.703125 6.890625 
Q 35.15625 6.890625 40.078125 11.328125 
Q 45.015625 15.765625 45.015625 23.390625 
Q 45.015625 31 40.078125 35.4375 
Q 35.15625 39.890625 26.703125 39.890625 
Q 22.75 39.890625 18.8125 39.015625 
Q 14.890625 38.140625 10.796875 36.28125 
z
" id="DejaVuSans-53"/>
       </defs>
       <use xlink:href="#DejaVuSans-48"/>
       <use x="63.623047" xlink:href="#DejaVuSans-46"/>
       <use x="95.410156" xlink:href="#DejaVuSans-53"/>
       <use x="159.033203" xlink:href="#DejaVuSans-48"/>
      </g>
     </g>
    </g>
    <g id="ytick_2">
     <g id="line2d_62">
      <path clip-path="url(#p01f8428af4)" d="M 90 259.492504 
L 648 259.492504 
" style="fill:none;stroke:#b0b0b0;stroke-dasharray:0.8,1.32;stroke-dashoffset:0;stroke-width:0.8;"/>
     </g>
     <g id="line2d_63">
      <g>
       <use style="stroke:#000000;stroke-width:0.8;" x="90" xlink:href="#m354ffdef6a" y="259.492504"/>
      </g>
     </g>
     <g id="text_14">
      <!-- 0.75 -->
      <g transform="translate(60.734375 263.291723)scale(0.1 -0.1)">
       <defs>
        <path d="M 8.203125 72.90625 
L 55.078125 72.90625 
L 55.078125 68.703125 
L 28.609375 0 
L 18.3125 0 
L 43.21875 64.59375 
L 8.203125 64.59375 
z
" id="DejaVuSans-55"/>
       </defs>
       <use xlink:href="#DejaVuSans-48"/>
       <use x="63.623047" xlink:href="#DejaVuSans-46"/>
       <use x="95.410156" xlink:href="#DejaVuSans-55"/>
       <use x="159.033203" xlink:href="#DejaVuSans-53"/>
      </g>
     </g>
    </g>
    <g id="ytick_3">
     <g id="line2d_64">
      <path clip-path="url(#p01f8428af4)" d="M 90 227.46908 
L 648 227.46908 
" style="fill:none;stroke:#b0b0b0;stroke-dasharray:0.8,1.32;stroke-dashoffset:0;stroke-width:0.8;"/>
     </g>
     <g id="line2d_65">
      <g>
       <use style="stroke:#000000;stroke-width:0.8;" x="90" xlink:href="#m354ffdef6a" y="227.46908"/>
      </g>
     </g>
     <g id="text_15">
      <!-- 1.00 -->
      <g transform="translate(60.734375 231.268299)scale(0.1 -0.1)">
       <use xlink:href="#DejaVuSans-49"/>
       <use x="63.623047" xlink:href="#DejaVuSans-46"/>
       <use x="95.410156" xlink:href="#DejaVuSans-48"/>
       <use x="159.033203" xlink:href="#DejaVuSans-48"/>
      </g>
     </g>
    </g>
    <g id="ytick_4">
     <g id="line2d_66">
      <path clip-path="url(#p01f8428af4)" d="M 90 195.445657 
L 648 195.445657 
" style="fill:none;stroke:#b0b0b0;stroke-dasharray:0.8,1.32;stroke-dashoffset:0;stroke-width:0.8;"/>
     </g>
     <g id="line2d_67">
      <g>
       <use style="stroke:#000000;stroke-width:0.8;" x="90" xlink:href="#m354ffdef6a" y="195.445657"/>
      </g>
     </g>
     <g id="text_16">
      <!-- 1.25 -->
      <g transform="translate(60.734375 199.244876)scale(0.1 -0.1)">
       <use xlink:href="#DejaVuSans-49"/>
       <use x="63.623047" xlink:href="#DejaVuSans-46"/>
       <use x="95.410156" xlink:href="#DejaVuSans-50"/>
       <use x="159.033203" xlink:href="#DejaVuSans-53"/>
      </g>
     </g>
    </g>
    <g id="ytick_5">
     <g id="line2d_68">
      <path clip-path="url(#p01f8428af4)" d="M 90 163.422233 
L 648 163.422233 
" style="fill:none;stroke:#b0b0b0;stroke-dasharray:0.8,1.32;stroke-dashoffset:0;stroke-width:0.8;"/>
     </g>
     <g id="line2d_69">
      <g>
       <use style="stroke:#000000;stroke-width:0.8;" x="90" xlink:href="#m354ffdef6a" y="163.422233"/>
      </g>
     </g>
     <g id="text_17">
      <!-- 1.50 -->
      <g transform="translate(60.734375 167.221452)scale(0.1 -0.1)">
       <use xlink:href="#DejaVuSans-49"/>
       <use x="63.623047" xlink:href="#DejaVuSans-46"/>
       <use x="95.410156" xlink:href="#DejaVuSans-53"/>
       <use x="159.033203" xlink:href="#DejaVuSans-48"/>
      </g>
     </g>
    </g>
    <g id="ytick_6">
     <g id="line2d_70">
      <path clip-path="url(#p01f8428af4)" d="M 90 131.398809 
L 648 131.398809 
" style="fill:none;stroke:#b0b0b0;stroke-dasharray:0.8,1.32;stroke-dashoffset:0;stroke-width:0.8;"/>
     </g>
     <g id="line2d_71">
      <g>
       <use style="stroke:#000000;stroke-width:0.8;" x="90" xlink:href="#m354ffdef6a" y="131.398809"/>
      </g>
     </g>
     <g id="text_18">
      <!-- 1.75 -->
      <g transform="translate(60.734375 135.198028)scale(0.1 -0.1)">
       <use xlink:href="#DejaVuSans-49"/>
       <use x="63.623047" xlink:href="#DejaVuSans-46"/>
       <use x="95.410156" xlink:href="#DejaVuSans-55"/>
       <use x="159.033203" xlink:href="#DejaVuSans-53"/>
      </g>
     </g>
    </g>
    <g id="ytick_7">
     <g id="line2d_72">
      <path clip-path="url(#p01f8428af4)" d="M 90 99.375386 
L 648 99.375386 
" style="fill:none;stroke:#b0b0b0;stroke-dasharray:0.8,1.32;stroke-dashoffset:0;stroke-width:0.8;"/>
     </g>
     <g id="line2d_73">
      <g>
       <use style="stroke:#000000;stroke-width:0.8;" x="90" xlink:href="#m354ffdef6a" y="99.375386"/>
      </g>
     </g>
     <g id="text_19">
      <!-- 2.00 -->
      <g transform="translate(60.734375 103.174604)scale(0.1 -0.1)">
       <use xlink:href="#DejaVuSans-50"/>
       <use x="63.623047" xlink:href="#DejaVuSans-46"/>
       <use x="95.410156" xlink:href="#DejaVuSans-48"/>
       <use x="159.033203" xlink:href="#DejaVuSans-48"/>
      </g>
     </g>
    </g>
    <g id="ytick_8">
     <g id="line2d_74">
      <path clip-path="url(#p01f8428af4)" d="M 90 67.351962 
L 648 67.351962 
" style="fill:none;stroke:#b0b0b0;stroke-dasharray:0.8,1.32;stroke-dashoffset:0;stroke-width:0.8;"/>
     </g>
     <g id="line2d_75">
      <g>
       <use style="stroke:#000000;stroke-width:0.8;" x="90" xlink:href="#m354ffdef6a" y="67.351962"/>
      </g>
     </g>
     <g id="text_20">
      <!-- 2.25 -->
      <g transform="translate(60.734375 71.151181)scale(0.1 -0.1)">
       <use xlink:href="#DejaVuSans-50"/>
       <use x="63.623047" xlink:href="#DejaVuSans-46"/>
       <use x="95.410156" xlink:href="#DejaVuSans-50"/>
       <use x="159.033203" xlink:href="#DejaVuSans-53"/>
      </g>
     </g>
    </g>
   </g>
   <g id="line2d_76">
    <path clip-path="url(#p01f8428af4)" d="M 90 277.998433 
L 91.660714 277.422912 
L 93.321429 278.264141 
L 94.982143 277.93178 
L 96.642857 278.42621 
L 98.303571 278.219974 
L 99.964286 278.602136 
L 101.625 277.712866 
L 106.607143 278.06465 
L 108.267857 278.029772 
L 109.928571 278.760438 
L 111.589286 278.909134 
L 113.25 279.825127 
L 114.910714 281.034064 
L 116.571429 281.2685 
L 124.875 286.184612 
L 126.535714 287.946405 
L 128.196429 287.582761 
L 129.857143 288.579966 
L 134.839286 288.775573 
L 136.5 288.984848 
L 138.160714 288.955311 
L 139.821429 288.722323 
L 141.482143 288.616478 
L 143.142857 288.314384 
L 144.803571 287.30786 
L 146.464286 285.644252 
L 148.125 284.834131 
L 149.785714 283.780187 
L 151.446429 282.888462 
L 154.767857 279.990091 
L 156.428571 278.8976 
L 158.089286 277.250632 
L 161.410714 274.621775 
L 164.732143 269.437415 
L 166.392857 267.52824 
L 173.035714 258.165066 
L 176.357143 251.519174 
L 178.017857 249.010987 
L 179.678571 245.978612 
L 183 239.038487 
L 186.321429 232.906502 
L 187.982143 228.296619 
L 189.642857 224.609477 
L 196.285714 208.636789 
L 197.946429 204.963896 
L 201.267857 194.485131 
L 202.928571 191.923387 
L 204.589286 188.104899 
L 207.910714 178.27492 
L 211.232143 170.785819 
L 212.892857 167.68077 
L 214.553571 162.52952 
L 216.214286 158.846539 
L 217.875 157.454707 
L 219.535714 156.279858 
L 221.196429 151.607446 
L 222.857143 147.963126 
L 224.517857 145.728096 
L 226.178571 142.602438 
L 227.839286 142.10062 
L 229.5 139.476409 
L 231.160714 140.00187 
L 232.821429 136.750372 
L 234.482143 134.628397 
L 236.142857 133.855946 
L 239.464286 133.174055 
L 241.125 132.832743 
L 242.785714 132.153592 
L 244.446429 130.338657 
L 246.107143 129.680788 
L 247.767857 127.333871 
L 249.428571 125.56183 
L 251.089286 125.038287 
L 252.75 123.862976 
L 254.410714 121.529286 
L 256.071429 118.910089 
L 257.732143 115.942595 
L 259.392857 112.455113 
L 261.053571 107.476769 
L 262.714286 103.936608 
L 264.375 101.294695 
L 266.035714 99.213802 
L 267.696429 96.009822 
L 269.357143 96.124265 
L 271.017857 96.678837 
L 272.678571 97.699628 
L 274.339286 98.458046 
L 276 100.486711 
L 277.660714 104.67633 
L 279.321429 110.777876 
L 280.982143 115.359972 
L 282.642857 121.280274 
L 284.303571 128.133914 
L 285.964286 135.925808 
L 287.625 145.804162 
L 289.285714 154.166893 
L 294.267857 183.459462 
L 297.589286 200.164333 
L 299.25 207.961284 
L 300.910714 215.108904 
L 302.571429 220.347155 
L 304.232143 225.160623 
L 305.892857 228.847871 
L 307.553571 231.745914 
L 309.214286 233.474534 
L 310.875 235.437847 
L 312.535714 235.79279 
L 314.196429 235.721601 
L 315.857143 234.235007 
L 317.517857 234.680693 
L 319.178571 234.283475 
L 320.839286 232.997559 
L 322.5 232.585046 
L 324.160714 231.801567 
L 325.821429 231.212176 
L 327.482143 230.118971 
L 329.142857 229.93244 
L 330.803571 228.917698 
L 332.464286 227.015985 
L 334.125 225.962758 
L 335.785714 222.922846 
L 337.446429 221.103878 
L 339.107143 217.652665 
L 340.767857 214.483844 
L 342.428571 211.033338 
L 344.089286 206.715026 
L 345.75 203.359507 
L 349.071429 197.869101 
L 350.732143 196.724586 
L 352.392857 192.9225 
L 354.053571 190.320622 
L 355.714286 188.409564 
L 359.035714 185.660286 
L 360.696429 183.941516 
L 364.017857 179.893913 
L 365.678571 179.5422 
L 367.339286 179.90162 
L 369 181.406173 
L 370.660714 182.541819 
L 372.321429 183.294905 
L 373.982143 185.777395 
L 375.642857 190.639636 
L 377.303571 195.124594 
L 378.964286 200.104189 
L 380.625 207.221265 
L 382.285714 213.169142 
L 385.607143 226.539828 
L 387.267857 232.807434 
L 388.928571 238.205814 
L 390.589286 243.998769 
L 393.910714 252.35285 
L 395.571429 256.186835 
L 398.892857 263.088508 
L 400.553571 265.465336 
L 403.875 269.625558 
L 405.535714 270.659578 
L 407.196429 271.172129 
L 408.857143 272.391066 
L 410.517857 272.59006 
L 412.178571 272.326249 
L 413.839286 271.530263 
L 415.5 270.206737 
L 417.160714 269.065309 
L 418.821429 267.209916 
L 420.482143 264.666346 
L 422.142857 261.882986 
L 423.803571 258.501876 
L 425.464286 256.085839 
L 427.125 251.835814 
L 428.785714 248.267206 
L 430.446429 244.334313 
L 432.107143 239.42641 
L 433.767857 235.966015 
L 437.089286 226.75548 
L 442.071429 215.936224 
L 443.732143 212.402828 
L 445.392857 209.46511 
L 447.053571 207.831786 
L 453.696429 205.778314 
L 455.357143 206.130443 
L 457.017857 206.632685 
L 458.678571 207.650788 
L 460.339286 209.83544 
L 462 211.231693 
L 463.660714 212.938207 
L 465.321429 214.270979 
L 466.982143 215.452631 
L 470.303571 217.26493 
L 473.625 214.798068 
L 475.285714 213.173765 
L 476.946429 211.328107 
L 478.607143 209.718554 
L 480.267857 208.874432 
L 481.928571 206.977364 
L 483.589286 204.377666 
L 485.25 203.840492 
L 486.910714 201.646743 
L 488.571429 200.423144 
L 490.232143 199.783509 
L 491.892857 198.963588 
L 493.553571 198.566807 
L 495.214286 198.29054 
L 496.875 199.967606 
L 500.196429 201.525964 
L 501.857143 202.537115 
L 503.517857 204.163185 
L 505.178571 206.397518 
L 506.839286 208.223547 
L 508.5 209.769548 
L 510.160714 210.826265 
L 513.482143 213.719834 
L 515.142857 215.220991 
L 516.803571 215.868417 
L 518.464286 217.367644 
L 520.125 218.416944 
L 521.785714 219.167071 
L 523.446429 218.555186 
L 525.107143 219.144956 
L 526.767857 218.635644 
L 528.428571 217.188052 
L 530.089286 215.536284 
L 531.75 213.682986 
L 535.071429 210.846226 
L 536.732143 209.36064 
L 538.392857 208.669734 
L 540.053571 205.83805 
L 541.714286 204.213788 
L 543.375 202.926622 
L 545.035714 202.680277 
L 546.696429 201.241375 
L 548.357143 200.363489 
L 550.017857 200.636571 
L 551.678571 199.393924 
L 553.339286 199.025046 
L 555 199.838669 
L 556.660714 201.149679 
L 558.321429 203.246283 
L 559.982143 204.584769 
L 561.642857 205.072625 
L 564.964286 209.547126 
L 566.625 212.285569 
L 569.946429 219.697776 
L 573.267857 226.193733 
L 574.928571 230.227816 
L 576.589286 232.374586 
L 578.25 236.072671 
L 581.571429 242.388306 
L 583.232143 245.303842 
L 584.892857 247.846024 
L 586.553571 249.683524 
L 588.214286 251.026648 
L 589.875 251.578645 
L 591.535714 252.371307 
L 593.196429 253.022585 
L 594.857143 253.059924 
L 596.517857 253.690241 
L 598.178571 253.519356 
L 599.839286 252.783909 
L 601.5 251.661937 
L 603.160714 250.372514 
L 606.482143 246.578446 
L 608.142857 245.395917 
L 609.803571 244.653903 
L 611.464286 242.667858 
L 613.125 241.143694 
L 614.785714 239.943396 
L 616.446429 238.969781 
L 618.107143 237.203591 
L 619.767857 236.97459 
L 621.428571 236.287899 
L 623.089286 236.098851 
L 624.75 236.031816 
L 626.410714 235.765342 
L 628.071429 235.057666 
L 629.732143 235.22121 
L 633.053571 234.147236 
L 634.714286 234.380428 
L 639.696429 234.298569 
L 641.357143 233.614474 
L 643.017857 234.134148 
L 644.678571 234.168448 
L 646.339286 234.501968 
L 648 234.366674 
L 649.660714 234.043357 
L 651.321429 234.121291 
L 652.982143 234.500123 
L 654.642857 234.149482 
L 656.303571 233.051978 
L 657.964286 232.885356 
L 659.625 233.631355 
L 661.285714 233.362082 
L 661.285714 233.362082 
" style="fill:none;stroke:#fc997a;stroke-linecap:square;stroke-width:1.5;"/>
   </g>
   <g id="line2d_77">
    <path clip-path="url(#p01f8428af4)" d="M 90 227.46908 
L 648 227.46908 
" style="fill:none;stroke:#000000;stroke-dasharray:3.7,1.6;stroke-dashoffset:0;"/>
   </g>
   <g id="patch_3">
    <path d="M 90 315 
L 90 43.2 
" style="fill:none;stroke:#000000;stroke-linecap:square;stroke-linejoin:miter;stroke-width:0.8;"/>
   </g>
   <g id="patch_4">
    <path d="M 648 315 
L 648 43.2 
" style="fill:none;stroke:#000000;stroke-linecap:square;stroke-linejoin:miter;stroke-width:0.8;"/>
   </g>
   <g id="patch_5">
    <path d="M 90 315 
L 648 315 
" style="fill:none;stroke:#000000;stroke-linecap:square;stroke-linejoin:miter;stroke-width:0.8;"/>
   </g>
   <g id="patch_6">
    <path d="M 90 43.2 
L 648 43.2 
" style="fill:none;stroke:#000000;stroke-linecap:square;stroke-linejoin:miter;stroke-width:0.8;"/>
   </g>
   <g id="text_21">
    <!-- 237 -  $R_t$ -->
    <g transform="translate(307.62 37.2)scale(0.12 -0.12)">
     <defs>
      <path d="M 40.578125 39.3125 
Q 47.65625 37.796875 51.625 33 
Q 55.609375 28.21875 55.609375 21.1875 
Q 55.609375 10.40625 48.1875 4.484375 
Q 40.765625 -1.421875 27.09375 -1.421875 
Q 22.515625 -1.421875 17.65625 -0.515625 
Q 12.796875 0.390625 7.625 2.203125 
L 7.625 11.71875 
Q 11.71875 9.328125 16.59375 8.109375 
Q 21.484375 6.890625 26.8125 6.890625 
Q 36.078125 6.890625 40.9375 10.546875 
Q 45.796875 14.203125 45.796875 21.1875 
Q 45.796875 27.640625 41.28125 31.265625 
Q 36.765625 34.90625 28.71875 34.90625 
L 20.21875 34.90625 
L 20.21875 43.015625 
L 29.109375 43.015625 
Q 36.375 43.015625 40.234375 45.921875 
Q 44.09375 48.828125 44.09375 54.296875 
Q 44.09375 59.90625 40.109375 62.90625 
Q 36.140625 65.921875 28.71875 65.921875 
Q 24.65625 65.921875 20.015625 65.03125 
Q 15.375 64.15625 9.8125 62.3125 
L 9.8125 71.09375 
Q 15.4375 72.65625 20.34375 73.4375 
Q 25.25 74.21875 29.59375 74.21875 
Q 40.828125 74.21875 47.359375 69.109375 
Q 53.90625 64.015625 53.90625 55.328125 
Q 53.90625 49.265625 50.4375 45.09375 
Q 46.96875 40.921875 40.578125 39.3125 
z
" id="DejaVuSans-51"/>
      <path id="DejaVuSans-32"/>
      <path d="M 18.171875 54.6875 
L 18.171875 -20.796875 
L 9.078125 -20.796875 
L 9.078125 54.6875 
z
" id="DejaVuSans-1503"/>
      <path d="M 44.140625 40.828125 
L 44.140625 54.6875 
L 53.515625 54.6875 
L 53.515625 40.828125 
Q 53.515625 35.0625 53.046875 30.71875 
Q 52.59375 26.375 51.390625 22.09375 
Q 50.203125 17.828125 48.046875 14.5 
Q 45.90625 11.1875 42.578125 8.078125 
Q 39.265625 4.984375 34.515625 2.390625 
Q 29.78125 -0.203125 23.4375 -2.484375 
L 4.6875 -9.28125 
L 4.6875 -1.03125 
L 18.953125 4.046875 
L 4.296875 54.6875 
L 13.765625 54.6875 
L 27.25 7.125 
Q 33.6875 9.90625 37.203125 13.5625 
Q 40.71875 17.234375 42.421875 23.671875 
Q 44.140625 30.125 44.140625 40.828125 
z
" id="DejaVuSans-1506"/>
      <path d="M 47.359375 27.828125 
L 47.359375 0 
L 38.28125 0 
L 38.28125 27.828125 
Q 38.28125 31.390625 37.765625 34.265625 
Q 37.25 37.15625 36 39.71875 
Q 34.765625 42.28125 32.8125 43.984375 
Q 30.859375 45.703125 27.78125 46.703125 
Q 24.703125 47.703125 20.703125 47.703125 
L 4.296875 47.703125 
L 4.296875 54.6875 
L 20.65625 54.6875 
Q 26.8125 54.6875 31.46875 53.390625 
Q 36.140625 52.09375 39.109375 49.828125 
Q 42.09375 47.5625 43.96875 44.109375 
Q 45.84375 40.671875 46.59375 36.734375 
Q 47.359375 32.8125 47.359375 27.828125 
z
" id="DejaVuSans-1512"/>
      <path d="M 15.71875 54.6875 
L 15.71875 24.125 
L 6.640625 20.40625 
L 6.640625 54.6875 
z
" id="DejaVuSans-1497"/>
      <path d="M 56.640625 29.59375 
L 56.640625 0 
L 47.5625 0 
L 47.5625 29.6875 
Q 47.5625 33.296875 47.3125 35.71875 
Q 47.078125 38.140625 46.1875 40.59375 
Q 45.3125 43.0625 43.75 44.484375 
Q 42.1875 45.90625 39.453125 46.796875 
Q 36.71875 47.703125 32.8125 47.703125 
L 20.796875 47.703125 
L 20.796875 20.21875 
Q 20.796875 9.765625 17.796875 4.6875 
Q 14.796875 -0.390625 7.375 -0.390625 
Q 4.78125 -0.390625 0.984375 0.390625 
L 0.984375 7.375 
Q 4.15625 6.6875 6 6.6875 
Q 9.46875 6.6875 10.59375 9.46875 
Q 11.71875 12.25 11.71875 20.21875 
L 11.71875 47.703125 
L 3.265625 47.703125 
L 3.265625 54.6875 
L 32.8125 54.6875 
Q 39.796875 54.6875 44.5 53.046875 
Q 49.21875 51.421875 51.859375 48.046875 
Q 54.5 44.671875 55.5625 40.28125 
Q 56.640625 35.890625 56.640625 29.59375 
z
" id="DejaVuSans-1514"/>
      <path d="M 4.890625 31.390625 
L 31.203125 31.390625 
L 31.203125 23.390625 
L 4.890625 23.390625 
z
" id="DejaVuSans-45"/>
      <path d="M 36.921875 6.9375 
L 4.296875 54.6875 
L 14.9375 54.6875 
L 33.84375 27 
Q 34.03125 27.15625 34.375 27.390625 
Q 35.546875 28.21875 36.171875 28.75 
Q 36.8125 29.296875 37.890625 30.5625 
Q 38.96875 31.84375 39.546875 33.171875 
Q 40.140625 34.515625 40.59375 36.71875 
Q 41.0625 38.921875 41.0625 41.609375 
L 41.0625 54.6875 
L 50.046875 54.6875 
L 50.046875 45.65625 
Q 50.046875 42.046875 49.609375 38.984375 
Q 49.171875 35.9375 48.53125 33.78125 
Q 47.90625 31.640625 46.78125 29.75 
Q 45.65625 27.875 44.71875 26.75 
Q 43.796875 25.640625 42.3125 24.484375 
Q 40.828125 23.34375 39.9375 22.828125 
Q 39.0625 22.3125 37.59375 21.53125 
L 50.25 3.46875 
L 50.25 0 
L 4.296875 0 
L 4.296875 6.9375 
z
" id="DejaVuSans-1510"/>
      <path d="M 21.78125 6.984375 
L 21.78125 36.28125 
Q 21.78125 42.28125 19.328125 44.984375 
Q 16.890625 47.703125 11.71875 47.703125 
L 5.5625 47.703125 
L 5.5625 54.6875 
L 11.71875 54.6875 
Q 21.734375 54.6875 26.296875 50.359375 
Q 30.859375 46.046875 30.859375 35.25 
L 30.859375 0 
L 4.296875 0 
L 4.296875 6.984375 
z
" id="DejaVuSans-1504"/>
      <path d="M 19.140625 33.40625 
L 19.140625 0 
L 10.109375 0 
L 10.109375 29.6875 
z
M 56.25 27.828125 
L 56.25 0 
L 47.21875 0 
L 47.21875 29.6875 
Q 47.21875 40.234375 44.0625 43.96875 
Q 40.921875 47.703125 31.84375 47.703125 
L 9.078125 47.703125 
L 9.078125 54.6875 
L 31.734375 54.6875 
Q 45.265625 54.6875 50.75 48.578125 
Q 56.25 42.484375 56.25 27.828125 
z
" id="DejaVuSans-1492"/>
      <path d="M 25.203125 64.796875 
L 20.21875 38.921875 
L 32.90625 38.921875 
Q 40.375 38.921875 44.984375 43.046875 
Q 49.609375 47.171875 49.609375 53.8125 
Q 49.609375 59.125 46.5 61.953125 
Q 43.40625 64.796875 37.59375 64.796875 
z
M 43.3125 35.015625 
Q 46.4375 34.28125 48.515625 31.390625 
Q 50.59375 28.515625 53.328125 19.921875 
L 59.515625 0 
L 49.125 0 
L 43.40625 18.703125 
Q 41.21875 25.921875 38.328125 28.359375 
Q 35.453125 30.8125 29.5 30.8125 
L 18.609375 30.8125 
L 12.59375 0 
L 2.6875 0 
L 16.890625 72.90625 
L 39.109375 72.90625 
Q 49.21875 72.90625 54.609375 68.328125 
Q 60.015625 63.765625 60.015625 55.171875 
Q 60.015625 47.5625 55.421875 41.984375 
Q 50.828125 36.421875 43.3125 35.015625 
z
" id="DejaVuSans-Oblique-82"/>
      <path d="M 42.28125 54.6875 
L 40.921875 47.703125 
L 23 47.703125 
L 17.1875 18.015625 
Q 16.890625 16.359375 16.75 15.234375 
Q 16.609375 14.109375 16.609375 13.484375 
Q 16.609375 10.359375 18.484375 8.9375 
Q 20.359375 7.515625 24.515625 7.515625 
L 33.59375 7.515625 
L 32.078125 0 
L 23.484375 0 
Q 15.484375 0 11.546875 3.125 
Q 7.625 6.25 7.625 12.59375 
Q 7.625 13.71875 7.765625 15.0625 
Q 7.90625 16.40625 8.203125 18.015625 
L 14.015625 47.703125 
L 6.390625 47.703125 
L 7.8125 54.6875 
L 15.28125 54.6875 
L 18.3125 70.21875 
L 27.296875 70.21875 
L 24.3125 54.6875 
z
" id="DejaVuSans-Oblique-116"/>
     </defs>
     <use transform="translate(0 0.78125)" xlink:href="#DejaVuSans-50"/>
     <use transform="translate(63.623047 0.78125)" xlink:href="#DejaVuSans-51"/>
     <use transform="translate(127.246094 0.78125)" xlink:href="#DejaVuSans-55"/>
     <use transform="translate(190.869141 0.78125)" xlink:href="#DejaVuSans-32"/>
     <use transform="translate(222.65625 0.78125)" xlink:href="#DejaVuSans-1503"/>
     <use transform="translate(249.902344 0.78125)" xlink:href="#DejaVuSans-1506"/>
     <use transform="translate(312.5 0.78125)" xlink:href="#DejaVuSans-1512"/>
     <use transform="translate(368.945312 0.78125)" xlink:href="#DejaVuSans-1497"/>
     <use transform="translate(391.308594 0.78125)" xlink:href="#DejaVuSans-1514"/>
     <use transform="translate(457.03125 0.78125)" xlink:href="#DejaVuSans-45"/>
     <use transform="translate(493.115234 0.78125)" xlink:href="#DejaVuSans-1514"/>
     <use transform="translate(558.837891 0.78125)" xlink:href="#DejaVuSans-1512"/>
     <use transform="translate(615.283203 0.78125)" xlink:href="#DejaVuSans-1510"/>
     <use transform="translate(674.609375 0.78125)" xlink:href="#DejaVuSans-1504"/>
     <use transform="translate(714.648438 0.78125)" xlink:href="#DejaVuSans-32"/>
     <use transform="translate(746.435547 0.78125)" xlink:href="#DejaVuSans-1497"/>
     <use transform="translate(768.798828 0.78125)" xlink:href="#DejaVuSans-1512"/>
     <use transform="translate(825.244141 0.78125)" xlink:href="#DejaVuSans-1492"/>
     <use transform="translate(890.576172 0.78125)" xlink:href="#DejaVuSans-32"/>
     <use transform="translate(922.363281 0.78125)" xlink:href="#DejaVuSans-Oblique-82"/>
     <use transform="translate(991.845703 -15.625)scale(0.7)" xlink:href="#DejaVuSans-Oblique-116"/>
    </g>
   </g>
  </g>
 </g>
 <defs>
  <clipPath id="p01f8428af4">
   <rect height="271.8" width="558" x="90" y="43.2"/>
  </clipPath>
 </defs>
</svg>
