<?xml version="1.0" encoding="utf-8" standalone="no"?>
<!DOCTYPE svg PUBLIC "-//W3C//DTD SVG 1.1//EN"
  "http://www.w3.org/Graphics/SVG/1.1/DTD/svg11.dtd">
<!-- Created with matplotlib (https://matplotlib.org/) -->
<svg height="360pt" version="1.1" viewBox="0 0 720 360" width="720pt" xmlns="http://www.w3.org/2000/svg" xmlns:xlink="http://www.w3.org/1999/xlink">
 <metadata>
  <rdf:RDF xmlns:cc="http://creativecommons.org/ns#" xmlns:dc="http://purl.org/dc/elements/1.1/" xmlns:rdf="http://www.w3.org/1999/02/22-rdf-syntax-ns#">
   <cc:Work>
    <dc:type rdf:resource="http://purl.org/dc/dcmitype/StillImage"/>
    <dc:date>2021-02-17T22:26:03.818448</dc:date>
    <dc:format>image/svg+xml</dc:format>
    <dc:creator>
     <cc:Agent>
      <dc:title>Matplotlib v3.3.2, https://matplotlib.org/</dc:title>
     </cc:Agent>
    </dc:creator>
   </cc:Work>
  </rdf:RDF>
 </metadata>
 <defs>
  <style type="text/css">*{stroke-linecap:butt;stroke-linejoin:round;}</style>
 </defs>
 <g id="figure_1">
  <g id="patch_1">
   <path d="M 0 360 
L 720 360 
L 720 0 
L 0 0 
z
" style="fill:#ffffff;"/>
  </g>
  <g id="axes_1">
   <g id="patch_2">
    <path d="M 90 315 
L 648 315 
L 648 43.2 
L 90 43.2 
z
" style="fill:#ffffff;"/>
   </g>
   <g id="PolyCollection_1">
    <defs>
     <path d="M 90 -176.861782 
L 90 -303.158113 
L 91.670659 -304.445455 
L 93.341317 -302.262395 
L 95.011976 -288.688768 
L 96.682635 -289.787836 
L 98.353293 -283.741407 
L 100.023952 -270.723129 
L 101.694611 -262.805681 
L 103.365269 -254.765668 
L 105.035928 -236.25343 
L 106.706587 -221.22473 
L 108.377246 -209.727149 
L 110.047904 -196.755916 
L 111.718563 -182.725375 
L 113.389222 -168.88969 
L 115.05988 -156.067524 
L 116.730539 -149.074372 
L 118.401198 -136.653844 
L 120.071856 -128.000585 
L 121.742515 -122.748644 
L 123.413174 -116.832077 
L 125.083832 -112.373903 
L 126.754491 -105.105823 
L 128.42515 -101.969662 
L 130.095808 -97.894505 
L 131.766467 -94.631886 
L 133.437126 -92.245455 
L 135.107784 -90.609813 
L 136.778443 -84.809668 
L 138.449102 -83.408919 
L 140.11976 -81.83292 
L 141.790419 -80.12933 
L 143.461078 -78.107962 
L 145.131737 -76.54738 
L 146.802395 -75.594561 
L 148.473054 -76.90484 
L 150.143713 -74.695192 
L 151.814371 -74.267318 
L 153.48503 -74.207552 
L 155.155689 -75.10398 
L 156.826347 -75.993011 
L 158.497006 -77.09716 
L 160.167665 -79.35424 
L 161.838323 -79.323531 
L 163.508982 -80.870869 
L 165.179641 -82.764516 
L 166.850299 -86.115759 
L 168.520958 -87.8689 
L 170.191617 -91.138974 
L 171.862275 -93.239526 
L 173.532934 -99.601064 
L 175.203593 -101.994069 
L 176.874251 -106.277901 
L 178.54491 -110.157898 
L 180.215569 -115.92385 
L 181.886228 -119.591884 
L 183.556886 -123.361823 
L 185.227545 -132.725486 
L 186.898204 -139.889333 
L 188.568862 -145.690928 
L 190.239521 -153.05464 
L 191.91018 -166.097791 
L 193.580838 -171.844044 
L 195.251497 -178.405923 
L 196.922156 -190.717452 
L 198.592814 -198.931539 
L 200.263473 -208.126091 
L 201.934132 -220.085371 
L 203.60479 -229.198056 
L 205.275449 -243.061627 
L 206.946108 -246.992714 
L 208.616766 -250.872265 
L 210.287425 -260.82015 
L 211.958084 -271.124059 
L 213.628743 -272.441215 
L 215.299401 -276.949153 
L 216.97006 -276.379964 
L 218.640719 -278.93883 
L 220.311377 -272.399459 
L 221.982036 -274.117232 
L 223.652695 -270.184615 
L 225.323353 -270.731765 
L 226.994012 -266.033725 
L 228.664671 -262.284268 
L 230.335329 -257.593817 
L 232.005988 -257.065981 
L 233.676647 -251.279012 
L 235.347305 -249.057014 
L 237.017964 -243.980852 
L 238.688623 -238.914084 
L 240.359281 -239.98621 
L 242.02994 -240.270106 
L 243.700599 -237.058845 
L 245.371257 -233.535482 
L 247.041916 -232.267029 
L 248.712575 -228.839827 
L 250.383234 -233.337377 
L 252.053892 -228.600075 
L 253.724551 -224.758782 
L 255.39521 -224.741354 
L 257.065868 -225.023975 
L 258.736527 -224.040393 
L 260.407186 -216.085364 
L 262.077844 -217.847001 
L 263.748503 -213.768371 
L 265.419162 -210.53897 
L 267.08982 -210.998975 
L 268.760479 -204.525247 
L 270.431138 -202.40583 
L 272.101796 -197.585008 
L 273.772455 -197.314744 
L 275.443114 -196.63255 
L 277.113772 -190.030178 
L 278.784431 -190.829004 
L 280.45509 -187.866796 
L 282.125749 -184.393298 
L 283.796407 -180.714688 
L 285.467066 -174.71624 
L 287.137725 -173.910341 
L 288.808383 -168.146808 
L 290.479042 -166.292534 
L 292.149701 -164.596287 
L 293.820359 -157.436155 
L 295.491018 -157.913954 
L 297.161677 -153.303933 
L 298.832335 -150.958825 
L 300.502994 -148.108684 
L 302.173653 -147.853543 
L 303.844311 -144.641306 
L 305.51497 -142.066565 
L 307.185629 -138.99341 
L 308.856287 -136.051472 
L 310.526946 -134.463643 
L 312.197605 -133.841687 
L 313.868263 -135.060945 
L 315.538922 -133.527531 
L 317.209581 -134.554029 
L 318.88024 -132.117725 
L 320.550898 -132.595911 
L 322.221557 -133.07702 
L 323.892216 -134.341003 
L 325.562874 -134.115076 
L 327.233533 -133.392022 
L 328.904192 -134.233112 
L 330.57485 -137.501697 
L 332.245509 -138.267842 
L 333.916168 -141.097116 
L 335.586826 -140.833368 
L 337.257485 -145.246968 
L 338.928144 -146.42311 
L 340.598802 -150.971592 
L 342.269461 -151.786979 
L 343.94012 -153.758106 
L 345.610778 -155.768395 
L 347.281437 -162.349852 
L 348.952096 -165.36042 
L 350.622754 -168.842287 
L 352.293413 -171.405877 
L 353.964072 -177.996991 
L 355.634731 -181.130789 
L 357.305389 -184.299019 
L 358.976048 -190.598758 
L 360.646707 -190.192481 
L 362.317365 -197.828657 
L 363.988024 -199.255208 
L 365.658683 -199.913233 
L 367.329341 -207.150126 
L 369 -208.395731 
L 370.670659 -211.668976 
L 372.341317 -212.416629 
L 374.011976 -213.999606 
L 375.682635 -215.057422 
L 377.353293 -212.238066 
L 379.023952 -216.646365 
L 380.694611 -212.586348 
L 382.365269 -211.095575 
L 384.035928 -216.717346 
L 385.706587 -212.919192 
L 387.377246 -207.622673 
L 389.047904 -207.619715 
L 390.718563 -204.599323 
L 392.389222 -201.95125 
L 394.05988 -203.026823 
L 395.730539 -197.510836 
L 397.401198 -195.572617 
L 399.071856 -190.349698 
L 400.742515 -187.540569 
L 402.413174 -181.588851 
L 404.083832 -178.729322 
L 405.754491 -173.530739 
L 407.42515 -165.178875 
L 409.095808 -157.641727 
L 410.766467 -148.836657 
L 412.437126 -142.231759 
L 414.107784 -132.956234 
L 415.778443 -128.923997 
L 417.449102 -119.602755 
L 419.11976 -113.908827 
L 420.790419 -106.524916 
L 422.461078 -100.984856 
L 424.131737 -97.317535 
L 425.802395 -91.122135 
L 427.473054 -88.379305 
L 429.143713 -84.792427 
L 430.814371 -82.880577 
L 432.48503 -81.261516 
L 434.155689 -79.61554 
L 435.826347 -79.367278 
L 437.497006 -77.689195 
L 439.167665 -77.036503 
L 440.838323 -77.913043 
L 442.508982 -77.955877 
L 444.179641 -78.457316 
L 445.850299 -80.947399 
L 447.520958 -80.994324 
L 449.191617 -81.810992 
L 450.862275 -85.223118 
L 452.532934 -86.799736 
L 454.203593 -89.317509 
L 455.874251 -93.547937 
L 457.54491 -96.160597 
L 459.215569 -101.886284 
L 460.886228 -103.895284 
L 462.556886 -108.029585 
L 464.227545 -113.399218 
L 465.898204 -117.505778 
L 467.568862 -123.160686 
L 469.239521 -127.107468 
L 470.91018 -130.335842 
L 472.580838 -137.279513 
L 474.251497 -140.413479 
L 475.922156 -143.249704 
L 477.592814 -145.855253 
L 479.263473 -148.567203 
L 480.934132 -151.695362 
L 482.60479 -156.703156 
L 484.275449 -157.432881 
L 485.946108 -161.312804 
L 487.616766 -162.126427 
L 489.287425 -165.312478 
L 490.958084 -166.473198 
L 492.628743 -168.420704 
L 494.299401 -167.988004 
L 495.97006 -172.862945 
L 497.640719 -173.558697 
L 499.311377 -175.407246 
L 500.982036 -175.630763 
L 502.652695 -176.305792 
L 504.323353 -179.206935 
L 505.994012 -182.579882 
L 507.664671 -186.601787 
L 509.335329 -186.551419 
L 511.005988 -191.430847 
L 512.676647 -195.451224 
L 514.347305 -199.515282 
L 516.017964 -201.301082 
L 517.688623 -203.423289 
L 519.359281 -211.690262 
L 521.02994 -215.572132 
L 522.700599 -218.289177 
L 524.371257 -217.688332 
L 526.041916 -220.979722 
L 527.712575 -221.71034 
L 529.383234 -227.700666 
L 531.053892 -229.115589 
L 532.724551 -232.459268 
L 534.39521 -234.363924 
L 536.065868 -234.405975 
L 537.736527 -238.914508 
L 539.407186 -240.709295 
L 541.077844 -235.790641 
L 542.748503 -241.669383 
L 544.419162 -240.241649 
L 546.08982 -236.523978 
L 547.760479 -242.209194 
L 549.431138 -238.073237 
L 551.101796 -237.413303 
L 552.772455 -237.254852 
L 554.443114 -232.200484 
L 556.113772 -226.260308 
L 557.784431 -222.038324 
L 559.45509 -220.65984 
L 561.125749 -222.031497 
L 562.796407 -215.295004 
L 564.467066 -214.247315 
L 566.137725 -214.554464 
L 567.808383 -209.569421 
L 569.479042 -209.544445 
L 571.149701 -206.211484 
L 572.820359 -204.355367 
L 574.491018 -198.138574 
L 576.161677 -196.330522 
L 577.832335 -196.127855 
L 579.502994 -192.737422 
L 581.173653 -184.711871 
L 582.844311 -181.532287 
L 584.51497 -180.648985 
L 586.185629 -172.463292 
L 587.856287 -171.264337 
L 589.526946 -167.425361 
L 591.197605 -163.126408 
L 592.868263 -160.754238 
L 594.538922 -159.272702 
L 596.209581 -157.110516 
L 597.88024 -153.779284 
L 599.550898 -148.993008 
L 601.221557 -147.492285 
L 602.892216 -145.478546 
L 604.562874 -143.766095 
L 606.233533 -142.142083 
L 607.904192 -140.313929 
L 609.57485 -139.488403 
L 611.245509 -136.509773 
L 612.916168 -136.291006 
L 614.586826 -134.589318 
L 616.257485 -131.54823 
L 617.928144 -131.898252 
L 619.598802 -129.289027 
L 621.269461 -127.958337 
L 622.94012 -126.810806 
L 624.610778 -123.832847 
L 626.281437 -123.89591 
L 627.952096 -123.648602 
L 629.622754 -125.581014 
L 631.293413 -122.448651 
L 632.964072 -121.668521 
L 634.634731 -124.625096 
L 636.305389 -121.863847 
L 637.976048 -123.589266 
L 639.646707 -121.814097 
L 641.317365 -127.259046 
L 642.988024 -123.271545 
L 644.658683 -126.132853 
L 646.329341 -129.338691 
L 648 -128.503315 
L 649.670659 -129.837214 
L 651.341317 -130.282169 
L 653.011976 -133.005614 
L 654.682635 -135.251152 
L 656.353293 -138.073156 
L 658.023952 -137.146802 
L 659.694611 -136.110672 
L 661.365269 -136.136411 
L 661.365269 -69.493631 
L 661.365269 -69.493631 
L 659.694611 -69.752662 
L 658.023952 -72.572321 
L 656.353293 -75.425006 
L 654.682635 -74.463948 
L 653.011976 -74.061065 
L 651.341317 -73.432626 
L 649.670659 -75.221458 
L 648 -77.356637 
L 646.329341 -78.204343 
L 644.658683 -76.818483 
L 642.988024 -77.40497 
L 641.317365 -84.554504 
L 639.646707 -81.873318 
L 637.976048 -85.964643 
L 636.305389 -83.173426 
L 634.634731 -87.916112 
L 632.964072 -87.319349 
L 631.293413 -88.617006 
L 629.622754 -94.414268 
L 627.952096 -94.036801 
L 626.281437 -94.395087 
L 624.610778 -94.697732 
L 622.94012 -98.892056 
L 621.269461 -99.19711 
L 619.598802 -99.757936 
L 617.928144 -101.377236 
L 616.257485 -100.959029 
L 614.586826 -102.553658 
L 612.916168 -104.314819 
L 611.245509 -104.49222 
L 609.57485 -108.316467 
L 607.904192 -108.680452 
L 606.233533 -110.794772 
L 604.562874 -113.597759 
L 602.892216 -115.888655 
L 601.221557 -117.151889 
L 599.550898 -118.425615 
L 597.88024 -122.2185 
L 596.209581 -123.415886 
L 594.538922 -124.449477 
L 592.868263 -126.567238 
L 591.197605 -128.456959 
L 589.526946 -131.094171 
L 587.856287 -135.158466 
L 586.185629 -136.27936 
L 584.51497 -143.118384 
L 582.844311 -145.192617 
L 581.173653 -145.468237 
L 579.502994 -154.175481 
L 577.832335 -155.9928 
L 576.161677 -156.125057 
L 574.491018 -155.96528 
L 572.820359 -162.591508 
L 571.149701 -163.88676 
L 569.479042 -166.109905 
L 567.808383 -167.200069 
L 566.137725 -170.390744 
L 564.467066 -170.207711 
L 562.796407 -167.047502 
L 561.125749 -175.21658 
L 559.45509 -174.664357 
L 557.784431 -175.380393 
L 556.113772 -178.768342 
L 554.443114 -180.96021 
L 552.772455 -186.316316 
L 551.101796 -185.953252 
L 549.431138 -186.227609 
L 547.760479 -192.949249 
L 546.08982 -187.091251 
L 544.419162 -190.725849 
L 542.748503 -190.690549 
L 541.077844 -185.248416 
L 539.407186 -186.961998 
L 537.736527 -186.668878 
L 536.065868 -182.164486 
L 534.39521 -180.418038 
L 532.724551 -180.100773 
L 531.053892 -180.440924 
L 529.383234 -176.871797 
L 527.712575 -173.681501 
L 526.041916 -175.807081 
L 524.371257 -172.25112 
L 522.700599 -170.85382 
L 521.02994 -168.134752 
L 519.359281 -164.535246 
L 517.688623 -159.360945 
L 516.017964 -156.766322 
L 514.347305 -155.062434 
L 512.676647 -152.314805 
L 511.005988 -148.497516 
L 509.335329 -144.599714 
L 507.664671 -145.274361 
L 505.994012 -140.148672 
L 504.323353 -139.756692 
L 502.652695 -136.287629 
L 500.982036 -136.385144 
L 499.311377 -134.626991 
L 497.640719 -132.715911 
L 495.97006 -132.763447 
L 494.299401 -126.509755 
L 492.628743 -129.287383 
L 490.958084 -127.285772 
L 489.287425 -126.74857 
L 487.616766 -125.325351 
L 485.946108 -123.867279 
L 484.275449 -120.623388 
L 482.60479 -120.427355 
L 480.934132 -115.680484 
L 479.263473 -114.100443 
L 477.592814 -111.817236 
L 475.922156 -107.009316 
L 474.251497 -105.530308 
L 472.580838 -105.828215 
L 470.91018 -100.116358 
L 469.239521 -98.170084 
L 467.568862 -95.715411 
L 465.898204 -91.116918 
L 464.227545 -87.248654 
L 462.556886 -84.151093 
L 460.886228 -79.287302 
L 459.215569 -78.407073 
L 457.54491 -73.660291 
L 455.874251 -72.81841 
L 454.203593 -70.153433 
L 452.532934 -67.705441 
L 450.862275 -66.15568 
L 449.191617 -63.52958 
L 447.520958 -63.168848 
L 445.850299 -62.476771 
L 444.179641 -59.982999 
L 442.508982 -59.025091 
L 440.838323 -60.068706 
L 439.167665 -58.78603 
L 437.497006 -60.13809 
L 435.826347 -60.806403 
L 434.155689 -61.476081 
L 432.48503 -63.194132 
L 430.814371 -63.950293 
L 429.143713 -65.992199 
L 427.473054 -68.863464 
L 425.802395 -71.205485 
L 424.131737 -75.40799 
L 422.461078 -78.441831 
L 420.790419 -83.221947 
L 419.11976 -87.787221 
L 417.449102 -92.839615 
L 415.778443 -101.569163 
L 414.107784 -103.157668 
L 412.437126 -111.817263 
L 410.766467 -116.779967 
L 409.095808 -124.437375 
L 407.42515 -131.116639 
L 405.754491 -137.701495 
L 404.083832 -142.280489 
L 402.413174 -142.216376 
L 400.742515 -148.859056 
L 399.071856 -150.595341 
L 397.401198 -154.72924 
L 395.730539 -157.444233 
L 394.05988 -159.473481 
L 392.389222 -160.157511 
L 390.718563 -160.567265 
L 389.047904 -163.034894 
L 387.377246 -159.46022 
L 385.706587 -162.056189 
L 384.035928 -165.95885 
L 382.365269 -159.920691 
L 380.694611 -161.65091 
L 379.023952 -166.561935 
L 377.353293 -163.230868 
L 375.682635 -166.900866 
L 374.011976 -166.882167 
L 372.341317 -166.070519 
L 370.670659 -164.999928 
L 369 -163.126009 
L 367.329341 -161.869565 
L 365.658683 -154.758288 
L 363.988024 -155.754208 
L 362.317365 -152.588413 
L 360.646707 -147.29882 
L 358.976048 -147.280168 
L 357.305389 -140.790463 
L 355.634731 -140.602836 
L 353.964072 -137.780881 
L 352.293413 -133.385599 
L 350.622754 -131.049333 
L 348.952096 -128.068131 
L 347.281437 -126.395875 
L 345.610778 -121.759692 
L 343.94012 -119.468342 
L 342.269461 -118.138185 
L 340.598802 -117.101152 
L 338.928144 -114.159597 
L 337.257485 -115.133 
L 335.586826 -111.29914 
L 333.916168 -110.546608 
L 332.245509 -108.469257 
L 330.57485 -108.590566 
L 328.904192 -104.480379 
L 327.233533 -104.836012 
L 325.562874 -105.425387 
L 323.892216 -104.971431 
L 322.221557 -104.57785 
L 320.550898 -104.120199 
L 318.88024 -103.000134 
L 317.209581 -106.074312 
L 315.538922 -105.71763 
L 313.868263 -105.676092 
L 312.197605 -105.03665 
L 310.526946 -104.907712 
L 308.856287 -105.807137 
L 307.185629 -107.114587 
L 305.51497 -110.160437 
L 303.844311 -110.779473 
L 302.173653 -115.78635 
L 300.502994 -117.096697 
L 298.832335 -119.60625 
L 297.161677 -121.713556 
L 295.491018 -123.673549 
L 293.820359 -124.057081 
L 292.149701 -129.511394 
L 290.479042 -131.044745 
L 288.808383 -132.846834 
L 287.137725 -136.0846 
L 285.467066 -137.0196 
L 283.796407 -140.735606 
L 282.125749 -143.623653 
L 280.45509 -146.127781 
L 278.784431 -150.40386 
L 277.113772 -151.061093 
L 275.443114 -154.585883 
L 273.772455 -152.878706 
L 272.101796 -154.680704 
L 270.431138 -159.402084 
L 268.760479 -160.663975 
L 267.08982 -165.16094 
L 265.419162 -163.718307 
L 263.748503 -167.730804 
L 262.077844 -173.210633 
L 260.407186 -170.985966 
L 258.736527 -175.019962 
L 257.065868 -178.075324 
L 255.39521 -177.860324 
L 253.724551 -174.706889 
L 252.053892 -175.879208 
L 250.383234 -179.405434 
L 248.712575 -179.151648 
L 247.041916 -183.186789 
L 245.371257 -183.42086 
L 243.700599 -186.914853 
L 242.02994 -187.679279 
L 240.359281 -186.724647 
L 238.688623 -186.485584 
L 237.017964 -191.588565 
L 235.347305 -195.657314 
L 233.676647 -197.085452 
L 232.005988 -200.113027 
L 230.335329 -200.956689 
L 228.664671 -203.152204 
L 226.994012 -205.199321 
L 225.323353 -206.719175 
L 223.652695 -205.060764 
L 221.982036 -207.891316 
L 220.311377 -206.140839 
L 218.640719 -212.002892 
L 216.97006 -208.253352 
L 215.299401 -209.809198 
L 213.628743 -206.621331 
L 211.958084 -205.606844 
L 210.287425 -198.242894 
L 208.616766 -187.727253 
L 206.946108 -184.599319 
L 205.275449 -184.02055 
L 203.60479 -175.861994 
L 201.934132 -167.518549 
L 200.263473 -158.289985 
L 198.592814 -151.565521 
L 196.922156 -145.032954 
L 195.251497 -134.603863 
L 193.580838 -132.643062 
L 191.91018 -126.733651 
L 190.239521 -116.926598 
L 188.568862 -109.509752 
L 186.898204 -105.798553 
L 185.227545 -100.386655 
L 183.556886 -93.55893 
L 181.886228 -90.894676 
L 180.215569 -88.065453 
L 178.54491 -84.698421 
L 176.874251 -80.901424 
L 175.203593 -77.887131 
L 173.532934 -76.288658 
L 171.862275 -71.14734 
L 170.191617 -68.935099 
L 168.520958 -66.708356 
L 166.850299 -65.869404 
L 165.179641 -63.028788 
L 163.508982 -62.373064 
L 161.838323 -60.761621 
L 160.167665 -61.158085 
L 158.497006 -58.968075 
L 156.826347 -58.581176 
L 155.155689 -57.780351 
L 153.48503 -57.354545 
L 151.814371 -57.513857 
L 150.143713 -57.668411 
L 148.473054 -59.801862 
L 146.802395 -58.531521 
L 145.131737 -58.631466 
L 143.461078 -60.222097 
L 141.790419 -62.204846 
L 140.11976 -63.113607 
L 138.449102 -64.534363 
L 136.778443 -65.469046 
L 135.107784 -70.305093 
L 133.437126 -71.781053 
L 131.766467 -73.458156 
L 130.095808 -76.299485 
L 128.42515 -79.622859 
L 126.754491 -82.93401 
L 125.083832 -87.97265 
L 123.413174 -91.233495 
L 121.742515 -97.014284 
L 120.071856 -100.615479 
L 118.401198 -107.116301 
L 116.730539 -117.08459 
L 115.05988 -123.618092 
L 113.389222 -130.662664 
L 111.718563 -140.831793 
L 110.047904 -147.854447 
L 108.377246 -157.063729 
L 106.706587 -162.649012 
L 105.035928 -171.755552 
L 103.365269 -180.388261 
L 101.694611 -184.936994 
L 100.023952 -187.449499 
L 98.353293 -192.182329 
L 96.682635 -191.494309 
L 95.011976 -183.188445 
L 93.341317 -191.030715 
L 91.670659 -186.684714 
L 90 -176.861782 
z
" id="mfbff1e5df6" style="stroke:#fdcbb6;stroke-opacity:0.8;"/>
    </defs>
    <g clip-path="url(#pa15dcca553)">
     <use style="fill:#fdcbb6;fill-opacity:0.8;stroke:#fdcbb6;stroke-opacity:0.8;" x="0" xlink:href="#mfbff1e5df6" y="360"/>
    </g>
   </g>
   <g id="matplotlib.axis_1">
    <g id="xtick_1">
     <g id="line2d_1">
      <defs>
       <path d="M 0 0 
L 0 3.5 
" id="ma26decb97b" style="stroke:#000000;stroke-width:0.8;"/>
      </defs>
      <g>
       <use style="stroke:#000000;stroke-width:0.8;" x="90" xlink:href="#ma26decb97b" y="315"/>
      </g>
     </g>
    </g>
    <g id="xtick_2">
     <g id="line2d_2">
      <g>
       <use style="stroke:#000000;stroke-width:0.8;" x="126.754491" xlink:href="#ma26decb97b" y="315"/>
      </g>
     </g>
     <g id="text_1">
      <!-- Apr -->
      <g transform="translate(118.104491 329.598437)scale(0.1 -0.1)">
       <defs>
        <path d="M 34.1875 63.1875 
L 20.796875 26.90625 
L 47.609375 26.90625 
z
M 28.609375 72.90625 
L 39.796875 72.90625 
L 67.578125 0 
L 57.328125 0 
L 50.6875 18.703125 
L 17.828125 18.703125 
L 11.1875 0 
L 0.78125 0 
z
" id="DejaVuSans-65"/>
        <path d="M 18.109375 8.203125 
L 18.109375 -20.796875 
L 9.078125 -20.796875 
L 9.078125 54.6875 
L 18.109375 54.6875 
L 18.109375 46.390625 
Q 20.953125 51.265625 25.265625 53.625 
Q 29.59375 56 35.59375 56 
Q 45.5625 56 51.78125 48.09375 
Q 58.015625 40.1875 58.015625 27.296875 
Q 58.015625 14.40625 51.78125 6.484375 
Q 45.5625 -1.421875 35.59375 -1.421875 
Q 29.59375 -1.421875 25.265625 0.953125 
Q 20.953125 3.328125 18.109375 8.203125 
z
M 48.6875 27.296875 
Q 48.6875 37.203125 44.609375 42.84375 
Q 40.53125 48.484375 33.40625 48.484375 
Q 26.265625 48.484375 22.1875 42.84375 
Q 18.109375 37.203125 18.109375 27.296875 
Q 18.109375 17.390625 22.1875 11.75 
Q 26.265625 6.109375 33.40625 6.109375 
Q 40.53125 6.109375 44.609375 11.75 
Q 48.6875 17.390625 48.6875 27.296875 
z
" id="DejaVuSans-112"/>
        <path d="M 41.109375 46.296875 
Q 39.59375 47.171875 37.8125 47.578125 
Q 36.03125 48 33.890625 48 
Q 26.265625 48 22.1875 43.046875 
Q 18.109375 38.09375 18.109375 28.8125 
L 18.109375 0 
L 9.078125 0 
L 9.078125 54.6875 
L 18.109375 54.6875 
L 18.109375 46.1875 
Q 20.953125 51.171875 25.484375 53.578125 
Q 30.03125 56 36.53125 56 
Q 37.453125 56 38.578125 55.875 
Q 39.703125 55.765625 41.0625 55.515625 
z
" id="DejaVuSans-114"/>
       </defs>
       <use xlink:href="#DejaVuSans-65"/>
       <use x="68.408203" xlink:href="#DejaVuSans-112"/>
       <use x="131.884766" xlink:href="#DejaVuSans-114"/>
      </g>
     </g>
    </g>
    <g id="xtick_3">
     <g id="line2d_3">
      <g>
       <use style="stroke:#000000;stroke-width:0.8;" x="176.874251" xlink:href="#ma26decb97b" y="315"/>
      </g>
     </g>
     <g id="text_2">
      <!-- May -->
      <g transform="translate(166.536751 329.598437)scale(0.1 -0.1)">
       <defs>
        <path d="M 9.8125 72.90625 
L 24.515625 72.90625 
L 43.109375 23.296875 
L 61.8125 72.90625 
L 76.515625 72.90625 
L 76.515625 0 
L 66.890625 0 
L 66.890625 64.015625 
L 48.09375 14.015625 
L 38.1875 14.015625 
L 19.390625 64.015625 
L 19.390625 0 
L 9.8125 0 
z
" id="DejaVuSans-77"/>
        <path d="M 34.28125 27.484375 
Q 23.390625 27.484375 19.1875 25 
Q 14.984375 22.515625 14.984375 16.5 
Q 14.984375 11.71875 18.140625 8.90625 
Q 21.296875 6.109375 26.703125 6.109375 
Q 34.1875 6.109375 38.703125 11.40625 
Q 43.21875 16.703125 43.21875 25.484375 
L 43.21875 27.484375 
z
M 52.203125 31.203125 
L 52.203125 0 
L 43.21875 0 
L 43.21875 8.296875 
Q 40.140625 3.328125 35.546875 0.953125 
Q 30.953125 -1.421875 24.3125 -1.421875 
Q 15.921875 -1.421875 10.953125 3.296875 
Q 6 8.015625 6 15.921875 
Q 6 25.140625 12.171875 29.828125 
Q 18.359375 34.515625 30.609375 34.515625 
L 43.21875 34.515625 
L 43.21875 35.40625 
Q 43.21875 41.609375 39.140625 45 
Q 35.0625 48.390625 27.6875 48.390625 
Q 23 48.390625 18.546875 47.265625 
Q 14.109375 46.140625 10.015625 43.890625 
L 10.015625 52.203125 
Q 14.9375 54.109375 19.578125 55.046875 
Q 24.21875 56 28.609375 56 
Q 40.484375 56 46.34375 49.84375 
Q 52.203125 43.703125 52.203125 31.203125 
z
" id="DejaVuSans-97"/>
        <path d="M 32.171875 -5.078125 
Q 28.375 -14.84375 24.75 -17.8125 
Q 21.140625 -20.796875 15.09375 -20.796875 
L 7.90625 -20.796875 
L 7.90625 -13.28125 
L 13.1875 -13.28125 
Q 16.890625 -13.28125 18.9375 -11.515625 
Q 21 -9.765625 23.484375 -3.21875 
L 25.09375 0.875 
L 2.984375 54.6875 
L 12.5 54.6875 
L 29.59375 11.921875 
L 46.6875 54.6875 
L 56.203125 54.6875 
z
" id="DejaVuSans-121"/>
       </defs>
       <use xlink:href="#DejaVuSans-77"/>
       <use x="86.279297" xlink:href="#DejaVuSans-97"/>
       <use x="147.558594" xlink:href="#DejaVuSans-121"/>
      </g>
     </g>
    </g>
    <g id="xtick_4">
     <g id="line2d_4">
      <g>
       <use style="stroke:#000000;stroke-width:0.8;" x="228.664671" xlink:href="#ma26decb97b" y="315"/>
      </g>
     </g>
     <g id="text_3">
      <!-- Jun -->
      <g transform="translate(220.852171 329.598437)scale(0.1 -0.1)">
       <defs>
        <path d="M 9.8125 72.90625 
L 19.671875 72.90625 
L 19.671875 5.078125 
Q 19.671875 -8.109375 14.671875 -14.0625 
Q 9.671875 -20.015625 -1.421875 -20.015625 
L -5.171875 -20.015625 
L -5.171875 -11.71875 
L -2.09375 -11.71875 
Q 4.4375 -11.71875 7.125 -8.046875 
Q 9.8125 -4.390625 9.8125 5.078125 
z
" id="DejaVuSans-74"/>
        <path d="M 8.5 21.578125 
L 8.5 54.6875 
L 17.484375 54.6875 
L 17.484375 21.921875 
Q 17.484375 14.15625 20.5 10.265625 
Q 23.53125 6.390625 29.59375 6.390625 
Q 36.859375 6.390625 41.078125 11.03125 
Q 45.3125 15.671875 45.3125 23.6875 
L 45.3125 54.6875 
L 54.296875 54.6875 
L 54.296875 0 
L 45.3125 0 
L 45.3125 8.40625 
Q 42.046875 3.421875 37.71875 1 
Q 33.40625 -1.421875 27.6875 -1.421875 
Q 18.265625 -1.421875 13.375 4.4375 
Q 8.5 10.296875 8.5 21.578125 
z
M 31.109375 56 
z
" id="DejaVuSans-117"/>
        <path d="M 54.890625 33.015625 
L 54.890625 0 
L 45.90625 0 
L 45.90625 32.71875 
Q 45.90625 40.484375 42.875 44.328125 
Q 39.84375 48.1875 33.796875 48.1875 
Q 26.515625 48.1875 22.3125 43.546875 
Q 18.109375 38.921875 18.109375 30.90625 
L 18.109375 0 
L 9.078125 0 
L 9.078125 54.6875 
L 18.109375 54.6875 
L 18.109375 46.1875 
Q 21.34375 51.125 25.703125 53.5625 
Q 30.078125 56 35.796875 56 
Q 45.21875 56 50.046875 50.171875 
Q 54.890625 44.34375 54.890625 33.015625 
z
" id="DejaVuSans-110"/>
       </defs>
       <use xlink:href="#DejaVuSans-74"/>
       <use x="29.492188" xlink:href="#DejaVuSans-117"/>
       <use x="92.871094" xlink:href="#DejaVuSans-110"/>
      </g>
     </g>
    </g>
    <g id="xtick_5">
     <g id="line2d_5">
      <g>
       <use style="stroke:#000000;stroke-width:0.8;" x="278.784431" xlink:href="#ma26decb97b" y="315"/>
      </g>
     </g>
     <g id="text_4">
      <!-- Jul -->
      <g transform="translate(272.751619 329.598437)scale(0.1 -0.1)">
       <defs>
        <path d="M 9.421875 75.984375 
L 18.40625 75.984375 
L 18.40625 0 
L 9.421875 0 
z
" id="DejaVuSans-108"/>
       </defs>
       <use xlink:href="#DejaVuSans-74"/>
       <use x="29.492188" xlink:href="#DejaVuSans-117"/>
       <use x="92.871094" xlink:href="#DejaVuSans-108"/>
      </g>
     </g>
    </g>
    <g id="xtick_6">
     <g id="line2d_6">
      <g>
       <use style="stroke:#000000;stroke-width:0.8;" x="330.57485" xlink:href="#ma26decb97b" y="315"/>
      </g>
     </g>
     <g id="text_5">
      <!-- Aug -->
      <g transform="translate(320.811569 329.598437)scale(0.1 -0.1)">
       <defs>
        <path d="M 45.40625 27.984375 
Q 45.40625 37.75 41.375 43.109375 
Q 37.359375 48.484375 30.078125 48.484375 
Q 22.859375 48.484375 18.828125 43.109375 
Q 14.796875 37.75 14.796875 27.984375 
Q 14.796875 18.265625 18.828125 12.890625 
Q 22.859375 7.515625 30.078125 7.515625 
Q 37.359375 7.515625 41.375 12.890625 
Q 45.40625 18.265625 45.40625 27.984375 
z
M 54.390625 6.78125 
Q 54.390625 -7.171875 48.1875 -13.984375 
Q 42 -20.796875 29.203125 -20.796875 
Q 24.46875 -20.796875 20.265625 -20.09375 
Q 16.0625 -19.390625 12.109375 -17.921875 
L 12.109375 -9.1875 
Q 16.0625 -11.328125 19.921875 -12.34375 
Q 23.78125 -13.375 27.78125 -13.375 
Q 36.625 -13.375 41.015625 -8.765625 
Q 45.40625 -4.15625 45.40625 5.171875 
L 45.40625 9.625 
Q 42.625 4.78125 38.28125 2.390625 
Q 33.9375 0 27.875 0 
Q 17.828125 0 11.671875 7.65625 
Q 5.515625 15.328125 5.515625 27.984375 
Q 5.515625 40.671875 11.671875 48.328125 
Q 17.828125 56 27.875 56 
Q 33.9375 56 38.28125 53.609375 
Q 42.625 51.21875 45.40625 46.390625 
L 45.40625 54.6875 
L 54.390625 54.6875 
z
" id="DejaVuSans-103"/>
       </defs>
       <use xlink:href="#DejaVuSans-65"/>
       <use x="68.408203" xlink:href="#DejaVuSans-117"/>
       <use x="131.787109" xlink:href="#DejaVuSans-103"/>
      </g>
     </g>
    </g>
    <g id="xtick_7">
     <g id="line2d_7">
      <g>
       <use style="stroke:#000000;stroke-width:0.8;" x="382.365269" xlink:href="#ma26decb97b" y="315"/>
      </g>
     </g>
     <g id="text_6">
      <!-- Sep -->
      <g transform="translate(372.940269 329.598437)scale(0.1 -0.1)">
       <defs>
        <path d="M 53.515625 70.515625 
L 53.515625 60.890625 
Q 47.90625 63.578125 42.921875 64.890625 
Q 37.9375 66.21875 33.296875 66.21875 
Q 25.25 66.21875 20.875 63.09375 
Q 16.5 59.96875 16.5 54.203125 
Q 16.5 49.359375 19.40625 46.890625 
Q 22.3125 44.4375 30.421875 42.921875 
L 36.375 41.703125 
Q 47.40625 39.59375 52.65625 34.296875 
Q 57.90625 29 57.90625 20.125 
Q 57.90625 9.515625 50.796875 4.046875 
Q 43.703125 -1.421875 29.984375 -1.421875 
Q 24.8125 -1.421875 18.96875 -0.25 
Q 13.140625 0.921875 6.890625 3.21875 
L 6.890625 13.375 
Q 12.890625 10.015625 18.65625 8.296875 
Q 24.421875 6.59375 29.984375 6.59375 
Q 38.421875 6.59375 43.015625 9.90625 
Q 47.609375 13.234375 47.609375 19.390625 
Q 47.609375 24.75 44.3125 27.78125 
Q 41.015625 30.8125 33.5 32.328125 
L 27.484375 33.5 
Q 16.453125 35.6875 11.515625 40.375 
Q 6.59375 45.0625 6.59375 53.421875 
Q 6.59375 63.09375 13.40625 68.65625 
Q 20.21875 74.21875 32.171875 74.21875 
Q 37.3125 74.21875 42.625 73.28125 
Q 47.953125 72.359375 53.515625 70.515625 
z
" id="DejaVuSans-83"/>
        <path d="M 56.203125 29.59375 
L 56.203125 25.203125 
L 14.890625 25.203125 
Q 15.484375 15.921875 20.484375 11.0625 
Q 25.484375 6.203125 34.421875 6.203125 
Q 39.59375 6.203125 44.453125 7.46875 
Q 49.3125 8.734375 54.109375 11.28125 
L 54.109375 2.78125 
Q 49.265625 0.734375 44.1875 -0.34375 
Q 39.109375 -1.421875 33.890625 -1.421875 
Q 20.796875 -1.421875 13.15625 6.1875 
Q 5.515625 13.8125 5.515625 26.8125 
Q 5.515625 40.234375 12.765625 48.109375 
Q 20.015625 56 32.328125 56 
Q 43.359375 56 49.78125 48.890625 
Q 56.203125 41.796875 56.203125 29.59375 
z
M 47.21875 32.234375 
Q 47.125 39.59375 43.09375 43.984375 
Q 39.0625 48.390625 32.421875 48.390625 
Q 24.90625 48.390625 20.390625 44.140625 
Q 15.875 39.890625 15.1875 32.171875 
z
" id="DejaVuSans-101"/>
       </defs>
       <use xlink:href="#DejaVuSans-83"/>
       <use x="63.476562" xlink:href="#DejaVuSans-101"/>
       <use x="125" xlink:href="#DejaVuSans-112"/>
      </g>
     </g>
    </g>
    <g id="xtick_8">
     <g id="line2d_8">
      <g>
       <use style="stroke:#000000;stroke-width:0.8;" x="432.48503" xlink:href="#ma26decb97b" y="315"/>
      </g>
     </g>
     <g id="text_7">
      <!-- Oct -->
      <g transform="translate(423.839717 329.598437)scale(0.1 -0.1)">
       <defs>
        <path d="M 39.40625 66.21875 
Q 28.65625 66.21875 22.328125 58.203125 
Q 16.015625 50.203125 16.015625 36.375 
Q 16.015625 22.609375 22.328125 14.59375 
Q 28.65625 6.59375 39.40625 6.59375 
Q 50.140625 6.59375 56.421875 14.59375 
Q 62.703125 22.609375 62.703125 36.375 
Q 62.703125 50.203125 56.421875 58.203125 
Q 50.140625 66.21875 39.40625 66.21875 
z
M 39.40625 74.21875 
Q 54.734375 74.21875 63.90625 63.9375 
Q 73.09375 53.65625 73.09375 36.375 
Q 73.09375 19.140625 63.90625 8.859375 
Q 54.734375 -1.421875 39.40625 -1.421875 
Q 24.03125 -1.421875 14.8125 8.828125 
Q 5.609375 19.09375 5.609375 36.375 
Q 5.609375 53.65625 14.8125 63.9375 
Q 24.03125 74.21875 39.40625 74.21875 
z
" id="DejaVuSans-79"/>
        <path d="M 48.78125 52.59375 
L 48.78125 44.1875 
Q 44.96875 46.296875 41.140625 47.34375 
Q 37.3125 48.390625 33.40625 48.390625 
Q 24.65625 48.390625 19.8125 42.84375 
Q 14.984375 37.3125 14.984375 27.296875 
Q 14.984375 17.28125 19.8125 11.734375 
Q 24.65625 6.203125 33.40625 6.203125 
Q 37.3125 6.203125 41.140625 7.25 
Q 44.96875 8.296875 48.78125 10.40625 
L 48.78125 2.09375 
Q 45.015625 0.34375 40.984375 -0.53125 
Q 36.96875 -1.421875 32.421875 -1.421875 
Q 20.0625 -1.421875 12.78125 6.34375 
Q 5.515625 14.109375 5.515625 27.296875 
Q 5.515625 40.671875 12.859375 48.328125 
Q 20.21875 56 33.015625 56 
Q 37.15625 56 41.109375 55.140625 
Q 45.0625 54.296875 48.78125 52.59375 
z
" id="DejaVuSans-99"/>
        <path d="M 18.3125 70.21875 
L 18.3125 54.6875 
L 36.8125 54.6875 
L 36.8125 47.703125 
L 18.3125 47.703125 
L 18.3125 18.015625 
Q 18.3125 11.328125 20.140625 9.421875 
Q 21.96875 7.515625 27.59375 7.515625 
L 36.8125 7.515625 
L 36.8125 0 
L 27.59375 0 
Q 17.1875 0 13.234375 3.875 
Q 9.28125 7.765625 9.28125 18.015625 
L 9.28125 47.703125 
L 2.6875 47.703125 
L 2.6875 54.6875 
L 9.28125 54.6875 
L 9.28125 70.21875 
z
" id="DejaVuSans-116"/>
       </defs>
       <use xlink:href="#DejaVuSans-79"/>
       <use x="78.710938" xlink:href="#DejaVuSans-99"/>
       <use x="133.691406" xlink:href="#DejaVuSans-116"/>
      </g>
     </g>
    </g>
    <g id="xtick_9">
     <g id="line2d_9">
      <g>
       <use style="stroke:#000000;stroke-width:0.8;" x="484.275449" xlink:href="#ma26decb97b" y="315"/>
      </g>
     </g>
     <g id="text_8">
      <!-- Nov -->
      <g transform="translate(474.516074 329.598437)scale(0.1 -0.1)">
       <defs>
        <path d="M 9.8125 72.90625 
L 23.09375 72.90625 
L 55.421875 11.921875 
L 55.421875 72.90625 
L 64.984375 72.90625 
L 64.984375 0 
L 51.703125 0 
L 19.390625 60.984375 
L 19.390625 0 
L 9.8125 0 
z
" id="DejaVuSans-78"/>
        <path d="M 30.609375 48.390625 
Q 23.390625 48.390625 19.1875 42.75 
Q 14.984375 37.109375 14.984375 27.296875 
Q 14.984375 17.484375 19.15625 11.84375 
Q 23.34375 6.203125 30.609375 6.203125 
Q 37.796875 6.203125 41.984375 11.859375 
Q 46.1875 17.53125 46.1875 27.296875 
Q 46.1875 37.015625 41.984375 42.703125 
Q 37.796875 48.390625 30.609375 48.390625 
z
M 30.609375 56 
Q 42.328125 56 49.015625 48.375 
Q 55.71875 40.765625 55.71875 27.296875 
Q 55.71875 13.875 49.015625 6.21875 
Q 42.328125 -1.421875 30.609375 -1.421875 
Q 18.84375 -1.421875 12.171875 6.21875 
Q 5.515625 13.875 5.515625 27.296875 
Q 5.515625 40.765625 12.171875 48.375 
Q 18.84375 56 30.609375 56 
z
" id="DejaVuSans-111"/>
        <path d="M 2.984375 54.6875 
L 12.5 54.6875 
L 29.59375 8.796875 
L 46.6875 54.6875 
L 56.203125 54.6875 
L 35.6875 0 
L 23.484375 0 
z
" id="DejaVuSans-118"/>
       </defs>
       <use xlink:href="#DejaVuSans-78"/>
       <use x="74.804688" xlink:href="#DejaVuSans-111"/>
       <use x="135.986328" xlink:href="#DejaVuSans-118"/>
      </g>
     </g>
    </g>
    <g id="xtick_10">
     <g id="line2d_10">
      <g>
       <use style="stroke:#000000;stroke-width:0.8;" x="534.39521" xlink:href="#ma26decb97b" y="315"/>
      </g>
     </g>
     <g id="text_9">
      <!-- Dec -->
      <g transform="translate(524.719428 329.598437)scale(0.1 -0.1)">
       <defs>
        <path d="M 19.671875 64.796875 
L 19.671875 8.109375 
L 31.59375 8.109375 
Q 46.6875 8.109375 53.6875 14.9375 
Q 60.6875 21.78125 60.6875 36.53125 
Q 60.6875 51.171875 53.6875 57.984375 
Q 46.6875 64.796875 31.59375 64.796875 
z
M 9.8125 72.90625 
L 30.078125 72.90625 
Q 51.265625 72.90625 61.171875 64.09375 
Q 71.09375 55.28125 71.09375 36.53125 
Q 71.09375 17.671875 61.125 8.828125 
Q 51.171875 0 30.078125 0 
L 9.8125 0 
z
" id="DejaVuSans-68"/>
       </defs>
       <use xlink:href="#DejaVuSans-68"/>
       <use x="77.001953" xlink:href="#DejaVuSans-101"/>
       <use x="138.525391" xlink:href="#DejaVuSans-99"/>
      </g>
     </g>
    </g>
    <g id="xtick_11">
     <g id="line2d_11">
      <g>
       <use style="stroke:#000000;stroke-width:0.8;" x="586.185629" xlink:href="#ma26decb97b" y="315"/>
      </g>
     </g>
     <g id="text_10">
      <!-- Jan -->
      <g transform="translate(578.477816 329.598437)scale(0.1 -0.1)">
       <use xlink:href="#DejaVuSans-74"/>
       <use x="29.492188" xlink:href="#DejaVuSans-97"/>
       <use x="90.771484" xlink:href="#DejaVuSans-110"/>
      </g>
      <!-- 2021 -->
      <g transform="translate(573.460629 340.79625)scale(0.1 -0.1)">
       <defs>
        <path d="M 19.1875 8.296875 
L 53.609375 8.296875 
L 53.609375 0 
L 7.328125 0 
L 7.328125 8.296875 
Q 12.9375 14.109375 22.625 23.890625 
Q 32.328125 33.6875 34.8125 36.53125 
Q 39.546875 41.84375 41.421875 45.53125 
Q 43.3125 49.21875 43.3125 52.78125 
Q 43.3125 58.59375 39.234375 62.25 
Q 35.15625 65.921875 28.609375 65.921875 
Q 23.96875 65.921875 18.8125 64.3125 
Q 13.671875 62.703125 7.8125 59.421875 
L 7.8125 69.390625 
Q 13.765625 71.78125 18.9375 73 
Q 24.125 74.21875 28.421875 74.21875 
Q 39.75 74.21875 46.484375 68.546875 
Q 53.21875 62.890625 53.21875 53.421875 
Q 53.21875 48.921875 51.53125 44.890625 
Q 49.859375 40.875 45.40625 35.40625 
Q 44.1875 33.984375 37.640625 27.21875 
Q 31.109375 20.453125 19.1875 8.296875 
z
" id="DejaVuSans-50"/>
        <path d="M 31.78125 66.40625 
Q 24.171875 66.40625 20.328125 58.90625 
Q 16.5 51.421875 16.5 36.375 
Q 16.5 21.390625 20.328125 13.890625 
Q 24.171875 6.390625 31.78125 6.390625 
Q 39.453125 6.390625 43.28125 13.890625 
Q 47.125 21.390625 47.125 36.375 
Q 47.125 51.421875 43.28125 58.90625 
Q 39.453125 66.40625 31.78125 66.40625 
z
M 31.78125 74.21875 
Q 44.046875 74.21875 50.515625 64.515625 
Q 56.984375 54.828125 56.984375 36.375 
Q 56.984375 17.96875 50.515625 8.265625 
Q 44.046875 -1.421875 31.78125 -1.421875 
Q 19.53125 -1.421875 13.0625 8.265625 
Q 6.59375 17.96875 6.59375 36.375 
Q 6.59375 54.828125 13.0625 64.515625 
Q 19.53125 74.21875 31.78125 74.21875 
z
" id="DejaVuSans-48"/>
        <path d="M 12.40625 8.296875 
L 28.515625 8.296875 
L 28.515625 63.921875 
L 10.984375 60.40625 
L 10.984375 69.390625 
L 28.421875 72.90625 
L 38.28125 72.90625 
L 38.28125 8.296875 
L 54.390625 8.296875 
L 54.390625 0 
L 12.40625 0 
z
" id="DejaVuSans-49"/>
       </defs>
       <use xlink:href="#DejaVuSans-50"/>
       <use x="63.623047" xlink:href="#DejaVuSans-48"/>
       <use x="127.246094" xlink:href="#DejaVuSans-50"/>
       <use x="190.869141" xlink:href="#DejaVuSans-49"/>
      </g>
     </g>
    </g>
    <g id="xtick_12">
     <g id="line2d_12">
      <g>
       <use style="stroke:#000000;stroke-width:0.8;" x="637.976048" xlink:href="#ma26decb97b" y="315"/>
      </g>
     </g>
     <g id="text_11">
      <!-- Feb -->
      <g transform="translate(629.124485 329.598437)scale(0.1 -0.1)">
       <defs>
        <path d="M 9.8125 72.90625 
L 51.703125 72.90625 
L 51.703125 64.59375 
L 19.671875 64.59375 
L 19.671875 43.109375 
L 48.578125 43.109375 
L 48.578125 34.8125 
L 19.671875 34.8125 
L 19.671875 0 
L 9.8125 0 
z
" id="DejaVuSans-70"/>
        <path d="M 48.6875 27.296875 
Q 48.6875 37.203125 44.609375 42.84375 
Q 40.53125 48.484375 33.40625 48.484375 
Q 26.265625 48.484375 22.1875 42.84375 
Q 18.109375 37.203125 18.109375 27.296875 
Q 18.109375 17.390625 22.1875 11.75 
Q 26.265625 6.109375 33.40625 6.109375 
Q 40.53125 6.109375 44.609375 11.75 
Q 48.6875 17.390625 48.6875 27.296875 
z
M 18.109375 46.390625 
Q 20.953125 51.265625 25.265625 53.625 
Q 29.59375 56 35.59375 56 
Q 45.5625 56 51.78125 48.09375 
Q 58.015625 40.1875 58.015625 27.296875 
Q 58.015625 14.40625 51.78125 6.484375 
Q 45.5625 -1.421875 35.59375 -1.421875 
Q 29.59375 -1.421875 25.265625 0.953125 
Q 20.953125 3.328125 18.109375 8.203125 
L 18.109375 0 
L 9.078125 0 
L 9.078125 75.984375 
L 18.109375 75.984375 
z
" id="DejaVuSans-98"/>
       </defs>
       <use xlink:href="#DejaVuSans-70"/>
       <use x="52.019531" xlink:href="#DejaVuSans-101"/>
       <use x="113.542969" xlink:href="#DejaVuSans-98"/>
      </g>
     </g>
    </g>
    <g id="xtick_13">
     <g id="line2d_13">
      <g>
       <use style="stroke:#000000;stroke-width:0.8;" x="648" xlink:href="#ma26decb97b" y="315"/>
      </g>
     </g>
    </g>
    <g id="xtick_14">
     <g id="line2d_14">
      <defs>
       <path d="M 0 0 
L 0 2 
" id="m4559cb797c" style="stroke:#000000;stroke-width:0.6;"/>
      </defs>
      <g>
       <use style="stroke:#000000;stroke-width:0.6;" x="100.023952" xlink:href="#m4559cb797c" y="315"/>
      </g>
     </g>
    </g>
    <g id="xtick_15">
     <g id="line2d_15">
      <g>
       <use style="stroke:#000000;stroke-width:0.6;" x="111.718563" xlink:href="#m4559cb797c" y="315"/>
      </g>
     </g>
    </g>
    <g id="xtick_16">
     <g id="line2d_16">
      <g>
       <use style="stroke:#000000;stroke-width:0.6;" x="123.413174" xlink:href="#m4559cb797c" y="315"/>
      </g>
     </g>
    </g>
    <g id="xtick_17">
     <g id="line2d_17">
      <g>
       <use style="stroke:#000000;stroke-width:0.6;" x="135.107784" xlink:href="#m4559cb797c" y="315"/>
      </g>
     </g>
    </g>
    <g id="xtick_18">
     <g id="line2d_18">
      <g>
       <use style="stroke:#000000;stroke-width:0.6;" x="146.802395" xlink:href="#m4559cb797c" y="315"/>
      </g>
     </g>
    </g>
    <g id="xtick_19">
     <g id="line2d_19">
      <g>
       <use style="stroke:#000000;stroke-width:0.6;" x="158.497006" xlink:href="#m4559cb797c" y="315"/>
      </g>
     </g>
    </g>
    <g id="xtick_20">
     <g id="line2d_20">
      <g>
       <use style="stroke:#000000;stroke-width:0.6;" x="170.191617" xlink:href="#m4559cb797c" y="315"/>
      </g>
     </g>
    </g>
    <g id="xtick_21">
     <g id="line2d_21">
      <g>
       <use style="stroke:#000000;stroke-width:0.6;" x="181.886228" xlink:href="#m4559cb797c" y="315"/>
      </g>
     </g>
    </g>
    <g id="xtick_22">
     <g id="line2d_22">
      <g>
       <use style="stroke:#000000;stroke-width:0.6;" x="193.580838" xlink:href="#m4559cb797c" y="315"/>
      </g>
     </g>
    </g>
    <g id="xtick_23">
     <g id="line2d_23">
      <g>
       <use style="stroke:#000000;stroke-width:0.6;" x="205.275449" xlink:href="#m4559cb797c" y="315"/>
      </g>
     </g>
    </g>
    <g id="xtick_24">
     <g id="line2d_24">
      <g>
       <use style="stroke:#000000;stroke-width:0.6;" x="216.97006" xlink:href="#m4559cb797c" y="315"/>
      </g>
     </g>
    </g>
    <g id="xtick_25">
     <g id="line2d_25">
      <g>
       <use style="stroke:#000000;stroke-width:0.6;" x="240.359281" xlink:href="#m4559cb797c" y="315"/>
      </g>
     </g>
    </g>
    <g id="xtick_26">
     <g id="line2d_26">
      <g>
       <use style="stroke:#000000;stroke-width:0.6;" x="252.053892" xlink:href="#m4559cb797c" y="315"/>
      </g>
     </g>
    </g>
    <g id="xtick_27">
     <g id="line2d_27">
      <g>
       <use style="stroke:#000000;stroke-width:0.6;" x="263.748503" xlink:href="#m4559cb797c" y="315"/>
      </g>
     </g>
    </g>
    <g id="xtick_28">
     <g id="line2d_28">
      <g>
       <use style="stroke:#000000;stroke-width:0.6;" x="275.443114" xlink:href="#m4559cb797c" y="315"/>
      </g>
     </g>
    </g>
    <g id="xtick_29">
     <g id="line2d_29">
      <g>
       <use style="stroke:#000000;stroke-width:0.6;" x="287.137725" xlink:href="#m4559cb797c" y="315"/>
      </g>
     </g>
    </g>
    <g id="xtick_30">
     <g id="line2d_30">
      <g>
       <use style="stroke:#000000;stroke-width:0.6;" x="298.832335" xlink:href="#m4559cb797c" y="315"/>
      </g>
     </g>
    </g>
    <g id="xtick_31">
     <g id="line2d_31">
      <g>
       <use style="stroke:#000000;stroke-width:0.6;" x="310.526946" xlink:href="#m4559cb797c" y="315"/>
      </g>
     </g>
    </g>
    <g id="xtick_32">
     <g id="line2d_32">
      <g>
       <use style="stroke:#000000;stroke-width:0.6;" x="322.221557" xlink:href="#m4559cb797c" y="315"/>
      </g>
     </g>
    </g>
    <g id="xtick_33">
     <g id="line2d_33">
      <g>
       <use style="stroke:#000000;stroke-width:0.6;" x="333.916168" xlink:href="#m4559cb797c" y="315"/>
      </g>
     </g>
    </g>
    <g id="xtick_34">
     <g id="line2d_34">
      <g>
       <use style="stroke:#000000;stroke-width:0.6;" x="345.610778" xlink:href="#m4559cb797c" y="315"/>
      </g>
     </g>
    </g>
    <g id="xtick_35">
     <g id="line2d_35">
      <g>
       <use style="stroke:#000000;stroke-width:0.6;" x="357.305389" xlink:href="#m4559cb797c" y="315"/>
      </g>
     </g>
    </g>
    <g id="xtick_36">
     <g id="line2d_36">
      <g>
       <use style="stroke:#000000;stroke-width:0.6;" x="369" xlink:href="#m4559cb797c" y="315"/>
      </g>
     </g>
    </g>
    <g id="xtick_37">
     <g id="line2d_37">
      <g>
       <use style="stroke:#000000;stroke-width:0.6;" x="380.694611" xlink:href="#m4559cb797c" y="315"/>
      </g>
     </g>
    </g>
    <g id="xtick_38">
     <g id="line2d_38">
      <g>
       <use style="stroke:#000000;stroke-width:0.6;" x="392.389222" xlink:href="#m4559cb797c" y="315"/>
      </g>
     </g>
    </g>
    <g id="xtick_39">
     <g id="line2d_39">
      <g>
       <use style="stroke:#000000;stroke-width:0.6;" x="404.083832" xlink:href="#m4559cb797c" y="315"/>
      </g>
     </g>
    </g>
    <g id="xtick_40">
     <g id="line2d_40">
      <g>
       <use style="stroke:#000000;stroke-width:0.6;" x="415.778443" xlink:href="#m4559cb797c" y="315"/>
      </g>
     </g>
    </g>
    <g id="xtick_41">
     <g id="line2d_41">
      <g>
       <use style="stroke:#000000;stroke-width:0.6;" x="427.473054" xlink:href="#m4559cb797c" y="315"/>
      </g>
     </g>
    </g>
    <g id="xtick_42">
     <g id="line2d_42">
      <g>
       <use style="stroke:#000000;stroke-width:0.6;" x="439.167665" xlink:href="#m4559cb797c" y="315"/>
      </g>
     </g>
    </g>
    <g id="xtick_43">
     <g id="line2d_43">
      <g>
       <use style="stroke:#000000;stroke-width:0.6;" x="450.862275" xlink:href="#m4559cb797c" y="315"/>
      </g>
     </g>
    </g>
    <g id="xtick_44">
     <g id="line2d_44">
      <g>
       <use style="stroke:#000000;stroke-width:0.6;" x="462.556886" xlink:href="#m4559cb797c" y="315"/>
      </g>
     </g>
    </g>
    <g id="xtick_45">
     <g id="line2d_45">
      <g>
       <use style="stroke:#000000;stroke-width:0.6;" x="474.251497" xlink:href="#m4559cb797c" y="315"/>
      </g>
     </g>
    </g>
    <g id="xtick_46">
     <g id="line2d_46">
      <g>
       <use style="stroke:#000000;stroke-width:0.6;" x="485.946108" xlink:href="#m4559cb797c" y="315"/>
      </g>
     </g>
    </g>
    <g id="xtick_47">
     <g id="line2d_47">
      <g>
       <use style="stroke:#000000;stroke-width:0.6;" x="497.640719" xlink:href="#m4559cb797c" y="315"/>
      </g>
     </g>
    </g>
    <g id="xtick_48">
     <g id="line2d_48">
      <g>
       <use style="stroke:#000000;stroke-width:0.6;" x="509.335329" xlink:href="#m4559cb797c" y="315"/>
      </g>
     </g>
    </g>
    <g id="xtick_49">
     <g id="line2d_49">
      <g>
       <use style="stroke:#000000;stroke-width:0.6;" x="521.02994" xlink:href="#m4559cb797c" y="315"/>
      </g>
     </g>
    </g>
    <g id="xtick_50">
     <g id="line2d_50">
      <g>
       <use style="stroke:#000000;stroke-width:0.6;" x="532.724551" xlink:href="#m4559cb797c" y="315"/>
      </g>
     </g>
    </g>
    <g id="xtick_51">
     <g id="line2d_51">
      <g>
       <use style="stroke:#000000;stroke-width:0.6;" x="544.419162" xlink:href="#m4559cb797c" y="315"/>
      </g>
     </g>
    </g>
    <g id="xtick_52">
     <g id="line2d_52">
      <g>
       <use style="stroke:#000000;stroke-width:0.6;" x="556.113772" xlink:href="#m4559cb797c" y="315"/>
      </g>
     </g>
    </g>
    <g id="xtick_53">
     <g id="line2d_53">
      <g>
       <use style="stroke:#000000;stroke-width:0.6;" x="567.808383" xlink:href="#m4559cb797c" y="315"/>
      </g>
     </g>
    </g>
    <g id="xtick_54">
     <g id="line2d_54">
      <g>
       <use style="stroke:#000000;stroke-width:0.6;" x="579.502994" xlink:href="#m4559cb797c" y="315"/>
      </g>
     </g>
    </g>
    <g id="xtick_55">
     <g id="line2d_55">
      <g>
       <use style="stroke:#000000;stroke-width:0.6;" x="591.197605" xlink:href="#m4559cb797c" y="315"/>
      </g>
     </g>
    </g>
    <g id="xtick_56">
     <g id="line2d_56">
      <g>
       <use style="stroke:#000000;stroke-width:0.6;" x="602.892216" xlink:href="#m4559cb797c" y="315"/>
      </g>
     </g>
    </g>
    <g id="xtick_57">
     <g id="line2d_57">
      <g>
       <use style="stroke:#000000;stroke-width:0.6;" x="614.586826" xlink:href="#m4559cb797c" y="315"/>
      </g>
     </g>
    </g>
    <g id="xtick_58">
     <g id="line2d_58">
      <g>
       <use style="stroke:#000000;stroke-width:0.6;" x="626.281437" xlink:href="#m4559cb797c" y="315"/>
      </g>
     </g>
    </g>
    <g id="text_12">
     <!-- date -->
     <g transform="translate(357.725 354.474375)scale(0.1 -0.1)">
      <defs>
       <path d="M 45.40625 46.390625 
L 45.40625 75.984375 
L 54.390625 75.984375 
L 54.390625 0 
L 45.40625 0 
L 45.40625 8.203125 
Q 42.578125 3.328125 38.25 0.953125 
Q 33.9375 -1.421875 27.875 -1.421875 
Q 17.96875 -1.421875 11.734375 6.484375 
Q 5.515625 14.40625 5.515625 27.296875 
Q 5.515625 40.1875 11.734375 48.09375 
Q 17.96875 56 27.875 56 
Q 33.9375 56 38.25 53.625 
Q 42.578125 51.265625 45.40625 46.390625 
z
M 14.796875 27.296875 
Q 14.796875 17.390625 18.875 11.75 
Q 22.953125 6.109375 30.078125 6.109375 
Q 37.203125 6.109375 41.296875 11.75 
Q 45.40625 17.390625 45.40625 27.296875 
Q 45.40625 37.203125 41.296875 42.84375 
Q 37.203125 48.484375 30.078125 48.484375 
Q 22.953125 48.484375 18.875 42.84375 
Q 14.796875 37.203125 14.796875 27.296875 
z
" id="DejaVuSans-100"/>
      </defs>
      <use xlink:href="#DejaVuSans-100"/>
      <use x="63.476562" xlink:href="#DejaVuSans-97"/>
      <use x="124.755859" xlink:href="#DejaVuSans-116"/>
      <use x="163.964844" xlink:href="#DejaVuSans-101"/>
     </g>
    </g>
   </g>
   <g id="matplotlib.axis_2">
    <g id="ytick_1">
     <g id="line2d_59">
      <path clip-path="url(#pa15dcca553)" d="M 90 284.535285 
L 648 284.535285 
" style="fill:none;stroke:#b0b0b0;stroke-dasharray:0.8,1.32;stroke-dashoffset:0;stroke-width:0.8;"/>
     </g>
     <g id="line2d_60">
      <defs>
       <path d="M 0 0 
L -3.5 0 
" id="m48f1418920" style="stroke:#000000;stroke-width:0.8;"/>
      </defs>
      <g>
       <use style="stroke:#000000;stroke-width:0.8;" x="90" xlink:href="#m48f1418920" y="284.535285"/>
      </g>
     </g>
     <g id="text_13">
      <!-- 0.50 -->
      <g transform="translate(60.734375 288.334504)scale(0.1 -0.1)">
       <defs>
        <path d="M 10.6875 12.40625 
L 21 12.40625 
L 21 0 
L 10.6875 0 
z
" id="DejaVuSans-46"/>
        <path d="M 10.796875 72.90625 
L 49.515625 72.90625 
L 49.515625 64.59375 
L 19.828125 64.59375 
L 19.828125 46.734375 
Q 21.96875 47.46875 24.109375 47.828125 
Q 26.265625 48.1875 28.421875 48.1875 
Q 40.625 48.1875 47.75 41.5 
Q 54.890625 34.8125 54.890625 23.390625 
Q 54.890625 11.625 47.5625 5.09375 
Q 40.234375 -1.421875 26.90625 -1.421875 
Q 22.3125 -1.421875 17.546875 -0.640625 
Q 12.796875 0.140625 7.71875 1.703125 
L 7.71875 11.625 
Q 12.109375 9.234375 16.796875 8.0625 
Q 21.484375 6.890625 26.703125 6.890625 
Q 35.15625 6.890625 40.078125 11.328125 
Q 45.015625 15.765625 45.015625 23.390625 
Q 45.015625 31 40.078125 35.4375 
Q 35.15625 39.890625 26.703125 39.890625 
Q 22.75 39.890625 18.8125 39.015625 
Q 14.890625 38.140625 10.796875 36.28125 
z
" id="DejaVuSans-53"/>
       </defs>
       <use xlink:href="#DejaVuSans-48"/>
       <use x="63.623047" xlink:href="#DejaVuSans-46"/>
       <use x="95.410156" xlink:href="#DejaVuSans-53"/>
       <use x="159.033203" xlink:href="#DejaVuSans-48"/>
      </g>
     </g>
    </g>
    <g id="ytick_2">
     <g id="line2d_61">
      <path clip-path="url(#pa15dcca553)" d="M 90 252.570214 
L 648 252.570214 
" style="fill:none;stroke:#b0b0b0;stroke-dasharray:0.8,1.32;stroke-dashoffset:0;stroke-width:0.8;"/>
     </g>
     <g id="line2d_62">
      <g>
       <use style="stroke:#000000;stroke-width:0.8;" x="90" xlink:href="#m48f1418920" y="252.570214"/>
      </g>
     </g>
     <g id="text_14">
      <!-- 0.75 -->
      <g transform="translate(60.734375 256.369433)scale(0.1 -0.1)">
       <defs>
        <path d="M 8.203125 72.90625 
L 55.078125 72.90625 
L 55.078125 68.703125 
L 28.609375 0 
L 18.3125 0 
L 43.21875 64.59375 
L 8.203125 64.59375 
z
" id="DejaVuSans-55"/>
       </defs>
       <use xlink:href="#DejaVuSans-48"/>
       <use x="63.623047" xlink:href="#DejaVuSans-46"/>
       <use x="95.410156" xlink:href="#DejaVuSans-55"/>
       <use x="159.033203" xlink:href="#DejaVuSans-53"/>
      </g>
     </g>
    </g>
    <g id="ytick_3">
     <g id="line2d_63">
      <path clip-path="url(#pa15dcca553)" d="M 90 220.605142 
L 648 220.605142 
" style="fill:none;stroke:#b0b0b0;stroke-dasharray:0.8,1.32;stroke-dashoffset:0;stroke-width:0.8;"/>
     </g>
     <g id="line2d_64">
      <g>
       <use style="stroke:#000000;stroke-width:0.8;" x="90" xlink:href="#m48f1418920" y="220.605142"/>
      </g>
     </g>
     <g id="text_15">
      <!-- 1.00 -->
      <g transform="translate(60.734375 224.404361)scale(0.1 -0.1)">
       <use xlink:href="#DejaVuSans-49"/>
       <use x="63.623047" xlink:href="#DejaVuSans-46"/>
       <use x="95.410156" xlink:href="#DejaVuSans-48"/>
       <use x="159.033203" xlink:href="#DejaVuSans-48"/>
      </g>
     </g>
    </g>
    <g id="ytick_4">
     <g id="line2d_65">
      <path clip-path="url(#pa15dcca553)" d="M 90 188.640071 
L 648 188.640071 
" style="fill:none;stroke:#b0b0b0;stroke-dasharray:0.8,1.32;stroke-dashoffset:0;stroke-width:0.8;"/>
     </g>
     <g id="line2d_66">
      <g>
       <use style="stroke:#000000;stroke-width:0.8;" x="90" xlink:href="#m48f1418920" y="188.640071"/>
      </g>
     </g>
     <g id="text_16">
      <!-- 1.25 -->
      <g transform="translate(60.734375 192.43929)scale(0.1 -0.1)">
       <use xlink:href="#DejaVuSans-49"/>
       <use x="63.623047" xlink:href="#DejaVuSans-46"/>
       <use x="95.410156" xlink:href="#DejaVuSans-50"/>
       <use x="159.033203" xlink:href="#DejaVuSans-53"/>
      </g>
     </g>
    </g>
    <g id="ytick_5">
     <g id="line2d_67">
      <path clip-path="url(#pa15dcca553)" d="M 90 156.674999 
L 648 156.674999 
" style="fill:none;stroke:#b0b0b0;stroke-dasharray:0.8,1.32;stroke-dashoffset:0;stroke-width:0.8;"/>
     </g>
     <g id="line2d_68">
      <g>
       <use style="stroke:#000000;stroke-width:0.8;" x="90" xlink:href="#m48f1418920" y="156.674999"/>
      </g>
     </g>
     <g id="text_17">
      <!-- 1.50 -->
      <g transform="translate(60.734375 160.474218)scale(0.1 -0.1)">
       <use xlink:href="#DejaVuSans-49"/>
       <use x="63.623047" xlink:href="#DejaVuSans-46"/>
       <use x="95.410156" xlink:href="#DejaVuSans-53"/>
       <use x="159.033203" xlink:href="#DejaVuSans-48"/>
      </g>
     </g>
    </g>
    <g id="ytick_6">
     <g id="line2d_69">
      <path clip-path="url(#pa15dcca553)" d="M 90 124.709928 
L 648 124.709928 
" style="fill:none;stroke:#b0b0b0;stroke-dasharray:0.8,1.32;stroke-dashoffset:0;stroke-width:0.8;"/>
     </g>
     <g id="line2d_70">
      <g>
       <use style="stroke:#000000;stroke-width:0.8;" x="90" xlink:href="#m48f1418920" y="124.709928"/>
      </g>
     </g>
     <g id="text_18">
      <!-- 1.75 -->
      <g transform="translate(60.734375 128.509147)scale(0.1 -0.1)">
       <use xlink:href="#DejaVuSans-49"/>
       <use x="63.623047" xlink:href="#DejaVuSans-46"/>
       <use x="95.410156" xlink:href="#DejaVuSans-55"/>
       <use x="159.033203" xlink:href="#DejaVuSans-53"/>
      </g>
     </g>
    </g>
    <g id="ytick_7">
     <g id="line2d_71">
      <path clip-path="url(#pa15dcca553)" d="M 90 92.744856 
L 648 92.744856 
" style="fill:none;stroke:#b0b0b0;stroke-dasharray:0.8,1.32;stroke-dashoffset:0;stroke-width:0.8;"/>
     </g>
     <g id="line2d_72">
      <g>
       <use style="stroke:#000000;stroke-width:0.8;" x="90" xlink:href="#m48f1418920" y="92.744856"/>
      </g>
     </g>
     <g id="text_19">
      <!-- 2.00 -->
      <g transform="translate(60.734375 96.544075)scale(0.1 -0.1)">
       <use xlink:href="#DejaVuSans-50"/>
       <use x="63.623047" xlink:href="#DejaVuSans-46"/>
       <use x="95.410156" xlink:href="#DejaVuSans-48"/>
       <use x="159.033203" xlink:href="#DejaVuSans-48"/>
      </g>
     </g>
    </g>
    <g id="ytick_8">
     <g id="line2d_73">
      <path clip-path="url(#pa15dcca553)" d="M 90 60.779785 
L 648 60.779785 
" style="fill:none;stroke:#b0b0b0;stroke-dasharray:0.8,1.32;stroke-dashoffset:0;stroke-width:0.8;"/>
     </g>
     <g id="line2d_74">
      <g>
       <use style="stroke:#000000;stroke-width:0.8;" x="90" xlink:href="#m48f1418920" y="60.779785"/>
      </g>
     </g>
     <g id="text_20">
      <!-- 2.25 -->
      <g transform="translate(60.734375 64.579003)scale(0.1 -0.1)">
       <use xlink:href="#DejaVuSans-50"/>
       <use x="63.623047" xlink:href="#DejaVuSans-46"/>
       <use x="95.410156" xlink:href="#DejaVuSans-50"/>
       <use x="159.033203" xlink:href="#DejaVuSans-53"/>
      </g>
     </g>
    </g>
   </g>
   <g id="line2d_75">
    <path clip-path="url(#pa15dcca553)" d="M 90 112.851034 
L 91.670659 112.413177 
L 95.011976 115.438479 
L 96.682635 117.90238 
L 98.353293 123.921829 
L 100.023952 128.764867 
L 101.694611 135.04357 
L 105.035928 153.294263 
L 106.706587 164.099152 
L 108.377246 176.629657 
L 113.389222 209.640172 
L 115.05988 219.631849 
L 116.730539 227.961742 
L 118.401198 237.068737 
L 120.071856 244.63005 
L 121.742515 251.253898 
L 125.083832 261.282128 
L 126.754491 265.796981 
L 130.095808 272.202929 
L 131.766467 275.748846 
L 135.107784 281.25951 
L 136.778443 283.569869 
L 138.449102 285.193747 
L 140.11976 287.45947 
L 141.790419 289.098929 
L 143.461078 290.31267 
L 145.131737 291.756867 
L 148.473054 292.705148 
L 150.143713 293.168141 
L 151.814371 293.129325 
L 153.48503 293.644748 
L 156.826347 292.676504 
L 158.497006 291.751365 
L 160.167665 290.531955 
L 161.838323 289.707045 
L 163.508982 288.385198 
L 165.179641 286.578039 
L 168.520958 282.429267 
L 170.191617 279.374 
L 171.862275 276.801672 
L 173.532934 273.666857 
L 175.203593 271.022149 
L 176.874251 267.397471 
L 180.215569 258.825222 
L 185.227545 243.796573 
L 186.898204 237.588035 
L 195.251497 200.494805 
L 196.922156 192.343014 
L 198.592814 182.920784 
L 201.934132 166.204362 
L 206.946108 142.190819 
L 208.616766 137.026075 
L 210.287425 130.965829 
L 211.958084 127.625373 
L 213.628743 123.673355 
L 215.299401 118.960599 
L 216.97006 117.464877 
L 218.640719 116.463787 
L 220.311377 117.367088 
L 221.982036 116.854933 
L 225.323353 121.454032 
L 226.994012 122.971608 
L 228.664671 125.153758 
L 232.005988 130.950511 
L 233.676647 135.308109 
L 235.347305 138.453047 
L 237.017964 141.329381 
L 238.688623 143.131789 
L 240.359281 145.482409 
L 242.02994 147.337608 
L 243.700599 148.823856 
L 245.371257 151.205749 
L 247.041916 152.723385 
L 248.712575 153.965912 
L 250.383234 154.76242 
L 252.053892 156.250783 
L 253.724551 156.786584 
L 255.39521 159.194879 
L 257.065868 160.262955 
L 258.736527 162.783727 
L 260.407186 163.963536 
L 262.077844 166.074865 
L 263.748503 167.768893 
L 265.419162 169.725582 
L 267.08982 173.042025 
L 268.760479 176.023302 
L 270.431138 177.925187 
L 272.101796 180.45713 
L 273.772455 182.042564 
L 275.443114 184.520534 
L 277.113772 187.482245 
L 280.45509 194.185575 
L 283.796407 199.567325 
L 287.137725 205.600019 
L 288.808383 207.96391 
L 290.479042 211.036032 
L 292.149701 214.677919 
L 293.820359 216.782524 
L 295.491018 219.783672 
L 297.161677 222.177238 
L 298.832335 225.161662 
L 300.502994 227.799797 
L 302.173653 230.192645 
L 303.844311 231.865881 
L 308.856287 237.760945 
L 310.526946 238.918009 
L 312.197605 239.611982 
L 313.868263 239.884636 
L 315.538922 240.670028 
L 317.209581 240.923181 
L 318.88024 240.985921 
L 320.550898 241.567718 
L 323.892216 240.60646 
L 325.562874 240.655468 
L 327.233533 239.040897 
L 328.904192 238.817136 
L 330.57485 237.64442 
L 332.245509 236.809615 
L 333.916168 235.280636 
L 335.586826 233.034182 
L 337.257485 231.93721 
L 340.598802 227.692177 
L 343.94012 222.529809 
L 348.952096 214.361074 
L 350.622754 209.977767 
L 353.964072 201.997218 
L 355.634731 199.64404 
L 357.305389 195.638061 
L 358.976048 192.562515 
L 360.646707 188.737572 
L 362.317365 185.672357 
L 363.988024 182.000086 
L 365.658683 177.950166 
L 367.329341 176.744509 
L 369 173.421083 
L 370.670659 171.423117 
L 372.341317 170.676848 
L 374.011976 169.178815 
L 375.682635 168.876929 
L 379.023952 169.109222 
L 380.694611 169.878125 
L 382.365269 170.112673 
L 384.035928 170.741997 
L 385.706587 172.300194 
L 387.377246 172.970378 
L 389.047904 174.635085 
L 390.718563 175.473431 
L 392.389222 176.781942 
L 394.05988 178.896588 
L 397.401198 183.95305 
L 399.071856 186.845263 
L 400.742515 190.665984 
L 404.083832 199.899957 
L 405.754491 205.650344 
L 409.095808 218.598836 
L 415.778443 247.622089 
L 420.790419 265.128529 
L 422.461078 269.873969 
L 424.131737 274.281769 
L 425.802395 278.006888 
L 427.473054 281.164356 
L 429.143713 283.61029 
L 430.814371 286.284334 
L 432.48503 288.285571 
L 434.155689 289.315632 
L 435.826347 290.611464 
L 439.167665 291.526791 
L 440.838323 291.334873 
L 442.508982 290.80738 
L 444.179641 289.796312 
L 445.850299 289.054028 
L 447.520958 287.907746 
L 449.191617 286.205402 
L 450.862275 284.31807 
L 452.532934 281.650613 
L 454.203593 279.471802 
L 455.874251 276.52351 
L 457.54491 273.832304 
L 460.886228 266.922373 
L 462.556886 263.498866 
L 464.227545 259.45448 
L 465.898204 256.702799 
L 467.568862 251.831724 
L 469.239521 247.485808 
L 474.251497 236.951601 
L 475.922156 233.497924 
L 477.592814 229.104891 
L 479.263473 227.293824 
L 480.934132 224.522791 
L 482.60479 222.114353 
L 484.275449 221.12654 
L 485.946108 218.464248 
L 489.287425 214.360209 
L 490.958084 212.570218 
L 492.628743 210.992969 
L 494.299401 210.397833 
L 495.97006 208.784669 
L 497.640719 206.793634 
L 499.311377 207.087124 
L 500.982036 205.203948 
L 504.323353 199.948682 
L 505.994012 198.024318 
L 507.664671 194.228995 
L 511.005988 187.461188 
L 512.676647 184.842874 
L 516.017964 177.852157 
L 517.688623 173.711122 
L 519.359281 171.322195 
L 521.02994 167.921057 
L 524.371257 162.04106 
L 526.041916 161.274967 
L 527.712575 159.542179 
L 529.383234 155.604384 
L 531.053892 154.900098 
L 532.724551 152.451235 
L 534.39521 149.708126 
L 536.065868 149.948662 
L 537.736527 148.691801 
L 539.407186 147.789711 
L 541.077844 147.514763 
L 542.748503 146.421948 
L 544.419162 146.099614 
L 546.08982 145.331196 
L 547.760479 146.105827 
L 549.431138 148.051296 
L 551.101796 149.225361 
L 552.772455 150.666134 
L 554.443114 153.717157 
L 556.113772 155.426386 
L 559.45509 161.627344 
L 561.125749 163.72823 
L 562.796407 165.597203 
L 564.467066 167.815517 
L 566.137725 169.391176 
L 567.808383 170.510111 
L 569.479042 173.26921 
L 571.149701 175.51744 
L 572.820359 178.470517 
L 574.491018 181.008884 
L 576.161677 184.184666 
L 577.832335 186.593477 
L 579.502994 190.034695 
L 584.51497 199.232471 
L 586.185629 203.203494 
L 587.856287 205.801134 
L 589.526946 210.095069 
L 591.197605 213.302962 
L 592.868263 215.496076 
L 594.538922 218.197613 
L 596.209581 220.39834 
L 597.88024 223.016292 
L 599.550898 224.882504 
L 601.221557 227.708738 
L 602.892216 228.889333 
L 604.562874 231.192339 
L 606.233533 232.958984 
L 607.904192 233.965236 
L 609.57485 236.525431 
L 611.245509 237.327352 
L 612.916168 238.750896 
L 616.257485 242.163651 
L 617.928144 243.446459 
L 619.598802 245.356532 
L 621.269461 246.550317 
L 622.94012 247.971383 
L 624.610778 247.882338 
L 626.281437 249.834985 
L 627.952096 250.591409 
L 629.622754 252.119052 
L 632.964072 253.515401 
L 634.634731 255.379963 
L 636.305389 255.628379 
L 637.976048 255.18336 
L 639.646707 255.604963 
L 641.317365 256.250097 
L 642.988024 256.155274 
L 644.658683 256.732817 
L 648 256.502749 
L 649.670659 256.722687 
L 651.341317 255.972279 
L 653.011976 257.452032 
L 656.353293 257.379335 
L 658.023952 259.008266 
L 659.694611 257.691992 
L 661.365269 258.105931 
L 661.365269 258.105931 
" style="fill:none;stroke:#fc997a;stroke-linecap:square;stroke-width:1.5;"/>
   </g>
   <g id="line2d_76">
    <path clip-path="url(#pa15dcca553)" d="M 90 220.605142 
L 648 220.605142 
" style="fill:none;stroke:#000000;stroke-dasharray:3.7,1.6;stroke-dashoffset:0;"/>
   </g>
   <g id="patch_3">
    <path d="M 90 315 
L 90 43.2 
" style="fill:none;stroke:#000000;stroke-linecap:square;stroke-linejoin:miter;stroke-width:0.8;"/>
   </g>
   <g id="patch_4">
    <path d="M 648 315 
L 648 43.2 
" style="fill:none;stroke:#000000;stroke-linecap:square;stroke-linejoin:miter;stroke-width:0.8;"/>
   </g>
   <g id="patch_5">
    <path d="M 90 315 
L 648 315 
" style="fill:none;stroke:#000000;stroke-linecap:square;stroke-linejoin:miter;stroke-width:0.8;"/>
   </g>
   <g id="patch_6">
    <path d="M 90 43.2 
L 648 43.2 
" style="fill:none;stroke:#000000;stroke-linecap:square;stroke-linejoin:miter;stroke-width:0.8;"/>
   </g>
   <g id="text_21">
    <!-- 512    $R_t$ -->
    <g transform="translate(317.28 37.2)scale(0.12 -0.12)">
     <defs>
      <path id="DejaVuSans-32"/>
      <path d="M 18.171875 54.6875 
L 18.171875 -20.796875 
L 9.078125 -20.796875 
L 9.078125 54.6875 
z
" id="DejaVuSans-1503"/>
      <path d="M 31.203125 29.59375 
Q 31.203125 22.5625 32.890625 14.75 
Q 34.578125 6.9375 38.328125 0 
L 28.609375 0 
Q 25.78125 6.59375 24.5625 12.0625 
Q 22.953125 8.109375 21.234375 5.59375 
Q 19.53125 3.078125 17.578125 1.75 
Q 15.625 0.4375 13.671875 -0.015625 
Q 11.71875 -0.484375 9.03125 -0.484375 
Q 6.78125 -0.484375 4.296875 0.203125 
L 4.296875 8.453125 
Q 5.953125 7.953125 7.71875 7.953125 
Q 9.859375 7.953125 11.546875 8.265625 
Q 13.234375 8.59375 15.328125 9.859375 
Q 17.4375 11.140625 18.796875 13.359375 
Q 20.171875 15.578125 21.140625 19.71875 
Q 22.125 23.875 22.125 29.59375 
Q 22.125 36.96875 20.875 40.890625 
Q 19.625 44.828125 17.15625 46.265625 
Q 14.703125 47.703125 10.203125 47.703125 
L 5.8125 47.703125 
L 5.8125 54.6875 
L 10.5 54.6875 
Q 21.296875 54.6875 26.25 48.734375 
Q 31.203125 42.78125 31.203125 29.59375 
z
" id="DejaVuSans-1490"/>
      <path d="M 56.640625 29.59375 
L 56.640625 0 
L 47.5625 0 
L 47.5625 29.6875 
Q 47.5625 33.296875 47.3125 35.71875 
Q 47.078125 38.140625 46.1875 40.59375 
Q 45.3125 43.0625 43.75 44.484375 
Q 42.1875 45.90625 39.453125 46.796875 
Q 36.71875 47.703125 32.8125 47.703125 
L 20.796875 47.703125 
L 20.796875 20.21875 
Q 20.796875 9.765625 17.796875 4.6875 
Q 14.796875 -0.390625 7.375 -0.390625 
Q 4.78125 -0.390625 0.984375 0.390625 
L 0.984375 7.375 
Q 4.15625 6.6875 6 6.6875 
Q 9.46875 6.6875 10.59375 9.46875 
Q 11.71875 12.25 11.71875 20.21875 
L 11.71875 47.703125 
L 3.265625 47.703125 
L 3.265625 54.6875 
L 32.8125 54.6875 
Q 39.796875 54.6875 44.5 53.046875 
Q 49.21875 51.421875 51.859375 48.046875 
Q 54.5 44.671875 55.5625 40.28125 
Q 56.640625 35.890625 56.640625 29.59375 
z
" id="DejaVuSans-1514"/>
      <path d="M 4.296875 54.6875 
L 14.890625 54.6875 
Q 15.09375 54.15625 16.703125 50.3125 
Q 18.3125 46.484375 19.390625 42.671875 
Q 20.75 46.09375 22.625 48.53125 
Q 24.515625 50.984375 26.359375 52.296875 
Q 28.21875 53.609375 30.609375 54.34375 
Q 33.015625 55.078125 34.859375 55.265625 
Q 36.71875 55.46875 39.203125 55.46875 
Q 58.84375 55.46875 58.84375 29.59375 
L 58.84375 0 
L 31.390625 0 
L 31.390625 6.9375 
L 49.75 6.9375 
L 49.75 29.59375 
Q 49.75 39.109375 46.765625 43.671875 
Q 43.796875 48.25 39.0625 48.25 
Q 30.28125 48.25 26.078125 40.4375 
Q 23.734375 35.984375 21.6875 25.921875 
Q 21.578125 25.25 21.34375 24.125 
L 16.546875 0 
L 7.46875 0 
L 11.375 20.40625 
Q 11.53125 21.1875 11.890625 22.96875 
Q 12.25 24.75 12.375 25.40625 
Q 12.5 26.078125 12.671875 27.3125 
Q 12.84375 28.5625 12.90625 29.515625 
Q 12.984375 30.46875 12.984375 31.546875 
Q 12.984375 34.671875 10.71875 41.09375 
Q 8.453125 47.515625 4.296875 54.6875 
z
" id="DejaVuSans-1502"/>
      <path d="M 47.359375 27.828125 
L 47.359375 0 
L 38.28125 0 
L 38.28125 27.828125 
Q 38.28125 31.390625 37.765625 34.265625 
Q 37.25 37.15625 36 39.71875 
Q 34.765625 42.28125 32.8125 43.984375 
Q 30.859375 45.703125 27.78125 46.703125 
Q 24.703125 47.703125 20.703125 47.703125 
L 4.296875 47.703125 
L 4.296875 54.6875 
L 20.65625 54.6875 
Q 26.8125 54.6875 31.46875 53.390625 
Q 36.140625 52.09375 39.109375 49.828125 
Q 42.09375 47.5625 43.96875 44.109375 
Q 45.84375 40.671875 46.59375 36.734375 
Q 47.359375 32.8125 47.359375 27.828125 
z
" id="DejaVuSans-1512"/>
      <path d="M 18.171875 54.6875 
L 18.171875 0 
L 9.078125 0 
L 9.078125 54.6875 
z
" id="DejaVuSans-1493"/>
      <path d="M 30.328125 54.6875 
L 30.328125 47.703125 
L 26.421875 47.703125 
Q 22.171875 47.703125 20.578125 43.921875 
Q 19 40.140625 19 30.90625 
L 19 0 
L 9.90625 0 
L 9.90625 30.90625 
Q 9.90625 37.109375 11.78125 41.453125 
Q 13.671875 45.796875 16.40625 47.703125 
L 4.296875 47.703125 
L 4.296875 54.6875 
z
" id="DejaVuSans-1494"/>
      <path d="M 43.75 20.0625 
L 57.671875 0 
L 47.078125 0 
L 26.765625 29.296875 
Q 25.390625 28.609375 24.53125 28.09375 
Q 23.6875 27.59375 22.3125 26.296875 
Q 20.953125 25 20.140625 23.40625 
Q 19.34375 21.828125 18.703125 19.140625 
Q 18.0625 16.453125 18.0625 13.09375 
L 18.0625 0 
L 9.078125 0 
L 9.078125 9.03125 
Q 9.078125 12.984375 9.5625 16.359375 
Q 10.0625 19.734375 10.8125 22.078125 
Q 11.578125 24.421875 12.796875 26.390625 
Q 14.015625 28.375 15.109375 29.59375 
Q 16.21875 30.8125 17.796875 31.875 
Q 19.390625 32.953125 20.453125 33.46875 
Q 21.53125 33.984375 23.046875 34.625 
L 9.1875 54.6875 
L 19.78125 54.6875 
L 40.09375 25.390625 
Q 41.40625 26.03125 42.25 26.53125 
Q 43.109375 27.046875 44.46875 28.359375 
Q 45.84375 29.6875 46.671875 31.265625 
Q 47.515625 32.859375 48.140625 35.546875 
Q 48.78125 38.234375 48.78125 41.609375 
L 48.78125 54.6875 
L 57.765625 54.6875 
L 57.765625 45.65625 
Q 57.765625 41.65625 57.265625 38.3125 
Q 56.78125 34.96875 56.03125 32.59375 
Q 55.28125 30.21875 54.046875 28.234375 
Q 52.828125 26.265625 51.703125 25.0625 
Q 50.59375 23.875 49.03125 22.796875 
Q 47.46875 21.734375 46.390625 21.21875 
Q 45.3125 20.703125 43.75 20.0625 
z
" id="DejaVuSans-1488"/>
      <path d="M 25.203125 64.796875 
L 20.21875 38.921875 
L 32.90625 38.921875 
Q 40.375 38.921875 44.984375 43.046875 
Q 49.609375 47.171875 49.609375 53.8125 
Q 49.609375 59.125 46.5 61.953125 
Q 43.40625 64.796875 37.59375 64.796875 
z
M 43.3125 35.015625 
Q 46.4375 34.28125 48.515625 31.390625 
Q 50.59375 28.515625 53.328125 19.921875 
L 59.515625 0 
L 49.125 0 
L 43.40625 18.703125 
Q 41.21875 25.921875 38.328125 28.359375 
Q 35.453125 30.8125 29.5 30.8125 
L 18.609375 30.8125 
L 12.59375 0 
L 2.6875 0 
L 16.890625 72.90625 
L 39.109375 72.90625 
Q 49.21875 72.90625 54.609375 68.328125 
Q 60.015625 63.765625 60.015625 55.171875 
Q 60.015625 47.5625 55.421875 41.984375 
Q 50.828125 36.421875 43.3125 35.015625 
z
" id="DejaVuSans-Oblique-82"/>
      <path d="M 42.28125 54.6875 
L 40.921875 47.703125 
L 23 47.703125 
L 17.1875 18.015625 
Q 16.890625 16.359375 16.75 15.234375 
Q 16.609375 14.109375 16.609375 13.484375 
Q 16.609375 10.359375 18.484375 8.9375 
Q 20.359375 7.515625 24.515625 7.515625 
L 33.59375 7.515625 
L 32.078125 0 
L 23.484375 0 
Q 15.484375 0 11.546875 3.125 
Q 7.625 6.25 7.625 12.59375 
Q 7.625 13.71875 7.765625 15.0625 
Q 7.90625 16.40625 8.203125 18.015625 
L 14.015625 47.703125 
L 6.390625 47.703125 
L 7.8125 54.6875 
L 15.28125 54.6875 
L 18.3125 70.21875 
L 27.296875 70.21875 
L 24.3125 54.6875 
z
" id="DejaVuSans-Oblique-116"/>
     </defs>
     <use transform="translate(0 0.78125)" xlink:href="#DejaVuSans-53"/>
     <use transform="translate(63.623047 0.78125)" xlink:href="#DejaVuSans-49"/>
     <use transform="translate(127.246094 0.78125)" xlink:href="#DejaVuSans-50"/>
     <use transform="translate(190.869141 0.78125)" xlink:href="#DejaVuSans-32"/>
     <use transform="translate(222.65625 0.78125)" xlink:href="#DejaVuSans-1503"/>
     <use transform="translate(249.902344 0.78125)" xlink:href="#DejaVuSans-1490"/>
     <use transform="translate(291.113281 0.78125)" xlink:href="#DejaVuSans-32"/>
     <use transform="translate(322.900391 0.78125)" xlink:href="#DejaVuSans-1514"/>
     <use transform="translate(388.623047 0.78125)" xlink:href="#DejaVuSans-1502"/>
     <use transform="translate(456.542969 0.78125)" xlink:href="#DejaVuSans-1512"/>
     <use transform="translate(512.988281 0.78125)" xlink:href="#DejaVuSans-32"/>
     <use transform="translate(544.775391 0.78125)" xlink:href="#DejaVuSans-1512"/>
     <use transform="translate(601.220703 0.78125)" xlink:href="#DejaVuSans-1493"/>
     <use transform="translate(628.466797 0.78125)" xlink:href="#DejaVuSans-1494"/>
     <use transform="translate(663.085938 0.78125)" xlink:href="#DejaVuSans-1488"/>
     <use transform="translate(729.931641 0.78125)" xlink:href="#DejaVuSans-32"/>
     <use transform="translate(761.71875 0.78125)" xlink:href="#DejaVuSans-Oblique-82"/>
     <use transform="translate(831.201172 -15.625)scale(0.7)" xlink:href="#DejaVuSans-Oblique-116"/>
    </g>
   </g>
  </g>
 </g>
 <defs>
  <clipPath id="pa15dcca553">
   <rect height="271.8" width="558" x="90" y="43.2"/>
  </clipPath>
 </defs>
</svg>
