<?xml version="1.0" encoding="utf-8" standalone="no"?>
<!DOCTYPE svg PUBLIC "-//W3C//DTD SVG 1.1//EN"
  "http://www.w3.org/Graphics/SVG/1.1/DTD/svg11.dtd">
<!-- Created with matplotlib (https://matplotlib.org/) -->
<svg height="360pt" version="1.1" viewBox="0 0 720 360" width="720pt" xmlns="http://www.w3.org/2000/svg" xmlns:xlink="http://www.w3.org/1999/xlink">
 <metadata>
  <rdf:RDF xmlns:cc="http://creativecommons.org/ns#" xmlns:dc="http://purl.org/dc/elements/1.1/" xmlns:rdf="http://www.w3.org/1999/02/22-rdf-syntax-ns#">
   <cc:Work>
    <dc:type rdf:resource="http://purl.org/dc/dcmitype/StillImage"/>
    <dc:date>2021-04-04T05:05:02.038058</dc:date>
    <dc:format>image/svg+xml</dc:format>
    <dc:creator>
     <cc:Agent>
      <dc:title>Matplotlib v3.3.2, https://matplotlib.org/</dc:title>
     </cc:Agent>
    </dc:creator>
   </cc:Work>
  </rdf:RDF>
 </metadata>
 <defs>
  <style type="text/css">*{stroke-linecap:butt;stroke-linejoin:round;}</style>
 </defs>
 <g id="figure_1">
  <g id="patch_1">
   <path d="M 0 360 
L 720 360 
L 720 0 
L 0 0 
z
" style="fill:#ffffff;"/>
  </g>
  <g id="axes_1">
   <g id="patch_2">
    <path d="M 90 315 
L 648 315 
L 648 43.2 
L 90 43.2 
z
" style="fill:#ffffff;"/>
   </g>
   <g id="PolyCollection_1">
    <defs>
     <path d="M 90 -190.008831 
L 90 -304.445455 
L 91.456919 -303.116273 
L 92.913838 -300.398382 
L 94.370757 -290.095371 
L 95.827676 -290.939013 
L 97.284595 -293.507278 
L 98.741514 -289.203617 
L 100.198433 -282.413526 
L 101.655352 -278.611604 
L 103.112272 -270.746858 
L 104.569191 -264.352024 
L 106.02611 -253.052798 
L 107.483029 -248.473409 
L 108.939948 -238.367211 
L 110.396867 -231.682 
L 111.853786 -218.676177 
L 113.310705 -212.023017 
L 114.767624 -195.575083 
L 116.224543 -187.693965 
L 117.681462 -177.79833 
L 119.138381 -173.125723 
L 120.5953 -163.30492 
L 122.052219 -156.689139 
L 123.509138 -147.664554 
L 124.966057 -143.356676 
L 126.422977 -139.001354 
L 127.879896 -134.269303 
L 129.336815 -129.33017 
L 130.793734 -125.129424 
L 132.250653 -120.48317 
L 133.707572 -117.384024 
L 135.164491 -112.180218 
L 136.62141 -108.598446 
L 138.078329 -103.901748 
L 139.535248 -102.218968 
L 140.992167 -97.903594 
L 142.449086 -96.39532 
L 143.906005 -93.649195 
L 145.362924 -92.002279 
L 146.819843 -91.639119 
L 148.276762 -89.448348 
L 149.733681 -89.035068 
L 151.190601 -88.103098 
L 152.64752 -89.667152 
L 154.104439 -88.246814 
L 155.561358 -91.864026 
L 157.018277 -90.686862 
L 158.475196 -92.568552 
L 159.932115 -94.959712 
L 161.389034 -95.441508 
L 162.845953 -99.221668 
L 164.302872 -102.314892 
L 165.759791 -107.748568 
L 167.21671 -113.806883 
L 168.673629 -120.92559 
L 170.130548 -124.504206 
L 171.587467 -133.038565 
L 173.044386 -142.302675 
L 174.501305 -149.126146 
L 175.958225 -159.696777 
L 177.415144 -168.661707 
L 178.872063 -182.812685 
L 180.328982 -192.787637 
L 181.785901 -204.281555 
L 183.24282 -217.152882 
L 184.699739 -230.568968 
L 186.156658 -236.895847 
L 187.613577 -245.806719 
L 189.070496 -254.953237 
L 190.527415 -255.245803 
L 191.984334 -262.672432 
L 193.441253 -260.431781 
L 194.898172 -251.497698 
L 196.355091 -245.364544 
L 197.81201 -234.990069 
L 199.26893 -224.447814 
L 200.725849 -212.691469 
L 202.182768 -198.741876 
L 203.639687 -189.772755 
L 205.096606 -179.345562 
L 206.553525 -170.096716 
L 208.010444 -165.982634 
L 209.467363 -165.257958 
L 210.924282 -161.942411 
L 212.381201 -163.479238 
L 213.83812 -162.534162 
L 215.295039 -166.094989 
L 216.751958 -173.452571 
L 218.208877 -176.006682 
L 219.665796 -183.407228 
L 221.122715 -193.125337 
L 222.579634 -198.88776 
L 224.036554 -207.855897 
L 225.493473 -216.475814 
L 226.950392 -228.383247 
L 228.407311 -235.205901 
L 229.86423 -246.815233 
L 231.321149 -254.24052 
L 232.778068 -265.537371 
L 234.234987 -267.822393 
L 235.691906 -271.949742 
L 237.148825 -276.051024 
L 238.605744 -273.589885 
L 240.062663 -277.240345 
L 241.519582 -270.797555 
L 242.976501 -264.833773 
L 244.43342 -260.659084 
L 245.890339 -258.095073 
L 247.347258 -248.537958 
L 248.804178 -243.392999 
L 250.261097 -238.12186 
L 251.718016 -232.959765 
L 253.174935 -224.717992 
L 254.631854 -219.936359 
L 256.088773 -214.052919 
L 257.545692 -207.01683 
L 259.002611 -203.982962 
L 260.45953 -196.289645 
L 261.916449 -192.207151 
L 263.373368 -189.827933 
L 264.830287 -182.897687 
L 266.287206 -178.58031 
L 267.744125 -178.808274 
L 269.201044 -174.15479 
L 270.657963 -176.238121 
L 272.114883 -170.63757 
L 273.571802 -167.11618 
L 275.028721 -163.626165 
L 276.48564 -161.841616 
L 277.942559 -163.610361 
L 279.399478 -159.103181 
L 280.856397 -160.098941 
L 282.313316 -155.66292 
L 283.770235 -155.440336 
L 285.227154 -157.47723 
L 286.684073 -154.482422 
L 288.140992 -153.573609 
L 289.597911 -153.53495 
L 291.05483 -151.41095 
L 292.511749 -152.077543 
L 293.968668 -152.06586 
L 295.425587 -154.823554 
L 296.882507 -157.764124 
L 298.339426 -155.628641 
L 299.796345 -154.511408 
L 301.253264 -152.37708 
L 302.710183 -152.226232 
L 304.167102 -151.821482 
L 305.624021 -152.579731 
L 307.08094 -152.346741 
L 308.537859 -154.940228 
L 309.994778 -153.754101 
L 311.451697 -154.338995 
L 312.908616 -154.966052 
L 314.365535 -157.647307 
L 315.822454 -160.379838 
L 317.279373 -162.840256 
L 318.736292 -163.705829 
L 320.193211 -168.663532 
L 321.650131 -174.253886 
L 323.10705 -172.566562 
L 324.563969 -175.197115 
L 326.020888 -180.829089 
L 327.477807 -185.620054 
L 328.934726 -189.171385 
L 330.391645 -191.694794 
L 331.848564 -196.884371 
L 333.305483 -200.899848 
L 334.762402 -203.661617 
L 336.219321 -204.76718 
L 337.67624 -205.688989 
L 339.133159 -207.973847 
L 340.590078 -211.054481 
L 342.046997 -211.245344 
L 343.503916 -209.833031 
L 344.960836 -210.387136 
L 346.417755 -204.717863 
L 347.874674 -206.34927 
L 349.331593 -202.595068 
L 350.788512 -200.060993 
L 352.245431 -198.352734 
L 353.70235 -200.266359 
L 355.159269 -193.042413 
L 356.616188 -190.015726 
L 358.073107 -188.540062 
L 359.530026 -186.164124 
L 360.986945 -183.279151 
L 362.443864 -181.502768 
L 363.900783 -177.488857 
L 365.357702 -175.58928 
L 366.814621 -169.932774 
L 368.27154 -168.902388 
L 369.72846 -163.552544 
L 371.185379 -158.837428 
L 372.642298 -153.009063 
L 374.099217 -146.940509 
L 375.556136 -144.497461 
L 377.013055 -141.398365 
L 378.469974 -134.678613 
L 379.926893 -131.26094 
L 381.383812 -126.278631 
L 382.840731 -124.429296 
L 384.29765 -121.474045 
L 385.754569 -118.114361 
L 387.211488 -115.574642 
L 388.668407 -114.073936 
L 390.125326 -112.747438 
L 391.582245 -109.868494 
L 393.039164 -111.08035 
L 394.496084 -108.878649 
L 395.953003 -108.626214 
L 397.409922 -109.259199 
L 398.866841 -110.512141 
L 400.32376 -110.124077 
L 401.780679 -110.248775 
L 403.237598 -110.70585 
L 404.694517 -112.226307 
L 406.151436 -112.722149 
L 407.608355 -116.826759 
L 409.065274 -119.050186 
L 410.522193 -120.738395 
L 411.979112 -123.264087 
L 413.436031 -126.569914 
L 414.89295 -127.721196 
L 416.349869 -131.950159 
L 417.806789 -133.269332 
L 419.263708 -137.269057 
L 420.720627 -139.967305 
L 422.177546 -144.86355 
L 423.634465 -147.40932 
L 425.091384 -151.937882 
L 426.548303 -156.325677 
L 428.005222 -158.081508 
L 429.462141 -158.263905 
L 430.91906 -164.206159 
L 432.375979 -163.014995 
L 433.832898 -167.054575 
L 435.289817 -172.561854 
L 436.746736 -173.136076 
L 438.203655 -179.434167 
L 439.660574 -178.858939 
L 441.117493 -181.66794 
L 442.574413 -183.76494 
L 444.031332 -184.854742 
L 445.488251 -187.960182 
L 446.94517 -189.817186 
L 448.402089 -191.97208 
L 449.859008 -190.537959 
L 451.315927 -195.314076 
L 452.772846 -192.914638 
L 454.229765 -198.584025 
L 455.686684 -201.477614 
L 457.143603 -200.708812 
L 458.600522 -203.747622 
L 460.057441 -205.661547 
L 461.51436 -212.072782 
L 462.971279 -209.939947 
L 464.428198 -212.624345 
L 465.885117 -215.100568 
L 467.342037 -216.12097 
L 468.798956 -214.301085 
L 470.255875 -214.128009 
L 471.712794 -214.16741 
L 473.169713 -215.431015 
L 474.626632 -215.523368 
L 476.083551 -215.428776 
L 477.54047 -221.040034 
L 478.997389 -218.376389 
L 480.454308 -220.63124 
L 481.911227 -222.34158 
L 483.368146 -219.684266 
L 484.825065 -214.727104 
L 486.281984 -218.516247 
L 487.738903 -214.097209 
L 489.195822 -213.728418 
L 490.652742 -218.9438 
L 492.109661 -216.544843 
L 493.56658 -215.244135 
L 495.023499 -213.207185 
L 496.480418 -215.969304 
L 497.937337 -217.256899 
L 499.394256 -212.377591 
L 500.851175 -214.553603 
L 502.308094 -209.767737 
L 503.765013 -207.015788 
L 505.221932 -211.206008 
L 506.678851 -204.975538 
L 508.13577 -206.928921 
L 509.592689 -203.221722 
L 511.049608 -201.935698 
L 512.506527 -197.541372 
L 513.963446 -195.676028 
L 515.420366 -192.425657 
L 516.877285 -192.050852 
L 518.334204 -187.539819 
L 519.791123 -184.903434 
L 521.248042 -180.253657 
L 522.704961 -179.309651 
L 524.16188 -172.742541 
L 525.618799 -171.87509 
L 527.075718 -169.759216 
L 528.532637 -163.972838 
L 529.989556 -159.346397 
L 531.446475 -155.859862 
L 532.903394 -152.540292 
L 534.360313 -152.303634 
L 535.817232 -147.833052 
L 537.274151 -144.735696 
L 538.73107 -144.263098 
L 540.18799 -141.976557 
L 541.644909 -140.299959 
L 543.101828 -136.085534 
L 544.558747 -135.172501 
L 546.015666 -133.913379 
L 547.472585 -135.285063 
L 548.929504 -133.110634 
L 550.386423 -131.128878 
L 551.843342 -132.547341 
L 553.300261 -131.931702 
L 554.75718 -132.923849 
L 556.214099 -132.778872 
L 557.671018 -129.687866 
L 559.127937 -131.791162 
L 560.584856 -132.545772 
L 562.041775 -132.472383 
L 563.498695 -133.442697 
L 564.955614 -133.224067 
L 566.412533 -134.708464 
L 567.869452 -137.329241 
L 569.326371 -138.244387 
L 570.78329 -139.171374 
L 572.240209 -141.325258 
L 573.697128 -142.869723 
L 575.154047 -143.138853 
L 576.610966 -147.922251 
L 578.067885 -149.932755 
L 579.524804 -151.789075 
L 580.981723 -155.76227 
L 582.438642 -157.382937 
L 583.895561 -157.17685 
L 585.35248 -157.660873 
L 586.809399 -162.309817 
L 588.266319 -160.957311 
L 589.723238 -161.633834 
L 591.180157 -159.510382 
L 592.637076 -160.718229 
L 594.093995 -156.931599 
L 595.550914 -154.810458 
L 597.007833 -150.968418 
L 598.464752 -150.558342 
L 599.921671 -146.072057 
L 601.37859 -142.611948 
L 602.835509 -137.437562 
L 604.292428 -134.429332 
L 605.749347 -130.907029 
L 607.206266 -127.165069 
L 608.663185 -123.778512 
L 610.120104 -119.388151 
L 611.577023 -115.733676 
L 613.033943 -113.126261 
L 614.490862 -109.70976 
L 615.947781 -107.232862 
L 617.4047 -104.786281 
L 618.861619 -101.850399 
L 620.318538 -102.020235 
L 621.775457 -98.273825 
L 623.232376 -96.391593 
L 624.689295 -95.333753 
L 626.146214 -97.747895 
L 627.603133 -95.544553 
L 629.060052 -93.543233 
L 630.516971 -93.905294 
L 631.97389 -96.982156 
L 633.430809 -94.522029 
L 634.887728 -95.781995 
L 636.344648 -98.1652 
L 637.801567 -97.761299 
L 639.258486 -98.116553 
L 640.715405 -99.556268 
L 642.172324 -101.022717 
L 643.629243 -99.806183 
L 645.086162 -101.678959 
L 646.543081 -100.21754 
L 648 -102.614225 
L 649.456919 -102.139521 
L 650.913838 -101.558692 
L 652.370757 -100.782558 
L 653.827676 -105.682607 
L 655.284595 -103.499656 
L 656.741514 -105.264153 
L 658.198433 -106.127105 
L 659.655352 -106.215258 
L 659.655352 -57.385808 
L 659.655352 -57.385808 
L 658.198433 -58.348521 
L 656.741514 -58.495166 
L 655.284595 -57.354545 
L 653.827676 -60.170883 
L 652.370757 -57.710897 
L 650.913838 -57.993356 
L 649.456919 -60.823978 
L 648 -63.558332 
L 646.543081 -61.732878 
L 645.086162 -64.685964 
L 643.629243 -65.26858 
L 642.172324 -66.908775 
L 640.715405 -67.283186 
L 639.258486 -66.627028 
L 637.801567 -67.672701 
L 636.344648 -69.742301 
L 634.887728 -69.225372 
L 633.430809 -69.436339 
L 631.97389 -73.195951 
L 630.516971 -71.362711 
L 629.060052 -72.091969 
L 627.603133 -74.516711 
L 626.146214 -76.661085 
L 624.689295 -75.060505 
L 623.232376 -76.3368 
L 621.775457 -77.994033 
L 620.318538 -81.348156 
L 618.861619 -80.930464 
L 617.4047 -83.135398 
L 615.947781 -85.398914 
L 614.490862 -87.618115 
L 613.033943 -90.243413 
L 611.577023 -93.017567 
L 610.120104 -95.876986 
L 608.663185 -99.566672 
L 607.206266 -101.989559 
L 605.749347 -103.98656 
L 604.292428 -107.929943 
L 602.835509 -109.770985 
L 601.37859 -113.591915 
L 599.921671 -116.626803 
L 598.464752 -120.753731 
L 597.007833 -120.982051 
L 595.550914 -123.640556 
L 594.093995 -124.864443 
L 592.637076 -127.765761 
L 591.180157 -126.020398 
L 589.723238 -126.417333 
L 588.266319 -124.812785 
L 586.809399 -127.566511 
L 585.35248 -122.605216 
L 583.895561 -123.21532 
L 582.438642 -124.679761 
L 580.981723 -123.818392 
L 579.524804 -121.422647 
L 578.067885 -117.323211 
L 576.610966 -118.194797 
L 575.154047 -112.053106 
L 573.697128 -113.10736 
L 572.240209 -111.166628 
L 570.78329 -110.742503 
L 569.326371 -108.97401 
L 567.869452 -108.549523 
L 566.412533 -107.20827 
L 564.955614 -104.462764 
L 563.498695 -105.968208 
L 562.041775 -105.629902 
L 560.584856 -105.891278 
L 559.127937 -104.899957 
L 557.671018 -103.96139 
L 556.214099 -106.443196 
L 554.75718 -106.511758 
L 553.300261 -105.462169 
L 551.843342 -105.253556 
L 550.386423 -104.598292 
L 548.929504 -105.849209 
L 547.472585 -107.889342 
L 546.015666 -107.629691 
L 544.558747 -108.648576 
L 543.101828 -109.442423 
L 541.644909 -111.511724 
L 540.18799 -113.143943 
L 538.73107 -114.940184 
L 537.274151 -114.852542 
L 535.817232 -118.104519 
L 534.360313 -121.862307 
L 532.903394 -120.738442 
L 531.446475 -125.021745 
L 529.989556 -130.217595 
L 528.532637 -131.173956 
L 527.075718 -136.813796 
L 525.618799 -137.613801 
L 524.16188 -138.983732 
L 522.704961 -143.045553 
L 521.248042 -145.1735 
L 519.791123 -148.821143 
L 518.334204 -151.447596 
L 516.877285 -155.0556 
L 515.420366 -157.154157 
L 513.963446 -159.73652 
L 512.506527 -159.049404 
L 511.049608 -163.331579 
L 509.592689 -162.584385 
L 508.13577 -163.752783 
L 506.678851 -163.011899 
L 505.221932 -168.039201 
L 503.765013 -162.743098 
L 502.308094 -164.542283 
L 500.851175 -172.495195 
L 499.394256 -169.949762 
L 497.937337 -175.083779 
L 496.480418 -174.068951 
L 495.023499 -171.003215 
L 493.56658 -172.688842 
L 492.109661 -173.114151 
L 490.652742 -175.981982 
L 489.195822 -172.051642 
L 487.738903 -172.056696 
L 486.281984 -176.343973 
L 484.825065 -171.70423 
L 483.368146 -173.502684 
L 481.911227 -176.84405 
L 480.454308 -175.328298 
L 478.997389 -174.266386 
L 477.54047 -175.629939 
L 476.083551 -170.877449 
L 474.626632 -171.882439 
L 473.169713 -172.141516 
L 471.712794 -170.862724 
L 470.255875 -170.517333 
L 468.798956 -168.364656 
L 467.342037 -169.422945 
L 465.885117 -167.685436 
L 464.428198 -167.431762 
L 462.971279 -164.08862 
L 461.51436 -167.484438 
L 460.057441 -165.57337 
L 458.600522 -163.897932 
L 457.143603 -160.638943 
L 455.686684 -161.026749 
L 454.229765 -158.29866 
L 452.772846 -151.72204 
L 451.315927 -154.483553 
L 449.859008 -149.398713 
L 448.402089 -152.056665 
L 446.94517 -151.510363 
L 445.488251 -147.195151 
L 444.031332 -144.980237 
L 442.574413 -145.92506 
L 441.117493 -145.147645 
L 439.660574 -143.173036 
L 438.203655 -140.877372 
L 436.746736 -138.350818 
L 435.289817 -137.788448 
L 433.832898 -133.090324 
L 432.375979 -130.440031 
L 430.91906 -129.621959 
L 429.462141 -124.216603 
L 428.005222 -124.600591 
L 426.548303 -124.088066 
L 425.091384 -120.981032 
L 423.634465 -117.80549 
L 422.177546 -116.837775 
L 420.720627 -112.364517 
L 419.263708 -110.548663 
L 417.806789 -107.37024 
L 416.349869 -106.818808 
L 414.89295 -103.580453 
L 413.436031 -100.897263 
L 411.979112 -97.470665 
L 410.522193 -96.709527 
L 409.065274 -95.055444 
L 407.608355 -93.985918 
L 406.151436 -90.797836 
L 404.694517 -91.134886 
L 403.237598 -90.887601 
L 401.780679 -90.088513 
L 400.32376 -89.5536 
L 398.866841 -88.983985 
L 397.409922 -87.802909 
L 395.953003 -87.19706 
L 394.496084 -87.255213 
L 393.039164 -89.835414 
L 391.582245 -88.209784 
L 390.125326 -91.304829 
L 388.668407 -92.384724 
L 387.211488 -93.54315 
L 385.754569 -95.73673 
L 384.29765 -99.439548 
L 382.840731 -101.684436 
L 381.383812 -101.383339 
L 379.926893 -105.034281 
L 378.469974 -108.720187 
L 377.013055 -113.898345 
L 375.556136 -115.505229 
L 374.099217 -119.699903 
L 372.642298 -123.654727 
L 371.185379 -128.438181 
L 369.72846 -132.510982 
L 368.27154 -135.997032 
L 366.814621 -136.149274 
L 365.357702 -142.439326 
L 363.900783 -142.877323 
L 362.443864 -146.617383 
L 360.986945 -147.351489 
L 359.530026 -149.176975 
L 358.073107 -152.001073 
L 356.616188 -152.333284 
L 355.159269 -155.465993 
L 353.70235 -161.744509 
L 352.245431 -160.513014 
L 350.788512 -161.186654 
L 349.331593 -163.16808 
L 347.874674 -165.741618 
L 346.417755 -164.711249 
L 344.960836 -168.466198 
L 343.503916 -166.495198 
L 342.046997 -166.428367 
L 340.590078 -167.938131 
L 339.133159 -165.442444 
L 337.67624 -162.825257 
L 336.219321 -163.077395 
L 334.762402 -162.171344 
L 333.305483 -160.172222 
L 331.848564 -156.574151 
L 330.391645 -153.457661 
L 328.934726 -152.570528 
L 327.477807 -147.461228 
L 326.020888 -143.904837 
L 324.563969 -138.356458 
L 323.10705 -136.587871 
L 321.650131 -138.691492 
L 320.193211 -135.869124 
L 318.736292 -131.270954 
L 317.279373 -129.358871 
L 315.822454 -129.21701 
L 314.365535 -125.839616 
L 312.908616 -124.278075 
L 311.451697 -123.943784 
L 309.994778 -122.720876 
L 308.537859 -123.207948 
L 307.08094 -120.120363 
L 305.624021 -120.404942 
L 304.167102 -119.535646 
L 302.710183 -120.472437 
L 301.253264 -121.332377 
L 299.796345 -123.088942 
L 298.339426 -123.193391 
L 296.882507 -125.784099 
L 295.425587 -123.371589 
L 293.968668 -121.431215 
L 292.511749 -120.038649 
L 291.05483 -121.012496 
L 289.597911 -123.405406 
L 288.140992 -121.86158 
L 286.684073 -123.752194 
L 285.227154 -124.979338 
L 283.770235 -124.362072 
L 282.313316 -122.789537 
L 280.856397 -126.646611 
L 279.399478 -126.257887 
L 277.942559 -129.350273 
L 276.48564 -128.758703 
L 275.028721 -130.497638 
L 273.571802 -133.054439 
L 272.114883 -135.453825 
L 270.657963 -139.679016 
L 269.201044 -138.267815 
L 267.744125 -142.977646 
L 266.287206 -143.403621 
L 264.830287 -147.072973 
L 263.373368 -154.603206 
L 261.916449 -155.315144 
L 260.45953 -157.999992 
L 259.002611 -162.661236 
L 257.545692 -165.794866 
L 256.088773 -172.556065 
L 254.631854 -176.279765 
L 253.174935 -179.56288 
L 251.718016 -185.615725 
L 250.261097 -190.470601 
L 248.804178 -194.627609 
L 247.347258 -198.08975 
L 245.890339 -208.177291 
L 244.43342 -210.099021 
L 242.976501 -212.675204 
L 241.519582 -217.783694 
L 240.062663 -221.991688 
L 238.605744 -218.106956 
L 237.148825 -216.406702 
L 235.691906 -213.514418 
L 234.234987 -208.251784 
L 232.778068 -207.05878 
L 231.321149 -199.84395 
L 229.86423 -194.668323 
L 228.407311 -186.166116 
L 226.950392 -180.48386 
L 225.493473 -172.145895 
L 224.036554 -165.483125 
L 222.579634 -158.74944 
L 221.122715 -153.335995 
L 219.665796 -147.882306 
L 218.208877 -139.750841 
L 216.751958 -139.527766 
L 215.295039 -133.629035 
L 213.83812 -128.576073 
L 212.381201 -129.674115 
L 210.924282 -129.411452 
L 209.467363 -130.663017 
L 208.010444 -133.825511 
L 206.553525 -135.893732 
L 205.096606 -140.244167 
L 203.639687 -147.167664 
L 202.182768 -153.953927 
L 200.725849 -165.767621 
L 199.26893 -172.161829 
L 197.81201 -180.440824 
L 196.355091 -189.362124 
L 194.898172 -193.293078 
L 193.441253 -199.715467 
L 191.984334 -201.18487 
L 190.527415 -196.148628 
L 189.070496 -198.47111 
L 187.613577 -189.480272 
L 186.156658 -183.829091 
L 184.699739 -179.102602 
L 183.24282 -169.166415 
L 181.785901 -159.209113 
L 180.328982 -151.341124 
L 178.872063 -143.304725 
L 177.415144 -132.695573 
L 175.958225 -125.279509 
L 174.501305 -117.69063 
L 173.044386 -111.776553 
L 171.587467 -104.845953 
L 170.130548 -97.251826 
L 168.673629 -94.665606 
L 167.21671 -89.354481 
L 165.759791 -84.859925 
L 164.302872 -81.326634 
L 162.845953 -79.247511 
L 161.389034 -75.459941 
L 159.932115 -75.55472 
L 158.475196 -73.93517 
L 157.018277 -72.288804 
L 155.561358 -73.283698 
L 154.104439 -71.298801 
L 152.64752 -71.801251 
L 151.190601 -71.329748 
L 149.733681 -72.675834 
L 148.276762 -72.028421 
L 146.819843 -73.828712 
L 145.362924 -74.403865 
L 143.906005 -75.213511 
L 142.449086 -77.657095 
L 140.992167 -78.510026 
L 139.535248 -81.623492 
L 138.078329 -82.928336 
L 136.62141 -86.565184 
L 135.164491 -89.563851 
L 133.707572 -92.945165 
L 132.250653 -96.248426 
L 130.793734 -99.813722 
L 129.336815 -103.365779 
L 127.879896 -108.252554 
L 126.422977 -112.153376 
L 124.966057 -115.808411 
L 123.509138 -117.917319 
L 122.052219 -125.468874 
L 120.5953 -130.386538 
L 119.138381 -139.455743 
L 117.681462 -142.051005 
L 116.224543 -148.687384 
L 114.767624 -156.065063 
L 113.310705 -168.119502 
L 111.853786 -170.857494 
L 110.396867 -179.487358 
L 108.939948 -184.772042 
L 107.483029 -191.814209 
L 106.02611 -193.981333 
L 104.569191 -201.51734 
L 103.112272 -203.041719 
L 101.655352 -206.155191 
L 100.198433 -206.322147 
L 98.741514 -209.343874 
L 97.284595 -208.601103 
L 95.827676 -197.470226 
L 94.370757 -193.234787 
L 92.913838 -198.310686 
L 91.456919 -195.399473 
L 90 -190.008831 
z
" id="mff6cb8ce94" style="stroke:#fdcbb6;stroke-opacity:0.8;"/>
    </defs>
    <g clip-path="url(#p95d918c9fd)">
     <use style="fill:#fdcbb6;fill-opacity:0.8;stroke:#fdcbb6;stroke-opacity:0.8;" x="0" xlink:href="#mff6cb8ce94" y="360"/>
    </g>
   </g>
   <g id="matplotlib.axis_1">
    <g id="xtick_1">
     <g id="line2d_1">
      <defs>
       <path d="M 0 0 
L 0 3.5 
" id="mc36af704e8" style="stroke:#000000;stroke-width:0.8;"/>
      </defs>
      <g>
       <use style="stroke:#000000;stroke-width:0.8;" x="90" xlink:href="#mc36af704e8" y="315"/>
      </g>
     </g>
    </g>
    <g id="xtick_2">
     <g id="line2d_2">
      <g>
       <use style="stroke:#000000;stroke-width:0.8;" x="126.422977" xlink:href="#mc36af704e8" y="315"/>
      </g>
     </g>
     <g id="text_1">
      <!-- Apr -->
      <g transform="translate(117.772977 329.598437)scale(0.1 -0.1)">
       <defs>
        <path d="M 34.1875 63.1875 
L 20.796875 26.90625 
L 47.609375 26.90625 
z
M 28.609375 72.90625 
L 39.796875 72.90625 
L 67.578125 0 
L 57.328125 0 
L 50.6875 18.703125 
L 17.828125 18.703125 
L 11.1875 0 
L 0.78125 0 
z
" id="DejaVuSans-65"/>
        <path d="M 18.109375 8.203125 
L 18.109375 -20.796875 
L 9.078125 -20.796875 
L 9.078125 54.6875 
L 18.109375 54.6875 
L 18.109375 46.390625 
Q 20.953125 51.265625 25.265625 53.625 
Q 29.59375 56 35.59375 56 
Q 45.5625 56 51.78125 48.09375 
Q 58.015625 40.1875 58.015625 27.296875 
Q 58.015625 14.40625 51.78125 6.484375 
Q 45.5625 -1.421875 35.59375 -1.421875 
Q 29.59375 -1.421875 25.265625 0.953125 
Q 20.953125 3.328125 18.109375 8.203125 
z
M 48.6875 27.296875 
Q 48.6875 37.203125 44.609375 42.84375 
Q 40.53125 48.484375 33.40625 48.484375 
Q 26.265625 48.484375 22.1875 42.84375 
Q 18.109375 37.203125 18.109375 27.296875 
Q 18.109375 17.390625 22.1875 11.75 
Q 26.265625 6.109375 33.40625 6.109375 
Q 40.53125 6.109375 44.609375 11.75 
Q 48.6875 17.390625 48.6875 27.296875 
z
" id="DejaVuSans-112"/>
        <path d="M 41.109375 46.296875 
Q 39.59375 47.171875 37.8125 47.578125 
Q 36.03125 48 33.890625 48 
Q 26.265625 48 22.1875 43.046875 
Q 18.109375 38.09375 18.109375 28.8125 
L 18.109375 0 
L 9.078125 0 
L 9.078125 54.6875 
L 18.109375 54.6875 
L 18.109375 46.1875 
Q 20.953125 51.171875 25.484375 53.578125 
Q 30.03125 56 36.53125 56 
Q 37.453125 56 38.578125 55.875 
Q 39.703125 55.765625 41.0625 55.515625 
z
" id="DejaVuSans-114"/>
       </defs>
       <use xlink:href="#DejaVuSans-65"/>
       <use x="68.408203" xlink:href="#DejaVuSans-112"/>
       <use x="131.884766" xlink:href="#DejaVuSans-114"/>
      </g>
     </g>
    </g>
    <g id="xtick_3">
     <g id="line2d_3">
      <g>
       <use style="stroke:#000000;stroke-width:0.8;" x="170.130548" xlink:href="#mc36af704e8" y="315"/>
      </g>
     </g>
     <g id="text_2">
      <!-- May -->
      <g transform="translate(159.793048 329.598437)scale(0.1 -0.1)">
       <defs>
        <path d="M 9.8125 72.90625 
L 24.515625 72.90625 
L 43.109375 23.296875 
L 61.8125 72.90625 
L 76.515625 72.90625 
L 76.515625 0 
L 66.890625 0 
L 66.890625 64.015625 
L 48.09375 14.015625 
L 38.1875 14.015625 
L 19.390625 64.015625 
L 19.390625 0 
L 9.8125 0 
z
" id="DejaVuSans-77"/>
        <path d="M 34.28125 27.484375 
Q 23.390625 27.484375 19.1875 25 
Q 14.984375 22.515625 14.984375 16.5 
Q 14.984375 11.71875 18.140625 8.90625 
Q 21.296875 6.109375 26.703125 6.109375 
Q 34.1875 6.109375 38.703125 11.40625 
Q 43.21875 16.703125 43.21875 25.484375 
L 43.21875 27.484375 
z
M 52.203125 31.203125 
L 52.203125 0 
L 43.21875 0 
L 43.21875 8.296875 
Q 40.140625 3.328125 35.546875 0.953125 
Q 30.953125 -1.421875 24.3125 -1.421875 
Q 15.921875 -1.421875 10.953125 3.296875 
Q 6 8.015625 6 15.921875 
Q 6 25.140625 12.171875 29.828125 
Q 18.359375 34.515625 30.609375 34.515625 
L 43.21875 34.515625 
L 43.21875 35.40625 
Q 43.21875 41.609375 39.140625 45 
Q 35.0625 48.390625 27.6875 48.390625 
Q 23 48.390625 18.546875 47.265625 
Q 14.109375 46.140625 10.015625 43.890625 
L 10.015625 52.203125 
Q 14.9375 54.109375 19.578125 55.046875 
Q 24.21875 56 28.609375 56 
Q 40.484375 56 46.34375 49.84375 
Q 52.203125 43.703125 52.203125 31.203125 
z
" id="DejaVuSans-97"/>
        <path d="M 32.171875 -5.078125 
Q 28.375 -14.84375 24.75 -17.8125 
Q 21.140625 -20.796875 15.09375 -20.796875 
L 7.90625 -20.796875 
L 7.90625 -13.28125 
L 13.1875 -13.28125 
Q 16.890625 -13.28125 18.9375 -11.515625 
Q 21 -9.765625 23.484375 -3.21875 
L 25.09375 0.875 
L 2.984375 54.6875 
L 12.5 54.6875 
L 29.59375 11.921875 
L 46.6875 54.6875 
L 56.203125 54.6875 
z
" id="DejaVuSans-121"/>
       </defs>
       <use xlink:href="#DejaVuSans-77"/>
       <use x="86.279297" xlink:href="#DejaVuSans-97"/>
       <use x="147.558594" xlink:href="#DejaVuSans-121"/>
      </g>
     </g>
    </g>
    <g id="xtick_4">
     <g id="line2d_4">
      <g>
       <use style="stroke:#000000;stroke-width:0.8;" x="215.295039" xlink:href="#mc36af704e8" y="315"/>
      </g>
     </g>
     <g id="text_3">
      <!-- Jun -->
      <g transform="translate(207.482539 329.598437)scale(0.1 -0.1)">
       <defs>
        <path d="M 9.8125 72.90625 
L 19.671875 72.90625 
L 19.671875 5.078125 
Q 19.671875 -8.109375 14.671875 -14.0625 
Q 9.671875 -20.015625 -1.421875 -20.015625 
L -5.171875 -20.015625 
L -5.171875 -11.71875 
L -2.09375 -11.71875 
Q 4.4375 -11.71875 7.125 -8.046875 
Q 9.8125 -4.390625 9.8125 5.078125 
z
" id="DejaVuSans-74"/>
        <path d="M 8.5 21.578125 
L 8.5 54.6875 
L 17.484375 54.6875 
L 17.484375 21.921875 
Q 17.484375 14.15625 20.5 10.265625 
Q 23.53125 6.390625 29.59375 6.390625 
Q 36.859375 6.390625 41.078125 11.03125 
Q 45.3125 15.671875 45.3125 23.6875 
L 45.3125 54.6875 
L 54.296875 54.6875 
L 54.296875 0 
L 45.3125 0 
L 45.3125 8.40625 
Q 42.046875 3.421875 37.71875 1 
Q 33.40625 -1.421875 27.6875 -1.421875 
Q 18.265625 -1.421875 13.375 4.4375 
Q 8.5 10.296875 8.5 21.578125 
z
M 31.109375 56 
z
" id="DejaVuSans-117"/>
        <path d="M 54.890625 33.015625 
L 54.890625 0 
L 45.90625 0 
L 45.90625 32.71875 
Q 45.90625 40.484375 42.875 44.328125 
Q 39.84375 48.1875 33.796875 48.1875 
Q 26.515625 48.1875 22.3125 43.546875 
Q 18.109375 38.921875 18.109375 30.90625 
L 18.109375 0 
L 9.078125 0 
L 9.078125 54.6875 
L 18.109375 54.6875 
L 18.109375 46.1875 
Q 21.34375 51.125 25.703125 53.5625 
Q 30.078125 56 35.796875 56 
Q 45.21875 56 50.046875 50.171875 
Q 54.890625 44.34375 54.890625 33.015625 
z
" id="DejaVuSans-110"/>
       </defs>
       <use xlink:href="#DejaVuSans-74"/>
       <use x="29.492188" xlink:href="#DejaVuSans-117"/>
       <use x="92.871094" xlink:href="#DejaVuSans-110"/>
      </g>
     </g>
    </g>
    <g id="xtick_5">
     <g id="line2d_5">
      <g>
       <use style="stroke:#000000;stroke-width:0.8;" x="259.002611" xlink:href="#mc36af704e8" y="315"/>
      </g>
     </g>
     <g id="text_4">
      <!-- Jul -->
      <g transform="translate(252.969798 329.598437)scale(0.1 -0.1)">
       <defs>
        <path d="M 9.421875 75.984375 
L 18.40625 75.984375 
L 18.40625 0 
L 9.421875 0 
z
" id="DejaVuSans-108"/>
       </defs>
       <use xlink:href="#DejaVuSans-74"/>
       <use x="29.492188" xlink:href="#DejaVuSans-117"/>
       <use x="92.871094" xlink:href="#DejaVuSans-108"/>
      </g>
     </g>
    </g>
    <g id="xtick_6">
     <g id="line2d_6">
      <g>
       <use style="stroke:#000000;stroke-width:0.8;" x="304.167102" xlink:href="#mc36af704e8" y="315"/>
      </g>
     </g>
     <g id="text_5">
      <!-- Aug -->
      <g transform="translate(294.403821 329.598437)scale(0.1 -0.1)">
       <defs>
        <path d="M 45.40625 27.984375 
Q 45.40625 37.75 41.375 43.109375 
Q 37.359375 48.484375 30.078125 48.484375 
Q 22.859375 48.484375 18.828125 43.109375 
Q 14.796875 37.75 14.796875 27.984375 
Q 14.796875 18.265625 18.828125 12.890625 
Q 22.859375 7.515625 30.078125 7.515625 
Q 37.359375 7.515625 41.375 12.890625 
Q 45.40625 18.265625 45.40625 27.984375 
z
M 54.390625 6.78125 
Q 54.390625 -7.171875 48.1875 -13.984375 
Q 42 -20.796875 29.203125 -20.796875 
Q 24.46875 -20.796875 20.265625 -20.09375 
Q 16.0625 -19.390625 12.109375 -17.921875 
L 12.109375 -9.1875 
Q 16.0625 -11.328125 19.921875 -12.34375 
Q 23.78125 -13.375 27.78125 -13.375 
Q 36.625 -13.375 41.015625 -8.765625 
Q 45.40625 -4.15625 45.40625 5.171875 
L 45.40625 9.625 
Q 42.625 4.78125 38.28125 2.390625 
Q 33.9375 0 27.875 0 
Q 17.828125 0 11.671875 7.65625 
Q 5.515625 15.328125 5.515625 27.984375 
Q 5.515625 40.671875 11.671875 48.328125 
Q 17.828125 56 27.875 56 
Q 33.9375 56 38.28125 53.609375 
Q 42.625 51.21875 45.40625 46.390625 
L 45.40625 54.6875 
L 54.390625 54.6875 
z
" id="DejaVuSans-103"/>
       </defs>
       <use xlink:href="#DejaVuSans-65"/>
       <use x="68.408203" xlink:href="#DejaVuSans-117"/>
       <use x="131.787109" xlink:href="#DejaVuSans-103"/>
      </g>
     </g>
    </g>
    <g id="xtick_7">
     <g id="line2d_7">
      <g>
       <use style="stroke:#000000;stroke-width:0.8;" x="349.331593" xlink:href="#mc36af704e8" y="315"/>
      </g>
     </g>
     <g id="text_6">
      <!-- Sep -->
      <g transform="translate(339.906593 329.598437)scale(0.1 -0.1)">
       <defs>
        <path d="M 53.515625 70.515625 
L 53.515625 60.890625 
Q 47.90625 63.578125 42.921875 64.890625 
Q 37.9375 66.21875 33.296875 66.21875 
Q 25.25 66.21875 20.875 63.09375 
Q 16.5 59.96875 16.5 54.203125 
Q 16.5 49.359375 19.40625 46.890625 
Q 22.3125 44.4375 30.421875 42.921875 
L 36.375 41.703125 
Q 47.40625 39.59375 52.65625 34.296875 
Q 57.90625 29 57.90625 20.125 
Q 57.90625 9.515625 50.796875 4.046875 
Q 43.703125 -1.421875 29.984375 -1.421875 
Q 24.8125 -1.421875 18.96875 -0.25 
Q 13.140625 0.921875 6.890625 3.21875 
L 6.890625 13.375 
Q 12.890625 10.015625 18.65625 8.296875 
Q 24.421875 6.59375 29.984375 6.59375 
Q 38.421875 6.59375 43.015625 9.90625 
Q 47.609375 13.234375 47.609375 19.390625 
Q 47.609375 24.75 44.3125 27.78125 
Q 41.015625 30.8125 33.5 32.328125 
L 27.484375 33.5 
Q 16.453125 35.6875 11.515625 40.375 
Q 6.59375 45.0625 6.59375 53.421875 
Q 6.59375 63.09375 13.40625 68.65625 
Q 20.21875 74.21875 32.171875 74.21875 
Q 37.3125 74.21875 42.625 73.28125 
Q 47.953125 72.359375 53.515625 70.515625 
z
" id="DejaVuSans-83"/>
        <path d="M 56.203125 29.59375 
L 56.203125 25.203125 
L 14.890625 25.203125 
Q 15.484375 15.921875 20.484375 11.0625 
Q 25.484375 6.203125 34.421875 6.203125 
Q 39.59375 6.203125 44.453125 7.46875 
Q 49.3125 8.734375 54.109375 11.28125 
L 54.109375 2.78125 
Q 49.265625 0.734375 44.1875 -0.34375 
Q 39.109375 -1.421875 33.890625 -1.421875 
Q 20.796875 -1.421875 13.15625 6.1875 
Q 5.515625 13.8125 5.515625 26.8125 
Q 5.515625 40.234375 12.765625 48.109375 
Q 20.015625 56 32.328125 56 
Q 43.359375 56 49.78125 48.890625 
Q 56.203125 41.796875 56.203125 29.59375 
z
M 47.21875 32.234375 
Q 47.125 39.59375 43.09375 43.984375 
Q 39.0625 48.390625 32.421875 48.390625 
Q 24.90625 48.390625 20.390625 44.140625 
Q 15.875 39.890625 15.1875 32.171875 
z
" id="DejaVuSans-101"/>
       </defs>
       <use xlink:href="#DejaVuSans-83"/>
       <use x="63.476562" xlink:href="#DejaVuSans-101"/>
       <use x="125" xlink:href="#DejaVuSans-112"/>
      </g>
     </g>
    </g>
    <g id="xtick_8">
     <g id="line2d_8">
      <g>
       <use style="stroke:#000000;stroke-width:0.8;" x="393.039164" xlink:href="#mc36af704e8" y="315"/>
      </g>
     </g>
     <g id="text_7">
      <!-- Oct -->
      <g transform="translate(384.393852 329.598437)scale(0.1 -0.1)">
       <defs>
        <path d="M 39.40625 66.21875 
Q 28.65625 66.21875 22.328125 58.203125 
Q 16.015625 50.203125 16.015625 36.375 
Q 16.015625 22.609375 22.328125 14.59375 
Q 28.65625 6.59375 39.40625 6.59375 
Q 50.140625 6.59375 56.421875 14.59375 
Q 62.703125 22.609375 62.703125 36.375 
Q 62.703125 50.203125 56.421875 58.203125 
Q 50.140625 66.21875 39.40625 66.21875 
z
M 39.40625 74.21875 
Q 54.734375 74.21875 63.90625 63.9375 
Q 73.09375 53.65625 73.09375 36.375 
Q 73.09375 19.140625 63.90625 8.859375 
Q 54.734375 -1.421875 39.40625 -1.421875 
Q 24.03125 -1.421875 14.8125 8.828125 
Q 5.609375 19.09375 5.609375 36.375 
Q 5.609375 53.65625 14.8125 63.9375 
Q 24.03125 74.21875 39.40625 74.21875 
z
" id="DejaVuSans-79"/>
        <path d="M 48.78125 52.59375 
L 48.78125 44.1875 
Q 44.96875 46.296875 41.140625 47.34375 
Q 37.3125 48.390625 33.40625 48.390625 
Q 24.65625 48.390625 19.8125 42.84375 
Q 14.984375 37.3125 14.984375 27.296875 
Q 14.984375 17.28125 19.8125 11.734375 
Q 24.65625 6.203125 33.40625 6.203125 
Q 37.3125 6.203125 41.140625 7.25 
Q 44.96875 8.296875 48.78125 10.40625 
L 48.78125 2.09375 
Q 45.015625 0.34375 40.984375 -0.53125 
Q 36.96875 -1.421875 32.421875 -1.421875 
Q 20.0625 -1.421875 12.78125 6.34375 
Q 5.515625 14.109375 5.515625 27.296875 
Q 5.515625 40.671875 12.859375 48.328125 
Q 20.21875 56 33.015625 56 
Q 37.15625 56 41.109375 55.140625 
Q 45.0625 54.296875 48.78125 52.59375 
z
" id="DejaVuSans-99"/>
        <path d="M 18.3125 70.21875 
L 18.3125 54.6875 
L 36.8125 54.6875 
L 36.8125 47.703125 
L 18.3125 47.703125 
L 18.3125 18.015625 
Q 18.3125 11.328125 20.140625 9.421875 
Q 21.96875 7.515625 27.59375 7.515625 
L 36.8125 7.515625 
L 36.8125 0 
L 27.59375 0 
Q 17.1875 0 13.234375 3.875 
Q 9.28125 7.765625 9.28125 18.015625 
L 9.28125 47.703125 
L 2.6875 47.703125 
L 2.6875 54.6875 
L 9.28125 54.6875 
L 9.28125 70.21875 
z
" id="DejaVuSans-116"/>
       </defs>
       <use xlink:href="#DejaVuSans-79"/>
       <use x="78.710938" xlink:href="#DejaVuSans-99"/>
       <use x="133.691406" xlink:href="#DejaVuSans-116"/>
      </g>
     </g>
    </g>
    <g id="xtick_9">
     <g id="line2d_9">
      <g>
       <use style="stroke:#000000;stroke-width:0.8;" x="438.203655" xlink:href="#mc36af704e8" y="315"/>
      </g>
     </g>
     <g id="text_8">
      <!-- Nov -->
      <g transform="translate(428.44428 329.598437)scale(0.1 -0.1)">
       <defs>
        <path d="M 9.8125 72.90625 
L 23.09375 72.90625 
L 55.421875 11.921875 
L 55.421875 72.90625 
L 64.984375 72.90625 
L 64.984375 0 
L 51.703125 0 
L 19.390625 60.984375 
L 19.390625 0 
L 9.8125 0 
z
" id="DejaVuSans-78"/>
        <path d="M 30.609375 48.390625 
Q 23.390625 48.390625 19.1875 42.75 
Q 14.984375 37.109375 14.984375 27.296875 
Q 14.984375 17.484375 19.15625 11.84375 
Q 23.34375 6.203125 30.609375 6.203125 
Q 37.796875 6.203125 41.984375 11.859375 
Q 46.1875 17.53125 46.1875 27.296875 
Q 46.1875 37.015625 41.984375 42.703125 
Q 37.796875 48.390625 30.609375 48.390625 
z
M 30.609375 56 
Q 42.328125 56 49.015625 48.375 
Q 55.71875 40.765625 55.71875 27.296875 
Q 55.71875 13.875 49.015625 6.21875 
Q 42.328125 -1.421875 30.609375 -1.421875 
Q 18.84375 -1.421875 12.171875 6.21875 
Q 5.515625 13.875 5.515625 27.296875 
Q 5.515625 40.765625 12.171875 48.375 
Q 18.84375 56 30.609375 56 
z
" id="DejaVuSans-111"/>
        <path d="M 2.984375 54.6875 
L 12.5 54.6875 
L 29.59375 8.796875 
L 46.6875 54.6875 
L 56.203125 54.6875 
L 35.6875 0 
L 23.484375 0 
z
" id="DejaVuSans-118"/>
       </defs>
       <use xlink:href="#DejaVuSans-78"/>
       <use x="74.804688" xlink:href="#DejaVuSans-111"/>
       <use x="135.986328" xlink:href="#DejaVuSans-118"/>
      </g>
     </g>
    </g>
    <g id="xtick_10">
     <g id="line2d_10">
      <g>
       <use style="stroke:#000000;stroke-width:0.8;" x="481.911227" xlink:href="#mc36af704e8" y="315"/>
      </g>
     </g>
     <g id="text_9">
      <!-- Dec -->
      <g transform="translate(472.235446 329.598437)scale(0.1 -0.1)">
       <defs>
        <path d="M 19.671875 64.796875 
L 19.671875 8.109375 
L 31.59375 8.109375 
Q 46.6875 8.109375 53.6875 14.9375 
Q 60.6875 21.78125 60.6875 36.53125 
Q 60.6875 51.171875 53.6875 57.984375 
Q 46.6875 64.796875 31.59375 64.796875 
z
M 9.8125 72.90625 
L 30.078125 72.90625 
Q 51.265625 72.90625 61.171875 64.09375 
Q 71.09375 55.28125 71.09375 36.53125 
Q 71.09375 17.671875 61.125 8.828125 
Q 51.171875 0 30.078125 0 
L 9.8125 0 
z
" id="DejaVuSans-68"/>
       </defs>
       <use xlink:href="#DejaVuSans-68"/>
       <use x="77.001953" xlink:href="#DejaVuSans-101"/>
       <use x="138.525391" xlink:href="#DejaVuSans-99"/>
      </g>
     </g>
    </g>
    <g id="xtick_11">
     <g id="line2d_11">
      <g>
       <use style="stroke:#000000;stroke-width:0.8;" x="527.075718" xlink:href="#mc36af704e8" y="315"/>
      </g>
     </g>
     <g id="text_10">
      <!-- Jan -->
      <g transform="translate(519.367906 329.598437)scale(0.1 -0.1)">
       <use xlink:href="#DejaVuSans-74"/>
       <use x="29.492188" xlink:href="#DejaVuSans-97"/>
       <use x="90.771484" xlink:href="#DejaVuSans-110"/>
      </g>
      <!-- 2021 -->
      <g transform="translate(514.350718 340.79625)scale(0.1 -0.1)">
       <defs>
        <path d="M 19.1875 8.296875 
L 53.609375 8.296875 
L 53.609375 0 
L 7.328125 0 
L 7.328125 8.296875 
Q 12.9375 14.109375 22.625 23.890625 
Q 32.328125 33.6875 34.8125 36.53125 
Q 39.546875 41.84375 41.421875 45.53125 
Q 43.3125 49.21875 43.3125 52.78125 
Q 43.3125 58.59375 39.234375 62.25 
Q 35.15625 65.921875 28.609375 65.921875 
Q 23.96875 65.921875 18.8125 64.3125 
Q 13.671875 62.703125 7.8125 59.421875 
L 7.8125 69.390625 
Q 13.765625 71.78125 18.9375 73 
Q 24.125 74.21875 28.421875 74.21875 
Q 39.75 74.21875 46.484375 68.546875 
Q 53.21875 62.890625 53.21875 53.421875 
Q 53.21875 48.921875 51.53125 44.890625 
Q 49.859375 40.875 45.40625 35.40625 
Q 44.1875 33.984375 37.640625 27.21875 
Q 31.109375 20.453125 19.1875 8.296875 
z
" id="DejaVuSans-50"/>
        <path d="M 31.78125 66.40625 
Q 24.171875 66.40625 20.328125 58.90625 
Q 16.5 51.421875 16.5 36.375 
Q 16.5 21.390625 20.328125 13.890625 
Q 24.171875 6.390625 31.78125 6.390625 
Q 39.453125 6.390625 43.28125 13.890625 
Q 47.125 21.390625 47.125 36.375 
Q 47.125 51.421875 43.28125 58.90625 
Q 39.453125 66.40625 31.78125 66.40625 
z
M 31.78125 74.21875 
Q 44.046875 74.21875 50.515625 64.515625 
Q 56.984375 54.828125 56.984375 36.375 
Q 56.984375 17.96875 50.515625 8.265625 
Q 44.046875 -1.421875 31.78125 -1.421875 
Q 19.53125 -1.421875 13.0625 8.265625 
Q 6.59375 17.96875 6.59375 36.375 
Q 6.59375 54.828125 13.0625 64.515625 
Q 19.53125 74.21875 31.78125 74.21875 
z
" id="DejaVuSans-48"/>
        <path d="M 12.40625 8.296875 
L 28.515625 8.296875 
L 28.515625 63.921875 
L 10.984375 60.40625 
L 10.984375 69.390625 
L 28.421875 72.90625 
L 38.28125 72.90625 
L 38.28125 8.296875 
L 54.390625 8.296875 
L 54.390625 0 
L 12.40625 0 
z
" id="DejaVuSans-49"/>
       </defs>
       <use xlink:href="#DejaVuSans-50"/>
       <use x="63.623047" xlink:href="#DejaVuSans-48"/>
       <use x="127.246094" xlink:href="#DejaVuSans-50"/>
       <use x="190.869141" xlink:href="#DejaVuSans-49"/>
      </g>
     </g>
    </g>
    <g id="xtick_12">
     <g id="line2d_12">
      <g>
       <use style="stroke:#000000;stroke-width:0.8;" x="572.240209" xlink:href="#mc36af704e8" y="315"/>
      </g>
     </g>
     <g id="text_11">
      <!-- Feb -->
      <g transform="translate(563.388646 329.598437)scale(0.1 -0.1)">
       <defs>
        <path d="M 9.8125 72.90625 
L 51.703125 72.90625 
L 51.703125 64.59375 
L 19.671875 64.59375 
L 19.671875 43.109375 
L 48.578125 43.109375 
L 48.578125 34.8125 
L 19.671875 34.8125 
L 19.671875 0 
L 9.8125 0 
z
" id="DejaVuSans-70"/>
        <path d="M 48.6875 27.296875 
Q 48.6875 37.203125 44.609375 42.84375 
Q 40.53125 48.484375 33.40625 48.484375 
Q 26.265625 48.484375 22.1875 42.84375 
Q 18.109375 37.203125 18.109375 27.296875 
Q 18.109375 17.390625 22.1875 11.75 
Q 26.265625 6.109375 33.40625 6.109375 
Q 40.53125 6.109375 44.609375 11.75 
Q 48.6875 17.390625 48.6875 27.296875 
z
M 18.109375 46.390625 
Q 20.953125 51.265625 25.265625 53.625 
Q 29.59375 56 35.59375 56 
Q 45.5625 56 51.78125 48.09375 
Q 58.015625 40.1875 58.015625 27.296875 
Q 58.015625 14.40625 51.78125 6.484375 
Q 45.5625 -1.421875 35.59375 -1.421875 
Q 29.59375 -1.421875 25.265625 0.953125 
Q 20.953125 3.328125 18.109375 8.203125 
L 18.109375 0 
L 9.078125 0 
L 9.078125 75.984375 
L 18.109375 75.984375 
z
" id="DejaVuSans-98"/>
       </defs>
       <use xlink:href="#DejaVuSans-70"/>
       <use x="52.019531" xlink:href="#DejaVuSans-101"/>
       <use x="113.542969" xlink:href="#DejaVuSans-98"/>
      </g>
     </g>
    </g>
    <g id="xtick_13">
     <g id="line2d_13">
      <g>
       <use style="stroke:#000000;stroke-width:0.8;" x="613.033943" xlink:href="#mc36af704e8" y="315"/>
      </g>
     </g>
     <g id="text_12">
      <!-- Mar -->
      <g transform="translate(603.600349 329.598437)scale(0.1 -0.1)">
       <use xlink:href="#DejaVuSans-77"/>
       <use x="86.279297" xlink:href="#DejaVuSans-97"/>
       <use x="147.558594" xlink:href="#DejaVuSans-114"/>
      </g>
     </g>
    </g>
    <g id="xtick_14">
     <g id="line2d_14">
      <g>
       <use style="stroke:#000000;stroke-width:0.8;" x="648" xlink:href="#mc36af704e8" y="315"/>
      </g>
     </g>
    </g>
    <g id="xtick_15">
     <g id="line2d_15">
      <defs>
       <path d="M 0 0 
L 0 2 
" id="m6c6d21cfdd" style="stroke:#000000;stroke-width:0.6;"/>
      </defs>
      <g>
       <use style="stroke:#000000;stroke-width:0.6;" x="92.913838" xlink:href="#m6c6d21cfdd" y="315"/>
      </g>
     </g>
    </g>
    <g id="xtick_16">
     <g id="line2d_16">
      <g>
       <use style="stroke:#000000;stroke-width:0.6;" x="103.112272" xlink:href="#m6c6d21cfdd" y="315"/>
      </g>
     </g>
    </g>
    <g id="xtick_17">
     <g id="line2d_17">
      <g>
       <use style="stroke:#000000;stroke-width:0.6;" x="113.310705" xlink:href="#m6c6d21cfdd" y="315"/>
      </g>
     </g>
    </g>
    <g id="xtick_18">
     <g id="line2d_18">
      <g>
       <use style="stroke:#000000;stroke-width:0.6;" x="123.509138" xlink:href="#m6c6d21cfdd" y="315"/>
      </g>
     </g>
    </g>
    <g id="xtick_19">
     <g id="line2d_19">
      <g>
       <use style="stroke:#000000;stroke-width:0.6;" x="133.707572" xlink:href="#m6c6d21cfdd" y="315"/>
      </g>
     </g>
    </g>
    <g id="xtick_20">
     <g id="line2d_20">
      <g>
       <use style="stroke:#000000;stroke-width:0.6;" x="143.906005" xlink:href="#m6c6d21cfdd" y="315"/>
      </g>
     </g>
    </g>
    <g id="xtick_21">
     <g id="line2d_21">
      <g>
       <use style="stroke:#000000;stroke-width:0.6;" x="154.104439" xlink:href="#m6c6d21cfdd" y="315"/>
      </g>
     </g>
    </g>
    <g id="xtick_22">
     <g id="line2d_22">
      <g>
       <use style="stroke:#000000;stroke-width:0.6;" x="164.302872" xlink:href="#m6c6d21cfdd" y="315"/>
      </g>
     </g>
    </g>
    <g id="xtick_23">
     <g id="line2d_23">
      <g>
       <use style="stroke:#000000;stroke-width:0.6;" x="174.501305" xlink:href="#m6c6d21cfdd" y="315"/>
      </g>
     </g>
    </g>
    <g id="xtick_24">
     <g id="line2d_24">
      <g>
       <use style="stroke:#000000;stroke-width:0.6;" x="184.699739" xlink:href="#m6c6d21cfdd" y="315"/>
      </g>
     </g>
    </g>
    <g id="xtick_25">
     <g id="line2d_25">
      <g>
       <use style="stroke:#000000;stroke-width:0.6;" x="194.898172" xlink:href="#m6c6d21cfdd" y="315"/>
      </g>
     </g>
    </g>
    <g id="xtick_26">
     <g id="line2d_26">
      <g>
       <use style="stroke:#000000;stroke-width:0.6;" x="205.096606" xlink:href="#m6c6d21cfdd" y="315"/>
      </g>
     </g>
    </g>
    <g id="xtick_27">
     <g id="line2d_27">
      <g>
       <use style="stroke:#000000;stroke-width:0.6;" x="225.493473" xlink:href="#m6c6d21cfdd" y="315"/>
      </g>
     </g>
    </g>
    <g id="xtick_28">
     <g id="line2d_28">
      <g>
       <use style="stroke:#000000;stroke-width:0.6;" x="235.691906" xlink:href="#m6c6d21cfdd" y="315"/>
      </g>
     </g>
    </g>
    <g id="xtick_29">
     <g id="line2d_29">
      <g>
       <use style="stroke:#000000;stroke-width:0.6;" x="245.890339" xlink:href="#m6c6d21cfdd" y="315"/>
      </g>
     </g>
    </g>
    <g id="xtick_30">
     <g id="line2d_30">
      <g>
       <use style="stroke:#000000;stroke-width:0.6;" x="256.088773" xlink:href="#m6c6d21cfdd" y="315"/>
      </g>
     </g>
    </g>
    <g id="xtick_31">
     <g id="line2d_31">
      <g>
       <use style="stroke:#000000;stroke-width:0.6;" x="266.287206" xlink:href="#m6c6d21cfdd" y="315"/>
      </g>
     </g>
    </g>
    <g id="xtick_32">
     <g id="line2d_32">
      <g>
       <use style="stroke:#000000;stroke-width:0.6;" x="276.48564" xlink:href="#m6c6d21cfdd" y="315"/>
      </g>
     </g>
    </g>
    <g id="xtick_33">
     <g id="line2d_33">
      <g>
       <use style="stroke:#000000;stroke-width:0.6;" x="286.684073" xlink:href="#m6c6d21cfdd" y="315"/>
      </g>
     </g>
    </g>
    <g id="xtick_34">
     <g id="line2d_34">
      <g>
       <use style="stroke:#000000;stroke-width:0.6;" x="296.882507" xlink:href="#m6c6d21cfdd" y="315"/>
      </g>
     </g>
    </g>
    <g id="xtick_35">
     <g id="line2d_35">
      <g>
       <use style="stroke:#000000;stroke-width:0.6;" x="307.08094" xlink:href="#m6c6d21cfdd" y="315"/>
      </g>
     </g>
    </g>
    <g id="xtick_36">
     <g id="line2d_36">
      <g>
       <use style="stroke:#000000;stroke-width:0.6;" x="317.279373" xlink:href="#m6c6d21cfdd" y="315"/>
      </g>
     </g>
    </g>
    <g id="xtick_37">
     <g id="line2d_37">
      <g>
       <use style="stroke:#000000;stroke-width:0.6;" x="327.477807" xlink:href="#m6c6d21cfdd" y="315"/>
      </g>
     </g>
    </g>
    <g id="xtick_38">
     <g id="line2d_38">
      <g>
       <use style="stroke:#000000;stroke-width:0.6;" x="337.67624" xlink:href="#m6c6d21cfdd" y="315"/>
      </g>
     </g>
    </g>
    <g id="xtick_39">
     <g id="line2d_39">
      <g>
       <use style="stroke:#000000;stroke-width:0.6;" x="347.874674" xlink:href="#m6c6d21cfdd" y="315"/>
      </g>
     </g>
    </g>
    <g id="xtick_40">
     <g id="line2d_40">
      <g>
       <use style="stroke:#000000;stroke-width:0.6;" x="358.073107" xlink:href="#m6c6d21cfdd" y="315"/>
      </g>
     </g>
    </g>
    <g id="xtick_41">
     <g id="line2d_41">
      <g>
       <use style="stroke:#000000;stroke-width:0.6;" x="368.27154" xlink:href="#m6c6d21cfdd" y="315"/>
      </g>
     </g>
    </g>
    <g id="xtick_42">
     <g id="line2d_42">
      <g>
       <use style="stroke:#000000;stroke-width:0.6;" x="378.469974" xlink:href="#m6c6d21cfdd" y="315"/>
      </g>
     </g>
    </g>
    <g id="xtick_43">
     <g id="line2d_43">
      <g>
       <use style="stroke:#000000;stroke-width:0.6;" x="388.668407" xlink:href="#m6c6d21cfdd" y="315"/>
      </g>
     </g>
    </g>
    <g id="xtick_44">
     <g id="line2d_44">
      <g>
       <use style="stroke:#000000;stroke-width:0.6;" x="398.866841" xlink:href="#m6c6d21cfdd" y="315"/>
      </g>
     </g>
    </g>
    <g id="xtick_45">
     <g id="line2d_45">
      <g>
       <use style="stroke:#000000;stroke-width:0.6;" x="409.065274" xlink:href="#m6c6d21cfdd" y="315"/>
      </g>
     </g>
    </g>
    <g id="xtick_46">
     <g id="line2d_46">
      <g>
       <use style="stroke:#000000;stroke-width:0.6;" x="419.263708" xlink:href="#m6c6d21cfdd" y="315"/>
      </g>
     </g>
    </g>
    <g id="xtick_47">
     <g id="line2d_47">
      <g>
       <use style="stroke:#000000;stroke-width:0.6;" x="429.462141" xlink:href="#m6c6d21cfdd" y="315"/>
      </g>
     </g>
    </g>
    <g id="xtick_48">
     <g id="line2d_48">
      <g>
       <use style="stroke:#000000;stroke-width:0.6;" x="439.660574" xlink:href="#m6c6d21cfdd" y="315"/>
      </g>
     </g>
    </g>
    <g id="xtick_49">
     <g id="line2d_49">
      <g>
       <use style="stroke:#000000;stroke-width:0.6;" x="449.859008" xlink:href="#m6c6d21cfdd" y="315"/>
      </g>
     </g>
    </g>
    <g id="xtick_50">
     <g id="line2d_50">
      <g>
       <use style="stroke:#000000;stroke-width:0.6;" x="460.057441" xlink:href="#m6c6d21cfdd" y="315"/>
      </g>
     </g>
    </g>
    <g id="xtick_51">
     <g id="line2d_51">
      <g>
       <use style="stroke:#000000;stroke-width:0.6;" x="470.255875" xlink:href="#m6c6d21cfdd" y="315"/>
      </g>
     </g>
    </g>
    <g id="xtick_52">
     <g id="line2d_52">
      <g>
       <use style="stroke:#000000;stroke-width:0.6;" x="480.454308" xlink:href="#m6c6d21cfdd" y="315"/>
      </g>
     </g>
    </g>
    <g id="xtick_53">
     <g id="line2d_53">
      <g>
       <use style="stroke:#000000;stroke-width:0.6;" x="490.652742" xlink:href="#m6c6d21cfdd" y="315"/>
      </g>
     </g>
    </g>
    <g id="xtick_54">
     <g id="line2d_54">
      <g>
       <use style="stroke:#000000;stroke-width:0.6;" x="500.851175" xlink:href="#m6c6d21cfdd" y="315"/>
      </g>
     </g>
    </g>
    <g id="xtick_55">
     <g id="line2d_55">
      <g>
       <use style="stroke:#000000;stroke-width:0.6;" x="511.049608" xlink:href="#m6c6d21cfdd" y="315"/>
      </g>
     </g>
    </g>
    <g id="xtick_56">
     <g id="line2d_56">
      <g>
       <use style="stroke:#000000;stroke-width:0.6;" x="521.248042" xlink:href="#m6c6d21cfdd" y="315"/>
      </g>
     </g>
    </g>
    <g id="xtick_57">
     <g id="line2d_57">
      <g>
       <use style="stroke:#000000;stroke-width:0.6;" x="531.446475" xlink:href="#m6c6d21cfdd" y="315"/>
      </g>
     </g>
    </g>
    <g id="xtick_58">
     <g id="line2d_58">
      <g>
       <use style="stroke:#000000;stroke-width:0.6;" x="541.644909" xlink:href="#m6c6d21cfdd" y="315"/>
      </g>
     </g>
    </g>
    <g id="xtick_59">
     <g id="line2d_59">
      <g>
       <use style="stroke:#000000;stroke-width:0.6;" x="551.843342" xlink:href="#m6c6d21cfdd" y="315"/>
      </g>
     </g>
    </g>
    <g id="xtick_60">
     <g id="line2d_60">
      <g>
       <use style="stroke:#000000;stroke-width:0.6;" x="562.041775" xlink:href="#m6c6d21cfdd" y="315"/>
      </g>
     </g>
    </g>
    <g id="xtick_61">
     <g id="line2d_61">
      <g>
       <use style="stroke:#000000;stroke-width:0.6;" x="582.438642" xlink:href="#m6c6d21cfdd" y="315"/>
      </g>
     </g>
    </g>
    <g id="xtick_62">
     <g id="line2d_62">
      <g>
       <use style="stroke:#000000;stroke-width:0.6;" x="592.637076" xlink:href="#m6c6d21cfdd" y="315"/>
      </g>
     </g>
    </g>
    <g id="xtick_63">
     <g id="line2d_63">
      <g>
       <use style="stroke:#000000;stroke-width:0.6;" x="602.835509" xlink:href="#m6c6d21cfdd" y="315"/>
      </g>
     </g>
    </g>
    <g id="xtick_64">
     <g id="line2d_64">
      <g>
       <use style="stroke:#000000;stroke-width:0.6;" x="623.232376" xlink:href="#m6c6d21cfdd" y="315"/>
      </g>
     </g>
    </g>
    <g id="xtick_65">
     <g id="line2d_65">
      <g>
       <use style="stroke:#000000;stroke-width:0.6;" x="633.430809" xlink:href="#m6c6d21cfdd" y="315"/>
      </g>
     </g>
    </g>
    <g id="xtick_66">
     <g id="line2d_66">
      <g>
       <use style="stroke:#000000;stroke-width:0.6;" x="643.629243" xlink:href="#m6c6d21cfdd" y="315"/>
      </g>
     </g>
    </g>
    <g id="text_13">
     <!-- date -->
     <g transform="translate(357.725 354.474375)scale(0.1 -0.1)">
      <defs>
       <path d="M 45.40625 46.390625 
L 45.40625 75.984375 
L 54.390625 75.984375 
L 54.390625 0 
L 45.40625 0 
L 45.40625 8.203125 
Q 42.578125 3.328125 38.25 0.953125 
Q 33.9375 -1.421875 27.875 -1.421875 
Q 17.96875 -1.421875 11.734375 6.484375 
Q 5.515625 14.40625 5.515625 27.296875 
Q 5.515625 40.1875 11.734375 48.09375 
Q 17.96875 56 27.875 56 
Q 33.9375 56 38.25 53.625 
Q 42.578125 51.265625 45.40625 46.390625 
z
M 14.796875 27.296875 
Q 14.796875 17.390625 18.875 11.75 
Q 22.953125 6.109375 30.078125 6.109375 
Q 37.203125 6.109375 41.296875 11.75 
Q 45.40625 17.390625 45.40625 27.296875 
Q 45.40625 37.203125 41.296875 42.84375 
Q 37.203125 48.484375 30.078125 48.484375 
Q 22.953125 48.484375 18.875 42.84375 
Q 14.796875 37.203125 14.796875 27.296875 
z
" id="DejaVuSans-100"/>
      </defs>
      <use xlink:href="#DejaVuSans-100"/>
      <use x="63.476562" xlink:href="#DejaVuSans-97"/>
      <use x="124.755859" xlink:href="#DejaVuSans-116"/>
      <use x="163.964844" xlink:href="#DejaVuSans-101"/>
     </g>
    </g>
   </g>
   <g id="matplotlib.axis_2">
    <g id="ytick_1">
     <g id="line2d_67">
      <path clip-path="url(#p95d918c9fd)" d="M 90 307.2652 
L 648 307.2652 
" style="fill:none;stroke:#b0b0b0;stroke-dasharray:0.8,1.32;stroke-dashoffset:0;stroke-width:0.8;"/>
     </g>
     <g id="line2d_68">
      <defs>
       <path d="M 0 0 
L -3.5 0 
" id="mfce6b466ac" style="stroke:#000000;stroke-width:0.8;"/>
      </defs>
      <g>
       <use style="stroke:#000000;stroke-width:0.8;" x="90" xlink:href="#mfce6b466ac" y="307.2652"/>
      </g>
     </g>
     <g id="text_14">
      <!-- 0.25 -->
      <g transform="translate(60.734375 311.064419)scale(0.1 -0.1)">
       <defs>
        <path d="M 10.6875 12.40625 
L 21 12.40625 
L 21 0 
L 10.6875 0 
z
" id="DejaVuSans-46"/>
        <path d="M 10.796875 72.90625 
L 49.515625 72.90625 
L 49.515625 64.59375 
L 19.828125 64.59375 
L 19.828125 46.734375 
Q 21.96875 47.46875 24.109375 47.828125 
Q 26.265625 48.1875 28.421875 48.1875 
Q 40.625 48.1875 47.75 41.5 
Q 54.890625 34.8125 54.890625 23.390625 
Q 54.890625 11.625 47.5625 5.09375 
Q 40.234375 -1.421875 26.90625 -1.421875 
Q 22.3125 -1.421875 17.546875 -0.640625 
Q 12.796875 0.140625 7.71875 1.703125 
L 7.71875 11.625 
Q 12.109375 9.234375 16.796875 8.0625 
Q 21.484375 6.890625 26.703125 6.890625 
Q 35.15625 6.890625 40.078125 11.328125 
Q 45.015625 15.765625 45.015625 23.390625 
Q 45.015625 31 40.078125 35.4375 
Q 35.15625 39.890625 26.703125 39.890625 
Q 22.75 39.890625 18.8125 39.015625 
Q 14.890625 38.140625 10.796875 36.28125 
z
" id="DejaVuSans-53"/>
       </defs>
       <use xlink:href="#DejaVuSans-48"/>
       <use x="63.623047" xlink:href="#DejaVuSans-46"/>
       <use x="95.410156" xlink:href="#DejaVuSans-50"/>
       <use x="159.033203" xlink:href="#DejaVuSans-53"/>
      </g>
     </g>
    </g>
    <g id="ytick_2">
     <g id="line2d_69">
      <path clip-path="url(#p95d918c9fd)" d="M 90 275.690511 
L 648 275.690511 
" style="fill:none;stroke:#b0b0b0;stroke-dasharray:0.8,1.32;stroke-dashoffset:0;stroke-width:0.8;"/>
     </g>
     <g id="line2d_70">
      <g>
       <use style="stroke:#000000;stroke-width:0.8;" x="90" xlink:href="#mfce6b466ac" y="275.690511"/>
      </g>
     </g>
     <g id="text_15">
      <!-- 0.50 -->
      <g transform="translate(60.734375 279.489729)scale(0.1 -0.1)">
       <use xlink:href="#DejaVuSans-48"/>
       <use x="63.623047" xlink:href="#DejaVuSans-46"/>
       <use x="95.410156" xlink:href="#DejaVuSans-53"/>
       <use x="159.033203" xlink:href="#DejaVuSans-48"/>
      </g>
     </g>
    </g>
    <g id="ytick_3">
     <g id="line2d_71">
      <path clip-path="url(#p95d918c9fd)" d="M 90 244.115821 
L 648 244.115821 
" style="fill:none;stroke:#b0b0b0;stroke-dasharray:0.8,1.32;stroke-dashoffset:0;stroke-width:0.8;"/>
     </g>
     <g id="line2d_72">
      <g>
       <use style="stroke:#000000;stroke-width:0.8;" x="90" xlink:href="#mfce6b466ac" y="244.115821"/>
      </g>
     </g>
     <g id="text_16">
      <!-- 0.75 -->
      <g transform="translate(60.734375 247.91504)scale(0.1 -0.1)">
       <defs>
        <path d="M 8.203125 72.90625 
L 55.078125 72.90625 
L 55.078125 68.703125 
L 28.609375 0 
L 18.3125 0 
L 43.21875 64.59375 
L 8.203125 64.59375 
z
" id="DejaVuSans-55"/>
       </defs>
       <use xlink:href="#DejaVuSans-48"/>
       <use x="63.623047" xlink:href="#DejaVuSans-46"/>
       <use x="95.410156" xlink:href="#DejaVuSans-55"/>
       <use x="159.033203" xlink:href="#DejaVuSans-53"/>
      </g>
     </g>
    </g>
    <g id="ytick_4">
     <g id="line2d_73">
      <path clip-path="url(#p95d918c9fd)" d="M 90 212.541132 
L 648 212.541132 
" style="fill:none;stroke:#b0b0b0;stroke-dasharray:0.8,1.32;stroke-dashoffset:0;stroke-width:0.8;"/>
     </g>
     <g id="line2d_74">
      <g>
       <use style="stroke:#000000;stroke-width:0.8;" x="90" xlink:href="#mfce6b466ac" y="212.541132"/>
      </g>
     </g>
     <g id="text_17">
      <!-- 1.00 -->
      <g transform="translate(60.734375 216.340351)scale(0.1 -0.1)">
       <use xlink:href="#DejaVuSans-49"/>
       <use x="63.623047" xlink:href="#DejaVuSans-46"/>
       <use x="95.410156" xlink:href="#DejaVuSans-48"/>
       <use x="159.033203" xlink:href="#DejaVuSans-48"/>
      </g>
     </g>
    </g>
    <g id="ytick_5">
     <g id="line2d_75">
      <path clip-path="url(#p95d918c9fd)" d="M 90 180.966442 
L 648 180.966442 
" style="fill:none;stroke:#b0b0b0;stroke-dasharray:0.8,1.32;stroke-dashoffset:0;stroke-width:0.8;"/>
     </g>
     <g id="line2d_76">
      <g>
       <use style="stroke:#000000;stroke-width:0.8;" x="90" xlink:href="#mfce6b466ac" y="180.966442"/>
      </g>
     </g>
     <g id="text_18">
      <!-- 1.25 -->
      <g transform="translate(60.734375 184.765661)scale(0.1 -0.1)">
       <use xlink:href="#DejaVuSans-49"/>
       <use x="63.623047" xlink:href="#DejaVuSans-46"/>
       <use x="95.410156" xlink:href="#DejaVuSans-50"/>
       <use x="159.033203" xlink:href="#DejaVuSans-53"/>
      </g>
     </g>
    </g>
    <g id="ytick_6">
     <g id="line2d_77">
      <path clip-path="url(#p95d918c9fd)" d="M 90 149.391753 
L 648 149.391753 
" style="fill:none;stroke:#b0b0b0;stroke-dasharray:0.8,1.32;stroke-dashoffset:0;stroke-width:0.8;"/>
     </g>
     <g id="line2d_78">
      <g>
       <use style="stroke:#000000;stroke-width:0.8;" x="90" xlink:href="#mfce6b466ac" y="149.391753"/>
      </g>
     </g>
     <g id="text_19">
      <!-- 1.50 -->
      <g transform="translate(60.734375 153.190972)scale(0.1 -0.1)">
       <use xlink:href="#DejaVuSans-49"/>
       <use x="63.623047" xlink:href="#DejaVuSans-46"/>
       <use x="95.410156" xlink:href="#DejaVuSans-53"/>
       <use x="159.033203" xlink:href="#DejaVuSans-48"/>
      </g>
     </g>
    </g>
    <g id="ytick_7">
     <g id="line2d_79">
      <path clip-path="url(#p95d918c9fd)" d="M 90 117.817063 
L 648 117.817063 
" style="fill:none;stroke:#b0b0b0;stroke-dasharray:0.8,1.32;stroke-dashoffset:0;stroke-width:0.8;"/>
     </g>
     <g id="line2d_80">
      <g>
       <use style="stroke:#000000;stroke-width:0.8;" x="90" xlink:href="#mfce6b466ac" y="117.817063"/>
      </g>
     </g>
     <g id="text_20">
      <!-- 1.75 -->
      <g transform="translate(60.734375 121.616282)scale(0.1 -0.1)">
       <use xlink:href="#DejaVuSans-49"/>
       <use x="63.623047" xlink:href="#DejaVuSans-46"/>
       <use x="95.410156" xlink:href="#DejaVuSans-55"/>
       <use x="159.033203" xlink:href="#DejaVuSans-53"/>
      </g>
     </g>
    </g>
    <g id="ytick_8">
     <g id="line2d_81">
      <path clip-path="url(#p95d918c9fd)" d="M 90 86.242374 
L 648 86.242374 
" style="fill:none;stroke:#b0b0b0;stroke-dasharray:0.8,1.32;stroke-dashoffset:0;stroke-width:0.8;"/>
     </g>
     <g id="line2d_82">
      <g>
       <use style="stroke:#000000;stroke-width:0.8;" x="90" xlink:href="#mfce6b466ac" y="86.242374"/>
      </g>
     </g>
     <g id="text_21">
      <!-- 2.00 -->
      <g transform="translate(60.734375 90.041593)scale(0.1 -0.1)">
       <use xlink:href="#DejaVuSans-50"/>
       <use x="63.623047" xlink:href="#DejaVuSans-46"/>
       <use x="95.410156" xlink:href="#DejaVuSans-48"/>
       <use x="159.033203" xlink:href="#DejaVuSans-48"/>
      </g>
     </g>
    </g>
    <g id="ytick_9">
     <g id="line2d_83">
      <path clip-path="url(#p95d918c9fd)" d="M 90 54.667684 
L 648 54.667684 
" style="fill:none;stroke:#b0b0b0;stroke-dasharray:0.8,1.32;stroke-dashoffset:0;stroke-width:0.8;"/>
     </g>
     <g id="line2d_84">
      <g>
       <use style="stroke:#000000;stroke-width:0.8;" x="90" xlink:href="#mfce6b466ac" y="54.667684"/>
      </g>
     </g>
     <g id="text_22">
      <!-- 2.25 -->
      <g transform="translate(60.734375 58.466903)scale(0.1 -0.1)">
       <use xlink:href="#DejaVuSans-50"/>
       <use x="63.623047" xlink:href="#DejaVuSans-46"/>
       <use x="95.410156" xlink:href="#DejaVuSans-50"/>
       <use x="159.033203" xlink:href="#DejaVuSans-53"/>
      </g>
     </g>
    </g>
   </g>
   <g id="line2d_85">
    <path clip-path="url(#p95d918c9fd)" d="M 90 109.684987 
L 91.456919 110.085005 
L 92.913838 110.045158 
L 94.370757 110.849515 
L 95.827676 111.146898 
L 97.284595 111.594418 
L 98.741514 113.600292 
L 100.198433 115.077858 
L 101.655352 117.352937 
L 103.112272 123.259417 
L 104.569191 128.272912 
L 106.02611 132.642029 
L 108.939948 148.485491 
L 110.396867 156.960936 
L 111.853786 164.485365 
L 114.767624 183.006874 
L 116.224543 191.543397 
L 117.681462 199.212593 
L 120.5953 212.954748 
L 123.509138 224.817807 
L 124.966057 229.556143 
L 126.422977 235.043559 
L 127.879896 239.032006 
L 129.336815 244.140872 
L 130.793734 247.526297 
L 132.250653 251.706854 
L 136.62141 261.778789 
L 138.078329 265.017907 
L 140.992167 270.611969 
L 142.449086 272.363491 
L 143.906005 274.316861 
L 145.362924 275.887144 
L 148.276762 278.668673 
L 149.733681 279.484583 
L 151.190601 280.112424 
L 154.104439 280.135265 
L 155.561358 279.648782 
L 157.018277 278.21153 
L 158.475196 277.256613 
L 159.932115 275.030235 
L 161.389034 273.092432 
L 162.845953 270.192142 
L 165.759791 262.688582 
L 168.673629 253.831064 
L 170.130548 248.197721 
L 171.587467 240.694412 
L 173.044386 233.883635 
L 174.501305 226.246052 
L 178.872063 198.190581 
L 183.24282 168.761252 
L 184.699739 157.353466 
L 186.156658 147.61793 
L 187.613577 139.810606 
L 189.070496 134.641553 
L 190.527415 130.742607 
L 191.984334 130.747809 
L 193.441253 131.911961 
L 194.898172 136.158574 
L 196.355091 142.41683 
L 197.81201 151.056405 
L 202.182768 181.700673 
L 203.639687 191.484553 
L 205.096606 200.235802 
L 208.010444 210.011287 
L 209.467363 212.084317 
L 210.924282 213.324558 
L 212.381201 213.229838 
L 213.83812 212.682645 
L 215.295039 209.990372 
L 216.751958 204.533301 
L 218.208877 200.06624 
L 221.122715 187.554273 
L 224.036554 171.529447 
L 225.493473 165.029178 
L 229.86423 138.78626 
L 231.321149 131.269214 
L 232.778068 124.580511 
L 234.234987 120.423505 
L 235.691906 117.068052 
L 238.605744 114.134498 
L 240.062663 115.047038 
L 241.519582 116.511727 
L 242.976501 120.247228 
L 244.43342 122.72152 
L 248.804178 138.267364 
L 251.718016 150.326337 
L 254.631854 163.904673 
L 259.002611 177.216562 
L 261.916449 186.420657 
L 264.830287 193.249099 
L 266.287206 197.042976 
L 267.744125 200.194904 
L 269.201044 202.589086 
L 270.657963 205.368502 
L 272.114883 207.676095 
L 273.571802 209.067163 
L 275.028721 211.07509 
L 276.48564 212.507198 
L 277.942559 214.464403 
L 280.856397 217.540977 
L 285.227154 220.635805 
L 288.140992 221.815767 
L 289.597911 222.876253 
L 291.05483 222.38699 
L 292.511749 222.890283 
L 293.968668 223.224789 
L 296.882507 221.438206 
L 298.339426 221.966801 
L 299.796345 222.147726 
L 301.253264 222.94504 
L 304.167102 222.822434 
L 305.624021 221.771316 
L 307.08094 221.15297 
L 308.537859 220.831259 
L 309.994778 220.843728 
L 311.451697 220.21294 
L 312.908616 218.901513 
L 314.365535 217.878097 
L 315.822454 215.374778 
L 317.279373 212.484194 
L 318.736292 210.975046 
L 320.193211 209.204712 
L 321.650131 205.728305 
L 323.10705 203.428655 
L 324.563969 200.77269 
L 326.020888 197.433984 
L 327.477807 194.772232 
L 328.934726 190.359059 
L 331.848564 184.616726 
L 333.305483 180.578115 
L 336.219321 176.643876 
L 337.67624 174.493796 
L 339.133159 172.838917 
L 340.590078 172.596371 
L 342.046997 172.881292 
L 343.503916 171.191327 
L 344.960836 172.616158 
L 346.417755 172.786697 
L 347.874674 174.375035 
L 349.331593 175.590116 
L 350.788512 176.971143 
L 352.245431 179.496258 
L 353.70235 181.079616 
L 355.159269 184.377313 
L 356.616188 186.537664 
L 359.530026 191.180025 
L 360.986945 194.018805 
L 362.443864 195.606355 
L 363.900783 198.559583 
L 365.357702 202.289107 
L 366.814621 204.602144 
L 369.72846 211.858625 
L 371.185379 215.984919 
L 374.099217 225.759419 
L 375.556136 229.260686 
L 377.013055 233.419014 
L 379.926893 240.714462 
L 381.383812 244.782572 
L 384.29765 251.015768 
L 388.668407 257.041538 
L 390.125326 258.536811 
L 391.582245 259.73293 
L 393.039164 260.491126 
L 394.496084 261.093581 
L 397.409922 260.865288 
L 398.866841 260.26386 
L 400.32376 260.008464 
L 401.780679 259.418035 
L 403.237598 258.104184 
L 404.694517 257.000549 
L 407.608355 254.4027 
L 409.065274 252.704427 
L 410.522193 250.712013 
L 411.979112 248.376303 
L 413.436031 246.614986 
L 416.349869 241.564211 
L 417.806789 239.484771 
L 419.263708 236.698944 
L 420.720627 232.906887 
L 423.634465 227.289082 
L 425.091384 224.194712 
L 428.005222 218.341988 
L 429.462141 215.414476 
L 430.91906 213.615343 
L 432.375979 209.711521 
L 433.832898 208.457916 
L 435.289817 206.261427 
L 436.746736 202.722145 
L 438.203655 200.086526 
L 439.660574 199.72149 
L 441.117493 197.885871 
L 444.031332 193.593395 
L 445.488251 191.225907 
L 446.94517 189.684541 
L 449.859008 185.897158 
L 451.315927 185.321283 
L 452.772846 182.677128 
L 454.229765 181.553629 
L 455.686684 180.090362 
L 457.143603 177.922296 
L 458.600522 175.536617 
L 460.057441 174.500309 
L 461.51436 173.046489 
L 462.971279 170.23642 
L 464.428198 169.153097 
L 465.885117 167.352404 
L 467.342037 167.025701 
L 468.798956 165.100212 
L 470.255875 165.877386 
L 471.712794 165.417735 
L 473.169713 165.594361 
L 474.626632 165.476094 
L 476.083551 164.095607 
L 477.54047 164.362177 
L 478.997389 163.787135 
L 480.454308 163.819506 
L 483.368146 164.106629 
L 484.825065 164.92051 
L 486.281984 164.824808 
L 487.738903 164.24233 
L 489.195822 163.490975 
L 490.652742 163.834781 
L 492.109661 164.546844 
L 493.56658 164.931566 
L 495.023499 167.273404 
L 496.480418 166.885625 
L 497.937337 166.762688 
L 499.394256 167.344185 
L 500.851175 169.27005 
L 502.308094 170.103157 
L 503.765013 171.660139 
L 505.221932 173.472177 
L 506.678851 174.474035 
L 508.13577 175.753076 
L 509.592689 177.300904 
L 511.049608 179.023114 
L 512.506527 180.298291 
L 513.963446 182.060031 
L 515.420366 184.65977 
L 518.334204 189.383254 
L 519.791123 192.014601 
L 521.248042 195.312074 
L 522.704961 198.015576 
L 525.618799 205.338528 
L 527.075718 208.711878 
L 528.532637 211.669155 
L 529.989556 215.265309 
L 534.360313 223.598916 
L 535.817232 225.810224 
L 537.274151 228.700614 
L 538.73107 230.928362 
L 540.18799 232.507409 
L 541.644909 234.489389 
L 543.101828 235.430781 
L 544.558747 237.105832 
L 546.015666 237.897286 
L 547.472585 239.152513 
L 548.929504 240.242173 
L 550.386423 240.44999 
L 551.843342 241.424771 
L 553.300261 241.25443 
L 554.75718 241.601024 
L 556.214099 241.250333 
L 557.671018 241.156903 
L 559.127937 241.245371 
L 563.498695 240.20556 
L 566.412533 238.492294 
L 567.869452 236.5788 
L 569.326371 235.58426 
L 570.78329 234.203345 
L 573.697128 231.892355 
L 576.610966 228.581268 
L 578.067885 226.505901 
L 579.524804 224.88215 
L 580.981723 222.971206 
L 582.438642 220.579959 
L 583.895561 218.464269 
L 586.809399 216.229889 
L 588.266319 215.565148 
L 589.723238 216.041674 
L 591.180157 216.982146 
L 592.637076 217.473661 
L 594.093995 218.47792 
L 595.550914 221.017451 
L 597.007833 222.911781 
L 598.464752 225.351899 
L 599.921671 228.428981 
L 601.37859 232.375052 
L 604.292428 238.637935 
L 607.206266 245.692098 
L 608.663185 248.879664 
L 610.120104 252.386637 
L 613.033943 258.540783 
L 614.490862 260.670515 
L 615.947781 263.511296 
L 617.4047 266.076454 
L 618.861619 268.042401 
L 620.318538 269.775419 
L 621.775457 270.635029 
L 623.232376 272.3284 
L 624.689295 273.718446 
L 626.146214 274.443786 
L 627.603133 275.364895 
L 629.060052 275.866586 
L 630.516971 276.559894 
L 631.97389 276.722394 
L 633.430809 276.455994 
L 634.887728 277.041696 
L 636.344648 277.047311 
L 637.801567 276.637757 
L 639.258486 277.030779 
L 642.172324 277.294642 
L 645.086162 277.586351 
L 646.543081 277.810237 
L 648 277.878555 
L 649.456919 277.676829 
L 650.913838 278.267014 
L 652.370757 278.529778 
L 653.827676 279.446083 
L 655.284595 278.559519 
L 658.198433 277.952923 
L 659.655352 277.931755 
L 659.655352 277.931755 
" style="fill:none;stroke:#fc997a;stroke-linecap:square;stroke-width:1.5;"/>
   </g>
   <g id="line2d_86">
    <path clip-path="url(#p95d918c9fd)" d="M 90 212.541132 
L 648 212.541132 
" style="fill:none;stroke:#000000;stroke-dasharray:3.7,1.6;stroke-dashoffset:0;"/>
   </g>
   <g id="patch_3">
    <path d="M 90 315 
L 90 43.2 
" style="fill:none;stroke:#000000;stroke-linecap:square;stroke-linejoin:miter;stroke-width:0.8;"/>
   </g>
   <g id="patch_4">
    <path d="M 648 315 
L 648 43.2 
" style="fill:none;stroke:#000000;stroke-linecap:square;stroke-linejoin:miter;stroke-width:0.8;"/>
   </g>
   <g id="patch_5">
    <path d="M 90 315 
L 648 315 
" style="fill:none;stroke:#000000;stroke-linecap:square;stroke-linejoin:miter;stroke-width:0.8;"/>
   </g>
   <g id="patch_6">
    <path d="M 90 43.2 
L 648 43.2 
" style="fill:none;stroke:#000000;stroke-linecap:square;stroke-linejoin:miter;stroke-width:0.8;"/>
   </g>
   <g id="text_23">
    <!-- 111   $R_t$ -->
    <g transform="translate(323.1 37.2)scale(0.12 -0.12)">
     <defs>
      <path id="DejaVuSans-32"/>
      <path d="M 19.140625 33.40625 
L 19.140625 0 
L 10.109375 0 
L 10.109375 29.6875 
z
M 56.25 27.828125 
L 56.25 0 
L 47.21875 0 
L 47.21875 29.6875 
Q 47.21875 40.234375 44.0625 43.96875 
Q 40.921875 47.703125 31.84375 47.703125 
L 9.078125 47.703125 
L 9.078125 54.6875 
L 31.734375 54.6875 
Q 45.265625 54.6875 50.75 48.578125 
Q 56.25 42.484375 56.25 27.828125 
z
" id="DejaVuSans-1492"/>
      <path d="M 51.125 47.703125 
L 41.453125 47.703125 
L 41.453125 0 
L 32.375 0 
L 32.375 47.703125 
L 4.296875 47.703125 
L 4.296875 54.6875 
L 51.125 54.6875 
z
" id="DejaVuSans-1491"/>
      <path d="M 18.171875 54.6875 
L 18.171875 0 
L 9.078125 0 
L 9.078125 54.6875 
z
" id="DejaVuSans-1493"/>
      <path d="M 15.71875 54.6875 
L 15.71875 24.125 
L 6.640625 20.40625 
L 6.640625 54.6875 
z
" id="DejaVuSans-1497"/>
      <path d="M 47.359375 27.828125 
L 47.359375 0 
L 38.28125 0 
L 38.28125 27.828125 
Q 38.28125 31.390625 37.765625 34.265625 
Q 37.25 37.15625 36 39.71875 
Q 34.765625 42.28125 32.8125 43.984375 
Q 30.859375 45.703125 27.78125 46.703125 
Q 24.703125 47.703125 20.703125 47.703125 
L 4.296875 47.703125 
L 4.296875 54.6875 
L 20.65625 54.6875 
Q 26.8125 54.6875 31.46875 53.390625 
Q 36.140625 52.09375 39.109375 49.828125 
Q 42.09375 47.5625 43.96875 44.109375 
Q 45.84375 40.671875 46.59375 36.734375 
Q 47.359375 32.8125 47.359375 27.828125 
z
" id="DejaVuSans-1512"/>
      <path d="M 25.203125 64.796875 
L 20.21875 38.921875 
L 32.90625 38.921875 
Q 40.375 38.921875 44.984375 43.046875 
Q 49.609375 47.171875 49.609375 53.8125 
Q 49.609375 59.125 46.5 61.953125 
Q 43.40625 64.796875 37.59375 64.796875 
z
M 43.3125 35.015625 
Q 46.4375 34.28125 48.515625 31.390625 
Q 50.59375 28.515625 53.328125 19.921875 
L 59.515625 0 
L 49.125 0 
L 43.40625 18.703125 
Q 41.21875 25.921875 38.328125 28.359375 
Q 35.453125 30.8125 29.5 30.8125 
L 18.609375 30.8125 
L 12.59375 0 
L 2.6875 0 
L 16.890625 72.90625 
L 39.109375 72.90625 
Q 49.21875 72.90625 54.609375 68.328125 
Q 60.015625 63.765625 60.015625 55.171875 
Q 60.015625 47.5625 55.421875 41.984375 
Q 50.828125 36.421875 43.3125 35.015625 
z
" id="DejaVuSans-Oblique-82"/>
      <path d="M 42.28125 54.6875 
L 40.921875 47.703125 
L 23 47.703125 
L 17.1875 18.015625 
Q 16.890625 16.359375 16.75 15.234375 
Q 16.609375 14.109375 16.609375 13.484375 
Q 16.609375 10.359375 18.484375 8.9375 
Q 20.359375 7.515625 24.515625 7.515625 
L 33.59375 7.515625 
L 32.078125 0 
L 23.484375 0 
Q 15.484375 0 11.546875 3.125 
Q 7.625 6.25 7.625 12.59375 
Q 7.625 13.71875 7.765625 15.0625 
Q 7.90625 16.40625 8.203125 18.015625 
L 14.015625 47.703125 
L 6.390625 47.703125 
L 7.8125 54.6875 
L 15.28125 54.6875 
L 18.3125 70.21875 
L 27.296875 70.21875 
L 24.3125 54.6875 
z
" id="DejaVuSans-Oblique-116"/>
     </defs>
     <use transform="translate(0 0.09375)" xlink:href="#DejaVuSans-49"/>
     <use transform="translate(63.623047 0.09375)" xlink:href="#DejaVuSans-49"/>
     <use transform="translate(127.246094 0.09375)" xlink:href="#DejaVuSans-49"/>
     <use transform="translate(190.869141 0.09375)" xlink:href="#DejaVuSans-32"/>
     <use transform="translate(222.65625 0.09375)" xlink:href="#DejaVuSans-1492"/>
     <use transform="translate(287.988281 0.09375)" xlink:href="#DejaVuSans-1491"/>
     <use transform="translate(342.578125 0.09375)" xlink:href="#DejaVuSans-1493"/>
     <use transform="translate(369.824219 0.09375)" xlink:href="#DejaVuSans-1492"/>
     <use transform="translate(435.15625 0.09375)" xlink:href="#DejaVuSans-1497"/>
     <use transform="translate(457.519531 0.09375)" xlink:href="#DejaVuSans-32"/>
     <use transform="translate(489.306641 0.09375)" xlink:href="#DejaVuSans-1497"/>
     <use transform="translate(511.669922 0.09375)" xlink:href="#DejaVuSans-1512"/>
     <use transform="translate(568.115234 0.09375)" xlink:href="#DejaVuSans-1492"/>
     <use transform="translate(633.447266 0.09375)" xlink:href="#DejaVuSans-32"/>
     <use transform="translate(665.234375 0.09375)" xlink:href="#DejaVuSans-Oblique-82"/>
     <use transform="translate(734.716797 -16.3125)scale(0.7)" xlink:href="#DejaVuSans-Oblique-116"/>
    </g>
   </g>
  </g>
 </g>
 <defs>
  <clipPath id="p95d918c9fd">
   <rect height="271.8" width="558" x="90" y="43.2"/>
  </clipPath>
 </defs>
</svg>
