<?xml version="1.0" encoding="utf-8" standalone="no"?>
<!DOCTYPE svg PUBLIC "-//W3C//DTD SVG 1.1//EN"
  "http://www.w3.org/Graphics/SVG/1.1/DTD/svg11.dtd">
<!-- Created with matplotlib (https://matplotlib.org/) -->
<svg height="360pt" version="1.1" viewBox="0 0 720 360" width="720pt" xmlns="http://www.w3.org/2000/svg" xmlns:xlink="http://www.w3.org/1999/xlink">
 <metadata>
  <rdf:RDF xmlns:cc="http://creativecommons.org/ns#" xmlns:dc="http://purl.org/dc/elements/1.1/" xmlns:rdf="http://www.w3.org/1999/02/22-rdf-syntax-ns#">
   <cc:Work>
    <dc:type rdf:resource="http://purl.org/dc/dcmitype/StillImage"/>
    <dc:date>2021-03-21T08:48:31.291663</dc:date>
    <dc:format>image/svg+xml</dc:format>
    <dc:creator>
     <cc:Agent>
      <dc:title>Matplotlib v3.3.2, https://matplotlib.org/</dc:title>
     </cc:Agent>
    </dc:creator>
   </cc:Work>
  </rdf:RDF>
 </metadata>
 <defs>
  <style type="text/css">*{stroke-linecap:butt;stroke-linejoin:round;}</style>
 </defs>
 <g id="figure_1">
  <g id="patch_1">
   <path d="M 0 360 
L 720 360 
L 720 0 
L 0 0 
z
" style="fill:#ffffff;"/>
  </g>
  <g id="axes_1">
   <g id="patch_2">
    <path d="M 90 315 
L 648 315 
L 648 43.2 
L 90 43.2 
z
" style="fill:#ffffff;"/>
   </g>
   <g id="PolyCollection_1">
    <defs>
     <path d="M 90 -57.354545 
L 90 -121.615174 
L 91.680723 -123.275747 
L 93.361446 -124.983336 
L 95.042169 -125.749153 
L 96.722892 -124.909666 
L 98.403614 -129.362145 
L 100.084337 -127.069392 
L 101.76506 -124.800027 
L 103.445783 -127.579196 
L 105.126506 -132.053921 
L 106.807229 -128.519713 
L 108.487952 -129.291043 
L 110.168675 -132.007832 
L 111.849398 -138.364916 
L 113.53012 -136.082641 
L 115.210843 -140.39292 
L 116.891566 -140.261657 
L 118.572289 -144.7503 
L 120.253012 -145.054927 
L 121.933735 -150.959577 
L 123.614458 -152.498462 
L 125.295181 -157.231205 
L 126.975904 -155.719269 
L 128.656627 -161.17096 
L 130.337349 -161.626926 
L 132.018072 -166.956032 
L 133.698795 -165.169643 
L 135.379518 -170.484508 
L 137.060241 -175.944491 
L 138.740964 -175.82802 
L 140.421687 -180.354513 
L 142.10241 -186.348791 
L 143.783133 -185.421085 
L 145.463855 -184.622782 
L 147.144578 -189.037812 
L 148.825301 -198.892411 
L 150.506024 -200.073445 
L 152.186747 -209.109025 
L 153.86747 -209.761454 
L 155.548193 -208.696578 
L 157.228916 -214.283988 
L 158.909639 -216.362705 
L 160.590361 -218.749068 
L 162.271084 -221.383757 
L 163.951807 -224.160925 
L 165.63253 -232.079548 
L 167.313253 -231.260719 
L 168.993976 -230.604135 
L 170.674699 -227.961933 
L 172.355422 -231.630505 
L 174.036145 -237.125606 
L 175.716867 -235.899844 
L 177.39759 -232.451704 
L 179.078313 -240.318976 
L 180.759036 -239.08735 
L 182.439759 -253.584764 
L 184.120482 -252.679471 
L 185.801205 -255.795313 
L 187.481928 -255.733681 
L 189.162651 -254.319771 
L 190.843373 -260.089258 
L 192.524096 -266.896185 
L 194.204819 -264.540695 
L 195.885542 -276.349699 
L 197.566265 -273.566084 
L 199.246988 -275.983695 
L 200.927711 -279.968842 
L 202.608434 -280.850863 
L 204.289157 -284.126654 
L 205.96988 -289.674307 
L 207.650602 -290.080293 
L 209.331325 -294.910579 
L 211.012048 -289.277997 
L 212.692771 -300.53055 
L 214.373494 -296.380812 
L 216.054217 -300.188926 
L 217.73494 -304.445455 
L 219.415663 -298.463558 
L 221.096386 -294.786162 
L 222.777108 -290.546488 
L 224.457831 -289.870545 
L 226.138554 -286.270889 
L 227.819277 -286.709069 
L 229.5 -283.518398 
L 231.180723 -278.268785 
L 232.861446 -268.569025 
L 234.542169 -262.862498 
L 236.222892 -257.710137 
L 237.903614 -253.243821 
L 239.584337 -244.267235 
L 241.26506 -237.911962 
L 242.945783 -233.941383 
L 244.626506 -223.631723 
L 246.307229 -216.083377 
L 247.987952 -206.843249 
L 249.668675 -205.574783 
L 251.349398 -201.851511 
L 253.03012 -195.475473 
L 254.710843 -191.922962 
L 256.391566 -188.279266 
L 258.072289 -181.001672 
L 259.753012 -183.7989 
L 261.433735 -180.61976 
L 263.114458 -178.267265 
L 264.795181 -172.557415 
L 266.475904 -172.717458 
L 268.156627 -171.518072 
L 269.837349 -171.528202 
L 271.518072 -170.861566 
L 273.198795 -174.203684 
L 274.879518 -173.237916 
L 276.560241 -174.597457 
L 278.240964 -177.880355 
L 279.921687 -178.668614 
L 281.60241 -183.385097 
L 283.283133 -184.428983 
L 284.963855 -190.307055 
L 286.644578 -191.10545 
L 288.325301 -196.070015 
L 290.006024 -200.860723 
L 291.686747 -203.451868 
L 293.36747 -202.255851 
L 295.048193 -208.697074 
L 296.728916 -205.124828 
L 298.409639 -210.503956 
L 300.090361 -210.627143 
L 301.771084 -225.826405 
L 303.451807 -224.753811 
L 305.13253 -224.320561 
L 306.813253 -229.215345 
L 308.493976 -239.458608 
L 310.174699 -236.009258 
L 311.855422 -246.055518 
L 313.536145 -242.648922 
L 315.216867 -246.743452 
L 316.89759 -255.456356 
L 318.578313 -253.230936 
L 320.259036 -259.682773 
L 321.939759 -249.505813 
L 323.620482 -248.980792 
L 325.301205 -248.928032 
L 326.981928 -246.179098 
L 328.662651 -240.329323 
L 330.343373 -234.34762 
L 332.024096 -225.225599 
L 333.704819 -218.840768 
L 335.385542 -212.796175 
L 337.066265 -202.273775 
L 338.746988 -193.772879 
L 340.427711 -187.756588 
L 342.108434 -178.121586 
L 343.789157 -174.829301 
L 345.46988 -165.346613 
L 347.150602 -162.959366 
L 348.831325 -156.611173 
L 350.512048 -154.509708 
L 352.192771 -145.923414 
L 353.873494 -144.033745 
L 355.554217 -137.750869 
L 357.23494 -136.38275 
L 358.915663 -132.877157 
L 360.596386 -131.489624 
L 362.277108 -125.666523 
L 363.957831 -127.266985 
L 365.638554 -120.803475 
L 367.319277 -119.037953 
L 369 -120.394399 
L 370.680723 -118.716988 
L 372.361446 -115.470385 
L 374.042169 -116.099148 
L 375.722892 -119.277566 
L 377.403614 -117.426474 
L 379.084337 -116.372772 
L 380.76506 -116.871433 
L 382.445783 -117.075528 
L 384.126506 -120.229782 
L 385.807229 -120.587678 
L 387.487952 -119.602769 
L 389.168675 -122.777452 
L 390.849398 -124.696494 
L 392.53012 -129.941431 
L 394.210843 -130.006912 
L 395.891566 -132.973453 
L 397.572289 -133.899168 
L 399.253012 -141.962556 
L 400.933735 -144.875811 
L 402.614458 -145.991257 
L 404.295181 -154.135784 
L 405.975904 -155.891711 
L 407.656627 -162.230764 
L 409.337349 -166.799418 
L 411.018072 -171.896542 
L 412.698795 -177.022768 
L 414.379518 -180.344549 
L 416.060241 -182.720582 
L 417.740964 -184.358566 
L 419.421687 -194.153753 
L 421.10241 -195.927435 
L 422.783133 -198.2436 
L 424.463855 -203.017326 
L 426.144578 -202.812198 
L 427.825301 -206.535695 
L 429.506024 -206.795595 
L 431.186747 -209.660096 
L 432.86747 -219.542115 
L 434.548193 -214.291817 
L 436.228916 -218.686752 
L 437.909639 -222.772565 
L 439.590361 -221.684035 
L 441.271084 -225.057147 
L 442.951807 -226.407304 
L 444.63253 -226.675514 
L 446.313253 -227.92285 
L 447.993976 -232.007655 
L 449.674699 -234.691334 
L 451.355422 -227.929853 
L 453.036145 -235.62588 
L 454.716867 -238.013796 
L 456.39759 -242.550696 
L 458.078313 -242.956275 
L 459.759036 -245.653016 
L 461.439759 -241.378618 
L 463.120482 -242.022918 
L 464.801205 -245.064052 
L 466.481928 -245.333667 
L 468.162651 -243.029524 
L 469.843373 -244.13634 
L 471.524096 -244.745785 
L 473.204819 -245.465752 
L 474.885542 -243.689557 
L 476.566265 -251.219509 
L 478.246988 -246.41675 
L 479.927711 -251.622001 
L 481.608434 -251.102605 
L 483.289157 -247.229965 
L 484.96988 -246.824772 
L 486.650602 -247.571879 
L 488.331325 -245.089649 
L 490.012048 -248.594541 
L 491.692771 -245.216592 
L 493.373494 -241.00348 
L 495.054217 -237.592006 
L 496.73494 -236.258388 
L 498.415663 -232.616019 
L 500.096386 -229.566899 
L 501.777108 -221.679595 
L 503.457831 -220.325725 
L 505.138554 -213.215593 
L 506.819277 -210.609498 
L 508.5 -210.382791 
L 510.180723 -209.399342 
L 511.861446 -204.148231 
L 513.542169 -202.428695 
L 515.222892 -200.959945 
L 516.903614 -204.56408 
L 518.584337 -202.443939 
L 520.26506 -200.91514 
L 521.945783 -196.875764 
L 523.626506 -192.79108 
L 525.307229 -192.002533 
L 526.987952 -194.796919 
L 528.668675 -192.596424 
L 530.349398 -192.209107 
L 532.03012 -189.082243 
L 533.710843 -189.130184 
L 535.391566 -185.457632 
L 537.072289 -182.495321 
L 538.753012 -181.852925 
L 540.433735 -181.627296 
L 542.114458 -181.188294 
L 543.795181 -178.121795 
L 545.475904 -178.234899 
L 547.156627 -174.729104 
L 548.837349 -178.832395 
L 550.518072 -178.160636 
L 552.198795 -174.27494 
L 553.879518 -176.204648 
L 555.560241 -174.80156 
L 557.240964 -178.005081 
L 558.921687 -177.067136 
L 560.60241 -176.003133 
L 562.283133 -175.713603 
L 563.963855 -174.014109 
L 565.644578 -174.401881 
L 567.325301 -173.860387 
L 569.006024 -173.378891 
L 570.686747 -172.859261 
L 572.36747 -167.679613 
L 574.048193 -169.678766 
L 575.728916 -164.827692 
L 577.409639 -160.294286 
L 579.090361 -160.331229 
L 580.771084 -157.052939 
L 582.451807 -158.071391 
L 584.13253 -155.630739 
L 585.813253 -155.308463 
L 587.493976 -154.4562 
L 589.174699 -156.061946 
L 590.855422 -151.225976 
L 592.536145 -151.353965 
L 594.216867 -152.69529 
L 595.89759 -149.692519 
L 597.578313 -148.550772 
L 599.259036 -147.295002 
L 600.939759 -146.233149 
L 602.620482 -143.473616 
L 604.301205 -145.086961 
L 605.981928 -141.245438 
L 607.662651 -137.946459 
L 609.343373 -132.905344 
L 611.024096 -131.988325 
L 612.704819 -131.325364 
L 614.385542 -131.100344 
L 616.066265 -127.166938 
L 617.746988 -126.629269 
L 619.427711 -125.348395 
L 621.108434 -124.236362 
L 622.789157 -125.833034 
L 624.46988 -126.923102 
L 626.150602 -126.315515 
L 627.831325 -125.80691 
L 629.512048 -125.656492 
L 631.192771 -125.955939 
L 632.873494 -128.702215 
L 634.554217 -127.051948 
L 636.23494 -130.350359 
L 637.915663 -128.754723 
L 639.596386 -129.785046 
L 641.277108 -133.104277 
L 642.957831 -136.925644 
L 644.638554 -138.177594 
L 646.319277 -134.288595 
L 648 -139.838703 
L 649.680723 -138.41253 
L 651.361446 -144.60444 
L 653.042169 -137.233971 
L 654.722892 -146.465191 
L 656.403614 -144.083634 
L 658.084337 -144.564997 
L 659.76506 -149.066958 
L 661.445783 -146.468187 
L 661.445783 -61.907844 
L 661.445783 -61.907844 
L 659.76506 -66.503825 
L 658.084337 -63.281043 
L 656.403614 -65.647645 
L 654.722892 -69.109326 
L 653.042169 -64.626279 
L 651.361446 -74.843358 
L 649.680723 -71.311302 
L 648 -72.937727 
L 646.319277 -70.976999 
L 644.638554 -76.137902 
L 642.957831 -76.684663 
L 641.277108 -75.469056 
L 639.596386 -77.013236 
L 637.915663 -77.481145 
L 636.23494 -79.96014 
L 634.554217 -78.059401 
L 632.873494 -82.259756 
L 631.192771 -81.700001 
L 629.512048 -83.254698 
L 627.831325 -86.615284 
L 626.150602 -87.991184 
L 624.46988 -88.71689 
L 622.789157 -88.462768 
L 621.108434 -88.955822 
L 619.427711 -88.641441 
L 617.746988 -92.322509 
L 616.066265 -91.824365 
L 614.385542 -95.683921 
L 612.704819 -95.604223 
L 611.024096 -95.675739 
L 609.343373 -97.370813 
L 607.662651 -102.469835 
L 605.981928 -105.599583 
L 604.301205 -107.81697 
L 602.620482 -106.298044 
L 600.939759 -108.200666 
L 599.259036 -110.149661 
L 597.578313 -111.022548 
L 595.89759 -111.998097 
L 594.216867 -116.995736 
L 592.536145 -115.685264 
L 590.855422 -116.213196 
L 589.174699 -121.077294 
L 587.493976 -117.798473 
L 585.813253 -118.518864 
L 584.13253 -118.906873 
L 582.451807 -122.196238 
L 580.771084 -121.036465 
L 579.090361 -124.371054 
L 577.409639 -122.08646 
L 575.728916 -125.819217 
L 574.048193 -129.467884 
L 572.36747 -127.426305 
L 570.686747 -133.740599 
L 569.006024 -134.256806 
L 567.325301 -133.645747 
L 565.644578 -132.995289 
L 563.963855 -131.902474 
L 562.283133 -135.881163 
L 560.60241 -132.748649 
L 558.921687 -134.778094 
L 557.240964 -137.721244 
L 555.560241 -133.451593 
L 553.879518 -134.917686 
L 552.198795 -133.670706 
L 550.518072 -135.742165 
L 548.837349 -137.821921 
L 547.156627 -137.224535 
L 545.475904 -138.723256 
L 543.795181 -137.518992 
L 542.114458 -139.272442 
L 540.433735 -138.514603 
L 538.753012 -137.790948 
L 537.072289 -137.877976 
L 535.391566 -140.944323 
L 533.710843 -142.998312 
L 532.03012 -143.7885 
L 530.349398 -146.276037 
L 528.668675 -145.64161 
L 526.987952 -149.742168 
L 525.307229 -146.025987 
L 523.626506 -146.834296 
L 521.945783 -150.135224 
L 520.26506 -154.30629 
L 518.584337 -155.836105 
L 516.903614 -155.94925 
L 515.222892 -150.348127 
L 513.542169 -154.34374 
L 511.861446 -155.37443 
L 510.180723 -162.105618 
L 508.5 -162.608623 
L 506.819277 -162.222991 
L 505.138554 -162.799724 
L 503.457831 -170.425557 
L 501.777108 -169.813749 
L 500.096386 -176.379672 
L 498.415663 -177.387355 
L 496.73494 -178.562646 
L 495.054217 -177.570075 
L 493.373494 -181.164857 
L 491.692771 -186.599021 
L 490.012048 -188.549545 
L 488.331325 -187.415644 
L 486.650602 -186.579251 
L 484.96988 -189.023348 
L 483.289157 -188.812409 
L 481.608434 -187.520461 
L 479.927711 -185.632635 
L 478.246988 -182.937283 
L 476.566265 -186.947557 
L 474.885542 -181.884128 
L 473.204819 -186.032732 
L 471.524096 -186.126733 
L 469.843373 -184.182349 
L 468.162651 -181.199498 
L 466.481928 -184.321435 
L 464.801205 -183.302459 
L 463.120482 -180.187721 
L 461.439759 -181.521408 
L 459.759036 -182.717956 
L 458.078313 -180.91999 
L 456.39759 -181.5403 
L 454.716867 -176.055706 
L 453.036145 -172.743631 
L 451.355422 -166.908141 
L 449.674699 -171.791268 
L 447.993976 -169.993262 
L 446.313253 -166.464311 
L 444.63253 -165.955647 
L 442.951807 -168.179453 
L 441.271084 -166.019874 
L 439.590361 -161.817861 
L 437.909639 -164.229583 
L 436.228916 -160.274952 
L 434.548193 -156.620099 
L 432.86747 -161.508842 
L 431.186747 -154.899764 
L 429.506024 -150.993366 
L 427.825301 -149.225114 
L 426.144578 -145.836446 
L 424.463855 -146.968378 
L 422.783133 -143.539873 
L 421.10241 -141.435442 
L 419.421687 -141.481193 
L 417.740964 -132.186548 
L 416.060241 -131.264956 
L 414.379518 -129.577361 
L 412.698795 -127.005942 
L 411.018072 -123.307165 
L 409.337349 -121.62962 
L 407.656627 -115.791387 
L 405.975904 -112.802359 
L 404.295181 -112.909913 
L 402.614458 -104.545208 
L 400.933735 -105.215824 
L 399.253012 -104.665492 
L 397.572289 -97.926053 
L 395.891566 -97.989243 
L 394.210843 -94.398918 
L 392.53012 -95.542888 
L 390.849398 -90.641846 
L 389.168675 -91.867281 
L 387.487952 -87.411182 
L 385.807229 -88.216159 
L 384.126506 -87.184351 
L 382.445783 -84.963037 
L 380.76506 -84.25984 
L 379.084337 -84.763522 
L 377.403614 -84.644025 
L 375.722892 -87.339461 
L 374.042169 -84.27275 
L 372.361446 -84.620494 
L 370.680723 -88.70229 
L 369 -89.152086 
L 367.319277 -88.345452 
L 365.638554 -90.006914 
L 363.957831 -94.616343 
L 362.277108 -92.181226 
L 360.596386 -97.130359 
L 358.915663 -99.108379 
L 357.23494 -103.190226 
L 355.554217 -102.739327 
L 353.873494 -106.33868 
L 352.192771 -107.167813 
L 350.512048 -115.892088 
L 348.831325 -116.529596 
L 347.150602 -122.922503 
L 345.46988 -124.971178 
L 343.789157 -135.634483 
L 342.108434 -136.295122 
L 340.427711 -142.971395 
L 338.746988 -147.581505 
L 337.066265 -153.959913 
L 335.385542 -162.358034 
L 333.704819 -166.732865 
L 332.024096 -171.272564 
L 330.343373 -177.422529 
L 328.662651 -180.711375 
L 326.981928 -185.10485 
L 325.301205 -190.491887 
L 323.620482 -189.057412 
L 321.939759 -186.491117 
L 320.259036 -196.567599 
L 318.578313 -188.101901 
L 316.89759 -190.211277 
L 315.216867 -183.063373 
L 313.536145 -180.694825 
L 311.855422 -185.278357 
L 310.174699 -175.430588 
L 308.493976 -177.901934 
L 306.813253 -169.156091 
L 305.13253 -163.183204 
L 303.451807 -165.616693 
L 301.771084 -167.368573 
L 300.090361 -155.733956 
L 298.409639 -157.043754 
L 296.728916 -151.962322 
L 295.048193 -154.003698 
L 293.36747 -150.236946 
L 291.686747 -152.869805 
L 290.006024 -148.400495 
L 288.325301 -144.347106 
L 286.644578 -140.806628 
L 284.963855 -142.598299 
L 283.283133 -137.05161 
L 281.60241 -136.350289 
L 279.921687 -132.852394 
L 278.240964 -132.184027 
L 276.560241 -131.180762 
L 274.879518 -128.710288 
L 273.198795 -131.571086 
L 271.518072 -125.577432 
L 269.837349 -127.225659 
L 268.156627 -126.540005 
L 266.475904 -127.364734 
L 264.795181 -126.842234 
L 263.114458 -130.976062 
L 261.433735 -131.113951 
L 259.753012 -135.207941 
L 258.072289 -132.284311 
L 256.391566 -137.095689 
L 254.710843 -139.478657 
L 253.03012 -142.279674 
L 251.349398 -147.212334 
L 249.668675 -150.122537 
L 247.987952 -149.032814 
L 246.307229 -155.797307 
L 244.626506 -161.089767 
L 242.945783 -167.463662 
L 241.26506 -170.976596 
L 239.584337 -173.547981 
L 237.903614 -182.523686 
L 236.222892 -184.37816 
L 234.542169 -184.639309 
L 232.861446 -189.285266 
L 231.180723 -197.364566 
L 229.5 -200.093259 
L 227.819277 -205.932038 
L 226.138554 -204.853247 
L 224.457831 -205.39641 
L 222.777108 -203.297273 
L 221.096386 -205.887936 
L 219.415663 -211.171524 
L 217.73494 -210.406542 
L 216.054217 -208.156573 
L 214.373494 -203.275549 
L 212.692771 -209.202756 
L 211.012048 -197.521542 
L 209.331325 -207.650065 
L 207.650602 -204.68562 
L 205.96988 -203.002954 
L 204.289157 -197.730247 
L 202.608434 -197.227563 
L 200.927711 -196.062183 
L 199.246988 -192.120834 
L 197.566265 -192.314237 
L 195.885542 -193.002003 
L 194.204819 -181.501944 
L 192.524096 -182.927609 
L 190.843373 -176.94104 
L 189.162651 -174.540519 
L 187.481928 -175.490902 
L 185.801205 -176.369595 
L 184.120482 -172.660188 
L 182.439759 -173.750959 
L 180.759036 -158.854984 
L 179.078313 -163.033292 
L 177.39759 -152.74086 
L 175.716867 -158.629328 
L 174.036145 -159.553209 
L 172.355422 -157.701521 
L 170.674699 -151.744401 
L 168.993976 -154.470341 
L 167.313253 -153.312692 
L 165.63253 -154.278464 
L 163.951807 -149.067002 
L 162.271084 -144.628377 
L 160.590361 -143.023342 
L 158.909639 -140.02686 
L 157.228916 -139.321283 
L 155.548193 -136.058326 
L 153.86747 -138.996728 
L 152.186747 -140.852315 
L 150.506024 -135.11013 
L 148.825301 -133.927078 
L 147.144578 -124.752407 
L 145.463855 -119.797923 
L 143.783133 -122.906438 
L 142.10241 -123.470226 
L 140.421687 -120.327834 
L 138.740964 -116.505156 
L 137.060241 -116.892347 
L 135.379518 -112.164678 
L 133.698795 -107.768158 
L 132.018072 -109.762808 
L 130.337349 -104.765852 
L 128.656627 -104.616873 
L 126.975904 -99.512245 
L 125.295181 -100.86516 
L 123.614458 -96.216987 
L 121.933735 -95.954184 
L 120.253012 -91.146003 
L 118.572289 -90.331882 
L 116.891566 -86.563653 
L 115.210843 -85.440458 
L 113.53012 -80.939555 
L 111.849398 -82.891659 
L 110.168675 -75.941273 
L 108.487952 -71.761565 
L 106.807229 -71.984096 
L 105.126506 -74.305265 
L 103.445783 -70.663635 
L 101.76506 -69.03541 
L 100.084337 -68.79783 
L 98.403614 -70.50762 
L 96.722892 -63.711646 
L 95.042169 -63.151442 
L 93.361446 -60.629045 
L 91.680723 -58.499027 
L 90 -57.354545 
z
" id="m76872ddf91" style="stroke:#fdcbb6;stroke-opacity:0.8;"/>
    </defs>
    <g clip-path="url(#pc21ac52e58)">
     <use style="fill:#fdcbb6;fill-opacity:0.8;stroke:#fdcbb6;stroke-opacity:0.8;" x="0" xlink:href="#m76872ddf91" y="360"/>
    </g>
   </g>
   <g id="matplotlib.axis_1">
    <g id="xtick_1">
     <g id="line2d_1">
      <defs>
       <path d="M 0 0 
L 0 3.5 
" id="mc3bc4f1f20" style="stroke:#000000;stroke-width:0.8;"/>
      </defs>
      <g>
       <use style="stroke:#000000;stroke-width:0.8;" x="90" xlink:href="#mc3bc4f1f20" y="315"/>
      </g>
     </g>
    </g>
    <g id="xtick_2">
     <g id="line2d_2">
      <g>
       <use style="stroke:#000000;stroke-width:0.8;" x="120.253012" xlink:href="#mc3bc4f1f20" y="315"/>
      </g>
     </g>
     <g id="text_1">
      <!-- May -->
      <g transform="translate(109.915512 329.598437)scale(0.1 -0.1)">
       <defs>
        <path d="M 9.8125 72.90625 
L 24.515625 72.90625 
L 43.109375 23.296875 
L 61.8125 72.90625 
L 76.515625 72.90625 
L 76.515625 0 
L 66.890625 0 
L 66.890625 64.015625 
L 48.09375 14.015625 
L 38.1875 14.015625 
L 19.390625 64.015625 
L 19.390625 0 
L 9.8125 0 
z
" id="DejaVuSans-77"/>
        <path d="M 34.28125 27.484375 
Q 23.390625 27.484375 19.1875 25 
Q 14.984375 22.515625 14.984375 16.5 
Q 14.984375 11.71875 18.140625 8.90625 
Q 21.296875 6.109375 26.703125 6.109375 
Q 34.1875 6.109375 38.703125 11.40625 
Q 43.21875 16.703125 43.21875 25.484375 
L 43.21875 27.484375 
z
M 52.203125 31.203125 
L 52.203125 0 
L 43.21875 0 
L 43.21875 8.296875 
Q 40.140625 3.328125 35.546875 0.953125 
Q 30.953125 -1.421875 24.3125 -1.421875 
Q 15.921875 -1.421875 10.953125 3.296875 
Q 6 8.015625 6 15.921875 
Q 6 25.140625 12.171875 29.828125 
Q 18.359375 34.515625 30.609375 34.515625 
L 43.21875 34.515625 
L 43.21875 35.40625 
Q 43.21875 41.609375 39.140625 45 
Q 35.0625 48.390625 27.6875 48.390625 
Q 23 48.390625 18.546875 47.265625 
Q 14.109375 46.140625 10.015625 43.890625 
L 10.015625 52.203125 
Q 14.9375 54.109375 19.578125 55.046875 
Q 24.21875 56 28.609375 56 
Q 40.484375 56 46.34375 49.84375 
Q 52.203125 43.703125 52.203125 31.203125 
z
" id="DejaVuSans-97"/>
        <path d="M 32.171875 -5.078125 
Q 28.375 -14.84375 24.75 -17.8125 
Q 21.140625 -20.796875 15.09375 -20.796875 
L 7.90625 -20.796875 
L 7.90625 -13.28125 
L 13.1875 -13.28125 
Q 16.890625 -13.28125 18.9375 -11.515625 
Q 21 -9.765625 23.484375 -3.21875 
L 25.09375 0.875 
L 2.984375 54.6875 
L 12.5 54.6875 
L 29.59375 11.921875 
L 46.6875 54.6875 
L 56.203125 54.6875 
z
" id="DejaVuSans-121"/>
       </defs>
       <use xlink:href="#DejaVuSans-77"/>
       <use x="86.279297" xlink:href="#DejaVuSans-97"/>
       <use x="147.558594" xlink:href="#DejaVuSans-121"/>
      </g>
     </g>
    </g>
    <g id="xtick_3">
     <g id="line2d_3">
      <g>
       <use style="stroke:#000000;stroke-width:0.8;" x="172.355422" xlink:href="#mc3bc4f1f20" y="315"/>
      </g>
     </g>
     <g id="text_2">
      <!-- Jun -->
      <g transform="translate(164.542922 329.598437)scale(0.1 -0.1)">
       <defs>
        <path d="M 9.8125 72.90625 
L 19.671875 72.90625 
L 19.671875 5.078125 
Q 19.671875 -8.109375 14.671875 -14.0625 
Q 9.671875 -20.015625 -1.421875 -20.015625 
L -5.171875 -20.015625 
L -5.171875 -11.71875 
L -2.09375 -11.71875 
Q 4.4375 -11.71875 7.125 -8.046875 
Q 9.8125 -4.390625 9.8125 5.078125 
z
" id="DejaVuSans-74"/>
        <path d="M 8.5 21.578125 
L 8.5 54.6875 
L 17.484375 54.6875 
L 17.484375 21.921875 
Q 17.484375 14.15625 20.5 10.265625 
Q 23.53125 6.390625 29.59375 6.390625 
Q 36.859375 6.390625 41.078125 11.03125 
Q 45.3125 15.671875 45.3125 23.6875 
L 45.3125 54.6875 
L 54.296875 54.6875 
L 54.296875 0 
L 45.3125 0 
L 45.3125 8.40625 
Q 42.046875 3.421875 37.71875 1 
Q 33.40625 -1.421875 27.6875 -1.421875 
Q 18.265625 -1.421875 13.375 4.4375 
Q 8.5 10.296875 8.5 21.578125 
z
M 31.109375 56 
z
" id="DejaVuSans-117"/>
        <path d="M 54.890625 33.015625 
L 54.890625 0 
L 45.90625 0 
L 45.90625 32.71875 
Q 45.90625 40.484375 42.875 44.328125 
Q 39.84375 48.1875 33.796875 48.1875 
Q 26.515625 48.1875 22.3125 43.546875 
Q 18.109375 38.921875 18.109375 30.90625 
L 18.109375 0 
L 9.078125 0 
L 9.078125 54.6875 
L 18.109375 54.6875 
L 18.109375 46.1875 
Q 21.34375 51.125 25.703125 53.5625 
Q 30.078125 56 35.796875 56 
Q 45.21875 56 50.046875 50.171875 
Q 54.890625 44.34375 54.890625 33.015625 
z
" id="DejaVuSans-110"/>
       </defs>
       <use xlink:href="#DejaVuSans-74"/>
       <use x="29.492188" xlink:href="#DejaVuSans-117"/>
       <use x="92.871094" xlink:href="#DejaVuSans-110"/>
      </g>
     </g>
    </g>
    <g id="xtick_4">
     <g id="line2d_4">
      <g>
       <use style="stroke:#000000;stroke-width:0.8;" x="222.777108" xlink:href="#mc3bc4f1f20" y="315"/>
      </g>
     </g>
     <g id="text_3">
      <!-- Jul -->
      <g transform="translate(216.744296 329.598437)scale(0.1 -0.1)">
       <defs>
        <path d="M 9.421875 75.984375 
L 18.40625 75.984375 
L 18.40625 0 
L 9.421875 0 
z
" id="DejaVuSans-108"/>
       </defs>
       <use xlink:href="#DejaVuSans-74"/>
       <use x="29.492188" xlink:href="#DejaVuSans-117"/>
       <use x="92.871094" xlink:href="#DejaVuSans-108"/>
      </g>
     </g>
    </g>
    <g id="xtick_5">
     <g id="line2d_5">
      <g>
       <use style="stroke:#000000;stroke-width:0.8;" x="274.879518" xlink:href="#mc3bc4f1f20" y="315"/>
      </g>
     </g>
     <g id="text_4">
      <!-- Aug -->
      <g transform="translate(265.116237 329.598437)scale(0.1 -0.1)">
       <defs>
        <path d="M 34.1875 63.1875 
L 20.796875 26.90625 
L 47.609375 26.90625 
z
M 28.609375 72.90625 
L 39.796875 72.90625 
L 67.578125 0 
L 57.328125 0 
L 50.6875 18.703125 
L 17.828125 18.703125 
L 11.1875 0 
L 0.78125 0 
z
" id="DejaVuSans-65"/>
        <path d="M 45.40625 27.984375 
Q 45.40625 37.75 41.375 43.109375 
Q 37.359375 48.484375 30.078125 48.484375 
Q 22.859375 48.484375 18.828125 43.109375 
Q 14.796875 37.75 14.796875 27.984375 
Q 14.796875 18.265625 18.828125 12.890625 
Q 22.859375 7.515625 30.078125 7.515625 
Q 37.359375 7.515625 41.375 12.890625 
Q 45.40625 18.265625 45.40625 27.984375 
z
M 54.390625 6.78125 
Q 54.390625 -7.171875 48.1875 -13.984375 
Q 42 -20.796875 29.203125 -20.796875 
Q 24.46875 -20.796875 20.265625 -20.09375 
Q 16.0625 -19.390625 12.109375 -17.921875 
L 12.109375 -9.1875 
Q 16.0625 -11.328125 19.921875 -12.34375 
Q 23.78125 -13.375 27.78125 -13.375 
Q 36.625 -13.375 41.015625 -8.765625 
Q 45.40625 -4.15625 45.40625 5.171875 
L 45.40625 9.625 
Q 42.625 4.78125 38.28125 2.390625 
Q 33.9375 0 27.875 0 
Q 17.828125 0 11.671875 7.65625 
Q 5.515625 15.328125 5.515625 27.984375 
Q 5.515625 40.671875 11.671875 48.328125 
Q 17.828125 56 27.875 56 
Q 33.9375 56 38.28125 53.609375 
Q 42.625 51.21875 45.40625 46.390625 
L 45.40625 54.6875 
L 54.390625 54.6875 
z
" id="DejaVuSans-103"/>
       </defs>
       <use xlink:href="#DejaVuSans-65"/>
       <use x="68.408203" xlink:href="#DejaVuSans-117"/>
       <use x="131.787109" xlink:href="#DejaVuSans-103"/>
      </g>
     </g>
    </g>
    <g id="xtick_6">
     <g id="line2d_6">
      <g>
       <use style="stroke:#000000;stroke-width:0.8;" x="326.981928" xlink:href="#mc3bc4f1f20" y="315"/>
      </g>
     </g>
     <g id="text_5">
      <!-- Sep -->
      <g transform="translate(317.556928 329.598437)scale(0.1 -0.1)">
       <defs>
        <path d="M 53.515625 70.515625 
L 53.515625 60.890625 
Q 47.90625 63.578125 42.921875 64.890625 
Q 37.9375 66.21875 33.296875 66.21875 
Q 25.25 66.21875 20.875 63.09375 
Q 16.5 59.96875 16.5 54.203125 
Q 16.5 49.359375 19.40625 46.890625 
Q 22.3125 44.4375 30.421875 42.921875 
L 36.375 41.703125 
Q 47.40625 39.59375 52.65625 34.296875 
Q 57.90625 29 57.90625 20.125 
Q 57.90625 9.515625 50.796875 4.046875 
Q 43.703125 -1.421875 29.984375 -1.421875 
Q 24.8125 -1.421875 18.96875 -0.25 
Q 13.140625 0.921875 6.890625 3.21875 
L 6.890625 13.375 
Q 12.890625 10.015625 18.65625 8.296875 
Q 24.421875 6.59375 29.984375 6.59375 
Q 38.421875 6.59375 43.015625 9.90625 
Q 47.609375 13.234375 47.609375 19.390625 
Q 47.609375 24.75 44.3125 27.78125 
Q 41.015625 30.8125 33.5 32.328125 
L 27.484375 33.5 
Q 16.453125 35.6875 11.515625 40.375 
Q 6.59375 45.0625 6.59375 53.421875 
Q 6.59375 63.09375 13.40625 68.65625 
Q 20.21875 74.21875 32.171875 74.21875 
Q 37.3125 74.21875 42.625 73.28125 
Q 47.953125 72.359375 53.515625 70.515625 
z
" id="DejaVuSans-83"/>
        <path d="M 56.203125 29.59375 
L 56.203125 25.203125 
L 14.890625 25.203125 
Q 15.484375 15.921875 20.484375 11.0625 
Q 25.484375 6.203125 34.421875 6.203125 
Q 39.59375 6.203125 44.453125 7.46875 
Q 49.3125 8.734375 54.109375 11.28125 
L 54.109375 2.78125 
Q 49.265625 0.734375 44.1875 -0.34375 
Q 39.109375 -1.421875 33.890625 -1.421875 
Q 20.796875 -1.421875 13.15625 6.1875 
Q 5.515625 13.8125 5.515625 26.8125 
Q 5.515625 40.234375 12.765625 48.109375 
Q 20.015625 56 32.328125 56 
Q 43.359375 56 49.78125 48.890625 
Q 56.203125 41.796875 56.203125 29.59375 
z
M 47.21875 32.234375 
Q 47.125 39.59375 43.09375 43.984375 
Q 39.0625 48.390625 32.421875 48.390625 
Q 24.90625 48.390625 20.390625 44.140625 
Q 15.875 39.890625 15.1875 32.171875 
z
" id="DejaVuSans-101"/>
        <path d="M 18.109375 8.203125 
L 18.109375 -20.796875 
L 9.078125 -20.796875 
L 9.078125 54.6875 
L 18.109375 54.6875 
L 18.109375 46.390625 
Q 20.953125 51.265625 25.265625 53.625 
Q 29.59375 56 35.59375 56 
Q 45.5625 56 51.78125 48.09375 
Q 58.015625 40.1875 58.015625 27.296875 
Q 58.015625 14.40625 51.78125 6.484375 
Q 45.5625 -1.421875 35.59375 -1.421875 
Q 29.59375 -1.421875 25.265625 0.953125 
Q 20.953125 3.328125 18.109375 8.203125 
z
M 48.6875 27.296875 
Q 48.6875 37.203125 44.609375 42.84375 
Q 40.53125 48.484375 33.40625 48.484375 
Q 26.265625 48.484375 22.1875 42.84375 
Q 18.109375 37.203125 18.109375 27.296875 
Q 18.109375 17.390625 22.1875 11.75 
Q 26.265625 6.109375 33.40625 6.109375 
Q 40.53125 6.109375 44.609375 11.75 
Q 48.6875 17.390625 48.6875 27.296875 
z
" id="DejaVuSans-112"/>
       </defs>
       <use xlink:href="#DejaVuSans-83"/>
       <use x="63.476562" xlink:href="#DejaVuSans-101"/>
       <use x="125" xlink:href="#DejaVuSans-112"/>
      </g>
     </g>
    </g>
    <g id="xtick_7">
     <g id="line2d_7">
      <g>
       <use style="stroke:#000000;stroke-width:0.8;" x="377.403614" xlink:href="#mc3bc4f1f20" y="315"/>
      </g>
     </g>
     <g id="text_6">
      <!-- Oct -->
      <g transform="translate(368.758302 329.598437)scale(0.1 -0.1)">
       <defs>
        <path d="M 39.40625 66.21875 
Q 28.65625 66.21875 22.328125 58.203125 
Q 16.015625 50.203125 16.015625 36.375 
Q 16.015625 22.609375 22.328125 14.59375 
Q 28.65625 6.59375 39.40625 6.59375 
Q 50.140625 6.59375 56.421875 14.59375 
Q 62.703125 22.609375 62.703125 36.375 
Q 62.703125 50.203125 56.421875 58.203125 
Q 50.140625 66.21875 39.40625 66.21875 
z
M 39.40625 74.21875 
Q 54.734375 74.21875 63.90625 63.9375 
Q 73.09375 53.65625 73.09375 36.375 
Q 73.09375 19.140625 63.90625 8.859375 
Q 54.734375 -1.421875 39.40625 -1.421875 
Q 24.03125 -1.421875 14.8125 8.828125 
Q 5.609375 19.09375 5.609375 36.375 
Q 5.609375 53.65625 14.8125 63.9375 
Q 24.03125 74.21875 39.40625 74.21875 
z
" id="DejaVuSans-79"/>
        <path d="M 48.78125 52.59375 
L 48.78125 44.1875 
Q 44.96875 46.296875 41.140625 47.34375 
Q 37.3125 48.390625 33.40625 48.390625 
Q 24.65625 48.390625 19.8125 42.84375 
Q 14.984375 37.3125 14.984375 27.296875 
Q 14.984375 17.28125 19.8125 11.734375 
Q 24.65625 6.203125 33.40625 6.203125 
Q 37.3125 6.203125 41.140625 7.25 
Q 44.96875 8.296875 48.78125 10.40625 
L 48.78125 2.09375 
Q 45.015625 0.34375 40.984375 -0.53125 
Q 36.96875 -1.421875 32.421875 -1.421875 
Q 20.0625 -1.421875 12.78125 6.34375 
Q 5.515625 14.109375 5.515625 27.296875 
Q 5.515625 40.671875 12.859375 48.328125 
Q 20.21875 56 33.015625 56 
Q 37.15625 56 41.109375 55.140625 
Q 45.0625 54.296875 48.78125 52.59375 
z
" id="DejaVuSans-99"/>
        <path d="M 18.3125 70.21875 
L 18.3125 54.6875 
L 36.8125 54.6875 
L 36.8125 47.703125 
L 18.3125 47.703125 
L 18.3125 18.015625 
Q 18.3125 11.328125 20.140625 9.421875 
Q 21.96875 7.515625 27.59375 7.515625 
L 36.8125 7.515625 
L 36.8125 0 
L 27.59375 0 
Q 17.1875 0 13.234375 3.875 
Q 9.28125 7.765625 9.28125 18.015625 
L 9.28125 47.703125 
L 2.6875 47.703125 
L 2.6875 54.6875 
L 9.28125 54.6875 
L 9.28125 70.21875 
z
" id="DejaVuSans-116"/>
       </defs>
       <use xlink:href="#DejaVuSans-79"/>
       <use x="78.710938" xlink:href="#DejaVuSans-99"/>
       <use x="133.691406" xlink:href="#DejaVuSans-116"/>
      </g>
     </g>
    </g>
    <g id="xtick_8">
     <g id="line2d_8">
      <g>
       <use style="stroke:#000000;stroke-width:0.8;" x="429.506024" xlink:href="#mc3bc4f1f20" y="315"/>
      </g>
     </g>
     <g id="text_7">
      <!-- Nov -->
      <g transform="translate(419.746649 329.598437)scale(0.1 -0.1)">
       <defs>
        <path d="M 9.8125 72.90625 
L 23.09375 72.90625 
L 55.421875 11.921875 
L 55.421875 72.90625 
L 64.984375 72.90625 
L 64.984375 0 
L 51.703125 0 
L 19.390625 60.984375 
L 19.390625 0 
L 9.8125 0 
z
" id="DejaVuSans-78"/>
        <path d="M 30.609375 48.390625 
Q 23.390625 48.390625 19.1875 42.75 
Q 14.984375 37.109375 14.984375 27.296875 
Q 14.984375 17.484375 19.15625 11.84375 
Q 23.34375 6.203125 30.609375 6.203125 
Q 37.796875 6.203125 41.984375 11.859375 
Q 46.1875 17.53125 46.1875 27.296875 
Q 46.1875 37.015625 41.984375 42.703125 
Q 37.796875 48.390625 30.609375 48.390625 
z
M 30.609375 56 
Q 42.328125 56 49.015625 48.375 
Q 55.71875 40.765625 55.71875 27.296875 
Q 55.71875 13.875 49.015625 6.21875 
Q 42.328125 -1.421875 30.609375 -1.421875 
Q 18.84375 -1.421875 12.171875 6.21875 
Q 5.515625 13.875 5.515625 27.296875 
Q 5.515625 40.765625 12.171875 48.375 
Q 18.84375 56 30.609375 56 
z
" id="DejaVuSans-111"/>
        <path d="M 2.984375 54.6875 
L 12.5 54.6875 
L 29.59375 8.796875 
L 46.6875 54.6875 
L 56.203125 54.6875 
L 35.6875 0 
L 23.484375 0 
z
" id="DejaVuSans-118"/>
       </defs>
       <use xlink:href="#DejaVuSans-78"/>
       <use x="74.804688" xlink:href="#DejaVuSans-111"/>
       <use x="135.986328" xlink:href="#DejaVuSans-118"/>
      </g>
     </g>
    </g>
    <g id="xtick_9">
     <g id="line2d_9">
      <g>
       <use style="stroke:#000000;stroke-width:0.8;" x="479.927711" xlink:href="#mc3bc4f1f20" y="315"/>
      </g>
     </g>
     <g id="text_8">
      <!-- Dec -->
      <g transform="translate(470.25193 329.598437)scale(0.1 -0.1)">
       <defs>
        <path d="M 19.671875 64.796875 
L 19.671875 8.109375 
L 31.59375 8.109375 
Q 46.6875 8.109375 53.6875 14.9375 
Q 60.6875 21.78125 60.6875 36.53125 
Q 60.6875 51.171875 53.6875 57.984375 
Q 46.6875 64.796875 31.59375 64.796875 
z
M 9.8125 72.90625 
L 30.078125 72.90625 
Q 51.265625 72.90625 61.171875 64.09375 
Q 71.09375 55.28125 71.09375 36.53125 
Q 71.09375 17.671875 61.125 8.828125 
Q 51.171875 0 30.078125 0 
L 9.8125 0 
z
" id="DejaVuSans-68"/>
       </defs>
       <use xlink:href="#DejaVuSans-68"/>
       <use x="77.001953" xlink:href="#DejaVuSans-101"/>
       <use x="138.525391" xlink:href="#DejaVuSans-99"/>
      </g>
     </g>
    </g>
    <g id="xtick_10">
     <g id="line2d_10">
      <g>
       <use style="stroke:#000000;stroke-width:0.8;" x="532.03012" xlink:href="#mc3bc4f1f20" y="315"/>
      </g>
     </g>
     <g id="text_9">
      <!-- Jan -->
      <g transform="translate(524.322308 329.598437)scale(0.1 -0.1)">
       <use xlink:href="#DejaVuSans-74"/>
       <use x="29.492188" xlink:href="#DejaVuSans-97"/>
       <use x="90.771484" xlink:href="#DejaVuSans-110"/>
      </g>
      <!-- 2021 -->
      <g transform="translate(519.30512 340.79625)scale(0.1 -0.1)">
       <defs>
        <path d="M 19.1875 8.296875 
L 53.609375 8.296875 
L 53.609375 0 
L 7.328125 0 
L 7.328125 8.296875 
Q 12.9375 14.109375 22.625 23.890625 
Q 32.328125 33.6875 34.8125 36.53125 
Q 39.546875 41.84375 41.421875 45.53125 
Q 43.3125 49.21875 43.3125 52.78125 
Q 43.3125 58.59375 39.234375 62.25 
Q 35.15625 65.921875 28.609375 65.921875 
Q 23.96875 65.921875 18.8125 64.3125 
Q 13.671875 62.703125 7.8125 59.421875 
L 7.8125 69.390625 
Q 13.765625 71.78125 18.9375 73 
Q 24.125 74.21875 28.421875 74.21875 
Q 39.75 74.21875 46.484375 68.546875 
Q 53.21875 62.890625 53.21875 53.421875 
Q 53.21875 48.921875 51.53125 44.890625 
Q 49.859375 40.875 45.40625 35.40625 
Q 44.1875 33.984375 37.640625 27.21875 
Q 31.109375 20.453125 19.1875 8.296875 
z
" id="DejaVuSans-50"/>
        <path d="M 31.78125 66.40625 
Q 24.171875 66.40625 20.328125 58.90625 
Q 16.5 51.421875 16.5 36.375 
Q 16.5 21.390625 20.328125 13.890625 
Q 24.171875 6.390625 31.78125 6.390625 
Q 39.453125 6.390625 43.28125 13.890625 
Q 47.125 21.390625 47.125 36.375 
Q 47.125 51.421875 43.28125 58.90625 
Q 39.453125 66.40625 31.78125 66.40625 
z
M 31.78125 74.21875 
Q 44.046875 74.21875 50.515625 64.515625 
Q 56.984375 54.828125 56.984375 36.375 
Q 56.984375 17.96875 50.515625 8.265625 
Q 44.046875 -1.421875 31.78125 -1.421875 
Q 19.53125 -1.421875 13.0625 8.265625 
Q 6.59375 17.96875 6.59375 36.375 
Q 6.59375 54.828125 13.0625 64.515625 
Q 19.53125 74.21875 31.78125 74.21875 
z
" id="DejaVuSans-48"/>
        <path d="M 12.40625 8.296875 
L 28.515625 8.296875 
L 28.515625 63.921875 
L 10.984375 60.40625 
L 10.984375 69.390625 
L 28.421875 72.90625 
L 38.28125 72.90625 
L 38.28125 8.296875 
L 54.390625 8.296875 
L 54.390625 0 
L 12.40625 0 
z
" id="DejaVuSans-49"/>
       </defs>
       <use xlink:href="#DejaVuSans-50"/>
       <use x="63.623047" xlink:href="#DejaVuSans-48"/>
       <use x="127.246094" xlink:href="#DejaVuSans-50"/>
       <use x="190.869141" xlink:href="#DejaVuSans-49"/>
      </g>
     </g>
    </g>
    <g id="xtick_11">
     <g id="line2d_11">
      <g>
       <use style="stroke:#000000;stroke-width:0.8;" x="584.13253" xlink:href="#mc3bc4f1f20" y="315"/>
      </g>
     </g>
     <g id="text_10">
      <!-- Feb -->
      <g transform="translate(575.280968 329.598437)scale(0.1 -0.1)">
       <defs>
        <path d="M 9.8125 72.90625 
L 51.703125 72.90625 
L 51.703125 64.59375 
L 19.671875 64.59375 
L 19.671875 43.109375 
L 48.578125 43.109375 
L 48.578125 34.8125 
L 19.671875 34.8125 
L 19.671875 0 
L 9.8125 0 
z
" id="DejaVuSans-70"/>
        <path d="M 48.6875 27.296875 
Q 48.6875 37.203125 44.609375 42.84375 
Q 40.53125 48.484375 33.40625 48.484375 
Q 26.265625 48.484375 22.1875 42.84375 
Q 18.109375 37.203125 18.109375 27.296875 
Q 18.109375 17.390625 22.1875 11.75 
Q 26.265625 6.109375 33.40625 6.109375 
Q 40.53125 6.109375 44.609375 11.75 
Q 48.6875 17.390625 48.6875 27.296875 
z
M 18.109375 46.390625 
Q 20.953125 51.265625 25.265625 53.625 
Q 29.59375 56 35.59375 56 
Q 45.5625 56 51.78125 48.09375 
Q 58.015625 40.1875 58.015625 27.296875 
Q 58.015625 14.40625 51.78125 6.484375 
Q 45.5625 -1.421875 35.59375 -1.421875 
Q 29.59375 -1.421875 25.265625 0.953125 
Q 20.953125 3.328125 18.109375 8.203125 
L 18.109375 0 
L 9.078125 0 
L 9.078125 75.984375 
L 18.109375 75.984375 
z
" id="DejaVuSans-98"/>
       </defs>
       <use xlink:href="#DejaVuSans-70"/>
       <use x="52.019531" xlink:href="#DejaVuSans-101"/>
       <use x="113.542969" xlink:href="#DejaVuSans-98"/>
      </g>
     </g>
    </g>
    <g id="xtick_12">
     <g id="line2d_12">
      <g>
       <use style="stroke:#000000;stroke-width:0.8;" x="631.192771" xlink:href="#mc3bc4f1f20" y="315"/>
      </g>
     </g>
     <g id="text_11">
      <!-- Mar -->
      <g transform="translate(621.759177 329.598437)scale(0.1 -0.1)">
       <defs>
        <path d="M 41.109375 46.296875 
Q 39.59375 47.171875 37.8125 47.578125 
Q 36.03125 48 33.890625 48 
Q 26.265625 48 22.1875 43.046875 
Q 18.109375 38.09375 18.109375 28.8125 
L 18.109375 0 
L 9.078125 0 
L 9.078125 54.6875 
L 18.109375 54.6875 
L 18.109375 46.1875 
Q 20.953125 51.171875 25.484375 53.578125 
Q 30.03125 56 36.53125 56 
Q 37.453125 56 38.578125 55.875 
Q 39.703125 55.765625 41.0625 55.515625 
z
" id="DejaVuSans-114"/>
       </defs>
       <use xlink:href="#DejaVuSans-77"/>
       <use x="86.279297" xlink:href="#DejaVuSans-97"/>
       <use x="147.558594" xlink:href="#DejaVuSans-114"/>
      </g>
     </g>
    </g>
    <g id="xtick_13">
     <g id="line2d_13">
      <g>
       <use style="stroke:#000000;stroke-width:0.8;" x="648" xlink:href="#mc3bc4f1f20" y="315"/>
      </g>
     </g>
    </g>
    <g id="xtick_14">
     <g id="line2d_14">
      <defs>
       <path d="M 0 0 
L 0 2 
" id="mddc127bc12" style="stroke:#000000;stroke-width:0.6;"/>
      </defs>
      <g>
       <use style="stroke:#000000;stroke-width:0.6;" x="101.76506" xlink:href="#mddc127bc12" y="315"/>
      </g>
     </g>
    </g>
    <g id="xtick_15">
     <g id="line2d_15">
      <g>
       <use style="stroke:#000000;stroke-width:0.6;" x="113.53012" xlink:href="#mddc127bc12" y="315"/>
      </g>
     </g>
    </g>
    <g id="xtick_16">
     <g id="line2d_16">
      <g>
       <use style="stroke:#000000;stroke-width:0.6;" x="125.295181" xlink:href="#mddc127bc12" y="315"/>
      </g>
     </g>
    </g>
    <g id="xtick_17">
     <g id="line2d_17">
      <g>
       <use style="stroke:#000000;stroke-width:0.6;" x="137.060241" xlink:href="#mddc127bc12" y="315"/>
      </g>
     </g>
    </g>
    <g id="xtick_18">
     <g id="line2d_18">
      <g>
       <use style="stroke:#000000;stroke-width:0.6;" x="148.825301" xlink:href="#mddc127bc12" y="315"/>
      </g>
     </g>
    </g>
    <g id="xtick_19">
     <g id="line2d_19">
      <g>
       <use style="stroke:#000000;stroke-width:0.6;" x="160.590361" xlink:href="#mddc127bc12" y="315"/>
      </g>
     </g>
    </g>
    <g id="xtick_20">
     <g id="line2d_20">
      <g>
       <use style="stroke:#000000;stroke-width:0.6;" x="184.120482" xlink:href="#mddc127bc12" y="315"/>
      </g>
     </g>
    </g>
    <g id="xtick_21">
     <g id="line2d_21">
      <g>
       <use style="stroke:#000000;stroke-width:0.6;" x="195.885542" xlink:href="#mddc127bc12" y="315"/>
      </g>
     </g>
    </g>
    <g id="xtick_22">
     <g id="line2d_22">
      <g>
       <use style="stroke:#000000;stroke-width:0.6;" x="207.650602" xlink:href="#mddc127bc12" y="315"/>
      </g>
     </g>
    </g>
    <g id="xtick_23">
     <g id="line2d_23">
      <g>
       <use style="stroke:#000000;stroke-width:0.6;" x="219.415663" xlink:href="#mddc127bc12" y="315"/>
      </g>
     </g>
    </g>
    <g id="xtick_24">
     <g id="line2d_24">
      <g>
       <use style="stroke:#000000;stroke-width:0.6;" x="231.180723" xlink:href="#mddc127bc12" y="315"/>
      </g>
     </g>
    </g>
    <g id="xtick_25">
     <g id="line2d_25">
      <g>
       <use style="stroke:#000000;stroke-width:0.6;" x="242.945783" xlink:href="#mddc127bc12" y="315"/>
      </g>
     </g>
    </g>
    <g id="xtick_26">
     <g id="line2d_26">
      <g>
       <use style="stroke:#000000;stroke-width:0.6;" x="254.710843" xlink:href="#mddc127bc12" y="315"/>
      </g>
     </g>
    </g>
    <g id="xtick_27">
     <g id="line2d_27">
      <g>
       <use style="stroke:#000000;stroke-width:0.6;" x="266.475904" xlink:href="#mddc127bc12" y="315"/>
      </g>
     </g>
    </g>
    <g id="xtick_28">
     <g id="line2d_28">
      <g>
       <use style="stroke:#000000;stroke-width:0.6;" x="278.240964" xlink:href="#mddc127bc12" y="315"/>
      </g>
     </g>
    </g>
    <g id="xtick_29">
     <g id="line2d_29">
      <g>
       <use style="stroke:#000000;stroke-width:0.6;" x="290.006024" xlink:href="#mddc127bc12" y="315"/>
      </g>
     </g>
    </g>
    <g id="xtick_30">
     <g id="line2d_30">
      <g>
       <use style="stroke:#000000;stroke-width:0.6;" x="301.771084" xlink:href="#mddc127bc12" y="315"/>
      </g>
     </g>
    </g>
    <g id="xtick_31">
     <g id="line2d_31">
      <g>
       <use style="stroke:#000000;stroke-width:0.6;" x="313.536145" xlink:href="#mddc127bc12" y="315"/>
      </g>
     </g>
    </g>
    <g id="xtick_32">
     <g id="line2d_32">
      <g>
       <use style="stroke:#000000;stroke-width:0.6;" x="325.301205" xlink:href="#mddc127bc12" y="315"/>
      </g>
     </g>
    </g>
    <g id="xtick_33">
     <g id="line2d_33">
      <g>
       <use style="stroke:#000000;stroke-width:0.6;" x="337.066265" xlink:href="#mddc127bc12" y="315"/>
      </g>
     </g>
    </g>
    <g id="xtick_34">
     <g id="line2d_34">
      <g>
       <use style="stroke:#000000;stroke-width:0.6;" x="348.831325" xlink:href="#mddc127bc12" y="315"/>
      </g>
     </g>
    </g>
    <g id="xtick_35">
     <g id="line2d_35">
      <g>
       <use style="stroke:#000000;stroke-width:0.6;" x="360.596386" xlink:href="#mddc127bc12" y="315"/>
      </g>
     </g>
    </g>
    <g id="xtick_36">
     <g id="line2d_36">
      <g>
       <use style="stroke:#000000;stroke-width:0.6;" x="372.361446" xlink:href="#mddc127bc12" y="315"/>
      </g>
     </g>
    </g>
    <g id="xtick_37">
     <g id="line2d_37">
      <g>
       <use style="stroke:#000000;stroke-width:0.6;" x="384.126506" xlink:href="#mddc127bc12" y="315"/>
      </g>
     </g>
    </g>
    <g id="xtick_38">
     <g id="line2d_38">
      <g>
       <use style="stroke:#000000;stroke-width:0.6;" x="395.891566" xlink:href="#mddc127bc12" y="315"/>
      </g>
     </g>
    </g>
    <g id="xtick_39">
     <g id="line2d_39">
      <g>
       <use style="stroke:#000000;stroke-width:0.6;" x="407.656627" xlink:href="#mddc127bc12" y="315"/>
      </g>
     </g>
    </g>
    <g id="xtick_40">
     <g id="line2d_40">
      <g>
       <use style="stroke:#000000;stroke-width:0.6;" x="419.421687" xlink:href="#mddc127bc12" y="315"/>
      </g>
     </g>
    </g>
    <g id="xtick_41">
     <g id="line2d_41">
      <g>
       <use style="stroke:#000000;stroke-width:0.6;" x="431.186747" xlink:href="#mddc127bc12" y="315"/>
      </g>
     </g>
    </g>
    <g id="xtick_42">
     <g id="line2d_42">
      <g>
       <use style="stroke:#000000;stroke-width:0.6;" x="442.951807" xlink:href="#mddc127bc12" y="315"/>
      </g>
     </g>
    </g>
    <g id="xtick_43">
     <g id="line2d_43">
      <g>
       <use style="stroke:#000000;stroke-width:0.6;" x="454.716867" xlink:href="#mddc127bc12" y="315"/>
      </g>
     </g>
    </g>
    <g id="xtick_44">
     <g id="line2d_44">
      <g>
       <use style="stroke:#000000;stroke-width:0.6;" x="466.481928" xlink:href="#mddc127bc12" y="315"/>
      </g>
     </g>
    </g>
    <g id="xtick_45">
     <g id="line2d_45">
      <g>
       <use style="stroke:#000000;stroke-width:0.6;" x="478.246988" xlink:href="#mddc127bc12" y="315"/>
      </g>
     </g>
    </g>
    <g id="xtick_46">
     <g id="line2d_46">
      <g>
       <use style="stroke:#000000;stroke-width:0.6;" x="490.012048" xlink:href="#mddc127bc12" y="315"/>
      </g>
     </g>
    </g>
    <g id="xtick_47">
     <g id="line2d_47">
      <g>
       <use style="stroke:#000000;stroke-width:0.6;" x="501.777108" xlink:href="#mddc127bc12" y="315"/>
      </g>
     </g>
    </g>
    <g id="xtick_48">
     <g id="line2d_48">
      <g>
       <use style="stroke:#000000;stroke-width:0.6;" x="513.542169" xlink:href="#mddc127bc12" y="315"/>
      </g>
     </g>
    </g>
    <g id="xtick_49">
     <g id="line2d_49">
      <g>
       <use style="stroke:#000000;stroke-width:0.6;" x="525.307229" xlink:href="#mddc127bc12" y="315"/>
      </g>
     </g>
    </g>
    <g id="xtick_50">
     <g id="line2d_50">
      <g>
       <use style="stroke:#000000;stroke-width:0.6;" x="537.072289" xlink:href="#mddc127bc12" y="315"/>
      </g>
     </g>
    </g>
    <g id="xtick_51">
     <g id="line2d_51">
      <g>
       <use style="stroke:#000000;stroke-width:0.6;" x="548.837349" xlink:href="#mddc127bc12" y="315"/>
      </g>
     </g>
    </g>
    <g id="xtick_52">
     <g id="line2d_52">
      <g>
       <use style="stroke:#000000;stroke-width:0.6;" x="560.60241" xlink:href="#mddc127bc12" y="315"/>
      </g>
     </g>
    </g>
    <g id="xtick_53">
     <g id="line2d_53">
      <g>
       <use style="stroke:#000000;stroke-width:0.6;" x="572.36747" xlink:href="#mddc127bc12" y="315"/>
      </g>
     </g>
    </g>
    <g id="xtick_54">
     <g id="line2d_54">
      <g>
       <use style="stroke:#000000;stroke-width:0.6;" x="595.89759" xlink:href="#mddc127bc12" y="315"/>
      </g>
     </g>
    </g>
    <g id="xtick_55">
     <g id="line2d_55">
      <g>
       <use style="stroke:#000000;stroke-width:0.6;" x="607.662651" xlink:href="#mddc127bc12" y="315"/>
      </g>
     </g>
    </g>
    <g id="xtick_56">
     <g id="line2d_56">
      <g>
       <use style="stroke:#000000;stroke-width:0.6;" x="619.427711" xlink:href="#mddc127bc12" y="315"/>
      </g>
     </g>
    </g>
    <g id="xtick_57">
     <g id="line2d_57">
      <g>
       <use style="stroke:#000000;stroke-width:0.6;" x="642.957831" xlink:href="#mddc127bc12" y="315"/>
      </g>
     </g>
    </g>
    <g id="text_12">
     <!-- date -->
     <g transform="translate(357.725 354.474375)scale(0.1 -0.1)">
      <defs>
       <path d="M 45.40625 46.390625 
L 45.40625 75.984375 
L 54.390625 75.984375 
L 54.390625 0 
L 45.40625 0 
L 45.40625 8.203125 
Q 42.578125 3.328125 38.25 0.953125 
Q 33.9375 -1.421875 27.875 -1.421875 
Q 17.96875 -1.421875 11.734375 6.484375 
Q 5.515625 14.40625 5.515625 27.296875 
Q 5.515625 40.1875 11.734375 48.09375 
Q 17.96875 56 27.875 56 
Q 33.9375 56 38.25 53.625 
Q 42.578125 51.265625 45.40625 46.390625 
z
M 14.796875 27.296875 
Q 14.796875 17.390625 18.875 11.75 
Q 22.953125 6.109375 30.078125 6.109375 
Q 37.203125 6.109375 41.296875 11.75 
Q 45.40625 17.390625 45.40625 27.296875 
Q 45.40625 37.203125 41.296875 42.84375 
Q 37.203125 48.484375 30.078125 48.484375 
Q 22.953125 48.484375 18.875 42.84375 
Q 14.796875 37.203125 14.796875 27.296875 
z
" id="DejaVuSans-100"/>
      </defs>
      <use xlink:href="#DejaVuSans-100"/>
      <use x="63.476562" xlink:href="#DejaVuSans-97"/>
      <use x="124.755859" xlink:href="#DejaVuSans-116"/>
      <use x="163.964844" xlink:href="#DejaVuSans-101"/>
     </g>
    </g>
   </g>
   <g id="matplotlib.axis_2">
    <g id="ytick_1">
     <g id="line2d_58">
      <path clip-path="url(#pc21ac52e58)" d="M 90 294.705442 
L 648 294.705442 
" style="fill:none;stroke:#b0b0b0;stroke-dasharray:0.8,1.32;stroke-dashoffset:0;stroke-width:0.8;"/>
     </g>
     <g id="line2d_59">
      <defs>
       <path d="M 0 0 
L -3.5 0 
" id="mcdbc0d382b" style="stroke:#000000;stroke-width:0.8;"/>
      </defs>
      <g>
       <use style="stroke:#000000;stroke-width:0.8;" x="90" xlink:href="#mcdbc0d382b" y="294.705442"/>
      </g>
     </g>
     <g id="text_13">
      <!-- 0.4 -->
      <g transform="translate(67.096875 298.50466)scale(0.1 -0.1)">
       <defs>
        <path d="M 10.6875 12.40625 
L 21 12.40625 
L 21 0 
L 10.6875 0 
z
" id="DejaVuSans-46"/>
        <path d="M 37.796875 64.3125 
L 12.890625 25.390625 
L 37.796875 25.390625 
z
M 35.203125 72.90625 
L 47.609375 72.90625 
L 47.609375 25.390625 
L 58.015625 25.390625 
L 58.015625 17.1875 
L 47.609375 17.1875 
L 47.609375 0 
L 37.796875 0 
L 37.796875 17.1875 
L 4.890625 17.1875 
L 4.890625 26.703125 
z
" id="DejaVuSans-52"/>
       </defs>
       <use xlink:href="#DejaVuSans-48"/>
       <use x="63.623047" xlink:href="#DejaVuSans-46"/>
       <use x="95.410156" xlink:href="#DejaVuSans-52"/>
      </g>
     </g>
    </g>
    <g id="ytick_2">
     <g id="line2d_60">
      <path clip-path="url(#pc21ac52e58)" d="M 90 263.406317 
L 648 263.406317 
" style="fill:none;stroke:#b0b0b0;stroke-dasharray:0.8,1.32;stroke-dashoffset:0;stroke-width:0.8;"/>
     </g>
     <g id="line2d_61">
      <g>
       <use style="stroke:#000000;stroke-width:0.8;" x="90" xlink:href="#mcdbc0d382b" y="263.406317"/>
      </g>
     </g>
     <g id="text_14">
      <!-- 0.6 -->
      <g transform="translate(67.096875 267.205536)scale(0.1 -0.1)">
       <defs>
        <path d="M 33.015625 40.375 
Q 26.375 40.375 22.484375 35.828125 
Q 18.609375 31.296875 18.609375 23.390625 
Q 18.609375 15.53125 22.484375 10.953125 
Q 26.375 6.390625 33.015625 6.390625 
Q 39.65625 6.390625 43.53125 10.953125 
Q 47.40625 15.53125 47.40625 23.390625 
Q 47.40625 31.296875 43.53125 35.828125 
Q 39.65625 40.375 33.015625 40.375 
z
M 52.59375 71.296875 
L 52.59375 62.3125 
Q 48.875 64.0625 45.09375 64.984375 
Q 41.3125 65.921875 37.59375 65.921875 
Q 27.828125 65.921875 22.671875 59.328125 
Q 17.53125 52.734375 16.796875 39.40625 
Q 19.671875 43.65625 24.015625 45.921875 
Q 28.375 48.1875 33.59375 48.1875 
Q 44.578125 48.1875 50.953125 41.515625 
Q 57.328125 34.859375 57.328125 23.390625 
Q 57.328125 12.15625 50.6875 5.359375 
Q 44.046875 -1.421875 33.015625 -1.421875 
Q 20.359375 -1.421875 13.671875 8.265625 
Q 6.984375 17.96875 6.984375 36.375 
Q 6.984375 53.65625 15.1875 63.9375 
Q 23.390625 74.21875 37.203125 74.21875 
Q 40.921875 74.21875 44.703125 73.484375 
Q 48.484375 72.75 52.59375 71.296875 
z
" id="DejaVuSans-54"/>
       </defs>
       <use xlink:href="#DejaVuSans-48"/>
       <use x="63.623047" xlink:href="#DejaVuSans-46"/>
       <use x="95.410156" xlink:href="#DejaVuSans-54"/>
      </g>
     </g>
    </g>
    <g id="ytick_3">
     <g id="line2d_62">
      <path clip-path="url(#pc21ac52e58)" d="M 90 232.107193 
L 648 232.107193 
" style="fill:none;stroke:#b0b0b0;stroke-dasharray:0.8,1.32;stroke-dashoffset:0;stroke-width:0.8;"/>
     </g>
     <g id="line2d_63">
      <g>
       <use style="stroke:#000000;stroke-width:0.8;" x="90" xlink:href="#mcdbc0d382b" y="232.107193"/>
      </g>
     </g>
     <g id="text_15">
      <!-- 0.8 -->
      <g transform="translate(67.096875 235.906412)scale(0.1 -0.1)">
       <defs>
        <path d="M 31.78125 34.625 
Q 24.75 34.625 20.71875 30.859375 
Q 16.703125 27.09375 16.703125 20.515625 
Q 16.703125 13.921875 20.71875 10.15625 
Q 24.75 6.390625 31.78125 6.390625 
Q 38.8125 6.390625 42.859375 10.171875 
Q 46.921875 13.96875 46.921875 20.515625 
Q 46.921875 27.09375 42.890625 30.859375 
Q 38.875 34.625 31.78125 34.625 
z
M 21.921875 38.8125 
Q 15.578125 40.375 12.03125 44.71875 
Q 8.5 49.078125 8.5 55.328125 
Q 8.5 64.0625 14.71875 69.140625 
Q 20.953125 74.21875 31.78125 74.21875 
Q 42.671875 74.21875 48.875 69.140625 
Q 55.078125 64.0625 55.078125 55.328125 
Q 55.078125 49.078125 51.53125 44.71875 
Q 48 40.375 41.703125 38.8125 
Q 48.828125 37.15625 52.796875 32.3125 
Q 56.78125 27.484375 56.78125 20.515625 
Q 56.78125 9.90625 50.3125 4.234375 
Q 43.84375 -1.421875 31.78125 -1.421875 
Q 19.734375 -1.421875 13.25 4.234375 
Q 6.78125 9.90625 6.78125 20.515625 
Q 6.78125 27.484375 10.78125 32.3125 
Q 14.796875 37.15625 21.921875 38.8125 
z
M 18.3125 54.390625 
Q 18.3125 48.734375 21.84375 45.5625 
Q 25.390625 42.390625 31.78125 42.390625 
Q 38.140625 42.390625 41.71875 45.5625 
Q 45.3125 48.734375 45.3125 54.390625 
Q 45.3125 60.0625 41.71875 63.234375 
Q 38.140625 66.40625 31.78125 66.40625 
Q 25.390625 66.40625 21.84375 63.234375 
Q 18.3125 60.0625 18.3125 54.390625 
z
" id="DejaVuSans-56"/>
       </defs>
       <use xlink:href="#DejaVuSans-48"/>
       <use x="63.623047" xlink:href="#DejaVuSans-46"/>
       <use x="95.410156" xlink:href="#DejaVuSans-56"/>
      </g>
     </g>
    </g>
    <g id="ytick_4">
     <g id="line2d_64">
      <path clip-path="url(#pc21ac52e58)" d="M 90 200.808069 
L 648 200.808069 
" style="fill:none;stroke:#b0b0b0;stroke-dasharray:0.8,1.32;stroke-dashoffset:0;stroke-width:0.8;"/>
     </g>
     <g id="line2d_65">
      <g>
       <use style="stroke:#000000;stroke-width:0.8;" x="90" xlink:href="#mcdbc0d382b" y="200.808069"/>
      </g>
     </g>
     <g id="text_16">
      <!-- 1.0 -->
      <g transform="translate(67.096875 204.607287)scale(0.1 -0.1)">
       <use xlink:href="#DejaVuSans-49"/>
       <use x="63.623047" xlink:href="#DejaVuSans-46"/>
       <use x="95.410156" xlink:href="#DejaVuSans-48"/>
      </g>
     </g>
    </g>
    <g id="ytick_5">
     <g id="line2d_66">
      <path clip-path="url(#pc21ac52e58)" d="M 90 169.508944 
L 648 169.508944 
" style="fill:none;stroke:#b0b0b0;stroke-dasharray:0.8,1.32;stroke-dashoffset:0;stroke-width:0.8;"/>
     </g>
     <g id="line2d_67">
      <g>
       <use style="stroke:#000000;stroke-width:0.8;" x="90" xlink:href="#mcdbc0d382b" y="169.508944"/>
      </g>
     </g>
     <g id="text_17">
      <!-- 1.2 -->
      <g transform="translate(67.096875 173.308163)scale(0.1 -0.1)">
       <use xlink:href="#DejaVuSans-49"/>
       <use x="63.623047" xlink:href="#DejaVuSans-46"/>
       <use x="95.410156" xlink:href="#DejaVuSans-50"/>
      </g>
     </g>
    </g>
    <g id="ytick_6">
     <g id="line2d_68">
      <path clip-path="url(#pc21ac52e58)" d="M 90 138.20982 
L 648 138.20982 
" style="fill:none;stroke:#b0b0b0;stroke-dasharray:0.8,1.32;stroke-dashoffset:0;stroke-width:0.8;"/>
     </g>
     <g id="line2d_69">
      <g>
       <use style="stroke:#000000;stroke-width:0.8;" x="90" xlink:href="#mcdbc0d382b" y="138.20982"/>
      </g>
     </g>
     <g id="text_18">
      <!-- 1.4 -->
      <g transform="translate(67.096875 142.009039)scale(0.1 -0.1)">
       <use xlink:href="#DejaVuSans-49"/>
       <use x="63.623047" xlink:href="#DejaVuSans-46"/>
       <use x="95.410156" xlink:href="#DejaVuSans-52"/>
      </g>
     </g>
    </g>
    <g id="ytick_7">
     <g id="line2d_70">
      <path clip-path="url(#pc21ac52e58)" d="M 90 106.910696 
L 648 106.910696 
" style="fill:none;stroke:#b0b0b0;stroke-dasharray:0.8,1.32;stroke-dashoffset:0;stroke-width:0.8;"/>
     </g>
     <g id="line2d_71">
      <g>
       <use style="stroke:#000000;stroke-width:0.8;" x="90" xlink:href="#mcdbc0d382b" y="106.910696"/>
      </g>
     </g>
     <g id="text_19">
      <!-- 1.6 -->
      <g transform="translate(67.096875 110.709914)scale(0.1 -0.1)">
       <use xlink:href="#DejaVuSans-49"/>
       <use x="63.623047" xlink:href="#DejaVuSans-46"/>
       <use x="95.410156" xlink:href="#DejaVuSans-54"/>
      </g>
     </g>
    </g>
    <g id="ytick_8">
     <g id="line2d_72">
      <path clip-path="url(#pc21ac52e58)" d="M 90 75.611571 
L 648 75.611571 
" style="fill:none;stroke:#b0b0b0;stroke-dasharray:0.8,1.32;stroke-dashoffset:0;stroke-width:0.8;"/>
     </g>
     <g id="line2d_73">
      <g>
       <use style="stroke:#000000;stroke-width:0.8;" x="90" xlink:href="#mcdbc0d382b" y="75.611571"/>
      </g>
     </g>
     <g id="text_20">
      <!-- 1.8 -->
      <g transform="translate(67.096875 79.41079)scale(0.1 -0.1)">
       <use xlink:href="#DejaVuSans-49"/>
       <use x="63.623047" xlink:href="#DejaVuSans-46"/>
       <use x="95.410156" xlink:href="#DejaVuSans-56"/>
      </g>
     </g>
    </g>
    <g id="ytick_9">
     <g id="line2d_74">
      <path clip-path="url(#pc21ac52e58)" d="M 90 44.312447 
L 648 44.312447 
" style="fill:none;stroke:#b0b0b0;stroke-dasharray:0.8,1.32;stroke-dashoffset:0;stroke-width:0.8;"/>
     </g>
     <g id="line2d_75">
      <g>
       <use style="stroke:#000000;stroke-width:0.8;" x="90" xlink:href="#mcdbc0d382b" y="44.312447"/>
      </g>
     </g>
     <g id="text_21">
      <!-- 2.0 -->
      <g transform="translate(67.096875 48.111666)scale(0.1 -0.1)">
       <use xlink:href="#DejaVuSans-50"/>
       <use x="63.623047" xlink:href="#DejaVuSans-46"/>
       <use x="95.410156" xlink:href="#DejaVuSans-48"/>
      </g>
     </g>
    </g>
   </g>
   <g id="line2d_76">
    <path clip-path="url(#pc21ac52e58)" d="M 90 269.239938 
L 91.680723 267.778414 
L 93.361446 267.450185 
L 95.042169 265.546816 
L 96.722892 264.239354 
L 98.403614 263.545333 
L 100.084337 262.312943 
L 101.76506 261.784566 
L 103.445783 260.330009 
L 105.126506 259.898934 
L 106.807229 259.104576 
L 110.168675 254.61574 
L 113.53012 251.771647 
L 115.210843 248.568793 
L 116.891566 245.957519 
L 120.253012 242.296957 
L 121.933735 237.802282 
L 123.614458 235.773758 
L 125.295181 232.858703 
L 126.975904 230.660173 
L 128.656627 227.640024 
L 130.337349 223.77164 
L 132.018072 222.662513 
L 137.060241 212.943828 
L 138.740964 211.537997 
L 140.421687 208.977239 
L 142.10241 205.752457 
L 143.783133 203.394228 
L 147.144578 197.928682 
L 148.825301 196.437971 
L 150.506024 190.932647 
L 152.186747 189.078747 
L 153.86747 185.950506 
L 158.909639 178.389564 
L 160.590361 176.27697 
L 162.271084 175.434767 
L 163.951807 171.87491 
L 165.63253 169.463285 
L 167.313253 167.458033 
L 168.993976 165.917615 
L 170.674699 163.820313 
L 172.355422 164.780255 
L 174.036145 162.567599 
L 175.716867 161.132609 
L 177.39759 158.570933 
L 179.078313 156.836184 
L 180.759036 153.902163 
L 182.439759 152.56485 
L 184.120482 150.218378 
L 185.801205 147.029453 
L 187.481928 143.496708 
L 189.162651 140.990244 
L 190.843373 137.04114 
L 192.524096 135.211875 
L 194.204819 131.9989 
L 195.885542 130.128745 
L 197.566265 127.470226 
L 199.246988 124.570092 
L 200.927711 121.892938 
L 204.289157 115.413018 
L 205.96988 114.183682 
L 207.650602 111.351541 
L 209.331325 109.537629 
L 212.692771 108.026726 
L 214.373494 106.353676 
L 216.054217 104.934762 
L 217.73494 106.44117 
L 219.415663 104.884776 
L 221.096386 105.311549 
L 222.777108 107.5405 
L 224.457831 109.471623 
L 226.138554 111.039891 
L 227.819277 115.466798 
L 229.5 117.90455 
L 231.180723 121.258587 
L 232.861446 127.468004 
L 234.542169 132.876659 
L 236.222892 137.205987 
L 237.903614 142.502095 
L 239.584337 148.989196 
L 241.26506 154.420532 
L 242.945783 161.064861 
L 244.626506 165.540036 
L 247.987952 176.915969 
L 249.668675 182.260408 
L 251.349398 186.510637 
L 253.03012 189.599921 
L 254.710843 194.202401 
L 258.072289 198.960563 
L 261.433735 205.043518 
L 263.114458 207.445301 
L 264.795181 209.6121 
L 266.475904 209.902048 
L 268.156627 210.472809 
L 269.837349 209.849274 
L 271.518072 209.836985 
L 273.198795 208.626484 
L 274.879518 206.855589 
L 276.560241 205.989533 
L 278.240964 203.975862 
L 279.921687 202.429105 
L 281.60241 200.035526 
L 283.283133 196.703112 
L 284.963855 194.293058 
L 286.644578 192.369583 
L 288.325301 190.084383 
L 290.006024 187.570971 
L 291.686747 184.166373 
L 293.36747 182.525601 
L 295.048193 180.253283 
L 296.728916 175.87302 
L 298.409639 174.654902 
L 300.090361 173.069526 
L 303.451807 166.699717 
L 305.13253 161.417938 
L 306.813253 159.560985 
L 308.493976 155.482045 
L 310.174699 152.424864 
L 311.855422 148.353047 
L 315.216867 142.741505 
L 316.89759 138.035398 
L 318.578313 137.722624 
L 320.259036 135.280448 
L 321.939759 137.971774 
L 323.620482 139.951733 
L 325.301205 142.523263 
L 326.981928 145.461994 
L 328.662651 150.610917 
L 330.343373 156.939908 
L 332.024096 160.522625 
L 335.385542 173.579783 
L 337.066265 180.36602 
L 340.427711 194.497967 
L 342.108434 200.264275 
L 347.150602 216.25257 
L 350.512048 225.760963 
L 352.192771 231.020114 
L 357.23494 241.540484 
L 358.915663 244.749257 
L 360.596386 247.445265 
L 362.277108 248.997491 
L 363.957831 251.005472 
L 365.638554 253.361259 
L 367.319277 254.319945 
L 369 256.27702 
L 370.680723 257.199867 
L 372.361446 257.207175 
L 374.042169 257.64262 
L 375.722892 257.552108 
L 377.403614 257.684848 
L 379.084337 258.625143 
L 380.76506 257.952444 
L 384.126506 257.114488 
L 385.807229 255.866174 
L 387.487952 254.895299 
L 390.849398 251.374966 
L 392.53012 250.039606 
L 394.210843 246.681066 
L 397.572289 241.891392 
L 399.253012 238.365639 
L 400.933735 235.113823 
L 402.614458 232.131836 
L 404.295181 228.882274 
L 407.656627 221.475814 
L 411.018072 212.493956 
L 412.698795 208.960592 
L 414.379518 204.505859 
L 416.060241 201.368587 
L 417.740964 197.755795 
L 421.10241 192.024749 
L 422.783133 188.32491 
L 426.144578 184.666898 
L 427.825301 180.856753 
L 429.506024 178.737737 
L 431.186747 176.283551 
L 432.86747 172.841114 
L 434.548193 173.088391 
L 436.228916 168.976444 
L 437.909639 168.713388 
L 439.590361 166.389155 
L 441.271084 162.711665 
L 442.951807 163.34871 
L 444.63253 161.823088 
L 446.313253 161.254116 
L 449.674699 159.022051 
L 451.355422 158.244288 
L 453.036145 155.370004 
L 454.716867 154.006392 
L 456.39759 152.011945 
L 458.078313 152.253485 
L 459.759036 149.116286 
L 461.439759 148.86121 
L 463.120482 147.813657 
L 464.801205 147.04291 
L 466.481928 146.495245 
L 468.162651 146.782737 
L 469.843373 145.857495 
L 471.524096 144.760565 
L 473.204819 145.196489 
L 474.885542 143.348678 
L 476.566265 142.989468 
L 478.246988 141.563391 
L 479.927711 138.172697 
L 481.608434 137.133586 
L 483.289157 137.765134 
L 484.96988 139.815813 
L 486.650602 140.044835 
L 488.331325 141.205237 
L 490.012048 142.940476 
L 491.692771 145.81341 
L 493.373494 147.185492 
L 495.054217 150.436223 
L 496.73494 152.485068 
L 498.415663 157.062135 
L 500.096386 160.609076 
L 501.777108 161.215232 
L 503.457831 165.936136 
L 505.138554 169.387724 
L 506.819277 171.894006 
L 508.5 175.474721 
L 510.180723 177.531974 
L 511.861446 179.245934 
L 513.542169 181.346116 
L 515.222892 182.306655 
L 518.584337 183.581608 
L 520.26506 185.687912 
L 521.945783 185.698486 
L 523.626506 187.101525 
L 525.307229 187.513104 
L 526.987952 189.187495 
L 528.668675 190.061229 
L 530.349398 191.304264 
L 532.03012 193.620073 
L 535.391566 197.243445 
L 537.072289 198.677876 
L 538.753012 200.287885 
L 542.114458 201.999007 
L 543.795181 203.065543 
L 545.475904 203.328993 
L 547.156627 204.672939 
L 548.837349 202.930735 
L 550.518072 203.049365 
L 552.198795 202.86978 
L 553.879518 203.793101 
L 558.921687 202.980754 
L 560.60241 203.063531 
L 562.283133 202.402097 
L 563.963855 203.658316 
L 565.644578 203.822171 
L 567.325301 204.425273 
L 569.006024 206.048086 
L 570.686747 208.541669 
L 572.36747 208.953131 
L 574.048193 211.420365 
L 575.728916 212.969466 
L 577.409639 215.18517 
L 580.771084 218.438972 
L 582.451807 220.188569 
L 584.13253 220.536042 
L 585.813253 222.894589 
L 587.493976 224.268362 
L 590.855422 225.953018 
L 592.536145 227.440686 
L 594.216867 228.102901 
L 595.89759 228.438646 
L 597.578313 229.776526 
L 599.259036 230.808463 
L 600.939759 232.920495 
L 602.620482 233.997373 
L 604.301205 235.408739 
L 607.662651 240.746444 
L 609.343373 241.559169 
L 611.024096 244.209409 
L 614.385542 248.229645 
L 616.066265 248.596518 
L 617.746988 249.843779 
L 619.427711 251.475693 
L 621.108434 253.283553 
L 622.789157 253.738512 
L 624.46988 254.443886 
L 626.150602 254.184036 
L 629.512048 254.7609 
L 631.192771 254.636889 
L 632.873494 255.332121 
L 634.554217 254.6727 
L 636.23494 255.235633 
L 637.915663 254.505357 
L 639.596386 254.789069 
L 641.277108 254.623521 
L 646.319277 254.746296 
L 648 254.543182 
L 649.680723 254.053146 
L 653.042169 254.23525 
L 654.722892 253.826856 
L 656.403614 253.806271 
L 658.084337 255.336401 
L 659.76506 255.259978 
L 661.445783 255.409517 
L 661.445783 255.409517 
" style="fill:none;stroke:#fc997a;stroke-linecap:square;stroke-width:1.5;"/>
   </g>
   <g id="line2d_77">
    <path clip-path="url(#pc21ac52e58)" d="M 90 200.808069 
L 648 200.808069 
" style="fill:none;stroke:#000000;stroke-dasharray:3.7,1.6;stroke-dashoffset:0;"/>
   </g>
   <g id="patch_3">
    <path d="M 90 315 
L 90 43.2 
" style="fill:none;stroke:#000000;stroke-linecap:square;stroke-linejoin:miter;stroke-width:0.8;"/>
   </g>
   <g id="patch_4">
    <path d="M 648 315 
L 648 43.2 
" style="fill:none;stroke:#000000;stroke-linecap:square;stroke-linejoin:miter;stroke-width:0.8;"/>
   </g>
   <g id="patch_5">
    <path d="M 90 315 
L 648 315 
" style="fill:none;stroke:#000000;stroke-linecap:square;stroke-linejoin:miter;stroke-width:0.8;"/>
   </g>
   <g id="patch_6">
    <path d="M 90 43.2 
L 648 43.2 
" style="fill:none;stroke:#000000;stroke-linecap:square;stroke-linejoin:miter;stroke-width:0.8;"/>
   </g>
   <g id="text_22">
    <!-- 235   $R_t$ -->
    <g transform="translate(318.96 37.2)scale(0.12 -0.12)">
     <defs>
      <path d="M 40.578125 39.3125 
Q 47.65625 37.796875 51.625 33 
Q 55.609375 28.21875 55.609375 21.1875 
Q 55.609375 10.40625 48.1875 4.484375 
Q 40.765625 -1.421875 27.09375 -1.421875 
Q 22.515625 -1.421875 17.65625 -0.515625 
Q 12.796875 0.390625 7.625 2.203125 
L 7.625 11.71875 
Q 11.71875 9.328125 16.59375 8.109375 
Q 21.484375 6.890625 26.8125 6.890625 
Q 36.078125 6.890625 40.9375 10.546875 
Q 45.796875 14.203125 45.796875 21.1875 
Q 45.796875 27.640625 41.28125 31.265625 
Q 36.765625 34.90625 28.71875 34.90625 
L 20.21875 34.90625 
L 20.21875 43.015625 
L 29.109375 43.015625 
Q 36.375 43.015625 40.234375 45.921875 
Q 44.09375 48.828125 44.09375 54.296875 
Q 44.09375 59.90625 40.109375 62.90625 
Q 36.140625 65.921875 28.71875 65.921875 
Q 24.65625 65.921875 20.015625 65.03125 
Q 15.375 64.15625 9.8125 62.3125 
L 9.8125 71.09375 
Q 15.4375 72.65625 20.34375 73.4375 
Q 25.25 74.21875 29.59375 74.21875 
Q 40.828125 74.21875 47.359375 69.109375 
Q 53.90625 64.015625 53.90625 55.328125 
Q 53.90625 49.265625 50.4375 45.09375 
Q 46.96875 40.921875 40.578125 39.3125 
z
" id="DejaVuSans-51"/>
      <path d="M 10.796875 72.90625 
L 49.515625 72.90625 
L 49.515625 64.59375 
L 19.828125 64.59375 
L 19.828125 46.734375 
Q 21.96875 47.46875 24.109375 47.828125 
Q 26.265625 48.1875 28.421875 48.1875 
Q 40.625 48.1875 47.75 41.5 
Q 54.890625 34.8125 54.890625 23.390625 
Q 54.890625 11.625 47.5625 5.09375 
Q 40.234375 -1.421875 26.90625 -1.421875 
Q 22.3125 -1.421875 17.546875 -0.640625 
Q 12.796875 0.140625 7.71875 1.703125 
L 7.71875 11.625 
Q 12.109375 9.234375 16.796875 8.0625 
Q 21.484375 6.890625 26.703125 6.890625 
Q 35.15625 6.890625 40.078125 11.328125 
Q 45.015625 15.765625 45.015625 23.390625 
Q 45.015625 31 40.078125 35.4375 
Q 35.15625 39.890625 26.703125 39.890625 
Q 22.75 39.890625 18.8125 39.015625 
Q 14.890625 38.140625 10.796875 36.28125 
z
" id="DejaVuSans-53"/>
      <path id="DejaVuSans-32"/>
      <path d="M 57.28125 0 
L 9.078125 0 
L 9.078125 54.6875 
L 32.671875 54.6875 
Q 39.546875 54.6875 44.234375 53.265625 
Q 48.921875 51.859375 51.828125 48.703125 
Q 54.734375 45.5625 56 40.9375 
Q 57.28125 36.328125 57.28125 29.59375 
z
M 18.171875 47.703125 
L 18.171875 6.984375 
L 48.1875 6.984375 
L 48.1875 30.90625 
Q 48.1875 40.578125 45.015625 44.140625 
Q 41.84375 47.703125 32.8125 47.703125 
z
" id="DejaVuSans-1501"/>
      <path d="M 44.140625 40.828125 
L 44.140625 54.6875 
L 53.515625 54.6875 
L 53.515625 40.828125 
Q 53.515625 35.0625 53.046875 30.71875 
Q 52.59375 26.375 51.390625 22.09375 
Q 50.203125 17.828125 48.046875 14.5 
Q 45.90625 11.1875 42.578125 8.078125 
Q 39.265625 4.984375 34.515625 2.390625 
Q 29.78125 -0.203125 23.4375 -2.484375 
L 4.6875 -9.28125 
L 4.6875 -1.03125 
L 18.953125 4.046875 
L 4.296875 54.6875 
L 13.765625 54.6875 
L 27.25 7.125 
Q 33.6875 9.90625 37.203125 13.5625 
Q 40.71875 17.234375 42.421875 23.671875 
Q 44.140625 30.125 44.140625 40.828125 
z
" id="DejaVuSans-1506"/>
      <path d="M 21.78125 6.984375 
L 21.78125 36.28125 
Q 21.78125 42.28125 19.328125 44.984375 
Q 16.890625 47.703125 11.71875 47.703125 
L 5.5625 47.703125 
L 5.5625 54.6875 
L 11.71875 54.6875 
Q 21.734375 54.6875 26.296875 50.359375 
Q 30.859375 46.046875 30.859375 35.25 
L 30.859375 0 
L 4.296875 0 
L 4.296875 6.984375 
z
" id="DejaVuSans-1504"/>
      <path d="M 19.34375 -20.796875 
L 19.34375 33.40625 
L 10.25 29.6875 
L 10.25 -20.796875 
z
M 33.0625 0 
L 52.78125 47.703125 
L 9.078125 47.703125 
L 9.078125 54.640625 
L 63.328125 54.640625 
L 63.328125 49.265625 
L 42.578125 0 
z
" id="DejaVuSans-1511"/>
      <path d="M 15.71875 54.6875 
L 15.71875 24.125 
L 6.640625 20.40625 
L 6.640625 54.6875 
z
" id="DejaVuSans-1497"/>
      <path d="M 47.359375 27.828125 
L 47.359375 0 
L 38.28125 0 
L 38.28125 27.828125 
Q 38.28125 31.390625 37.765625 34.265625 
Q 37.25 37.15625 36 39.71875 
Q 34.765625 42.28125 32.8125 43.984375 
Q 30.859375 45.703125 27.78125 46.703125 
Q 24.703125 47.703125 20.703125 47.703125 
L 4.296875 47.703125 
L 4.296875 54.6875 
L 20.65625 54.6875 
Q 26.8125 54.6875 31.46875 53.390625 
Q 36.140625 52.09375 39.109375 49.828125 
Q 42.09375 47.5625 43.96875 44.109375 
Q 45.84375 40.671875 46.59375 36.734375 
Q 47.359375 32.8125 47.359375 27.828125 
z
" id="DejaVuSans-1512"/>
      <path d="M 18.171875 54.6875 
L 18.171875 0 
L 9.078125 0 
L 9.078125 54.6875 
z
" id="DejaVuSans-1493"/>
      <path d="M 30.328125 54.6875 
L 30.328125 47.703125 
L 26.421875 47.703125 
Q 22.171875 47.703125 20.578125 43.921875 
Q 19 40.140625 19 30.90625 
L 19 0 
L 9.90625 0 
L 9.90625 30.90625 
Q 9.90625 37.109375 11.78125 41.453125 
Q 13.671875 45.796875 16.40625 47.703125 
L 4.296875 47.703125 
L 4.296875 54.6875 
z
" id="DejaVuSans-1494"/>
      <path d="M 43.75 20.0625 
L 57.671875 0 
L 47.078125 0 
L 26.765625 29.296875 
Q 25.390625 28.609375 24.53125 28.09375 
Q 23.6875 27.59375 22.3125 26.296875 
Q 20.953125 25 20.140625 23.40625 
Q 19.34375 21.828125 18.703125 19.140625 
Q 18.0625 16.453125 18.0625 13.09375 
L 18.0625 0 
L 9.078125 0 
L 9.078125 9.03125 
Q 9.078125 12.984375 9.5625 16.359375 
Q 10.0625 19.734375 10.8125 22.078125 
Q 11.578125 24.421875 12.796875 26.390625 
Q 14.015625 28.375 15.109375 29.59375 
Q 16.21875 30.8125 17.796875 31.875 
Q 19.390625 32.953125 20.453125 33.46875 
Q 21.53125 33.984375 23.046875 34.625 
L 9.1875 54.6875 
L 19.78125 54.6875 
L 40.09375 25.390625 
Q 41.40625 26.03125 42.25 26.53125 
Q 43.109375 27.046875 44.46875 28.359375 
Q 45.84375 29.6875 46.671875 31.265625 
Q 47.515625 32.859375 48.140625 35.546875 
Q 48.78125 38.234375 48.78125 41.609375 
L 48.78125 54.6875 
L 57.765625 54.6875 
L 57.765625 45.65625 
Q 57.765625 41.65625 57.265625 38.3125 
Q 56.78125 34.96875 56.03125 32.59375 
Q 55.28125 30.21875 54.046875 28.234375 
Q 52.828125 26.265625 51.703125 25.0625 
Q 50.59375 23.875 49.03125 22.796875 
Q 47.46875 21.734375 46.390625 21.21875 
Q 45.3125 20.703125 43.75 20.0625 
z
" id="DejaVuSans-1488"/>
      <path d="M 25.203125 64.796875 
L 20.21875 38.921875 
L 32.90625 38.921875 
Q 40.375 38.921875 44.984375 43.046875 
Q 49.609375 47.171875 49.609375 53.8125 
Q 49.609375 59.125 46.5 61.953125 
Q 43.40625 64.796875 37.59375 64.796875 
z
M 43.3125 35.015625 
Q 46.4375 34.28125 48.515625 31.390625 
Q 50.59375 28.515625 53.328125 19.921875 
L 59.515625 0 
L 49.125 0 
L 43.40625 18.703125 
Q 41.21875 25.921875 38.328125 28.359375 
Q 35.453125 30.8125 29.5 30.8125 
L 18.609375 30.8125 
L 12.59375 0 
L 2.6875 0 
L 16.890625 72.90625 
L 39.109375 72.90625 
Q 49.21875 72.90625 54.609375 68.328125 
Q 60.015625 63.765625 60.015625 55.171875 
Q 60.015625 47.5625 55.421875 41.984375 
Q 50.828125 36.421875 43.3125 35.015625 
z
" id="DejaVuSans-Oblique-82"/>
      <path d="M 42.28125 54.6875 
L 40.921875 47.703125 
L 23 47.703125 
L 17.1875 18.015625 
Q 16.890625 16.359375 16.75 15.234375 
Q 16.609375 14.109375 16.609375 13.484375 
Q 16.609375 10.359375 18.484375 8.9375 
Q 20.359375 7.515625 24.515625 7.515625 
L 33.59375 7.515625 
L 32.078125 0 
L 23.484375 0 
Q 15.484375 0 11.546875 3.125 
Q 7.625 6.25 7.625 12.59375 
Q 7.625 13.71875 7.765625 15.0625 
Q 7.90625 16.40625 8.203125 18.015625 
L 14.015625 47.703125 
L 6.390625 47.703125 
L 7.8125 54.6875 
L 15.28125 54.6875 
L 18.3125 70.21875 
L 27.296875 70.21875 
L 24.3125 54.6875 
z
" id="DejaVuSans-Oblique-116"/>
     </defs>
     <use transform="translate(0 0.78125)" xlink:href="#DejaVuSans-50"/>
     <use transform="translate(63.623047 0.78125)" xlink:href="#DejaVuSans-51"/>
     <use transform="translate(127.246094 0.78125)" xlink:href="#DejaVuSans-53"/>
     <use transform="translate(190.869141 0.78125)" xlink:href="#DejaVuSans-32"/>
     <use transform="translate(222.65625 0.78125)" xlink:href="#DejaVuSans-1501"/>
     <use transform="translate(289.013672 0.78125)" xlink:href="#DejaVuSans-1506"/>
     <use transform="translate(351.611328 0.78125)" xlink:href="#DejaVuSans-1504"/>
     <use transform="translate(391.650391 0.78125)" xlink:href="#DejaVuSans-1511"/>
     <use transform="translate(462.597656 0.78125)" xlink:href="#DejaVuSans-1497"/>
     <use transform="translate(484.960938 0.78125)" xlink:href="#DejaVuSans-32"/>
     <use transform="translate(516.748047 0.78125)" xlink:href="#DejaVuSans-1512"/>
     <use transform="translate(573.193359 0.78125)" xlink:href="#DejaVuSans-1493"/>
     <use transform="translate(600.439453 0.78125)" xlink:href="#DejaVuSans-1494"/>
     <use transform="translate(635.058594 0.78125)" xlink:href="#DejaVuSans-1488"/>
     <use transform="translate(701.904297 0.78125)" xlink:href="#DejaVuSans-32"/>
     <use transform="translate(733.691406 0.78125)" xlink:href="#DejaVuSans-Oblique-82"/>
     <use transform="translate(803.173828 -15.625)scale(0.7)" xlink:href="#DejaVuSans-Oblique-116"/>
    </g>
   </g>
  </g>
 </g>
 <defs>
  <clipPath id="pc21ac52e58">
   <rect height="271.8" width="558" x="90" y="43.2"/>
  </clipPath>
 </defs>
</svg>
