<?xml version="1.0" encoding="utf-8" standalone="no"?>
<!DOCTYPE svg PUBLIC "-//W3C//DTD SVG 1.1//EN"
  "http://www.w3.org/Graphics/SVG/1.1/DTD/svg11.dtd">
<!-- Created with matplotlib (https://matplotlib.org/) -->
<svg height="360pt" version="1.1" viewBox="0 0 720 360" width="720pt" xmlns="http://www.w3.org/2000/svg" xmlns:xlink="http://www.w3.org/1999/xlink">
 <metadata>
  <rdf:RDF xmlns:cc="http://creativecommons.org/ns#" xmlns:dc="http://purl.org/dc/elements/1.1/" xmlns:rdf="http://www.w3.org/1999/02/22-rdf-syntax-ns#">
   <cc:Work>
    <dc:type rdf:resource="http://purl.org/dc/dcmitype/StillImage"/>
    <dc:date>2021-04-28T14:52:20.998478</dc:date>
    <dc:format>image/svg+xml</dc:format>
    <dc:creator>
     <cc:Agent>
      <dc:title>Matplotlib v3.3.2, https://matplotlib.org/</dc:title>
     </cc:Agent>
    </dc:creator>
   </cc:Work>
  </rdf:RDF>
 </metadata>
 <defs>
  <style type="text/css">*{stroke-linecap:butt;stroke-linejoin:round;}</style>
 </defs>
 <g id="figure_1">
  <g id="patch_1">
   <path d="M 0 360 
L 720 360 
L 720 0 
L 0 0 
z
" style="fill:#ffffff;"/>
  </g>
  <g id="axes_1">
   <g id="patch_2">
    <path d="M 90 315 
L 648 315 
L 648 43.2 
L 90 43.2 
z
" style="fill:#ffffff;"/>
   </g>
   <g id="matplotlib.axis_1">
    <g id="xtick_1">
     <g id="line2d_1">
      <defs>
       <path d="M 0 0 
L 0 3.5 
" id="m865e6da4c3" style="stroke:#000000;stroke-width:0.8;"/>
      </defs>
      <g>
       <use style="stroke:#000000;stroke-width:0.8;" x="90" xlink:href="#m865e6da4c3" y="315"/>
      </g>
     </g>
    </g>
    <g id="xtick_2">
     <g id="line2d_2">
      <g>
       <use style="stroke:#000000;stroke-width:0.8;" x="98.454545" xlink:href="#m865e6da4c3" y="315"/>
      </g>
     </g>
     <g id="text_1">
      <!-- Apr -->
      <g transform="translate(89.804545 329.598437)scale(0.1 -0.1)">
       <defs>
        <path d="M 34.1875 63.1875 
L 20.796875 26.90625 
L 47.609375 26.90625 
z
M 28.609375 72.90625 
L 39.796875 72.90625 
L 67.578125 0 
L 57.328125 0 
L 50.6875 18.703125 
L 17.828125 18.703125 
L 11.1875 0 
L 0.78125 0 
z
" id="DejaVuSans-65"/>
        <path d="M 18.109375 8.203125 
L 18.109375 -20.796875 
L 9.078125 -20.796875 
L 9.078125 54.6875 
L 18.109375 54.6875 
L 18.109375 46.390625 
Q 20.953125 51.265625 25.265625 53.625 
Q 29.59375 56 35.59375 56 
Q 45.5625 56 51.78125 48.09375 
Q 58.015625 40.1875 58.015625 27.296875 
Q 58.015625 14.40625 51.78125 6.484375 
Q 45.5625 -1.421875 35.59375 -1.421875 
Q 29.59375 -1.421875 25.265625 0.953125 
Q 20.953125 3.328125 18.109375 8.203125 
z
M 48.6875 27.296875 
Q 48.6875 37.203125 44.609375 42.84375 
Q 40.53125 48.484375 33.40625 48.484375 
Q 26.265625 48.484375 22.1875 42.84375 
Q 18.109375 37.203125 18.109375 27.296875 
Q 18.109375 17.390625 22.1875 11.75 
Q 26.265625 6.109375 33.40625 6.109375 
Q 40.53125 6.109375 44.609375 11.75 
Q 48.6875 17.390625 48.6875 27.296875 
z
" id="DejaVuSans-112"/>
        <path d="M 41.109375 46.296875 
Q 39.59375 47.171875 37.8125 47.578125 
Q 36.03125 48 33.890625 48 
Q 26.265625 48 22.1875 43.046875 
Q 18.109375 38.09375 18.109375 28.8125 
L 18.109375 0 
L 9.078125 0 
L 9.078125 54.6875 
L 18.109375 54.6875 
L 18.109375 46.1875 
Q 20.953125 51.171875 25.484375 53.578125 
Q 30.03125 56 36.53125 56 
Q 37.453125 56 38.578125 55.875 
Q 39.703125 55.765625 41.0625 55.515625 
z
" id="DejaVuSans-114"/>
       </defs>
       <use xlink:href="#DejaVuSans-65"/>
       <use x="68.408203" xlink:href="#DejaVuSans-112"/>
       <use x="131.884766" xlink:href="#DejaVuSans-114"/>
      </g>
     </g>
    </g>
    <g id="xtick_3">
     <g id="line2d_3">
      <g>
       <use style="stroke:#000000;stroke-width:0.8;" x="140.727273" xlink:href="#m865e6da4c3" y="315"/>
      </g>
     </g>
     <g id="text_2">
      <!-- May -->
      <g transform="translate(130.389773 329.598437)scale(0.1 -0.1)">
       <defs>
        <path d="M 9.8125 72.90625 
L 24.515625 72.90625 
L 43.109375 23.296875 
L 61.8125 72.90625 
L 76.515625 72.90625 
L 76.515625 0 
L 66.890625 0 
L 66.890625 64.015625 
L 48.09375 14.015625 
L 38.1875 14.015625 
L 19.390625 64.015625 
L 19.390625 0 
L 9.8125 0 
z
" id="DejaVuSans-77"/>
        <path d="M 34.28125 27.484375 
Q 23.390625 27.484375 19.1875 25 
Q 14.984375 22.515625 14.984375 16.5 
Q 14.984375 11.71875 18.140625 8.90625 
Q 21.296875 6.109375 26.703125 6.109375 
Q 34.1875 6.109375 38.703125 11.40625 
Q 43.21875 16.703125 43.21875 25.484375 
L 43.21875 27.484375 
z
M 52.203125 31.203125 
L 52.203125 0 
L 43.21875 0 
L 43.21875 8.296875 
Q 40.140625 3.328125 35.546875 0.953125 
Q 30.953125 -1.421875 24.3125 -1.421875 
Q 15.921875 -1.421875 10.953125 3.296875 
Q 6 8.015625 6 15.921875 
Q 6 25.140625 12.171875 29.828125 
Q 18.359375 34.515625 30.609375 34.515625 
L 43.21875 34.515625 
L 43.21875 35.40625 
Q 43.21875 41.609375 39.140625 45 
Q 35.0625 48.390625 27.6875 48.390625 
Q 23 48.390625 18.546875 47.265625 
Q 14.109375 46.140625 10.015625 43.890625 
L 10.015625 52.203125 
Q 14.9375 54.109375 19.578125 55.046875 
Q 24.21875 56 28.609375 56 
Q 40.484375 56 46.34375 49.84375 
Q 52.203125 43.703125 52.203125 31.203125 
z
" id="DejaVuSans-97"/>
        <path d="M 32.171875 -5.078125 
Q 28.375 -14.84375 24.75 -17.8125 
Q 21.140625 -20.796875 15.09375 -20.796875 
L 7.90625 -20.796875 
L 7.90625 -13.28125 
L 13.1875 -13.28125 
Q 16.890625 -13.28125 18.9375 -11.515625 
Q 21 -9.765625 23.484375 -3.21875 
L 25.09375 0.875 
L 2.984375 54.6875 
L 12.5 54.6875 
L 29.59375 11.921875 
L 46.6875 54.6875 
L 56.203125 54.6875 
z
" id="DejaVuSans-121"/>
       </defs>
       <use xlink:href="#DejaVuSans-77"/>
       <use x="86.279297" xlink:href="#DejaVuSans-97"/>
       <use x="147.558594" xlink:href="#DejaVuSans-121"/>
      </g>
     </g>
    </g>
    <g id="xtick_4">
     <g id="line2d_4">
      <g>
       <use style="stroke:#000000;stroke-width:0.8;" x="184.409091" xlink:href="#m865e6da4c3" y="315"/>
      </g>
     </g>
     <g id="text_3">
      <!-- Jun -->
      <g transform="translate(176.596591 329.598437)scale(0.1 -0.1)">
       <defs>
        <path d="M 9.8125 72.90625 
L 19.671875 72.90625 
L 19.671875 5.078125 
Q 19.671875 -8.109375 14.671875 -14.0625 
Q 9.671875 -20.015625 -1.421875 -20.015625 
L -5.171875 -20.015625 
L -5.171875 -11.71875 
L -2.09375 -11.71875 
Q 4.4375 -11.71875 7.125 -8.046875 
Q 9.8125 -4.390625 9.8125 5.078125 
z
" id="DejaVuSans-74"/>
        <path d="M 8.5 21.578125 
L 8.5 54.6875 
L 17.484375 54.6875 
L 17.484375 21.921875 
Q 17.484375 14.15625 20.5 10.265625 
Q 23.53125 6.390625 29.59375 6.390625 
Q 36.859375 6.390625 41.078125 11.03125 
Q 45.3125 15.671875 45.3125 23.6875 
L 45.3125 54.6875 
L 54.296875 54.6875 
L 54.296875 0 
L 45.3125 0 
L 45.3125 8.40625 
Q 42.046875 3.421875 37.71875 1 
Q 33.40625 -1.421875 27.6875 -1.421875 
Q 18.265625 -1.421875 13.375 4.4375 
Q 8.5 10.296875 8.5 21.578125 
z
M 31.109375 56 
z
" id="DejaVuSans-117"/>
        <path d="M 54.890625 33.015625 
L 54.890625 0 
L 45.90625 0 
L 45.90625 32.71875 
Q 45.90625 40.484375 42.875 44.328125 
Q 39.84375 48.1875 33.796875 48.1875 
Q 26.515625 48.1875 22.3125 43.546875 
Q 18.109375 38.921875 18.109375 30.90625 
L 18.109375 0 
L 9.078125 0 
L 9.078125 54.6875 
L 18.109375 54.6875 
L 18.109375 46.1875 
Q 21.34375 51.125 25.703125 53.5625 
Q 30.078125 56 35.796875 56 
Q 45.21875 56 50.046875 50.171875 
Q 54.890625 44.34375 54.890625 33.015625 
z
" id="DejaVuSans-110"/>
       </defs>
       <use xlink:href="#DejaVuSans-74"/>
       <use x="29.492188" xlink:href="#DejaVuSans-117"/>
       <use x="92.871094" xlink:href="#DejaVuSans-110"/>
      </g>
     </g>
    </g>
    <g id="xtick_5">
     <g id="line2d_5">
      <g>
       <use style="stroke:#000000;stroke-width:0.8;" x="226.681818" xlink:href="#m865e6da4c3" y="315"/>
      </g>
     </g>
     <g id="text_4">
      <!-- Jul -->
      <g transform="translate(220.649006 329.598437)scale(0.1 -0.1)">
       <defs>
        <path d="M 9.421875 75.984375 
L 18.40625 75.984375 
L 18.40625 0 
L 9.421875 0 
z
" id="DejaVuSans-108"/>
       </defs>
       <use xlink:href="#DejaVuSans-74"/>
       <use x="29.492188" xlink:href="#DejaVuSans-117"/>
       <use x="92.871094" xlink:href="#DejaVuSans-108"/>
      </g>
     </g>
    </g>
    <g id="xtick_6">
     <g id="line2d_6">
      <g>
       <use style="stroke:#000000;stroke-width:0.8;" x="270.363636" xlink:href="#m865e6da4c3" y="315"/>
      </g>
     </g>
     <g id="text_5">
      <!-- Aug -->
      <g transform="translate(260.600355 329.598437)scale(0.1 -0.1)">
       <defs>
        <path d="M 45.40625 27.984375 
Q 45.40625 37.75 41.375 43.109375 
Q 37.359375 48.484375 30.078125 48.484375 
Q 22.859375 48.484375 18.828125 43.109375 
Q 14.796875 37.75 14.796875 27.984375 
Q 14.796875 18.265625 18.828125 12.890625 
Q 22.859375 7.515625 30.078125 7.515625 
Q 37.359375 7.515625 41.375 12.890625 
Q 45.40625 18.265625 45.40625 27.984375 
z
M 54.390625 6.78125 
Q 54.390625 -7.171875 48.1875 -13.984375 
Q 42 -20.796875 29.203125 -20.796875 
Q 24.46875 -20.796875 20.265625 -20.09375 
Q 16.0625 -19.390625 12.109375 -17.921875 
L 12.109375 -9.1875 
Q 16.0625 -11.328125 19.921875 -12.34375 
Q 23.78125 -13.375 27.78125 -13.375 
Q 36.625 -13.375 41.015625 -8.765625 
Q 45.40625 -4.15625 45.40625 5.171875 
L 45.40625 9.625 
Q 42.625 4.78125 38.28125 2.390625 
Q 33.9375 0 27.875 0 
Q 17.828125 0 11.671875 7.65625 
Q 5.515625 15.328125 5.515625 27.984375 
Q 5.515625 40.671875 11.671875 48.328125 
Q 17.828125 56 27.875 56 
Q 33.9375 56 38.28125 53.609375 
Q 42.625 51.21875 45.40625 46.390625 
L 45.40625 54.6875 
L 54.390625 54.6875 
z
" id="DejaVuSans-103"/>
       </defs>
       <use xlink:href="#DejaVuSans-65"/>
       <use x="68.408203" xlink:href="#DejaVuSans-117"/>
       <use x="131.787109" xlink:href="#DejaVuSans-103"/>
      </g>
     </g>
    </g>
    <g id="xtick_7">
     <g id="line2d_7">
      <g>
       <use style="stroke:#000000;stroke-width:0.8;" x="314.045455" xlink:href="#m865e6da4c3" y="315"/>
      </g>
     </g>
     <g id="text_6">
      <!-- Sep -->
      <g transform="translate(304.620455 329.598437)scale(0.1 -0.1)">
       <defs>
        <path d="M 53.515625 70.515625 
L 53.515625 60.890625 
Q 47.90625 63.578125 42.921875 64.890625 
Q 37.9375 66.21875 33.296875 66.21875 
Q 25.25 66.21875 20.875 63.09375 
Q 16.5 59.96875 16.5 54.203125 
Q 16.5 49.359375 19.40625 46.890625 
Q 22.3125 44.4375 30.421875 42.921875 
L 36.375 41.703125 
Q 47.40625 39.59375 52.65625 34.296875 
Q 57.90625 29 57.90625 20.125 
Q 57.90625 9.515625 50.796875 4.046875 
Q 43.703125 -1.421875 29.984375 -1.421875 
Q 24.8125 -1.421875 18.96875 -0.25 
Q 13.140625 0.921875 6.890625 3.21875 
L 6.890625 13.375 
Q 12.890625 10.015625 18.65625 8.296875 
Q 24.421875 6.59375 29.984375 6.59375 
Q 38.421875 6.59375 43.015625 9.90625 
Q 47.609375 13.234375 47.609375 19.390625 
Q 47.609375 24.75 44.3125 27.78125 
Q 41.015625 30.8125 33.5 32.328125 
L 27.484375 33.5 
Q 16.453125 35.6875 11.515625 40.375 
Q 6.59375 45.0625 6.59375 53.421875 
Q 6.59375 63.09375 13.40625 68.65625 
Q 20.21875 74.21875 32.171875 74.21875 
Q 37.3125 74.21875 42.625 73.28125 
Q 47.953125 72.359375 53.515625 70.515625 
z
" id="DejaVuSans-83"/>
        <path d="M 56.203125 29.59375 
L 56.203125 25.203125 
L 14.890625 25.203125 
Q 15.484375 15.921875 20.484375 11.0625 
Q 25.484375 6.203125 34.421875 6.203125 
Q 39.59375 6.203125 44.453125 7.46875 
Q 49.3125 8.734375 54.109375 11.28125 
L 54.109375 2.78125 
Q 49.265625 0.734375 44.1875 -0.34375 
Q 39.109375 -1.421875 33.890625 -1.421875 
Q 20.796875 -1.421875 13.15625 6.1875 
Q 5.515625 13.8125 5.515625 26.8125 
Q 5.515625 40.234375 12.765625 48.109375 
Q 20.015625 56 32.328125 56 
Q 43.359375 56 49.78125 48.890625 
Q 56.203125 41.796875 56.203125 29.59375 
z
M 47.21875 32.234375 
Q 47.125 39.59375 43.09375 43.984375 
Q 39.0625 48.390625 32.421875 48.390625 
Q 24.90625 48.390625 20.390625 44.140625 
Q 15.875 39.890625 15.1875 32.171875 
z
" id="DejaVuSans-101"/>
       </defs>
       <use xlink:href="#DejaVuSans-83"/>
       <use x="63.476562" xlink:href="#DejaVuSans-101"/>
       <use x="125" xlink:href="#DejaVuSans-112"/>
      </g>
     </g>
    </g>
    <g id="xtick_8">
     <g id="line2d_8">
      <g>
       <use style="stroke:#000000;stroke-width:0.8;" x="356.318182" xlink:href="#m865e6da4c3" y="315"/>
      </g>
     </g>
     <g id="text_7">
      <!-- Oct -->
      <g transform="translate(347.672869 329.598437)scale(0.1 -0.1)">
       <defs>
        <path d="M 39.40625 66.21875 
Q 28.65625 66.21875 22.328125 58.203125 
Q 16.015625 50.203125 16.015625 36.375 
Q 16.015625 22.609375 22.328125 14.59375 
Q 28.65625 6.59375 39.40625 6.59375 
Q 50.140625 6.59375 56.421875 14.59375 
Q 62.703125 22.609375 62.703125 36.375 
Q 62.703125 50.203125 56.421875 58.203125 
Q 50.140625 66.21875 39.40625 66.21875 
z
M 39.40625 74.21875 
Q 54.734375 74.21875 63.90625 63.9375 
Q 73.09375 53.65625 73.09375 36.375 
Q 73.09375 19.140625 63.90625 8.859375 
Q 54.734375 -1.421875 39.40625 -1.421875 
Q 24.03125 -1.421875 14.8125 8.828125 
Q 5.609375 19.09375 5.609375 36.375 
Q 5.609375 53.65625 14.8125 63.9375 
Q 24.03125 74.21875 39.40625 74.21875 
z
" id="DejaVuSans-79"/>
        <path d="M 48.78125 52.59375 
L 48.78125 44.1875 
Q 44.96875 46.296875 41.140625 47.34375 
Q 37.3125 48.390625 33.40625 48.390625 
Q 24.65625 48.390625 19.8125 42.84375 
Q 14.984375 37.3125 14.984375 27.296875 
Q 14.984375 17.28125 19.8125 11.734375 
Q 24.65625 6.203125 33.40625 6.203125 
Q 37.3125 6.203125 41.140625 7.25 
Q 44.96875 8.296875 48.78125 10.40625 
L 48.78125 2.09375 
Q 45.015625 0.34375 40.984375 -0.53125 
Q 36.96875 -1.421875 32.421875 -1.421875 
Q 20.0625 -1.421875 12.78125 6.34375 
Q 5.515625 14.109375 5.515625 27.296875 
Q 5.515625 40.671875 12.859375 48.328125 
Q 20.21875 56 33.015625 56 
Q 37.15625 56 41.109375 55.140625 
Q 45.0625 54.296875 48.78125 52.59375 
z
" id="DejaVuSans-99"/>
        <path d="M 18.3125 70.21875 
L 18.3125 54.6875 
L 36.8125 54.6875 
L 36.8125 47.703125 
L 18.3125 47.703125 
L 18.3125 18.015625 
Q 18.3125 11.328125 20.140625 9.421875 
Q 21.96875 7.515625 27.59375 7.515625 
L 36.8125 7.515625 
L 36.8125 0 
L 27.59375 0 
Q 17.1875 0 13.234375 3.875 
Q 9.28125 7.765625 9.28125 18.015625 
L 9.28125 47.703125 
L 2.6875 47.703125 
L 2.6875 54.6875 
L 9.28125 54.6875 
L 9.28125 70.21875 
z
" id="DejaVuSans-116"/>
       </defs>
       <use xlink:href="#DejaVuSans-79"/>
       <use x="78.710938" xlink:href="#DejaVuSans-99"/>
       <use x="133.691406" xlink:href="#DejaVuSans-116"/>
      </g>
     </g>
    </g>
    <g id="xtick_9">
     <g id="line2d_9">
      <g>
       <use style="stroke:#000000;stroke-width:0.8;" x="400" xlink:href="#m865e6da4c3" y="315"/>
      </g>
     </g>
     <g id="text_8">
      <!-- Nov -->
      <g transform="translate(390.240625 329.598437)scale(0.1 -0.1)">
       <defs>
        <path d="M 9.8125 72.90625 
L 23.09375 72.90625 
L 55.421875 11.921875 
L 55.421875 72.90625 
L 64.984375 72.90625 
L 64.984375 0 
L 51.703125 0 
L 19.390625 60.984375 
L 19.390625 0 
L 9.8125 0 
z
" id="DejaVuSans-78"/>
        <path d="M 30.609375 48.390625 
Q 23.390625 48.390625 19.1875 42.75 
Q 14.984375 37.109375 14.984375 27.296875 
Q 14.984375 17.484375 19.15625 11.84375 
Q 23.34375 6.203125 30.609375 6.203125 
Q 37.796875 6.203125 41.984375 11.859375 
Q 46.1875 17.53125 46.1875 27.296875 
Q 46.1875 37.015625 41.984375 42.703125 
Q 37.796875 48.390625 30.609375 48.390625 
z
M 30.609375 56 
Q 42.328125 56 49.015625 48.375 
Q 55.71875 40.765625 55.71875 27.296875 
Q 55.71875 13.875 49.015625 6.21875 
Q 42.328125 -1.421875 30.609375 -1.421875 
Q 18.84375 -1.421875 12.171875 6.21875 
Q 5.515625 13.875 5.515625 27.296875 
Q 5.515625 40.765625 12.171875 48.375 
Q 18.84375 56 30.609375 56 
z
" id="DejaVuSans-111"/>
        <path d="M 2.984375 54.6875 
L 12.5 54.6875 
L 29.59375 8.796875 
L 46.6875 54.6875 
L 56.203125 54.6875 
L 35.6875 0 
L 23.484375 0 
z
" id="DejaVuSans-118"/>
       </defs>
       <use xlink:href="#DejaVuSans-78"/>
       <use x="74.804688" xlink:href="#DejaVuSans-111"/>
       <use x="135.986328" xlink:href="#DejaVuSans-118"/>
      </g>
     </g>
    </g>
    <g id="xtick_10">
     <g id="line2d_10">
      <g>
       <use style="stroke:#000000;stroke-width:0.8;" x="442.272727" xlink:href="#m865e6da4c3" y="315"/>
      </g>
     </g>
     <g id="text_9">
      <!-- Dec -->
      <g transform="translate(432.596946 329.598437)scale(0.1 -0.1)">
       <defs>
        <path d="M 19.671875 64.796875 
L 19.671875 8.109375 
L 31.59375 8.109375 
Q 46.6875 8.109375 53.6875 14.9375 
Q 60.6875 21.78125 60.6875 36.53125 
Q 60.6875 51.171875 53.6875 57.984375 
Q 46.6875 64.796875 31.59375 64.796875 
z
M 9.8125 72.90625 
L 30.078125 72.90625 
Q 51.265625 72.90625 61.171875 64.09375 
Q 71.09375 55.28125 71.09375 36.53125 
Q 71.09375 17.671875 61.125 8.828125 
Q 51.171875 0 30.078125 0 
L 9.8125 0 
z
" id="DejaVuSans-68"/>
       </defs>
       <use xlink:href="#DejaVuSans-68"/>
       <use x="77.001953" xlink:href="#DejaVuSans-101"/>
       <use x="138.525391" xlink:href="#DejaVuSans-99"/>
      </g>
     </g>
    </g>
    <g id="xtick_11">
     <g id="line2d_11">
      <g>
       <use style="stroke:#000000;stroke-width:0.8;" x="485.954545" xlink:href="#m865e6da4c3" y="315"/>
      </g>
     </g>
     <g id="text_10">
      <!-- Jan -->
      <g transform="translate(478.246733 329.598437)scale(0.1 -0.1)">
       <use xlink:href="#DejaVuSans-74"/>
       <use x="29.492188" xlink:href="#DejaVuSans-97"/>
       <use x="90.771484" xlink:href="#DejaVuSans-110"/>
      </g>
      <!-- 2021 -->
      <g transform="translate(473.229545 340.79625)scale(0.1 -0.1)">
       <defs>
        <path d="M 19.1875 8.296875 
L 53.609375 8.296875 
L 53.609375 0 
L 7.328125 0 
L 7.328125 8.296875 
Q 12.9375 14.109375 22.625 23.890625 
Q 32.328125 33.6875 34.8125 36.53125 
Q 39.546875 41.84375 41.421875 45.53125 
Q 43.3125 49.21875 43.3125 52.78125 
Q 43.3125 58.59375 39.234375 62.25 
Q 35.15625 65.921875 28.609375 65.921875 
Q 23.96875 65.921875 18.8125 64.3125 
Q 13.671875 62.703125 7.8125 59.421875 
L 7.8125 69.390625 
Q 13.765625 71.78125 18.9375 73 
Q 24.125 74.21875 28.421875 74.21875 
Q 39.75 74.21875 46.484375 68.546875 
Q 53.21875 62.890625 53.21875 53.421875 
Q 53.21875 48.921875 51.53125 44.890625 
Q 49.859375 40.875 45.40625 35.40625 
Q 44.1875 33.984375 37.640625 27.21875 
Q 31.109375 20.453125 19.1875 8.296875 
z
" id="DejaVuSans-50"/>
        <path d="M 31.78125 66.40625 
Q 24.171875 66.40625 20.328125 58.90625 
Q 16.5 51.421875 16.5 36.375 
Q 16.5 21.390625 20.328125 13.890625 
Q 24.171875 6.390625 31.78125 6.390625 
Q 39.453125 6.390625 43.28125 13.890625 
Q 47.125 21.390625 47.125 36.375 
Q 47.125 51.421875 43.28125 58.90625 
Q 39.453125 66.40625 31.78125 66.40625 
z
M 31.78125 74.21875 
Q 44.046875 74.21875 50.515625 64.515625 
Q 56.984375 54.828125 56.984375 36.375 
Q 56.984375 17.96875 50.515625 8.265625 
Q 44.046875 -1.421875 31.78125 -1.421875 
Q 19.53125 -1.421875 13.0625 8.265625 
Q 6.59375 17.96875 6.59375 36.375 
Q 6.59375 54.828125 13.0625 64.515625 
Q 19.53125 74.21875 31.78125 74.21875 
z
" id="DejaVuSans-48"/>
        <path d="M 12.40625 8.296875 
L 28.515625 8.296875 
L 28.515625 63.921875 
L 10.984375 60.40625 
L 10.984375 69.390625 
L 28.421875 72.90625 
L 38.28125 72.90625 
L 38.28125 8.296875 
L 54.390625 8.296875 
L 54.390625 0 
L 12.40625 0 
z
" id="DejaVuSans-49"/>
       </defs>
       <use xlink:href="#DejaVuSans-50"/>
       <use x="63.623047" xlink:href="#DejaVuSans-48"/>
       <use x="127.246094" xlink:href="#DejaVuSans-50"/>
       <use x="190.869141" xlink:href="#DejaVuSans-49"/>
      </g>
     </g>
    </g>
    <g id="xtick_12">
     <g id="line2d_12">
      <g>
       <use style="stroke:#000000;stroke-width:0.8;" x="529.636364" xlink:href="#m865e6da4c3" y="315"/>
      </g>
     </g>
     <g id="text_11">
      <!-- Feb -->
      <g transform="translate(520.784801 329.598437)scale(0.1 -0.1)">
       <defs>
        <path d="M 9.8125 72.90625 
L 51.703125 72.90625 
L 51.703125 64.59375 
L 19.671875 64.59375 
L 19.671875 43.109375 
L 48.578125 43.109375 
L 48.578125 34.8125 
L 19.671875 34.8125 
L 19.671875 0 
L 9.8125 0 
z
" id="DejaVuSans-70"/>
        <path d="M 48.6875 27.296875 
Q 48.6875 37.203125 44.609375 42.84375 
Q 40.53125 48.484375 33.40625 48.484375 
Q 26.265625 48.484375 22.1875 42.84375 
Q 18.109375 37.203125 18.109375 27.296875 
Q 18.109375 17.390625 22.1875 11.75 
Q 26.265625 6.109375 33.40625 6.109375 
Q 40.53125 6.109375 44.609375 11.75 
Q 48.6875 17.390625 48.6875 27.296875 
z
M 18.109375 46.390625 
Q 20.953125 51.265625 25.265625 53.625 
Q 29.59375 56 35.59375 56 
Q 45.5625 56 51.78125 48.09375 
Q 58.015625 40.1875 58.015625 27.296875 
Q 58.015625 14.40625 51.78125 6.484375 
Q 45.5625 -1.421875 35.59375 -1.421875 
Q 29.59375 -1.421875 25.265625 0.953125 
Q 20.953125 3.328125 18.109375 8.203125 
L 18.109375 0 
L 9.078125 0 
L 9.078125 75.984375 
L 18.109375 75.984375 
z
" id="DejaVuSans-98"/>
       </defs>
       <use xlink:href="#DejaVuSans-70"/>
       <use x="52.019531" xlink:href="#DejaVuSans-101"/>
       <use x="113.542969" xlink:href="#DejaVuSans-98"/>
      </g>
     </g>
    </g>
    <g id="xtick_13">
     <g id="line2d_13">
      <g>
       <use style="stroke:#000000;stroke-width:0.8;" x="569.090909" xlink:href="#m865e6da4c3" y="315"/>
      </g>
     </g>
     <g id="text_12">
      <!-- Mar -->
      <g transform="translate(559.657315 329.598437)scale(0.1 -0.1)">
       <use xlink:href="#DejaVuSans-77"/>
       <use x="86.279297" xlink:href="#DejaVuSans-97"/>
       <use x="147.558594" xlink:href="#DejaVuSans-114"/>
      </g>
     </g>
    </g>
    <g id="xtick_14">
     <g id="line2d_14">
      <g>
       <use style="stroke:#000000;stroke-width:0.8;" x="612.772727" xlink:href="#m865e6da4c3" y="315"/>
      </g>
     </g>
     <g id="text_13">
      <!-- Apr -->
      <g transform="translate(604.122727 329.598437)scale(0.1 -0.1)">
       <use xlink:href="#DejaVuSans-65"/>
       <use x="68.408203" xlink:href="#DejaVuSans-112"/>
       <use x="131.884766" xlink:href="#DejaVuSans-114"/>
      </g>
     </g>
    </g>
    <g id="xtick_15">
     <g id="line2d_15">
      <g>
       <use style="stroke:#000000;stroke-width:0.8;" x="648" xlink:href="#m865e6da4c3" y="315"/>
      </g>
     </g>
    </g>
    <g id="xtick_16">
     <g id="line2d_16">
      <defs>
       <path d="M 0 0 
L 0 2 
" id="m89fe5c115e" style="stroke:#000000;stroke-width:0.6;"/>
      </defs>
      <g>
       <use style="stroke:#000000;stroke-width:0.6;" x="95.636364" xlink:href="#m89fe5c115e" y="315"/>
      </g>
     </g>
    </g>
    <g id="xtick_17">
     <g id="line2d_17">
      <g>
       <use style="stroke:#000000;stroke-width:0.6;" x="105.5" xlink:href="#m89fe5c115e" y="315"/>
      </g>
     </g>
    </g>
    <g id="xtick_18">
     <g id="line2d_18">
      <g>
       <use style="stroke:#000000;stroke-width:0.6;" x="115.363636" xlink:href="#m89fe5c115e" y="315"/>
      </g>
     </g>
    </g>
    <g id="xtick_19">
     <g id="line2d_19">
      <g>
       <use style="stroke:#000000;stroke-width:0.6;" x="125.227273" xlink:href="#m89fe5c115e" y="315"/>
      </g>
     </g>
    </g>
    <g id="xtick_20">
     <g id="line2d_20">
      <g>
       <use style="stroke:#000000;stroke-width:0.6;" x="135.090909" xlink:href="#m89fe5c115e" y="315"/>
      </g>
     </g>
    </g>
    <g id="xtick_21">
     <g id="line2d_21">
      <g>
       <use style="stroke:#000000;stroke-width:0.6;" x="144.954545" xlink:href="#m89fe5c115e" y="315"/>
      </g>
     </g>
    </g>
    <g id="xtick_22">
     <g id="line2d_22">
      <g>
       <use style="stroke:#000000;stroke-width:0.6;" x="154.818182" xlink:href="#m89fe5c115e" y="315"/>
      </g>
     </g>
    </g>
    <g id="xtick_23">
     <g id="line2d_23">
      <g>
       <use style="stroke:#000000;stroke-width:0.6;" x="164.681818" xlink:href="#m89fe5c115e" y="315"/>
      </g>
     </g>
    </g>
    <g id="xtick_24">
     <g id="line2d_24">
      <g>
       <use style="stroke:#000000;stroke-width:0.6;" x="174.545455" xlink:href="#m89fe5c115e" y="315"/>
      </g>
     </g>
    </g>
    <g id="xtick_25">
     <g id="line2d_25">
      <g>
       <use style="stroke:#000000;stroke-width:0.6;" x="194.272727" xlink:href="#m89fe5c115e" y="315"/>
      </g>
     </g>
    </g>
    <g id="xtick_26">
     <g id="line2d_26">
      <g>
       <use style="stroke:#000000;stroke-width:0.6;" x="204.136364" xlink:href="#m89fe5c115e" y="315"/>
      </g>
     </g>
    </g>
    <g id="xtick_27">
     <g id="line2d_27">
      <g>
       <use style="stroke:#000000;stroke-width:0.6;" x="214" xlink:href="#m89fe5c115e" y="315"/>
      </g>
     </g>
    </g>
    <g id="xtick_28">
     <g id="line2d_28">
      <g>
       <use style="stroke:#000000;stroke-width:0.6;" x="223.863636" xlink:href="#m89fe5c115e" y="315"/>
      </g>
     </g>
    </g>
    <g id="xtick_29">
     <g id="line2d_29">
      <g>
       <use style="stroke:#000000;stroke-width:0.6;" x="233.727273" xlink:href="#m89fe5c115e" y="315"/>
      </g>
     </g>
    </g>
    <g id="xtick_30">
     <g id="line2d_30">
      <g>
       <use style="stroke:#000000;stroke-width:0.6;" x="243.590909" xlink:href="#m89fe5c115e" y="315"/>
      </g>
     </g>
    </g>
    <g id="xtick_31">
     <g id="line2d_31">
      <g>
       <use style="stroke:#000000;stroke-width:0.6;" x="253.454545" xlink:href="#m89fe5c115e" y="315"/>
      </g>
     </g>
    </g>
    <g id="xtick_32">
     <g id="line2d_32">
      <g>
       <use style="stroke:#000000;stroke-width:0.6;" x="263.318182" xlink:href="#m89fe5c115e" y="315"/>
      </g>
     </g>
    </g>
    <g id="xtick_33">
     <g id="line2d_33">
      <g>
       <use style="stroke:#000000;stroke-width:0.6;" x="273.181818" xlink:href="#m89fe5c115e" y="315"/>
      </g>
     </g>
    </g>
    <g id="xtick_34">
     <g id="line2d_34">
      <g>
       <use style="stroke:#000000;stroke-width:0.6;" x="283.045455" xlink:href="#m89fe5c115e" y="315"/>
      </g>
     </g>
    </g>
    <g id="xtick_35">
     <g id="line2d_35">
      <g>
       <use style="stroke:#000000;stroke-width:0.6;" x="292.909091" xlink:href="#m89fe5c115e" y="315"/>
      </g>
     </g>
    </g>
    <g id="xtick_36">
     <g id="line2d_36">
      <g>
       <use style="stroke:#000000;stroke-width:0.6;" x="302.772727" xlink:href="#m89fe5c115e" y="315"/>
      </g>
     </g>
    </g>
    <g id="xtick_37">
     <g id="line2d_37">
      <g>
       <use style="stroke:#000000;stroke-width:0.6;" x="312.636364" xlink:href="#m89fe5c115e" y="315"/>
      </g>
     </g>
    </g>
    <g id="xtick_38">
     <g id="line2d_38">
      <g>
       <use style="stroke:#000000;stroke-width:0.6;" x="322.5" xlink:href="#m89fe5c115e" y="315"/>
      </g>
     </g>
    </g>
    <g id="xtick_39">
     <g id="line2d_39">
      <g>
       <use style="stroke:#000000;stroke-width:0.6;" x="332.363636" xlink:href="#m89fe5c115e" y="315"/>
      </g>
     </g>
    </g>
    <g id="xtick_40">
     <g id="line2d_40">
      <g>
       <use style="stroke:#000000;stroke-width:0.6;" x="342.227273" xlink:href="#m89fe5c115e" y="315"/>
      </g>
     </g>
    </g>
    <g id="xtick_41">
     <g id="line2d_41">
      <g>
       <use style="stroke:#000000;stroke-width:0.6;" x="352.090909" xlink:href="#m89fe5c115e" y="315"/>
      </g>
     </g>
    </g>
    <g id="xtick_42">
     <g id="line2d_42">
      <g>
       <use style="stroke:#000000;stroke-width:0.6;" x="361.954545" xlink:href="#m89fe5c115e" y="315"/>
      </g>
     </g>
    </g>
    <g id="xtick_43">
     <g id="line2d_43">
      <g>
       <use style="stroke:#000000;stroke-width:0.6;" x="371.818182" xlink:href="#m89fe5c115e" y="315"/>
      </g>
     </g>
    </g>
    <g id="xtick_44">
     <g id="line2d_44">
      <g>
       <use style="stroke:#000000;stroke-width:0.6;" x="381.681818" xlink:href="#m89fe5c115e" y="315"/>
      </g>
     </g>
    </g>
    <g id="xtick_45">
     <g id="line2d_45">
      <g>
       <use style="stroke:#000000;stroke-width:0.6;" x="391.545455" xlink:href="#m89fe5c115e" y="315"/>
      </g>
     </g>
    </g>
    <g id="xtick_46">
     <g id="line2d_46">
      <g>
       <use style="stroke:#000000;stroke-width:0.6;" x="401.409091" xlink:href="#m89fe5c115e" y="315"/>
      </g>
     </g>
    </g>
    <g id="xtick_47">
     <g id="line2d_47">
      <g>
       <use style="stroke:#000000;stroke-width:0.6;" x="411.272727" xlink:href="#m89fe5c115e" y="315"/>
      </g>
     </g>
    </g>
    <g id="xtick_48">
     <g id="line2d_48">
      <g>
       <use style="stroke:#000000;stroke-width:0.6;" x="421.136364" xlink:href="#m89fe5c115e" y="315"/>
      </g>
     </g>
    </g>
    <g id="xtick_49">
     <g id="line2d_49">
      <g>
       <use style="stroke:#000000;stroke-width:0.6;" x="431" xlink:href="#m89fe5c115e" y="315"/>
      </g>
     </g>
    </g>
    <g id="xtick_50">
     <g id="line2d_50">
      <g>
       <use style="stroke:#000000;stroke-width:0.6;" x="440.863636" xlink:href="#m89fe5c115e" y="315"/>
      </g>
     </g>
    </g>
    <g id="xtick_51">
     <g id="line2d_51">
      <g>
       <use style="stroke:#000000;stroke-width:0.6;" x="450.727273" xlink:href="#m89fe5c115e" y="315"/>
      </g>
     </g>
    </g>
    <g id="xtick_52">
     <g id="line2d_52">
      <g>
       <use style="stroke:#000000;stroke-width:0.6;" x="460.590909" xlink:href="#m89fe5c115e" y="315"/>
      </g>
     </g>
    </g>
    <g id="xtick_53">
     <g id="line2d_53">
      <g>
       <use style="stroke:#000000;stroke-width:0.6;" x="470.454545" xlink:href="#m89fe5c115e" y="315"/>
      </g>
     </g>
    </g>
    <g id="xtick_54">
     <g id="line2d_54">
      <g>
       <use style="stroke:#000000;stroke-width:0.6;" x="480.318182" xlink:href="#m89fe5c115e" y="315"/>
      </g>
     </g>
    </g>
    <g id="xtick_55">
     <g id="line2d_55">
      <g>
       <use style="stroke:#000000;stroke-width:0.6;" x="490.181818" xlink:href="#m89fe5c115e" y="315"/>
      </g>
     </g>
    </g>
    <g id="xtick_56">
     <g id="line2d_56">
      <g>
       <use style="stroke:#000000;stroke-width:0.6;" x="500.045455" xlink:href="#m89fe5c115e" y="315"/>
      </g>
     </g>
    </g>
    <g id="xtick_57">
     <g id="line2d_57">
      <g>
       <use style="stroke:#000000;stroke-width:0.6;" x="509.909091" xlink:href="#m89fe5c115e" y="315"/>
      </g>
     </g>
    </g>
    <g id="xtick_58">
     <g id="line2d_58">
      <g>
       <use style="stroke:#000000;stroke-width:0.6;" x="519.772727" xlink:href="#m89fe5c115e" y="315"/>
      </g>
     </g>
    </g>
    <g id="xtick_59">
     <g id="line2d_59">
      <g>
       <use style="stroke:#000000;stroke-width:0.6;" x="539.5" xlink:href="#m89fe5c115e" y="315"/>
      </g>
     </g>
    </g>
    <g id="xtick_60">
     <g id="line2d_60">
      <g>
       <use style="stroke:#000000;stroke-width:0.6;" x="549.363636" xlink:href="#m89fe5c115e" y="315"/>
      </g>
     </g>
    </g>
    <g id="xtick_61">
     <g id="line2d_61">
      <g>
       <use style="stroke:#000000;stroke-width:0.6;" x="559.227273" xlink:href="#m89fe5c115e" y="315"/>
      </g>
     </g>
    </g>
    <g id="xtick_62">
     <g id="line2d_62">
      <g>
       <use style="stroke:#000000;stroke-width:0.6;" x="578.954545" xlink:href="#m89fe5c115e" y="315"/>
      </g>
     </g>
    </g>
    <g id="xtick_63">
     <g id="line2d_63">
      <g>
       <use style="stroke:#000000;stroke-width:0.6;" x="588.818182" xlink:href="#m89fe5c115e" y="315"/>
      </g>
     </g>
    </g>
    <g id="xtick_64">
     <g id="line2d_64">
      <g>
       <use style="stroke:#000000;stroke-width:0.6;" x="598.681818" xlink:href="#m89fe5c115e" y="315"/>
      </g>
     </g>
    </g>
    <g id="xtick_65">
     <g id="line2d_65">
      <g>
       <use style="stroke:#000000;stroke-width:0.6;" x="608.545455" xlink:href="#m89fe5c115e" y="315"/>
      </g>
     </g>
    </g>
    <g id="xtick_66">
     <g id="line2d_66">
      <g>
       <use style="stroke:#000000;stroke-width:0.6;" x="618.409091" xlink:href="#m89fe5c115e" y="315"/>
      </g>
     </g>
    </g>
    <g id="xtick_67">
     <g id="line2d_67">
      <g>
       <use style="stroke:#000000;stroke-width:0.6;" x="628.272727" xlink:href="#m89fe5c115e" y="315"/>
      </g>
     </g>
    </g>
    <g id="xtick_68">
     <g id="line2d_68">
      <g>
       <use style="stroke:#000000;stroke-width:0.6;" x="638.136364" xlink:href="#m89fe5c115e" y="315"/>
      </g>
     </g>
    </g>
    <g id="text_14">
     <!-- date -->
     <g transform="translate(357.725 354.474375)scale(0.1 -0.1)">
      <defs>
       <path d="M 45.40625 46.390625 
L 45.40625 75.984375 
L 54.390625 75.984375 
L 54.390625 0 
L 45.40625 0 
L 45.40625 8.203125 
Q 42.578125 3.328125 38.25 0.953125 
Q 33.9375 -1.421875 27.875 -1.421875 
Q 17.96875 -1.421875 11.734375 6.484375 
Q 5.515625 14.40625 5.515625 27.296875 
Q 5.515625 40.1875 11.734375 48.09375 
Q 17.96875 56 27.875 56 
Q 33.9375 56 38.25 53.625 
Q 42.578125 51.265625 45.40625 46.390625 
z
M 14.796875 27.296875 
Q 14.796875 17.390625 18.875 11.75 
Q 22.953125 6.109375 30.078125 6.109375 
Q 37.203125 6.109375 41.296875 11.75 
Q 45.40625 17.390625 45.40625 27.296875 
Q 45.40625 37.203125 41.296875 42.84375 
Q 37.203125 48.484375 30.078125 48.484375 
Q 22.953125 48.484375 18.875 42.84375 
Q 14.796875 37.203125 14.796875 27.296875 
z
" id="DejaVuSans-100"/>
      </defs>
      <use xlink:href="#DejaVuSans-100"/>
      <use x="63.476562" xlink:href="#DejaVuSans-97"/>
      <use x="124.755859" xlink:href="#DejaVuSans-116"/>
      <use x="163.964844" xlink:href="#DejaVuSans-101"/>
     </g>
    </g>
   </g>
   <g id="matplotlib.axis_2">
    <g id="ytick_1">
     <g id="line2d_69">
      <defs>
       <path d="M 0 0 
L -3.5 0 
" id="m0ecf9d9d2a" style="stroke:#000000;stroke-width:0.8;"/>
      </defs>
      <g>
       <use style="stroke:#000000;stroke-width:0.8;" x="90" xlink:href="#m0ecf9d9d2a" y="267.196313"/>
      </g>
     </g>
     <g id="text_15">
      <!-- $\mathdefault{10^{-1}}$ -->
      <g transform="translate(59.5 270.995531)scale(0.1 -0.1)">
       <defs>
        <path d="M 10.59375 35.5 
L 73.1875 35.5 
L 73.1875 27.203125 
L 10.59375 27.203125 
z
" id="DejaVuSans-8722"/>
       </defs>
       <use transform="translate(0 0.684375)" xlink:href="#DejaVuSans-49"/>
       <use transform="translate(63.623047 0.684375)" xlink:href="#DejaVuSans-48"/>
       <use transform="translate(128.203125 38.965625)scale(0.7)" xlink:href="#DejaVuSans-8722"/>
       <use transform="translate(186.855469 38.965625)scale(0.7)" xlink:href="#DejaVuSans-49"/>
      </g>
     </g>
    </g>
    <g id="ytick_2">
     <g id="line2d_70">
      <g>
       <use style="stroke:#000000;stroke-width:0.8;" x="90" xlink:href="#m0ecf9d9d2a" y="195.900041"/>
      </g>
     </g>
     <g id="text_16">
      <!-- $\mathdefault{10^{0}}$ -->
      <g transform="translate(65.4 199.699259)scale(0.1 -0.1)">
       <use transform="translate(0 0.765625)" xlink:href="#DejaVuSans-49"/>
       <use transform="translate(63.623047 0.765625)" xlink:href="#DejaVuSans-48"/>
       <use transform="translate(128.203125 39.046875)scale(0.7)" xlink:href="#DejaVuSans-48"/>
      </g>
     </g>
    </g>
    <g id="ytick_3">
     <g id="line2d_71">
      <g>
       <use style="stroke:#000000;stroke-width:0.8;" x="90" xlink:href="#m0ecf9d9d2a" y="124.603769"/>
      </g>
     </g>
     <g id="text_17">
      <!-- $\mathdefault{10^{1}}$ -->
      <g transform="translate(65.4 128.402988)scale(0.1 -0.1)">
       <use transform="translate(0 0.684375)" xlink:href="#DejaVuSans-49"/>
       <use transform="translate(63.623047 0.684375)" xlink:href="#DejaVuSans-48"/>
       <use transform="translate(128.203125 38.965625)scale(0.7)" xlink:href="#DejaVuSans-49"/>
      </g>
     </g>
    </g>
    <g id="ytick_4">
     <g id="line2d_72">
      <g>
       <use style="stroke:#000000;stroke-width:0.8;" x="90" xlink:href="#m0ecf9d9d2a" y="53.307497"/>
      </g>
     </g>
     <g id="text_18">
      <!-- $\mathdefault{10^{2}}$ -->
      <g transform="translate(65.4 57.106716)scale(0.1 -0.1)">
       <use transform="translate(0 0.765625)" xlink:href="#DejaVuSans-49"/>
       <use transform="translate(63.623047 0.765625)" xlink:href="#DejaVuSans-48"/>
       <use transform="translate(128.203125 39.046875)scale(0.7)" xlink:href="#DejaVuSans-50"/>
      </g>
     </g>
    </g>
    <g id="ytick_5">
     <g id="line2d_73">
      <defs>
       <path d="M 0 0 
L -2 0 
" id="m8114dd8d2b" style="stroke:#000000;stroke-width:0.6;"/>
      </defs>
      <g>
       <use style="stroke:#000000;stroke-width:0.6;" x="90" xlink:href="#m8114dd8d2b" y="304.475618"/>
      </g>
     </g>
    </g>
    <g id="ytick_6">
     <g id="line2d_74">
      <g>
       <use style="stroke:#000000;stroke-width:0.6;" x="90" xlink:href="#m8114dd8d2b" y="295.567952"/>
      </g>
     </g>
    </g>
    <g id="ytick_7">
     <g id="line2d_75">
      <g>
       <use style="stroke:#000000;stroke-width:0.6;" x="90" xlink:href="#m8114dd8d2b" y="288.658629"/>
      </g>
     </g>
    </g>
    <g id="ytick_8">
     <g id="line2d_76">
      <g>
       <use style="stroke:#000000;stroke-width:0.6;" x="90" xlink:href="#m8114dd8d2b" y="283.013301"/>
      </g>
     </g>
    </g>
    <g id="ytick_9">
     <g id="line2d_77">
      <g>
       <use style="stroke:#000000;stroke-width:0.6;" x="90" xlink:href="#m8114dd8d2b" y="278.240245"/>
      </g>
     </g>
    </g>
    <g id="ytick_10">
     <g id="line2d_78">
      <g>
       <use style="stroke:#000000;stroke-width:0.6;" x="90" xlink:href="#m8114dd8d2b" y="274.105635"/>
      </g>
     </g>
    </g>
    <g id="ytick_11">
     <g id="line2d_79">
      <g>
       <use style="stroke:#000000;stroke-width:0.6;" x="90" xlink:href="#m8114dd8d2b" y="270.458651"/>
      </g>
     </g>
    </g>
    <g id="ytick_12">
     <g id="line2d_80">
      <g>
       <use style="stroke:#000000;stroke-width:0.6;" x="90" xlink:href="#m8114dd8d2b" y="245.733996"/>
      </g>
     </g>
    </g>
    <g id="ytick_13">
     <g id="line2d_81">
      <g>
       <use style="stroke:#000000;stroke-width:0.6;" x="90" xlink:href="#m8114dd8d2b" y="233.179346"/>
      </g>
     </g>
    </g>
    <g id="ytick_14">
     <g id="line2d_82">
      <g>
       <use style="stroke:#000000;stroke-width:0.6;" x="90" xlink:href="#m8114dd8d2b" y="224.27168"/>
      </g>
     </g>
    </g>
    <g id="ytick_15">
     <g id="line2d_83">
      <g>
       <use style="stroke:#000000;stroke-width:0.6;" x="90" xlink:href="#m8114dd8d2b" y="217.362357"/>
      </g>
     </g>
    </g>
    <g id="ytick_16">
     <g id="line2d_84">
      <g>
       <use style="stroke:#000000;stroke-width:0.6;" x="90" xlink:href="#m8114dd8d2b" y="211.717029"/>
      </g>
     </g>
    </g>
    <g id="ytick_17">
     <g id="line2d_85">
      <g>
       <use style="stroke:#000000;stroke-width:0.6;" x="90" xlink:href="#m8114dd8d2b" y="206.943973"/>
      </g>
     </g>
    </g>
    <g id="ytick_18">
     <g id="line2d_86">
      <g>
       <use style="stroke:#000000;stroke-width:0.6;" x="90" xlink:href="#m8114dd8d2b" y="202.809363"/>
      </g>
     </g>
    </g>
    <g id="ytick_19">
     <g id="line2d_87">
      <g>
       <use style="stroke:#000000;stroke-width:0.6;" x="90" xlink:href="#m8114dd8d2b" y="199.162379"/>
      </g>
     </g>
    </g>
    <g id="ytick_20">
     <g id="line2d_88">
      <g>
       <use style="stroke:#000000;stroke-width:0.6;" x="90" xlink:href="#m8114dd8d2b" y="174.437724"/>
      </g>
     </g>
    </g>
    <g id="ytick_21">
     <g id="line2d_89">
      <g>
       <use style="stroke:#000000;stroke-width:0.6;" x="90" xlink:href="#m8114dd8d2b" y="161.883074"/>
      </g>
     </g>
    </g>
    <g id="ytick_22">
     <g id="line2d_90">
      <g>
       <use style="stroke:#000000;stroke-width:0.6;" x="90" xlink:href="#m8114dd8d2b" y="152.975408"/>
      </g>
     </g>
    </g>
    <g id="ytick_23">
     <g id="line2d_91">
      <g>
       <use style="stroke:#000000;stroke-width:0.6;" x="90" xlink:href="#m8114dd8d2b" y="146.066085"/>
      </g>
     </g>
    </g>
    <g id="ytick_24">
     <g id="line2d_92">
      <g>
       <use style="stroke:#000000;stroke-width:0.6;" x="90" xlink:href="#m8114dd8d2b" y="140.420758"/>
      </g>
     </g>
    </g>
    <g id="ytick_25">
     <g id="line2d_93">
      <g>
       <use style="stroke:#000000;stroke-width:0.6;" x="90" xlink:href="#m8114dd8d2b" y="135.647701"/>
      </g>
     </g>
    </g>
    <g id="ytick_26">
     <g id="line2d_94">
      <g>
       <use style="stroke:#000000;stroke-width:0.6;" x="90" xlink:href="#m8114dd8d2b" y="131.513092"/>
      </g>
     </g>
    </g>
    <g id="ytick_27">
     <g id="line2d_95">
      <g>
       <use style="stroke:#000000;stroke-width:0.6;" x="90" xlink:href="#m8114dd8d2b" y="127.866107"/>
      </g>
     </g>
    </g>
    <g id="ytick_28">
     <g id="line2d_96">
      <g>
       <use style="stroke:#000000;stroke-width:0.6;" x="90" xlink:href="#m8114dd8d2b" y="103.141453"/>
      </g>
     </g>
    </g>
    <g id="ytick_29">
     <g id="line2d_97">
      <g>
       <use style="stroke:#000000;stroke-width:0.6;" x="90" xlink:href="#m8114dd8d2b" y="90.586802"/>
      </g>
     </g>
    </g>
    <g id="ytick_30">
     <g id="line2d_98">
      <g>
       <use style="stroke:#000000;stroke-width:0.6;" x="90" xlink:href="#m8114dd8d2b" y="81.679136"/>
      </g>
     </g>
    </g>
    <g id="ytick_31">
     <g id="line2d_99">
      <g>
       <use style="stroke:#000000;stroke-width:0.6;" x="90" xlink:href="#m8114dd8d2b" y="74.769814"/>
      </g>
     </g>
    </g>
    <g id="ytick_32">
     <g id="line2d_100">
      <g>
       <use style="stroke:#000000;stroke-width:0.6;" x="90" xlink:href="#m8114dd8d2b" y="69.124486"/>
      </g>
     </g>
    </g>
    <g id="ytick_33">
     <g id="line2d_101">
      <g>
       <use style="stroke:#000000;stroke-width:0.6;" x="90" xlink:href="#m8114dd8d2b" y="64.351429"/>
      </g>
     </g>
    </g>
    <g id="ytick_34">
     <g id="line2d_102">
      <g>
       <use style="stroke:#000000;stroke-width:0.6;" x="90" xlink:href="#m8114dd8d2b" y="60.21682"/>
      </g>
     </g>
    </g>
    <g id="ytick_35">
     <g id="line2d_103">
      <g>
       <use style="stroke:#000000;stroke-width:0.6;" x="90" xlink:href="#m8114dd8d2b" y="56.569836"/>
      </g>
     </g>
    </g>
   </g>
   <g id="line2d_104">
    <path clip-path="url(#pafaf42f1fc)" d="M 94.224519 361 
L 94.227273 221.712121 
L 95.636364 208.166207 
L 97.045455 203.454991 
L 99.863636 199.991355 
L 101.272727 200.041339 
L 102.681818 198.741289 
L 104.090909 200.486245 
L 105.5 201.823802 
L 106.909091 202.156066 
L 108.318182 204.310128 
L 109.727273 205.832988 
L 111.136364 207.674412 
L 112.545455 208.431034 
L 113.954545 210.724474 
L 116.772727 214.735758 
L 122.409091 221.983281 
L 125.227273 226.29826 
L 129.454545 231.736007 
L 130.863636 233.876832 
L 144.954545 251.764736 
L 146.363636 253.121956 
L 147.772727 254.948755 
L 150.590909 258.057347 
L 152 259.291084 
L 153.409091 260.779511 
L 156.227273 263.224639 
L 157.636364 264.309231 
L 161.863636 266.779223 
L 163.272727 267.403849 
L 164.681818 267.668589 
L 166.090909 268.13241 
L 167.5 268.360619 
L 170.318182 268.393628 
L 173.136364 267.617194 
L 175.954545 266.476683 
L 177.363636 265.482953 
L 178.772727 264.857186 
L 181.590909 262.524202 
L 184.409091 259.71314 
L 187.227273 256.416132 
L 190.045455 252.683672 
L 192.863636 248.579785 
L 195.681818 244.157891 
L 199.909091 237.024627 
L 204.136364 229.406141 
L 209.772727 218.749946 
L 221.045455 197.280789 
L 225.272727 189.833104 
L 228.090909 185.223979 
L 230.909091 180.92187 
L 235.136364 174.977062 
L 239.363636 169.481031 
L 243.590909 164.341895 
L 247.818182 159.590728 
L 252.045455 155.277159 
L 256.272727 151.367199 
L 263.318182 145.333404 
L 267.545455 141.633452 
L 270.363636 138.987997 
L 273.181818 136.1107 
L 276 132.965736 
L 278.818182 129.550104 
L 283.045455 123.994309 
L 290.090909 114.445051 
L 292.909091 110.927421 
L 295.727273 107.73832 
L 298.545455 104.923819 
L 301.363636 102.4943 
L 304.181818 100.428457 
L 307 98.677102 
L 309.818182 97.167972 
L 314.045455 95.189165 
L 326.727273 89.729813 
L 332.363636 87.401866 
L 336.590909 85.873412 
L 339.409091 85.059502 
L 342.227273 84.494261 
L 345.045455 84.253793 
L 347.863636 84.392406 
L 350.681818 84.942882 
L 353.5 85.921781 
L 356.318182 87.334497 
L 359.136364 89.167428 
L 361.954545 91.392375 
L 364.772727 93.960834 
L 367.590909 96.808105 
L 371.818182 101.447895 
L 383.090909 114.196803 
L 387.318182 118.467999 
L 390.136364 121.020278 
L 392.954545 123.290154 
L 395.772727 125.248357 
L 398.590909 126.872308 
L 401.409091 128.146796 
L 404.227273 129.071073 
L 407.045455 129.661568 
L 409.863636 129.961172 
L 412.681818 130.034441 
L 416.909091 129.856231 
L 423.954545 129.246529 
L 429.590909 128.597492 
L 432.409091 128.115621 
L 435.227273 127.4335 
L 438.045455 126.469758 
L 440.863636 125.167803 
L 443.681818 123.479722 
L 446.5 121.394107 
L 449.318182 118.937354 
L 452.136364 116.158354 
L 456.363636 111.551198 
L 474.681818 90.70705 
L 478.909091 86.342879 
L 481.727273 83.695596 
L 484.545455 81.342668 
L 487.363636 79.350175 
L 490.181818 77.762557 
L 493 76.591489 
L 495.818182 75.821927 
L 498.636364 75.431119 
L 501.454545 75.381888 
L 504.272727 75.617545 
L 507.090909 76.065374 
L 519.772727 78.542393 
L 524 78.941826 
L 529.636364 79.128052 
L 535.272727 79.370266 
L 539.5 79.799909 
L 543.727273 80.439862 
L 550.772727 81.778586 
L 555 82.722013 
L 557.818182 83.484697 
L 560.636364 84.444927 
L 563.454545 85.700815 
L 566.272727 87.351683 
L 569.090909 89.479207 
L 571.909091 92.136787 
L 574.727273 95.348415 
L 577.545455 99.110886 
L 580.363636 103.398881 
L 583.181818 108.171477 
L 586 113.376672 
L 588.818182 118.954625 
L 593.045455 127.88742 
L 598.681818 140.551463 
L 607.136364 160.341956 
L 621.227273 193.402783 
L 631.090909 216.001847 
L 639.545455 234.830916 
L 646.590909 249.928787 
L 648 252.847824 
L 648 252.847824 
" style="fill:none;stroke:#008000;stroke-linecap:square;stroke-width:1.5;"/>
   </g>
   <g id="line2d_105">
    <path clip-path="url(#pafaf42f1fc)" d="M 90 136.286426 
L 91.409091 302.645455 
L 92.818182 220.551806 
L 94.227273 200.873338 
L 95.636364 199.812798 
L 98.454545 206.25195 
L 99.863636 208.603648 
L 106.909091 219.023415 
L 128.045455 249.202192 
L 132.272727 254.773023 
L 135.090909 258.152261 
L 137.909091 261.285615 
L 140.727273 264.089142 
L 143.545455 266.48129 
L 146.363636 268.408747 
L 149.181818 269.885861 
L 150.590909 270.437442 
L 152 270.854982 
L 153.409091 271.128943 
L 154.818182 271.255102 
L 156.227273 271.232435 
L 157.636364 271.058196 
L 159.045455 270.740067 
L 161.863636 269.732714 
L 163.272727 269.054696 
L 164.681818 268.228704 
L 167.5 266.173708 
L 170.318182 263.636157 
L 173.136364 260.5781 
L 175.954545 257.074215 
L 178.772727 253.159349 
L 181.590909 248.919502 
L 185.818182 242.021074 
L 190.045455 234.640701 
L 194.272727 226.836233 
L 199.909091 215.950982 
L 209.772727 196.766879 
L 214 188.946697 
L 216.818182 184.124678 
L 219.636364 179.695979 
L 222.454545 175.618088 
L 226.681818 170.106131 
L 232.318182 163.272918 
L 236.545455 158.4175 
L 240.772727 154.028612 
L 243.590909 151.396742 
L 247.818182 147.814528 
L 257.681818 139.80245 
L 260.5 137.215333 
L 263.318182 134.387951 
L 266.136364 131.183998 
L 268.954545 127.622191 
L 273.181818 121.818666 
L 281.636364 109.744072 
L 284.454545 106.273479 
L 287.272727 103.309436 
L 290.090909 100.818313 
L 292.909091 98.788029 
L 295.727273 97.160182 
L 298.545455 95.848784 
L 302.772727 94.221508 
L 309.818182 91.539273 
L 316.863636 88.531079 
L 322.5 86.147813 
L 326.727273 84.627911 
L 329.545455 83.803965 
L 332.363636 83.278318 
L 333.772727 83.152171 
L 335.181818 83.139303 
L 336.590909 83.253102 
L 338 83.508334 
L 339.409091 83.900933 
L 340.818182 84.42423 
L 342.227273 85.071013 
L 343.636364 85.845749 
L 346.454545 87.781145 
L 349.272727 90.210435 
L 352.090909 93.103173 
L 354.909091 96.36346 
L 359.136364 101.739503 
L 367.590909 112.73525 
L 370.409091 116.131572 
L 373.227273 119.252778 
L 376.045455 122.068944 
L 378.863636 124.569042 
L 381.681818 126.716033 
L 384.5 128.480664 
L 387.318182 129.852311 
L 390.136364 130.841755 
L 392.954545 131.452355 
L 395.772727 131.686208 
L 398.590909 131.606491 
L 401.409091 131.273486 
L 416.909091 128.905684 
L 421.136364 128.346174 
L 423.954545 127.745883 
L 426.772727 126.884581 
L 428.181818 126.32352 
L 429.590909 125.638947 
L 432.409091 123.915485 
L 435.227273 121.798818 
L 438.045455 119.218335 
L 440.863636 116.26888 
L 443.681818 113.0701 
L 449.318182 106.202336 
L 454.954545 99.361999 
L 460.590909 92.95588 
L 467.636364 85.275721 
L 470.454545 82.461177 
L 473.272727 79.93127 
L 476.090909 77.769075 
L 478.909091 76.077956 
L 480.318182 75.423478 
L 481.727273 74.906067 
L 483.136364 74.518247 
L 484.545455 74.251205 
L 487.363636 74.047731 
L 490.181818 74.201736 
L 493 74.710566 
L 495.818182 75.483403 
L 504.272727 78.147511 
L 507.090909 78.780968 
L 509.909091 79.21701 
L 512.727273 79.436138 
L 516.954545 79.416697 
L 522.590909 79.211772 
L 525.409091 79.322325 
L 528.227273 79.6603 
L 532.454545 80.458167 
L 545.136364 83.282472 
L 547.954545 84.026191 
L 550.772727 84.999822 
L 553.590909 86.3464 
L 555 87.219659 
L 556.409091 88.251813 
L 557.818182 89.452091 
L 559.227273 90.835552 
L 560.636364 92.421804 
L 562.045455 94.20217 
L 563.454545 96.170629 
L 566.272727 100.67985 
L 569.090909 105.899785 
L 571.909091 111.749736 
L 574.727273 118.130381 
L 577.545455 124.952399 
L 581.772727 135.79199 
L 587.409091 150.946577 
L 604.318182 197.256199 
L 609.954545 211.931291 
L 615.590909 226.139074 
L 621.227273 239.728252 
L 625.454545 249.438765 
L 629.681818 258.622759 
L 633.909091 267.119367 
L 636.727273 272.332778 
L 639.545455 277.089727 
L 642.363636 281.32058 
L 645.181818 284.930462 
L 646.590909 286.444872 
L 648 287.768787 
L 648 287.768787 
" style="fill:none;stroke:#0000ff;stroke-linecap:square;stroke-width:1.5;"/>
   </g>
   <g id="line2d_106">
    <path clip-path="url(#pafaf42f1fc)" d="M 104.087646 361 
L 104.090909 195.900041 
L 105.5 195.900041 
L 105.503263 361 
M 113.951282 361 
L 113.954545 195.900041 
L 115.363636 195.900041 
L 115.366899 361 
M 119.587223 361 
L 119.590909 174.437724 
L 121 195.900041 
L 121.003263 361 
M 125.223587 361 
L 125.227273 174.437724 
L 125.230959 361 
M 129.450859 361 
L 129.454545 174.437724 
L 130.863636 195.900041 
L 130.866899 361 
M 137.905405 361 
L 137.909091 174.437724 
L 137.912777 361 
M 194.268794 361 
L 194.272727 161.883074 
L 194.276661 361 
M 206.951282 361 
L 206.954545 195.900041 
L 206.957808 361 
M 209.769041 361 
L 209.772727 174.437724 
L 209.776413 361 
M 218.223339 361 
L 218.227273 161.883074 
L 218.231206 361 
M 222.451282 361 
L 222.454545 195.900041 
L 223.863636 195.900041 
L 225.272727 174.437724 
L 226.681818 161.883074 
L 228.090909 174.437724 
L 229.5 152.975408 
L 230.909091 195.900041 
L 232.318182 174.437724 
L 233.727273 146.066085 
L 235.136364 195.900041 
L 236.545455 195.900041 
L 236.548718 361 
M 239.360373 361 
L 239.363636 195.900041 
L 240.772727 195.900041 
L 240.77599 361 
M 243.587223 361 
L 243.590909 174.437724 
L 245 152.975408 
L 246.409091 161.883074 
L 247.818182 152.975408 
L 249.227273 135.647701 
L 250.636364 161.883074 
L 252.045455 174.437724 
L 253.454545 124.603769 
L 254.863636 140.420758 
L 256.272727 161.883074 
L 257.681818 146.066085 
L 259.090909 152.975408 
L 260.5 195.900041 
L 261.909091 195.900041 
L 263.318182 140.420758 
L 264.727273 118.958441 
L 266.136364 140.420758 
L 267.545455 131.513092 
L 268.954545 140.420758 
L 270.363636 174.437724 
L 271.772727 152.975408 
L 273.181818 140.420758 
L 274.590909 146.066085 
L 276 131.513092 
L 277.409091 127.866107 
L 278.818182 131.513092 
L 280.227273 152.975408 
L 281.636364 161.883074 
L 283.045455 152.975408 
L 284.454545 108.17362 
L 285.863636 127.866107 
L 287.272727 131.513092 
L 288.681818 97.496125 
L 290.090909 114.185385 
L 291.5 121.652625 
L 292.909091 97.496125 
L 294.318182 116.480033 
L 295.727273 98.813923 
L 297.136364 100.190308 
L 298.545455 86.711304 
L 299.954545 114.185385 
L 301.363636 152.975408 
L 302.772727 80.168418 
L 304.181818 88.588459 
L 305.590909 100.190308 
L 307 110.050775 
L 308.409091 86.711304 
L 309.818182 135.647701 
L 311.227273 146.066085 
L 312.636364 86.711304 
L 314.045455 100.190308 
L 315.454545 72.9656 
L 316.863636 108.17362 
L 318.272727 93.849141 
L 319.681818 114.185385 
L 321.090909 110.050775 
L 322.5 91.636516 
L 323.909091 97.496125 
L 325.318182 88.588459 
L 326.727273 74.156653 
L 328.136364 81.679136 
L 329.545455 108.17362 
L 330.954545 100.190308 
L 332.363636 88.588459 
L 333.772727 97.496125 
L 335.181818 78.727992 
L 336.590909 84.093104 
L 338 93.849141 
L 339.409091 96.23213 
L 340.818182 95.017716 
L 342.227273 106.403791 
L 343.636364 61.00075 
L 345.045455 78.727992 
L 346.454545 71.260752 
L 347.863636 85.813746 
L 349.272727 80.168418 
L 350.681818 91.636516 
L 352.090909 140.420758 
L 353.5 95.017716 
L 354.909091 69.124486 
L 356.318182 76.685697 
L 357.727273 80.168418 
L 359.136364 96.23213 
L 360.545455 104.729676 
L 361.954545 84.941475 
L 363.363636 87.635658 
L 364.772727 84.093104 
L 366.181818 88.588459 
L 367.590909 79.43983 
L 369 131.513092 
L 370.409091 131.513092 
L 371.818182 90.586802 
L 373.227273 93.849141 
L 374.636364 121.652625 
L 376.045455 101.630735 
L 377.454545 112.049119 
L 378.863636 152.975408 
L 380.272727 140.420758 
L 381.681818 106.403791 
L 383.090909 140.420758 
L 384.5 93.849141 
L 385.909091 106.403791 
L 387.318182 100.190308 
L 387.32333 361 
M 390.13243 361 
L 390.136364 161.883074 
L 391.545455 135.647701 
L 392.954545 114.185385 
L 394.363636 110.050775 
L 395.772727 124.603769 
L 397.181818 127.866107 
L 398.590909 161.883074 
L 400 140.420758 
L 401.409091 116.480033 
L 402.818182 121.652625 
L 404.227273 118.958441 
L 405.636364 161.883074 
L 407.045455 124.603769 
L 408.454545 161.883074 
L 409.863636 174.437724 
L 411.272727 131.513092 
L 412.681818 146.066085 
L 414.090909 104.729676 
L 415.5 140.420758 
L 416.909091 121.652625 
L 418.318182 161.883074 
L 419.727273 146.066085 
L 421.136364 97.496125 
L 422.545455 96.23213 
L 423.954545 174.437724 
L 426.772727 116.480033 
L 428.181818 174.437724 
L 429.590909 161.883074 
L 431 131.513092 
L 432.409091 104.729676 
L 433.818182 118.958441 
L 435.227273 121.652625 
L 436.636364 131.513092 
L 438.045455 146.066085 
L 439.454545 174.437724 
L 440.863636 121.652625 
L 442.272727 146.066085 
L 443.681818 124.603769 
L 445.090909 106.403791 
L 446.5 131.513092 
L 447.909091 146.066085 
L 449.318182 146.066085 
L 450.727273 116.480033 
L 452.136364 135.647701 
L 453.545455 100.190308 
L 454.954545 114.185385 
L 456.363636 95.017716 
L 457.772727 118.958441 
L 459.181818 93.849141 
L 460.590909 118.958441 
L 462 101.630735 
L 463.409091 91.636516 
L 464.818182 96.23213 
L 466.227273 112.049119 
L 467.636364 97.496125 
L 469.045455 98.813923 
L 470.454545 98.813923 
L 471.863636 106.403791 
L 473.272727 95.017716 
L 474.681818 86.711304 
L 476.090909 97.496125 
L 477.5 101.630735 
L 478.909091 80.168418 
L 480.318182 87.635658 
L 481.727273 85.813746 
L 483.136364 76.685697 
L 484.545455 85.813746 
L 485.954545 81.679136 
L 487.363636 76.033809 
L 488.772727 67.613768 
L 490.181818 77.351606 
L 491.590909 72.386824 
L 493 80.914565 
L 494.409091 73.5554 
L 495.818182 72.386824 
L 497.227273 83.26736 
L 498.636364 84.093104 
L 500.045455 55.554545 
L 501.454545 81.679136 
L 502.863636 68.109196 
L 504.272727 78.727992 
L 505.681818 76.033809 
L 507.090909 76.685697 
L 508.5 78.727992 
L 509.909091 66.646077 
L 511.318182 74.156653 
L 512.727273 69.644894 
L 514.136364 106.403791 
L 515.545455 72.9656 
L 516.954545 146.066085 
L 519.772727 72.386824 
L 521.181818 80.168418 
L 522.590909 88.588459 
L 524 80.168418 
L 525.409091 74.769814 
L 526.818182 112.049119 
L 528.227273 108.17362 
L 529.636364 68.109196 
L 531.045455 64.351429 
L 532.454545 68.109196 
L 533.863636 63.052068 
L 535.272727 70.71271 
L 536.681818 90.586802 
L 538.090909 101.630735 
L 539.5 62.215163 
L 540.909091 78.032152 
L 542.318182 88.588459 
L 543.727273 78.032152 
L 545.136364 77.351606 
L 546.545455 92.723068 
L 547.954545 112.049119 
L 549.363636 70.174199 
L 550.772727 90.586802 
L 552.181818 80.168418 
L 553.590909 87.635658 
L 555 110.050775 
L 556.409091 114.185385 
L 557.818182 93.849141 
L 560.636364 78.032152 
L 562.045455 68.109196 
L 563.454545 95.017716 
L 564.863636 87.635658 
L 566.272727 127.866107 
L 567.681818 87.635658 
L 569.090909 71.260752 
L 570.5 86.711304 
L 571.909091 73.5554 
L 573.318182 89.571512 
L 574.727273 85.813746 
L 576.136364 95.017716 
L 577.545455 116.480033 
L 578.954545 83.26736 
L 580.363636 118.958441 
L 581.772727 93.849141 
L 583.181818 118.958441 
L 584.590909 101.630735 
L 586 146.066085 
L 587.409091 110.050775 
L 588.818182 108.17362 
L 590.227273 161.883074 
L 591.636364 116.480033 
L 593.045455 118.958441 
L 594.454545 131.513092 
L 595.863636 161.883074 
L 597.272727 131.513092 
L 598.681818 152.975408 
L 600.090909 135.647701 
L 601.5 152.975408 
L 602.909091 140.420758 
L 604.318182 195.900041 
L 605.727273 152.975408 
L 608.545455 195.900041 
L 609.954545 195.900041 
L 611.363636 161.883074 
L 612.772727 152.975408 
L 614.181818 195.900041 
L 614.185081 361 
M 619.814496 361 
L 619.818182 174.437724 
L 621.227273 195.900041 
L 621.230536 361 
M 624.041521 361 
L 624.045455 161.883074 
L 624.049388 361 
M 628.269041 361 
L 628.272727 174.437724 
L 629.681818 195.900041 
L 631.090909 195.900041 
L 631.094172 361 
M 635.314919 361 
L 635.318182 195.900041 
L 636.727273 195.900041 
L 636.730536 361 
M 642.35995 361 
L 642.363636 174.437724 
L 642.367322 361 
" style="fill:none;stroke:#ff0000;stroke-linecap:square;stroke-opacity:0.7;stroke-width:1.5;"/>
   </g>
   <g id="patch_3">
    <path d="M 90 315 
L 90 43.2 
" style="fill:none;stroke:#000000;stroke-linecap:square;stroke-linejoin:miter;stroke-width:0.8;"/>
   </g>
   <g id="patch_4">
    <path d="M 648 315 
L 648 43.2 
" style="fill:none;stroke:#000000;stroke-linecap:square;stroke-linejoin:miter;stroke-width:0.8;"/>
   </g>
   <g id="patch_5">
    <path d="M 90 315 
L 648 315 
" style="fill:none;stroke:#000000;stroke-linecap:square;stroke-linejoin:miter;stroke-width:0.8;"/>
   </g>
   <g id="patch_6">
    <path d="M 90 43.2 
L 648 43.2 
" style="fill:none;stroke:#000000;stroke-linecap:square;stroke-linejoin:miter;stroke-width:0.8;"/>
   </g>
   <g id="text_19">
    <!-- 246   -->
    <g transform="translate(334.060313 37.2)scale(0.12 -0.12)">
     <defs>
      <path d="M 37.796875 64.3125 
L 12.890625 25.390625 
L 37.796875 25.390625 
z
M 35.203125 72.90625 
L 47.609375 72.90625 
L 47.609375 25.390625 
L 58.015625 25.390625 
L 58.015625 17.1875 
L 47.609375 17.1875 
L 47.609375 0 
L 37.796875 0 
L 37.796875 17.1875 
L 4.890625 17.1875 
L 4.890625 26.703125 
z
" id="DejaVuSans-52"/>
      <path d="M 33.015625 40.375 
Q 26.375 40.375 22.484375 35.828125 
Q 18.609375 31.296875 18.609375 23.390625 
Q 18.609375 15.53125 22.484375 10.953125 
Q 26.375 6.390625 33.015625 6.390625 
Q 39.65625 6.390625 43.53125 10.953125 
Q 47.40625 15.53125 47.40625 23.390625 
Q 47.40625 31.296875 43.53125 35.828125 
Q 39.65625 40.375 33.015625 40.375 
z
M 52.59375 71.296875 
L 52.59375 62.3125 
Q 48.875 64.0625 45.09375 64.984375 
Q 41.3125 65.921875 37.59375 65.921875 
Q 27.828125 65.921875 22.671875 59.328125 
Q 17.53125 52.734375 16.796875 39.40625 
Q 19.671875 43.65625 24.015625 45.921875 
Q 28.375 48.1875 33.59375 48.1875 
Q 44.578125 48.1875 50.953125 41.515625 
Q 57.328125 34.859375 57.328125 23.390625 
Q 57.328125 12.15625 50.6875 5.359375 
Q 44.046875 -1.421875 33.015625 -1.421875 
Q 20.359375 -1.421875 13.671875 8.265625 
Q 6.984375 17.96875 6.984375 36.375 
Q 6.984375 53.65625 15.1875 63.9375 
Q 23.390625 74.21875 37.203125 74.21875 
Q 40.921875 74.21875 44.703125 73.484375 
Q 48.484375 72.75 52.59375 71.296875 
z
" id="DejaVuSans-54"/>
      <path id="DejaVuSans-32"/>
      <path d="M 18.171875 54.6875 
L 18.171875 0 
L 9.078125 0 
L 9.078125 54.6875 
z
" id="DejaVuSans-1493"/>
      <path d="M 4.296875 54.6875 
L 21.09375 54.6875 
Q 26.8125 54.6875 31.375 53.125 
Q 35.9375 51.5625 38.859375 48.953125 
Q 41.796875 46.34375 43.75 42.765625 
Q 45.703125 39.203125 46.53125 35.375 
Q 47.359375 31.546875 47.359375 27.34375 
Q 47.359375 23.140625 46.53125 19.3125 
Q 45.703125 15.484375 43.75 11.90625 
Q 41.796875 8.34375 38.859375 5.734375 
Q 35.9375 3.125 31.375 1.5625 
Q 26.8125 0 21.09375 0 
L 4.296875 0 
L 4.296875 6.9375 
L 21.09375 6.9375 
Q 25.984375 6.9375 29.421875 8.453125 
Q 32.859375 9.96875 34.765625 12.8125 
Q 36.671875 15.671875 37.5 19.203125 
Q 38.328125 22.75 38.328125 27.34375 
Q 38.328125 31.9375 37.5 35.46875 
Q 36.671875 39.015625 34.765625 41.875 
Q 32.859375 44.734375 29.421875 46.234375 
Q 25.984375 47.75 21.09375 47.75 
L 4.296875 47.75 
z
" id="DejaVuSans-1499"/>
      <path d="M 44.140625 40.828125 
L 44.140625 54.6875 
L 53.515625 54.6875 
L 53.515625 40.828125 
Q 53.515625 35.0625 53.046875 30.71875 
Q 52.59375 26.375 51.390625 22.09375 
Q 50.203125 17.828125 48.046875 14.5 
Q 45.90625 11.1875 42.578125 8.078125 
Q 39.265625 4.984375 34.515625 2.390625 
Q 29.78125 -0.203125 23.4375 -2.484375 
L 4.6875 -9.28125 
L 4.6875 -1.03125 
L 18.953125 4.046875 
L 4.296875 54.6875 
L 13.765625 54.6875 
L 27.25 7.125 
Q 33.6875 9.90625 37.203125 13.5625 
Q 40.71875 17.234375 42.421875 23.671875 
Q 44.140625 30.125 44.140625 40.828125 
z
" id="DejaVuSans-1506"/>
      <path d="M 47.359375 27.828125 
L 47.359375 0 
L 38.28125 0 
L 38.28125 27.828125 
Q 38.28125 31.390625 37.765625 34.265625 
Q 37.25 37.15625 36 39.71875 
Q 34.765625 42.28125 32.8125 43.984375 
Q 30.859375 45.703125 27.78125 46.703125 
Q 24.703125 47.703125 20.703125 47.703125 
L 4.296875 47.703125 
L 4.296875 54.6875 
L 20.65625 54.6875 
Q 26.8125 54.6875 31.46875 53.390625 
Q 36.140625 52.09375 39.109375 49.828125 
Q 42.09375 47.5625 43.96875 44.109375 
Q 45.84375 40.671875 46.59375 36.734375 
Q 47.359375 32.8125 47.359375 27.828125 
z
" id="DejaVuSans-1512"/>
      <path d="M 30.328125 54.6875 
L 30.328125 47.703125 
L 26.421875 47.703125 
Q 22.171875 47.703125 20.578125 43.921875 
Q 19 40.140625 19 30.90625 
L 19 0 
L 9.90625 0 
L 9.90625 30.90625 
Q 9.90625 37.109375 11.78125 41.453125 
Q 13.671875 45.796875 16.40625 47.703125 
L 4.296875 47.703125 
L 4.296875 54.6875 
z
" id="DejaVuSans-1494"/>
      <path d="M 43.75 20.0625 
L 57.671875 0 
L 47.078125 0 
L 26.765625 29.296875 
Q 25.390625 28.609375 24.53125 28.09375 
Q 23.6875 27.59375 22.3125 26.296875 
Q 20.953125 25 20.140625 23.40625 
Q 19.34375 21.828125 18.703125 19.140625 
Q 18.0625 16.453125 18.0625 13.09375 
L 18.0625 0 
L 9.078125 0 
L 9.078125 9.03125 
Q 9.078125 12.984375 9.5625 16.359375 
Q 10.0625 19.734375 10.8125 22.078125 
Q 11.578125 24.421875 12.796875 26.390625 
Q 14.015625 28.375 15.109375 29.59375 
Q 16.21875 30.8125 17.796875 31.875 
Q 19.390625 32.953125 20.453125 33.46875 
Q 21.53125 33.984375 23.046875 34.625 
L 9.1875 54.6875 
L 19.78125 54.6875 
L 40.09375 25.390625 
Q 41.40625 26.03125 42.25 26.53125 
Q 43.109375 27.046875 44.46875 28.359375 
Q 45.84375 29.6875 46.671875 31.265625 
Q 47.515625 32.859375 48.140625 35.546875 
Q 48.78125 38.234375 48.78125 41.609375 
L 48.78125 54.6875 
L 57.765625 54.6875 
L 57.765625 45.65625 
Q 57.765625 41.65625 57.265625 38.3125 
Q 56.78125 34.96875 56.03125 32.59375 
Q 55.28125 30.21875 54.046875 28.234375 
Q 52.828125 26.265625 51.703125 25.0625 
Q 50.59375 23.875 49.03125 22.796875 
Q 47.46875 21.734375 46.390625 21.21875 
Q 45.3125 20.703125 43.75 20.0625 
z
" id="DejaVuSans-1488"/>
     </defs>
     <use xlink:href="#DejaVuSans-50"/>
     <use x="63.623047" xlink:href="#DejaVuSans-52"/>
     <use x="127.246094" xlink:href="#DejaVuSans-54"/>
     <use x="190.869141" xlink:href="#DejaVuSans-32"/>
     <use x="222.65625" xlink:href="#DejaVuSans-1493"/>
     <use x="249.902344" xlink:href="#DejaVuSans-1499"/>
     <use x="302.783203" xlink:href="#DejaVuSans-1506"/>
     <use x="365.380859" xlink:href="#DejaVuSans-32"/>
     <use x="397.167969" xlink:href="#DejaVuSans-1512"/>
     <use x="453.613281" xlink:href="#DejaVuSans-1493"/>
     <use x="480.859375" xlink:href="#DejaVuSans-1494"/>
     <use x="515.478516" xlink:href="#DejaVuSans-1488"/>
    </g>
   </g>
   <g id="legend_1">
    <g id="patch_7">
     <path d="M 97 95.234375 
L 221.582812 95.234375 
Q 223.582812 95.234375 223.582812 93.234375 
L 223.582812 50.2 
Q 223.582812 48.2 221.582812 48.2 
L 97 48.2 
Q 95 48.2 95 50.2 
L 95 93.234375 
Q 95 95.234375 97 95.234375 
z
" style="fill:#ffffff;opacity:0.8;stroke:#cccccc;stroke-linejoin:miter;"/>
    </g>
    <g id="line2d_107">
     <path d="M 99 56.298437 
L 119 56.298437 
" style="fill:none;stroke:#008000;stroke-linecap:square;stroke-width:1.5;"/>
    </g>
    <g id="line2d_108"/>
    <g id="text_20">
     <!-- Test-adjusted -->
     <g transform="translate(127 59.798437)scale(0.1 -0.1)">
      <defs>
       <path d="M -0.296875 72.90625 
L 61.375 72.90625 
L 61.375 64.59375 
L 35.5 64.59375 
L 35.5 0 
L 25.59375 0 
L 25.59375 64.59375 
L -0.296875 64.59375 
z
" id="DejaVuSans-84"/>
       <path d="M 44.28125 53.078125 
L 44.28125 44.578125 
Q 40.484375 46.53125 36.375 47.5 
Q 32.28125 48.484375 27.875 48.484375 
Q 21.1875 48.484375 17.84375 46.4375 
Q 14.5 44.390625 14.5 40.28125 
Q 14.5 37.15625 16.890625 35.375 
Q 19.28125 33.59375 26.515625 31.984375 
L 29.59375 31.296875 
Q 39.15625 29.25 43.1875 25.515625 
Q 47.21875 21.78125 47.21875 15.09375 
Q 47.21875 7.46875 41.1875 3.015625 
Q 35.15625 -1.421875 24.609375 -1.421875 
Q 20.21875 -1.421875 15.453125 -0.5625 
Q 10.6875 0.296875 5.421875 2 
L 5.421875 11.28125 
Q 10.40625 8.6875 15.234375 7.390625 
Q 20.0625 6.109375 24.8125 6.109375 
Q 31.15625 6.109375 34.5625 8.28125 
Q 37.984375 10.453125 37.984375 14.40625 
Q 37.984375 18.0625 35.515625 20.015625 
Q 33.0625 21.96875 24.703125 23.78125 
L 21.578125 24.515625 
Q 13.234375 26.265625 9.515625 29.90625 
Q 5.8125 33.546875 5.8125 39.890625 
Q 5.8125 47.609375 11.28125 51.796875 
Q 16.75 56 26.8125 56 
Q 31.78125 56 36.171875 55.265625 
Q 40.578125 54.546875 44.28125 53.078125 
z
" id="DejaVuSans-115"/>
       <path d="M 4.890625 31.390625 
L 31.203125 31.390625 
L 31.203125 23.390625 
L 4.890625 23.390625 
z
" id="DejaVuSans-45"/>
       <path d="M 9.421875 54.6875 
L 18.40625 54.6875 
L 18.40625 -0.984375 
Q 18.40625 -11.421875 14.421875 -16.109375 
Q 10.453125 -20.796875 1.609375 -20.796875 
L -1.8125 -20.796875 
L -1.8125 -13.1875 
L 0.59375 -13.1875 
Q 5.71875 -13.1875 7.5625 -10.8125 
Q 9.421875 -8.453125 9.421875 -0.984375 
z
M 9.421875 75.984375 
L 18.40625 75.984375 
L 18.40625 64.59375 
L 9.421875 64.59375 
z
" id="DejaVuSans-106"/>
      </defs>
      <use xlink:href="#DejaVuSans-84"/>
      <use x="44.083984" xlink:href="#DejaVuSans-101"/>
      <use x="105.607422" xlink:href="#DejaVuSans-115"/>
      <use x="157.707031" xlink:href="#DejaVuSans-116"/>
      <use x="196.916016" xlink:href="#DejaVuSans-45"/>
      <use x="233" xlink:href="#DejaVuSans-97"/>
      <use x="294.279297" xlink:href="#DejaVuSans-100"/>
      <use x="357.755859" xlink:href="#DejaVuSans-106"/>
      <use x="385.539062" xlink:href="#DejaVuSans-117"/>
      <use x="448.917969" xlink:href="#DejaVuSans-115"/>
      <use x="501.017578" xlink:href="#DejaVuSans-116"/>
      <use x="540.226562" xlink:href="#DejaVuSans-101"/>
      <use x="601.75" xlink:href="#DejaVuSans-100"/>
     </g>
    </g>
    <g id="line2d_109">
     <path d="M 99 70.976562 
L 119 70.976562 
" style="fill:none;stroke:#0000ff;stroke-linecap:square;stroke-width:1.5;"/>
    </g>
    <g id="line2d_110"/>
    <g id="text_21">
     <!-- Infections -->
     <g transform="translate(127 74.476562)scale(0.1 -0.1)">
      <defs>
       <path d="M 9.8125 72.90625 
L 19.671875 72.90625 
L 19.671875 0 
L 9.8125 0 
z
" id="DejaVuSans-73"/>
       <path d="M 37.109375 75.984375 
L 37.109375 68.5 
L 28.515625 68.5 
Q 23.6875 68.5 21.796875 66.546875 
Q 19.921875 64.59375 19.921875 59.515625 
L 19.921875 54.6875 
L 34.71875 54.6875 
L 34.71875 47.703125 
L 19.921875 47.703125 
L 19.921875 0 
L 10.890625 0 
L 10.890625 47.703125 
L 2.296875 47.703125 
L 2.296875 54.6875 
L 10.890625 54.6875 
L 10.890625 58.5 
Q 10.890625 67.625 15.140625 71.796875 
Q 19.390625 75.984375 28.609375 75.984375 
z
" id="DejaVuSans-102"/>
       <path d="M 9.421875 54.6875 
L 18.40625 54.6875 
L 18.40625 0 
L 9.421875 0 
z
M 9.421875 75.984375 
L 18.40625 75.984375 
L 18.40625 64.59375 
L 9.421875 64.59375 
z
" id="DejaVuSans-105"/>
      </defs>
      <use xlink:href="#DejaVuSans-73"/>
      <use x="29.492188" xlink:href="#DejaVuSans-110"/>
      <use x="92.871094" xlink:href="#DejaVuSans-102"/>
      <use x="128.076172" xlink:href="#DejaVuSans-101"/>
      <use x="189.599609" xlink:href="#DejaVuSans-99"/>
      <use x="244.580078" xlink:href="#DejaVuSans-116"/>
      <use x="283.789062" xlink:href="#DejaVuSans-105"/>
      <use x="311.572266" xlink:href="#DejaVuSans-111"/>
      <use x="372.753906" xlink:href="#DejaVuSans-110"/>
      <use x="436.132812" xlink:href="#DejaVuSans-115"/>
     </g>
    </g>
    <g id="line2d_111">
     <path d="M 99 85.654687 
L 119 85.654687 
" style="fill:none;stroke:#ff0000;stroke-linecap:square;stroke-opacity:0.7;stroke-width:1.5;"/>
    </g>
    <g id="line2d_112"/>
    <g id="text_22">
     <!-- Reported Positives -->
     <g transform="translate(127 89.154687)scale(0.1 -0.1)">
      <defs>
       <path d="M 44.390625 34.1875 
Q 47.5625 33.109375 50.5625 29.59375 
Q 53.5625 26.078125 56.59375 19.921875 
L 66.609375 0 
L 56 0 
L 46.6875 18.703125 
Q 43.0625 26.03125 39.671875 28.421875 
Q 36.28125 30.8125 30.421875 30.8125 
L 19.671875 30.8125 
L 19.671875 0 
L 9.8125 0 
L 9.8125 72.90625 
L 32.078125 72.90625 
Q 44.578125 72.90625 50.734375 67.671875 
Q 56.890625 62.453125 56.890625 51.90625 
Q 56.890625 45.015625 53.6875 40.46875 
Q 50.484375 35.9375 44.390625 34.1875 
z
M 19.671875 64.796875 
L 19.671875 38.921875 
L 32.078125 38.921875 
Q 39.203125 38.921875 42.84375 42.21875 
Q 46.484375 45.515625 46.484375 51.90625 
Q 46.484375 58.296875 42.84375 61.546875 
Q 39.203125 64.796875 32.078125 64.796875 
z
" id="DejaVuSans-82"/>
       <path d="M 19.671875 64.796875 
L 19.671875 37.40625 
L 32.078125 37.40625 
Q 38.96875 37.40625 42.71875 40.96875 
Q 46.484375 44.53125 46.484375 51.125 
Q 46.484375 57.671875 42.71875 61.234375 
Q 38.96875 64.796875 32.078125 64.796875 
z
M 9.8125 72.90625 
L 32.078125 72.90625 
Q 44.34375 72.90625 50.609375 67.359375 
Q 56.890625 61.8125 56.890625 51.125 
Q 56.890625 40.328125 50.609375 34.8125 
Q 44.34375 29.296875 32.078125 29.296875 
L 19.671875 29.296875 
L 19.671875 0 
L 9.8125 0 
z
" id="DejaVuSans-80"/>
      </defs>
      <use xlink:href="#DejaVuSans-82"/>
      <use x="64.982422" xlink:href="#DejaVuSans-101"/>
      <use x="126.505859" xlink:href="#DejaVuSans-112"/>
      <use x="189.982422" xlink:href="#DejaVuSans-111"/>
      <use x="251.164062" xlink:href="#DejaVuSans-114"/>
      <use x="292.277344" xlink:href="#DejaVuSans-116"/>
      <use x="331.486328" xlink:href="#DejaVuSans-101"/>
      <use x="393.009766" xlink:href="#DejaVuSans-100"/>
      <use x="456.486328" xlink:href="#DejaVuSans-32"/>
      <use x="488.273438" xlink:href="#DejaVuSans-80"/>
      <use x="544.951172" xlink:href="#DejaVuSans-111"/>
      <use x="606.132812" xlink:href="#DejaVuSans-115"/>
      <use x="658.232422" xlink:href="#DejaVuSans-105"/>
      <use x="686.015625" xlink:href="#DejaVuSans-116"/>
      <use x="725.224609" xlink:href="#DejaVuSans-105"/>
      <use x="753.007812" xlink:href="#DejaVuSans-118"/>
      <use x="812.1875" xlink:href="#DejaVuSans-101"/>
      <use x="873.710938" xlink:href="#DejaVuSans-115"/>
     </g>
    </g>
   </g>
  </g>
 </g>
 <defs>
  <clipPath id="pafaf42f1fc">
   <rect height="271.8" width="558" x="90" y="43.2"/>
  </clipPath>
 </defs>
</svg>
