<?xml version="1.0" encoding="utf-8" standalone="no"?>
<!DOCTYPE svg PUBLIC "-//W3C//DTD SVG 1.1//EN"
  "http://www.w3.org/Graphics/SVG/1.1/DTD/svg11.dtd">
<!-- Created with matplotlib (https://matplotlib.org/) -->
<svg height="360pt" version="1.1" viewBox="0 0 720 360" width="720pt" xmlns="http://www.w3.org/2000/svg" xmlns:xlink="http://www.w3.org/1999/xlink">
 <metadata>
  <rdf:RDF xmlns:cc="http://creativecommons.org/ns#" xmlns:dc="http://purl.org/dc/elements/1.1/" xmlns:rdf="http://www.w3.org/1999/02/22-rdf-syntax-ns#">
   <cc:Work>
    <dc:type rdf:resource="http://purl.org/dc/dcmitype/StillImage"/>
    <dc:date>2021-04-05T00:14:04.496299</dc:date>
    <dc:format>image/svg+xml</dc:format>
    <dc:creator>
     <cc:Agent>
      <dc:title>Matplotlib v3.3.2, https://matplotlib.org/</dc:title>
     </cc:Agent>
    </dc:creator>
   </cc:Work>
  </rdf:RDF>
 </metadata>
 <defs>
  <style type="text/css">*{stroke-linecap:butt;stroke-linejoin:round;}</style>
 </defs>
 <g id="figure_1">
  <g id="patch_1">
   <path d="M 0 360 
L 720 360 
L 720 0 
L 0 0 
z
" style="fill:#ffffff;"/>
  </g>
  <g id="axes_1">
   <g id="patch_2">
    <path d="M 90 315 
L 648 315 
L 648 43.2 
L 90 43.2 
z
" style="fill:#ffffff;"/>
   </g>
   <g id="matplotlib.axis_1">
    <g id="xtick_1">
     <g id="line2d_1">
      <defs>
       <path d="M 0 0 
L 0 3.5 
" id="m8ca5c18ca2" style="stroke:#000000;stroke-width:0.8;"/>
      </defs>
      <g>
       <use style="stroke:#000000;stroke-width:0.8;" x="90" xlink:href="#m8ca5c18ca2" y="315"/>
      </g>
     </g>
    </g>
    <g id="xtick_2">
     <g id="line2d_2">
      <g>
       <use style="stroke:#000000;stroke-width:0.8;" x="110.557895" xlink:href="#m8ca5c18ca2" y="315"/>
      </g>
     </g>
     <g id="text_1">
      <!-- Apr -->
      <g transform="translate(101.907895 329.598437)scale(0.1 -0.1)">
       <defs>
        <path d="M 34.1875 63.1875 
L 20.796875 26.90625 
L 47.609375 26.90625 
z
M 28.609375 72.90625 
L 39.796875 72.90625 
L 67.578125 0 
L 57.328125 0 
L 50.6875 18.703125 
L 17.828125 18.703125 
L 11.1875 0 
L 0.78125 0 
z
" id="DejaVuSans-65"/>
        <path d="M 18.109375 8.203125 
L 18.109375 -20.796875 
L 9.078125 -20.796875 
L 9.078125 54.6875 
L 18.109375 54.6875 
L 18.109375 46.390625 
Q 20.953125 51.265625 25.265625 53.625 
Q 29.59375 56 35.59375 56 
Q 45.5625 56 51.78125 48.09375 
Q 58.015625 40.1875 58.015625 27.296875 
Q 58.015625 14.40625 51.78125 6.484375 
Q 45.5625 -1.421875 35.59375 -1.421875 
Q 29.59375 -1.421875 25.265625 0.953125 
Q 20.953125 3.328125 18.109375 8.203125 
z
M 48.6875 27.296875 
Q 48.6875 37.203125 44.609375 42.84375 
Q 40.53125 48.484375 33.40625 48.484375 
Q 26.265625 48.484375 22.1875 42.84375 
Q 18.109375 37.203125 18.109375 27.296875 
Q 18.109375 17.390625 22.1875 11.75 
Q 26.265625 6.109375 33.40625 6.109375 
Q 40.53125 6.109375 44.609375 11.75 
Q 48.6875 17.390625 48.6875 27.296875 
z
" id="DejaVuSans-112"/>
        <path d="M 41.109375 46.296875 
Q 39.59375 47.171875 37.8125 47.578125 
Q 36.03125 48 33.890625 48 
Q 26.265625 48 22.1875 43.046875 
Q 18.109375 38.09375 18.109375 28.8125 
L 18.109375 0 
L 9.078125 0 
L 9.078125 54.6875 
L 18.109375 54.6875 
L 18.109375 46.1875 
Q 20.953125 51.171875 25.484375 53.578125 
Q 30.03125 56 36.53125 56 
Q 37.453125 56 38.578125 55.875 
Q 39.703125 55.765625 41.0625 55.515625 
z
" id="DejaVuSans-114"/>
       </defs>
       <use xlink:href="#DejaVuSans-65"/>
       <use x="68.408203" xlink:href="#DejaVuSans-112"/>
       <use x="131.884766" xlink:href="#DejaVuSans-114"/>
      </g>
     </g>
    </g>
    <g id="xtick_3">
     <g id="line2d_3">
      <g>
       <use style="stroke:#000000;stroke-width:0.8;" x="154.610526" xlink:href="#m8ca5c18ca2" y="315"/>
      </g>
     </g>
     <g id="text_2">
      <!-- May -->
      <g transform="translate(144.273026 329.598437)scale(0.1 -0.1)">
       <defs>
        <path d="M 9.8125 72.90625 
L 24.515625 72.90625 
L 43.109375 23.296875 
L 61.8125 72.90625 
L 76.515625 72.90625 
L 76.515625 0 
L 66.890625 0 
L 66.890625 64.015625 
L 48.09375 14.015625 
L 38.1875 14.015625 
L 19.390625 64.015625 
L 19.390625 0 
L 9.8125 0 
z
" id="DejaVuSans-77"/>
        <path d="M 34.28125 27.484375 
Q 23.390625 27.484375 19.1875 25 
Q 14.984375 22.515625 14.984375 16.5 
Q 14.984375 11.71875 18.140625 8.90625 
Q 21.296875 6.109375 26.703125 6.109375 
Q 34.1875 6.109375 38.703125 11.40625 
Q 43.21875 16.703125 43.21875 25.484375 
L 43.21875 27.484375 
z
M 52.203125 31.203125 
L 52.203125 0 
L 43.21875 0 
L 43.21875 8.296875 
Q 40.140625 3.328125 35.546875 0.953125 
Q 30.953125 -1.421875 24.3125 -1.421875 
Q 15.921875 -1.421875 10.953125 3.296875 
Q 6 8.015625 6 15.921875 
Q 6 25.140625 12.171875 29.828125 
Q 18.359375 34.515625 30.609375 34.515625 
L 43.21875 34.515625 
L 43.21875 35.40625 
Q 43.21875 41.609375 39.140625 45 
Q 35.0625 48.390625 27.6875 48.390625 
Q 23 48.390625 18.546875 47.265625 
Q 14.109375 46.140625 10.015625 43.890625 
L 10.015625 52.203125 
Q 14.9375 54.109375 19.578125 55.046875 
Q 24.21875 56 28.609375 56 
Q 40.484375 56 46.34375 49.84375 
Q 52.203125 43.703125 52.203125 31.203125 
z
" id="DejaVuSans-97"/>
        <path d="M 32.171875 -5.078125 
Q 28.375 -14.84375 24.75 -17.8125 
Q 21.140625 -20.796875 15.09375 -20.796875 
L 7.90625 -20.796875 
L 7.90625 -13.28125 
L 13.1875 -13.28125 
Q 16.890625 -13.28125 18.9375 -11.515625 
Q 21 -9.765625 23.484375 -3.21875 
L 25.09375 0.875 
L 2.984375 54.6875 
L 12.5 54.6875 
L 29.59375 11.921875 
L 46.6875 54.6875 
L 56.203125 54.6875 
z
" id="DejaVuSans-121"/>
       </defs>
       <use xlink:href="#DejaVuSans-77"/>
       <use x="86.279297" xlink:href="#DejaVuSans-97"/>
       <use x="147.558594" xlink:href="#DejaVuSans-121"/>
      </g>
     </g>
    </g>
    <g id="xtick_4">
     <g id="line2d_4">
      <g>
       <use style="stroke:#000000;stroke-width:0.8;" x="200.131579" xlink:href="#m8ca5c18ca2" y="315"/>
      </g>
     </g>
     <g id="text_3">
      <!-- Jun -->
      <g transform="translate(192.319079 329.598437)scale(0.1 -0.1)">
       <defs>
        <path d="M 9.8125 72.90625 
L 19.671875 72.90625 
L 19.671875 5.078125 
Q 19.671875 -8.109375 14.671875 -14.0625 
Q 9.671875 -20.015625 -1.421875 -20.015625 
L -5.171875 -20.015625 
L -5.171875 -11.71875 
L -2.09375 -11.71875 
Q 4.4375 -11.71875 7.125 -8.046875 
Q 9.8125 -4.390625 9.8125 5.078125 
z
" id="DejaVuSans-74"/>
        <path d="M 8.5 21.578125 
L 8.5 54.6875 
L 17.484375 54.6875 
L 17.484375 21.921875 
Q 17.484375 14.15625 20.5 10.265625 
Q 23.53125 6.390625 29.59375 6.390625 
Q 36.859375 6.390625 41.078125 11.03125 
Q 45.3125 15.671875 45.3125 23.6875 
L 45.3125 54.6875 
L 54.296875 54.6875 
L 54.296875 0 
L 45.3125 0 
L 45.3125 8.40625 
Q 42.046875 3.421875 37.71875 1 
Q 33.40625 -1.421875 27.6875 -1.421875 
Q 18.265625 -1.421875 13.375 4.4375 
Q 8.5 10.296875 8.5 21.578125 
z
M 31.109375 56 
z
" id="DejaVuSans-117"/>
        <path d="M 54.890625 33.015625 
L 54.890625 0 
L 45.90625 0 
L 45.90625 32.71875 
Q 45.90625 40.484375 42.875 44.328125 
Q 39.84375 48.1875 33.796875 48.1875 
Q 26.515625 48.1875 22.3125 43.546875 
Q 18.109375 38.921875 18.109375 30.90625 
L 18.109375 0 
L 9.078125 0 
L 9.078125 54.6875 
L 18.109375 54.6875 
L 18.109375 46.1875 
Q 21.34375 51.125 25.703125 53.5625 
Q 30.078125 56 35.796875 56 
Q 45.21875 56 50.046875 50.171875 
Q 54.890625 44.34375 54.890625 33.015625 
z
" id="DejaVuSans-110"/>
       </defs>
       <use xlink:href="#DejaVuSans-74"/>
       <use x="29.492188" xlink:href="#DejaVuSans-117"/>
       <use x="92.871094" xlink:href="#DejaVuSans-110"/>
      </g>
     </g>
    </g>
    <g id="xtick_5">
     <g id="line2d_5">
      <g>
       <use style="stroke:#000000;stroke-width:0.8;" x="244.184211" xlink:href="#m8ca5c18ca2" y="315"/>
      </g>
     </g>
     <g id="text_4">
      <!-- Jul -->
      <g transform="translate(238.151398 329.598437)scale(0.1 -0.1)">
       <defs>
        <path d="M 9.421875 75.984375 
L 18.40625 75.984375 
L 18.40625 0 
L 9.421875 0 
z
" id="DejaVuSans-108"/>
       </defs>
       <use xlink:href="#DejaVuSans-74"/>
       <use x="29.492188" xlink:href="#DejaVuSans-117"/>
       <use x="92.871094" xlink:href="#DejaVuSans-108"/>
      </g>
     </g>
    </g>
    <g id="xtick_6">
     <g id="line2d_6">
      <g>
       <use style="stroke:#000000;stroke-width:0.8;" x="289.705263" xlink:href="#m8ca5c18ca2" y="315"/>
      </g>
     </g>
     <g id="text_5">
      <!-- Aug -->
      <g transform="translate(279.941982 329.598437)scale(0.1 -0.1)">
       <defs>
        <path d="M 45.40625 27.984375 
Q 45.40625 37.75 41.375 43.109375 
Q 37.359375 48.484375 30.078125 48.484375 
Q 22.859375 48.484375 18.828125 43.109375 
Q 14.796875 37.75 14.796875 27.984375 
Q 14.796875 18.265625 18.828125 12.890625 
Q 22.859375 7.515625 30.078125 7.515625 
Q 37.359375 7.515625 41.375 12.890625 
Q 45.40625 18.265625 45.40625 27.984375 
z
M 54.390625 6.78125 
Q 54.390625 -7.171875 48.1875 -13.984375 
Q 42 -20.796875 29.203125 -20.796875 
Q 24.46875 -20.796875 20.265625 -20.09375 
Q 16.0625 -19.390625 12.109375 -17.921875 
L 12.109375 -9.1875 
Q 16.0625 -11.328125 19.921875 -12.34375 
Q 23.78125 -13.375 27.78125 -13.375 
Q 36.625 -13.375 41.015625 -8.765625 
Q 45.40625 -4.15625 45.40625 5.171875 
L 45.40625 9.625 
Q 42.625 4.78125 38.28125 2.390625 
Q 33.9375 0 27.875 0 
Q 17.828125 0 11.671875 7.65625 
Q 5.515625 15.328125 5.515625 27.984375 
Q 5.515625 40.671875 11.671875 48.328125 
Q 17.828125 56 27.875 56 
Q 33.9375 56 38.28125 53.609375 
Q 42.625 51.21875 45.40625 46.390625 
L 45.40625 54.6875 
L 54.390625 54.6875 
z
" id="DejaVuSans-103"/>
       </defs>
       <use xlink:href="#DejaVuSans-65"/>
       <use x="68.408203" xlink:href="#DejaVuSans-117"/>
       <use x="131.787109" xlink:href="#DejaVuSans-103"/>
      </g>
     </g>
    </g>
    <g id="xtick_7">
     <g id="line2d_7">
      <g>
       <use style="stroke:#000000;stroke-width:0.8;" x="335.226316" xlink:href="#m8ca5c18ca2" y="315"/>
      </g>
     </g>
     <g id="text_6">
      <!-- Sep -->
      <g transform="translate(325.801316 329.598437)scale(0.1 -0.1)">
       <defs>
        <path d="M 53.515625 70.515625 
L 53.515625 60.890625 
Q 47.90625 63.578125 42.921875 64.890625 
Q 37.9375 66.21875 33.296875 66.21875 
Q 25.25 66.21875 20.875 63.09375 
Q 16.5 59.96875 16.5 54.203125 
Q 16.5 49.359375 19.40625 46.890625 
Q 22.3125 44.4375 30.421875 42.921875 
L 36.375 41.703125 
Q 47.40625 39.59375 52.65625 34.296875 
Q 57.90625 29 57.90625 20.125 
Q 57.90625 9.515625 50.796875 4.046875 
Q 43.703125 -1.421875 29.984375 -1.421875 
Q 24.8125 -1.421875 18.96875 -0.25 
Q 13.140625 0.921875 6.890625 3.21875 
L 6.890625 13.375 
Q 12.890625 10.015625 18.65625 8.296875 
Q 24.421875 6.59375 29.984375 6.59375 
Q 38.421875 6.59375 43.015625 9.90625 
Q 47.609375 13.234375 47.609375 19.390625 
Q 47.609375 24.75 44.3125 27.78125 
Q 41.015625 30.8125 33.5 32.328125 
L 27.484375 33.5 
Q 16.453125 35.6875 11.515625 40.375 
Q 6.59375 45.0625 6.59375 53.421875 
Q 6.59375 63.09375 13.40625 68.65625 
Q 20.21875 74.21875 32.171875 74.21875 
Q 37.3125 74.21875 42.625 73.28125 
Q 47.953125 72.359375 53.515625 70.515625 
z
" id="DejaVuSans-83"/>
        <path d="M 56.203125 29.59375 
L 56.203125 25.203125 
L 14.890625 25.203125 
Q 15.484375 15.921875 20.484375 11.0625 
Q 25.484375 6.203125 34.421875 6.203125 
Q 39.59375 6.203125 44.453125 7.46875 
Q 49.3125 8.734375 54.109375 11.28125 
L 54.109375 2.78125 
Q 49.265625 0.734375 44.1875 -0.34375 
Q 39.109375 -1.421875 33.890625 -1.421875 
Q 20.796875 -1.421875 13.15625 6.1875 
Q 5.515625 13.8125 5.515625 26.8125 
Q 5.515625 40.234375 12.765625 48.109375 
Q 20.015625 56 32.328125 56 
Q 43.359375 56 49.78125 48.890625 
Q 56.203125 41.796875 56.203125 29.59375 
z
M 47.21875 32.234375 
Q 47.125 39.59375 43.09375 43.984375 
Q 39.0625 48.390625 32.421875 48.390625 
Q 24.90625 48.390625 20.390625 44.140625 
Q 15.875 39.890625 15.1875 32.171875 
z
" id="DejaVuSans-101"/>
       </defs>
       <use xlink:href="#DejaVuSans-83"/>
       <use x="63.476562" xlink:href="#DejaVuSans-101"/>
       <use x="125" xlink:href="#DejaVuSans-112"/>
      </g>
     </g>
    </g>
    <g id="xtick_8">
     <g id="line2d_8">
      <g>
       <use style="stroke:#000000;stroke-width:0.8;" x="379.278947" xlink:href="#m8ca5c18ca2" y="315"/>
      </g>
     </g>
     <g id="text_7">
      <!-- Oct -->
      <g transform="translate(370.633635 329.598437)scale(0.1 -0.1)">
       <defs>
        <path d="M 39.40625 66.21875 
Q 28.65625 66.21875 22.328125 58.203125 
Q 16.015625 50.203125 16.015625 36.375 
Q 16.015625 22.609375 22.328125 14.59375 
Q 28.65625 6.59375 39.40625 6.59375 
Q 50.140625 6.59375 56.421875 14.59375 
Q 62.703125 22.609375 62.703125 36.375 
Q 62.703125 50.203125 56.421875 58.203125 
Q 50.140625 66.21875 39.40625 66.21875 
z
M 39.40625 74.21875 
Q 54.734375 74.21875 63.90625 63.9375 
Q 73.09375 53.65625 73.09375 36.375 
Q 73.09375 19.140625 63.90625 8.859375 
Q 54.734375 -1.421875 39.40625 -1.421875 
Q 24.03125 -1.421875 14.8125 8.828125 
Q 5.609375 19.09375 5.609375 36.375 
Q 5.609375 53.65625 14.8125 63.9375 
Q 24.03125 74.21875 39.40625 74.21875 
z
" id="DejaVuSans-79"/>
        <path d="M 48.78125 52.59375 
L 48.78125 44.1875 
Q 44.96875 46.296875 41.140625 47.34375 
Q 37.3125 48.390625 33.40625 48.390625 
Q 24.65625 48.390625 19.8125 42.84375 
Q 14.984375 37.3125 14.984375 27.296875 
Q 14.984375 17.28125 19.8125 11.734375 
Q 24.65625 6.203125 33.40625 6.203125 
Q 37.3125 6.203125 41.140625 7.25 
Q 44.96875 8.296875 48.78125 10.40625 
L 48.78125 2.09375 
Q 45.015625 0.34375 40.984375 -0.53125 
Q 36.96875 -1.421875 32.421875 -1.421875 
Q 20.0625 -1.421875 12.78125 6.34375 
Q 5.515625 14.109375 5.515625 27.296875 
Q 5.515625 40.671875 12.859375 48.328125 
Q 20.21875 56 33.015625 56 
Q 37.15625 56 41.109375 55.140625 
Q 45.0625 54.296875 48.78125 52.59375 
z
" id="DejaVuSans-99"/>
        <path d="M 18.3125 70.21875 
L 18.3125 54.6875 
L 36.8125 54.6875 
L 36.8125 47.703125 
L 18.3125 47.703125 
L 18.3125 18.015625 
Q 18.3125 11.328125 20.140625 9.421875 
Q 21.96875 7.515625 27.59375 7.515625 
L 36.8125 7.515625 
L 36.8125 0 
L 27.59375 0 
Q 17.1875 0 13.234375 3.875 
Q 9.28125 7.765625 9.28125 18.015625 
L 9.28125 47.703125 
L 2.6875 47.703125 
L 2.6875 54.6875 
L 9.28125 54.6875 
L 9.28125 70.21875 
z
" id="DejaVuSans-116"/>
       </defs>
       <use xlink:href="#DejaVuSans-79"/>
       <use x="78.710938" xlink:href="#DejaVuSans-99"/>
       <use x="133.691406" xlink:href="#DejaVuSans-116"/>
      </g>
     </g>
    </g>
    <g id="xtick_9">
     <g id="line2d_9">
      <g>
       <use style="stroke:#000000;stroke-width:0.8;" x="424.8" xlink:href="#m8ca5c18ca2" y="315"/>
      </g>
     </g>
     <g id="text_8">
      <!-- Nov -->
      <g transform="translate(415.040625 329.598437)scale(0.1 -0.1)">
       <defs>
        <path d="M 9.8125 72.90625 
L 23.09375 72.90625 
L 55.421875 11.921875 
L 55.421875 72.90625 
L 64.984375 72.90625 
L 64.984375 0 
L 51.703125 0 
L 19.390625 60.984375 
L 19.390625 0 
L 9.8125 0 
z
" id="DejaVuSans-78"/>
        <path d="M 30.609375 48.390625 
Q 23.390625 48.390625 19.1875 42.75 
Q 14.984375 37.109375 14.984375 27.296875 
Q 14.984375 17.484375 19.15625 11.84375 
Q 23.34375 6.203125 30.609375 6.203125 
Q 37.796875 6.203125 41.984375 11.859375 
Q 46.1875 17.53125 46.1875 27.296875 
Q 46.1875 37.015625 41.984375 42.703125 
Q 37.796875 48.390625 30.609375 48.390625 
z
M 30.609375 56 
Q 42.328125 56 49.015625 48.375 
Q 55.71875 40.765625 55.71875 27.296875 
Q 55.71875 13.875 49.015625 6.21875 
Q 42.328125 -1.421875 30.609375 -1.421875 
Q 18.84375 -1.421875 12.171875 6.21875 
Q 5.515625 13.875 5.515625 27.296875 
Q 5.515625 40.765625 12.171875 48.375 
Q 18.84375 56 30.609375 56 
z
" id="DejaVuSans-111"/>
        <path d="M 2.984375 54.6875 
L 12.5 54.6875 
L 29.59375 8.796875 
L 46.6875 54.6875 
L 56.203125 54.6875 
L 35.6875 0 
L 23.484375 0 
z
" id="DejaVuSans-118"/>
       </defs>
       <use xlink:href="#DejaVuSans-78"/>
       <use x="74.804688" xlink:href="#DejaVuSans-111"/>
       <use x="135.986328" xlink:href="#DejaVuSans-118"/>
      </g>
     </g>
    </g>
    <g id="xtick_10">
     <g id="line2d_10">
      <g>
       <use style="stroke:#000000;stroke-width:0.8;" x="468.852632" xlink:href="#m8ca5c18ca2" y="315"/>
      </g>
     </g>
     <g id="text_9">
      <!-- Dec -->
      <g transform="translate(459.17685 329.598437)scale(0.1 -0.1)">
       <defs>
        <path d="M 19.671875 64.796875 
L 19.671875 8.109375 
L 31.59375 8.109375 
Q 46.6875 8.109375 53.6875 14.9375 
Q 60.6875 21.78125 60.6875 36.53125 
Q 60.6875 51.171875 53.6875 57.984375 
Q 46.6875 64.796875 31.59375 64.796875 
z
M 9.8125 72.90625 
L 30.078125 72.90625 
Q 51.265625 72.90625 61.171875 64.09375 
Q 71.09375 55.28125 71.09375 36.53125 
Q 71.09375 17.671875 61.125 8.828125 
Q 51.171875 0 30.078125 0 
L 9.8125 0 
z
" id="DejaVuSans-68"/>
       </defs>
       <use xlink:href="#DejaVuSans-68"/>
       <use x="77.001953" xlink:href="#DejaVuSans-101"/>
       <use x="138.525391" xlink:href="#DejaVuSans-99"/>
      </g>
     </g>
    </g>
    <g id="xtick_11">
     <g id="line2d_11">
      <g>
       <use style="stroke:#000000;stroke-width:0.8;" x="514.373684" xlink:href="#m8ca5c18ca2" y="315"/>
      </g>
     </g>
     <g id="text_10">
      <!-- Jan -->
      <g transform="translate(506.665872 329.598437)scale(0.1 -0.1)">
       <use xlink:href="#DejaVuSans-74"/>
       <use x="29.492188" xlink:href="#DejaVuSans-97"/>
       <use x="90.771484" xlink:href="#DejaVuSans-110"/>
      </g>
      <!-- 2021 -->
      <g transform="translate(501.648684 340.79625)scale(0.1 -0.1)">
       <defs>
        <path d="M 19.1875 8.296875 
L 53.609375 8.296875 
L 53.609375 0 
L 7.328125 0 
L 7.328125 8.296875 
Q 12.9375 14.109375 22.625 23.890625 
Q 32.328125 33.6875 34.8125 36.53125 
Q 39.546875 41.84375 41.421875 45.53125 
Q 43.3125 49.21875 43.3125 52.78125 
Q 43.3125 58.59375 39.234375 62.25 
Q 35.15625 65.921875 28.609375 65.921875 
Q 23.96875 65.921875 18.8125 64.3125 
Q 13.671875 62.703125 7.8125 59.421875 
L 7.8125 69.390625 
Q 13.765625 71.78125 18.9375 73 
Q 24.125 74.21875 28.421875 74.21875 
Q 39.75 74.21875 46.484375 68.546875 
Q 53.21875 62.890625 53.21875 53.421875 
Q 53.21875 48.921875 51.53125 44.890625 
Q 49.859375 40.875 45.40625 35.40625 
Q 44.1875 33.984375 37.640625 27.21875 
Q 31.109375 20.453125 19.1875 8.296875 
z
" id="DejaVuSans-50"/>
        <path d="M 31.78125 66.40625 
Q 24.171875 66.40625 20.328125 58.90625 
Q 16.5 51.421875 16.5 36.375 
Q 16.5 21.390625 20.328125 13.890625 
Q 24.171875 6.390625 31.78125 6.390625 
Q 39.453125 6.390625 43.28125 13.890625 
Q 47.125 21.390625 47.125 36.375 
Q 47.125 51.421875 43.28125 58.90625 
Q 39.453125 66.40625 31.78125 66.40625 
z
M 31.78125 74.21875 
Q 44.046875 74.21875 50.515625 64.515625 
Q 56.984375 54.828125 56.984375 36.375 
Q 56.984375 17.96875 50.515625 8.265625 
Q 44.046875 -1.421875 31.78125 -1.421875 
Q 19.53125 -1.421875 13.0625 8.265625 
Q 6.59375 17.96875 6.59375 36.375 
Q 6.59375 54.828125 13.0625 64.515625 
Q 19.53125 74.21875 31.78125 74.21875 
z
" id="DejaVuSans-48"/>
        <path d="M 12.40625 8.296875 
L 28.515625 8.296875 
L 28.515625 63.921875 
L 10.984375 60.40625 
L 10.984375 69.390625 
L 28.421875 72.90625 
L 38.28125 72.90625 
L 38.28125 8.296875 
L 54.390625 8.296875 
L 54.390625 0 
L 12.40625 0 
z
" id="DejaVuSans-49"/>
       </defs>
       <use xlink:href="#DejaVuSans-50"/>
       <use x="63.623047" xlink:href="#DejaVuSans-48"/>
       <use x="127.246094" xlink:href="#DejaVuSans-50"/>
       <use x="190.869141" xlink:href="#DejaVuSans-49"/>
      </g>
     </g>
    </g>
    <g id="xtick_12">
     <g id="line2d_12">
      <g>
       <use style="stroke:#000000;stroke-width:0.8;" x="559.894737" xlink:href="#m8ca5c18ca2" y="315"/>
      </g>
     </g>
     <g id="text_11">
      <!-- Feb -->
      <g transform="translate(551.043174 329.598437)scale(0.1 -0.1)">
       <defs>
        <path d="M 9.8125 72.90625 
L 51.703125 72.90625 
L 51.703125 64.59375 
L 19.671875 64.59375 
L 19.671875 43.109375 
L 48.578125 43.109375 
L 48.578125 34.8125 
L 19.671875 34.8125 
L 19.671875 0 
L 9.8125 0 
z
" id="DejaVuSans-70"/>
        <path d="M 48.6875 27.296875 
Q 48.6875 37.203125 44.609375 42.84375 
Q 40.53125 48.484375 33.40625 48.484375 
Q 26.265625 48.484375 22.1875 42.84375 
Q 18.109375 37.203125 18.109375 27.296875 
Q 18.109375 17.390625 22.1875 11.75 
Q 26.265625 6.109375 33.40625 6.109375 
Q 40.53125 6.109375 44.609375 11.75 
Q 48.6875 17.390625 48.6875 27.296875 
z
M 18.109375 46.390625 
Q 20.953125 51.265625 25.265625 53.625 
Q 29.59375 56 35.59375 56 
Q 45.5625 56 51.78125 48.09375 
Q 58.015625 40.1875 58.015625 27.296875 
Q 58.015625 14.40625 51.78125 6.484375 
Q 45.5625 -1.421875 35.59375 -1.421875 
Q 29.59375 -1.421875 25.265625 0.953125 
Q 20.953125 3.328125 18.109375 8.203125 
L 18.109375 0 
L 9.078125 0 
L 9.078125 75.984375 
L 18.109375 75.984375 
z
" id="DejaVuSans-98"/>
       </defs>
       <use xlink:href="#DejaVuSans-70"/>
       <use x="52.019531" xlink:href="#DejaVuSans-101"/>
       <use x="113.542969" xlink:href="#DejaVuSans-98"/>
      </g>
     </g>
    </g>
    <g id="xtick_13">
     <g id="line2d_13">
      <g>
       <use style="stroke:#000000;stroke-width:0.8;" x="601.010526" xlink:href="#m8ca5c18ca2" y="315"/>
      </g>
     </g>
     <g id="text_12">
      <!-- Mar -->
      <g transform="translate(591.576933 329.598437)scale(0.1 -0.1)">
       <use xlink:href="#DejaVuSans-77"/>
       <use x="86.279297" xlink:href="#DejaVuSans-97"/>
       <use x="147.558594" xlink:href="#DejaVuSans-114"/>
      </g>
     </g>
    </g>
    <g id="xtick_14">
     <g id="line2d_14">
      <g>
       <use style="stroke:#000000;stroke-width:0.8;" x="646.531579" xlink:href="#m8ca5c18ca2" y="315"/>
      </g>
     </g>
     <g id="text_13">
      <!-- Apr -->
      <g transform="translate(637.881579 329.598437)scale(0.1 -0.1)">
       <use xlink:href="#DejaVuSans-65"/>
       <use x="68.408203" xlink:href="#DejaVuSans-112"/>
       <use x="131.884766" xlink:href="#DejaVuSans-114"/>
      </g>
     </g>
    </g>
    <g id="xtick_15">
     <g id="line2d_15">
      <g>
       <use style="stroke:#000000;stroke-width:0.8;" x="648" xlink:href="#m8ca5c18ca2" y="315"/>
      </g>
     </g>
    </g>
    <g id="xtick_16">
     <g id="line2d_16">
      <defs>
       <path d="M 0 0 
L 0 2 
" id="me22300b101" style="stroke:#000000;stroke-width:0.6;"/>
      </defs>
      <g>
       <use style="stroke:#000000;stroke-width:0.6;" x="97.342105" xlink:href="#me22300b101" y="315"/>
      </g>
     </g>
    </g>
    <g id="xtick_17">
     <g id="line2d_17">
      <g>
       <use style="stroke:#000000;stroke-width:0.6;" x="107.621053" xlink:href="#me22300b101" y="315"/>
      </g>
     </g>
    </g>
    <g id="xtick_18">
     <g id="line2d_18">
      <g>
       <use style="stroke:#000000;stroke-width:0.6;" x="117.9" xlink:href="#me22300b101" y="315"/>
      </g>
     </g>
    </g>
    <g id="xtick_19">
     <g id="line2d_19">
      <g>
       <use style="stroke:#000000;stroke-width:0.6;" x="128.178947" xlink:href="#me22300b101" y="315"/>
      </g>
     </g>
    </g>
    <g id="xtick_20">
     <g id="line2d_20">
      <g>
       <use style="stroke:#000000;stroke-width:0.6;" x="138.457895" xlink:href="#me22300b101" y="315"/>
      </g>
     </g>
    </g>
    <g id="xtick_21">
     <g id="line2d_21">
      <g>
       <use style="stroke:#000000;stroke-width:0.6;" x="148.736842" xlink:href="#me22300b101" y="315"/>
      </g>
     </g>
    </g>
    <g id="xtick_22">
     <g id="line2d_22">
      <g>
       <use style="stroke:#000000;stroke-width:0.6;" x="159.015789" xlink:href="#me22300b101" y="315"/>
      </g>
     </g>
    </g>
    <g id="xtick_23">
     <g id="line2d_23">
      <g>
       <use style="stroke:#000000;stroke-width:0.6;" x="169.294737" xlink:href="#me22300b101" y="315"/>
      </g>
     </g>
    </g>
    <g id="xtick_24">
     <g id="line2d_24">
      <g>
       <use style="stroke:#000000;stroke-width:0.6;" x="179.573684" xlink:href="#me22300b101" y="315"/>
      </g>
     </g>
    </g>
    <g id="xtick_25">
     <g id="line2d_25">
      <g>
       <use style="stroke:#000000;stroke-width:0.6;" x="189.852632" xlink:href="#me22300b101" y="315"/>
      </g>
     </g>
    </g>
    <g id="xtick_26">
     <g id="line2d_26">
      <g>
       <use style="stroke:#000000;stroke-width:0.6;" x="210.410526" xlink:href="#me22300b101" y="315"/>
      </g>
     </g>
    </g>
    <g id="xtick_27">
     <g id="line2d_27">
      <g>
       <use style="stroke:#000000;stroke-width:0.6;" x="220.689474" xlink:href="#me22300b101" y="315"/>
      </g>
     </g>
    </g>
    <g id="xtick_28">
     <g id="line2d_28">
      <g>
       <use style="stroke:#000000;stroke-width:0.6;" x="230.968421" xlink:href="#me22300b101" y="315"/>
      </g>
     </g>
    </g>
    <g id="xtick_29">
     <g id="line2d_29">
      <g>
       <use style="stroke:#000000;stroke-width:0.6;" x="241.247368" xlink:href="#me22300b101" y="315"/>
      </g>
     </g>
    </g>
    <g id="xtick_30">
     <g id="line2d_30">
      <g>
       <use style="stroke:#000000;stroke-width:0.6;" x="251.526316" xlink:href="#me22300b101" y="315"/>
      </g>
     </g>
    </g>
    <g id="xtick_31">
     <g id="line2d_31">
      <g>
       <use style="stroke:#000000;stroke-width:0.6;" x="261.805263" xlink:href="#me22300b101" y="315"/>
      </g>
     </g>
    </g>
    <g id="xtick_32">
     <g id="line2d_32">
      <g>
       <use style="stroke:#000000;stroke-width:0.6;" x="272.084211" xlink:href="#me22300b101" y="315"/>
      </g>
     </g>
    </g>
    <g id="xtick_33">
     <g id="line2d_33">
      <g>
       <use style="stroke:#000000;stroke-width:0.6;" x="282.363158" xlink:href="#me22300b101" y="315"/>
      </g>
     </g>
    </g>
    <g id="xtick_34">
     <g id="line2d_34">
      <g>
       <use style="stroke:#000000;stroke-width:0.6;" x="292.642105" xlink:href="#me22300b101" y="315"/>
      </g>
     </g>
    </g>
    <g id="xtick_35">
     <g id="line2d_35">
      <g>
       <use style="stroke:#000000;stroke-width:0.6;" x="302.921053" xlink:href="#me22300b101" y="315"/>
      </g>
     </g>
    </g>
    <g id="xtick_36">
     <g id="line2d_36">
      <g>
       <use style="stroke:#000000;stroke-width:0.6;" x="313.2" xlink:href="#me22300b101" y="315"/>
      </g>
     </g>
    </g>
    <g id="xtick_37">
     <g id="line2d_37">
      <g>
       <use style="stroke:#000000;stroke-width:0.6;" x="323.478947" xlink:href="#me22300b101" y="315"/>
      </g>
     </g>
    </g>
    <g id="xtick_38">
     <g id="line2d_38">
      <g>
       <use style="stroke:#000000;stroke-width:0.6;" x="333.757895" xlink:href="#me22300b101" y="315"/>
      </g>
     </g>
    </g>
    <g id="xtick_39">
     <g id="line2d_39">
      <g>
       <use style="stroke:#000000;stroke-width:0.6;" x="344.036842" xlink:href="#me22300b101" y="315"/>
      </g>
     </g>
    </g>
    <g id="xtick_40">
     <g id="line2d_40">
      <g>
       <use style="stroke:#000000;stroke-width:0.6;" x="354.315789" xlink:href="#me22300b101" y="315"/>
      </g>
     </g>
    </g>
    <g id="xtick_41">
     <g id="line2d_41">
      <g>
       <use style="stroke:#000000;stroke-width:0.6;" x="364.594737" xlink:href="#me22300b101" y="315"/>
      </g>
     </g>
    </g>
    <g id="xtick_42">
     <g id="line2d_42">
      <g>
       <use style="stroke:#000000;stroke-width:0.6;" x="374.873684" xlink:href="#me22300b101" y="315"/>
      </g>
     </g>
    </g>
    <g id="xtick_43">
     <g id="line2d_43">
      <g>
       <use style="stroke:#000000;stroke-width:0.6;" x="385.152632" xlink:href="#me22300b101" y="315"/>
      </g>
     </g>
    </g>
    <g id="xtick_44">
     <g id="line2d_44">
      <g>
       <use style="stroke:#000000;stroke-width:0.6;" x="395.431579" xlink:href="#me22300b101" y="315"/>
      </g>
     </g>
    </g>
    <g id="xtick_45">
     <g id="line2d_45">
      <g>
       <use style="stroke:#000000;stroke-width:0.6;" x="405.710526" xlink:href="#me22300b101" y="315"/>
      </g>
     </g>
    </g>
    <g id="xtick_46">
     <g id="line2d_46">
      <g>
       <use style="stroke:#000000;stroke-width:0.6;" x="415.989474" xlink:href="#me22300b101" y="315"/>
      </g>
     </g>
    </g>
    <g id="xtick_47">
     <g id="line2d_47">
      <g>
       <use style="stroke:#000000;stroke-width:0.6;" x="426.268421" xlink:href="#me22300b101" y="315"/>
      </g>
     </g>
    </g>
    <g id="xtick_48">
     <g id="line2d_48">
      <g>
       <use style="stroke:#000000;stroke-width:0.6;" x="436.547368" xlink:href="#me22300b101" y="315"/>
      </g>
     </g>
    </g>
    <g id="xtick_49">
     <g id="line2d_49">
      <g>
       <use style="stroke:#000000;stroke-width:0.6;" x="446.826316" xlink:href="#me22300b101" y="315"/>
      </g>
     </g>
    </g>
    <g id="xtick_50">
     <g id="line2d_50">
      <g>
       <use style="stroke:#000000;stroke-width:0.6;" x="457.105263" xlink:href="#me22300b101" y="315"/>
      </g>
     </g>
    </g>
    <g id="xtick_51">
     <g id="line2d_51">
      <g>
       <use style="stroke:#000000;stroke-width:0.6;" x="467.384211" xlink:href="#me22300b101" y="315"/>
      </g>
     </g>
    </g>
    <g id="xtick_52">
     <g id="line2d_52">
      <g>
       <use style="stroke:#000000;stroke-width:0.6;" x="477.663158" xlink:href="#me22300b101" y="315"/>
      </g>
     </g>
    </g>
    <g id="xtick_53">
     <g id="line2d_53">
      <g>
       <use style="stroke:#000000;stroke-width:0.6;" x="487.942105" xlink:href="#me22300b101" y="315"/>
      </g>
     </g>
    </g>
    <g id="xtick_54">
     <g id="line2d_54">
      <g>
       <use style="stroke:#000000;stroke-width:0.6;" x="498.221053" xlink:href="#me22300b101" y="315"/>
      </g>
     </g>
    </g>
    <g id="xtick_55">
     <g id="line2d_55">
      <g>
       <use style="stroke:#000000;stroke-width:0.6;" x="508.5" xlink:href="#me22300b101" y="315"/>
      </g>
     </g>
    </g>
    <g id="xtick_56">
     <g id="line2d_56">
      <g>
       <use style="stroke:#000000;stroke-width:0.6;" x="518.778947" xlink:href="#me22300b101" y="315"/>
      </g>
     </g>
    </g>
    <g id="xtick_57">
     <g id="line2d_57">
      <g>
       <use style="stroke:#000000;stroke-width:0.6;" x="529.057895" xlink:href="#me22300b101" y="315"/>
      </g>
     </g>
    </g>
    <g id="xtick_58">
     <g id="line2d_58">
      <g>
       <use style="stroke:#000000;stroke-width:0.6;" x="539.336842" xlink:href="#me22300b101" y="315"/>
      </g>
     </g>
    </g>
    <g id="xtick_59">
     <g id="line2d_59">
      <g>
       <use style="stroke:#000000;stroke-width:0.6;" x="549.615789" xlink:href="#me22300b101" y="315"/>
      </g>
     </g>
    </g>
    <g id="xtick_60">
     <g id="line2d_60">
      <g>
       <use style="stroke:#000000;stroke-width:0.6;" x="570.173684" xlink:href="#me22300b101" y="315"/>
      </g>
     </g>
    </g>
    <g id="xtick_61">
     <g id="line2d_61">
      <g>
       <use style="stroke:#000000;stroke-width:0.6;" x="580.452632" xlink:href="#me22300b101" y="315"/>
      </g>
     </g>
    </g>
    <g id="xtick_62">
     <g id="line2d_62">
      <g>
       <use style="stroke:#000000;stroke-width:0.6;" x="590.731579" xlink:href="#me22300b101" y="315"/>
      </g>
     </g>
    </g>
    <g id="xtick_63">
     <g id="line2d_63">
      <g>
       <use style="stroke:#000000;stroke-width:0.6;" x="611.289474" xlink:href="#me22300b101" y="315"/>
      </g>
     </g>
    </g>
    <g id="xtick_64">
     <g id="line2d_64">
      <g>
       <use style="stroke:#000000;stroke-width:0.6;" x="621.568421" xlink:href="#me22300b101" y="315"/>
      </g>
     </g>
    </g>
    <g id="xtick_65">
     <g id="line2d_65">
      <g>
       <use style="stroke:#000000;stroke-width:0.6;" x="631.847368" xlink:href="#me22300b101" y="315"/>
      </g>
     </g>
    </g>
    <g id="xtick_66">
     <g id="line2d_66">
      <g>
       <use style="stroke:#000000;stroke-width:0.6;" x="642.126316" xlink:href="#me22300b101" y="315"/>
      </g>
     </g>
    </g>
    <g id="text_14">
     <!-- date -->
     <g transform="translate(357.725 354.474375)scale(0.1 -0.1)">
      <defs>
       <path d="M 45.40625 46.390625 
L 45.40625 75.984375 
L 54.390625 75.984375 
L 54.390625 0 
L 45.40625 0 
L 45.40625 8.203125 
Q 42.578125 3.328125 38.25 0.953125 
Q 33.9375 -1.421875 27.875 -1.421875 
Q 17.96875 -1.421875 11.734375 6.484375 
Q 5.515625 14.40625 5.515625 27.296875 
Q 5.515625 40.1875 11.734375 48.09375 
Q 17.96875 56 27.875 56 
Q 33.9375 56 38.25 53.625 
Q 42.578125 51.265625 45.40625 46.390625 
z
M 14.796875 27.296875 
Q 14.796875 17.390625 18.875 11.75 
Q 22.953125 6.109375 30.078125 6.109375 
Q 37.203125 6.109375 41.296875 11.75 
Q 45.40625 17.390625 45.40625 27.296875 
Q 45.40625 37.203125 41.296875 42.84375 
Q 37.203125 48.484375 30.078125 48.484375 
Q 22.953125 48.484375 18.875 42.84375 
Q 14.796875 37.203125 14.796875 27.296875 
z
" id="DejaVuSans-100"/>
      </defs>
      <use xlink:href="#DejaVuSans-100"/>
      <use x="63.476562" xlink:href="#DejaVuSans-97"/>
      <use x="124.755859" xlink:href="#DejaVuSans-116"/>
      <use x="163.964844" xlink:href="#DejaVuSans-101"/>
     </g>
    </g>
   </g>
   <g id="matplotlib.axis_2">
    <g id="ytick_1">
     <g id="line2d_67">
      <defs>
       <path d="M 0 0 
L -3.5 0 
" id="m9874ee765f" style="stroke:#000000;stroke-width:0.8;"/>
      </defs>
      <g>
       <use style="stroke:#000000;stroke-width:0.8;" x="90" xlink:href="#m9874ee765f" y="280.721258"/>
      </g>
     </g>
     <g id="text_15">
      <!-- $\mathdefault{10^{0}}$ -->
      <g transform="translate(65.4 284.520477)scale(0.1 -0.1)">
       <use transform="translate(0 0.765625)" xlink:href="#DejaVuSans-49"/>
       <use transform="translate(63.623047 0.765625)" xlink:href="#DejaVuSans-48"/>
       <use transform="translate(128.203125 39.046875)scale(0.7)" xlink:href="#DejaVuSans-48"/>
      </g>
     </g>
    </g>
    <g id="ytick_2">
     <g id="line2d_68">
      <g>
       <use style="stroke:#000000;stroke-width:0.8;" x="90" xlink:href="#m9874ee765f" y="201.834583"/>
      </g>
     </g>
     <g id="text_16">
      <!-- $\mathdefault{10^{1}}$ -->
      <g transform="translate(65.4 205.633802)scale(0.1 -0.1)">
       <use transform="translate(0 0.684375)" xlink:href="#DejaVuSans-49"/>
       <use transform="translate(63.623047 0.684375)" xlink:href="#DejaVuSans-48"/>
       <use transform="translate(128.203125 38.965625)scale(0.7)" xlink:href="#DejaVuSans-49"/>
      </g>
     </g>
    </g>
    <g id="ytick_3">
     <g id="line2d_69">
      <g>
       <use style="stroke:#000000;stroke-width:0.8;" x="90" xlink:href="#m9874ee765f" y="122.947908"/>
      </g>
     </g>
     <g id="text_17">
      <!-- $\mathdefault{10^{2}}$ -->
      <g transform="translate(65.4 126.747127)scale(0.1 -0.1)">
       <use transform="translate(0 0.765625)" xlink:href="#DejaVuSans-49"/>
       <use transform="translate(63.623047 0.765625)" xlink:href="#DejaVuSans-48"/>
       <use transform="translate(128.203125 39.046875)scale(0.7)" xlink:href="#DejaVuSans-50"/>
      </g>
     </g>
    </g>
    <g id="ytick_4">
     <g id="line2d_70">
      <g>
       <use style="stroke:#000000;stroke-width:0.8;" x="90" xlink:href="#m9874ee765f" y="44.061234"/>
      </g>
     </g>
     <g id="text_18">
      <!-- $\mathdefault{10^{3}}$ -->
      <g transform="translate(65.4 47.860452)scale(0.1 -0.1)">
       <defs>
        <path d="M 40.578125 39.3125 
Q 47.65625 37.796875 51.625 33 
Q 55.609375 28.21875 55.609375 21.1875 
Q 55.609375 10.40625 48.1875 4.484375 
Q 40.765625 -1.421875 27.09375 -1.421875 
Q 22.515625 -1.421875 17.65625 -0.515625 
Q 12.796875 0.390625 7.625 2.203125 
L 7.625 11.71875 
Q 11.71875 9.328125 16.59375 8.109375 
Q 21.484375 6.890625 26.8125 6.890625 
Q 36.078125 6.890625 40.9375 10.546875 
Q 45.796875 14.203125 45.796875 21.1875 
Q 45.796875 27.640625 41.28125 31.265625 
Q 36.765625 34.90625 28.71875 34.90625 
L 20.21875 34.90625 
L 20.21875 43.015625 
L 29.109375 43.015625 
Q 36.375 43.015625 40.234375 45.921875 
Q 44.09375 48.828125 44.09375 54.296875 
Q 44.09375 59.90625 40.109375 62.90625 
Q 36.140625 65.921875 28.71875 65.921875 
Q 24.65625 65.921875 20.015625 65.03125 
Q 15.375 64.15625 9.8125 62.3125 
L 9.8125 71.09375 
Q 15.4375 72.65625 20.34375 73.4375 
Q 25.25 74.21875 29.59375 74.21875 
Q 40.828125 74.21875 47.359375 69.109375 
Q 53.90625 64.015625 53.90625 55.328125 
Q 53.90625 49.265625 50.4375 45.09375 
Q 46.96875 40.921875 40.578125 39.3125 
z
" id="DejaVuSans-51"/>
       </defs>
       <use transform="translate(0 0.765625)" xlink:href="#DejaVuSans-49"/>
       <use transform="translate(63.623047 0.765625)" xlink:href="#DejaVuSans-48"/>
       <use transform="translate(128.203125 39.046875)scale(0.7)" xlink:href="#DejaVuSans-51"/>
      </g>
     </g>
    </g>
    <g id="ytick_5">
     <g id="line2d_71">
      <defs>
       <path d="M 0 0 
L -2 0 
" id="m6cec238bf3" style="stroke:#000000;stroke-width:0.6;"/>
      </defs>
      <g>
       <use style="stroke:#000000;stroke-width:0.6;" x="90" xlink:href="#m6cec238bf3" y="312.113422"/>
      </g>
     </g>
    </g>
    <g id="ytick_6">
     <g id="line2d_72">
      <g>
       <use style="stroke:#000000;stroke-width:0.6;" x="90" xlink:href="#m6cec238bf3" y="304.468513"/>
      </g>
     </g>
    </g>
    <g id="ytick_7">
     <g id="line2d_73">
      <g>
       <use style="stroke:#000000;stroke-width:0.6;" x="90" xlink:href="#m6cec238bf3" y="298.222168"/>
      </g>
     </g>
    </g>
    <g id="ytick_8">
     <g id="line2d_74">
      <g>
       <use style="stroke:#000000;stroke-width:0.6;" x="90" xlink:href="#m6cec238bf3" y="292.940959"/>
      </g>
     </g>
    </g>
    <g id="ytick_9">
     <g id="line2d_75">
      <g>
       <use style="stroke:#000000;stroke-width:0.6;" x="90" xlink:href="#m6cec238bf3" y="288.366167"/>
      </g>
     </g>
    </g>
    <g id="ytick_10">
     <g id="line2d_76">
      <g>
       <use style="stroke:#000000;stroke-width:0.6;" x="90" xlink:href="#m6cec238bf3" y="284.330914"/>
      </g>
     </g>
    </g>
    <g id="ytick_11">
     <g id="line2d_77">
      <g>
       <use style="stroke:#000000;stroke-width:0.6;" x="90" xlink:href="#m6cec238bf3" y="256.974003"/>
      </g>
     </g>
    </g>
    <g id="ytick_12">
     <g id="line2d_78">
      <g>
       <use style="stroke:#000000;stroke-width:0.6;" x="90" xlink:href="#m6cec238bf3" y="243.082749"/>
      </g>
     </g>
    </g>
    <g id="ytick_13">
     <g id="line2d_79">
      <g>
       <use style="stroke:#000000;stroke-width:0.6;" x="90" xlink:href="#m6cec238bf3" y="233.226747"/>
      </g>
     </g>
    </g>
    <g id="ytick_14">
     <g id="line2d_80">
      <g>
       <use style="stroke:#000000;stroke-width:0.6;" x="90" xlink:href="#m6cec238bf3" y="225.581839"/>
      </g>
     </g>
    </g>
    <g id="ytick_15">
     <g id="line2d_81">
      <g>
       <use style="stroke:#000000;stroke-width:0.6;" x="90" xlink:href="#m6cec238bf3" y="219.335493"/>
      </g>
     </g>
    </g>
    <g id="ytick_16">
     <g id="line2d_82">
      <g>
       <use style="stroke:#000000;stroke-width:0.6;" x="90" xlink:href="#m6cec238bf3" y="214.054284"/>
      </g>
     </g>
    </g>
    <g id="ytick_17">
     <g id="line2d_83">
      <g>
       <use style="stroke:#000000;stroke-width:0.6;" x="90" xlink:href="#m6cec238bf3" y="209.479492"/>
      </g>
     </g>
    </g>
    <g id="ytick_18">
     <g id="line2d_84">
      <g>
       <use style="stroke:#000000;stroke-width:0.6;" x="90" xlink:href="#m6cec238bf3" y="205.444239"/>
      </g>
     </g>
    </g>
    <g id="ytick_19">
     <g id="line2d_85">
      <g>
       <use style="stroke:#000000;stroke-width:0.6;" x="90" xlink:href="#m6cec238bf3" y="178.087328"/>
      </g>
     </g>
    </g>
    <g id="ytick_20">
     <g id="line2d_86">
      <g>
       <use style="stroke:#000000;stroke-width:0.6;" x="90" xlink:href="#m6cec238bf3" y="164.196074"/>
      </g>
     </g>
    </g>
    <g id="ytick_21">
     <g id="line2d_87">
      <g>
       <use style="stroke:#000000;stroke-width:0.6;" x="90" xlink:href="#m6cec238bf3" y="154.340072"/>
      </g>
     </g>
    </g>
    <g id="ytick_22">
     <g id="line2d_88">
      <g>
       <use style="stroke:#000000;stroke-width:0.6;" x="90" xlink:href="#m6cec238bf3" y="146.695164"/>
      </g>
     </g>
    </g>
    <g id="ytick_23">
     <g id="line2d_89">
      <g>
       <use style="stroke:#000000;stroke-width:0.6;" x="90" xlink:href="#m6cec238bf3" y="140.448819"/>
      </g>
     </g>
    </g>
    <g id="ytick_24">
     <g id="line2d_90">
      <g>
       <use style="stroke:#000000;stroke-width:0.6;" x="90" xlink:href="#m6cec238bf3" y="135.167609"/>
      </g>
     </g>
    </g>
    <g id="ytick_25">
     <g id="line2d_91">
      <g>
       <use style="stroke:#000000;stroke-width:0.6;" x="90" xlink:href="#m6cec238bf3" y="130.592817"/>
      </g>
     </g>
    </g>
    <g id="ytick_26">
     <g id="line2d_92">
      <g>
       <use style="stroke:#000000;stroke-width:0.6;" x="90" xlink:href="#m6cec238bf3" y="126.557565"/>
      </g>
     </g>
    </g>
    <g id="ytick_27">
     <g id="line2d_93">
      <g>
       <use style="stroke:#000000;stroke-width:0.6;" x="90" xlink:href="#m6cec238bf3" y="99.200653"/>
      </g>
     </g>
    </g>
    <g id="ytick_28">
     <g id="line2d_94">
      <g>
       <use style="stroke:#000000;stroke-width:0.6;" x="90" xlink:href="#m6cec238bf3" y="85.309399"/>
      </g>
     </g>
    </g>
    <g id="ytick_29">
     <g id="line2d_95">
      <g>
       <use style="stroke:#000000;stroke-width:0.6;" x="90" xlink:href="#m6cec238bf3" y="75.453398"/>
      </g>
     </g>
    </g>
    <g id="ytick_30">
     <g id="line2d_96">
      <g>
       <use style="stroke:#000000;stroke-width:0.6;" x="90" xlink:href="#m6cec238bf3" y="67.808489"/>
      </g>
     </g>
    </g>
    <g id="ytick_31">
     <g id="line2d_97">
      <g>
       <use style="stroke:#000000;stroke-width:0.6;" x="90" xlink:href="#m6cec238bf3" y="61.562144"/>
      </g>
     </g>
    </g>
    <g id="ytick_32">
     <g id="line2d_98">
      <g>
       <use style="stroke:#000000;stroke-width:0.6;" x="90" xlink:href="#m6cec238bf3" y="56.280934"/>
      </g>
     </g>
    </g>
    <g id="ytick_33">
     <g id="line2d_99">
      <g>
       <use style="stroke:#000000;stroke-width:0.6;" x="90" xlink:href="#m6cec238bf3" y="51.706142"/>
      </g>
     </g>
    </g>
    <g id="ytick_34">
     <g id="line2d_100">
      <g>
       <use style="stroke:#000000;stroke-width:0.6;" x="90" xlink:href="#m6cec238bf3" y="47.67089"/>
      </g>
     </g>
    </g>
   </g>
   <g id="line2d_101">
    <path clip-path="url(#p2ad2d1b14d)" d="M 94.4026 361 
L 94.405263 217.812354 
L 95.873684 202.766623 
L 97.342105 196.84066 
L 98.810526 193.459886 
L 100.278947 189.715361 
L 101.747368 187.82183 
L 103.215789 184.778879 
L 104.684211 184.473577 
L 106.152632 183.753528 
L 107.621053 182.305694 
L 109.089474 182.282286 
L 110.557895 181.84135 
L 112.026316 181.661214 
L 113.494737 180.933887 
L 116.431579 181.393082 
L 119.368421 181.891836 
L 122.305263 182.813848 
L 123.773684 183.552927 
L 125.242105 184.548467 
L 128.178947 186.837854 
L 131.115789 189.757466 
L 134.052632 193.462179 
L 136.989474 197.748068 
L 139.926316 202.695544 
L 142.863158 208.23577 
L 147.268421 217.467734 
L 148.736842 220.610278 
L 166.357895 261.667145 
L 169.294737 267.802618 
L 172.231579 273.524473 
L 173.7 276.388541 
L 176.636842 281.110302 
L 179.573684 285.484613 
L 181.042105 286.972822 
L 182.510526 289.32124 
L 183.978947 290.754113 
L 185.447368 291.998032 
L 186.915789 293.073212 
L 188.384211 293.91826 
L 189.852632 294.504023 
L 191.321053 294.825189 
L 192.789474 294.87818 
L 194.257895 294.660366 
L 195.726316 294.171646 
L 197.194737 293.415958 
L 198.663158 292.399572 
L 200.131579 291.131937 
L 201.6 289.623846 
L 203.068421 287.88569 
L 204.536842 285.928462 
L 207.473684 281.406148 
L 210.410526 276.145695 
L 213.347368 270.1884 
L 216.284211 263.574511 
L 219.221053 256.378301 
L 222.157895 248.665303 
L 226.563158 236.273425 
L 241.247368 193.656886 
L 244.184211 186.081866 
L 247.121053 179.125034 
L 250.057895 172.831623 
L 252.994737 167.198968 
L 255.931579 162.179273 
L 258.868421 157.703232 
L 261.805263 153.690444 
L 264.742105 150.055579 
L 267.678947 146.726187 
L 272.084211 142.168344 
L 276.489474 137.97024 
L 280.894737 134.109153 
L 283.831579 131.775735 
L 286.768421 129.716364 
L 289.705263 128.02304 
L 292.642105 126.776187 
L 294.110526 126.336892 
L 295.578947 126.026318 
L 297.047368 125.846869 
L 298.515789 125.799168 
L 299.984211 125.881613 
L 301.452632 126.090361 
L 304.389474 126.859542 
L 307.326316 128.020474 
L 310.263158 129.444895 
L 316.136842 132.44867 
L 319.073684 133.671784 
L 320.542105 134.135672 
L 322.010526 134.47519 
L 323.478947 134.673798 
L 324.947368 134.716546 
L 326.415789 134.590622 
L 327.884211 134.286569 
L 329.352632 133.800302 
L 330.821053 133.133114 
L 332.289474 132.2898 
L 333.757895 131.277397 
L 335.226316 130.105817 
L 338.163158 127.333433 
L 341.1 124.071642 
L 344.036842 120.422863 
L 348.442105 114.452937 
L 360.189474 97.947633 
L 363.126316 94.403655 
L 364.594737 92.841414 
L 366.063158 91.451694 
L 367.531579 90.258012 
L 369 89.282481 
L 370.468421 88.543818 
L 371.936842 88.056912 
L 373.405263 87.833952 
L 374.873684 87.884506 
L 376.342105 88.214549 
L 377.810526 88.826837 
L 379.278947 89.721013 
L 380.747368 90.893738 
L 382.215789 92.33897 
L 383.684211 94.048135 
L 385.152632 96.010272 
L 386.621053 98.212474 
L 389.557895 103.279781 
L 392.494737 109.124983 
L 395.431579 115.611297 
L 398.368421 122.596062 
L 402.773684 133.690187 
L 413.052632 160.010835 
L 417.457895 170.484697 
L 420.394737 176.973938 
L 423.331579 183.006707 
L 426.268421 188.551668 
L 429.205263 193.587177 
L 432.142105 198.101319 
L 435.078947 202.095741 
L 438.015789 205.579366 
L 440.952632 208.560999 
L 443.889474 211.048182 
L 446.826316 213.038233 
L 448.294737 213.837136 
L 449.763158 214.494929 
L 451.231579 215.00205 
L 452.7 215.348351 
L 454.168421 215.523383 
L 455.636842 215.515926 
L 457.105263 215.313617 
L 458.573684 214.90293 
L 460.042105 214.270374 
L 461.510526 213.405125 
L 462.978947 212.297397 
L 464.447368 210.938261 
L 465.915789 209.320441 
L 467.384211 207.438417 
L 468.852632 205.290567 
L 470.321053 202.878864 
L 471.789474 200.206654 
L 473.257895 197.278775 
L 476.194737 190.688694 
L 479.131579 183.217033 
L 482.068421 175.035624 
L 486.473684 161.869529 
L 496.752632 130.348581 
L 501.157895 117.740092 
L 504.094737 109.872702 
L 507.031579 102.50828 
L 509.968421 95.695927 
L 512.905263 89.506863 
L 515.842105 83.998945 
L 518.778947 79.235017 
L 520.247368 77.14591 
L 521.715789 75.254644 
L 523.184211 73.561512 
L 524.652632 72.066389 
L 526.121053 70.767968 
L 527.589474 69.663977 
L 529.057895 68.75118 
L 530.526316 68.025922 
L 531.994737 67.483992 
L 533.463158 67.119967 
L 534.931579 66.92708 
L 536.4 66.897111 
L 537.868421 67.021266 
L 539.336842 67.290876 
L 540.805263 67.697784 
L 542.273684 68.234609 
L 545.210526 69.673076 
L 548.147368 71.559444 
L 551.084211 73.848854 
L 554.021053 76.501955 
L 556.957895 79.488113 
L 559.894737 82.77339 
L 564.3 88.176049 
L 568.705263 93.983065 
L 577.515789 105.796578 
L 581.921053 111.297847 
L 586.326316 116.373403 
L 592.2 122.659503 
L 598.073684 128.996346 
L 601.010526 132.454556 
L 603.947368 136.237624 
L 606.884211 140.423639 
L 609.821053 145.064641 
L 612.757895 150.190133 
L 615.694737 155.807096 
L 618.631579 161.898846 
L 621.568421 168.431512 
L 625.973684 178.962353 
L 630.378947 190.204929 
L 636.252632 205.943304 
L 648 238.289214 
L 648 238.289214 
" style="fill:none;stroke:#008000;stroke-linecap:square;stroke-width:1.5;"/>
   </g>
   <g id="line2d_102">
    <path clip-path="url(#p2ad2d1b14d)" d="M 90 123.308432 
L 91.468421 292.093655 
L 92.936842 201.253854 
L 94.405263 179.393896 
L 95.873684 177.52274 
L 97.342105 179.288681 
L 98.810526 179.933877 
L 101.747368 179.667799 
L 104.684211 179.827273 
L 106.152632 180.063682 
L 107.621053 180.417538 
L 109.089474 180.903317 
L 110.557895 181.531358 
L 112.026316 182.32471 
L 113.494737 183.304673 
L 114.963158 184.477957 
L 116.431579 185.849589 
L 117.9 187.427007 
L 120.836842 191.420668 
L 122.305263 193.713642 
L 125.242105 199.047194 
L 128.178947 205.175805 
L 131.115789 212.086955 
L 134.052632 219.686995 
L 138.457895 231.902824 
L 147.268421 256.970885 
L 150.205263 264.788648 
L 153.142105 272.13682 
L 156.078947 278.900463 
L 159.015789 284.964594 
L 161.952632 290.212411 
L 163.421053 292.515748 
L 164.889474 294.597006 
L 166.357895 296.456105 
L 167.826316 298.087124 
L 169.294737 299.482813 
L 170.763158 300.63525 
L 172.231579 301.532372 
L 173.7 302.162156 
L 175.168421 302.530835 
L 176.636842 302.645455 
L 178.105263 302.501652 
L 179.573684 302.091887 
L 181.042105 301.439121 
L 182.510526 300.562046 
L 183.978947 299.454477 
L 185.447368 298.111257 
L 186.915789 296.538377 
L 188.384211 294.754925 
L 191.321053 290.634829 
L 194.257895 285.872975 
L 197.194737 280.543339 
L 200.131579 274.662578 
L 203.068421 268.317873 
L 206.005263 261.460933 
L 208.942105 254.00944 
L 213.347368 242.007395 
L 216.284211 233.551735 
L 230.968421 189.68797 
L 233.905263 181.860585 
L 236.842105 174.744366 
L 239.778947 168.395045 
L 242.715789 162.841628 
L 245.652632 158.005161 
L 248.589474 153.797398 
L 251.526316 150.063563 
L 254.463158 146.724608 
L 258.868421 142.194927 
L 263.273684 138.078961 
L 270.615789 131.666739 
L 273.552632 129.359216 
L 276.489474 127.310496 
L 279.426316 125.633672 
L 280.894737 124.998175 
L 282.363158 124.515429 
L 283.831579 124.196171 
L 285.3 124.047808 
L 286.768421 124.05923 
L 288.236842 124.221691 
L 289.705263 124.542339 
L 291.173684 125.019399 
L 292.642105 125.641605 
L 295.578947 127.27631 
L 298.515789 129.29464 
L 302.921053 132.483805 
L 305.857895 134.344311 
L 307.326316 135.117863 
L 308.794737 135.747571 
L 310.263158 136.204418 
L 311.731579 136.474383 
L 313.2 136.549035 
L 314.668421 136.410428 
L 316.136842 136.061115 
L 317.605263 135.513022 
L 319.073684 134.763414 
L 320.542105 133.80341 
L 322.010526 132.639593 
L 324.947368 129.798771 
L 327.884211 126.453894 
L 330.821053 122.698098 
L 333.757895 118.654106 
L 338.163158 112.190306 
L 348.442105 96.879989 
L 351.378947 92.859712 
L 354.315789 89.396252 
L 355.784211 87.948426 
L 357.252632 86.727255 
L 358.721053 85.762171 
L 360.189474 85.089541 
L 361.657895 84.740134 
L 363.126316 84.73606 
L 364.594737 85.101517 
L 366.063158 85.831561 
L 367.531579 86.928056 
L 369 88.405824 
L 370.468421 90.264959 
L 371.936842 92.488639 
L 373.405263 95.065614 
L 374.873684 97.981558 
L 376.342105 101.211177 
L 379.278947 108.499902 
L 382.215789 116.674345 
L 385.152632 125.504138 
L 391.026316 144.125606 
L 396.9 162.589346 
L 399.836842 171.29792 
L 402.773684 179.45511 
L 405.710526 186.912414 
L 408.647368 193.57349 
L 411.584211 199.385592 
L 414.521053 204.336712 
L 415.989474 206.490824 
L 417.457895 208.444016 
L 418.926316 210.207966 
L 420.394737 211.793318 
L 421.863158 213.199852 
L 423.331579 214.431764 
L 426.268421 216.463754 
L 429.205263 218.042516 
L 432.142105 219.225409 
L 435.078947 220.020846 
L 438.015789 220.428508 
L 439.484211 220.487007 
L 440.952632 220.42069 
L 442.421053 220.207 
L 443.889474 219.820698 
L 445.357895 219.242677 
L 446.826316 218.478851 
L 448.294737 217.529833 
L 449.763158 216.391293 
L 451.231579 215.046202 
L 452.7 213.481642 
L 454.168421 211.681317 
L 455.636842 209.642653 
L 457.105263 207.392564 
L 458.573684 204.912428 
L 461.510526 199.247166 
L 464.447368 192.675764 
L 467.384211 185.285126 
L 470.321053 177.109167 
L 474.726316 163.768055 
L 487.942105 122.299268 
L 490.878947 113.800307 
L 493.815789 105.812894 
L 496.752632 98.318006 
L 499.689474 91.43996 
L 502.626316 85.165814 
L 505.563158 79.614087 
L 508.5 74.88009 
L 509.968421 72.823072 
L 511.436842 71.007377 
L 512.905263 69.430046 
L 514.373684 68.085469 
L 515.842105 66.962186 
L 517.310526 66.053126 
L 518.778947 65.358136 
L 520.247368 64.87955 
L 521.715789 64.607898 
L 523.184211 64.534696 
L 524.652632 64.650997 
L 526.121053 64.954959 
L 527.589474 65.437287 
L 529.057895 66.077713 
L 531.994737 67.761225 
L 534.931579 69.898411 
L 537.868421 72.460134 
L 540.805263 75.433445 
L 543.742105 78.763012 
L 546.678947 82.388167 
L 549.615789 86.331418 
L 554.021053 92.720194 
L 565.768421 110.384869 
L 568.705263 114.289969 
L 571.642105 117.807396 
L 574.578947 120.956248 
L 578.984211 125.279022 
L 584.857895 130.942121 
L 587.794737 134.054303 
L 590.731579 137.645814 
L 593.668421 141.812763 
L 596.605263 146.605537 
L 599.542105 152.13315 
L 602.478947 158.387214 
L 605.415789 165.349896 
L 608.352632 172.990417 
L 611.289474 181.23498 
L 615.694737 194.475371 
L 620.1 208.600358 
L 627.442105 233.064329 
L 636.252632 262.336773 
L 642.126316 281.00025 
L 646.531579 294.224492 
L 648 298.464465 
L 648 298.464465 
" style="fill:none;stroke:#0000ff;stroke-linecap:square;stroke-width:1.5;"/>
   </g>
   <g id="line2d_103">
    <path clip-path="url(#p2ad2d1b14d)" d="M 104.681478 361 
L 104.684211 214.054284 
L 106.152632 225.581839 
L 107.621053 190.307028 
L 109.089474 195.588238 
L 110.557895 176.415774 
L 112.026316 176.415774 
L 113.494737 195.588238 
L 114.963158 173.299077 
L 116.431579 158.914864 
L 119.368421 214.054284 
L 120.836842 201.834583 
L 122.305263 214.054284 
L 123.773684 183.655234 
L 125.242105 176.415774 
L 126.710526 187.943329 
L 128.178947 165.357543 
L 129.647368 198.569252 
L 131.115789 187.943329 
L 132.584211 201.834583 
L 134.052632 201.834583 
L 135.521053 169.098716 
L 136.989474 214.054284 
L 138.457895 195.588238 
L 139.926316 198.569252 
L 141.394737 185.732236 
L 142.863158 170.442419 
L 144.331579 183.655234 
L 145.8 225.581839 
L 147.268421 219.335493 
L 148.736842 201.834583 
L 150.205263 233.226747 
L 151.673684 256.974003 
L 153.142105 214.054284 
L 154.610526 280.721258 
L 154.612021 361 
M 159.013596 361 
L 159.015789 243.082749 
L 159.017983 361 
M 161.951137 361 
L 161.952632 280.721258 
L 163.421053 256.974003 
L 164.889474 256.974003 
L 164.891409 361 
M 170.761664 361 
L 170.763158 280.721258 
L 172.231579 219.335493 
L 172.234214 361 
M 179.57219 361 
L 179.573684 280.721258 
L 179.575179 361 
M 183.977453 361 
L 183.978947 280.721258 
L 185.447368 280.721258 
L 185.448863 361 
M 194.255959 361 
L 194.257895 256.974003 
L 194.259831 361 
M 200.130085 361 
L 200.131579 280.721258 
L 200.133073 361 
M 203.066227 361 
L 203.068421 243.082749 
L 204.536842 243.082749 
L 206.005263 280.721258 
L 206.006757 361 
M 208.940611 361 
L 208.942105 280.721258 
L 210.410526 243.082749 
L 210.41272 361 
M 213.345433 361 
L 213.347368 256.974003 
L 214.815789 256.974003 
L 216.284211 280.721258 
L 217.752632 280.721258 
L 217.754126 361 
M 220.687538 361 
L 220.689474 256.974003 
L 222.157895 256.974003 
L 223.626316 233.226747 
L 225.094737 243.082749 
L 226.563158 243.082749 
L 226.565352 361 
M 229.498506 361 
L 229.5 280.721258 
L 230.968421 201.834583 
L 232.436842 209.479492 
L 233.905263 201.834583 
L 235.373684 201.834583 
L 236.842105 214.054284 
L 238.310526 256.974003 
L 239.778947 280.721258 
L 241.247368 201.834583 
L 242.715789 198.569252 
L 244.184211 151.862363 
L 245.652632 161.984981 
L 247.121053 170.442419 
L 248.589474 195.588238 
L 250.057895 185.732236 
L 251.526316 164.196074 
L 252.994737 170.442419 
L 254.463158 156.097383 
L 255.931579 157.949729 
L 257.4 163.072693 
L 258.868421 169.098716 
L 260.336842 165.357543 
L 261.805263 144.698868 
L 263.273684 159.907979 
L 264.742105 138.237726 
L 266.210526 143.429832 
L 269.147368 164.196074 
L 270.615789 165.357543 
L 272.084211 157.949729 
L 273.552632 127.327486 
L 275.021053 141.610287 
L 276.489474 137.706552 
L 277.957895 144.698868 
L 279.426316 154.340072 
L 280.894737 146.695164 
L 282.363158 145.35146 
L 283.831579 127.327486 
L 285.3 123.640054 
L 286.768421 128.115108 
L 288.236842 130.592817 
L 289.705263 164.196074 
L 291.173684 153.494102 
L 292.642105 105.791323 
L 294.110526 113.177664 
L 295.578947 125.804566 
L 297.047368 120.951613 
L 298.515789 113.436232 
L 299.984211 138.777265 
L 301.452632 124.346472 
L 302.921053 118.760726 
L 304.389474 109.7488 
L 305.857895 115.303 
L 307.326316 109.982658 
L 308.794737 129.746847 
L 310.263158 152.668519 
L 311.731579 136.668289 
L 313.2 135.167609 
L 314.668421 125.434184 
L 316.136842 135.660568 
L 317.605263 138.777265 
L 319.073684 146.695164 
L 320.542105 178.087328 
L 322.010526 148.093727 
L 323.478947 131.460206 
L 324.947368 144.698868 
L 326.415789 141.610287 
L 327.884211 132.350128 
L 329.352632 163.072693 
L 330.821053 185.732236 
L 332.289474 157.949729 
L 335.226316 114.223854 
L 336.694737 102.057311 
L 338.163158 131.460206 
L 339.631579 130.167221 
L 341.1 155.207462 
L 342.568421 125.434184 
L 344.036842 113.959296 
L 345.505263 105.378547 
L 346.973684 112.921033 
L 348.442105 114.223854 
L 349.910526 116.701563 
L 351.378947 131.460206 
L 352.847368 139.325438 
L 354.315789 103.971778 
L 355.784211 96.563964 
L 357.252632 100.957964 
L 358.721053 98.522214 
L 360.189474 101.503228 
L 361.657895 119.372529 
L 363.126316 166.559773 
L 364.594737 122.947908 
L 366.063158 83.098306 
L 367.531579 91.555744 
L 369 70.221166 
L 370.468421 80.224523 
L 371.936842 88.666213 
L 373.405263 104.768559 
L 374.873684 163.072693 
L 376.342105 92.24789 
L 377.810526 57.123234 
L 379.278947 70.368521 
L 380.747368 73.135409 
L 382.215789 119.065262 
L 383.684211 109.056654 
L 385.152632 71.64731 
L 386.621053 77.755973 
L 388.089474 90.476598 
L 389.557895 90.212041 
L 391.026316 102.810309 
L 392.494737 164.196074 
L 393.963158 122.269469 
L 395.431579 91.282754 
L 396.9 112.162477 
L 398.368421 115.03001 
L 399.836842 128.921264 
L 401.305263 137.183487 
L 402.773684 201.834583 
L 404.242105 155.207462 
L 405.710526 124.705219 
L 407.178947 151.074741 
L 408.647368 149.551822 
L 410.115789 152.668519 
L 411.584211 165.357543 
L 413.052632 233.226747 
L 414.521053 173.299077 
L 415.989474 157.949729 
L 417.457895 187.943329 
L 418.926316 192.845971 
L 420.394737 192.845971 
L 421.863158 185.732236 
L 423.331579 256.974003 
L 424.8 219.335493 
L 426.268421 185.732236 
L 427.736842 192.845971 
L 429.205263 225.581839 
L 430.673684 201.834583 
L 432.142105 214.054284 
L 433.610526 280.721258 
L 435.078947 190.307028 
L 436.547368 181.696984 
L 438.015789 205.444239 
L 439.484211 190.307028 
L 440.952632 201.834583 
L 442.421053 174.821997 
L 443.889474 256.974003 
L 446.826316 192.845971 
L 449.763158 225.581839 
L 451.231579 195.588238 
L 452.7 243.082749 
L 452.702194 361 
M 455.633822 361 
L 455.636842 198.569252 
L 457.105263 209.479492 
L 458.573684 243.082749 
L 460.042105 205.444239 
L 461.510526 205.444239 
L 462.978947 280.721258 
L 464.447368 243.082749 
L 465.915789 198.569252 
L 467.384211 205.444239 
L 468.852632 209.479492 
L 470.321053 195.588238 
L 471.789474 185.732236 
L 473.257895 219.335493 
L 474.726316 233.226747 
L 476.194737 201.834583 
L 477.663158 185.732236 
L 479.131579 198.569252 
L 480.6 174.821997 
L 482.068421 171.840983 
L 483.536842 167.80573 
L 485.005263 201.834583 
L 486.473684 169.098716 
L 487.942105 152.668519 
L 489.410526 139.325438 
L 490.878947 146.016725 
L 492.347368 136.668289 
L 493.815789 146.695164 
L 495.284211 163.072693 
L 496.752632 140.448819 
L 498.221053 111.665946 
L 499.689474 106.209134 
L 501.157895 112.413468 
L 502.626316 111.420354 
L 504.094737 111.913312 
L 505.563158 147.387309 
L 507.031579 122.947908 
L 508.5 90.212041 
L 509.968421 92.388013 
L 511.436842 92.528712 
L 512.905263 81.223429 
L 514.373684 88.290413 
L 515.842105 115.855593 
L 517.310526 88.919055 
L 518.778947 68.083672 
L 520.247368 62.723612 
L 521.715789 70.516513 
L 523.184211 79.063054 
L 524.652632 70.442437 
L 526.121053 99.200653 
L 527.589474 62.90128 
L 529.057895 60.939731 
L 530.526316 64.730542 
L 531.994737 55.554545 
L 533.463158 67.332175 
L 534.931579 73.295878 
L 536.4 86.352933 
L 537.868421 76.762858 
L 539.336842 57.577685 
L 540.805263 61.277826 
L 542.273684 67.46759 
L 543.742105 66.929111 
L 545.210526 70.147725 
L 546.678947 134.202473 
L 548.147368 80.920687 
L 549.615789 60.995849 
L 551.084211 75.197406 
L 552.552632 73.135409 
L 554.021053 73.21555 
L 555.489474 78.778737 
L 556.957895 150.30482 
L 558.426316 81.940406 
L 559.894737 63.681998 
L 561.363158 70.889314 
L 562.831579 76.673986 
L 564.3 78.40328 
L 565.768421 93.53012 
L 567.236842 139.882524 
L 568.705263 96.248201 
L 570.173684 76.851961 
L 571.642105 91.693059 
L 574.578947 109.28582 
L 576.047368 111.420354 
L 577.515789 171.840983 
L 578.984211 116.135268 
L 580.452632 103.58023 
L 581.921053 111.176509 
L 583.389474 112.413468 
L 584.857895 126.178997 
L 586.326316 137.706552 
L 587.794737 214.054284 
L 589.263158 121.276355 
L 590.731579 117.568952 
L 592.2 125.434184 
L 593.668421 117.863032 
L 595.136842 123.292233 
L 596.605263 153.494102 
L 598.073684 178.087328 
L 599.542105 137.706552 
L 601.010526 119.682577 
L 602.478947 118.458874 
L 603.947368 121.604205 
L 605.415789 132.80391 
L 606.884211 126.557565 
L 608.352632 178.087328 
L 609.821053 155.207462 
L 611.289474 122.947908 
L 612.757895 143.429832 
L 614.226316 151.862363 
L 615.694737 146.695164 
L 617.163158 167.80573 
L 618.631579 233.226747 
L 620.1 156.097383 
L 621.568421 157.949729 
L 623.036842 163.072693 
L 624.505263 165.357543 
L 625.973684 165.357543 
L 627.442105 185.732236 
L 628.910526 256.974003 
L 630.378947 179.844638 
L 631.847368 179.844638 
L 633.315789 205.444239 
L 634.784211 190.307028 
L 636.252632 187.943329 
L 637.721053 225.581839 
L 639.189474 280.721258 
L 639.190968 361 
M 642.12438 361 
L 642.126316 256.974003 
L 643.594737 243.082749 
L 645.063158 214.054284 
L 646.531579 280.721258 
L 648 243.082749 
L 648 243.082749 
" style="fill:none;stroke:#ff0000;stroke-linecap:square;stroke-opacity:0.7;stroke-width:1.5;"/>
   </g>
   <g id="patch_3">
    <path d="M 90 315 
L 90 43.2 
" style="fill:none;stroke:#000000;stroke-linecap:square;stroke-linejoin:miter;stroke-width:0.8;"/>
   </g>
   <g id="patch_4">
    <path d="M 648 315 
L 648 43.2 
" style="fill:none;stroke:#000000;stroke-linecap:square;stroke-linejoin:miter;stroke-width:0.8;"/>
   </g>
   <g id="patch_5">
    <path d="M 90 315 
L 648 315 
" style="fill:none;stroke:#000000;stroke-linecap:square;stroke-linejoin:miter;stroke-width:0.8;"/>
   </g>
   <g id="patch_6">
    <path d="M 90 43.2 
L 648 43.2 
" style="fill:none;stroke:#000000;stroke-linecap:square;stroke-linejoin:miter;stroke-width:0.8;"/>
   </g>
   <g id="text_19">
    <!-- 74  -->
    <g transform="translate(333.233437 37.2)scale(0.12 -0.12)">
     <defs>
      <path d="M 8.203125 72.90625 
L 55.078125 72.90625 
L 55.078125 68.703125 
L 28.609375 0 
L 18.3125 0 
L 43.21875 64.59375 
L 8.203125 64.59375 
z
" id="DejaVuSans-55"/>
      <path d="M 37.796875 64.3125 
L 12.890625 25.390625 
L 37.796875 25.390625 
z
M 35.203125 72.90625 
L 47.609375 72.90625 
L 47.609375 25.390625 
L 58.015625 25.390625 
L 58.015625 17.1875 
L 47.609375 17.1875 
L 47.609375 0 
L 37.796875 0 
L 37.796875 17.1875 
L 4.890625 17.1875 
L 4.890625 26.703125 
z
" id="DejaVuSans-52"/>
      <path id="DejaVuSans-32"/>
      <path d="M 19.140625 33.40625 
L 19.140625 0 
L 10.109375 0 
L 10.109375 29.6875 
z
M 56.25 27.828125 
L 56.25 0 
L 47.21875 0 
L 47.21875 29.6875 
Q 47.21875 40.234375 44.0625 43.96875 
Q 40.921875 47.703125 31.84375 47.703125 
L 9.078125 47.703125 
L 9.078125 54.6875 
L 31.734375 54.6875 
Q 45.265625 54.6875 50.75 48.578125 
Q 56.25 42.484375 56.25 27.828125 
z
" id="DejaVuSans-1492"/>
      <path d="M 18.796875 0 
L 38.53125 47.703125 
L 4.296875 47.703125 
L 4.296875 72.90625 
L 13.421875 72.90625 
L 13.421875 54.6875 
L 49.21875 54.640625 
L 49.078125 49.265625 
L 28.328125 0 
z
" id="DejaVuSans-1500"/>
      <path d="M 43.75 20.0625 
L 57.671875 0 
L 47.078125 0 
L 26.765625 29.296875 
Q 25.390625 28.609375 24.53125 28.09375 
Q 23.6875 27.59375 22.3125 26.296875 
Q 20.953125 25 20.140625 23.40625 
Q 19.34375 21.828125 18.703125 19.140625 
Q 18.0625 16.453125 18.0625 13.09375 
L 18.0625 0 
L 9.078125 0 
L 9.078125 9.03125 
Q 9.078125 12.984375 9.5625 16.359375 
Q 10.0625 19.734375 10.8125 22.078125 
Q 11.578125 24.421875 12.796875 26.390625 
Q 14.015625 28.375 15.109375 29.59375 
Q 16.21875 30.8125 17.796875 31.875 
Q 19.390625 32.953125 20.453125 33.46875 
Q 21.53125 33.984375 23.046875 34.625 
L 9.1875 54.6875 
L 19.78125 54.6875 
L 40.09375 25.390625 
Q 41.40625 26.03125 42.25 26.53125 
Q 43.109375 27.046875 44.46875 28.359375 
Q 45.84375 29.6875 46.671875 31.265625 
Q 47.515625 32.859375 48.140625 35.546875 
Q 48.78125 38.234375 48.78125 41.609375 
L 48.78125 54.6875 
L 57.765625 54.6875 
L 57.765625 45.65625 
Q 57.765625 41.65625 57.265625 38.3125 
Q 56.78125 34.96875 56.03125 32.59375 
Q 55.28125 30.21875 54.046875 28.234375 
Q 52.828125 26.265625 51.703125 25.0625 
Q 50.59375 23.875 49.03125 22.796875 
Q 47.46875 21.734375 46.390625 21.21875 
Q 45.3125 20.703125 43.75 20.0625 
z
" id="DejaVuSans-1488"/>
      <path d="M 4.296875 54.6875 
L 14.890625 54.6875 
Q 15.09375 54.15625 16.703125 50.3125 
Q 18.3125 46.484375 19.390625 42.671875 
Q 20.75 46.09375 22.625 48.53125 
Q 24.515625 50.984375 26.359375 52.296875 
Q 28.21875 53.609375 30.609375 54.34375 
Q 33.015625 55.078125 34.859375 55.265625 
Q 36.71875 55.46875 39.203125 55.46875 
Q 58.84375 55.46875 58.84375 29.59375 
L 58.84375 0 
L 31.390625 0 
L 31.390625 6.9375 
L 49.75 6.9375 
L 49.75 29.59375 
Q 49.75 39.109375 46.765625 43.671875 
Q 43.796875 48.25 39.0625 48.25 
Q 30.28125 48.25 26.078125 40.4375 
Q 23.734375 35.984375 21.6875 25.921875 
Q 21.578125 25.25 21.34375 24.125 
L 16.546875 0 
L 7.46875 0 
L 11.375 20.40625 
Q 11.53125 21.1875 11.890625 22.96875 
Q 12.25 24.75 12.375 25.40625 
Q 12.5 26.078125 12.671875 27.3125 
Q 12.84375 28.5625 12.90625 29.515625 
Q 12.984375 30.46875 12.984375 31.546875 
Q 12.984375 34.671875 10.71875 41.09375 
Q 8.453125 47.515625 4.296875 54.6875 
z
" id="DejaVuSans-1502"/>
      <path d="M 47.359375 27.828125 
L 47.359375 0 
L 38.28125 0 
L 38.28125 27.828125 
Q 38.28125 31.390625 37.765625 34.265625 
Q 37.25 37.15625 36 39.71875 
Q 34.765625 42.28125 32.8125 43.984375 
Q 30.859375 45.703125 27.78125 46.703125 
Q 24.703125 47.703125 20.703125 47.703125 
L 4.296875 47.703125 
L 4.296875 54.6875 
L 20.65625 54.6875 
Q 26.8125 54.6875 31.46875 53.390625 
Q 36.140625 52.09375 39.109375 49.828125 
Q 42.09375 47.5625 43.96875 44.109375 
Q 45.84375 40.671875 46.59375 36.734375 
Q 47.359375 32.8125 47.359375 27.828125 
z
" id="DejaVuSans-1512"/>
     </defs>
     <use xlink:href="#DejaVuSans-55"/>
     <use x="63.623047" xlink:href="#DejaVuSans-52"/>
     <use x="127.246094" xlink:href="#DejaVuSans-32"/>
     <use x="159.033203" xlink:href="#DejaVuSans-1492"/>
     <use x="224.365234" xlink:href="#DejaVuSans-1500"/>
     <use x="281.201172" xlink:href="#DejaVuSans-1500"/>
     <use x="338.037109" xlink:href="#DejaVuSans-1488"/>
     <use x="404.882812" xlink:href="#DejaVuSans-1502"/>
     <use x="472.802734" xlink:href="#DejaVuSans-1488"/>
     <use x="539.648438" xlink:href="#DejaVuSans-1512"/>
    </g>
   </g>
   <g id="legend_1">
    <g id="patch_7">
     <path d="M 97 95.234375 
L 221.582812 95.234375 
Q 223.582812 95.234375 223.582812 93.234375 
L 223.582812 50.2 
Q 223.582812 48.2 221.582812 48.2 
L 97 48.2 
Q 95 48.2 95 50.2 
L 95 93.234375 
Q 95 95.234375 97 95.234375 
z
" style="fill:#ffffff;opacity:0.8;stroke:#cccccc;stroke-linejoin:miter;"/>
    </g>
    <g id="line2d_104">
     <path d="M 99 56.298437 
L 119 56.298437 
" style="fill:none;stroke:#008000;stroke-linecap:square;stroke-width:1.5;"/>
    </g>
    <g id="line2d_105"/>
    <g id="text_20">
     <!-- Test-adjusted -->
     <g transform="translate(127 59.798437)scale(0.1 -0.1)">
      <defs>
       <path d="M -0.296875 72.90625 
L 61.375 72.90625 
L 61.375 64.59375 
L 35.5 64.59375 
L 35.5 0 
L 25.59375 0 
L 25.59375 64.59375 
L -0.296875 64.59375 
z
" id="DejaVuSans-84"/>
       <path d="M 44.28125 53.078125 
L 44.28125 44.578125 
Q 40.484375 46.53125 36.375 47.5 
Q 32.28125 48.484375 27.875 48.484375 
Q 21.1875 48.484375 17.84375 46.4375 
Q 14.5 44.390625 14.5 40.28125 
Q 14.5 37.15625 16.890625 35.375 
Q 19.28125 33.59375 26.515625 31.984375 
L 29.59375 31.296875 
Q 39.15625 29.25 43.1875 25.515625 
Q 47.21875 21.78125 47.21875 15.09375 
Q 47.21875 7.46875 41.1875 3.015625 
Q 35.15625 -1.421875 24.609375 -1.421875 
Q 20.21875 -1.421875 15.453125 -0.5625 
Q 10.6875 0.296875 5.421875 2 
L 5.421875 11.28125 
Q 10.40625 8.6875 15.234375 7.390625 
Q 20.0625 6.109375 24.8125 6.109375 
Q 31.15625 6.109375 34.5625 8.28125 
Q 37.984375 10.453125 37.984375 14.40625 
Q 37.984375 18.0625 35.515625 20.015625 
Q 33.0625 21.96875 24.703125 23.78125 
L 21.578125 24.515625 
Q 13.234375 26.265625 9.515625 29.90625 
Q 5.8125 33.546875 5.8125 39.890625 
Q 5.8125 47.609375 11.28125 51.796875 
Q 16.75 56 26.8125 56 
Q 31.78125 56 36.171875 55.265625 
Q 40.578125 54.546875 44.28125 53.078125 
z
" id="DejaVuSans-115"/>
       <path d="M 4.890625 31.390625 
L 31.203125 31.390625 
L 31.203125 23.390625 
L 4.890625 23.390625 
z
" id="DejaVuSans-45"/>
       <path d="M 9.421875 54.6875 
L 18.40625 54.6875 
L 18.40625 -0.984375 
Q 18.40625 -11.421875 14.421875 -16.109375 
Q 10.453125 -20.796875 1.609375 -20.796875 
L -1.8125 -20.796875 
L -1.8125 -13.1875 
L 0.59375 -13.1875 
Q 5.71875 -13.1875 7.5625 -10.8125 
Q 9.421875 -8.453125 9.421875 -0.984375 
z
M 9.421875 75.984375 
L 18.40625 75.984375 
L 18.40625 64.59375 
L 9.421875 64.59375 
z
" id="DejaVuSans-106"/>
      </defs>
      <use xlink:href="#DejaVuSans-84"/>
      <use x="44.083984" xlink:href="#DejaVuSans-101"/>
      <use x="105.607422" xlink:href="#DejaVuSans-115"/>
      <use x="157.707031" xlink:href="#DejaVuSans-116"/>
      <use x="196.916016" xlink:href="#DejaVuSans-45"/>
      <use x="233" xlink:href="#DejaVuSans-97"/>
      <use x="294.279297" xlink:href="#DejaVuSans-100"/>
      <use x="357.755859" xlink:href="#DejaVuSans-106"/>
      <use x="385.539062" xlink:href="#DejaVuSans-117"/>
      <use x="448.917969" xlink:href="#DejaVuSans-115"/>
      <use x="501.017578" xlink:href="#DejaVuSans-116"/>
      <use x="540.226562" xlink:href="#DejaVuSans-101"/>
      <use x="601.75" xlink:href="#DejaVuSans-100"/>
     </g>
    </g>
    <g id="line2d_106">
     <path d="M 99 70.976562 
L 119 70.976562 
" style="fill:none;stroke:#0000ff;stroke-linecap:square;stroke-width:1.5;"/>
    </g>
    <g id="line2d_107"/>
    <g id="text_21">
     <!-- Infections -->
     <g transform="translate(127 74.476562)scale(0.1 -0.1)">
      <defs>
       <path d="M 9.8125 72.90625 
L 19.671875 72.90625 
L 19.671875 0 
L 9.8125 0 
z
" id="DejaVuSans-73"/>
       <path d="M 37.109375 75.984375 
L 37.109375 68.5 
L 28.515625 68.5 
Q 23.6875 68.5 21.796875 66.546875 
Q 19.921875 64.59375 19.921875 59.515625 
L 19.921875 54.6875 
L 34.71875 54.6875 
L 34.71875 47.703125 
L 19.921875 47.703125 
L 19.921875 0 
L 10.890625 0 
L 10.890625 47.703125 
L 2.296875 47.703125 
L 2.296875 54.6875 
L 10.890625 54.6875 
L 10.890625 58.5 
Q 10.890625 67.625 15.140625 71.796875 
Q 19.390625 75.984375 28.609375 75.984375 
z
" id="DejaVuSans-102"/>
       <path d="M 9.421875 54.6875 
L 18.40625 54.6875 
L 18.40625 0 
L 9.421875 0 
z
M 9.421875 75.984375 
L 18.40625 75.984375 
L 18.40625 64.59375 
L 9.421875 64.59375 
z
" id="DejaVuSans-105"/>
      </defs>
      <use xlink:href="#DejaVuSans-73"/>
      <use x="29.492188" xlink:href="#DejaVuSans-110"/>
      <use x="92.871094" xlink:href="#DejaVuSans-102"/>
      <use x="128.076172" xlink:href="#DejaVuSans-101"/>
      <use x="189.599609" xlink:href="#DejaVuSans-99"/>
      <use x="244.580078" xlink:href="#DejaVuSans-116"/>
      <use x="283.789062" xlink:href="#DejaVuSans-105"/>
      <use x="311.572266" xlink:href="#DejaVuSans-111"/>
      <use x="372.753906" xlink:href="#DejaVuSans-110"/>
      <use x="436.132812" xlink:href="#DejaVuSans-115"/>
     </g>
    </g>
    <g id="line2d_108">
     <path d="M 99 85.654687 
L 119 85.654687 
" style="fill:none;stroke:#ff0000;stroke-linecap:square;stroke-opacity:0.7;stroke-width:1.5;"/>
    </g>
    <g id="line2d_109"/>
    <g id="text_22">
     <!-- Reported Positives -->
     <g transform="translate(127 89.154687)scale(0.1 -0.1)">
      <defs>
       <path d="M 44.390625 34.1875 
Q 47.5625 33.109375 50.5625 29.59375 
Q 53.5625 26.078125 56.59375 19.921875 
L 66.609375 0 
L 56 0 
L 46.6875 18.703125 
Q 43.0625 26.03125 39.671875 28.421875 
Q 36.28125 30.8125 30.421875 30.8125 
L 19.671875 30.8125 
L 19.671875 0 
L 9.8125 0 
L 9.8125 72.90625 
L 32.078125 72.90625 
Q 44.578125 72.90625 50.734375 67.671875 
Q 56.890625 62.453125 56.890625 51.90625 
Q 56.890625 45.015625 53.6875 40.46875 
Q 50.484375 35.9375 44.390625 34.1875 
z
M 19.671875 64.796875 
L 19.671875 38.921875 
L 32.078125 38.921875 
Q 39.203125 38.921875 42.84375 42.21875 
Q 46.484375 45.515625 46.484375 51.90625 
Q 46.484375 58.296875 42.84375 61.546875 
Q 39.203125 64.796875 32.078125 64.796875 
z
" id="DejaVuSans-82"/>
       <path d="M 19.671875 64.796875 
L 19.671875 37.40625 
L 32.078125 37.40625 
Q 38.96875 37.40625 42.71875 40.96875 
Q 46.484375 44.53125 46.484375 51.125 
Q 46.484375 57.671875 42.71875 61.234375 
Q 38.96875 64.796875 32.078125 64.796875 
z
M 9.8125 72.90625 
L 32.078125 72.90625 
Q 44.34375 72.90625 50.609375 67.359375 
Q 56.890625 61.8125 56.890625 51.125 
Q 56.890625 40.328125 50.609375 34.8125 
Q 44.34375 29.296875 32.078125 29.296875 
L 19.671875 29.296875 
L 19.671875 0 
L 9.8125 0 
z
" id="DejaVuSans-80"/>
      </defs>
      <use xlink:href="#DejaVuSans-82"/>
      <use x="64.982422" xlink:href="#DejaVuSans-101"/>
      <use x="126.505859" xlink:href="#DejaVuSans-112"/>
      <use x="189.982422" xlink:href="#DejaVuSans-111"/>
      <use x="251.164062" xlink:href="#DejaVuSans-114"/>
      <use x="292.277344" xlink:href="#DejaVuSans-116"/>
      <use x="331.486328" xlink:href="#DejaVuSans-101"/>
      <use x="393.009766" xlink:href="#DejaVuSans-100"/>
      <use x="456.486328" xlink:href="#DejaVuSans-32"/>
      <use x="488.273438" xlink:href="#DejaVuSans-80"/>
      <use x="544.951172" xlink:href="#DejaVuSans-111"/>
      <use x="606.132812" xlink:href="#DejaVuSans-115"/>
      <use x="658.232422" xlink:href="#DejaVuSans-105"/>
      <use x="686.015625" xlink:href="#DejaVuSans-116"/>
      <use x="725.224609" xlink:href="#DejaVuSans-105"/>
      <use x="753.007812" xlink:href="#DejaVuSans-118"/>
      <use x="812.1875" xlink:href="#DejaVuSans-101"/>
      <use x="873.710938" xlink:href="#DejaVuSans-115"/>
     </g>
    </g>
   </g>
  </g>
 </g>
 <defs>
  <clipPath id="p2ad2d1b14d">
   <rect height="271.8" width="558" x="90" y="43.2"/>
  </clipPath>
 </defs>
</svg>
