<?xml version="1.0" encoding="utf-8" standalone="no"?>
<!DOCTYPE svg PUBLIC "-//W3C//DTD SVG 1.1//EN"
  "http://www.w3.org/Graphics/SVG/1.1/DTD/svg11.dtd">
<!-- Created with matplotlib (https://matplotlib.org/) -->
<svg height="360pt" version="1.1" viewBox="0 0 720 360" width="720pt" xmlns="http://www.w3.org/2000/svg" xmlns:xlink="http://www.w3.org/1999/xlink">
 <metadata>
  <rdf:RDF xmlns:cc="http://creativecommons.org/ns#" xmlns:dc="http://purl.org/dc/elements/1.1/" xmlns:rdf="http://www.w3.org/1999/02/22-rdf-syntax-ns#">
   <cc:Work>
    <dc:type rdf:resource="http://purl.org/dc/dcmitype/StillImage"/>
    <dc:date>2021-02-14T11:49:13.087152</dc:date>
    <dc:format>image/svg+xml</dc:format>
    <dc:creator>
     <cc:Agent>
      <dc:title>Matplotlib v3.3.2, https://matplotlib.org/</dc:title>
     </cc:Agent>
    </dc:creator>
   </cc:Work>
  </rdf:RDF>
 </metadata>
 <defs>
  <style type="text/css">*{stroke-linecap:butt;stroke-linejoin:round;}</style>
 </defs>
 <g id="figure_1">
  <g id="patch_1">
   <path d="M 0 360 
L 720 360 
L 720 0 
L 0 0 
z
" style="fill:#ffffff;"/>
  </g>
  <g id="axes_1">
   <g id="patch_2">
    <path d="M 90 315 
L 648 315 
L 648 43.2 
L 90 43.2 
z
" style="fill:#ffffff;"/>
   </g>
   <g id="matplotlib.axis_1">
    <g id="xtick_1">
     <g id="line2d_1">
      <defs>
       <path d="M 0 0 
L 0 3.5 
" id="m68d9c994d2" style="stroke:#000000;stroke-width:0.8;"/>
      </defs>
      <g>
       <use style="stroke:#000000;stroke-width:0.8;" x="90" xlink:href="#m68d9c994d2" y="315"/>
      </g>
     </g>
    </g>
    <g id="xtick_2">
     <g id="line2d_2">
      <g>
       <use style="stroke:#000000;stroke-width:0.8;" x="123.115727" xlink:href="#m68d9c994d2" y="315"/>
      </g>
     </g>
     <g id="text_1">
      <!-- Apr -->
      <g transform="translate(114.465727 329.598437)scale(0.1 -0.1)">
       <defs>
        <path d="M 34.1875 63.1875 
L 20.796875 26.90625 
L 47.609375 26.90625 
z
M 28.609375 72.90625 
L 39.796875 72.90625 
L 67.578125 0 
L 57.328125 0 
L 50.6875 18.703125 
L 17.828125 18.703125 
L 11.1875 0 
L 0.78125 0 
z
" id="DejaVuSans-65"/>
        <path d="M 18.109375 8.203125 
L 18.109375 -20.796875 
L 9.078125 -20.796875 
L 9.078125 54.6875 
L 18.109375 54.6875 
L 18.109375 46.390625 
Q 20.953125 51.265625 25.265625 53.625 
Q 29.59375 56 35.59375 56 
Q 45.5625 56 51.78125 48.09375 
Q 58.015625 40.1875 58.015625 27.296875 
Q 58.015625 14.40625 51.78125 6.484375 
Q 45.5625 -1.421875 35.59375 -1.421875 
Q 29.59375 -1.421875 25.265625 0.953125 
Q 20.953125 3.328125 18.109375 8.203125 
z
M 48.6875 27.296875 
Q 48.6875 37.203125 44.609375 42.84375 
Q 40.53125 48.484375 33.40625 48.484375 
Q 26.265625 48.484375 22.1875 42.84375 
Q 18.109375 37.203125 18.109375 27.296875 
Q 18.109375 17.390625 22.1875 11.75 
Q 26.265625 6.109375 33.40625 6.109375 
Q 40.53125 6.109375 44.609375 11.75 
Q 48.6875 17.390625 48.6875 27.296875 
z
" id="DejaVuSans-112"/>
        <path d="M 41.109375 46.296875 
Q 39.59375 47.171875 37.8125 47.578125 
Q 36.03125 48 33.890625 48 
Q 26.265625 48 22.1875 43.046875 
Q 18.109375 38.09375 18.109375 28.8125 
L 18.109375 0 
L 9.078125 0 
L 9.078125 54.6875 
L 18.109375 54.6875 
L 18.109375 46.1875 
Q 20.953125 51.171875 25.484375 53.578125 
Q 30.03125 56 36.53125 56 
Q 37.453125 56 38.578125 55.875 
Q 39.703125 55.765625 41.0625 55.515625 
z
" id="DejaVuSans-114"/>
       </defs>
       <use xlink:href="#DejaVuSans-65"/>
       <use x="68.408203" xlink:href="#DejaVuSans-112"/>
       <use x="131.884766" xlink:href="#DejaVuSans-114"/>
      </g>
     </g>
    </g>
    <g id="xtick_3">
     <g id="line2d_3">
      <g>
       <use style="stroke:#000000;stroke-width:0.8;" x="172.789318" xlink:href="#m68d9c994d2" y="315"/>
      </g>
     </g>
     <g id="text_2">
      <!-- May -->
      <g transform="translate(162.451818 329.598437)scale(0.1 -0.1)">
       <defs>
        <path d="M 9.8125 72.90625 
L 24.515625 72.90625 
L 43.109375 23.296875 
L 61.8125 72.90625 
L 76.515625 72.90625 
L 76.515625 0 
L 66.890625 0 
L 66.890625 64.015625 
L 48.09375 14.015625 
L 38.1875 14.015625 
L 19.390625 64.015625 
L 19.390625 0 
L 9.8125 0 
z
" id="DejaVuSans-77"/>
        <path d="M 34.28125 27.484375 
Q 23.390625 27.484375 19.1875 25 
Q 14.984375 22.515625 14.984375 16.5 
Q 14.984375 11.71875 18.140625 8.90625 
Q 21.296875 6.109375 26.703125 6.109375 
Q 34.1875 6.109375 38.703125 11.40625 
Q 43.21875 16.703125 43.21875 25.484375 
L 43.21875 27.484375 
z
M 52.203125 31.203125 
L 52.203125 0 
L 43.21875 0 
L 43.21875 8.296875 
Q 40.140625 3.328125 35.546875 0.953125 
Q 30.953125 -1.421875 24.3125 -1.421875 
Q 15.921875 -1.421875 10.953125 3.296875 
Q 6 8.015625 6 15.921875 
Q 6 25.140625 12.171875 29.828125 
Q 18.359375 34.515625 30.609375 34.515625 
L 43.21875 34.515625 
L 43.21875 35.40625 
Q 43.21875 41.609375 39.140625 45 
Q 35.0625 48.390625 27.6875 48.390625 
Q 23 48.390625 18.546875 47.265625 
Q 14.109375 46.140625 10.015625 43.890625 
L 10.015625 52.203125 
Q 14.9375 54.109375 19.578125 55.046875 
Q 24.21875 56 28.609375 56 
Q 40.484375 56 46.34375 49.84375 
Q 52.203125 43.703125 52.203125 31.203125 
z
" id="DejaVuSans-97"/>
        <path d="M 32.171875 -5.078125 
Q 28.375 -14.84375 24.75 -17.8125 
Q 21.140625 -20.796875 15.09375 -20.796875 
L 7.90625 -20.796875 
L 7.90625 -13.28125 
L 13.1875 -13.28125 
Q 16.890625 -13.28125 18.9375 -11.515625 
Q 21 -9.765625 23.484375 -3.21875 
L 25.09375 0.875 
L 2.984375 54.6875 
L 12.5 54.6875 
L 29.59375 11.921875 
L 46.6875 54.6875 
L 56.203125 54.6875 
z
" id="DejaVuSans-121"/>
       </defs>
       <use xlink:href="#DejaVuSans-77"/>
       <use x="86.279297" xlink:href="#DejaVuSans-97"/>
       <use x="147.558594" xlink:href="#DejaVuSans-121"/>
      </g>
     </g>
    </g>
    <g id="xtick_4">
     <g id="line2d_4">
      <g>
       <use style="stroke:#000000;stroke-width:0.8;" x="224.118694" xlink:href="#m68d9c994d2" y="315"/>
      </g>
     </g>
     <g id="text_3">
      <!-- Jun -->
      <g transform="translate(216.306194 329.598437)scale(0.1 -0.1)">
       <defs>
        <path d="M 9.8125 72.90625 
L 19.671875 72.90625 
L 19.671875 5.078125 
Q 19.671875 -8.109375 14.671875 -14.0625 
Q 9.671875 -20.015625 -1.421875 -20.015625 
L -5.171875 -20.015625 
L -5.171875 -11.71875 
L -2.09375 -11.71875 
Q 4.4375 -11.71875 7.125 -8.046875 
Q 9.8125 -4.390625 9.8125 5.078125 
z
" id="DejaVuSans-74"/>
        <path d="M 8.5 21.578125 
L 8.5 54.6875 
L 17.484375 54.6875 
L 17.484375 21.921875 
Q 17.484375 14.15625 20.5 10.265625 
Q 23.53125 6.390625 29.59375 6.390625 
Q 36.859375 6.390625 41.078125 11.03125 
Q 45.3125 15.671875 45.3125 23.6875 
L 45.3125 54.6875 
L 54.296875 54.6875 
L 54.296875 0 
L 45.3125 0 
L 45.3125 8.40625 
Q 42.046875 3.421875 37.71875 1 
Q 33.40625 -1.421875 27.6875 -1.421875 
Q 18.265625 -1.421875 13.375 4.4375 
Q 8.5 10.296875 8.5 21.578125 
z
M 31.109375 56 
z
" id="DejaVuSans-117"/>
        <path d="M 54.890625 33.015625 
L 54.890625 0 
L 45.90625 0 
L 45.90625 32.71875 
Q 45.90625 40.484375 42.875 44.328125 
Q 39.84375 48.1875 33.796875 48.1875 
Q 26.515625 48.1875 22.3125 43.546875 
Q 18.109375 38.921875 18.109375 30.90625 
L 18.109375 0 
L 9.078125 0 
L 9.078125 54.6875 
L 18.109375 54.6875 
L 18.109375 46.1875 
Q 21.34375 51.125 25.703125 53.5625 
Q 30.078125 56 35.796875 56 
Q 45.21875 56 50.046875 50.171875 
Q 54.890625 44.34375 54.890625 33.015625 
z
" id="DejaVuSans-110"/>
       </defs>
       <use xlink:href="#DejaVuSans-74"/>
       <use x="29.492188" xlink:href="#DejaVuSans-117"/>
       <use x="92.871094" xlink:href="#DejaVuSans-110"/>
      </g>
     </g>
    </g>
    <g id="xtick_5">
     <g id="line2d_5">
      <g>
       <use style="stroke:#000000;stroke-width:0.8;" x="273.792285" xlink:href="#m68d9c994d2" y="315"/>
      </g>
     </g>
     <g id="text_4">
      <!-- Jul -->
      <g transform="translate(267.759472 329.598437)scale(0.1 -0.1)">
       <defs>
        <path d="M 9.421875 75.984375 
L 18.40625 75.984375 
L 18.40625 0 
L 9.421875 0 
z
" id="DejaVuSans-108"/>
       </defs>
       <use xlink:href="#DejaVuSans-74"/>
       <use x="29.492188" xlink:href="#DejaVuSans-117"/>
       <use x="92.871094" xlink:href="#DejaVuSans-108"/>
      </g>
     </g>
    </g>
    <g id="xtick_6">
     <g id="line2d_6">
      <g>
       <use style="stroke:#000000;stroke-width:0.8;" x="325.121662" xlink:href="#m68d9c994d2" y="315"/>
      </g>
     </g>
     <g id="text_5">
      <!-- Aug -->
      <g transform="translate(315.35838 329.598437)scale(0.1 -0.1)">
       <defs>
        <path d="M 45.40625 27.984375 
Q 45.40625 37.75 41.375 43.109375 
Q 37.359375 48.484375 30.078125 48.484375 
Q 22.859375 48.484375 18.828125 43.109375 
Q 14.796875 37.75 14.796875 27.984375 
Q 14.796875 18.265625 18.828125 12.890625 
Q 22.859375 7.515625 30.078125 7.515625 
Q 37.359375 7.515625 41.375 12.890625 
Q 45.40625 18.265625 45.40625 27.984375 
z
M 54.390625 6.78125 
Q 54.390625 -7.171875 48.1875 -13.984375 
Q 42 -20.796875 29.203125 -20.796875 
Q 24.46875 -20.796875 20.265625 -20.09375 
Q 16.0625 -19.390625 12.109375 -17.921875 
L 12.109375 -9.1875 
Q 16.0625 -11.328125 19.921875 -12.34375 
Q 23.78125 -13.375 27.78125 -13.375 
Q 36.625 -13.375 41.015625 -8.765625 
Q 45.40625 -4.15625 45.40625 5.171875 
L 45.40625 9.625 
Q 42.625 4.78125 38.28125 2.390625 
Q 33.9375 0 27.875 0 
Q 17.828125 0 11.671875 7.65625 
Q 5.515625 15.328125 5.515625 27.984375 
Q 5.515625 40.671875 11.671875 48.328125 
Q 17.828125 56 27.875 56 
Q 33.9375 56 38.28125 53.609375 
Q 42.625 51.21875 45.40625 46.390625 
L 45.40625 54.6875 
L 54.390625 54.6875 
z
" id="DejaVuSans-103"/>
       </defs>
       <use xlink:href="#DejaVuSans-65"/>
       <use x="68.408203" xlink:href="#DejaVuSans-117"/>
       <use x="131.787109" xlink:href="#DejaVuSans-103"/>
      </g>
     </g>
    </g>
    <g id="xtick_7">
     <g id="line2d_7">
      <g>
       <use style="stroke:#000000;stroke-width:0.8;" x="376.451039" xlink:href="#m68d9c994d2" y="315"/>
      </g>
     </g>
     <g id="text_6">
      <!-- Sep -->
      <g transform="translate(367.026039 329.598437)scale(0.1 -0.1)">
       <defs>
        <path d="M 53.515625 70.515625 
L 53.515625 60.890625 
Q 47.90625 63.578125 42.921875 64.890625 
Q 37.9375 66.21875 33.296875 66.21875 
Q 25.25 66.21875 20.875 63.09375 
Q 16.5 59.96875 16.5 54.203125 
Q 16.5 49.359375 19.40625 46.890625 
Q 22.3125 44.4375 30.421875 42.921875 
L 36.375 41.703125 
Q 47.40625 39.59375 52.65625 34.296875 
Q 57.90625 29 57.90625 20.125 
Q 57.90625 9.515625 50.796875 4.046875 
Q 43.703125 -1.421875 29.984375 -1.421875 
Q 24.8125 -1.421875 18.96875 -0.25 
Q 13.140625 0.921875 6.890625 3.21875 
L 6.890625 13.375 
Q 12.890625 10.015625 18.65625 8.296875 
Q 24.421875 6.59375 29.984375 6.59375 
Q 38.421875 6.59375 43.015625 9.90625 
Q 47.609375 13.234375 47.609375 19.390625 
Q 47.609375 24.75 44.3125 27.78125 
Q 41.015625 30.8125 33.5 32.328125 
L 27.484375 33.5 
Q 16.453125 35.6875 11.515625 40.375 
Q 6.59375 45.0625 6.59375 53.421875 
Q 6.59375 63.09375 13.40625 68.65625 
Q 20.21875 74.21875 32.171875 74.21875 
Q 37.3125 74.21875 42.625 73.28125 
Q 47.953125 72.359375 53.515625 70.515625 
z
" id="DejaVuSans-83"/>
        <path d="M 56.203125 29.59375 
L 56.203125 25.203125 
L 14.890625 25.203125 
Q 15.484375 15.921875 20.484375 11.0625 
Q 25.484375 6.203125 34.421875 6.203125 
Q 39.59375 6.203125 44.453125 7.46875 
Q 49.3125 8.734375 54.109375 11.28125 
L 54.109375 2.78125 
Q 49.265625 0.734375 44.1875 -0.34375 
Q 39.109375 -1.421875 33.890625 -1.421875 
Q 20.796875 -1.421875 13.15625 6.1875 
Q 5.515625 13.8125 5.515625 26.8125 
Q 5.515625 40.234375 12.765625 48.109375 
Q 20.015625 56 32.328125 56 
Q 43.359375 56 49.78125 48.890625 
Q 56.203125 41.796875 56.203125 29.59375 
z
M 47.21875 32.234375 
Q 47.125 39.59375 43.09375 43.984375 
Q 39.0625 48.390625 32.421875 48.390625 
Q 24.90625 48.390625 20.390625 44.140625 
Q 15.875 39.890625 15.1875 32.171875 
z
" id="DejaVuSans-101"/>
       </defs>
       <use xlink:href="#DejaVuSans-83"/>
       <use x="63.476562" xlink:href="#DejaVuSans-101"/>
       <use x="125" xlink:href="#DejaVuSans-112"/>
      </g>
     </g>
    </g>
    <g id="xtick_8">
     <g id="line2d_8">
      <g>
       <use style="stroke:#000000;stroke-width:0.8;" x="426.124629" xlink:href="#m68d9c994d2" y="315"/>
      </g>
     </g>
     <g id="text_7">
      <!-- Oct -->
      <g transform="translate(417.479317 329.598437)scale(0.1 -0.1)">
       <defs>
        <path d="M 39.40625 66.21875 
Q 28.65625 66.21875 22.328125 58.203125 
Q 16.015625 50.203125 16.015625 36.375 
Q 16.015625 22.609375 22.328125 14.59375 
Q 28.65625 6.59375 39.40625 6.59375 
Q 50.140625 6.59375 56.421875 14.59375 
Q 62.703125 22.609375 62.703125 36.375 
Q 62.703125 50.203125 56.421875 58.203125 
Q 50.140625 66.21875 39.40625 66.21875 
z
M 39.40625 74.21875 
Q 54.734375 74.21875 63.90625 63.9375 
Q 73.09375 53.65625 73.09375 36.375 
Q 73.09375 19.140625 63.90625 8.859375 
Q 54.734375 -1.421875 39.40625 -1.421875 
Q 24.03125 -1.421875 14.8125 8.828125 
Q 5.609375 19.09375 5.609375 36.375 
Q 5.609375 53.65625 14.8125 63.9375 
Q 24.03125 74.21875 39.40625 74.21875 
z
" id="DejaVuSans-79"/>
        <path d="M 48.78125 52.59375 
L 48.78125 44.1875 
Q 44.96875 46.296875 41.140625 47.34375 
Q 37.3125 48.390625 33.40625 48.390625 
Q 24.65625 48.390625 19.8125 42.84375 
Q 14.984375 37.3125 14.984375 27.296875 
Q 14.984375 17.28125 19.8125 11.734375 
Q 24.65625 6.203125 33.40625 6.203125 
Q 37.3125 6.203125 41.140625 7.25 
Q 44.96875 8.296875 48.78125 10.40625 
L 48.78125 2.09375 
Q 45.015625 0.34375 40.984375 -0.53125 
Q 36.96875 -1.421875 32.421875 -1.421875 
Q 20.0625 -1.421875 12.78125 6.34375 
Q 5.515625 14.109375 5.515625 27.296875 
Q 5.515625 40.671875 12.859375 48.328125 
Q 20.21875 56 33.015625 56 
Q 37.15625 56 41.109375 55.140625 
Q 45.0625 54.296875 48.78125 52.59375 
z
" id="DejaVuSans-99"/>
        <path d="M 18.3125 70.21875 
L 18.3125 54.6875 
L 36.8125 54.6875 
L 36.8125 47.703125 
L 18.3125 47.703125 
L 18.3125 18.015625 
Q 18.3125 11.328125 20.140625 9.421875 
Q 21.96875 7.515625 27.59375 7.515625 
L 36.8125 7.515625 
L 36.8125 0 
L 27.59375 0 
Q 17.1875 0 13.234375 3.875 
Q 9.28125 7.765625 9.28125 18.015625 
L 9.28125 47.703125 
L 2.6875 47.703125 
L 2.6875 54.6875 
L 9.28125 54.6875 
L 9.28125 70.21875 
z
" id="DejaVuSans-116"/>
       </defs>
       <use xlink:href="#DejaVuSans-79"/>
       <use x="78.710938" xlink:href="#DejaVuSans-99"/>
       <use x="133.691406" xlink:href="#DejaVuSans-116"/>
      </g>
     </g>
    </g>
    <g id="xtick_9">
     <g id="line2d_9">
      <g>
       <use style="stroke:#000000;stroke-width:0.8;" x="477.454006" xlink:href="#m68d9c994d2" y="315"/>
      </g>
     </g>
     <g id="text_8">
      <!-- Nov -->
      <g transform="translate(467.694631 329.598437)scale(0.1 -0.1)">
       <defs>
        <path d="M 9.8125 72.90625 
L 23.09375 72.90625 
L 55.421875 11.921875 
L 55.421875 72.90625 
L 64.984375 72.90625 
L 64.984375 0 
L 51.703125 0 
L 19.390625 60.984375 
L 19.390625 0 
L 9.8125 0 
z
" id="DejaVuSans-78"/>
        <path d="M 30.609375 48.390625 
Q 23.390625 48.390625 19.1875 42.75 
Q 14.984375 37.109375 14.984375 27.296875 
Q 14.984375 17.484375 19.15625 11.84375 
Q 23.34375 6.203125 30.609375 6.203125 
Q 37.796875 6.203125 41.984375 11.859375 
Q 46.1875 17.53125 46.1875 27.296875 
Q 46.1875 37.015625 41.984375 42.703125 
Q 37.796875 48.390625 30.609375 48.390625 
z
M 30.609375 56 
Q 42.328125 56 49.015625 48.375 
Q 55.71875 40.765625 55.71875 27.296875 
Q 55.71875 13.875 49.015625 6.21875 
Q 42.328125 -1.421875 30.609375 -1.421875 
Q 18.84375 -1.421875 12.171875 6.21875 
Q 5.515625 13.875 5.515625 27.296875 
Q 5.515625 40.765625 12.171875 48.375 
Q 18.84375 56 30.609375 56 
z
" id="DejaVuSans-111"/>
        <path d="M 2.984375 54.6875 
L 12.5 54.6875 
L 29.59375 8.796875 
L 46.6875 54.6875 
L 56.203125 54.6875 
L 35.6875 0 
L 23.484375 0 
z
" id="DejaVuSans-118"/>
       </defs>
       <use xlink:href="#DejaVuSans-78"/>
       <use x="74.804688" xlink:href="#DejaVuSans-111"/>
       <use x="135.986328" xlink:href="#DejaVuSans-118"/>
      </g>
     </g>
    </g>
    <g id="xtick_10">
     <g id="line2d_10">
      <g>
       <use style="stroke:#000000;stroke-width:0.8;" x="527.127596" xlink:href="#m68d9c994d2" y="315"/>
      </g>
     </g>
     <g id="text_9">
      <!-- Dec -->
      <g transform="translate(517.451815 329.598437)scale(0.1 -0.1)">
       <defs>
        <path d="M 19.671875 64.796875 
L 19.671875 8.109375 
L 31.59375 8.109375 
Q 46.6875 8.109375 53.6875 14.9375 
Q 60.6875 21.78125 60.6875 36.53125 
Q 60.6875 51.171875 53.6875 57.984375 
Q 46.6875 64.796875 31.59375 64.796875 
z
M 9.8125 72.90625 
L 30.078125 72.90625 
Q 51.265625 72.90625 61.171875 64.09375 
Q 71.09375 55.28125 71.09375 36.53125 
Q 71.09375 17.671875 61.125 8.828125 
Q 51.171875 0 30.078125 0 
L 9.8125 0 
z
" id="DejaVuSans-68"/>
       </defs>
       <use xlink:href="#DejaVuSans-68"/>
       <use x="77.001953" xlink:href="#DejaVuSans-101"/>
       <use x="138.525391" xlink:href="#DejaVuSans-99"/>
      </g>
     </g>
    </g>
    <g id="xtick_11">
     <g id="line2d_11">
      <g>
       <use style="stroke:#000000;stroke-width:0.8;" x="578.456973" xlink:href="#m68d9c994d2" y="315"/>
      </g>
     </g>
     <g id="text_10">
      <!-- Jan -->
      <g transform="translate(570.749161 329.598437)scale(0.1 -0.1)">
       <use xlink:href="#DejaVuSans-74"/>
       <use x="29.492188" xlink:href="#DejaVuSans-97"/>
       <use x="90.771484" xlink:href="#DejaVuSans-110"/>
      </g>
      <!-- 2021 -->
      <g transform="translate(565.731973 340.79625)scale(0.1 -0.1)">
       <defs>
        <path d="M 19.1875 8.296875 
L 53.609375 8.296875 
L 53.609375 0 
L 7.328125 0 
L 7.328125 8.296875 
Q 12.9375 14.109375 22.625 23.890625 
Q 32.328125 33.6875 34.8125 36.53125 
Q 39.546875 41.84375 41.421875 45.53125 
Q 43.3125 49.21875 43.3125 52.78125 
Q 43.3125 58.59375 39.234375 62.25 
Q 35.15625 65.921875 28.609375 65.921875 
Q 23.96875 65.921875 18.8125 64.3125 
Q 13.671875 62.703125 7.8125 59.421875 
L 7.8125 69.390625 
Q 13.765625 71.78125 18.9375 73 
Q 24.125 74.21875 28.421875 74.21875 
Q 39.75 74.21875 46.484375 68.546875 
Q 53.21875 62.890625 53.21875 53.421875 
Q 53.21875 48.921875 51.53125 44.890625 
Q 49.859375 40.875 45.40625 35.40625 
Q 44.1875 33.984375 37.640625 27.21875 
Q 31.109375 20.453125 19.1875 8.296875 
z
" id="DejaVuSans-50"/>
        <path d="M 31.78125 66.40625 
Q 24.171875 66.40625 20.328125 58.90625 
Q 16.5 51.421875 16.5 36.375 
Q 16.5 21.390625 20.328125 13.890625 
Q 24.171875 6.390625 31.78125 6.390625 
Q 39.453125 6.390625 43.28125 13.890625 
Q 47.125 21.390625 47.125 36.375 
Q 47.125 51.421875 43.28125 58.90625 
Q 39.453125 66.40625 31.78125 66.40625 
z
M 31.78125 74.21875 
Q 44.046875 74.21875 50.515625 64.515625 
Q 56.984375 54.828125 56.984375 36.375 
Q 56.984375 17.96875 50.515625 8.265625 
Q 44.046875 -1.421875 31.78125 -1.421875 
Q 19.53125 -1.421875 13.0625 8.265625 
Q 6.59375 17.96875 6.59375 36.375 
Q 6.59375 54.828125 13.0625 64.515625 
Q 19.53125 74.21875 31.78125 74.21875 
z
" id="DejaVuSans-48"/>
        <path d="M 12.40625 8.296875 
L 28.515625 8.296875 
L 28.515625 63.921875 
L 10.984375 60.40625 
L 10.984375 69.390625 
L 28.421875 72.90625 
L 38.28125 72.90625 
L 38.28125 8.296875 
L 54.390625 8.296875 
L 54.390625 0 
L 12.40625 0 
z
" id="DejaVuSans-49"/>
       </defs>
       <use xlink:href="#DejaVuSans-50"/>
       <use x="63.623047" xlink:href="#DejaVuSans-48"/>
       <use x="127.246094" xlink:href="#DejaVuSans-50"/>
       <use x="190.869141" xlink:href="#DejaVuSans-49"/>
      </g>
     </g>
    </g>
    <g id="xtick_12">
     <g id="line2d_12">
      <g>
       <use style="stroke:#000000;stroke-width:0.8;" x="629.78635" xlink:href="#m68d9c994d2" y="315"/>
      </g>
     </g>
     <g id="text_11">
      <!-- Feb -->
      <g transform="translate(620.934788 329.598437)scale(0.1 -0.1)">
       <defs>
        <path d="M 9.8125 72.90625 
L 51.703125 72.90625 
L 51.703125 64.59375 
L 19.671875 64.59375 
L 19.671875 43.109375 
L 48.578125 43.109375 
L 48.578125 34.8125 
L 19.671875 34.8125 
L 19.671875 0 
L 9.8125 0 
z
" id="DejaVuSans-70"/>
        <path d="M 48.6875 27.296875 
Q 48.6875 37.203125 44.609375 42.84375 
Q 40.53125 48.484375 33.40625 48.484375 
Q 26.265625 48.484375 22.1875 42.84375 
Q 18.109375 37.203125 18.109375 27.296875 
Q 18.109375 17.390625 22.1875 11.75 
Q 26.265625 6.109375 33.40625 6.109375 
Q 40.53125 6.109375 44.609375 11.75 
Q 48.6875 17.390625 48.6875 27.296875 
z
M 18.109375 46.390625 
Q 20.953125 51.265625 25.265625 53.625 
Q 29.59375 56 35.59375 56 
Q 45.5625 56 51.78125 48.09375 
Q 58.015625 40.1875 58.015625 27.296875 
Q 58.015625 14.40625 51.78125 6.484375 
Q 45.5625 -1.421875 35.59375 -1.421875 
Q 29.59375 -1.421875 25.265625 0.953125 
Q 20.953125 3.328125 18.109375 8.203125 
L 18.109375 0 
L 9.078125 0 
L 9.078125 75.984375 
L 18.109375 75.984375 
z
" id="DejaVuSans-98"/>
       </defs>
       <use xlink:href="#DejaVuSans-70"/>
       <use x="52.019531" xlink:href="#DejaVuSans-101"/>
       <use x="113.542969" xlink:href="#DejaVuSans-98"/>
      </g>
     </g>
    </g>
    <g id="xtick_13">
     <g id="line2d_13">
      <g>
       <use style="stroke:#000000;stroke-width:0.8;" x="648" xlink:href="#m68d9c994d2" y="315"/>
      </g>
     </g>
    </g>
    <g id="xtick_14">
     <g id="line2d_14">
      <defs>
       <path d="M 0 0 
L 0 2 
" id="mbbaf2ea4e1" style="stroke:#000000;stroke-width:0.6;"/>
      </defs>
      <g>
       <use style="stroke:#000000;stroke-width:0.6;" x="96.623145" xlink:href="#mbbaf2ea4e1" y="315"/>
      </g>
     </g>
    </g>
    <g id="xtick_15">
     <g id="line2d_15">
      <g>
       <use style="stroke:#000000;stroke-width:0.6;" x="108.21365" xlink:href="#mbbaf2ea4e1" y="315"/>
      </g>
     </g>
    </g>
    <g id="xtick_16">
     <g id="line2d_16">
      <g>
       <use style="stroke:#000000;stroke-width:0.6;" x="119.804154" xlink:href="#mbbaf2ea4e1" y="315"/>
      </g>
     </g>
    </g>
    <g id="xtick_17">
     <g id="line2d_17">
      <g>
       <use style="stroke:#000000;stroke-width:0.6;" x="131.394659" xlink:href="#mbbaf2ea4e1" y="315"/>
      </g>
     </g>
    </g>
    <g id="xtick_18">
     <g id="line2d_18">
      <g>
       <use style="stroke:#000000;stroke-width:0.6;" x="142.985163" xlink:href="#mbbaf2ea4e1" y="315"/>
      </g>
     </g>
    </g>
    <g id="xtick_19">
     <g id="line2d_19">
      <g>
       <use style="stroke:#000000;stroke-width:0.6;" x="154.575668" xlink:href="#mbbaf2ea4e1" y="315"/>
      </g>
     </g>
    </g>
    <g id="xtick_20">
     <g id="line2d_20">
      <g>
       <use style="stroke:#000000;stroke-width:0.6;" x="166.166172" xlink:href="#mbbaf2ea4e1" y="315"/>
      </g>
     </g>
    </g>
    <g id="xtick_21">
     <g id="line2d_21">
      <g>
       <use style="stroke:#000000;stroke-width:0.6;" x="177.756677" xlink:href="#mbbaf2ea4e1" y="315"/>
      </g>
     </g>
    </g>
    <g id="xtick_22">
     <g id="line2d_22">
      <g>
       <use style="stroke:#000000;stroke-width:0.6;" x="189.347181" xlink:href="#mbbaf2ea4e1" y="315"/>
      </g>
     </g>
    </g>
    <g id="xtick_23">
     <g id="line2d_23">
      <g>
       <use style="stroke:#000000;stroke-width:0.6;" x="200.937685" xlink:href="#mbbaf2ea4e1" y="315"/>
      </g>
     </g>
    </g>
    <g id="xtick_24">
     <g id="line2d_24">
      <g>
       <use style="stroke:#000000;stroke-width:0.6;" x="212.52819" xlink:href="#mbbaf2ea4e1" y="315"/>
      </g>
     </g>
    </g>
    <g id="xtick_25">
     <g id="line2d_25">
      <g>
       <use style="stroke:#000000;stroke-width:0.6;" x="235.709199" xlink:href="#mbbaf2ea4e1" y="315"/>
      </g>
     </g>
    </g>
    <g id="xtick_26">
     <g id="line2d_26">
      <g>
       <use style="stroke:#000000;stroke-width:0.6;" x="247.299703" xlink:href="#mbbaf2ea4e1" y="315"/>
      </g>
     </g>
    </g>
    <g id="xtick_27">
     <g id="line2d_27">
      <g>
       <use style="stroke:#000000;stroke-width:0.6;" x="258.890208" xlink:href="#mbbaf2ea4e1" y="315"/>
      </g>
     </g>
    </g>
    <g id="xtick_28">
     <g id="line2d_28">
      <g>
       <use style="stroke:#000000;stroke-width:0.6;" x="270.480712" xlink:href="#mbbaf2ea4e1" y="315"/>
      </g>
     </g>
    </g>
    <g id="xtick_29">
     <g id="line2d_29">
      <g>
       <use style="stroke:#000000;stroke-width:0.6;" x="282.071217" xlink:href="#mbbaf2ea4e1" y="315"/>
      </g>
     </g>
    </g>
    <g id="xtick_30">
     <g id="line2d_30">
      <g>
       <use style="stroke:#000000;stroke-width:0.6;" x="293.661721" xlink:href="#mbbaf2ea4e1" y="315"/>
      </g>
     </g>
    </g>
    <g id="xtick_31">
     <g id="line2d_31">
      <g>
       <use style="stroke:#000000;stroke-width:0.6;" x="305.252226" xlink:href="#mbbaf2ea4e1" y="315"/>
      </g>
     </g>
    </g>
    <g id="xtick_32">
     <g id="line2d_32">
      <g>
       <use style="stroke:#000000;stroke-width:0.6;" x="316.84273" xlink:href="#mbbaf2ea4e1" y="315"/>
      </g>
     </g>
    </g>
    <g id="xtick_33">
     <g id="line2d_33">
      <g>
       <use style="stroke:#000000;stroke-width:0.6;" x="328.433234" xlink:href="#mbbaf2ea4e1" y="315"/>
      </g>
     </g>
    </g>
    <g id="xtick_34">
     <g id="line2d_34">
      <g>
       <use style="stroke:#000000;stroke-width:0.6;" x="340.023739" xlink:href="#mbbaf2ea4e1" y="315"/>
      </g>
     </g>
    </g>
    <g id="xtick_35">
     <g id="line2d_35">
      <g>
       <use style="stroke:#000000;stroke-width:0.6;" x="351.614243" xlink:href="#mbbaf2ea4e1" y="315"/>
      </g>
     </g>
    </g>
    <g id="xtick_36">
     <g id="line2d_36">
      <g>
       <use style="stroke:#000000;stroke-width:0.6;" x="363.204748" xlink:href="#mbbaf2ea4e1" y="315"/>
      </g>
     </g>
    </g>
    <g id="xtick_37">
     <g id="line2d_37">
      <g>
       <use style="stroke:#000000;stroke-width:0.6;" x="374.795252" xlink:href="#mbbaf2ea4e1" y="315"/>
      </g>
     </g>
    </g>
    <g id="xtick_38">
     <g id="line2d_38">
      <g>
       <use style="stroke:#000000;stroke-width:0.6;" x="386.385757" xlink:href="#mbbaf2ea4e1" y="315"/>
      </g>
     </g>
    </g>
    <g id="xtick_39">
     <g id="line2d_39">
      <g>
       <use style="stroke:#000000;stroke-width:0.6;" x="397.976261" xlink:href="#mbbaf2ea4e1" y="315"/>
      </g>
     </g>
    </g>
    <g id="xtick_40">
     <g id="line2d_40">
      <g>
       <use style="stroke:#000000;stroke-width:0.6;" x="409.566766" xlink:href="#mbbaf2ea4e1" y="315"/>
      </g>
     </g>
    </g>
    <g id="xtick_41">
     <g id="line2d_41">
      <g>
       <use style="stroke:#000000;stroke-width:0.6;" x="421.15727" xlink:href="#mbbaf2ea4e1" y="315"/>
      </g>
     </g>
    </g>
    <g id="xtick_42">
     <g id="line2d_42">
      <g>
       <use style="stroke:#000000;stroke-width:0.6;" x="432.747774" xlink:href="#mbbaf2ea4e1" y="315"/>
      </g>
     </g>
    </g>
    <g id="xtick_43">
     <g id="line2d_43">
      <g>
       <use style="stroke:#000000;stroke-width:0.6;" x="444.338279" xlink:href="#mbbaf2ea4e1" y="315"/>
      </g>
     </g>
    </g>
    <g id="xtick_44">
     <g id="line2d_44">
      <g>
       <use style="stroke:#000000;stroke-width:0.6;" x="455.928783" xlink:href="#mbbaf2ea4e1" y="315"/>
      </g>
     </g>
    </g>
    <g id="xtick_45">
     <g id="line2d_45">
      <g>
       <use style="stroke:#000000;stroke-width:0.6;" x="467.519288" xlink:href="#mbbaf2ea4e1" y="315"/>
      </g>
     </g>
    </g>
    <g id="xtick_46">
     <g id="line2d_46">
      <g>
       <use style="stroke:#000000;stroke-width:0.6;" x="479.109792" xlink:href="#mbbaf2ea4e1" y="315"/>
      </g>
     </g>
    </g>
    <g id="xtick_47">
     <g id="line2d_47">
      <g>
       <use style="stroke:#000000;stroke-width:0.6;" x="490.700297" xlink:href="#mbbaf2ea4e1" y="315"/>
      </g>
     </g>
    </g>
    <g id="xtick_48">
     <g id="line2d_48">
      <g>
       <use style="stroke:#000000;stroke-width:0.6;" x="502.290801" xlink:href="#mbbaf2ea4e1" y="315"/>
      </g>
     </g>
    </g>
    <g id="xtick_49">
     <g id="line2d_49">
      <g>
       <use style="stroke:#000000;stroke-width:0.6;" x="513.881306" xlink:href="#mbbaf2ea4e1" y="315"/>
      </g>
     </g>
    </g>
    <g id="xtick_50">
     <g id="line2d_50">
      <g>
       <use style="stroke:#000000;stroke-width:0.6;" x="525.47181" xlink:href="#mbbaf2ea4e1" y="315"/>
      </g>
     </g>
    </g>
    <g id="xtick_51">
     <g id="line2d_51">
      <g>
       <use style="stroke:#000000;stroke-width:0.6;" x="537.062315" xlink:href="#mbbaf2ea4e1" y="315"/>
      </g>
     </g>
    </g>
    <g id="xtick_52">
     <g id="line2d_52">
      <g>
       <use style="stroke:#000000;stroke-width:0.6;" x="548.652819" xlink:href="#mbbaf2ea4e1" y="315"/>
      </g>
     </g>
    </g>
    <g id="xtick_53">
     <g id="line2d_53">
      <g>
       <use style="stroke:#000000;stroke-width:0.6;" x="560.243323" xlink:href="#mbbaf2ea4e1" y="315"/>
      </g>
     </g>
    </g>
    <g id="xtick_54">
     <g id="line2d_54">
      <g>
       <use style="stroke:#000000;stroke-width:0.6;" x="571.833828" xlink:href="#mbbaf2ea4e1" y="315"/>
      </g>
     </g>
    </g>
    <g id="xtick_55">
     <g id="line2d_55">
      <g>
       <use style="stroke:#000000;stroke-width:0.6;" x="583.424332" xlink:href="#mbbaf2ea4e1" y="315"/>
      </g>
     </g>
    </g>
    <g id="xtick_56">
     <g id="line2d_56">
      <g>
       <use style="stroke:#000000;stroke-width:0.6;" x="595.014837" xlink:href="#mbbaf2ea4e1" y="315"/>
      </g>
     </g>
    </g>
    <g id="xtick_57">
     <g id="line2d_57">
      <g>
       <use style="stroke:#000000;stroke-width:0.6;" x="606.605341" xlink:href="#mbbaf2ea4e1" y="315"/>
      </g>
     </g>
    </g>
    <g id="xtick_58">
     <g id="line2d_58">
      <g>
       <use style="stroke:#000000;stroke-width:0.6;" x="618.195846" xlink:href="#mbbaf2ea4e1" y="315"/>
      </g>
     </g>
    </g>
    <g id="xtick_59">
     <g id="line2d_59">
      <g>
       <use style="stroke:#000000;stroke-width:0.6;" x="641.376855" xlink:href="#mbbaf2ea4e1" y="315"/>
      </g>
     </g>
    </g>
    <g id="text_12">
     <!-- date -->
     <g transform="translate(357.725 354.474375)scale(0.1 -0.1)">
      <defs>
       <path d="M 45.40625 46.390625 
L 45.40625 75.984375 
L 54.390625 75.984375 
L 54.390625 0 
L 45.40625 0 
L 45.40625 8.203125 
Q 42.578125 3.328125 38.25 0.953125 
Q 33.9375 -1.421875 27.875 -1.421875 
Q 17.96875 -1.421875 11.734375 6.484375 
Q 5.515625 14.40625 5.515625 27.296875 
Q 5.515625 40.1875 11.734375 48.09375 
Q 17.96875 56 27.875 56 
Q 33.9375 56 38.25 53.625 
Q 42.578125 51.265625 45.40625 46.390625 
z
M 14.796875 27.296875 
Q 14.796875 17.390625 18.875 11.75 
Q 22.953125 6.109375 30.078125 6.109375 
Q 37.203125 6.109375 41.296875 11.75 
Q 45.40625 17.390625 45.40625 27.296875 
Q 45.40625 37.203125 41.296875 42.84375 
Q 37.203125 48.484375 30.078125 48.484375 
Q 22.953125 48.484375 18.875 42.84375 
Q 14.796875 37.203125 14.796875 27.296875 
z
" id="DejaVuSans-100"/>
      </defs>
      <use xlink:href="#DejaVuSans-100"/>
      <use x="63.476562" xlink:href="#DejaVuSans-97"/>
      <use x="124.755859" xlink:href="#DejaVuSans-116"/>
      <use x="163.964844" xlink:href="#DejaVuSans-101"/>
     </g>
    </g>
   </g>
   <g id="matplotlib.axis_2">
    <g id="ytick_1">
     <g id="line2d_60">
      <defs>
       <path d="M 0 0 
L -3.5 0 
" id="m280ab20f88" style="stroke:#000000;stroke-width:0.8;"/>
      </defs>
      <g>
       <use style="stroke:#000000;stroke-width:0.8;" x="90" xlink:href="#m280ab20f88" y="253.263369"/>
      </g>
     </g>
     <g id="text_13">
      <!-- $\mathdefault{10^{0}}$ -->
      <g transform="translate(65.4 257.062588)scale(0.1 -0.1)">
       <use transform="translate(0 0.765625)" xlink:href="#DejaVuSans-49"/>
       <use transform="translate(63.623047 0.765625)" xlink:href="#DejaVuSans-48"/>
       <use transform="translate(128.203125 39.046875)scale(0.7)" xlink:href="#DejaVuSans-48"/>
      </g>
     </g>
    </g>
    <g id="ytick_2">
     <g id="line2d_61">
      <g>
       <use style="stroke:#000000;stroke-width:0.8;" x="90" xlink:href="#m280ab20f88" y="174.385082"/>
      </g>
     </g>
     <g id="text_14">
      <!-- $\mathdefault{10^{1}}$ -->
      <g transform="translate(65.4 178.184301)scale(0.1 -0.1)">
       <use transform="translate(0 0.684375)" xlink:href="#DejaVuSans-49"/>
       <use transform="translate(63.623047 0.684375)" xlink:href="#DejaVuSans-48"/>
       <use transform="translate(128.203125 38.965625)scale(0.7)" xlink:href="#DejaVuSans-49"/>
      </g>
     </g>
    </g>
    <g id="ytick_3">
     <g id="line2d_62">
      <g>
       <use style="stroke:#000000;stroke-width:0.8;" x="90" xlink:href="#m280ab20f88" y="95.506795"/>
      </g>
     </g>
     <g id="text_15">
      <!-- $\mathdefault{10^{2}}$ -->
      <g transform="translate(65.4 99.306014)scale(0.1 -0.1)">
       <use transform="translate(0 0.765625)" xlink:href="#DejaVuSans-49"/>
       <use transform="translate(63.623047 0.765625)" xlink:href="#DejaVuSans-48"/>
       <use transform="translate(128.203125 39.046875)scale(0.7)" xlink:href="#DejaVuSans-50"/>
      </g>
     </g>
    </g>
    <g id="ytick_4">
     <g id="line2d_63">
      <defs>
       <path d="M 0 0 
L -2 0 
" id="m0fdd4d0f38" style="stroke:#000000;stroke-width:0.6;"/>
      </defs>
      <g>
       <use style="stroke:#000000;stroke-width:0.6;" x="90" xlink:href="#m0fdd4d0f38" y="308.396926"/>
      </g>
     </g>
    </g>
    <g id="ytick_5">
     <g id="line2d_64">
      <g>
       <use style="stroke:#000000;stroke-width:0.6;" x="90" xlink:href="#m0fdd4d0f38" y="294.507149"/>
      </g>
     </g>
    </g>
    <g id="ytick_6">
     <g id="line2d_65">
      <g>
       <use style="stroke:#000000;stroke-width:0.6;" x="90" xlink:href="#m0fdd4d0f38" y="284.652196"/>
      </g>
     </g>
    </g>
    <g id="ytick_7">
     <g id="line2d_66">
      <g>
       <use style="stroke:#000000;stroke-width:0.6;" x="90" xlink:href="#m0fdd4d0f38" y="277.0081"/>
      </g>
     </g>
    </g>
    <g id="ytick_8">
     <g id="line2d_67">
      <g>
       <use style="stroke:#000000;stroke-width:0.6;" x="90" xlink:href="#m0fdd4d0f38" y="270.762419"/>
      </g>
     </g>
    </g>
    <g id="ytick_9">
     <g id="line2d_68">
      <g>
       <use style="stroke:#000000;stroke-width:0.6;" x="90" xlink:href="#m0fdd4d0f38" y="265.481771"/>
      </g>
     </g>
    </g>
    <g id="ytick_10">
     <g id="line2d_69">
      <g>
       <use style="stroke:#000000;stroke-width:0.6;" x="90" xlink:href="#m0fdd4d0f38" y="260.907465"/>
      </g>
     </g>
    </g>
    <g id="ytick_11">
     <g id="line2d_70">
      <g>
       <use style="stroke:#000000;stroke-width:0.6;" x="90" xlink:href="#m0fdd4d0f38" y="256.872642"/>
      </g>
     </g>
    </g>
    <g id="ytick_12">
     <g id="line2d_71">
      <g>
       <use style="stroke:#000000;stroke-width:0.6;" x="90" xlink:href="#m0fdd4d0f38" y="229.518639"/>
      </g>
     </g>
    </g>
    <g id="ytick_13">
     <g id="line2d_72">
      <g>
       <use style="stroke:#000000;stroke-width:0.6;" x="90" xlink:href="#m0fdd4d0f38" y="215.628862"/>
      </g>
     </g>
    </g>
    <g id="ytick_14">
     <g id="line2d_73">
      <g>
       <use style="stroke:#000000;stroke-width:0.6;" x="90" xlink:href="#m0fdd4d0f38" y="205.773908"/>
      </g>
     </g>
    </g>
    <g id="ytick_15">
     <g id="line2d_74">
      <g>
       <use style="stroke:#000000;stroke-width:0.6;" x="90" xlink:href="#m0fdd4d0f38" y="198.129813"/>
      </g>
     </g>
    </g>
    <g id="ytick_16">
     <g id="line2d_75">
      <g>
       <use style="stroke:#000000;stroke-width:0.6;" x="90" xlink:href="#m0fdd4d0f38" y="191.884132"/>
      </g>
     </g>
    </g>
    <g id="ytick_17">
     <g id="line2d_76">
      <g>
       <use style="stroke:#000000;stroke-width:0.6;" x="90" xlink:href="#m0fdd4d0f38" y="186.603483"/>
      </g>
     </g>
    </g>
    <g id="ytick_18">
     <g id="line2d_77">
      <g>
       <use style="stroke:#000000;stroke-width:0.6;" x="90" xlink:href="#m0fdd4d0f38" y="182.029178"/>
      </g>
     </g>
    </g>
    <g id="ytick_19">
     <g id="line2d_78">
      <g>
       <use style="stroke:#000000;stroke-width:0.6;" x="90" xlink:href="#m0fdd4d0f38" y="177.994355"/>
      </g>
     </g>
    </g>
    <g id="ytick_20">
     <g id="line2d_79">
      <g>
       <use style="stroke:#000000;stroke-width:0.6;" x="90" xlink:href="#m0fdd4d0f38" y="150.640352"/>
      </g>
     </g>
    </g>
    <g id="ytick_21">
     <g id="line2d_80">
      <g>
       <use style="stroke:#000000;stroke-width:0.6;" x="90" xlink:href="#m0fdd4d0f38" y="136.750575"/>
      </g>
     </g>
    </g>
    <g id="ytick_22">
     <g id="line2d_81">
      <g>
       <use style="stroke:#000000;stroke-width:0.6;" x="90" xlink:href="#m0fdd4d0f38" y="126.895621"/>
      </g>
     </g>
    </g>
    <g id="ytick_23">
     <g id="line2d_82">
      <g>
       <use style="stroke:#000000;stroke-width:0.6;" x="90" xlink:href="#m0fdd4d0f38" y="119.251525"/>
      </g>
     </g>
    </g>
    <g id="ytick_24">
     <g id="line2d_83">
      <g>
       <use style="stroke:#000000;stroke-width:0.6;" x="90" xlink:href="#m0fdd4d0f38" y="113.005844"/>
      </g>
     </g>
    </g>
    <g id="ytick_25">
     <g id="line2d_84">
      <g>
       <use style="stroke:#000000;stroke-width:0.6;" x="90" xlink:href="#m0fdd4d0f38" y="107.725196"/>
      </g>
     </g>
    </g>
    <g id="ytick_26">
     <g id="line2d_85">
      <g>
       <use style="stroke:#000000;stroke-width:0.6;" x="90" xlink:href="#m0fdd4d0f38" y="103.150891"/>
      </g>
     </g>
    </g>
    <g id="ytick_27">
     <g id="line2d_86">
      <g>
       <use style="stroke:#000000;stroke-width:0.6;" x="90" xlink:href="#m0fdd4d0f38" y="99.116067"/>
      </g>
     </g>
    </g>
    <g id="ytick_28">
     <g id="line2d_87">
      <g>
       <use style="stroke:#000000;stroke-width:0.6;" x="90" xlink:href="#m0fdd4d0f38" y="71.762064"/>
      </g>
     </g>
    </g>
    <g id="ytick_29">
     <g id="line2d_88">
      <g>
       <use style="stroke:#000000;stroke-width:0.6;" x="90" xlink:href="#m0fdd4d0f38" y="57.872288"/>
      </g>
     </g>
    </g>
    <g id="ytick_30">
     <g id="line2d_89">
      <g>
       <use style="stroke:#000000;stroke-width:0.6;" x="90" xlink:href="#m0fdd4d0f38" y="48.017334"/>
      </g>
     </g>
    </g>
   </g>
   <g id="line2d_90">
    <path clip-path="url(#p2ea123e891)" d="M 94.964549 361 
L 94.967359 227.086323 
L 96.623145 212.032544 
L 98.278932 205.989445 
L 99.934718 202.365714 
L 101.590504 198.35081 
L 103.246291 196.167847 
L 104.902077 192.887976 
L 106.557864 192.268187 
L 108.21365 191.254705 
L 109.869436 189.57873 
L 111.525223 189.285611 
L 113.181009 188.639803 
L 114.836795 188.287394 
L 116.492582 187.493303 
L 119.804154 187.891552 
L 121.459941 188.187198 
L 123.115727 188.637235 
L 126.4273 190.073644 
L 128.083086 191.145959 
L 129.738872 192.510024 
L 133.050445 195.615431 
L 136.362018 199.372079 
L 139.673591 203.857565 
L 142.985163 208.792613 
L 147.952522 217.05579 
L 152.919881 225.903195 
L 161.198813 240.792389 
L 167.821958 251.674231 
L 169.477745 254.136673 
L 172.789318 258.587983 
L 176.10089 262.45491 
L 181.068249 266.883015 
L 184.379822 268.945616 
L 186.035608 269.565948 
L 187.691395 270.023721 
L 191.002967 270.511774 
L 192.658754 270.278959 
L 194.31454 270.358653 
L 195.970326 269.942956 
L 197.626113 269.381734 
L 199.281899 268.692823 
L 200.937685 267.859116 
L 202.593472 266.877496 
L 204.249258 265.754139 
L 207.560831 263.101466 
L 210.872404 259.914432 
L 214.183976 256.186979 
L 217.495549 251.942233 
L 220.807122 247.227607 
L 224.118694 242.083662 
L 227.430267 236.547349 
L 230.74184 230.658362 
L 235.709199 221.259048 
L 240.676558 211.276073 
L 245.643917 200.735888 
L 250.611276 189.657718 
L 255.578635 178.045291 
L 268.824926 146.578445 
L 272.136499 139.301323 
L 275.448071 132.549372 
L 278.759644 126.47031 
L 280.41543 123.72599 
L 282.071217 121.197758 
L 283.727003 118.895791 
L 285.382789 116.828754 
L 287.038576 115.003424 
L 288.694362 113.423869 
L 290.350148 112.090358 
L 292.005935 110.99942 
L 293.661721 110.144668 
L 295.317507 109.51738 
L 296.973294 109.10755 
L 298.62908 108.904717 
L 300.284866 108.897917 
L 301.940653 109.074754 
L 303.596439 109.421552 
L 305.252226 109.924665 
L 306.908012 110.570424 
L 310.219585 112.233703 
L 313.531157 114.292365 
L 316.84273 116.624668 
L 328.433234 125.111473 
L 331.744807 127.130405 
L 335.05638 128.81078 
L 338.367953 130.10213 
L 341.679525 130.982021 
L 344.991098 131.461231 
L 348.302671 131.590458 
L 351.614243 131.440445 
L 354.925816 131.090175 
L 359.893175 130.290847 
L 363.204748 129.564029 
L 366.51632 128.613297 
L 369.827893 127.349715 
L 373.139466 125.671517 
L 374.795252 124.649733 
L 376.451039 123.494574 
L 378.106825 122.199252 
L 381.418398 119.173064 
L 384.72997 115.576117 
L 388.041543 111.478364 
L 391.353116 107.00445 
L 401.287834 93.267493 
L 404.599407 89.256496 
L 406.255193 87.459349 
L 407.910979 85.830776 
L 409.566766 84.390448 
L 411.222552 83.155306 
L 412.878338 82.140979 
L 414.534125 81.361196 
L 416.189911 80.827155 
L 417.845697 80.547193 
L 419.501484 80.526807 
L 421.15727 80.768953 
L 422.813056 81.274496 
L 424.468843 82.041771 
L 426.124629 83.066613 
L 427.780415 84.342497 
L 429.436202 85.860177 
L 431.091988 87.608246 
L 432.747774 89.573802 
L 434.403561 91.742725 
L 437.715134 96.629186 
L 441.026706 102.140525 
L 444.338279 108.145619 
L 449.305638 117.790497 
L 462.551929 144.123796 
L 465.863501 150.149909 
L 469.175074 155.697279 
L 472.486647 160.630503 
L 474.142433 162.822083 
L 475.79822 164.804881 
L 477.454006 166.559441 
L 479.109792 168.065755 
L 480.765579 169.304561 
L 482.421365 170.258956 
L 484.077151 170.91464 
L 485.732938 171.260527 
L 487.388724 171.290786 
L 489.04451 171.00664 
L 490.700297 170.417236 
L 492.356083 169.541365 
L 494.011869 168.405829 
L 495.667656 167.043283 
L 498.979228 163.788398 
L 502.290801 160.096105 
L 508.913947 152.571772 
L 512.225519 149.105887 
L 515.537092 145.943974 
L 518.848665 143.103303 
L 522.160237 140.557826 
L 525.47181 138.25514 
L 530.439169 135.122848 
L 542.029674 128.133465 
L 545.341246 125.912496 
L 548.652819 123.485527 
L 551.964392 120.812976 
L 555.275964 117.870968 
L 558.587537 114.661722 
L 561.89911 111.1986 
L 566.866469 105.587314 
L 571.833828 99.596023 
L 581.768546 87.509312 
L 585.080119 83.779895 
L 588.391691 80.311449 
L 591.703264 77.15303 
L 595.014837 74.326155 
L 598.326409 71.858056 
L 601.637982 69.77327 
L 604.949555 68.078311 
L 608.261128 66.764905 
L 611.5727 65.81909 
L 614.884273 65.201288 
L 618.195846 64.86314 
L 621.507418 64.771287 
L 624.818991 64.893437 
L 629.78635 65.383941 
L 634.753709 66.147862 
L 648 68.591715 
L 648 68.591715 
" style="fill:none;stroke:#008000;stroke-linecap:square;stroke-width:1.5;"/>
   </g>
   <g id="line2d_91">
    <path clip-path="url(#p2ea123e891)" d="M 90 135.882789 
L 91.655786 302.645455 
L 93.311573 211.814156 
L 94.967359 189.94131 
L 96.623145 187.956412 
L 98.278932 189.446814 
L 99.934718 189.742922 
L 103.246291 188.977774 
L 104.902077 188.873693 
L 106.557864 188.955682 
L 108.21365 189.231897 
L 109.869436 189.736039 
L 111.525223 190.498711 
L 113.181009 191.533445 
L 114.836795 192.829071 
L 116.492582 194.377949 
L 118.148368 196.173081 
L 119.804154 198.207337 
L 121.459941 200.472269 
L 126.4273 208.625764 
L 129.738872 214.866711 
L 133.050445 221.615095 
L 139.673591 235.904991 
L 144.64095 246.516838 
L 147.952522 253.142112 
L 151.264095 259.213117 
L 154.575668 264.637871 
L 156.231454 267.061649 
L 157.88724 269.272396 
L 159.543027 271.26063 
L 161.198813 273.015855 
L 162.854599 274.540982 
L 164.510386 275.840427 
L 166.166172 276.910101 
L 167.821958 277.756526 
L 169.477745 278.386176 
L 171.133531 278.803255 
L 172.789318 279.027715 
L 174.445104 279.058408 
L 176.10089 278.88612 
L 177.756677 278.509784 
L 179.412463 277.95828 
L 182.724036 276.474467 
L 186.035608 274.506853 
L 189.347181 272.073655 
L 192.658754 269.197109 
L 195.970326 265.953142 
L 199.281899 262.2739 
L 202.593472 258.183938 
L 205.905045 253.586266 
L 209.216617 248.509477 
L 212.52819 243.102242 
L 215.839763 237.370065 
L 220.807122 228.18185 
L 225.774481 218.394591 
L 230.74184 208.13475 
L 235.709199 197.391453 
L 240.676558 186.094993 
L 245.643917 174.304563 
L 257.234421 146.09984 
L 260.545994 138.591982 
L 263.857567 131.617621 
L 267.169139 125.321412 
L 268.824926 122.497865 
L 270.480712 119.922212 
L 272.136499 117.591038 
L 273.792285 115.53855 
L 275.448071 113.787917 
L 277.103858 112.32159 
L 278.759644 111.141977 
L 280.41543 110.26192 
L 282.071217 109.68069 
L 283.727003 109.38513 
L 285.382789 109.34965 
L 287.038576 109.553532 
L 288.694362 109.972297 
L 290.350148 110.583235 
L 292.005935 111.375407 
L 293.661721 112.337912 
L 296.973294 114.682 
L 300.284866 117.418107 
L 305.252226 121.962747 
L 311.875371 127.963826 
L 315.186944 130.596174 
L 318.498516 132.783643 
L 320.154303 133.685949 
L 321.810089 134.452931 
L 325.121662 135.619406 
L 326.777448 136.038309 
L 328.433234 136.329855 
L 331.744807 136.537884 
L 335.05638 136.328555 
L 338.367953 135.791806 
L 343.335312 134.712308 
L 353.27003 132.265754 
L 356.581602 131.117777 
L 359.893175 129.551602 
L 361.548961 128.582203 
L 363.204748 127.465964 
L 364.860534 126.191212 
L 366.51632 124.75252 
L 369.827893 121.422051 
L 373.139466 117.48054 
L 376.451039 112.983976 
L 381.418398 105.569722 
L 386.385757 97.95682 
L 389.697329 93.227347 
L 393.008902 88.971228 
L 394.664688 87.114677 
L 396.320475 85.453498 
L 397.976261 83.990399 
L 399.632047 82.755509 
L 401.287834 81.799939 
L 402.94362 81.146131 
L 404.599407 80.791802 
L 406.255193 80.749275 
L 407.910979 81.041796 
L 409.566766 81.674822 
L 411.222552 82.648845 
L 412.878338 83.962086 
L 414.534125 85.607132 
L 416.189911 87.574698 
L 417.845697 89.860405 
L 419.501484 92.44561 
L 421.15727 95.305674 
L 424.468843 101.730062 
L 427.780415 108.882136 
L 432.747774 120.483768 
L 444.338279 148.265233 
L 447.649852 155.616872 
L 450.961424 162.384072 
L 454.272997 168.42374 
L 455.928783 171.120613 
L 457.58457 173.582679 
L 459.240356 175.790749 
L 460.896142 177.714516 
L 462.551929 179.33672 
L 464.207715 180.655419 
L 465.863501 181.656336 
L 467.519288 182.328706 
L 469.175074 182.662382 
L 470.830861 182.657739 
L 472.486647 182.322645 
L 474.142433 181.647032 
L 475.79822 180.656596 
L 477.454006 179.379564 
L 479.109792 177.826341 
L 480.765579 176.017841 
L 484.077151 171.798484 
L 489.04451 164.666995 
L 494.011869 157.573801 
L 497.323442 153.305978 
L 500.635015 149.61566 
L 503.946588 146.423381 
L 507.25816 143.650443 
L 510.569733 141.26864 
L 513.881306 139.187599 
L 518.848665 136.364828 
L 528.783383 130.833051 
L 532.094955 128.767653 
L 535.406528 126.473181 
L 538.718101 123.857079 
L 542.029674 120.973078 
L 545.341246 117.777365 
L 548.652819 114.273756 
L 551.964392 110.543379 
L 556.931751 104.559619 
L 563.554896 96.11392 
L 568.522255 89.817779 
L 571.833828 85.855463 
L 575.145401 82.223593 
L 578.456973 78.939312 
L 581.768546 76.005229 
L 585.080119 73.505007 
L 588.391691 71.357247 
L 591.703264 69.650391 
L 595.014837 68.410437 
L 598.326409 67.587168 
L 601.637982 67.125874 
L 604.949555 67.033649 
L 609.916914 67.288395 
L 613.228487 67.674837 
L 618.195846 68.594539 
L 626.474777 70.430147 
L 634.753709 72.388755 
L 638.065282 72.921534 
L 641.376855 73.193278 
L 644.688427 73.196103 
L 648 72.849704 
L 648 72.849704 
" style="fill:none;stroke:#0000ff;stroke-linecap:square;stroke-width:1.5;"/>
   </g>
   <g id="line2d_92">
    <path clip-path="url(#p2ea123e891)" d="M 106.555104 361 
L 106.557864 229.518639 
L 108.21365 253.263369 
L 111.525223 253.263369 
L 113.181009 174.385082 
L 114.836795 182.029178 
L 116.492582 182.029178 
L 118.148368 215.628862 
L 119.804154 182.029178 
L 121.459941 156.207666 
L 123.115727 177.994355 
L 124.771513 177.994355 
L 126.4273 182.029178 
L 128.083086 215.628862 
L 129.738872 174.385082 
L 131.394659 229.518639 
L 133.050445 205.773908 
L 134.706231 191.884132 
L 136.362018 186.603483 
L 138.017804 205.773908 
L 139.673591 174.385082 
L 141.329377 186.603483 
L 142.985163 191.884132 
L 144.64095 205.773908 
L 146.296736 205.773908 
L 147.952522 191.884132 
L 149.608309 253.263369 
L 149.61057 361 
M 152.917122 361 
L 152.919881 229.518639 
L 154.575668 205.773908 
L 154.578924 361 
M 159.540268 361 
L 159.543027 229.518639 
L 159.545786 361 
M 162.852338 361 
L 162.854599 253.263369 
L 162.856861 361 
M 166.163911 361 
L 166.166172 253.263369 
L 166.168434 361 
M 186.033347 361 
L 186.035608 253.263369 
L 187.691395 253.263369 
L 187.693656 361 
M 191.000706 361 
L 191.002967 253.263369 
L 192.658754 229.518639 
L 192.661513 361 
M 195.968065 361 
L 195.970326 253.263369 
L 197.626113 253.263369 
L 199.281899 229.518639 
L 200.937685 253.263369 
L 202.593472 229.518639 
L 202.596231 361 
M 205.902783 361 
L 205.905045 253.263369 
L 207.560831 253.263369 
L 207.563092 361 
M 214.181217 361 
L 214.183976 229.518639 
L 214.186735 361 
M 217.49279 361 
L 217.495549 229.518639 
L 219.151335 253.263369 
L 220.807122 253.263369 
L 220.809383 361 
M 225.771431 361 
L 225.774481 215.628862 
L 227.430267 229.518639 
L 229.086053 205.773908 
L 230.74184 253.263369 
L 232.397626 253.263369 
L 234.053412 215.628862 
L 235.709199 215.628862 
L 235.712249 361 
M 239.017114 361 
L 239.020772 186.603483 
L 240.676558 215.628862 
L 242.332344 215.628862 
L 243.988131 198.129813 
L 245.643917 229.518639 
L 247.299703 198.129813 
L 248.95549 174.385082 
L 250.611276 186.603483 
L 252.267062 191.884132 
L 253.922849 191.884132 
L 255.578635 205.773908 
L 257.234421 186.603483 
L 258.890208 174.385082 
L 260.545994 165.397426 
L 262.20178 154.249624 
L 263.857567 156.207666 
L 265.513353 162.858753 
L 267.169139 145.85261 
L 268.824926 156.207666 
L 270.480712 132.462935 
L 272.136499 147.375368 
L 273.792285 139.114022 
L 275.448071 133.485591 
L 277.103858 133.485591 
L 278.759644 124.418175 
L 280.41543 129.566303 
L 282.071217 121.371154 
L 283.727003 129.566303 
L 285.382789 115.369292 
L 287.038576 106.287654 
L 288.694362 95.506795 
L 290.350148 111.882583 
L 292.005935 101.889776 
L 293.661721 117.255442 
L 295.317507 121.371154 
L 296.973294 103.150891 
L 298.62908 100.673445 
L 300.284866 110.263869 
L 301.940653 109.74086 
L 303.596439 107.239282 
L 305.252226 117.255442 
L 306.908012 105.361748 
L 308.563798 115.369292 
L 310.219585 99.498824 
L 311.875371 126.895621 
L 313.531157 118.573159 
L 315.186944 122.10788 
L 316.84273 114.16719 
L 318.498516 102.305011 
L 320.154303 110.263869 
L 321.810089 125.224246 
L 323.465875 129.566303 
L 325.121662 136.750575 
L 326.777448 162.858753 
L 328.433234 131.469927 
L 330.089021 109.74086 
L 331.744807 140.359847 
L 333.400593 124.418175 
L 335.05638 134.539717 
L 336.712166 147.375368 
L 338.367953 152.397476 
L 340.023739 126.049741 
L 341.679525 117.255442 
L 343.335312 145.85261 
L 344.991098 124.418175 
L 346.646884 137.91192 
L 348.302671 154.249624 
L 349.958457 141.652695 
L 351.614243 126.895621 
L 353.27003 125.224246 
L 354.925816 111.882583 
L 356.581602 119.251525 
L 358.237389 123.630637 
L 359.893175 132.462935 
L 361.548961 144.394671 
L 363.204748 117.907965 
L 364.860534 137.91192 
L 366.51632 118.573159 
L 368.172107 126.895621 
L 369.827893 141.652695 
L 371.48368 139.114022 
L 374.795252 123.630637 
L 376.451039 141.652695 
L 378.106825 113.581596 
L 379.762611 106.287654 
L 381.418398 128.652745 
L 383.074184 148.968976 
L 384.72997 129.566303 
L 386.385757 122.10788 
L 388.041543 111.882583 
L 389.697329 103.150891 
L 391.353116 107.239282 
L 393.008902 100.673445 
L 394.664688 109.225717 
L 396.320475 110.794987 
L 397.976261 92.870386 
L 399.632047 87.318935 
L 401.287834 93.835419 
L 402.94362 86.783668 
L 404.599407 85.99613 
L 406.255193 94.163234 
L 407.910979 106.287654 
L 409.566766 104.908015 
L 411.222552 76.33637 
L 412.878338 81.846159 
L 414.534125 70.090689 
L 416.189911 65.659417 
L 417.845697 83.736647 
L 419.501484 99.116067 
L 421.15727 104.018188 
L 422.813056 81.617018 
L 424.468843 62.774408 
L 426.124629 72.982523 
L 427.780415 65.516383 
L 429.436202 101.074109 
L 431.091988 91.624562 
L 432.747774 85.73759 
L 434.403561 86.256636 
L 436.059347 87.862699 
L 437.715134 74.805102 
L 439.37092 103.150891 
L 441.026706 126.895621 
L 442.682493 140.359847 
L 444.338279 91.931796 
L 445.994065 109.225717 
L 447.649852 117.907965 
L 449.305638 111.882583 
L 450.961424 122.860798 
L 452.617211 177.994355 
L 454.272997 132.462935 
L 455.928783 126.895621 
L 457.58457 130.504894 
L 459.240356 131.469927 
L 460.896142 130.504894 
L 462.551929 134.539717 
L 464.207715 229.518639 
L 465.863501 171.120098 
L 467.519288 142.996256 
L 469.175074 150.640352 
L 470.830861 156.207666 
L 472.486647 165.397426 
L 474.142433 154.249624 
L 475.79822 205.773908 
L 477.454006 198.129813 
L 479.109792 165.397426 
L 480.765579 162.858753 
L 482.421365 177.994355 
L 484.077151 186.603483 
L 485.732938 182.029178 
L 487.388724 229.518639 
L 489.04451 186.603483 
L 490.700297 171.120098 
L 492.356083 177.994355 
L 494.011869 186.603483 
L 495.667656 158.284447 
L 497.323442 158.284447 
L 498.979228 186.603483 
L 500.635015 171.120098 
L 502.290801 139.114022 
L 503.946588 145.85261 
L 505.602374 144.394671 
L 507.25816 132.462935 
L 508.913947 144.394671 
L 510.569733 182.029178 
L 512.225519 205.773908 
L 513.881306 144.394671 
L 515.537092 154.249624 
L 517.192878 124.418175 
L 518.848665 127.762918 
L 520.504451 135.627313 
L 522.160237 171.120098 
L 523.816024 156.207666 
L 525.47181 150.640352 
L 527.127596 133.485591 
L 528.783383 123.630637 
L 530.439169 133.485591 
L 532.094955 122.860798 
L 533.750742 160.495305 
L 535.406528 137.91192 
L 537.062315 122.10788 
L 538.718101 137.91192 
L 540.373887 156.207666 
L 542.029674 109.74086 
L 543.68546 121.371154 
L 545.341246 145.85261 
L 546.997033 145.85261 
L 548.652819 114.762968 
L 550.308605 123.630637 
L 551.964392 118.573159 
L 553.620178 110.263869 
L 555.275964 119.943597 
L 556.931751 126.895621 
L 558.587537 129.566303 
L 560.243323 115.986541 
L 561.89911 99.885907 
L 563.554896 117.255442 
L 565.210682 104.460212 
L 566.866469 103.150891 
L 568.522255 134.539717 
L 570.178042 103.150891 
L 571.833828 91.320058 
L 573.489614 92.554657 
L 575.145401 97.992806 
L 576.801187 90.719053 
L 578.456973 94.494217 
L 580.11276 92.241811 
L 581.768546 95.165932 
L 583.424332 79.192724 
L 585.080119 78.352034 
L 586.735905 73.339364 
L 588.391691 89.836865 
L 590.047478 79.192724 
L 591.703264 97.626424 
L 593.35905 78.56028 
L 595.014837 72.454137 
L 596.670623 68.967427 
L 598.326409 68.967427 
L 599.982196 58.56436 
L 603.293769 77.128461 
L 604.949555 84.473372 
L 606.605341 60.358299 
L 608.261128 60.97778 
L 609.916914 60.852984 
L 611.5727 64.117969 
L 613.228487 59.270702 
L 614.884273 109.225717 
L 616.540059 75.18155 
L 618.195846 59.629411 
L 619.851632 56.419106 
L 621.507418 62.121885 
L 623.163205 65.232096 
L 624.818991 67.879831 
L 626.474777 85.73759 
L 628.130564 69.92795 
L 629.78635 59.991916 
L 631.442136 57.418554 
L 633.097923 63.981216 
L 634.753709 62.642905 
L 636.409496 58.332112 
L 638.065282 105.361748 
L 639.721068 78.980609 
L 641.376855 58.448039 
L 643.032641 55.554545 
L 644.688427 73.881693 
L 646.344214 67.424085 
L 648 77.734785 
L 648 77.734785 
" style="fill:none;stroke:#ff0000;stroke-linecap:square;stroke-opacity:0.7;stroke-width:1.5;"/>
   </g>
   <g id="patch_3">
    <path d="M 90 315 
L 90 43.2 
" style="fill:none;stroke:#000000;stroke-linecap:square;stroke-linejoin:miter;stroke-width:0.8;"/>
   </g>
   <g id="patch_4">
    <path d="M 648 315 
L 648 43.2 
" style="fill:none;stroke:#000000;stroke-linecap:square;stroke-linejoin:miter;stroke-width:0.8;"/>
   </g>
   <g id="patch_5">
    <path d="M 90 315 
L 648 315 
" style="fill:none;stroke:#000000;stroke-linecap:square;stroke-linejoin:miter;stroke-width:0.8;"/>
   </g>
   <g id="patch_6">
    <path d="M 90 43.2 
L 648 43.2 
" style="fill:none;stroke:#000000;stroke-linecap:square;stroke-linejoin:miter;stroke-width:0.8;"/>
   </g>
   <g id="text_16">
    <!-- 432   -->
    <g transform="translate(327.830625 37.2)scale(0.12 -0.12)">
     <defs>
      <path d="M 37.796875 64.3125 
L 12.890625 25.390625 
L 37.796875 25.390625 
z
M 35.203125 72.90625 
L 47.609375 72.90625 
L 47.609375 25.390625 
L 58.015625 25.390625 
L 58.015625 17.1875 
L 47.609375 17.1875 
L 47.609375 0 
L 37.796875 0 
L 37.796875 17.1875 
L 4.890625 17.1875 
L 4.890625 26.703125 
z
" id="DejaVuSans-52"/>
      <path d="M 40.578125 39.3125 
Q 47.65625 37.796875 51.625 33 
Q 55.609375 28.21875 55.609375 21.1875 
Q 55.609375 10.40625 48.1875 4.484375 
Q 40.765625 -1.421875 27.09375 -1.421875 
Q 22.515625 -1.421875 17.65625 -0.515625 
Q 12.796875 0.390625 7.625 2.203125 
L 7.625 11.71875 
Q 11.71875 9.328125 16.59375 8.109375 
Q 21.484375 6.890625 26.8125 6.890625 
Q 36.078125 6.890625 40.9375 10.546875 
Q 45.796875 14.203125 45.796875 21.1875 
Q 45.796875 27.640625 41.28125 31.265625 
Q 36.765625 34.90625 28.71875 34.90625 
L 20.21875 34.90625 
L 20.21875 43.015625 
L 29.109375 43.015625 
Q 36.375 43.015625 40.234375 45.921875 
Q 44.09375 48.828125 44.09375 54.296875 
Q 44.09375 59.90625 40.109375 62.90625 
Q 36.140625 65.921875 28.71875 65.921875 
Q 24.65625 65.921875 20.015625 65.03125 
Q 15.375 64.15625 9.8125 62.3125 
L 9.8125 71.09375 
Q 15.4375 72.65625 20.34375 73.4375 
Q 25.25 74.21875 29.59375 74.21875 
Q 40.828125 74.21875 47.359375 69.109375 
Q 53.90625 64.015625 53.90625 55.328125 
Q 53.90625 49.265625 50.4375 45.09375 
Q 46.96875 40.921875 40.578125 39.3125 
z
" id="DejaVuSans-51"/>
      <path id="DejaVuSans-32"/>
      <path d="M 19.140625 33.40625 
L 19.140625 0 
L 10.109375 0 
L 10.109375 29.6875 
z
M 56.25 27.828125 
L 56.25 0 
L 47.21875 0 
L 47.21875 29.6875 
Q 47.21875 40.234375 44.0625 43.96875 
Q 40.921875 47.703125 31.84375 47.703125 
L 9.078125 47.703125 
L 9.078125 54.6875 
L 31.734375 54.6875 
Q 45.265625 54.6875 50.75 48.578125 
Q 56.25 42.484375 56.25 27.828125 
z
" id="DejaVuSans-1492"/>
      <path d="M 18.796875 0 
L 38.53125 47.703125 
L 4.296875 47.703125 
L 4.296875 72.90625 
L 13.421875 72.90625 
L 13.421875 54.6875 
L 49.21875 54.640625 
L 49.078125 49.265625 
L 28.328125 0 
z
" id="DejaVuSans-1500"/>
      <path d="M 4.296875 54.6875 
L 14.890625 54.6875 
Q 15.09375 54.15625 16.703125 50.3125 
Q 18.3125 46.484375 19.390625 42.671875 
Q 20.75 46.09375 22.625 48.53125 
Q 24.515625 50.984375 26.359375 52.296875 
Q 28.21875 53.609375 30.609375 54.34375 
Q 33.015625 55.078125 34.859375 55.265625 
Q 36.71875 55.46875 39.203125 55.46875 
Q 58.84375 55.46875 58.84375 29.59375 
L 58.84375 0 
L 31.390625 0 
L 31.390625 6.9375 
L 49.75 6.9375 
L 49.75 29.59375 
Q 49.75 39.109375 46.765625 43.671875 
Q 43.796875 48.25 39.0625 48.25 
Q 30.28125 48.25 26.078125 40.4375 
Q 23.734375 35.984375 21.6875 25.921875 
Q 21.578125 25.25 21.34375 24.125 
L 16.546875 0 
L 7.46875 0 
L 11.375 20.40625 
Q 11.53125 21.1875 11.890625 22.96875 
Q 12.25 24.75 12.375 25.40625 
Q 12.5 26.078125 12.671875 27.3125 
Q 12.84375 28.5625 12.90625 29.515625 
Q 12.984375 30.46875 12.984375 31.546875 
Q 12.984375 34.671875 10.71875 41.09375 
Q 8.453125 47.515625 4.296875 54.6875 
z
" id="DejaVuSans-1502"/>
      <path d="M 47.359375 27.828125 
L 47.359375 0 
L 38.28125 0 
L 38.28125 27.828125 
Q 38.28125 31.390625 37.765625 34.265625 
Q 37.25 37.15625 36 39.71875 
Q 34.765625 42.28125 32.8125 43.984375 
Q 30.859375 45.703125 27.78125 46.703125 
Q 24.703125 47.703125 20.703125 47.703125 
L 4.296875 47.703125 
L 4.296875 54.6875 
L 20.65625 54.6875 
Q 26.8125 54.6875 31.46875 53.390625 
Q 36.140625 52.09375 39.109375 49.828125 
Q 42.09375 47.5625 43.96875 44.109375 
Q 45.84375 40.671875 46.59375 36.734375 
Q 47.359375 32.8125 47.359375 27.828125 
z
" id="DejaVuSans-1512"/>
      <path d="M 18.171875 54.6875 
L 18.171875 0 
L 9.078125 0 
L 9.078125 54.6875 
z
" id="DejaVuSans-1493"/>
      <path d="M 30.328125 54.6875 
L 30.328125 47.703125 
L 26.421875 47.703125 
Q 22.171875 47.703125 20.578125 43.921875 
Q 19 40.140625 19 30.90625 
L 19 0 
L 9.90625 0 
L 9.90625 30.90625 
Q 9.90625 37.109375 11.78125 41.453125 
Q 13.671875 45.796875 16.40625 47.703125 
L 4.296875 47.703125 
L 4.296875 54.6875 
z
" id="DejaVuSans-1494"/>
      <path d="M 43.75 20.0625 
L 57.671875 0 
L 47.078125 0 
L 26.765625 29.296875 
Q 25.390625 28.609375 24.53125 28.09375 
Q 23.6875 27.59375 22.3125 26.296875 
Q 20.953125 25 20.140625 23.40625 
Q 19.34375 21.828125 18.703125 19.140625 
Q 18.0625 16.453125 18.0625 13.09375 
L 18.0625 0 
L 9.078125 0 
L 9.078125 9.03125 
Q 9.078125 12.984375 9.5625 16.359375 
Q 10.0625 19.734375 10.8125 22.078125 
Q 11.578125 24.421875 12.796875 26.390625 
Q 14.015625 28.375 15.109375 29.59375 
Q 16.21875 30.8125 17.796875 31.875 
Q 19.390625 32.953125 20.453125 33.46875 
Q 21.53125 33.984375 23.046875 34.625 
L 9.1875 54.6875 
L 19.78125 54.6875 
L 40.09375 25.390625 
Q 41.40625 26.03125 42.25 26.53125 
Q 43.109375 27.046875 44.46875 28.359375 
Q 45.84375 29.6875 46.671875 31.265625 
Q 47.515625 32.859375 48.140625 35.546875 
Q 48.78125 38.234375 48.78125 41.609375 
L 48.78125 54.6875 
L 57.765625 54.6875 
L 57.765625 45.65625 
Q 57.765625 41.65625 57.265625 38.3125 
Q 56.78125 34.96875 56.03125 32.59375 
Q 55.28125 30.21875 54.046875 28.234375 
Q 52.828125 26.265625 51.703125 25.0625 
Q 50.59375 23.875 49.03125 22.796875 
Q 47.46875 21.734375 46.390625 21.21875 
Q 45.3125 20.703125 43.75 20.0625 
z
" id="DejaVuSans-1488"/>
     </defs>
     <use xlink:href="#DejaVuSans-52"/>
     <use x="63.623047" xlink:href="#DejaVuSans-51"/>
     <use x="127.246094" xlink:href="#DejaVuSans-50"/>
     <use x="190.869141" xlink:href="#DejaVuSans-32"/>
     <use x="222.65625" xlink:href="#DejaVuSans-1492"/>
     <use x="287.988281" xlink:href="#DejaVuSans-1500"/>
     <use x="344.824219" xlink:href="#DejaVuSans-1502"/>
     <use x="412.744141" xlink:href="#DejaVuSans-1512"/>
     <use x="469.189453" xlink:href="#DejaVuSans-32"/>
     <use x="500.976562" xlink:href="#DejaVuSans-1512"/>
     <use x="557.421875" xlink:href="#DejaVuSans-1493"/>
     <use x="584.667969" xlink:href="#DejaVuSans-1494"/>
     <use x="619.287109" xlink:href="#DejaVuSans-1488"/>
    </g>
   </g>
   <g id="legend_1">
    <g id="patch_7">
     <path d="M 97 95.234375 
L 221.582812 95.234375 
Q 223.582812 95.234375 223.582812 93.234375 
L 223.582812 50.2 
Q 223.582812 48.2 221.582812 48.2 
L 97 48.2 
Q 95 48.2 95 50.2 
L 95 93.234375 
Q 95 95.234375 97 95.234375 
z
" style="fill:#ffffff;opacity:0.8;stroke:#cccccc;stroke-linejoin:miter;"/>
    </g>
    <g id="line2d_93">
     <path d="M 99 56.298437 
L 119 56.298437 
" style="fill:none;stroke:#008000;stroke-linecap:square;stroke-width:1.5;"/>
    </g>
    <g id="line2d_94"/>
    <g id="text_17">
     <!-- Test-adjusted -->
     <g transform="translate(127 59.798437)scale(0.1 -0.1)">
      <defs>
       <path d="M -0.296875 72.90625 
L 61.375 72.90625 
L 61.375 64.59375 
L 35.5 64.59375 
L 35.5 0 
L 25.59375 0 
L 25.59375 64.59375 
L -0.296875 64.59375 
z
" id="DejaVuSans-84"/>
       <path d="M 44.28125 53.078125 
L 44.28125 44.578125 
Q 40.484375 46.53125 36.375 47.5 
Q 32.28125 48.484375 27.875 48.484375 
Q 21.1875 48.484375 17.84375 46.4375 
Q 14.5 44.390625 14.5 40.28125 
Q 14.5 37.15625 16.890625 35.375 
Q 19.28125 33.59375 26.515625 31.984375 
L 29.59375 31.296875 
Q 39.15625 29.25 43.1875 25.515625 
Q 47.21875 21.78125 47.21875 15.09375 
Q 47.21875 7.46875 41.1875 3.015625 
Q 35.15625 -1.421875 24.609375 -1.421875 
Q 20.21875 -1.421875 15.453125 -0.5625 
Q 10.6875 0.296875 5.421875 2 
L 5.421875 11.28125 
Q 10.40625 8.6875 15.234375 7.390625 
Q 20.0625 6.109375 24.8125 6.109375 
Q 31.15625 6.109375 34.5625 8.28125 
Q 37.984375 10.453125 37.984375 14.40625 
Q 37.984375 18.0625 35.515625 20.015625 
Q 33.0625 21.96875 24.703125 23.78125 
L 21.578125 24.515625 
Q 13.234375 26.265625 9.515625 29.90625 
Q 5.8125 33.546875 5.8125 39.890625 
Q 5.8125 47.609375 11.28125 51.796875 
Q 16.75 56 26.8125 56 
Q 31.78125 56 36.171875 55.265625 
Q 40.578125 54.546875 44.28125 53.078125 
z
" id="DejaVuSans-115"/>
       <path d="M 4.890625 31.390625 
L 31.203125 31.390625 
L 31.203125 23.390625 
L 4.890625 23.390625 
z
" id="DejaVuSans-45"/>
       <path d="M 9.421875 54.6875 
L 18.40625 54.6875 
L 18.40625 -0.984375 
Q 18.40625 -11.421875 14.421875 -16.109375 
Q 10.453125 -20.796875 1.609375 -20.796875 
L -1.8125 -20.796875 
L -1.8125 -13.1875 
L 0.59375 -13.1875 
Q 5.71875 -13.1875 7.5625 -10.8125 
Q 9.421875 -8.453125 9.421875 -0.984375 
z
M 9.421875 75.984375 
L 18.40625 75.984375 
L 18.40625 64.59375 
L 9.421875 64.59375 
z
" id="DejaVuSans-106"/>
      </defs>
      <use xlink:href="#DejaVuSans-84"/>
      <use x="44.083984" xlink:href="#DejaVuSans-101"/>
      <use x="105.607422" xlink:href="#DejaVuSans-115"/>
      <use x="157.707031" xlink:href="#DejaVuSans-116"/>
      <use x="196.916016" xlink:href="#DejaVuSans-45"/>
      <use x="233" xlink:href="#DejaVuSans-97"/>
      <use x="294.279297" xlink:href="#DejaVuSans-100"/>
      <use x="357.755859" xlink:href="#DejaVuSans-106"/>
      <use x="385.539062" xlink:href="#DejaVuSans-117"/>
      <use x="448.917969" xlink:href="#DejaVuSans-115"/>
      <use x="501.017578" xlink:href="#DejaVuSans-116"/>
      <use x="540.226562" xlink:href="#DejaVuSans-101"/>
      <use x="601.75" xlink:href="#DejaVuSans-100"/>
     </g>
    </g>
    <g id="line2d_95">
     <path d="M 99 70.976562 
L 119 70.976562 
" style="fill:none;stroke:#0000ff;stroke-linecap:square;stroke-width:1.5;"/>
    </g>
    <g id="line2d_96"/>
    <g id="text_18">
     <!-- Infections -->
     <g transform="translate(127 74.476562)scale(0.1 -0.1)">
      <defs>
       <path d="M 9.8125 72.90625 
L 19.671875 72.90625 
L 19.671875 0 
L 9.8125 0 
z
" id="DejaVuSans-73"/>
       <path d="M 37.109375 75.984375 
L 37.109375 68.5 
L 28.515625 68.5 
Q 23.6875 68.5 21.796875 66.546875 
Q 19.921875 64.59375 19.921875 59.515625 
L 19.921875 54.6875 
L 34.71875 54.6875 
L 34.71875 47.703125 
L 19.921875 47.703125 
L 19.921875 0 
L 10.890625 0 
L 10.890625 47.703125 
L 2.296875 47.703125 
L 2.296875 54.6875 
L 10.890625 54.6875 
L 10.890625 58.5 
Q 10.890625 67.625 15.140625 71.796875 
Q 19.390625 75.984375 28.609375 75.984375 
z
" id="DejaVuSans-102"/>
       <path d="M 9.421875 54.6875 
L 18.40625 54.6875 
L 18.40625 0 
L 9.421875 0 
z
M 9.421875 75.984375 
L 18.40625 75.984375 
L 18.40625 64.59375 
L 9.421875 64.59375 
z
" id="DejaVuSans-105"/>
      </defs>
      <use xlink:href="#DejaVuSans-73"/>
      <use x="29.492188" xlink:href="#DejaVuSans-110"/>
      <use x="92.871094" xlink:href="#DejaVuSans-102"/>
      <use x="128.076172" xlink:href="#DejaVuSans-101"/>
      <use x="189.599609" xlink:href="#DejaVuSans-99"/>
      <use x="244.580078" xlink:href="#DejaVuSans-116"/>
      <use x="283.789062" xlink:href="#DejaVuSans-105"/>
      <use x="311.572266" xlink:href="#DejaVuSans-111"/>
      <use x="372.753906" xlink:href="#DejaVuSans-110"/>
      <use x="436.132812" xlink:href="#DejaVuSans-115"/>
     </g>
    </g>
    <g id="line2d_97">
     <path d="M 99 85.654687 
L 119 85.654687 
" style="fill:none;stroke:#ff0000;stroke-linecap:square;stroke-opacity:0.7;stroke-width:1.5;"/>
    </g>
    <g id="line2d_98"/>
    <g id="text_19">
     <!-- Reported Positives -->
     <g transform="translate(127 89.154687)scale(0.1 -0.1)">
      <defs>
       <path d="M 44.390625 34.1875 
Q 47.5625 33.109375 50.5625 29.59375 
Q 53.5625 26.078125 56.59375 19.921875 
L 66.609375 0 
L 56 0 
L 46.6875 18.703125 
Q 43.0625 26.03125 39.671875 28.421875 
Q 36.28125 30.8125 30.421875 30.8125 
L 19.671875 30.8125 
L 19.671875 0 
L 9.8125 0 
L 9.8125 72.90625 
L 32.078125 72.90625 
Q 44.578125 72.90625 50.734375 67.671875 
Q 56.890625 62.453125 56.890625 51.90625 
Q 56.890625 45.015625 53.6875 40.46875 
Q 50.484375 35.9375 44.390625 34.1875 
z
M 19.671875 64.796875 
L 19.671875 38.921875 
L 32.078125 38.921875 
Q 39.203125 38.921875 42.84375 42.21875 
Q 46.484375 45.515625 46.484375 51.90625 
Q 46.484375 58.296875 42.84375 61.546875 
Q 39.203125 64.796875 32.078125 64.796875 
z
" id="DejaVuSans-82"/>
       <path d="M 19.671875 64.796875 
L 19.671875 37.40625 
L 32.078125 37.40625 
Q 38.96875 37.40625 42.71875 40.96875 
Q 46.484375 44.53125 46.484375 51.125 
Q 46.484375 57.671875 42.71875 61.234375 
Q 38.96875 64.796875 32.078125 64.796875 
z
M 9.8125 72.90625 
L 32.078125 72.90625 
Q 44.34375 72.90625 50.609375 67.359375 
Q 56.890625 61.8125 56.890625 51.125 
Q 56.890625 40.328125 50.609375 34.8125 
Q 44.34375 29.296875 32.078125 29.296875 
L 19.671875 29.296875 
L 19.671875 0 
L 9.8125 0 
z
" id="DejaVuSans-80"/>
      </defs>
      <use xlink:href="#DejaVuSans-82"/>
      <use x="64.982422" xlink:href="#DejaVuSans-101"/>
      <use x="126.505859" xlink:href="#DejaVuSans-112"/>
      <use x="189.982422" xlink:href="#DejaVuSans-111"/>
      <use x="251.164062" xlink:href="#DejaVuSans-114"/>
      <use x="292.277344" xlink:href="#DejaVuSans-116"/>
      <use x="331.486328" xlink:href="#DejaVuSans-101"/>
      <use x="393.009766" xlink:href="#DejaVuSans-100"/>
      <use x="456.486328" xlink:href="#DejaVuSans-32"/>
      <use x="488.273438" xlink:href="#DejaVuSans-80"/>
      <use x="544.951172" xlink:href="#DejaVuSans-111"/>
      <use x="606.132812" xlink:href="#DejaVuSans-115"/>
      <use x="658.232422" xlink:href="#DejaVuSans-105"/>
      <use x="686.015625" xlink:href="#DejaVuSans-116"/>
      <use x="725.224609" xlink:href="#DejaVuSans-105"/>
      <use x="753.007812" xlink:href="#DejaVuSans-118"/>
      <use x="812.1875" xlink:href="#DejaVuSans-101"/>
      <use x="873.710938" xlink:href="#DejaVuSans-115"/>
     </g>
    </g>
   </g>
  </g>
 </g>
 <defs>
  <clipPath id="p2ea123e891">
   <rect height="271.8" width="558" x="90" y="43.2"/>
  </clipPath>
 </defs>
</svg>
