<?xml version="1.0" encoding="utf-8" standalone="no"?>
<!DOCTYPE svg PUBLIC "-//W3C//DTD SVG 1.1//EN"
  "http://www.w3.org/Graphics/SVG/1.1/DTD/svg11.dtd">
<!-- Created with matplotlib (https://matplotlib.org/) -->
<svg height="360pt" version="1.1" viewBox="0 0 720 360" width="720pt" xmlns="http://www.w3.org/2000/svg" xmlns:xlink="http://www.w3.org/1999/xlink">
 <metadata>
  <rdf:RDF xmlns:cc="http://creativecommons.org/ns#" xmlns:dc="http://purl.org/dc/elements/1.1/" xmlns:rdf="http://www.w3.org/1999/02/22-rdf-syntax-ns#">
   <cc:Work>
    <dc:type rdf:resource="http://purl.org/dc/dcmitype/StillImage"/>
    <dc:date>2021-03-07T20:51:14.312376</dc:date>
    <dc:format>image/svg+xml</dc:format>
    <dc:creator>
     <cc:Agent>
      <dc:title>Matplotlib v3.3.2, https://matplotlib.org/</dc:title>
     </cc:Agent>
    </dc:creator>
   </cc:Work>
  </rdf:RDF>
 </metadata>
 <defs>
  <style type="text/css">*{stroke-linecap:butt;stroke-linejoin:round;}</style>
 </defs>
 <g id="figure_1">
  <g id="patch_1">
   <path d="M 0 360 
L 720 360 
L 720 0 
L 0 0 
z
" style="fill:#ffffff;"/>
  </g>
  <g id="axes_1">
   <g id="patch_2">
    <path d="M 90 315 
L 648 315 
L 648 43.2 
L 90 43.2 
z
" style="fill:#ffffff;"/>
   </g>
   <g id="PolyCollection_1">
    <defs>
     <path d="M 90 -57.354545 
L 90 -85.015141 
L 91.622093 -84.91017 
L 93.244186 -86.432619 
L 94.866279 -84.429442 
L 96.488372 -87.188869 
L 98.110465 -85.499488 
L 99.732558 -85.60561 
L 101.354651 -87.762462 
L 102.976744 -86.821684 
L 104.598837 -86.326913 
L 106.22093 -87.183841 
L 107.843023 -88.910984 
L 109.465116 -85.685089 
L 111.087209 -87.348609 
L 112.709302 -89.995374 
L 114.331395 -90.529996 
L 115.953488 -90.593371 
L 117.575581 -93.482336 
L 119.197674 -91.896357 
L 120.819767 -93.50729 
L 122.44186 -93.082437 
L 124.063953 -95.092826 
L 125.686047 -95.660018 
L 127.30814 -96.750295 
L 128.930233 -98.692734 
L 130.552326 -101.204584 
L 132.174419 -102.755675 
L 133.796512 -104.83868 
L 135.418605 -105.418949 
L 137.040698 -105.808779 
L 138.662791 -107.040038 
L 140.284884 -110.65867 
L 141.906977 -111.085314 
L 143.52907 -112.649849 
L 145.151163 -115.660681 
L 146.773256 -115.972607 
L 148.395349 -118.137708 
L 150.017442 -122.490788 
L 151.639535 -123.349462 
L 153.261628 -125.473873 
L 154.883721 -125.624614 
L 156.505814 -130.818774 
L 158.127907 -131.108541 
L 159.75 -131.73772 
L 161.372093 -135.616219 
L 162.994186 -137.072096 
L 164.616279 -141.875865 
L 166.238372 -141.424964 
L 167.860465 -142.563216 
L 169.482558 -146.709069 
L 171.104651 -150.621387 
L 172.726744 -147.767542 
L 174.348837 -153.566363 
L 175.97093 -161.582051 
L 177.593023 -162.402999 
L 179.215116 -161.859508 
L 180.837209 -163.823633 
L 182.459302 -168.845381 
L 184.081395 -172.258874 
L 185.703488 -176.884928 
L 187.325581 -183.297523 
L 188.947674 -185.360334 
L 190.569767 -187.999575 
L 192.19186 -188.978705 
L 193.813953 -194.911404 
L 195.436047 -197.32267 
L 197.05814 -204.70373 
L 198.680233 -211.068369 
L 200.302326 -211.020372 
L 201.924419 -219.67352 
L 203.546512 -226.945078 
L 205.168605 -228.66617 
L 206.790698 -237.173399 
L 208.412791 -238.385283 
L 210.034884 -250.919251 
L 211.656977 -251.641092 
L 213.27907 -261.786919 
L 214.901163 -266.358075 
L 216.523256 -272.381096 
L 218.145349 -283.41911 
L 219.767442 -286.997151 
L 221.389535 -296.711542 
L 223.011628 -295.971412 
L 224.633721 -301.350169 
L 226.255814 -304.445455 
L 227.877907 -299.296719 
L 229.5 -288.828044 
L 231.122093 -290.776257 
L 232.744186 -280.00289 
L 234.366279 -269.218756 
L 235.988372 -263.285841 
L 237.610465 -245.376428 
L 239.232558 -234.51105 
L 240.854651 -221.551832 
L 242.476744 -207.419261 
L 244.098837 -194.53549 
L 245.72093 -182.003158 
L 247.343023 -171.4982 
L 248.965116 -160.48716 
L 250.587209 -152.265153 
L 252.209302 -144.719857 
L 253.831395 -136.826421 
L 255.453488 -133.391675 
L 257.075581 -127.288714 
L 258.697674 -127.07837 
L 260.319767 -122.486371 
L 261.94186 -119.544538 
L 263.563953 -117.866084 
L 265.186047 -114.596017 
L 266.80814 -115.45783 
L 268.430233 -112.169226 
L 270.052326 -113.043031 
L 271.674419 -110.694641 
L 273.296512 -109.061274 
L 274.918605 -107.752804 
L 276.540698 -108.304942 
L 278.162791 -105.86608 
L 279.784884 -105.57569 
L 281.406977 -103.316478 
L 283.02907 -103.466242 
L 284.651163 -102.615544 
L 286.273256 -102.012054 
L 287.895349 -102.693246 
L 289.517442 -102.327856 
L 291.139535 -102.520509 
L 292.761628 -103.513682 
L 294.383721 -102.210176 
L 296.005814 -103.519908 
L 297.627907 -106.829801 
L 299.25 -106.889739 
L 300.872093 -108.423265 
L 302.494186 -110.090499 
L 304.116279 -111.882495 
L 305.738372 -113.063729 
L 307.360465 -116.994446 
L 308.982558 -118.660192 
L 310.604651 -123.709766 
L 312.226744 -124.571662 
L 313.848837 -130.26178 
L 315.47093 -134.625117 
L 317.093023 -137.476509 
L 318.715116 -141.981288 
L 320.337209 -147.263604 
L 321.959302 -154.584554 
L 323.581395 -155.870339 
L 325.203488 -160.209567 
L 326.825581 -167.191491 
L 328.447674 -173.499803 
L 330.069767 -176.477287 
L 331.69186 -182.175721 
L 333.313953 -190.370693 
L 334.936047 -190.398817 
L 336.55814 -192.210849 
L 338.180233 -195.31844 
L 339.802326 -199.301871 
L 341.424419 -202.092762 
L 343.046512 -204.740766 
L 344.668605 -201.230809 
L 346.290698 -206.891575 
L 347.912791 -204.778818 
L 349.534884 -204.125229 
L 351.156977 -196.912007 
L 352.77907 -201.007997 
L 354.401163 -195.7271 
L 356.023256 -193.183441 
L 357.645349 -186.941882 
L 359.267442 -183.222377 
L 360.889535 -180.148755 
L 362.511628 -173.941249 
L 364.133721 -169.617635 
L 365.755814 -165.519904 
L 367.377907 -161.138551 
L 369 -158.744593 
L 370.622093 -152.988019 
L 372.244186 -151.438712 
L 373.866279 -148.097126 
L 375.488372 -143.504276 
L 377.110465 -139.170843 
L 378.732558 -136.401146 
L 380.354651 -134.283556 
L 381.976744 -129.290357 
L 383.598837 -124.83488 
L 385.22093 -120.997041 
L 386.843023 -118.154028 
L 388.465116 -114.477901 
L 390.087209 -110.049798 
L 391.709302 -107.979932 
L 393.331395 -104.334162 
L 394.953488 -101.448773 
L 396.575581 -97.138699 
L 398.197674 -95.962891 
L 399.819767 -93.100342 
L 401.44186 -91.125113 
L 403.063953 -90.494129 
L 404.686047 -88.302236 
L 406.30814 -88.933321 
L 407.930233 -87.257311 
L 409.552326 -87.109753 
L 411.174419 -87.091637 
L 412.796512 -87.101909 
L 414.418605 -86.379641 
L 416.040698 -85.879218 
L 417.662791 -87.275472 
L 419.284884 -88.778707 
L 420.906977 -91.011146 
L 422.52907 -92.642583 
L 424.151163 -93.010753 
L 425.773256 -95.311704 
L 427.395349 -97.121862 
L 429.017442 -99.31434 
L 430.639535 -99.917246 
L 432.261628 -102.712329 
L 433.883721 -105.690248 
L 435.505814 -107.194777 
L 437.127907 -109.799785 
L 438.75 -112.655492 
L 440.372093 -116.121499 
L 441.994186 -117.350597 
L 443.616279 -120.301839 
L 445.238372 -124.286883 
L 446.860465 -126.409117 
L 448.482558 -128.524655 
L 450.104651 -132.114729 
L 451.726744 -138.348982 
L 453.348837 -140.241229 
L 454.97093 -143.194548 
L 456.593023 -147.456501 
L 458.215116 -151.482201 
L 459.837209 -156.261222 
L 461.459302 -155.833579 
L 463.081395 -161.533431 
L 464.703488 -163.931086 
L 466.325581 -169.798521 
L 467.947674 -172.786307 
L 469.569767 -170.840491 
L 471.19186 -178.133175 
L 472.813953 -177.090683 
L 474.436047 -175.765933 
L 476.05814 -178.310084 
L 477.680233 -179.41893 
L 479.302326 -177.462991 
L 480.924419 -181.235855 
L 482.546512 -179.278545 
L 484.168605 -178.412766 
L 485.790698 -180.032796 
L 487.412791 -178.879644 
L 489.034884 -180.433493 
L 490.656977 -183.253917 
L 492.27907 -178.170032 
L 493.901163 -178.717357 
L 495.523256 -178.280353 
L 497.145349 -177.173102 
L 498.767442 -174.258486 
L 500.389535 -174.297711 
L 502.011628 -174.00327 
L 503.633721 -169.920067 
L 505.255814 -164.847101 
L 506.877907 -165.460665 
L 508.5 -166.544228 
L 510.122093 -163.866405 
L 511.744186 -168.117537 
L 513.366279 -164.237067 
L 514.988372 -164.425786 
L 516.610465 -164.338737 
L 518.232558 -165.456071 
L 519.854651 -166.450174 
L 521.476744 -168.860502 
L 523.098837 -165.563253 
L 524.72093 -166.453474 
L 526.343023 -168.406924 
L 527.965116 -169.242778 
L 529.587209 -169.569846 
L 531.209302 -173.966297 
L 532.831395 -172.841472 
L 534.453488 -174.377319 
L 536.075581 -172.044659 
L 537.697674 -173.911558 
L 539.319767 -170.562584 
L 540.94186 -169.639021 
L 542.563953 -171.87983 
L 544.186047 -168.938201 
L 545.80814 -166.491189 
L 547.430233 -164.568384 
L 549.052326 -162.214235 
L 550.674419 -157.109636 
L 552.296512 -154.39761 
L 553.918605 -154.40225 
L 555.540698 -149.791228 
L 557.162791 -149.542471 
L 558.784884 -144.430696 
L 560.406977 -145.621209 
L 562.02907 -139.678385 
L 563.651163 -140.420074 
L 565.273256 -139.172606 
L 566.895349 -137.214729 
L 568.517442 -135.225165 
L 570.139535 -132.27565 
L 571.761628 -133.536099 
L 573.383721 -131.060267 
L 575.005814 -130.027262 
L 576.627907 -128.095426 
L 578.25 -129.176116 
L 579.872093 -126.836712 
L 581.494186 -128.552392 
L 583.116279 -126.676007 
L 584.738372 -127.249509 
L 586.360465 -125.34471 
L 587.982558 -126.170543 
L 589.604651 -124.959791 
L 591.226744 -127.692184 
L 592.848837 -126.168223 
L 594.47093 -126.202534 
L 596.093023 -128.316845 
L 597.715116 -129.413903 
L 599.337209 -129.897243 
L 600.959302 -132.189793 
L 602.581395 -131.377637 
L 604.203488 -132.262137 
L 605.825581 -133.311727 
L 607.447674 -136.236448 
L 609.069767 -138.400091 
L 610.69186 -139.130203 
L 612.313953 -140.233716 
L 613.936047 -140.663042 
L 615.55814 -144.112264 
L 617.180233 -146.40677 
L 618.802326 -146.664236 
L 620.424419 -148.16951 
L 622.046512 -151.092262 
L 623.668605 -149.112265 
L 625.290698 -154.31806 
L 626.912791 -154.430462 
L 628.534884 -153.149082 
L 630.156977 -152.384805 
L 631.77907 -153.272417 
L 633.401163 -154.032533 
L 635.023256 -152.551958 
L 636.645349 -153.694138 
L 638.267442 -157.051464 
L 639.889535 -158.152454 
L 641.511628 -157.879983 
L 643.133721 -161.86308 
L 644.755814 -162.56582 
L 646.377907 -156.704404 
L 648 -160.390925 
L 649.622093 -161.844606 
L 651.244186 -165.916372 
L 652.866279 -159.114742 
L 654.488372 -160.757732 
L 656.110465 -163.340739 
L 657.732558 -164.3344 
L 659.354651 -172.624687 
L 660.976744 -169.403462 
L 660.976744 -93.44878 
L 660.976744 -93.44878 
L 659.354651 -99.833348 
L 657.732558 -96.440003 
L 656.110465 -98.230975 
L 654.488372 -99.437323 
L 652.866279 -97.207285 
L 651.244186 -105.078618 
L 649.622093 -103.683262 
L 648 -105.493545 
L 646.377907 -103.463766 
L 644.755814 -110.185996 
L 643.133721 -112.46001 
L 641.511628 -111.531527 
L 639.889535 -113.096484 
L 638.267442 -113.716576 
L 636.645349 -112.276515 
L 635.023256 -115.371117 
L 633.401163 -117.149574 
L 631.77907 -118.456022 
L 630.156977 -118.568134 
L 628.534884 -121.223178 
L 626.912791 -122.101623 
L 625.290698 -122.1312 
L 623.668605 -119.706916 
L 622.046512 -121.005034 
L 620.424419 -119.76897 
L 618.802326 -117.645073 
L 617.180233 -118.202446 
L 615.55814 -115.768293 
L 613.936047 -113.244977 
L 612.313953 -113.488185 
L 610.69186 -111.494088 
L 609.069767 -110.495294 
L 607.447674 -108.838774 
L 605.825581 -106.242456 
L 604.203488 -104.924668 
L 602.581395 -103.878535 
L 600.959302 -104.938607 
L 599.337209 -103.177872 
L 597.715116 -101.985975 
L 596.093023 -102.614996 
L 594.47093 -100.302471 
L 592.848837 -101.041821 
L 591.226744 -103.208594 
L 589.604651 -101.991063 
L 587.982558 -102.60817 
L 586.360465 -101.749698 
L 584.738372 -103.812472 
L 583.116279 -102.197273 
L 581.494186 -103.282177 
L 579.872093 -102.101958 
L 578.25 -103.621566 
L 576.627907 -103.775887 
L 575.005814 -104.994305 
L 573.383721 -105.922319 
L 571.761628 -107.291735 
L 570.139535 -106.510583 
L 568.517442 -109.572873 
L 566.895349 -111.829459 
L 565.273256 -112.165949 
L 563.651163 -113.818097 
L 562.02907 -113.255632 
L 560.406977 -118.300896 
L 558.784884 -117.250477 
L 557.162791 -121.40912 
L 555.540698 -120.855562 
L 553.918605 -124.708085 
L 552.296512 -123.846622 
L 550.674419 -126.245306 
L 549.052326 -128.273792 
L 547.430233 -130.891529 
L 545.80814 -132.474992 
L 544.186047 -134.871593 
L 542.563953 -138.072597 
L 540.94186 -136.672249 
L 539.319767 -137.454073 
L 537.697674 -139.63682 
L 536.075581 -138.984142 
L 534.453488 -141.938055 
L 532.831395 -140.537828 
L 531.209302 -139.955181 
L 529.587209 -136.755071 
L 527.965116 -135.730584 
L 526.343023 -135.598676 
L 524.72093 -133.517281 
L 523.098837 -132.755774 
L 521.476744 -134.688781 
L 519.854651 -131.451156 
L 518.232558 -133.069423 
L 516.610465 -131.200731 
L 514.988372 -131.478636 
L 513.366279 -131.362696 
L 511.744186 -134.238431 
L 510.122093 -131.260662 
L 508.5 -132.889967 
L 506.877907 -131.411271 
L 505.255814 -130.571607 
L 503.633721 -132.152788 
L 502.011628 -136.174365 
L 500.389535 -136.348389 
L 498.767442 -136.674857 
L 497.145349 -139.224838 
L 495.523256 -140.753858 
L 493.901163 -141.284359 
L 492.27907 -141.408217 
L 490.656977 -145.4008 
L 489.034884 -143.142395 
L 487.412791 -140.60041 
L 485.790698 -141.088058 
L 484.168605 -139.606144 
L 482.546512 -140.003343 
L 480.924419 -141.027396 
L 479.302326 -137.29983 
L 477.680233 -138.795442 
L 476.05814 -135.653987 
L 474.436047 -136.357193 
L 472.813953 -137.240556 
L 471.19186 -138.636317 
L 469.569767 -133.484134 
L 467.947674 -136.005896 
L 466.325581 -133.281441 
L 464.703488 -126.132443 
L 463.081395 -123.712676 
L 461.459302 -119.661893 
L 459.837209 -121.601068 
L 458.215116 -117.747474 
L 456.593023 -114.440339 
L 454.97093 -111.127995 
L 453.348837 -109.253982 
L 451.726744 -106.997697 
L 450.104651 -102.987906 
L 448.482558 -99.943403 
L 446.860465 -97.764031 
L 445.238372 -96.658376 
L 443.616279 -93.228848 
L 441.994186 -91.747954 
L 440.372093 -92.098892 
L 438.75 -89.106034 
L 437.127907 -86.591768 
L 435.505814 -85.318108 
L 433.883721 -85.058331 
L 432.261628 -81.913846 
L 430.639535 -79.443562 
L 429.017442 -79.031018 
L 427.395349 -78.184116 
L 425.773256 -76.80375 
L 424.151163 -74.163056 
L 422.52907 -74.315409 
L 420.906977 -73.31991 
L 419.284884 -71.781945 
L 417.662791 -70.195513 
L 416.040698 -69.64744 
L 414.418605 -70.029201 
L 412.796512 -71.195707 
L 411.174419 -71.075319 
L 409.552326 -71.489794 
L 407.930233 -71.524556 
L 406.30814 -73.279065 
L 404.686047 -72.493758 
L 403.063953 -74.356141 
L 401.44186 -74.399178 
L 399.819767 -76.050952 
L 398.197674 -78.407318 
L 396.575581 -79.295996 
L 394.953488 -83.325923 
L 393.331395 -85.08797 
L 391.709302 -87.596071 
L 390.087209 -88.47872 
L 388.465116 -93.001675 
L 386.843023 -96.530453 
L 385.22093 -98.556635 
L 383.598837 -102.014244 
L 381.976744 -105.413769 
L 380.354651 -108.888696 
L 378.732558 -109.629545 
L 377.110465 -110.726992 
L 375.488372 -114.543187 
L 373.866279 -118.645376 
L 372.244186 -121.879897 
L 370.622093 -121.574487 
L 369 -128.071823 
L 367.377907 -129.628597 
L 365.755814 -132.422098 
L 364.133721 -135.460954 
L 362.511628 -138.874973 
L 360.889535 -144.527904 
L 359.267442 -145.659456 
L 357.645349 -148.685154 
L 356.023256 -152.921158 
L 354.401163 -155.066532 
L 352.77907 -159.534001 
L 351.156977 -154.528282 
L 349.534884 -161.496186 
L 347.912791 -161.913982 
L 346.290698 -162.146205 
L 344.668605 -158.619174 
L 343.046512 -162.109041 
L 341.424419 -158.541834 
L 339.802326 -157.157269 
L 338.180233 -154.430165 
L 336.55814 -149.676576 
L 334.936047 -148.64975 
L 333.313953 -148.813718 
L 331.69186 -142.024781 
L 330.069767 -138.075055 
L 328.447674 -136.634784 
L 326.825581 -132.863096 
L 325.203488 -127.255871 
L 323.581395 -124.234947 
L 321.959302 -123.352727 
L 320.337209 -117.175323 
L 318.715116 -112.542098 
L 317.093023 -108.607171 
L 315.47093 -107.72774 
L 313.848837 -104.072686 
L 312.226744 -99.065842 
L 310.604651 -99.392549 
L 308.982558 -95.129893 
L 307.360465 -93.892947 
L 305.738372 -90.287733 
L 304.116279 -89.783458 
L 302.494186 -88.329578 
L 300.872093 -86.520891 
L 299.25 -85.038147 
L 297.627907 -85.539976 
L 296.005814 -81.874706 
L 294.383721 -81.225612 
L 292.761628 -82.898524 
L 291.139535 -81.993296 
L 289.517442 -81.961713 
L 287.895349 -82.972087 
L 286.273256 -82.423143 
L 284.651163 -83.690299 
L 283.02907 -84.418757 
L 281.406977 -83.374964 
L 279.784884 -85.366292 
L 278.162791 -85.472506 
L 276.540698 -86.935854 
L 274.918605 -85.992861 
L 273.296512 -87.946528 
L 271.674419 -89.173181 
L 270.052326 -90.829349 
L 268.430233 -89.84048 
L 266.80814 -93.749439 
L 265.186047 -92.854642 
L 263.563953 -95.377398 
L 261.94186 -96.861291 
L 260.319767 -98.745411 
L 258.697674 -102.580794 
L 257.075581 -101.460712 
L 255.453488 -107.070414 
L 253.831395 -109.453818 
L 252.209302 -116.013809 
L 250.587209 -120.470503 
L 248.965116 -126.379225 
L 247.343023 -134.620799 
L 245.72093 -142.743273 
L 244.098837 -152.595595 
L 242.476744 -160.262352 
L 240.854651 -169.728817 
L 239.232558 -178.437701 
L 237.610465 -187.016425 
L 235.988372 -199.380024 
L 234.366279 -201.943581 
L 232.744186 -210.153509 
L 231.122093 -218.235538 
L 229.5 -215.589012 
L 227.877907 -220.941552 
L 226.255814 -222.650163 
L 224.633721 -220.022758 
L 223.011628 -214.853332 
L 221.389535 -218.226416 
L 219.767442 -209.849718 
L 218.145349 -204.827281 
L 216.523256 -199.217971 
L 214.901163 -195.4566 
L 213.27907 -190.666085 
L 211.656977 -185.456879 
L 210.034884 -185.265396 
L 208.412791 -174.264157 
L 206.790698 -176.019291 
L 205.168605 -167.890251 
L 203.546512 -165.422112 
L 201.924419 -161.669253 
L 200.302326 -154.125029 
L 198.680233 -154.797592 
L 197.05814 -149.804677 
L 195.436047 -143.252385 
L 193.813953 -143.443241 
L 192.19186 -136.970652 
L 190.569767 -137.674717 
L 188.947674 -135.311533 
L 187.325581 -133.530319 
L 185.703488 -130.454535 
L 184.081395 -126.661921 
L 182.459302 -122.725491 
L 180.837209 -119.87517 
L 179.215116 -118.529224 
L 177.593023 -119.66985 
L 175.97093 -120.257268 
L 174.348837 -112.467001 
L 172.726744 -106.196097 
L 171.104651 -108.739643 
L 169.482558 -105.818586 
L 167.860465 -102.065838 
L 166.238372 -103.223782 
L 164.616279 -104.438479 
L 162.994186 -100.113845 
L 161.372093 -99.954788 
L 159.75 -97.213575 
L 158.127907 -96.375188 
L 156.505814 -95.889894 
L 154.883721 -92.059168 
L 153.261628 -92.276737 
L 151.639535 -92.633669 
L 150.017442 -91.524557 
L 148.395349 -88.198522 
L 146.773256 -86.761558 
L 145.151163 -86.348961 
L 143.52907 -84.760163 
L 141.906977 -83.387424 
L 140.284884 -83.532155 
L 138.662791 -78.88022 
L 137.040698 -78.155261 
L 135.418605 -78.250031 
L 133.796512 -78.112101 
L 132.174419 -77.467312 
L 130.552326 -75.765879 
L 128.930233 -74.088992 
L 127.30814 -73.035443 
L 125.686047 -72.850663 
L 124.063953 -72.044536 
L 122.44186 -69.661675 
L 120.819767 -70.241857 
L 119.197674 -68.894852 
L 117.575581 -70.65012 
L 115.953488 -67.878532 
L 114.331395 -67.47356 
L 112.709302 -67.305483 
L 111.087209 -65.249771 
L 109.465116 -62.969604 
L 107.843023 -65.006691 
L 106.22093 -63.55234 
L 104.598837 -62.229729 
L 102.976744 -62.656369 
L 101.354651 -62.908768 
L 99.732558 -59.859324 
L 98.110465 -59.825129 
L 96.488372 -60.970871 
L 94.866279 -57.716156 
L 93.244186 -59.295627 
L 91.622093 -57.49042 
L 90 -57.354545 
z
" id="med5646f947" style="stroke:#fdcbb6;stroke-opacity:0.8;"/>
    </defs>
    <g clip-path="url(#p6b76a737fa)">
     <use style="fill:#fdcbb6;fill-opacity:0.8;stroke:#fdcbb6;stroke-opacity:0.8;" x="0" xlink:href="#med5646f947" y="360"/>
    </g>
   </g>
   <g id="matplotlib.axis_1">
    <g id="xtick_1">
     <g id="line2d_1">
      <defs>
       <path d="M 0 0 
L 0 3.5 
" id="m127346a4f1" style="stroke:#000000;stroke-width:0.8;"/>
      </defs>
      <g>
       <use style="stroke:#000000;stroke-width:0.8;" x="90" xlink:href="#m127346a4f1" y="315"/>
      </g>
     </g>
    </g>
    <g id="xtick_2">
     <g id="line2d_2">
      <g>
       <use style="stroke:#000000;stroke-width:0.8;" x="112.709302" xlink:href="#m127346a4f1" y="315"/>
      </g>
     </g>
     <g id="text_1">
      <!-- Apr -->
      <g transform="translate(104.059302 329.598437)scale(0.1 -0.1)">
       <defs>
        <path d="M 34.1875 63.1875 
L 20.796875 26.90625 
L 47.609375 26.90625 
z
M 28.609375 72.90625 
L 39.796875 72.90625 
L 67.578125 0 
L 57.328125 0 
L 50.6875 18.703125 
L 17.828125 18.703125 
L 11.1875 0 
L 0.78125 0 
z
" id="DejaVuSans-65"/>
        <path d="M 18.109375 8.203125 
L 18.109375 -20.796875 
L 9.078125 -20.796875 
L 9.078125 54.6875 
L 18.109375 54.6875 
L 18.109375 46.390625 
Q 20.953125 51.265625 25.265625 53.625 
Q 29.59375 56 35.59375 56 
Q 45.5625 56 51.78125 48.09375 
Q 58.015625 40.1875 58.015625 27.296875 
Q 58.015625 14.40625 51.78125 6.484375 
Q 45.5625 -1.421875 35.59375 -1.421875 
Q 29.59375 -1.421875 25.265625 0.953125 
Q 20.953125 3.328125 18.109375 8.203125 
z
M 48.6875 27.296875 
Q 48.6875 37.203125 44.609375 42.84375 
Q 40.53125 48.484375 33.40625 48.484375 
Q 26.265625 48.484375 22.1875 42.84375 
Q 18.109375 37.203125 18.109375 27.296875 
Q 18.109375 17.390625 22.1875 11.75 
Q 26.265625 6.109375 33.40625 6.109375 
Q 40.53125 6.109375 44.609375 11.75 
Q 48.6875 17.390625 48.6875 27.296875 
z
" id="DejaVuSans-112"/>
        <path d="M 41.109375 46.296875 
Q 39.59375 47.171875 37.8125 47.578125 
Q 36.03125 48 33.890625 48 
Q 26.265625 48 22.1875 43.046875 
Q 18.109375 38.09375 18.109375 28.8125 
L 18.109375 0 
L 9.078125 0 
L 9.078125 54.6875 
L 18.109375 54.6875 
L 18.109375 46.1875 
Q 20.953125 51.171875 25.484375 53.578125 
Q 30.03125 56 36.53125 56 
Q 37.453125 56 38.578125 55.875 
Q 39.703125 55.765625 41.0625 55.515625 
z
" id="DejaVuSans-114"/>
       </defs>
       <use xlink:href="#DejaVuSans-65"/>
       <use x="68.408203" xlink:href="#DejaVuSans-112"/>
       <use x="131.884766" xlink:href="#DejaVuSans-114"/>
      </g>
     </g>
    </g>
    <g id="xtick_3">
     <g id="line2d_3">
      <g>
       <use style="stroke:#000000;stroke-width:0.8;" x="161.372093" xlink:href="#m127346a4f1" y="315"/>
      </g>
     </g>
     <g id="text_2">
      <!-- May -->
      <g transform="translate(151.034593 329.598437)scale(0.1 -0.1)">
       <defs>
        <path d="M 9.8125 72.90625 
L 24.515625 72.90625 
L 43.109375 23.296875 
L 61.8125 72.90625 
L 76.515625 72.90625 
L 76.515625 0 
L 66.890625 0 
L 66.890625 64.015625 
L 48.09375 14.015625 
L 38.1875 14.015625 
L 19.390625 64.015625 
L 19.390625 0 
L 9.8125 0 
z
" id="DejaVuSans-77"/>
        <path d="M 34.28125 27.484375 
Q 23.390625 27.484375 19.1875 25 
Q 14.984375 22.515625 14.984375 16.5 
Q 14.984375 11.71875 18.140625 8.90625 
Q 21.296875 6.109375 26.703125 6.109375 
Q 34.1875 6.109375 38.703125 11.40625 
Q 43.21875 16.703125 43.21875 25.484375 
L 43.21875 27.484375 
z
M 52.203125 31.203125 
L 52.203125 0 
L 43.21875 0 
L 43.21875 8.296875 
Q 40.140625 3.328125 35.546875 0.953125 
Q 30.953125 -1.421875 24.3125 -1.421875 
Q 15.921875 -1.421875 10.953125 3.296875 
Q 6 8.015625 6 15.921875 
Q 6 25.140625 12.171875 29.828125 
Q 18.359375 34.515625 30.609375 34.515625 
L 43.21875 34.515625 
L 43.21875 35.40625 
Q 43.21875 41.609375 39.140625 45 
Q 35.0625 48.390625 27.6875 48.390625 
Q 23 48.390625 18.546875 47.265625 
Q 14.109375 46.140625 10.015625 43.890625 
L 10.015625 52.203125 
Q 14.9375 54.109375 19.578125 55.046875 
Q 24.21875 56 28.609375 56 
Q 40.484375 56 46.34375 49.84375 
Q 52.203125 43.703125 52.203125 31.203125 
z
" id="DejaVuSans-97"/>
        <path d="M 32.171875 -5.078125 
Q 28.375 -14.84375 24.75 -17.8125 
Q 21.140625 -20.796875 15.09375 -20.796875 
L 7.90625 -20.796875 
L 7.90625 -13.28125 
L 13.1875 -13.28125 
Q 16.890625 -13.28125 18.9375 -11.515625 
Q 21 -9.765625 23.484375 -3.21875 
L 25.09375 0.875 
L 2.984375 54.6875 
L 12.5 54.6875 
L 29.59375 11.921875 
L 46.6875 54.6875 
L 56.203125 54.6875 
z
" id="DejaVuSans-121"/>
       </defs>
       <use xlink:href="#DejaVuSans-77"/>
       <use x="86.279297" xlink:href="#DejaVuSans-97"/>
       <use x="147.558594" xlink:href="#DejaVuSans-121"/>
      </g>
     </g>
    </g>
    <g id="xtick_4">
     <g id="line2d_4">
      <g>
       <use style="stroke:#000000;stroke-width:0.8;" x="211.656977" xlink:href="#m127346a4f1" y="315"/>
      </g>
     </g>
     <g id="text_3">
      <!-- Jun -->
      <g transform="translate(203.844477 329.598437)scale(0.1 -0.1)">
       <defs>
        <path d="M 9.8125 72.90625 
L 19.671875 72.90625 
L 19.671875 5.078125 
Q 19.671875 -8.109375 14.671875 -14.0625 
Q 9.671875 -20.015625 -1.421875 -20.015625 
L -5.171875 -20.015625 
L -5.171875 -11.71875 
L -2.09375 -11.71875 
Q 4.4375 -11.71875 7.125 -8.046875 
Q 9.8125 -4.390625 9.8125 5.078125 
z
" id="DejaVuSans-74"/>
        <path d="M 8.5 21.578125 
L 8.5 54.6875 
L 17.484375 54.6875 
L 17.484375 21.921875 
Q 17.484375 14.15625 20.5 10.265625 
Q 23.53125 6.390625 29.59375 6.390625 
Q 36.859375 6.390625 41.078125 11.03125 
Q 45.3125 15.671875 45.3125 23.6875 
L 45.3125 54.6875 
L 54.296875 54.6875 
L 54.296875 0 
L 45.3125 0 
L 45.3125 8.40625 
Q 42.046875 3.421875 37.71875 1 
Q 33.40625 -1.421875 27.6875 -1.421875 
Q 18.265625 -1.421875 13.375 4.4375 
Q 8.5 10.296875 8.5 21.578125 
z
M 31.109375 56 
z
" id="DejaVuSans-117"/>
        <path d="M 54.890625 33.015625 
L 54.890625 0 
L 45.90625 0 
L 45.90625 32.71875 
Q 45.90625 40.484375 42.875 44.328125 
Q 39.84375 48.1875 33.796875 48.1875 
Q 26.515625 48.1875 22.3125 43.546875 
Q 18.109375 38.921875 18.109375 30.90625 
L 18.109375 0 
L 9.078125 0 
L 9.078125 54.6875 
L 18.109375 54.6875 
L 18.109375 46.1875 
Q 21.34375 51.125 25.703125 53.5625 
Q 30.078125 56 35.796875 56 
Q 45.21875 56 50.046875 50.171875 
Q 54.890625 44.34375 54.890625 33.015625 
z
" id="DejaVuSans-110"/>
       </defs>
       <use xlink:href="#DejaVuSans-74"/>
       <use x="29.492188" xlink:href="#DejaVuSans-117"/>
       <use x="92.871094" xlink:href="#DejaVuSans-110"/>
      </g>
     </g>
    </g>
    <g id="xtick_5">
     <g id="line2d_5">
      <g>
       <use style="stroke:#000000;stroke-width:0.8;" x="260.319767" xlink:href="#m127346a4f1" y="315"/>
      </g>
     </g>
     <g id="text_4">
      <!-- Jul -->
      <g transform="translate(254.286955 329.598437)scale(0.1 -0.1)">
       <defs>
        <path d="M 9.421875 75.984375 
L 18.40625 75.984375 
L 18.40625 0 
L 9.421875 0 
z
" id="DejaVuSans-108"/>
       </defs>
       <use xlink:href="#DejaVuSans-74"/>
       <use x="29.492188" xlink:href="#DejaVuSans-117"/>
       <use x="92.871094" xlink:href="#DejaVuSans-108"/>
      </g>
     </g>
    </g>
    <g id="xtick_6">
     <g id="line2d_6">
      <g>
       <use style="stroke:#000000;stroke-width:0.8;" x="310.604651" xlink:href="#m127346a4f1" y="315"/>
      </g>
     </g>
     <g id="text_5">
      <!-- Aug -->
      <g transform="translate(300.84137 329.598437)scale(0.1 -0.1)">
       <defs>
        <path d="M 45.40625 27.984375 
Q 45.40625 37.75 41.375 43.109375 
Q 37.359375 48.484375 30.078125 48.484375 
Q 22.859375 48.484375 18.828125 43.109375 
Q 14.796875 37.75 14.796875 27.984375 
Q 14.796875 18.265625 18.828125 12.890625 
Q 22.859375 7.515625 30.078125 7.515625 
Q 37.359375 7.515625 41.375 12.890625 
Q 45.40625 18.265625 45.40625 27.984375 
z
M 54.390625 6.78125 
Q 54.390625 -7.171875 48.1875 -13.984375 
Q 42 -20.796875 29.203125 -20.796875 
Q 24.46875 -20.796875 20.265625 -20.09375 
Q 16.0625 -19.390625 12.109375 -17.921875 
L 12.109375 -9.1875 
Q 16.0625 -11.328125 19.921875 -12.34375 
Q 23.78125 -13.375 27.78125 -13.375 
Q 36.625 -13.375 41.015625 -8.765625 
Q 45.40625 -4.15625 45.40625 5.171875 
L 45.40625 9.625 
Q 42.625 4.78125 38.28125 2.390625 
Q 33.9375 0 27.875 0 
Q 17.828125 0 11.671875 7.65625 
Q 5.515625 15.328125 5.515625 27.984375 
Q 5.515625 40.671875 11.671875 48.328125 
Q 17.828125 56 27.875 56 
Q 33.9375 56 38.28125 53.609375 
Q 42.625 51.21875 45.40625 46.390625 
L 45.40625 54.6875 
L 54.390625 54.6875 
z
" id="DejaVuSans-103"/>
       </defs>
       <use xlink:href="#DejaVuSans-65"/>
       <use x="68.408203" xlink:href="#DejaVuSans-117"/>
       <use x="131.787109" xlink:href="#DejaVuSans-103"/>
      </g>
     </g>
    </g>
    <g id="xtick_7">
     <g id="line2d_7">
      <g>
       <use style="stroke:#000000;stroke-width:0.8;" x="360.889535" xlink:href="#m127346a4f1" y="315"/>
      </g>
     </g>
     <g id="text_6">
      <!-- Sep -->
      <g transform="translate(351.464535 329.598437)scale(0.1 -0.1)">
       <defs>
        <path d="M 53.515625 70.515625 
L 53.515625 60.890625 
Q 47.90625 63.578125 42.921875 64.890625 
Q 37.9375 66.21875 33.296875 66.21875 
Q 25.25 66.21875 20.875 63.09375 
Q 16.5 59.96875 16.5 54.203125 
Q 16.5 49.359375 19.40625 46.890625 
Q 22.3125 44.4375 30.421875 42.921875 
L 36.375 41.703125 
Q 47.40625 39.59375 52.65625 34.296875 
Q 57.90625 29 57.90625 20.125 
Q 57.90625 9.515625 50.796875 4.046875 
Q 43.703125 -1.421875 29.984375 -1.421875 
Q 24.8125 -1.421875 18.96875 -0.25 
Q 13.140625 0.921875 6.890625 3.21875 
L 6.890625 13.375 
Q 12.890625 10.015625 18.65625 8.296875 
Q 24.421875 6.59375 29.984375 6.59375 
Q 38.421875 6.59375 43.015625 9.90625 
Q 47.609375 13.234375 47.609375 19.390625 
Q 47.609375 24.75 44.3125 27.78125 
Q 41.015625 30.8125 33.5 32.328125 
L 27.484375 33.5 
Q 16.453125 35.6875 11.515625 40.375 
Q 6.59375 45.0625 6.59375 53.421875 
Q 6.59375 63.09375 13.40625 68.65625 
Q 20.21875 74.21875 32.171875 74.21875 
Q 37.3125 74.21875 42.625 73.28125 
Q 47.953125 72.359375 53.515625 70.515625 
z
" id="DejaVuSans-83"/>
        <path d="M 56.203125 29.59375 
L 56.203125 25.203125 
L 14.890625 25.203125 
Q 15.484375 15.921875 20.484375 11.0625 
Q 25.484375 6.203125 34.421875 6.203125 
Q 39.59375 6.203125 44.453125 7.46875 
Q 49.3125 8.734375 54.109375 11.28125 
L 54.109375 2.78125 
Q 49.265625 0.734375 44.1875 -0.34375 
Q 39.109375 -1.421875 33.890625 -1.421875 
Q 20.796875 -1.421875 13.15625 6.1875 
Q 5.515625 13.8125 5.515625 26.8125 
Q 5.515625 40.234375 12.765625 48.109375 
Q 20.015625 56 32.328125 56 
Q 43.359375 56 49.78125 48.890625 
Q 56.203125 41.796875 56.203125 29.59375 
z
M 47.21875 32.234375 
Q 47.125 39.59375 43.09375 43.984375 
Q 39.0625 48.390625 32.421875 48.390625 
Q 24.90625 48.390625 20.390625 44.140625 
Q 15.875 39.890625 15.1875 32.171875 
z
" id="DejaVuSans-101"/>
       </defs>
       <use xlink:href="#DejaVuSans-83"/>
       <use x="63.476562" xlink:href="#DejaVuSans-101"/>
       <use x="125" xlink:href="#DejaVuSans-112"/>
      </g>
     </g>
    </g>
    <g id="xtick_8">
     <g id="line2d_8">
      <g>
       <use style="stroke:#000000;stroke-width:0.8;" x="409.552326" xlink:href="#m127346a4f1" y="315"/>
      </g>
     </g>
     <g id="text_7">
      <!-- Oct -->
      <g transform="translate(400.907013 329.598437)scale(0.1 -0.1)">
       <defs>
        <path d="M 39.40625 66.21875 
Q 28.65625 66.21875 22.328125 58.203125 
Q 16.015625 50.203125 16.015625 36.375 
Q 16.015625 22.609375 22.328125 14.59375 
Q 28.65625 6.59375 39.40625 6.59375 
Q 50.140625 6.59375 56.421875 14.59375 
Q 62.703125 22.609375 62.703125 36.375 
Q 62.703125 50.203125 56.421875 58.203125 
Q 50.140625 66.21875 39.40625 66.21875 
z
M 39.40625 74.21875 
Q 54.734375 74.21875 63.90625 63.9375 
Q 73.09375 53.65625 73.09375 36.375 
Q 73.09375 19.140625 63.90625 8.859375 
Q 54.734375 -1.421875 39.40625 -1.421875 
Q 24.03125 -1.421875 14.8125 8.828125 
Q 5.609375 19.09375 5.609375 36.375 
Q 5.609375 53.65625 14.8125 63.9375 
Q 24.03125 74.21875 39.40625 74.21875 
z
" id="DejaVuSans-79"/>
        <path d="M 48.78125 52.59375 
L 48.78125 44.1875 
Q 44.96875 46.296875 41.140625 47.34375 
Q 37.3125 48.390625 33.40625 48.390625 
Q 24.65625 48.390625 19.8125 42.84375 
Q 14.984375 37.3125 14.984375 27.296875 
Q 14.984375 17.28125 19.8125 11.734375 
Q 24.65625 6.203125 33.40625 6.203125 
Q 37.3125 6.203125 41.140625 7.25 
Q 44.96875 8.296875 48.78125 10.40625 
L 48.78125 2.09375 
Q 45.015625 0.34375 40.984375 -0.53125 
Q 36.96875 -1.421875 32.421875 -1.421875 
Q 20.0625 -1.421875 12.78125 6.34375 
Q 5.515625 14.109375 5.515625 27.296875 
Q 5.515625 40.671875 12.859375 48.328125 
Q 20.21875 56 33.015625 56 
Q 37.15625 56 41.109375 55.140625 
Q 45.0625 54.296875 48.78125 52.59375 
z
" id="DejaVuSans-99"/>
        <path d="M 18.3125 70.21875 
L 18.3125 54.6875 
L 36.8125 54.6875 
L 36.8125 47.703125 
L 18.3125 47.703125 
L 18.3125 18.015625 
Q 18.3125 11.328125 20.140625 9.421875 
Q 21.96875 7.515625 27.59375 7.515625 
L 36.8125 7.515625 
L 36.8125 0 
L 27.59375 0 
Q 17.1875 0 13.234375 3.875 
Q 9.28125 7.765625 9.28125 18.015625 
L 9.28125 47.703125 
L 2.6875 47.703125 
L 2.6875 54.6875 
L 9.28125 54.6875 
L 9.28125 70.21875 
z
" id="DejaVuSans-116"/>
       </defs>
       <use xlink:href="#DejaVuSans-79"/>
       <use x="78.710938" xlink:href="#DejaVuSans-99"/>
       <use x="133.691406" xlink:href="#DejaVuSans-116"/>
      </g>
     </g>
    </g>
    <g id="xtick_9">
     <g id="line2d_9">
      <g>
       <use style="stroke:#000000;stroke-width:0.8;" x="459.837209" xlink:href="#m127346a4f1" y="315"/>
      </g>
     </g>
     <g id="text_8">
      <!-- Nov -->
      <g transform="translate(450.077834 329.598437)scale(0.1 -0.1)">
       <defs>
        <path d="M 9.8125 72.90625 
L 23.09375 72.90625 
L 55.421875 11.921875 
L 55.421875 72.90625 
L 64.984375 72.90625 
L 64.984375 0 
L 51.703125 0 
L 19.390625 60.984375 
L 19.390625 0 
L 9.8125 0 
z
" id="DejaVuSans-78"/>
        <path d="M 30.609375 48.390625 
Q 23.390625 48.390625 19.1875 42.75 
Q 14.984375 37.109375 14.984375 27.296875 
Q 14.984375 17.484375 19.15625 11.84375 
Q 23.34375 6.203125 30.609375 6.203125 
Q 37.796875 6.203125 41.984375 11.859375 
Q 46.1875 17.53125 46.1875 27.296875 
Q 46.1875 37.015625 41.984375 42.703125 
Q 37.796875 48.390625 30.609375 48.390625 
z
M 30.609375 56 
Q 42.328125 56 49.015625 48.375 
Q 55.71875 40.765625 55.71875 27.296875 
Q 55.71875 13.875 49.015625 6.21875 
Q 42.328125 -1.421875 30.609375 -1.421875 
Q 18.84375 -1.421875 12.171875 6.21875 
Q 5.515625 13.875 5.515625 27.296875 
Q 5.515625 40.765625 12.171875 48.375 
Q 18.84375 56 30.609375 56 
z
" id="DejaVuSans-111"/>
        <path d="M 2.984375 54.6875 
L 12.5 54.6875 
L 29.59375 8.796875 
L 46.6875 54.6875 
L 56.203125 54.6875 
L 35.6875 0 
L 23.484375 0 
z
" id="DejaVuSans-118"/>
       </defs>
       <use xlink:href="#DejaVuSans-78"/>
       <use x="74.804688" xlink:href="#DejaVuSans-111"/>
       <use x="135.986328" xlink:href="#DejaVuSans-118"/>
      </g>
     </g>
    </g>
    <g id="xtick_10">
     <g id="line2d_10">
      <g>
       <use style="stroke:#000000;stroke-width:0.8;" x="508.5" xlink:href="#m127346a4f1" y="315"/>
      </g>
     </g>
     <g id="text_9">
      <!-- Dec -->
      <g transform="translate(498.824219 329.598437)scale(0.1 -0.1)">
       <defs>
        <path d="M 19.671875 64.796875 
L 19.671875 8.109375 
L 31.59375 8.109375 
Q 46.6875 8.109375 53.6875 14.9375 
Q 60.6875 21.78125 60.6875 36.53125 
Q 60.6875 51.171875 53.6875 57.984375 
Q 46.6875 64.796875 31.59375 64.796875 
z
M 9.8125 72.90625 
L 30.078125 72.90625 
Q 51.265625 72.90625 61.171875 64.09375 
Q 71.09375 55.28125 71.09375 36.53125 
Q 71.09375 17.671875 61.125 8.828125 
Q 51.171875 0 30.078125 0 
L 9.8125 0 
z
" id="DejaVuSans-68"/>
       </defs>
       <use xlink:href="#DejaVuSans-68"/>
       <use x="77.001953" xlink:href="#DejaVuSans-101"/>
       <use x="138.525391" xlink:href="#DejaVuSans-99"/>
      </g>
     </g>
    </g>
    <g id="xtick_11">
     <g id="line2d_11">
      <g>
       <use style="stroke:#000000;stroke-width:0.8;" x="558.784884" xlink:href="#m127346a4f1" y="315"/>
      </g>
     </g>
     <g id="text_10">
      <!-- Jan -->
      <g transform="translate(551.077071 329.598437)scale(0.1 -0.1)">
       <use xlink:href="#DejaVuSans-74"/>
       <use x="29.492188" xlink:href="#DejaVuSans-97"/>
       <use x="90.771484" xlink:href="#DejaVuSans-110"/>
      </g>
      <!-- 2021 -->
      <g transform="translate(546.059884 340.79625)scale(0.1 -0.1)">
       <defs>
        <path d="M 19.1875 8.296875 
L 53.609375 8.296875 
L 53.609375 0 
L 7.328125 0 
L 7.328125 8.296875 
Q 12.9375 14.109375 22.625 23.890625 
Q 32.328125 33.6875 34.8125 36.53125 
Q 39.546875 41.84375 41.421875 45.53125 
Q 43.3125 49.21875 43.3125 52.78125 
Q 43.3125 58.59375 39.234375 62.25 
Q 35.15625 65.921875 28.609375 65.921875 
Q 23.96875 65.921875 18.8125 64.3125 
Q 13.671875 62.703125 7.8125 59.421875 
L 7.8125 69.390625 
Q 13.765625 71.78125 18.9375 73 
Q 24.125 74.21875 28.421875 74.21875 
Q 39.75 74.21875 46.484375 68.546875 
Q 53.21875 62.890625 53.21875 53.421875 
Q 53.21875 48.921875 51.53125 44.890625 
Q 49.859375 40.875 45.40625 35.40625 
Q 44.1875 33.984375 37.640625 27.21875 
Q 31.109375 20.453125 19.1875 8.296875 
z
" id="DejaVuSans-50"/>
        <path d="M 31.78125 66.40625 
Q 24.171875 66.40625 20.328125 58.90625 
Q 16.5 51.421875 16.5 36.375 
Q 16.5 21.390625 20.328125 13.890625 
Q 24.171875 6.390625 31.78125 6.390625 
Q 39.453125 6.390625 43.28125 13.890625 
Q 47.125 21.390625 47.125 36.375 
Q 47.125 51.421875 43.28125 58.90625 
Q 39.453125 66.40625 31.78125 66.40625 
z
M 31.78125 74.21875 
Q 44.046875 74.21875 50.515625 64.515625 
Q 56.984375 54.828125 56.984375 36.375 
Q 56.984375 17.96875 50.515625 8.265625 
Q 44.046875 -1.421875 31.78125 -1.421875 
Q 19.53125 -1.421875 13.0625 8.265625 
Q 6.59375 17.96875 6.59375 36.375 
Q 6.59375 54.828125 13.0625 64.515625 
Q 19.53125 74.21875 31.78125 74.21875 
z
" id="DejaVuSans-48"/>
        <path d="M 12.40625 8.296875 
L 28.515625 8.296875 
L 28.515625 63.921875 
L 10.984375 60.40625 
L 10.984375 69.390625 
L 28.421875 72.90625 
L 38.28125 72.90625 
L 38.28125 8.296875 
L 54.390625 8.296875 
L 54.390625 0 
L 12.40625 0 
z
" id="DejaVuSans-49"/>
       </defs>
       <use xlink:href="#DejaVuSans-50"/>
       <use x="63.623047" xlink:href="#DejaVuSans-48"/>
       <use x="127.246094" xlink:href="#DejaVuSans-50"/>
       <use x="190.869141" xlink:href="#DejaVuSans-49"/>
      </g>
     </g>
    </g>
    <g id="xtick_12">
     <g id="line2d_12">
      <g>
       <use style="stroke:#000000;stroke-width:0.8;" x="609.069767" xlink:href="#m127346a4f1" y="315"/>
      </g>
     </g>
     <g id="text_11">
      <!-- Feb -->
      <g transform="translate(600.218205 329.598437)scale(0.1 -0.1)">
       <defs>
        <path d="M 9.8125 72.90625 
L 51.703125 72.90625 
L 51.703125 64.59375 
L 19.671875 64.59375 
L 19.671875 43.109375 
L 48.578125 43.109375 
L 48.578125 34.8125 
L 19.671875 34.8125 
L 19.671875 0 
L 9.8125 0 
z
" id="DejaVuSans-70"/>
        <path d="M 48.6875 27.296875 
Q 48.6875 37.203125 44.609375 42.84375 
Q 40.53125 48.484375 33.40625 48.484375 
Q 26.265625 48.484375 22.1875 42.84375 
Q 18.109375 37.203125 18.109375 27.296875 
Q 18.109375 17.390625 22.1875 11.75 
Q 26.265625 6.109375 33.40625 6.109375 
Q 40.53125 6.109375 44.609375 11.75 
Q 48.6875 17.390625 48.6875 27.296875 
z
M 18.109375 46.390625 
Q 20.953125 51.265625 25.265625 53.625 
Q 29.59375 56 35.59375 56 
Q 45.5625 56 51.78125 48.09375 
Q 58.015625 40.1875 58.015625 27.296875 
Q 58.015625 14.40625 51.78125 6.484375 
Q 45.5625 -1.421875 35.59375 -1.421875 
Q 29.59375 -1.421875 25.265625 0.953125 
Q 20.953125 3.328125 18.109375 8.203125 
L 18.109375 0 
L 9.078125 0 
L 9.078125 75.984375 
L 18.109375 75.984375 
z
" id="DejaVuSans-98"/>
       </defs>
       <use xlink:href="#DejaVuSans-70"/>
       <use x="52.019531" xlink:href="#DejaVuSans-101"/>
       <use x="113.542969" xlink:href="#DejaVuSans-98"/>
      </g>
     </g>
    </g>
    <g id="xtick_13">
     <g id="line2d_13">
      <g>
       <use style="stroke:#000000;stroke-width:0.8;" x="648" xlink:href="#m127346a4f1" y="315"/>
      </g>
     </g>
    </g>
    <g id="xtick_14">
     <g id="line2d_14">
      <defs>
       <path d="M 0 0 
L 0 2 
" id="m45054223cc" style="stroke:#000000;stroke-width:0.6;"/>
      </defs>
      <g>
       <use style="stroke:#000000;stroke-width:0.6;" x="98.110465" xlink:href="#m45054223cc" y="315"/>
      </g>
     </g>
    </g>
    <g id="xtick_15">
     <g id="line2d_15">
      <g>
       <use style="stroke:#000000;stroke-width:0.6;" x="109.465116" xlink:href="#m45054223cc" y="315"/>
      </g>
     </g>
    </g>
    <g id="xtick_16">
     <g id="line2d_16">
      <g>
       <use style="stroke:#000000;stroke-width:0.6;" x="120.819767" xlink:href="#m45054223cc" y="315"/>
      </g>
     </g>
    </g>
    <g id="xtick_17">
     <g id="line2d_17">
      <g>
       <use style="stroke:#000000;stroke-width:0.6;" x="132.174419" xlink:href="#m45054223cc" y="315"/>
      </g>
     </g>
    </g>
    <g id="xtick_18">
     <g id="line2d_18">
      <g>
       <use style="stroke:#000000;stroke-width:0.6;" x="143.52907" xlink:href="#m45054223cc" y="315"/>
      </g>
     </g>
    </g>
    <g id="xtick_19">
     <g id="line2d_19">
      <g>
       <use style="stroke:#000000;stroke-width:0.6;" x="154.883721" xlink:href="#m45054223cc" y="315"/>
      </g>
     </g>
    </g>
    <g id="xtick_20">
     <g id="line2d_20">
      <g>
       <use style="stroke:#000000;stroke-width:0.6;" x="166.238372" xlink:href="#m45054223cc" y="315"/>
      </g>
     </g>
    </g>
    <g id="xtick_21">
     <g id="line2d_21">
      <g>
       <use style="stroke:#000000;stroke-width:0.6;" x="177.593023" xlink:href="#m45054223cc" y="315"/>
      </g>
     </g>
    </g>
    <g id="xtick_22">
     <g id="line2d_22">
      <g>
       <use style="stroke:#000000;stroke-width:0.6;" x="188.947674" xlink:href="#m45054223cc" y="315"/>
      </g>
     </g>
    </g>
    <g id="xtick_23">
     <g id="line2d_23">
      <g>
       <use style="stroke:#000000;stroke-width:0.6;" x="200.302326" xlink:href="#m45054223cc" y="315"/>
      </g>
     </g>
    </g>
    <g id="xtick_24">
     <g id="line2d_24">
      <g>
       <use style="stroke:#000000;stroke-width:0.6;" x="223.011628" xlink:href="#m45054223cc" y="315"/>
      </g>
     </g>
    </g>
    <g id="xtick_25">
     <g id="line2d_25">
      <g>
       <use style="stroke:#000000;stroke-width:0.6;" x="234.366279" xlink:href="#m45054223cc" y="315"/>
      </g>
     </g>
    </g>
    <g id="xtick_26">
     <g id="line2d_26">
      <g>
       <use style="stroke:#000000;stroke-width:0.6;" x="245.72093" xlink:href="#m45054223cc" y="315"/>
      </g>
     </g>
    </g>
    <g id="xtick_27">
     <g id="line2d_27">
      <g>
       <use style="stroke:#000000;stroke-width:0.6;" x="257.075581" xlink:href="#m45054223cc" y="315"/>
      </g>
     </g>
    </g>
    <g id="xtick_28">
     <g id="line2d_28">
      <g>
       <use style="stroke:#000000;stroke-width:0.6;" x="268.430233" xlink:href="#m45054223cc" y="315"/>
      </g>
     </g>
    </g>
    <g id="xtick_29">
     <g id="line2d_29">
      <g>
       <use style="stroke:#000000;stroke-width:0.6;" x="279.784884" xlink:href="#m45054223cc" y="315"/>
      </g>
     </g>
    </g>
    <g id="xtick_30">
     <g id="line2d_30">
      <g>
       <use style="stroke:#000000;stroke-width:0.6;" x="291.139535" xlink:href="#m45054223cc" y="315"/>
      </g>
     </g>
    </g>
    <g id="xtick_31">
     <g id="line2d_31">
      <g>
       <use style="stroke:#000000;stroke-width:0.6;" x="302.494186" xlink:href="#m45054223cc" y="315"/>
      </g>
     </g>
    </g>
    <g id="xtick_32">
     <g id="line2d_32">
      <g>
       <use style="stroke:#000000;stroke-width:0.6;" x="313.848837" xlink:href="#m45054223cc" y="315"/>
      </g>
     </g>
    </g>
    <g id="xtick_33">
     <g id="line2d_33">
      <g>
       <use style="stroke:#000000;stroke-width:0.6;" x="325.203488" xlink:href="#m45054223cc" y="315"/>
      </g>
     </g>
    </g>
    <g id="xtick_34">
     <g id="line2d_34">
      <g>
       <use style="stroke:#000000;stroke-width:0.6;" x="336.55814" xlink:href="#m45054223cc" y="315"/>
      </g>
     </g>
    </g>
    <g id="xtick_35">
     <g id="line2d_35">
      <g>
       <use style="stroke:#000000;stroke-width:0.6;" x="347.912791" xlink:href="#m45054223cc" y="315"/>
      </g>
     </g>
    </g>
    <g id="xtick_36">
     <g id="line2d_36">
      <g>
       <use style="stroke:#000000;stroke-width:0.6;" x="359.267442" xlink:href="#m45054223cc" y="315"/>
      </g>
     </g>
    </g>
    <g id="xtick_37">
     <g id="line2d_37">
      <g>
       <use style="stroke:#000000;stroke-width:0.6;" x="370.622093" xlink:href="#m45054223cc" y="315"/>
      </g>
     </g>
    </g>
    <g id="xtick_38">
     <g id="line2d_38">
      <g>
       <use style="stroke:#000000;stroke-width:0.6;" x="381.976744" xlink:href="#m45054223cc" y="315"/>
      </g>
     </g>
    </g>
    <g id="xtick_39">
     <g id="line2d_39">
      <g>
       <use style="stroke:#000000;stroke-width:0.6;" x="393.331395" xlink:href="#m45054223cc" y="315"/>
      </g>
     </g>
    </g>
    <g id="xtick_40">
     <g id="line2d_40">
      <g>
       <use style="stroke:#000000;stroke-width:0.6;" x="404.686047" xlink:href="#m45054223cc" y="315"/>
      </g>
     </g>
    </g>
    <g id="xtick_41">
     <g id="line2d_41">
      <g>
       <use style="stroke:#000000;stroke-width:0.6;" x="416.040698" xlink:href="#m45054223cc" y="315"/>
      </g>
     </g>
    </g>
    <g id="xtick_42">
     <g id="line2d_42">
      <g>
       <use style="stroke:#000000;stroke-width:0.6;" x="427.395349" xlink:href="#m45054223cc" y="315"/>
      </g>
     </g>
    </g>
    <g id="xtick_43">
     <g id="line2d_43">
      <g>
       <use style="stroke:#000000;stroke-width:0.6;" x="438.75" xlink:href="#m45054223cc" y="315"/>
      </g>
     </g>
    </g>
    <g id="xtick_44">
     <g id="line2d_44">
      <g>
       <use style="stroke:#000000;stroke-width:0.6;" x="450.104651" xlink:href="#m45054223cc" y="315"/>
      </g>
     </g>
    </g>
    <g id="xtick_45">
     <g id="line2d_45">
      <g>
       <use style="stroke:#000000;stroke-width:0.6;" x="461.459302" xlink:href="#m45054223cc" y="315"/>
      </g>
     </g>
    </g>
    <g id="xtick_46">
     <g id="line2d_46">
      <g>
       <use style="stroke:#000000;stroke-width:0.6;" x="472.813953" xlink:href="#m45054223cc" y="315"/>
      </g>
     </g>
    </g>
    <g id="xtick_47">
     <g id="line2d_47">
      <g>
       <use style="stroke:#000000;stroke-width:0.6;" x="484.168605" xlink:href="#m45054223cc" y="315"/>
      </g>
     </g>
    </g>
    <g id="xtick_48">
     <g id="line2d_48">
      <g>
       <use style="stroke:#000000;stroke-width:0.6;" x="495.523256" xlink:href="#m45054223cc" y="315"/>
      </g>
     </g>
    </g>
    <g id="xtick_49">
     <g id="line2d_49">
      <g>
       <use style="stroke:#000000;stroke-width:0.6;" x="506.877907" xlink:href="#m45054223cc" y="315"/>
      </g>
     </g>
    </g>
    <g id="xtick_50">
     <g id="line2d_50">
      <g>
       <use style="stroke:#000000;stroke-width:0.6;" x="518.232558" xlink:href="#m45054223cc" y="315"/>
      </g>
     </g>
    </g>
    <g id="xtick_51">
     <g id="line2d_51">
      <g>
       <use style="stroke:#000000;stroke-width:0.6;" x="529.587209" xlink:href="#m45054223cc" y="315"/>
      </g>
     </g>
    </g>
    <g id="xtick_52">
     <g id="line2d_52">
      <g>
       <use style="stroke:#000000;stroke-width:0.6;" x="540.94186" xlink:href="#m45054223cc" y="315"/>
      </g>
     </g>
    </g>
    <g id="xtick_53">
     <g id="line2d_53">
      <g>
       <use style="stroke:#000000;stroke-width:0.6;" x="552.296512" xlink:href="#m45054223cc" y="315"/>
      </g>
     </g>
    </g>
    <g id="xtick_54">
     <g id="line2d_54">
      <g>
       <use style="stroke:#000000;stroke-width:0.6;" x="563.651163" xlink:href="#m45054223cc" y="315"/>
      </g>
     </g>
    </g>
    <g id="xtick_55">
     <g id="line2d_55">
      <g>
       <use style="stroke:#000000;stroke-width:0.6;" x="575.005814" xlink:href="#m45054223cc" y="315"/>
      </g>
     </g>
    </g>
    <g id="xtick_56">
     <g id="line2d_56">
      <g>
       <use style="stroke:#000000;stroke-width:0.6;" x="586.360465" xlink:href="#m45054223cc" y="315"/>
      </g>
     </g>
    </g>
    <g id="xtick_57">
     <g id="line2d_57">
      <g>
       <use style="stroke:#000000;stroke-width:0.6;" x="597.715116" xlink:href="#m45054223cc" y="315"/>
      </g>
     </g>
    </g>
    <g id="xtick_58">
     <g id="line2d_58">
      <g>
       <use style="stroke:#000000;stroke-width:0.6;" x="620.424419" xlink:href="#m45054223cc" y="315"/>
      </g>
     </g>
    </g>
    <g id="xtick_59">
     <g id="line2d_59">
      <g>
       <use style="stroke:#000000;stroke-width:0.6;" x="631.77907" xlink:href="#m45054223cc" y="315"/>
      </g>
     </g>
    </g>
    <g id="xtick_60">
     <g id="line2d_60">
      <g>
       <use style="stroke:#000000;stroke-width:0.6;" x="643.133721" xlink:href="#m45054223cc" y="315"/>
      </g>
     </g>
    </g>
    <g id="text_12">
     <!-- date -->
     <g transform="translate(357.725 354.474375)scale(0.1 -0.1)">
      <defs>
       <path d="M 45.40625 46.390625 
L 45.40625 75.984375 
L 54.390625 75.984375 
L 54.390625 0 
L 45.40625 0 
L 45.40625 8.203125 
Q 42.578125 3.328125 38.25 0.953125 
Q 33.9375 -1.421875 27.875 -1.421875 
Q 17.96875 -1.421875 11.734375 6.484375 
Q 5.515625 14.40625 5.515625 27.296875 
Q 5.515625 40.1875 11.734375 48.09375 
Q 17.96875 56 27.875 56 
Q 33.9375 56 38.25 53.625 
Q 42.578125 51.265625 45.40625 46.390625 
z
M 14.796875 27.296875 
Q 14.796875 17.390625 18.875 11.75 
Q 22.953125 6.109375 30.078125 6.109375 
Q 37.203125 6.109375 41.296875 11.75 
Q 45.40625 17.390625 45.40625 27.296875 
Q 45.40625 37.203125 41.296875 42.84375 
Q 37.203125 48.484375 30.078125 48.484375 
Q 22.953125 48.484375 18.875 42.84375 
Q 14.796875 37.203125 14.796875 27.296875 
z
" id="DejaVuSans-100"/>
      </defs>
      <use xlink:href="#DejaVuSans-100"/>
      <use x="63.476562" xlink:href="#DejaVuSans-97"/>
      <use x="124.755859" xlink:href="#DejaVuSans-116"/>
      <use x="163.964844" xlink:href="#DejaVuSans-101"/>
     </g>
    </g>
   </g>
   <g id="matplotlib.axis_2">
    <g id="ytick_1">
     <g id="line2d_61">
      <path clip-path="url(#p6b76a737fa)" d="M 90 284.774894 
L 648 284.774894 
" style="fill:none;stroke:#b0b0b0;stroke-dasharray:0.8,1.32;stroke-dashoffset:0;stroke-width:0.8;"/>
     </g>
     <g id="line2d_62">
      <defs>
       <path d="M 0 0 
L -3.5 0 
" id="mb7fb8d8db5" style="stroke:#000000;stroke-width:0.8;"/>
      </defs>
      <g>
       <use style="stroke:#000000;stroke-width:0.8;" x="90" xlink:href="#mb7fb8d8db5" y="284.774894"/>
      </g>
     </g>
     <g id="text_13">
      <!-- 0.5 -->
      <g transform="translate(67.096875 288.574113)scale(0.1 -0.1)">
       <defs>
        <path d="M 10.6875 12.40625 
L 21 12.40625 
L 21 0 
L 10.6875 0 
z
" id="DejaVuSans-46"/>
        <path d="M 10.796875 72.90625 
L 49.515625 72.90625 
L 49.515625 64.59375 
L 19.828125 64.59375 
L 19.828125 46.734375 
Q 21.96875 47.46875 24.109375 47.828125 
Q 26.265625 48.1875 28.421875 48.1875 
Q 40.625 48.1875 47.75 41.5 
Q 54.890625 34.8125 54.890625 23.390625 
Q 54.890625 11.625 47.5625 5.09375 
Q 40.234375 -1.421875 26.90625 -1.421875 
Q 22.3125 -1.421875 17.546875 -0.640625 
Q 12.796875 0.140625 7.71875 1.703125 
L 7.71875 11.625 
Q 12.109375 9.234375 16.796875 8.0625 
Q 21.484375 6.890625 26.703125 6.890625 
Q 35.15625 6.890625 40.078125 11.328125 
Q 45.015625 15.765625 45.015625 23.390625 
Q 45.015625 31 40.078125 35.4375 
Q 35.15625 39.890625 26.703125 39.890625 
Q 22.75 39.890625 18.8125 39.015625 
Q 14.890625 38.140625 10.796875 36.28125 
z
" id="DejaVuSans-53"/>
       </defs>
       <use xlink:href="#DejaVuSans-48"/>
       <use x="63.623047" xlink:href="#DejaVuSans-46"/>
       <use x="95.410156" xlink:href="#DejaVuSans-53"/>
      </g>
     </g>
    </g>
    <g id="ytick_2">
     <g id="line2d_63">
      <path clip-path="url(#p6b76a737fa)" d="M 90 236.882517 
L 648 236.882517 
" style="fill:none;stroke:#b0b0b0;stroke-dasharray:0.8,1.32;stroke-dashoffset:0;stroke-width:0.8;"/>
     </g>
     <g id="line2d_64">
      <g>
       <use style="stroke:#000000;stroke-width:0.8;" x="90" xlink:href="#mb7fb8d8db5" y="236.882517"/>
      </g>
     </g>
     <g id="text_14">
      <!-- 1.0 -->
      <g transform="translate(67.096875 240.681736)scale(0.1 -0.1)">
       <use xlink:href="#DejaVuSans-49"/>
       <use x="63.623047" xlink:href="#DejaVuSans-46"/>
       <use x="95.410156" xlink:href="#DejaVuSans-48"/>
      </g>
     </g>
    </g>
    <g id="ytick_3">
     <g id="line2d_65">
      <path clip-path="url(#p6b76a737fa)" d="M 90 188.99014 
L 648 188.99014 
" style="fill:none;stroke:#b0b0b0;stroke-dasharray:0.8,1.32;stroke-dashoffset:0;stroke-width:0.8;"/>
     </g>
     <g id="line2d_66">
      <g>
       <use style="stroke:#000000;stroke-width:0.8;" x="90" xlink:href="#mb7fb8d8db5" y="188.99014"/>
      </g>
     </g>
     <g id="text_15">
      <!-- 1.5 -->
      <g transform="translate(67.096875 192.789358)scale(0.1 -0.1)">
       <use xlink:href="#DejaVuSans-49"/>
       <use x="63.623047" xlink:href="#DejaVuSans-46"/>
       <use x="95.410156" xlink:href="#DejaVuSans-53"/>
      </g>
     </g>
    </g>
    <g id="ytick_4">
     <g id="line2d_67">
      <path clip-path="url(#p6b76a737fa)" d="M 90 141.097762 
L 648 141.097762 
" style="fill:none;stroke:#b0b0b0;stroke-dasharray:0.8,1.32;stroke-dashoffset:0;stroke-width:0.8;"/>
     </g>
     <g id="line2d_68">
      <g>
       <use style="stroke:#000000;stroke-width:0.8;" x="90" xlink:href="#mb7fb8d8db5" y="141.097762"/>
      </g>
     </g>
     <g id="text_16">
      <!-- 2.0 -->
      <g transform="translate(67.096875 144.896981)scale(0.1 -0.1)">
       <use xlink:href="#DejaVuSans-50"/>
       <use x="63.623047" xlink:href="#DejaVuSans-46"/>
       <use x="95.410156" xlink:href="#DejaVuSans-48"/>
      </g>
     </g>
    </g>
    <g id="ytick_5">
     <g id="line2d_69">
      <path clip-path="url(#p6b76a737fa)" d="M 90 93.205385 
L 648 93.205385 
" style="fill:none;stroke:#b0b0b0;stroke-dasharray:0.8,1.32;stroke-dashoffset:0;stroke-width:0.8;"/>
     </g>
     <g id="line2d_70">
      <g>
       <use style="stroke:#000000;stroke-width:0.8;" x="90" xlink:href="#mb7fb8d8db5" y="93.205385"/>
      </g>
     </g>
     <g id="text_17">
      <!-- 2.5 -->
      <g transform="translate(67.096875 97.004603)scale(0.1 -0.1)">
       <use xlink:href="#DejaVuSans-50"/>
       <use x="63.623047" xlink:href="#DejaVuSans-46"/>
       <use x="95.410156" xlink:href="#DejaVuSans-53"/>
      </g>
     </g>
    </g>
    <g id="ytick_6">
     <g id="line2d_71">
      <path clip-path="url(#p6b76a737fa)" d="M 90 45.313007 
L 648 45.313007 
" style="fill:none;stroke:#b0b0b0;stroke-dasharray:0.8,1.32;stroke-dashoffset:0;stroke-width:0.8;"/>
     </g>
     <g id="line2d_72">
      <g>
       <use style="stroke:#000000;stroke-width:0.8;" x="90" xlink:href="#mb7fb8d8db5" y="45.313007"/>
      </g>
     </g>
     <g id="text_18">
      <!-- 3.0 -->
      <g transform="translate(67.096875 49.112226)scale(0.1 -0.1)">
       <defs>
        <path d="M 40.578125 39.3125 
Q 47.65625 37.796875 51.625 33 
Q 55.609375 28.21875 55.609375 21.1875 
Q 55.609375 10.40625 48.1875 4.484375 
Q 40.765625 -1.421875 27.09375 -1.421875 
Q 22.515625 -1.421875 17.65625 -0.515625 
Q 12.796875 0.390625 7.625 2.203125 
L 7.625 11.71875 
Q 11.71875 9.328125 16.59375 8.109375 
Q 21.484375 6.890625 26.8125 6.890625 
Q 36.078125 6.890625 40.9375 10.546875 
Q 45.796875 14.203125 45.796875 21.1875 
Q 45.796875 27.640625 41.28125 31.265625 
Q 36.765625 34.90625 28.71875 34.90625 
L 20.21875 34.90625 
L 20.21875 43.015625 
L 29.109375 43.015625 
Q 36.375 43.015625 40.234375 45.921875 
Q 44.09375 48.828125 44.09375 54.296875 
Q 44.09375 59.90625 40.109375 62.90625 
Q 36.140625 65.921875 28.71875 65.921875 
Q 24.65625 65.921875 20.015625 65.03125 
Q 15.375 64.15625 9.8125 62.3125 
L 9.8125 71.09375 
Q 15.4375 72.65625 20.34375 73.4375 
Q 25.25 74.21875 29.59375 74.21875 
Q 40.828125 74.21875 47.359375 69.109375 
Q 53.90625 64.015625 53.90625 55.328125 
Q 53.90625 49.265625 50.4375 45.09375 
Q 46.96875 40.921875 40.578125 39.3125 
z
" id="DejaVuSans-51"/>
       </defs>
       <use xlink:href="#DejaVuSans-51"/>
       <use x="63.623047" xlink:href="#DejaVuSans-46"/>
       <use x="95.410156" xlink:href="#DejaVuSans-48"/>
      </g>
     </g>
    </g>
   </g>
   <g id="line2d_73">
    <path clip-path="url(#p6b76a737fa)" d="M 90 288.576395 
L 91.622093 288.016207 
L 93.244186 287.810829 
L 94.866279 287.417044 
L 96.488372 286.80943 
L 98.110465 286.687477 
L 99.732558 286.334132 
L 101.354651 286.193351 
L 102.976744 285.590679 
L 104.598837 285.457203 
L 106.22093 284.691842 
L 107.843023 283.777613 
L 109.465116 283.595706 
L 111.087209 282.936011 
L 112.709302 281.887885 
L 114.331395 281.348761 
L 117.575581 280.672178 
L 119.197674 279.171372 
L 120.819767 278.454594 
L 122.44186 277.388158 
L 124.063953 276.860746 
L 127.30814 274.3682 
L 128.930233 273.447932 
L 130.552326 272.211136 
L 132.174419 270.800053 
L 133.796512 269.616102 
L 135.418605 267.988666 
L 138.662791 265.470306 
L 141.906977 262.427941 
L 145.151163 259.54075 
L 146.773256 257.804923 
L 148.395349 256.711785 
L 150.017442 254.621674 
L 151.639535 253.037883 
L 156.505814 247.17199 
L 158.127907 245.685231 
L 159.75 243.832835 
L 161.372093 242.589029 
L 162.994186 241.045525 
L 164.616279 238.810467 
L 166.238372 236.343874 
L 167.860465 234.593508 
L 169.482558 232.672011 
L 171.104651 229.875582 
L 172.726744 228.137482 
L 174.348837 226.020649 
L 177.593023 220.422911 
L 179.215116 218.373808 
L 184.081395 210.639082 
L 185.703488 208.525643 
L 187.325581 205.461785 
L 188.947674 201.53875 
L 190.569767 196.969922 
L 192.19186 194.192173 
L 193.813953 191.762111 
L 195.436047 187.839177 
L 197.05814 184.597634 
L 198.680233 180.285775 
L 200.302326 175.387686 
L 201.924419 169.94064 
L 203.546512 165.521553 
L 210.034884 142.018527 
L 211.656977 138.668433 
L 213.27907 131.809148 
L 214.901163 128.492207 
L 216.523256 121.843016 
L 218.145349 116.497176 
L 219.767442 110.654649 
L 221.389535 105.97409 
L 223.011628 102.090174 
L 224.633721 102.524096 
L 226.255814 101.160581 
L 227.877907 102.433172 
L 229.5 104.487499 
L 231.122093 109.745804 
L 232.744186 115.478887 
L 234.366279 123.12908 
L 235.988372 132.799448 
L 237.610465 141.763627 
L 239.232558 155.00502 
L 240.854651 164.356814 
L 245.72093 196.732649 
L 247.343023 206.425176 
L 248.965116 215.360096 
L 252.209302 229.355913 
L 255.453488 239.525843 
L 258.697674 246.199713 
L 260.319767 249.49187 
L 261.94186 251.855974 
L 263.563953 253.334371 
L 265.186047 255.276249 
L 268.430233 257.580603 
L 270.052326 259.279793 
L 271.674419 260.015253 
L 273.296512 261.500867 
L 274.918605 262.529978 
L 276.540698 263.247248 
L 279.784884 264.32309 
L 281.406977 265.41746 
L 283.02907 266.196259 
L 284.651163 266.510179 
L 286.273256 266.62641 
L 287.895349 266.931584 
L 289.517442 267.037088 
L 291.139535 266.73018 
L 292.761628 266.544752 
L 294.383721 266.208016 
L 296.005814 265.719081 
L 297.627907 264.81619 
L 299.25 264.388451 
L 304.116279 259.671994 
L 307.360465 255.930852 
L 308.982558 253.553641 
L 310.604651 250.75927 
L 312.226744 247.525786 
L 315.47093 240.232448 
L 317.093023 235.914762 
L 318.715116 232.078689 
L 321.959302 222.899016 
L 323.581395 217.673366 
L 331.69186 196.287603 
L 333.313953 192.836645 
L 334.936047 189.739302 
L 336.55814 187.326114 
L 338.180233 183.784256 
L 339.802326 180.866059 
L 343.046512 178.560581 
L 344.668605 178.245957 
L 346.290698 178.083421 
L 347.912791 177.758551 
L 351.156977 180.237752 
L 352.77907 181.918341 
L 354.401163 183.820923 
L 357.645349 191.201178 
L 359.267442 194.560524 
L 360.889535 198.905365 
L 362.511628 202.272975 
L 364.133721 206.932887 
L 365.755814 210.237516 
L 367.377907 213.981123 
L 369 216.533166 
L 372.244186 223.025171 
L 375.488372 229.387983 
L 377.110465 232.801616 
L 378.732558 235.514124 
L 380.354651 239.582618 
L 381.976744 243.153917 
L 383.598837 247.073202 
L 390.087209 260.228736 
L 391.709302 262.818945 
L 393.331395 265.834934 
L 394.953488 268.50669 
L 398.197674 272.956732 
L 399.819767 275.015538 
L 401.44186 276.730591 
L 404.686047 279.295735 
L 406.30814 280.045129 
L 407.930233 280.510945 
L 409.552326 281.263957 
L 411.174419 281.48176 
L 412.796512 281.322127 
L 414.418605 281.282283 
L 416.040698 280.665355 
L 419.284884 279.0935 
L 420.906977 277.745268 
L 422.52907 276.756486 
L 425.773256 273.829392 
L 427.395349 272.418812 
L 430.639535 268.895645 
L 432.261628 267.408166 
L 433.883721 265.414641 
L 435.505814 263.809036 
L 437.127907 261.39928 
L 440.372093 256.890145 
L 443.616279 251.278039 
L 445.238372 249.263384 
L 446.860465 246.237404 
L 450.104651 240.854151 
L 451.726744 237.532129 
L 453.348837 233.92892 
L 454.97093 231.406198 
L 456.593023 228.329789 
L 458.215116 225.729888 
L 459.837209 221.892772 
L 463.081395 215.425642 
L 467.947674 208.793397 
L 469.569767 206.970973 
L 471.19186 204.297477 
L 472.813953 203.51074 
L 474.436047 202.445323 
L 476.05814 201.587248 
L 477.680233 201.042942 
L 479.302326 200.360925 
L 480.924419 200.225325 
L 482.546512 199.493641 
L 484.168605 200.091066 
L 485.790698 199.933693 
L 487.412791 199.161273 
L 489.034884 198.826414 
L 490.656977 199.203512 
L 492.27907 199.429289 
L 493.901163 201.325958 
L 495.523256 202.023507 
L 497.145349 203.010463 
L 498.767442 203.799675 
L 500.389535 204.749995 
L 502.011628 206.402173 
L 503.633721 208.567879 
L 505.255814 210.08469 
L 506.877907 211.328137 
L 510.122093 211.989473 
L 511.744186 211.862356 
L 513.366279 212.246616 
L 516.610465 211.505199 
L 518.232558 210.796831 
L 519.854651 210.450284 
L 521.476744 209.830914 
L 526.343023 206.659535 
L 527.965116 206.860185 
L 532.831395 204.425869 
L 536.075581 203.69276 
L 539.319767 204.598633 
L 540.94186 205.504077 
L 542.563953 207.052575 
L 544.186047 207.932605 
L 545.80814 209.266699 
L 547.430233 210.998047 
L 549.052326 214.418613 
L 550.674419 216.128355 
L 552.296512 218.344285 
L 553.918605 220.823037 
L 555.540698 223.514698 
L 557.162791 225.818152 
L 558.784884 227.723445 
L 560.406977 229.888212 
L 562.02907 231.671296 
L 565.273256 235.759765 
L 566.895349 237.041455 
L 568.517442 238.779507 
L 570.139535 239.813166 
L 571.761628 240.680385 
L 573.383721 241.418065 
L 575.005814 242.609657 
L 578.25 244.025404 
L 579.872093 244.335474 
L 581.494186 244.404167 
L 584.738372 244.913246 
L 586.360465 245.551189 
L 587.982558 245.794157 
L 589.604651 245.351254 
L 591.226744 245.829451 
L 592.848837 244.89768 
L 594.47093 244.759094 
L 596.093023 244.133026 
L 597.715116 243.997336 
L 599.337209 242.891295 
L 600.959302 242.223489 
L 602.581395 240.548713 
L 604.203488 239.475733 
L 605.825581 238.780609 
L 607.447674 236.606972 
L 609.069767 236.23272 
L 610.69186 234.988856 
L 612.313953 233.026306 
L 613.936047 231.498296 
L 615.55814 229.521825 
L 617.180233 228.498928 
L 618.802326 227.106831 
L 620.424419 225.872297 
L 622.046512 225.562944 
L 623.668605 224.071645 
L 626.912791 223.767997 
L 628.534884 223.416993 
L 630.156977 224.180938 
L 633.401163 224.830384 
L 635.023256 224.619838 
L 636.645349 226.234005 
L 638.267442 225.751986 
L 639.889535 226.583367 
L 643.133721 225.95624 
L 644.755814 226.527513 
L 646.377907 226.687529 
L 648 226.614289 
L 651.244186 225.98409 
L 652.866279 225.065858 
L 654.488372 225.536375 
L 656.110465 225.125918 
L 657.732558 225.243185 
L 659.354651 224.724564 
L 660.976744 225.126126 
L 660.976744 225.126126 
" style="fill:none;stroke:#fc997a;stroke-linecap:square;stroke-width:1.5;"/>
   </g>
   <g id="line2d_74">
    <path clip-path="url(#p6b76a737fa)" d="M 90 236.882517 
L 648 236.882517 
" style="fill:none;stroke:#000000;stroke-dasharray:3.7,1.6;stroke-dashoffset:0;"/>
   </g>
   <g id="patch_3">
    <path d="M 90 315 
L 90 43.2 
" style="fill:none;stroke:#000000;stroke-linecap:square;stroke-linejoin:miter;stroke-width:0.8;"/>
   </g>
   <g id="patch_4">
    <path d="M 648 315 
L 648 43.2 
" style="fill:none;stroke:#000000;stroke-linecap:square;stroke-linejoin:miter;stroke-width:0.8;"/>
   </g>
   <g id="patch_5">
    <path d="M 90 315 
L 648 315 
" style="fill:none;stroke:#000000;stroke-linecap:square;stroke-linejoin:miter;stroke-width:0.8;"/>
   </g>
   <g id="patch_6">
    <path d="M 90 43.2 
L 648 43.2 
" style="fill:none;stroke:#000000;stroke-linecap:square;stroke-linejoin:miter;stroke-width:0.8;"/>
   </g>
   <g id="text_19">
    <!-- 626    $R_t$ -->
    <g transform="translate(307.74 37.2)scale(0.12 -0.12)">
     <defs>
      <path d="M 33.015625 40.375 
Q 26.375 40.375 22.484375 35.828125 
Q 18.609375 31.296875 18.609375 23.390625 
Q 18.609375 15.53125 22.484375 10.953125 
Q 26.375 6.390625 33.015625 6.390625 
Q 39.65625 6.390625 43.53125 10.953125 
Q 47.40625 15.53125 47.40625 23.390625 
Q 47.40625 31.296875 43.53125 35.828125 
Q 39.65625 40.375 33.015625 40.375 
z
M 52.59375 71.296875 
L 52.59375 62.3125 
Q 48.875 64.0625 45.09375 64.984375 
Q 41.3125 65.921875 37.59375 65.921875 
Q 27.828125 65.921875 22.671875 59.328125 
Q 17.53125 52.734375 16.796875 39.40625 
Q 19.671875 43.65625 24.015625 45.921875 
Q 28.375 48.1875 33.59375 48.1875 
Q 44.578125 48.1875 50.953125 41.515625 
Q 57.328125 34.859375 57.328125 23.390625 
Q 57.328125 12.15625 50.6875 5.359375 
Q 44.046875 -1.421875 33.015625 -1.421875 
Q 20.359375 -1.421875 13.671875 8.265625 
Q 6.984375 17.96875 6.984375 36.375 
Q 6.984375 53.65625 15.1875 63.9375 
Q 23.390625 74.21875 37.203125 74.21875 
Q 40.921875 74.21875 44.703125 73.484375 
Q 48.484375 72.75 52.59375 71.296875 
z
" id="DejaVuSans-54"/>
      <path id="DejaVuSans-32"/>
      <path d="M 15.71875 54.6875 
L 15.71875 24.125 
L 6.640625 20.40625 
L 6.640625 54.6875 
z
" id="DejaVuSans-1497"/>
      <path d="M 21.78125 6.984375 
L 21.78125 36.28125 
Q 21.78125 42.28125 19.328125 44.984375 
Q 16.890625 47.703125 11.71875 47.703125 
L 5.5625 47.703125 
L 5.5625 54.6875 
L 11.71875 54.6875 
Q 21.734375 54.6875 26.296875 50.359375 
Q 30.859375 46.046875 30.859375 35.25 
L 30.859375 0 
L 4.296875 0 
L 4.296875 6.984375 
z
" id="DejaVuSans-1504"/>
      <path d="M 18.171875 54.6875 
L 18.171875 0 
L 9.078125 0 
L 9.078125 54.6875 
z
" id="DejaVuSans-1493"/>
      <path d="M 9.078125 54.6875 
L 29.890625 54.6875 
Q 42.484375 54.6875 49.703125 47.5625 
Q 56.9375 40.4375 56.9375 27.34375 
Q 56.9375 14.265625 49.6875 7.125 
Q 42.4375 0 29.890625 0 
L 9.078125 0 
L 9.078125 6.9375 
L 26.171875 6.9375 
Q 37.703125 6.9375 42.796875 11.625 
Q 47.90625 16.3125 47.90625 27.9375 
Q 47.90625 38.625 42.625 43.15625 
Q 37.359375 47.703125 26.21875 47.703125 
L 18.171875 47.703125 
L 18.109375 36.859375 
Q 18.0625 33.296875 19.8125 31.609375 
Q 21.578125 29.9375 25.203125 29.9375 
Q 27.203125 29.9375 30.46875 30.5625 
L 30.46875 23.140625 
Q 26.46875 22.359375 23.1875 22.359375 
Q 16.65625 22.359375 12.859375 25.96875 
Q 9.078125 29.59375 9.078125 38.1875 
z
" id="DejaVuSans-1508"/>
      <path d="M 36.921875 6.9375 
L 4.296875 54.6875 
L 14.9375 54.6875 
L 33.84375 27 
Q 34.03125 27.15625 34.375 27.390625 
Q 35.546875 28.21875 36.171875 28.75 
Q 36.8125 29.296875 37.890625 30.5625 
Q 38.96875 31.84375 39.546875 33.171875 
Q 40.140625 34.515625 40.59375 36.71875 
Q 41.0625 38.921875 41.0625 41.609375 
L 41.0625 54.6875 
L 50.046875 54.6875 
L 50.046875 45.65625 
Q 50.046875 42.046875 49.609375 38.984375 
Q 49.171875 35.9375 48.53125 33.78125 
Q 47.90625 31.640625 46.78125 29.75 
Q 45.65625 27.875 44.71875 26.75 
Q 43.796875 25.640625 42.3125 24.484375 
Q 40.828125 23.34375 39.9375 22.828125 
Q 39.0625 22.3125 37.59375 21.53125 
L 50.25 3.46875 
L 50.25 0 
L 4.296875 0 
L 4.296875 6.9375 
z
" id="DejaVuSans-1510"/>
      <path d="M 19.140625 33.40625 
L 19.140625 0 
L 10.109375 0 
L 10.109375 29.6875 
z
M 56.25 27.828125 
L 56.25 0 
L 47.21875 0 
L 47.21875 29.6875 
Q 47.21875 40.234375 44.0625 43.96875 
Q 40.921875 47.703125 31.84375 47.703125 
L 9.078125 47.703125 
L 9.078125 54.6875 
L 31.734375 54.6875 
Q 45.265625 54.6875 50.75 48.578125 
Q 56.25 42.484375 56.25 27.828125 
z
" id="DejaVuSans-1492"/>
      <path d="M 36.328125 6.984375 
L 36.328125 29.59375 
Q 36.328125 33.25 36.0625 35.671875 
Q 35.796875 38.09375 34.859375 40.578125 
Q 33.9375 43.0625 32.25 44.484375 
Q 30.5625 45.90625 27.609375 46.796875 
Q 24.65625 47.703125 20.40625 47.703125 
L 4.296875 47.703125 
L 4.296875 54.6875 
L 20.40625 54.6875 
Q 26.421875 54.6875 30.734375 53.5625 
Q 35.0625 52.4375 37.890625 50.359375 
Q 40.71875 48.296875 42.40625 44.890625 
Q 44.09375 41.5 44.75 37.453125 
Q 45.40625 33.40625 45.40625 27.828125 
L 45.40625 6.984375 
L 53.515625 6.984375 
L 53.515625 0 
L 4.296875 0 
L 4.296875 6.984375 
z
" id="DejaVuSans-1489"/>
      <path d="M 31.203125 29.59375 
Q 31.203125 22.5625 32.890625 14.75 
Q 34.578125 6.9375 38.328125 0 
L 28.609375 0 
Q 25.78125 6.59375 24.5625 12.0625 
Q 22.953125 8.109375 21.234375 5.59375 
Q 19.53125 3.078125 17.578125 1.75 
Q 15.625 0.4375 13.671875 -0.015625 
Q 11.71875 -0.484375 9.03125 -0.484375 
Q 6.78125 -0.484375 4.296875 0.203125 
L 4.296875 8.453125 
Q 5.953125 7.953125 7.71875 7.953125 
Q 9.859375 7.953125 11.546875 8.265625 
Q 13.234375 8.59375 15.328125 9.859375 
Q 17.4375 11.140625 18.796875 13.359375 
Q 20.171875 15.578125 21.140625 19.71875 
Q 22.125 23.875 22.125 29.59375 
Q 22.125 36.96875 20.875 40.890625 
Q 19.625 44.828125 17.15625 46.265625 
Q 14.703125 47.703125 10.203125 47.703125 
L 5.8125 47.703125 
L 5.8125 54.6875 
L 10.5 54.6875 
Q 21.296875 54.6875 26.25 48.734375 
Q 31.203125 42.78125 31.203125 29.59375 
z
" id="DejaVuSans-1490"/>
      <path d="M 47.359375 27.828125 
L 47.359375 0 
L 38.28125 0 
L 38.28125 27.828125 
Q 38.28125 31.390625 37.765625 34.265625 
Q 37.25 37.15625 36 39.71875 
Q 34.765625 42.28125 32.8125 43.984375 
Q 30.859375 45.703125 27.78125 46.703125 
Q 24.703125 47.703125 20.703125 47.703125 
L 4.296875 47.703125 
L 4.296875 54.6875 
L 20.65625 54.6875 
Q 26.8125 54.6875 31.46875 53.390625 
Q 36.140625 52.09375 39.109375 49.828125 
Q 42.09375 47.5625 43.96875 44.109375 
Q 45.84375 40.671875 46.59375 36.734375 
Q 47.359375 32.8125 47.359375 27.828125 
z
" id="DejaVuSans-1512"/>
      <path d="M 25.203125 64.796875 
L 20.21875 38.921875 
L 32.90625 38.921875 
Q 40.375 38.921875 44.984375 43.046875 
Q 49.609375 47.171875 49.609375 53.8125 
Q 49.609375 59.125 46.5 61.953125 
Q 43.40625 64.796875 37.59375 64.796875 
z
M 43.3125 35.015625 
Q 46.4375 34.28125 48.515625 31.390625 
Q 50.59375 28.515625 53.328125 19.921875 
L 59.515625 0 
L 49.125 0 
L 43.40625 18.703125 
Q 41.21875 25.921875 38.328125 28.359375 
Q 35.453125 30.8125 29.5 30.8125 
L 18.609375 30.8125 
L 12.59375 0 
L 2.6875 0 
L 16.890625 72.90625 
L 39.109375 72.90625 
Q 49.21875 72.90625 54.609375 68.328125 
Q 60.015625 63.765625 60.015625 55.171875 
Q 60.015625 47.5625 55.421875 41.984375 
Q 50.828125 36.421875 43.3125 35.015625 
z
" id="DejaVuSans-Oblique-82"/>
      <path d="M 42.28125 54.6875 
L 40.921875 47.703125 
L 23 47.703125 
L 17.1875 18.015625 
Q 16.890625 16.359375 16.75 15.234375 
Q 16.609375 14.109375 16.609375 13.484375 
Q 16.609375 10.359375 18.484375 8.9375 
Q 20.359375 7.515625 24.515625 7.515625 
L 33.59375 7.515625 
L 32.078125 0 
L 23.484375 0 
Q 15.484375 0 11.546875 3.125 
Q 7.625 6.25 7.625 12.59375 
Q 7.625 13.71875 7.765625 15.0625 
Q 7.90625 16.40625 8.203125 18.015625 
L 14.015625 47.703125 
L 6.390625 47.703125 
L 7.8125 54.6875 
L 15.28125 54.6875 
L 18.3125 70.21875 
L 27.296875 70.21875 
L 24.3125 54.6875 
z
" id="DejaVuSans-Oblique-116"/>
     </defs>
     <use transform="translate(0 0.78125)" xlink:href="#DejaVuSans-54"/>
     <use transform="translate(63.623047 0.78125)" xlink:href="#DejaVuSans-50"/>
     <use transform="translate(127.246094 0.78125)" xlink:href="#DejaVuSans-54"/>
     <use transform="translate(190.869141 0.78125)" xlink:href="#DejaVuSans-32"/>
     <use transform="translate(222.65625 0.78125)" xlink:href="#DejaVuSans-1497"/>
     <use transform="translate(245.019531 0.78125)" xlink:href="#DejaVuSans-1504"/>
     <use transform="translate(285.058594 0.78125)" xlink:href="#DejaVuSans-1493"/>
     <use transform="translate(312.304688 0.78125)" xlink:href="#DejaVuSans-1508"/>
     <use transform="translate(374.755859 0.78125)" xlink:href="#DejaVuSans-1510"/>
     <use transform="translate(434.082031 0.78125)" xlink:href="#DejaVuSans-1492"/>
     <use transform="translate(499.414062 0.78125)" xlink:href="#DejaVuSans-32"/>
     <use transform="translate(531.201172 0.78125)" xlink:href="#DejaVuSans-1489"/>
     <use transform="translate(589.013672 0.78125)" xlink:href="#DejaVuSans-1490"/>
     <use transform="translate(630.224609 0.78125)" xlink:href="#DejaVuSans-1504"/>
     <use transform="translate(670.263672 0.78125)" xlink:href="#DejaVuSans-1492"/>
     <use transform="translate(735.595703 0.78125)" xlink:href="#DejaVuSans-32"/>
     <use transform="translate(767.382812 0.78125)" xlink:href="#DejaVuSans-1512"/>
     <use transform="translate(823.828125 0.78125)" xlink:href="#DejaVuSans-1492"/>
     <use transform="translate(889.160156 0.78125)" xlink:href="#DejaVuSans-32"/>
     <use transform="translate(920.947266 0.78125)" xlink:href="#DejaVuSans-Oblique-82"/>
     <use transform="translate(990.429688 -15.625)scale(0.7)" xlink:href="#DejaVuSans-Oblique-116"/>
    </g>
   </g>
  </g>
 </g>
 <defs>
  <clipPath id="p6b76a737fa">
   <rect height="271.8" width="558" x="90" y="43.2"/>
  </clipPath>
 </defs>
</svg>
