<?xml version="1.0" encoding="utf-8" standalone="no"?>
<!DOCTYPE svg PUBLIC "-//W3C//DTD SVG 1.1//EN"
  "http://www.w3.org/Graphics/SVG/1.1/DTD/svg11.dtd">
<!-- Created with matplotlib (https://matplotlib.org/) -->
<svg height="360pt" version="1.1" viewBox="0 0 720 360" width="720pt" xmlns="http://www.w3.org/2000/svg" xmlns:xlink="http://www.w3.org/1999/xlink">
 <metadata>
  <rdf:RDF xmlns:cc="http://creativecommons.org/ns#" xmlns:dc="http://purl.org/dc/elements/1.1/" xmlns:rdf="http://www.w3.org/1999/02/22-rdf-syntax-ns#">
   <cc:Work>
    <dc:type rdf:resource="http://purl.org/dc/dcmitype/StillImage"/>
    <dc:date>2021-05-03T04:42:02.377604</dc:date>
    <dc:format>image/svg+xml</dc:format>
    <dc:creator>
     <cc:Agent>
      <dc:title>Matplotlib v3.3.2, https://matplotlib.org/</dc:title>
     </cc:Agent>
    </dc:creator>
   </cc:Work>
  </rdf:RDF>
 </metadata>
 <defs>
  <style type="text/css">*{stroke-linecap:butt;stroke-linejoin:round;}</style>
 </defs>
 <g id="figure_1">
  <g id="patch_1">
   <path d="M 0 360 
L 720 360 
L 720 0 
L 0 0 
z
" style="fill:#ffffff;"/>
  </g>
  <g id="axes_1">
   <g id="patch_2">
    <path d="M 90 315 
L 648 315 
L 648 43.2 
L 90 43.2 
z
" style="fill:#ffffff;"/>
   </g>
   <g id="matplotlib.axis_1">
    <g id="xtick_1">
     <g id="line2d_1">
      <defs>
       <path d="M 0 0 
L 0 3.5 
" id="m84599c621a" style="stroke:#000000;stroke-width:0.8;"/>
      </defs>
      <g>
       <use style="stroke:#000000;stroke-width:0.8;" x="90" xlink:href="#m84599c621a" y="315"/>
      </g>
     </g>
    </g>
    <g id="xtick_2">
     <g id="line2d_2">
      <g>
       <use style="stroke:#000000;stroke-width:0.8;" x="91.412658" xlink:href="#m84599c621a" y="315"/>
      </g>
     </g>
     <g id="text_1">
      <!-- Apr -->
      <g transform="translate(82.762658 329.598437)scale(0.1 -0.1)">
       <defs>
        <path d="M 34.1875 63.1875 
L 20.796875 26.90625 
L 47.609375 26.90625 
z
M 28.609375 72.90625 
L 39.796875 72.90625 
L 67.578125 0 
L 57.328125 0 
L 50.6875 18.703125 
L 17.828125 18.703125 
L 11.1875 0 
L 0.78125 0 
z
" id="DejaVuSans-65"/>
        <path d="M 18.109375 8.203125 
L 18.109375 -20.796875 
L 9.078125 -20.796875 
L 9.078125 54.6875 
L 18.109375 54.6875 
L 18.109375 46.390625 
Q 20.953125 51.265625 25.265625 53.625 
Q 29.59375 56 35.59375 56 
Q 45.5625 56 51.78125 48.09375 
Q 58.015625 40.1875 58.015625 27.296875 
Q 58.015625 14.40625 51.78125 6.484375 
Q 45.5625 -1.421875 35.59375 -1.421875 
Q 29.59375 -1.421875 25.265625 0.953125 
Q 20.953125 3.328125 18.109375 8.203125 
z
M 48.6875 27.296875 
Q 48.6875 37.203125 44.609375 42.84375 
Q 40.53125 48.484375 33.40625 48.484375 
Q 26.265625 48.484375 22.1875 42.84375 
Q 18.109375 37.203125 18.109375 27.296875 
Q 18.109375 17.390625 22.1875 11.75 
Q 26.265625 6.109375 33.40625 6.109375 
Q 40.53125 6.109375 44.609375 11.75 
Q 48.6875 17.390625 48.6875 27.296875 
z
" id="DejaVuSans-112"/>
        <path d="M 41.109375 46.296875 
Q 39.59375 47.171875 37.8125 47.578125 
Q 36.03125 48 33.890625 48 
Q 26.265625 48 22.1875 43.046875 
Q 18.109375 38.09375 18.109375 28.8125 
L 18.109375 0 
L 9.078125 0 
L 9.078125 54.6875 
L 18.109375 54.6875 
L 18.109375 46.1875 
Q 20.953125 51.171875 25.484375 53.578125 
Q 30.03125 56 36.53125 56 
Q 37.453125 56 38.578125 55.875 
Q 39.703125 55.765625 41.0625 55.515625 
z
" id="DejaVuSans-114"/>
       </defs>
       <use xlink:href="#DejaVuSans-65"/>
       <use x="68.408203" xlink:href="#DejaVuSans-112"/>
       <use x="131.884766" xlink:href="#DejaVuSans-114"/>
      </g>
     </g>
    </g>
    <g id="xtick_3">
     <g id="line2d_3">
      <g>
       <use style="stroke:#000000;stroke-width:0.8;" x="133.792405" xlink:href="#m84599c621a" y="315"/>
      </g>
     </g>
     <g id="text_2">
      <!-- May -->
      <g transform="translate(123.454905 329.598437)scale(0.1 -0.1)">
       <defs>
        <path d="M 9.8125 72.90625 
L 24.515625 72.90625 
L 43.109375 23.296875 
L 61.8125 72.90625 
L 76.515625 72.90625 
L 76.515625 0 
L 66.890625 0 
L 66.890625 64.015625 
L 48.09375 14.015625 
L 38.1875 14.015625 
L 19.390625 64.015625 
L 19.390625 0 
L 9.8125 0 
z
" id="DejaVuSans-77"/>
        <path d="M 34.28125 27.484375 
Q 23.390625 27.484375 19.1875 25 
Q 14.984375 22.515625 14.984375 16.5 
Q 14.984375 11.71875 18.140625 8.90625 
Q 21.296875 6.109375 26.703125 6.109375 
Q 34.1875 6.109375 38.703125 11.40625 
Q 43.21875 16.703125 43.21875 25.484375 
L 43.21875 27.484375 
z
M 52.203125 31.203125 
L 52.203125 0 
L 43.21875 0 
L 43.21875 8.296875 
Q 40.140625 3.328125 35.546875 0.953125 
Q 30.953125 -1.421875 24.3125 -1.421875 
Q 15.921875 -1.421875 10.953125 3.296875 
Q 6 8.015625 6 15.921875 
Q 6 25.140625 12.171875 29.828125 
Q 18.359375 34.515625 30.609375 34.515625 
L 43.21875 34.515625 
L 43.21875 35.40625 
Q 43.21875 41.609375 39.140625 45 
Q 35.0625 48.390625 27.6875 48.390625 
Q 23 48.390625 18.546875 47.265625 
Q 14.109375 46.140625 10.015625 43.890625 
L 10.015625 52.203125 
Q 14.9375 54.109375 19.578125 55.046875 
Q 24.21875 56 28.609375 56 
Q 40.484375 56 46.34375 49.84375 
Q 52.203125 43.703125 52.203125 31.203125 
z
" id="DejaVuSans-97"/>
        <path d="M 32.171875 -5.078125 
Q 28.375 -14.84375 24.75 -17.8125 
Q 21.140625 -20.796875 15.09375 -20.796875 
L 7.90625 -20.796875 
L 7.90625 -13.28125 
L 13.1875 -13.28125 
Q 16.890625 -13.28125 18.9375 -11.515625 
Q 21 -9.765625 23.484375 -3.21875 
L 25.09375 0.875 
L 2.984375 54.6875 
L 12.5 54.6875 
L 29.59375 11.921875 
L 46.6875 54.6875 
L 56.203125 54.6875 
z
" id="DejaVuSans-121"/>
       </defs>
       <use xlink:href="#DejaVuSans-77"/>
       <use x="86.279297" xlink:href="#DejaVuSans-97"/>
       <use x="147.558594" xlink:href="#DejaVuSans-121"/>
      </g>
     </g>
    </g>
    <g id="xtick_4">
     <g id="line2d_4">
      <g>
       <use style="stroke:#000000;stroke-width:0.8;" x="177.58481" xlink:href="#m84599c621a" y="315"/>
      </g>
     </g>
     <g id="text_3">
      <!-- Jun -->
      <g transform="translate(169.77231 329.598437)scale(0.1 -0.1)">
       <defs>
        <path d="M 9.8125 72.90625 
L 19.671875 72.90625 
L 19.671875 5.078125 
Q 19.671875 -8.109375 14.671875 -14.0625 
Q 9.671875 -20.015625 -1.421875 -20.015625 
L -5.171875 -20.015625 
L -5.171875 -11.71875 
L -2.09375 -11.71875 
Q 4.4375 -11.71875 7.125 -8.046875 
Q 9.8125 -4.390625 9.8125 5.078125 
z
" id="DejaVuSans-74"/>
        <path d="M 8.5 21.578125 
L 8.5 54.6875 
L 17.484375 54.6875 
L 17.484375 21.921875 
Q 17.484375 14.15625 20.5 10.265625 
Q 23.53125 6.390625 29.59375 6.390625 
Q 36.859375 6.390625 41.078125 11.03125 
Q 45.3125 15.671875 45.3125 23.6875 
L 45.3125 54.6875 
L 54.296875 54.6875 
L 54.296875 0 
L 45.3125 0 
L 45.3125 8.40625 
Q 42.046875 3.421875 37.71875 1 
Q 33.40625 -1.421875 27.6875 -1.421875 
Q 18.265625 -1.421875 13.375 4.4375 
Q 8.5 10.296875 8.5 21.578125 
z
M 31.109375 56 
z
" id="DejaVuSans-117"/>
        <path d="M 54.890625 33.015625 
L 54.890625 0 
L 45.90625 0 
L 45.90625 32.71875 
Q 45.90625 40.484375 42.875 44.328125 
Q 39.84375 48.1875 33.796875 48.1875 
Q 26.515625 48.1875 22.3125 43.546875 
Q 18.109375 38.921875 18.109375 30.90625 
L 18.109375 0 
L 9.078125 0 
L 9.078125 54.6875 
L 18.109375 54.6875 
L 18.109375 46.1875 
Q 21.34375 51.125 25.703125 53.5625 
Q 30.078125 56 35.796875 56 
Q 45.21875 56 50.046875 50.171875 
Q 54.890625 44.34375 54.890625 33.015625 
z
" id="DejaVuSans-110"/>
       </defs>
       <use xlink:href="#DejaVuSans-74"/>
       <use x="29.492188" xlink:href="#DejaVuSans-117"/>
       <use x="92.871094" xlink:href="#DejaVuSans-110"/>
      </g>
     </g>
    </g>
    <g id="xtick_5">
     <g id="line2d_5">
      <g>
       <use style="stroke:#000000;stroke-width:0.8;" x="219.964557" xlink:href="#m84599c621a" y="315"/>
      </g>
     </g>
     <g id="text_4">
      <!-- Jul -->
      <g transform="translate(213.931744 329.598437)scale(0.1 -0.1)">
       <defs>
        <path d="M 9.421875 75.984375 
L 18.40625 75.984375 
L 18.40625 0 
L 9.421875 0 
z
" id="DejaVuSans-108"/>
       </defs>
       <use xlink:href="#DejaVuSans-74"/>
       <use x="29.492188" xlink:href="#DejaVuSans-117"/>
       <use x="92.871094" xlink:href="#DejaVuSans-108"/>
      </g>
     </g>
    </g>
    <g id="xtick_6">
     <g id="line2d_6">
      <g>
       <use style="stroke:#000000;stroke-width:0.8;" x="263.756962" xlink:href="#m84599c621a" y="315"/>
      </g>
     </g>
     <g id="text_5">
      <!-- Aug -->
      <g transform="translate(253.993681 329.598437)scale(0.1 -0.1)">
       <defs>
        <path d="M 45.40625 27.984375 
Q 45.40625 37.75 41.375 43.109375 
Q 37.359375 48.484375 30.078125 48.484375 
Q 22.859375 48.484375 18.828125 43.109375 
Q 14.796875 37.75 14.796875 27.984375 
Q 14.796875 18.265625 18.828125 12.890625 
Q 22.859375 7.515625 30.078125 7.515625 
Q 37.359375 7.515625 41.375 12.890625 
Q 45.40625 18.265625 45.40625 27.984375 
z
M 54.390625 6.78125 
Q 54.390625 -7.171875 48.1875 -13.984375 
Q 42 -20.796875 29.203125 -20.796875 
Q 24.46875 -20.796875 20.265625 -20.09375 
Q 16.0625 -19.390625 12.109375 -17.921875 
L 12.109375 -9.1875 
Q 16.0625 -11.328125 19.921875 -12.34375 
Q 23.78125 -13.375 27.78125 -13.375 
Q 36.625 -13.375 41.015625 -8.765625 
Q 45.40625 -4.15625 45.40625 5.171875 
L 45.40625 9.625 
Q 42.625 4.78125 38.28125 2.390625 
Q 33.9375 0 27.875 0 
Q 17.828125 0 11.671875 7.65625 
Q 5.515625 15.328125 5.515625 27.984375 
Q 5.515625 40.671875 11.671875 48.328125 
Q 17.828125 56 27.875 56 
Q 33.9375 56 38.28125 53.609375 
Q 42.625 51.21875 45.40625 46.390625 
L 45.40625 54.6875 
L 54.390625 54.6875 
z
" id="DejaVuSans-103"/>
       </defs>
       <use xlink:href="#DejaVuSans-65"/>
       <use x="68.408203" xlink:href="#DejaVuSans-117"/>
       <use x="131.787109" xlink:href="#DejaVuSans-103"/>
      </g>
     </g>
    </g>
    <g id="xtick_7">
     <g id="line2d_7">
      <g>
       <use style="stroke:#000000;stroke-width:0.8;" x="307.549367" xlink:href="#m84599c621a" y="315"/>
      </g>
     </g>
     <g id="text_6">
      <!-- Sep -->
      <g transform="translate(298.124367 329.598437)scale(0.1 -0.1)">
       <defs>
        <path d="M 53.515625 70.515625 
L 53.515625 60.890625 
Q 47.90625 63.578125 42.921875 64.890625 
Q 37.9375 66.21875 33.296875 66.21875 
Q 25.25 66.21875 20.875 63.09375 
Q 16.5 59.96875 16.5 54.203125 
Q 16.5 49.359375 19.40625 46.890625 
Q 22.3125 44.4375 30.421875 42.921875 
L 36.375 41.703125 
Q 47.40625 39.59375 52.65625 34.296875 
Q 57.90625 29 57.90625 20.125 
Q 57.90625 9.515625 50.796875 4.046875 
Q 43.703125 -1.421875 29.984375 -1.421875 
Q 24.8125 -1.421875 18.96875 -0.25 
Q 13.140625 0.921875 6.890625 3.21875 
L 6.890625 13.375 
Q 12.890625 10.015625 18.65625 8.296875 
Q 24.421875 6.59375 29.984375 6.59375 
Q 38.421875 6.59375 43.015625 9.90625 
Q 47.609375 13.234375 47.609375 19.390625 
Q 47.609375 24.75 44.3125 27.78125 
Q 41.015625 30.8125 33.5 32.328125 
L 27.484375 33.5 
Q 16.453125 35.6875 11.515625 40.375 
Q 6.59375 45.0625 6.59375 53.421875 
Q 6.59375 63.09375 13.40625 68.65625 
Q 20.21875 74.21875 32.171875 74.21875 
Q 37.3125 74.21875 42.625 73.28125 
Q 47.953125 72.359375 53.515625 70.515625 
z
" id="DejaVuSans-83"/>
        <path d="M 56.203125 29.59375 
L 56.203125 25.203125 
L 14.890625 25.203125 
Q 15.484375 15.921875 20.484375 11.0625 
Q 25.484375 6.203125 34.421875 6.203125 
Q 39.59375 6.203125 44.453125 7.46875 
Q 49.3125 8.734375 54.109375 11.28125 
L 54.109375 2.78125 
Q 49.265625 0.734375 44.1875 -0.34375 
Q 39.109375 -1.421875 33.890625 -1.421875 
Q 20.796875 -1.421875 13.15625 6.1875 
Q 5.515625 13.8125 5.515625 26.8125 
Q 5.515625 40.234375 12.765625 48.109375 
Q 20.015625 56 32.328125 56 
Q 43.359375 56 49.78125 48.890625 
Q 56.203125 41.796875 56.203125 29.59375 
z
M 47.21875 32.234375 
Q 47.125 39.59375 43.09375 43.984375 
Q 39.0625 48.390625 32.421875 48.390625 
Q 24.90625 48.390625 20.390625 44.140625 
Q 15.875 39.890625 15.1875 32.171875 
z
" id="DejaVuSans-101"/>
       </defs>
       <use xlink:href="#DejaVuSans-83"/>
       <use x="63.476562" xlink:href="#DejaVuSans-101"/>
       <use x="125" xlink:href="#DejaVuSans-112"/>
      </g>
     </g>
    </g>
    <g id="xtick_8">
     <g id="line2d_8">
      <g>
       <use style="stroke:#000000;stroke-width:0.8;" x="349.929114" xlink:href="#m84599c621a" y="315"/>
      </g>
     </g>
     <g id="text_7">
      <!-- Oct -->
      <g transform="translate(341.283801 329.598437)scale(0.1 -0.1)">
       <defs>
        <path d="M 39.40625 66.21875 
Q 28.65625 66.21875 22.328125 58.203125 
Q 16.015625 50.203125 16.015625 36.375 
Q 16.015625 22.609375 22.328125 14.59375 
Q 28.65625 6.59375 39.40625 6.59375 
Q 50.140625 6.59375 56.421875 14.59375 
Q 62.703125 22.609375 62.703125 36.375 
Q 62.703125 50.203125 56.421875 58.203125 
Q 50.140625 66.21875 39.40625 66.21875 
z
M 39.40625 74.21875 
Q 54.734375 74.21875 63.90625 63.9375 
Q 73.09375 53.65625 73.09375 36.375 
Q 73.09375 19.140625 63.90625 8.859375 
Q 54.734375 -1.421875 39.40625 -1.421875 
Q 24.03125 -1.421875 14.8125 8.828125 
Q 5.609375 19.09375 5.609375 36.375 
Q 5.609375 53.65625 14.8125 63.9375 
Q 24.03125 74.21875 39.40625 74.21875 
z
" id="DejaVuSans-79"/>
        <path d="M 48.78125 52.59375 
L 48.78125 44.1875 
Q 44.96875 46.296875 41.140625 47.34375 
Q 37.3125 48.390625 33.40625 48.390625 
Q 24.65625 48.390625 19.8125 42.84375 
Q 14.984375 37.3125 14.984375 27.296875 
Q 14.984375 17.28125 19.8125 11.734375 
Q 24.65625 6.203125 33.40625 6.203125 
Q 37.3125 6.203125 41.140625 7.25 
Q 44.96875 8.296875 48.78125 10.40625 
L 48.78125 2.09375 
Q 45.015625 0.34375 40.984375 -0.53125 
Q 36.96875 -1.421875 32.421875 -1.421875 
Q 20.0625 -1.421875 12.78125 6.34375 
Q 5.515625 14.109375 5.515625 27.296875 
Q 5.515625 40.671875 12.859375 48.328125 
Q 20.21875 56 33.015625 56 
Q 37.15625 56 41.109375 55.140625 
Q 45.0625 54.296875 48.78125 52.59375 
z
" id="DejaVuSans-99"/>
        <path d="M 18.3125 70.21875 
L 18.3125 54.6875 
L 36.8125 54.6875 
L 36.8125 47.703125 
L 18.3125 47.703125 
L 18.3125 18.015625 
Q 18.3125 11.328125 20.140625 9.421875 
Q 21.96875 7.515625 27.59375 7.515625 
L 36.8125 7.515625 
L 36.8125 0 
L 27.59375 0 
Q 17.1875 0 13.234375 3.875 
Q 9.28125 7.765625 9.28125 18.015625 
L 9.28125 47.703125 
L 2.6875 47.703125 
L 2.6875 54.6875 
L 9.28125 54.6875 
L 9.28125 70.21875 
z
" id="DejaVuSans-116"/>
       </defs>
       <use xlink:href="#DejaVuSans-79"/>
       <use x="78.710938" xlink:href="#DejaVuSans-99"/>
       <use x="133.691406" xlink:href="#DejaVuSans-116"/>
      </g>
     </g>
    </g>
    <g id="xtick_9">
     <g id="line2d_9">
      <g>
       <use style="stroke:#000000;stroke-width:0.8;" x="393.721519" xlink:href="#m84599c621a" y="315"/>
      </g>
     </g>
     <g id="text_8">
      <!-- Nov -->
      <g transform="translate(383.962144 329.598437)scale(0.1 -0.1)">
       <defs>
        <path d="M 9.8125 72.90625 
L 23.09375 72.90625 
L 55.421875 11.921875 
L 55.421875 72.90625 
L 64.984375 72.90625 
L 64.984375 0 
L 51.703125 0 
L 19.390625 60.984375 
L 19.390625 0 
L 9.8125 0 
z
" id="DejaVuSans-78"/>
        <path d="M 30.609375 48.390625 
Q 23.390625 48.390625 19.1875 42.75 
Q 14.984375 37.109375 14.984375 27.296875 
Q 14.984375 17.484375 19.15625 11.84375 
Q 23.34375 6.203125 30.609375 6.203125 
Q 37.796875 6.203125 41.984375 11.859375 
Q 46.1875 17.53125 46.1875 27.296875 
Q 46.1875 37.015625 41.984375 42.703125 
Q 37.796875 48.390625 30.609375 48.390625 
z
M 30.609375 56 
Q 42.328125 56 49.015625 48.375 
Q 55.71875 40.765625 55.71875 27.296875 
Q 55.71875 13.875 49.015625 6.21875 
Q 42.328125 -1.421875 30.609375 -1.421875 
Q 18.84375 -1.421875 12.171875 6.21875 
Q 5.515625 13.875 5.515625 27.296875 
Q 5.515625 40.765625 12.171875 48.375 
Q 18.84375 56 30.609375 56 
z
" id="DejaVuSans-111"/>
        <path d="M 2.984375 54.6875 
L 12.5 54.6875 
L 29.59375 8.796875 
L 46.6875 54.6875 
L 56.203125 54.6875 
L 35.6875 0 
L 23.484375 0 
z
" id="DejaVuSans-118"/>
       </defs>
       <use xlink:href="#DejaVuSans-78"/>
       <use x="74.804688" xlink:href="#DejaVuSans-111"/>
       <use x="135.986328" xlink:href="#DejaVuSans-118"/>
      </g>
     </g>
    </g>
    <g id="xtick_10">
     <g id="line2d_10">
      <g>
       <use style="stroke:#000000;stroke-width:0.8;" x="436.101266" xlink:href="#m84599c621a" y="315"/>
      </g>
     </g>
     <g id="text_9">
      <!-- Dec -->
      <g transform="translate(426.425485 329.598437)scale(0.1 -0.1)">
       <defs>
        <path d="M 19.671875 64.796875 
L 19.671875 8.109375 
L 31.59375 8.109375 
Q 46.6875 8.109375 53.6875 14.9375 
Q 60.6875 21.78125 60.6875 36.53125 
Q 60.6875 51.171875 53.6875 57.984375 
Q 46.6875 64.796875 31.59375 64.796875 
z
M 9.8125 72.90625 
L 30.078125 72.90625 
Q 51.265625 72.90625 61.171875 64.09375 
Q 71.09375 55.28125 71.09375 36.53125 
Q 71.09375 17.671875 61.125 8.828125 
Q 51.171875 0 30.078125 0 
L 9.8125 0 
z
" id="DejaVuSans-68"/>
       </defs>
       <use xlink:href="#DejaVuSans-68"/>
       <use x="77.001953" xlink:href="#DejaVuSans-101"/>
       <use x="138.525391" xlink:href="#DejaVuSans-99"/>
      </g>
     </g>
    </g>
    <g id="xtick_11">
     <g id="line2d_11">
      <g>
       <use style="stroke:#000000;stroke-width:0.8;" x="479.893671" xlink:href="#m84599c621a" y="315"/>
      </g>
     </g>
     <g id="text_10">
      <!-- Jan -->
      <g transform="translate(472.185858 329.598437)scale(0.1 -0.1)">
       <use xlink:href="#DejaVuSans-74"/>
       <use x="29.492188" xlink:href="#DejaVuSans-97"/>
       <use x="90.771484" xlink:href="#DejaVuSans-110"/>
      </g>
      <!-- 2021 -->
      <g transform="translate(467.168671 340.79625)scale(0.1 -0.1)">
       <defs>
        <path d="M 19.1875 8.296875 
L 53.609375 8.296875 
L 53.609375 0 
L 7.328125 0 
L 7.328125 8.296875 
Q 12.9375 14.109375 22.625 23.890625 
Q 32.328125 33.6875 34.8125 36.53125 
Q 39.546875 41.84375 41.421875 45.53125 
Q 43.3125 49.21875 43.3125 52.78125 
Q 43.3125 58.59375 39.234375 62.25 
Q 35.15625 65.921875 28.609375 65.921875 
Q 23.96875 65.921875 18.8125 64.3125 
Q 13.671875 62.703125 7.8125 59.421875 
L 7.8125 69.390625 
Q 13.765625 71.78125 18.9375 73 
Q 24.125 74.21875 28.421875 74.21875 
Q 39.75 74.21875 46.484375 68.546875 
Q 53.21875 62.890625 53.21875 53.421875 
Q 53.21875 48.921875 51.53125 44.890625 
Q 49.859375 40.875 45.40625 35.40625 
Q 44.1875 33.984375 37.640625 27.21875 
Q 31.109375 20.453125 19.1875 8.296875 
z
" id="DejaVuSans-50"/>
        <path d="M 31.78125 66.40625 
Q 24.171875 66.40625 20.328125 58.90625 
Q 16.5 51.421875 16.5 36.375 
Q 16.5 21.390625 20.328125 13.890625 
Q 24.171875 6.390625 31.78125 6.390625 
Q 39.453125 6.390625 43.28125 13.890625 
Q 47.125 21.390625 47.125 36.375 
Q 47.125 51.421875 43.28125 58.90625 
Q 39.453125 66.40625 31.78125 66.40625 
z
M 31.78125 74.21875 
Q 44.046875 74.21875 50.515625 64.515625 
Q 56.984375 54.828125 56.984375 36.375 
Q 56.984375 17.96875 50.515625 8.265625 
Q 44.046875 -1.421875 31.78125 -1.421875 
Q 19.53125 -1.421875 13.0625 8.265625 
Q 6.59375 17.96875 6.59375 36.375 
Q 6.59375 54.828125 13.0625 64.515625 
Q 19.53125 74.21875 31.78125 74.21875 
z
" id="DejaVuSans-48"/>
        <path d="M 12.40625 8.296875 
L 28.515625 8.296875 
L 28.515625 63.921875 
L 10.984375 60.40625 
L 10.984375 69.390625 
L 28.421875 72.90625 
L 38.28125 72.90625 
L 38.28125 8.296875 
L 54.390625 8.296875 
L 54.390625 0 
L 12.40625 0 
z
" id="DejaVuSans-49"/>
       </defs>
       <use xlink:href="#DejaVuSans-50"/>
       <use x="63.623047" xlink:href="#DejaVuSans-48"/>
       <use x="127.246094" xlink:href="#DejaVuSans-50"/>
       <use x="190.869141" xlink:href="#DejaVuSans-49"/>
      </g>
     </g>
    </g>
    <g id="xtick_12">
     <g id="line2d_12">
      <g>
       <use style="stroke:#000000;stroke-width:0.8;" x="523.686076" xlink:href="#m84599c621a" y="315"/>
      </g>
     </g>
     <g id="text_11">
      <!-- Feb -->
      <g transform="translate(514.834513 329.598437)scale(0.1 -0.1)">
       <defs>
        <path d="M 9.8125 72.90625 
L 51.703125 72.90625 
L 51.703125 64.59375 
L 19.671875 64.59375 
L 19.671875 43.109375 
L 48.578125 43.109375 
L 48.578125 34.8125 
L 19.671875 34.8125 
L 19.671875 0 
L 9.8125 0 
z
" id="DejaVuSans-70"/>
        <path d="M 48.6875 27.296875 
Q 48.6875 37.203125 44.609375 42.84375 
Q 40.53125 48.484375 33.40625 48.484375 
Q 26.265625 48.484375 22.1875 42.84375 
Q 18.109375 37.203125 18.109375 27.296875 
Q 18.109375 17.390625 22.1875 11.75 
Q 26.265625 6.109375 33.40625 6.109375 
Q 40.53125 6.109375 44.609375 11.75 
Q 48.6875 17.390625 48.6875 27.296875 
z
M 18.109375 46.390625 
Q 20.953125 51.265625 25.265625 53.625 
Q 29.59375 56 35.59375 56 
Q 45.5625 56 51.78125 48.09375 
Q 58.015625 40.1875 58.015625 27.296875 
Q 58.015625 14.40625 51.78125 6.484375 
Q 45.5625 -1.421875 35.59375 -1.421875 
Q 29.59375 -1.421875 25.265625 0.953125 
Q 20.953125 3.328125 18.109375 8.203125 
L 18.109375 0 
L 9.078125 0 
L 9.078125 75.984375 
L 18.109375 75.984375 
z
" id="DejaVuSans-98"/>
       </defs>
       <use xlink:href="#DejaVuSans-70"/>
       <use x="52.019531" xlink:href="#DejaVuSans-101"/>
       <use x="113.542969" xlink:href="#DejaVuSans-98"/>
      </g>
     </g>
    </g>
    <g id="xtick_13">
     <g id="line2d_13">
      <g>
       <use style="stroke:#000000;stroke-width:0.8;" x="563.240506" xlink:href="#m84599c621a" y="315"/>
      </g>
     </g>
     <g id="text_12">
      <!-- Mar -->
      <g transform="translate(553.806913 329.598437)scale(0.1 -0.1)">
       <use xlink:href="#DejaVuSans-77"/>
       <use x="86.279297" xlink:href="#DejaVuSans-97"/>
       <use x="147.558594" xlink:href="#DejaVuSans-114"/>
      </g>
     </g>
    </g>
    <g id="xtick_14">
     <g id="line2d_14">
      <g>
       <use style="stroke:#000000;stroke-width:0.8;" x="607.032911" xlink:href="#m84599c621a" y="315"/>
      </g>
     </g>
     <g id="text_13">
      <!-- Apr -->
      <g transform="translate(598.382911 329.598437)scale(0.1 -0.1)">
       <use xlink:href="#DejaVuSans-65"/>
       <use x="68.408203" xlink:href="#DejaVuSans-112"/>
       <use x="131.884766" xlink:href="#DejaVuSans-114"/>
      </g>
     </g>
    </g>
    <g id="xtick_15">
     <g id="line2d_15">
      <g>
       <use style="stroke:#000000;stroke-width:0.8;" x="648" xlink:href="#m84599c621a" y="315"/>
      </g>
     </g>
    </g>
    <g id="xtick_16">
     <g id="line2d_16">
      <defs>
       <path d="M 0 0 
L 0 2 
" id="m31b169b046" style="stroke:#000000;stroke-width:0.6;"/>
      </defs>
      <g>
       <use style="stroke:#000000;stroke-width:0.6;" x="98.475949" xlink:href="#m31b169b046" y="315"/>
      </g>
     </g>
    </g>
    <g id="xtick_17">
     <g id="line2d_17">
      <g>
       <use style="stroke:#000000;stroke-width:0.6;" x="108.364557" xlink:href="#m31b169b046" y="315"/>
      </g>
     </g>
    </g>
    <g id="xtick_18">
     <g id="line2d_18">
      <g>
       <use style="stroke:#000000;stroke-width:0.6;" x="118.253165" xlink:href="#m31b169b046" y="315"/>
      </g>
     </g>
    </g>
    <g id="xtick_19">
     <g id="line2d_19">
      <g>
       <use style="stroke:#000000;stroke-width:0.6;" x="128.141772" xlink:href="#m31b169b046" y="315"/>
      </g>
     </g>
    </g>
    <g id="xtick_20">
     <g id="line2d_20">
      <g>
       <use style="stroke:#000000;stroke-width:0.6;" x="138.03038" xlink:href="#m31b169b046" y="315"/>
      </g>
     </g>
    </g>
    <g id="xtick_21">
     <g id="line2d_21">
      <g>
       <use style="stroke:#000000;stroke-width:0.6;" x="147.918987" xlink:href="#m31b169b046" y="315"/>
      </g>
     </g>
    </g>
    <g id="xtick_22">
     <g id="line2d_22">
      <g>
       <use style="stroke:#000000;stroke-width:0.6;" x="157.807595" xlink:href="#m31b169b046" y="315"/>
      </g>
     </g>
    </g>
    <g id="xtick_23">
     <g id="line2d_23">
      <g>
       <use style="stroke:#000000;stroke-width:0.6;" x="167.696203" xlink:href="#m31b169b046" y="315"/>
      </g>
     </g>
    </g>
    <g id="xtick_24">
     <g id="line2d_24">
      <g>
       <use style="stroke:#000000;stroke-width:0.6;" x="187.473418" xlink:href="#m31b169b046" y="315"/>
      </g>
     </g>
    </g>
    <g id="xtick_25">
     <g id="line2d_25">
      <g>
       <use style="stroke:#000000;stroke-width:0.6;" x="197.362025" xlink:href="#m31b169b046" y="315"/>
      </g>
     </g>
    </g>
    <g id="xtick_26">
     <g id="line2d_26">
      <g>
       <use style="stroke:#000000;stroke-width:0.6;" x="207.250633" xlink:href="#m31b169b046" y="315"/>
      </g>
     </g>
    </g>
    <g id="xtick_27">
     <g id="line2d_27">
      <g>
       <use style="stroke:#000000;stroke-width:0.6;" x="217.139241" xlink:href="#m31b169b046" y="315"/>
      </g>
     </g>
    </g>
    <g id="xtick_28">
     <g id="line2d_28">
      <g>
       <use style="stroke:#000000;stroke-width:0.6;" x="227.027848" xlink:href="#m31b169b046" y="315"/>
      </g>
     </g>
    </g>
    <g id="xtick_29">
     <g id="line2d_29">
      <g>
       <use style="stroke:#000000;stroke-width:0.6;" x="236.916456" xlink:href="#m31b169b046" y="315"/>
      </g>
     </g>
    </g>
    <g id="xtick_30">
     <g id="line2d_30">
      <g>
       <use style="stroke:#000000;stroke-width:0.6;" x="246.805063" xlink:href="#m31b169b046" y="315"/>
      </g>
     </g>
    </g>
    <g id="xtick_31">
     <g id="line2d_31">
      <g>
       <use style="stroke:#000000;stroke-width:0.6;" x="256.693671" xlink:href="#m31b169b046" y="315"/>
      </g>
     </g>
    </g>
    <g id="xtick_32">
     <g id="line2d_32">
      <g>
       <use style="stroke:#000000;stroke-width:0.6;" x="266.582278" xlink:href="#m31b169b046" y="315"/>
      </g>
     </g>
    </g>
    <g id="xtick_33">
     <g id="line2d_33">
      <g>
       <use style="stroke:#000000;stroke-width:0.6;" x="276.470886" xlink:href="#m31b169b046" y="315"/>
      </g>
     </g>
    </g>
    <g id="xtick_34">
     <g id="line2d_34">
      <g>
       <use style="stroke:#000000;stroke-width:0.6;" x="286.359494" xlink:href="#m31b169b046" y="315"/>
      </g>
     </g>
    </g>
    <g id="xtick_35">
     <g id="line2d_35">
      <g>
       <use style="stroke:#000000;stroke-width:0.6;" x="296.248101" xlink:href="#m31b169b046" y="315"/>
      </g>
     </g>
    </g>
    <g id="xtick_36">
     <g id="line2d_36">
      <g>
       <use style="stroke:#000000;stroke-width:0.6;" x="306.136709" xlink:href="#m31b169b046" y="315"/>
      </g>
     </g>
    </g>
    <g id="xtick_37">
     <g id="line2d_37">
      <g>
       <use style="stroke:#000000;stroke-width:0.6;" x="316.025316" xlink:href="#m31b169b046" y="315"/>
      </g>
     </g>
    </g>
    <g id="xtick_38">
     <g id="line2d_38">
      <g>
       <use style="stroke:#000000;stroke-width:0.6;" x="325.913924" xlink:href="#m31b169b046" y="315"/>
      </g>
     </g>
    </g>
    <g id="xtick_39">
     <g id="line2d_39">
      <g>
       <use style="stroke:#000000;stroke-width:0.6;" x="335.802532" xlink:href="#m31b169b046" y="315"/>
      </g>
     </g>
    </g>
    <g id="xtick_40">
     <g id="line2d_40">
      <g>
       <use style="stroke:#000000;stroke-width:0.6;" x="345.691139" xlink:href="#m31b169b046" y="315"/>
      </g>
     </g>
    </g>
    <g id="xtick_41">
     <g id="line2d_41">
      <g>
       <use style="stroke:#000000;stroke-width:0.6;" x="355.579747" xlink:href="#m31b169b046" y="315"/>
      </g>
     </g>
    </g>
    <g id="xtick_42">
     <g id="line2d_42">
      <g>
       <use style="stroke:#000000;stroke-width:0.6;" x="365.468354" xlink:href="#m31b169b046" y="315"/>
      </g>
     </g>
    </g>
    <g id="xtick_43">
     <g id="line2d_43">
      <g>
       <use style="stroke:#000000;stroke-width:0.6;" x="375.356962" xlink:href="#m31b169b046" y="315"/>
      </g>
     </g>
    </g>
    <g id="xtick_44">
     <g id="line2d_44">
      <g>
       <use style="stroke:#000000;stroke-width:0.6;" x="385.24557" xlink:href="#m31b169b046" y="315"/>
      </g>
     </g>
    </g>
    <g id="xtick_45">
     <g id="line2d_45">
      <g>
       <use style="stroke:#000000;stroke-width:0.6;" x="395.134177" xlink:href="#m31b169b046" y="315"/>
      </g>
     </g>
    </g>
    <g id="xtick_46">
     <g id="line2d_46">
      <g>
       <use style="stroke:#000000;stroke-width:0.6;" x="405.022785" xlink:href="#m31b169b046" y="315"/>
      </g>
     </g>
    </g>
    <g id="xtick_47">
     <g id="line2d_47">
      <g>
       <use style="stroke:#000000;stroke-width:0.6;" x="414.911392" xlink:href="#m31b169b046" y="315"/>
      </g>
     </g>
    </g>
    <g id="xtick_48">
     <g id="line2d_48">
      <g>
       <use style="stroke:#000000;stroke-width:0.6;" x="424.8" xlink:href="#m31b169b046" y="315"/>
      </g>
     </g>
    </g>
    <g id="xtick_49">
     <g id="line2d_49">
      <g>
       <use style="stroke:#000000;stroke-width:0.6;" x="434.688608" xlink:href="#m31b169b046" y="315"/>
      </g>
     </g>
    </g>
    <g id="xtick_50">
     <g id="line2d_50">
      <g>
       <use style="stroke:#000000;stroke-width:0.6;" x="444.577215" xlink:href="#m31b169b046" y="315"/>
      </g>
     </g>
    </g>
    <g id="xtick_51">
     <g id="line2d_51">
      <g>
       <use style="stroke:#000000;stroke-width:0.6;" x="454.465823" xlink:href="#m31b169b046" y="315"/>
      </g>
     </g>
    </g>
    <g id="xtick_52">
     <g id="line2d_52">
      <g>
       <use style="stroke:#000000;stroke-width:0.6;" x="464.35443" xlink:href="#m31b169b046" y="315"/>
      </g>
     </g>
    </g>
    <g id="xtick_53">
     <g id="line2d_53">
      <g>
       <use style="stroke:#000000;stroke-width:0.6;" x="474.243038" xlink:href="#m31b169b046" y="315"/>
      </g>
     </g>
    </g>
    <g id="xtick_54">
     <g id="line2d_54">
      <g>
       <use style="stroke:#000000;stroke-width:0.6;" x="484.131646" xlink:href="#m31b169b046" y="315"/>
      </g>
     </g>
    </g>
    <g id="xtick_55">
     <g id="line2d_55">
      <g>
       <use style="stroke:#000000;stroke-width:0.6;" x="494.020253" xlink:href="#m31b169b046" y="315"/>
      </g>
     </g>
    </g>
    <g id="xtick_56">
     <g id="line2d_56">
      <g>
       <use style="stroke:#000000;stroke-width:0.6;" x="503.908861" xlink:href="#m31b169b046" y="315"/>
      </g>
     </g>
    </g>
    <g id="xtick_57">
     <g id="line2d_57">
      <g>
       <use style="stroke:#000000;stroke-width:0.6;" x="513.797468" xlink:href="#m31b169b046" y="315"/>
      </g>
     </g>
    </g>
    <g id="xtick_58">
     <g id="line2d_58">
      <g>
       <use style="stroke:#000000;stroke-width:0.6;" x="533.574684" xlink:href="#m31b169b046" y="315"/>
      </g>
     </g>
    </g>
    <g id="xtick_59">
     <g id="line2d_59">
      <g>
       <use style="stroke:#000000;stroke-width:0.6;" x="543.463291" xlink:href="#m31b169b046" y="315"/>
      </g>
     </g>
    </g>
    <g id="xtick_60">
     <g id="line2d_60">
      <g>
       <use style="stroke:#000000;stroke-width:0.6;" x="553.351899" xlink:href="#m31b169b046" y="315"/>
      </g>
     </g>
    </g>
    <g id="xtick_61">
     <g id="line2d_61">
      <g>
       <use style="stroke:#000000;stroke-width:0.6;" x="573.129114" xlink:href="#m31b169b046" y="315"/>
      </g>
     </g>
    </g>
    <g id="xtick_62">
     <g id="line2d_62">
      <g>
       <use style="stroke:#000000;stroke-width:0.6;" x="583.017722" xlink:href="#m31b169b046" y="315"/>
      </g>
     </g>
    </g>
    <g id="xtick_63">
     <g id="line2d_63">
      <g>
       <use style="stroke:#000000;stroke-width:0.6;" x="592.906329" xlink:href="#m31b169b046" y="315"/>
      </g>
     </g>
    </g>
    <g id="xtick_64">
     <g id="line2d_64">
      <g>
       <use style="stroke:#000000;stroke-width:0.6;" x="602.794937" xlink:href="#m31b169b046" y="315"/>
      </g>
     </g>
    </g>
    <g id="xtick_65">
     <g id="line2d_65">
      <g>
       <use style="stroke:#000000;stroke-width:0.6;" x="612.683544" xlink:href="#m31b169b046" y="315"/>
      </g>
     </g>
    </g>
    <g id="xtick_66">
     <g id="line2d_66">
      <g>
       <use style="stroke:#000000;stroke-width:0.6;" x="622.572152" xlink:href="#m31b169b046" y="315"/>
      </g>
     </g>
    </g>
    <g id="xtick_67">
     <g id="line2d_67">
      <g>
       <use style="stroke:#000000;stroke-width:0.6;" x="632.460759" xlink:href="#m31b169b046" y="315"/>
      </g>
     </g>
    </g>
    <g id="xtick_68">
     <g id="line2d_68">
      <g>
       <use style="stroke:#000000;stroke-width:0.6;" x="642.349367" xlink:href="#m31b169b046" y="315"/>
      </g>
     </g>
    </g>
    <g id="text_14">
     <!-- date -->
     <g transform="translate(357.725 354.474375)scale(0.1 -0.1)">
      <defs>
       <path d="M 45.40625 46.390625 
L 45.40625 75.984375 
L 54.390625 75.984375 
L 54.390625 0 
L 45.40625 0 
L 45.40625 8.203125 
Q 42.578125 3.328125 38.25 0.953125 
Q 33.9375 -1.421875 27.875 -1.421875 
Q 17.96875 -1.421875 11.734375 6.484375 
Q 5.515625 14.40625 5.515625 27.296875 
Q 5.515625 40.1875 11.734375 48.09375 
Q 17.96875 56 27.875 56 
Q 33.9375 56 38.25 53.625 
Q 42.578125 51.265625 45.40625 46.390625 
z
M 14.796875 27.296875 
Q 14.796875 17.390625 18.875 11.75 
Q 22.953125 6.109375 30.078125 6.109375 
Q 37.203125 6.109375 41.296875 11.75 
Q 45.40625 17.390625 45.40625 27.296875 
Q 45.40625 37.203125 41.296875 42.84375 
Q 37.203125 48.484375 30.078125 48.484375 
Q 22.953125 48.484375 18.875 42.84375 
Q 14.796875 37.203125 14.796875 27.296875 
z
" id="DejaVuSans-100"/>
      </defs>
      <use xlink:href="#DejaVuSans-100"/>
      <use x="63.476562" xlink:href="#DejaVuSans-97"/>
      <use x="124.755859" xlink:href="#DejaVuSans-116"/>
      <use x="163.964844" xlink:href="#DejaVuSans-101"/>
     </g>
    </g>
   </g>
   <g id="matplotlib.axis_2">
    <g id="ytick_1">
     <g id="line2d_69">
      <defs>
       <path d="M 0 0 
L -3.5 0 
" id="mda252b7541" style="stroke:#000000;stroke-width:0.8;"/>
      </defs>
      <g>
       <use style="stroke:#000000;stroke-width:0.8;" x="90" xlink:href="#mda252b7541" y="256.277537"/>
      </g>
     </g>
     <g id="text_15">
      <!-- $\mathdefault{10^{-1}}$ -->
      <g transform="translate(59.5 260.076756)scale(0.1 -0.1)">
       <defs>
        <path d="M 10.59375 35.5 
L 73.1875 35.5 
L 73.1875 27.203125 
L 10.59375 27.203125 
z
" id="DejaVuSans-8722"/>
       </defs>
       <use transform="translate(0 0.684375)" xlink:href="#DejaVuSans-49"/>
       <use transform="translate(63.623047 0.684375)" xlink:href="#DejaVuSans-48"/>
       <use transform="translate(128.203125 38.965625)scale(0.7)" xlink:href="#DejaVuSans-8722"/>
       <use transform="translate(186.855469 38.965625)scale(0.7)" xlink:href="#DejaVuSans-49"/>
      </g>
     </g>
    </g>
    <g id="ytick_2">
     <g id="line2d_70">
      <g>
       <use style="stroke:#000000;stroke-width:0.8;" x="90" xlink:href="#mda252b7541" y="181.664763"/>
      </g>
     </g>
     <g id="text_16">
      <!-- $\mathdefault{10^{0}}$ -->
      <g transform="translate(65.4 185.463982)scale(0.1 -0.1)">
       <use transform="translate(0 0.765625)" xlink:href="#DejaVuSans-49"/>
       <use transform="translate(63.623047 0.765625)" xlink:href="#DejaVuSans-48"/>
       <use transform="translate(128.203125 39.046875)scale(0.7)" xlink:href="#DejaVuSans-48"/>
      </g>
     </g>
    </g>
    <g id="ytick_3">
     <g id="line2d_71">
      <g>
       <use style="stroke:#000000;stroke-width:0.8;" x="90" xlink:href="#mda252b7541" y="107.051989"/>
      </g>
     </g>
     <g id="text_17">
      <!-- $\mathdefault{10^{1}}$ -->
      <g transform="translate(65.4 110.851208)scale(0.1 -0.1)">
       <use transform="translate(0 0.684375)" xlink:href="#DejaVuSans-49"/>
       <use transform="translate(63.623047 0.684375)" xlink:href="#DejaVuSans-48"/>
       <use transform="translate(128.203125 38.965625)scale(0.7)" xlink:href="#DejaVuSans-49"/>
      </g>
     </g>
    </g>
    <g id="ytick_4">
     <g id="line2d_72">
      <defs>
       <path d="M 0 0 
L -2 0 
" id="mbb48a1245e" style="stroke:#000000;stroke-width:0.6;"/>
      </defs>
      <g>
       <use style="stroke:#000000;stroke-width:0.6;" x="90" xlink:href="#mbb48a1245e" y="308.429628"/>
      </g>
     </g>
    </g>
    <g id="ytick_5">
     <g id="line2d_73">
      <g>
       <use style="stroke:#000000;stroke-width:0.6;" x="90" xlink:href="#mbb48a1245e" y="295.29097"/>
      </g>
     </g>
    </g>
    <g id="ytick_6">
     <g id="line2d_74">
      <g>
       <use style="stroke:#000000;stroke-width:0.6;" x="90" xlink:href="#mbb48a1245e" y="285.968945"/>
      </g>
     </g>
    </g>
    <g id="ytick_7">
     <g id="line2d_75">
      <g>
       <use style="stroke:#000000;stroke-width:0.6;" x="90" xlink:href="#mbb48a1245e" y="278.73822"/>
      </g>
     </g>
    </g>
    <g id="ytick_8">
     <g id="line2d_76">
      <g>
       <use style="stroke:#000000;stroke-width:0.6;" x="90" xlink:href="#mbb48a1245e" y="272.830287"/>
      </g>
     </g>
    </g>
    <g id="ytick_9">
     <g id="line2d_77">
      <g>
       <use style="stroke:#000000;stroke-width:0.6;" x="90" xlink:href="#mbb48a1245e" y="267.835202"/>
      </g>
     </g>
    </g>
    <g id="ytick_10">
     <g id="line2d_78">
      <g>
       <use style="stroke:#000000;stroke-width:0.6;" x="90" xlink:href="#mbb48a1245e" y="263.508262"/>
      </g>
     </g>
    </g>
    <g id="ytick_11">
     <g id="line2d_79">
      <g>
       <use style="stroke:#000000;stroke-width:0.6;" x="90" xlink:href="#mbb48a1245e" y="259.69163"/>
      </g>
     </g>
    </g>
    <g id="ytick_12">
     <g id="line2d_80">
      <g>
       <use style="stroke:#000000;stroke-width:0.6;" x="90" xlink:href="#mbb48a1245e" y="233.816854"/>
      </g>
     </g>
    </g>
    <g id="ytick_13">
     <g id="line2d_81">
      <g>
       <use style="stroke:#000000;stroke-width:0.6;" x="90" xlink:href="#mbb48a1245e" y="220.678197"/>
      </g>
     </g>
    </g>
    <g id="ytick_14">
     <g id="line2d_82">
      <g>
       <use style="stroke:#000000;stroke-width:0.6;" x="90" xlink:href="#mbb48a1245e" y="211.356171"/>
      </g>
     </g>
    </g>
    <g id="ytick_15">
     <g id="line2d_83">
      <g>
       <use style="stroke:#000000;stroke-width:0.6;" x="90" xlink:href="#mbb48a1245e" y="204.125446"/>
      </g>
     </g>
    </g>
    <g id="ytick_16">
     <g id="line2d_84">
      <g>
       <use style="stroke:#000000;stroke-width:0.6;" x="90" xlink:href="#mbb48a1245e" y="198.217514"/>
      </g>
     </g>
    </g>
    <g id="ytick_17">
     <g id="line2d_85">
      <g>
       <use style="stroke:#000000;stroke-width:0.6;" x="90" xlink:href="#mbb48a1245e" y="193.222428"/>
      </g>
     </g>
    </g>
    <g id="ytick_18">
     <g id="line2d_86">
      <g>
       <use style="stroke:#000000;stroke-width:0.6;" x="90" xlink:href="#mbb48a1245e" y="188.895488"/>
      </g>
     </g>
    </g>
    <g id="ytick_19">
     <g id="line2d_87">
      <g>
       <use style="stroke:#000000;stroke-width:0.6;" x="90" xlink:href="#mbb48a1245e" y="185.078856"/>
      </g>
     </g>
    </g>
    <g id="ytick_20">
     <g id="line2d_88">
      <g>
       <use style="stroke:#000000;stroke-width:0.6;" x="90" xlink:href="#mbb48a1245e" y="159.20408"/>
      </g>
     </g>
    </g>
    <g id="ytick_21">
     <g id="line2d_89">
      <g>
       <use style="stroke:#000000;stroke-width:0.6;" x="90" xlink:href="#mbb48a1245e" y="146.065423"/>
      </g>
     </g>
    </g>
    <g id="ytick_22">
     <g id="line2d_90">
      <g>
       <use style="stroke:#000000;stroke-width:0.6;" x="90" xlink:href="#mbb48a1245e" y="136.743397"/>
      </g>
     </g>
    </g>
    <g id="ytick_23">
     <g id="line2d_91">
      <g>
       <use style="stroke:#000000;stroke-width:0.6;" x="90" xlink:href="#mbb48a1245e" y="129.512672"/>
      </g>
     </g>
    </g>
    <g id="ytick_24">
     <g id="line2d_92">
      <g>
       <use style="stroke:#000000;stroke-width:0.6;" x="90" xlink:href="#mbb48a1245e" y="123.60474"/>
      </g>
     </g>
    </g>
    <g id="ytick_25">
     <g id="line2d_93">
      <g>
       <use style="stroke:#000000;stroke-width:0.6;" x="90" xlink:href="#mbb48a1245e" y="118.609654"/>
      </g>
     </g>
    </g>
    <g id="ytick_26">
     <g id="line2d_94">
      <g>
       <use style="stroke:#000000;stroke-width:0.6;" x="90" xlink:href="#mbb48a1245e" y="114.282714"/>
      </g>
     </g>
    </g>
    <g id="ytick_27">
     <g id="line2d_95">
      <g>
       <use style="stroke:#000000;stroke-width:0.6;" x="90" xlink:href="#mbb48a1245e" y="110.466083"/>
      </g>
     </g>
    </g>
    <g id="ytick_28">
     <g id="line2d_96">
      <g>
       <use style="stroke:#000000;stroke-width:0.6;" x="90" xlink:href="#mbb48a1245e" y="84.591306"/>
      </g>
     </g>
    </g>
    <g id="ytick_29">
     <g id="line2d_97">
      <g>
       <use style="stroke:#000000;stroke-width:0.6;" x="90" xlink:href="#mbb48a1245e" y="71.452649"/>
      </g>
     </g>
    </g>
    <g id="ytick_30">
     <g id="line2d_98">
      <g>
       <use style="stroke:#000000;stroke-width:0.6;" x="90" xlink:href="#mbb48a1245e" y="62.130623"/>
      </g>
     </g>
    </g>
    <g id="ytick_31">
     <g id="line2d_99">
      <g>
       <use style="stroke:#000000;stroke-width:0.6;" x="90" xlink:href="#mbb48a1245e" y="54.899899"/>
      </g>
     </g>
    </g>
    <g id="ytick_32">
     <g id="line2d_100">
      <g>
       <use style="stroke:#000000;stroke-width:0.6;" x="90" xlink:href="#mbb48a1245e" y="48.991966"/>
      </g>
     </g>
    </g>
    <g id="ytick_33">
     <g id="line2d_101">
      <g>
       <use style="stroke:#000000;stroke-width:0.6;" x="90" xlink:href="#mbb48a1245e" y="43.996881"/>
      </g>
     </g>
    </g>
   </g>
   <g id="line2d_102">
    <path clip-path="url(#p45694e05f5)" d="M 94.234957 361 
L 94.237975 201.65425 
L 95.650633 187.501151 
L 97.063291 182.858847 
L 99.888608 180.663778 
L 101.301266 181.611037 
L 102.713924 180.971162 
L 104.126582 183.839747 
L 105.539241 186.273305 
L 106.951899 187.432391 
L 108.364557 190.860375 
L 109.777215 193.466902 
L 111.189873 196.488491 
L 112.602532 197.915947 
L 114.01519 201.488362 
L 116.840506 207.770106 
L 119.665823 213.448174 
L 121.078481 215.61443 
L 122.491139 218.239786 
L 125.316456 224.161367 
L 129.55443 230.337839 
L 130.967089 232.755729 
L 133.792405 236.219727 
L 135.205063 237.48017 
L 136.617722 239.008353 
L 138.03038 240.058311 
L 139.443038 241.281115 
L 142.268354 243.113073 
L 145.093671 244.130353 
L 146.506329 244.014492 
L 147.918987 244.446771 
L 149.331646 244.458852 
L 150.744304 244.211531 
L 152.156962 243.533718 
L 153.56962 243.026367 
L 154.982278 242.130736 
L 156.394937 241.088543 
L 157.807595 239.816159 
L 160.632911 236.595281 
L 163.458228 232.680906 
L 167.696203 225.520843 
L 170.521519 220.115849 
L 176.172152 208.22542 
L 180.410127 199.235419 
L 184.648101 190.674215 
L 187.473418 185.385727 
L 190.298734 180.487225 
L 193.124051 175.974228 
L 195.949367 171.804101 
L 200.187342 166.048529 
L 212.901266 149.622178 
L 217.139241 143.496098 
L 221.377215 136.854614 
L 229.853165 123.269855 
L 232.678481 119.278987 
L 235.503797 115.86713 
L 236.916456 114.42729 
L 238.329114 113.183287 
L 239.741772 112.14552 
L 241.15443 111.322089 
L 242.567089 110.718307 
L 243.979747 110.337254 
L 245.392405 110.178783 
L 246.805063 110.239281 
L 248.217722 110.512423 
L 249.63038 110.98906 
L 251.043038 111.656952 
L 252.455696 112.501864 
L 253.868354 113.508598 
L 256.693671 115.94424 
L 259.518987 118.830995 
L 262.344304 122.03482 
L 273.64557 135.452292 
L 276.470886 138.332508 
L 279.296203 140.762857 
L 280.708861 141.765063 
L 282.121519 142.600242 
L 283.534177 143.250933 
L 284.946835 143.700649 
L 286.359494 143.934138 
L 287.772152 143.936702 
L 289.18481 143.69293 
L 290.597468 143.188238 
L 292.010127 142.411619 
L 293.422785 141.358083 
L 294.835443 140.029229 
L 296.248101 138.434276 
L 297.660759 136.590051 
L 300.486076 132.254768 
L 303.311392 127.285959 
L 311.787342 111.750559 
L 314.612658 107.244642 
L 317.437975 103.349182 
L 318.850633 101.655607 
L 320.263291 100.13763 
L 321.675949 98.795983 
L 323.088608 97.630907 
L 324.501266 96.643303 
L 325.913924 95.83481 
L 327.326582 95.207646 
L 328.739241 94.763503 
L 330.151899 94.503285 
L 331.564557 94.42685 
L 332.977215 94.53339 
L 334.389873 94.822241 
L 335.802532 95.29275 
L 337.21519 95.943731 
L 338.627848 96.773271 
L 340.040506 97.77825 
L 341.453165 98.953988 
L 342.865823 100.294333 
L 345.691139 103.438563 
L 348.516456 107.144372 
L 351.341772 111.339209 
L 354.167089 115.947925 
L 358.405063 123.462716 
L 364.055696 134.126347 
L 371.118987 147.437851 
L 375.356962 154.837422 
L 378.182278 159.326238 
L 381.007595 163.365959 
L 383.832911 166.87763 
L 386.658228 169.790096 
L 388.070886 171.003199 
L 389.483544 172.046677 
L 390.896203 172.916083 
L 392.308861 173.607875 
L 393.721519 174.119883 
L 395.134177 174.451755 
L 396.546835 174.604775 
L 397.959494 174.581756 
L 399.372152 174.387788 
L 400.78481 174.031788 
L 402.197468 173.525655 
L 403.610127 172.882412 
L 406.435443 171.240191 
L 409.260759 169.223557 
L 413.498734 165.796573 
L 419.149367 161.169126 
L 421.974684 159.090632 
L 424.8 157.267687 
L 427.625316 155.735733 
L 430.450633 154.499233 
L 433.275949 153.540366 
L 436.101266 152.79781 
L 445.989873 150.556007 
L 448.81519 149.521628 
L 450.227848 148.852882 
L 451.640506 148.061053 
L 453.053165 147.130377 
L 454.465823 146.046687 
L 455.878481 144.798579 
L 457.291139 143.378236 
L 460.116456 140.022735 
L 462.941772 136.04095 
L 465.767089 131.56041 
L 475.655696 115.044836 
L 478.481013 111.024209 
L 481.306329 107.580903 
L 484.131646 104.748815 
L 486.956962 102.483284 
L 489.782278 100.671476 
L 492.607595 99.177397 
L 502.496203 94.422759 
L 505.321519 92.731283 
L 508.146835 90.799827 
L 512.38481 87.546794 
L 519.448101 81.967938 
L 522.273418 80.029525 
L 525.098734 78.425478 
L 527.924051 77.219522 
L 530.749367 76.429465 
L 533.574684 76.028506 
L 536.4 75.96985 
L 539.225316 76.201673 
L 542.050633 76.675028 
L 544.875949 77.341906 
L 549.113924 78.637853 
L 551.939241 79.687716 
L 554.764557 80.911509 
L 557.589873 82.357767 
L 560.41519 84.087881 
L 563.240506 86.181158 
L 566.065823 88.714235 
L 568.891139 91.759486 
L 571.716456 95.366355 
L 574.541772 99.555458 
L 577.367089 104.318006 
L 580.192405 109.618055 
L 583.017722 115.402298 
L 585.843038 121.604693 
L 590.081013 131.53562 
L 595.731646 145.579997 
L 621.159494 210.137138 
L 629.635443 230.654012 
L 636.698734 247.161463 
L 642.349367 259.776276 
L 646.587342 268.74248 
L 648 271.60185 
L 648 271.60185 
" style="fill:none;stroke:#008000;stroke-linecap:square;stroke-width:1.5;"/>
   </g>
   <g id="line2d_103">
    <path clip-path="url(#p45694e05f5)" d="M 90 112.254598 
L 91.412658 295.077893 
L 92.825316 209.168065 
L 94.237975 188.609817 
L 95.650633 187.788657 
L 99.888608 200.50733 
L 102.713924 207.391044 
L 105.539241 213.873536 
L 108.364557 219.850677 
L 111.189873 225.318701 
L 114.01519 230.235674 
L 118.253165 237.089065 
L 121.078481 240.450103 
L 123.903797 243.410933 
L 125.316456 244.638289 
L 126.729114 245.695074 
L 128.141772 246.578184 
L 129.55443 247.303138 
L 130.967089 247.866246 
L 132.379747 248.247709 
L 133.792405 248.444629 
L 135.205063 248.472447 
L 136.617722 248.329794 
L 138.03038 247.99868 
L 139.443038 247.446728 
L 140.855696 246.666604 
L 142.268354 245.698022 
L 143.681013 244.56282 
L 145.093671 243.254069 
L 146.506329 241.75748 
L 149.331646 238.234277 
L 152.156962 234.065068 
L 154.982278 229.248583 
L 157.807595 223.863166 
L 160.632911 218.028253 
L 164.870886 208.696714 
L 171.934177 192.910393 
L 174.759494 187.108017 
L 177.58481 181.728697 
L 180.410127 176.821749 
L 183.235443 172.40287 
L 186.060759 168.41077 
L 190.298734 162.978917 
L 195.949367 156.227384 
L 200.187342 151.022477 
L 204.425316 145.314843 
L 207.250633 141.150909 
L 210.075949 136.707443 
L 214.313924 129.563868 
L 219.964557 120.013389 
L 222.789873 115.800256 
L 224.202532 113.912791 
L 225.61519 112.220919 
L 227.027848 110.762468 
L 228.440506 109.542795 
L 229.853165 108.583988 
L 231.265823 107.909425 
L 232.678481 107.507854 
L 234.091139 107.369617 
L 235.503797 107.511764 
L 236.916456 107.934363 
L 238.329114 108.624186 
L 239.741772 109.578214 
L 241.15443 110.773499 
L 242.567089 112.179131 
L 245.392405 115.516055 
L 248.217722 119.317404 
L 253.868354 127.540636 
L 258.106329 133.572611 
L 260.931646 137.264312 
L 263.756962 140.593463 
L 266.582278 143.400752 
L 267.994937 144.573304 
L 269.407595 145.561325 
L 270.820253 146.34652 
L 272.232911 146.926184 
L 273.64557 147.300098 
L 275.058228 147.42581 
L 276.470886 147.278602 
L 277.883544 146.870192 
L 279.296203 146.206929 
L 280.708861 145.282453 
L 282.121519 144.09778 
L 283.534177 142.643897 
L 284.946835 140.89496 
L 286.359494 138.85975 
L 287.772152 136.571452 
L 290.597468 131.378488 
L 293.422785 125.614507 
L 299.073418 113.728494 
L 301.898734 108.302269 
L 304.724051 103.526862 
L 306.136709 101.436026 
L 307.549367 99.567782 
L 308.962025 97.900192 
L 310.374684 96.440305 
L 311.787342 95.210463 
L 313.2 94.195537 
L 314.612658 93.388031 
L 316.025316 92.774112 
L 317.437975 92.344686 
L 318.850633 92.110748 
L 320.263291 92.082933 
L 321.675949 92.274285 
L 323.088608 92.688666 
L 324.501266 93.317693 
L 325.913924 94.159798 
L 327.326582 95.205461 
L 328.739241 96.454017 
L 330.151899 97.912873 
L 331.564557 99.582416 
L 332.977215 101.455578 
L 335.802532 105.769841 
L 338.627848 110.710897 
L 341.453165 116.134569 
L 345.691139 124.970432 
L 351.341772 137.497552 
L 355.579747 146.811732 
L 359.817722 155.565514 
L 362.643038 160.926331 
L 365.468354 165.733912 
L 368.293671 169.872232 
L 369.706329 171.650739 
L 371.118987 173.250577 
L 372.531646 174.679657 
L 373.944304 175.932153 
L 375.356962 176.992446 
L 376.76962 177.842773 
L 378.182278 178.487866 
L 379.594937 178.938199 
L 381.007595 179.199747 
L 382.420253 179.275165 
L 383.832911 179.172189 
L 385.24557 178.902765 
L 386.658228 178.46451 
L 388.070886 177.862526 
L 389.483544 177.109486 
L 392.308861 175.201997 
L 395.134177 172.832473 
L 399.372152 168.826862 
L 407.848101 160.510633 
L 410.673418 158.107491 
L 413.498734 156.050226 
L 416.324051 154.43679 
L 419.149367 153.188406 
L 421.974684 152.318295 
L 424.8 151.735673 
L 429.037975 151.270596 
L 433.275949 150.735809 
L 436.101266 150.153537 
L 438.926582 149.180186 
L 440.339241 148.514935 
L 441.751899 147.699971 
L 443.164557 146.712233 
L 444.577215 145.541474 
L 445.989873 144.191666 
L 447.402532 142.650869 
L 448.81519 140.909624 
L 451.640506 136.844659 
L 454.465823 132.123873 
L 458.703797 124.378856 
L 462.941772 116.47211 
L 465.767089 111.611136 
L 468.592405 107.386118 
L 470.005063 105.576463 
L 471.417722 103.968357 
L 472.83038 102.55124 
L 474.243038 101.324797 
L 475.655696 100.290891 
L 477.068354 99.433058 
L 478.481013 98.726663 
L 481.306329 97.638219 
L 489.782278 94.739285 
L 492.607595 93.390541 
L 495.432911 91.671744 
L 498.258228 89.599231 
L 501.083544 87.240147 
L 509.559494 79.890571 
L 512.38481 77.816547 
L 513.797468 76.932332 
L 515.210127 76.198348 
L 516.622785 75.616688 
L 518.035443 75.16545 
L 519.448101 74.842156 
L 520.860759 74.656469 
L 522.273418 74.606094 
L 525.098734 74.821719 
L 527.924051 75.333918 
L 530.749367 76.073122 
L 534.987342 77.493752 
L 540.637975 79.758933 
L 544.875949 81.759024 
L 547.701266 83.35896 
L 550.526582 85.321771 
L 553.351899 87.723553 
L 554.764557 89.134456 
L 556.177215 90.72518 
L 557.589873 92.493242 
L 559.002532 94.439427 
L 560.41519 96.583763 
L 561.827848 98.948359 
L 564.653165 104.321633 
L 567.478481 110.489671 
L 570.303797 117.385259 
L 573.129114 124.867188 
L 577.367089 136.916121 
L 583.017722 153.900365 
L 598.556962 201.402011 
L 604.207595 217.741798 
L 608.44557 229.44242 
L 612.683544 240.630111 
L 618.334177 254.837103 
L 622.572152 264.846371 
L 625.397468 271.077583 
L 628.222785 276.868868 
L 631.048101 282.1683 
L 633.873418 287.024682 
L 636.698734 291.393719 
L 639.524051 295.185651 
L 642.349367 298.282527 
L 645.174684 300.841398 
L 646.587342 301.845039 
L 648 302.645455 
L 648 302.645455 
" style="fill:none;stroke:#0000ff;stroke-linecap:square;stroke-width:1.5;"/>
   </g>
   <g id="line2d_104">
    <path clip-path="url(#p45694e05f5)" d="M 104.122763 361 
L 104.126582 159.20408 
L 105.539241 146.065423 
L 106.951899 181.664763 
L 106.955294 361 
M 111.186054 361 
L 111.189873 159.20408 
L 111.193693 361 
M 123.900402 361 
L 123.903797 181.664763 
L 123.907193 361 
M 138.02656 361 
L 138.03038 159.20408 
L 138.034199 361 
M 177.581415 361 
L 177.58481 181.664763 
L 178.997468 181.664763 
L 180.410127 159.20408 
L 181.822785 181.664763 
L 181.82618 361 
M 187.468679 361 
L 187.473418 110.466083 
L 187.478157 361 
M 190.294915 361 
L 190.298734 159.20408 
L 190.302554 361 
M 195.945124 361 
L 195.949367 136.743397 
L 195.95361 361 
M 198.771288 361 
L 198.774684 181.664763 
L 200.187342 159.20408 
L 201.6 123.60474 
L 203.012658 159.20408 
L 203.016478 361 
M 205.834579 361 
L 205.837975 181.664763 
L 207.250633 181.664763 
L 208.663291 159.20408 
L 208.667111 361 
M 211.484364 361 
L 211.488608 136.743397 
L 212.901266 136.743397 
L 214.313924 159.20408 
L 215.726582 159.20408 
L 217.139241 146.065423 
L 218.551899 159.20408 
L 221.377215 159.20408 
L 222.789873 181.664763 
L 224.202532 181.664763 
L 225.61519 159.20408 
L 227.027848 114.282714 
L 228.440506 129.512672 
L 229.853165 136.743397 
L 231.265823 98.55036 
L 232.678481 118.609654 
L 234.091139 123.60474 
L 235.503797 123.60474 
L 236.916456 107.051989 
L 238.329114 123.60474 
L 239.741772 107.051989 
L 241.15443 91.822031 
L 242.567089 107.051989 
L 243.979747 129.512672 
L 245.392405 101.144057 
L 246.805063 89.857556 
L 248.217722 101.144057 
L 249.63038 101.144057 
L 251.043038 76.089677 
L 252.455696 107.051989 
L 253.868354 129.512672 
L 255.281013 129.512672 
L 256.693671 110.466083 
L 258.106329 129.512672 
L 260.931646 129.512672 
L 262.344304 136.743397 
L 263.756962 129.512672 
L 265.16962 181.664763 
L 266.582278 114.282714 
L 267.994937 129.512672 
L 269.407595 136.743397 
L 270.820253 118.609654 
L 272.232911 146.065423 
L 273.64557 181.664763 
L 275.058228 159.20408 
L 276.470886 118.609654 
L 277.883544 129.512672 
L 279.296203 136.743397 
L 280.708861 136.743397 
L 282.121519 146.065423 
L 283.534177 181.664763 
L 284.946835 146.065423 
L 286.359494 146.065423 
L 287.772152 136.743397 
L 290.597468 181.664763 
L 292.010127 181.664763 
L 292.013522 361 
M 294.831376 361 
L 294.835443 146.065423 
L 296.248101 181.664763 
L 296.251497 361 
M 299.06935 361 
L 299.073418 146.065423 
L 300.486076 136.743397 
L 301.898734 181.664763 
L 303.311392 146.065423 
L 304.724051 103.963566 
L 306.136709 114.282714 
L 307.549367 118.609654 
L 308.962025 98.55036 
L 310.374684 86.25341 
L 311.787342 103.963566 
L 313.2 181.664763 
L 314.612658 98.55036 
L 316.025316 98.55036 
L 317.437975 110.466083 
L 318.850633 101.144057 
L 320.263291 76.089677 
L 321.675949 103.963566 
L 323.088608 101.144057 
L 324.501266 146.065423 
L 325.913924 103.963566 
L 327.326582 81.502883 
L 328.739241 93.913332 
L 330.151899 101.144057 
L 331.564557 123.60474 
L 332.977215 110.466083 
L 334.389873 118.609654 
L 335.802532 129.512672 
L 337.21519 73.688288 
L 338.627848 77.360582 
L 340.040506 71.452649 
L 341.453165 69.361348 
L 342.865823 107.051989 
L 344.278481 159.20408 
L 345.691139 181.664763 
L 347.103797 123.60474 
L 348.516456 107.051989 
L 349.929114 91.822031 
L 351.341772 96.148971 
L 352.75443 159.20408 
L 354.167089 129.512672 
L 355.579747 159.20408 
L 356.992405 89.857556 
L 358.405063 114.282714 
L 359.817722 101.144057 
L 361.23038 129.512672 
L 361.234759 361 
M 364.051316 361 
L 364.055696 129.512672 
L 365.468354 159.20408 
L 366.881013 136.743397 
L 368.293671 118.609654 
L 369.706329 181.664763 
L 371.118987 129.512672 
L 372.531646 181.664763 
L 372.535041 361 
M 375.353567 361 
L 375.356962 181.664763 
L 375.360357 361 
M 378.178883 361 
L 378.182278 181.664763 
L 379.594937 181.664763 
L 381.007595 159.20408 
L 381.011414 361 
M 383.829516 361 
L 383.832911 181.664763 
L 385.24557 159.20408 
L 386.658228 159.20408 
L 386.662047 361 
M 389.479725 361 
L 389.483544 159.20408 
L 390.896203 159.20408 
L 390.900022 361 
M 395.13011 361 
L 395.134177 146.065423 
L 396.546835 181.664763 
L 396.550231 361 
M 399.368757 361 
L 399.372152 181.664763 
L 399.375547 361 
M 403.606059 361 
L 403.610127 146.065423 
L 405.022785 159.20408 
L 405.026604 361 
M 407.844706 361 
L 407.848101 181.664763 
L 409.260759 181.664763 
L 410.673418 159.20408 
L 412.086076 181.664763 
L 412.089471 361 
M 416.320231 361 
L 416.324051 159.20408 
L 417.736709 146.065423 
L 419.149367 110.466083 
L 420.562025 146.065423 
L 421.974684 159.20408 
L 423.387342 159.20408 
L 424.8 181.664763 
L 427.625316 181.664763 
L 429.037975 136.743397 
L 430.450633 146.065423 
L 431.863291 129.512672 
L 433.275949 136.743397 
L 434.688608 181.664763 
L 436.101266 159.20408 
L 437.513924 146.065423 
L 438.926582 146.065423 
L 440.339241 118.609654 
L 441.751899 181.664763 
L 443.164557 146.065423 
L 444.577215 181.664763 
L 445.989873 136.743397 
L 448.81519 181.664763 
L 450.227848 159.20408 
L 451.640506 181.664763 
L 453.053165 146.065423 
L 453.057232 361 
M 455.875086 361 
L 455.878481 181.664763 
L 457.291139 118.609654 
L 457.295725 361 
M 461.525719 361 
L 461.529114 181.664763 
L 462.941772 136.743397 
L 465.767089 181.664763 
L 467.179747 110.466083 
L 468.592405 181.664763 
L 470.005063 123.60474 
L 471.417722 129.512672 
L 472.83038 118.609654 
L 474.243038 101.144057 
L 475.655696 103.963566 
L 477.068354 91.822031 
L 478.481013 107.051989 
L 479.893671 123.60474 
L 481.306329 96.148971 
L 482.718987 146.065423 
L 484.131646 66.457564 
L 485.544304 86.25341 
L 486.956962 118.609654 
L 488.36962 107.051989 
L 489.782278 91.822031 
L 492.607595 110.466083 
L 494.020253 91.822031 
L 495.432911 96.148971 
L 496.84557 118.609654 
L 498.258228 114.282714 
L 499.670886 114.282714 
L 501.083544 118.609654 
L 502.496203 103.963566 
L 503.908861 101.144057 
L 505.321519 89.857556 
L 506.734177 84.591306 
L 508.146835 103.963566 
L 509.559494 89.857556 
L 510.972152 181.664763 
L 512.38481 96.148971 
L 513.797468 96.148971 
L 515.210127 89.857556 
L 516.622785 61.330486 
L 518.035443 103.963566 
L 519.448101 107.051989 
L 520.860759 72.551192 
L 522.273418 57.601789 
L 523.686076 93.913332 
L 525.098734 55.554545 
L 526.511392 73.688288 
L 527.924051 77.360582 
L 529.336709 98.55036 
L 530.749367 68.364226 
L 532.162025 71.452649 
L 533.574684 89.857556 
L 534.987342 58.313992 
L 536.4 62.95102 
L 537.812658 81.502883 
L 539.225316 114.282714 
L 540.637975 76.089677 
L 542.050633 86.25341 
L 543.463291 81.502883 
L 544.875949 70.390131 
L 546.288608 77.360582 
L 547.701266 91.822031 
L 549.113924 93.913332 
L 550.526582 68.364226 
L 551.939241 96.148971 
L 553.351899 96.148971 
L 554.764557 84.591306 
L 556.177215 91.822031 
L 557.589873 83.010314 
L 559.002532 103.963566 
L 560.41519 86.25341 
L 561.827848 103.963566 
L 563.240506 77.360582 
L 564.653165 73.688288 
L 566.065823 84.591306 
L 567.478481 114.282714 
L 568.891139 86.25341 
L 570.303797 86.25341 
L 571.716456 93.913332 
L 573.129114 114.282714 
L 574.541772 63.792727 
L 577.367089 123.60474 
L 578.779747 77.360582 
L 580.192405 110.466083 
L 580.197144 361 
M 583.012631 361 
L 583.017722 91.822031 
L 584.43038 110.466083 
L 585.843038 103.963566 
L 587.255696 159.20408 
L 588.668354 181.664763 
L 590.081013 136.743397 
L 591.493671 181.664763 
L 592.906329 129.512672 
L 594.318987 181.664763 
L 595.731646 123.60474 
L 597.144304 136.743397 
L 598.556962 181.664763 
L 599.96962 181.664763 
L 599.973016 361 
M 604.2042 361 
L 604.207595 181.664763 
L 604.21099 361 
M 608.442174 361 
L 608.44557 181.664763 
L 609.858228 181.664763 
L 609.861623 361 
M 612.679477 361 
L 612.683544 146.065423 
L 614.096203 159.20408 
L 614.100022 361 
M 622.568757 361 
L 622.572152 181.664763 
L 622.575547 361 
M 625.393649 361 
L 625.397468 159.20408 
L 625.401288 361 
M 633.870022 361 
L 633.873418 181.664763 
L 633.876813 361 
M 647.996605 361 
L 648 181.664763 
L 648 181.664763 
" style="fill:none;stroke:#ff0000;stroke-linecap:square;stroke-opacity:0.7;stroke-width:1.5;"/>
   </g>
   <g id="patch_3">
    <path d="M 90 315 
L 90 43.2 
" style="fill:none;stroke:#000000;stroke-linecap:square;stroke-linejoin:miter;stroke-width:0.8;"/>
   </g>
   <g id="patch_4">
    <path d="M 648 315 
L 648 43.2 
" style="fill:none;stroke:#000000;stroke-linecap:square;stroke-linejoin:miter;stroke-width:0.8;"/>
   </g>
   <g id="patch_5">
    <path d="M 90 315 
L 648 315 
" style="fill:none;stroke:#000000;stroke-linecap:square;stroke-linejoin:miter;stroke-width:0.8;"/>
   </g>
   <g id="patch_6">
    <path d="M 90 43.2 
L 648 43.2 
" style="fill:none;stroke:#000000;stroke-linecap:square;stroke-linejoin:miter;stroke-width:0.8;"/>
   </g>
   <g id="text_18">
    <!-- 625  -->
    <g transform="translate(337.189687 37.2)scale(0.12 -0.12)">
     <defs>
      <path d="M 33.015625 40.375 
Q 26.375 40.375 22.484375 35.828125 
Q 18.609375 31.296875 18.609375 23.390625 
Q 18.609375 15.53125 22.484375 10.953125 
Q 26.375 6.390625 33.015625 6.390625 
Q 39.65625 6.390625 43.53125 10.953125 
Q 47.40625 15.53125 47.40625 23.390625 
Q 47.40625 31.296875 43.53125 35.828125 
Q 39.65625 40.375 33.015625 40.375 
z
M 52.59375 71.296875 
L 52.59375 62.3125 
Q 48.875 64.0625 45.09375 64.984375 
Q 41.3125 65.921875 37.59375 65.921875 
Q 27.828125 65.921875 22.671875 59.328125 
Q 17.53125 52.734375 16.796875 39.40625 
Q 19.671875 43.65625 24.015625 45.921875 
Q 28.375 48.1875 33.59375 48.1875 
Q 44.578125 48.1875 50.953125 41.515625 
Q 57.328125 34.859375 57.328125 23.390625 
Q 57.328125 12.15625 50.6875 5.359375 
Q 44.046875 -1.421875 33.015625 -1.421875 
Q 20.359375 -1.421875 13.671875 8.265625 
Q 6.984375 17.96875 6.984375 36.375 
Q 6.984375 53.65625 15.1875 63.9375 
Q 23.390625 74.21875 37.203125 74.21875 
Q 40.921875 74.21875 44.703125 73.484375 
Q 48.484375 72.75 52.59375 71.296875 
z
" id="DejaVuSans-54"/>
      <path d="M 10.796875 72.90625 
L 49.515625 72.90625 
L 49.515625 64.59375 
L 19.828125 64.59375 
L 19.828125 46.734375 
Q 21.96875 47.46875 24.109375 47.828125 
Q 26.265625 48.1875 28.421875 48.1875 
Q 40.625 48.1875 47.75 41.5 
Q 54.890625 34.8125 54.890625 23.390625 
Q 54.890625 11.625 47.5625 5.09375 
Q 40.234375 -1.421875 26.90625 -1.421875 
Q 22.3125 -1.421875 17.546875 -0.640625 
Q 12.796875 0.140625 7.71875 1.703125 
L 7.71875 11.625 
Q 12.109375 9.234375 16.796875 8.0625 
Q 21.484375 6.890625 26.703125 6.890625 
Q 35.15625 6.890625 40.078125 11.328125 
Q 45.015625 15.765625 45.015625 23.390625 
Q 45.015625 31 40.078125 35.4375 
Q 35.15625 39.890625 26.703125 39.890625 
Q 22.75 39.890625 18.8125 39.015625 
Q 14.890625 38.140625 10.796875 36.28125 
z
" id="DejaVuSans-53"/>
      <path id="DejaVuSans-32"/>
      <path d="M 19.140625 33.40625 
L 19.140625 0 
L 10.109375 0 
L 10.109375 29.6875 
z
M 56.25 27.828125 
L 56.25 0 
L 47.21875 0 
L 47.21875 29.6875 
Q 47.21875 40.234375 44.0625 43.96875 
Q 40.921875 47.703125 31.84375 47.703125 
L 9.078125 47.703125 
L 9.078125 54.6875 
L 31.734375 54.6875 
Q 45.265625 54.6875 50.75 48.578125 
Q 56.25 42.484375 56.25 27.828125 
z
" id="DejaVuSans-1492"/>
      <path d="M 36.328125 6.984375 
L 36.328125 29.59375 
Q 36.328125 33.25 36.0625 35.671875 
Q 35.796875 38.09375 34.859375 40.578125 
Q 33.9375 43.0625 32.25 44.484375 
Q 30.5625 45.90625 27.609375 46.796875 
Q 24.65625 47.703125 20.40625 47.703125 
L 4.296875 47.703125 
L 4.296875 54.6875 
L 20.40625 54.6875 
Q 26.421875 54.6875 30.734375 53.5625 
Q 35.0625 52.4375 37.890625 50.359375 
Q 40.71875 48.296875 42.40625 44.890625 
Q 44.09375 41.5 44.75 37.453125 
Q 45.40625 33.40625 45.40625 27.828125 
L 45.40625 6.984375 
L 53.515625 6.984375 
L 53.515625 0 
L 4.296875 0 
L 4.296875 6.984375 
z
" id="DejaVuSans-1489"/>
      <path d="M 47.359375 27.828125 
L 47.359375 0 
L 38.28125 0 
L 38.28125 27.828125 
Q 38.28125 31.390625 37.765625 34.265625 
Q 37.25 37.15625 36 39.71875 
Q 34.765625 42.28125 32.8125 43.984375 
Q 30.859375 45.703125 27.78125 46.703125 
Q 24.703125 47.703125 20.703125 47.703125 
L 4.296875 47.703125 
L 4.296875 54.6875 
L 20.65625 54.6875 
Q 26.8125 54.6875 31.46875 53.390625 
Q 36.140625 52.09375 39.109375 49.828125 
Q 42.09375 47.5625 43.96875 44.109375 
Q 45.84375 40.671875 46.59375 36.734375 
Q 47.359375 32.8125 47.359375 27.828125 
z
" id="DejaVuSans-1512"/>
      <path d="M 44.140625 40.828125 
L 44.140625 54.6875 
L 53.515625 54.6875 
L 53.515625 40.828125 
Q 53.515625 35.0625 53.046875 30.71875 
Q 52.59375 26.375 51.390625 22.09375 
Q 50.203125 17.828125 48.046875 14.5 
Q 45.90625 11.1875 42.578125 8.078125 
Q 39.265625 4.984375 34.515625 2.390625 
Q 29.78125 -0.203125 23.4375 -2.484375 
L 4.6875 -9.28125 
L 4.6875 -1.03125 
L 18.953125 4.046875 
L 4.296875 54.6875 
L 13.765625 54.6875 
L 27.25 7.125 
Q 33.6875 9.90625 37.203125 13.5625 
Q 40.71875 17.234375 42.421875 23.671875 
Q 44.140625 30.125 44.140625 40.828125 
z
" id="DejaVuSans-1506"/>
     </defs>
     <use xlink:href="#DejaVuSans-54"/>
     <use x="63.623047" xlink:href="#DejaVuSans-50"/>
     <use x="127.246094" xlink:href="#DejaVuSans-53"/>
     <use x="190.869141" xlink:href="#DejaVuSans-32"/>
     <use x="222.65625" xlink:href="#DejaVuSans-1492"/>
     <use x="287.988281" xlink:href="#DejaVuSans-1489"/>
     <use x="345.800781" xlink:href="#DejaVuSans-1512"/>
     <use x="402.246094" xlink:href="#DejaVuSans-1506"/>
     <use x="464.84375" xlink:href="#DejaVuSans-1492"/>
    </g>
   </g>
   <g id="legend_1">
    <g id="patch_7">
     <path d="M 97 95.234375 
L 221.582812 95.234375 
Q 223.582812 95.234375 223.582812 93.234375 
L 223.582812 50.2 
Q 223.582812 48.2 221.582812 48.2 
L 97 48.2 
Q 95 48.2 95 50.2 
L 95 93.234375 
Q 95 95.234375 97 95.234375 
z
" style="fill:#ffffff;opacity:0.8;stroke:#cccccc;stroke-linejoin:miter;"/>
    </g>
    <g id="line2d_105">
     <path d="M 99 56.298437 
L 119 56.298437 
" style="fill:none;stroke:#008000;stroke-linecap:square;stroke-width:1.5;"/>
    </g>
    <g id="line2d_106"/>
    <g id="text_19">
     <!-- Test-adjusted -->
     <g transform="translate(127 59.798437)scale(0.1 -0.1)">
      <defs>
       <path d="M -0.296875 72.90625 
L 61.375 72.90625 
L 61.375 64.59375 
L 35.5 64.59375 
L 35.5 0 
L 25.59375 0 
L 25.59375 64.59375 
L -0.296875 64.59375 
z
" id="DejaVuSans-84"/>
       <path d="M 44.28125 53.078125 
L 44.28125 44.578125 
Q 40.484375 46.53125 36.375 47.5 
Q 32.28125 48.484375 27.875 48.484375 
Q 21.1875 48.484375 17.84375 46.4375 
Q 14.5 44.390625 14.5 40.28125 
Q 14.5 37.15625 16.890625 35.375 
Q 19.28125 33.59375 26.515625 31.984375 
L 29.59375 31.296875 
Q 39.15625 29.25 43.1875 25.515625 
Q 47.21875 21.78125 47.21875 15.09375 
Q 47.21875 7.46875 41.1875 3.015625 
Q 35.15625 -1.421875 24.609375 -1.421875 
Q 20.21875 -1.421875 15.453125 -0.5625 
Q 10.6875 0.296875 5.421875 2 
L 5.421875 11.28125 
Q 10.40625 8.6875 15.234375 7.390625 
Q 20.0625 6.109375 24.8125 6.109375 
Q 31.15625 6.109375 34.5625 8.28125 
Q 37.984375 10.453125 37.984375 14.40625 
Q 37.984375 18.0625 35.515625 20.015625 
Q 33.0625 21.96875 24.703125 23.78125 
L 21.578125 24.515625 
Q 13.234375 26.265625 9.515625 29.90625 
Q 5.8125 33.546875 5.8125 39.890625 
Q 5.8125 47.609375 11.28125 51.796875 
Q 16.75 56 26.8125 56 
Q 31.78125 56 36.171875 55.265625 
Q 40.578125 54.546875 44.28125 53.078125 
z
" id="DejaVuSans-115"/>
       <path d="M 4.890625 31.390625 
L 31.203125 31.390625 
L 31.203125 23.390625 
L 4.890625 23.390625 
z
" id="DejaVuSans-45"/>
       <path d="M 9.421875 54.6875 
L 18.40625 54.6875 
L 18.40625 -0.984375 
Q 18.40625 -11.421875 14.421875 -16.109375 
Q 10.453125 -20.796875 1.609375 -20.796875 
L -1.8125 -20.796875 
L -1.8125 -13.1875 
L 0.59375 -13.1875 
Q 5.71875 -13.1875 7.5625 -10.8125 
Q 9.421875 -8.453125 9.421875 -0.984375 
z
M 9.421875 75.984375 
L 18.40625 75.984375 
L 18.40625 64.59375 
L 9.421875 64.59375 
z
" id="DejaVuSans-106"/>
      </defs>
      <use xlink:href="#DejaVuSans-84"/>
      <use x="44.083984" xlink:href="#DejaVuSans-101"/>
      <use x="105.607422" xlink:href="#DejaVuSans-115"/>
      <use x="157.707031" xlink:href="#DejaVuSans-116"/>
      <use x="196.916016" xlink:href="#DejaVuSans-45"/>
      <use x="233" xlink:href="#DejaVuSans-97"/>
      <use x="294.279297" xlink:href="#DejaVuSans-100"/>
      <use x="357.755859" xlink:href="#DejaVuSans-106"/>
      <use x="385.539062" xlink:href="#DejaVuSans-117"/>
      <use x="448.917969" xlink:href="#DejaVuSans-115"/>
      <use x="501.017578" xlink:href="#DejaVuSans-116"/>
      <use x="540.226562" xlink:href="#DejaVuSans-101"/>
      <use x="601.75" xlink:href="#DejaVuSans-100"/>
     </g>
    </g>
    <g id="line2d_107">
     <path d="M 99 70.976562 
L 119 70.976562 
" style="fill:none;stroke:#0000ff;stroke-linecap:square;stroke-width:1.5;"/>
    </g>
    <g id="line2d_108"/>
    <g id="text_20">
     <!-- Infections -->
     <g transform="translate(127 74.476562)scale(0.1 -0.1)">
      <defs>
       <path d="M 9.8125 72.90625 
L 19.671875 72.90625 
L 19.671875 0 
L 9.8125 0 
z
" id="DejaVuSans-73"/>
       <path d="M 37.109375 75.984375 
L 37.109375 68.5 
L 28.515625 68.5 
Q 23.6875 68.5 21.796875 66.546875 
Q 19.921875 64.59375 19.921875 59.515625 
L 19.921875 54.6875 
L 34.71875 54.6875 
L 34.71875 47.703125 
L 19.921875 47.703125 
L 19.921875 0 
L 10.890625 0 
L 10.890625 47.703125 
L 2.296875 47.703125 
L 2.296875 54.6875 
L 10.890625 54.6875 
L 10.890625 58.5 
Q 10.890625 67.625 15.140625 71.796875 
Q 19.390625 75.984375 28.609375 75.984375 
z
" id="DejaVuSans-102"/>
       <path d="M 9.421875 54.6875 
L 18.40625 54.6875 
L 18.40625 0 
L 9.421875 0 
z
M 9.421875 75.984375 
L 18.40625 75.984375 
L 18.40625 64.59375 
L 9.421875 64.59375 
z
" id="DejaVuSans-105"/>
      </defs>
      <use xlink:href="#DejaVuSans-73"/>
      <use x="29.492188" xlink:href="#DejaVuSans-110"/>
      <use x="92.871094" xlink:href="#DejaVuSans-102"/>
      <use x="128.076172" xlink:href="#DejaVuSans-101"/>
      <use x="189.599609" xlink:href="#DejaVuSans-99"/>
      <use x="244.580078" xlink:href="#DejaVuSans-116"/>
      <use x="283.789062" xlink:href="#DejaVuSans-105"/>
      <use x="311.572266" xlink:href="#DejaVuSans-111"/>
      <use x="372.753906" xlink:href="#DejaVuSans-110"/>
      <use x="436.132812" xlink:href="#DejaVuSans-115"/>
     </g>
    </g>
    <g id="line2d_109">
     <path d="M 99 85.654687 
L 119 85.654687 
" style="fill:none;stroke:#ff0000;stroke-linecap:square;stroke-opacity:0.7;stroke-width:1.5;"/>
    </g>
    <g id="line2d_110"/>
    <g id="text_21">
     <!-- Reported Positives -->
     <g transform="translate(127 89.154687)scale(0.1 -0.1)">
      <defs>
       <path d="M 44.390625 34.1875 
Q 47.5625 33.109375 50.5625 29.59375 
Q 53.5625 26.078125 56.59375 19.921875 
L 66.609375 0 
L 56 0 
L 46.6875 18.703125 
Q 43.0625 26.03125 39.671875 28.421875 
Q 36.28125 30.8125 30.421875 30.8125 
L 19.671875 30.8125 
L 19.671875 0 
L 9.8125 0 
L 9.8125 72.90625 
L 32.078125 72.90625 
Q 44.578125 72.90625 50.734375 67.671875 
Q 56.890625 62.453125 56.890625 51.90625 
Q 56.890625 45.015625 53.6875 40.46875 
Q 50.484375 35.9375 44.390625 34.1875 
z
M 19.671875 64.796875 
L 19.671875 38.921875 
L 32.078125 38.921875 
Q 39.203125 38.921875 42.84375 42.21875 
Q 46.484375 45.515625 46.484375 51.90625 
Q 46.484375 58.296875 42.84375 61.546875 
Q 39.203125 64.796875 32.078125 64.796875 
z
" id="DejaVuSans-82"/>
       <path d="M 19.671875 64.796875 
L 19.671875 37.40625 
L 32.078125 37.40625 
Q 38.96875 37.40625 42.71875 40.96875 
Q 46.484375 44.53125 46.484375 51.125 
Q 46.484375 57.671875 42.71875 61.234375 
Q 38.96875 64.796875 32.078125 64.796875 
z
M 9.8125 72.90625 
L 32.078125 72.90625 
Q 44.34375 72.90625 50.609375 67.359375 
Q 56.890625 61.8125 56.890625 51.125 
Q 56.890625 40.328125 50.609375 34.8125 
Q 44.34375 29.296875 32.078125 29.296875 
L 19.671875 29.296875 
L 19.671875 0 
L 9.8125 0 
z
" id="DejaVuSans-80"/>
      </defs>
      <use xlink:href="#DejaVuSans-82"/>
      <use x="64.982422" xlink:href="#DejaVuSans-101"/>
      <use x="126.505859" xlink:href="#DejaVuSans-112"/>
      <use x="189.982422" xlink:href="#DejaVuSans-111"/>
      <use x="251.164062" xlink:href="#DejaVuSans-114"/>
      <use x="292.277344" xlink:href="#DejaVuSans-116"/>
      <use x="331.486328" xlink:href="#DejaVuSans-101"/>
      <use x="393.009766" xlink:href="#DejaVuSans-100"/>
      <use x="456.486328" xlink:href="#DejaVuSans-32"/>
      <use x="488.273438" xlink:href="#DejaVuSans-80"/>
      <use x="544.951172" xlink:href="#DejaVuSans-111"/>
      <use x="606.132812" xlink:href="#DejaVuSans-115"/>
      <use x="658.232422" xlink:href="#DejaVuSans-105"/>
      <use x="686.015625" xlink:href="#DejaVuSans-116"/>
      <use x="725.224609" xlink:href="#DejaVuSans-105"/>
      <use x="753.007812" xlink:href="#DejaVuSans-118"/>
      <use x="812.1875" xlink:href="#DejaVuSans-101"/>
      <use x="873.710938" xlink:href="#DejaVuSans-115"/>
     </g>
    </g>
   </g>
  </g>
 </g>
 <defs>
  <clipPath id="p45694e05f5">
   <rect height="271.8" width="558" x="90" y="43.2"/>
  </clipPath>
 </defs>
</svg>
