<?xml version="1.0" encoding="utf-8" standalone="no"?>
<!DOCTYPE svg PUBLIC "-//W3C//DTD SVG 1.1//EN"
  "http://www.w3.org/Graphics/SVG/1.1/DTD/svg11.dtd">
<!-- Created with matplotlib (https://matplotlib.org/) -->
<svg height="360pt" version="1.1" viewBox="0 0 720 360" width="720pt" xmlns="http://www.w3.org/2000/svg" xmlns:xlink="http://www.w3.org/1999/xlink">
 <metadata>
  <rdf:RDF xmlns:cc="http://creativecommons.org/ns#" xmlns:dc="http://purl.org/dc/elements/1.1/" xmlns:rdf="http://www.w3.org/1999/02/22-rdf-syntax-ns#">
   <cc:Work>
    <dc:type rdf:resource="http://purl.org/dc/dcmitype/StillImage"/>
    <dc:date>2021-02-14T06:01:36.110101</dc:date>
    <dc:format>image/svg+xml</dc:format>
    <dc:creator>
     <cc:Agent>
      <dc:title>Matplotlib v3.3.2, https://matplotlib.org/</dc:title>
     </cc:Agent>
    </dc:creator>
   </cc:Work>
  </rdf:RDF>
 </metadata>
 <defs>
  <style type="text/css">*{stroke-linecap:butt;stroke-linejoin:round;}</style>
 </defs>
 <g id="figure_1">
  <g id="patch_1">
   <path d="M 0 360 
L 720 360 
L 720 0 
L 0 0 
z
" style="fill:#ffffff;"/>
  </g>
  <g id="axes_1">
   <g id="patch_2">
    <path d="M 90 315 
L 648 315 
L 648 43.2 
L 90 43.2 
z
" style="fill:#ffffff;"/>
   </g>
   <g id="PolyCollection_1">
    <defs>
     <path d="M 90 -57.354545 
L 90 -126.840168 
L 91.760252 -129.198137 
L 93.520505 -124.787696 
L 95.280757 -127.130228 
L 97.041009 -123.084247 
L 98.801262 -127.907995 
L 100.561514 -124.978895 
L 102.321767 -123.713239 
L 104.082019 -128.986827 
L 105.842271 -129.041212 
L 107.602524 -123.483705 
L 109.362776 -127.438645 
L 111.123028 -131.165171 
L 112.883281 -128.014128 
L 114.643533 -131.621256 
L 116.403785 -129.775365 
L 118.164038 -130.922327 
L 119.92429 -131.033161 
L 121.684543 -131.522893 
L 123.444795 -132.450053 
L 125.205047 -134.075548 
L 126.9653 -130.91979 
L 128.725552 -132.81167 
L 130.485804 -129.349182 
L 132.246057 -130.415982 
L 134.006309 -127.451612 
L 135.766562 -128.395656 
L 137.526814 -129.472749 
L 139.287066 -128.145548 
L 141.047319 -127.660608 
L 142.807571 -126.807908 
L 144.567823 -128.23777 
L 146.328076 -129.389683 
L 148.088328 -131.492671 
L 149.84858 -131.526922 
L 151.608833 -133.650508 
L 153.369085 -127.692645 
L 155.129338 -128.440051 
L 156.88959 -132.62136 
L 158.649842 -136.547937 
L 160.410095 -133.826708 
L 162.170347 -139.212193 
L 163.930599 -141.781005 
L 165.690852 -144.288903 
L 167.451104 -141.833581 
L 169.211356 -147.263237 
L 170.971609 -150.594451 
L 172.731861 -150.47295 
L 174.492114 -153.224411 
L 176.252366 -157.115218 
L 178.012618 -159.818932 
L 179.772871 -163.071352 
L 181.533123 -167.625458 
L 183.293375 -177.138566 
L 185.053628 -180.154256 
L 186.81388 -180.519401 
L 188.574132 -184.56353 
L 190.334385 -191.103806 
L 192.094637 -196.9108 
L 193.85489 -201.421737 
L 195.615142 -203.246154 
L 197.375394 -214.94336 
L 199.135647 -222.47519 
L 200.895899 -231.730199 
L 202.656151 -228.361652 
L 204.416404 -230.922059 
L 206.176656 -240.373382 
L 207.936909 -251.577722 
L 209.697161 -251.485815 
L 211.457413 -258.764204 
L 213.217666 -270.723454 
L 214.977918 -266.138518 
L 216.73817 -276.343311 
L 218.498423 -278.241501 
L 220.258675 -288.474821 
L 222.018927 -286.312658 
L 223.77918 -294.695183 
L 225.539432 -295.417116 
L 227.299685 -297.757407 
L 229.059937 -292.977902 
L 230.820189 -302.871773 
L 232.580442 -296.573762 
L 234.340694 -299.887815 
L 236.100946 -304.445455 
L 237.861199 -299.558388 
L 239.621451 -298.591174 
L 241.381703 -293.735775 
L 243.141956 -289.752639 
L 244.902208 -286.570766 
L 246.662461 -288.707291 
L 248.422713 -282.692569 
L 250.182965 -271.852132 
L 251.943218 -271.417841 
L 253.70347 -267.649407 
L 255.463722 -259.318765 
L 257.223975 -257.414594 
L 258.984227 -252.279536 
L 260.744479 -240.983446 
L 262.504732 -242.714269 
L 264.264984 -234.560527 
L 266.025237 -230.881393 
L 267.785489 -223.307489 
L 269.545741 -222.426153 
L 271.305994 -221.024364 
L 273.066246 -219.570688 
L 274.826498 -217.235043 
L 276.586751 -215.449761 
L 278.347003 -216.511887 
L 280.107256 -216.536848 
L 281.867508 -212.189649 
L 283.62776 -206.689048 
L 285.388013 -206.947496 
L 287.148265 -203.612721 
L 288.908517 -199.723559 
L 290.66877 -197.729573 
L 292.429022 -193.839298 
L 294.189274 -192.055335 
L 295.949527 -188.429634 
L 297.709779 -188.342546 
L 299.470032 -191.659559 
L 301.230284 -191.074205 
L 302.990536 -185.24835 
L 304.750789 -188.1901 
L 306.511041 -187.620584 
L 308.271293 -187.558884 
L 310.031546 -187.270063 
L 311.791798 -187.356988 
L 313.55205 -186.479118 
L 315.312303 -183.725713 
L 317.072555 -179.733824 
L 318.832808 -178.026873 
L 320.59306 -174.583535 
L 322.353312 -172.552905 
L 324.113565 -177.03984 
L 325.873817 -173.535526 
L 327.634069 -170.338455 
L 329.394322 -169.86551 
L 331.154574 -172.117783 
L 332.914826 -169.361189 
L 334.675079 -171.44575 
L 336.435331 -172.038827 
L 338.195584 -177.225161 
L 339.955836 -180.467737 
L 341.716088 -180.245988 
L 343.476341 -183.983762 
L 345.236593 -182.610589 
L 346.996845 -186.308722 
L 348.757098 -195.820472 
L 350.51735 -199.524783 
L 352.277603 -203.066052 
L 354.037855 -202.198789 
L 355.798107 -209.542974 
L 357.55836 -209.427507 
L 359.318612 -212.108512 
L 361.078864 -218.476317 
L 362.839117 -221.859123 
L 364.599369 -220.098274 
L 366.359621 -215.852904 
L 368.119874 -215.154919 
L 369.880126 -215.208151 
L 371.640379 -203.464672 
L 373.400631 -200.957388 
L 375.160883 -190.439391 
L 376.921136 -189.355127 
L 378.681388 -176.39127 
L 380.44164 -168.936232 
L 382.201893 -160.820359 
L 383.962145 -150.359837 
L 385.722397 -142.380639 
L 387.48265 -137.442675 
L 389.242902 -125.706124 
L 391.003155 -118.641997 
L 392.763407 -114.669783 
L 394.523659 -111.03179 
L 396.283912 -105.782564 
L 398.044164 -102.292696 
L 399.804416 -100.251626 
L 401.564669 -98.708795 
L 403.324921 -98.353348 
L 405.085174 -95.547056 
L 406.845426 -95.104226 
L 408.605678 -95.649169 
L 410.365931 -94.671814 
L 412.126183 -96.375406 
L 413.886435 -96.684352 
L 415.646688 -99.181332 
L 417.40694 -101.131715 
L 419.167192 -103.245227 
L 420.927445 -106.927967 
L 422.687697 -110.200455 
L 424.44795 -110.119108 
L 426.208202 -115.491951 
L 427.968454 -117.800542 
L 429.728707 -122.192001 
L 431.488959 -127.282267 
L 433.249211 -129.931954 
L 435.009464 -135.00569 
L 436.769716 -137.577908 
L 438.529968 -140.646097 
L 440.290221 -144.807642 
L 442.050473 -149.932457 
L 443.810726 -148.700067 
L 445.570978 -151.768867 
L 447.33123 -154.841947 
L 449.091483 -156.587835 
L 450.851735 -157.703678 
L 452.611987 -157.888758 
L 454.37224 -157.264549 
L 456.132492 -158.634323 
L 457.892744 -161.033852 
L 459.652997 -157.763726 
L 461.413249 -159.955692 
L 463.173502 -160.599327 
L 464.933754 -162.860704 
L 466.694006 -160.777761 
L 468.454259 -162.984122 
L 470.214511 -161.664898 
L 471.974763 -165.664813 
L 473.735016 -165.120122 
L 475.495268 -165.684419 
L 477.255521 -166.612346 
L 479.015773 -169.987757 
L 480.776025 -173.216936 
L 482.536278 -178.522104 
L 484.29653 -175.3048 
L 486.056782 -182.540887 
L 487.817035 -187.340351 
L 489.577287 -185.997236 
L 491.337539 -186.518482 
L 493.097792 -193.67896 
L 494.858044 -188.587168 
L 496.618297 -197.232195 
L 498.378549 -194.667865 
L 500.138801 -200.622344 
L 501.899054 -201.632294 
L 503.659306 -200.452183 
L 505.419558 -203.404234 
L 507.179811 -207.95533 
L 508.940063 -207.861963 
L 510.700315 -207.145938 
L 512.460568 -205.320932 
L 514.22082 -207.409537 
L 515.981073 -202.410454 
L 517.741325 -204.339852 
L 519.501577 -198.612824 
L 521.26183 -196.71197 
L 523.022082 -194.56025 
L 524.782334 -188.120305 
L 526.542587 -183.064018 
L 528.302839 -177.086715 
L 530.063091 -172.69294 
L 531.823344 -169.937017 
L 533.583596 -167.290784 
L 535.343849 -167.165097 
L 537.104101 -162.883347 
L 538.864353 -159.997107 
L 540.624606 -158.915113 
L 542.384858 -157.281279 
L 544.14511 -156.098483 
L 545.905363 -158.402712 
L 547.665615 -156.884281 
L 549.425868 -156.623082 
L 551.18612 -157.663193 
L 552.946372 -159.348027 
L 554.706625 -161.124498 
L 556.466877 -160.79473 
L 558.227129 -158.45098 
L 559.987382 -162.696213 
L 561.747634 -158.143372 
L 563.507886 -162.771038 
L 565.268139 -161.143324 
L 567.028391 -162.536165 
L 568.788644 -158.715134 
L 570.548896 -161.024506 
L 572.309148 -158.680681 
L 574.069401 -158.618541 
L 575.829653 -155.320348 
L 577.589905 -154.595559 
L 579.350158 -151.025209 
L 581.11041 -151.262925 
L 582.870662 -149.54012 
L 584.630915 -144.853597 
L 586.391167 -137.919346 
L 588.15142 -137.262409 
L 589.911672 -133.057199 
L 591.671924 -131.506378 
L 593.432177 -129.670839 
L 595.192429 -128.457737 
L 596.952681 -122.117855 
L 598.712934 -123.447254 
L 600.473186 -121.078967 
L 602.233438 -119.61785 
L 603.993691 -120.175313 
L 605.753943 -122.094982 
L 607.514196 -120.925481 
L 609.274448 -120.844546 
L 611.0347 -122.169083 
L 612.794953 -119.385244 
L 614.555205 -121.647427 
L 616.315457 -121.444779 
L 618.07571 -121.859538 
L 619.835962 -125.080219 
L 621.596215 -123.038915 
L 623.356467 -125.497411 
L 625.116719 -127.088798 
L 626.876972 -127.746466 
L 628.637224 -128.015602 
L 630.397476 -130.81534 
L 632.157729 -131.478205 
L 633.917981 -131.071571 
L 635.678233 -131.781991 
L 637.438486 -134.434487 
L 639.198738 -138.067081 
L 640.958991 -137.169137 
L 642.719243 -137.152321 
L 644.479495 -140.758403 
L 646.239748 -136.765043 
L 648 -138.502992 
L 649.760252 -145.600582 
L 651.520505 -146.905322 
L 653.280757 -147.351637 
L 655.041009 -151.397423 
L 656.801262 -147.960688 
L 658.561514 -147.424085 
L 660.321767 -148.771924 
L 662.082019 -157.07526 
L 662.082019 -71.736581 
L 662.082019 -71.736581 
L 660.321767 -64.132407 
L 658.561514 -66.598425 
L 656.801262 -68.288038 
L 655.041009 -72.548911 
L 653.280757 -74.616172 
L 651.520505 -75.383966 
L 649.760252 -78.745464 
L 648 -75.031073 
L 646.239748 -78.68097 
L 644.479495 -83.184294 
L 642.719243 -82.852394 
L 640.958991 -85.441681 
L 639.198738 -91.085256 
L 637.438486 -90.440955 
L 635.678233 -90.634025 
L 633.917981 -90.660499 
L 632.157729 -94.848962 
L 630.397476 -95.444082 
L 628.637224 -94.825378 
L 626.876972 -96.761104 
L 625.116719 -98.205656 
L 623.356467 -95.711454 
L 621.596215 -93.768544 
L 619.835962 -95.25964 
L 618.07571 -92.159525 
L 616.315457 -92.102922 
L 614.555205 -91.444124 
L 612.794953 -88.746944 
L 611.0347 -92.028677 
L 609.274448 -90.425722 
L 607.514196 -89.961363 
L 605.753943 -90.959487 
L 603.993691 -90.886883 
L 602.233438 -90.836502 
L 600.473186 -93.032742 
L 598.712934 -95.185043 
L 596.952681 -93.100187 
L 595.192429 -98.025296 
L 593.432177 -98.543535 
L 591.671924 -100.400489 
L 589.911672 -101.620015 
L 588.15142 -105.303877 
L 586.391167 -103.887771 
L 584.630915 -110.820836 
L 582.870662 -114.120613 
L 581.11041 -114.030474 
L 579.350158 -115.389483 
L 577.589905 -117.311275 
L 575.829653 -119.670915 
L 574.069401 -122.204623 
L 572.309148 -123.798376 
L 570.548896 -125.651737 
L 568.788644 -121.654604 
L 567.028391 -125.237588 
L 565.268139 -123.044266 
L 563.507886 -127.521235 
L 561.747634 -121.011113 
L 559.987382 -125.730293 
L 558.227129 -123.672586 
L 556.466877 -125.905682 
L 554.706625 -125.91354 
L 552.946372 -124.87743 
L 551.18612 -124.19131 
L 549.425868 -122.50069 
L 547.665615 -123.480999 
L 545.905363 -121.425122 
L 544.14511 -119.806366 
L 542.384858 -121.097946 
L 540.624606 -121.921886 
L 538.864353 -122.710777 
L 537.104101 -124.344124 
L 535.343849 -127.321893 
L 533.583596 -127.802263 
L 531.823344 -130.314995 
L 530.063091 -134.225545 
L 528.302839 -136.863405 
L 526.542587 -141.976864 
L 524.782334 -144.832828 
L 523.022082 -153.162502 
L 521.26183 -152.284791 
L 519.501577 -151.375238 
L 517.741325 -154.532664 
L 515.981073 -156.209143 
L 514.22082 -159.014556 
L 512.460568 -157.821949 
L 510.700315 -160.048008 
L 508.940063 -160.865112 
L 507.179811 -161.071425 
L 505.419558 -157.214014 
L 503.659306 -152.359581 
L 501.899054 -155.591833 
L 500.138801 -153.547539 
L 498.378549 -149.327162 
L 496.618297 -152.998564 
L 494.858044 -146.775381 
L 493.097792 -149.340088 
L 491.337539 -141.098751 
L 489.577287 -140.543405 
L 487.817035 -140.346162 
L 486.056782 -136.44013 
L 484.29653 -131.95946 
L 482.536278 -134.934112 
L 480.776025 -131.77316 
L 479.015773 -129.932023 
L 477.255521 -127.833182 
L 475.495268 -127.268581 
L 473.735016 -127.055857 
L 471.974763 -127.444097 
L 470.214511 -124.00678 
L 468.454259 -124.729314 
L 466.694006 -124.980628 
L 464.933754 -127.704311 
L 463.173502 -124.847402 
L 461.413249 -123.877482 
L 459.652997 -121.759497 
L 457.892744 -123.015684 
L 456.132492 -121.221111 
L 454.37224 -120.392852 
L 452.611987 -120.962835 
L 450.851735 -120.28207 
L 449.091483 -118.777459 
L 447.33123 -118.349113 
L 445.570978 -115.671466 
L 443.810726 -112.969977 
L 442.050473 -114.736897 
L 440.290221 -110.116167 
L 438.529968 -105.909596 
L 436.769716 -103.782501 
L 435.009464 -103.595685 
L 433.249211 -98.189425 
L 431.488959 -95.589768 
L 429.728707 -91.402072 
L 427.968454 -87.313522 
L 426.208202 -85.266832 
L 424.44795 -82.010857 
L 422.687697 -82.653531 
L 420.927445 -79.089805 
L 419.167192 -75.624683 
L 417.40694 -75.626761 
L 415.646688 -75.764463 
L 413.886435 -72.981294 
L 412.126183 -71.881665 
L 410.365931 -70.609977 
L 408.605678 -71.954604 
L 406.845426 -71.598288 
L 405.085174 -71.038302 
L 403.324921 -73.288252 
L 401.564669 -73.823565 
L 399.804416 -75.680567 
L 398.044164 -77.404003 
L 396.283912 -80.322288 
L 394.523659 -84.3595 
L 392.763407 -87.611511 
L 391.003155 -91.462903 
L 389.242902 -95.086154 
L 387.48265 -105.723116 
L 385.722397 -108.126994 
L 383.962145 -114.931124 
L 382.201893 -123.759768 
L 380.44164 -130.0856 
L 378.681388 -137.348217 
L 376.921136 -147.29464 
L 375.160883 -147.883205 
L 373.400631 -156.337248 
L 371.640379 -158.428815 
L 369.880126 -167.641248 
L 368.119874 -169.66614 
L 366.359621 -170.074874 
L 364.599369 -172.659885 
L 362.839117 -171.350563 
L 361.078864 -167.959638 
L 359.318612 -162.655375 
L 357.55836 -163.174746 
L 355.798107 -161.457666 
L 354.037855 -155.549356 
L 352.277603 -155.209602 
L 350.51735 -152.055161 
L 348.757098 -152.053962 
L 346.996845 -143.621031 
L 345.236593 -141.841685 
L 343.476341 -142.302937 
L 341.716088 -139.46839 
L 339.955836 -137.53282 
L 338.195584 -135.083851 
L 336.435331 -131.866899 
L 334.675079 -132.282921 
L 332.914826 -132.946968 
L 331.154574 -134.623025 
L 329.394322 -131.626816 
L 327.634069 -133.09165 
L 325.873817 -134.107872 
L 324.113565 -136.70985 
L 322.353312 -131.414868 
L 320.59306 -133.504999 
L 318.832808 -136.787811 
L 317.072555 -139.265777 
L 315.312303 -142.404009 
L 313.55205 -144.314392 
L 311.791798 -146.335682 
L 310.031546 -144.927987 
L 308.271293 -146.224434 
L 306.511041 -144.342835 
L 304.750789 -145.866604 
L 302.990536 -143.638464 
L 301.230284 -147.710955 
L 299.470032 -147.086175 
L 297.709779 -144.508679 
L 295.949527 -143.511445 
L 294.189274 -146.464494 
L 292.429022 -149.632849 
L 290.66877 -152.892152 
L 288.908517 -153.984162 
L 287.148265 -157.564295 
L 285.388013 -158.054379 
L 283.62776 -157.4202 
L 281.867508 -163.143675 
L 280.107256 -164.967144 
L 278.347003 -165.805478 
L 276.586751 -163.385559 
L 274.826498 -166.234253 
L 273.066246 -168.879334 
L 271.305994 -167.167233 
L 269.545741 -167.55589 
L 267.785489 -167.293436 
L 266.025237 -175.714365 
L 264.264984 -175.914382 
L 262.504732 -181.229542 
L 260.744479 -177.674398 
L 258.984227 -186.287396 
L 257.223975 -188.842667 
L 255.463722 -186.14502 
L 253.70347 -195.25529 
L 251.943218 -198.528729 
L 250.182965 -196.290349 
L 248.422713 -203.561714 
L 246.662461 -206.326676 
L 244.902208 -203.499699 
L 243.141956 -204.34045 
L 241.381703 -211.36761 
L 239.621451 -209.786164 
L 237.861199 -209.606797 
L 236.100946 -212.454786 
L 234.340694 -208.260102 
L 232.580442 -203.762871 
L 230.820189 -209.243007 
L 229.059937 -202.850268 
L 227.299685 -207.894393 
L 225.539432 -204.788738 
L 223.77918 -203.683546 
L 222.018927 -195.285714 
L 220.258675 -199.111605 
L 218.498423 -192.435947 
L 216.73817 -186.136491 
L 214.977918 -175.647439 
L 213.217666 -181.229903 
L 211.457413 -171.274845 
L 209.697161 -165.971322 
L 207.936909 -165.252685 
L 206.176656 -156.838021 
L 204.416404 -149.007123 
L 202.656151 -146.345481 
L 200.895899 -152.01805 
L 199.135647 -144.65366 
L 197.375394 -139.737918 
L 195.615142 -130.238945 
L 193.85489 -128.586699 
L 192.094637 -126.411327 
L 190.334385 -123.790542 
L 188.574132 -118.371491 
L 186.81388 -113.38667 
L 185.053628 -114.935326 
L 183.293375 -115.594232 
L 181.533123 -108.082507 
L 179.772871 -105.242869 
L 178.012618 -103.411647 
L 176.252366 -103.517509 
L 174.492114 -99.840215 
L 172.731861 -98.890911 
L 170.971609 -99.714501 
L 169.211356 -95.589713 
L 167.451104 -91.67664 
L 165.690852 -93.225902 
L 163.930599 -89.679227 
L 162.170347 -88.376617 
L 160.410095 -84.916565 
L 158.649842 -86.488048 
L 156.88959 -85.225048 
L 155.129338 -79.046555 
L 153.369085 -79.441023 
L 151.608833 -83.62338 
L 149.84858 -82.157182 
L 148.088328 -82.637381 
L 146.328076 -80.766304 
L 144.567823 -80.007263 
L 142.807571 -79.756166 
L 141.047319 -80.893688 
L 139.287066 -81.639396 
L 137.526814 -81.426239 
L 135.766562 -77.70509 
L 134.006309 -77.20634 
L 132.246057 -81.878898 
L 130.485804 -79.649455 
L 128.725552 -81.627578 
L 126.9653 -80.173735 
L 125.205047 -80.990925 
L 123.444795 -78.848037 
L 121.684543 -77.758083 
L 119.92429 -76.621815 
L 118.164038 -76.162848 
L 116.403785 -74.075313 
L 114.643533 -76.289419 
L 112.883281 -73.623862 
L 111.123028 -76.568167 
L 109.362776 -71.538021 
L 107.602524 -66.476264 
L 105.842271 -70.270061 
L 104.082019 -70.455424 
L 102.321767 -64.62276 
L 100.561514 -64.980912 
L 98.801262 -65.910657 
L 97.041009 -59.258734 
L 95.280757 -61.201078 
L 93.520505 -57.579767 
L 91.760252 -59.114532 
L 90 -57.354545 
z
" id="m40915df344" style="stroke:#fdcbb6;stroke-opacity:0.8;"/>
    </defs>
    <g clip-path="url(#pf9b74102e3)">
     <use style="fill:#fdcbb6;fill-opacity:0.8;stroke:#fdcbb6;stroke-opacity:0.8;" x="0" xlink:href="#m40915df344" y="360"/>
    </g>
   </g>
   <g id="matplotlib.axis_1">
    <g id="xtick_1">
     <g id="line2d_1">
      <defs>
       <path d="M 0 0 
L 0 3.5 
" id="md874d9d6a3" style="stroke:#000000;stroke-width:0.8;"/>
      </defs>
      <g>
       <use style="stroke:#000000;stroke-width:0.8;" x="90" xlink:href="#md874d9d6a3" y="315"/>
      </g>
     </g>
    </g>
    <g id="xtick_2">
     <g id="line2d_2">
      <g>
       <use style="stroke:#000000;stroke-width:0.8;" x="104.082019" xlink:href="#md874d9d6a3" y="315"/>
      </g>
     </g>
     <g id="text_1">
      <!-- Apr -->
      <g transform="translate(95.432019 329.598437)scale(0.1 -0.1)">
       <defs>
        <path d="M 34.1875 63.1875 
L 20.796875 26.90625 
L 47.609375 26.90625 
z
M 28.609375 72.90625 
L 39.796875 72.90625 
L 67.578125 0 
L 57.328125 0 
L 50.6875 18.703125 
L 17.828125 18.703125 
L 11.1875 0 
L 0.78125 0 
z
" id="DejaVuSans-65"/>
        <path d="M 18.109375 8.203125 
L 18.109375 -20.796875 
L 9.078125 -20.796875 
L 9.078125 54.6875 
L 18.109375 54.6875 
L 18.109375 46.390625 
Q 20.953125 51.265625 25.265625 53.625 
Q 29.59375 56 35.59375 56 
Q 45.5625 56 51.78125 48.09375 
Q 58.015625 40.1875 58.015625 27.296875 
Q 58.015625 14.40625 51.78125 6.484375 
Q 45.5625 -1.421875 35.59375 -1.421875 
Q 29.59375 -1.421875 25.265625 0.953125 
Q 20.953125 3.328125 18.109375 8.203125 
z
M 48.6875 27.296875 
Q 48.6875 37.203125 44.609375 42.84375 
Q 40.53125 48.484375 33.40625 48.484375 
Q 26.265625 48.484375 22.1875 42.84375 
Q 18.109375 37.203125 18.109375 27.296875 
Q 18.109375 17.390625 22.1875 11.75 
Q 26.265625 6.109375 33.40625 6.109375 
Q 40.53125 6.109375 44.609375 11.75 
Q 48.6875 17.390625 48.6875 27.296875 
z
" id="DejaVuSans-112"/>
        <path d="M 41.109375 46.296875 
Q 39.59375 47.171875 37.8125 47.578125 
Q 36.03125 48 33.890625 48 
Q 26.265625 48 22.1875 43.046875 
Q 18.109375 38.09375 18.109375 28.8125 
L 18.109375 0 
L 9.078125 0 
L 9.078125 54.6875 
L 18.109375 54.6875 
L 18.109375 46.1875 
Q 20.953125 51.171875 25.484375 53.578125 
Q 30.03125 56 36.53125 56 
Q 37.453125 56 38.578125 55.875 
Q 39.703125 55.765625 41.0625 55.515625 
z
" id="DejaVuSans-114"/>
       </defs>
       <use xlink:href="#DejaVuSans-65"/>
       <use x="68.408203" xlink:href="#DejaVuSans-112"/>
       <use x="131.884766" xlink:href="#DejaVuSans-114"/>
      </g>
     </g>
    </g>
    <g id="xtick_3">
     <g id="line2d_3">
      <g>
       <use style="stroke:#000000;stroke-width:0.8;" x="156.88959" xlink:href="#md874d9d6a3" y="315"/>
      </g>
     </g>
     <g id="text_2">
      <!-- May -->
      <g transform="translate(146.55209 329.598437)scale(0.1 -0.1)">
       <defs>
        <path d="M 9.8125 72.90625 
L 24.515625 72.90625 
L 43.109375 23.296875 
L 61.8125 72.90625 
L 76.515625 72.90625 
L 76.515625 0 
L 66.890625 0 
L 66.890625 64.015625 
L 48.09375 14.015625 
L 38.1875 14.015625 
L 19.390625 64.015625 
L 19.390625 0 
L 9.8125 0 
z
" id="DejaVuSans-77"/>
        <path d="M 34.28125 27.484375 
Q 23.390625 27.484375 19.1875 25 
Q 14.984375 22.515625 14.984375 16.5 
Q 14.984375 11.71875 18.140625 8.90625 
Q 21.296875 6.109375 26.703125 6.109375 
Q 34.1875 6.109375 38.703125 11.40625 
Q 43.21875 16.703125 43.21875 25.484375 
L 43.21875 27.484375 
z
M 52.203125 31.203125 
L 52.203125 0 
L 43.21875 0 
L 43.21875 8.296875 
Q 40.140625 3.328125 35.546875 0.953125 
Q 30.953125 -1.421875 24.3125 -1.421875 
Q 15.921875 -1.421875 10.953125 3.296875 
Q 6 8.015625 6 15.921875 
Q 6 25.140625 12.171875 29.828125 
Q 18.359375 34.515625 30.609375 34.515625 
L 43.21875 34.515625 
L 43.21875 35.40625 
Q 43.21875 41.609375 39.140625 45 
Q 35.0625 48.390625 27.6875 48.390625 
Q 23 48.390625 18.546875 47.265625 
Q 14.109375 46.140625 10.015625 43.890625 
L 10.015625 52.203125 
Q 14.9375 54.109375 19.578125 55.046875 
Q 24.21875 56 28.609375 56 
Q 40.484375 56 46.34375 49.84375 
Q 52.203125 43.703125 52.203125 31.203125 
z
" id="DejaVuSans-97"/>
        <path d="M 32.171875 -5.078125 
Q 28.375 -14.84375 24.75 -17.8125 
Q 21.140625 -20.796875 15.09375 -20.796875 
L 7.90625 -20.796875 
L 7.90625 -13.28125 
L 13.1875 -13.28125 
Q 16.890625 -13.28125 18.9375 -11.515625 
Q 21 -9.765625 23.484375 -3.21875 
L 25.09375 0.875 
L 2.984375 54.6875 
L 12.5 54.6875 
L 29.59375 11.921875 
L 46.6875 54.6875 
L 56.203125 54.6875 
z
" id="DejaVuSans-121"/>
       </defs>
       <use xlink:href="#DejaVuSans-77"/>
       <use x="86.279297" xlink:href="#DejaVuSans-97"/>
       <use x="147.558594" xlink:href="#DejaVuSans-121"/>
      </g>
     </g>
    </g>
    <g id="xtick_4">
     <g id="line2d_4">
      <g>
       <use style="stroke:#000000;stroke-width:0.8;" x="211.457413" xlink:href="#md874d9d6a3" y="315"/>
      </g>
     </g>
     <g id="text_3">
      <!-- Jun -->
      <g transform="translate(203.644913 329.598437)scale(0.1 -0.1)">
       <defs>
        <path d="M 9.8125 72.90625 
L 19.671875 72.90625 
L 19.671875 5.078125 
Q 19.671875 -8.109375 14.671875 -14.0625 
Q 9.671875 -20.015625 -1.421875 -20.015625 
L -5.171875 -20.015625 
L -5.171875 -11.71875 
L -2.09375 -11.71875 
Q 4.4375 -11.71875 7.125 -8.046875 
Q 9.8125 -4.390625 9.8125 5.078125 
z
" id="DejaVuSans-74"/>
        <path d="M 8.5 21.578125 
L 8.5 54.6875 
L 17.484375 54.6875 
L 17.484375 21.921875 
Q 17.484375 14.15625 20.5 10.265625 
Q 23.53125 6.390625 29.59375 6.390625 
Q 36.859375 6.390625 41.078125 11.03125 
Q 45.3125 15.671875 45.3125 23.6875 
L 45.3125 54.6875 
L 54.296875 54.6875 
L 54.296875 0 
L 45.3125 0 
L 45.3125 8.40625 
Q 42.046875 3.421875 37.71875 1 
Q 33.40625 -1.421875 27.6875 -1.421875 
Q 18.265625 -1.421875 13.375 4.4375 
Q 8.5 10.296875 8.5 21.578125 
z
M 31.109375 56 
z
" id="DejaVuSans-117"/>
        <path d="M 54.890625 33.015625 
L 54.890625 0 
L 45.90625 0 
L 45.90625 32.71875 
Q 45.90625 40.484375 42.875 44.328125 
Q 39.84375 48.1875 33.796875 48.1875 
Q 26.515625 48.1875 22.3125 43.546875 
Q 18.109375 38.921875 18.109375 30.90625 
L 18.109375 0 
L 9.078125 0 
L 9.078125 54.6875 
L 18.109375 54.6875 
L 18.109375 46.1875 
Q 21.34375 51.125 25.703125 53.5625 
Q 30.078125 56 35.796875 56 
Q 45.21875 56 50.046875 50.171875 
Q 54.890625 44.34375 54.890625 33.015625 
z
" id="DejaVuSans-110"/>
       </defs>
       <use xlink:href="#DejaVuSans-74"/>
       <use x="29.492188" xlink:href="#DejaVuSans-117"/>
       <use x="92.871094" xlink:href="#DejaVuSans-110"/>
      </g>
     </g>
    </g>
    <g id="xtick_5">
     <g id="line2d_5">
      <g>
       <use style="stroke:#000000;stroke-width:0.8;" x="264.264984" xlink:href="#md874d9d6a3" y="315"/>
      </g>
     </g>
     <g id="text_4">
      <!-- Jul -->
      <g transform="translate(258.232172 329.598437)scale(0.1 -0.1)">
       <defs>
        <path d="M 9.421875 75.984375 
L 18.40625 75.984375 
L 18.40625 0 
L 9.421875 0 
z
" id="DejaVuSans-108"/>
       </defs>
       <use xlink:href="#DejaVuSans-74"/>
       <use x="29.492188" xlink:href="#DejaVuSans-117"/>
       <use x="92.871094" xlink:href="#DejaVuSans-108"/>
      </g>
     </g>
    </g>
    <g id="xtick_6">
     <g id="line2d_6">
      <g>
       <use style="stroke:#000000;stroke-width:0.8;" x="318.832808" xlink:href="#md874d9d6a3" y="315"/>
      </g>
     </g>
     <g id="text_5">
      <!-- Aug -->
      <g transform="translate(309.069526 329.598437)scale(0.1 -0.1)">
       <defs>
        <path d="M 45.40625 27.984375 
Q 45.40625 37.75 41.375 43.109375 
Q 37.359375 48.484375 30.078125 48.484375 
Q 22.859375 48.484375 18.828125 43.109375 
Q 14.796875 37.75 14.796875 27.984375 
Q 14.796875 18.265625 18.828125 12.890625 
Q 22.859375 7.515625 30.078125 7.515625 
Q 37.359375 7.515625 41.375 12.890625 
Q 45.40625 18.265625 45.40625 27.984375 
z
M 54.390625 6.78125 
Q 54.390625 -7.171875 48.1875 -13.984375 
Q 42 -20.796875 29.203125 -20.796875 
Q 24.46875 -20.796875 20.265625 -20.09375 
Q 16.0625 -19.390625 12.109375 -17.921875 
L 12.109375 -9.1875 
Q 16.0625 -11.328125 19.921875 -12.34375 
Q 23.78125 -13.375 27.78125 -13.375 
Q 36.625 -13.375 41.015625 -8.765625 
Q 45.40625 -4.15625 45.40625 5.171875 
L 45.40625 9.625 
Q 42.625 4.78125 38.28125 2.390625 
Q 33.9375 0 27.875 0 
Q 17.828125 0 11.671875 7.65625 
Q 5.515625 15.328125 5.515625 27.984375 
Q 5.515625 40.671875 11.671875 48.328125 
Q 17.828125 56 27.875 56 
Q 33.9375 56 38.28125 53.609375 
Q 42.625 51.21875 45.40625 46.390625 
L 45.40625 54.6875 
L 54.390625 54.6875 
z
" id="DejaVuSans-103"/>
       </defs>
       <use xlink:href="#DejaVuSans-65"/>
       <use x="68.408203" xlink:href="#DejaVuSans-117"/>
       <use x="131.787109" xlink:href="#DejaVuSans-103"/>
      </g>
     </g>
    </g>
    <g id="xtick_7">
     <g id="line2d_7">
      <g>
       <use style="stroke:#000000;stroke-width:0.8;" x="373.400631" xlink:href="#md874d9d6a3" y="315"/>
      </g>
     </g>
     <g id="text_6">
      <!-- Sep -->
      <g transform="translate(363.975631 329.598437)scale(0.1 -0.1)">
       <defs>
        <path d="M 53.515625 70.515625 
L 53.515625 60.890625 
Q 47.90625 63.578125 42.921875 64.890625 
Q 37.9375 66.21875 33.296875 66.21875 
Q 25.25 66.21875 20.875 63.09375 
Q 16.5 59.96875 16.5 54.203125 
Q 16.5 49.359375 19.40625 46.890625 
Q 22.3125 44.4375 30.421875 42.921875 
L 36.375 41.703125 
Q 47.40625 39.59375 52.65625 34.296875 
Q 57.90625 29 57.90625 20.125 
Q 57.90625 9.515625 50.796875 4.046875 
Q 43.703125 -1.421875 29.984375 -1.421875 
Q 24.8125 -1.421875 18.96875 -0.25 
Q 13.140625 0.921875 6.890625 3.21875 
L 6.890625 13.375 
Q 12.890625 10.015625 18.65625 8.296875 
Q 24.421875 6.59375 29.984375 6.59375 
Q 38.421875 6.59375 43.015625 9.90625 
Q 47.609375 13.234375 47.609375 19.390625 
Q 47.609375 24.75 44.3125 27.78125 
Q 41.015625 30.8125 33.5 32.328125 
L 27.484375 33.5 
Q 16.453125 35.6875 11.515625 40.375 
Q 6.59375 45.0625 6.59375 53.421875 
Q 6.59375 63.09375 13.40625 68.65625 
Q 20.21875 74.21875 32.171875 74.21875 
Q 37.3125 74.21875 42.625 73.28125 
Q 47.953125 72.359375 53.515625 70.515625 
z
" id="DejaVuSans-83"/>
        <path d="M 56.203125 29.59375 
L 56.203125 25.203125 
L 14.890625 25.203125 
Q 15.484375 15.921875 20.484375 11.0625 
Q 25.484375 6.203125 34.421875 6.203125 
Q 39.59375 6.203125 44.453125 7.46875 
Q 49.3125 8.734375 54.109375 11.28125 
L 54.109375 2.78125 
Q 49.265625 0.734375 44.1875 -0.34375 
Q 39.109375 -1.421875 33.890625 -1.421875 
Q 20.796875 -1.421875 13.15625 6.1875 
Q 5.515625 13.8125 5.515625 26.8125 
Q 5.515625 40.234375 12.765625 48.109375 
Q 20.015625 56 32.328125 56 
Q 43.359375 56 49.78125 48.890625 
Q 56.203125 41.796875 56.203125 29.59375 
z
M 47.21875 32.234375 
Q 47.125 39.59375 43.09375 43.984375 
Q 39.0625 48.390625 32.421875 48.390625 
Q 24.90625 48.390625 20.390625 44.140625 
Q 15.875 39.890625 15.1875 32.171875 
z
" id="DejaVuSans-101"/>
       </defs>
       <use xlink:href="#DejaVuSans-83"/>
       <use x="63.476562" xlink:href="#DejaVuSans-101"/>
       <use x="125" xlink:href="#DejaVuSans-112"/>
      </g>
     </g>
    </g>
    <g id="xtick_8">
     <g id="line2d_8">
      <g>
       <use style="stroke:#000000;stroke-width:0.8;" x="426.208202" xlink:href="#md874d9d6a3" y="315"/>
      </g>
     </g>
     <g id="text_7">
      <!-- Oct -->
      <g transform="translate(417.562889 329.598437)scale(0.1 -0.1)">
       <defs>
        <path d="M 39.40625 66.21875 
Q 28.65625 66.21875 22.328125 58.203125 
Q 16.015625 50.203125 16.015625 36.375 
Q 16.015625 22.609375 22.328125 14.59375 
Q 28.65625 6.59375 39.40625 6.59375 
Q 50.140625 6.59375 56.421875 14.59375 
Q 62.703125 22.609375 62.703125 36.375 
Q 62.703125 50.203125 56.421875 58.203125 
Q 50.140625 66.21875 39.40625 66.21875 
z
M 39.40625 74.21875 
Q 54.734375 74.21875 63.90625 63.9375 
Q 73.09375 53.65625 73.09375 36.375 
Q 73.09375 19.140625 63.90625 8.859375 
Q 54.734375 -1.421875 39.40625 -1.421875 
Q 24.03125 -1.421875 14.8125 8.828125 
Q 5.609375 19.09375 5.609375 36.375 
Q 5.609375 53.65625 14.8125 63.9375 
Q 24.03125 74.21875 39.40625 74.21875 
z
" id="DejaVuSans-79"/>
        <path d="M 48.78125 52.59375 
L 48.78125 44.1875 
Q 44.96875 46.296875 41.140625 47.34375 
Q 37.3125 48.390625 33.40625 48.390625 
Q 24.65625 48.390625 19.8125 42.84375 
Q 14.984375 37.3125 14.984375 27.296875 
Q 14.984375 17.28125 19.8125 11.734375 
Q 24.65625 6.203125 33.40625 6.203125 
Q 37.3125 6.203125 41.140625 7.25 
Q 44.96875 8.296875 48.78125 10.40625 
L 48.78125 2.09375 
Q 45.015625 0.34375 40.984375 -0.53125 
Q 36.96875 -1.421875 32.421875 -1.421875 
Q 20.0625 -1.421875 12.78125 6.34375 
Q 5.515625 14.109375 5.515625 27.296875 
Q 5.515625 40.671875 12.859375 48.328125 
Q 20.21875 56 33.015625 56 
Q 37.15625 56 41.109375 55.140625 
Q 45.0625 54.296875 48.78125 52.59375 
z
" id="DejaVuSans-99"/>
        <path d="M 18.3125 70.21875 
L 18.3125 54.6875 
L 36.8125 54.6875 
L 36.8125 47.703125 
L 18.3125 47.703125 
L 18.3125 18.015625 
Q 18.3125 11.328125 20.140625 9.421875 
Q 21.96875 7.515625 27.59375 7.515625 
L 36.8125 7.515625 
L 36.8125 0 
L 27.59375 0 
Q 17.1875 0 13.234375 3.875 
Q 9.28125 7.765625 9.28125 18.015625 
L 9.28125 47.703125 
L 2.6875 47.703125 
L 2.6875 54.6875 
L 9.28125 54.6875 
L 9.28125 70.21875 
z
" id="DejaVuSans-116"/>
       </defs>
       <use xlink:href="#DejaVuSans-79"/>
       <use x="78.710938" xlink:href="#DejaVuSans-99"/>
       <use x="133.691406" xlink:href="#DejaVuSans-116"/>
      </g>
     </g>
    </g>
    <g id="xtick_9">
     <g id="line2d_9">
      <g>
       <use style="stroke:#000000;stroke-width:0.8;" x="480.776025" xlink:href="#md874d9d6a3" y="315"/>
      </g>
     </g>
     <g id="text_8">
      <!-- Nov -->
      <g transform="translate(471.01665 329.598437)scale(0.1 -0.1)">
       <defs>
        <path d="M 9.8125 72.90625 
L 23.09375 72.90625 
L 55.421875 11.921875 
L 55.421875 72.90625 
L 64.984375 72.90625 
L 64.984375 0 
L 51.703125 0 
L 19.390625 60.984375 
L 19.390625 0 
L 9.8125 0 
z
" id="DejaVuSans-78"/>
        <path d="M 30.609375 48.390625 
Q 23.390625 48.390625 19.1875 42.75 
Q 14.984375 37.109375 14.984375 27.296875 
Q 14.984375 17.484375 19.15625 11.84375 
Q 23.34375 6.203125 30.609375 6.203125 
Q 37.796875 6.203125 41.984375 11.859375 
Q 46.1875 17.53125 46.1875 27.296875 
Q 46.1875 37.015625 41.984375 42.703125 
Q 37.796875 48.390625 30.609375 48.390625 
z
M 30.609375 56 
Q 42.328125 56 49.015625 48.375 
Q 55.71875 40.765625 55.71875 27.296875 
Q 55.71875 13.875 49.015625 6.21875 
Q 42.328125 -1.421875 30.609375 -1.421875 
Q 18.84375 -1.421875 12.171875 6.21875 
Q 5.515625 13.875 5.515625 27.296875 
Q 5.515625 40.765625 12.171875 48.375 
Q 18.84375 56 30.609375 56 
z
" id="DejaVuSans-111"/>
        <path d="M 2.984375 54.6875 
L 12.5 54.6875 
L 29.59375 8.796875 
L 46.6875 54.6875 
L 56.203125 54.6875 
L 35.6875 0 
L 23.484375 0 
z
" id="DejaVuSans-118"/>
       </defs>
       <use xlink:href="#DejaVuSans-78"/>
       <use x="74.804688" xlink:href="#DejaVuSans-111"/>
       <use x="135.986328" xlink:href="#DejaVuSans-118"/>
      </g>
     </g>
    </g>
    <g id="xtick_10">
     <g id="line2d_10">
      <g>
       <use style="stroke:#000000;stroke-width:0.8;" x="533.583596" xlink:href="#md874d9d6a3" y="315"/>
      </g>
     </g>
     <g id="text_9">
      <!-- Dec -->
      <g transform="translate(523.907815 329.598437)scale(0.1 -0.1)">
       <defs>
        <path d="M 19.671875 64.796875 
L 19.671875 8.109375 
L 31.59375 8.109375 
Q 46.6875 8.109375 53.6875 14.9375 
Q 60.6875 21.78125 60.6875 36.53125 
Q 60.6875 51.171875 53.6875 57.984375 
Q 46.6875 64.796875 31.59375 64.796875 
z
M 9.8125 72.90625 
L 30.078125 72.90625 
Q 51.265625 72.90625 61.171875 64.09375 
Q 71.09375 55.28125 71.09375 36.53125 
Q 71.09375 17.671875 61.125 8.828125 
Q 51.171875 0 30.078125 0 
L 9.8125 0 
z
" id="DejaVuSans-68"/>
       </defs>
       <use xlink:href="#DejaVuSans-68"/>
       <use x="77.001953" xlink:href="#DejaVuSans-101"/>
       <use x="138.525391" xlink:href="#DejaVuSans-99"/>
      </g>
     </g>
    </g>
    <g id="xtick_11">
     <g id="line2d_11">
      <g>
       <use style="stroke:#000000;stroke-width:0.8;" x="588.15142" xlink:href="#md874d9d6a3" y="315"/>
      </g>
     </g>
     <g id="text_10">
      <!-- Jan -->
      <g transform="translate(580.443607 329.598437)scale(0.1 -0.1)">
       <use xlink:href="#DejaVuSans-74"/>
       <use x="29.492188" xlink:href="#DejaVuSans-97"/>
       <use x="90.771484" xlink:href="#DejaVuSans-110"/>
      </g>
      <!-- 2021 -->
      <g transform="translate(575.42642 340.79625)scale(0.1 -0.1)">
       <defs>
        <path d="M 19.1875 8.296875 
L 53.609375 8.296875 
L 53.609375 0 
L 7.328125 0 
L 7.328125 8.296875 
Q 12.9375 14.109375 22.625 23.890625 
Q 32.328125 33.6875 34.8125 36.53125 
Q 39.546875 41.84375 41.421875 45.53125 
Q 43.3125 49.21875 43.3125 52.78125 
Q 43.3125 58.59375 39.234375 62.25 
Q 35.15625 65.921875 28.609375 65.921875 
Q 23.96875 65.921875 18.8125 64.3125 
Q 13.671875 62.703125 7.8125 59.421875 
L 7.8125 69.390625 
Q 13.765625 71.78125 18.9375 73 
Q 24.125 74.21875 28.421875 74.21875 
Q 39.75 74.21875 46.484375 68.546875 
Q 53.21875 62.890625 53.21875 53.421875 
Q 53.21875 48.921875 51.53125 44.890625 
Q 49.859375 40.875 45.40625 35.40625 
Q 44.1875 33.984375 37.640625 27.21875 
Q 31.109375 20.453125 19.1875 8.296875 
z
" id="DejaVuSans-50"/>
        <path d="M 31.78125 66.40625 
Q 24.171875 66.40625 20.328125 58.90625 
Q 16.5 51.421875 16.5 36.375 
Q 16.5 21.390625 20.328125 13.890625 
Q 24.171875 6.390625 31.78125 6.390625 
Q 39.453125 6.390625 43.28125 13.890625 
Q 47.125 21.390625 47.125 36.375 
Q 47.125 51.421875 43.28125 58.90625 
Q 39.453125 66.40625 31.78125 66.40625 
z
M 31.78125 74.21875 
Q 44.046875 74.21875 50.515625 64.515625 
Q 56.984375 54.828125 56.984375 36.375 
Q 56.984375 17.96875 50.515625 8.265625 
Q 44.046875 -1.421875 31.78125 -1.421875 
Q 19.53125 -1.421875 13.0625 8.265625 
Q 6.59375 17.96875 6.59375 36.375 
Q 6.59375 54.828125 13.0625 64.515625 
Q 19.53125 74.21875 31.78125 74.21875 
z
" id="DejaVuSans-48"/>
        <path d="M 12.40625 8.296875 
L 28.515625 8.296875 
L 28.515625 63.921875 
L 10.984375 60.40625 
L 10.984375 69.390625 
L 28.421875 72.90625 
L 38.28125 72.90625 
L 38.28125 8.296875 
L 54.390625 8.296875 
L 54.390625 0 
L 12.40625 0 
z
" id="DejaVuSans-49"/>
       </defs>
       <use xlink:href="#DejaVuSans-50"/>
       <use x="63.623047" xlink:href="#DejaVuSans-48"/>
       <use x="127.246094" xlink:href="#DejaVuSans-50"/>
       <use x="190.869141" xlink:href="#DejaVuSans-49"/>
      </g>
     </g>
    </g>
    <g id="xtick_12">
     <g id="line2d_12">
      <g>
       <use style="stroke:#000000;stroke-width:0.8;" x="642.719243" xlink:href="#md874d9d6a3" y="315"/>
      </g>
     </g>
     <g id="text_11">
      <!-- Feb -->
      <g transform="translate(633.86768 329.598437)scale(0.1 -0.1)">
       <defs>
        <path d="M 9.8125 72.90625 
L 51.703125 72.90625 
L 51.703125 64.59375 
L 19.671875 64.59375 
L 19.671875 43.109375 
L 48.578125 43.109375 
L 48.578125 34.8125 
L 19.671875 34.8125 
L 19.671875 0 
L 9.8125 0 
z
" id="DejaVuSans-70"/>
        <path d="M 48.6875 27.296875 
Q 48.6875 37.203125 44.609375 42.84375 
Q 40.53125 48.484375 33.40625 48.484375 
Q 26.265625 48.484375 22.1875 42.84375 
Q 18.109375 37.203125 18.109375 27.296875 
Q 18.109375 17.390625 22.1875 11.75 
Q 26.265625 6.109375 33.40625 6.109375 
Q 40.53125 6.109375 44.609375 11.75 
Q 48.6875 17.390625 48.6875 27.296875 
z
M 18.109375 46.390625 
Q 20.953125 51.265625 25.265625 53.625 
Q 29.59375 56 35.59375 56 
Q 45.5625 56 51.78125 48.09375 
Q 58.015625 40.1875 58.015625 27.296875 
Q 58.015625 14.40625 51.78125 6.484375 
Q 45.5625 -1.421875 35.59375 -1.421875 
Q 29.59375 -1.421875 25.265625 0.953125 
Q 20.953125 3.328125 18.109375 8.203125 
L 18.109375 0 
L 9.078125 0 
L 9.078125 75.984375 
L 18.109375 75.984375 
z
" id="DejaVuSans-98"/>
       </defs>
       <use xlink:href="#DejaVuSans-70"/>
       <use x="52.019531" xlink:href="#DejaVuSans-101"/>
       <use x="113.542969" xlink:href="#DejaVuSans-98"/>
      </g>
     </g>
    </g>
    <g id="xtick_13">
     <g id="line2d_13">
      <g>
       <use style="stroke:#000000;stroke-width:0.8;" x="648" xlink:href="#md874d9d6a3" y="315"/>
      </g>
     </g>
    </g>
    <g id="xtick_14">
     <g id="line2d_14">
      <defs>
       <path d="M 0 0 
L 0 2 
" id="md391d02ad5" style="stroke:#000000;stroke-width:0.6;"/>
      </defs>
      <g>
       <use style="stroke:#000000;stroke-width:0.6;" x="100.561514" xlink:href="#md391d02ad5" y="315"/>
      </g>
     </g>
    </g>
    <g id="xtick_15">
     <g id="line2d_15">
      <g>
       <use style="stroke:#000000;stroke-width:0.6;" x="112.883281" xlink:href="#md391d02ad5" y="315"/>
      </g>
     </g>
    </g>
    <g id="xtick_16">
     <g id="line2d_16">
      <g>
       <use style="stroke:#000000;stroke-width:0.6;" x="125.205047" xlink:href="#md391d02ad5" y="315"/>
      </g>
     </g>
    </g>
    <g id="xtick_17">
     <g id="line2d_17">
      <g>
       <use style="stroke:#000000;stroke-width:0.6;" x="137.526814" xlink:href="#md391d02ad5" y="315"/>
      </g>
     </g>
    </g>
    <g id="xtick_18">
     <g id="line2d_18">
      <g>
       <use style="stroke:#000000;stroke-width:0.6;" x="149.84858" xlink:href="#md391d02ad5" y="315"/>
      </g>
     </g>
    </g>
    <g id="xtick_19">
     <g id="line2d_19">
      <g>
       <use style="stroke:#000000;stroke-width:0.6;" x="162.170347" xlink:href="#md391d02ad5" y="315"/>
      </g>
     </g>
    </g>
    <g id="xtick_20">
     <g id="line2d_20">
      <g>
       <use style="stroke:#000000;stroke-width:0.6;" x="174.492114" xlink:href="#md391d02ad5" y="315"/>
      </g>
     </g>
    </g>
    <g id="xtick_21">
     <g id="line2d_21">
      <g>
       <use style="stroke:#000000;stroke-width:0.6;" x="186.81388" xlink:href="#md391d02ad5" y="315"/>
      </g>
     </g>
    </g>
    <g id="xtick_22">
     <g id="line2d_22">
      <g>
       <use style="stroke:#000000;stroke-width:0.6;" x="199.135647" xlink:href="#md391d02ad5" y="315"/>
      </g>
     </g>
    </g>
    <g id="xtick_23">
     <g id="line2d_23">
      <g>
       <use style="stroke:#000000;stroke-width:0.6;" x="223.77918" xlink:href="#md391d02ad5" y="315"/>
      </g>
     </g>
    </g>
    <g id="xtick_24">
     <g id="line2d_24">
      <g>
       <use style="stroke:#000000;stroke-width:0.6;" x="236.100946" xlink:href="#md391d02ad5" y="315"/>
      </g>
     </g>
    </g>
    <g id="xtick_25">
     <g id="line2d_25">
      <g>
       <use style="stroke:#000000;stroke-width:0.6;" x="248.422713" xlink:href="#md391d02ad5" y="315"/>
      </g>
     </g>
    </g>
    <g id="xtick_26">
     <g id="line2d_26">
      <g>
       <use style="stroke:#000000;stroke-width:0.6;" x="260.744479" xlink:href="#md391d02ad5" y="315"/>
      </g>
     </g>
    </g>
    <g id="xtick_27">
     <g id="line2d_27">
      <g>
       <use style="stroke:#000000;stroke-width:0.6;" x="273.066246" xlink:href="#md391d02ad5" y="315"/>
      </g>
     </g>
    </g>
    <g id="xtick_28">
     <g id="line2d_28">
      <g>
       <use style="stroke:#000000;stroke-width:0.6;" x="285.388013" xlink:href="#md391d02ad5" y="315"/>
      </g>
     </g>
    </g>
    <g id="xtick_29">
     <g id="line2d_29">
      <g>
       <use style="stroke:#000000;stroke-width:0.6;" x="297.709779" xlink:href="#md391d02ad5" y="315"/>
      </g>
     </g>
    </g>
    <g id="xtick_30">
     <g id="line2d_30">
      <g>
       <use style="stroke:#000000;stroke-width:0.6;" x="310.031546" xlink:href="#md391d02ad5" y="315"/>
      </g>
     </g>
    </g>
    <g id="xtick_31">
     <g id="line2d_31">
      <g>
       <use style="stroke:#000000;stroke-width:0.6;" x="322.353312" xlink:href="#md391d02ad5" y="315"/>
      </g>
     </g>
    </g>
    <g id="xtick_32">
     <g id="line2d_32">
      <g>
       <use style="stroke:#000000;stroke-width:0.6;" x="334.675079" xlink:href="#md391d02ad5" y="315"/>
      </g>
     </g>
    </g>
    <g id="xtick_33">
     <g id="line2d_33">
      <g>
       <use style="stroke:#000000;stroke-width:0.6;" x="346.996845" xlink:href="#md391d02ad5" y="315"/>
      </g>
     </g>
    </g>
    <g id="xtick_34">
     <g id="line2d_34">
      <g>
       <use style="stroke:#000000;stroke-width:0.6;" x="359.318612" xlink:href="#md391d02ad5" y="315"/>
      </g>
     </g>
    </g>
    <g id="xtick_35">
     <g id="line2d_35">
      <g>
       <use style="stroke:#000000;stroke-width:0.6;" x="371.640379" xlink:href="#md391d02ad5" y="315"/>
      </g>
     </g>
    </g>
    <g id="xtick_36">
     <g id="line2d_36">
      <g>
       <use style="stroke:#000000;stroke-width:0.6;" x="383.962145" xlink:href="#md391d02ad5" y="315"/>
      </g>
     </g>
    </g>
    <g id="xtick_37">
     <g id="line2d_37">
      <g>
       <use style="stroke:#000000;stroke-width:0.6;" x="396.283912" xlink:href="#md391d02ad5" y="315"/>
      </g>
     </g>
    </g>
    <g id="xtick_38">
     <g id="line2d_38">
      <g>
       <use style="stroke:#000000;stroke-width:0.6;" x="408.605678" xlink:href="#md391d02ad5" y="315"/>
      </g>
     </g>
    </g>
    <g id="xtick_39">
     <g id="line2d_39">
      <g>
       <use style="stroke:#000000;stroke-width:0.6;" x="420.927445" xlink:href="#md391d02ad5" y="315"/>
      </g>
     </g>
    </g>
    <g id="xtick_40">
     <g id="line2d_40">
      <g>
       <use style="stroke:#000000;stroke-width:0.6;" x="433.249211" xlink:href="#md391d02ad5" y="315"/>
      </g>
     </g>
    </g>
    <g id="xtick_41">
     <g id="line2d_41">
      <g>
       <use style="stroke:#000000;stroke-width:0.6;" x="445.570978" xlink:href="#md391d02ad5" y="315"/>
      </g>
     </g>
    </g>
    <g id="xtick_42">
     <g id="line2d_42">
      <g>
       <use style="stroke:#000000;stroke-width:0.6;" x="457.892744" xlink:href="#md391d02ad5" y="315"/>
      </g>
     </g>
    </g>
    <g id="xtick_43">
     <g id="line2d_43">
      <g>
       <use style="stroke:#000000;stroke-width:0.6;" x="470.214511" xlink:href="#md391d02ad5" y="315"/>
      </g>
     </g>
    </g>
    <g id="xtick_44">
     <g id="line2d_44">
      <g>
       <use style="stroke:#000000;stroke-width:0.6;" x="482.536278" xlink:href="#md391d02ad5" y="315"/>
      </g>
     </g>
    </g>
    <g id="xtick_45">
     <g id="line2d_45">
      <g>
       <use style="stroke:#000000;stroke-width:0.6;" x="494.858044" xlink:href="#md391d02ad5" y="315"/>
      </g>
     </g>
    </g>
    <g id="xtick_46">
     <g id="line2d_46">
      <g>
       <use style="stroke:#000000;stroke-width:0.6;" x="507.179811" xlink:href="#md391d02ad5" y="315"/>
      </g>
     </g>
    </g>
    <g id="xtick_47">
     <g id="line2d_47">
      <g>
       <use style="stroke:#000000;stroke-width:0.6;" x="519.501577" xlink:href="#md391d02ad5" y="315"/>
      </g>
     </g>
    </g>
    <g id="xtick_48">
     <g id="line2d_48">
      <g>
       <use style="stroke:#000000;stroke-width:0.6;" x="531.823344" xlink:href="#md391d02ad5" y="315"/>
      </g>
     </g>
    </g>
    <g id="xtick_49">
     <g id="line2d_49">
      <g>
       <use style="stroke:#000000;stroke-width:0.6;" x="544.14511" xlink:href="#md391d02ad5" y="315"/>
      </g>
     </g>
    </g>
    <g id="xtick_50">
     <g id="line2d_50">
      <g>
       <use style="stroke:#000000;stroke-width:0.6;" x="556.466877" xlink:href="#md391d02ad5" y="315"/>
      </g>
     </g>
    </g>
    <g id="xtick_51">
     <g id="line2d_51">
      <g>
       <use style="stroke:#000000;stroke-width:0.6;" x="568.788644" xlink:href="#md391d02ad5" y="315"/>
      </g>
     </g>
    </g>
    <g id="xtick_52">
     <g id="line2d_52">
      <g>
       <use style="stroke:#000000;stroke-width:0.6;" x="581.11041" xlink:href="#md391d02ad5" y="315"/>
      </g>
     </g>
    </g>
    <g id="xtick_53">
     <g id="line2d_53">
      <g>
       <use style="stroke:#000000;stroke-width:0.6;" x="593.432177" xlink:href="#md391d02ad5" y="315"/>
      </g>
     </g>
    </g>
    <g id="xtick_54">
     <g id="line2d_54">
      <g>
       <use style="stroke:#000000;stroke-width:0.6;" x="605.753943" xlink:href="#md391d02ad5" y="315"/>
      </g>
     </g>
    </g>
    <g id="xtick_55">
     <g id="line2d_55">
      <g>
       <use style="stroke:#000000;stroke-width:0.6;" x="618.07571" xlink:href="#md391d02ad5" y="315"/>
      </g>
     </g>
    </g>
    <g id="xtick_56">
     <g id="line2d_56">
      <g>
       <use style="stroke:#000000;stroke-width:0.6;" x="630.397476" xlink:href="#md391d02ad5" y="315"/>
      </g>
     </g>
    </g>
    <g id="text_12">
     <!-- date -->
     <g transform="translate(357.725 354.474375)scale(0.1 -0.1)">
      <defs>
       <path d="M 45.40625 46.390625 
L 45.40625 75.984375 
L 54.390625 75.984375 
L 54.390625 0 
L 45.40625 0 
L 45.40625 8.203125 
Q 42.578125 3.328125 38.25 0.953125 
Q 33.9375 -1.421875 27.875 -1.421875 
Q 17.96875 -1.421875 11.734375 6.484375 
Q 5.515625 14.40625 5.515625 27.296875 
Q 5.515625 40.1875 11.734375 48.09375 
Q 17.96875 56 27.875 56 
Q 33.9375 56 38.25 53.625 
Q 42.578125 51.265625 45.40625 46.390625 
z
M 14.796875 27.296875 
Q 14.796875 17.390625 18.875 11.75 
Q 22.953125 6.109375 30.078125 6.109375 
Q 37.203125 6.109375 41.296875 11.75 
Q 45.40625 17.390625 45.40625 27.296875 
Q 45.40625 37.203125 41.296875 42.84375 
Q 37.203125 48.484375 30.078125 48.484375 
Q 22.953125 48.484375 18.875 42.84375 
Q 14.796875 37.203125 14.796875 27.296875 
z
" id="DejaVuSans-100"/>
      </defs>
      <use xlink:href="#DejaVuSans-100"/>
      <use x="63.476562" xlink:href="#DejaVuSans-97"/>
      <use x="124.755859" xlink:href="#DejaVuSans-116"/>
      <use x="163.964844" xlink:href="#DejaVuSans-101"/>
     </g>
    </g>
   </g>
   <g id="matplotlib.axis_2">
    <g id="ytick_1">
     <g id="line2d_57">
      <path clip-path="url(#pf9b74102e3)" d="M 90 296.483831 
L 648 296.483831 
" style="fill:none;stroke:#b0b0b0;stroke-dasharray:0.8,1.32;stroke-dashoffset:0;stroke-width:0.8;"/>
     </g>
     <g id="line2d_58">
      <defs>
       <path d="M 0 0 
L -3.5 0 
" id="m0be0719322" style="stroke:#000000;stroke-width:0.8;"/>
      </defs>
      <g>
       <use style="stroke:#000000;stroke-width:0.8;" x="90" xlink:href="#m0be0719322" y="296.483831"/>
      </g>
     </g>
     <g id="text_13">
      <!-- 0.50 -->
      <g transform="translate(60.734375 300.28305)scale(0.1 -0.1)">
       <defs>
        <path d="M 10.6875 12.40625 
L 21 12.40625 
L 21 0 
L 10.6875 0 
z
" id="DejaVuSans-46"/>
        <path d="M 10.796875 72.90625 
L 49.515625 72.90625 
L 49.515625 64.59375 
L 19.828125 64.59375 
L 19.828125 46.734375 
Q 21.96875 47.46875 24.109375 47.828125 
Q 26.265625 48.1875 28.421875 48.1875 
Q 40.625 48.1875 47.75 41.5 
Q 54.890625 34.8125 54.890625 23.390625 
Q 54.890625 11.625 47.5625 5.09375 
Q 40.234375 -1.421875 26.90625 -1.421875 
Q 22.3125 -1.421875 17.546875 -0.640625 
Q 12.796875 0.140625 7.71875 1.703125 
L 7.71875 11.625 
Q 12.109375 9.234375 16.796875 8.0625 
Q 21.484375 6.890625 26.703125 6.890625 
Q 35.15625 6.890625 40.078125 11.328125 
Q 45.015625 15.765625 45.015625 23.390625 
Q 45.015625 31 40.078125 35.4375 
Q 35.15625 39.890625 26.703125 39.890625 
Q 22.75 39.890625 18.8125 39.015625 
Q 14.890625 38.140625 10.796875 36.28125 
z
" id="DejaVuSans-53"/>
       </defs>
       <use xlink:href="#DejaVuSans-48"/>
       <use x="63.623047" xlink:href="#DejaVuSans-46"/>
       <use x="95.410156" xlink:href="#DejaVuSans-53"/>
       <use x="159.033203" xlink:href="#DejaVuSans-48"/>
      </g>
     </g>
    </g>
    <g id="ytick_2">
     <g id="line2d_59">
      <path clip-path="url(#pf9b74102e3)" d="M 90 261.866025 
L 648 261.866025 
" style="fill:none;stroke:#b0b0b0;stroke-dasharray:0.8,1.32;stroke-dashoffset:0;stroke-width:0.8;"/>
     </g>
     <g id="line2d_60">
      <g>
       <use style="stroke:#000000;stroke-width:0.8;" x="90" xlink:href="#m0be0719322" y="261.866025"/>
      </g>
     </g>
     <g id="text_14">
      <!-- 0.75 -->
      <g transform="translate(60.734375 265.665244)scale(0.1 -0.1)">
       <defs>
        <path d="M 8.203125 72.90625 
L 55.078125 72.90625 
L 55.078125 68.703125 
L 28.609375 0 
L 18.3125 0 
L 43.21875 64.59375 
L 8.203125 64.59375 
z
" id="DejaVuSans-55"/>
       </defs>
       <use xlink:href="#DejaVuSans-48"/>
       <use x="63.623047" xlink:href="#DejaVuSans-46"/>
       <use x="95.410156" xlink:href="#DejaVuSans-55"/>
       <use x="159.033203" xlink:href="#DejaVuSans-53"/>
      </g>
     </g>
    </g>
    <g id="ytick_3">
     <g id="line2d_61">
      <path clip-path="url(#pf9b74102e3)" d="M 90 227.248219 
L 648 227.248219 
" style="fill:none;stroke:#b0b0b0;stroke-dasharray:0.8,1.32;stroke-dashoffset:0;stroke-width:0.8;"/>
     </g>
     <g id="line2d_62">
      <g>
       <use style="stroke:#000000;stroke-width:0.8;" x="90" xlink:href="#m0be0719322" y="227.248219"/>
      </g>
     </g>
     <g id="text_15">
      <!-- 1.00 -->
      <g transform="translate(60.734375 231.047438)scale(0.1 -0.1)">
       <use xlink:href="#DejaVuSans-49"/>
       <use x="63.623047" xlink:href="#DejaVuSans-46"/>
       <use x="95.410156" xlink:href="#DejaVuSans-48"/>
       <use x="159.033203" xlink:href="#DejaVuSans-48"/>
      </g>
     </g>
    </g>
    <g id="ytick_4">
     <g id="line2d_63">
      <path clip-path="url(#pf9b74102e3)" d="M 90 192.630414 
L 648 192.630414 
" style="fill:none;stroke:#b0b0b0;stroke-dasharray:0.8,1.32;stroke-dashoffset:0;stroke-width:0.8;"/>
     </g>
     <g id="line2d_64">
      <g>
       <use style="stroke:#000000;stroke-width:0.8;" x="90" xlink:href="#m0be0719322" y="192.630414"/>
      </g>
     </g>
     <g id="text_16">
      <!-- 1.25 -->
      <g transform="translate(60.734375 196.429632)scale(0.1 -0.1)">
       <use xlink:href="#DejaVuSans-49"/>
       <use x="63.623047" xlink:href="#DejaVuSans-46"/>
       <use x="95.410156" xlink:href="#DejaVuSans-50"/>
       <use x="159.033203" xlink:href="#DejaVuSans-53"/>
      </g>
     </g>
    </g>
    <g id="ytick_5">
     <g id="line2d_65">
      <path clip-path="url(#pf9b74102e3)" d="M 90 158.012608 
L 648 158.012608 
" style="fill:none;stroke:#b0b0b0;stroke-dasharray:0.8,1.32;stroke-dashoffset:0;stroke-width:0.8;"/>
     </g>
     <g id="line2d_66">
      <g>
       <use style="stroke:#000000;stroke-width:0.8;" x="90" xlink:href="#m0be0719322" y="158.012608"/>
      </g>
     </g>
     <g id="text_17">
      <!-- 1.50 -->
      <g transform="translate(60.734375 161.811827)scale(0.1 -0.1)">
       <use xlink:href="#DejaVuSans-49"/>
       <use x="63.623047" xlink:href="#DejaVuSans-46"/>
       <use x="95.410156" xlink:href="#DejaVuSans-53"/>
       <use x="159.033203" xlink:href="#DejaVuSans-48"/>
      </g>
     </g>
    </g>
    <g id="ytick_6">
     <g id="line2d_67">
      <path clip-path="url(#pf9b74102e3)" d="M 90 123.394802 
L 648 123.394802 
" style="fill:none;stroke:#b0b0b0;stroke-dasharray:0.8,1.32;stroke-dashoffset:0;stroke-width:0.8;"/>
     </g>
     <g id="line2d_68">
      <g>
       <use style="stroke:#000000;stroke-width:0.8;" x="90" xlink:href="#m0be0719322" y="123.394802"/>
      </g>
     </g>
     <g id="text_18">
      <!-- 1.75 -->
      <g transform="translate(60.734375 127.194021)scale(0.1 -0.1)">
       <use xlink:href="#DejaVuSans-49"/>
       <use x="63.623047" xlink:href="#DejaVuSans-46"/>
       <use x="95.410156" xlink:href="#DejaVuSans-55"/>
       <use x="159.033203" xlink:href="#DejaVuSans-53"/>
      </g>
     </g>
    </g>
    <g id="ytick_7">
     <g id="line2d_69">
      <path clip-path="url(#pf9b74102e3)" d="M 90 88.776996 
L 648 88.776996 
" style="fill:none;stroke:#b0b0b0;stroke-dasharray:0.8,1.32;stroke-dashoffset:0;stroke-width:0.8;"/>
     </g>
     <g id="line2d_70">
      <g>
       <use style="stroke:#000000;stroke-width:0.8;" x="90" xlink:href="#m0be0719322" y="88.776996"/>
      </g>
     </g>
     <g id="text_19">
      <!-- 2.00 -->
      <g transform="translate(60.734375 92.576215)scale(0.1 -0.1)">
       <use xlink:href="#DejaVuSans-50"/>
       <use x="63.623047" xlink:href="#DejaVuSans-46"/>
       <use x="95.410156" xlink:href="#DejaVuSans-48"/>
       <use x="159.033203" xlink:href="#DejaVuSans-48"/>
      </g>
     </g>
    </g>
    <g id="ytick_8">
     <g id="line2d_71">
      <path clip-path="url(#pf9b74102e3)" d="M 90 54.15919 
L 648 54.15919 
" style="fill:none;stroke:#b0b0b0;stroke-dasharray:0.8,1.32;stroke-dashoffset:0;stroke-width:0.8;"/>
     </g>
     <g id="line2d_72">
      <g>
       <use style="stroke:#000000;stroke-width:0.8;" x="90" xlink:href="#m0be0719322" y="54.15919"/>
      </g>
     </g>
     <g id="text_20">
      <!-- 2.25 -->
      <g transform="translate(60.734375 57.958409)scale(0.1 -0.1)">
       <use xlink:href="#DejaVuSans-50"/>
       <use x="63.623047" xlink:href="#DejaVuSans-46"/>
       <use x="95.410156" xlink:href="#DejaVuSans-50"/>
       <use x="159.033203" xlink:href="#DejaVuSans-53"/>
      </g>
     </g>
    </g>
   </g>
   <g id="line2d_73">
    <path clip-path="url(#pf9b74102e3)" d="M 90 266.819074 
L 91.760252 266.382185 
L 93.520505 266.465424 
L 95.280757 265.426108 
L 98.801262 264.310067 
L 100.561514 263.416511 
L 102.321767 262.098715 
L 104.082019 261.789666 
L 105.842271 262.03731 
L 107.602524 260.403551 
L 109.362776 260.655732 
L 112.883281 257.603753 
L 114.643533 257.443374 
L 116.403785 256.70181 
L 119.92429 255.921958 
L 121.684543 255.11883 
L 123.444795 254.727213 
L 125.205047 253.892369 
L 126.9653 254.502643 
L 128.725552 253.68225 
L 132.246057 255.320468 
L 134.006309 255.314424 
L 137.526814 255.87422 
L 139.287066 255.796628 
L 141.047319 255.930483 
L 142.807571 255.668479 
L 144.567823 254.379773 
L 149.84858 253.926653 
L 153.369085 253.1257 
L 155.129338 250.588675 
L 156.88959 249.936663 
L 158.649842 248.463715 
L 160.410095 247.151592 
L 162.170347 246.41453 
L 163.930599 243.922167 
L 165.690852 241.930534 
L 167.451104 239.677552 
L 169.211356 237.767782 
L 170.971609 235.572572 
L 172.731861 234.011774 
L 174.492114 232.190998 
L 178.012618 227.494795 
L 181.533123 220.506052 
L 183.293375 216.16656 
L 185.053628 212.495068 
L 186.81388 210.172376 
L 188.574132 206.071997 
L 190.334385 200.593811 
L 192.094637 197.930549 
L 193.85489 193.966178 
L 195.615142 188.441678 
L 197.375394 184.48991 
L 199.135647 179.14749 
L 202.656151 170.435128 
L 204.416404 165.046316 
L 206.176656 160.297306 
L 207.936909 154.894662 
L 209.697161 150.09831 
L 211.457413 144.78002 
L 213.217666 141.112575 
L 214.977918 136.826995 
L 218.498423 125.526614 
L 220.258675 118.95929 
L 222.018927 114.323212 
L 223.77918 112.302542 
L 225.539432 109.66354 
L 229.059937 106.177871 
L 230.820189 103.838857 
L 232.580442 104.09564 
L 234.340694 102.063809 
L 236.100946 100.472831 
L 237.861199 102.21163 
L 239.621451 102.997147 
L 241.381703 105.367174 
L 246.662461 114.201115 
L 248.422713 120.067049 
L 250.182965 123.539362 
L 251.943218 127.941205 
L 253.70347 131.782893 
L 257.223975 142.361497 
L 258.984227 145.618243 
L 260.744479 149.937721 
L 262.504732 151.780281 
L 264.264984 155.680785 
L 266.025237 158.749756 
L 267.785489 161.365341 
L 271.305994 165.368492 
L 273.066246 167.525086 
L 274.826498 167.103739 
L 276.586751 168.467573 
L 278.347003 170.443425 
L 280.107256 170.389243 
L 281.867508 172.94809 
L 283.62776 174.33987 
L 285.388013 177.09739 
L 287.148265 181.06471 
L 288.908517 183.829749 
L 292.429022 188.511821 
L 294.189274 190.461315 
L 295.949527 191.078744 
L 297.709779 191.848922 
L 299.470032 191.832182 
L 301.230284 191.558725 
L 302.990536 192.959612 
L 304.750789 193.419976 
L 306.511041 192.772679 
L 308.271293 192.927688 
L 310.031546 192.362174 
L 311.791798 194.234037 
L 313.55205 195.185282 
L 315.312303 196.004196 
L 318.832808 202.343674 
L 320.59306 203.817579 
L 322.353312 204.496556 
L 324.113565 205.667009 
L 325.873817 207.108769 
L 327.634069 207.320236 
L 329.394322 207.834754 
L 331.154574 207.960389 
L 332.914826 206.812784 
L 334.675079 206.517057 
L 336.435331 206.5221 
L 338.195584 205.251959 
L 339.955836 203.239728 
L 341.716088 200.623334 
L 345.236593 194.907006 
L 346.996845 192.292884 
L 348.757098 187.884035 
L 350.51735 185.395041 
L 352.277603 182.303497 
L 354.037855 178.448973 
L 355.798107 174.071994 
L 359.318612 167.806057 
L 361.078864 166.626713 
L 362.839117 164.18224 
L 364.599369 164.5336 
L 366.359621 165.427371 
L 368.119874 166.642995 
L 369.880126 169.633879 
L 371.640379 175.065581 
L 373.400631 179.941553 
L 378.681388 201.098951 
L 380.44164 209.204988 
L 382.201893 218.805205 
L 383.962145 227.010623 
L 385.722397 233.220805 
L 387.48265 241.17904 
L 389.242902 247.824524 
L 392.763407 258.052343 
L 394.523659 262.356566 
L 396.283912 265.670562 
L 398.044164 269.269674 
L 399.804416 271.848861 
L 401.564669 273.983597 
L 403.324921 275.35303 
L 405.085174 276.165042 
L 406.845426 276.716902 
L 408.605678 276.769582 
L 410.365931 276.019657 
L 412.126183 275.502007 
L 415.646688 273.485375 
L 417.40694 271.815398 
L 420.927445 267.547678 
L 422.687697 264.638858 
L 424.44795 262.402405 
L 426.208202 258.904619 
L 427.968454 256.677666 
L 429.728707 253.083689 
L 431.488959 250.034468 
L 435.009464 241.691758 
L 436.769716 238.474231 
L 442.050473 229.800664 
L 443.810726 227.346152 
L 445.570978 225.513117 
L 447.33123 223.933271 
L 449.091483 222.806487 
L 450.851735 222.16042 
L 452.611987 221.860349 
L 454.37224 221.018579 
L 457.892744 219.06612 
L 459.652997 217.591906 
L 461.413249 218.235451 
L 463.173502 218.35579 
L 466.694006 217.372809 
L 468.454259 216.390263 
L 470.214511 215.945237 
L 473.735016 213.954987 
L 475.495268 212.599726 
L 477.255521 211.56239 
L 479.015773 210.008079 
L 480.776025 207.80396 
L 484.29653 202.487001 
L 486.056782 201.163755 
L 487.817035 199.04462 
L 489.577287 196.112054 
L 491.337539 193.701101 
L 493.097792 191.805763 
L 494.858044 190.950128 
L 496.618297 187.48996 
L 500.138801 184.030652 
L 501.899054 182.700327 
L 503.659306 179.546316 
L 507.179811 178.535721 
L 508.940063 175.368503 
L 510.700315 174.793695 
L 512.460568 176.326998 
L 514.22082 177.168294 
L 515.981073 178.76956 
L 517.741325 180.114601 
L 519.501577 182.626899 
L 521.26183 185.366109 
L 523.022082 188.639111 
L 524.782334 194.225945 
L 526.542587 197.656679 
L 530.063091 205.455879 
L 531.823344 208.971308 
L 533.583596 212.197456 
L 537.104101 215.970754 
L 538.864353 217.612868 
L 540.624606 219.711155 
L 542.384858 219.684382 
L 544.14511 220.373719 
L 545.905363 221.601041 
L 547.665615 221.525462 
L 551.18612 220.323993 
L 552.946372 220.087007 
L 554.706625 218.885476 
L 556.466877 217.920165 
L 558.227129 217.292638 
L 559.987382 217.37182 
L 561.747634 216.274025 
L 563.507886 216.669146 
L 565.268139 217.522496 
L 567.028391 216.955207 
L 568.788644 217.313101 
L 570.548896 217.317666 
L 572.309148 218.508311 
L 574.069401 220.221813 
L 575.829653 222.205109 
L 577.589905 224.430322 
L 579.350158 226.013469 
L 581.11041 228.417544 
L 582.870662 231.149314 
L 584.630915 234.502557 
L 586.391167 237.383695 
L 588.15142 239.887755 
L 589.911672 241.94209 
L 591.671924 244.829983 
L 593.432177 246.599764 
L 595.192429 248.805531 
L 596.952681 250.419876 
L 598.712934 251.440994 
L 600.473186 253.167195 
L 602.233438 254.426409 
L 603.993691 254.433125 
L 605.753943 255.003061 
L 607.514196 254.178715 
L 611.0347 253.956367 
L 612.794953 253.589097 
L 614.555205 253.825196 
L 616.315457 252.448984 
L 618.07571 251.433456 
L 619.835962 251.358873 
L 621.596215 250.571096 
L 625.116719 249.895085 
L 626.876972 248.667968 
L 628.637224 249.27366 
L 630.397476 248.672068 
L 632.157729 247.271512 
L 633.917981 247.382094 
L 639.198738 245.643631 
L 640.958991 246.797698 
L 642.719243 246.592982 
L 646.239748 247.467665 
L 648 247.160237 
L 649.760252 246.422338 
L 651.520505 246.089841 
L 653.280757 246.876135 
L 655.041009 246.872238 
L 656.801262 246.135804 
L 658.561514 246.724262 
L 660.321767 246.367336 
L 662.082019 247.412954 
L 662.082019 247.412954 
" style="fill:none;stroke:#fc997a;stroke-linecap:square;stroke-width:1.5;"/>
   </g>
   <g id="line2d_74">
    <path clip-path="url(#pf9b74102e3)" d="M 90 227.248219 
L 648 227.248219 
" style="fill:none;stroke:#000000;stroke-dasharray:3.7,1.6;stroke-dashoffset:0;"/>
   </g>
   <g id="patch_3">
    <path d="M 90 315 
L 90 43.2 
" style="fill:none;stroke:#000000;stroke-linecap:square;stroke-linejoin:miter;stroke-width:0.8;"/>
   </g>
   <g id="patch_4">
    <path d="M 648 315 
L 648 43.2 
" style="fill:none;stroke:#000000;stroke-linecap:square;stroke-linejoin:miter;stroke-width:0.8;"/>
   </g>
   <g id="patch_5">
    <path d="M 90 315 
L 648 315 
" style="fill:none;stroke:#000000;stroke-linecap:square;stroke-linejoin:miter;stroke-width:0.8;"/>
   </g>
   <g id="patch_6">
    <path d="M 90 43.2 
L 648 43.2 
" style="fill:none;stroke:#000000;stroke-linecap:square;stroke-linejoin:miter;stroke-width:0.8;"/>
   </g>
   <g id="text_21">
    <!-- 241   $R_t$ -->
    <g transform="translate(315.6 37.2)scale(0.12 -0.12)">
     <defs>
      <path d="M 37.796875 64.3125 
L 12.890625 25.390625 
L 37.796875 25.390625 
z
M 35.203125 72.90625 
L 47.609375 72.90625 
L 47.609375 25.390625 
L 58.015625 25.390625 
L 58.015625 17.1875 
L 47.609375 17.1875 
L 47.609375 0 
L 37.796875 0 
L 37.796875 17.1875 
L 4.890625 17.1875 
L 4.890625 26.703125 
z
" id="DejaVuSans-52"/>
      <path id="DejaVuSans-32"/>
      <path d="M 57.28125 0 
L 9.078125 0 
L 9.078125 54.6875 
L 32.671875 54.6875 
Q 39.546875 54.6875 44.234375 53.265625 
Q 48.921875 51.859375 51.828125 48.703125 
Q 54.734375 45.5625 56 40.9375 
Q 57.28125 36.328125 57.28125 29.59375 
z
M 18.171875 47.703125 
L 18.171875 6.984375 
L 48.1875 6.984375 
L 48.1875 30.90625 
Q 48.1875 40.578125 45.015625 44.140625 
Q 41.84375 47.703125 32.8125 47.703125 
z
" id="DejaVuSans-1501"/>
      <path d="M 44.140625 40.828125 
L 44.140625 54.6875 
L 53.515625 54.6875 
L 53.515625 40.828125 
Q 53.515625 35.0625 53.046875 30.71875 
Q 52.59375 26.375 51.390625 22.09375 
Q 50.203125 17.828125 48.046875 14.5 
Q 45.90625 11.1875 42.578125 8.078125 
Q 39.265625 4.984375 34.515625 2.390625 
Q 29.78125 -0.203125 23.4375 -2.484375 
L 4.6875 -9.28125 
L 4.6875 -1.03125 
L 18.953125 4.046875 
L 4.296875 54.6875 
L 13.765625 54.6875 
L 27.25 7.125 
Q 33.6875 9.90625 37.203125 13.5625 
Q 40.71875 17.234375 42.421875 23.671875 
Q 44.140625 30.125 44.140625 40.828125 
z
" id="DejaVuSans-1506"/>
      <path d="M 47.359375 27.828125 
L 47.359375 0 
L 38.28125 0 
L 38.28125 27.828125 
Q 38.28125 31.390625 37.765625 34.265625 
Q 37.25 37.15625 36 39.71875 
Q 34.765625 42.28125 32.8125 43.984375 
Q 30.859375 45.703125 27.78125 46.703125 
Q 24.703125 47.703125 20.703125 47.703125 
L 4.296875 47.703125 
L 4.296875 54.6875 
L 20.65625 54.6875 
Q 26.8125 54.6875 31.46875 53.390625 
Q 36.140625 52.09375 39.109375 49.828125 
Q 42.09375 47.5625 43.96875 44.109375 
Q 45.84375 40.671875 46.59375 36.734375 
Q 47.359375 32.8125 47.359375 27.828125 
z
" id="DejaVuSans-1512"/>
      <path d="M 9.078125 54.6875 
L 29.890625 54.6875 
Q 42.484375 54.6875 49.703125 47.5625 
Q 56.9375 40.4375 56.9375 27.34375 
Q 56.9375 14.265625 49.6875 7.125 
Q 42.4375 0 29.890625 0 
L 9.078125 0 
L 9.078125 6.9375 
L 26.171875 6.9375 
Q 37.703125 6.9375 42.796875 11.625 
Q 47.90625 16.3125 47.90625 27.9375 
Q 47.90625 38.625 42.625 43.15625 
Q 37.359375 47.703125 26.21875 47.703125 
L 18.171875 47.703125 
L 18.109375 36.859375 
Q 18.0625 33.296875 19.8125 31.609375 
Q 21.578125 29.9375 25.203125 29.9375 
Q 27.203125 29.9375 30.46875 30.5625 
L 30.46875 23.140625 
Q 26.46875 22.359375 23.1875 22.359375 
Q 16.65625 22.359375 12.859375 25.96875 
Q 9.078125 29.59375 9.078125 38.1875 
z
" id="DejaVuSans-1508"/>
      <path d="M 21 0 
L 11.8125 0 
L 4.296875 54.6875 
L 13.328125 54.6875 
L 16.890625 28.953125 
Q 19.234375 29 21.0625 29.359375 
Q 22.90625 29.734375 24.265625 30.53125 
Q 25.640625 31.34375 26.609375 32.203125 
Q 27.59375 33.0625 28.296875 34.625 
Q 29 36.1875 29.40625 37.46875 
Q 29.828125 38.765625 30.1875 41.03125 
Q 30.5625 43.3125 30.75 45 
Q 30.953125 46.6875 31.265625 49.640625 
Q 31.59375 52.59375 31.890625 54.6875 
L 39.9375 54.6875 
Q 39.0625 42 37.890625 36.96875 
Q 35.890625 28.609375 30.609375 25.25 
Q 25.984375 22.265625 17.828125 21.96875 
L 19.921875 6.984375 
Q 24.703125 6.984375 28.390625 7.34375 
Q 32.078125 7.71875 35.640625 8.6875 
Q 39.203125 9.671875 41.8125 11.296875 
Q 44.4375 12.9375 46.84375 15.5 
Q 49.265625 18.0625 50.953125 21.625 
Q 52.640625 25.203125 54 30 
Q 55.375 34.8125 56.203125 40.90625 
Q 57.03125 47.015625 57.515625 54.6875 
L 66.546875 54.6875 
Q 65.671875 46.578125 64.640625 40.421875 
Q 63.625 34.28125 62.125 28.703125 
Q 60.640625 23.140625 58.8125 19.15625 
Q 56.984375 15.1875 54.421875 11.84375 
Q 51.859375 8.5 48.703125 6.375 
Q 45.5625 4.25 41.375 2.75 
Q 37.203125 1.265625 32.25 0.625 
Q 27.296875 0 21 0 
z
" id="DejaVuSans-1513"/>
      <path d="M 18.171875 54.6875 
L 18.171875 0 
L 9.078125 0 
L 9.078125 54.6875 
z
" id="DejaVuSans-1493"/>
      <path d="M 30.328125 54.6875 
L 30.328125 47.703125 
L 26.421875 47.703125 
Q 22.171875 47.703125 20.578125 43.921875 
Q 19 40.140625 19 30.90625 
L 19 0 
L 9.90625 0 
L 9.90625 30.90625 
Q 9.90625 37.109375 11.78125 41.453125 
Q 13.671875 45.796875 16.40625 47.703125 
L 4.296875 47.703125 
L 4.296875 54.6875 
z
" id="DejaVuSans-1494"/>
      <path d="M 43.75 20.0625 
L 57.671875 0 
L 47.078125 0 
L 26.765625 29.296875 
Q 25.390625 28.609375 24.53125 28.09375 
Q 23.6875 27.59375 22.3125 26.296875 
Q 20.953125 25 20.140625 23.40625 
Q 19.34375 21.828125 18.703125 19.140625 
Q 18.0625 16.453125 18.0625 13.09375 
L 18.0625 0 
L 9.078125 0 
L 9.078125 9.03125 
Q 9.078125 12.984375 9.5625 16.359375 
Q 10.0625 19.734375 10.8125 22.078125 
Q 11.578125 24.421875 12.796875 26.390625 
Q 14.015625 28.375 15.109375 29.59375 
Q 16.21875 30.8125 17.796875 31.875 
Q 19.390625 32.953125 20.453125 33.46875 
Q 21.53125 33.984375 23.046875 34.625 
L 9.1875 54.6875 
L 19.78125 54.6875 
L 40.09375 25.390625 
Q 41.40625 26.03125 42.25 26.53125 
Q 43.109375 27.046875 44.46875 28.359375 
Q 45.84375 29.6875 46.671875 31.265625 
Q 47.515625 32.859375 48.140625 35.546875 
Q 48.78125 38.234375 48.78125 41.609375 
L 48.78125 54.6875 
L 57.765625 54.6875 
L 57.765625 45.65625 
Q 57.765625 41.65625 57.265625 38.3125 
Q 56.78125 34.96875 56.03125 32.59375 
Q 55.28125 30.21875 54.046875 28.234375 
Q 52.828125 26.265625 51.703125 25.0625 
Q 50.59375 23.875 49.03125 22.796875 
Q 47.46875 21.734375 46.390625 21.21875 
Q 45.3125 20.703125 43.75 20.0625 
z
" id="DejaVuSans-1488"/>
      <path d="M 25.203125 64.796875 
L 20.21875 38.921875 
L 32.90625 38.921875 
Q 40.375 38.921875 44.984375 43.046875 
Q 49.609375 47.171875 49.609375 53.8125 
Q 49.609375 59.125 46.5 61.953125 
Q 43.40625 64.796875 37.59375 64.796875 
z
M 43.3125 35.015625 
Q 46.4375 34.28125 48.515625 31.390625 
Q 50.59375 28.515625 53.328125 19.921875 
L 59.515625 0 
L 49.125 0 
L 43.40625 18.703125 
Q 41.21875 25.921875 38.328125 28.359375 
Q 35.453125 30.8125 29.5 30.8125 
L 18.609375 30.8125 
L 12.59375 0 
L 2.6875 0 
L 16.890625 72.90625 
L 39.109375 72.90625 
Q 49.21875 72.90625 54.609375 68.328125 
Q 60.015625 63.765625 60.015625 55.171875 
Q 60.015625 47.5625 55.421875 41.984375 
Q 50.828125 36.421875 43.3125 35.015625 
z
" id="DejaVuSans-Oblique-82"/>
      <path d="M 42.28125 54.6875 
L 40.921875 47.703125 
L 23 47.703125 
L 17.1875 18.015625 
Q 16.890625 16.359375 16.75 15.234375 
Q 16.609375 14.109375 16.609375 13.484375 
Q 16.609375 10.359375 18.484375 8.9375 
Q 20.359375 7.515625 24.515625 7.515625 
L 33.59375 7.515625 
L 32.078125 0 
L 23.484375 0 
Q 15.484375 0 11.546875 3.125 
Q 7.625 6.25 7.625 12.59375 
Q 7.625 13.71875 7.765625 15.0625 
Q 7.90625 16.40625 8.203125 18.015625 
L 14.015625 47.703125 
L 6.390625 47.703125 
L 7.8125 54.6875 
L 15.28125 54.6875 
L 18.3125 70.21875 
L 27.296875 70.21875 
L 24.3125 54.6875 
z
" id="DejaVuSans-Oblique-116"/>
     </defs>
     <use transform="translate(0 0.78125)" xlink:href="#DejaVuSans-50"/>
     <use transform="translate(63.623047 0.78125)" xlink:href="#DejaVuSans-52"/>
     <use transform="translate(127.246094 0.78125)" xlink:href="#DejaVuSans-49"/>
     <use transform="translate(190.869141 0.78125)" xlink:href="#DejaVuSans-32"/>
     <use transform="translate(222.65625 0.78125)" xlink:href="#DejaVuSans-1501"/>
     <use transform="translate(289.013672 0.78125)" xlink:href="#DejaVuSans-1506"/>
     <use transform="translate(351.611328 0.78125)" xlink:href="#DejaVuSans-1512"/>
     <use transform="translate(408.056641 0.78125)" xlink:href="#DejaVuSans-1508"/>
     <use transform="translate(470.507812 0.78125)" xlink:href="#DejaVuSans-1513"/>
     <use transform="translate(541.357422 0.78125)" xlink:href="#DejaVuSans-32"/>
     <use transform="translate(573.144531 0.78125)" xlink:href="#DejaVuSans-1512"/>
     <use transform="translate(629.589844 0.78125)" xlink:href="#DejaVuSans-1493"/>
     <use transform="translate(656.835938 0.78125)" xlink:href="#DejaVuSans-1494"/>
     <use transform="translate(691.455078 0.78125)" xlink:href="#DejaVuSans-1488"/>
     <use transform="translate(758.300781 0.78125)" xlink:href="#DejaVuSans-32"/>
     <use transform="translate(790.087891 0.78125)" xlink:href="#DejaVuSans-Oblique-82"/>
     <use transform="translate(859.570312 -15.625)scale(0.7)" xlink:href="#DejaVuSans-Oblique-116"/>
    </g>
   </g>
  </g>
 </g>
 <defs>
  <clipPath id="pf9b74102e3">
   <rect height="271.8" width="558" x="90" y="43.2"/>
  </clipPath>
 </defs>
</svg>
