<?xml version="1.0" encoding="utf-8" standalone="no"?>
<!DOCTYPE svg PUBLIC "-//W3C//DTD SVG 1.1//EN"
  "http://www.w3.org/Graphics/SVG/1.1/DTD/svg11.dtd">
<!-- Created with matplotlib (https://matplotlib.org/) -->
<svg height="360pt" version="1.1" viewBox="0 0 720 360" width="720pt" xmlns="http://www.w3.org/2000/svg" xmlns:xlink="http://www.w3.org/1999/xlink">
 <metadata>
  <rdf:RDF xmlns:cc="http://creativecommons.org/ns#" xmlns:dc="http://purl.org/dc/elements/1.1/" xmlns:rdf="http://www.w3.org/1999/02/22-rdf-syntax-ns#">
   <cc:Work>
    <dc:type rdf:resource="http://purl.org/dc/dcmitype/StillImage"/>
    <dc:date>2021-01-28T02:32:51.986314</dc:date>
    <dc:format>image/svg+xml</dc:format>
    <dc:creator>
     <cc:Agent>
      <dc:title>Matplotlib v3.3.2, https://matplotlib.org/</dc:title>
     </cc:Agent>
    </dc:creator>
   </cc:Work>
  </rdf:RDF>
 </metadata>
 <defs>
  <style type="text/css">*{stroke-linecap:butt;stroke-linejoin:round;}</style>
 </defs>
 <g id="figure_1">
  <g id="patch_1">
   <path d="M 0 360 
L 720 360 
L 720 0 
L 0 0 
z
" style="fill:#ffffff;"/>
  </g>
  <g id="axes_1">
   <g id="patch_2">
    <path d="M 90 315 
L 648 315 
L 648 43.2 
L 90 43.2 
z
" style="fill:#ffffff;"/>
   </g>
   <g id="PolyCollection_1">
    <defs>
     <path d="M 90 -114.83172 
L 90 -191.264964 
L 91.823529 -188.166684 
L 93.647059 -189.616032 
L 95.470588 -187.186556 
L 97.294118 -181.591763 
L 99.117647 -177.814867 
L 100.941176 -177.503864 
L 102.764706 -173.189802 
L 104.588235 -164.564812 
L 106.411765 -167.395987 
L 108.235294 -160.160451 
L 110.058824 -153.679041 
L 111.882353 -150.747818 
L 113.705882 -146.716881 
L 115.529412 -140.594464 
L 117.352941 -136.84414 
L 119.176471 -132.949618 
L 121 -127.487503 
L 122.823529 -124.555783 
L 124.647059 -117.389529 
L 126.470588 -114.653856 
L 128.294118 -111.324568 
L 130.117647 -107.161156 
L 131.941176 -101.145238 
L 133.764706 -97.347222 
L 135.588235 -97.69439 
L 137.411765 -92.653092 
L 139.235294 -90.003398 
L 141.058824 -87.9314 
L 142.882353 -87.431197 
L 144.705882 -85.229221 
L 146.529412 -85.339364 
L 148.352941 -84.448153 
L 150.176471 -83.663299 
L 152 -84.396013 
L 153.823529 -85.124583 
L 155.647059 -85.972243 
L 157.470588 -89.807552 
L 159.294118 -89.847105 
L 161.117647 -92.300479 
L 162.941176 -92.265738 
L 164.764706 -96.364199 
L 166.588235 -98.443537 
L 168.411765 -101.270903 
L 170.235294 -105.031336 
L 172.058824 -107.161566 
L 173.882353 -110.512964 
L 175.705882 -114.766016 
L 177.529412 -120.130747 
L 179.352941 -121.349273 
L 181.176471 -130.852965 
L 183 -132.942049 
L 184.823529 -138.070377 
L 186.647059 -142.118814 
L 188.470588 -148.106879 
L 190.294118 -155.126592 
L 192.117647 -159.443625 
L 193.941176 -167.446553 
L 195.764706 -177.367685 
L 197.588235 -180.373068 
L 199.411765 -186.927169 
L 201.235294 -189.167096 
L 203.058824 -197.699726 
L 204.882353 -200.540575 
L 206.705882 -208.531577 
L 208.529412 -215.002212 
L 210.352941 -220.95126 
L 212.176471 -219.445485 
L 214 -228.889016 
L 215.823529 -232.496774 
L 217.647059 -240.405809 
L 219.470588 -240.245166 
L 221.294118 -251.892693 
L 223.117647 -251.018428 
L 224.941176 -255.287721 
L 226.764706 -259.622525 
L 228.588235 -263.281119 
L 230.411765 -264.402592 
L 232.235294 -270.318389 
L 234.058824 -273.464676 
L 235.882353 -284.153509 
L 237.705882 -287.59968 
L 239.529412 -295.214092 
L 241.352941 -293.332625 
L 243.176471 -295.926578 
L 245 -297.067325 
L 246.823529 -294.79509 
L 248.647059 -296.571849 
L 250.470588 -296.721589 
L 252.294118 -291.724132 
L 254.117647 -292.697577 
L 255.941176 -288.458517 
L 257.764706 -287.118037 
L 259.588235 -279.925998 
L 261.411765 -278.19529 
L 263.235294 -277.184458 
L 265.058824 -267.820251 
L 266.882353 -264.22799 
L 268.705882 -257.599166 
L 270.529412 -252.340018 
L 272.352941 -247.454708 
L 274.176471 -238.039926 
L 276 -231.730691 
L 277.823529 -225.004725 
L 279.647059 -221.385907 
L 281.470588 -218.323446 
L 283.294118 -217.859458 
L 285.117647 -210.961748 
L 286.941176 -208.998292 
L 288.764706 -204.341154 
L 290.588235 -202.554061 
L 292.411765 -199.681714 
L 294.235294 -198.457057 
L 296.058824 -198.431715 
L 297.882353 -194.013988 
L 299.705882 -200.920847 
L 301.529412 -193.756879 
L 303.352941 -199.019752 
L 305.176471 -197.069947 
L 307 -194.115387 
L 308.823529 -193.754895 
L 310.647059 -194.118191 
L 312.470588 -192.596456 
L 314.294118 -189.840711 
L 316.117647 -188.395157 
L 317.941176 -184.352108 
L 319.764706 -180.781584 
L 321.588235 -178.828027 
L 323.411765 -178.566251 
L 325.235294 -172.674432 
L 327.058824 -172.466204 
L 328.882353 -165.582117 
L 330.705882 -162.972791 
L 332.529412 -160.091433 
L 334.352941 -150.956073 
L 336.176471 -149.603653 
L 338 -146.896294 
L 339.823529 -147.573108 
L 341.647059 -140.369612 
L 343.470588 -141.544233 
L 345.294118 -138.432733 
L 347.117647 -137.218862 
L 348.941176 -137.39273 
L 350.764706 -137.763624 
L 352.588235 -139.0545 
L 354.411765 -144.049963 
L 356.235294 -145.39349 
L 358.058824 -150.791884 
L 359.882353 -152.96718 
L 361.705882 -156.426909 
L 363.529412 -160.576467 
L 365.352941 -167.962372 
L 367.176471 -174.210786 
L 369 -181.776882 
L 370.823529 -184.504279 
L 372.647059 -185.843215 
L 374.470588 -191.120881 
L 376.294118 -198.322941 
L 378.117647 -200.563407 
L 379.941176 -205.505851 
L 381.764706 -209.220951 
L 383.588235 -210.946752 
L 385.411765 -216.187047 
L 387.235294 -214.764581 
L 389.058824 -214.436427 
L 390.882353 -215.417934 
L 392.705882 -215.235341 
L 394.529412 -218.959324 
L 396.352941 -220.454224 
L 398.176471 -220.103991 
L 400 -220.531405 
L 401.823529 -218.80823 
L 403.647059 -219.633345 
L 405.470588 -221.978955 
L 407.294118 -219.569952 
L 409.117647 -215.691781 
L 410.941176 -211.240858 
L 412.764706 -206.272367 
L 414.588235 -201.058459 
L 416.411765 -198.704686 
L 418.235294 -187.642933 
L 420.058824 -184.232152 
L 421.882353 -179.051577 
L 423.705882 -167.935376 
L 425.529412 -162.063495 
L 427.352941 -151.696215 
L 429.176471 -144.409179 
L 431 -135.624708 
L 432.823529 -125.56919 
L 434.647059 -119.037253 
L 436.470588 -113.322968 
L 438.294118 -106.381493 
L 440.117647 -100.051334 
L 441.941176 -94.904544 
L 443.764706 -90.605992 
L 445.588235 -87.724366 
L 447.411765 -84.866768 
L 449.235294 -81.50288 
L 451.058824 -80.954785 
L 452.882353 -77.749512 
L 454.705882 -77.286281 
L 456.529412 -77.585626 
L 458.352941 -76.59176 
L 460.176471 -76.138486 
L 462 -76.068086 
L 463.823529 -78.187471 
L 465.647059 -77.297248 
L 467.470588 -78.994422 
L 469.294118 -80.224213 
L 471.117647 -84.343564 
L 472.941176 -87.322522 
L 474.764706 -89.055361 
L 476.588235 -92.509495 
L 478.411765 -95.089519 
L 480.235294 -98.784373 
L 482.058824 -102.444524 
L 483.882353 -106.819962 
L 485.705882 -110.045108 
L 487.529412 -115.061848 
L 489.352941 -119.200876 
L 491.176471 -121.018683 
L 493 -122.491501 
L 494.823529 -128.168183 
L 496.647059 -130.164629 
L 498.470588 -134.77541 
L 500.294118 -137.09875 
L 502.117647 -141.208556 
L 503.941176 -143.397288 
L 505.764706 -146.841104 
L 507.588235 -151.039198 
L 509.411765 -149.269823 
L 511.235294 -151.815259 
L 513.058824 -157.161223 
L 514.882353 -159.615601 
L 516.705882 -160.188339 
L 518.529412 -162.099371 
L 520.352941 -165.285148 
L 522.176471 -165.726639 
L 524 -173.031108 
L 525.823529 -173.808035 
L 527.647059 -180.946553 
L 529.470588 -185.648755 
L 531.294118 -188.176534 
L 533.117647 -196.259702 
L 534.941176 -198.787062 
L 536.764706 -205.843906 
L 538.588235 -212.050407 
L 540.411765 -214.196468 
L 542.235294 -220.581002 
L 544.058824 -228.888544 
L 545.882353 -238.732804 
L 547.705882 -240.56256 
L 549.529412 -252.263139 
L 551.352941 -263.666868 
L 553.176471 -267.516587 
L 555 -274.5486 
L 556.823529 -278.878281 
L 558.647059 -277.206876 
L 560.470588 -292.375164 
L 562.294118 -291.72596 
L 564.117647 -294.831164 
L 565.941176 -299.168557 
L 567.764706 -302.906624 
L 569.588235 -304.445455 
L 571.411765 -301.599208 
L 573.235294 -304.138809 
L 575.058824 -299.025542 
L 576.882353 -297.554332 
L 578.705882 -300.019749 
L 580.529412 -298.21553 
L 582.352941 -290.53851 
L 584.176471 -289.202614 
L 586 -285.638179 
L 587.823529 -276.31959 
L 589.647059 -268.609966 
L 591.470588 -269.770662 
L 593.294118 -256.562802 
L 595.117647 -254.232475 
L 596.941176 -250.560874 
L 598.764706 -244.096033 
L 600.588235 -236.39895 
L 602.411765 -231.107227 
L 604.235294 -223.429794 
L 606.058824 -217.315781 
L 607.882353 -208.064783 
L 609.705882 -204.146797 
L 611.529412 -197.522805 
L 613.352941 -193.470299 
L 615.176471 -186.578508 
L 617 -181.839566 
L 618.823529 -178.235894 
L 620.647059 -175.030058 
L 622.470588 -168.22558 
L 624.294118 -165.027294 
L 626.117647 -160.558941 
L 627.941176 -157.87358 
L 629.764706 -160.548145 
L 631.588235 -156.674563 
L 633.411765 -155.305805 
L 635.235294 -155.558686 
L 637.058824 -159.626751 
L 638.882353 -155.971079 
L 640.705882 -161.696202 
L 642.529412 -166.054771 
L 644.352941 -161.332316 
L 646.176471 -167.20132 
L 648 -169.976465 
L 649.823529 -169.738811 
L 651.647059 -171.012786 
L 653.470588 -166.632336 
L 655.294118 -167.955301 
L 657.117647 -175.284493 
L 658.941176 -178.247567 
L 660.764706 -176.178756 
L 660.764706 -85.694911 
L 660.764706 -85.694911 
L 658.941176 -91.443682 
L 657.117647 -90.694205 
L 655.294118 -88.492978 
L 653.470588 -89.988143 
L 651.647059 -96.134681 
L 649.823529 -96.656754 
L 648 -96.754617 
L 646.176471 -99.044023 
L 644.352941 -94.99176 
L 642.529412 -104.052796 
L 640.705882 -102.514001 
L 638.882353 -101.944146 
L 637.058824 -108.116931 
L 635.235294 -104.831374 
L 633.411765 -110.501541 
L 631.588235 -112.418698 
L 629.764706 -118.472008 
L 627.941176 -115.87918 
L 626.117647 -118.143892 
L 624.294118 -126.122796 
L 622.470588 -127.245942 
L 620.647059 -133.260892 
L 618.823529 -136.578599 
L 617 -141.539729 
L 615.176471 -144.154822 
L 613.352941 -147.898078 
L 611.529412 -152.514818 
L 609.705882 -158.524567 
L 607.882353 -160.850688 
L 606.058824 -169.235439 
L 604.235294 -172.85393 
L 602.411765 -180.484482 
L 600.588235 -181.646513 
L 598.764706 -188.31399 
L 596.941176 -193.894254 
L 595.117647 -196.321233 
L 593.294118 -198.013245 
L 591.470588 -206.77066 
L 589.647059 -206.872746 
L 587.823529 -214.668836 
L 586 -224.224317 
L 584.176471 -224.189074 
L 582.352941 -225.803621 
L 580.529412 -230.090644 
L 578.705882 -230.781111 
L 576.882353 -229.939738 
L 575.058824 -230.883298 
L 573.235294 -237.138381 
L 571.411765 -229.824104 
L 569.588235 -233.992741 
L 567.764706 -234.120107 
L 565.941176 -234.013761 
L 564.117647 -226.77636 
L 562.294118 -224.941352 
L 560.470588 -226.731459 
L 558.647059 -215.229628 
L 556.823529 -216.34287 
L 555 -210.909167 
L 553.176471 -203.312994 
L 551.352941 -201.657741 
L 549.529412 -193.253471 
L 547.705882 -183.421469 
L 545.882353 -187.226355 
L 544.058824 -176.595837 
L 542.235294 -169.05021 
L 540.411765 -164.739944 
L 538.588235 -160.936677 
L 536.764706 -156.934837 
L 534.941176 -151.381897 
L 533.117647 -149.763371 
L 531.294118 -142.573533 
L 529.470588 -139.239608 
L 527.647059 -136.206627 
L 525.823529 -131.229026 
L 524 -131.368481 
L 522.176471 -123.487762 
L 520.352941 -124.821285 
L 518.529412 -123.809992 
L 516.705882 -121.227821 
L 514.882353 -120.608864 
L 513.058824 -117.463899 
L 511.235294 -112.8289 
L 509.411765 -112.494652 
L 507.588235 -112.864474 
L 505.764706 -110.372934 
L 503.941176 -106.159007 
L 502.117647 -104.193198 
L 500.294118 -100.720887 
L 498.470588 -99.423141 
L 496.647059 -95.694141 
L 494.823529 -95.568229 
L 493 -90.060494 
L 491.176471 -88.399815 
L 489.352941 -87.790589 
L 487.529412 -85.068017 
L 485.705882 -81.459116 
L 483.882353 -80.350121 
L 482.058824 -76.389027 
L 480.235294 -73.331267 
L 478.411765 -71.809711 
L 476.588235 -70.732134 
L 474.764706 -67.480599 
L 472.941176 -65.830203 
L 471.117647 -63.903618 
L 469.294118 -61.447103 
L 467.470588 -60.080361 
L 465.647059 -57.568524 
L 463.823529 -59.102025 
L 462 -57.354545 
L 460.176471 -57.885544 
L 458.352941 -57.694411 
L 456.529412 -58.250175 
L 454.705882 -57.999476 
L 452.882353 -58.735996 
L 451.058824 -61.988489 
L 449.235294 -61.620119 
L 447.411765 -64.364163 
L 445.588235 -67.408747 
L 443.764706 -69.312251 
L 441.941176 -72.554368 
L 440.117647 -76.860008 
L 438.294118 -80.887428 
L 436.470588 -86.785816 
L 434.647059 -91.496261 
L 432.823529 -95.572004 
L 431 -103.740673 
L 429.176471 -112.127833 
L 427.352941 -116.83788 
L 425.529412 -124.104337 
L 423.705882 -129.26495 
L 421.882353 -138.300195 
L 420.058824 -143.244226 
L 418.235294 -145.572133 
L 416.411765 -154.748944 
L 414.588235 -158.086546 
L 412.764706 -160.775199 
L 410.941176 -163.575686 
L 409.117647 -167.425021 
L 407.294118 -170.025921 
L 405.470588 -173.411454 
L 403.647059 -169.318043 
L 401.823529 -167.836375 
L 400 -170.159132 
L 398.176471 -170.969119 
L 396.352941 -171.84668 
L 394.529412 -170.671353 
L 392.705882 -165.712112 
L 390.882353 -167.930964 
L 389.058824 -167.879534 
L 387.235294 -165.508381 
L 385.411765 -166.616437 
L 383.588235 -158.677559 
L 381.764706 -157.40484 
L 379.941176 -157.750469 
L 378.117647 -153.1714 
L 376.294118 -151.674988 
L 374.470588 -146.227143 
L 372.647059 -141.419015 
L 370.823529 -142.178879 
L 369 -138.795978 
L 367.176471 -133.511479 
L 365.352941 -130.002344 
L 363.529412 -123.840897 
L 361.705882 -119.8142 
L 359.882353 -118.067092 
L 358.058824 -115.414108 
L 356.235294 -112.642848 
L 354.411765 -110.465349 
L 352.588235 -106.891683 
L 350.764706 -106.894587 
L 348.941176 -105.311449 
L 347.117647 -104.938667 
L 345.294118 -106.232288 
L 343.470588 -108.120535 
L 341.647059 -106.200782 
L 339.823529 -112.468088 
L 338 -111.749122 
L 336.176471 -113.588026 
L 334.352941 -116.423944 
L 332.529412 -121.533908 
L 330.705882 -123.500972 
L 328.882353 -127.765517 
L 327.058824 -132.284623 
L 325.235294 -132.761147 
L 323.411765 -136.305079 
L 321.588235 -138.218681 
L 319.764706 -138.641847 
L 317.941176 -143.666064 
L 316.117647 -147.220856 
L 314.294118 -146.935858 
L 312.470588 -147.56777 
L 310.647059 -148.932575 
L 308.823529 -149.241555 
L 307 -148.442701 
L 305.176471 -151.06579 
L 303.352941 -153.181597 
L 301.529412 -148.983618 
L 299.705882 -155.290578 
L 297.882353 -150.970739 
L 296.058824 -155.531817 
L 294.235294 -154.651898 
L 292.411765 -155.212796 
L 290.588235 -157.682366 
L 288.764706 -158.207262 
L 286.941176 -163.757681 
L 285.117647 -162.868606 
L 283.294118 -170.933862 
L 281.470588 -170.325292 
L 279.647059 -172.558 
L 277.823529 -174.078545 
L 276 -180.160717 
L 274.176471 -183.883419 
L 272.352941 -190.920415 
L 270.529412 -192.898405 
L 268.705882 -197.659472 
L 266.882353 -203.704807 
L 265.058824 -209.874734 
L 263.235294 -215.953971 
L 261.411765 -216.676732 
L 259.588235 -216.186011 
L 257.764706 -223.787162 
L 255.941176 -225.850858 
L 254.117647 -226.528656 
L 252.294118 -223.439111 
L 250.470588 -228.823162 
L 248.647059 -228.165408 
L 246.823529 -224.802636 
L 245 -223.735143 
L 243.176471 -221.109522 
L 241.352941 -218.661091 
L 239.529412 -218.236692 
L 237.705882 -215.273629 
L 235.882353 -212.798236 
L 234.058824 -202.281358 
L 232.235294 -200.303123 
L 230.411765 -195.056833 
L 228.588235 -196.468778 
L 226.764706 -192.070603 
L 224.941176 -189.111945 
L 223.117647 -190.09511 
L 221.294118 -189.381949 
L 219.470588 -177.202553 
L 217.647059 -177.140009 
L 215.823529 -171.64764 
L 214 -165.56096 
L 212.176471 -158.740249 
L 210.352941 -163.293744 
L 208.529412 -155.29874 
L 206.705882 -151.205384 
L 204.882353 -147.870285 
L 203.058824 -144.097369 
L 201.235294 -136.206137 
L 199.411765 -136.212715 
L 197.588235 -130.387478 
L 195.764706 -127.59893 
L 193.941176 -120.893157 
L 192.117647 -115.204711 
L 190.294118 -110.316524 
L 188.470588 -104.431714 
L 186.647059 -101.332461 
L 184.823529 -99.792276 
L 183 -95.031204 
L 181.176471 -93.464599 
L 179.352941 -86.457569 
L 177.529412 -86.193093 
L 175.705882 -83.456857 
L 173.882353 -80.132561 
L 172.058824 -78.048641 
L 170.235294 -76.577298 
L 168.411765 -74.361665 
L 166.588235 -72.038357 
L 164.764706 -69.584035 
L 162.941176 -65.733307 
L 161.117647 -66.077949 
L 159.294118 -64.785134 
L 157.470588 -64.468202 
L 155.647059 -61.29074 
L 153.823529 -60.687388 
L 152 -61.359084 
L 150.176471 -59.796751 
L 148.352941 -61.565031 
L 146.529412 -62.679351 
L 144.705882 -62.937637 
L 142.882353 -64.542229 
L 141.058824 -65.41896 
L 139.235294 -66.52191 
L 137.411765 -69.303698 
L 135.588235 -72.051564 
L 133.764706 -72.439692 
L 131.941176 -75.693268 
L 130.117647 -79.260667 
L 128.294118 -81.854143 
L 126.470588 -84.624789 
L 124.647059 -87.508272 
L 122.823529 -94.428078 
L 121 -95.863437 
L 119.176471 -100.907739 
L 117.352941 -102.982982 
L 115.529412 -106.173372 
L 113.705882 -109.858332 
L 111.882353 -114.292232 
L 110.058824 -116.00271 
L 108.235294 -118.593188 
L 106.411765 -121.158336 
L 104.588235 -115.929397 
L 102.764706 -120.467032 
L 100.941176 -122.00705 
L 99.117647 -118.972088 
L 97.294118 -119.202524 
L 95.470588 -117.740416 
L 93.647059 -117.578794 
L 91.823529 -116.147958 
L 90 -114.83172 
z
" id="m0a97f5b401" style="stroke:#fdcbb6;stroke-opacity:0.8;"/>
    </defs>
    <g clip-path="url(#p9b717a0132)">
     <use style="fill:#fdcbb6;fill-opacity:0.8;stroke:#fdcbb6;stroke-opacity:0.8;" x="0" xlink:href="#m0a97f5b401" y="360"/>
    </g>
   </g>
   <g id="matplotlib.axis_1">
    <g id="xtick_1">
     <g id="line2d_1">
      <defs>
       <path d="M 0 0 
L 0 3.5 
" id="m9563c84fb2" style="stroke:#000000;stroke-width:0.8;"/>
      </defs>
      <g>
       <use style="stroke:#000000;stroke-width:0.8;" x="90" xlink:href="#m9563c84fb2" y="315"/>
      </g>
     </g>
    </g>
    <g id="xtick_2">
     <g id="line2d_2">
      <g>
       <use style="stroke:#000000;stroke-width:0.8;" x="115.529412" xlink:href="#m9563c84fb2" y="315"/>
      </g>
     </g>
     <g id="text_1">
      <!-- Apr -->
      <g transform="translate(106.879412 329.598437)scale(0.1 -0.1)">
       <defs>
        <path d="M 34.1875 63.1875 
L 20.796875 26.90625 
L 47.609375 26.90625 
z
M 28.609375 72.90625 
L 39.796875 72.90625 
L 67.578125 0 
L 57.328125 0 
L 50.6875 18.703125 
L 17.828125 18.703125 
L 11.1875 0 
L 0.78125 0 
z
" id="DejaVuSans-65"/>
        <path d="M 18.109375 8.203125 
L 18.109375 -20.796875 
L 9.078125 -20.796875 
L 9.078125 54.6875 
L 18.109375 54.6875 
L 18.109375 46.390625 
Q 20.953125 51.265625 25.265625 53.625 
Q 29.59375 56 35.59375 56 
Q 45.5625 56 51.78125 48.09375 
Q 58.015625 40.1875 58.015625 27.296875 
Q 58.015625 14.40625 51.78125 6.484375 
Q 45.5625 -1.421875 35.59375 -1.421875 
Q 29.59375 -1.421875 25.265625 0.953125 
Q 20.953125 3.328125 18.109375 8.203125 
z
M 48.6875 27.296875 
Q 48.6875 37.203125 44.609375 42.84375 
Q 40.53125 48.484375 33.40625 48.484375 
Q 26.265625 48.484375 22.1875 42.84375 
Q 18.109375 37.203125 18.109375 27.296875 
Q 18.109375 17.390625 22.1875 11.75 
Q 26.265625 6.109375 33.40625 6.109375 
Q 40.53125 6.109375 44.609375 11.75 
Q 48.6875 17.390625 48.6875 27.296875 
z
" id="DejaVuSans-112"/>
        <path d="M 41.109375 46.296875 
Q 39.59375 47.171875 37.8125 47.578125 
Q 36.03125 48 33.890625 48 
Q 26.265625 48 22.1875 43.046875 
Q 18.109375 38.09375 18.109375 28.8125 
L 18.109375 0 
L 9.078125 0 
L 9.078125 54.6875 
L 18.109375 54.6875 
L 18.109375 46.1875 
Q 20.953125 51.171875 25.484375 53.578125 
Q 30.03125 56 36.53125 56 
Q 37.453125 56 38.578125 55.875 
Q 39.703125 55.765625 41.0625 55.515625 
z
" id="DejaVuSans-114"/>
       </defs>
       <use xlink:href="#DejaVuSans-65"/>
       <use x="68.408203" xlink:href="#DejaVuSans-112"/>
       <use x="131.884766" xlink:href="#DejaVuSans-114"/>
      </g>
     </g>
    </g>
    <g id="xtick_3">
     <g id="line2d_3">
      <g>
       <use style="stroke:#000000;stroke-width:0.8;" x="170.235294" xlink:href="#m9563c84fb2" y="315"/>
      </g>
     </g>
     <g id="text_2">
      <!-- May -->
      <g transform="translate(159.897794 329.598437)scale(0.1 -0.1)">
       <defs>
        <path d="M 9.8125 72.90625 
L 24.515625 72.90625 
L 43.109375 23.296875 
L 61.8125 72.90625 
L 76.515625 72.90625 
L 76.515625 0 
L 66.890625 0 
L 66.890625 64.015625 
L 48.09375 14.015625 
L 38.1875 14.015625 
L 19.390625 64.015625 
L 19.390625 0 
L 9.8125 0 
z
" id="DejaVuSans-77"/>
        <path d="M 34.28125 27.484375 
Q 23.390625 27.484375 19.1875 25 
Q 14.984375 22.515625 14.984375 16.5 
Q 14.984375 11.71875 18.140625 8.90625 
Q 21.296875 6.109375 26.703125 6.109375 
Q 34.1875 6.109375 38.703125 11.40625 
Q 43.21875 16.703125 43.21875 25.484375 
L 43.21875 27.484375 
z
M 52.203125 31.203125 
L 52.203125 0 
L 43.21875 0 
L 43.21875 8.296875 
Q 40.140625 3.328125 35.546875 0.953125 
Q 30.953125 -1.421875 24.3125 -1.421875 
Q 15.921875 -1.421875 10.953125 3.296875 
Q 6 8.015625 6 15.921875 
Q 6 25.140625 12.171875 29.828125 
Q 18.359375 34.515625 30.609375 34.515625 
L 43.21875 34.515625 
L 43.21875 35.40625 
Q 43.21875 41.609375 39.140625 45 
Q 35.0625 48.390625 27.6875 48.390625 
Q 23 48.390625 18.546875 47.265625 
Q 14.109375 46.140625 10.015625 43.890625 
L 10.015625 52.203125 
Q 14.9375 54.109375 19.578125 55.046875 
Q 24.21875 56 28.609375 56 
Q 40.484375 56 46.34375 49.84375 
Q 52.203125 43.703125 52.203125 31.203125 
z
" id="DejaVuSans-97"/>
        <path d="M 32.171875 -5.078125 
Q 28.375 -14.84375 24.75 -17.8125 
Q 21.140625 -20.796875 15.09375 -20.796875 
L 7.90625 -20.796875 
L 7.90625 -13.28125 
L 13.1875 -13.28125 
Q 16.890625 -13.28125 18.9375 -11.515625 
Q 21 -9.765625 23.484375 -3.21875 
L 25.09375 0.875 
L 2.984375 54.6875 
L 12.5 54.6875 
L 29.59375 11.921875 
L 46.6875 54.6875 
L 56.203125 54.6875 
z
" id="DejaVuSans-121"/>
       </defs>
       <use xlink:href="#DejaVuSans-77"/>
       <use x="86.279297" xlink:href="#DejaVuSans-97"/>
       <use x="147.558594" xlink:href="#DejaVuSans-121"/>
      </g>
     </g>
    </g>
    <g id="xtick_4">
     <g id="line2d_4">
      <g>
       <use style="stroke:#000000;stroke-width:0.8;" x="226.764706" xlink:href="#m9563c84fb2" y="315"/>
      </g>
     </g>
     <g id="text_3">
      <!-- Jun -->
      <g transform="translate(218.952206 329.598437)scale(0.1 -0.1)">
       <defs>
        <path d="M 9.8125 72.90625 
L 19.671875 72.90625 
L 19.671875 5.078125 
Q 19.671875 -8.109375 14.671875 -14.0625 
Q 9.671875 -20.015625 -1.421875 -20.015625 
L -5.171875 -20.015625 
L -5.171875 -11.71875 
L -2.09375 -11.71875 
Q 4.4375 -11.71875 7.125 -8.046875 
Q 9.8125 -4.390625 9.8125 5.078125 
z
" id="DejaVuSans-74"/>
        <path d="M 8.5 21.578125 
L 8.5 54.6875 
L 17.484375 54.6875 
L 17.484375 21.921875 
Q 17.484375 14.15625 20.5 10.265625 
Q 23.53125 6.390625 29.59375 6.390625 
Q 36.859375 6.390625 41.078125 11.03125 
Q 45.3125 15.671875 45.3125 23.6875 
L 45.3125 54.6875 
L 54.296875 54.6875 
L 54.296875 0 
L 45.3125 0 
L 45.3125 8.40625 
Q 42.046875 3.421875 37.71875 1 
Q 33.40625 -1.421875 27.6875 -1.421875 
Q 18.265625 -1.421875 13.375 4.4375 
Q 8.5 10.296875 8.5 21.578125 
z
M 31.109375 56 
z
" id="DejaVuSans-117"/>
        <path d="M 54.890625 33.015625 
L 54.890625 0 
L 45.90625 0 
L 45.90625 32.71875 
Q 45.90625 40.484375 42.875 44.328125 
Q 39.84375 48.1875 33.796875 48.1875 
Q 26.515625 48.1875 22.3125 43.546875 
Q 18.109375 38.921875 18.109375 30.90625 
L 18.109375 0 
L 9.078125 0 
L 9.078125 54.6875 
L 18.109375 54.6875 
L 18.109375 46.1875 
Q 21.34375 51.125 25.703125 53.5625 
Q 30.078125 56 35.796875 56 
Q 45.21875 56 50.046875 50.171875 
Q 54.890625 44.34375 54.890625 33.015625 
z
" id="DejaVuSans-110"/>
       </defs>
       <use xlink:href="#DejaVuSans-74"/>
       <use x="29.492188" xlink:href="#DejaVuSans-117"/>
       <use x="92.871094" xlink:href="#DejaVuSans-110"/>
      </g>
     </g>
    </g>
    <g id="xtick_5">
     <g id="line2d_5">
      <g>
       <use style="stroke:#000000;stroke-width:0.8;" x="281.470588" xlink:href="#m9563c84fb2" y="315"/>
      </g>
     </g>
     <g id="text_4">
      <!-- Jul -->
      <g transform="translate(275.437776 329.598437)scale(0.1 -0.1)">
       <defs>
        <path d="M 9.421875 75.984375 
L 18.40625 75.984375 
L 18.40625 0 
L 9.421875 0 
z
" id="DejaVuSans-108"/>
       </defs>
       <use xlink:href="#DejaVuSans-74"/>
       <use x="29.492188" xlink:href="#DejaVuSans-117"/>
       <use x="92.871094" xlink:href="#DejaVuSans-108"/>
      </g>
     </g>
    </g>
    <g id="xtick_6">
     <g id="line2d_6">
      <g>
       <use style="stroke:#000000;stroke-width:0.8;" x="338" xlink:href="#m9563c84fb2" y="315"/>
      </g>
     </g>
     <g id="text_5">
      <!-- Aug -->
      <g transform="translate(328.236719 329.598437)scale(0.1 -0.1)">
       <defs>
        <path d="M 45.40625 27.984375 
Q 45.40625 37.75 41.375 43.109375 
Q 37.359375 48.484375 30.078125 48.484375 
Q 22.859375 48.484375 18.828125 43.109375 
Q 14.796875 37.75 14.796875 27.984375 
Q 14.796875 18.265625 18.828125 12.890625 
Q 22.859375 7.515625 30.078125 7.515625 
Q 37.359375 7.515625 41.375 12.890625 
Q 45.40625 18.265625 45.40625 27.984375 
z
M 54.390625 6.78125 
Q 54.390625 -7.171875 48.1875 -13.984375 
Q 42 -20.796875 29.203125 -20.796875 
Q 24.46875 -20.796875 20.265625 -20.09375 
Q 16.0625 -19.390625 12.109375 -17.921875 
L 12.109375 -9.1875 
Q 16.0625 -11.328125 19.921875 -12.34375 
Q 23.78125 -13.375 27.78125 -13.375 
Q 36.625 -13.375 41.015625 -8.765625 
Q 45.40625 -4.15625 45.40625 5.171875 
L 45.40625 9.625 
Q 42.625 4.78125 38.28125 2.390625 
Q 33.9375 0 27.875 0 
Q 17.828125 0 11.671875 7.65625 
Q 5.515625 15.328125 5.515625 27.984375 
Q 5.515625 40.671875 11.671875 48.328125 
Q 17.828125 56 27.875 56 
Q 33.9375 56 38.28125 53.609375 
Q 42.625 51.21875 45.40625 46.390625 
L 45.40625 54.6875 
L 54.390625 54.6875 
z
" id="DejaVuSans-103"/>
       </defs>
       <use xlink:href="#DejaVuSans-65"/>
       <use x="68.408203" xlink:href="#DejaVuSans-117"/>
       <use x="131.787109" xlink:href="#DejaVuSans-103"/>
      </g>
     </g>
    </g>
    <g id="xtick_7">
     <g id="line2d_7">
      <g>
       <use style="stroke:#000000;stroke-width:0.8;" x="394.529412" xlink:href="#m9563c84fb2" y="315"/>
      </g>
     </g>
     <g id="text_6">
      <!-- Sep -->
      <g transform="translate(385.104412 329.598437)scale(0.1 -0.1)">
       <defs>
        <path d="M 53.515625 70.515625 
L 53.515625 60.890625 
Q 47.90625 63.578125 42.921875 64.890625 
Q 37.9375 66.21875 33.296875 66.21875 
Q 25.25 66.21875 20.875 63.09375 
Q 16.5 59.96875 16.5 54.203125 
Q 16.5 49.359375 19.40625 46.890625 
Q 22.3125 44.4375 30.421875 42.921875 
L 36.375 41.703125 
Q 47.40625 39.59375 52.65625 34.296875 
Q 57.90625 29 57.90625 20.125 
Q 57.90625 9.515625 50.796875 4.046875 
Q 43.703125 -1.421875 29.984375 -1.421875 
Q 24.8125 -1.421875 18.96875 -0.25 
Q 13.140625 0.921875 6.890625 3.21875 
L 6.890625 13.375 
Q 12.890625 10.015625 18.65625 8.296875 
Q 24.421875 6.59375 29.984375 6.59375 
Q 38.421875 6.59375 43.015625 9.90625 
Q 47.609375 13.234375 47.609375 19.390625 
Q 47.609375 24.75 44.3125 27.78125 
Q 41.015625 30.8125 33.5 32.328125 
L 27.484375 33.5 
Q 16.453125 35.6875 11.515625 40.375 
Q 6.59375 45.0625 6.59375 53.421875 
Q 6.59375 63.09375 13.40625 68.65625 
Q 20.21875 74.21875 32.171875 74.21875 
Q 37.3125 74.21875 42.625 73.28125 
Q 47.953125 72.359375 53.515625 70.515625 
z
" id="DejaVuSans-83"/>
        <path d="M 56.203125 29.59375 
L 56.203125 25.203125 
L 14.890625 25.203125 
Q 15.484375 15.921875 20.484375 11.0625 
Q 25.484375 6.203125 34.421875 6.203125 
Q 39.59375 6.203125 44.453125 7.46875 
Q 49.3125 8.734375 54.109375 11.28125 
L 54.109375 2.78125 
Q 49.265625 0.734375 44.1875 -0.34375 
Q 39.109375 -1.421875 33.890625 -1.421875 
Q 20.796875 -1.421875 13.15625 6.1875 
Q 5.515625 13.8125 5.515625 26.8125 
Q 5.515625 40.234375 12.765625 48.109375 
Q 20.015625 56 32.328125 56 
Q 43.359375 56 49.78125 48.890625 
Q 56.203125 41.796875 56.203125 29.59375 
z
M 47.21875 32.234375 
Q 47.125 39.59375 43.09375 43.984375 
Q 39.0625 48.390625 32.421875 48.390625 
Q 24.90625 48.390625 20.390625 44.140625 
Q 15.875 39.890625 15.1875 32.171875 
z
" id="DejaVuSans-101"/>
       </defs>
       <use xlink:href="#DejaVuSans-83"/>
       <use x="63.476562" xlink:href="#DejaVuSans-101"/>
       <use x="125" xlink:href="#DejaVuSans-112"/>
      </g>
     </g>
    </g>
    <g id="xtick_8">
     <g id="line2d_8">
      <g>
       <use style="stroke:#000000;stroke-width:0.8;" x="449.235294" xlink:href="#m9563c84fb2" y="315"/>
      </g>
     </g>
     <g id="text_7">
      <!-- Oct -->
      <g transform="translate(440.589982 329.598437)scale(0.1 -0.1)">
       <defs>
        <path d="M 39.40625 66.21875 
Q 28.65625 66.21875 22.328125 58.203125 
Q 16.015625 50.203125 16.015625 36.375 
Q 16.015625 22.609375 22.328125 14.59375 
Q 28.65625 6.59375 39.40625 6.59375 
Q 50.140625 6.59375 56.421875 14.59375 
Q 62.703125 22.609375 62.703125 36.375 
Q 62.703125 50.203125 56.421875 58.203125 
Q 50.140625 66.21875 39.40625 66.21875 
z
M 39.40625 74.21875 
Q 54.734375 74.21875 63.90625 63.9375 
Q 73.09375 53.65625 73.09375 36.375 
Q 73.09375 19.140625 63.90625 8.859375 
Q 54.734375 -1.421875 39.40625 -1.421875 
Q 24.03125 -1.421875 14.8125 8.828125 
Q 5.609375 19.09375 5.609375 36.375 
Q 5.609375 53.65625 14.8125 63.9375 
Q 24.03125 74.21875 39.40625 74.21875 
z
" id="DejaVuSans-79"/>
        <path d="M 48.78125 52.59375 
L 48.78125 44.1875 
Q 44.96875 46.296875 41.140625 47.34375 
Q 37.3125 48.390625 33.40625 48.390625 
Q 24.65625 48.390625 19.8125 42.84375 
Q 14.984375 37.3125 14.984375 27.296875 
Q 14.984375 17.28125 19.8125 11.734375 
Q 24.65625 6.203125 33.40625 6.203125 
Q 37.3125 6.203125 41.140625 7.25 
Q 44.96875 8.296875 48.78125 10.40625 
L 48.78125 2.09375 
Q 45.015625 0.34375 40.984375 -0.53125 
Q 36.96875 -1.421875 32.421875 -1.421875 
Q 20.0625 -1.421875 12.78125 6.34375 
Q 5.515625 14.109375 5.515625 27.296875 
Q 5.515625 40.671875 12.859375 48.328125 
Q 20.21875 56 33.015625 56 
Q 37.15625 56 41.109375 55.140625 
Q 45.0625 54.296875 48.78125 52.59375 
z
" id="DejaVuSans-99"/>
        <path d="M 18.3125 70.21875 
L 18.3125 54.6875 
L 36.8125 54.6875 
L 36.8125 47.703125 
L 18.3125 47.703125 
L 18.3125 18.015625 
Q 18.3125 11.328125 20.140625 9.421875 
Q 21.96875 7.515625 27.59375 7.515625 
L 36.8125 7.515625 
L 36.8125 0 
L 27.59375 0 
Q 17.1875 0 13.234375 3.875 
Q 9.28125 7.765625 9.28125 18.015625 
L 9.28125 47.703125 
L 2.6875 47.703125 
L 2.6875 54.6875 
L 9.28125 54.6875 
L 9.28125 70.21875 
z
" id="DejaVuSans-116"/>
       </defs>
       <use xlink:href="#DejaVuSans-79"/>
       <use x="78.710938" xlink:href="#DejaVuSans-99"/>
       <use x="133.691406" xlink:href="#DejaVuSans-116"/>
      </g>
     </g>
    </g>
    <g id="xtick_9">
     <g id="line2d_9">
      <g>
       <use style="stroke:#000000;stroke-width:0.8;" x="505.764706" xlink:href="#m9563c84fb2" y="315"/>
      </g>
     </g>
     <g id="text_8">
      <!-- Nov -->
      <g transform="translate(496.005331 329.598437)scale(0.1 -0.1)">
       <defs>
        <path d="M 9.8125 72.90625 
L 23.09375 72.90625 
L 55.421875 11.921875 
L 55.421875 72.90625 
L 64.984375 72.90625 
L 64.984375 0 
L 51.703125 0 
L 19.390625 60.984375 
L 19.390625 0 
L 9.8125 0 
z
" id="DejaVuSans-78"/>
        <path d="M 30.609375 48.390625 
Q 23.390625 48.390625 19.1875 42.75 
Q 14.984375 37.109375 14.984375 27.296875 
Q 14.984375 17.484375 19.15625 11.84375 
Q 23.34375 6.203125 30.609375 6.203125 
Q 37.796875 6.203125 41.984375 11.859375 
Q 46.1875 17.53125 46.1875 27.296875 
Q 46.1875 37.015625 41.984375 42.703125 
Q 37.796875 48.390625 30.609375 48.390625 
z
M 30.609375 56 
Q 42.328125 56 49.015625 48.375 
Q 55.71875 40.765625 55.71875 27.296875 
Q 55.71875 13.875 49.015625 6.21875 
Q 42.328125 -1.421875 30.609375 -1.421875 
Q 18.84375 -1.421875 12.171875 6.21875 
Q 5.515625 13.875 5.515625 27.296875 
Q 5.515625 40.765625 12.171875 48.375 
Q 18.84375 56 30.609375 56 
z
" id="DejaVuSans-111"/>
        <path d="M 2.984375 54.6875 
L 12.5 54.6875 
L 29.59375 8.796875 
L 46.6875 54.6875 
L 56.203125 54.6875 
L 35.6875 0 
L 23.484375 0 
z
" id="DejaVuSans-118"/>
       </defs>
       <use xlink:href="#DejaVuSans-78"/>
       <use x="74.804688" xlink:href="#DejaVuSans-111"/>
       <use x="135.986328" xlink:href="#DejaVuSans-118"/>
      </g>
     </g>
    </g>
    <g id="xtick_10">
     <g id="line2d_10">
      <g>
       <use style="stroke:#000000;stroke-width:0.8;" x="560.470588" xlink:href="#m9563c84fb2" y="315"/>
      </g>
     </g>
     <g id="text_9">
      <!-- Dec -->
      <g transform="translate(550.794807 329.598437)scale(0.1 -0.1)">
       <defs>
        <path d="M 19.671875 64.796875 
L 19.671875 8.109375 
L 31.59375 8.109375 
Q 46.6875 8.109375 53.6875 14.9375 
Q 60.6875 21.78125 60.6875 36.53125 
Q 60.6875 51.171875 53.6875 57.984375 
Q 46.6875 64.796875 31.59375 64.796875 
z
M 9.8125 72.90625 
L 30.078125 72.90625 
Q 51.265625 72.90625 61.171875 64.09375 
Q 71.09375 55.28125 71.09375 36.53125 
Q 71.09375 17.671875 61.125 8.828125 
Q 51.171875 0 30.078125 0 
L 9.8125 0 
z
" id="DejaVuSans-68"/>
       </defs>
       <use xlink:href="#DejaVuSans-68"/>
       <use x="77.001953" xlink:href="#DejaVuSans-101"/>
       <use x="138.525391" xlink:href="#DejaVuSans-99"/>
      </g>
     </g>
    </g>
    <g id="xtick_11">
     <g id="line2d_11">
      <g>
       <use style="stroke:#000000;stroke-width:0.8;" x="617" xlink:href="#m9563c84fb2" y="315"/>
      </g>
     </g>
     <g id="text_10">
      <!-- Jan -->
      <g transform="translate(609.292187 329.598437)scale(0.1 -0.1)">
       <use xlink:href="#DejaVuSans-74"/>
       <use x="29.492188" xlink:href="#DejaVuSans-97"/>
       <use x="90.771484" xlink:href="#DejaVuSans-110"/>
      </g>
      <!-- 2021 -->
      <g transform="translate(604.275 340.79625)scale(0.1 -0.1)">
       <defs>
        <path d="M 19.1875 8.296875 
L 53.609375 8.296875 
L 53.609375 0 
L 7.328125 0 
L 7.328125 8.296875 
Q 12.9375 14.109375 22.625 23.890625 
Q 32.328125 33.6875 34.8125 36.53125 
Q 39.546875 41.84375 41.421875 45.53125 
Q 43.3125 49.21875 43.3125 52.78125 
Q 43.3125 58.59375 39.234375 62.25 
Q 35.15625 65.921875 28.609375 65.921875 
Q 23.96875 65.921875 18.8125 64.3125 
Q 13.671875 62.703125 7.8125 59.421875 
L 7.8125 69.390625 
Q 13.765625 71.78125 18.9375 73 
Q 24.125 74.21875 28.421875 74.21875 
Q 39.75 74.21875 46.484375 68.546875 
Q 53.21875 62.890625 53.21875 53.421875 
Q 53.21875 48.921875 51.53125 44.890625 
Q 49.859375 40.875 45.40625 35.40625 
Q 44.1875 33.984375 37.640625 27.21875 
Q 31.109375 20.453125 19.1875 8.296875 
z
" id="DejaVuSans-50"/>
        <path d="M 31.78125 66.40625 
Q 24.171875 66.40625 20.328125 58.90625 
Q 16.5 51.421875 16.5 36.375 
Q 16.5 21.390625 20.328125 13.890625 
Q 24.171875 6.390625 31.78125 6.390625 
Q 39.453125 6.390625 43.28125 13.890625 
Q 47.125 21.390625 47.125 36.375 
Q 47.125 51.421875 43.28125 58.90625 
Q 39.453125 66.40625 31.78125 66.40625 
z
M 31.78125 74.21875 
Q 44.046875 74.21875 50.515625 64.515625 
Q 56.984375 54.828125 56.984375 36.375 
Q 56.984375 17.96875 50.515625 8.265625 
Q 44.046875 -1.421875 31.78125 -1.421875 
Q 19.53125 -1.421875 13.0625 8.265625 
Q 6.59375 17.96875 6.59375 36.375 
Q 6.59375 54.828125 13.0625 64.515625 
Q 19.53125 74.21875 31.78125 74.21875 
z
" id="DejaVuSans-48"/>
        <path d="M 12.40625 8.296875 
L 28.515625 8.296875 
L 28.515625 63.921875 
L 10.984375 60.40625 
L 10.984375 69.390625 
L 28.421875 72.90625 
L 38.28125 72.90625 
L 38.28125 8.296875 
L 54.390625 8.296875 
L 54.390625 0 
L 12.40625 0 
z
" id="DejaVuSans-49"/>
       </defs>
       <use xlink:href="#DejaVuSans-50"/>
       <use x="63.623047" xlink:href="#DejaVuSans-48"/>
       <use x="127.246094" xlink:href="#DejaVuSans-50"/>
       <use x="190.869141" xlink:href="#DejaVuSans-49"/>
      </g>
     </g>
    </g>
    <g id="xtick_12">
     <g id="line2d_12">
      <g>
       <use style="stroke:#000000;stroke-width:0.8;" x="648" xlink:href="#m9563c84fb2" y="315"/>
      </g>
     </g>
    </g>
    <g id="xtick_13">
     <g id="line2d_13">
      <defs>
       <path d="M 0 0 
L 0 2 
" id="mdc295c0c11" style="stroke:#000000;stroke-width:0.6;"/>
      </defs>
      <g>
       <use style="stroke:#000000;stroke-width:0.6;" x="99.117647" xlink:href="#mdc295c0c11" y="315"/>
      </g>
     </g>
    </g>
    <g id="xtick_14">
     <g id="line2d_14">
      <g>
       <use style="stroke:#000000;stroke-width:0.6;" x="111.882353" xlink:href="#mdc295c0c11" y="315"/>
      </g>
     </g>
    </g>
    <g id="xtick_15">
     <g id="line2d_15">
      <g>
       <use style="stroke:#000000;stroke-width:0.6;" x="124.647059" xlink:href="#mdc295c0c11" y="315"/>
      </g>
     </g>
    </g>
    <g id="xtick_16">
     <g id="line2d_16">
      <g>
       <use style="stroke:#000000;stroke-width:0.6;" x="137.411765" xlink:href="#mdc295c0c11" y="315"/>
      </g>
     </g>
    </g>
    <g id="xtick_17">
     <g id="line2d_17">
      <g>
       <use style="stroke:#000000;stroke-width:0.6;" x="150.176471" xlink:href="#mdc295c0c11" y="315"/>
      </g>
     </g>
    </g>
    <g id="xtick_18">
     <g id="line2d_18">
      <g>
       <use style="stroke:#000000;stroke-width:0.6;" x="162.941176" xlink:href="#mdc295c0c11" y="315"/>
      </g>
     </g>
    </g>
    <g id="xtick_19">
     <g id="line2d_19">
      <g>
       <use style="stroke:#000000;stroke-width:0.6;" x="175.705882" xlink:href="#mdc295c0c11" y="315"/>
      </g>
     </g>
    </g>
    <g id="xtick_20">
     <g id="line2d_20">
      <g>
       <use style="stroke:#000000;stroke-width:0.6;" x="188.470588" xlink:href="#mdc295c0c11" y="315"/>
      </g>
     </g>
    </g>
    <g id="xtick_21">
     <g id="line2d_21">
      <g>
       <use style="stroke:#000000;stroke-width:0.6;" x="201.235294" xlink:href="#mdc295c0c11" y="315"/>
      </g>
     </g>
    </g>
    <g id="xtick_22">
     <g id="line2d_22">
      <g>
       <use style="stroke:#000000;stroke-width:0.6;" x="214" xlink:href="#mdc295c0c11" y="315"/>
      </g>
     </g>
    </g>
    <g id="xtick_23">
     <g id="line2d_23">
      <g>
       <use style="stroke:#000000;stroke-width:0.6;" x="239.529412" xlink:href="#mdc295c0c11" y="315"/>
      </g>
     </g>
    </g>
    <g id="xtick_24">
     <g id="line2d_24">
      <g>
       <use style="stroke:#000000;stroke-width:0.6;" x="252.294118" xlink:href="#mdc295c0c11" y="315"/>
      </g>
     </g>
    </g>
    <g id="xtick_25">
     <g id="line2d_25">
      <g>
       <use style="stroke:#000000;stroke-width:0.6;" x="265.058824" xlink:href="#mdc295c0c11" y="315"/>
      </g>
     </g>
    </g>
    <g id="xtick_26">
     <g id="line2d_26">
      <g>
       <use style="stroke:#000000;stroke-width:0.6;" x="277.823529" xlink:href="#mdc295c0c11" y="315"/>
      </g>
     </g>
    </g>
    <g id="xtick_27">
     <g id="line2d_27">
      <g>
       <use style="stroke:#000000;stroke-width:0.6;" x="290.588235" xlink:href="#mdc295c0c11" y="315"/>
      </g>
     </g>
    </g>
    <g id="xtick_28">
     <g id="line2d_28">
      <g>
       <use style="stroke:#000000;stroke-width:0.6;" x="303.352941" xlink:href="#mdc295c0c11" y="315"/>
      </g>
     </g>
    </g>
    <g id="xtick_29">
     <g id="line2d_29">
      <g>
       <use style="stroke:#000000;stroke-width:0.6;" x="316.117647" xlink:href="#mdc295c0c11" y="315"/>
      </g>
     </g>
    </g>
    <g id="xtick_30">
     <g id="line2d_30">
      <g>
       <use style="stroke:#000000;stroke-width:0.6;" x="328.882353" xlink:href="#mdc295c0c11" y="315"/>
      </g>
     </g>
    </g>
    <g id="xtick_31">
     <g id="line2d_31">
      <g>
       <use style="stroke:#000000;stroke-width:0.6;" x="341.647059" xlink:href="#mdc295c0c11" y="315"/>
      </g>
     </g>
    </g>
    <g id="xtick_32">
     <g id="line2d_32">
      <g>
       <use style="stroke:#000000;stroke-width:0.6;" x="354.411765" xlink:href="#mdc295c0c11" y="315"/>
      </g>
     </g>
    </g>
    <g id="xtick_33">
     <g id="line2d_33">
      <g>
       <use style="stroke:#000000;stroke-width:0.6;" x="367.176471" xlink:href="#mdc295c0c11" y="315"/>
      </g>
     </g>
    </g>
    <g id="xtick_34">
     <g id="line2d_34">
      <g>
       <use style="stroke:#000000;stroke-width:0.6;" x="379.941176" xlink:href="#mdc295c0c11" y="315"/>
      </g>
     </g>
    </g>
    <g id="xtick_35">
     <g id="line2d_35">
      <g>
       <use style="stroke:#000000;stroke-width:0.6;" x="392.705882" xlink:href="#mdc295c0c11" y="315"/>
      </g>
     </g>
    </g>
    <g id="xtick_36">
     <g id="line2d_36">
      <g>
       <use style="stroke:#000000;stroke-width:0.6;" x="405.470588" xlink:href="#mdc295c0c11" y="315"/>
      </g>
     </g>
    </g>
    <g id="xtick_37">
     <g id="line2d_37">
      <g>
       <use style="stroke:#000000;stroke-width:0.6;" x="418.235294" xlink:href="#mdc295c0c11" y="315"/>
      </g>
     </g>
    </g>
    <g id="xtick_38">
     <g id="line2d_38">
      <g>
       <use style="stroke:#000000;stroke-width:0.6;" x="431" xlink:href="#mdc295c0c11" y="315"/>
      </g>
     </g>
    </g>
    <g id="xtick_39">
     <g id="line2d_39">
      <g>
       <use style="stroke:#000000;stroke-width:0.6;" x="443.764706" xlink:href="#mdc295c0c11" y="315"/>
      </g>
     </g>
    </g>
    <g id="xtick_40">
     <g id="line2d_40">
      <g>
       <use style="stroke:#000000;stroke-width:0.6;" x="456.529412" xlink:href="#mdc295c0c11" y="315"/>
      </g>
     </g>
    </g>
    <g id="xtick_41">
     <g id="line2d_41">
      <g>
       <use style="stroke:#000000;stroke-width:0.6;" x="469.294118" xlink:href="#mdc295c0c11" y="315"/>
      </g>
     </g>
    </g>
    <g id="xtick_42">
     <g id="line2d_42">
      <g>
       <use style="stroke:#000000;stroke-width:0.6;" x="482.058824" xlink:href="#mdc295c0c11" y="315"/>
      </g>
     </g>
    </g>
    <g id="xtick_43">
     <g id="line2d_43">
      <g>
       <use style="stroke:#000000;stroke-width:0.6;" x="494.823529" xlink:href="#mdc295c0c11" y="315"/>
      </g>
     </g>
    </g>
    <g id="xtick_44">
     <g id="line2d_44">
      <g>
       <use style="stroke:#000000;stroke-width:0.6;" x="507.588235" xlink:href="#mdc295c0c11" y="315"/>
      </g>
     </g>
    </g>
    <g id="xtick_45">
     <g id="line2d_45">
      <g>
       <use style="stroke:#000000;stroke-width:0.6;" x="520.352941" xlink:href="#mdc295c0c11" y="315"/>
      </g>
     </g>
    </g>
    <g id="xtick_46">
     <g id="line2d_46">
      <g>
       <use style="stroke:#000000;stroke-width:0.6;" x="533.117647" xlink:href="#mdc295c0c11" y="315"/>
      </g>
     </g>
    </g>
    <g id="xtick_47">
     <g id="line2d_47">
      <g>
       <use style="stroke:#000000;stroke-width:0.6;" x="545.882353" xlink:href="#mdc295c0c11" y="315"/>
      </g>
     </g>
    </g>
    <g id="xtick_48">
     <g id="line2d_48">
      <g>
       <use style="stroke:#000000;stroke-width:0.6;" x="558.647059" xlink:href="#mdc295c0c11" y="315"/>
      </g>
     </g>
    </g>
    <g id="xtick_49">
     <g id="line2d_49">
      <g>
       <use style="stroke:#000000;stroke-width:0.6;" x="571.411765" xlink:href="#mdc295c0c11" y="315"/>
      </g>
     </g>
    </g>
    <g id="xtick_50">
     <g id="line2d_50">
      <g>
       <use style="stroke:#000000;stroke-width:0.6;" x="584.176471" xlink:href="#mdc295c0c11" y="315"/>
      </g>
     </g>
    </g>
    <g id="xtick_51">
     <g id="line2d_51">
      <g>
       <use style="stroke:#000000;stroke-width:0.6;" x="596.941176" xlink:href="#mdc295c0c11" y="315"/>
      </g>
     </g>
    </g>
    <g id="xtick_52">
     <g id="line2d_52">
      <g>
       <use style="stroke:#000000;stroke-width:0.6;" x="609.705882" xlink:href="#mdc295c0c11" y="315"/>
      </g>
     </g>
    </g>
    <g id="xtick_53">
     <g id="line2d_53">
      <g>
       <use style="stroke:#000000;stroke-width:0.6;" x="622.470588" xlink:href="#mdc295c0c11" y="315"/>
      </g>
     </g>
    </g>
    <g id="xtick_54">
     <g id="line2d_54">
      <g>
       <use style="stroke:#000000;stroke-width:0.6;" x="635.235294" xlink:href="#mdc295c0c11" y="315"/>
      </g>
     </g>
    </g>
    <g id="text_11">
     <!-- date -->
     <g transform="translate(357.725 354.474375)scale(0.1 -0.1)">
      <defs>
       <path d="M 45.40625 46.390625 
L 45.40625 75.984375 
L 54.390625 75.984375 
L 54.390625 0 
L 45.40625 0 
L 45.40625 8.203125 
Q 42.578125 3.328125 38.25 0.953125 
Q 33.9375 -1.421875 27.875 -1.421875 
Q 17.96875 -1.421875 11.734375 6.484375 
Q 5.515625 14.40625 5.515625 27.296875 
Q 5.515625 40.1875 11.734375 48.09375 
Q 17.96875 56 27.875 56 
Q 33.9375 56 38.25 53.625 
Q 42.578125 51.265625 45.40625 46.390625 
z
M 14.796875 27.296875 
Q 14.796875 17.390625 18.875 11.75 
Q 22.953125 6.109375 30.078125 6.109375 
Q 37.203125 6.109375 41.296875 11.75 
Q 45.40625 17.390625 45.40625 27.296875 
Q 45.40625 37.203125 41.296875 42.84375 
Q 37.203125 48.484375 30.078125 48.484375 
Q 22.953125 48.484375 18.875 42.84375 
Q 14.796875 37.203125 14.796875 27.296875 
z
" id="DejaVuSans-100"/>
      </defs>
      <use xlink:href="#DejaVuSans-100"/>
      <use x="63.476562" xlink:href="#DejaVuSans-97"/>
      <use x="124.755859" xlink:href="#DejaVuSans-116"/>
      <use x="163.964844" xlink:href="#DejaVuSans-101"/>
     </g>
    </g>
   </g>
   <g id="matplotlib.axis_2">
    <g id="ytick_1">
     <g id="line2d_55">
      <path clip-path="url(#p9b717a0132)" d="M 90 285.261314 
L 648 285.261314 
" style="fill:none;stroke:#b0b0b0;stroke-dasharray:0.8,1.32;stroke-dashoffset:0;stroke-width:0.8;"/>
     </g>
     <g id="line2d_56">
      <defs>
       <path d="M 0 0 
L -3.5 0 
" id="m2c0f9bb7d7" style="stroke:#000000;stroke-width:0.8;"/>
      </defs>
      <g>
       <use style="stroke:#000000;stroke-width:0.8;" x="90" xlink:href="#m2c0f9bb7d7" y="285.261314"/>
      </g>
     </g>
     <g id="text_12">
      <!-- 0.50 -->
      <g transform="translate(60.734375 289.060533)scale(0.1 -0.1)">
       <defs>
        <path d="M 10.6875 12.40625 
L 21 12.40625 
L 21 0 
L 10.6875 0 
z
" id="DejaVuSans-46"/>
        <path d="M 10.796875 72.90625 
L 49.515625 72.90625 
L 49.515625 64.59375 
L 19.828125 64.59375 
L 19.828125 46.734375 
Q 21.96875 47.46875 24.109375 47.828125 
Q 26.265625 48.1875 28.421875 48.1875 
Q 40.625 48.1875 47.75 41.5 
Q 54.890625 34.8125 54.890625 23.390625 
Q 54.890625 11.625 47.5625 5.09375 
Q 40.234375 -1.421875 26.90625 -1.421875 
Q 22.3125 -1.421875 17.546875 -0.640625 
Q 12.796875 0.140625 7.71875 1.703125 
L 7.71875 11.625 
Q 12.109375 9.234375 16.796875 8.0625 
Q 21.484375 6.890625 26.703125 6.890625 
Q 35.15625 6.890625 40.078125 11.328125 
Q 45.015625 15.765625 45.015625 23.390625 
Q 45.015625 31 40.078125 35.4375 
Q 35.15625 39.890625 26.703125 39.890625 
Q 22.75 39.890625 18.8125 39.015625 
Q 14.890625 38.140625 10.796875 36.28125 
z
" id="DejaVuSans-53"/>
       </defs>
       <use xlink:href="#DejaVuSans-48"/>
       <use x="63.623047" xlink:href="#DejaVuSans-46"/>
       <use x="95.410156" xlink:href="#DejaVuSans-53"/>
       <use x="159.033203" xlink:href="#DejaVuSans-48"/>
      </g>
     </g>
    </g>
    <g id="ytick_2">
     <g id="line2d_57">
      <path clip-path="url(#p9b717a0132)" d="M 90 250.574632 
L 648 250.574632 
" style="fill:none;stroke:#b0b0b0;stroke-dasharray:0.8,1.32;stroke-dashoffset:0;stroke-width:0.8;"/>
     </g>
     <g id="line2d_58">
      <g>
       <use style="stroke:#000000;stroke-width:0.8;" x="90" xlink:href="#m2c0f9bb7d7" y="250.574632"/>
      </g>
     </g>
     <g id="text_13">
      <!-- 0.75 -->
      <g transform="translate(60.734375 254.373851)scale(0.1 -0.1)">
       <defs>
        <path d="M 8.203125 72.90625 
L 55.078125 72.90625 
L 55.078125 68.703125 
L 28.609375 0 
L 18.3125 0 
L 43.21875 64.59375 
L 8.203125 64.59375 
z
" id="DejaVuSans-55"/>
       </defs>
       <use xlink:href="#DejaVuSans-48"/>
       <use x="63.623047" xlink:href="#DejaVuSans-46"/>
       <use x="95.410156" xlink:href="#DejaVuSans-55"/>
       <use x="159.033203" xlink:href="#DejaVuSans-53"/>
      </g>
     </g>
    </g>
    <g id="ytick_3">
     <g id="line2d_59">
      <path clip-path="url(#p9b717a0132)" d="M 90 215.88795 
L 648 215.88795 
" style="fill:none;stroke:#b0b0b0;stroke-dasharray:0.8,1.32;stroke-dashoffset:0;stroke-width:0.8;"/>
     </g>
     <g id="line2d_60">
      <g>
       <use style="stroke:#000000;stroke-width:0.8;" x="90" xlink:href="#m2c0f9bb7d7" y="215.88795"/>
      </g>
     </g>
     <g id="text_14">
      <!-- 1.00 -->
      <g transform="translate(60.734375 219.687169)scale(0.1 -0.1)">
       <use xlink:href="#DejaVuSans-49"/>
       <use x="63.623047" xlink:href="#DejaVuSans-46"/>
       <use x="95.410156" xlink:href="#DejaVuSans-48"/>
       <use x="159.033203" xlink:href="#DejaVuSans-48"/>
      </g>
     </g>
    </g>
    <g id="ytick_4">
     <g id="line2d_61">
      <path clip-path="url(#p9b717a0132)" d="M 90 181.201268 
L 648 181.201268 
" style="fill:none;stroke:#b0b0b0;stroke-dasharray:0.8,1.32;stroke-dashoffset:0;stroke-width:0.8;"/>
     </g>
     <g id="line2d_62">
      <g>
       <use style="stroke:#000000;stroke-width:0.8;" x="90" xlink:href="#m2c0f9bb7d7" y="181.201268"/>
      </g>
     </g>
     <g id="text_15">
      <!-- 1.25 -->
      <g transform="translate(60.734375 185.000486)scale(0.1 -0.1)">
       <use xlink:href="#DejaVuSans-49"/>
       <use x="63.623047" xlink:href="#DejaVuSans-46"/>
       <use x="95.410156" xlink:href="#DejaVuSans-50"/>
       <use x="159.033203" xlink:href="#DejaVuSans-53"/>
      </g>
     </g>
    </g>
    <g id="ytick_5">
     <g id="line2d_63">
      <path clip-path="url(#p9b717a0132)" d="M 90 146.514586 
L 648 146.514586 
" style="fill:none;stroke:#b0b0b0;stroke-dasharray:0.8,1.32;stroke-dashoffset:0;stroke-width:0.8;"/>
     </g>
     <g id="line2d_64">
      <g>
       <use style="stroke:#000000;stroke-width:0.8;" x="90" xlink:href="#m2c0f9bb7d7" y="146.514586"/>
      </g>
     </g>
     <g id="text_16">
      <!-- 1.50 -->
      <g transform="translate(60.734375 150.313804)scale(0.1 -0.1)">
       <use xlink:href="#DejaVuSans-49"/>
       <use x="63.623047" xlink:href="#DejaVuSans-46"/>
       <use x="95.410156" xlink:href="#DejaVuSans-53"/>
       <use x="159.033203" xlink:href="#DejaVuSans-48"/>
      </g>
     </g>
    </g>
    <g id="ytick_6">
     <g id="line2d_65">
      <path clip-path="url(#p9b717a0132)" d="M 90 111.827904 
L 648 111.827904 
" style="fill:none;stroke:#b0b0b0;stroke-dasharray:0.8,1.32;stroke-dashoffset:0;stroke-width:0.8;"/>
     </g>
     <g id="line2d_66">
      <g>
       <use style="stroke:#000000;stroke-width:0.8;" x="90" xlink:href="#m2c0f9bb7d7" y="111.827904"/>
      </g>
     </g>
     <g id="text_17">
      <!-- 1.75 -->
      <g transform="translate(60.734375 115.627122)scale(0.1 -0.1)">
       <use xlink:href="#DejaVuSans-49"/>
       <use x="63.623047" xlink:href="#DejaVuSans-46"/>
       <use x="95.410156" xlink:href="#DejaVuSans-55"/>
       <use x="159.033203" xlink:href="#DejaVuSans-53"/>
      </g>
     </g>
    </g>
    <g id="ytick_7">
     <g id="line2d_67">
      <path clip-path="url(#p9b717a0132)" d="M 90 77.141222 
L 648 77.141222 
" style="fill:none;stroke:#b0b0b0;stroke-dasharray:0.8,1.32;stroke-dashoffset:0;stroke-width:0.8;"/>
     </g>
     <g id="line2d_68">
      <g>
       <use style="stroke:#000000;stroke-width:0.8;" x="90" xlink:href="#m2c0f9bb7d7" y="77.141222"/>
      </g>
     </g>
     <g id="text_18">
      <!-- 2.00 -->
      <g transform="translate(60.734375 80.94044)scale(0.1 -0.1)">
       <use xlink:href="#DejaVuSans-50"/>
       <use x="63.623047" xlink:href="#DejaVuSans-46"/>
       <use x="95.410156" xlink:href="#DejaVuSans-48"/>
       <use x="159.033203" xlink:href="#DejaVuSans-48"/>
      </g>
     </g>
    </g>
   </g>
   <g id="line2d_69">
    <path clip-path="url(#p9b717a0132)" d="M 90 207.167983 
L 91.823529 206.911356 
L 93.647059 207.399832 
L 95.470588 208.138211 
L 99.117647 210.269955 
L 100.941176 212.117227 
L 102.764706 213.385851 
L 104.588235 217.021392 
L 106.411765 219.001773 
L 108.235294 221.399834 
L 110.058824 224.34958 
L 111.882353 228.084145 
L 113.705882 232.214858 
L 115.529412 234.911273 
L 119.176471 243.934197 
L 121 247.644417 
L 126.470588 260.740571 
L 128.294118 264.638049 
L 131.941176 270.662259 
L 135.588235 277.19535 
L 139.235294 282.323269 
L 141.058824 284.015609 
L 142.882353 284.818018 
L 144.705882 286.032785 
L 148.352941 287.408242 
L 150.176471 287.31985 
L 152 287.021805 
L 153.823529 285.882936 
L 155.647059 285.204725 
L 157.470588 283.93589 
L 159.294118 282.999039 
L 161.117647 280.721826 
L 162.941176 279.465501 
L 164.764706 277.12396 
L 166.588235 274.567568 
L 168.411765 272.500303 
L 172.058824 266.844804 
L 173.882353 263.361943 
L 175.705882 260.387875 
L 177.529412 257.023191 
L 179.352941 254.02604 
L 181.176471 249.400661 
L 183 245.60151 
L 186.647059 236.668701 
L 188.470588 231.73397 
L 190.294118 225.450315 
L 193.941176 215.556756 
L 195.764706 211.353825 
L 197.588235 204.993229 
L 199.411765 199.639101 
L 201.235294 194.964068 
L 203.058824 189.599224 
L 204.882353 184.826723 
L 206.705882 179.720411 
L 208.529412 175.420051 
L 212.176471 163.663944 
L 214 160.604045 
L 215.823529 156.197534 
L 217.647059 152.408728 
L 219.470588 146.85239 
L 223.117647 139.245528 
L 224.941176 136.450582 
L 226.764706 131.482256 
L 230.411765 125.900936 
L 232.235294 123.330736 
L 234.058824 118.937768 
L 235.882353 115.890081 
L 237.705882 110.552334 
L 239.529412 106.773119 
L 241.352941 105.108077 
L 243.176471 100.919688 
L 245 99.484801 
L 246.823529 98.855533 
L 248.647059 98.016425 
L 250.470588 97.839236 
L 252.294118 99.849966 
L 254.117647 100.911932 
L 255.941176 103.151198 
L 257.764706 105.802349 
L 259.588235 109.120582 
L 261.411765 111.741614 
L 263.235294 115.225858 
L 268.705882 129.565607 
L 270.529412 136.942092 
L 272.352941 143.043199 
L 274.176471 148.325211 
L 279.647059 163.123717 
L 281.470588 166.463518 
L 283.294118 170.982737 
L 285.117647 172.972983 
L 286.941176 175.651128 
L 288.764706 178.013817 
L 290.588235 180.685289 
L 292.411765 180.459414 
L 294.235294 183.365525 
L 296.058824 183.45327 
L 297.882353 184.44462 
L 299.705882 184.058638 
L 301.529412 184.517604 
L 303.352941 185.790229 
L 305.176471 185.007544 
L 307 186.367628 
L 308.823529 187.409015 
L 310.647059 188.924894 
L 312.470588 190.151651 
L 314.294118 191.152764 
L 316.117647 192.707497 
L 317.941176 195.310992 
L 319.764706 198.527885 
L 321.588235 199.88042 
L 325.235294 205.927079 
L 327.058824 209.626453 
L 328.882353 213.76215 
L 330.705882 217.118011 
L 332.529412 220.839935 
L 334.352941 225.144198 
L 336.176471 227.521692 
L 338 230.370395 
L 339.823529 232.89539 
L 341.647059 235.753411 
L 343.470588 236.539649 
L 345.294118 237.516306 
L 347.117647 238.320474 
L 348.941176 237.334011 
L 350.764706 237.169006 
L 352.588235 235.413977 
L 356.235294 230.748132 
L 359.882353 224.282697 
L 361.705882 219.919566 
L 363.529412 216.783764 
L 367.176471 207.163873 
L 369 201.599358 
L 370.823529 197.713902 
L 372.647059 193.421259 
L 376.294118 185.474295 
L 378.117647 182.131382 
L 379.941176 177.941539 
L 381.764706 174.986877 
L 383.588235 171.783767 
L 385.411765 172.047432 
L 387.235294 171.322351 
L 389.058824 168.733331 
L 390.882353 166.786576 
L 392.705882 166.059391 
L 394.529412 165.039811 
L 396.352941 165.310284 
L 398.176471 164.137104 
L 400 162.109435 
L 401.823529 162.589005 
L 403.647059 163.504187 
L 405.470588 164.066239 
L 409.117647 167.132723 
L 410.941176 169.870902 
L 412.764706 174.277007 
L 414.588235 179.612918 
L 416.411765 184.199667 
L 420.058824 197.021566 
L 421.882353 202.404831 
L 425.529412 216.855773 
L 427.352941 224.326192 
L 431 240.508075 
L 432.823529 247.227903 
L 434.647059 254.44307 
L 436.470588 260.602624 
L 440.117647 271.530289 
L 441.941176 275.70685 
L 445.588235 282.622231 
L 447.411765 285.608103 
L 451.058824 289.593168 
L 454.705882 291.656276 
L 458.352941 292.786579 
L 460.176471 292.789145 
L 463.823529 291.604387 
L 465.647059 290.447334 
L 467.470588 290.032264 
L 469.294118 288.338567 
L 471.117647 285.939075 
L 472.941176 284.030427 
L 474.764706 281.883845 
L 476.588235 279.378071 
L 478.411765 277.201481 
L 482.058824 270.890015 
L 483.882353 268.381613 
L 487.529412 261.488039 
L 489.352941 257.073867 
L 491.176471 253.935202 
L 493 251.130803 
L 494.823529 248.658013 
L 496.647059 245.741626 
L 498.470588 241.414623 
L 500.294118 239.023679 
L 502.117647 237.056116 
L 503.941176 234.178998 
L 507.588235 229.361472 
L 509.411765 228.544306 
L 511.235294 226.736136 
L 513.058824 224.706806 
L 518.529412 217.455315 
L 520.352941 215.715123 
L 522.176471 212.50464 
L 524 208.287208 
L 525.823529 206.073424 
L 527.647059 201.219207 
L 529.470588 198.300369 
L 531.294118 193.358838 
L 533.117647 189.485132 
L 534.941176 183.450701 
L 536.764706 178.979538 
L 538.588235 173.984964 
L 540.411765 168.086824 
L 542.235294 162.973259 
L 544.058824 157.429909 
L 545.882353 149.731038 
L 547.705882 143.976289 
L 549.529412 136.664344 
L 553.176471 126.233285 
L 555 118.969575 
L 556.823529 113.050717 
L 558.647059 108.834366 
L 560.470588 103.182614 
L 564.117647 95.471791 
L 565.941176 90.729352 
L 567.764706 91.200658 
L 569.588235 90.458821 
L 571.411765 88.941373 
L 573.235294 88.9378 
L 575.058824 90.919025 
L 576.882353 92.426338 
L 578.705882 96.238532 
L 580.529412 96.996379 
L 582.352941 101.227756 
L 584.176471 104.645884 
L 587.823529 114.16485 
L 589.647059 119.166475 
L 593.294118 126.794613 
L 595.117647 132.994992 
L 596.941176 138.031346 
L 598.764706 143.638211 
L 602.411765 154.026179 
L 604.235294 159.411192 
L 606.058824 166.877311 
L 607.882353 173.235269 
L 609.705882 178.330151 
L 611.529412 183.951441 
L 613.352941 188.961849 
L 615.176471 194.550239 
L 617 198.582659 
L 618.823529 203.916718 
L 620.647059 207.389164 
L 622.470588 211.296526 
L 624.294118 215.499965 
L 626.117647 217.914011 
L 629.764706 222.251512 
L 631.588235 224.502411 
L 633.411765 225.273623 
L 635.235294 226.564576 
L 637.058824 227.562258 
L 638.882353 228.185857 
L 640.705882 228.518187 
L 642.529412 229.402637 
L 646.176471 229.545349 
L 648 229.218549 
L 649.823529 229.639752 
L 651.647059 229.146192 
L 653.470588 229.552535 
L 655.294118 228.748717 
L 657.117647 228.972421 
L 658.941176 229.029339 
L 660.764706 228.411711 
L 660.764706 228.411711 
" style="fill:none;stroke:#fc997a;stroke-linecap:square;stroke-width:1.5;"/>
   </g>
   <g id="line2d_70">
    <path clip-path="url(#p9b717a0132)" d="M 90 215.88795 
L 648 215.88795 
" style="fill:none;stroke:#000000;stroke-dasharray:3.7,1.6;stroke-dashoffset:0;"/>
   </g>
   <g id="patch_3">
    <path d="M 90 315 
L 90 43.2 
" style="fill:none;stroke:#000000;stroke-linecap:square;stroke-linejoin:miter;stroke-width:0.8;"/>
   </g>
   <g id="patch_4">
    <path d="M 648 315 
L 648 43.2 
" style="fill:none;stroke:#000000;stroke-linecap:square;stroke-linejoin:miter;stroke-width:0.8;"/>
   </g>
   <g id="patch_5">
    <path d="M 90 315 
L 648 315 
" style="fill:none;stroke:#000000;stroke-linecap:square;stroke-linejoin:miter;stroke-width:0.8;"/>
   </g>
   <g id="patch_6">
    <path d="M 90 43.2 
L 648 43.2 
" style="fill:none;stroke:#000000;stroke-linecap:square;stroke-linejoin:miter;stroke-width:0.8;"/>
   </g>
   <g id="text_19">
    <!-- 74  $R_t$ -->
    <g transform="translate(325.32 37.2)scale(0.12 -0.12)">
     <defs>
      <path d="M 37.796875 64.3125 
L 12.890625 25.390625 
L 37.796875 25.390625 
z
M 35.203125 72.90625 
L 47.609375 72.90625 
L 47.609375 25.390625 
L 58.015625 25.390625 
L 58.015625 17.1875 
L 47.609375 17.1875 
L 47.609375 0 
L 37.796875 0 
L 37.796875 17.1875 
L 4.890625 17.1875 
L 4.890625 26.703125 
z
" id="DejaVuSans-52"/>
      <path id="DejaVuSans-32"/>
      <path d="M 19.140625 33.40625 
L 19.140625 0 
L 10.109375 0 
L 10.109375 29.6875 
z
M 56.25 27.828125 
L 56.25 0 
L 47.21875 0 
L 47.21875 29.6875 
Q 47.21875 40.234375 44.0625 43.96875 
Q 40.921875 47.703125 31.84375 47.703125 
L 9.078125 47.703125 
L 9.078125 54.6875 
L 31.734375 54.6875 
Q 45.265625 54.6875 50.75 48.578125 
Q 56.25 42.484375 56.25 27.828125 
z
" id="DejaVuSans-1492"/>
      <path d="M 18.796875 0 
L 38.53125 47.703125 
L 4.296875 47.703125 
L 4.296875 72.90625 
L 13.421875 72.90625 
L 13.421875 54.6875 
L 49.21875 54.640625 
L 49.078125 49.265625 
L 28.328125 0 
z
" id="DejaVuSans-1500"/>
      <path d="M 43.75 20.0625 
L 57.671875 0 
L 47.078125 0 
L 26.765625 29.296875 
Q 25.390625 28.609375 24.53125 28.09375 
Q 23.6875 27.59375 22.3125 26.296875 
Q 20.953125 25 20.140625 23.40625 
Q 19.34375 21.828125 18.703125 19.140625 
Q 18.0625 16.453125 18.0625 13.09375 
L 18.0625 0 
L 9.078125 0 
L 9.078125 9.03125 
Q 9.078125 12.984375 9.5625 16.359375 
Q 10.0625 19.734375 10.8125 22.078125 
Q 11.578125 24.421875 12.796875 26.390625 
Q 14.015625 28.375 15.109375 29.59375 
Q 16.21875 30.8125 17.796875 31.875 
Q 19.390625 32.953125 20.453125 33.46875 
Q 21.53125 33.984375 23.046875 34.625 
L 9.1875 54.6875 
L 19.78125 54.6875 
L 40.09375 25.390625 
Q 41.40625 26.03125 42.25 26.53125 
Q 43.109375 27.046875 44.46875 28.359375 
Q 45.84375 29.6875 46.671875 31.265625 
Q 47.515625 32.859375 48.140625 35.546875 
Q 48.78125 38.234375 48.78125 41.609375 
L 48.78125 54.6875 
L 57.765625 54.6875 
L 57.765625 45.65625 
Q 57.765625 41.65625 57.265625 38.3125 
Q 56.78125 34.96875 56.03125 32.59375 
Q 55.28125 30.21875 54.046875 28.234375 
Q 52.828125 26.265625 51.703125 25.0625 
Q 50.59375 23.875 49.03125 22.796875 
Q 47.46875 21.734375 46.390625 21.21875 
Q 45.3125 20.703125 43.75 20.0625 
z
" id="DejaVuSans-1488"/>
      <path d="M 4.296875 54.6875 
L 14.890625 54.6875 
Q 15.09375 54.15625 16.703125 50.3125 
Q 18.3125 46.484375 19.390625 42.671875 
Q 20.75 46.09375 22.625 48.53125 
Q 24.515625 50.984375 26.359375 52.296875 
Q 28.21875 53.609375 30.609375 54.34375 
Q 33.015625 55.078125 34.859375 55.265625 
Q 36.71875 55.46875 39.203125 55.46875 
Q 58.84375 55.46875 58.84375 29.59375 
L 58.84375 0 
L 31.390625 0 
L 31.390625 6.9375 
L 49.75 6.9375 
L 49.75 29.59375 
Q 49.75 39.109375 46.765625 43.671875 
Q 43.796875 48.25 39.0625 48.25 
Q 30.28125 48.25 26.078125 40.4375 
Q 23.734375 35.984375 21.6875 25.921875 
Q 21.578125 25.25 21.34375 24.125 
L 16.546875 0 
L 7.46875 0 
L 11.375 20.40625 
Q 11.53125 21.1875 11.890625 22.96875 
Q 12.25 24.75 12.375 25.40625 
Q 12.5 26.078125 12.671875 27.3125 
Q 12.84375 28.5625 12.90625 29.515625 
Q 12.984375 30.46875 12.984375 31.546875 
Q 12.984375 34.671875 10.71875 41.09375 
Q 8.453125 47.515625 4.296875 54.6875 
z
" id="DejaVuSans-1502"/>
      <path d="M 47.359375 27.828125 
L 47.359375 0 
L 38.28125 0 
L 38.28125 27.828125 
Q 38.28125 31.390625 37.765625 34.265625 
Q 37.25 37.15625 36 39.71875 
Q 34.765625 42.28125 32.8125 43.984375 
Q 30.859375 45.703125 27.78125 46.703125 
Q 24.703125 47.703125 20.703125 47.703125 
L 4.296875 47.703125 
L 4.296875 54.6875 
L 20.65625 54.6875 
Q 26.8125 54.6875 31.46875 53.390625 
Q 36.140625 52.09375 39.109375 49.828125 
Q 42.09375 47.5625 43.96875 44.109375 
Q 45.84375 40.671875 46.59375 36.734375 
Q 47.359375 32.8125 47.359375 27.828125 
z
" id="DejaVuSans-1512"/>
      <path d="M 25.203125 64.796875 
L 20.21875 38.921875 
L 32.90625 38.921875 
Q 40.375 38.921875 44.984375 43.046875 
Q 49.609375 47.171875 49.609375 53.8125 
Q 49.609375 59.125 46.5 61.953125 
Q 43.40625 64.796875 37.59375 64.796875 
z
M 43.3125 35.015625 
Q 46.4375 34.28125 48.515625 31.390625 
Q 50.59375 28.515625 53.328125 19.921875 
L 59.515625 0 
L 49.125 0 
L 43.40625 18.703125 
Q 41.21875 25.921875 38.328125 28.359375 
Q 35.453125 30.8125 29.5 30.8125 
L 18.609375 30.8125 
L 12.59375 0 
L 2.6875 0 
L 16.890625 72.90625 
L 39.109375 72.90625 
Q 49.21875 72.90625 54.609375 68.328125 
Q 60.015625 63.765625 60.015625 55.171875 
Q 60.015625 47.5625 55.421875 41.984375 
Q 50.828125 36.421875 43.3125 35.015625 
z
" id="DejaVuSans-Oblique-82"/>
      <path d="M 42.28125 54.6875 
L 40.921875 47.703125 
L 23 47.703125 
L 17.1875 18.015625 
Q 16.890625 16.359375 16.75 15.234375 
Q 16.609375 14.109375 16.609375 13.484375 
Q 16.609375 10.359375 18.484375 8.9375 
Q 20.359375 7.515625 24.515625 7.515625 
L 33.59375 7.515625 
L 32.078125 0 
L 23.484375 0 
Q 15.484375 0 11.546875 3.125 
Q 7.625 6.25 7.625 12.59375 
Q 7.625 13.71875 7.765625 15.0625 
Q 7.90625 16.40625 8.203125 18.015625 
L 14.015625 47.703125 
L 6.390625 47.703125 
L 7.8125 54.6875 
L 15.28125 54.6875 
L 18.3125 70.21875 
L 27.296875 70.21875 
L 24.3125 54.6875 
z
" id="DejaVuSans-Oblique-116"/>
     </defs>
     <use transform="translate(0 0.09375)" xlink:href="#DejaVuSans-55"/>
     <use transform="translate(63.623047 0.09375)" xlink:href="#DejaVuSans-52"/>
     <use transform="translate(127.246094 0.09375)" xlink:href="#DejaVuSans-32"/>
     <use transform="translate(159.033203 0.09375)" xlink:href="#DejaVuSans-1492"/>
     <use transform="translate(224.365234 0.09375)" xlink:href="#DejaVuSans-1500"/>
     <use transform="translate(281.201172 0.09375)" xlink:href="#DejaVuSans-1500"/>
     <use transform="translate(338.037109 0.09375)" xlink:href="#DejaVuSans-1488"/>
     <use transform="translate(404.882812 0.09375)" xlink:href="#DejaVuSans-1502"/>
     <use transform="translate(472.802734 0.09375)" xlink:href="#DejaVuSans-1488"/>
     <use transform="translate(539.648438 0.09375)" xlink:href="#DejaVuSans-1512"/>
     <use transform="translate(596.09375 0.09375)" xlink:href="#DejaVuSans-32"/>
     <use transform="translate(627.880859 0.09375)" xlink:href="#DejaVuSans-Oblique-82"/>
     <use transform="translate(697.363281 -16.3125)scale(0.7)" xlink:href="#DejaVuSans-Oblique-116"/>
    </g>
   </g>
  </g>
 </g>
 <defs>
  <clipPath id="p9b717a0132">
   <rect height="271.8" width="558" x="90" y="43.2"/>
  </clipPath>
 </defs>
</svg>
