<?xml version="1.0" encoding="utf-8" standalone="no"?>
<!DOCTYPE svg PUBLIC "-//W3C//DTD SVG 1.1//EN"
  "http://www.w3.org/Graphics/SVG/1.1/DTD/svg11.dtd">
<!-- Created with matplotlib (https://matplotlib.org/) -->
<svg height="360pt" version="1.1" viewBox="0 0 720 360" width="720pt" xmlns="http://www.w3.org/2000/svg" xmlns:xlink="http://www.w3.org/1999/xlink">
 <metadata>
  <rdf:RDF xmlns:cc="http://creativecommons.org/ns#" xmlns:dc="http://purl.org/dc/elements/1.1/" xmlns:rdf="http://www.w3.org/1999/02/22-rdf-syntax-ns#">
   <cc:Work>
    <dc:type rdf:resource="http://purl.org/dc/dcmitype/StillImage"/>
    <dc:date>2021-02-21T16:03:30.504462</dc:date>
    <dc:format>image/svg+xml</dc:format>
    <dc:creator>
     <cc:Agent>
      <dc:title>Matplotlib v3.3.2, https://matplotlib.org/</dc:title>
     </cc:Agent>
    </dc:creator>
   </cc:Work>
  </rdf:RDF>
 </metadata>
 <defs>
  <style type="text/css">*{stroke-linecap:butt;stroke-linejoin:round;}</style>
 </defs>
 <g id="figure_1">
  <g id="patch_1">
   <path d="M 0 360 
L 720 360 
L 720 0 
L 0 0 
z
" style="fill:#ffffff;"/>
  </g>
  <g id="axes_1">
   <g id="patch_2">
    <path d="M 90 315 
L 648 315 
L 648 43.2 
L 90 43.2 
z
" style="fill:#ffffff;"/>
   </g>
   <g id="PolyCollection_1">
    <defs>
     <path d="M 90 -66.450407 
L 90 -111.693905 
L 91.660714 -109.103464 
L 93.321429 -109.056373 
L 94.982143 -108.755355 
L 96.642857 -103.18374 
L 98.303571 -106.918911 
L 99.964286 -103.138665 
L 101.625 -98.900859 
L 103.285714 -98.805519 
L 104.946429 -95.677777 
L 106.607143 -93.119143 
L 108.267857 -93.175188 
L 109.928571 -90.847104 
L 111.589286 -89.184996 
L 113.25 -85.985844 
L 114.910714 -86.487893 
L 116.571429 -84.599649 
L 118.232143 -85.334632 
L 119.892857 -81.968839 
L 121.553571 -83.014464 
L 123.214286 -84.811568 
L 124.875 -82.52606 
L 126.535714 -82.943858 
L 128.196429 -83.129385 
L 129.857143 -83.614642 
L 131.517857 -83.954382 
L 133.178571 -84.87807 
L 134.839286 -86.241279 
L 136.5 -85.195027 
L 138.160714 -86.977202 
L 139.821429 -88.262006 
L 141.482143 -91.368086 
L 143.142857 -92.934382 
L 144.803571 -94.460042 
L 146.464286 -98.444865 
L 148.125 -98.425832 
L 149.785714 -102.396806 
L 151.446429 -104.971994 
L 153.107143 -109.243489 
L 154.767857 -113.586287 
L 156.428571 -117.066793 
L 158.089286 -120.456163 
L 159.75 -126.430655 
L 161.410714 -134.983209 
L 163.071429 -138.97692 
L 164.732143 -145.607814 
L 166.392857 -148.722107 
L 168.053571 -156.718987 
L 169.714286 -165.456122 
L 171.375 -175.007103 
L 173.035714 -184.675768 
L 174.696429 -193.407471 
L 176.357143 -200.99331 
L 178.017857 -203.911334 
L 179.678571 -212.868332 
L 181.339286 -221.74636 
L 183 -233.466213 
L 184.660714 -242.688252 
L 186.321429 -250.312757 
L 187.982143 -268.098456 
L 189.642857 -271.345657 
L 191.303571 -277.350925 
L 192.964286 -284.394754 
L 194.625 -298.32404 
L 196.285714 -295.483771 
L 197.946429 -301.348309 
L 199.607143 -299.808312 
L 201.267857 -298.055672 
L 202.928571 -300.869259 
L 204.589286 -303.842379 
L 206.25 -304.445455 
L 207.910714 -293.894991 
L 209.571429 -286.387481 
L 211.232143 -274.87429 
L 212.892857 -269.650324 
L 214.553571 -259.286313 
L 216.214286 -241.823691 
L 217.875 -235.193058 
L 219.535714 -224.093143 
L 221.196429 -213.339454 
L 222.857143 -205.718869 
L 224.517857 -194.697738 
L 226.178571 -190.001576 
L 227.839286 -180.867517 
L 229.5 -180.385686 
L 231.160714 -177.785863 
L 232.821429 -174.082615 
L 234.482143 -172.837164 
L 236.142857 -173.970795 
L 237.803571 -175.930481 
L 239.464286 -179.287826 
L 241.125 -182.315334 
L 242.785714 -183.617865 
L 244.446429 -192.595491 
L 246.107143 -197.449035 
L 247.767857 -203.771431 
L 249.428571 -207.885981 
L 251.089286 -219.096027 
L 252.75 -225.742528 
L 254.410714 -229.167625 
L 256.071429 -237.527621 
L 257.732143 -245.403346 
L 259.392857 -257.012366 
L 261.053571 -268.363265 
L 262.714286 -271.007487 
L 264.375 -271.407219 
L 266.035714 -273.754593 
L 267.696429 -275.412455 
L 269.357143 -275.105578 
L 271.017857 -274.901443 
L 272.678571 -272.817888 
L 274.339286 -266.718831 
L 276 -258.669261 
L 277.660714 -255.418627 
L 279.321429 -245.539865 
L 280.982143 -231.824311 
L 282.642857 -221.208354 
L 284.303571 -215.75488 
L 285.964286 -204.325342 
L 287.625 -193.288463 
L 289.285714 -184.428575 
L 290.946429 -175.386995 
L 292.607143 -167.077552 
L 294.267857 -159.83352 
L 295.928571 -153.182138 
L 297.589286 -147.326084 
L 299.25 -144.330229 
L 300.910714 -139.043153 
L 302.571429 -134.499141 
L 304.232143 -129.945776 
L 305.892857 -126.64628 
L 307.553571 -125.609359 
L 309.214286 -122.361581 
L 310.875 -121.084593 
L 312.535714 -119.59916 
L 314.196429 -118.060662 
L 315.857143 -121.668757 
L 317.517857 -119.62937 
L 319.178571 -121.712905 
L 320.839286 -122.24528 
L 322.5 -128.62097 
L 324.160714 -130.064522 
L 325.821429 -131.706591 
L 327.482143 -136.723985 
L 329.142857 -143.540984 
L 330.803571 -151.10559 
L 332.464286 -155.367533 
L 334.125 -165.714118 
L 335.785714 -173.637355 
L 337.446429 -181.982296 
L 339.107143 -192.683634 
L 340.767857 -198.634818 
L 342.428571 -208.237357 
L 344.089286 -219.310187 
L 345.75 -233.003034 
L 347.410714 -237.436031 
L 349.071429 -251.482173 
L 350.732143 -262.356539 
L 352.392857 -274.379184 
L 354.053571 -268.823174 
L 355.714286 -277.2585 
L 357.375 -284.70633 
L 359.035714 -285.645424 
L 360.696429 -286.958209 
L 362.357143 -277.900689 
L 364.017857 -278.42635 
L 365.678571 -274.407811 
L 367.339286 -269.329347 
L 369 -261.045312 
L 370.660714 -255.622284 
L 372.321429 -240.629446 
L 373.982143 -229.460988 
L 375.642857 -227.994428 
L 377.303571 -215.35032 
L 378.964286 -207.272469 
L 380.625 -197.637222 
L 382.285714 -189.896492 
L 383.946429 -183.613157 
L 385.607143 -179.621309 
L 387.267857 -169.99399 
L 388.928571 -166.532288 
L 390.589286 -160.776349 
L 392.25 -153.597796 
L 393.910714 -147.087685 
L 395.571429 -144.692924 
L 397.232143 -138.254195 
L 398.892857 -137.569878 
L 400.553571 -131.946564 
L 402.214286 -130.212945 
L 403.875 -123.418964 
L 405.535714 -122.754108 
L 407.196429 -117.215346 
L 408.857143 -113.133563 
L 410.517857 -112.815026 
L 412.178571 -108.602448 
L 413.839286 -108.044361 
L 415.5 -101.726307 
L 417.160714 -100.219165 
L 418.821429 -97.159842 
L 420.482143 -94.279147 
L 422.142857 -93.968001 
L 423.803571 -90.268505 
L 425.464286 -89.206948 
L 427.125 -90.295856 
L 428.785714 -90.090627 
L 430.446429 -89.185593 
L 432.107143 -86.909613 
L 433.767857 -87.485386 
L 435.428571 -88.220435 
L 437.089286 -88.693125 
L 438.75 -89.513762 
L 440.410714 -92.327809 
L 442.071429 -93.990966 
L 443.732143 -93.946886 
L 445.392857 -94.858962 
L 447.053571 -99.538772 
L 448.714286 -101.469004 
L 450.375 -105.09104 
L 452.035714 -107.416358 
L 453.696429 -110.616251 
L 455.357143 -115.030628 
L 457.017857 -119.855879 
L 458.678571 -126.460549 
L 460.339286 -132.074648 
L 462 -134.787533 
L 463.660714 -140.940515 
L 465.321429 -150.04919 
L 466.982143 -153.788389 
L 468.642857 -159.972607 
L 470.303571 -166.420772 
L 471.964286 -168.320382 
L 473.625 -178.31874 
L 475.285714 -175.58056 
L 476.946429 -180.562887 
L 478.607143 -184.674218 
L 480.267857 -187.418192 
L 481.928571 -191.670946 
L 483.589286 -189.733731 
L 485.25 -194.748546 
L 486.910714 -194.457035 
L 488.571429 -194.908704 
L 490.232143 -202.451461 
L 491.892857 -201.524443 
L 493.553571 -207.207424 
L 495.214286 -210.701799 
L 496.875 -209.592183 
L 498.535714 -210.400685 
L 500.196429 -210.558768 
L 501.857143 -212.405285 
L 503.517857 -214.625267 
L 505.178571 -216.889358 
L 506.839286 -217.956161 
L 508.5 -221.482612 
L 510.160714 -225.647681 
L 511.821429 -230.384962 
L 513.482143 -231.519727 
L 515.142857 -240.887938 
L 516.803571 -239.295399 
L 518.464286 -241.993186 
L 520.125 -245.793167 
L 521.785714 -251.536131 
L 523.446429 -248.590451 
L 525.107143 -248.335073 
L 526.767857 -248.307111 
L 528.428571 -252.141038 
L 530.089286 -247.26089 
L 531.75 -240.382097 
L 533.410714 -235.721876 
L 535.071429 -230.458149 
L 536.732143 -234.530089 
L 538.392857 -233.295656 
L 540.053571 -225.786311 
L 541.714286 -223.743439 
L 543.375 -216.775085 
L 545.035714 -214.26166 
L 546.696429 -217.122671 
L 548.357143 -210.622655 
L 550.017857 -209.305079 
L 551.678571 -205.492527 
L 553.339286 -204.7943 
L 555 -207.620721 
L 556.660714 -204.879219 
L 558.321429 -202.583201 
L 559.982143 -200.125376 
L 561.642857 -201.525075 
L 563.303571 -199.614678 
L 564.964286 -197.56056 
L 566.625 -199.0071 
L 568.285714 -197.217152 
L 569.946429 -196.975796 
L 571.607143 -194.570691 
L 573.267857 -191.06671 
L 574.928571 -188.435059 
L 576.589286 -186.324429 
L 578.25 -184.013818 
L 579.910714 -185.557651 
L 581.571429 -182.736839 
L 583.232143 -176.275959 
L 584.892857 -175.112303 
L 586.553571 -171.113348 
L 588.214286 -173.686195 
L 589.875 -170.868924 
L 591.535714 -169.17953 
L 593.196429 -172.712909 
L 594.857143 -168.610152 
L 596.517857 -169.89586 
L 598.178571 -167.532339 
L 599.839286 -169.915482 
L 601.5 -168.769912 
L 603.160714 -170.936924 
L 604.821429 -170.116002 
L 606.482143 -169.749354 
L 608.142857 -172.694471 
L 609.803571 -169.468005 
L 611.464286 -169.565208 
L 613.125 -168.373391 
L 614.785714 -168.398592 
L 616.446429 -169.070319 
L 618.107143 -169.987969 
L 619.767857 -170.59456 
L 621.428571 -167.484038 
L 623.089286 -164.896666 
L 624.75 -162.455638 
L 626.410714 -160.180741 
L 628.071429 -161.22463 
L 629.732143 -166.0184 
L 631.392857 -162.277024 
L 633.053571 -162.96397 
L 634.714286 -161.205372 
L 636.375 -164.14852 
L 638.035714 -165.063265 
L 639.696429 -164.336664 
L 641.357143 -169.833946 
L 643.017857 -174.771705 
L 644.678571 -174.888094 
L 646.339286 -174.713437 
L 648 -177.295871 
L 649.660714 -181.472024 
L 651.321429 -183.839953 
L 652.982143 -179.891809 
L 654.642857 -185.578363 
L 656.303571 -184.505083 
L 657.964286 -184.478323 
L 659.625 -188.125904 
L 661.285714 -193.212264 
L 661.285714 -94.99727 
L 661.285714 -94.99727 
L 659.625 -92.81347 
L 657.964286 -92.722188 
L 656.303571 -93.489871 
L 654.642857 -98.288652 
L 652.982143 -97.078443 
L 651.321429 -101.068925 
L 649.660714 -102.762806 
L 648 -103.610836 
L 646.339286 -103.844582 
L 644.678571 -109.617049 
L 643.017857 -112.019608 
L 641.357143 -111.842993 
L 639.696429 -110.278636 
L 638.035714 -114.440355 
L 636.375 -115.098145 
L 634.714286 -115.760607 
L 633.053571 -119.365348 
L 631.392857 -119.155205 
L 629.732143 -123.67413 
L 628.071429 -120.655951 
L 626.410714 -121.513195 
L 624.75 -124.625005 
L 623.089286 -125.487148 
L 621.428571 -127.059697 
L 619.767857 -129.867181 
L 618.107143 -128.796067 
L 616.446429 -128.983658 
L 614.785714 -128.921517 
L 613.125 -129.300863 
L 611.464286 -130.821852 
L 609.803571 -131.803315 
L 608.142857 -133.866492 
L 606.482143 -129.635118 
L 604.821429 -128.353515 
L 603.160714 -129.184124 
L 601.5 -129.688077 
L 599.839286 -131.238726 
L 598.178571 -128.668665 
L 596.517857 -131.184564 
L 594.857143 -130.552995 
L 593.196429 -132.871164 
L 591.535714 -129.321368 
L 589.875 -132.945252 
L 588.214286 -135.010927 
L 586.553571 -130.609979 
L 584.892857 -135.038116 
L 583.232143 -136.216398 
L 581.571429 -140.815595 
L 579.910714 -142.716584 
L 578.25 -142.509427 
L 576.589286 -142.666519 
L 574.928571 -145.978253 
L 573.267857 -149.454917 
L 571.607143 -152.674606 
L 569.946429 -151.329332 
L 568.285714 -153.563875 
L 566.625 -155.112766 
L 564.964286 -154.85159 
L 563.303571 -155.489133 
L 561.642857 -159.712226 
L 559.982143 -155.098475 
L 558.321429 -157.482678 
L 556.660714 -158.256307 
L 555 -160.115309 
L 553.339286 -156.366025 
L 551.678571 -159.818584 
L 550.017857 -162.748868 
L 548.357143 -163.343345 
L 546.696429 -167.28804 
L 545.035714 -164.372216 
L 543.375 -165.810957 
L 541.714286 -172.592449 
L 540.053571 -175.514901 
L 538.392857 -179.493733 
L 536.732143 -181.483362 
L 535.071429 -175.362689 
L 533.410714 -181.759802 
L 531.75 -185.780929 
L 530.089286 -192.611741 
L 528.428571 -197.044994 
L 526.767857 -191.426517 
L 525.107143 -189.655957 
L 523.446429 -189.240752 
L 521.785714 -192.304125 
L 520.125 -188.745837 
L 518.464286 -183.181084 
L 516.803571 -185.97905 
L 515.142857 -185.573206 
L 513.482143 -179.739626 
L 511.821429 -177.174316 
L 510.160714 -174.27572 
L 508.5 -168.034512 
L 506.839286 -166.583653 
L 505.178571 -164.750341 
L 503.517857 -163.923487 
L 501.857143 -158.015754 
L 500.196429 -160.391833 
L 498.535714 -159.604835 
L 496.875 -155.942218 
L 495.214286 -158.174564 
L 493.553571 -154.465269 
L 491.892857 -149.529853 
L 490.232143 -150.243485 
L 488.571429 -144.3893 
L 486.910714 -145.06281 
L 485.25 -145.737418 
L 483.589286 -143.661249 
L 481.928571 -144.615534 
L 480.267857 -141.185347 
L 478.607143 -137.655827 
L 476.946429 -133.863788 
L 475.285714 -128.805176 
L 473.625 -131.275293 
L 471.964286 -124.814277 
L 470.303571 -123.35751 
L 468.642857 -118.597504 
L 466.982143 -114.638754 
L 465.321429 -111.198313 
L 463.660714 -103.999354 
L 462 -99.241009 
L 460.339286 -97.816916 
L 458.678571 -94.601677 
L 457.017857 -90.482009 
L 455.357143 -87.176945 
L 453.696429 -83.552331 
L 452.035714 -79.867469 
L 450.375 -78.796557 
L 448.714286 -76.772289 
L 447.053571 -74.637522 
L 445.392857 -70.611284 
L 443.732143 -70.420379 
L 442.071429 -70.267409 
L 440.410714 -68.49207 
L 438.75 -66.932415 
L 437.089286 -65.722962 
L 435.428571 -66.623915 
L 433.767857 -65.502048 
L 432.107143 -64.714287 
L 430.446429 -65.452532 
L 428.785714 -66.592946 
L 427.125 -66.744361 
L 425.464286 -66.17041 
L 423.803571 -67.241801 
L 422.142857 -70.366752 
L 420.482143 -70.800899 
L 418.821429 -73.07355 
L 417.160714 -74.493683 
L 415.5 -75.306342 
L 413.839286 -81.676827 
L 412.178571 -81.4841 
L 410.517857 -84.513589 
L 408.857143 -84.695929 
L 407.196429 -88.595415 
L 405.535714 -92.851366 
L 403.875 -93.089512 
L 402.214286 -98.019315 
L 400.553571 -99.654466 
L 398.892857 -106.40989 
L 397.232143 -105.778218 
L 395.571429 -112.65466 
L 393.910714 -113.3186 
L 392.25 -117.765307 
L 390.589286 -122.681795 
L 388.928571 -129.395027 
L 387.267857 -131.567421 
L 385.607143 -138.179788 
L 383.946429 -140.51495 
L 382.285714 -145.385103 
L 380.625 -152.213125 
L 378.964286 -158.442908 
L 377.303571 -164.124309 
L 375.642857 -173.782619 
L 373.982143 -178.639976 
L 372.321429 -185.457094 
L 370.660714 -197.966258 
L 369 -202.273489 
L 367.339286 -210.16633 
L 365.678571 -211.89802 
L 364.017857 -214.288941 
L 362.357143 -214.253892 
L 360.696429 -219.510682 
L 359.035714 -217.875992 
L 357.375 -216.137949 
L 355.714286 -211.907084 
L 354.053571 -203.929162 
L 352.392857 -209.749242 
L 350.732143 -200.983582 
L 349.071429 -190.642296 
L 347.410714 -181.42062 
L 345.75 -180.807405 
L 344.089286 -169.229925 
L 342.428571 -159.627093 
L 340.767857 -152.539804 
L 339.107143 -148.119057 
L 337.446429 -139.889952 
L 335.785714 -133.610556 
L 334.125 -128.170635 
L 332.464286 -117.733411 
L 330.803571 -115.26392 
L 329.142857 -107.699192 
L 327.482143 -103.315773 
L 325.821429 -99.988449 
L 324.160714 -98.326535 
L 322.5 -97.052587 
L 320.839286 -91.24736 
L 319.178571 -91.8683 
L 317.517857 -91.125589 
L 315.857143 -92.667644 
L 314.196429 -89.468676 
L 312.535714 -89.656515 
L 310.875 -90.587446 
L 309.214286 -92.298692 
L 307.553571 -93.79755 
L 305.892857 -95.63114 
L 304.232143 -97.287453 
L 302.571429 -100.372773 
L 300.910714 -104.178432 
L 299.25 -110.042325 
L 297.589286 -112.217236 
L 295.928571 -116.829879 
L 294.267857 -123.841833 
L 292.607143 -129.726234 
L 290.946429 -135.183068 
L 289.285714 -142.36555 
L 287.625 -148.6117 
L 285.964286 -157.091782 
L 284.303571 -165.496885 
L 282.642857 -167.799286 
L 280.982143 -178.974852 
L 279.321429 -189.128367 
L 277.660714 -197.243483 
L 276 -199.291211 
L 274.339286 -206.441464 
L 272.678571 -211.31095 
L 271.017857 -210.846895 
L 269.357143 -212.443835 
L 267.696429 -212.128558 
L 266.035714 -210.506832 
L 264.375 -206.794237 
L 262.714286 -207.031253 
L 261.053571 -206.152112 
L 259.392857 -196.447002 
L 257.732143 -188.698471 
L 256.071429 -180.488105 
L 254.410714 -171.589717 
L 252.75 -172.28405 
L 251.089286 -167.149331 
L 249.428571 -158.597505 
L 247.767857 -156.581716 
L 246.107143 -150.857929 
L 244.446429 -145.967034 
L 242.785714 -140.926175 
L 241.125 -137.997688 
L 239.464286 -135.038914 
L 237.803571 -134.604786 
L 236.142857 -132.839789 
L 234.482143 -129.07719 
L 232.821429 -130.954264 
L 231.160714 -133.621052 
L 229.5 -134.295399 
L 227.839286 -135.416726 
L 226.178571 -141.75979 
L 224.517857 -145.254808 
L 222.857143 -150.859072 
L 221.196429 -156.700112 
L 219.535714 -165.269352 
L 217.875 -169.115761 
L 216.214286 -173.66559 
L 214.553571 -187.885196 
L 212.892857 -195.871031 
L 211.232143 -196.973892 
L 209.571429 -209.543309 
L 207.910714 -212.227379 
L 206.25 -219.391368 
L 204.589286 -221.92501 
L 202.928571 -218.91809 
L 201.267857 -215.342876 
L 199.607143 -217.203491 
L 197.946429 -218.943923 
L 196.285714 -215.674955 
L 194.625 -217.449635 
L 192.964286 -207.450042 
L 191.303571 -204.910909 
L 189.642857 -193.469974 
L 187.982143 -192.578139 
L 186.321429 -178.09842 
L 184.660714 -174.246402 
L 183 -165.130209 
L 181.339286 -158.928766 
L 179.678571 -152.74964 
L 178.017857 -144.035034 
L 176.357143 -144.139209 
L 174.696429 -139.226276 
L 173.035714 -131.080993 
L 171.375 -122.229907 
L 169.714286 -116.062184 
L 168.053571 -112.795732 
L 166.392857 -105.650703 
L 164.732143 -103.008966 
L 163.071429 -99.411973 
L 161.410714 -95.468235 
L 159.75 -88.4746 
L 158.089286 -85.717834 
L 156.428571 -82.769755 
L 154.767857 -79.328668 
L 153.107143 -77.150178 
L 151.446429 -74.068635 
L 149.785714 -71.642074 
L 148.125 -68.983562 
L 146.464286 -69.388922 
L 144.803571 -66.258196 
L 143.142857 -65.980929 
L 141.482143 -64.962042 
L 139.821429 -62.198714 
L 138.160714 -60.286195 
L 136.5 -59.572278 
L 134.839286 -59.883757 
L 133.178571 -58.007504 
L 131.517857 -58.809054 
L 129.857143 -58.649062 
L 128.196429 -58.393643 
L 126.535714 -57.909979 
L 124.875 -58.426229 
L 123.214286 -60.235523 
L 121.553571 -58.881544 
L 119.892857 -57.354545 
L 118.232143 -60.783259 
L 116.571429 -60.90129 
L 114.910714 -63.173625 
L 113.25 -62.921041 
L 111.589286 -63.210688 
L 109.928571 -65.37204 
L 108.267857 -65.64042 
L 106.607143 -64.848992 
L 104.946429 -66.933516 
L 103.285714 -68.05859 
L 101.625 -65.901655 
L 99.964286 -67.917905 
L 98.303571 -70.137459 
L 96.642857 -65.597845 
L 94.982143 -70.134526 
L 93.321429 -67.695372 
L 91.660714 -65.941237 
L 90 -66.450407 
z
" id="ma331c46317" style="stroke:#fdcbb6;stroke-opacity:0.8;"/>
    </defs>
    <g clip-path="url(#pe476618ffc)">
     <use style="fill:#fdcbb6;fill-opacity:0.8;stroke:#fdcbb6;stroke-opacity:0.8;" x="0" xlink:href="#ma331c46317" y="360"/>
    </g>
   </g>
   <g id="matplotlib.axis_1">
    <g id="xtick_1">
     <g id="line2d_1">
      <defs>
       <path d="M 0 0 
L 0 3.5 
" id="m0627e7422e" style="stroke:#000000;stroke-width:0.8;"/>
      </defs>
      <g>
       <use style="stroke:#000000;stroke-width:0.8;" x="90" xlink:href="#m0627e7422e" y="315"/>
      </g>
     </g>
    </g>
    <g id="xtick_2">
     <g id="line2d_2">
      <g>
       <use style="stroke:#000000;stroke-width:0.8;" x="123.214286" xlink:href="#m0627e7422e" y="315"/>
      </g>
     </g>
     <g id="text_1">
      <!-- Apr -->
      <g transform="translate(114.564286 329.598437)scale(0.1 -0.1)">
       <defs>
        <path d="M 34.1875 63.1875 
L 20.796875 26.90625 
L 47.609375 26.90625 
z
M 28.609375 72.90625 
L 39.796875 72.90625 
L 67.578125 0 
L 57.328125 0 
L 50.6875 18.703125 
L 17.828125 18.703125 
L 11.1875 0 
L 0.78125 0 
z
" id="DejaVuSans-65"/>
        <path d="M 18.109375 8.203125 
L 18.109375 -20.796875 
L 9.078125 -20.796875 
L 9.078125 54.6875 
L 18.109375 54.6875 
L 18.109375 46.390625 
Q 20.953125 51.265625 25.265625 53.625 
Q 29.59375 56 35.59375 56 
Q 45.5625 56 51.78125 48.09375 
Q 58.015625 40.1875 58.015625 27.296875 
Q 58.015625 14.40625 51.78125 6.484375 
Q 45.5625 -1.421875 35.59375 -1.421875 
Q 29.59375 -1.421875 25.265625 0.953125 
Q 20.953125 3.328125 18.109375 8.203125 
z
M 48.6875 27.296875 
Q 48.6875 37.203125 44.609375 42.84375 
Q 40.53125 48.484375 33.40625 48.484375 
Q 26.265625 48.484375 22.1875 42.84375 
Q 18.109375 37.203125 18.109375 27.296875 
Q 18.109375 17.390625 22.1875 11.75 
Q 26.265625 6.109375 33.40625 6.109375 
Q 40.53125 6.109375 44.609375 11.75 
Q 48.6875 17.390625 48.6875 27.296875 
z
" id="DejaVuSans-112"/>
        <path d="M 41.109375 46.296875 
Q 39.59375 47.171875 37.8125 47.578125 
Q 36.03125 48 33.890625 48 
Q 26.265625 48 22.1875 43.046875 
Q 18.109375 38.09375 18.109375 28.8125 
L 18.109375 0 
L 9.078125 0 
L 9.078125 54.6875 
L 18.109375 54.6875 
L 18.109375 46.1875 
Q 20.953125 51.171875 25.484375 53.578125 
Q 30.03125 56 36.53125 56 
Q 37.453125 56 38.578125 55.875 
Q 39.703125 55.765625 41.0625 55.515625 
z
" id="DejaVuSans-114"/>
       </defs>
       <use xlink:href="#DejaVuSans-65"/>
       <use x="68.408203" xlink:href="#DejaVuSans-112"/>
       <use x="131.884766" xlink:href="#DejaVuSans-114"/>
      </g>
     </g>
    </g>
    <g id="xtick_3">
     <g id="line2d_3">
      <g>
       <use style="stroke:#000000;stroke-width:0.8;" x="173.035714" xlink:href="#m0627e7422e" y="315"/>
      </g>
     </g>
     <g id="text_2">
      <!-- May -->
      <g transform="translate(162.698214 329.598437)scale(0.1 -0.1)">
       <defs>
        <path d="M 9.8125 72.90625 
L 24.515625 72.90625 
L 43.109375 23.296875 
L 61.8125 72.90625 
L 76.515625 72.90625 
L 76.515625 0 
L 66.890625 0 
L 66.890625 64.015625 
L 48.09375 14.015625 
L 38.1875 14.015625 
L 19.390625 64.015625 
L 19.390625 0 
L 9.8125 0 
z
" id="DejaVuSans-77"/>
        <path d="M 34.28125 27.484375 
Q 23.390625 27.484375 19.1875 25 
Q 14.984375 22.515625 14.984375 16.5 
Q 14.984375 11.71875 18.140625 8.90625 
Q 21.296875 6.109375 26.703125 6.109375 
Q 34.1875 6.109375 38.703125 11.40625 
Q 43.21875 16.703125 43.21875 25.484375 
L 43.21875 27.484375 
z
M 52.203125 31.203125 
L 52.203125 0 
L 43.21875 0 
L 43.21875 8.296875 
Q 40.140625 3.328125 35.546875 0.953125 
Q 30.953125 -1.421875 24.3125 -1.421875 
Q 15.921875 -1.421875 10.953125 3.296875 
Q 6 8.015625 6 15.921875 
Q 6 25.140625 12.171875 29.828125 
Q 18.359375 34.515625 30.609375 34.515625 
L 43.21875 34.515625 
L 43.21875 35.40625 
Q 43.21875 41.609375 39.140625 45 
Q 35.0625 48.390625 27.6875 48.390625 
Q 23 48.390625 18.546875 47.265625 
Q 14.109375 46.140625 10.015625 43.890625 
L 10.015625 52.203125 
Q 14.9375 54.109375 19.578125 55.046875 
Q 24.21875 56 28.609375 56 
Q 40.484375 56 46.34375 49.84375 
Q 52.203125 43.703125 52.203125 31.203125 
z
" id="DejaVuSans-97"/>
        <path d="M 32.171875 -5.078125 
Q 28.375 -14.84375 24.75 -17.8125 
Q 21.140625 -20.796875 15.09375 -20.796875 
L 7.90625 -20.796875 
L 7.90625 -13.28125 
L 13.1875 -13.28125 
Q 16.890625 -13.28125 18.9375 -11.515625 
Q 21 -9.765625 23.484375 -3.21875 
L 25.09375 0.875 
L 2.984375 54.6875 
L 12.5 54.6875 
L 29.59375 11.921875 
L 46.6875 54.6875 
L 56.203125 54.6875 
z
" id="DejaVuSans-121"/>
       </defs>
       <use xlink:href="#DejaVuSans-77"/>
       <use x="86.279297" xlink:href="#DejaVuSans-97"/>
       <use x="147.558594" xlink:href="#DejaVuSans-121"/>
      </g>
     </g>
    </g>
    <g id="xtick_4">
     <g id="line2d_4">
      <g>
       <use style="stroke:#000000;stroke-width:0.8;" x="224.517857" xlink:href="#m0627e7422e" y="315"/>
      </g>
     </g>
     <g id="text_3">
      <!-- Jun -->
      <g transform="translate(216.705357 329.598437)scale(0.1 -0.1)">
       <defs>
        <path d="M 9.8125 72.90625 
L 19.671875 72.90625 
L 19.671875 5.078125 
Q 19.671875 -8.109375 14.671875 -14.0625 
Q 9.671875 -20.015625 -1.421875 -20.015625 
L -5.171875 -20.015625 
L -5.171875 -11.71875 
L -2.09375 -11.71875 
Q 4.4375 -11.71875 7.125 -8.046875 
Q 9.8125 -4.390625 9.8125 5.078125 
z
" id="DejaVuSans-74"/>
        <path d="M 8.5 21.578125 
L 8.5 54.6875 
L 17.484375 54.6875 
L 17.484375 21.921875 
Q 17.484375 14.15625 20.5 10.265625 
Q 23.53125 6.390625 29.59375 6.390625 
Q 36.859375 6.390625 41.078125 11.03125 
Q 45.3125 15.671875 45.3125 23.6875 
L 45.3125 54.6875 
L 54.296875 54.6875 
L 54.296875 0 
L 45.3125 0 
L 45.3125 8.40625 
Q 42.046875 3.421875 37.71875 1 
Q 33.40625 -1.421875 27.6875 -1.421875 
Q 18.265625 -1.421875 13.375 4.4375 
Q 8.5 10.296875 8.5 21.578125 
z
M 31.109375 56 
z
" id="DejaVuSans-117"/>
        <path d="M 54.890625 33.015625 
L 54.890625 0 
L 45.90625 0 
L 45.90625 32.71875 
Q 45.90625 40.484375 42.875 44.328125 
Q 39.84375 48.1875 33.796875 48.1875 
Q 26.515625 48.1875 22.3125 43.546875 
Q 18.109375 38.921875 18.109375 30.90625 
L 18.109375 0 
L 9.078125 0 
L 9.078125 54.6875 
L 18.109375 54.6875 
L 18.109375 46.1875 
Q 21.34375 51.125 25.703125 53.5625 
Q 30.078125 56 35.796875 56 
Q 45.21875 56 50.046875 50.171875 
Q 54.890625 44.34375 54.890625 33.015625 
z
" id="DejaVuSans-110"/>
       </defs>
       <use xlink:href="#DejaVuSans-74"/>
       <use x="29.492188" xlink:href="#DejaVuSans-117"/>
       <use x="92.871094" xlink:href="#DejaVuSans-110"/>
      </g>
     </g>
    </g>
    <g id="xtick_5">
     <g id="line2d_5">
      <g>
       <use style="stroke:#000000;stroke-width:0.8;" x="274.339286" xlink:href="#m0627e7422e" y="315"/>
      </g>
     </g>
     <g id="text_4">
      <!-- Jul -->
      <g transform="translate(268.306473 329.598437)scale(0.1 -0.1)">
       <defs>
        <path d="M 9.421875 75.984375 
L 18.40625 75.984375 
L 18.40625 0 
L 9.421875 0 
z
" id="DejaVuSans-108"/>
       </defs>
       <use xlink:href="#DejaVuSans-74"/>
       <use x="29.492188" xlink:href="#DejaVuSans-117"/>
       <use x="92.871094" xlink:href="#DejaVuSans-108"/>
      </g>
     </g>
    </g>
    <g id="xtick_6">
     <g id="line2d_6">
      <g>
       <use style="stroke:#000000;stroke-width:0.8;" x="325.821429" xlink:href="#m0627e7422e" y="315"/>
      </g>
     </g>
     <g id="text_5">
      <!-- Aug -->
      <g transform="translate(316.058147 329.598437)scale(0.1 -0.1)">
       <defs>
        <path d="M 45.40625 27.984375 
Q 45.40625 37.75 41.375 43.109375 
Q 37.359375 48.484375 30.078125 48.484375 
Q 22.859375 48.484375 18.828125 43.109375 
Q 14.796875 37.75 14.796875 27.984375 
Q 14.796875 18.265625 18.828125 12.890625 
Q 22.859375 7.515625 30.078125 7.515625 
Q 37.359375 7.515625 41.375 12.890625 
Q 45.40625 18.265625 45.40625 27.984375 
z
M 54.390625 6.78125 
Q 54.390625 -7.171875 48.1875 -13.984375 
Q 42 -20.796875 29.203125 -20.796875 
Q 24.46875 -20.796875 20.265625 -20.09375 
Q 16.0625 -19.390625 12.109375 -17.921875 
L 12.109375 -9.1875 
Q 16.0625 -11.328125 19.921875 -12.34375 
Q 23.78125 -13.375 27.78125 -13.375 
Q 36.625 -13.375 41.015625 -8.765625 
Q 45.40625 -4.15625 45.40625 5.171875 
L 45.40625 9.625 
Q 42.625 4.78125 38.28125 2.390625 
Q 33.9375 0 27.875 0 
Q 17.828125 0 11.671875 7.65625 
Q 5.515625 15.328125 5.515625 27.984375 
Q 5.515625 40.671875 11.671875 48.328125 
Q 17.828125 56 27.875 56 
Q 33.9375 56 38.28125 53.609375 
Q 42.625 51.21875 45.40625 46.390625 
L 45.40625 54.6875 
L 54.390625 54.6875 
z
" id="DejaVuSans-103"/>
       </defs>
       <use xlink:href="#DejaVuSans-65"/>
       <use x="68.408203" xlink:href="#DejaVuSans-117"/>
       <use x="131.787109" xlink:href="#DejaVuSans-103"/>
      </g>
     </g>
    </g>
    <g id="xtick_7">
     <g id="line2d_7">
      <g>
       <use style="stroke:#000000;stroke-width:0.8;" x="377.303571" xlink:href="#m0627e7422e" y="315"/>
      </g>
     </g>
     <g id="text_6">
      <!-- Sep -->
      <g transform="translate(367.878571 329.598437)scale(0.1 -0.1)">
       <defs>
        <path d="M 53.515625 70.515625 
L 53.515625 60.890625 
Q 47.90625 63.578125 42.921875 64.890625 
Q 37.9375 66.21875 33.296875 66.21875 
Q 25.25 66.21875 20.875 63.09375 
Q 16.5 59.96875 16.5 54.203125 
Q 16.5 49.359375 19.40625 46.890625 
Q 22.3125 44.4375 30.421875 42.921875 
L 36.375 41.703125 
Q 47.40625 39.59375 52.65625 34.296875 
Q 57.90625 29 57.90625 20.125 
Q 57.90625 9.515625 50.796875 4.046875 
Q 43.703125 -1.421875 29.984375 -1.421875 
Q 24.8125 -1.421875 18.96875 -0.25 
Q 13.140625 0.921875 6.890625 3.21875 
L 6.890625 13.375 
Q 12.890625 10.015625 18.65625 8.296875 
Q 24.421875 6.59375 29.984375 6.59375 
Q 38.421875 6.59375 43.015625 9.90625 
Q 47.609375 13.234375 47.609375 19.390625 
Q 47.609375 24.75 44.3125 27.78125 
Q 41.015625 30.8125 33.5 32.328125 
L 27.484375 33.5 
Q 16.453125 35.6875 11.515625 40.375 
Q 6.59375 45.0625 6.59375 53.421875 
Q 6.59375 63.09375 13.40625 68.65625 
Q 20.21875 74.21875 32.171875 74.21875 
Q 37.3125 74.21875 42.625 73.28125 
Q 47.953125 72.359375 53.515625 70.515625 
z
" id="DejaVuSans-83"/>
        <path d="M 56.203125 29.59375 
L 56.203125 25.203125 
L 14.890625 25.203125 
Q 15.484375 15.921875 20.484375 11.0625 
Q 25.484375 6.203125 34.421875 6.203125 
Q 39.59375 6.203125 44.453125 7.46875 
Q 49.3125 8.734375 54.109375 11.28125 
L 54.109375 2.78125 
Q 49.265625 0.734375 44.1875 -0.34375 
Q 39.109375 -1.421875 33.890625 -1.421875 
Q 20.796875 -1.421875 13.15625 6.1875 
Q 5.515625 13.8125 5.515625 26.8125 
Q 5.515625 40.234375 12.765625 48.109375 
Q 20.015625 56 32.328125 56 
Q 43.359375 56 49.78125 48.890625 
Q 56.203125 41.796875 56.203125 29.59375 
z
M 47.21875 32.234375 
Q 47.125 39.59375 43.09375 43.984375 
Q 39.0625 48.390625 32.421875 48.390625 
Q 24.90625 48.390625 20.390625 44.140625 
Q 15.875 39.890625 15.1875 32.171875 
z
" id="DejaVuSans-101"/>
       </defs>
       <use xlink:href="#DejaVuSans-83"/>
       <use x="63.476562" xlink:href="#DejaVuSans-101"/>
       <use x="125" xlink:href="#DejaVuSans-112"/>
      </g>
     </g>
    </g>
    <g id="xtick_8">
     <g id="line2d_8">
      <g>
       <use style="stroke:#000000;stroke-width:0.8;" x="427.125" xlink:href="#m0627e7422e" y="315"/>
      </g>
     </g>
     <g id="text_7">
      <!-- Oct -->
      <g transform="translate(418.479687 329.598437)scale(0.1 -0.1)">
       <defs>
        <path d="M 39.40625 66.21875 
Q 28.65625 66.21875 22.328125 58.203125 
Q 16.015625 50.203125 16.015625 36.375 
Q 16.015625 22.609375 22.328125 14.59375 
Q 28.65625 6.59375 39.40625 6.59375 
Q 50.140625 6.59375 56.421875 14.59375 
Q 62.703125 22.609375 62.703125 36.375 
Q 62.703125 50.203125 56.421875 58.203125 
Q 50.140625 66.21875 39.40625 66.21875 
z
M 39.40625 74.21875 
Q 54.734375 74.21875 63.90625 63.9375 
Q 73.09375 53.65625 73.09375 36.375 
Q 73.09375 19.140625 63.90625 8.859375 
Q 54.734375 -1.421875 39.40625 -1.421875 
Q 24.03125 -1.421875 14.8125 8.828125 
Q 5.609375 19.09375 5.609375 36.375 
Q 5.609375 53.65625 14.8125 63.9375 
Q 24.03125 74.21875 39.40625 74.21875 
z
" id="DejaVuSans-79"/>
        <path d="M 48.78125 52.59375 
L 48.78125 44.1875 
Q 44.96875 46.296875 41.140625 47.34375 
Q 37.3125 48.390625 33.40625 48.390625 
Q 24.65625 48.390625 19.8125 42.84375 
Q 14.984375 37.3125 14.984375 27.296875 
Q 14.984375 17.28125 19.8125 11.734375 
Q 24.65625 6.203125 33.40625 6.203125 
Q 37.3125 6.203125 41.140625 7.25 
Q 44.96875 8.296875 48.78125 10.40625 
L 48.78125 2.09375 
Q 45.015625 0.34375 40.984375 -0.53125 
Q 36.96875 -1.421875 32.421875 -1.421875 
Q 20.0625 -1.421875 12.78125 6.34375 
Q 5.515625 14.109375 5.515625 27.296875 
Q 5.515625 40.671875 12.859375 48.328125 
Q 20.21875 56 33.015625 56 
Q 37.15625 56 41.109375 55.140625 
Q 45.0625 54.296875 48.78125 52.59375 
z
" id="DejaVuSans-99"/>
        <path d="M 18.3125 70.21875 
L 18.3125 54.6875 
L 36.8125 54.6875 
L 36.8125 47.703125 
L 18.3125 47.703125 
L 18.3125 18.015625 
Q 18.3125 11.328125 20.140625 9.421875 
Q 21.96875 7.515625 27.59375 7.515625 
L 36.8125 7.515625 
L 36.8125 0 
L 27.59375 0 
Q 17.1875 0 13.234375 3.875 
Q 9.28125 7.765625 9.28125 18.015625 
L 9.28125 47.703125 
L 2.6875 47.703125 
L 2.6875 54.6875 
L 9.28125 54.6875 
L 9.28125 70.21875 
z
" id="DejaVuSans-116"/>
       </defs>
       <use xlink:href="#DejaVuSans-79"/>
       <use x="78.710938" xlink:href="#DejaVuSans-99"/>
       <use x="133.691406" xlink:href="#DejaVuSans-116"/>
      </g>
     </g>
    </g>
    <g id="xtick_9">
     <g id="line2d_9">
      <g>
       <use style="stroke:#000000;stroke-width:0.8;" x="478.607143" xlink:href="#m0627e7422e" y="315"/>
      </g>
     </g>
     <g id="text_8">
      <!-- Nov -->
      <g transform="translate(468.847768 329.598437)scale(0.1 -0.1)">
       <defs>
        <path d="M 9.8125 72.90625 
L 23.09375 72.90625 
L 55.421875 11.921875 
L 55.421875 72.90625 
L 64.984375 72.90625 
L 64.984375 0 
L 51.703125 0 
L 19.390625 60.984375 
L 19.390625 0 
L 9.8125 0 
z
" id="DejaVuSans-78"/>
        <path d="M 30.609375 48.390625 
Q 23.390625 48.390625 19.1875 42.75 
Q 14.984375 37.109375 14.984375 27.296875 
Q 14.984375 17.484375 19.15625 11.84375 
Q 23.34375 6.203125 30.609375 6.203125 
Q 37.796875 6.203125 41.984375 11.859375 
Q 46.1875 17.53125 46.1875 27.296875 
Q 46.1875 37.015625 41.984375 42.703125 
Q 37.796875 48.390625 30.609375 48.390625 
z
M 30.609375 56 
Q 42.328125 56 49.015625 48.375 
Q 55.71875 40.765625 55.71875 27.296875 
Q 55.71875 13.875 49.015625 6.21875 
Q 42.328125 -1.421875 30.609375 -1.421875 
Q 18.84375 -1.421875 12.171875 6.21875 
Q 5.515625 13.875 5.515625 27.296875 
Q 5.515625 40.765625 12.171875 48.375 
Q 18.84375 56 30.609375 56 
z
" id="DejaVuSans-111"/>
        <path d="M 2.984375 54.6875 
L 12.5 54.6875 
L 29.59375 8.796875 
L 46.6875 54.6875 
L 56.203125 54.6875 
L 35.6875 0 
L 23.484375 0 
z
" id="DejaVuSans-118"/>
       </defs>
       <use xlink:href="#DejaVuSans-78"/>
       <use x="74.804688" xlink:href="#DejaVuSans-111"/>
       <use x="135.986328" xlink:href="#DejaVuSans-118"/>
      </g>
     </g>
    </g>
    <g id="xtick_10">
     <g id="line2d_10">
      <g>
       <use style="stroke:#000000;stroke-width:0.8;" x="528.428571" xlink:href="#m0627e7422e" y="315"/>
      </g>
     </g>
     <g id="text_9">
      <!-- Dec -->
      <g transform="translate(518.75279 329.598437)scale(0.1 -0.1)">
       <defs>
        <path d="M 19.671875 64.796875 
L 19.671875 8.109375 
L 31.59375 8.109375 
Q 46.6875 8.109375 53.6875 14.9375 
Q 60.6875 21.78125 60.6875 36.53125 
Q 60.6875 51.171875 53.6875 57.984375 
Q 46.6875 64.796875 31.59375 64.796875 
z
M 9.8125 72.90625 
L 30.078125 72.90625 
Q 51.265625 72.90625 61.171875 64.09375 
Q 71.09375 55.28125 71.09375 36.53125 
Q 71.09375 17.671875 61.125 8.828125 
Q 51.171875 0 30.078125 0 
L 9.8125 0 
z
" id="DejaVuSans-68"/>
       </defs>
       <use xlink:href="#DejaVuSans-68"/>
       <use x="77.001953" xlink:href="#DejaVuSans-101"/>
       <use x="138.525391" xlink:href="#DejaVuSans-99"/>
      </g>
     </g>
    </g>
    <g id="xtick_11">
     <g id="line2d_11">
      <g>
       <use style="stroke:#000000;stroke-width:0.8;" x="579.910714" xlink:href="#m0627e7422e" y="315"/>
      </g>
     </g>
     <g id="text_10">
      <!-- Jan -->
      <g transform="translate(572.202902 329.598437)scale(0.1 -0.1)">
       <use xlink:href="#DejaVuSans-74"/>
       <use x="29.492188" xlink:href="#DejaVuSans-97"/>
       <use x="90.771484" xlink:href="#DejaVuSans-110"/>
      </g>
      <!-- 2021 -->
      <g transform="translate(567.185714 340.79625)scale(0.1 -0.1)">
       <defs>
        <path d="M 19.1875 8.296875 
L 53.609375 8.296875 
L 53.609375 0 
L 7.328125 0 
L 7.328125 8.296875 
Q 12.9375 14.109375 22.625 23.890625 
Q 32.328125 33.6875 34.8125 36.53125 
Q 39.546875 41.84375 41.421875 45.53125 
Q 43.3125 49.21875 43.3125 52.78125 
Q 43.3125 58.59375 39.234375 62.25 
Q 35.15625 65.921875 28.609375 65.921875 
Q 23.96875 65.921875 18.8125 64.3125 
Q 13.671875 62.703125 7.8125 59.421875 
L 7.8125 69.390625 
Q 13.765625 71.78125 18.9375 73 
Q 24.125 74.21875 28.421875 74.21875 
Q 39.75 74.21875 46.484375 68.546875 
Q 53.21875 62.890625 53.21875 53.421875 
Q 53.21875 48.921875 51.53125 44.890625 
Q 49.859375 40.875 45.40625 35.40625 
Q 44.1875 33.984375 37.640625 27.21875 
Q 31.109375 20.453125 19.1875 8.296875 
z
" id="DejaVuSans-50"/>
        <path d="M 31.78125 66.40625 
Q 24.171875 66.40625 20.328125 58.90625 
Q 16.5 51.421875 16.5 36.375 
Q 16.5 21.390625 20.328125 13.890625 
Q 24.171875 6.390625 31.78125 6.390625 
Q 39.453125 6.390625 43.28125 13.890625 
Q 47.125 21.390625 47.125 36.375 
Q 47.125 51.421875 43.28125 58.90625 
Q 39.453125 66.40625 31.78125 66.40625 
z
M 31.78125 74.21875 
Q 44.046875 74.21875 50.515625 64.515625 
Q 56.984375 54.828125 56.984375 36.375 
Q 56.984375 17.96875 50.515625 8.265625 
Q 44.046875 -1.421875 31.78125 -1.421875 
Q 19.53125 -1.421875 13.0625 8.265625 
Q 6.59375 17.96875 6.59375 36.375 
Q 6.59375 54.828125 13.0625 64.515625 
Q 19.53125 74.21875 31.78125 74.21875 
z
" id="DejaVuSans-48"/>
        <path d="M 12.40625 8.296875 
L 28.515625 8.296875 
L 28.515625 63.921875 
L 10.984375 60.40625 
L 10.984375 69.390625 
L 28.421875 72.90625 
L 38.28125 72.90625 
L 38.28125 8.296875 
L 54.390625 8.296875 
L 54.390625 0 
L 12.40625 0 
z
" id="DejaVuSans-49"/>
       </defs>
       <use xlink:href="#DejaVuSans-50"/>
       <use x="63.623047" xlink:href="#DejaVuSans-48"/>
       <use x="127.246094" xlink:href="#DejaVuSans-50"/>
       <use x="190.869141" xlink:href="#DejaVuSans-49"/>
      </g>
     </g>
    </g>
    <g id="xtick_12">
     <g id="line2d_12">
      <g>
       <use style="stroke:#000000;stroke-width:0.8;" x="631.392857" xlink:href="#m0627e7422e" y="315"/>
      </g>
     </g>
     <g id="text_11">
      <!-- Feb -->
      <g transform="translate(622.541295 329.598437)scale(0.1 -0.1)">
       <defs>
        <path d="M 9.8125 72.90625 
L 51.703125 72.90625 
L 51.703125 64.59375 
L 19.671875 64.59375 
L 19.671875 43.109375 
L 48.578125 43.109375 
L 48.578125 34.8125 
L 19.671875 34.8125 
L 19.671875 0 
L 9.8125 0 
z
" id="DejaVuSans-70"/>
        <path d="M 48.6875 27.296875 
Q 48.6875 37.203125 44.609375 42.84375 
Q 40.53125 48.484375 33.40625 48.484375 
Q 26.265625 48.484375 22.1875 42.84375 
Q 18.109375 37.203125 18.109375 27.296875 
Q 18.109375 17.390625 22.1875 11.75 
Q 26.265625 6.109375 33.40625 6.109375 
Q 40.53125 6.109375 44.609375 11.75 
Q 48.6875 17.390625 48.6875 27.296875 
z
M 18.109375 46.390625 
Q 20.953125 51.265625 25.265625 53.625 
Q 29.59375 56 35.59375 56 
Q 45.5625 56 51.78125 48.09375 
Q 58.015625 40.1875 58.015625 27.296875 
Q 58.015625 14.40625 51.78125 6.484375 
Q 45.5625 -1.421875 35.59375 -1.421875 
Q 29.59375 -1.421875 25.265625 0.953125 
Q 20.953125 3.328125 18.109375 8.203125 
L 18.109375 0 
L 9.078125 0 
L 9.078125 75.984375 
L 18.109375 75.984375 
z
" id="DejaVuSans-98"/>
       </defs>
       <use xlink:href="#DejaVuSans-70"/>
       <use x="52.019531" xlink:href="#DejaVuSans-101"/>
       <use x="113.542969" xlink:href="#DejaVuSans-98"/>
      </g>
     </g>
    </g>
    <g id="xtick_13">
     <g id="line2d_13">
      <g>
       <use style="stroke:#000000;stroke-width:0.8;" x="648" xlink:href="#m0627e7422e" y="315"/>
      </g>
     </g>
    </g>
    <g id="xtick_14">
     <g id="line2d_14">
      <defs>
       <path d="M 0 0 
L 0 2 
" id="m18c4b99d7b" style="stroke:#000000;stroke-width:0.6;"/>
      </defs>
      <g>
       <use style="stroke:#000000;stroke-width:0.6;" x="96.642857" xlink:href="#m18c4b99d7b" y="315"/>
      </g>
     </g>
    </g>
    <g id="xtick_15">
     <g id="line2d_15">
      <g>
       <use style="stroke:#000000;stroke-width:0.6;" x="108.267857" xlink:href="#m18c4b99d7b" y="315"/>
      </g>
     </g>
    </g>
    <g id="xtick_16">
     <g id="line2d_16">
      <g>
       <use style="stroke:#000000;stroke-width:0.6;" x="119.892857" xlink:href="#m18c4b99d7b" y="315"/>
      </g>
     </g>
    </g>
    <g id="xtick_17">
     <g id="line2d_17">
      <g>
       <use style="stroke:#000000;stroke-width:0.6;" x="131.517857" xlink:href="#m18c4b99d7b" y="315"/>
      </g>
     </g>
    </g>
    <g id="xtick_18">
     <g id="line2d_18">
      <g>
       <use style="stroke:#000000;stroke-width:0.6;" x="143.142857" xlink:href="#m18c4b99d7b" y="315"/>
      </g>
     </g>
    </g>
    <g id="xtick_19">
     <g id="line2d_19">
      <g>
       <use style="stroke:#000000;stroke-width:0.6;" x="154.767857" xlink:href="#m18c4b99d7b" y="315"/>
      </g>
     </g>
    </g>
    <g id="xtick_20">
     <g id="line2d_20">
      <g>
       <use style="stroke:#000000;stroke-width:0.6;" x="166.392857" xlink:href="#m18c4b99d7b" y="315"/>
      </g>
     </g>
    </g>
    <g id="xtick_21">
     <g id="line2d_21">
      <g>
       <use style="stroke:#000000;stroke-width:0.6;" x="178.017857" xlink:href="#m18c4b99d7b" y="315"/>
      </g>
     </g>
    </g>
    <g id="xtick_22">
     <g id="line2d_22">
      <g>
       <use style="stroke:#000000;stroke-width:0.6;" x="189.642857" xlink:href="#m18c4b99d7b" y="315"/>
      </g>
     </g>
    </g>
    <g id="xtick_23">
     <g id="line2d_23">
      <g>
       <use style="stroke:#000000;stroke-width:0.6;" x="201.267857" xlink:href="#m18c4b99d7b" y="315"/>
      </g>
     </g>
    </g>
    <g id="xtick_24">
     <g id="line2d_24">
      <g>
       <use style="stroke:#000000;stroke-width:0.6;" x="212.892857" xlink:href="#m18c4b99d7b" y="315"/>
      </g>
     </g>
    </g>
    <g id="xtick_25">
     <g id="line2d_25">
      <g>
       <use style="stroke:#000000;stroke-width:0.6;" x="236.142857" xlink:href="#m18c4b99d7b" y="315"/>
      </g>
     </g>
    </g>
    <g id="xtick_26">
     <g id="line2d_26">
      <g>
       <use style="stroke:#000000;stroke-width:0.6;" x="247.767857" xlink:href="#m18c4b99d7b" y="315"/>
      </g>
     </g>
    </g>
    <g id="xtick_27">
     <g id="line2d_27">
      <g>
       <use style="stroke:#000000;stroke-width:0.6;" x="259.392857" xlink:href="#m18c4b99d7b" y="315"/>
      </g>
     </g>
    </g>
    <g id="xtick_28">
     <g id="line2d_28">
      <g>
       <use style="stroke:#000000;stroke-width:0.6;" x="271.017857" xlink:href="#m18c4b99d7b" y="315"/>
      </g>
     </g>
    </g>
    <g id="xtick_29">
     <g id="line2d_29">
      <g>
       <use style="stroke:#000000;stroke-width:0.6;" x="282.642857" xlink:href="#m18c4b99d7b" y="315"/>
      </g>
     </g>
    </g>
    <g id="xtick_30">
     <g id="line2d_30">
      <g>
       <use style="stroke:#000000;stroke-width:0.6;" x="294.267857" xlink:href="#m18c4b99d7b" y="315"/>
      </g>
     </g>
    </g>
    <g id="xtick_31">
     <g id="line2d_31">
      <g>
       <use style="stroke:#000000;stroke-width:0.6;" x="305.892857" xlink:href="#m18c4b99d7b" y="315"/>
      </g>
     </g>
    </g>
    <g id="xtick_32">
     <g id="line2d_32">
      <g>
       <use style="stroke:#000000;stroke-width:0.6;" x="317.517857" xlink:href="#m18c4b99d7b" y="315"/>
      </g>
     </g>
    </g>
    <g id="xtick_33">
     <g id="line2d_33">
      <g>
       <use style="stroke:#000000;stroke-width:0.6;" x="329.142857" xlink:href="#m18c4b99d7b" y="315"/>
      </g>
     </g>
    </g>
    <g id="xtick_34">
     <g id="line2d_34">
      <g>
       <use style="stroke:#000000;stroke-width:0.6;" x="340.767857" xlink:href="#m18c4b99d7b" y="315"/>
      </g>
     </g>
    </g>
    <g id="xtick_35">
     <g id="line2d_35">
      <g>
       <use style="stroke:#000000;stroke-width:0.6;" x="352.392857" xlink:href="#m18c4b99d7b" y="315"/>
      </g>
     </g>
    </g>
    <g id="xtick_36">
     <g id="line2d_36">
      <g>
       <use style="stroke:#000000;stroke-width:0.6;" x="364.017857" xlink:href="#m18c4b99d7b" y="315"/>
      </g>
     </g>
    </g>
    <g id="xtick_37">
     <g id="line2d_37">
      <g>
       <use style="stroke:#000000;stroke-width:0.6;" x="375.642857" xlink:href="#m18c4b99d7b" y="315"/>
      </g>
     </g>
    </g>
    <g id="xtick_38">
     <g id="line2d_38">
      <g>
       <use style="stroke:#000000;stroke-width:0.6;" x="387.267857" xlink:href="#m18c4b99d7b" y="315"/>
      </g>
     </g>
    </g>
    <g id="xtick_39">
     <g id="line2d_39">
      <g>
       <use style="stroke:#000000;stroke-width:0.6;" x="398.892857" xlink:href="#m18c4b99d7b" y="315"/>
      </g>
     </g>
    </g>
    <g id="xtick_40">
     <g id="line2d_40">
      <g>
       <use style="stroke:#000000;stroke-width:0.6;" x="410.517857" xlink:href="#m18c4b99d7b" y="315"/>
      </g>
     </g>
    </g>
    <g id="xtick_41">
     <g id="line2d_41">
      <g>
       <use style="stroke:#000000;stroke-width:0.6;" x="422.142857" xlink:href="#m18c4b99d7b" y="315"/>
      </g>
     </g>
    </g>
    <g id="xtick_42">
     <g id="line2d_42">
      <g>
       <use style="stroke:#000000;stroke-width:0.6;" x="433.767857" xlink:href="#m18c4b99d7b" y="315"/>
      </g>
     </g>
    </g>
    <g id="xtick_43">
     <g id="line2d_43">
      <g>
       <use style="stroke:#000000;stroke-width:0.6;" x="445.392857" xlink:href="#m18c4b99d7b" y="315"/>
      </g>
     </g>
    </g>
    <g id="xtick_44">
     <g id="line2d_44">
      <g>
       <use style="stroke:#000000;stroke-width:0.6;" x="457.017857" xlink:href="#m18c4b99d7b" y="315"/>
      </g>
     </g>
    </g>
    <g id="xtick_45">
     <g id="line2d_45">
      <g>
       <use style="stroke:#000000;stroke-width:0.6;" x="468.642857" xlink:href="#m18c4b99d7b" y="315"/>
      </g>
     </g>
    </g>
    <g id="xtick_46">
     <g id="line2d_46">
      <g>
       <use style="stroke:#000000;stroke-width:0.6;" x="480.267857" xlink:href="#m18c4b99d7b" y="315"/>
      </g>
     </g>
    </g>
    <g id="xtick_47">
     <g id="line2d_47">
      <g>
       <use style="stroke:#000000;stroke-width:0.6;" x="491.892857" xlink:href="#m18c4b99d7b" y="315"/>
      </g>
     </g>
    </g>
    <g id="xtick_48">
     <g id="line2d_48">
      <g>
       <use style="stroke:#000000;stroke-width:0.6;" x="503.517857" xlink:href="#m18c4b99d7b" y="315"/>
      </g>
     </g>
    </g>
    <g id="xtick_49">
     <g id="line2d_49">
      <g>
       <use style="stroke:#000000;stroke-width:0.6;" x="515.142857" xlink:href="#m18c4b99d7b" y="315"/>
      </g>
     </g>
    </g>
    <g id="xtick_50">
     <g id="line2d_50">
      <g>
       <use style="stroke:#000000;stroke-width:0.6;" x="526.767857" xlink:href="#m18c4b99d7b" y="315"/>
      </g>
     </g>
    </g>
    <g id="xtick_51">
     <g id="line2d_51">
      <g>
       <use style="stroke:#000000;stroke-width:0.6;" x="538.392857" xlink:href="#m18c4b99d7b" y="315"/>
      </g>
     </g>
    </g>
    <g id="xtick_52">
     <g id="line2d_52">
      <g>
       <use style="stroke:#000000;stroke-width:0.6;" x="550.017857" xlink:href="#m18c4b99d7b" y="315"/>
      </g>
     </g>
    </g>
    <g id="xtick_53">
     <g id="line2d_53">
      <g>
       <use style="stroke:#000000;stroke-width:0.6;" x="561.642857" xlink:href="#m18c4b99d7b" y="315"/>
      </g>
     </g>
    </g>
    <g id="xtick_54">
     <g id="line2d_54">
      <g>
       <use style="stroke:#000000;stroke-width:0.6;" x="573.267857" xlink:href="#m18c4b99d7b" y="315"/>
      </g>
     </g>
    </g>
    <g id="xtick_55">
     <g id="line2d_55">
      <g>
       <use style="stroke:#000000;stroke-width:0.6;" x="584.892857" xlink:href="#m18c4b99d7b" y="315"/>
      </g>
     </g>
    </g>
    <g id="xtick_56">
     <g id="line2d_56">
      <g>
       <use style="stroke:#000000;stroke-width:0.6;" x="596.517857" xlink:href="#m18c4b99d7b" y="315"/>
      </g>
     </g>
    </g>
    <g id="xtick_57">
     <g id="line2d_57">
      <g>
       <use style="stroke:#000000;stroke-width:0.6;" x="608.142857" xlink:href="#m18c4b99d7b" y="315"/>
      </g>
     </g>
    </g>
    <g id="xtick_58">
     <g id="line2d_58">
      <g>
       <use style="stroke:#000000;stroke-width:0.6;" x="619.767857" xlink:href="#m18c4b99d7b" y="315"/>
      </g>
     </g>
    </g>
    <g id="xtick_59">
     <g id="line2d_59">
      <g>
       <use style="stroke:#000000;stroke-width:0.6;" x="643.017857" xlink:href="#m18c4b99d7b" y="315"/>
      </g>
     </g>
    </g>
    <g id="text_12">
     <!-- date -->
     <g transform="translate(357.725 354.474375)scale(0.1 -0.1)">
      <defs>
       <path d="M 45.40625 46.390625 
L 45.40625 75.984375 
L 54.390625 75.984375 
L 54.390625 0 
L 45.40625 0 
L 45.40625 8.203125 
Q 42.578125 3.328125 38.25 0.953125 
Q 33.9375 -1.421875 27.875 -1.421875 
Q 17.96875 -1.421875 11.734375 6.484375 
Q 5.515625 14.40625 5.515625 27.296875 
Q 5.515625 40.1875 11.734375 48.09375 
Q 17.96875 56 27.875 56 
Q 33.9375 56 38.25 53.625 
Q 42.578125 51.265625 45.40625 46.390625 
z
M 14.796875 27.296875 
Q 14.796875 17.390625 18.875 11.75 
Q 22.953125 6.109375 30.078125 6.109375 
Q 37.203125 6.109375 41.296875 11.75 
Q 45.40625 17.390625 45.40625 27.296875 
Q 45.40625 37.203125 41.296875 42.84375 
Q 37.203125 48.484375 30.078125 48.484375 
Q 22.953125 48.484375 18.875 42.84375 
Q 14.796875 37.203125 14.796875 27.296875 
z
" id="DejaVuSans-100"/>
      </defs>
      <use xlink:href="#DejaVuSans-100"/>
      <use x="63.476562" xlink:href="#DejaVuSans-97"/>
      <use x="124.755859" xlink:href="#DejaVuSans-116"/>
      <use x="163.964844" xlink:href="#DejaVuSans-101"/>
     </g>
    </g>
   </g>
   <g id="matplotlib.axis_2">
    <g id="ytick_1">
     <g id="line2d_60">
      <path clip-path="url(#pe476618ffc)" d="M 90 286.457752 
L 648 286.457752 
" style="fill:none;stroke:#b0b0b0;stroke-dasharray:0.8,1.32;stroke-dashoffset:0;stroke-width:0.8;"/>
     </g>
     <g id="line2d_61">
      <defs>
       <path d="M 0 0 
L -3.5 0 
" id="m55c70e1ba4" style="stroke:#000000;stroke-width:0.8;"/>
      </defs>
      <g>
       <use style="stroke:#000000;stroke-width:0.8;" x="90" xlink:href="#m55c70e1ba4" y="286.457752"/>
      </g>
     </g>
     <g id="text_13">
      <!-- 0.50 -->
      <g transform="translate(60.734375 290.25697)scale(0.1 -0.1)">
       <defs>
        <path d="M 10.6875 12.40625 
L 21 12.40625 
L 21 0 
L 10.6875 0 
z
" id="DejaVuSans-46"/>
        <path d="M 10.796875 72.90625 
L 49.515625 72.90625 
L 49.515625 64.59375 
L 19.828125 64.59375 
L 19.828125 46.734375 
Q 21.96875 47.46875 24.109375 47.828125 
Q 26.265625 48.1875 28.421875 48.1875 
Q 40.625 48.1875 47.75 41.5 
Q 54.890625 34.8125 54.890625 23.390625 
Q 54.890625 11.625 47.5625 5.09375 
Q 40.234375 -1.421875 26.90625 -1.421875 
Q 22.3125 -1.421875 17.546875 -0.640625 
Q 12.796875 0.140625 7.71875 1.703125 
L 7.71875 11.625 
Q 12.109375 9.234375 16.796875 8.0625 
Q 21.484375 6.890625 26.703125 6.890625 
Q 35.15625 6.890625 40.078125 11.328125 
Q 45.015625 15.765625 45.015625 23.390625 
Q 45.015625 31 40.078125 35.4375 
Q 35.15625 39.890625 26.703125 39.890625 
Q 22.75 39.890625 18.8125 39.015625 
Q 14.890625 38.140625 10.796875 36.28125 
z
" id="DejaVuSans-53"/>
       </defs>
       <use xlink:href="#DejaVuSans-48"/>
       <use x="63.623047" xlink:href="#DejaVuSans-46"/>
       <use x="95.410156" xlink:href="#DejaVuSans-53"/>
       <use x="159.033203" xlink:href="#DejaVuSans-48"/>
      </g>
     </g>
    </g>
    <g id="ytick_2">
     <g id="line2d_62">
      <path clip-path="url(#pe476618ffc)" d="M 90 250.470107 
L 648 250.470107 
" style="fill:none;stroke:#b0b0b0;stroke-dasharray:0.8,1.32;stroke-dashoffset:0;stroke-width:0.8;"/>
     </g>
     <g id="line2d_63">
      <g>
       <use style="stroke:#000000;stroke-width:0.8;" x="90" xlink:href="#m55c70e1ba4" y="250.470107"/>
      </g>
     </g>
     <g id="text_14">
      <!-- 0.75 -->
      <g transform="translate(60.734375 254.269326)scale(0.1 -0.1)">
       <defs>
        <path d="M 8.203125 72.90625 
L 55.078125 72.90625 
L 55.078125 68.703125 
L 28.609375 0 
L 18.3125 0 
L 43.21875 64.59375 
L 8.203125 64.59375 
z
" id="DejaVuSans-55"/>
       </defs>
       <use xlink:href="#DejaVuSans-48"/>
       <use x="63.623047" xlink:href="#DejaVuSans-46"/>
       <use x="95.410156" xlink:href="#DejaVuSans-55"/>
       <use x="159.033203" xlink:href="#DejaVuSans-53"/>
      </g>
     </g>
    </g>
    <g id="ytick_3">
     <g id="line2d_64">
      <path clip-path="url(#pe476618ffc)" d="M 90 214.482462 
L 648 214.482462 
" style="fill:none;stroke:#b0b0b0;stroke-dasharray:0.8,1.32;stroke-dashoffset:0;stroke-width:0.8;"/>
     </g>
     <g id="line2d_65">
      <g>
       <use style="stroke:#000000;stroke-width:0.8;" x="90" xlink:href="#m55c70e1ba4" y="214.482462"/>
      </g>
     </g>
     <g id="text_15">
      <!-- 1.00 -->
      <g transform="translate(60.734375 218.281681)scale(0.1 -0.1)">
       <use xlink:href="#DejaVuSans-49"/>
       <use x="63.623047" xlink:href="#DejaVuSans-46"/>
       <use x="95.410156" xlink:href="#DejaVuSans-48"/>
       <use x="159.033203" xlink:href="#DejaVuSans-48"/>
      </g>
     </g>
    </g>
    <g id="ytick_4">
     <g id="line2d_66">
      <path clip-path="url(#pe476618ffc)" d="M 90 178.494817 
L 648 178.494817 
" style="fill:none;stroke:#b0b0b0;stroke-dasharray:0.8,1.32;stroke-dashoffset:0;stroke-width:0.8;"/>
     </g>
     <g id="line2d_67">
      <g>
       <use style="stroke:#000000;stroke-width:0.8;" x="90" xlink:href="#m55c70e1ba4" y="178.494817"/>
      </g>
     </g>
     <g id="text_16">
      <!-- 1.25 -->
      <g transform="translate(60.734375 182.294036)scale(0.1 -0.1)">
       <use xlink:href="#DejaVuSans-49"/>
       <use x="63.623047" xlink:href="#DejaVuSans-46"/>
       <use x="95.410156" xlink:href="#DejaVuSans-50"/>
       <use x="159.033203" xlink:href="#DejaVuSans-53"/>
      </g>
     </g>
    </g>
    <g id="ytick_5">
     <g id="line2d_68">
      <path clip-path="url(#pe476618ffc)" d="M 90 142.507172 
L 648 142.507172 
" style="fill:none;stroke:#b0b0b0;stroke-dasharray:0.8,1.32;stroke-dashoffset:0;stroke-width:0.8;"/>
     </g>
     <g id="line2d_69">
      <g>
       <use style="stroke:#000000;stroke-width:0.8;" x="90" xlink:href="#m55c70e1ba4" y="142.507172"/>
      </g>
     </g>
     <g id="text_17">
      <!-- 1.50 -->
      <g transform="translate(60.734375 146.306391)scale(0.1 -0.1)">
       <use xlink:href="#DejaVuSans-49"/>
       <use x="63.623047" xlink:href="#DejaVuSans-46"/>
       <use x="95.410156" xlink:href="#DejaVuSans-53"/>
       <use x="159.033203" xlink:href="#DejaVuSans-48"/>
      </g>
     </g>
    </g>
    <g id="ytick_6">
     <g id="line2d_70">
      <path clip-path="url(#pe476618ffc)" d="M 90 106.519528 
L 648 106.519528 
" style="fill:none;stroke:#b0b0b0;stroke-dasharray:0.8,1.32;stroke-dashoffset:0;stroke-width:0.8;"/>
     </g>
     <g id="line2d_71">
      <g>
       <use style="stroke:#000000;stroke-width:0.8;" x="90" xlink:href="#m55c70e1ba4" y="106.519528"/>
      </g>
     </g>
     <g id="text_18">
      <!-- 1.75 -->
      <g transform="translate(60.734375 110.318746)scale(0.1 -0.1)">
       <use xlink:href="#DejaVuSans-49"/>
       <use x="63.623047" xlink:href="#DejaVuSans-46"/>
       <use x="95.410156" xlink:href="#DejaVuSans-55"/>
       <use x="159.033203" xlink:href="#DejaVuSans-53"/>
      </g>
     </g>
    </g>
    <g id="ytick_7">
     <g id="line2d_72">
      <path clip-path="url(#pe476618ffc)" d="M 90 70.531883 
L 648 70.531883 
" style="fill:none;stroke:#b0b0b0;stroke-dasharray:0.8,1.32;stroke-dashoffset:0;stroke-width:0.8;"/>
     </g>
     <g id="line2d_73">
      <g>
       <use style="stroke:#000000;stroke-width:0.8;" x="90" xlink:href="#m55c70e1ba4" y="70.531883"/>
      </g>
     </g>
     <g id="text_19">
      <!-- 2.00 -->
      <g transform="translate(60.734375 74.331101)scale(0.1 -0.1)">
       <use xlink:href="#DejaVuSans-50"/>
       <use x="63.623047" xlink:href="#DejaVuSans-46"/>
       <use x="95.410156" xlink:href="#DejaVuSans-48"/>
       <use x="159.033203" xlink:href="#DejaVuSans-48"/>
      </g>
     </g>
    </g>
   </g>
   <g id="line2d_74">
    <path clip-path="url(#pe476618ffc)" d="M 90 270.424706 
L 91.660714 270.651056 
L 93.321429 271.014886 
L 94.982143 271.591496 
L 96.642857 271.724727 
L 98.303571 273.013915 
L 99.964286 273.007248 
L 101.625 274.220243 
L 104.946429 277.255237 
L 106.607143 279.187978 
L 108.267857 280.449165 
L 109.928571 282.230917 
L 111.589286 283.704351 
L 114.910714 286.414132 
L 116.571429 287.090328 
L 118.232143 288.008129 
L 121.553571 289.046656 
L 123.214286 289.837458 
L 124.875 290.259326 
L 126.535714 290.183568 
L 128.196429 289.798023 
L 129.857143 288.825526 
L 133.178571 287.753674 
L 134.839286 286.668016 
L 136.5 286.092231 
L 138.160714 284.330548 
L 139.821429 284.547986 
L 143.142857 281.210115 
L 146.464286 277.091265 
L 148.125 274.629687 
L 149.785714 272.437408 
L 153.107143 266.631801 
L 154.767857 263.392179 
L 158.089286 255.088176 
L 159.75 249.976749 
L 161.410714 246.22053 
L 163.071429 240.155887 
L 164.732143 235.640972 
L 166.392857 229.38226 
L 169.714286 218.7909 
L 171.375 211.866794 
L 174.696429 199.268367 
L 184.660714 150.376794 
L 189.642857 127.28 
L 192.964286 112.481614 
L 194.625 109.703771 
L 196.285714 103.233977 
L 197.946429 100.518568 
L 199.607143 98.81787 
L 201.267857 96.339434 
L 202.928571 95.707058 
L 204.589286 97.569938 
L 206.25 100.694935 
L 207.910714 105.607564 
L 209.571429 111.203243 
L 214.553571 137.652096 
L 216.214286 148.48278 
L 222.857143 185.326472 
L 226.178571 196.327052 
L 227.839286 200.721508 
L 229.5 204.497635 
L 231.160714 205.846276 
L 232.821429 208.75137 
L 234.482143 208.241239 
L 236.142857 208.512333 
L 237.803571 207.11856 
L 241.125 201.121167 
L 244.446429 193.187374 
L 246.107143 186.942368 
L 247.767857 180.060242 
L 249.428571 175.552676 
L 252.75 159.181415 
L 254.410714 153.406869 
L 256.071429 146.261067 
L 257.732143 140.207692 
L 259.392857 132.594892 
L 261.053571 126.641373 
L 266.035714 115.260951 
L 267.696429 114.83923 
L 269.357143 115.133541 
L 271.017857 116.12841 
L 272.678571 118.36039 
L 274.339286 123.612576 
L 277.660714 136.607832 
L 279.321429 143.302171 
L 280.982143 152.095831 
L 282.642857 162.174311 
L 284.303571 169.598256 
L 285.964286 179.640082 
L 287.625 188.5412 
L 289.285714 196.582928 
L 290.946429 203.438056 
L 292.607143 211.038254 
L 295.928571 223.353876 
L 299.25 234.02238 
L 300.910714 238.059169 
L 302.571429 242.706112 
L 305.892857 249.417463 
L 307.553571 252.15737 
L 309.214286 253.184932 
L 310.875 254.977156 
L 312.535714 255.343605 
L 314.196429 255.515846 
L 315.857143 254.951889 
L 317.517857 253.701483 
L 320.839286 250.701084 
L 322.5 248.499232 
L 324.160714 245.403213 
L 327.482143 238.4574 
L 332.464286 221.966165 
L 335.785714 207.632471 
L 339.107143 191.342497 
L 340.767857 182.343233 
L 342.428571 172.710789 
L 345.75 155.158343 
L 347.410714 147.104882 
L 349.071429 137.825453 
L 350.732143 130.705656 
L 352.392857 122.49184 
L 354.053571 116.513694 
L 355.714286 112.090759 
L 357.375 108.669414 
L 359.035714 107.485363 
L 360.696429 106.771209 
L 362.357143 110.070619 
L 364.017857 113.005371 
L 365.678571 114.827188 
L 367.339286 121.002763 
L 369 128.454732 
L 370.660714 137.0995 
L 372.321429 144.482374 
L 382.285714 193.009037 
L 383.946429 198.920321 
L 387.267857 209.664411 
L 388.928571 213.669871 
L 390.589286 218.966237 
L 392.25 223.727177 
L 393.910714 227.94524 
L 395.571429 231.391778 
L 400.553571 242.530862 
L 402.214286 245.512003 
L 403.875 249.257963 
L 407.196429 256.201376 
L 408.857143 259.020373 
L 412.178571 265.220192 
L 413.839286 267.967449 
L 415.5 270.223385 
L 417.160714 273.239726 
L 420.482143 277.166967 
L 422.142857 278.915554 
L 423.803571 280.296146 
L 425.464286 280.562361 
L 427.125 281.772703 
L 428.785714 282.814582 
L 432.107143 283.47172 
L 433.767857 283.181628 
L 435.428571 283.29244 
L 437.089286 282.026074 
L 438.75 281.50278 
L 440.410714 280.060965 
L 442.071429 279.094471 
L 443.732143 277.56054 
L 445.392857 275.844225 
L 447.053571 273.265873 
L 448.714286 271.292079 
L 450.375 268.684487 
L 452.035714 265.554862 
L 453.696429 262.66809 
L 455.357143 259.128152 
L 457.017857 255.161099 
L 458.678571 250.242975 
L 460.339286 246.50755 
L 470.303571 217.582203 
L 471.964286 213.30924 
L 473.625 208.729149 
L 475.285714 205.309905 
L 476.946429 202.778506 
L 478.607143 198.015601 
L 480.267857 195.069372 
L 481.928571 192.856213 
L 483.589286 191.766232 
L 485.25 189.688557 
L 488.571429 184.817899 
L 490.232143 182.941901 
L 491.892857 181.570565 
L 493.553571 180.98483 
L 495.214286 178.694952 
L 496.875 177.414099 
L 498.535714 176.594991 
L 500.196429 174.940468 
L 501.857143 173.551213 
L 503.517857 170.44644 
L 505.178571 166.881044 
L 506.839286 165.766501 
L 510.160714 160.19917 
L 511.821429 156.976182 
L 513.482143 152.318674 
L 515.142857 148.894529 
L 516.803571 146.909067 
L 518.464286 142.51503 
L 520.125 140.407958 
L 521.785714 139.17507 
L 525.107143 139.031614 
L 526.767857 140.305026 
L 528.428571 141.104738 
L 530.089286 144.254642 
L 531.75 147.151338 
L 533.410714 150.783631 
L 535.071429 152.851042 
L 536.732143 154.122859 
L 538.392857 155.869074 
L 540.053571 160.879249 
L 541.714286 164.32579 
L 543.375 166.223709 
L 545.035714 168.811476 
L 546.696429 171.037151 
L 548.357143 172.930286 
L 550.017857 174.346458 
L 551.678571 176.338996 
L 553.339286 176.038426 
L 555 177.867733 
L 556.660714 178.768024 
L 558.321429 177.687333 
L 559.982143 179.956818 
L 561.642857 181.492364 
L 564.964286 182.756965 
L 566.625 184.079245 
L 568.285714 184.563011 
L 569.946429 186.863928 
L 571.607143 188.907403 
L 573.267857 189.54141 
L 576.589286 195.551883 
L 579.910714 198.609807 
L 581.571429 200.801999 
L 583.232143 202.624336 
L 584.892857 204.175228 
L 586.553571 206.156846 
L 588.214286 207.610626 
L 589.875 208.035539 
L 591.535714 209.362311 
L 593.196429 209.502106 
L 594.857143 209.427994 
L 596.517857 210.092888 
L 598.178571 210.329955 
L 599.839286 210.081781 
L 601.5 209.373996 
L 603.160714 209.49735 
L 604.821429 209.234935 
L 606.482143 209.439039 
L 608.142857 208.526195 
L 609.803571 209.296552 
L 611.464286 209.154102 
L 613.125 210.963846 
L 614.785714 210.568008 
L 618.107143 211.264913 
L 619.767857 211.370577 
L 621.428571 213.328367 
L 623.089286 214.769048 
L 624.75 216.550675 
L 626.410714 217.414571 
L 628.071429 217.723205 
L 629.732143 218.499999 
L 631.392857 218.569272 
L 633.053571 219.986149 
L 634.714286 220.426995 
L 636.375 220.65104 
L 638.035714 220.70551 
L 639.696429 218.150013 
L 641.357143 218.646542 
L 644.678571 217.251875 
L 646.339286 216.945932 
L 648 216.413973 
L 649.660714 218.467196 
L 651.321429 218.277802 
L 652.982143 217.912973 
L 654.642857 218.298188 
L 656.303571 218.122857 
L 657.964286 217.763899 
L 659.625 218.229275 
L 661.285714 217.966936 
L 661.285714 217.966936 
" style="fill:none;stroke:#fc997a;stroke-linecap:square;stroke-width:1.5;"/>
   </g>
   <g id="line2d_75">
    <path clip-path="url(#pe476618ffc)" d="M 90 214.482462 
L 648 214.482462 
" style="fill:none;stroke:#000000;stroke-dasharray:3.7,1.6;stroke-dashoffset:0;"/>
   </g>
   <g id="patch_3">
    <path d="M 90 315 
L 90 43.2 
" style="fill:none;stroke:#000000;stroke-linecap:square;stroke-linejoin:miter;stroke-width:0.8;"/>
   </g>
   <g id="patch_4">
    <path d="M 648 315 
L 648 43.2 
" style="fill:none;stroke:#000000;stroke-linecap:square;stroke-linejoin:miter;stroke-width:0.8;"/>
   </g>
   <g id="patch_5">
    <path d="M 90 315 
L 648 315 
" style="fill:none;stroke:#000000;stroke-linecap:square;stroke-linejoin:miter;stroke-width:0.8;"/>
   </g>
   <g id="patch_6">
    <path d="M 90 43.2 
L 648 43.2 
" style="fill:none;stroke:#000000;stroke-linecap:square;stroke-linejoin:miter;stroke-width:0.8;"/>
   </g>
   <g id="text_20">
    <!-- 614   $R_t$ -->
    <g transform="translate(315.48 37.2)scale(0.12 -0.12)">
     <defs>
      <path d="M 33.015625 40.375 
Q 26.375 40.375 22.484375 35.828125 
Q 18.609375 31.296875 18.609375 23.390625 
Q 18.609375 15.53125 22.484375 10.953125 
Q 26.375 6.390625 33.015625 6.390625 
Q 39.65625 6.390625 43.53125 10.953125 
Q 47.40625 15.53125 47.40625 23.390625 
Q 47.40625 31.296875 43.53125 35.828125 
Q 39.65625 40.375 33.015625 40.375 
z
M 52.59375 71.296875 
L 52.59375 62.3125 
Q 48.875 64.0625 45.09375 64.984375 
Q 41.3125 65.921875 37.59375 65.921875 
Q 27.828125 65.921875 22.671875 59.328125 
Q 17.53125 52.734375 16.796875 39.40625 
Q 19.671875 43.65625 24.015625 45.921875 
Q 28.375 48.1875 33.59375 48.1875 
Q 44.578125 48.1875 50.953125 41.515625 
Q 57.328125 34.859375 57.328125 23.390625 
Q 57.328125 12.15625 50.6875 5.359375 
Q 44.046875 -1.421875 33.015625 -1.421875 
Q 20.359375 -1.421875 13.671875 8.265625 
Q 6.984375 17.96875 6.984375 36.375 
Q 6.984375 53.65625 15.1875 63.9375 
Q 23.390625 74.21875 37.203125 74.21875 
Q 40.921875 74.21875 44.703125 73.484375 
Q 48.484375 72.75 52.59375 71.296875 
z
" id="DejaVuSans-54"/>
      <path d="M 37.796875 64.3125 
L 12.890625 25.390625 
L 37.796875 25.390625 
z
M 35.203125 72.90625 
L 47.609375 72.90625 
L 47.609375 25.390625 
L 58.015625 25.390625 
L 58.015625 17.1875 
L 47.609375 17.1875 
L 47.609375 0 
L 37.796875 0 
L 37.796875 17.1875 
L 4.890625 17.1875 
L 4.890625 26.703125 
z
" id="DejaVuSans-52"/>
      <path id="DejaVuSans-32"/>
      <path d="M 18.171875 54.6875 
L 18.171875 -20.796875 
L 9.078125 -20.796875 
L 9.078125 54.6875 
z
" id="DejaVuSans-1503"/>
      <path d="M 18.171875 54.6875 
L 18.171875 0 
L 9.078125 0 
L 9.078125 54.6875 
z
" id="DejaVuSans-1493"/>
      <path d="M 18.796875 0 
L 38.53125 47.703125 
L 4.296875 47.703125 
L 4.296875 72.90625 
L 13.421875 72.90625 
L 13.421875 54.6875 
L 49.21875 54.640625 
L 49.078125 49.265625 
L 28.328125 0 
z
" id="DejaVuSans-1500"/>
      <path d="M 19.34375 -20.796875 
L 19.34375 33.40625 
L 10.25 29.6875 
L 10.25 -20.796875 
z
M 33.0625 0 
L 52.78125 47.703125 
L 9.078125 47.703125 
L 9.078125 54.640625 
L 63.328125 54.640625 
L 63.328125 49.265625 
L 42.578125 0 
z
" id="DejaVuSans-1511"/>
      <path d="M 21 0 
L 11.8125 0 
L 4.296875 54.6875 
L 13.328125 54.6875 
L 16.890625 28.953125 
Q 19.234375 29 21.0625 29.359375 
Q 22.90625 29.734375 24.265625 30.53125 
Q 25.640625 31.34375 26.609375 32.203125 
Q 27.59375 33.0625 28.296875 34.625 
Q 29 36.1875 29.40625 37.46875 
Q 29.828125 38.765625 30.1875 41.03125 
Q 30.5625 43.3125 30.75 45 
Q 30.953125 46.6875 31.265625 49.640625 
Q 31.59375 52.59375 31.890625 54.6875 
L 39.9375 54.6875 
Q 39.0625 42 37.890625 36.96875 
Q 35.890625 28.609375 30.609375 25.25 
Q 25.984375 22.265625 17.828125 21.96875 
L 19.921875 6.984375 
Q 24.703125 6.984375 28.390625 7.34375 
Q 32.078125 7.71875 35.640625 8.6875 
Q 39.203125 9.671875 41.8125 11.296875 
Q 44.4375 12.9375 46.84375 15.5 
Q 49.265625 18.0625 50.953125 21.625 
Q 52.640625 25.203125 54 30 
Q 55.375 34.8125 56.203125 40.90625 
Q 57.03125 47.015625 57.515625 54.6875 
L 66.546875 54.6875 
Q 65.671875 46.578125 64.640625 40.421875 
Q 63.625 34.28125 62.125 28.703125 
Q 60.640625 23.140625 58.8125 19.15625 
Q 56.984375 15.1875 54.421875 11.84375 
Q 51.859375 8.5 48.703125 6.375 
Q 45.5625 4.25 41.375 2.75 
Q 37.203125 1.265625 32.25 0.625 
Q 27.296875 0 21 0 
z
" id="DejaVuSans-1513"/>
      <path d="M 43.75 20.0625 
L 57.671875 0 
L 47.078125 0 
L 26.765625 29.296875 
Q 25.390625 28.609375 24.53125 28.09375 
Q 23.6875 27.59375 22.3125 26.296875 
Q 20.953125 25 20.140625 23.40625 
Q 19.34375 21.828125 18.703125 19.140625 
Q 18.0625 16.453125 18.0625 13.09375 
L 18.0625 0 
L 9.078125 0 
L 9.078125 9.03125 
Q 9.078125 12.984375 9.5625 16.359375 
Q 10.0625 19.734375 10.8125 22.078125 
Q 11.578125 24.421875 12.796875 26.390625 
Q 14.015625 28.375 15.109375 29.59375 
Q 16.21875 30.8125 17.796875 31.875 
Q 19.390625 32.953125 20.453125 33.46875 
Q 21.53125 33.984375 23.046875 34.625 
L 9.1875 54.6875 
L 19.78125 54.6875 
L 40.09375 25.390625 
Q 41.40625 26.03125 42.25 26.53125 
Q 43.109375 27.046875 44.46875 28.359375 
Q 45.84375 29.6875 46.671875 31.265625 
Q 47.515625 32.859375 48.140625 35.546875 
Q 48.78125 38.234375 48.78125 41.609375 
L 48.78125 54.6875 
L 57.765625 54.6875 
L 57.765625 45.65625 
Q 57.765625 41.65625 57.265625 38.3125 
Q 56.78125 34.96875 56.03125 32.59375 
Q 55.28125 30.21875 54.046875 28.234375 
Q 52.828125 26.265625 51.703125 25.0625 
Q 50.59375 23.875 49.03125 22.796875 
Q 47.46875 21.734375 46.390625 21.21875 
Q 45.3125 20.703125 43.75 20.0625 
z
" id="DejaVuSans-1488"/>
      <path d="M 47.359375 27.828125 
L 47.359375 0 
L 38.28125 0 
L 38.28125 27.828125 
Q 38.28125 31.390625 37.765625 34.265625 
Q 37.25 37.15625 36 39.71875 
Q 34.765625 42.28125 32.8125 43.984375 
Q 30.859375 45.703125 27.78125 46.703125 
Q 24.703125 47.703125 20.703125 47.703125 
L 4.296875 47.703125 
L 4.296875 54.6875 
L 20.65625 54.6875 
Q 26.8125 54.6875 31.46875 53.390625 
Q 36.140625 52.09375 39.109375 49.828125 
Q 42.09375 47.5625 43.96875 44.109375 
Q 45.84375 40.671875 46.59375 36.734375 
Q 47.359375 32.8125 47.359375 27.828125 
z
" id="DejaVuSans-1512"/>
      <path d="M 30.328125 54.6875 
L 30.328125 47.703125 
L 26.421875 47.703125 
Q 22.171875 47.703125 20.578125 43.921875 
Q 19 40.140625 19 30.90625 
L 19 0 
L 9.90625 0 
L 9.90625 30.90625 
Q 9.90625 37.109375 11.78125 41.453125 
Q 13.671875 45.796875 16.40625 47.703125 
L 4.296875 47.703125 
L 4.296875 54.6875 
z
" id="DejaVuSans-1494"/>
      <path d="M 25.203125 64.796875 
L 20.21875 38.921875 
L 32.90625 38.921875 
Q 40.375 38.921875 44.984375 43.046875 
Q 49.609375 47.171875 49.609375 53.8125 
Q 49.609375 59.125 46.5 61.953125 
Q 43.40625 64.796875 37.59375 64.796875 
z
M 43.3125 35.015625 
Q 46.4375 34.28125 48.515625 31.390625 
Q 50.59375 28.515625 53.328125 19.921875 
L 59.515625 0 
L 49.125 0 
L 43.40625 18.703125 
Q 41.21875 25.921875 38.328125 28.359375 
Q 35.453125 30.8125 29.5 30.8125 
L 18.609375 30.8125 
L 12.59375 0 
L 2.6875 0 
L 16.890625 72.90625 
L 39.109375 72.90625 
Q 49.21875 72.90625 54.609375 68.328125 
Q 60.015625 63.765625 60.015625 55.171875 
Q 60.015625 47.5625 55.421875 41.984375 
Q 50.828125 36.421875 43.3125 35.015625 
z
" id="DejaVuSans-Oblique-82"/>
      <path d="M 42.28125 54.6875 
L 40.921875 47.703125 
L 23 47.703125 
L 17.1875 18.015625 
Q 16.890625 16.359375 16.75 15.234375 
Q 16.609375 14.109375 16.609375 13.484375 
Q 16.609375 10.359375 18.484375 8.9375 
Q 20.359375 7.515625 24.515625 7.515625 
L 33.59375 7.515625 
L 32.078125 0 
L 23.484375 0 
Q 15.484375 0 11.546875 3.125 
Q 7.625 6.25 7.625 12.59375 
Q 7.625 13.71875 7.765625 15.0625 
Q 7.90625 16.40625 8.203125 18.015625 
L 14.015625 47.703125 
L 6.390625 47.703125 
L 7.8125 54.6875 
L 15.28125 54.6875 
L 18.3125 70.21875 
L 27.296875 70.21875 
L 24.3125 54.6875 
z
" id="DejaVuSans-Oblique-116"/>
     </defs>
     <use transform="translate(0 0.78125)" xlink:href="#DejaVuSans-54"/>
     <use transform="translate(63.623047 0.78125)" xlink:href="#DejaVuSans-49"/>
     <use transform="translate(127.246094 0.78125)" xlink:href="#DejaVuSans-52"/>
     <use transform="translate(190.869141 0.78125)" xlink:href="#DejaVuSans-32"/>
     <use transform="translate(222.65625 0.78125)" xlink:href="#DejaVuSans-1503"/>
     <use transform="translate(249.902344 0.78125)" xlink:href="#DejaVuSans-1493"/>
     <use transform="translate(277.148438 0.78125)" xlink:href="#DejaVuSans-1500"/>
     <use transform="translate(333.984375 0.78125)" xlink:href="#DejaVuSans-1511"/>
     <use transform="translate(404.931641 0.78125)" xlink:href="#DejaVuSans-1513"/>
     <use transform="translate(475.78125 0.78125)" xlink:href="#DejaVuSans-1488"/>
     <use transform="translate(542.626953 0.78125)" xlink:href="#DejaVuSans-32"/>
     <use transform="translate(574.414062 0.78125)" xlink:href="#DejaVuSans-1512"/>
     <use transform="translate(630.859375 0.78125)" xlink:href="#DejaVuSans-1493"/>
     <use transform="translate(658.105469 0.78125)" xlink:href="#DejaVuSans-1494"/>
     <use transform="translate(692.724609 0.78125)" xlink:href="#DejaVuSans-1488"/>
     <use transform="translate(759.570312 0.78125)" xlink:href="#DejaVuSans-32"/>
     <use transform="translate(791.357422 0.78125)" xlink:href="#DejaVuSans-Oblique-82"/>
     <use transform="translate(860.839844 -15.625)scale(0.7)" xlink:href="#DejaVuSans-Oblique-116"/>
    </g>
   </g>
  </g>
 </g>
 <defs>
  <clipPath id="pe476618ffc">
   <rect height="271.8" width="558" x="90" y="43.2"/>
  </clipPath>
 </defs>
</svg>
