<?xml version="1.0" encoding="utf-8" standalone="no"?>
<!DOCTYPE svg PUBLIC "-//W3C//DTD SVG 1.1//EN"
  "http://www.w3.org/Graphics/SVG/1.1/DTD/svg11.dtd">
<!-- Created with matplotlib (https://matplotlib.org/) -->
<svg height="360pt" version="1.1" viewBox="0 0 720 360" width="720pt" xmlns="http://www.w3.org/2000/svg" xmlns:xlink="http://www.w3.org/1999/xlink">
 <metadata>
  <rdf:RDF xmlns:cc="http://creativecommons.org/ns#" xmlns:dc="http://purl.org/dc/elements/1.1/" xmlns:rdf="http://www.w3.org/1999/02/22-rdf-syntax-ns#">
   <cc:Work>
    <dc:type rdf:resource="http://purl.org/dc/dcmitype/StillImage"/>
    <dc:date>2021-01-04T05:32:59.079543</dc:date>
    <dc:format>image/svg+xml</dc:format>
    <dc:creator>
     <cc:Agent>
      <dc:title>Matplotlib v3.3.2, https://matplotlib.org/</dc:title>
     </cc:Agent>
    </dc:creator>
   </cc:Work>
  </rdf:RDF>
 </metadata>
 <defs>
  <style type="text/css">*{stroke-linecap:butt;stroke-linejoin:round;}</style>
 </defs>
 <g id="figure_1">
  <g id="patch_1">
   <path d="M 0 360 
L 720 360 
L 720 0 
L 0 0 
z
" style="fill:#ffffff;"/>
  </g>
  <g id="axes_1">
   <g id="patch_2">
    <path d="M 90 315 
L 648 315 
L 648 43.2 
L 90 43.2 
z
" style="fill:#ffffff;"/>
   </g>
   <g id="PolyCollection_1">
    <defs>
     <path d="M 90 -60.049813 
L 90 -191.145673 
L 92.952381 -191.535415 
L 95.904762 -185.118981 
L 98.857143 -187.444633 
L 101.809524 -187.038617 
L 104.761905 -185.129483 
L 107.714286 -181.069648 
L 110.666667 -173.027801 
L 113.619048 -169.182311 
L 116.571429 -165.338892 
L 119.52381 -161.316024 
L 122.47619 -156.594272 
L 125.428571 -148.11135 
L 128.380952 -143.540051 
L 131.333333 -142.564686 
L 134.285714 -133.945301 
L 137.238095 -135.692649 
L 140.190476 -135.283992 
L 143.142857 -128.613677 
L 146.095238 -125.571339 
L 149.047619 -130.993016 
L 152 -129.505026 
L 154.952381 -129.53958 
L 157.904762 -132.421771 
L 160.857143 -128.835407 
L 163.809524 -133.308896 
L 166.761905 -140.966139 
L 169.714286 -140.571627 
L 172.666667 -144.41124 
L 175.619048 -153.625141 
L 178.571429 -158.828876 
L 181.52381 -160.555078 
L 184.47619 -176.714344 
L 187.428571 -180.532292 
L 190.380952 -186.28592 
L 193.333333 -195.8083 
L 196.285714 -201.900615 
L 199.238095 -208.959205 
L 202.190476 -218.588764 
L 205.142857 -228.347736 
L 208.095238 -240.630727 
L 211.047619 -241.084718 
L 214 -243.645166 
L 216.952381 -251.744347 
L 219.904762 -266.499212 
L 222.857143 -257.579992 
L 225.809524 -263.108133 
L 228.761905 -264.699769 
L 231.714286 -264.410549 
L 234.666667 -263.459657 
L 237.619048 -265.519488 
L 240.571429 -259.421679 
L 243.52381 -259.769948 
L 246.47619 -266.768821 
L 249.428571 -253.40291 
L 252.380952 -255.560875 
L 255.333333 -259.386316 
L 258.285714 -264.93394 
L 261.238095 -258.94596 
L 264.190476 -263.898054 
L 267.142857 -250.030044 
L 270.095238 -255.393879 
L 273.047619 -250.590293 
L 276 -251.451786 
L 278.952381 -257.488136 
L 281.904762 -244.765443 
L 284.857143 -251.035409 
L 287.809524 -248.161133 
L 290.761905 -240.919775 
L 293.714286 -238.232712 
L 296.666667 -237.845291 
L 299.619048 -241.628907 
L 302.571429 -228.564543 
L 305.52381 -225.920387 
L 308.47619 -225.478034 
L 311.428571 -220.727547 
L 314.380952 -207.346517 
L 317.333333 -201.810193 
L 320.285714 -189.317771 
L 323.238095 -188.870083 
L 326.190476 -175.921363 
L 329.142857 -168.671332 
L 332.095238 -159.912028 
L 335.047619 -156.864467 
L 338 -146.93643 
L 340.952381 -141.598153 
L 343.904762 -138.844229 
L 346.857143 -132.108288 
L 349.809524 -125.795289 
L 352.761905 -130.456145 
L 355.714286 -122.667528 
L 358.666667 -121.052731 
L 361.619048 -119.356903 
L 364.571429 -113.908059 
L 367.52381 -114.500386 
L 370.47619 -114.077113 
L 373.428571 -110.166783 
L 376.380952 -111.745509 
L 379.333333 -116.3285 
L 382.285714 -117.155407 
L 385.238095 -115.01554 
L 388.190476 -125.564322 
L 391.142857 -124.638729 
L 394.095238 -128.291007 
L 397.047619 -131.600828 
L 400 -136.550934 
L 402.952381 -144.790861 
L 405.904762 -145.034771 
L 408.857143 -152.680835 
L 411.809524 -154.155025 
L 414.761905 -158.44697 
L 417.714286 -163.490368 
L 420.666667 -168.690501 
L 423.619048 -169.390907 
L 426.571429 -168.650924 
L 429.52381 -174.306566 
L 432.47619 -176.72042 
L 435.428571 -178.396776 
L 438.380952 -177.672264 
L 441.333333 -172.948279 
L 444.285714 -174.978082 
L 447.238095 -175.011582 
L 450.190476 -171.022538 
L 453.142857 -165.770522 
L 456.095238 -165.571588 
L 459.047619 -167.761341 
L 462 -164.638798 
L 464.952381 -167.677455 
L 467.904762 -163.164853 
L 470.857143 -170.877726 
L 473.809524 -163.897708 
L 476.761905 -162.440295 
L 479.714286 -162.401209 
L 482.666667 -163.003714 
L 485.619048 -164.489515 
L 488.571429 -169.37643 
L 491.52381 -168.265472 
L 494.47619 -169.658161 
L 497.428571 -171.723606 
L 500.380952 -173.831139 
L 503.333333 -181.247346 
L 506.285714 -178.278019 
L 509.238095 -186.363303 
L 512.190476 -182.548868 
L 515.142857 -190.108089 
L 518.095238 -193.289696 
L 521.047619 -197.298948 
L 524 -200.410716 
L 526.952381 -200.328771 
L 529.904762 -194.289526 
L 532.857143 -193.372942 
L 535.809524 -193.371306 
L 538.761905 -197.078265 
L 541.714286 -197.09141 
L 544.666667 -192.361087 
L 547.619048 -196.527627 
L 550.571429 -197.852985 
L 553.52381 -202.41077 
L 556.47619 -205.214564 
L 559.428571 -209.454628 
L 562.380952 -206.136702 
L 565.333333 -217.125003 
L 568.285714 -221.899895 
L 571.238095 -229.783513 
L 574.190476 -238.508636 
L 577.142857 -253.426685 
L 580.095238 -262.926484 
L 583.047619 -261.050714 
L 586 -275.474927 
L 588.952381 -284.695943 
L 591.904762 -286.909315 
L 594.857143 -289.292039 
L 597.809524 -303.500516 
L 600.761905 -304.445455 
L 603.714286 -294.469262 
L 606.666667 -284.288616 
L 609.619048 -280.957494 
L 612.571429 -277.320742 
L 615.52381 -265.218131 
L 618.47619 -265.041149 
L 621.428571 -251.250304 
L 624.380952 -243.005746 
L 627.333333 -239.267053 
L 630.285714 -242.903686 
L 633.238095 -226.953367 
L 636.190476 -232.875391 
L 639.142857 -228.29495 
L 642.095238 -236.46258 
L 645.047619 -242.643716 
L 648 -240.694787 
L 650.952381 -232.977274 
L 653.904762 -234.121517 
L 656.857143 -242.190134 
L 659.809524 -242.463831 
L 662.761905 -250.209545 
L 665.714286 -251.050748 
L 668.666667 -259.504009 
L 671.619048 -262.577318 
L 671.619048 -68.208376 
L 671.619048 -68.208376 
L 668.666667 -72.046723 
L 665.714286 -68.218456 
L 662.761905 -75.078154 
L 659.809524 -76.411084 
L 656.857143 -84.29071 
L 653.904762 -79.023933 
L 650.952381 -86.309175 
L 648 -95.004999 
L 645.047619 -101.5157 
L 642.095238 -105.261197 
L 639.142857 -101.457734 
L 636.190476 -111.975311 
L 633.238095 -113.416336 
L 630.285714 -130.789783 
L 627.333333 -131.349922 
L 624.380952 -139.15789 
L 621.428571 -150.95352 
L 618.47619 -168.980497 
L 615.52381 -170.143798 
L 612.571429 -178.634985 
L 609.619048 -184.305963 
L 606.666667 -184.841401 
L 603.714286 -196.235805 
L 600.761905 -205.099547 
L 597.809524 -206.314567 
L 594.857143 -201.765452 
L 591.904762 -198.250677 
L 588.952381 -195.078227 
L 586 -187.541218 
L 583.047619 -178.041654 
L 580.095238 -176.98739 
L 577.142857 -169.859311 
L 574.190476 -158.793988 
L 571.238095 -154.007316 
L 568.285714 -148.608915 
L 565.333333 -143.807449 
L 562.380952 -131.200175 
L 559.428571 -139.222629 
L 556.47619 -130.595569 
L 553.52381 -129.646003 
L 550.571429 -122.766393 
L 547.619048 -120.786773 
L 544.666667 -113.396925 
L 541.714286 -120.321418 
L 538.761905 -120.518024 
L 535.809524 -118.337008 
L 532.857143 -117.971367 
L 529.904762 -120.244356 
L 526.952381 -124.497628 
L 524 -125.957224 
L 521.047619 -122.273279 
L 518.095238 -119.833761 
L 515.142857 -117.300544 
L 512.190476 -110.44057 
L 509.238095 -113.595006 
L 506.285714 -105.414349 
L 503.333333 -107.128508 
L 500.380952 -104.827169 
L 497.428571 -101.760348 
L 494.47619 -100.859536 
L 491.52381 -100.287717 
L 488.571429 -103.040957 
L 485.619048 -98.236359 
L 482.666667 -95.894695 
L 479.714286 -94.063177 
L 476.761905 -93.308402 
L 473.809524 -94.651754 
L 470.857143 -100.129529 
L 467.904762 -93.36464 
L 464.952381 -103.39176 
L 462 -101.063007 
L 459.047619 -98.932679 
L 456.095238 -101.855931 
L 453.142857 -100.156616 
L 450.190476 -105.104562 
L 447.238095 -107.692727 
L 444.285714 -108.53683 
L 441.333333 -104.635313 
L 438.380952 -109.647299 
L 435.428571 -110.612773 
L 432.47619 -109.27489 
L 429.52381 -108.066545 
L 426.571429 -101.254205 
L 423.619048 -103.520864 
L 420.666667 -101.206453 
L 417.714286 -96.661657 
L 414.761905 -93.074181 
L 411.809524 -88.08745 
L 408.857143 -87.463321 
L 405.904762 -80.282243 
L 402.952381 -81.448704 
L 400 -73.870781 
L 397.047619 -73.876355 
L 394.095238 -69.362562 
L 391.142857 -69.620287 
L 388.190476 -69.947629 
L 385.238095 -61.289303 
L 382.285714 -61.490907 
L 379.333333 -64.028494 
L 376.380952 -57.354545 
L 373.428571 -57.838001 
L 370.47619 -60.760814 
L 367.52381 -60.357358 
L 364.571429 -60.415996 
L 361.619048 -65.552892 
L 358.666667 -65.471064 
L 355.714286 -65.225047 
L 352.761905 -73.176374 
L 349.809524 -68.524489 
L 346.857143 -71.704888 
L 343.904762 -76.442296 
L 340.952381 -79.092505 
L 338 -84.828565 
L 335.047619 -94.04897 
L 332.095238 -94.796086 
L 329.142857 -104.734625 
L 326.190476 -108.408662 
L 323.238095 -118.765661 
L 320.285714 -119.856447 
L 317.333333 -131.628567 
L 314.380952 -130.679007 
L 311.428571 -140.692445 
L 308.47619 -147.3672 
L 305.52381 -146.443692 
L 302.571429 -146.616411 
L 299.619048 -156.999406 
L 296.666667 -152.485602 
L 293.714286 -157.550639 
L 290.761905 -161.376373 
L 287.809524 -165.290281 
L 284.857143 -168.501861 
L 281.904762 -159.53715 
L 278.952381 -172.306453 
L 276 -163.134283 
L 273.047619 -164.087795 
L 270.095238 -168.629853 
L 267.142857 -164.317823 
L 264.190476 -176.243909 
L 261.238095 -167.343613 
L 258.285714 -174.056771 
L 255.333333 -169.571607 
L 252.380952 -167.559496 
L 249.428571 -163.996788 
L 246.47619 -178.26788 
L 243.52381 -170.204493 
L 240.571429 -165.750449 
L 237.619048 -168.016405 
L 234.666667 -167.153613 
L 231.714286 -169.573338 
L 228.761905 -170.805104 
L 225.809524 -170.488709 
L 222.857143 -158.160175 
L 219.904762 -169.831348 
L 216.952381 -159.393651 
L 214 -154.017687 
L 211.047619 -153.923354 
L 208.095238 -149.257391 
L 205.142857 -142.8919 
L 202.190476 -135.138252 
L 199.238095 -126.455749 
L 196.285714 -121.779358 
L 193.333333 -117.497656 
L 190.380952 -111.244124 
L 187.428571 -107.71613 
L 184.47619 -103.714125 
L 181.52381 -90.87912 
L 178.571429 -88.176588 
L 175.619048 -83.953829 
L 172.666667 -77.735388 
L 169.714286 -74.724743 
L 166.761905 -75.571041 
L 163.809524 -70.093455 
L 160.857143 -67.732672 
L 157.904762 -72.084645 
L 154.952381 -69.182504 
L 152 -67.384689 
L 149.047619 -66.492707 
L 146.095238 -64.346385 
L 143.142857 -67.107067 
L 140.190476 -70.74422 
L 137.238095 -72.008859 
L 134.285714 -66.996573 
L 131.333333 -73.480521 
L 128.380952 -71.390115 
L 125.428571 -75.77763 
L 122.47619 -78.955155 
L 119.52381 -79.297516 
L 116.571429 -78.009265 
L 113.619048 -74.782076 
L 110.666667 -73.93127 
L 107.714286 -77.565012 
L 104.761905 -78.016181 
L 101.809524 -73.84494 
L 98.857143 -70.794342 
L 95.904762 -64.654989 
L 92.952381 -68.812734 
L 90 -60.049813 
z
" id="m48382b53e5" style="stroke:#fdcbb6;stroke-opacity:0.8;"/>
    </defs>
    <g clip-path="url(#pdb96c3a120)">
     <use style="fill:#fdcbb6;fill-opacity:0.8;stroke:#fdcbb6;stroke-opacity:0.8;" x="0" xlink:href="#m48382b53e5" y="360"/>
    </g>
   </g>
   <g id="matplotlib.axis_1">
    <g id="xtick_1">
     <g id="line2d_1">
      <defs>
       <path d="M 0 0 
L 0 3.5 
" id="ma08c6800b7" style="stroke:#000000;stroke-width:0.8;"/>
      </defs>
      <g>
       <use style="stroke:#000000;stroke-width:0.8;" x="90" xlink:href="#ma08c6800b7" y="315"/>
      </g>
     </g>
    </g>
    <g id="xtick_2">
     <g id="line2d_2">
      <g>
       <use style="stroke:#000000;stroke-width:0.8;" x="125.428571" xlink:href="#ma08c6800b7" y="315"/>
      </g>
     </g>
     <g id="text_1">
      <!-- Jul -->
      <g transform="translate(119.395759 329.598437)scale(0.1 -0.1)">
       <defs>
        <path d="M 9.8125 72.90625 
L 19.671875 72.90625 
L 19.671875 5.078125 
Q 19.671875 -8.109375 14.671875 -14.0625 
Q 9.671875 -20.015625 -1.421875 -20.015625 
L -5.171875 -20.015625 
L -5.171875 -11.71875 
L -2.09375 -11.71875 
Q 4.4375 -11.71875 7.125 -8.046875 
Q 9.8125 -4.390625 9.8125 5.078125 
z
" id="DejaVuSans-74"/>
        <path d="M 8.5 21.578125 
L 8.5 54.6875 
L 17.484375 54.6875 
L 17.484375 21.921875 
Q 17.484375 14.15625 20.5 10.265625 
Q 23.53125 6.390625 29.59375 6.390625 
Q 36.859375 6.390625 41.078125 11.03125 
Q 45.3125 15.671875 45.3125 23.6875 
L 45.3125 54.6875 
L 54.296875 54.6875 
L 54.296875 0 
L 45.3125 0 
L 45.3125 8.40625 
Q 42.046875 3.421875 37.71875 1 
Q 33.40625 -1.421875 27.6875 -1.421875 
Q 18.265625 -1.421875 13.375 4.4375 
Q 8.5 10.296875 8.5 21.578125 
z
M 31.109375 56 
z
" id="DejaVuSans-117"/>
        <path d="M 9.421875 75.984375 
L 18.40625 75.984375 
L 18.40625 0 
L 9.421875 0 
z
" id="DejaVuSans-108"/>
       </defs>
       <use xlink:href="#DejaVuSans-74"/>
       <use x="29.492188" xlink:href="#DejaVuSans-117"/>
       <use x="92.871094" xlink:href="#DejaVuSans-108"/>
      </g>
      <!-- 2020 -->
      <g transform="translate(112.703571 340.79625)scale(0.1 -0.1)">
       <defs>
        <path d="M 19.1875 8.296875 
L 53.609375 8.296875 
L 53.609375 0 
L 7.328125 0 
L 7.328125 8.296875 
Q 12.9375 14.109375 22.625 23.890625 
Q 32.328125 33.6875 34.8125 36.53125 
Q 39.546875 41.84375 41.421875 45.53125 
Q 43.3125 49.21875 43.3125 52.78125 
Q 43.3125 58.59375 39.234375 62.25 
Q 35.15625 65.921875 28.609375 65.921875 
Q 23.96875 65.921875 18.8125 64.3125 
Q 13.671875 62.703125 7.8125 59.421875 
L 7.8125 69.390625 
Q 13.765625 71.78125 18.9375 73 
Q 24.125 74.21875 28.421875 74.21875 
Q 39.75 74.21875 46.484375 68.546875 
Q 53.21875 62.890625 53.21875 53.421875 
Q 53.21875 48.921875 51.53125 44.890625 
Q 49.859375 40.875 45.40625 35.40625 
Q 44.1875 33.984375 37.640625 27.21875 
Q 31.109375 20.453125 19.1875 8.296875 
z
" id="DejaVuSans-50"/>
        <path d="M 31.78125 66.40625 
Q 24.171875 66.40625 20.328125 58.90625 
Q 16.5 51.421875 16.5 36.375 
Q 16.5 21.390625 20.328125 13.890625 
Q 24.171875 6.390625 31.78125 6.390625 
Q 39.453125 6.390625 43.28125 13.890625 
Q 47.125 21.390625 47.125 36.375 
Q 47.125 51.421875 43.28125 58.90625 
Q 39.453125 66.40625 31.78125 66.40625 
z
M 31.78125 74.21875 
Q 44.046875 74.21875 50.515625 64.515625 
Q 56.984375 54.828125 56.984375 36.375 
Q 56.984375 17.96875 50.515625 8.265625 
Q 44.046875 -1.421875 31.78125 -1.421875 
Q 19.53125 -1.421875 13.0625 8.265625 
Q 6.59375 17.96875 6.59375 36.375 
Q 6.59375 54.828125 13.0625 64.515625 
Q 19.53125 74.21875 31.78125 74.21875 
z
" id="DejaVuSans-48"/>
       </defs>
       <use xlink:href="#DejaVuSans-50"/>
       <use x="63.623047" xlink:href="#DejaVuSans-48"/>
       <use x="127.246094" xlink:href="#DejaVuSans-50"/>
       <use x="190.869141" xlink:href="#DejaVuSans-48"/>
      </g>
     </g>
    </g>
    <g id="xtick_3">
     <g id="line2d_3">
      <g>
       <use style="stroke:#000000;stroke-width:0.8;" x="216.952381" xlink:href="#ma08c6800b7" y="315"/>
      </g>
     </g>
     <g id="text_2">
      <!-- Aug -->
      <g transform="translate(207.1891 329.598437)scale(0.1 -0.1)">
       <defs>
        <path d="M 34.1875 63.1875 
L 20.796875 26.90625 
L 47.609375 26.90625 
z
M 28.609375 72.90625 
L 39.796875 72.90625 
L 67.578125 0 
L 57.328125 0 
L 50.6875 18.703125 
L 17.828125 18.703125 
L 11.1875 0 
L 0.78125 0 
z
" id="DejaVuSans-65"/>
        <path d="M 45.40625 27.984375 
Q 45.40625 37.75 41.375 43.109375 
Q 37.359375 48.484375 30.078125 48.484375 
Q 22.859375 48.484375 18.828125 43.109375 
Q 14.796875 37.75 14.796875 27.984375 
Q 14.796875 18.265625 18.828125 12.890625 
Q 22.859375 7.515625 30.078125 7.515625 
Q 37.359375 7.515625 41.375 12.890625 
Q 45.40625 18.265625 45.40625 27.984375 
z
M 54.390625 6.78125 
Q 54.390625 -7.171875 48.1875 -13.984375 
Q 42 -20.796875 29.203125 -20.796875 
Q 24.46875 -20.796875 20.265625 -20.09375 
Q 16.0625 -19.390625 12.109375 -17.921875 
L 12.109375 -9.1875 
Q 16.0625 -11.328125 19.921875 -12.34375 
Q 23.78125 -13.375 27.78125 -13.375 
Q 36.625 -13.375 41.015625 -8.765625 
Q 45.40625 -4.15625 45.40625 5.171875 
L 45.40625 9.625 
Q 42.625 4.78125 38.28125 2.390625 
Q 33.9375 0 27.875 0 
Q 17.828125 0 11.671875 7.65625 
Q 5.515625 15.328125 5.515625 27.984375 
Q 5.515625 40.671875 11.671875 48.328125 
Q 17.828125 56 27.875 56 
Q 33.9375 56 38.28125 53.609375 
Q 42.625 51.21875 45.40625 46.390625 
L 45.40625 54.6875 
L 54.390625 54.6875 
z
" id="DejaVuSans-103"/>
       </defs>
       <use xlink:href="#DejaVuSans-65"/>
       <use x="68.408203" xlink:href="#DejaVuSans-117"/>
       <use x="131.787109" xlink:href="#DejaVuSans-103"/>
      </g>
     </g>
    </g>
    <g id="xtick_4">
     <g id="line2d_4">
      <g>
       <use style="stroke:#000000;stroke-width:0.8;" x="308.47619" xlink:href="#ma08c6800b7" y="315"/>
      </g>
     </g>
     <g id="text_3">
      <!-- Sep -->
      <g transform="translate(299.05119 329.598437)scale(0.1 -0.1)">
       <defs>
        <path d="M 53.515625 70.515625 
L 53.515625 60.890625 
Q 47.90625 63.578125 42.921875 64.890625 
Q 37.9375 66.21875 33.296875 66.21875 
Q 25.25 66.21875 20.875 63.09375 
Q 16.5 59.96875 16.5 54.203125 
Q 16.5 49.359375 19.40625 46.890625 
Q 22.3125 44.4375 30.421875 42.921875 
L 36.375 41.703125 
Q 47.40625 39.59375 52.65625 34.296875 
Q 57.90625 29 57.90625 20.125 
Q 57.90625 9.515625 50.796875 4.046875 
Q 43.703125 -1.421875 29.984375 -1.421875 
Q 24.8125 -1.421875 18.96875 -0.25 
Q 13.140625 0.921875 6.890625 3.21875 
L 6.890625 13.375 
Q 12.890625 10.015625 18.65625 8.296875 
Q 24.421875 6.59375 29.984375 6.59375 
Q 38.421875 6.59375 43.015625 9.90625 
Q 47.609375 13.234375 47.609375 19.390625 
Q 47.609375 24.75 44.3125 27.78125 
Q 41.015625 30.8125 33.5 32.328125 
L 27.484375 33.5 
Q 16.453125 35.6875 11.515625 40.375 
Q 6.59375 45.0625 6.59375 53.421875 
Q 6.59375 63.09375 13.40625 68.65625 
Q 20.21875 74.21875 32.171875 74.21875 
Q 37.3125 74.21875 42.625 73.28125 
Q 47.953125 72.359375 53.515625 70.515625 
z
" id="DejaVuSans-83"/>
        <path d="M 56.203125 29.59375 
L 56.203125 25.203125 
L 14.890625 25.203125 
Q 15.484375 15.921875 20.484375 11.0625 
Q 25.484375 6.203125 34.421875 6.203125 
Q 39.59375 6.203125 44.453125 7.46875 
Q 49.3125 8.734375 54.109375 11.28125 
L 54.109375 2.78125 
Q 49.265625 0.734375 44.1875 -0.34375 
Q 39.109375 -1.421875 33.890625 -1.421875 
Q 20.796875 -1.421875 13.15625 6.1875 
Q 5.515625 13.8125 5.515625 26.8125 
Q 5.515625 40.234375 12.765625 48.109375 
Q 20.015625 56 32.328125 56 
Q 43.359375 56 49.78125 48.890625 
Q 56.203125 41.796875 56.203125 29.59375 
z
M 47.21875 32.234375 
Q 47.125 39.59375 43.09375 43.984375 
Q 39.0625 48.390625 32.421875 48.390625 
Q 24.90625 48.390625 20.390625 44.140625 
Q 15.875 39.890625 15.1875 32.171875 
z
" id="DejaVuSans-101"/>
        <path d="M 18.109375 8.203125 
L 18.109375 -20.796875 
L 9.078125 -20.796875 
L 9.078125 54.6875 
L 18.109375 54.6875 
L 18.109375 46.390625 
Q 20.953125 51.265625 25.265625 53.625 
Q 29.59375 56 35.59375 56 
Q 45.5625 56 51.78125 48.09375 
Q 58.015625 40.1875 58.015625 27.296875 
Q 58.015625 14.40625 51.78125 6.484375 
Q 45.5625 -1.421875 35.59375 -1.421875 
Q 29.59375 -1.421875 25.265625 0.953125 
Q 20.953125 3.328125 18.109375 8.203125 
z
M 48.6875 27.296875 
Q 48.6875 37.203125 44.609375 42.84375 
Q 40.53125 48.484375 33.40625 48.484375 
Q 26.265625 48.484375 22.1875 42.84375 
Q 18.109375 37.203125 18.109375 27.296875 
Q 18.109375 17.390625 22.1875 11.75 
Q 26.265625 6.109375 33.40625 6.109375 
Q 40.53125 6.109375 44.609375 11.75 
Q 48.6875 17.390625 48.6875 27.296875 
z
" id="DejaVuSans-112"/>
       </defs>
       <use xlink:href="#DejaVuSans-83"/>
       <use x="63.476562" xlink:href="#DejaVuSans-101"/>
       <use x="125" xlink:href="#DejaVuSans-112"/>
      </g>
     </g>
    </g>
    <g id="xtick_5">
     <g id="line2d_5">
      <g>
       <use style="stroke:#000000;stroke-width:0.8;" x="397.047619" xlink:href="#ma08c6800b7" y="315"/>
      </g>
     </g>
     <g id="text_4">
      <!-- Oct -->
      <g transform="translate(388.402307 329.598437)scale(0.1 -0.1)">
       <defs>
        <path d="M 39.40625 66.21875 
Q 28.65625 66.21875 22.328125 58.203125 
Q 16.015625 50.203125 16.015625 36.375 
Q 16.015625 22.609375 22.328125 14.59375 
Q 28.65625 6.59375 39.40625 6.59375 
Q 50.140625 6.59375 56.421875 14.59375 
Q 62.703125 22.609375 62.703125 36.375 
Q 62.703125 50.203125 56.421875 58.203125 
Q 50.140625 66.21875 39.40625 66.21875 
z
M 39.40625 74.21875 
Q 54.734375 74.21875 63.90625 63.9375 
Q 73.09375 53.65625 73.09375 36.375 
Q 73.09375 19.140625 63.90625 8.859375 
Q 54.734375 -1.421875 39.40625 -1.421875 
Q 24.03125 -1.421875 14.8125 8.828125 
Q 5.609375 19.09375 5.609375 36.375 
Q 5.609375 53.65625 14.8125 63.9375 
Q 24.03125 74.21875 39.40625 74.21875 
z
" id="DejaVuSans-79"/>
        <path d="M 48.78125 52.59375 
L 48.78125 44.1875 
Q 44.96875 46.296875 41.140625 47.34375 
Q 37.3125 48.390625 33.40625 48.390625 
Q 24.65625 48.390625 19.8125 42.84375 
Q 14.984375 37.3125 14.984375 27.296875 
Q 14.984375 17.28125 19.8125 11.734375 
Q 24.65625 6.203125 33.40625 6.203125 
Q 37.3125 6.203125 41.140625 7.25 
Q 44.96875 8.296875 48.78125 10.40625 
L 48.78125 2.09375 
Q 45.015625 0.34375 40.984375 -0.53125 
Q 36.96875 -1.421875 32.421875 -1.421875 
Q 20.0625 -1.421875 12.78125 6.34375 
Q 5.515625 14.109375 5.515625 27.296875 
Q 5.515625 40.671875 12.859375 48.328125 
Q 20.21875 56 33.015625 56 
Q 37.15625 56 41.109375 55.140625 
Q 45.0625 54.296875 48.78125 52.59375 
z
" id="DejaVuSans-99"/>
        <path d="M 18.3125 70.21875 
L 18.3125 54.6875 
L 36.8125 54.6875 
L 36.8125 47.703125 
L 18.3125 47.703125 
L 18.3125 18.015625 
Q 18.3125 11.328125 20.140625 9.421875 
Q 21.96875 7.515625 27.59375 7.515625 
L 36.8125 7.515625 
L 36.8125 0 
L 27.59375 0 
Q 17.1875 0 13.234375 3.875 
Q 9.28125 7.765625 9.28125 18.015625 
L 9.28125 47.703125 
L 2.6875 47.703125 
L 2.6875 54.6875 
L 9.28125 54.6875 
L 9.28125 70.21875 
z
" id="DejaVuSans-116"/>
       </defs>
       <use xlink:href="#DejaVuSans-79"/>
       <use x="78.710938" xlink:href="#DejaVuSans-99"/>
       <use x="133.691406" xlink:href="#DejaVuSans-116"/>
      </g>
     </g>
    </g>
    <g id="xtick_6">
     <g id="line2d_6">
      <g>
       <use style="stroke:#000000;stroke-width:0.8;" x="488.571429" xlink:href="#ma08c6800b7" y="315"/>
      </g>
     </g>
     <g id="text_5">
      <!-- Nov -->
      <g transform="translate(478.812054 329.598437)scale(0.1 -0.1)">
       <defs>
        <path d="M 9.8125 72.90625 
L 23.09375 72.90625 
L 55.421875 11.921875 
L 55.421875 72.90625 
L 64.984375 72.90625 
L 64.984375 0 
L 51.703125 0 
L 19.390625 60.984375 
L 19.390625 0 
L 9.8125 0 
z
" id="DejaVuSans-78"/>
        <path d="M 30.609375 48.390625 
Q 23.390625 48.390625 19.1875 42.75 
Q 14.984375 37.109375 14.984375 27.296875 
Q 14.984375 17.484375 19.15625 11.84375 
Q 23.34375 6.203125 30.609375 6.203125 
Q 37.796875 6.203125 41.984375 11.859375 
Q 46.1875 17.53125 46.1875 27.296875 
Q 46.1875 37.015625 41.984375 42.703125 
Q 37.796875 48.390625 30.609375 48.390625 
z
M 30.609375 56 
Q 42.328125 56 49.015625 48.375 
Q 55.71875 40.765625 55.71875 27.296875 
Q 55.71875 13.875 49.015625 6.21875 
Q 42.328125 -1.421875 30.609375 -1.421875 
Q 18.84375 -1.421875 12.171875 6.21875 
Q 5.515625 13.875 5.515625 27.296875 
Q 5.515625 40.765625 12.171875 48.375 
Q 18.84375 56 30.609375 56 
z
" id="DejaVuSans-111"/>
        <path d="M 2.984375 54.6875 
L 12.5 54.6875 
L 29.59375 8.796875 
L 46.6875 54.6875 
L 56.203125 54.6875 
L 35.6875 0 
L 23.484375 0 
z
" id="DejaVuSans-118"/>
       </defs>
       <use xlink:href="#DejaVuSans-78"/>
       <use x="74.804688" xlink:href="#DejaVuSans-111"/>
       <use x="135.986328" xlink:href="#DejaVuSans-118"/>
      </g>
     </g>
    </g>
    <g id="xtick_7">
     <g id="line2d_7">
      <g>
       <use style="stroke:#000000;stroke-width:0.8;" x="577.142857" xlink:href="#ma08c6800b7" y="315"/>
      </g>
     </g>
     <g id="text_6">
      <!-- Dec -->
      <g transform="translate(567.467076 329.598437)scale(0.1 -0.1)">
       <defs>
        <path d="M 19.671875 64.796875 
L 19.671875 8.109375 
L 31.59375 8.109375 
Q 46.6875 8.109375 53.6875 14.9375 
Q 60.6875 21.78125 60.6875 36.53125 
Q 60.6875 51.171875 53.6875 57.984375 
Q 46.6875 64.796875 31.59375 64.796875 
z
M 9.8125 72.90625 
L 30.078125 72.90625 
Q 51.265625 72.90625 61.171875 64.09375 
Q 71.09375 55.28125 71.09375 36.53125 
Q 71.09375 17.671875 61.125 8.828125 
Q 51.171875 0 30.078125 0 
L 9.8125 0 
z
" id="DejaVuSans-68"/>
       </defs>
       <use xlink:href="#DejaVuSans-68"/>
       <use x="77.001953" xlink:href="#DejaVuSans-101"/>
       <use x="138.525391" xlink:href="#DejaVuSans-99"/>
      </g>
     </g>
    </g>
    <g id="xtick_8">
     <g id="line2d_8">
      <g>
       <use style="stroke:#000000;stroke-width:0.8;" x="648" xlink:href="#ma08c6800b7" y="315"/>
      </g>
     </g>
    </g>
    <g id="xtick_9">
     <g id="line2d_9">
      <defs>
       <path d="M 0 0 
L 0 2 
" id="mb86d1ef878" style="stroke:#000000;stroke-width:0.6;"/>
      </defs>
      <g>
       <use style="stroke:#000000;stroke-width:0.6;" x="98.857143" xlink:href="#mb86d1ef878" y="315"/>
      </g>
     </g>
    </g>
    <g id="xtick_10">
     <g id="line2d_10">
      <g>
       <use style="stroke:#000000;stroke-width:0.6;" x="119.52381" xlink:href="#mb86d1ef878" y="315"/>
      </g>
     </g>
    </g>
    <g id="xtick_11">
     <g id="line2d_11">
      <g>
       <use style="stroke:#000000;stroke-width:0.6;" x="140.190476" xlink:href="#mb86d1ef878" y="315"/>
      </g>
     </g>
    </g>
    <g id="xtick_12">
     <g id="line2d_12">
      <g>
       <use style="stroke:#000000;stroke-width:0.6;" x="160.857143" xlink:href="#mb86d1ef878" y="315"/>
      </g>
     </g>
    </g>
    <g id="xtick_13">
     <g id="line2d_13">
      <g>
       <use style="stroke:#000000;stroke-width:0.6;" x="181.52381" xlink:href="#mb86d1ef878" y="315"/>
      </g>
     </g>
    </g>
    <g id="xtick_14">
     <g id="line2d_14">
      <g>
       <use style="stroke:#000000;stroke-width:0.6;" x="202.190476" xlink:href="#mb86d1ef878" y="315"/>
      </g>
     </g>
    </g>
    <g id="xtick_15">
     <g id="line2d_15">
      <g>
       <use style="stroke:#000000;stroke-width:0.6;" x="222.857143" xlink:href="#mb86d1ef878" y="315"/>
      </g>
     </g>
    </g>
    <g id="xtick_16">
     <g id="line2d_16">
      <g>
       <use style="stroke:#000000;stroke-width:0.6;" x="243.52381" xlink:href="#mb86d1ef878" y="315"/>
      </g>
     </g>
    </g>
    <g id="xtick_17">
     <g id="line2d_17">
      <g>
       <use style="stroke:#000000;stroke-width:0.6;" x="264.190476" xlink:href="#mb86d1ef878" y="315"/>
      </g>
     </g>
    </g>
    <g id="xtick_18">
     <g id="line2d_18">
      <g>
       <use style="stroke:#000000;stroke-width:0.6;" x="284.857143" xlink:href="#mb86d1ef878" y="315"/>
      </g>
     </g>
    </g>
    <g id="xtick_19">
     <g id="line2d_19">
      <g>
       <use style="stroke:#000000;stroke-width:0.6;" x="305.52381" xlink:href="#mb86d1ef878" y="315"/>
      </g>
     </g>
    </g>
    <g id="xtick_20">
     <g id="line2d_20">
      <g>
       <use style="stroke:#000000;stroke-width:0.6;" x="326.190476" xlink:href="#mb86d1ef878" y="315"/>
      </g>
     </g>
    </g>
    <g id="xtick_21">
     <g id="line2d_21">
      <g>
       <use style="stroke:#000000;stroke-width:0.6;" x="346.857143" xlink:href="#mb86d1ef878" y="315"/>
      </g>
     </g>
    </g>
    <g id="xtick_22">
     <g id="line2d_22">
      <g>
       <use style="stroke:#000000;stroke-width:0.6;" x="367.52381" xlink:href="#mb86d1ef878" y="315"/>
      </g>
     </g>
    </g>
    <g id="xtick_23">
     <g id="line2d_23">
      <g>
       <use style="stroke:#000000;stroke-width:0.6;" x="388.190476" xlink:href="#mb86d1ef878" y="315"/>
      </g>
     </g>
    </g>
    <g id="xtick_24">
     <g id="line2d_24">
      <g>
       <use style="stroke:#000000;stroke-width:0.6;" x="408.857143" xlink:href="#mb86d1ef878" y="315"/>
      </g>
     </g>
    </g>
    <g id="xtick_25">
     <g id="line2d_25">
      <g>
       <use style="stroke:#000000;stroke-width:0.6;" x="429.52381" xlink:href="#mb86d1ef878" y="315"/>
      </g>
     </g>
    </g>
    <g id="xtick_26">
     <g id="line2d_26">
      <g>
       <use style="stroke:#000000;stroke-width:0.6;" x="450.190476" xlink:href="#mb86d1ef878" y="315"/>
      </g>
     </g>
    </g>
    <g id="xtick_27">
     <g id="line2d_27">
      <g>
       <use style="stroke:#000000;stroke-width:0.6;" x="470.857143" xlink:href="#mb86d1ef878" y="315"/>
      </g>
     </g>
    </g>
    <g id="xtick_28">
     <g id="line2d_28">
      <g>
       <use style="stroke:#000000;stroke-width:0.6;" x="491.52381" xlink:href="#mb86d1ef878" y="315"/>
      </g>
     </g>
    </g>
    <g id="xtick_29">
     <g id="line2d_29">
      <g>
       <use style="stroke:#000000;stroke-width:0.6;" x="512.190476" xlink:href="#mb86d1ef878" y="315"/>
      </g>
     </g>
    </g>
    <g id="xtick_30">
     <g id="line2d_30">
      <g>
       <use style="stroke:#000000;stroke-width:0.6;" x="532.857143" xlink:href="#mb86d1ef878" y="315"/>
      </g>
     </g>
    </g>
    <g id="xtick_31">
     <g id="line2d_31">
      <g>
       <use style="stroke:#000000;stroke-width:0.6;" x="553.52381" xlink:href="#mb86d1ef878" y="315"/>
      </g>
     </g>
    </g>
    <g id="xtick_32">
     <g id="line2d_32">
      <g>
       <use style="stroke:#000000;stroke-width:0.6;" x="574.190476" xlink:href="#mb86d1ef878" y="315"/>
      </g>
     </g>
    </g>
    <g id="xtick_33">
     <g id="line2d_33">
      <g>
       <use style="stroke:#000000;stroke-width:0.6;" x="594.857143" xlink:href="#mb86d1ef878" y="315"/>
      </g>
     </g>
    </g>
    <g id="xtick_34">
     <g id="line2d_34">
      <g>
       <use style="stroke:#000000;stroke-width:0.6;" x="615.52381" xlink:href="#mb86d1ef878" y="315"/>
      </g>
     </g>
    </g>
    <g id="xtick_35">
     <g id="line2d_35">
      <g>
       <use style="stroke:#000000;stroke-width:0.6;" x="636.190476" xlink:href="#mb86d1ef878" y="315"/>
      </g>
     </g>
    </g>
    <g id="text_7">
     <!-- date -->
     <g transform="translate(357.725 354.474375)scale(0.1 -0.1)">
      <defs>
       <path d="M 45.40625 46.390625 
L 45.40625 75.984375 
L 54.390625 75.984375 
L 54.390625 0 
L 45.40625 0 
L 45.40625 8.203125 
Q 42.578125 3.328125 38.25 0.953125 
Q 33.9375 -1.421875 27.875 -1.421875 
Q 17.96875 -1.421875 11.734375 6.484375 
Q 5.515625 14.40625 5.515625 27.296875 
Q 5.515625 40.1875 11.734375 48.09375 
Q 17.96875 56 27.875 56 
Q 33.9375 56 38.25 53.625 
Q 42.578125 51.265625 45.40625 46.390625 
z
M 14.796875 27.296875 
Q 14.796875 17.390625 18.875 11.75 
Q 22.953125 6.109375 30.078125 6.109375 
Q 37.203125 6.109375 41.296875 11.75 
Q 45.40625 17.390625 45.40625 27.296875 
Q 45.40625 37.203125 41.296875 42.84375 
Q 37.203125 48.484375 30.078125 48.484375 
Q 22.953125 48.484375 18.875 42.84375 
Q 14.796875 37.203125 14.796875 27.296875 
z
" id="DejaVuSans-100"/>
       <path d="M 34.28125 27.484375 
Q 23.390625 27.484375 19.1875 25 
Q 14.984375 22.515625 14.984375 16.5 
Q 14.984375 11.71875 18.140625 8.90625 
Q 21.296875 6.109375 26.703125 6.109375 
Q 34.1875 6.109375 38.703125 11.40625 
Q 43.21875 16.703125 43.21875 25.484375 
L 43.21875 27.484375 
z
M 52.203125 31.203125 
L 52.203125 0 
L 43.21875 0 
L 43.21875 8.296875 
Q 40.140625 3.328125 35.546875 0.953125 
Q 30.953125 -1.421875 24.3125 -1.421875 
Q 15.921875 -1.421875 10.953125 3.296875 
Q 6 8.015625 6 15.921875 
Q 6 25.140625 12.171875 29.828125 
Q 18.359375 34.515625 30.609375 34.515625 
L 43.21875 34.515625 
L 43.21875 35.40625 
Q 43.21875 41.609375 39.140625 45 
Q 35.0625 48.390625 27.6875 48.390625 
Q 23 48.390625 18.546875 47.265625 
Q 14.109375 46.140625 10.015625 43.890625 
L 10.015625 52.203125 
Q 14.9375 54.109375 19.578125 55.046875 
Q 24.21875 56 28.609375 56 
Q 40.484375 56 46.34375 49.84375 
Q 52.203125 43.703125 52.203125 31.203125 
z
" id="DejaVuSans-97"/>
      </defs>
      <use xlink:href="#DejaVuSans-100"/>
      <use x="63.476562" xlink:href="#DejaVuSans-97"/>
      <use x="124.755859" xlink:href="#DejaVuSans-116"/>
      <use x="163.964844" xlink:href="#DejaVuSans-101"/>
     </g>
    </g>
   </g>
   <g id="matplotlib.axis_2">
    <g id="ytick_1">
     <g id="line2d_36">
      <path clip-path="url(#pdb96c3a120)" d="M 90 270.259087 
L 648 270.259087 
" style="fill:none;stroke:#b0b0b0;stroke-dasharray:0.8,1.32;stroke-dashoffset:0;stroke-width:0.8;"/>
     </g>
     <g id="line2d_37">
      <defs>
       <path d="M 0 0 
L -3.5 0 
" id="m0c81351bbe" style="stroke:#000000;stroke-width:0.8;"/>
      </defs>
      <g>
       <use style="stroke:#000000;stroke-width:0.8;" x="90" xlink:href="#m0c81351bbe" y="270.259087"/>
      </g>
     </g>
     <g id="text_8">
      <!-- 0.8 -->
      <g transform="translate(67.096875 274.058306)scale(0.1 -0.1)">
       <defs>
        <path d="M 10.6875 12.40625 
L 21 12.40625 
L 21 0 
L 10.6875 0 
z
" id="DejaVuSans-46"/>
        <path d="M 31.78125 34.625 
Q 24.75 34.625 20.71875 30.859375 
Q 16.703125 27.09375 16.703125 20.515625 
Q 16.703125 13.921875 20.71875 10.15625 
Q 24.75 6.390625 31.78125 6.390625 
Q 38.8125 6.390625 42.859375 10.171875 
Q 46.921875 13.96875 46.921875 20.515625 
Q 46.921875 27.09375 42.890625 30.859375 
Q 38.875 34.625 31.78125 34.625 
z
M 21.921875 38.8125 
Q 15.578125 40.375 12.03125 44.71875 
Q 8.5 49.078125 8.5 55.328125 
Q 8.5 64.0625 14.71875 69.140625 
Q 20.953125 74.21875 31.78125 74.21875 
Q 42.671875 74.21875 48.875 69.140625 
Q 55.078125 64.0625 55.078125 55.328125 
Q 55.078125 49.078125 51.53125 44.71875 
Q 48 40.375 41.703125 38.8125 
Q 48.828125 37.15625 52.796875 32.3125 
Q 56.78125 27.484375 56.78125 20.515625 
Q 56.78125 9.90625 50.3125 4.234375 
Q 43.84375 -1.421875 31.78125 -1.421875 
Q 19.734375 -1.421875 13.25 4.234375 
Q 6.78125 9.90625 6.78125 20.515625 
Q 6.78125 27.484375 10.78125 32.3125 
Q 14.796875 37.15625 21.921875 38.8125 
z
M 18.3125 54.390625 
Q 18.3125 48.734375 21.84375 45.5625 
Q 25.390625 42.390625 31.78125 42.390625 
Q 38.140625 42.390625 41.71875 45.5625 
Q 45.3125 48.734375 45.3125 54.390625 
Q 45.3125 60.0625 41.71875 63.234375 
Q 38.140625 66.40625 31.78125 66.40625 
Q 25.390625 66.40625 21.84375 63.234375 
Q 18.3125 60.0625 18.3125 54.390625 
z
" id="DejaVuSans-56"/>
       </defs>
       <use xlink:href="#DejaVuSans-48"/>
       <use x="63.623047" xlink:href="#DejaVuSans-46"/>
       <use x="95.410156" xlink:href="#DejaVuSans-56"/>
      </g>
     </g>
    </g>
    <g id="ytick_2">
     <g id="line2d_38">
      <path clip-path="url(#pdb96c3a120)" d="M 90 222.324257 
L 648 222.324257 
" style="fill:none;stroke:#b0b0b0;stroke-dasharray:0.8,1.32;stroke-dashoffset:0;stroke-width:0.8;"/>
     </g>
     <g id="line2d_39">
      <g>
       <use style="stroke:#000000;stroke-width:0.8;" x="90" xlink:href="#m0c81351bbe" y="222.324257"/>
      </g>
     </g>
     <g id="text_9">
      <!-- 1.0 -->
      <g transform="translate(67.096875 226.123476)scale(0.1 -0.1)">
       <defs>
        <path d="M 12.40625 8.296875 
L 28.515625 8.296875 
L 28.515625 63.921875 
L 10.984375 60.40625 
L 10.984375 69.390625 
L 28.421875 72.90625 
L 38.28125 72.90625 
L 38.28125 8.296875 
L 54.390625 8.296875 
L 54.390625 0 
L 12.40625 0 
z
" id="DejaVuSans-49"/>
       </defs>
       <use xlink:href="#DejaVuSans-49"/>
       <use x="63.623047" xlink:href="#DejaVuSans-46"/>
       <use x="95.410156" xlink:href="#DejaVuSans-48"/>
      </g>
     </g>
    </g>
    <g id="ytick_3">
     <g id="line2d_40">
      <path clip-path="url(#pdb96c3a120)" d="M 90 174.389427 
L 648 174.389427 
" style="fill:none;stroke:#b0b0b0;stroke-dasharray:0.8,1.32;stroke-dashoffset:0;stroke-width:0.8;"/>
     </g>
     <g id="line2d_41">
      <g>
       <use style="stroke:#000000;stroke-width:0.8;" x="90" xlink:href="#m0c81351bbe" y="174.389427"/>
      </g>
     </g>
     <g id="text_10">
      <!-- 1.2 -->
      <g transform="translate(67.096875 178.188646)scale(0.1 -0.1)">
       <use xlink:href="#DejaVuSans-49"/>
       <use x="63.623047" xlink:href="#DejaVuSans-46"/>
       <use x="95.410156" xlink:href="#DejaVuSans-50"/>
      </g>
     </g>
    </g>
    <g id="ytick_4">
     <g id="line2d_42">
      <path clip-path="url(#pdb96c3a120)" d="M 90 126.454597 
L 648 126.454597 
" style="fill:none;stroke:#b0b0b0;stroke-dasharray:0.8,1.32;stroke-dashoffset:0;stroke-width:0.8;"/>
     </g>
     <g id="line2d_43">
      <g>
       <use style="stroke:#000000;stroke-width:0.8;" x="90" xlink:href="#m0c81351bbe" y="126.454597"/>
      </g>
     </g>
     <g id="text_11">
      <!-- 1.4 -->
      <g transform="translate(67.096875 130.253815)scale(0.1 -0.1)">
       <defs>
        <path d="M 37.796875 64.3125 
L 12.890625 25.390625 
L 37.796875 25.390625 
z
M 35.203125 72.90625 
L 47.609375 72.90625 
L 47.609375 25.390625 
L 58.015625 25.390625 
L 58.015625 17.1875 
L 47.609375 17.1875 
L 47.609375 0 
L 37.796875 0 
L 37.796875 17.1875 
L 4.890625 17.1875 
L 4.890625 26.703125 
z
" id="DejaVuSans-52"/>
       </defs>
       <use xlink:href="#DejaVuSans-49"/>
       <use x="63.623047" xlink:href="#DejaVuSans-46"/>
       <use x="95.410156" xlink:href="#DejaVuSans-52"/>
      </g>
     </g>
    </g>
    <g id="ytick_5">
     <g id="line2d_44">
      <path clip-path="url(#pdb96c3a120)" d="M 90 78.519766 
L 648 78.519766 
" style="fill:none;stroke:#b0b0b0;stroke-dasharray:0.8,1.32;stroke-dashoffset:0;stroke-width:0.8;"/>
     </g>
     <g id="line2d_45">
      <g>
       <use style="stroke:#000000;stroke-width:0.8;" x="90" xlink:href="#m0c81351bbe" y="78.519766"/>
      </g>
     </g>
     <g id="text_12">
      <!-- 1.6 -->
      <g transform="translate(67.096875 82.318985)scale(0.1 -0.1)">
       <defs>
        <path d="M 33.015625 40.375 
Q 26.375 40.375 22.484375 35.828125 
Q 18.609375 31.296875 18.609375 23.390625 
Q 18.609375 15.53125 22.484375 10.953125 
Q 26.375 6.390625 33.015625 6.390625 
Q 39.65625 6.390625 43.53125 10.953125 
Q 47.40625 15.53125 47.40625 23.390625 
Q 47.40625 31.296875 43.53125 35.828125 
Q 39.65625 40.375 33.015625 40.375 
z
M 52.59375 71.296875 
L 52.59375 62.3125 
Q 48.875 64.0625 45.09375 64.984375 
Q 41.3125 65.921875 37.59375 65.921875 
Q 27.828125 65.921875 22.671875 59.328125 
Q 17.53125 52.734375 16.796875 39.40625 
Q 19.671875 43.65625 24.015625 45.921875 
Q 28.375 48.1875 33.59375 48.1875 
Q 44.578125 48.1875 50.953125 41.515625 
Q 57.328125 34.859375 57.328125 23.390625 
Q 57.328125 12.15625 50.6875 5.359375 
Q 44.046875 -1.421875 33.015625 -1.421875 
Q 20.359375 -1.421875 13.671875 8.265625 
Q 6.984375 17.96875 6.984375 36.375 
Q 6.984375 53.65625 15.1875 63.9375 
Q 23.390625 74.21875 37.203125 74.21875 
Q 40.921875 74.21875 44.703125 73.484375 
Q 48.484375 72.75 52.59375 71.296875 
z
" id="DejaVuSans-54"/>
       </defs>
       <use xlink:href="#DejaVuSans-49"/>
       <use x="63.623047" xlink:href="#DejaVuSans-46"/>
       <use x="95.410156" xlink:href="#DejaVuSans-54"/>
      </g>
     </g>
    </g>
   </g>
   <g id="line2d_46">
    <path clip-path="url(#pdb96c3a120)" d="M 90 226.001893 
L 92.952381 226.155251 
L 98.857143 226.008608 
L 101.809524 231.871784 
L 104.761905 230.078546 
L 107.714286 233.974808 
L 110.666667 235.509607 
L 113.619048 235.019394 
L 116.571429 238.363652 
L 119.52381 242.425111 
L 122.47619 245.322029 
L 125.428571 247.309902 
L 128.380952 250.766711 
L 131.333333 253.954085 
L 134.285714 256.596064 
L 140.190476 259.497456 
L 143.142857 260.32605 
L 146.095238 262.393682 
L 149.047619 262.105437 
L 152 260.728986 
L 154.952381 261.477338 
L 157.904762 260.850269 
L 160.857143 258.457112 
L 163.809524 255.676229 
L 166.761905 253.43711 
L 169.714286 249.920867 
L 172.666667 243.738467 
L 175.619048 238.730451 
L 178.571429 234.50377 
L 181.52381 229.258173 
L 184.47619 221.646171 
L 187.428571 215.959396 
L 193.333333 201.55493 
L 196.285714 194.918155 
L 199.238095 187.330686 
L 202.190476 178.682355 
L 205.142857 172.923783 
L 208.095238 165.417155 
L 211.047619 160.575386 
L 214 155.189215 
L 216.952381 153.360932 
L 219.904762 149.148794 
L 222.857143 147.160781 
L 225.809524 144.235101 
L 228.761905 142.752999 
L 231.714286 143.12752 
L 234.666667 143.212571 
L 237.619048 140.120821 
L 240.571429 141.23515 
L 243.52381 144.684403 
L 246.47619 144.146452 
L 249.428571 145.763065 
L 252.380952 145.595249 
L 258.285714 147.124009 
L 261.238095 145.397766 
L 264.190476 145.070803 
L 267.142857 147.449308 
L 270.095238 148.551633 
L 273.047619 150.37576 
L 276 149.621615 
L 278.952381 150.809514 
L 281.904762 152.579569 
L 284.857143 155.167183 
L 287.809524 156.608878 
L 290.761905 156.902159 
L 293.714286 158.765602 
L 296.666667 164.757792 
L 299.619048 166.754174 
L 302.571429 169.577833 
L 305.52381 175.026407 
L 308.47619 177.753475 
L 311.428571 182.814602 
L 314.380952 188.973472 
L 320.285714 200.466858 
L 323.238095 207.584792 
L 329.142857 221.129166 
L 332.095238 229.572811 
L 335.047619 234.132625 
L 340.952381 244.465691 
L 343.904762 248.863311 
L 346.857143 255.084778 
L 349.809524 258.93632 
L 352.761905 263.428052 
L 355.714286 265.737971 
L 358.666667 267.46769 
L 361.619048 270.147646 
L 364.571429 271.397984 
L 367.52381 271.858918 
L 370.47619 271.974496 
L 373.428571 271.513655 
L 379.333333 271.098637 
L 382.285714 268.219675 
L 385.238095 266.500994 
L 388.190476 263.642594 
L 391.142857 261.545258 
L 394.095238 258.602127 
L 397.047619 256.164508 
L 400 254.058149 
L 402.952381 248.06162 
L 405.904762 246.362245 
L 408.857143 241.395613 
L 414.761905 230.908555 
L 417.714286 227.459404 
L 420.666667 225.823026 
L 426.571429 220.149917 
L 429.52381 219.013276 
L 432.47619 219.171017 
L 435.428571 217.807813 
L 438.380952 217.917413 
L 441.333333 217.565475 
L 447.238095 218.923339 
L 450.190476 222.030409 
L 453.142857 221.84387 
L 456.095238 224.077058 
L 459.047619 224.492799 
L 462 226.325596 
L 464.952381 225.289368 
L 467.904762 227.158022 
L 470.857143 227.496583 
L 476.761905 229.005035 
L 479.714286 229.353496 
L 482.666667 228.642962 
L 485.619048 226.256816 
L 488.571429 225.595394 
L 491.52381 224.426933 
L 494.47619 224.163266 
L 497.428571 223.014293 
L 500.380952 220.9773 
L 503.333333 218.790931 
L 509.238095 211.599244 
L 512.190476 208.342236 
L 515.142857 206.599587 
L 518.095238 203.231995 
L 521.047619 202.626357 
L 524 200.927996 
L 526.952381 202.030558 
L 529.904762 202.001093 
L 532.857143 200.968805 
L 535.809524 200.815987 
L 541.714286 201.162225 
L 544.666667 198.686555 
L 547.619048 200.75042 
L 550.571429 199.488116 
L 553.52381 196.011032 
L 556.47619 193.033163 
L 559.428571 186.320806 
L 562.380952 184.384137 
L 565.333333 178.21579 
L 568.285714 173.241273 
L 571.238095 165.209363 
L 574.190476 158.535901 
L 577.142857 150.981043 
L 580.095238 142.029076 
L 583.047619 134.935712 
L 586 129.072134 
L 588.952381 121.469219 
L 591.904762 114.850273 
L 594.857143 112.239933 
L 597.809524 111.350838 
L 600.761905 111.611664 
L 603.714286 114.009896 
L 606.666667 116.222639 
L 609.619048 123.948623 
L 612.571429 131.174814 
L 618.47619 146.652727 
L 624.380952 165.442391 
L 627.333333 170.659101 
L 630.285714 175.031654 
L 633.238095 178.698099 
L 636.190476 186.035811 
L 639.142857 186.502128 
L 642.095238 189.299278 
L 645.047619 191.291801 
L 648 190.500793 
L 650.952381 191.948469 
L 653.904762 194.909295 
L 656.857143 194.06262 
L 659.809524 192.757166 
L 662.761905 195.279444 
L 665.714286 196.443111 
L 668.666667 195.204352 
L 671.619048 196.327552 
L 671.619048 196.327552 
" style="fill:none;stroke:#fc997a;stroke-linecap:square;stroke-width:1.5;"/>
   </g>
   <g id="line2d_47">
    <path clip-path="url(#pdb96c3a120)" d="M 90 222.324257 
L 648 222.324257 
" style="fill:none;stroke:#000000;stroke-dasharray:3.7,1.6;stroke-dashoffset:0;"/>
   </g>
   <g id="patch_3">
    <path d="M 90 315 
L 90 43.2 
" style="fill:none;stroke:#000000;stroke-linecap:square;stroke-linejoin:miter;stroke-width:0.8;"/>
   </g>
   <g id="patch_4">
    <path d="M 648 315 
L 648 43.2 
" style="fill:none;stroke:#000000;stroke-linecap:square;stroke-linejoin:miter;stroke-width:0.8;"/>
   </g>
   <g id="patch_5">
    <path d="M 90 315 
L 648 315 
" style="fill:none;stroke:#000000;stroke-linecap:square;stroke-linejoin:miter;stroke-width:0.8;"/>
   </g>
   <g id="patch_6">
    <path d="M 90 43.2 
L 648 43.2 
" style="fill:none;stroke:#000000;stroke-linecap:square;stroke-linejoin:miter;stroke-width:0.8;"/>
   </g>
   <g id="text_13">
    <!-- 222 יחרזמ ןותחת לילג $R_t$ -->
    <g transform="translate(303.42 37.2)scale(0.12 -0.12)">
     <defs>
      <path id="DejaVuSans-32"/>
      <path d="M 15.71875 54.6875 
L 15.71875 24.125 
L 6.640625 20.40625 
L 6.640625 54.6875 
z
" id="DejaVuSans-1497"/>
      <path d="M 56.25 29.59375 
L 56.25 0 
L 47.171875 0 
L 47.171875 30.90625 
Q 47.171875 40.578125 44 44.140625 
Q 40.828125 47.703125 31.84375 47.703125 
L 18.109375 47.703125 
L 18.109375 0 
L 9.078125 0 
L 9.078125 54.6875 
L 31.734375 54.6875 
Q 45.21875 54.6875 50.734375 48.828125 
Q 56.25 42.96875 56.25 29.59375 
z
" id="DejaVuSans-1495"/>
      <path d="M 47.359375 27.828125 
L 47.359375 0 
L 38.28125 0 
L 38.28125 27.828125 
Q 38.28125 31.390625 37.765625 34.265625 
Q 37.25 37.15625 36 39.71875 
Q 34.765625 42.28125 32.8125 43.984375 
Q 30.859375 45.703125 27.78125 46.703125 
Q 24.703125 47.703125 20.703125 47.703125 
L 4.296875 47.703125 
L 4.296875 54.6875 
L 20.65625 54.6875 
Q 26.8125 54.6875 31.46875 53.390625 
Q 36.140625 52.09375 39.109375 49.828125 
Q 42.09375 47.5625 43.96875 44.109375 
Q 45.84375 40.671875 46.59375 36.734375 
Q 47.359375 32.8125 47.359375 27.828125 
z
" id="DejaVuSans-1512"/>
      <path d="M 30.328125 54.6875 
L 30.328125 47.703125 
L 26.421875 47.703125 
Q 22.171875 47.703125 20.578125 43.921875 
Q 19 40.140625 19 30.90625 
L 19 0 
L 9.90625 0 
L 9.90625 30.90625 
Q 9.90625 37.109375 11.78125 41.453125 
Q 13.671875 45.796875 16.40625 47.703125 
L 4.296875 47.703125 
L 4.296875 54.6875 
z
" id="DejaVuSans-1494"/>
      <path d="M 4.296875 54.6875 
L 14.890625 54.6875 
Q 15.09375 54.15625 16.703125 50.3125 
Q 18.3125 46.484375 19.390625 42.671875 
Q 20.75 46.09375 22.625 48.53125 
Q 24.515625 50.984375 26.359375 52.296875 
Q 28.21875 53.609375 30.609375 54.34375 
Q 33.015625 55.078125 34.859375 55.265625 
Q 36.71875 55.46875 39.203125 55.46875 
Q 58.84375 55.46875 58.84375 29.59375 
L 58.84375 0 
L 31.390625 0 
L 31.390625 6.9375 
L 49.75 6.9375 
L 49.75 29.59375 
Q 49.75 39.109375 46.765625 43.671875 
Q 43.796875 48.25 39.0625 48.25 
Q 30.28125 48.25 26.078125 40.4375 
Q 23.734375 35.984375 21.6875 25.921875 
Q 21.578125 25.25 21.34375 24.125 
L 16.546875 0 
L 7.46875 0 
L 11.375 20.40625 
Q 11.53125 21.1875 11.890625 22.96875 
Q 12.25 24.75 12.375 25.40625 
Q 12.5 26.078125 12.671875 27.3125 
Q 12.84375 28.5625 12.90625 29.515625 
Q 12.984375 30.46875 12.984375 31.546875 
Q 12.984375 34.671875 10.71875 41.09375 
Q 8.453125 47.515625 4.296875 54.6875 
z
" id="DejaVuSans-1502"/>
      <path d="M 18.171875 54.6875 
L 18.171875 -20.796875 
L 9.078125 -20.796875 
L 9.078125 54.6875 
z
" id="DejaVuSans-1503"/>
      <path d="M 18.171875 54.6875 
L 18.171875 0 
L 9.078125 0 
L 9.078125 54.6875 
z
" id="DejaVuSans-1493"/>
      <path d="M 56.640625 29.59375 
L 56.640625 0 
L 47.5625 0 
L 47.5625 29.6875 
Q 47.5625 33.296875 47.3125 35.71875 
Q 47.078125 38.140625 46.1875 40.59375 
Q 45.3125 43.0625 43.75 44.484375 
Q 42.1875 45.90625 39.453125 46.796875 
Q 36.71875 47.703125 32.8125 47.703125 
L 20.796875 47.703125 
L 20.796875 20.21875 
Q 20.796875 9.765625 17.796875 4.6875 
Q 14.796875 -0.390625 7.375 -0.390625 
Q 4.78125 -0.390625 0.984375 0.390625 
L 0.984375 7.375 
Q 4.15625 6.6875 6 6.6875 
Q 9.46875 6.6875 10.59375 9.46875 
Q 11.71875 12.25 11.71875 20.21875 
L 11.71875 47.703125 
L 3.265625 47.703125 
L 3.265625 54.6875 
L 32.8125 54.6875 
Q 39.796875 54.6875 44.5 53.046875 
Q 49.21875 51.421875 51.859375 48.046875 
Q 54.5 44.671875 55.5625 40.28125 
Q 56.640625 35.890625 56.640625 29.59375 
z
" id="DejaVuSans-1514"/>
      <path d="M 18.796875 0 
L 38.53125 47.703125 
L 4.296875 47.703125 
L 4.296875 72.90625 
L 13.421875 72.90625 
L 13.421875 54.6875 
L 49.21875 54.640625 
L 49.078125 49.265625 
L 28.328125 0 
z
" id="DejaVuSans-1500"/>
      <path d="M 31.203125 29.59375 
Q 31.203125 22.5625 32.890625 14.75 
Q 34.578125 6.9375 38.328125 0 
L 28.609375 0 
Q 25.78125 6.59375 24.5625 12.0625 
Q 22.953125 8.109375 21.234375 5.59375 
Q 19.53125 3.078125 17.578125 1.75 
Q 15.625 0.4375 13.671875 -0.015625 
Q 11.71875 -0.484375 9.03125 -0.484375 
Q 6.78125 -0.484375 4.296875 0.203125 
L 4.296875 8.453125 
Q 5.953125 7.953125 7.71875 7.953125 
Q 9.859375 7.953125 11.546875 8.265625 
Q 13.234375 8.59375 15.328125 9.859375 
Q 17.4375 11.140625 18.796875 13.359375 
Q 20.171875 15.578125 21.140625 19.71875 
Q 22.125 23.875 22.125 29.59375 
Q 22.125 36.96875 20.875 40.890625 
Q 19.625 44.828125 17.15625 46.265625 
Q 14.703125 47.703125 10.203125 47.703125 
L 5.8125 47.703125 
L 5.8125 54.6875 
L 10.5 54.6875 
Q 21.296875 54.6875 26.25 48.734375 
Q 31.203125 42.78125 31.203125 29.59375 
z
" id="DejaVuSans-1490"/>
      <path d="M 25.203125 64.796875 
L 20.21875 38.921875 
L 32.90625 38.921875 
Q 40.375 38.921875 44.984375 43.046875 
Q 49.609375 47.171875 49.609375 53.8125 
Q 49.609375 59.125 46.5 61.953125 
Q 43.40625 64.796875 37.59375 64.796875 
z
M 43.3125 35.015625 
Q 46.4375 34.28125 48.515625 31.390625 
Q 50.59375 28.515625 53.328125 19.921875 
L 59.515625 0 
L 49.125 0 
L 43.40625 18.703125 
Q 41.21875 25.921875 38.328125 28.359375 
Q 35.453125 30.8125 29.5 30.8125 
L 18.609375 30.8125 
L 12.59375 0 
L 2.6875 0 
L 16.890625 72.90625 
L 39.109375 72.90625 
Q 49.21875 72.90625 54.609375 68.328125 
Q 60.015625 63.765625 60.015625 55.171875 
Q 60.015625 47.5625 55.421875 41.984375 
Q 50.828125 36.421875 43.3125 35.015625 
z
" id="DejaVuSans-Oblique-82"/>
      <path d="M 42.28125 54.6875 
L 40.921875 47.703125 
L 23 47.703125 
L 17.1875 18.015625 
Q 16.890625 16.359375 16.75 15.234375 
Q 16.609375 14.109375 16.609375 13.484375 
Q 16.609375 10.359375 18.484375 8.9375 
Q 20.359375 7.515625 24.515625 7.515625 
L 33.59375 7.515625 
L 32.078125 0 
L 23.484375 0 
Q 15.484375 0 11.546875 3.125 
Q 7.625 6.25 7.625 12.59375 
Q 7.625 13.71875 7.765625 15.0625 
Q 7.90625 16.40625 8.203125 18.015625 
L 14.015625 47.703125 
L 6.390625 47.703125 
L 7.8125 54.6875 
L 15.28125 54.6875 
L 18.3125 70.21875 
L 27.296875 70.21875 
L 24.3125 54.6875 
z
" id="DejaVuSans-Oblique-116"/>
     </defs>
     <use transform="translate(0 0.78125)" xlink:href="#DejaVuSans-50"/>
     <use transform="translate(63.623047 0.78125)" xlink:href="#DejaVuSans-50"/>
     <use transform="translate(127.246094 0.78125)" xlink:href="#DejaVuSans-50"/>
     <use transform="translate(190.869141 0.78125)" xlink:href="#DejaVuSans-32"/>
     <use transform="translate(222.65625 0.78125)" xlink:href="#DejaVuSans-1497"/>
     <use transform="translate(245.019531 0.78125)" xlink:href="#DejaVuSans-1495"/>
     <use transform="translate(310.351562 0.78125)" xlink:href="#DejaVuSans-1512"/>
     <use transform="translate(366.796875 0.78125)" xlink:href="#DejaVuSans-1494"/>
     <use transform="translate(401.416016 0.78125)" xlink:href="#DejaVuSans-1502"/>
     <use transform="translate(469.335938 0.78125)" xlink:href="#DejaVuSans-32"/>
     <use transform="translate(501.123047 0.78125)" xlink:href="#DejaVuSans-1503"/>
     <use transform="translate(528.369141 0.78125)" xlink:href="#DejaVuSans-1493"/>
     <use transform="translate(555.615234 0.78125)" xlink:href="#DejaVuSans-1514"/>
     <use transform="translate(621.337891 0.78125)" xlink:href="#DejaVuSans-1495"/>
     <use transform="translate(686.669922 0.78125)" xlink:href="#DejaVuSans-1514"/>
     <use transform="translate(752.392578 0.78125)" xlink:href="#DejaVuSans-32"/>
     <use transform="translate(784.179688 0.78125)" xlink:href="#DejaVuSans-1500"/>
     <use transform="translate(841.015625 0.78125)" xlink:href="#DejaVuSans-1497"/>
     <use transform="translate(863.378906 0.78125)" xlink:href="#DejaVuSans-1500"/>
     <use transform="translate(920.214844 0.78125)" xlink:href="#DejaVuSans-1490"/>
     <use transform="translate(961.425781 0.78125)" xlink:href="#DejaVuSans-32"/>
     <use transform="translate(993.212891 0.78125)" xlink:href="#DejaVuSans-Oblique-82"/>
     <use transform="translate(1062.695312 -15.625)scale(0.7)" xlink:href="#DejaVuSans-Oblique-116"/>
    </g>
   </g>
  </g>
 </g>
 <defs>
  <clipPath id="pdb96c3a120">
   <rect height="271.8" width="558" x="90" y="43.2"/>
  </clipPath>
 </defs>
</svg>
