<?xml version="1.0" encoding="utf-8" standalone="no"?>
<!DOCTYPE svg PUBLIC "-//W3C//DTD SVG 1.1//EN"
  "http://www.w3.org/Graphics/SVG/1.1/DTD/svg11.dtd">
<!-- Created with matplotlib (https://matplotlib.org/) -->
<svg height="360pt" version="1.1" viewBox="0 0 720 360" width="720pt" xmlns="http://www.w3.org/2000/svg" xmlns:xlink="http://www.w3.org/1999/xlink">
 <metadata>
  <rdf:RDF xmlns:cc="http://creativecommons.org/ns#" xmlns:dc="http://purl.org/dc/elements/1.1/" xmlns:rdf="http://www.w3.org/1999/02/22-rdf-syntax-ns#">
   <cc:Work>
    <dc:type rdf:resource="http://purl.org/dc/dcmitype/StillImage"/>
    <dc:date>2021-02-18T04:31:55.596755</dc:date>
    <dc:format>image/svg+xml</dc:format>
    <dc:creator>
     <cc:Agent>
      <dc:title>Matplotlib v3.3.2, https://matplotlib.org/</dc:title>
     </cc:Agent>
    </dc:creator>
   </cc:Work>
  </rdf:RDF>
 </metadata>
 <defs>
  <style type="text/css">*{stroke-linecap:butt;stroke-linejoin:round;}</style>
 </defs>
 <g id="figure_1">
  <g id="patch_1">
   <path d="M 0 360 
L 720 360 
L 720 0 
L 0 0 
z
" style="fill:#ffffff;"/>
  </g>
  <g id="axes_1">
   <g id="patch_2">
    <path d="M 90 315 
L 648 315 
L 648 43.2 
L 90 43.2 
z
" style="fill:#ffffff;"/>
   </g>
   <g id="PolyCollection_1">
    <defs>
     <path d="M 90 -148.977686 
L 90 -295.936728 
L 92.19685 -304.445455 
L 94.393701 -291.097317 
L 96.590551 -300.555599 
L 98.787402 -294.090481 
L 100.984252 -290.676308 
L 103.181102 -297.831938 
L 105.377953 -302.259783 
L 107.574803 -297.784091 
L 109.771654 -301.54114 
L 111.968504 -294.985467 
L 114.165354 -295.910253 
L 116.362205 -296.179886 
L 118.559055 -300.536676 
L 120.755906 -294.02709 
L 122.952756 -287.977709 
L 125.149606 -279.099947 
L 127.346457 -287.524209 
L 129.543307 -281.352188 
L 131.740157 -287.349621 
L 133.937008 -270.355736 
L 136.133858 -271.714071 
L 138.330709 -262.701625 
L 140.527559 -258.898584 
L 142.724409 -256.08876 
L 144.92126 -260.919731 
L 147.11811 -258.019261 
L 149.314961 -247.327747 
L 151.511811 -246.513991 
L 153.708661 -243.58723 
L 155.905512 -242.655054 
L 158.102362 -241.122619 
L 160.299213 -236.985578 
L 162.496063 -231.254397 
L 164.692913 -233.995926 
L 166.889764 -231.525197 
L 169.086614 -223.051458 
L 171.283465 -222.797701 
L 173.480315 -220.518919 
L 175.677165 -214.819829 
L 177.874016 -217.327147 
L 180.070866 -209.630809 
L 182.267717 -210.362531 
L 184.464567 -207.571906 
L 186.661417 -200.463595 
L 188.858268 -199.395297 
L 191.055118 -193.535133 
L 193.251969 -194.803542 
L 195.448819 -194.529673 
L 197.645669 -192.41988 
L 199.84252 -187.769708 
L 202.03937 -186.366068 
L 204.23622 -181.742475 
L 206.433071 -183.548117 
L 208.629921 -182.804923 
L 210.826772 -181.478002 
L 213.023622 -175.887877 
L 215.220472 -172.840654 
L 217.417323 -174.242654 
L 219.614173 -174.738293 
L 221.811024 -172.793175 
L 224.007874 -175.517744 
L 226.204724 -181.44537 
L 228.401575 -180.143119 
L 230.598425 -183.797808 
L 232.795276 -187.95882 
L 234.992126 -190.856986 
L 237.188976 -200.252948 
L 239.385827 -203.630099 
L 241.582677 -205.658628 
L 243.779528 -213.21995 
L 245.976378 -212.36748 
L 248.173228 -213.019645 
L 250.370079 -221.408195 
L 252.566929 -222.599125 
L 254.76378 -228.774352 
L 256.96063 -231.843603 
L 259.15748 -231.648362 
L 261.354331 -231.339346 
L 263.551181 -229.834496 
L 265.748031 -231.114522 
L 267.944882 -232.02051 
L 270.141732 -228.099907 
L 272.338583 -230.932771 
L 274.535433 -229.385453 
L 276.732283 -231.397945 
L 278.929134 -230.157048 
L 281.125984 -233.946102 
L 283.322835 -230.132599 
L 285.519685 -233.943288 
L 287.716535 -230.407403 
L 289.913386 -229.408386 
L 292.110236 -232.787533 
L 294.307087 -224.755949 
L 296.503937 -224.30904 
L 298.700787 -221.757058 
L 300.897638 -216.590938 
L 303.094488 -215.59659 
L 305.291339 -206.994374 
L 307.488189 -204.710367 
L 309.685039 -199.67384 
L 311.88189 -191.714426 
L 314.07874 -185.106323 
L 316.275591 -181.02938 
L 318.472441 -173.317152 
L 320.669291 -163.866999 
L 322.866142 -161.104325 
L 325.062992 -151.95046 
L 327.259843 -145.486406 
L 329.456693 -137.378636 
L 331.653543 -132.316673 
L 333.850394 -125.406194 
L 336.047244 -118.522567 
L 338.244094 -114.857753 
L 340.440945 -111.115802 
L 342.637795 -107.341143 
L 344.834646 -99.944261 
L 347.031496 -98.368753 
L 349.228346 -93.798272 
L 351.425197 -91.400283 
L 353.622047 -90.223548 
L 355.818898 -89.398387 
L 358.015748 -89.064498 
L 360.212598 -90.297612 
L 362.409449 -90.202631 
L 364.606299 -90.927908 
L 366.80315 -91.469347 
L 369 -93.895103 
L 371.19685 -97.160511 
L 373.393701 -99.779917 
L 375.590551 -101.185534 
L 377.787402 -106.829388 
L 379.984252 -107.342527 
L 382.181102 -113.872132 
L 384.377953 -120.122385 
L 386.574803 -122.651873 
L 388.771654 -125.811552 
L 390.968504 -130.395652 
L 393.165354 -140.232859 
L 395.362205 -141.67391 
L 397.559055 -149.716292 
L 399.755906 -156.245952 
L 401.952756 -162.408553 
L 404.149606 -165.873265 
L 406.346457 -169.926972 
L 408.543307 -177.518087 
L 410.740157 -177.128931 
L 412.937008 -180.013587 
L 415.133858 -190.722543 
L 417.330709 -193.105668 
L 419.527559 -197.33383 
L 421.724409 -193.831157 
L 423.92126 -202.280949 
L 426.11811 -201.551002 
L 428.314961 -205.160993 
L 430.511811 -212.563682 
L 432.708661 -216.747845 
L 434.905512 -224.695229 
L 437.102362 -222.241291 
L 439.299213 -228.639206 
L 441.496063 -230.005352 
L 443.692913 -238.808388 
L 445.889764 -243.863241 
L 448.086614 -242.50489 
L 450.283465 -249.179575 
L 452.480315 -244.545098 
L 454.677165 -252.17272 
L 456.874016 -244.909157 
L 459.070866 -243.603203 
L 461.267717 -241.961578 
L 463.464567 -238.262063 
L 465.661417 -235.785678 
L 467.858268 -233.198422 
L 470.055118 -238.633128 
L 472.251969 -226.288495 
L 474.448819 -229.403597 
L 476.645669 -222.409424 
L 478.84252 -224.35834 
L 481.03937 -220.237033 
L 483.23622 -225.230713 
L 485.433071 -225.174276 
L 487.629921 -223.842641 
L 489.826772 -224.845154 
L 492.023622 -229.769102 
L 494.220472 -227.390584 
L 496.417323 -227.199804 
L 498.614173 -230.277669 
L 500.811024 -230.894886 
L 503.007874 -235.330948 
L 505.204724 -235.764029 
L 507.401575 -240.969947 
L 509.598425 -239.762818 
L 511.795276 -241.020891 
L 513.992126 -232.998087 
L 516.188976 -238.103084 
L 518.385827 -234.209892 
L 520.582677 -232.608447 
L 522.779528 -231.573905 
L 524.976378 -229.285155 
L 527.173228 -227.322098 
L 529.370079 -224.097891 
L 531.566929 -222.512822 
L 533.76378 -218.885193 
L 535.96063 -219.579309 
L 538.15748 -218.592187 
L 540.354331 -210.542313 
L 542.551181 -208.449386 
L 544.748031 -207.418404 
L 546.944882 -202.796172 
L 549.141732 -203.954432 
L 551.338583 -201.025697 
L 553.535433 -201.998569 
L 555.732283 -197.857237 
L 557.929134 -198.382296 
L 560.125984 -194.3917 
L 562.322835 -197.332044 
L 564.519685 -192.63182 
L 566.716535 -189.332251 
L 568.913386 -189.297997 
L 571.110236 -189.56474 
L 573.307087 -186.202579 
L 575.503937 -187.028932 
L 577.700787 -186.652212 
L 579.897638 -182.215031 
L 582.094488 -186.101952 
L 584.291339 -182.330126 
L 586.488189 -182.238722 
L 588.685039 -181.433039 
L 590.88189 -178.65482 
L 593.07874 -178.04541 
L 595.275591 -172.974472 
L 597.472441 -171.198272 
L 599.669291 -169.429217 
L 601.866142 -166.204791 
L 604.062992 -163.53718 
L 606.259843 -159.023138 
L 608.456693 -158.306061 
L 610.653543 -157.455189 
L 612.850394 -156.660785 
L 615.047244 -151.074952 
L 617.244094 -149.615657 
L 619.440945 -143.310691 
L 621.637795 -144.757457 
L 623.834646 -140.854778 
L 626.031496 -141.168697 
L 628.228346 -142.253222 
L 630.425197 -143.414556 
L 632.622047 -143.322495 
L 634.818898 -145.604571 
L 637.015748 -141.777416 
L 639.212598 -141.162159 
L 641.409449 -139.33197 
L 643.606299 -141.754317 
L 645.80315 -149.859613 
L 648 -144.821669 
L 650.19685 -150.579779 
L 652.393701 -150.714073 
L 654.590551 -150.094631 
L 656.787402 -152.733109 
L 658.984252 -150.386326 
L 661.181102 -156.669627 
L 663.377953 -152.40419 
L 663.377953 -57.354545 
L 663.377953 -57.354545 
L 661.181102 -66.511646 
L 658.984252 -63.20586 
L 656.787402 -67.341919 
L 654.590551 -68.145099 
L 652.393701 -72.394418 
L 650.19685 -73.614838 
L 648 -70.76179 
L 645.80315 -79.563284 
L 643.606299 -76.089822 
L 641.409449 -76.285463 
L 639.212598 -79.78758 
L 637.015748 -83.176323 
L 634.818898 -88.29295 
L 632.622047 -90.231086 
L 630.425197 -92.371268 
L 628.228346 -93.60948 
L 626.031496 -94.357167 
L 623.834646 -96.20942 
L 621.637795 -103.604522 
L 619.440945 -102.411271 
L 617.244094 -108.113002 
L 615.047244 -112.38941 
L 612.850394 -117.587733 
L 610.653543 -118.181762 
L 608.456693 -118.96629 
L 606.259843 -120.572256 
L 604.062992 -123.791675 
L 601.866142 -124.626604 
L 599.669291 -128.800677 
L 597.472441 -128.685931 
L 595.275591 -128.623075 
L 593.07874 -131.77848 
L 590.88189 -133.374928 
L 588.685039 -138.791792 
L 586.488189 -136.914718 
L 584.291339 -136.921807 
L 582.094488 -139.919781 
L 579.897638 -137.289662 
L 577.700787 -141.01926 
L 575.503937 -143.206685 
L 573.307087 -140.657778 
L 571.110236 -144.743858 
L 568.913386 -145.440784 
L 566.716535 -145.28109 
L 564.519685 -147.48047 
L 562.322835 -148.84596 
L 560.125984 -146.460728 
L 557.929134 -149.310599 
L 555.732283 -149.033982 
L 553.535433 -154.032942 
L 551.338583 -152.740633 
L 549.141732 -157.342815 
L 546.944882 -156.194677 
L 544.748031 -159.742303 
L 542.551181 -159.502859 
L 540.354331 -160.561206 
L 538.15748 -166.540221 
L 535.96063 -166.379011 
L 533.76378 -168.253329 
L 531.566929 -169.221519 
L 529.370079 -171.577887 
L 527.173228 -175.209521 
L 524.976378 -175.32188 
L 522.779528 -177.994452 
L 520.582677 -177.053438 
L 518.385827 -181.290146 
L 516.188976 -180.810733 
L 513.992126 -176.722291 
L 511.795276 -184.730414 
L 509.598425 -183.32634 
L 507.401575 -181.393864 
L 505.204724 -178.167857 
L 503.007874 -179.189392 
L 500.811024 -174.262273 
L 498.614173 -174.359399 
L 496.417323 -171.56696 
L 494.220472 -172.961889 
L 492.023622 -171.876631 
L 489.826772 -168.028986 
L 487.629921 -168.351811 
L 485.433071 -169.577341 
L 483.23622 -167.975054 
L 481.03937 -163.443979 
L 478.84252 -169.074367 
L 476.645669 -167.36283 
L 474.448819 -170.601377 
L 472.251969 -167.000504 
L 470.055118 -177.640293 
L 467.858268 -173.150491 
L 465.661417 -179.787999 
L 463.464567 -179.561984 
L 461.267717 -181.36296 
L 459.070866 -180.479509 
L 456.874016 -180.777906 
L 454.677165 -186.67841 
L 452.480315 -179.66895 
L 450.283465 -185.422065 
L 448.086614 -178.53167 
L 445.889764 -177.673882 
L 443.692913 -175.660992 
L 441.496063 -170.130683 
L 439.299213 -170.194782 
L 437.102362 -161.62634 
L 434.905512 -165.048248 
L 432.708661 -157.438771 
L 430.511811 -157.766411 
L 428.314961 -149.571301 
L 426.11811 -145.379564 
L 423.92126 -147.51361 
L 421.724409 -140.343307 
L 419.527559 -144.12133 
L 417.330709 -138.9936 
L 415.133858 -135.904387 
L 412.937008 -127.808219 
L 410.740157 -126.258908 
L 408.543307 -125.370715 
L 406.346457 -117.856207 
L 404.149606 -116.082969 
L 401.952756 -111.351335 
L 399.755906 -106.963112 
L 397.559055 -104.269599 
L 395.362205 -98.326281 
L 393.165354 -100.356289 
L 390.968504 -92.342197 
L 388.771654 -89.297253 
L 386.574803 -87.683791 
L 384.377953 -84.017718 
L 382.181102 -81.07888 
L 379.984252 -76.193908 
L 377.787402 -75.153323 
L 375.590551 -71.91353 
L 373.393701 -70.785661 
L 371.19685 -67.866477 
L 369 -65.021647 
L 366.80315 -64.948538 
L 364.606299 -65.251838 
L 362.409449 -64.055327 
L 360.212598 -64.131521 
L 358.015748 -63.567924 
L 355.818898 -63.518501 
L 353.622047 -64.129928 
L 351.425197 -64.259953 
L 349.228346 -66.633812 
L 347.031496 -70.564041 
L 344.834646 -71.175496 
L 342.637795 -78.02738 
L 340.440945 -80.459235 
L 338.244094 -84.328661 
L 336.047244 -87.316478 
L 333.850394 -92.509059 
L 331.653543 -97.573664 
L 329.456693 -101.90107 
L 327.259843 -109.169739 
L 325.062992 -113.758331 
L 322.866142 -121.024319 
L 320.669291 -123.544689 
L 318.472441 -130.540509 
L 316.275591 -136.000945 
L 314.07874 -138.659286 
L 311.88189 -142.976726 
L 309.685039 -151.916443 
L 307.488189 -155.167022 
L 305.291339 -156.89492 
L 303.094488 -163.993994 
L 300.897638 -164.751726 
L 298.700787 -171.396615 
L 296.503937 -173.929745 
L 294.307087 -170.068253 
L 292.110236 -176.425517 
L 289.913386 -173.197635 
L 287.716535 -172.192753 
L 285.519685 -175.303086 
L 283.322835 -171.394164 
L 281.125984 -176.979827 
L 278.929134 -174.278088 
L 276.732283 -175.968844 
L 274.535433 -173.714814 
L 272.338583 -175.006009 
L 270.141732 -167.913655 
L 267.944882 -173.957432 
L 265.748031 -170.019752 
L 263.551181 -171.290151 
L 261.354331 -174.823125 
L 259.15748 -172.422803 
L 256.96063 -173.517966 
L 254.76378 -170.022843 
L 252.566929 -164.011714 
L 250.370079 -166.566834 
L 248.173228 -159.556329 
L 245.976378 -159.205695 
L 243.779528 -158.183807 
L 241.582677 -152.950083 
L 239.385827 -152.085584 
L 237.188976 -148.969582 
L 234.992126 -141.33931 
L 232.795276 -142.629336 
L 230.598425 -137.771325 
L 228.401575 -133.420945 
L 226.204724 -136.192804 
L 224.007874 -132.518977 
L 221.811024 -129.447584 
L 219.614173 -131.575441 
L 217.417323 -129.826145 
L 215.220472 -126.510149 
L 213.023622 -129.995511 
L 210.826772 -133.806843 
L 208.629921 -134.456647 
L 206.433071 -134.373004 
L 204.23622 -130.90042 
L 202.03937 -137.335287 
L 199.84252 -138.021966 
L 197.645669 -142.316754 
L 195.448819 -145.478423 
L 193.251969 -146.626434 
L 191.055118 -145.742704 
L 188.858268 -148.634894 
L 186.661417 -148.835468 
L 184.464567 -154.354926 
L 182.267717 -155.192866 
L 180.070866 -154.992093 
L 177.874016 -160.787672 
L 175.677165 -159.300615 
L 173.480315 -162.46255 
L 171.283465 -163.912412 
L 169.086614 -161.933069 
L 166.889764 -168.77655 
L 164.692913 -172.909648 
L 162.496063 -170.280695 
L 160.299213 -175.366753 
L 158.102362 -178.899926 
L 155.905512 -180.412476 
L 153.708661 -180.911706 
L 151.511811 -182.569179 
L 149.314961 -178.95558 
L 147.11811 -187.874016 
L 144.92126 -191.028659 
L 142.724409 -186.521162 
L 140.527559 -188.50563 
L 138.330709 -187.39809 
L 136.133858 -191.108676 
L 133.937008 -185.354139 
L 131.740157 -198.45539 
L 129.543307 -194.164217 
L 127.346457 -195.142124 
L 125.149606 -188.370725 
L 122.952756 -189.600867 
L 120.755906 -195.426684 
L 118.559055 -199.184529 
L 116.362205 -189.489649 
L 114.165354 -190.472301 
L 111.968504 -184.189098 
L 109.771654 -183.775986 
L 107.574803 -177.880693 
L 105.377953 -177.082394 
L 103.181102 -172.152907 
L 100.984252 -161.894563 
L 98.787402 -160.882991 
L 96.590551 -163.556141 
L 94.393701 -154.449114 
L 92.19685 -163.373734 
L 90 -148.977686 
z
" id="md78db9e0e3" style="stroke:#fdcbb6;stroke-opacity:0.8;"/>
    </defs>
    <g clip-path="url(#p4d147b29e0)">
     <use style="fill:#fdcbb6;fill-opacity:0.8;stroke:#fdcbb6;stroke-opacity:0.8;" x="0" xlink:href="#md78db9e0e3" y="360"/>
    </g>
   </g>
   <g id="matplotlib.axis_1">
    <g id="xtick_1">
     <g id="line2d_1">
      <defs>
       <path d="M 0 0 
L 0 3.5 
" id="m06528bb534" style="stroke:#000000;stroke-width:0.8;"/>
      </defs>
      <g>
       <use style="stroke:#000000;stroke-width:0.8;" x="90" xlink:href="#m06528bb534" y="315"/>
      </g>
     </g>
    </g>
    <g id="xtick_2">
     <g id="line2d_2">
      <g>
       <use style="stroke:#000000;stroke-width:0.8;" x="94.393701" xlink:href="#m06528bb534" y="315"/>
      </g>
     </g>
     <g id="text_1">
      <!-- Jun -->
      <g transform="translate(86.581201 329.598437)scale(0.1 -0.1)">
       <defs>
        <path d="M 9.8125 72.90625 
L 19.671875 72.90625 
L 19.671875 5.078125 
Q 19.671875 -8.109375 14.671875 -14.0625 
Q 9.671875 -20.015625 -1.421875 -20.015625 
L -5.171875 -20.015625 
L -5.171875 -11.71875 
L -2.09375 -11.71875 
Q 4.4375 -11.71875 7.125 -8.046875 
Q 9.8125 -4.390625 9.8125 5.078125 
z
" id="DejaVuSans-74"/>
        <path d="M 8.5 21.578125 
L 8.5 54.6875 
L 17.484375 54.6875 
L 17.484375 21.921875 
Q 17.484375 14.15625 20.5 10.265625 
Q 23.53125 6.390625 29.59375 6.390625 
Q 36.859375 6.390625 41.078125 11.03125 
Q 45.3125 15.671875 45.3125 23.6875 
L 45.3125 54.6875 
L 54.296875 54.6875 
L 54.296875 0 
L 45.3125 0 
L 45.3125 8.40625 
Q 42.046875 3.421875 37.71875 1 
Q 33.40625 -1.421875 27.6875 -1.421875 
Q 18.265625 -1.421875 13.375 4.4375 
Q 8.5 10.296875 8.5 21.578125 
z
M 31.109375 56 
z
" id="DejaVuSans-117"/>
        <path d="M 54.890625 33.015625 
L 54.890625 0 
L 45.90625 0 
L 45.90625 32.71875 
Q 45.90625 40.484375 42.875 44.328125 
Q 39.84375 48.1875 33.796875 48.1875 
Q 26.515625 48.1875 22.3125 43.546875 
Q 18.109375 38.921875 18.109375 30.90625 
L 18.109375 0 
L 9.078125 0 
L 9.078125 54.6875 
L 18.109375 54.6875 
L 18.109375 46.1875 
Q 21.34375 51.125 25.703125 53.5625 
Q 30.078125 56 35.796875 56 
Q 45.21875 56 50.046875 50.171875 
Q 54.890625 44.34375 54.890625 33.015625 
z
" id="DejaVuSans-110"/>
       </defs>
       <use xlink:href="#DejaVuSans-74"/>
       <use x="29.492188" xlink:href="#DejaVuSans-117"/>
       <use x="92.871094" xlink:href="#DejaVuSans-110"/>
      </g>
     </g>
    </g>
    <g id="xtick_3">
     <g id="line2d_3">
      <g>
       <use style="stroke:#000000;stroke-width:0.8;" x="160.299213" xlink:href="#m06528bb534" y="315"/>
      </g>
     </g>
     <g id="text_2">
      <!-- Jul -->
      <g transform="translate(154.2664 329.598437)scale(0.1 -0.1)">
       <defs>
        <path d="M 9.421875 75.984375 
L 18.40625 75.984375 
L 18.40625 0 
L 9.421875 0 
z
" id="DejaVuSans-108"/>
       </defs>
       <use xlink:href="#DejaVuSans-74"/>
       <use x="29.492188" xlink:href="#DejaVuSans-117"/>
       <use x="92.871094" xlink:href="#DejaVuSans-108"/>
      </g>
     </g>
    </g>
    <g id="xtick_4">
     <g id="line2d_4">
      <g>
       <use style="stroke:#000000;stroke-width:0.8;" x="228.401575" xlink:href="#m06528bb534" y="315"/>
      </g>
     </g>
     <g id="text_3">
      <!-- Aug -->
      <g transform="translate(218.638294 329.598437)scale(0.1 -0.1)">
       <defs>
        <path d="M 34.1875 63.1875 
L 20.796875 26.90625 
L 47.609375 26.90625 
z
M 28.609375 72.90625 
L 39.796875 72.90625 
L 67.578125 0 
L 57.328125 0 
L 50.6875 18.703125 
L 17.828125 18.703125 
L 11.1875 0 
L 0.78125 0 
z
" id="DejaVuSans-65"/>
        <path d="M 45.40625 27.984375 
Q 45.40625 37.75 41.375 43.109375 
Q 37.359375 48.484375 30.078125 48.484375 
Q 22.859375 48.484375 18.828125 43.109375 
Q 14.796875 37.75 14.796875 27.984375 
Q 14.796875 18.265625 18.828125 12.890625 
Q 22.859375 7.515625 30.078125 7.515625 
Q 37.359375 7.515625 41.375 12.890625 
Q 45.40625 18.265625 45.40625 27.984375 
z
M 54.390625 6.78125 
Q 54.390625 -7.171875 48.1875 -13.984375 
Q 42 -20.796875 29.203125 -20.796875 
Q 24.46875 -20.796875 20.265625 -20.09375 
Q 16.0625 -19.390625 12.109375 -17.921875 
L 12.109375 -9.1875 
Q 16.0625 -11.328125 19.921875 -12.34375 
Q 23.78125 -13.375 27.78125 -13.375 
Q 36.625 -13.375 41.015625 -8.765625 
Q 45.40625 -4.15625 45.40625 5.171875 
L 45.40625 9.625 
Q 42.625 4.78125 38.28125 2.390625 
Q 33.9375 0 27.875 0 
Q 17.828125 0 11.671875 7.65625 
Q 5.515625 15.328125 5.515625 27.984375 
Q 5.515625 40.671875 11.671875 48.328125 
Q 17.828125 56 27.875 56 
Q 33.9375 56 38.28125 53.609375 
Q 42.625 51.21875 45.40625 46.390625 
L 45.40625 54.6875 
L 54.390625 54.6875 
z
" id="DejaVuSans-103"/>
       </defs>
       <use xlink:href="#DejaVuSans-65"/>
       <use x="68.408203" xlink:href="#DejaVuSans-117"/>
       <use x="131.787109" xlink:href="#DejaVuSans-103"/>
      </g>
     </g>
    </g>
    <g id="xtick_5">
     <g id="line2d_5">
      <g>
       <use style="stroke:#000000;stroke-width:0.8;" x="296.503937" xlink:href="#m06528bb534" y="315"/>
      </g>
     </g>
     <g id="text_4">
      <!-- Sep -->
      <g transform="translate(287.078937 329.598437)scale(0.1 -0.1)">
       <defs>
        <path d="M 53.515625 70.515625 
L 53.515625 60.890625 
Q 47.90625 63.578125 42.921875 64.890625 
Q 37.9375 66.21875 33.296875 66.21875 
Q 25.25 66.21875 20.875 63.09375 
Q 16.5 59.96875 16.5 54.203125 
Q 16.5 49.359375 19.40625 46.890625 
Q 22.3125 44.4375 30.421875 42.921875 
L 36.375 41.703125 
Q 47.40625 39.59375 52.65625 34.296875 
Q 57.90625 29 57.90625 20.125 
Q 57.90625 9.515625 50.796875 4.046875 
Q 43.703125 -1.421875 29.984375 -1.421875 
Q 24.8125 -1.421875 18.96875 -0.25 
Q 13.140625 0.921875 6.890625 3.21875 
L 6.890625 13.375 
Q 12.890625 10.015625 18.65625 8.296875 
Q 24.421875 6.59375 29.984375 6.59375 
Q 38.421875 6.59375 43.015625 9.90625 
Q 47.609375 13.234375 47.609375 19.390625 
Q 47.609375 24.75 44.3125 27.78125 
Q 41.015625 30.8125 33.5 32.328125 
L 27.484375 33.5 
Q 16.453125 35.6875 11.515625 40.375 
Q 6.59375 45.0625 6.59375 53.421875 
Q 6.59375 63.09375 13.40625 68.65625 
Q 20.21875 74.21875 32.171875 74.21875 
Q 37.3125 74.21875 42.625 73.28125 
Q 47.953125 72.359375 53.515625 70.515625 
z
" id="DejaVuSans-83"/>
        <path d="M 56.203125 29.59375 
L 56.203125 25.203125 
L 14.890625 25.203125 
Q 15.484375 15.921875 20.484375 11.0625 
Q 25.484375 6.203125 34.421875 6.203125 
Q 39.59375 6.203125 44.453125 7.46875 
Q 49.3125 8.734375 54.109375 11.28125 
L 54.109375 2.78125 
Q 49.265625 0.734375 44.1875 -0.34375 
Q 39.109375 -1.421875 33.890625 -1.421875 
Q 20.796875 -1.421875 13.15625 6.1875 
Q 5.515625 13.8125 5.515625 26.8125 
Q 5.515625 40.234375 12.765625 48.109375 
Q 20.015625 56 32.328125 56 
Q 43.359375 56 49.78125 48.890625 
Q 56.203125 41.796875 56.203125 29.59375 
z
M 47.21875 32.234375 
Q 47.125 39.59375 43.09375 43.984375 
Q 39.0625 48.390625 32.421875 48.390625 
Q 24.90625 48.390625 20.390625 44.140625 
Q 15.875 39.890625 15.1875 32.171875 
z
" id="DejaVuSans-101"/>
        <path d="M 18.109375 8.203125 
L 18.109375 -20.796875 
L 9.078125 -20.796875 
L 9.078125 54.6875 
L 18.109375 54.6875 
L 18.109375 46.390625 
Q 20.953125 51.265625 25.265625 53.625 
Q 29.59375 56 35.59375 56 
Q 45.5625 56 51.78125 48.09375 
Q 58.015625 40.1875 58.015625 27.296875 
Q 58.015625 14.40625 51.78125 6.484375 
Q 45.5625 -1.421875 35.59375 -1.421875 
Q 29.59375 -1.421875 25.265625 0.953125 
Q 20.953125 3.328125 18.109375 8.203125 
z
M 48.6875 27.296875 
Q 48.6875 37.203125 44.609375 42.84375 
Q 40.53125 48.484375 33.40625 48.484375 
Q 26.265625 48.484375 22.1875 42.84375 
Q 18.109375 37.203125 18.109375 27.296875 
Q 18.109375 17.390625 22.1875 11.75 
Q 26.265625 6.109375 33.40625 6.109375 
Q 40.53125 6.109375 44.609375 11.75 
Q 48.6875 17.390625 48.6875 27.296875 
z
" id="DejaVuSans-112"/>
       </defs>
       <use xlink:href="#DejaVuSans-83"/>
       <use x="63.476562" xlink:href="#DejaVuSans-101"/>
       <use x="125" xlink:href="#DejaVuSans-112"/>
      </g>
     </g>
    </g>
    <g id="xtick_6">
     <g id="line2d_6">
      <g>
       <use style="stroke:#000000;stroke-width:0.8;" x="362.409449" xlink:href="#m06528bb534" y="315"/>
      </g>
     </g>
     <g id="text_5">
      <!-- Oct -->
      <g transform="translate(353.764136 329.598437)scale(0.1 -0.1)">
       <defs>
        <path d="M 39.40625 66.21875 
Q 28.65625 66.21875 22.328125 58.203125 
Q 16.015625 50.203125 16.015625 36.375 
Q 16.015625 22.609375 22.328125 14.59375 
Q 28.65625 6.59375 39.40625 6.59375 
Q 50.140625 6.59375 56.421875 14.59375 
Q 62.703125 22.609375 62.703125 36.375 
Q 62.703125 50.203125 56.421875 58.203125 
Q 50.140625 66.21875 39.40625 66.21875 
z
M 39.40625 74.21875 
Q 54.734375 74.21875 63.90625 63.9375 
Q 73.09375 53.65625 73.09375 36.375 
Q 73.09375 19.140625 63.90625 8.859375 
Q 54.734375 -1.421875 39.40625 -1.421875 
Q 24.03125 -1.421875 14.8125 8.828125 
Q 5.609375 19.09375 5.609375 36.375 
Q 5.609375 53.65625 14.8125 63.9375 
Q 24.03125 74.21875 39.40625 74.21875 
z
" id="DejaVuSans-79"/>
        <path d="M 48.78125 52.59375 
L 48.78125 44.1875 
Q 44.96875 46.296875 41.140625 47.34375 
Q 37.3125 48.390625 33.40625 48.390625 
Q 24.65625 48.390625 19.8125 42.84375 
Q 14.984375 37.3125 14.984375 27.296875 
Q 14.984375 17.28125 19.8125 11.734375 
Q 24.65625 6.203125 33.40625 6.203125 
Q 37.3125 6.203125 41.140625 7.25 
Q 44.96875 8.296875 48.78125 10.40625 
L 48.78125 2.09375 
Q 45.015625 0.34375 40.984375 -0.53125 
Q 36.96875 -1.421875 32.421875 -1.421875 
Q 20.0625 -1.421875 12.78125 6.34375 
Q 5.515625 14.109375 5.515625 27.296875 
Q 5.515625 40.671875 12.859375 48.328125 
Q 20.21875 56 33.015625 56 
Q 37.15625 56 41.109375 55.140625 
Q 45.0625 54.296875 48.78125 52.59375 
z
" id="DejaVuSans-99"/>
        <path d="M 18.3125 70.21875 
L 18.3125 54.6875 
L 36.8125 54.6875 
L 36.8125 47.703125 
L 18.3125 47.703125 
L 18.3125 18.015625 
Q 18.3125 11.328125 20.140625 9.421875 
Q 21.96875 7.515625 27.59375 7.515625 
L 36.8125 7.515625 
L 36.8125 0 
L 27.59375 0 
Q 17.1875 0 13.234375 3.875 
Q 9.28125 7.765625 9.28125 18.015625 
L 9.28125 47.703125 
L 2.6875 47.703125 
L 2.6875 54.6875 
L 9.28125 54.6875 
L 9.28125 70.21875 
z
" id="DejaVuSans-116"/>
       </defs>
       <use xlink:href="#DejaVuSans-79"/>
       <use x="78.710938" xlink:href="#DejaVuSans-99"/>
       <use x="133.691406" xlink:href="#DejaVuSans-116"/>
      </g>
     </g>
    </g>
    <g id="xtick_7">
     <g id="line2d_7">
      <g>
       <use style="stroke:#000000;stroke-width:0.8;" x="430.511811" xlink:href="#m06528bb534" y="315"/>
      </g>
     </g>
     <g id="text_6">
      <!-- Nov -->
      <g transform="translate(420.752436 329.598437)scale(0.1 -0.1)">
       <defs>
        <path d="M 9.8125 72.90625 
L 23.09375 72.90625 
L 55.421875 11.921875 
L 55.421875 72.90625 
L 64.984375 72.90625 
L 64.984375 0 
L 51.703125 0 
L 19.390625 60.984375 
L 19.390625 0 
L 9.8125 0 
z
" id="DejaVuSans-78"/>
        <path d="M 30.609375 48.390625 
Q 23.390625 48.390625 19.1875 42.75 
Q 14.984375 37.109375 14.984375 27.296875 
Q 14.984375 17.484375 19.15625 11.84375 
Q 23.34375 6.203125 30.609375 6.203125 
Q 37.796875 6.203125 41.984375 11.859375 
Q 46.1875 17.53125 46.1875 27.296875 
Q 46.1875 37.015625 41.984375 42.703125 
Q 37.796875 48.390625 30.609375 48.390625 
z
M 30.609375 56 
Q 42.328125 56 49.015625 48.375 
Q 55.71875 40.765625 55.71875 27.296875 
Q 55.71875 13.875 49.015625 6.21875 
Q 42.328125 -1.421875 30.609375 -1.421875 
Q 18.84375 -1.421875 12.171875 6.21875 
Q 5.515625 13.875 5.515625 27.296875 
Q 5.515625 40.765625 12.171875 48.375 
Q 18.84375 56 30.609375 56 
z
" id="DejaVuSans-111"/>
        <path d="M 2.984375 54.6875 
L 12.5 54.6875 
L 29.59375 8.796875 
L 46.6875 54.6875 
L 56.203125 54.6875 
L 35.6875 0 
L 23.484375 0 
z
" id="DejaVuSans-118"/>
       </defs>
       <use xlink:href="#DejaVuSans-78"/>
       <use x="74.804688" xlink:href="#DejaVuSans-111"/>
       <use x="135.986328" xlink:href="#DejaVuSans-118"/>
      </g>
     </g>
    </g>
    <g id="xtick_8">
     <g id="line2d_8">
      <g>
       <use style="stroke:#000000;stroke-width:0.8;" x="496.417323" xlink:href="#m06528bb534" y="315"/>
      </g>
     </g>
     <g id="text_7">
      <!-- Dec -->
      <g transform="translate(486.741542 329.598437)scale(0.1 -0.1)">
       <defs>
        <path d="M 19.671875 64.796875 
L 19.671875 8.109375 
L 31.59375 8.109375 
Q 46.6875 8.109375 53.6875 14.9375 
Q 60.6875 21.78125 60.6875 36.53125 
Q 60.6875 51.171875 53.6875 57.984375 
Q 46.6875 64.796875 31.59375 64.796875 
z
M 9.8125 72.90625 
L 30.078125 72.90625 
Q 51.265625 72.90625 61.171875 64.09375 
Q 71.09375 55.28125 71.09375 36.53125 
Q 71.09375 17.671875 61.125 8.828125 
Q 51.171875 0 30.078125 0 
L 9.8125 0 
z
" id="DejaVuSans-68"/>
       </defs>
       <use xlink:href="#DejaVuSans-68"/>
       <use x="77.001953" xlink:href="#DejaVuSans-101"/>
       <use x="138.525391" xlink:href="#DejaVuSans-99"/>
      </g>
     </g>
    </g>
    <g id="xtick_9">
     <g id="line2d_9">
      <g>
       <use style="stroke:#000000;stroke-width:0.8;" x="564.519685" xlink:href="#m06528bb534" y="315"/>
      </g>
     </g>
     <g id="text_8">
      <!-- Jan -->
      <g transform="translate(556.811873 329.598437)scale(0.1 -0.1)">
       <defs>
        <path d="M 34.28125 27.484375 
Q 23.390625 27.484375 19.1875 25 
Q 14.984375 22.515625 14.984375 16.5 
Q 14.984375 11.71875 18.140625 8.90625 
Q 21.296875 6.109375 26.703125 6.109375 
Q 34.1875 6.109375 38.703125 11.40625 
Q 43.21875 16.703125 43.21875 25.484375 
L 43.21875 27.484375 
z
M 52.203125 31.203125 
L 52.203125 0 
L 43.21875 0 
L 43.21875 8.296875 
Q 40.140625 3.328125 35.546875 0.953125 
Q 30.953125 -1.421875 24.3125 -1.421875 
Q 15.921875 -1.421875 10.953125 3.296875 
Q 6 8.015625 6 15.921875 
Q 6 25.140625 12.171875 29.828125 
Q 18.359375 34.515625 30.609375 34.515625 
L 43.21875 34.515625 
L 43.21875 35.40625 
Q 43.21875 41.609375 39.140625 45 
Q 35.0625 48.390625 27.6875 48.390625 
Q 23 48.390625 18.546875 47.265625 
Q 14.109375 46.140625 10.015625 43.890625 
L 10.015625 52.203125 
Q 14.9375 54.109375 19.578125 55.046875 
Q 24.21875 56 28.609375 56 
Q 40.484375 56 46.34375 49.84375 
Q 52.203125 43.703125 52.203125 31.203125 
z
" id="DejaVuSans-97"/>
       </defs>
       <use xlink:href="#DejaVuSans-74"/>
       <use x="29.492188" xlink:href="#DejaVuSans-97"/>
       <use x="90.771484" xlink:href="#DejaVuSans-110"/>
      </g>
      <!-- 2021 -->
      <g transform="translate(551.794685 340.79625)scale(0.1 -0.1)">
       <defs>
        <path d="M 19.1875 8.296875 
L 53.609375 8.296875 
L 53.609375 0 
L 7.328125 0 
L 7.328125 8.296875 
Q 12.9375 14.109375 22.625 23.890625 
Q 32.328125 33.6875 34.8125 36.53125 
Q 39.546875 41.84375 41.421875 45.53125 
Q 43.3125 49.21875 43.3125 52.78125 
Q 43.3125 58.59375 39.234375 62.25 
Q 35.15625 65.921875 28.609375 65.921875 
Q 23.96875 65.921875 18.8125 64.3125 
Q 13.671875 62.703125 7.8125 59.421875 
L 7.8125 69.390625 
Q 13.765625 71.78125 18.9375 73 
Q 24.125 74.21875 28.421875 74.21875 
Q 39.75 74.21875 46.484375 68.546875 
Q 53.21875 62.890625 53.21875 53.421875 
Q 53.21875 48.921875 51.53125 44.890625 
Q 49.859375 40.875 45.40625 35.40625 
Q 44.1875 33.984375 37.640625 27.21875 
Q 31.109375 20.453125 19.1875 8.296875 
z
" id="DejaVuSans-50"/>
        <path d="M 31.78125 66.40625 
Q 24.171875 66.40625 20.328125 58.90625 
Q 16.5 51.421875 16.5 36.375 
Q 16.5 21.390625 20.328125 13.890625 
Q 24.171875 6.390625 31.78125 6.390625 
Q 39.453125 6.390625 43.28125 13.890625 
Q 47.125 21.390625 47.125 36.375 
Q 47.125 51.421875 43.28125 58.90625 
Q 39.453125 66.40625 31.78125 66.40625 
z
M 31.78125 74.21875 
Q 44.046875 74.21875 50.515625 64.515625 
Q 56.984375 54.828125 56.984375 36.375 
Q 56.984375 17.96875 50.515625 8.265625 
Q 44.046875 -1.421875 31.78125 -1.421875 
Q 19.53125 -1.421875 13.0625 8.265625 
Q 6.59375 17.96875 6.59375 36.375 
Q 6.59375 54.828125 13.0625 64.515625 
Q 19.53125 74.21875 31.78125 74.21875 
z
" id="DejaVuSans-48"/>
        <path d="M 12.40625 8.296875 
L 28.515625 8.296875 
L 28.515625 63.921875 
L 10.984375 60.40625 
L 10.984375 69.390625 
L 28.421875 72.90625 
L 38.28125 72.90625 
L 38.28125 8.296875 
L 54.390625 8.296875 
L 54.390625 0 
L 12.40625 0 
z
" id="DejaVuSans-49"/>
       </defs>
       <use xlink:href="#DejaVuSans-50"/>
       <use x="63.623047" xlink:href="#DejaVuSans-48"/>
       <use x="127.246094" xlink:href="#DejaVuSans-50"/>
       <use x="190.869141" xlink:href="#DejaVuSans-49"/>
      </g>
     </g>
    </g>
    <g id="xtick_10">
     <g id="line2d_10">
      <g>
       <use style="stroke:#000000;stroke-width:0.8;" x="632.622047" xlink:href="#m06528bb534" y="315"/>
      </g>
     </g>
     <g id="text_9">
      <!-- Feb -->
      <g transform="translate(623.770485 329.598437)scale(0.1 -0.1)">
       <defs>
        <path d="M 9.8125 72.90625 
L 51.703125 72.90625 
L 51.703125 64.59375 
L 19.671875 64.59375 
L 19.671875 43.109375 
L 48.578125 43.109375 
L 48.578125 34.8125 
L 19.671875 34.8125 
L 19.671875 0 
L 9.8125 0 
z
" id="DejaVuSans-70"/>
        <path d="M 48.6875 27.296875 
Q 48.6875 37.203125 44.609375 42.84375 
Q 40.53125 48.484375 33.40625 48.484375 
Q 26.265625 48.484375 22.1875 42.84375 
Q 18.109375 37.203125 18.109375 27.296875 
Q 18.109375 17.390625 22.1875 11.75 
Q 26.265625 6.109375 33.40625 6.109375 
Q 40.53125 6.109375 44.609375 11.75 
Q 48.6875 17.390625 48.6875 27.296875 
z
M 18.109375 46.390625 
Q 20.953125 51.265625 25.265625 53.625 
Q 29.59375 56 35.59375 56 
Q 45.5625 56 51.78125 48.09375 
Q 58.015625 40.1875 58.015625 27.296875 
Q 58.015625 14.40625 51.78125 6.484375 
Q 45.5625 -1.421875 35.59375 -1.421875 
Q 29.59375 -1.421875 25.265625 0.953125 
Q 20.953125 3.328125 18.109375 8.203125 
L 18.109375 0 
L 9.078125 0 
L 9.078125 75.984375 
L 18.109375 75.984375 
z
" id="DejaVuSans-98"/>
       </defs>
       <use xlink:href="#DejaVuSans-70"/>
       <use x="52.019531" xlink:href="#DejaVuSans-101"/>
       <use x="113.542969" xlink:href="#DejaVuSans-98"/>
      </g>
     </g>
    </g>
    <g id="xtick_11">
     <g id="line2d_11">
      <g>
       <use style="stroke:#000000;stroke-width:0.8;" x="648" xlink:href="#m06528bb534" y="315"/>
      </g>
     </g>
    </g>
    <g id="xtick_12">
     <g id="line2d_12">
      <defs>
       <path d="M 0 0 
L 0 2 
" id="m2798a0a4e5" style="stroke:#000000;stroke-width:0.6;"/>
      </defs>
      <g>
       <use style="stroke:#000000;stroke-width:0.6;" x="109.771654" xlink:href="#m2798a0a4e5" y="315"/>
      </g>
     </g>
    </g>
    <g id="xtick_13">
     <g id="line2d_13">
      <g>
       <use style="stroke:#000000;stroke-width:0.6;" x="125.149606" xlink:href="#m2798a0a4e5" y="315"/>
      </g>
     </g>
    </g>
    <g id="xtick_14">
     <g id="line2d_14">
      <g>
       <use style="stroke:#000000;stroke-width:0.6;" x="140.527559" xlink:href="#m2798a0a4e5" y="315"/>
      </g>
     </g>
    </g>
    <g id="xtick_15">
     <g id="line2d_15">
      <g>
       <use style="stroke:#000000;stroke-width:0.6;" x="155.905512" xlink:href="#m2798a0a4e5" y="315"/>
      </g>
     </g>
    </g>
    <g id="xtick_16">
     <g id="line2d_16">
      <g>
       <use style="stroke:#000000;stroke-width:0.6;" x="171.283465" xlink:href="#m2798a0a4e5" y="315"/>
      </g>
     </g>
    </g>
    <g id="xtick_17">
     <g id="line2d_17">
      <g>
       <use style="stroke:#000000;stroke-width:0.6;" x="186.661417" xlink:href="#m2798a0a4e5" y="315"/>
      </g>
     </g>
    </g>
    <g id="xtick_18">
     <g id="line2d_18">
      <g>
       <use style="stroke:#000000;stroke-width:0.6;" x="202.03937" xlink:href="#m2798a0a4e5" y="315"/>
      </g>
     </g>
    </g>
    <g id="xtick_19">
     <g id="line2d_19">
      <g>
       <use style="stroke:#000000;stroke-width:0.6;" x="217.417323" xlink:href="#m2798a0a4e5" y="315"/>
      </g>
     </g>
    </g>
    <g id="xtick_20">
     <g id="line2d_20">
      <g>
       <use style="stroke:#000000;stroke-width:0.6;" x="232.795276" xlink:href="#m2798a0a4e5" y="315"/>
      </g>
     </g>
    </g>
    <g id="xtick_21">
     <g id="line2d_21">
      <g>
       <use style="stroke:#000000;stroke-width:0.6;" x="248.173228" xlink:href="#m2798a0a4e5" y="315"/>
      </g>
     </g>
    </g>
    <g id="xtick_22">
     <g id="line2d_22">
      <g>
       <use style="stroke:#000000;stroke-width:0.6;" x="263.551181" xlink:href="#m2798a0a4e5" y="315"/>
      </g>
     </g>
    </g>
    <g id="xtick_23">
     <g id="line2d_23">
      <g>
       <use style="stroke:#000000;stroke-width:0.6;" x="278.929134" xlink:href="#m2798a0a4e5" y="315"/>
      </g>
     </g>
    </g>
    <g id="xtick_24">
     <g id="line2d_24">
      <g>
       <use style="stroke:#000000;stroke-width:0.6;" x="294.307087" xlink:href="#m2798a0a4e5" y="315"/>
      </g>
     </g>
    </g>
    <g id="xtick_25">
     <g id="line2d_25">
      <g>
       <use style="stroke:#000000;stroke-width:0.6;" x="309.685039" xlink:href="#m2798a0a4e5" y="315"/>
      </g>
     </g>
    </g>
    <g id="xtick_26">
     <g id="line2d_26">
      <g>
       <use style="stroke:#000000;stroke-width:0.6;" x="325.062992" xlink:href="#m2798a0a4e5" y="315"/>
      </g>
     </g>
    </g>
    <g id="xtick_27">
     <g id="line2d_27">
      <g>
       <use style="stroke:#000000;stroke-width:0.6;" x="340.440945" xlink:href="#m2798a0a4e5" y="315"/>
      </g>
     </g>
    </g>
    <g id="xtick_28">
     <g id="line2d_28">
      <g>
       <use style="stroke:#000000;stroke-width:0.6;" x="355.818898" xlink:href="#m2798a0a4e5" y="315"/>
      </g>
     </g>
    </g>
    <g id="xtick_29">
     <g id="line2d_29">
      <g>
       <use style="stroke:#000000;stroke-width:0.6;" x="371.19685" xlink:href="#m2798a0a4e5" y="315"/>
      </g>
     </g>
    </g>
    <g id="xtick_30">
     <g id="line2d_30">
      <g>
       <use style="stroke:#000000;stroke-width:0.6;" x="386.574803" xlink:href="#m2798a0a4e5" y="315"/>
      </g>
     </g>
    </g>
    <g id="xtick_31">
     <g id="line2d_31">
      <g>
       <use style="stroke:#000000;stroke-width:0.6;" x="401.952756" xlink:href="#m2798a0a4e5" y="315"/>
      </g>
     </g>
    </g>
    <g id="xtick_32">
     <g id="line2d_32">
      <g>
       <use style="stroke:#000000;stroke-width:0.6;" x="417.330709" xlink:href="#m2798a0a4e5" y="315"/>
      </g>
     </g>
    </g>
    <g id="xtick_33">
     <g id="line2d_33">
      <g>
       <use style="stroke:#000000;stroke-width:0.6;" x="432.708661" xlink:href="#m2798a0a4e5" y="315"/>
      </g>
     </g>
    </g>
    <g id="xtick_34">
     <g id="line2d_34">
      <g>
       <use style="stroke:#000000;stroke-width:0.6;" x="448.086614" xlink:href="#m2798a0a4e5" y="315"/>
      </g>
     </g>
    </g>
    <g id="xtick_35">
     <g id="line2d_35">
      <g>
       <use style="stroke:#000000;stroke-width:0.6;" x="463.464567" xlink:href="#m2798a0a4e5" y="315"/>
      </g>
     </g>
    </g>
    <g id="xtick_36">
     <g id="line2d_36">
      <g>
       <use style="stroke:#000000;stroke-width:0.6;" x="478.84252" xlink:href="#m2798a0a4e5" y="315"/>
      </g>
     </g>
    </g>
    <g id="xtick_37">
     <g id="line2d_37">
      <g>
       <use style="stroke:#000000;stroke-width:0.6;" x="494.220472" xlink:href="#m2798a0a4e5" y="315"/>
      </g>
     </g>
    </g>
    <g id="xtick_38">
     <g id="line2d_38">
      <g>
       <use style="stroke:#000000;stroke-width:0.6;" x="509.598425" xlink:href="#m2798a0a4e5" y="315"/>
      </g>
     </g>
    </g>
    <g id="xtick_39">
     <g id="line2d_39">
      <g>
       <use style="stroke:#000000;stroke-width:0.6;" x="524.976378" xlink:href="#m2798a0a4e5" y="315"/>
      </g>
     </g>
    </g>
    <g id="xtick_40">
     <g id="line2d_40">
      <g>
       <use style="stroke:#000000;stroke-width:0.6;" x="540.354331" xlink:href="#m2798a0a4e5" y="315"/>
      </g>
     </g>
    </g>
    <g id="xtick_41">
     <g id="line2d_41">
      <g>
       <use style="stroke:#000000;stroke-width:0.6;" x="555.732283" xlink:href="#m2798a0a4e5" y="315"/>
      </g>
     </g>
    </g>
    <g id="xtick_42">
     <g id="line2d_42">
      <g>
       <use style="stroke:#000000;stroke-width:0.6;" x="571.110236" xlink:href="#m2798a0a4e5" y="315"/>
      </g>
     </g>
    </g>
    <g id="xtick_43">
     <g id="line2d_43">
      <g>
       <use style="stroke:#000000;stroke-width:0.6;" x="586.488189" xlink:href="#m2798a0a4e5" y="315"/>
      </g>
     </g>
    </g>
    <g id="xtick_44">
     <g id="line2d_44">
      <g>
       <use style="stroke:#000000;stroke-width:0.6;" x="601.866142" xlink:href="#m2798a0a4e5" y="315"/>
      </g>
     </g>
    </g>
    <g id="xtick_45">
     <g id="line2d_45">
      <g>
       <use style="stroke:#000000;stroke-width:0.6;" x="617.244094" xlink:href="#m2798a0a4e5" y="315"/>
      </g>
     </g>
    </g>
    <g id="text_10">
     <!-- date -->
     <g transform="translate(357.725 354.474375)scale(0.1 -0.1)">
      <defs>
       <path d="M 45.40625 46.390625 
L 45.40625 75.984375 
L 54.390625 75.984375 
L 54.390625 0 
L 45.40625 0 
L 45.40625 8.203125 
Q 42.578125 3.328125 38.25 0.953125 
Q 33.9375 -1.421875 27.875 -1.421875 
Q 17.96875 -1.421875 11.734375 6.484375 
Q 5.515625 14.40625 5.515625 27.296875 
Q 5.515625 40.1875 11.734375 48.09375 
Q 17.96875 56 27.875 56 
Q 33.9375 56 38.25 53.625 
Q 42.578125 51.265625 45.40625 46.390625 
z
M 14.796875 27.296875 
Q 14.796875 17.390625 18.875 11.75 
Q 22.953125 6.109375 30.078125 6.109375 
Q 37.203125 6.109375 41.296875 11.75 
Q 45.40625 17.390625 45.40625 27.296875 
Q 45.40625 37.203125 41.296875 42.84375 
Q 37.203125 48.484375 30.078125 48.484375 
Q 22.953125 48.484375 18.875 42.84375 
Q 14.796875 37.203125 14.796875 27.296875 
z
" id="DejaVuSans-100"/>
      </defs>
      <use xlink:href="#DejaVuSans-100"/>
      <use x="63.476562" xlink:href="#DejaVuSans-97"/>
      <use x="124.755859" xlink:href="#DejaVuSans-116"/>
      <use x="163.964844" xlink:href="#DejaVuSans-101"/>
     </g>
    </g>
   </g>
   <g id="matplotlib.axis_2">
    <g id="ytick_1">
     <g id="line2d_46">
      <path clip-path="url(#p4d147b29e0)" d="M 90 304.764785 
L 648 304.764785 
" style="fill:none;stroke:#b0b0b0;stroke-dasharray:0.8,1.32;stroke-dashoffset:0;stroke-width:0.8;"/>
     </g>
     <g id="line2d_47">
      <defs>
       <path d="M 0 0 
L -3.5 0 
" id="mcf79098a0f" style="stroke:#000000;stroke-width:0.8;"/>
      </defs>
      <g>
       <use style="stroke:#000000;stroke-width:0.8;" x="90" xlink:href="#mcf79098a0f" y="304.764785"/>
      </g>
     </g>
     <g id="text_11">
      <!-- 0.4 -->
      <g transform="translate(67.096875 308.564004)scale(0.1 -0.1)">
       <defs>
        <path d="M 10.6875 12.40625 
L 21 12.40625 
L 21 0 
L 10.6875 0 
z
" id="DejaVuSans-46"/>
        <path d="M 37.796875 64.3125 
L 12.890625 25.390625 
L 37.796875 25.390625 
z
M 35.203125 72.90625 
L 47.609375 72.90625 
L 47.609375 25.390625 
L 58.015625 25.390625 
L 58.015625 17.1875 
L 47.609375 17.1875 
L 47.609375 0 
L 37.796875 0 
L 37.796875 17.1875 
L 4.890625 17.1875 
L 4.890625 26.703125 
z
" id="DejaVuSans-52"/>
       </defs>
       <use xlink:href="#DejaVuSans-48"/>
       <use x="63.623047" xlink:href="#DejaVuSans-46"/>
       <use x="95.410156" xlink:href="#DejaVuSans-52"/>
      </g>
     </g>
    </g>
    <g id="ytick_2">
     <g id="line2d_48">
      <path clip-path="url(#p4d147b29e0)" d="M 90 271.994731 
L 648 271.994731 
" style="fill:none;stroke:#b0b0b0;stroke-dasharray:0.8,1.32;stroke-dashoffset:0;stroke-width:0.8;"/>
     </g>
     <g id="line2d_49">
      <g>
       <use style="stroke:#000000;stroke-width:0.8;" x="90" xlink:href="#mcf79098a0f" y="271.994731"/>
      </g>
     </g>
     <g id="text_12">
      <!-- 0.6 -->
      <g transform="translate(67.096875 275.793949)scale(0.1 -0.1)">
       <defs>
        <path d="M 33.015625 40.375 
Q 26.375 40.375 22.484375 35.828125 
Q 18.609375 31.296875 18.609375 23.390625 
Q 18.609375 15.53125 22.484375 10.953125 
Q 26.375 6.390625 33.015625 6.390625 
Q 39.65625 6.390625 43.53125 10.953125 
Q 47.40625 15.53125 47.40625 23.390625 
Q 47.40625 31.296875 43.53125 35.828125 
Q 39.65625 40.375 33.015625 40.375 
z
M 52.59375 71.296875 
L 52.59375 62.3125 
Q 48.875 64.0625 45.09375 64.984375 
Q 41.3125 65.921875 37.59375 65.921875 
Q 27.828125 65.921875 22.671875 59.328125 
Q 17.53125 52.734375 16.796875 39.40625 
Q 19.671875 43.65625 24.015625 45.921875 
Q 28.375 48.1875 33.59375 48.1875 
Q 44.578125 48.1875 50.953125 41.515625 
Q 57.328125 34.859375 57.328125 23.390625 
Q 57.328125 12.15625 50.6875 5.359375 
Q 44.046875 -1.421875 33.015625 -1.421875 
Q 20.359375 -1.421875 13.671875 8.265625 
Q 6.984375 17.96875 6.984375 36.375 
Q 6.984375 53.65625 15.1875 63.9375 
Q 23.390625 74.21875 37.203125 74.21875 
Q 40.921875 74.21875 44.703125 73.484375 
Q 48.484375 72.75 52.59375 71.296875 
z
" id="DejaVuSans-54"/>
       </defs>
       <use xlink:href="#DejaVuSans-48"/>
       <use x="63.623047" xlink:href="#DejaVuSans-46"/>
       <use x="95.410156" xlink:href="#DejaVuSans-54"/>
      </g>
     </g>
    </g>
    <g id="ytick_3">
     <g id="line2d_50">
      <path clip-path="url(#p4d147b29e0)" d="M 90 239.224676 
L 648 239.224676 
" style="fill:none;stroke:#b0b0b0;stroke-dasharray:0.8,1.32;stroke-dashoffset:0;stroke-width:0.8;"/>
     </g>
     <g id="line2d_51">
      <g>
       <use style="stroke:#000000;stroke-width:0.8;" x="90" xlink:href="#mcf79098a0f" y="239.224676"/>
      </g>
     </g>
     <g id="text_13">
      <!-- 0.8 -->
      <g transform="translate(67.096875 243.023895)scale(0.1 -0.1)">
       <defs>
        <path d="M 31.78125 34.625 
Q 24.75 34.625 20.71875 30.859375 
Q 16.703125 27.09375 16.703125 20.515625 
Q 16.703125 13.921875 20.71875 10.15625 
Q 24.75 6.390625 31.78125 6.390625 
Q 38.8125 6.390625 42.859375 10.171875 
Q 46.921875 13.96875 46.921875 20.515625 
Q 46.921875 27.09375 42.890625 30.859375 
Q 38.875 34.625 31.78125 34.625 
z
M 21.921875 38.8125 
Q 15.578125 40.375 12.03125 44.71875 
Q 8.5 49.078125 8.5 55.328125 
Q 8.5 64.0625 14.71875 69.140625 
Q 20.953125 74.21875 31.78125 74.21875 
Q 42.671875 74.21875 48.875 69.140625 
Q 55.078125 64.0625 55.078125 55.328125 
Q 55.078125 49.078125 51.53125 44.71875 
Q 48 40.375 41.703125 38.8125 
Q 48.828125 37.15625 52.796875 32.3125 
Q 56.78125 27.484375 56.78125 20.515625 
Q 56.78125 9.90625 50.3125 4.234375 
Q 43.84375 -1.421875 31.78125 -1.421875 
Q 19.734375 -1.421875 13.25 4.234375 
Q 6.78125 9.90625 6.78125 20.515625 
Q 6.78125 27.484375 10.78125 32.3125 
Q 14.796875 37.15625 21.921875 38.8125 
z
M 18.3125 54.390625 
Q 18.3125 48.734375 21.84375 45.5625 
Q 25.390625 42.390625 31.78125 42.390625 
Q 38.140625 42.390625 41.71875 45.5625 
Q 45.3125 48.734375 45.3125 54.390625 
Q 45.3125 60.0625 41.71875 63.234375 
Q 38.140625 66.40625 31.78125 66.40625 
Q 25.390625 66.40625 21.84375 63.234375 
Q 18.3125 60.0625 18.3125 54.390625 
z
" id="DejaVuSans-56"/>
       </defs>
       <use xlink:href="#DejaVuSans-48"/>
       <use x="63.623047" xlink:href="#DejaVuSans-46"/>
       <use x="95.410156" xlink:href="#DejaVuSans-56"/>
      </g>
     </g>
    </g>
    <g id="ytick_4">
     <g id="line2d_52">
      <path clip-path="url(#p4d147b29e0)" d="M 90 206.454621 
L 648 206.454621 
" style="fill:none;stroke:#b0b0b0;stroke-dasharray:0.8,1.32;stroke-dashoffset:0;stroke-width:0.8;"/>
     </g>
     <g id="line2d_53">
      <g>
       <use style="stroke:#000000;stroke-width:0.8;" x="90" xlink:href="#mcf79098a0f" y="206.454621"/>
      </g>
     </g>
     <g id="text_14">
      <!-- 1.0 -->
      <g transform="translate(67.096875 210.25384)scale(0.1 -0.1)">
       <use xlink:href="#DejaVuSans-49"/>
       <use x="63.623047" xlink:href="#DejaVuSans-46"/>
       <use x="95.410156" xlink:href="#DejaVuSans-48"/>
      </g>
     </g>
    </g>
    <g id="ytick_5">
     <g id="line2d_54">
      <path clip-path="url(#p4d147b29e0)" d="M 90 173.684567 
L 648 173.684567 
" style="fill:none;stroke:#b0b0b0;stroke-dasharray:0.8,1.32;stroke-dashoffset:0;stroke-width:0.8;"/>
     </g>
     <g id="line2d_55">
      <g>
       <use style="stroke:#000000;stroke-width:0.8;" x="90" xlink:href="#mcf79098a0f" y="173.684567"/>
      </g>
     </g>
     <g id="text_15">
      <!-- 1.2 -->
      <g transform="translate(67.096875 177.483785)scale(0.1 -0.1)">
       <use xlink:href="#DejaVuSans-49"/>
       <use x="63.623047" xlink:href="#DejaVuSans-46"/>
       <use x="95.410156" xlink:href="#DejaVuSans-50"/>
      </g>
     </g>
    </g>
    <g id="ytick_6">
     <g id="line2d_56">
      <path clip-path="url(#p4d147b29e0)" d="M 90 140.914512 
L 648 140.914512 
" style="fill:none;stroke:#b0b0b0;stroke-dasharray:0.8,1.32;stroke-dashoffset:0;stroke-width:0.8;"/>
     </g>
     <g id="line2d_57">
      <g>
       <use style="stroke:#000000;stroke-width:0.8;" x="90" xlink:href="#mcf79098a0f" y="140.914512"/>
      </g>
     </g>
     <g id="text_16">
      <!-- 1.4 -->
      <g transform="translate(67.096875 144.713731)scale(0.1 -0.1)">
       <use xlink:href="#DejaVuSans-49"/>
       <use x="63.623047" xlink:href="#DejaVuSans-46"/>
       <use x="95.410156" xlink:href="#DejaVuSans-52"/>
      </g>
     </g>
    </g>
    <g id="ytick_7">
     <g id="line2d_58">
      <path clip-path="url(#p4d147b29e0)" d="M 90 108.144457 
L 648 108.144457 
" style="fill:none;stroke:#b0b0b0;stroke-dasharray:0.8,1.32;stroke-dashoffset:0;stroke-width:0.8;"/>
     </g>
     <g id="line2d_59">
      <g>
       <use style="stroke:#000000;stroke-width:0.8;" x="90" xlink:href="#mcf79098a0f" y="108.144457"/>
      </g>
     </g>
     <g id="text_17">
      <!-- 1.6 -->
      <g transform="translate(67.096875 111.943676)scale(0.1 -0.1)">
       <use xlink:href="#DejaVuSans-49"/>
       <use x="63.623047" xlink:href="#DejaVuSans-46"/>
       <use x="95.410156" xlink:href="#DejaVuSans-54"/>
      </g>
     </g>
    </g>
    <g id="ytick_8">
     <g id="line2d_60">
      <path clip-path="url(#p4d147b29e0)" d="M 90 75.374403 
L 648 75.374403 
" style="fill:none;stroke:#b0b0b0;stroke-dasharray:0.8,1.32;stroke-dashoffset:0;stroke-width:0.8;"/>
     </g>
     <g id="line2d_61">
      <g>
       <use style="stroke:#000000;stroke-width:0.8;" x="90" xlink:href="#mcf79098a0f" y="75.374403"/>
      </g>
     </g>
     <g id="text_18">
      <!-- 1.8 -->
      <g transform="translate(67.096875 79.173621)scale(0.1 -0.1)">
       <use xlink:href="#DejaVuSans-49"/>
       <use x="63.623047" xlink:href="#DejaVuSans-46"/>
       <use x="95.410156" xlink:href="#DejaVuSans-56"/>
      </g>
     </g>
    </g>
   </g>
   <g id="line2d_62">
    <path clip-path="url(#p4d147b29e0)" d="M 90 132.973328 
L 92.19685 132.676807 
L 94.393701 131.893198 
L 96.590551 130.115742 
L 98.787402 129.844626 
L 100.984252 125.927224 
L 103.181102 124.398637 
L 105.377953 123.77655 
L 107.574803 124.059305 
L 109.771654 122.745904 
L 111.968504 119.495788 
L 114.165354 119.528923 
L 116.362205 118.836017 
L 118.559055 118.684168 
L 120.755906 119.919796 
L 122.952756 121.727491 
L 125.149606 120.202562 
L 127.346457 120.67806 
L 129.543307 123.322864 
L 131.740157 127.155742 
L 133.937008 128.973982 
L 136.133858 128.393506 
L 138.330709 130.443895 
L 140.527559 132.697745 
L 142.724409 133.786041 
L 144.92126 135.429488 
L 147.11811 138.07708 
L 149.314961 142.251102 
L 155.905512 146.159407 
L 158.102362 149.34636 
L 160.299213 153.371542 
L 162.496063 155.406604 
L 164.692913 158.993325 
L 166.889764 160.537646 
L 169.086614 162.401445 
L 171.283465 167.507785 
L 173.480315 170.215561 
L 175.677165 171.170924 
L 177.874016 173.578722 
L 180.070866 176.6147 
L 182.267717 178.961103 
L 184.464567 180.835827 
L 186.661417 184.060596 
L 188.858268 186.673985 
L 191.055118 188.8101 
L 195.448819 191.077956 
L 197.645669 194.309301 
L 199.84252 196.453069 
L 202.03937 197.750283 
L 204.23622 199.268589 
L 206.433071 201.082906 
L 208.629921 203.572761 
L 210.826772 204.695188 
L 213.023622 204.291221 
L 215.220472 207.121576 
L 217.417323 207.177487 
L 219.614173 207.582088 
L 221.811024 206.634688 
L 224.007874 205.383294 
L 226.204724 205.096906 
L 228.401575 201.566223 
L 230.598425 197.821908 
L 234.992126 191.36481 
L 237.188976 187.568754 
L 239.385827 184.596879 
L 245.976378 172.016952 
L 248.173228 168.196758 
L 250.370079 166.128384 
L 252.566929 162.947181 
L 254.76378 162.214202 
L 256.96063 160.205918 
L 259.15748 159.442465 
L 261.354331 157.79096 
L 265.748031 158.593638 
L 267.944882 156.063901 
L 270.141732 157.09399 
L 272.338583 157.009615 
L 274.535433 157.15592 
L 276.732283 155.755069 
L 278.929134 156.850549 
L 281.125984 155.421333 
L 283.322835 154.141146 
L 285.519685 155.155956 
L 287.716535 157.459502 
L 289.913386 158.525644 
L 296.503937 163.043707 
L 298.700787 165.683359 
L 300.897638 167.838312 
L 303.094488 172.393971 
L 305.291339 176.519522 
L 307.488189 179.882894 
L 309.685039 184.568526 
L 311.88189 190.443886 
L 316.275591 200.987676 
L 318.472441 207.965179 
L 320.669291 213.272172 
L 322.866142 220.994419 
L 327.259843 231.789794 
L 329.456693 239.828771 
L 331.653543 246.09224 
L 333.850394 251.344874 
L 336.047244 256.2651 
L 338.244094 260.649443 
L 340.440945 264.434432 
L 342.637795 268.807639 
L 347.031496 276.133157 
L 349.228346 279.323895 
L 351.425197 280.987578 
L 353.622047 282.36775 
L 355.818898 283.527295 
L 358.015748 283.840088 
L 362.409449 282.555302 
L 364.606299 282.160576 
L 366.80315 281.394477 
L 369 279.921941 
L 371.19685 277.959108 
L 373.393701 275.238375 
L 375.590551 272.952043 
L 377.787402 270.068571 
L 379.984252 266.8717 
L 382.181102 263.026889 
L 384.377953 259.514919 
L 388.771654 250.645844 
L 390.968504 246.674171 
L 393.165354 241.085439 
L 395.362205 236.91638 
L 397.559055 231.266813 
L 399.755906 226.801883 
L 401.952756 221.910767 
L 404.149606 216.522531 
L 408.543307 208.21477 
L 410.740157 204.643819 
L 415.133858 198.78788 
L 419.527559 190.21583 
L 421.724409 188.158979 
L 423.92126 185.590979 
L 426.11811 183.277813 
L 430.511811 177.337949 
L 432.708661 171.243184 
L 434.905512 168.882889 
L 439.299213 162.053687 
L 441.496063 156.693475 
L 443.692913 153.205508 
L 445.889764 149.466891 
L 448.086614 147.191405 
L 450.283465 144.170915 
L 452.480315 143.560727 
L 456.874016 144.339329 
L 459.070866 146.163451 
L 461.267717 146.178245 
L 463.464567 149.531078 
L 465.661417 151.80556 
L 467.858268 156.855071 
L 470.055118 158.882474 
L 472.251969 162.033764 
L 474.448819 164.419126 
L 476.645669 164.299595 
L 478.84252 164.52159 
L 481.03937 165.827988 
L 483.23622 166.092928 
L 485.433071 165.250343 
L 487.629921 162.965543 
L 489.826772 161.316148 
L 492.023622 160.427522 
L 496.417323 159.235103 
L 498.614173 156.004979 
L 503.007874 152.72846 
L 505.204724 151.474599 
L 509.598425 149.325374 
L 511.795276 148.914244 
L 513.992126 147.572252 
L 518.385827 151.567813 
L 520.582677 153.223833 
L 522.779528 154.468853 
L 524.976378 157.891199 
L 527.173228 158.775369 
L 529.370079 160.900476 
L 531.566929 163.630719 
L 533.76378 165.709017 
L 535.96063 168.226803 
L 538.15748 169.529116 
L 540.354331 171.477614 
L 542.551181 174.263124 
L 544.748031 176.613974 
L 546.944882 177.934053 
L 551.338583 181.460196 
L 553.535433 182.85623 
L 555.732283 184.692371 
L 557.929134 185.91474 
L 560.125984 188.038982 
L 562.322835 188.231095 
L 564.519685 188.941605 
L 571.110236 193.167821 
L 575.503937 197.023011 
L 577.700787 197.516488 
L 579.897638 199.627702 
L 582.094488 199.305197 
L 584.291339 200.009152 
L 586.488189 201.791429 
L 588.685039 201.768171 
L 590.88189 202.443138 
L 593.07874 205.719625 
L 595.275591 207.253874 
L 597.472441 208.410012 
L 599.669291 210.962632 
L 601.866142 213.045602 
L 604.062992 216.321143 
L 606.259843 217.243356 
L 610.653543 222.776178 
L 612.850394 225.109193 
L 617.244094 231.008667 
L 619.440945 232.495624 
L 623.834646 238.821843 
L 626.031496 239.927428 
L 628.228346 241.373891 
L 632.622047 243.894396 
L 634.818898 247.012341 
L 637.015748 247.006187 
L 639.212598 247.905149 
L 641.409449 248.212683 
L 645.80315 248.421094 
L 648 248.114623 
L 650.19685 249.445327 
L 652.393701 250.053878 
L 654.590551 249.192668 
L 656.787402 249.527361 
L 658.984252 250.367668 
L 661.181102 250.977738 
L 663.377953 250.292809 
L 663.377953 250.292809 
" style="fill:none;stroke:#fc997a;stroke-linecap:square;stroke-width:1.5;"/>
   </g>
   <g id="line2d_63">
    <path clip-path="url(#p4d147b29e0)" d="M 90 206.454621 
L 648 206.454621 
" style="fill:none;stroke:#000000;stroke-dasharray:3.7,1.6;stroke-dashoffset:0;"/>
   </g>
   <g id="patch_3">
    <path d="M 90 315 
L 90 43.2 
" style="fill:none;stroke:#000000;stroke-linecap:square;stroke-linejoin:miter;stroke-width:0.8;"/>
   </g>
   <g id="patch_4">
    <path d="M 648 315 
L 648 43.2 
" style="fill:none;stroke:#000000;stroke-linecap:square;stroke-linejoin:miter;stroke-width:0.8;"/>
   </g>
   <g id="patch_5">
    <path d="M 90 315 
L 648 315 
" style="fill:none;stroke:#000000;stroke-linecap:square;stroke-linejoin:miter;stroke-width:0.8;"/>
   </g>
   <g id="patch_6">
    <path d="M 90 43.2 
L 648 43.2 
" style="fill:none;stroke:#000000;stroke-linecap:square;stroke-linejoin:miter;stroke-width:0.8;"/>
   </g>
   <g id="text_19">
    <!-- 73   $R_t$ -->
    <g transform="translate(330.18 37.2)scale(0.12 -0.12)">
     <defs>
      <path d="M 8.203125 72.90625 
L 55.078125 72.90625 
L 55.078125 68.703125 
L 28.609375 0 
L 18.3125 0 
L 43.21875 64.59375 
L 8.203125 64.59375 
z
" id="DejaVuSans-55"/>
      <path d="M 40.578125 39.3125 
Q 47.65625 37.796875 51.625 33 
Q 55.609375 28.21875 55.609375 21.1875 
Q 55.609375 10.40625 48.1875 4.484375 
Q 40.765625 -1.421875 27.09375 -1.421875 
Q 22.515625 -1.421875 17.65625 -0.515625 
Q 12.796875 0.390625 7.625 2.203125 
L 7.625 11.71875 
Q 11.71875 9.328125 16.59375 8.109375 
Q 21.484375 6.890625 26.8125 6.890625 
Q 36.078125 6.890625 40.9375 10.546875 
Q 45.796875 14.203125 45.796875 21.1875 
Q 45.796875 27.640625 41.28125 31.265625 
Q 36.765625 34.90625 28.71875 34.90625 
L 20.21875 34.90625 
L 20.21875 43.015625 
L 29.109375 43.015625 
Q 36.375 43.015625 40.234375 45.921875 
Q 44.09375 48.828125 44.09375 54.296875 
Q 44.09375 59.90625 40.109375 62.90625 
Q 36.140625 65.921875 28.71875 65.921875 
Q 24.65625 65.921875 20.015625 65.03125 
Q 15.375 64.15625 9.8125 62.3125 
L 9.8125 71.09375 
Q 15.4375 72.65625 20.34375 73.4375 
Q 25.25 74.21875 29.59375 74.21875 
Q 40.828125 74.21875 47.359375 69.109375 
Q 53.90625 64.015625 53.90625 55.328125 
Q 53.90625 49.265625 50.4375 45.09375 
Q 46.96875 40.921875 40.578125 39.3125 
z
" id="DejaVuSans-51"/>
      <path id="DejaVuSans-32"/>
      <path d="M 57.28125 0 
L 9.078125 0 
L 9.078125 54.6875 
L 32.671875 54.6875 
Q 39.546875 54.6875 44.234375 53.265625 
Q 48.921875 51.859375 51.828125 48.703125 
Q 54.734375 45.5625 56 40.9375 
Q 57.28125 36.328125 57.28125 29.59375 
z
M 18.171875 47.703125 
L 18.171875 6.984375 
L 48.1875 6.984375 
L 48.1875 30.90625 
Q 48.1875 40.578125 45.015625 44.140625 
Q 41.84375 47.703125 32.8125 47.703125 
z
" id="DejaVuSans-1501"/>
      <path d="M 47.359375 27.828125 
L 47.359375 0 
L 38.28125 0 
L 38.28125 27.828125 
Q 38.28125 31.390625 37.765625 34.265625 
Q 37.25 37.15625 36 39.71875 
Q 34.765625 42.28125 32.8125 43.984375 
Q 30.859375 45.703125 27.78125 46.703125 
Q 24.703125 47.703125 20.703125 47.703125 
L 4.296875 47.703125 
L 4.296875 54.6875 
L 20.65625 54.6875 
Q 26.8125 54.6875 31.46875 53.390625 
Q 36.140625 52.09375 39.109375 49.828125 
Q 42.09375 47.5625 43.96875 44.109375 
Q 45.84375 40.671875 46.59375 36.734375 
Q 47.359375 32.8125 47.359375 27.828125 
z
" id="DejaVuSans-1512"/>
      <path d="M 4.296875 54.6875 
L 21.09375 54.6875 
Q 26.8125 54.6875 31.375 53.125 
Q 35.9375 51.5625 38.859375 48.953125 
Q 41.796875 46.34375 43.75 42.765625 
Q 45.703125 39.203125 46.53125 35.375 
Q 47.359375 31.546875 47.359375 27.34375 
Q 47.359375 23.140625 46.53125 19.3125 
Q 45.703125 15.484375 43.75 11.90625 
Q 41.796875 8.34375 38.859375 5.734375 
Q 35.9375 3.125 31.375 1.5625 
Q 26.8125 0 21.09375 0 
L 4.296875 0 
L 4.296875 6.9375 
L 21.09375 6.9375 
Q 25.984375 6.9375 29.421875 8.453125 
Q 32.859375 9.96875 34.765625 12.8125 
Q 36.671875 15.671875 37.5 19.203125 
Q 38.328125 22.75 38.328125 27.34375 
Q 38.328125 31.9375 37.5 35.46875 
Q 36.671875 39.015625 34.765625 41.875 
Q 32.859375 44.734375 29.421875 46.234375 
Q 25.984375 47.75 21.09375 47.75 
L 4.296875 47.75 
z
" id="DejaVuSans-1499"/>
      <path d="M 18.796875 0 
L 38.53125 47.703125 
L 4.296875 47.703125 
L 4.296875 72.90625 
L 13.421875 72.90625 
L 13.421875 54.6875 
L 49.21875 54.640625 
L 49.078125 49.265625 
L 28.328125 0 
z
" id="DejaVuSans-1500"/>
      <path d="M 18.171875 54.6875 
L 18.171875 0 
L 9.078125 0 
L 9.078125 54.6875 
z
" id="DejaVuSans-1493"/>
      <path d="M 18.0625 54.6875 
L 18.0625 25.984375 
Q 18.0625 20.3125 19.15625 16.359375 
Q 20.265625 12.40625 22.4375 10.171875 
Q 24.609375 7.953125 27.4375 6.96875 
Q 30.28125 6 34.1875 6 
Q 38.09375 6 40.921875 6.96875 
Q 43.75 7.953125 45.921875 10.171875 
Q 48.09375 12.40625 49.1875 16.359375 
Q 50.296875 20.3125 50.296875 25.984375 
Q 50.296875 31.5 49.828125 35.328125 
Q 49.359375 39.15625 48.1875 42.203125 
Q 47.015625 45.265625 44.8125 46.75 
Q 42.625 48.25 39.359375 48.25 
Q 36.140625 48.25 31.59375 46.78125 
L 31.59375 53.765625 
Q 37.15625 55.21875 41.40625 55.21875 
Q 46.390625 55.21875 49.90625 53.234375 
Q 53.421875 51.265625 55.46875 47.375 
Q 57.515625 43.5 58.421875 38.375 
Q 59.328125 33.25 59.328125 26.375 
Q 59.328125 11.71875 53.171875 5.140625 
Q 47.015625 -1.421875 34.171875 -1.421875 
Q 21.34375 -1.421875 15.1875 5.140625 
Q 9.03125 11.71875 9.03125 26.375 
L 9.03125 54.6875 
z
" id="DejaVuSans-1496"/>
      <path d="M 25.203125 64.796875 
L 20.21875 38.921875 
L 32.90625 38.921875 
Q 40.375 38.921875 44.984375 43.046875 
Q 49.609375 47.171875 49.609375 53.8125 
Q 49.609375 59.125 46.5 61.953125 
Q 43.40625 64.796875 37.59375 64.796875 
z
M 43.3125 35.015625 
Q 46.4375 34.28125 48.515625 31.390625 
Q 50.59375 28.515625 53.328125 19.921875 
L 59.515625 0 
L 49.125 0 
L 43.40625 18.703125 
Q 41.21875 25.921875 38.328125 28.359375 
Q 35.453125 30.8125 29.5 30.8125 
L 18.609375 30.8125 
L 12.59375 0 
L 2.6875 0 
L 16.890625 72.90625 
L 39.109375 72.90625 
Q 49.21875 72.90625 54.609375 68.328125 
Q 60.015625 63.765625 60.015625 55.171875 
Q 60.015625 47.5625 55.421875 41.984375 
Q 50.828125 36.421875 43.3125 35.015625 
z
" id="DejaVuSans-Oblique-82"/>
      <path d="M 42.28125 54.6875 
L 40.921875 47.703125 
L 23 47.703125 
L 17.1875 18.015625 
Q 16.890625 16.359375 16.75 15.234375 
Q 16.609375 14.109375 16.609375 13.484375 
Q 16.609375 10.359375 18.484375 8.9375 
Q 20.359375 7.515625 24.515625 7.515625 
L 33.59375 7.515625 
L 32.078125 0 
L 23.484375 0 
Q 15.484375 0 11.546875 3.125 
Q 7.625 6.25 7.625 12.59375 
Q 7.625 13.71875 7.765625 15.0625 
Q 7.90625 16.40625 8.203125 18.015625 
L 14.015625 47.703125 
L 6.390625 47.703125 
L 7.8125 54.6875 
L 15.28125 54.6875 
L 18.3125 70.21875 
L 27.296875 70.21875 
L 24.3125 54.6875 
z
" id="DejaVuSans-Oblique-116"/>
     </defs>
     <use transform="translate(0 0.78125)" xlink:href="#DejaVuSans-55"/>
     <use transform="translate(63.623047 0.78125)" xlink:href="#DejaVuSans-51"/>
     <use transform="translate(127.246094 0.78125)" xlink:href="#DejaVuSans-32"/>
     <use transform="translate(159.033203 0.78125)" xlink:href="#DejaVuSans-1501"/>
     <use transform="translate(225.390625 0.78125)" xlink:href="#DejaVuSans-1512"/>
     <use transform="translate(281.835938 0.78125)" xlink:href="#DejaVuSans-1499"/>
     <use transform="translate(334.716797 0.78125)" xlink:href="#DejaVuSans-32"/>
     <use transform="translate(366.503906 0.78125)" xlink:href="#DejaVuSans-1500"/>
     <use transform="translate(423.339844 0.78125)" xlink:href="#DejaVuSans-1493"/>
     <use transform="translate(450.585938 0.78125)" xlink:href="#DejaVuSans-1496"/>
     <use transform="translate(515.429688 0.78125)" xlink:href="#DejaVuSans-32"/>
     <use transform="translate(547.216797 0.78125)" xlink:href="#DejaVuSans-Oblique-82"/>
     <use transform="translate(616.699219 -15.625)scale(0.7)" xlink:href="#DejaVuSans-Oblique-116"/>
    </g>
   </g>
  </g>
 </g>
 <defs>
  <clipPath id="p4d147b29e0">
   <rect height="271.8" width="558" x="90" y="43.2"/>
  </clipPath>
 </defs>
</svg>
