<?xml version="1.0" encoding="utf-8" standalone="no"?>
<!DOCTYPE svg PUBLIC "-//W3C//DTD SVG 1.1//EN"
  "http://www.w3.org/Graphics/SVG/1.1/DTD/svg11.dtd">
<!-- Created with matplotlib (https://matplotlib.org/) -->
<svg height="360pt" version="1.1" viewBox="0 0 720 360" width="720pt" xmlns="http://www.w3.org/2000/svg" xmlns:xlink="http://www.w3.org/1999/xlink">
 <metadata>
  <rdf:RDF xmlns:cc="http://creativecommons.org/ns#" xmlns:dc="http://purl.org/dc/elements/1.1/" xmlns:rdf="http://www.w3.org/1999/02/22-rdf-syntax-ns#">
   <cc:Work>
    <dc:type rdf:resource="http://purl.org/dc/dcmitype/StillImage"/>
    <dc:date>2021-02-21T15:42:01.041471</dc:date>
    <dc:format>image/svg+xml</dc:format>
    <dc:creator>
     <cc:Agent>
      <dc:title>Matplotlib v3.3.2, https://matplotlib.org/</dc:title>
     </cc:Agent>
    </dc:creator>
   </cc:Work>
  </rdf:RDF>
 </metadata>
 <defs>
  <style type="text/css">*{stroke-linecap:butt;stroke-linejoin:round;}</style>
 </defs>
 <g id="figure_1">
  <g id="patch_1">
   <path d="M 0 360 
L 720 360 
L 720 0 
L 0 0 
z
" style="fill:#ffffff;"/>
  </g>
  <g id="axes_1">
   <g id="patch_2">
    <path d="M 90 315 
L 648 315 
L 648 43.2 
L 90 43.2 
z
" style="fill:#ffffff;"/>
   </g>
   <g id="PolyCollection_1">
    <defs>
     <path d="M 90 -110.228212 
L 90 -178.147239 
L 91.655786 -173.859157 
L 93.311573 -182.086077 
L 94.967359 -177.158917 
L 96.623145 -173.97739 
L 98.278932 -168.349699 
L 99.934718 -167.564162 
L 101.590504 -165.925647 
L 103.246291 -165.284014 
L 104.902077 -160.146364 
L 106.557864 -159.413816 
L 108.21365 -152.879519 
L 109.869436 -154.530951 
L 111.525223 -147.991204 
L 113.181009 -146.945027 
L 114.836795 -144.328081 
L 116.492582 -136.837736 
L 118.148368 -136.366076 
L 119.804154 -131.585422 
L 121.459941 -129.041194 
L 123.115727 -124.750624 
L 124.771513 -122.7408 
L 126.4273 -118.008127 
L 128.083086 -114.880596 
L 129.738872 -110.262033 
L 131.394659 -107.566466 
L 133.050445 -104.978702 
L 134.706231 -105.43311 
L 136.362018 -102.668683 
L 138.017804 -98.414079 
L 139.673591 -95.504333 
L 141.329377 -95.783731 
L 142.985163 -94.481496 
L 144.64095 -93.638845 
L 146.296736 -92.637873 
L 147.952522 -93.370458 
L 149.608309 -90.848088 
L 151.264095 -91.846893 
L 152.919881 -93.242105 
L 154.575668 -95.112233 
L 156.231454 -96.358579 
L 157.88724 -98.708607 
L 159.543027 -100.090504 
L 161.198813 -103.528807 
L 162.854599 -108.010276 
L 164.510386 -107.952477 
L 166.166172 -112.951744 
L 167.821958 -118.862323 
L 169.477745 -118.239137 
L 171.133531 -126.102818 
L 172.789318 -129.026424 
L 174.445104 -134.669795 
L 176.10089 -139.434488 
L 177.756677 -143.112716 
L 179.412463 -149.20504 
L 181.068249 -154.654743 
L 182.724036 -163.448642 
L 184.379822 -165.459226 
L 186.035608 -168.213625 
L 187.691395 -181.558159 
L 189.347181 -184.74392 
L 191.002967 -191.44511 
L 192.658754 -196.707616 
L 194.31454 -200.698575 
L 195.970326 -209.71306 
L 197.626113 -217.52448 
L 199.281899 -218.928487 
L 200.937685 -227.735202 
L 202.593472 -229.845917 
L 204.249258 -235.922406 
L 205.905045 -240.85985 
L 207.560831 -243.761354 
L 209.216617 -248.443948 
L 210.872404 -251.051441 
L 212.52819 -252.53969 
L 214.183976 -253.182393 
L 215.839763 -252.58143 
L 217.495549 -253.599098 
L 219.151335 -258.556951 
L 220.807122 -257.864256 
L 222.462908 -256.038434 
L 224.118694 -260.74318 
L 225.774481 -260.532041 
L 227.430267 -267.313793 
L 229.086053 -269.178579 
L 230.74184 -277.670377 
L 232.397626 -282.09825 
L 234.053412 -285.120202 
L 235.709199 -285.338157 
L 237.364985 -291.176093 
L 239.020772 -300.544198 
L 240.676558 -300.201082 
L 242.332344 -302.15746 
L 243.988131 -304.445455 
L 245.643917 -299.941885 
L 247.299703 -293.589606 
L 248.95549 -285.421395 
L 250.611276 -278.845153 
L 252.267062 -263.887972 
L 253.922849 -251.271827 
L 255.578635 -244.305447 
L 257.234421 -232.287075 
L 258.890208 -214.464745 
L 260.545994 -206.465403 
L 262.20178 -193.281399 
L 263.857567 -183.895571 
L 265.513353 -175.338611 
L 267.169139 -165.65217 
L 268.824926 -161.617264 
L 270.480712 -157.639775 
L 272.136499 -155.384182 
L 273.792285 -151.806093 
L 275.448071 -146.482908 
L 277.103858 -145.520028 
L 278.759644 -144.641285 
L 280.41543 -143.631596 
L 282.071217 -144.049104 
L 283.727003 -144.301513 
L 285.382789 -143.616191 
L 287.038576 -148.436412 
L 288.694362 -148.524735 
L 290.350148 -148.663133 
L 292.005935 -147.090273 
L 293.661721 -150.600308 
L 295.317507 -153.891412 
L 296.973294 -150.989946 
L 298.62908 -151.280215 
L 300.284866 -158.132386 
L 301.940653 -155.641159 
L 303.596439 -155.998114 
L 305.252226 -158.784293 
L 306.908012 -156.841798 
L 308.563798 -156.603712 
L 310.219585 -155.28344 
L 311.875371 -155.896338 
L 313.531157 -158.55026 
L 315.186944 -154.625657 
L 316.84273 -152.794213 
L 318.498516 -152.519849 
L 320.154303 -153.325118 
L 321.810089 -152.071871 
L 323.465875 -151.222322 
L 325.121662 -154.244756 
L 326.777448 -156.283532 
L 328.433234 -155.04651 
L 330.089021 -156.448492 
L 331.744807 -157.351106 
L 333.400593 -163.453017 
L 335.05638 -164.16833 
L 336.712166 -164.421351 
L 338.367953 -169.915863 
L 340.023739 -174.630186 
L 341.679525 -174.099886 
L 343.335312 -179.865829 
L 344.991098 -180.876096 
L 346.646884 -180.221687 
L 348.302671 -185.241297 
L 349.958457 -185.195174 
L 351.614243 -189.758395 
L 353.27003 -191.978249 
L 354.925816 -193.429155 
L 356.581602 -195.928871 
L 358.237389 -199.190734 
L 359.893175 -199.006462 
L 361.548961 -200.808719 
L 363.204748 -201.972287 
L 364.860534 -203.2587 
L 366.51632 -205.218378 
L 368.172107 -207.022813 
L 369.827893 -205.473838 
L 371.48368 -203.18422 
L 373.139466 -201.758207 
L 374.795252 -205.37802 
L 376.451039 -203.056451 
L 378.106825 -205.354224 
L 379.762611 -204.612794 
L 381.418398 -205.707841 
L 383.074184 -199.317798 
L 384.72997 -201.985717 
L 386.385757 -202.085002 
L 388.041543 -193.082292 
L 389.697329 -196.425903 
L 391.353116 -192.099449 
L 393.008902 -186.866741 
L 394.664688 -180.350784 
L 396.320475 -175.964205 
L 397.976261 -169.346081 
L 399.632047 -163.857611 
L 401.287834 -153.547646 
L 402.94362 -146.120788 
L 404.599407 -139.259572 
L 406.255193 -132.010036 
L 407.910979 -123.822183 
L 409.566766 -118.390019 
L 411.222552 -111.117107 
L 412.878338 -104.183648 
L 414.534125 -100.512695 
L 416.189911 -95.288821 
L 417.845697 -90.216072 
L 419.501484 -87.696096 
L 421.15727 -84.468477 
L 422.813056 -80.862854 
L 424.468843 -79.784482 
L 426.124629 -78.237652 
L 427.780415 -77.671792 
L 429.436202 -76.888678 
L 431.091988 -75.125883 
L 432.747774 -74.992087 
L 434.403561 -76.101224 
L 436.059347 -75.282951 
L 437.715134 -76.149029 
L 439.37092 -75.698993 
L 441.026706 -78.542012 
L 442.682493 -80.263106 
L 444.338279 -82.203233 
L 445.994065 -84.05394 
L 447.649852 -85.467836 
L 449.305638 -89.803476 
L 450.961424 -92.253259 
L 452.617211 -95.079828 
L 454.272997 -98.301779 
L 455.928783 -101.945433 
L 457.58457 -106.245894 
L 459.240356 -108.98578 
L 460.896142 -114.413 
L 462.551929 -117.440705 
L 464.207715 -123.850596 
L 465.863501 -126.446681 
L 467.519288 -131.312061 
L 469.175074 -138.780272 
L 470.830861 -140.551396 
L 472.486647 -142.708161 
L 474.142433 -150.041049 
L 475.79822 -152.978131 
L 477.454006 -161.749101 
L 479.109792 -163.780055 
L 480.765579 -167.009545 
L 482.421365 -173.193662 
L 484.077151 -178.288932 
L 485.732938 -183.180745 
L 487.388724 -182.924017 
L 489.04451 -189.941482 
L 490.700297 -186.114652 
L 492.356083 -194.742993 
L 494.011869 -196.858339 
L 495.667656 -199.767316 
L 497.323442 -202.17817 
L 498.979228 -204.7111 
L 500.635015 -207.493161 
L 502.290801 -209.643575 
L 503.946588 -209.92025 
L 505.602374 -214.896679 
L 507.25816 -212.714332 
L 508.913947 -212.488864 
L 510.569733 -211.512177 
L 512.225519 -209.56833 
L 513.881306 -209.729654 
L 515.537092 -208.222165 
L 517.192878 -207.63889 
L 518.848665 -210.472466 
L 520.504451 -213.959152 
L 522.160237 -215.803299 
L 523.816024 -220.495458 
L 525.47181 -222.723929 
L 527.127596 -231.612408 
L 528.783383 -233.994812 
L 530.439169 -238.160545 
L 532.094955 -241.164578 
L 533.750742 -247.94852 
L 535.406528 -244.56228 
L 537.062315 -248.843695 
L 538.718101 -248.241665 
L 540.373887 -249.295524 
L 542.029674 -242.369273 
L 543.68546 -246.082254 
L 545.341246 -234.699222 
L 546.997033 -234.425653 
L 548.652819 -230.660189 
L 550.308605 -224.868734 
L 551.964392 -215.817503 
L 553.620178 -215.440573 
L 555.275964 -206.227764 
L 556.931751 -202.593829 
L 558.587537 -198.218846 
L 560.243323 -196.439714 
L 561.89911 -191.122033 
L 563.554896 -186.841223 
L 565.210682 -181.799708 
L 566.866469 -177.237437 
L 568.522255 -172.456304 
L 570.178042 -173.531097 
L 571.833828 -170.061104 
L 573.489614 -167.977485 
L 575.145401 -165.000467 
L 576.801187 -160.821305 
L 578.456973 -159.28861 
L 580.11276 -158.769616 
L 581.768546 -157.15017 
L 583.424332 -156.936555 
L 585.080119 -154.659702 
L 586.735905 -152.617395 
L 588.391691 -153.490221 
L 590.047478 -151.270529 
L 591.703264 -151.384482 
L 593.35905 -150.484436 
L 595.014837 -151.733629 
L 596.670623 -152.340627 
L 598.326409 -154.525377 
L 599.982196 -152.00031 
L 601.637982 -155.545506 
L 603.293769 -156.997582 
L 604.949555 -155.769423 
L 606.605341 -153.234701 
L 608.261128 -152.848239 
L 609.916914 -150.473134 
L 611.5727 -151.100398 
L 613.228487 -151.573062 
L 614.884273 -147.38018 
L 616.540059 -146.144383 
L 618.195846 -143.710121 
L 619.851632 -141.491472 
L 621.507418 -139.098526 
L 623.163205 -138.14717 
L 624.818991 -134.570419 
L 626.474777 -134.400118 
L 628.130564 -133.736561 
L 629.78635 -133.530912 
L 631.442136 -131.119224 
L 633.097923 -131.173183 
L 634.753709 -133.116915 
L 636.409496 -132.424212 
L 638.065282 -136.038946 
L 639.721068 -142.000404 
L 641.376855 -136.269279 
L 643.032641 -140.887163 
L 644.688427 -138.470521 
L 646.344214 -141.999464 
L 648 -147.370856 
L 649.655786 -147.309542 
L 651.311573 -146.976012 
L 652.967359 -152.709834 
L 654.623145 -149.724028 
L 656.278932 -143.611172 
L 657.934718 -149.870893 
L 659.590504 -148.954535 
L 661.246291 -154.533261 
L 661.246291 -74.922384 
L 661.246291 -74.922384 
L 659.590504 -69.975236 
L 657.934718 -75.643912 
L 656.278932 -70.884688 
L 654.623145 -80.343263 
L 652.967359 -86.222971 
L 651.311573 -84.890772 
L 649.655786 -86.062185 
L 648 -86.95985 
L 646.344214 -84.719452 
L 644.688427 -83.375202 
L 643.032641 -89.522728 
L 641.376855 -87.394711 
L 639.721068 -95.656219 
L 638.065282 -92.814962 
L 636.409496 -91.463556 
L 634.753709 -95.103772 
L 633.097923 -96.544158 
L 631.442136 -97.541389 
L 629.78635 -101.357593 
L 628.130564 -102.019168 
L 626.474777 -103.4574 
L 624.818991 -103.419188 
L 623.163205 -105.806403 
L 621.507418 -109.17036 
L 619.851632 -109.715611 
L 618.195846 -111.989678 
L 616.540059 -116.01103 
L 614.884273 -115.952223 
L 613.228487 -119.913991 
L 611.5727 -117.786455 
L 609.916914 -118.520276 
L 608.261128 -119.907695 
L 606.605341 -118.878708 
L 604.949555 -121.72593 
L 603.293769 -122.12349 
L 601.637982 -121.399422 
L 599.982196 -120.214936 
L 598.326409 -121.480099 
L 596.670623 -119.363186 
L 595.014837 -119.216436 
L 593.35905 -117.661876 
L 591.703264 -120.45282 
L 590.047478 -118.558639 
L 588.391691 -120.228758 
L 586.735905 -119.955586 
L 585.080119 -121.345361 
L 583.424332 -121.934848 
L 581.768546 -122.597415 
L 580.11276 -125.270948 
L 578.456973 -125.01457 
L 576.801187 -127.880606 
L 575.145401 -130.018568 
L 573.489614 -133.743033 
L 571.833828 -135.00514 
L 570.178042 -137.09378 
L 568.522255 -135.168713 
L 566.866469 -139.162921 
L 565.210682 -141.67612 
L 563.554896 -146.387744 
L 561.89911 -150.351607 
L 560.243323 -153.545184 
L 558.587537 -156.236046 
L 556.931751 -161.202682 
L 555.275964 -161.280952 
L 553.620178 -169.272001 
L 551.964392 -169.831149 
L 550.308605 -175.876901 
L 548.652819 -181.909876 
L 546.997033 -182.913958 
L 545.341246 -185.057848 
L 543.68546 -192.092841 
L 542.029674 -189.332169 
L 540.373887 -194.438317 
L 538.718101 -193.3693 
L 537.062315 -192.007376 
L 535.406528 -187.998928 
L 533.750742 -189.730237 
L 532.094955 -186.695232 
L 530.439169 -182.55261 
L 528.783383 -183.271428 
L 527.127596 -182.036181 
L 525.47181 -173.900819 
L 523.816024 -171.990818 
L 522.160237 -168.782866 
L 520.504451 -167.380871 
L 518.848665 -162.568357 
L 517.192878 -159.986188 
L 515.537092 -160.98637 
L 513.881306 -162.2724 
L 512.225519 -162.297726 
L 510.569733 -164.009628 
L 508.913947 -164.173171 
L 507.25816 -162.599425 
L 505.602374 -163.892494 
L 503.946588 -160.231688 
L 502.290801 -160.276821 
L 500.635015 -159.450213 
L 498.979228 -158.980676 
L 497.323442 -155.458711 
L 495.667656 -152.823044 
L 494.011869 -151.142712 
L 492.356083 -150.34125 
L 490.700297 -141.422445 
L 489.04451 -143.778616 
L 487.388724 -138.660474 
L 485.732938 -137.689717 
L 484.077151 -132.67543 
L 482.421365 -131.460839 
L 480.765579 -125.660462 
L 479.109792 -123.521787 
L 477.454006 -123.228093 
L 475.79822 -116.429028 
L 474.142433 -114.688889 
L 472.486647 -108.530732 
L 470.830861 -108.158381 
L 469.175074 -105.82379 
L 467.519288 -100.144908 
L 465.863501 -96.012653 
L 464.207715 -93.780836 
L 462.551929 -88.809109 
L 460.896142 -88.185604 
L 459.240356 -83.241043 
L 457.58457 -80.731222 
L 455.928783 -78.294539 
L 454.272997 -74.720016 
L 452.617211 -72.860413 
L 450.961424 -71.120643 
L 449.305638 -68.69374 
L 447.649852 -65.33516 
L 445.994065 -64.543009 
L 444.338279 -63.16755 
L 442.682493 -61.696135 
L 441.026706 -60.558193 
L 439.37092 -57.671215 
L 437.715134 -58.954033 
L 436.059347 -57.961848 
L 434.403561 -58.306235 
L 432.747774 -57.354545 
L 431.091988 -57.799557 
L 429.436202 -59.365182 
L 427.780415 -60.17569 
L 426.124629 -60.780277 
L 424.468843 -62.36928 
L 422.813056 -63.752308 
L 421.15727 -66.416383 
L 419.501484 -69.088864 
L 417.845697 -70.606237 
L 416.189911 -74.107857 
L 414.534125 -78.187821 
L 412.878338 -80.623381 
L 411.222552 -87.57841 
L 409.566766 -93.310924 
L 407.910979 -97.378513 
L 406.255193 -102.031196 
L 404.599407 -108.792657 
L 402.94362 -114.895962 
L 401.287834 -119.451385 
L 399.632047 -128.069339 
L 397.976261 -134.350836 
L 396.320475 -137.585525 
L 394.664688 -140.916558 
L 393.008902 -145.490092 
L 391.353116 -149.570376 
L 389.697329 -154.444947 
L 388.041543 -152.378606 
L 386.385757 -160.590878 
L 384.72997 -156.778522 
L 383.074184 -154.732272 
L 381.418398 -160.599434 
L 379.762611 -160.066567 
L 378.106825 -161.005955 
L 376.451039 -157.754959 
L 374.795252 -160.030611 
L 373.139466 -155.942885 
L 371.48368 -159.52984 
L 369.827893 -163.228108 
L 368.172107 -164.980088 
L 366.51632 -163.313665 
L 364.860534 -159.651109 
L 363.204748 -157.65334 
L 361.548961 -154.160832 
L 359.893175 -155.361265 
L 358.237389 -155.297022 
L 356.581602 -152.09352 
L 354.925816 -149.8762 
L 353.27003 -150.67303 
L 351.614243 -148.673052 
L 349.958457 -145.608768 
L 348.302671 -144.605452 
L 346.646884 -140.7121 
L 344.991098 -140.450376 
L 343.335312 -138.915546 
L 341.679525 -133.543651 
L 340.023739 -132.583291 
L 338.367953 -130.88791 
L 336.712166 -125.124652 
L 335.05638 -126.768534 
L 333.400593 -126.456567 
L 331.744807 -121.804238 
L 330.089021 -121.060667 
L 328.433234 -119.356271 
L 326.777448 -120.524885 
L 325.121662 -119.069921 
L 323.465875 -118.552376 
L 321.810089 -117.057297 
L 320.154303 -119.026945 
L 318.498516 -117.418765 
L 316.84273 -117.201891 
L 315.186944 -119.43784 
L 313.531157 -122.372681 
L 311.875371 -118.88215 
L 310.219585 -119.17443 
L 308.563798 -120.369052 
L 306.908012 -121.851729 
L 305.252226 -122.631021 
L 303.596439 -118.445041 
L 301.940653 -118.932165 
L 300.284866 -122.459729 
L 298.62908 -117.792098 
L 296.973294 -117.111954 
L 295.317507 -121.163203 
L 293.661721 -118.516838 
L 292.005935 -114.950518 
L 290.350148 -116.487612 
L 288.694362 -116.481704 
L 287.038576 -116.418153 
L 285.382789 -111.711617 
L 283.727003 -112.524139 
L 282.071217 -112.146096 
L 280.41543 -110.512725 
L 278.759644 -114.204944 
L 277.103858 -115.619614 
L 275.448071 -116.22058 
L 273.792285 -118.439174 
L 272.136499 -122.268627 
L 270.480712 -123.313549 
L 268.824926 -128.355283 
L 267.169139 -130.809785 
L 265.513353 -139.210568 
L 263.857567 -143.080359 
L 262.20178 -152.140526 
L 260.545994 -161.332343 
L 258.890208 -166.754636 
L 257.234421 -180.588175 
L 255.578635 -190.15218 
L 253.922849 -193.012541 
L 252.267062 -201.863516 
L 250.611276 -213.983999 
L 248.95549 -219.087573 
L 247.299703 -224.248907 
L 245.643917 -227.774885 
L 243.988131 -232.882082 
L 242.332344 -235.071385 
L 240.676558 -231.318563 
L 239.020772 -233.958735 
L 237.364985 -223.478579 
L 235.709199 -218.693134 
L 234.053412 -220.456148 
L 232.397626 -220.043313 
L 230.74184 -212.891704 
L 229.086053 -205.905197 
L 227.430267 -203.024058 
L 225.774481 -198.3186 
L 224.118694 -198.801703 
L 222.462908 -194.700979 
L 220.807122 -197.343458 
L 219.151335 -193.49721 
L 217.495549 -188.216063 
L 215.839763 -187.202685 
L 214.183976 -186.067005 
L 212.52819 -184.660709 
L 210.872404 -183.579826 
L 209.216617 -182.119315 
L 207.560831 -177.892082 
L 205.905045 -176.773054 
L 204.249258 -172.994869 
L 202.593472 -168.539243 
L 200.937685 -167.876566 
L 199.281899 -162.120876 
L 197.626113 -159.938847 
L 195.970326 -153.351362 
L 194.31454 -147.279404 
L 192.658754 -143.657814 
L 191.002967 -139.442679 
L 189.347181 -135.070669 
L 187.691395 -133.412532 
L 186.035608 -124.588497 
L 184.379822 -120.053286 
L 182.724036 -118.324492 
L 181.068249 -114.462978 
L 179.412463 -110.286544 
L 177.756677 -105.423863 
L 176.10089 -101.688995 
L 174.445104 -98.000183 
L 172.789318 -93.492855 
L 171.133531 -92.529666 
L 169.477745 -85.932302 
L 167.821958 -86.462101 
L 166.166172 -82.363376 
L 164.510386 -78.016998 
L 162.854599 -78.830765 
L 161.198813 -76.514851 
L 159.543027 -73.191852 
L 157.88724 -72.666821 
L 156.231454 -69.659759 
L 154.575668 -69.712293 
L 152.919881 -69.422325 
L 151.264095 -68.387858 
L 149.608309 -68.043992 
L 147.952522 -70.985113 
L 146.296736 -69.625139 
L 144.64095 -69.980302 
L 142.985163 -71.432029 
L 141.329377 -73.032365 
L 139.673591 -71.420248 
L 138.017804 -74.23583 
L 136.362018 -77.461775 
L 134.706231 -79.941194 
L 133.050445 -80.251239 
L 131.394659 -80.520307 
L 129.738872 -82.073484 
L 128.083086 -86.15238 
L 126.4273 -89.970513 
L 124.771513 -91.614626 
L 123.115727 -93.732152 
L 121.459941 -97.919812 
L 119.804154 -99.578605 
L 118.148368 -103.968239 
L 116.492582 -104.438478 
L 114.836795 -109.938633 
L 113.181009 -111.734963 
L 111.525223 -111.52224 
L 109.869436 -118.762506 
L 108.21365 -115.443405 
L 106.557864 -120.11466 
L 104.902077 -119.180147 
L 103.246291 -120.819105 
L 101.590504 -117.753903 
L 99.934718 -119.600204 
L 98.278932 -116.458504 
L 96.623145 -118.615245 
L 94.967359 -118.163921 
L 93.311573 -119.699467 
L 91.655786 -109.02117 
L 90 -110.228212 
z
" id="mfc45273446" style="stroke:#fdcbb6;stroke-opacity:0.8;"/>
    </defs>
    <g clip-path="url(#pfb458398f5)">
     <use style="fill:#fdcbb6;fill-opacity:0.8;stroke:#fdcbb6;stroke-opacity:0.8;" x="0" xlink:href="#mfc45273446" y="360"/>
    </g>
   </g>
   <g id="matplotlib.axis_1">
    <g id="xtick_1">
     <g id="line2d_1">
      <defs>
       <path d="M 0 0 
L 0 3.5 
" id="m59a956323e" style="stroke:#000000;stroke-width:0.8;"/>
      </defs>
      <g>
       <use style="stroke:#000000;stroke-width:0.8;" x="90" xlink:href="#m59a956323e" y="315"/>
      </g>
     </g>
    </g>
    <g id="xtick_2">
     <g id="line2d_2">
      <g>
       <use style="stroke:#000000;stroke-width:0.8;" x="124.771513" xlink:href="#m59a956323e" y="315"/>
      </g>
     </g>
     <g id="text_1">
      <!-- Apr -->
      <g transform="translate(116.121513 329.598437)scale(0.1 -0.1)">
       <defs>
        <path d="M 34.1875 63.1875 
L 20.796875 26.90625 
L 47.609375 26.90625 
z
M 28.609375 72.90625 
L 39.796875 72.90625 
L 67.578125 0 
L 57.328125 0 
L 50.6875 18.703125 
L 17.828125 18.703125 
L 11.1875 0 
L 0.78125 0 
z
" id="DejaVuSans-65"/>
        <path d="M 18.109375 8.203125 
L 18.109375 -20.796875 
L 9.078125 -20.796875 
L 9.078125 54.6875 
L 18.109375 54.6875 
L 18.109375 46.390625 
Q 20.953125 51.265625 25.265625 53.625 
Q 29.59375 56 35.59375 56 
Q 45.5625 56 51.78125 48.09375 
Q 58.015625 40.1875 58.015625 27.296875 
Q 58.015625 14.40625 51.78125 6.484375 
Q 45.5625 -1.421875 35.59375 -1.421875 
Q 29.59375 -1.421875 25.265625 0.953125 
Q 20.953125 3.328125 18.109375 8.203125 
z
M 48.6875 27.296875 
Q 48.6875 37.203125 44.609375 42.84375 
Q 40.53125 48.484375 33.40625 48.484375 
Q 26.265625 48.484375 22.1875 42.84375 
Q 18.109375 37.203125 18.109375 27.296875 
Q 18.109375 17.390625 22.1875 11.75 
Q 26.265625 6.109375 33.40625 6.109375 
Q 40.53125 6.109375 44.609375 11.75 
Q 48.6875 17.390625 48.6875 27.296875 
z
" id="DejaVuSans-112"/>
        <path d="M 41.109375 46.296875 
Q 39.59375 47.171875 37.8125 47.578125 
Q 36.03125 48 33.890625 48 
Q 26.265625 48 22.1875 43.046875 
Q 18.109375 38.09375 18.109375 28.8125 
L 18.109375 0 
L 9.078125 0 
L 9.078125 54.6875 
L 18.109375 54.6875 
L 18.109375 46.1875 
Q 20.953125 51.171875 25.484375 53.578125 
Q 30.03125 56 36.53125 56 
Q 37.453125 56 38.578125 55.875 
Q 39.703125 55.765625 41.0625 55.515625 
z
" id="DejaVuSans-114"/>
       </defs>
       <use xlink:href="#DejaVuSans-65"/>
       <use x="68.408203" xlink:href="#DejaVuSans-112"/>
       <use x="131.884766" xlink:href="#DejaVuSans-114"/>
      </g>
     </g>
    </g>
    <g id="xtick_3">
     <g id="line2d_3">
      <g>
       <use style="stroke:#000000;stroke-width:0.8;" x="174.445104" xlink:href="#m59a956323e" y="315"/>
      </g>
     </g>
     <g id="text_2">
      <!-- May -->
      <g transform="translate(164.107604 329.598437)scale(0.1 -0.1)">
       <defs>
        <path d="M 9.8125 72.90625 
L 24.515625 72.90625 
L 43.109375 23.296875 
L 61.8125 72.90625 
L 76.515625 72.90625 
L 76.515625 0 
L 66.890625 0 
L 66.890625 64.015625 
L 48.09375 14.015625 
L 38.1875 14.015625 
L 19.390625 64.015625 
L 19.390625 0 
L 9.8125 0 
z
" id="DejaVuSans-77"/>
        <path d="M 34.28125 27.484375 
Q 23.390625 27.484375 19.1875 25 
Q 14.984375 22.515625 14.984375 16.5 
Q 14.984375 11.71875 18.140625 8.90625 
Q 21.296875 6.109375 26.703125 6.109375 
Q 34.1875 6.109375 38.703125 11.40625 
Q 43.21875 16.703125 43.21875 25.484375 
L 43.21875 27.484375 
z
M 52.203125 31.203125 
L 52.203125 0 
L 43.21875 0 
L 43.21875 8.296875 
Q 40.140625 3.328125 35.546875 0.953125 
Q 30.953125 -1.421875 24.3125 -1.421875 
Q 15.921875 -1.421875 10.953125 3.296875 
Q 6 8.015625 6 15.921875 
Q 6 25.140625 12.171875 29.828125 
Q 18.359375 34.515625 30.609375 34.515625 
L 43.21875 34.515625 
L 43.21875 35.40625 
Q 43.21875 41.609375 39.140625 45 
Q 35.0625 48.390625 27.6875 48.390625 
Q 23 48.390625 18.546875 47.265625 
Q 14.109375 46.140625 10.015625 43.890625 
L 10.015625 52.203125 
Q 14.9375 54.109375 19.578125 55.046875 
Q 24.21875 56 28.609375 56 
Q 40.484375 56 46.34375 49.84375 
Q 52.203125 43.703125 52.203125 31.203125 
z
" id="DejaVuSans-97"/>
        <path d="M 32.171875 -5.078125 
Q 28.375 -14.84375 24.75 -17.8125 
Q 21.140625 -20.796875 15.09375 -20.796875 
L 7.90625 -20.796875 
L 7.90625 -13.28125 
L 13.1875 -13.28125 
Q 16.890625 -13.28125 18.9375 -11.515625 
Q 21 -9.765625 23.484375 -3.21875 
L 25.09375 0.875 
L 2.984375 54.6875 
L 12.5 54.6875 
L 29.59375 11.921875 
L 46.6875 54.6875 
L 56.203125 54.6875 
z
" id="DejaVuSans-121"/>
       </defs>
       <use xlink:href="#DejaVuSans-77"/>
       <use x="86.279297" xlink:href="#DejaVuSans-97"/>
       <use x="147.558594" xlink:href="#DejaVuSans-121"/>
      </g>
     </g>
    </g>
    <g id="xtick_4">
     <g id="line2d_4">
      <g>
       <use style="stroke:#000000;stroke-width:0.8;" x="225.774481" xlink:href="#m59a956323e" y="315"/>
      </g>
     </g>
     <g id="text_3">
      <!-- Jun -->
      <g transform="translate(217.961981 329.598437)scale(0.1 -0.1)">
       <defs>
        <path d="M 9.8125 72.90625 
L 19.671875 72.90625 
L 19.671875 5.078125 
Q 19.671875 -8.109375 14.671875 -14.0625 
Q 9.671875 -20.015625 -1.421875 -20.015625 
L -5.171875 -20.015625 
L -5.171875 -11.71875 
L -2.09375 -11.71875 
Q 4.4375 -11.71875 7.125 -8.046875 
Q 9.8125 -4.390625 9.8125 5.078125 
z
" id="DejaVuSans-74"/>
        <path d="M 8.5 21.578125 
L 8.5 54.6875 
L 17.484375 54.6875 
L 17.484375 21.921875 
Q 17.484375 14.15625 20.5 10.265625 
Q 23.53125 6.390625 29.59375 6.390625 
Q 36.859375 6.390625 41.078125 11.03125 
Q 45.3125 15.671875 45.3125 23.6875 
L 45.3125 54.6875 
L 54.296875 54.6875 
L 54.296875 0 
L 45.3125 0 
L 45.3125 8.40625 
Q 42.046875 3.421875 37.71875 1 
Q 33.40625 -1.421875 27.6875 -1.421875 
Q 18.265625 -1.421875 13.375 4.4375 
Q 8.5 10.296875 8.5 21.578125 
z
M 31.109375 56 
z
" id="DejaVuSans-117"/>
        <path d="M 54.890625 33.015625 
L 54.890625 0 
L 45.90625 0 
L 45.90625 32.71875 
Q 45.90625 40.484375 42.875 44.328125 
Q 39.84375 48.1875 33.796875 48.1875 
Q 26.515625 48.1875 22.3125 43.546875 
Q 18.109375 38.921875 18.109375 30.90625 
L 18.109375 0 
L 9.078125 0 
L 9.078125 54.6875 
L 18.109375 54.6875 
L 18.109375 46.1875 
Q 21.34375 51.125 25.703125 53.5625 
Q 30.078125 56 35.796875 56 
Q 45.21875 56 50.046875 50.171875 
Q 54.890625 44.34375 54.890625 33.015625 
z
" id="DejaVuSans-110"/>
       </defs>
       <use xlink:href="#DejaVuSans-74"/>
       <use x="29.492188" xlink:href="#DejaVuSans-117"/>
       <use x="92.871094" xlink:href="#DejaVuSans-110"/>
      </g>
     </g>
    </g>
    <g id="xtick_5">
     <g id="line2d_5">
      <g>
       <use style="stroke:#000000;stroke-width:0.8;" x="275.448071" xlink:href="#m59a956323e" y="315"/>
      </g>
     </g>
     <g id="text_4">
      <!-- Jul -->
      <g transform="translate(269.415259 329.598437)scale(0.1 -0.1)">
       <defs>
        <path d="M 9.421875 75.984375 
L 18.40625 75.984375 
L 18.40625 0 
L 9.421875 0 
z
" id="DejaVuSans-108"/>
       </defs>
       <use xlink:href="#DejaVuSans-74"/>
       <use x="29.492188" xlink:href="#DejaVuSans-117"/>
       <use x="92.871094" xlink:href="#DejaVuSans-108"/>
      </g>
     </g>
    </g>
    <g id="xtick_6">
     <g id="line2d_6">
      <g>
       <use style="stroke:#000000;stroke-width:0.8;" x="326.777448" xlink:href="#m59a956323e" y="315"/>
      </g>
     </g>
     <g id="text_5">
      <!-- Aug -->
      <g transform="translate(317.014167 329.598437)scale(0.1 -0.1)">
       <defs>
        <path d="M 45.40625 27.984375 
Q 45.40625 37.75 41.375 43.109375 
Q 37.359375 48.484375 30.078125 48.484375 
Q 22.859375 48.484375 18.828125 43.109375 
Q 14.796875 37.75 14.796875 27.984375 
Q 14.796875 18.265625 18.828125 12.890625 
Q 22.859375 7.515625 30.078125 7.515625 
Q 37.359375 7.515625 41.375 12.890625 
Q 45.40625 18.265625 45.40625 27.984375 
z
M 54.390625 6.78125 
Q 54.390625 -7.171875 48.1875 -13.984375 
Q 42 -20.796875 29.203125 -20.796875 
Q 24.46875 -20.796875 20.265625 -20.09375 
Q 16.0625 -19.390625 12.109375 -17.921875 
L 12.109375 -9.1875 
Q 16.0625 -11.328125 19.921875 -12.34375 
Q 23.78125 -13.375 27.78125 -13.375 
Q 36.625 -13.375 41.015625 -8.765625 
Q 45.40625 -4.15625 45.40625 5.171875 
L 45.40625 9.625 
Q 42.625 4.78125 38.28125 2.390625 
Q 33.9375 0 27.875 0 
Q 17.828125 0 11.671875 7.65625 
Q 5.515625 15.328125 5.515625 27.984375 
Q 5.515625 40.671875 11.671875 48.328125 
Q 17.828125 56 27.875 56 
Q 33.9375 56 38.28125 53.609375 
Q 42.625 51.21875 45.40625 46.390625 
L 45.40625 54.6875 
L 54.390625 54.6875 
z
" id="DejaVuSans-103"/>
       </defs>
       <use xlink:href="#DejaVuSans-65"/>
       <use x="68.408203" xlink:href="#DejaVuSans-117"/>
       <use x="131.787109" xlink:href="#DejaVuSans-103"/>
      </g>
     </g>
    </g>
    <g id="xtick_7">
     <g id="line2d_7">
      <g>
       <use style="stroke:#000000;stroke-width:0.8;" x="378.106825" xlink:href="#m59a956323e" y="315"/>
      </g>
     </g>
     <g id="text_6">
      <!-- Sep -->
      <g transform="translate(368.681825 329.598437)scale(0.1 -0.1)">
       <defs>
        <path d="M 53.515625 70.515625 
L 53.515625 60.890625 
Q 47.90625 63.578125 42.921875 64.890625 
Q 37.9375 66.21875 33.296875 66.21875 
Q 25.25 66.21875 20.875 63.09375 
Q 16.5 59.96875 16.5 54.203125 
Q 16.5 49.359375 19.40625 46.890625 
Q 22.3125 44.4375 30.421875 42.921875 
L 36.375 41.703125 
Q 47.40625 39.59375 52.65625 34.296875 
Q 57.90625 29 57.90625 20.125 
Q 57.90625 9.515625 50.796875 4.046875 
Q 43.703125 -1.421875 29.984375 -1.421875 
Q 24.8125 -1.421875 18.96875 -0.25 
Q 13.140625 0.921875 6.890625 3.21875 
L 6.890625 13.375 
Q 12.890625 10.015625 18.65625 8.296875 
Q 24.421875 6.59375 29.984375 6.59375 
Q 38.421875 6.59375 43.015625 9.90625 
Q 47.609375 13.234375 47.609375 19.390625 
Q 47.609375 24.75 44.3125 27.78125 
Q 41.015625 30.8125 33.5 32.328125 
L 27.484375 33.5 
Q 16.453125 35.6875 11.515625 40.375 
Q 6.59375 45.0625 6.59375 53.421875 
Q 6.59375 63.09375 13.40625 68.65625 
Q 20.21875 74.21875 32.171875 74.21875 
Q 37.3125 74.21875 42.625 73.28125 
Q 47.953125 72.359375 53.515625 70.515625 
z
" id="DejaVuSans-83"/>
        <path d="M 56.203125 29.59375 
L 56.203125 25.203125 
L 14.890625 25.203125 
Q 15.484375 15.921875 20.484375 11.0625 
Q 25.484375 6.203125 34.421875 6.203125 
Q 39.59375 6.203125 44.453125 7.46875 
Q 49.3125 8.734375 54.109375 11.28125 
L 54.109375 2.78125 
Q 49.265625 0.734375 44.1875 -0.34375 
Q 39.109375 -1.421875 33.890625 -1.421875 
Q 20.796875 -1.421875 13.15625 6.1875 
Q 5.515625 13.8125 5.515625 26.8125 
Q 5.515625 40.234375 12.765625 48.109375 
Q 20.015625 56 32.328125 56 
Q 43.359375 56 49.78125 48.890625 
Q 56.203125 41.796875 56.203125 29.59375 
z
M 47.21875 32.234375 
Q 47.125 39.59375 43.09375 43.984375 
Q 39.0625 48.390625 32.421875 48.390625 
Q 24.90625 48.390625 20.390625 44.140625 
Q 15.875 39.890625 15.1875 32.171875 
z
" id="DejaVuSans-101"/>
       </defs>
       <use xlink:href="#DejaVuSans-83"/>
       <use x="63.476562" xlink:href="#DejaVuSans-101"/>
       <use x="125" xlink:href="#DejaVuSans-112"/>
      </g>
     </g>
    </g>
    <g id="xtick_8">
     <g id="line2d_8">
      <g>
       <use style="stroke:#000000;stroke-width:0.8;" x="427.780415" xlink:href="#m59a956323e" y="315"/>
      </g>
     </g>
     <g id="text_7">
      <!-- Oct -->
      <g transform="translate(419.135103 329.598437)scale(0.1 -0.1)">
       <defs>
        <path d="M 39.40625 66.21875 
Q 28.65625 66.21875 22.328125 58.203125 
Q 16.015625 50.203125 16.015625 36.375 
Q 16.015625 22.609375 22.328125 14.59375 
Q 28.65625 6.59375 39.40625 6.59375 
Q 50.140625 6.59375 56.421875 14.59375 
Q 62.703125 22.609375 62.703125 36.375 
Q 62.703125 50.203125 56.421875 58.203125 
Q 50.140625 66.21875 39.40625 66.21875 
z
M 39.40625 74.21875 
Q 54.734375 74.21875 63.90625 63.9375 
Q 73.09375 53.65625 73.09375 36.375 
Q 73.09375 19.140625 63.90625 8.859375 
Q 54.734375 -1.421875 39.40625 -1.421875 
Q 24.03125 -1.421875 14.8125 8.828125 
Q 5.609375 19.09375 5.609375 36.375 
Q 5.609375 53.65625 14.8125 63.9375 
Q 24.03125 74.21875 39.40625 74.21875 
z
" id="DejaVuSans-79"/>
        <path d="M 48.78125 52.59375 
L 48.78125 44.1875 
Q 44.96875 46.296875 41.140625 47.34375 
Q 37.3125 48.390625 33.40625 48.390625 
Q 24.65625 48.390625 19.8125 42.84375 
Q 14.984375 37.3125 14.984375 27.296875 
Q 14.984375 17.28125 19.8125 11.734375 
Q 24.65625 6.203125 33.40625 6.203125 
Q 37.3125 6.203125 41.140625 7.25 
Q 44.96875 8.296875 48.78125 10.40625 
L 48.78125 2.09375 
Q 45.015625 0.34375 40.984375 -0.53125 
Q 36.96875 -1.421875 32.421875 -1.421875 
Q 20.0625 -1.421875 12.78125 6.34375 
Q 5.515625 14.109375 5.515625 27.296875 
Q 5.515625 40.671875 12.859375 48.328125 
Q 20.21875 56 33.015625 56 
Q 37.15625 56 41.109375 55.140625 
Q 45.0625 54.296875 48.78125 52.59375 
z
" id="DejaVuSans-99"/>
        <path d="M 18.3125 70.21875 
L 18.3125 54.6875 
L 36.8125 54.6875 
L 36.8125 47.703125 
L 18.3125 47.703125 
L 18.3125 18.015625 
Q 18.3125 11.328125 20.140625 9.421875 
Q 21.96875 7.515625 27.59375 7.515625 
L 36.8125 7.515625 
L 36.8125 0 
L 27.59375 0 
Q 17.1875 0 13.234375 3.875 
Q 9.28125 7.765625 9.28125 18.015625 
L 9.28125 47.703125 
L 2.6875 47.703125 
L 2.6875 54.6875 
L 9.28125 54.6875 
L 9.28125 70.21875 
z
" id="DejaVuSans-116"/>
       </defs>
       <use xlink:href="#DejaVuSans-79"/>
       <use x="78.710938" xlink:href="#DejaVuSans-99"/>
       <use x="133.691406" xlink:href="#DejaVuSans-116"/>
      </g>
     </g>
    </g>
    <g id="xtick_9">
     <g id="line2d_9">
      <g>
       <use style="stroke:#000000;stroke-width:0.8;" x="479.109792" xlink:href="#m59a956323e" y="315"/>
      </g>
     </g>
     <g id="text_8">
      <!-- Nov -->
      <g transform="translate(469.350417 329.598437)scale(0.1 -0.1)">
       <defs>
        <path d="M 9.8125 72.90625 
L 23.09375 72.90625 
L 55.421875 11.921875 
L 55.421875 72.90625 
L 64.984375 72.90625 
L 64.984375 0 
L 51.703125 0 
L 19.390625 60.984375 
L 19.390625 0 
L 9.8125 0 
z
" id="DejaVuSans-78"/>
        <path d="M 30.609375 48.390625 
Q 23.390625 48.390625 19.1875 42.75 
Q 14.984375 37.109375 14.984375 27.296875 
Q 14.984375 17.484375 19.15625 11.84375 
Q 23.34375 6.203125 30.609375 6.203125 
Q 37.796875 6.203125 41.984375 11.859375 
Q 46.1875 17.53125 46.1875 27.296875 
Q 46.1875 37.015625 41.984375 42.703125 
Q 37.796875 48.390625 30.609375 48.390625 
z
M 30.609375 56 
Q 42.328125 56 49.015625 48.375 
Q 55.71875 40.765625 55.71875 27.296875 
Q 55.71875 13.875 49.015625 6.21875 
Q 42.328125 -1.421875 30.609375 -1.421875 
Q 18.84375 -1.421875 12.171875 6.21875 
Q 5.515625 13.875 5.515625 27.296875 
Q 5.515625 40.765625 12.171875 48.375 
Q 18.84375 56 30.609375 56 
z
" id="DejaVuSans-111"/>
        <path d="M 2.984375 54.6875 
L 12.5 54.6875 
L 29.59375 8.796875 
L 46.6875 54.6875 
L 56.203125 54.6875 
L 35.6875 0 
L 23.484375 0 
z
" id="DejaVuSans-118"/>
       </defs>
       <use xlink:href="#DejaVuSans-78"/>
       <use x="74.804688" xlink:href="#DejaVuSans-111"/>
       <use x="135.986328" xlink:href="#DejaVuSans-118"/>
      </g>
     </g>
    </g>
    <g id="xtick_10">
     <g id="line2d_10">
      <g>
       <use style="stroke:#000000;stroke-width:0.8;" x="528.783383" xlink:href="#m59a956323e" y="315"/>
      </g>
     </g>
     <g id="text_9">
      <!-- Dec -->
      <g transform="translate(519.107602 329.598437)scale(0.1 -0.1)">
       <defs>
        <path d="M 19.671875 64.796875 
L 19.671875 8.109375 
L 31.59375 8.109375 
Q 46.6875 8.109375 53.6875 14.9375 
Q 60.6875 21.78125 60.6875 36.53125 
Q 60.6875 51.171875 53.6875 57.984375 
Q 46.6875 64.796875 31.59375 64.796875 
z
M 9.8125 72.90625 
L 30.078125 72.90625 
Q 51.265625 72.90625 61.171875 64.09375 
Q 71.09375 55.28125 71.09375 36.53125 
Q 71.09375 17.671875 61.125 8.828125 
Q 51.171875 0 30.078125 0 
L 9.8125 0 
z
" id="DejaVuSans-68"/>
       </defs>
       <use xlink:href="#DejaVuSans-68"/>
       <use x="77.001953" xlink:href="#DejaVuSans-101"/>
       <use x="138.525391" xlink:href="#DejaVuSans-99"/>
      </g>
     </g>
    </g>
    <g id="xtick_11">
     <g id="line2d_11">
      <g>
       <use style="stroke:#000000;stroke-width:0.8;" x="580.11276" xlink:href="#m59a956323e" y="315"/>
      </g>
     </g>
     <g id="text_10">
      <!-- Jan -->
      <g transform="translate(572.404947 329.598437)scale(0.1 -0.1)">
       <use xlink:href="#DejaVuSans-74"/>
       <use x="29.492188" xlink:href="#DejaVuSans-97"/>
       <use x="90.771484" xlink:href="#DejaVuSans-110"/>
      </g>
      <!-- 2021 -->
      <g transform="translate(567.38776 340.79625)scale(0.1 -0.1)">
       <defs>
        <path d="M 19.1875 8.296875 
L 53.609375 8.296875 
L 53.609375 0 
L 7.328125 0 
L 7.328125 8.296875 
Q 12.9375 14.109375 22.625 23.890625 
Q 32.328125 33.6875 34.8125 36.53125 
Q 39.546875 41.84375 41.421875 45.53125 
Q 43.3125 49.21875 43.3125 52.78125 
Q 43.3125 58.59375 39.234375 62.25 
Q 35.15625 65.921875 28.609375 65.921875 
Q 23.96875 65.921875 18.8125 64.3125 
Q 13.671875 62.703125 7.8125 59.421875 
L 7.8125 69.390625 
Q 13.765625 71.78125 18.9375 73 
Q 24.125 74.21875 28.421875 74.21875 
Q 39.75 74.21875 46.484375 68.546875 
Q 53.21875 62.890625 53.21875 53.421875 
Q 53.21875 48.921875 51.53125 44.890625 
Q 49.859375 40.875 45.40625 35.40625 
Q 44.1875 33.984375 37.640625 27.21875 
Q 31.109375 20.453125 19.1875 8.296875 
z
" id="DejaVuSans-50"/>
        <path d="M 31.78125 66.40625 
Q 24.171875 66.40625 20.328125 58.90625 
Q 16.5 51.421875 16.5 36.375 
Q 16.5 21.390625 20.328125 13.890625 
Q 24.171875 6.390625 31.78125 6.390625 
Q 39.453125 6.390625 43.28125 13.890625 
Q 47.125 21.390625 47.125 36.375 
Q 47.125 51.421875 43.28125 58.90625 
Q 39.453125 66.40625 31.78125 66.40625 
z
M 31.78125 74.21875 
Q 44.046875 74.21875 50.515625 64.515625 
Q 56.984375 54.828125 56.984375 36.375 
Q 56.984375 17.96875 50.515625 8.265625 
Q 44.046875 -1.421875 31.78125 -1.421875 
Q 19.53125 -1.421875 13.0625 8.265625 
Q 6.59375 17.96875 6.59375 36.375 
Q 6.59375 54.828125 13.0625 64.515625 
Q 19.53125 74.21875 31.78125 74.21875 
z
" id="DejaVuSans-48"/>
        <path d="M 12.40625 8.296875 
L 28.515625 8.296875 
L 28.515625 63.921875 
L 10.984375 60.40625 
L 10.984375 69.390625 
L 28.421875 72.90625 
L 38.28125 72.90625 
L 38.28125 8.296875 
L 54.390625 8.296875 
L 54.390625 0 
L 12.40625 0 
z
" id="DejaVuSans-49"/>
       </defs>
       <use xlink:href="#DejaVuSans-50"/>
       <use x="63.623047" xlink:href="#DejaVuSans-48"/>
       <use x="127.246094" xlink:href="#DejaVuSans-50"/>
       <use x="190.869141" xlink:href="#DejaVuSans-49"/>
      </g>
     </g>
    </g>
    <g id="xtick_12">
     <g id="line2d_12">
      <g>
       <use style="stroke:#000000;stroke-width:0.8;" x="631.442136" xlink:href="#m59a956323e" y="315"/>
      </g>
     </g>
     <g id="text_11">
      <!-- Feb -->
      <g transform="translate(622.590574 329.598437)scale(0.1 -0.1)">
       <defs>
        <path d="M 9.8125 72.90625 
L 51.703125 72.90625 
L 51.703125 64.59375 
L 19.671875 64.59375 
L 19.671875 43.109375 
L 48.578125 43.109375 
L 48.578125 34.8125 
L 19.671875 34.8125 
L 19.671875 0 
L 9.8125 0 
z
" id="DejaVuSans-70"/>
        <path d="M 48.6875 27.296875 
Q 48.6875 37.203125 44.609375 42.84375 
Q 40.53125 48.484375 33.40625 48.484375 
Q 26.265625 48.484375 22.1875 42.84375 
Q 18.109375 37.203125 18.109375 27.296875 
Q 18.109375 17.390625 22.1875 11.75 
Q 26.265625 6.109375 33.40625 6.109375 
Q 40.53125 6.109375 44.609375 11.75 
Q 48.6875 17.390625 48.6875 27.296875 
z
M 18.109375 46.390625 
Q 20.953125 51.265625 25.265625 53.625 
Q 29.59375 56 35.59375 56 
Q 45.5625 56 51.78125 48.09375 
Q 58.015625 40.1875 58.015625 27.296875 
Q 58.015625 14.40625 51.78125 6.484375 
Q 45.5625 -1.421875 35.59375 -1.421875 
Q 29.59375 -1.421875 25.265625 0.953125 
Q 20.953125 3.328125 18.109375 8.203125 
L 18.109375 0 
L 9.078125 0 
L 9.078125 75.984375 
L 18.109375 75.984375 
z
" id="DejaVuSans-98"/>
       </defs>
       <use xlink:href="#DejaVuSans-70"/>
       <use x="52.019531" xlink:href="#DejaVuSans-101"/>
       <use x="113.542969" xlink:href="#DejaVuSans-98"/>
      </g>
     </g>
    </g>
    <g id="xtick_13">
     <g id="line2d_13">
      <g>
       <use style="stroke:#000000;stroke-width:0.8;" x="648" xlink:href="#m59a956323e" y="315"/>
      </g>
     </g>
    </g>
    <g id="xtick_14">
     <g id="line2d_14">
      <defs>
       <path d="M 0 0 
L 0 2 
" id="m15d8d04f0e" style="stroke:#000000;stroke-width:0.6;"/>
      </defs>
      <g>
       <use style="stroke:#000000;stroke-width:0.6;" x="98.278932" xlink:href="#m15d8d04f0e" y="315"/>
      </g>
     </g>
    </g>
    <g id="xtick_15">
     <g id="line2d_15">
      <g>
       <use style="stroke:#000000;stroke-width:0.6;" x="109.869436" xlink:href="#m15d8d04f0e" y="315"/>
      </g>
     </g>
    </g>
    <g id="xtick_16">
     <g id="line2d_16">
      <g>
       <use style="stroke:#000000;stroke-width:0.6;" x="121.459941" xlink:href="#m15d8d04f0e" y="315"/>
      </g>
     </g>
    </g>
    <g id="xtick_17">
     <g id="line2d_17">
      <g>
       <use style="stroke:#000000;stroke-width:0.6;" x="133.050445" xlink:href="#m15d8d04f0e" y="315"/>
      </g>
     </g>
    </g>
    <g id="xtick_18">
     <g id="line2d_18">
      <g>
       <use style="stroke:#000000;stroke-width:0.6;" x="144.64095" xlink:href="#m15d8d04f0e" y="315"/>
      </g>
     </g>
    </g>
    <g id="xtick_19">
     <g id="line2d_19">
      <g>
       <use style="stroke:#000000;stroke-width:0.6;" x="156.231454" xlink:href="#m15d8d04f0e" y="315"/>
      </g>
     </g>
    </g>
    <g id="xtick_20">
     <g id="line2d_20">
      <g>
       <use style="stroke:#000000;stroke-width:0.6;" x="167.821958" xlink:href="#m15d8d04f0e" y="315"/>
      </g>
     </g>
    </g>
    <g id="xtick_21">
     <g id="line2d_21">
      <g>
       <use style="stroke:#000000;stroke-width:0.6;" x="179.412463" xlink:href="#m15d8d04f0e" y="315"/>
      </g>
     </g>
    </g>
    <g id="xtick_22">
     <g id="line2d_22">
      <g>
       <use style="stroke:#000000;stroke-width:0.6;" x="191.002967" xlink:href="#m15d8d04f0e" y="315"/>
      </g>
     </g>
    </g>
    <g id="xtick_23">
     <g id="line2d_23">
      <g>
       <use style="stroke:#000000;stroke-width:0.6;" x="202.593472" xlink:href="#m15d8d04f0e" y="315"/>
      </g>
     </g>
    </g>
    <g id="xtick_24">
     <g id="line2d_24">
      <g>
       <use style="stroke:#000000;stroke-width:0.6;" x="214.183976" xlink:href="#m15d8d04f0e" y="315"/>
      </g>
     </g>
    </g>
    <g id="xtick_25">
     <g id="line2d_25">
      <g>
       <use style="stroke:#000000;stroke-width:0.6;" x="237.364985" xlink:href="#m15d8d04f0e" y="315"/>
      </g>
     </g>
    </g>
    <g id="xtick_26">
     <g id="line2d_26">
      <g>
       <use style="stroke:#000000;stroke-width:0.6;" x="248.95549" xlink:href="#m15d8d04f0e" y="315"/>
      </g>
     </g>
    </g>
    <g id="xtick_27">
     <g id="line2d_27">
      <g>
       <use style="stroke:#000000;stroke-width:0.6;" x="260.545994" xlink:href="#m15d8d04f0e" y="315"/>
      </g>
     </g>
    </g>
    <g id="xtick_28">
     <g id="line2d_28">
      <g>
       <use style="stroke:#000000;stroke-width:0.6;" x="272.136499" xlink:href="#m15d8d04f0e" y="315"/>
      </g>
     </g>
    </g>
    <g id="xtick_29">
     <g id="line2d_29">
      <g>
       <use style="stroke:#000000;stroke-width:0.6;" x="283.727003" xlink:href="#m15d8d04f0e" y="315"/>
      </g>
     </g>
    </g>
    <g id="xtick_30">
     <g id="line2d_30">
      <g>
       <use style="stroke:#000000;stroke-width:0.6;" x="295.317507" xlink:href="#m15d8d04f0e" y="315"/>
      </g>
     </g>
    </g>
    <g id="xtick_31">
     <g id="line2d_31">
      <g>
       <use style="stroke:#000000;stroke-width:0.6;" x="306.908012" xlink:href="#m15d8d04f0e" y="315"/>
      </g>
     </g>
    </g>
    <g id="xtick_32">
     <g id="line2d_32">
      <g>
       <use style="stroke:#000000;stroke-width:0.6;" x="318.498516" xlink:href="#m15d8d04f0e" y="315"/>
      </g>
     </g>
    </g>
    <g id="xtick_33">
     <g id="line2d_33">
      <g>
       <use style="stroke:#000000;stroke-width:0.6;" x="330.089021" xlink:href="#m15d8d04f0e" y="315"/>
      </g>
     </g>
    </g>
    <g id="xtick_34">
     <g id="line2d_34">
      <g>
       <use style="stroke:#000000;stroke-width:0.6;" x="341.679525" xlink:href="#m15d8d04f0e" y="315"/>
      </g>
     </g>
    </g>
    <g id="xtick_35">
     <g id="line2d_35">
      <g>
       <use style="stroke:#000000;stroke-width:0.6;" x="353.27003" xlink:href="#m15d8d04f0e" y="315"/>
      </g>
     </g>
    </g>
    <g id="xtick_36">
     <g id="line2d_36">
      <g>
       <use style="stroke:#000000;stroke-width:0.6;" x="364.860534" xlink:href="#m15d8d04f0e" y="315"/>
      </g>
     </g>
    </g>
    <g id="xtick_37">
     <g id="line2d_37">
      <g>
       <use style="stroke:#000000;stroke-width:0.6;" x="376.451039" xlink:href="#m15d8d04f0e" y="315"/>
      </g>
     </g>
    </g>
    <g id="xtick_38">
     <g id="line2d_38">
      <g>
       <use style="stroke:#000000;stroke-width:0.6;" x="388.041543" xlink:href="#m15d8d04f0e" y="315"/>
      </g>
     </g>
    </g>
    <g id="xtick_39">
     <g id="line2d_39">
      <g>
       <use style="stroke:#000000;stroke-width:0.6;" x="399.632047" xlink:href="#m15d8d04f0e" y="315"/>
      </g>
     </g>
    </g>
    <g id="xtick_40">
     <g id="line2d_40">
      <g>
       <use style="stroke:#000000;stroke-width:0.6;" x="411.222552" xlink:href="#m15d8d04f0e" y="315"/>
      </g>
     </g>
    </g>
    <g id="xtick_41">
     <g id="line2d_41">
      <g>
       <use style="stroke:#000000;stroke-width:0.6;" x="422.813056" xlink:href="#m15d8d04f0e" y="315"/>
      </g>
     </g>
    </g>
    <g id="xtick_42">
     <g id="line2d_42">
      <g>
       <use style="stroke:#000000;stroke-width:0.6;" x="434.403561" xlink:href="#m15d8d04f0e" y="315"/>
      </g>
     </g>
    </g>
    <g id="xtick_43">
     <g id="line2d_43">
      <g>
       <use style="stroke:#000000;stroke-width:0.6;" x="445.994065" xlink:href="#m15d8d04f0e" y="315"/>
      </g>
     </g>
    </g>
    <g id="xtick_44">
     <g id="line2d_44">
      <g>
       <use style="stroke:#000000;stroke-width:0.6;" x="457.58457" xlink:href="#m15d8d04f0e" y="315"/>
      </g>
     </g>
    </g>
    <g id="xtick_45">
     <g id="line2d_45">
      <g>
       <use style="stroke:#000000;stroke-width:0.6;" x="469.175074" xlink:href="#m15d8d04f0e" y="315"/>
      </g>
     </g>
    </g>
    <g id="xtick_46">
     <g id="line2d_46">
      <g>
       <use style="stroke:#000000;stroke-width:0.6;" x="480.765579" xlink:href="#m15d8d04f0e" y="315"/>
      </g>
     </g>
    </g>
    <g id="xtick_47">
     <g id="line2d_47">
      <g>
       <use style="stroke:#000000;stroke-width:0.6;" x="492.356083" xlink:href="#m15d8d04f0e" y="315"/>
      </g>
     </g>
    </g>
    <g id="xtick_48">
     <g id="line2d_48">
      <g>
       <use style="stroke:#000000;stroke-width:0.6;" x="503.946588" xlink:href="#m15d8d04f0e" y="315"/>
      </g>
     </g>
    </g>
    <g id="xtick_49">
     <g id="line2d_49">
      <g>
       <use style="stroke:#000000;stroke-width:0.6;" x="515.537092" xlink:href="#m15d8d04f0e" y="315"/>
      </g>
     </g>
    </g>
    <g id="xtick_50">
     <g id="line2d_50">
      <g>
       <use style="stroke:#000000;stroke-width:0.6;" x="527.127596" xlink:href="#m15d8d04f0e" y="315"/>
      </g>
     </g>
    </g>
    <g id="xtick_51">
     <g id="line2d_51">
      <g>
       <use style="stroke:#000000;stroke-width:0.6;" x="538.718101" xlink:href="#m15d8d04f0e" y="315"/>
      </g>
     </g>
    </g>
    <g id="xtick_52">
     <g id="line2d_52">
      <g>
       <use style="stroke:#000000;stroke-width:0.6;" x="550.308605" xlink:href="#m15d8d04f0e" y="315"/>
      </g>
     </g>
    </g>
    <g id="xtick_53">
     <g id="line2d_53">
      <g>
       <use style="stroke:#000000;stroke-width:0.6;" x="561.89911" xlink:href="#m15d8d04f0e" y="315"/>
      </g>
     </g>
    </g>
    <g id="xtick_54">
     <g id="line2d_54">
      <g>
       <use style="stroke:#000000;stroke-width:0.6;" x="573.489614" xlink:href="#m15d8d04f0e" y="315"/>
      </g>
     </g>
    </g>
    <g id="xtick_55">
     <g id="line2d_55">
      <g>
       <use style="stroke:#000000;stroke-width:0.6;" x="585.080119" xlink:href="#m15d8d04f0e" y="315"/>
      </g>
     </g>
    </g>
    <g id="xtick_56">
     <g id="line2d_56">
      <g>
       <use style="stroke:#000000;stroke-width:0.6;" x="596.670623" xlink:href="#m15d8d04f0e" y="315"/>
      </g>
     </g>
    </g>
    <g id="xtick_57">
     <g id="line2d_57">
      <g>
       <use style="stroke:#000000;stroke-width:0.6;" x="608.261128" xlink:href="#m15d8d04f0e" y="315"/>
      </g>
     </g>
    </g>
    <g id="xtick_58">
     <g id="line2d_58">
      <g>
       <use style="stroke:#000000;stroke-width:0.6;" x="619.851632" xlink:href="#m15d8d04f0e" y="315"/>
      </g>
     </g>
    </g>
    <g id="xtick_59">
     <g id="line2d_59">
      <g>
       <use style="stroke:#000000;stroke-width:0.6;" x="643.032641" xlink:href="#m15d8d04f0e" y="315"/>
      </g>
     </g>
    </g>
    <g id="text_12">
     <!-- date -->
     <g transform="translate(357.725 354.474375)scale(0.1 -0.1)">
      <defs>
       <path d="M 45.40625 46.390625 
L 45.40625 75.984375 
L 54.390625 75.984375 
L 54.390625 0 
L 45.40625 0 
L 45.40625 8.203125 
Q 42.578125 3.328125 38.25 0.953125 
Q 33.9375 -1.421875 27.875 -1.421875 
Q 17.96875 -1.421875 11.734375 6.484375 
Q 5.515625 14.40625 5.515625 27.296875 
Q 5.515625 40.1875 11.734375 48.09375 
Q 17.96875 56 27.875 56 
Q 33.9375 56 38.25 53.625 
Q 42.578125 51.265625 45.40625 46.390625 
z
M 14.796875 27.296875 
Q 14.796875 17.390625 18.875 11.75 
Q 22.953125 6.109375 30.078125 6.109375 
Q 37.203125 6.109375 41.296875 11.75 
Q 45.40625 17.390625 45.40625 27.296875 
Q 45.40625 37.203125 41.296875 42.84375 
Q 37.203125 48.484375 30.078125 48.484375 
Q 22.953125 48.484375 18.875 42.84375 
Q 14.796875 37.203125 14.796875 27.296875 
z
" id="DejaVuSans-100"/>
      </defs>
      <use xlink:href="#DejaVuSans-100"/>
      <use x="63.476562" xlink:href="#DejaVuSans-97"/>
      <use x="124.755859" xlink:href="#DejaVuSans-116"/>
      <use x="163.964844" xlink:href="#DejaVuSans-101"/>
     </g>
    </g>
   </g>
   <g id="matplotlib.axis_2">
    <g id="ytick_1">
     <g id="line2d_60">
      <path clip-path="url(#pfb458398f5)" d="M 90 286.066785 
L 648 286.066785 
" style="fill:none;stroke:#b0b0b0;stroke-dasharray:0.8,1.32;stroke-dashoffset:0;stroke-width:0.8;"/>
     </g>
     <g id="line2d_61">
      <defs>
       <path d="M 0 0 
L -3.5 0 
" id="mf9d0b06aaa" style="stroke:#000000;stroke-width:0.8;"/>
      </defs>
      <g>
       <use style="stroke:#000000;stroke-width:0.8;" x="90" xlink:href="#mf9d0b06aaa" y="286.066785"/>
      </g>
     </g>
     <g id="text_13">
      <!-- 0.50 -->
      <g transform="translate(60.734375 289.866004)scale(0.1 -0.1)">
       <defs>
        <path d="M 10.6875 12.40625 
L 21 12.40625 
L 21 0 
L 10.6875 0 
z
" id="DejaVuSans-46"/>
        <path d="M 10.796875 72.90625 
L 49.515625 72.90625 
L 49.515625 64.59375 
L 19.828125 64.59375 
L 19.828125 46.734375 
Q 21.96875 47.46875 24.109375 47.828125 
Q 26.265625 48.1875 28.421875 48.1875 
Q 40.625 48.1875 47.75 41.5 
Q 54.890625 34.8125 54.890625 23.390625 
Q 54.890625 11.625 47.5625 5.09375 
Q 40.234375 -1.421875 26.90625 -1.421875 
Q 22.3125 -1.421875 17.546875 -0.640625 
Q 12.796875 0.140625 7.71875 1.703125 
L 7.71875 11.625 
Q 12.109375 9.234375 16.796875 8.0625 
Q 21.484375 6.890625 26.703125 6.890625 
Q 35.15625 6.890625 40.078125 11.328125 
Q 45.015625 15.765625 45.015625 23.390625 
Q 45.015625 31 40.078125 35.4375 
Q 35.15625 39.890625 26.703125 39.890625 
Q 22.75 39.890625 18.8125 39.015625 
Q 14.890625 38.140625 10.796875 36.28125 
z
" id="DejaVuSans-53"/>
       </defs>
       <use xlink:href="#DejaVuSans-48"/>
       <use x="63.623047" xlink:href="#DejaVuSans-46"/>
       <use x="95.410156" xlink:href="#DejaVuSans-53"/>
       <use x="159.033203" xlink:href="#DejaVuSans-48"/>
      </g>
     </g>
    </g>
    <g id="ytick_2">
     <g id="line2d_62">
      <path clip-path="url(#pfb458398f5)" d="M 90 253.585607 
L 648 253.585607 
" style="fill:none;stroke:#b0b0b0;stroke-dasharray:0.8,1.32;stroke-dashoffset:0;stroke-width:0.8;"/>
     </g>
     <g id="line2d_63">
      <g>
       <use style="stroke:#000000;stroke-width:0.8;" x="90" xlink:href="#mf9d0b06aaa" y="253.585607"/>
      </g>
     </g>
     <g id="text_14">
      <!-- 0.75 -->
      <g transform="translate(60.734375 257.384825)scale(0.1 -0.1)">
       <defs>
        <path d="M 8.203125 72.90625 
L 55.078125 72.90625 
L 55.078125 68.703125 
L 28.609375 0 
L 18.3125 0 
L 43.21875 64.59375 
L 8.203125 64.59375 
z
" id="DejaVuSans-55"/>
       </defs>
       <use xlink:href="#DejaVuSans-48"/>
       <use x="63.623047" xlink:href="#DejaVuSans-46"/>
       <use x="95.410156" xlink:href="#DejaVuSans-55"/>
       <use x="159.033203" xlink:href="#DejaVuSans-53"/>
      </g>
     </g>
    </g>
    <g id="ytick_3">
     <g id="line2d_64">
      <path clip-path="url(#pfb458398f5)" d="M 90 221.104428 
L 648 221.104428 
" style="fill:none;stroke:#b0b0b0;stroke-dasharray:0.8,1.32;stroke-dashoffset:0;stroke-width:0.8;"/>
     </g>
     <g id="line2d_65">
      <g>
       <use style="stroke:#000000;stroke-width:0.8;" x="90" xlink:href="#mf9d0b06aaa" y="221.104428"/>
      </g>
     </g>
     <g id="text_15">
      <!-- 1.00 -->
      <g transform="translate(60.734375 224.903647)scale(0.1 -0.1)">
       <use xlink:href="#DejaVuSans-49"/>
       <use x="63.623047" xlink:href="#DejaVuSans-46"/>
       <use x="95.410156" xlink:href="#DejaVuSans-48"/>
       <use x="159.033203" xlink:href="#DejaVuSans-48"/>
      </g>
     </g>
    </g>
    <g id="ytick_4">
     <g id="line2d_66">
      <path clip-path="url(#pfb458398f5)" d="M 90 188.623249 
L 648 188.623249 
" style="fill:none;stroke:#b0b0b0;stroke-dasharray:0.8,1.32;stroke-dashoffset:0;stroke-width:0.8;"/>
     </g>
     <g id="line2d_67">
      <g>
       <use style="stroke:#000000;stroke-width:0.8;" x="90" xlink:href="#mf9d0b06aaa" y="188.623249"/>
      </g>
     </g>
     <g id="text_16">
      <!-- 1.25 -->
      <g transform="translate(60.734375 192.422468)scale(0.1 -0.1)">
       <use xlink:href="#DejaVuSans-49"/>
       <use x="63.623047" xlink:href="#DejaVuSans-46"/>
       <use x="95.410156" xlink:href="#DejaVuSans-50"/>
       <use x="159.033203" xlink:href="#DejaVuSans-53"/>
      </g>
     </g>
    </g>
    <g id="ytick_5">
     <g id="line2d_68">
      <path clip-path="url(#pfb458398f5)" d="M 90 156.142071 
L 648 156.142071 
" style="fill:none;stroke:#b0b0b0;stroke-dasharray:0.8,1.32;stroke-dashoffset:0;stroke-width:0.8;"/>
     </g>
     <g id="line2d_69">
      <g>
       <use style="stroke:#000000;stroke-width:0.8;" x="90" xlink:href="#mf9d0b06aaa" y="156.142071"/>
      </g>
     </g>
     <g id="text_17">
      <!-- 1.50 -->
      <g transform="translate(60.734375 159.94129)scale(0.1 -0.1)">
       <use xlink:href="#DejaVuSans-49"/>
       <use x="63.623047" xlink:href="#DejaVuSans-46"/>
       <use x="95.410156" xlink:href="#DejaVuSans-53"/>
       <use x="159.033203" xlink:href="#DejaVuSans-48"/>
      </g>
     </g>
    </g>
    <g id="ytick_6">
     <g id="line2d_70">
      <path clip-path="url(#pfb458398f5)" d="M 90 123.660892 
L 648 123.660892 
" style="fill:none;stroke:#b0b0b0;stroke-dasharray:0.8,1.32;stroke-dashoffset:0;stroke-width:0.8;"/>
     </g>
     <g id="line2d_71">
      <g>
       <use style="stroke:#000000;stroke-width:0.8;" x="90" xlink:href="#mf9d0b06aaa" y="123.660892"/>
      </g>
     </g>
     <g id="text_18">
      <!-- 1.75 -->
      <g transform="translate(60.734375 127.460111)scale(0.1 -0.1)">
       <use xlink:href="#DejaVuSans-49"/>
       <use x="63.623047" xlink:href="#DejaVuSans-46"/>
       <use x="95.410156" xlink:href="#DejaVuSans-55"/>
       <use x="159.033203" xlink:href="#DejaVuSans-53"/>
      </g>
     </g>
    </g>
    <g id="ytick_7">
     <g id="line2d_72">
      <path clip-path="url(#pfb458398f5)" d="M 90 91.179714 
L 648 91.179714 
" style="fill:none;stroke:#b0b0b0;stroke-dasharray:0.8,1.32;stroke-dashoffset:0;stroke-width:0.8;"/>
     </g>
     <g id="line2d_73">
      <g>
       <use style="stroke:#000000;stroke-width:0.8;" x="90" xlink:href="#mf9d0b06aaa" y="91.179714"/>
      </g>
     </g>
     <g id="text_19">
      <!-- 2.00 -->
      <g transform="translate(60.734375 94.978932)scale(0.1 -0.1)">
       <use xlink:href="#DejaVuSans-50"/>
       <use x="63.623047" xlink:href="#DejaVuSans-46"/>
       <use x="95.410156" xlink:href="#DejaVuSans-48"/>
       <use x="159.033203" xlink:href="#DejaVuSans-48"/>
      </g>
     </g>
    </g>
    <g id="ytick_8">
     <g id="line2d_74">
      <path clip-path="url(#pfb458398f5)" d="M 90 58.698535 
L 648 58.698535 
" style="fill:none;stroke:#b0b0b0;stroke-dasharray:0.8,1.32;stroke-dashoffset:0;stroke-width:0.8;"/>
     </g>
     <g id="line2d_75">
      <g>
       <use style="stroke:#000000;stroke-width:0.8;" x="90" xlink:href="#mf9d0b06aaa" y="58.698535"/>
      </g>
     </g>
     <g id="text_20">
      <!-- 2.25 -->
      <g transform="translate(60.734375 62.497754)scale(0.1 -0.1)">
       <use xlink:href="#DejaVuSans-50"/>
       <use x="63.623047" xlink:href="#DejaVuSans-46"/>
       <use x="95.410156" xlink:href="#DejaVuSans-50"/>
       <use x="159.033203" xlink:href="#DejaVuSans-53"/>
      </g>
     </g>
    </g>
   </g>
   <g id="line2d_76">
    <path clip-path="url(#pfb458398f5)" d="M 90 212.406603 
L 91.655786 212.847042 
L 93.311573 213.713722 
L 94.967359 214.219053 
L 96.623145 213.247508 
L 98.278932 215.023926 
L 99.934718 214.89796 
L 101.590504 215.543733 
L 103.246291 217.934463 
L 104.902077 218.809984 
L 106.557864 221.028663 
L 111.525223 229.305 
L 113.181009 232.66676 
L 114.836795 234.799554 
L 116.492582 237.67321 
L 119.804154 242.658619 
L 121.459941 245.807441 
L 123.115727 249.338157 
L 124.771513 251.932854 
L 126.4273 255.081994 
L 128.083086 258.626147 
L 131.394659 263.330727 
L 133.050445 266.385929 
L 134.706231 269.144764 
L 136.362018 271.14474 
L 138.017804 272.473701 
L 139.673591 274.787062 
L 141.329377 275.890308 
L 142.985163 277.598641 
L 146.296736 279.462079 
L 147.952522 279.565204 
L 149.608309 279.504559 
L 151.264095 279.185412 
L 152.919881 277.988524 
L 154.575668 277.281388 
L 156.231454 276.230208 
L 159.543027 272.773775 
L 161.198813 270.62212 
L 162.854599 268.828976 
L 164.510386 265.863458 
L 166.166172 263.437624 
L 167.821958 260.499056 
L 169.477745 256.114881 
L 171.133531 252.684732 
L 172.789318 248.31191 
L 176.10089 240.394691 
L 177.756677 235.804706 
L 179.412463 230.242097 
L 182.724036 221.744459 
L 187.691395 205.908322 
L 191.002967 194.370636 
L 192.658754 190.369765 
L 194.31454 182.871232 
L 195.970326 178.288094 
L 197.626113 172.798647 
L 200.937685 162.866365 
L 202.593472 157.984201 
L 205.905045 151.197162 
L 207.560831 147.163691 
L 209.216617 143.903864 
L 210.872404 143.74673 
L 212.52819 142.183029 
L 214.183976 139.071745 
L 215.839763 138.273377 
L 217.495549 139.278356 
L 219.151335 136.817924 
L 220.807122 134.896787 
L 222.462908 133.449862 
L 224.118694 131.228398 
L 225.774481 126.53563 
L 227.430267 124.185785 
L 229.086053 120.21939 
L 230.74184 115.686288 
L 232.397626 110.591865 
L 234.053412 106.852206 
L 235.709199 102.812425 
L 237.364985 97.70585 
L 239.020772 94.679844 
L 240.676558 93.901243 
L 242.332344 92.760003 
L 243.988131 93.192538 
L 245.643917 96.195356 
L 247.299703 99.95958 
L 248.95549 105.83017 
L 252.267062 123.022494 
L 255.578635 146.300231 
L 257.234421 156.638074 
L 258.890208 165.719501 
L 260.545994 177.1628 
L 263.857567 194.748603 
L 265.513353 202.767513 
L 268.824926 215.478284 
L 270.480712 219.745577 
L 272.136499 223.206578 
L 273.792285 225.493272 
L 277.103858 229.516144 
L 278.759644 230.64476 
L 280.41543 230.536065 
L 282.071217 230.985478 
L 283.727003 230.677511 
L 285.382789 230.073898 
L 287.038576 230.197058 
L 288.694362 228.715278 
L 290.350148 228.151777 
L 292.005935 226.535555 
L 295.317507 224.163589 
L 296.973294 223.601237 
L 298.62908 221.814035 
L 300.284866 221.373237 
L 301.940653 220.570597 
L 303.596439 220.630197 
L 305.252226 220.267415 
L 306.908012 220.811192 
L 308.563798 221.101219 
L 310.219585 220.956121 
L 311.875371 221.326764 
L 313.531157 222.399415 
L 315.186944 222.722549 
L 316.84273 223.974128 
L 318.498516 224.588831 
L 320.154303 224.775174 
L 321.810089 224.482141 
L 323.465875 223.746263 
L 325.121662 223.532161 
L 326.777448 222.662094 
L 328.433234 221.408682 
L 330.089021 220.003501 
L 331.744807 218.119835 
L 333.400593 215.567293 
L 335.05638 214.077315 
L 338.367953 210.033235 
L 340.023739 206.745462 
L 341.679525 204.887694 
L 343.335312 201.833362 
L 344.991098 199.295016 
L 348.302671 194.632614 
L 349.958457 193.521588 
L 353.27003 188.434611 
L 354.925816 187.804977 
L 356.581602 185.597132 
L 358.237389 184.061886 
L 359.893175 182.249248 
L 361.548961 181.582871 
L 363.204748 179.55261 
L 364.860534 177.843737 
L 366.51632 177.293533 
L 369.827893 177.283023 
L 371.48368 176.30483 
L 373.139466 177.733134 
L 374.795252 176.655439 
L 376.451039 176.892792 
L 378.106825 177.30454 
L 379.762611 175.989187 
L 381.418398 177.088627 
L 383.074184 179.490843 
L 384.72997 180.448272 
L 386.385757 181.558932 
L 389.697329 186.487453 
L 391.353116 189.925479 
L 394.664688 198.071576 
L 396.320475 203.947888 
L 397.976261 208.74868 
L 399.632047 214.677495 
L 401.287834 222.041054 
L 404.599407 235.755974 
L 406.255193 243.104416 
L 407.910979 248.668186 
L 411.222552 260.54762 
L 416.189911 275.279823 
L 417.845697 278.783978 
L 421.15727 284.860249 
L 422.813056 287.143162 
L 426.124629 290.659917 
L 427.780415 291.893699 
L 431.091988 293.303143 
L 432.747774 293.711188 
L 434.403561 293.615393 
L 437.715134 292.399 
L 439.37092 291.325212 
L 442.682493 288.914645 
L 444.338279 287.841971 
L 445.994065 286.384946 
L 447.649852 283.728271 
L 449.305638 281.731472 
L 450.961424 279.24418 
L 452.617211 275.882424 
L 454.272997 273.530114 
L 457.58457 266.825428 
L 459.240356 262.615447 
L 467.519288 243.92636 
L 470.830861 236.064496 
L 472.486647 232.428313 
L 474.142433 227.828083 
L 475.79822 224.2248 
L 477.454006 220.103512 
L 479.109792 217.061991 
L 480.765579 213.611548 
L 484.077151 205.51425 
L 485.732938 202.815468 
L 487.388724 199.534776 
L 489.04451 195.893679 
L 490.700297 191.974829 
L 492.356083 188.443396 
L 494.011869 185.967579 
L 495.667656 182.863047 
L 497.323442 179.995996 
L 498.979228 178.157415 
L 500.635015 175.938735 
L 502.290801 174.278079 
L 503.946588 174.398283 
L 505.602374 173.451769 
L 507.25816 173.818217 
L 508.913947 172.882109 
L 512.225519 174.474475 
L 513.881306 173.877992 
L 515.537092 172.640155 
L 517.192878 172.085312 
L 518.848665 171.841905 
L 520.504451 169.457015 
L 522.160237 168.10668 
L 523.816024 163.001128 
L 525.47181 161.091127 
L 527.127596 157.095849 
L 528.783383 154.018449 
L 530.439169 150.656386 
L 532.094955 146.510378 
L 535.406528 141.472936 
L 537.062315 140.62998 
L 538.718101 140.102988 
L 540.373887 139.777373 
L 542.029674 140.834489 
L 543.68546 143.649553 
L 545.341246 147.271197 
L 546.997033 151.240776 
L 548.652819 155.963367 
L 550.308605 159.841163 
L 553.620178 171.034579 
L 555.275964 174.569465 
L 556.931751 178.471652 
L 558.587537 182.909183 
L 560.243323 186.732339 
L 561.89911 191.010482 
L 563.554896 193.719226 
L 565.210682 197.89811 
L 566.866469 200.968392 
L 568.522255 205.066749 
L 570.178042 206.115305 
L 573.489614 210.102366 
L 575.145401 213.0731 
L 576.801187 213.823448 
L 578.456973 215.785455 
L 581.768546 218.449871 
L 583.424332 220.260563 
L 585.080119 220.810384 
L 586.735905 221.139374 
L 588.391691 222.205597 
L 590.047478 222.22925 
L 591.703264 222.969047 
L 595.014837 223.841295 
L 596.670623 223.375271 
L 598.326409 223.325364 
L 599.982196 222.927567 
L 603.293769 223.455755 
L 604.949555 223.402123 
L 606.605341 223.88154 
L 608.261128 224.842248 
L 609.916914 224.423255 
L 611.5727 225.874686 
L 613.228487 227.057843 
L 614.884273 229.112922 
L 616.540059 230.503172 
L 618.195846 232.043348 
L 619.851632 233.91971 
L 621.507418 236.682643 
L 623.163205 237.862438 
L 624.818991 239.590597 
L 626.474777 240.729539 
L 628.130564 242.164717 
L 629.78635 244.161298 
L 631.442136 244.080178 
L 633.097923 244.724352 
L 634.753709 245.949707 
L 636.409496 245.121975 
L 638.065282 244.626667 
L 639.721068 245.117781 
L 641.376855 246.11711 
L 643.032641 245.120445 
L 644.688427 245.323847 
L 648 246.135467 
L 649.655786 245.445311 
L 651.311573 245.470732 
L 652.967359 246.086909 
L 654.623145 245.788383 
L 656.278932 246.743036 
L 657.934718 245.895211 
L 659.590504 246.350032 
L 661.246291 246.251804 
L 661.246291 246.251804 
" style="fill:none;stroke:#fc997a;stroke-linecap:square;stroke-width:1.5;"/>
   </g>
   <g id="line2d_77">
    <path clip-path="url(#pfb458398f5)" d="M 90 221.104428 
L 648 221.104428 
" style="fill:none;stroke:#000000;stroke-dasharray:3.7,1.6;stroke-dashoffset:0;"/>
   </g>
   <g id="patch_3">
    <path d="M 90 315 
L 90 43.2 
" style="fill:none;stroke:#000000;stroke-linecap:square;stroke-linejoin:miter;stroke-width:0.8;"/>
   </g>
   <g id="patch_4">
    <path d="M 648 315 
L 648 43.2 
" style="fill:none;stroke:#000000;stroke-linecap:square;stroke-linejoin:miter;stroke-width:0.8;"/>
   </g>
   <g id="patch_5">
    <path d="M 90 315 
L 648 315 
" style="fill:none;stroke:#000000;stroke-linecap:square;stroke-linejoin:miter;stroke-width:0.8;"/>
   </g>
   <g id="patch_6">
    <path d="M 90 43.2 
L 648 43.2 
" style="fill:none;stroke:#000000;stroke-linecap:square;stroke-linejoin:miter;stroke-width:0.8;"/>
   </g>
   <g id="text_21">
    <!-- 613   $R_t$ -->
    <g transform="translate(318.24 37.2)scale(0.12 -0.12)">
     <defs>
      <path d="M 33.015625 40.375 
Q 26.375 40.375 22.484375 35.828125 
Q 18.609375 31.296875 18.609375 23.390625 
Q 18.609375 15.53125 22.484375 10.953125 
Q 26.375 6.390625 33.015625 6.390625 
Q 39.65625 6.390625 43.53125 10.953125 
Q 47.40625 15.53125 47.40625 23.390625 
Q 47.40625 31.296875 43.53125 35.828125 
Q 39.65625 40.375 33.015625 40.375 
z
M 52.59375 71.296875 
L 52.59375 62.3125 
Q 48.875 64.0625 45.09375 64.984375 
Q 41.3125 65.921875 37.59375 65.921875 
Q 27.828125 65.921875 22.671875 59.328125 
Q 17.53125 52.734375 16.796875 39.40625 
Q 19.671875 43.65625 24.015625 45.921875 
Q 28.375 48.1875 33.59375 48.1875 
Q 44.578125 48.1875 50.953125 41.515625 
Q 57.328125 34.859375 57.328125 23.390625 
Q 57.328125 12.15625 50.6875 5.359375 
Q 44.046875 -1.421875 33.015625 -1.421875 
Q 20.359375 -1.421875 13.671875 8.265625 
Q 6.984375 17.96875 6.984375 36.375 
Q 6.984375 53.65625 15.1875 63.9375 
Q 23.390625 74.21875 37.203125 74.21875 
Q 40.921875 74.21875 44.703125 73.484375 
Q 48.484375 72.75 52.59375 71.296875 
z
" id="DejaVuSans-54"/>
      <path d="M 40.578125 39.3125 
Q 47.65625 37.796875 51.625 33 
Q 55.609375 28.21875 55.609375 21.1875 
Q 55.609375 10.40625 48.1875 4.484375 
Q 40.765625 -1.421875 27.09375 -1.421875 
Q 22.515625 -1.421875 17.65625 -0.515625 
Q 12.796875 0.390625 7.625 2.203125 
L 7.625 11.71875 
Q 11.71875 9.328125 16.59375 8.109375 
Q 21.484375 6.890625 26.8125 6.890625 
Q 36.078125 6.890625 40.9375 10.546875 
Q 45.796875 14.203125 45.796875 21.1875 
Q 45.796875 27.640625 41.28125 31.265625 
Q 36.765625 34.90625 28.71875 34.90625 
L 20.21875 34.90625 
L 20.21875 43.015625 
L 29.109375 43.015625 
Q 36.375 43.015625 40.234375 45.921875 
Q 44.09375 48.828125 44.09375 54.296875 
Q 44.09375 59.90625 40.109375 62.90625 
Q 36.140625 65.921875 28.71875 65.921875 
Q 24.65625 65.921875 20.015625 65.03125 
Q 15.375 64.15625 9.8125 62.3125 
L 9.8125 71.09375 
Q 15.4375 72.65625 20.34375 73.4375 
Q 25.25 74.21875 29.59375 74.21875 
Q 40.828125 74.21875 47.359375 69.109375 
Q 53.90625 64.015625 53.90625 55.328125 
Q 53.90625 49.265625 50.4375 45.09375 
Q 46.96875 40.921875 40.578125 39.3125 
z
" id="DejaVuSans-51"/>
      <path id="DejaVuSans-32"/>
      <path d="M 51.125 47.703125 
L 41.453125 47.703125 
L 41.453125 0 
L 32.375 0 
L 32.375 47.703125 
L 4.296875 47.703125 
L 4.296875 54.6875 
L 51.125 54.6875 
z
" id="DejaVuSans-1491"/>
      <path d="M 18.171875 54.6875 
L 18.171875 0 
L 9.078125 0 
L 9.078125 54.6875 
z
" id="DejaVuSans-1493"/>
      <path d="M 21 0 
L 11.8125 0 
L 4.296875 54.6875 
L 13.328125 54.6875 
L 16.890625 28.953125 
Q 19.234375 29 21.0625 29.359375 
Q 22.90625 29.734375 24.265625 30.53125 
Q 25.640625 31.34375 26.609375 32.203125 
Q 27.59375 33.0625 28.296875 34.625 
Q 29 36.1875 29.40625 37.46875 
Q 29.828125 38.765625 30.1875 41.03125 
Q 30.5625 43.3125 30.75 45 
Q 30.953125 46.6875 31.265625 49.640625 
Q 31.59375 52.59375 31.890625 54.6875 
L 39.9375 54.6875 
Q 39.0625 42 37.890625 36.96875 
Q 35.890625 28.609375 30.609375 25.25 
Q 25.984375 22.265625 17.828125 21.96875 
L 19.921875 6.984375 
Q 24.703125 6.984375 28.390625 7.34375 
Q 32.078125 7.71875 35.640625 8.6875 
Q 39.203125 9.671875 41.8125 11.296875 
Q 44.4375 12.9375 46.84375 15.5 
Q 49.265625 18.0625 50.953125 21.625 
Q 52.640625 25.203125 54 30 
Q 55.375 34.8125 56.203125 40.90625 
Q 57.03125 47.015625 57.515625 54.6875 
L 66.546875 54.6875 
Q 65.671875 46.578125 64.640625 40.421875 
Q 63.625 34.28125 62.125 28.703125 
Q 60.640625 23.140625 58.8125 19.15625 
Q 56.984375 15.1875 54.421875 11.84375 
Q 51.859375 8.5 48.703125 6.375 
Q 45.5625 4.25 41.375 2.75 
Q 37.203125 1.265625 32.25 0.625 
Q 27.296875 0 21 0 
z
" id="DejaVuSans-1513"/>
      <path d="M 43.75 20.0625 
L 57.671875 0 
L 47.078125 0 
L 26.765625 29.296875 
Q 25.390625 28.609375 24.53125 28.09375 
Q 23.6875 27.59375 22.3125 26.296875 
Q 20.953125 25 20.140625 23.40625 
Q 19.34375 21.828125 18.703125 19.140625 
Q 18.0625 16.453125 18.0625 13.09375 
L 18.0625 0 
L 9.078125 0 
L 9.078125 9.03125 
Q 9.078125 12.984375 9.5625 16.359375 
Q 10.0625 19.734375 10.8125 22.078125 
Q 11.578125 24.421875 12.796875 26.390625 
Q 14.015625 28.375 15.109375 29.59375 
Q 16.21875 30.8125 17.796875 31.875 
Q 19.390625 32.953125 20.453125 33.46875 
Q 21.53125 33.984375 23.046875 34.625 
L 9.1875 54.6875 
L 19.78125 54.6875 
L 40.09375 25.390625 
Q 41.40625 26.03125 42.25 26.53125 
Q 43.109375 27.046875 44.46875 28.359375 
Q 45.84375 29.6875 46.671875 31.265625 
Q 47.515625 32.859375 48.140625 35.546875 
Q 48.78125 38.234375 48.78125 41.609375 
L 48.78125 54.6875 
L 57.765625 54.6875 
L 57.765625 45.65625 
Q 57.765625 41.65625 57.265625 38.3125 
Q 56.78125 34.96875 56.03125 32.59375 
Q 55.28125 30.21875 54.046875 28.234375 
Q 52.828125 26.265625 51.703125 25.0625 
Q 50.59375 23.875 49.03125 22.796875 
Q 47.46875 21.734375 46.390625 21.21875 
Q 45.3125 20.703125 43.75 20.0625 
z
" id="DejaVuSans-1488"/>
      <path d="M 47.359375 27.828125 
L 47.359375 0 
L 38.28125 0 
L 38.28125 27.828125 
Q 38.28125 31.390625 37.765625 34.265625 
Q 37.25 37.15625 36 39.71875 
Q 34.765625 42.28125 32.8125 43.984375 
Q 30.859375 45.703125 27.78125 46.703125 
Q 24.703125 47.703125 20.703125 47.703125 
L 4.296875 47.703125 
L 4.296875 54.6875 
L 20.65625 54.6875 
Q 26.8125 54.6875 31.46875 53.390625 
Q 36.140625 52.09375 39.109375 49.828125 
Q 42.09375 47.5625 43.96875 44.109375 
Q 45.84375 40.671875 46.59375 36.734375 
Q 47.359375 32.8125 47.359375 27.828125 
z
" id="DejaVuSans-1512"/>
      <path d="M 30.328125 54.6875 
L 30.328125 47.703125 
L 26.421875 47.703125 
Q 22.171875 47.703125 20.578125 43.921875 
Q 19 40.140625 19 30.90625 
L 19 0 
L 9.90625 0 
L 9.90625 30.90625 
Q 9.90625 37.109375 11.78125 41.453125 
Q 13.671875 45.796875 16.40625 47.703125 
L 4.296875 47.703125 
L 4.296875 54.6875 
z
" id="DejaVuSans-1494"/>
      <path d="M 25.203125 64.796875 
L 20.21875 38.921875 
L 32.90625 38.921875 
Q 40.375 38.921875 44.984375 43.046875 
Q 49.609375 47.171875 49.609375 53.8125 
Q 49.609375 59.125 46.5 61.953125 
Q 43.40625 64.796875 37.59375 64.796875 
z
M 43.3125 35.015625 
Q 46.4375 34.28125 48.515625 31.390625 
Q 50.59375 28.515625 53.328125 19.921875 
L 59.515625 0 
L 49.125 0 
L 43.40625 18.703125 
Q 41.21875 25.921875 38.328125 28.359375 
Q 35.453125 30.8125 29.5 30.8125 
L 18.609375 30.8125 
L 12.59375 0 
L 2.6875 0 
L 16.890625 72.90625 
L 39.109375 72.90625 
Q 49.21875 72.90625 54.609375 68.328125 
Q 60.015625 63.765625 60.015625 55.171875 
Q 60.015625 47.5625 55.421875 41.984375 
Q 50.828125 36.421875 43.3125 35.015625 
z
" id="DejaVuSans-Oblique-82"/>
      <path d="M 42.28125 54.6875 
L 40.921875 47.703125 
L 23 47.703125 
L 17.1875 18.015625 
Q 16.890625 16.359375 16.75 15.234375 
Q 16.609375 14.109375 16.609375 13.484375 
Q 16.609375 10.359375 18.484375 8.9375 
Q 20.359375 7.515625 24.515625 7.515625 
L 33.59375 7.515625 
L 32.078125 0 
L 23.484375 0 
Q 15.484375 0 11.546875 3.125 
Q 7.625 6.25 7.625 12.59375 
Q 7.625 13.71875 7.765625 15.0625 
Q 7.90625 16.40625 8.203125 18.015625 
L 14.015625 47.703125 
L 6.390625 47.703125 
L 7.8125 54.6875 
L 15.28125 54.6875 
L 18.3125 70.21875 
L 27.296875 70.21875 
L 24.3125 54.6875 
z
" id="DejaVuSans-Oblique-116"/>
     </defs>
     <use transform="translate(0 0.78125)" xlink:href="#DejaVuSans-54"/>
     <use transform="translate(63.623047 0.78125)" xlink:href="#DejaVuSans-49"/>
     <use transform="translate(127.246094 0.78125)" xlink:href="#DejaVuSans-51"/>
     <use transform="translate(190.869141 0.78125)" xlink:href="#DejaVuSans-32"/>
     <use transform="translate(222.65625 0.78125)" xlink:href="#DejaVuSans-1491"/>
     <use transform="translate(277.246094 0.78125)" xlink:href="#DejaVuSans-1493"/>
     <use transform="translate(304.492188 0.78125)" xlink:href="#DejaVuSans-1491"/>
     <use transform="translate(359.082031 0.78125)" xlink:href="#DejaVuSans-1513"/>
     <use transform="translate(429.931641 0.78125)" xlink:href="#DejaVuSans-1488"/>
     <use transform="translate(496.777344 0.78125)" xlink:href="#DejaVuSans-32"/>
     <use transform="translate(528.564453 0.78125)" xlink:href="#DejaVuSans-1512"/>
     <use transform="translate(585.009766 0.78125)" xlink:href="#DejaVuSans-1493"/>
     <use transform="translate(612.255859 0.78125)" xlink:href="#DejaVuSans-1494"/>
     <use transform="translate(646.875 0.78125)" xlink:href="#DejaVuSans-1488"/>
     <use transform="translate(713.720703 0.78125)" xlink:href="#DejaVuSans-32"/>
     <use transform="translate(745.507812 0.78125)" xlink:href="#DejaVuSans-Oblique-82"/>
     <use transform="translate(814.990234 -15.625)scale(0.7)" xlink:href="#DejaVuSans-Oblique-116"/>
    </g>
   </g>
  </g>
 </g>
 <defs>
  <clipPath id="pfb458398f5">
   <rect height="271.8" width="558" x="90" y="43.2"/>
  </clipPath>
 </defs>
</svg>
