<?xml version="1.0" encoding="utf-8" standalone="no"?>
<!DOCTYPE svg PUBLIC "-//W3C//DTD SVG 1.1//EN"
  "http://www.w3.org/Graphics/SVG/1.1/DTD/svg11.dtd">
<!-- Created with matplotlib (https://matplotlib.org/) -->
<svg height="360pt" version="1.1" viewBox="0 0 720 360" width="720pt" xmlns="http://www.w3.org/2000/svg" xmlns:xlink="http://www.w3.org/1999/xlink">
 <metadata>
  <rdf:RDF xmlns:cc="http://creativecommons.org/ns#" xmlns:dc="http://purl.org/dc/elements/1.1/" xmlns:rdf="http://www.w3.org/1999/02/22-rdf-syntax-ns#">
   <cc:Work>
    <dc:type rdf:resource="http://purl.org/dc/dcmitype/StillImage"/>
    <dc:date>2021-02-14T12:11:12.253650</dc:date>
    <dc:format>image/svg+xml</dc:format>
    <dc:creator>
     <cc:Agent>
      <dc:title>Matplotlib v3.3.2, https://matplotlib.org/</dc:title>
     </cc:Agent>
    </dc:creator>
   </cc:Work>
  </rdf:RDF>
 </metadata>
 <defs>
  <style type="text/css">*{stroke-linecap:butt;stroke-linejoin:round;}</style>
 </defs>
 <g id="figure_1">
  <g id="patch_1">
   <path d="M 0 360 
L 720 360 
L 720 0 
L 0 0 
z
" style="fill:#ffffff;"/>
  </g>
  <g id="axes_1">
   <g id="patch_2">
    <path d="M 90 315 
L 648 315 
L 648 43.2 
L 90 43.2 
z
" style="fill:#ffffff;"/>
   </g>
   <g id="PolyCollection_1">
    <defs>
     <path d="M 90 -87.542959 
L 90 -141.681559 
L 91.70122 -141.773161 
L 93.402439 -146.357943 
L 95.103659 -140.866902 
L 96.804878 -134.529678 
L 98.506098 -137.168728 
L 100.207317 -134.653877 
L 101.908537 -133.808573 
L 103.609756 -132.746995 
L 105.310976 -130.428368 
L 107.012195 -130.079116 
L 108.713415 -124.414705 
L 110.414634 -121.784242 
L 112.115854 -120.21303 
L 113.817073 -119.72478 
L 115.518293 -116.761412 
L 117.219512 -116.398506 
L 118.920732 -113.426098 
L 120.621951 -113.947902 
L 122.323171 -111.196214 
L 124.02439 -107.592393 
L 125.72561 -106.84403 
L 127.426829 -106.199128 
L 129.128049 -105.702421 
L 130.829268 -106.463195 
L 132.530488 -105.950129 
L 134.231707 -106.095257 
L 135.932927 -104.13193 
L 137.634146 -106.881333 
L 139.335366 -108.939374 
L 141.036585 -109.86472 
L 142.737805 -109.309651 
L 144.439024 -112.392938 
L 146.140244 -114.053193 
L 147.841463 -114.843053 
L 149.542683 -117.232759 
L 151.243902 -122.897993 
L 152.945122 -124.289871 
L 154.646341 -128.221805 
L 156.347561 -131.989701 
L 158.04878 -137.12927 
L 159.75 -139.024597 
L 161.45122 -139.694881 
L 163.152439 -146.35944 
L 164.853659 -147.388977 
L 166.554878 -153.910867 
L 168.256098 -152.087492 
L 169.957317 -156.698395 
L 171.658537 -162.193848 
L 173.359756 -159.996839 
L 175.060976 -161.772306 
L 176.762195 -164.373193 
L 178.463415 -171.331001 
L 180.164634 -173.430579 
L 181.865854 -176.430517 
L 183.567073 -180.726034 
L 185.268293 -179.61923 
L 186.969512 -188.531819 
L 188.670732 -191.04246 
L 190.371951 -190.255495 
L 192.073171 -191.667549 
L 193.77439 -202.573536 
L 195.47561 -205.089877 
L 197.176829 -209.625756 
L 198.878049 -216.113408 
L 200.579268 -217.356216 
L 202.280488 -225.714658 
L 203.981707 -229.741916 
L 205.682927 -239.305395 
L 207.384146 -242.9884 
L 209.085366 -247.563054 
L 210.786585 -250.341663 
L 212.487805 -260.041562 
L 214.189024 -265.534883 
L 215.890244 -269.613528 
L 217.591463 -269.996648 
L 219.292683 -276.80398 
L 220.993902 -276.615655 
L 222.695122 -277.330242 
L 224.396341 -279.824943 
L 226.097561 -277.393693 
L 227.79878 -280.5945 
L 229.5 -286.470586 
L 231.20122 -285.361842 
L 232.902439 -286.444676 
L 234.603659 -283.542225 
L 236.304878 -289.34335 
L 238.006098 -291.995108 
L 239.707317 -287.213104 
L 241.408537 -292.283837 
L 243.109756 -300.745743 
L 244.810976 -296.871348 
L 246.512195 -303.896067 
L 248.213415 -304.445455 
L 249.914634 -296.53008 
L 251.615854 -301.782596 
L 253.317073 -296.145722 
L 255.018293 -296.6026 
L 256.719512 -286.166899 
L 258.420732 -284.563626 
L 260.121951 -278.692994 
L 261.823171 -275.949113 
L 263.52439 -266.167321 
L 265.22561 -264.926777 
L 266.926829 -256.047811 
L 268.628049 -244.712082 
L 270.329268 -236.588693 
L 272.030488 -228.719319 
L 273.731707 -217.862637 
L 275.432927 -211.649818 
L 277.134146 -204.054434 
L 278.835366 -202.264562 
L 280.536585 -188.36295 
L 282.237805 -182.355197 
L 283.939024 -172.910358 
L 285.640244 -171.250321 
L 287.341463 -163.031565 
L 289.042683 -157.380253 
L 290.743902 -156.890886 
L 292.445122 -152.204577 
L 294.146341 -144.376523 
L 295.847561 -143.819594 
L 297.54878 -139.762619 
L 299.25 -140.363709 
L 300.95122 -137.561795 
L 302.652439 -136.308673 
L 304.353659 -135.467441 
L 306.054878 -136.807317 
L 307.756098 -138.566787 
L 309.457317 -138.609145 
L 311.158537 -137.53024 
L 312.859756 -138.262565 
L 314.560976 -139.069099 
L 316.262195 -141.111388 
L 317.963415 -139.323859 
L 319.664634 -141.68213 
L 321.365854 -143.080865 
L 323.067073 -144.629828 
L 324.768293 -147.411358 
L 326.469512 -150.980893 
L 328.170732 -149.411714 
L 329.871951 -155.033377 
L 331.573171 -156.866554 
L 333.27439 -161.016121 
L 334.97561 -163.230297 
L 336.676829 -166.529484 
L 338.378049 -166.397396 
L 340.079268 -167.45359 
L 341.780488 -171.383977 
L 343.481707 -172.666227 
L 345.182927 -174.791403 
L 346.884146 -181.404981 
L 348.585366 -179.773327 
L 350.286585 -184.466378 
L 351.987805 -191.66752 
L 353.689024 -193.433486 
L 355.390244 -199.264864 
L 357.091463 -208.868236 
L 358.792683 -210.550447 
L 360.493902 -219.071763 
L 362.195122 -221.675486 
L 363.896341 -231.836885 
L 365.597561 -239.540646 
L 367.29878 -245.131581 
L 369 -251.424272 
L 370.70122 -253.75706 
L 372.402439 -264.717132 
L 374.103659 -264.626752 
L 375.804878 -268.399723 
L 377.506098 -265.572566 
L 379.207317 -263.333928 
L 380.908537 -260.990825 
L 382.609756 -259.38826 
L 384.310976 -256.197979 
L 386.012195 -253.309849 
L 387.713415 -247.184117 
L 389.414634 -244.204127 
L 391.115854 -236.164172 
L 392.817073 -229.512825 
L 394.518293 -218.68312 
L 396.219512 -211.830928 
L 397.920732 -206.7456 
L 399.621951 -195.261964 
L 401.323171 -185.690339 
L 403.02439 -176.886537 
L 404.72561 -169.498308 
L 406.426829 -163.172787 
L 408.128049 -152.712554 
L 409.829268 -142.648955 
L 411.530488 -134.329354 
L 413.231707 -127.407991 
L 414.932927 -118.427118 
L 416.634146 -113.95722 
L 418.335366 -107.949092 
L 420.036585 -100.492366 
L 421.737805 -96.444558 
L 423.439024 -92.252714 
L 425.140244 -88.016744 
L 426.841463 -85.341691 
L 428.542683 -82.921127 
L 430.243902 -82.191923 
L 431.945122 -80.724003 
L 433.646341 -77.695388 
L 435.347561 -78.15124 
L 437.04878 -77.542016 
L 438.75 -78.163664 
L 440.45122 -78.02873 
L 442.152439 -78.931978 
L 443.853659 -80.788642 
L 445.554878 -81.085345 
L 447.256098 -83.134105 
L 448.957317 -83.712223 
L 450.658537 -87.214014 
L 452.359756 -90.514398 
L 454.060976 -95.330634 
L 455.762195 -96.877905 
L 457.463415 -100.548025 
L 459.164634 -105.795395 
L 460.865854 -109.321175 
L 462.567073 -114.350992 
L 464.268293 -122.045324 
L 465.969512 -126.323524 
L 467.670732 -130.853386 
L 469.371951 -140.185802 
L 471.073171 -144.893554 
L 472.77439 -152.633303 
L 474.47561 -160.295727 
L 476.176829 -164.520769 
L 477.878049 -169.995032 
L 479.579268 -178.687336 
L 481.280488 -182.017285 
L 482.981707 -189.038011 
L 484.682927 -190.06988 
L 486.384146 -195.273098 
L 488.085366 -199.334026 
L 489.786585 -201.300549 
L 491.487805 -203.28808 
L 493.189024 -206.960795 
L 494.890244 -214.015474 
L 496.591463 -214.631339 
L 498.292683 -218.029863 
L 499.993902 -217.969866 
L 501.695122 -220.180836 
L 503.396341 -219.581819 
L 505.097561 -223.131093 
L 506.79878 -218.223077 
L 508.5 -220.458605 
L 510.20122 -219.086525 
L 511.902439 -221.132704 
L 513.603659 -222.176047 
L 515.304878 -219.955494 
L 517.006098 -223.328533 
L 518.707317 -218.321536 
L 520.408537 -217.97816 
L 522.109756 -220.631193 
L 523.810976 -218.593139 
L 525.512195 -221.169504 
L 527.213415 -217.334641 
L 528.914634 -220.226295 
L 530.615854 -222.773437 
L 532.317073 -218.145777 
L 534.018293 -224.670408 
L 535.719512 -227.540264 
L 537.420732 -225.025456 
L 539.121951 -228.017845 
L 540.823171 -231.829652 
L 542.52439 -231.765969 
L 544.22561 -232.487873 
L 545.926829 -231.450435 
L 547.628049 -235.200604 
L 549.329268 -235.288925 
L 551.030488 -233.82856 
L 552.731707 -231.895692 
L 554.432927 -240.225277 
L 556.134146 -233.245547 
L 557.835366 -236.535014 
L 559.536585 -236.651952 
L 561.237805 -238.011503 
L 562.939024 -234.373268 
L 564.640244 -234.44769 
L 566.341463 -233.604314 
L 568.042683 -230.296568 
L 569.743902 -230.244338 
L 571.445122 -224.241185 
L 573.146341 -217.058566 
L 574.847561 -217.6647 
L 576.54878 -214.483699 
L 578.25 -209.62004 
L 579.95122 -202.741497 
L 581.652439 -201.695919 
L 583.353659 -198.037699 
L 585.054878 -191.410499 
L 586.756098 -189.679714 
L 588.457317 -188.989905 
L 590.158537 -184.404144 
L 591.859756 -181.553419 
L 593.560976 -178.83281 
L 595.262195 -177.884682 
L 596.963415 -173.744616 
L 598.664634 -170.404146 
L 600.365854 -169.679808 
L 602.067073 -167.909798 
L 603.768293 -164.467237 
L 605.469512 -165.707598 
L 607.170732 -166.180234 
L 608.871951 -166.982348 
L 610.573171 -169.685491 
L 612.27439 -166.857313 
L 613.97561 -164.704089 
L 615.676829 -166.521538 
L 617.378049 -166.889995 
L 619.079268 -170.204964 
L 620.780488 -168.485985 
L 622.481707 -169.376178 
L 624.182927 -165.271569 
L 625.884146 -167.655613 
L 627.585366 -166.146045 
L 629.286585 -165.62355 
L 630.987805 -166.491328 
L 632.689024 -167.374878 
L 634.390244 -164.410373 
L 636.091463 -165.433271 
L 637.792683 -167.801582 
L 639.493902 -168.355598 
L 641.195122 -174.826832 
L 642.896341 -172.411814 
L 644.597561 -171.876416 
L 646.29878 -173.169745 
L 648 -170.820471 
L 649.70122 -178.411984 
L 651.402439 -172.705258 
L 653.103659 -177.032217 
L 654.804878 -188.203317 
L 656.506098 -180.927645 
L 658.207317 -185.738556 
L 659.908537 -186.763656 
L 661.609756 -186.759069 
L 661.609756 -89.598481 
L 661.609756 -89.598481 
L 659.908537 -95.152957 
L 658.207317 -95.720708 
L 656.506098 -93.871293 
L 654.804878 -101.569926 
L 653.103659 -94.848793 
L 651.402439 -93.904409 
L 649.70122 -104.828508 
L 648 -99.963226 
L 646.29878 -104.638416 
L 644.597561 -107.349804 
L 642.896341 -111.382399 
L 641.195122 -116.365297 
L 639.493902 -115.965093 
L 637.792683 -119.889728 
L 636.091463 -118.018339 
L 634.390244 -119.686355 
L 632.689024 -124.937039 
L 630.987805 -126.210188 
L 629.286585 -124.47677 
L 627.585366 -127.325979 
L 625.884146 -129.592137 
L 624.182927 -128.130315 
L 622.481707 -131.541964 
L 620.780488 -130.682065 
L 619.079268 -132.921428 
L 617.378049 -131.248388 
L 615.676829 -129.157971 
L 613.97561 -128.118943 
L 612.27439 -129.276675 
L 610.573171 -131.231707 
L 608.871951 -128.932654 
L 607.170732 -128.671295 
L 605.469512 -127.950725 
L 603.768293 -127.078153 
L 602.067073 -131.125315 
L 600.365854 -133.787276 
L 598.664634 -131.150284 
L 596.963415 -133.188871 
L 595.262195 -137.171516 
L 593.560976 -136.850245 
L 591.859756 -140.067543 
L 590.158537 -143.452255 
L 588.457317 -149.252238 
L 586.756098 -147.806697 
L 585.054878 -148.256814 
L 583.353659 -153.774185 
L 581.652439 -156.675442 
L 579.95122 -158.490504 
L 578.25 -165.694265 
L 576.54878 -168.664134 
L 574.847561 -171.990035 
L 573.146341 -170.604004 
L 571.445122 -175.078325 
L 569.743902 -180.143168 
L 568.042683 -179.591911 
L 566.341463 -181.257931 
L 564.640244 -180.762586 
L 562.939024 -181.850419 
L 561.237805 -185.162106 
L 559.536585 -186.237423 
L 557.835366 -186.509467 
L 556.134146 -185.151052 
L 554.432927 -189.113087 
L 552.731707 -183.165603 
L 551.030488 -183.639652 
L 549.329268 -182.93769 
L 547.628049 -183.544991 
L 545.926829 -179.570722 
L 544.22561 -178.243034 
L 542.52439 -175.957875 
L 540.823171 -177.978699 
L 539.121951 -177.299388 
L 537.420732 -173.256203 
L 535.719512 -178.5172 
L 534.018293 -176.772254 
L 532.317073 -168.627705 
L 530.615854 -174.003245 
L 528.914634 -170.869479 
L 527.213415 -167.066908 
L 525.512195 -170.419829 
L 523.810976 -164.949373 
L 522.109756 -167.659352 
L 520.408537 -168.488329 
L 518.707317 -166.265259 
L 517.006098 -169.7471 
L 515.304878 -165.855225 
L 513.603659 -170.752644 
L 511.902439 -170.671682 
L 510.20122 -169.357211 
L 508.5 -170.00143 
L 506.79878 -168.276698 
L 505.097561 -169.094214 
L 503.396341 -166.063735 
L 501.695122 -166.885403 
L 499.993902 -164.771437 
L 498.292683 -165.014161 
L 496.591463 -161.733971 
L 494.890244 -165.657951 
L 493.189024 -159.221233 
L 491.487805 -153.688512 
L 489.786585 -152.143939 
L 488.085366 -150.962452 
L 486.384146 -147.815187 
L 484.682927 -144.849764 
L 482.981707 -144.109511 
L 481.280488 -139.305422 
L 479.579268 -137.880352 
L 477.878049 -129.528119 
L 476.176829 -122.540974 
L 474.47561 -119.31471 
L 472.77439 -113.966585 
L 471.073171 -107.983465 
L 469.371951 -104.435029 
L 467.670732 -97.155901 
L 465.969512 -94.459896 
L 464.268293 -91.314131 
L 462.567073 -84.969565 
L 460.865854 -81.197091 
L 459.164634 -78.725764 
L 457.463415 -75.214744 
L 455.762195 -72.162949 
L 454.060976 -72.258589 
L 452.359756 -69.000052 
L 450.658537 -66.397782 
L 448.957317 -63.193939 
L 447.256098 -63.007631 
L 445.554878 -61.097543 
L 443.853659 -61.009911 
L 442.152439 -59.211561 
L 440.45122 -59.359731 
L 438.75 -59.507198 
L 437.04878 -58.375319 
L 435.347561 -58.738655 
L 433.646341 -57.354545 
L 431.945122 -60.831721 
L 430.243902 -61.831865 
L 428.542683 -62.881167 
L 426.841463 -65.600619 
L 425.140244 -67.687752 
L 423.439024 -71.529642 
L 421.737805 -74.526327 
L 420.036585 -76.663015 
L 418.335366 -82.978776 
L 416.634146 -86.306932 
L 414.932927 -91.798114 
L 413.231707 -98.434646 
L 411.530488 -104.14187 
L 409.829268 -109.580373 
L 408.128049 -117.963706 
L 406.426829 -126.209322 
L 404.72561 -132.832208 
L 403.02439 -139.225154 
L 401.323171 -143.686381 
L 399.621951 -150.578247 
L 397.920732 -160.612012 
L 396.219512 -165.532714 
L 394.518293 -168.345232 
L 392.817073 -179.434949 
L 391.115854 -184.672968 
L 389.414634 -190.89325 
L 387.713415 -193.512543 
L 386.012195 -195.30649 
L 384.310976 -200.416321 
L 382.609756 -203.213615 
L 380.908537 -205.047983 
L 379.207317 -206.634316 
L 377.506098 -206.717964 
L 375.804878 -211.008907 
L 374.103659 -208.183943 
L 372.402439 -207.507716 
L 370.70122 -195.132602 
L 369 -196.088956 
L 367.29878 -193.030249 
L 365.597561 -184.838757 
L 363.896341 -180.63897 
L 362.195122 -172.2375 
L 360.493902 -170.268574 
L 358.792683 -162.299465 
L 357.091463 -160.281395 
L 355.390244 -152.221254 
L 353.689024 -150.537818 
L 351.987805 -147.957506 
L 350.286585 -145.071626 
L 348.585366 -140.390149 
L 346.884146 -142.180801 
L 345.182927 -136.325378 
L 343.481707 -133.827131 
L 341.780488 -132.673416 
L 340.079268 -127.301873 
L 338.378049 -125.454476 
L 336.676829 -125.410875 
L 334.97561 -124.566228 
L 333.27439 -123.482951 
L 331.573171 -120.963904 
L 329.871951 -118.24105 
L 328.170732 -115.741502 
L 326.469512 -116.541873 
L 324.768293 -114.338975 
L 323.067073 -112.763132 
L 321.365854 -111.947426 
L 319.664634 -110.469086 
L 317.963415 -107.617559 
L 316.262195 -107.703265 
L 314.560976 -106.590803 
L 312.859756 -106.573965 
L 311.158537 -106.668125 
L 309.457317 -107.991346 
L 307.756098 -107.462325 
L 306.054878 -105.861594 
L 304.353659 -103.817813 
L 302.652439 -105.055213 
L 300.95122 -106.36788 
L 299.25 -109.133225 
L 297.54878 -106.704115 
L 295.847561 -110.136221 
L 294.146341 -110.63745 
L 292.445122 -116.507095 
L 290.743902 -120.969331 
L 289.042683 -121.929427 
L 287.341463 -125.213206 
L 285.640244 -133.32023 
L 283.939024 -134.594802 
L 282.237805 -143.626669 
L 280.536585 -147.215359 
L 278.835366 -157.512183 
L 277.134146 -158.99386 
L 275.432927 -165.053033 
L 273.731707 -171.566166 
L 272.030488 -179.29125 
L 270.329268 -185.138881 
L 268.628049 -192.666333 
L 266.926829 -200.871474 
L 265.22561 -208.45363 
L 263.52439 -207.897531 
L 261.823171 -216.184601 
L 260.121951 -214.151743 
L 258.420732 -219.715871 
L 256.719512 -222.073344 
L 255.018293 -232.219839 
L 253.317073 -230.21902 
L 251.615854 -231.232513 
L 249.914634 -224.574602 
L 248.213415 -230.67659 
L 246.512195 -230.333813 
L 244.810976 -225.219908 
L 243.109756 -229.156108 
L 241.408537 -222.511465 
L 239.707317 -216.49032 
L 238.006098 -222.928594 
L 236.304878 -218.590434 
L 234.603659 -212.504476 
L 232.902439 -218.59891 
L 231.20122 -213.571766 
L 229.5 -212.488806 
L 227.79878 -207.893021 
L 226.097561 -205.635012 
L 224.396341 -204.826562 
L 222.695122 -201.219158 
L 220.993902 -200.285553 
L 219.292683 -203.31252 
L 217.591463 -195.429749 
L 215.890244 -193.964192 
L 214.189024 -193.157149 
L 212.487805 -190.990649 
L 210.786585 -183.308147 
L 209.085366 -182.778468 
L 207.384146 -177.697464 
L 205.682927 -174.159799 
L 203.981707 -169.797 
L 202.280488 -165.740254 
L 200.579268 -159.608911 
L 198.878049 -158.008018 
L 197.176829 -151.608091 
L 195.47561 -148.451696 
L 193.77439 -146.592941 
L 192.073171 -135.614324 
L 190.371951 -137.064943 
L 188.670732 -139.793091 
L 186.969512 -137.330645 
L 185.268293 -129.667369 
L 183.567073 -128.255612 
L 181.865854 -125.589959 
L 180.164634 -123.08796 
L 178.463415 -123.680352 
L 176.762195 -115.627968 
L 175.060976 -113.754169 
L 173.359756 -114.638489 
L 171.658537 -114.827239 
L 169.957317 -109.406449 
L 168.256098 -107.104671 
L 166.554878 -107.967602 
L 164.853659 -102.905559 
L 163.152439 -102.197108 
L 161.45122 -97.508026 
L 159.75 -97.797972 
L 158.04878 -95.72898 
L 156.347561 -92.894508 
L 154.646341 -89.580367 
L 152.945122 -89.188818 
L 151.243902 -88.751192 
L 149.542683 -84.56593 
L 147.841463 -82.106431 
L 146.140244 -82.646839 
L 144.439024 -81.358018 
L 142.737805 -78.950731 
L 141.036585 -78.621245 
L 139.335366 -79.198735 
L 137.634146 -77.631679 
L 135.932927 -75.89246 
L 134.231707 -77.267653 
L 132.530488 -76.829084 
L 130.829268 -77.897171 
L 129.128049 -75.882877 
L 127.426829 -76.124009 
L 125.72561 -75.581461 
L 124.02439 -77.293942 
L 122.323171 -79.259405 
L 120.621951 -82.222885 
L 118.920732 -82.177644 
L 117.219512 -83.790653 
L 115.518293 -83.560526 
L 113.817073 -85.059118 
L 112.115854 -86.335057 
L 110.414634 -88.18776 
L 108.713415 -89.060084 
L 107.012195 -93.427896 
L 105.310976 -93.591827 
L 103.609756 -93.662753 
L 101.908537 -93.588609 
L 100.207317 -93.095682 
L 98.506098 -91.914429 
L 96.804878 -87.716176 
L 95.103659 -91.520481 
L 93.402439 -95.57135 
L 91.70122 -88.529381 
L 90 -87.542959 
z
" id="mae9e6e7c6b" style="stroke:#fdcbb6;stroke-opacity:0.8;"/>
    </defs>
    <g clip-path="url(#p8fc12479fa)">
     <use style="fill:#fdcbb6;fill-opacity:0.8;stroke:#fdcbb6;stroke-opacity:0.8;" x="0" xlink:href="#mae9e6e7c6b" y="360"/>
    </g>
   </g>
   <g id="matplotlib.axis_1">
    <g id="xtick_1">
     <g id="line2d_1">
      <defs>
       <path d="M 0 0 
L 0 3.5 
" id="m4c48cbda35" style="stroke:#000000;stroke-width:0.8;"/>
      </defs>
      <g>
       <use style="stroke:#000000;stroke-width:0.8;" x="90" xlink:href="#m4c48cbda35" y="315"/>
      </g>
     </g>
    </g>
    <g id="xtick_2">
     <g id="line2d_2">
      <g>
       <use style="stroke:#000000;stroke-width:0.8;" x="122.323171" xlink:href="#m4c48cbda35" y="315"/>
      </g>
     </g>
     <g id="text_1">
      <!-- Apr -->
      <g transform="translate(113.673171 329.598437)scale(0.1 -0.1)">
       <defs>
        <path d="M 34.1875 63.1875 
L 20.796875 26.90625 
L 47.609375 26.90625 
z
M 28.609375 72.90625 
L 39.796875 72.90625 
L 67.578125 0 
L 57.328125 0 
L 50.6875 18.703125 
L 17.828125 18.703125 
L 11.1875 0 
L 0.78125 0 
z
" id="DejaVuSans-65"/>
        <path d="M 18.109375 8.203125 
L 18.109375 -20.796875 
L 9.078125 -20.796875 
L 9.078125 54.6875 
L 18.109375 54.6875 
L 18.109375 46.390625 
Q 20.953125 51.265625 25.265625 53.625 
Q 29.59375 56 35.59375 56 
Q 45.5625 56 51.78125 48.09375 
Q 58.015625 40.1875 58.015625 27.296875 
Q 58.015625 14.40625 51.78125 6.484375 
Q 45.5625 -1.421875 35.59375 -1.421875 
Q 29.59375 -1.421875 25.265625 0.953125 
Q 20.953125 3.328125 18.109375 8.203125 
z
M 48.6875 27.296875 
Q 48.6875 37.203125 44.609375 42.84375 
Q 40.53125 48.484375 33.40625 48.484375 
Q 26.265625 48.484375 22.1875 42.84375 
Q 18.109375 37.203125 18.109375 27.296875 
Q 18.109375 17.390625 22.1875 11.75 
Q 26.265625 6.109375 33.40625 6.109375 
Q 40.53125 6.109375 44.609375 11.75 
Q 48.6875 17.390625 48.6875 27.296875 
z
" id="DejaVuSans-112"/>
        <path d="M 41.109375 46.296875 
Q 39.59375 47.171875 37.8125 47.578125 
Q 36.03125 48 33.890625 48 
Q 26.265625 48 22.1875 43.046875 
Q 18.109375 38.09375 18.109375 28.8125 
L 18.109375 0 
L 9.078125 0 
L 9.078125 54.6875 
L 18.109375 54.6875 
L 18.109375 46.1875 
Q 20.953125 51.171875 25.484375 53.578125 
Q 30.03125 56 36.53125 56 
Q 37.453125 56 38.578125 55.875 
Q 39.703125 55.765625 41.0625 55.515625 
z
" id="DejaVuSans-114"/>
       </defs>
       <use xlink:href="#DejaVuSans-65"/>
       <use x="68.408203" xlink:href="#DejaVuSans-112"/>
       <use x="131.884766" xlink:href="#DejaVuSans-114"/>
      </g>
     </g>
    </g>
    <g id="xtick_3">
     <g id="line2d_3">
      <g>
       <use style="stroke:#000000;stroke-width:0.8;" x="173.359756" xlink:href="#m4c48cbda35" y="315"/>
      </g>
     </g>
     <g id="text_2">
      <!-- May -->
      <g transform="translate(163.022256 329.598437)scale(0.1 -0.1)">
       <defs>
        <path d="M 9.8125 72.90625 
L 24.515625 72.90625 
L 43.109375 23.296875 
L 61.8125 72.90625 
L 76.515625 72.90625 
L 76.515625 0 
L 66.890625 0 
L 66.890625 64.015625 
L 48.09375 14.015625 
L 38.1875 14.015625 
L 19.390625 64.015625 
L 19.390625 0 
L 9.8125 0 
z
" id="DejaVuSans-77"/>
        <path d="M 34.28125 27.484375 
Q 23.390625 27.484375 19.1875 25 
Q 14.984375 22.515625 14.984375 16.5 
Q 14.984375 11.71875 18.140625 8.90625 
Q 21.296875 6.109375 26.703125 6.109375 
Q 34.1875 6.109375 38.703125 11.40625 
Q 43.21875 16.703125 43.21875 25.484375 
L 43.21875 27.484375 
z
M 52.203125 31.203125 
L 52.203125 0 
L 43.21875 0 
L 43.21875 8.296875 
Q 40.140625 3.328125 35.546875 0.953125 
Q 30.953125 -1.421875 24.3125 -1.421875 
Q 15.921875 -1.421875 10.953125 3.296875 
Q 6 8.015625 6 15.921875 
Q 6 25.140625 12.171875 29.828125 
Q 18.359375 34.515625 30.609375 34.515625 
L 43.21875 34.515625 
L 43.21875 35.40625 
Q 43.21875 41.609375 39.140625 45 
Q 35.0625 48.390625 27.6875 48.390625 
Q 23 48.390625 18.546875 47.265625 
Q 14.109375 46.140625 10.015625 43.890625 
L 10.015625 52.203125 
Q 14.9375 54.109375 19.578125 55.046875 
Q 24.21875 56 28.609375 56 
Q 40.484375 56 46.34375 49.84375 
Q 52.203125 43.703125 52.203125 31.203125 
z
" id="DejaVuSans-97"/>
        <path d="M 32.171875 -5.078125 
Q 28.375 -14.84375 24.75 -17.8125 
Q 21.140625 -20.796875 15.09375 -20.796875 
L 7.90625 -20.796875 
L 7.90625 -13.28125 
L 13.1875 -13.28125 
Q 16.890625 -13.28125 18.9375 -11.515625 
Q 21 -9.765625 23.484375 -3.21875 
L 25.09375 0.875 
L 2.984375 54.6875 
L 12.5 54.6875 
L 29.59375 11.921875 
L 46.6875 54.6875 
L 56.203125 54.6875 
z
" id="DejaVuSans-121"/>
       </defs>
       <use xlink:href="#DejaVuSans-77"/>
       <use x="86.279297" xlink:href="#DejaVuSans-97"/>
       <use x="147.558594" xlink:href="#DejaVuSans-121"/>
      </g>
     </g>
    </g>
    <g id="xtick_4">
     <g id="line2d_4">
      <g>
       <use style="stroke:#000000;stroke-width:0.8;" x="226.097561" xlink:href="#m4c48cbda35" y="315"/>
      </g>
     </g>
     <g id="text_3">
      <!-- Jun -->
      <g transform="translate(218.285061 329.598437)scale(0.1 -0.1)">
       <defs>
        <path d="M 9.8125 72.90625 
L 19.671875 72.90625 
L 19.671875 5.078125 
Q 19.671875 -8.109375 14.671875 -14.0625 
Q 9.671875 -20.015625 -1.421875 -20.015625 
L -5.171875 -20.015625 
L -5.171875 -11.71875 
L -2.09375 -11.71875 
Q 4.4375 -11.71875 7.125 -8.046875 
Q 9.8125 -4.390625 9.8125 5.078125 
z
" id="DejaVuSans-74"/>
        <path d="M 8.5 21.578125 
L 8.5 54.6875 
L 17.484375 54.6875 
L 17.484375 21.921875 
Q 17.484375 14.15625 20.5 10.265625 
Q 23.53125 6.390625 29.59375 6.390625 
Q 36.859375 6.390625 41.078125 11.03125 
Q 45.3125 15.671875 45.3125 23.6875 
L 45.3125 54.6875 
L 54.296875 54.6875 
L 54.296875 0 
L 45.3125 0 
L 45.3125 8.40625 
Q 42.046875 3.421875 37.71875 1 
Q 33.40625 -1.421875 27.6875 -1.421875 
Q 18.265625 -1.421875 13.375 4.4375 
Q 8.5 10.296875 8.5 21.578125 
z
M 31.109375 56 
z
" id="DejaVuSans-117"/>
        <path d="M 54.890625 33.015625 
L 54.890625 0 
L 45.90625 0 
L 45.90625 32.71875 
Q 45.90625 40.484375 42.875 44.328125 
Q 39.84375 48.1875 33.796875 48.1875 
Q 26.515625 48.1875 22.3125 43.546875 
Q 18.109375 38.921875 18.109375 30.90625 
L 18.109375 0 
L 9.078125 0 
L 9.078125 54.6875 
L 18.109375 54.6875 
L 18.109375 46.1875 
Q 21.34375 51.125 25.703125 53.5625 
Q 30.078125 56 35.796875 56 
Q 45.21875 56 50.046875 50.171875 
Q 54.890625 44.34375 54.890625 33.015625 
z
" id="DejaVuSans-110"/>
       </defs>
       <use xlink:href="#DejaVuSans-74"/>
       <use x="29.492188" xlink:href="#DejaVuSans-117"/>
       <use x="92.871094" xlink:href="#DejaVuSans-110"/>
      </g>
     </g>
    </g>
    <g id="xtick_5">
     <g id="line2d_5">
      <g>
       <use style="stroke:#000000;stroke-width:0.8;" x="277.134146" xlink:href="#m4c48cbda35" y="315"/>
      </g>
     </g>
     <g id="text_4">
      <!-- Jul -->
      <g transform="translate(271.101334 329.598437)scale(0.1 -0.1)">
       <defs>
        <path d="M 9.421875 75.984375 
L 18.40625 75.984375 
L 18.40625 0 
L 9.421875 0 
z
" id="DejaVuSans-108"/>
       </defs>
       <use xlink:href="#DejaVuSans-74"/>
       <use x="29.492188" xlink:href="#DejaVuSans-117"/>
       <use x="92.871094" xlink:href="#DejaVuSans-108"/>
      </g>
     </g>
    </g>
    <g id="xtick_6">
     <g id="line2d_6">
      <g>
       <use style="stroke:#000000;stroke-width:0.8;" x="329.871951" xlink:href="#m4c48cbda35" y="315"/>
      </g>
     </g>
     <g id="text_5">
      <!-- Aug -->
      <g transform="translate(320.10867 329.598437)scale(0.1 -0.1)">
       <defs>
        <path d="M 45.40625 27.984375 
Q 45.40625 37.75 41.375 43.109375 
Q 37.359375 48.484375 30.078125 48.484375 
Q 22.859375 48.484375 18.828125 43.109375 
Q 14.796875 37.75 14.796875 27.984375 
Q 14.796875 18.265625 18.828125 12.890625 
Q 22.859375 7.515625 30.078125 7.515625 
Q 37.359375 7.515625 41.375 12.890625 
Q 45.40625 18.265625 45.40625 27.984375 
z
M 54.390625 6.78125 
Q 54.390625 -7.171875 48.1875 -13.984375 
Q 42 -20.796875 29.203125 -20.796875 
Q 24.46875 -20.796875 20.265625 -20.09375 
Q 16.0625 -19.390625 12.109375 -17.921875 
L 12.109375 -9.1875 
Q 16.0625 -11.328125 19.921875 -12.34375 
Q 23.78125 -13.375 27.78125 -13.375 
Q 36.625 -13.375 41.015625 -8.765625 
Q 45.40625 -4.15625 45.40625 5.171875 
L 45.40625 9.625 
Q 42.625 4.78125 38.28125 2.390625 
Q 33.9375 0 27.875 0 
Q 17.828125 0 11.671875 7.65625 
Q 5.515625 15.328125 5.515625 27.984375 
Q 5.515625 40.671875 11.671875 48.328125 
Q 17.828125 56 27.875 56 
Q 33.9375 56 38.28125 53.609375 
Q 42.625 51.21875 45.40625 46.390625 
L 45.40625 54.6875 
L 54.390625 54.6875 
z
" id="DejaVuSans-103"/>
       </defs>
       <use xlink:href="#DejaVuSans-65"/>
       <use x="68.408203" xlink:href="#DejaVuSans-117"/>
       <use x="131.787109" xlink:href="#DejaVuSans-103"/>
      </g>
     </g>
    </g>
    <g id="xtick_7">
     <g id="line2d_7">
      <g>
       <use style="stroke:#000000;stroke-width:0.8;" x="382.609756" xlink:href="#m4c48cbda35" y="315"/>
      </g>
     </g>
     <g id="text_6">
      <!-- Sep -->
      <g transform="translate(373.184756 329.598437)scale(0.1 -0.1)">
       <defs>
        <path d="M 53.515625 70.515625 
L 53.515625 60.890625 
Q 47.90625 63.578125 42.921875 64.890625 
Q 37.9375 66.21875 33.296875 66.21875 
Q 25.25 66.21875 20.875 63.09375 
Q 16.5 59.96875 16.5 54.203125 
Q 16.5 49.359375 19.40625 46.890625 
Q 22.3125 44.4375 30.421875 42.921875 
L 36.375 41.703125 
Q 47.40625 39.59375 52.65625 34.296875 
Q 57.90625 29 57.90625 20.125 
Q 57.90625 9.515625 50.796875 4.046875 
Q 43.703125 -1.421875 29.984375 -1.421875 
Q 24.8125 -1.421875 18.96875 -0.25 
Q 13.140625 0.921875 6.890625 3.21875 
L 6.890625 13.375 
Q 12.890625 10.015625 18.65625 8.296875 
Q 24.421875 6.59375 29.984375 6.59375 
Q 38.421875 6.59375 43.015625 9.90625 
Q 47.609375 13.234375 47.609375 19.390625 
Q 47.609375 24.75 44.3125 27.78125 
Q 41.015625 30.8125 33.5 32.328125 
L 27.484375 33.5 
Q 16.453125 35.6875 11.515625 40.375 
Q 6.59375 45.0625 6.59375 53.421875 
Q 6.59375 63.09375 13.40625 68.65625 
Q 20.21875 74.21875 32.171875 74.21875 
Q 37.3125 74.21875 42.625 73.28125 
Q 47.953125 72.359375 53.515625 70.515625 
z
" id="DejaVuSans-83"/>
        <path d="M 56.203125 29.59375 
L 56.203125 25.203125 
L 14.890625 25.203125 
Q 15.484375 15.921875 20.484375 11.0625 
Q 25.484375 6.203125 34.421875 6.203125 
Q 39.59375 6.203125 44.453125 7.46875 
Q 49.3125 8.734375 54.109375 11.28125 
L 54.109375 2.78125 
Q 49.265625 0.734375 44.1875 -0.34375 
Q 39.109375 -1.421875 33.890625 -1.421875 
Q 20.796875 -1.421875 13.15625 6.1875 
Q 5.515625 13.8125 5.515625 26.8125 
Q 5.515625 40.234375 12.765625 48.109375 
Q 20.015625 56 32.328125 56 
Q 43.359375 56 49.78125 48.890625 
Q 56.203125 41.796875 56.203125 29.59375 
z
M 47.21875 32.234375 
Q 47.125 39.59375 43.09375 43.984375 
Q 39.0625 48.390625 32.421875 48.390625 
Q 24.90625 48.390625 20.390625 44.140625 
Q 15.875 39.890625 15.1875 32.171875 
z
" id="DejaVuSans-101"/>
       </defs>
       <use xlink:href="#DejaVuSans-83"/>
       <use x="63.476562" xlink:href="#DejaVuSans-101"/>
       <use x="125" xlink:href="#DejaVuSans-112"/>
      </g>
     </g>
    </g>
    <g id="xtick_8">
     <g id="line2d_8">
      <g>
       <use style="stroke:#000000;stroke-width:0.8;" x="433.646341" xlink:href="#m4c48cbda35" y="315"/>
      </g>
     </g>
     <g id="text_7">
      <!-- Oct -->
      <g transform="translate(425.001029 329.598437)scale(0.1 -0.1)">
       <defs>
        <path d="M 39.40625 66.21875 
Q 28.65625 66.21875 22.328125 58.203125 
Q 16.015625 50.203125 16.015625 36.375 
Q 16.015625 22.609375 22.328125 14.59375 
Q 28.65625 6.59375 39.40625 6.59375 
Q 50.140625 6.59375 56.421875 14.59375 
Q 62.703125 22.609375 62.703125 36.375 
Q 62.703125 50.203125 56.421875 58.203125 
Q 50.140625 66.21875 39.40625 66.21875 
z
M 39.40625 74.21875 
Q 54.734375 74.21875 63.90625 63.9375 
Q 73.09375 53.65625 73.09375 36.375 
Q 73.09375 19.140625 63.90625 8.859375 
Q 54.734375 -1.421875 39.40625 -1.421875 
Q 24.03125 -1.421875 14.8125 8.828125 
Q 5.609375 19.09375 5.609375 36.375 
Q 5.609375 53.65625 14.8125 63.9375 
Q 24.03125 74.21875 39.40625 74.21875 
z
" id="DejaVuSans-79"/>
        <path d="M 48.78125 52.59375 
L 48.78125 44.1875 
Q 44.96875 46.296875 41.140625 47.34375 
Q 37.3125 48.390625 33.40625 48.390625 
Q 24.65625 48.390625 19.8125 42.84375 
Q 14.984375 37.3125 14.984375 27.296875 
Q 14.984375 17.28125 19.8125 11.734375 
Q 24.65625 6.203125 33.40625 6.203125 
Q 37.3125 6.203125 41.140625 7.25 
Q 44.96875 8.296875 48.78125 10.40625 
L 48.78125 2.09375 
Q 45.015625 0.34375 40.984375 -0.53125 
Q 36.96875 -1.421875 32.421875 -1.421875 
Q 20.0625 -1.421875 12.78125 6.34375 
Q 5.515625 14.109375 5.515625 27.296875 
Q 5.515625 40.671875 12.859375 48.328125 
Q 20.21875 56 33.015625 56 
Q 37.15625 56 41.109375 55.140625 
Q 45.0625 54.296875 48.78125 52.59375 
z
" id="DejaVuSans-99"/>
        <path d="M 18.3125 70.21875 
L 18.3125 54.6875 
L 36.8125 54.6875 
L 36.8125 47.703125 
L 18.3125 47.703125 
L 18.3125 18.015625 
Q 18.3125 11.328125 20.140625 9.421875 
Q 21.96875 7.515625 27.59375 7.515625 
L 36.8125 7.515625 
L 36.8125 0 
L 27.59375 0 
Q 17.1875 0 13.234375 3.875 
Q 9.28125 7.765625 9.28125 18.015625 
L 9.28125 47.703125 
L 2.6875 47.703125 
L 2.6875 54.6875 
L 9.28125 54.6875 
L 9.28125 70.21875 
z
" id="DejaVuSans-116"/>
       </defs>
       <use xlink:href="#DejaVuSans-79"/>
       <use x="78.710938" xlink:href="#DejaVuSans-99"/>
       <use x="133.691406" xlink:href="#DejaVuSans-116"/>
      </g>
     </g>
    </g>
    <g id="xtick_9">
     <g id="line2d_9">
      <g>
       <use style="stroke:#000000;stroke-width:0.8;" x="486.384146" xlink:href="#m4c48cbda35" y="315"/>
      </g>
     </g>
     <g id="text_8">
      <!-- Nov -->
      <g transform="translate(476.624771 329.598437)scale(0.1 -0.1)">
       <defs>
        <path d="M 9.8125 72.90625 
L 23.09375 72.90625 
L 55.421875 11.921875 
L 55.421875 72.90625 
L 64.984375 72.90625 
L 64.984375 0 
L 51.703125 0 
L 19.390625 60.984375 
L 19.390625 0 
L 9.8125 0 
z
" id="DejaVuSans-78"/>
        <path d="M 30.609375 48.390625 
Q 23.390625 48.390625 19.1875 42.75 
Q 14.984375 37.109375 14.984375 27.296875 
Q 14.984375 17.484375 19.15625 11.84375 
Q 23.34375 6.203125 30.609375 6.203125 
Q 37.796875 6.203125 41.984375 11.859375 
Q 46.1875 17.53125 46.1875 27.296875 
Q 46.1875 37.015625 41.984375 42.703125 
Q 37.796875 48.390625 30.609375 48.390625 
z
M 30.609375 56 
Q 42.328125 56 49.015625 48.375 
Q 55.71875 40.765625 55.71875 27.296875 
Q 55.71875 13.875 49.015625 6.21875 
Q 42.328125 -1.421875 30.609375 -1.421875 
Q 18.84375 -1.421875 12.171875 6.21875 
Q 5.515625 13.875 5.515625 27.296875 
Q 5.515625 40.765625 12.171875 48.375 
Q 18.84375 56 30.609375 56 
z
" id="DejaVuSans-111"/>
        <path d="M 2.984375 54.6875 
L 12.5 54.6875 
L 29.59375 8.796875 
L 46.6875 54.6875 
L 56.203125 54.6875 
L 35.6875 0 
L 23.484375 0 
z
" id="DejaVuSans-118"/>
       </defs>
       <use xlink:href="#DejaVuSans-78"/>
       <use x="74.804688" xlink:href="#DejaVuSans-111"/>
       <use x="135.986328" xlink:href="#DejaVuSans-118"/>
      </g>
     </g>
    </g>
    <g id="xtick_10">
     <g id="line2d_10">
      <g>
       <use style="stroke:#000000;stroke-width:0.8;" x="537.420732" xlink:href="#m4c48cbda35" y="315"/>
      </g>
     </g>
     <g id="text_9">
      <!-- Dec -->
      <g transform="translate(527.74495 329.598437)scale(0.1 -0.1)">
       <defs>
        <path d="M 19.671875 64.796875 
L 19.671875 8.109375 
L 31.59375 8.109375 
Q 46.6875 8.109375 53.6875 14.9375 
Q 60.6875 21.78125 60.6875 36.53125 
Q 60.6875 51.171875 53.6875 57.984375 
Q 46.6875 64.796875 31.59375 64.796875 
z
M 9.8125 72.90625 
L 30.078125 72.90625 
Q 51.265625 72.90625 61.171875 64.09375 
Q 71.09375 55.28125 71.09375 36.53125 
Q 71.09375 17.671875 61.125 8.828125 
Q 51.171875 0 30.078125 0 
L 9.8125 0 
z
" id="DejaVuSans-68"/>
       </defs>
       <use xlink:href="#DejaVuSans-68"/>
       <use x="77.001953" xlink:href="#DejaVuSans-101"/>
       <use x="138.525391" xlink:href="#DejaVuSans-99"/>
      </g>
     </g>
    </g>
    <g id="xtick_11">
     <g id="line2d_11">
      <g>
       <use style="stroke:#000000;stroke-width:0.8;" x="590.158537" xlink:href="#m4c48cbda35" y="315"/>
      </g>
     </g>
     <g id="text_10">
      <!-- Jan -->
      <g transform="translate(582.450724 329.598437)scale(0.1 -0.1)">
       <use xlink:href="#DejaVuSans-74"/>
       <use x="29.492188" xlink:href="#DejaVuSans-97"/>
       <use x="90.771484" xlink:href="#DejaVuSans-110"/>
      </g>
      <!-- 2021 -->
      <g transform="translate(577.433537 340.79625)scale(0.1 -0.1)">
       <defs>
        <path d="M 19.1875 8.296875 
L 53.609375 8.296875 
L 53.609375 0 
L 7.328125 0 
L 7.328125 8.296875 
Q 12.9375 14.109375 22.625 23.890625 
Q 32.328125 33.6875 34.8125 36.53125 
Q 39.546875 41.84375 41.421875 45.53125 
Q 43.3125 49.21875 43.3125 52.78125 
Q 43.3125 58.59375 39.234375 62.25 
Q 35.15625 65.921875 28.609375 65.921875 
Q 23.96875 65.921875 18.8125 64.3125 
Q 13.671875 62.703125 7.8125 59.421875 
L 7.8125 69.390625 
Q 13.765625 71.78125 18.9375 73 
Q 24.125 74.21875 28.421875 74.21875 
Q 39.75 74.21875 46.484375 68.546875 
Q 53.21875 62.890625 53.21875 53.421875 
Q 53.21875 48.921875 51.53125 44.890625 
Q 49.859375 40.875 45.40625 35.40625 
Q 44.1875 33.984375 37.640625 27.21875 
Q 31.109375 20.453125 19.1875 8.296875 
z
" id="DejaVuSans-50"/>
        <path d="M 31.78125 66.40625 
Q 24.171875 66.40625 20.328125 58.90625 
Q 16.5 51.421875 16.5 36.375 
Q 16.5 21.390625 20.328125 13.890625 
Q 24.171875 6.390625 31.78125 6.390625 
Q 39.453125 6.390625 43.28125 13.890625 
Q 47.125 21.390625 47.125 36.375 
Q 47.125 51.421875 43.28125 58.90625 
Q 39.453125 66.40625 31.78125 66.40625 
z
M 31.78125 74.21875 
Q 44.046875 74.21875 50.515625 64.515625 
Q 56.984375 54.828125 56.984375 36.375 
Q 56.984375 17.96875 50.515625 8.265625 
Q 44.046875 -1.421875 31.78125 -1.421875 
Q 19.53125 -1.421875 13.0625 8.265625 
Q 6.59375 17.96875 6.59375 36.375 
Q 6.59375 54.828125 13.0625 64.515625 
Q 19.53125 74.21875 31.78125 74.21875 
z
" id="DejaVuSans-48"/>
        <path d="M 12.40625 8.296875 
L 28.515625 8.296875 
L 28.515625 63.921875 
L 10.984375 60.40625 
L 10.984375 69.390625 
L 28.421875 72.90625 
L 38.28125 72.90625 
L 38.28125 8.296875 
L 54.390625 8.296875 
L 54.390625 0 
L 12.40625 0 
z
" id="DejaVuSans-49"/>
       </defs>
       <use xlink:href="#DejaVuSans-50"/>
       <use x="63.623047" xlink:href="#DejaVuSans-48"/>
       <use x="127.246094" xlink:href="#DejaVuSans-50"/>
       <use x="190.869141" xlink:href="#DejaVuSans-49"/>
      </g>
     </g>
    </g>
    <g id="xtick_12">
     <g id="line2d_12">
      <g>
       <use style="stroke:#000000;stroke-width:0.8;" x="642.896341" xlink:href="#m4c48cbda35" y="315"/>
      </g>
     </g>
     <g id="text_11">
      <!-- Feb -->
      <g transform="translate(634.044779 329.598437)scale(0.1 -0.1)">
       <defs>
        <path d="M 9.8125 72.90625 
L 51.703125 72.90625 
L 51.703125 64.59375 
L 19.671875 64.59375 
L 19.671875 43.109375 
L 48.578125 43.109375 
L 48.578125 34.8125 
L 19.671875 34.8125 
L 19.671875 0 
L 9.8125 0 
z
" id="DejaVuSans-70"/>
        <path d="M 48.6875 27.296875 
Q 48.6875 37.203125 44.609375 42.84375 
Q 40.53125 48.484375 33.40625 48.484375 
Q 26.265625 48.484375 22.1875 42.84375 
Q 18.109375 37.203125 18.109375 27.296875 
Q 18.109375 17.390625 22.1875 11.75 
Q 26.265625 6.109375 33.40625 6.109375 
Q 40.53125 6.109375 44.609375 11.75 
Q 48.6875 17.390625 48.6875 27.296875 
z
M 18.109375 46.390625 
Q 20.953125 51.265625 25.265625 53.625 
Q 29.59375 56 35.59375 56 
Q 45.5625 56 51.78125 48.09375 
Q 58.015625 40.1875 58.015625 27.296875 
Q 58.015625 14.40625 51.78125 6.484375 
Q 45.5625 -1.421875 35.59375 -1.421875 
Q 29.59375 -1.421875 25.265625 0.953125 
Q 20.953125 3.328125 18.109375 8.203125 
L 18.109375 0 
L 9.078125 0 
L 9.078125 75.984375 
L 18.109375 75.984375 
z
" id="DejaVuSans-98"/>
       </defs>
       <use xlink:href="#DejaVuSans-70"/>
       <use x="52.019531" xlink:href="#DejaVuSans-101"/>
       <use x="113.542969" xlink:href="#DejaVuSans-98"/>
      </g>
     </g>
    </g>
    <g id="xtick_13">
     <g id="line2d_13">
      <g>
       <use style="stroke:#000000;stroke-width:0.8;" x="648" xlink:href="#m4c48cbda35" y="315"/>
      </g>
     </g>
    </g>
    <g id="xtick_14">
     <g id="line2d_14">
      <defs>
       <path d="M 0 0 
L 0 2 
" id="m0a0752388c" style="stroke:#000000;stroke-width:0.6;"/>
      </defs>
      <g>
       <use style="stroke:#000000;stroke-width:0.6;" x="95.103659" xlink:href="#m0a0752388c" y="315"/>
      </g>
     </g>
    </g>
    <g id="xtick_15">
     <g id="line2d_15">
      <g>
       <use style="stroke:#000000;stroke-width:0.6;" x="107.012195" xlink:href="#m0a0752388c" y="315"/>
      </g>
     </g>
    </g>
    <g id="xtick_16">
     <g id="line2d_16">
      <g>
       <use style="stroke:#000000;stroke-width:0.6;" x="118.920732" xlink:href="#m0a0752388c" y="315"/>
      </g>
     </g>
    </g>
    <g id="xtick_17">
     <g id="line2d_17">
      <g>
       <use style="stroke:#000000;stroke-width:0.6;" x="130.829268" xlink:href="#m0a0752388c" y="315"/>
      </g>
     </g>
    </g>
    <g id="xtick_18">
     <g id="line2d_18">
      <g>
       <use style="stroke:#000000;stroke-width:0.6;" x="142.737805" xlink:href="#m0a0752388c" y="315"/>
      </g>
     </g>
    </g>
    <g id="xtick_19">
     <g id="line2d_19">
      <g>
       <use style="stroke:#000000;stroke-width:0.6;" x="154.646341" xlink:href="#m0a0752388c" y="315"/>
      </g>
     </g>
    </g>
    <g id="xtick_20">
     <g id="line2d_20">
      <g>
       <use style="stroke:#000000;stroke-width:0.6;" x="166.554878" xlink:href="#m0a0752388c" y="315"/>
      </g>
     </g>
    </g>
    <g id="xtick_21">
     <g id="line2d_21">
      <g>
       <use style="stroke:#000000;stroke-width:0.6;" x="178.463415" xlink:href="#m0a0752388c" y="315"/>
      </g>
     </g>
    </g>
    <g id="xtick_22">
     <g id="line2d_22">
      <g>
       <use style="stroke:#000000;stroke-width:0.6;" x="190.371951" xlink:href="#m0a0752388c" y="315"/>
      </g>
     </g>
    </g>
    <g id="xtick_23">
     <g id="line2d_23">
      <g>
       <use style="stroke:#000000;stroke-width:0.6;" x="202.280488" xlink:href="#m0a0752388c" y="315"/>
      </g>
     </g>
    </g>
    <g id="xtick_24">
     <g id="line2d_24">
      <g>
       <use style="stroke:#000000;stroke-width:0.6;" x="214.189024" xlink:href="#m0a0752388c" y="315"/>
      </g>
     </g>
    </g>
    <g id="xtick_25">
     <g id="line2d_25">
      <g>
       <use style="stroke:#000000;stroke-width:0.6;" x="238.006098" xlink:href="#m0a0752388c" y="315"/>
      </g>
     </g>
    </g>
    <g id="xtick_26">
     <g id="line2d_26">
      <g>
       <use style="stroke:#000000;stroke-width:0.6;" x="249.914634" xlink:href="#m0a0752388c" y="315"/>
      </g>
     </g>
    </g>
    <g id="xtick_27">
     <g id="line2d_27">
      <g>
       <use style="stroke:#000000;stroke-width:0.6;" x="261.823171" xlink:href="#m0a0752388c" y="315"/>
      </g>
     </g>
    </g>
    <g id="xtick_28">
     <g id="line2d_28">
      <g>
       <use style="stroke:#000000;stroke-width:0.6;" x="273.731707" xlink:href="#m0a0752388c" y="315"/>
      </g>
     </g>
    </g>
    <g id="xtick_29">
     <g id="line2d_29">
      <g>
       <use style="stroke:#000000;stroke-width:0.6;" x="285.640244" xlink:href="#m0a0752388c" y="315"/>
      </g>
     </g>
    </g>
    <g id="xtick_30">
     <g id="line2d_30">
      <g>
       <use style="stroke:#000000;stroke-width:0.6;" x="297.54878" xlink:href="#m0a0752388c" y="315"/>
      </g>
     </g>
    </g>
    <g id="xtick_31">
     <g id="line2d_31">
      <g>
       <use style="stroke:#000000;stroke-width:0.6;" x="309.457317" xlink:href="#m0a0752388c" y="315"/>
      </g>
     </g>
    </g>
    <g id="xtick_32">
     <g id="line2d_32">
      <g>
       <use style="stroke:#000000;stroke-width:0.6;" x="321.365854" xlink:href="#m0a0752388c" y="315"/>
      </g>
     </g>
    </g>
    <g id="xtick_33">
     <g id="line2d_33">
      <g>
       <use style="stroke:#000000;stroke-width:0.6;" x="333.27439" xlink:href="#m0a0752388c" y="315"/>
      </g>
     </g>
    </g>
    <g id="xtick_34">
     <g id="line2d_34">
      <g>
       <use style="stroke:#000000;stroke-width:0.6;" x="345.182927" xlink:href="#m0a0752388c" y="315"/>
      </g>
     </g>
    </g>
    <g id="xtick_35">
     <g id="line2d_35">
      <g>
       <use style="stroke:#000000;stroke-width:0.6;" x="357.091463" xlink:href="#m0a0752388c" y="315"/>
      </g>
     </g>
    </g>
    <g id="xtick_36">
     <g id="line2d_36">
      <g>
       <use style="stroke:#000000;stroke-width:0.6;" x="369" xlink:href="#m0a0752388c" y="315"/>
      </g>
     </g>
    </g>
    <g id="xtick_37">
     <g id="line2d_37">
      <g>
       <use style="stroke:#000000;stroke-width:0.6;" x="380.908537" xlink:href="#m0a0752388c" y="315"/>
      </g>
     </g>
    </g>
    <g id="xtick_38">
     <g id="line2d_38">
      <g>
       <use style="stroke:#000000;stroke-width:0.6;" x="392.817073" xlink:href="#m0a0752388c" y="315"/>
      </g>
     </g>
    </g>
    <g id="xtick_39">
     <g id="line2d_39">
      <g>
       <use style="stroke:#000000;stroke-width:0.6;" x="404.72561" xlink:href="#m0a0752388c" y="315"/>
      </g>
     </g>
    </g>
    <g id="xtick_40">
     <g id="line2d_40">
      <g>
       <use style="stroke:#000000;stroke-width:0.6;" x="416.634146" xlink:href="#m0a0752388c" y="315"/>
      </g>
     </g>
    </g>
    <g id="xtick_41">
     <g id="line2d_41">
      <g>
       <use style="stroke:#000000;stroke-width:0.6;" x="428.542683" xlink:href="#m0a0752388c" y="315"/>
      </g>
     </g>
    </g>
    <g id="xtick_42">
     <g id="line2d_42">
      <g>
       <use style="stroke:#000000;stroke-width:0.6;" x="440.45122" xlink:href="#m0a0752388c" y="315"/>
      </g>
     </g>
    </g>
    <g id="xtick_43">
     <g id="line2d_43">
      <g>
       <use style="stroke:#000000;stroke-width:0.6;" x="452.359756" xlink:href="#m0a0752388c" y="315"/>
      </g>
     </g>
    </g>
    <g id="xtick_44">
     <g id="line2d_44">
      <g>
       <use style="stroke:#000000;stroke-width:0.6;" x="464.268293" xlink:href="#m0a0752388c" y="315"/>
      </g>
     </g>
    </g>
    <g id="xtick_45">
     <g id="line2d_45">
      <g>
       <use style="stroke:#000000;stroke-width:0.6;" x="476.176829" xlink:href="#m0a0752388c" y="315"/>
      </g>
     </g>
    </g>
    <g id="xtick_46">
     <g id="line2d_46">
      <g>
       <use style="stroke:#000000;stroke-width:0.6;" x="488.085366" xlink:href="#m0a0752388c" y="315"/>
      </g>
     </g>
    </g>
    <g id="xtick_47">
     <g id="line2d_47">
      <g>
       <use style="stroke:#000000;stroke-width:0.6;" x="499.993902" xlink:href="#m0a0752388c" y="315"/>
      </g>
     </g>
    </g>
    <g id="xtick_48">
     <g id="line2d_48">
      <g>
       <use style="stroke:#000000;stroke-width:0.6;" x="511.902439" xlink:href="#m0a0752388c" y="315"/>
      </g>
     </g>
    </g>
    <g id="xtick_49">
     <g id="line2d_49">
      <g>
       <use style="stroke:#000000;stroke-width:0.6;" x="523.810976" xlink:href="#m0a0752388c" y="315"/>
      </g>
     </g>
    </g>
    <g id="xtick_50">
     <g id="line2d_50">
      <g>
       <use style="stroke:#000000;stroke-width:0.6;" x="535.719512" xlink:href="#m0a0752388c" y="315"/>
      </g>
     </g>
    </g>
    <g id="xtick_51">
     <g id="line2d_51">
      <g>
       <use style="stroke:#000000;stroke-width:0.6;" x="547.628049" xlink:href="#m0a0752388c" y="315"/>
      </g>
     </g>
    </g>
    <g id="xtick_52">
     <g id="line2d_52">
      <g>
       <use style="stroke:#000000;stroke-width:0.6;" x="559.536585" xlink:href="#m0a0752388c" y="315"/>
      </g>
     </g>
    </g>
    <g id="xtick_53">
     <g id="line2d_53">
      <g>
       <use style="stroke:#000000;stroke-width:0.6;" x="571.445122" xlink:href="#m0a0752388c" y="315"/>
      </g>
     </g>
    </g>
    <g id="xtick_54">
     <g id="line2d_54">
      <g>
       <use style="stroke:#000000;stroke-width:0.6;" x="583.353659" xlink:href="#m0a0752388c" y="315"/>
      </g>
     </g>
    </g>
    <g id="xtick_55">
     <g id="line2d_55">
      <g>
       <use style="stroke:#000000;stroke-width:0.6;" x="595.262195" xlink:href="#m0a0752388c" y="315"/>
      </g>
     </g>
    </g>
    <g id="xtick_56">
     <g id="line2d_56">
      <g>
       <use style="stroke:#000000;stroke-width:0.6;" x="607.170732" xlink:href="#m0a0752388c" y="315"/>
      </g>
     </g>
    </g>
    <g id="xtick_57">
     <g id="line2d_57">
      <g>
       <use style="stroke:#000000;stroke-width:0.6;" x="619.079268" xlink:href="#m0a0752388c" y="315"/>
      </g>
     </g>
    </g>
    <g id="xtick_58">
     <g id="line2d_58">
      <g>
       <use style="stroke:#000000;stroke-width:0.6;" x="630.987805" xlink:href="#m0a0752388c" y="315"/>
      </g>
     </g>
    </g>
    <g id="text_12">
     <!-- date -->
     <g transform="translate(357.725 354.474375)scale(0.1 -0.1)">
      <defs>
       <path d="M 45.40625 46.390625 
L 45.40625 75.984375 
L 54.390625 75.984375 
L 54.390625 0 
L 45.40625 0 
L 45.40625 8.203125 
Q 42.578125 3.328125 38.25 0.953125 
Q 33.9375 -1.421875 27.875 -1.421875 
Q 17.96875 -1.421875 11.734375 6.484375 
Q 5.515625 14.40625 5.515625 27.296875 
Q 5.515625 40.1875 11.734375 48.09375 
Q 17.96875 56 27.875 56 
Q 33.9375 56 38.25 53.625 
Q 42.578125 51.265625 45.40625 46.390625 
z
M 14.796875 27.296875 
Q 14.796875 17.390625 18.875 11.75 
Q 22.953125 6.109375 30.078125 6.109375 
Q 37.203125 6.109375 41.296875 11.75 
Q 45.40625 17.390625 45.40625 27.296875 
Q 45.40625 37.203125 41.296875 42.84375 
Q 37.203125 48.484375 30.078125 48.484375 
Q 22.953125 48.484375 18.875 42.84375 
Q 14.796875 37.203125 14.796875 27.296875 
z
" id="DejaVuSans-100"/>
      </defs>
      <use xlink:href="#DejaVuSans-100"/>
      <use x="63.476562" xlink:href="#DejaVuSans-97"/>
      <use x="124.755859" xlink:href="#DejaVuSans-116"/>
      <use x="163.964844" xlink:href="#DejaVuSans-101"/>
     </g>
    </g>
   </g>
   <g id="matplotlib.axis_2">
    <g id="ytick_1">
     <g id="line2d_59">
      <path clip-path="url(#p8fc12479fa)" d="M 90 284.44533 
L 648 284.44533 
" style="fill:none;stroke:#b0b0b0;stroke-dasharray:0.8,1.32;stroke-dashoffset:0;stroke-width:0.8;"/>
     </g>
     <g id="line2d_60">
      <defs>
       <path d="M 0 0 
L -3.5 0 
" id="m40a0b9c790" style="stroke:#000000;stroke-width:0.8;"/>
      </defs>
      <g>
       <use style="stroke:#000000;stroke-width:0.8;" x="90" xlink:href="#m40a0b9c790" y="284.44533"/>
      </g>
     </g>
     <g id="text_13">
      <!-- 0.50 -->
      <g transform="translate(60.734375 288.244549)scale(0.1 -0.1)">
       <defs>
        <path d="M 10.6875 12.40625 
L 21 12.40625 
L 21 0 
L 10.6875 0 
z
" id="DejaVuSans-46"/>
        <path d="M 10.796875 72.90625 
L 49.515625 72.90625 
L 49.515625 64.59375 
L 19.828125 64.59375 
L 19.828125 46.734375 
Q 21.96875 47.46875 24.109375 47.828125 
Q 26.265625 48.1875 28.421875 48.1875 
Q 40.625 48.1875 47.75 41.5 
Q 54.890625 34.8125 54.890625 23.390625 
Q 54.890625 11.625 47.5625 5.09375 
Q 40.234375 -1.421875 26.90625 -1.421875 
Q 22.3125 -1.421875 17.546875 -0.640625 
Q 12.796875 0.140625 7.71875 1.703125 
L 7.71875 11.625 
Q 12.109375 9.234375 16.796875 8.0625 
Q 21.484375 6.890625 26.703125 6.890625 
Q 35.15625 6.890625 40.078125 11.328125 
Q 45.015625 15.765625 45.015625 23.390625 
Q 45.015625 31 40.078125 35.4375 
Q 35.15625 39.890625 26.703125 39.890625 
Q 22.75 39.890625 18.8125 39.015625 
Q 14.890625 38.140625 10.796875 36.28125 
z
" id="DejaVuSans-53"/>
       </defs>
       <use xlink:href="#DejaVuSans-48"/>
       <use x="63.623047" xlink:href="#DejaVuSans-46"/>
       <use x="95.410156" xlink:href="#DejaVuSans-53"/>
       <use x="159.033203" xlink:href="#DejaVuSans-48"/>
      </g>
     </g>
    </g>
    <g id="ytick_2">
     <g id="line2d_61">
      <path clip-path="url(#p8fc12479fa)" d="M 90 248.057625 
L 648 248.057625 
" style="fill:none;stroke:#b0b0b0;stroke-dasharray:0.8,1.32;stroke-dashoffset:0;stroke-width:0.8;"/>
     </g>
     <g id="line2d_62">
      <g>
       <use style="stroke:#000000;stroke-width:0.8;" x="90" xlink:href="#m40a0b9c790" y="248.057625"/>
      </g>
     </g>
     <g id="text_14">
      <!-- 0.75 -->
      <g transform="translate(60.734375 251.856844)scale(0.1 -0.1)">
       <defs>
        <path d="M 8.203125 72.90625 
L 55.078125 72.90625 
L 55.078125 68.703125 
L 28.609375 0 
L 18.3125 0 
L 43.21875 64.59375 
L 8.203125 64.59375 
z
" id="DejaVuSans-55"/>
       </defs>
       <use xlink:href="#DejaVuSans-48"/>
       <use x="63.623047" xlink:href="#DejaVuSans-46"/>
       <use x="95.410156" xlink:href="#DejaVuSans-55"/>
       <use x="159.033203" xlink:href="#DejaVuSans-53"/>
      </g>
     </g>
    </g>
    <g id="ytick_3">
     <g id="line2d_63">
      <path clip-path="url(#p8fc12479fa)" d="M 90 211.669921 
L 648 211.669921 
" style="fill:none;stroke:#b0b0b0;stroke-dasharray:0.8,1.32;stroke-dashoffset:0;stroke-width:0.8;"/>
     </g>
     <g id="line2d_64">
      <g>
       <use style="stroke:#000000;stroke-width:0.8;" x="90" xlink:href="#m40a0b9c790" y="211.669921"/>
      </g>
     </g>
     <g id="text_15">
      <!-- 1.00 -->
      <g transform="translate(60.734375 215.46914)scale(0.1 -0.1)">
       <use xlink:href="#DejaVuSans-49"/>
       <use x="63.623047" xlink:href="#DejaVuSans-46"/>
       <use x="95.410156" xlink:href="#DejaVuSans-48"/>
       <use x="159.033203" xlink:href="#DejaVuSans-48"/>
      </g>
     </g>
    </g>
    <g id="ytick_4">
     <g id="line2d_65">
      <path clip-path="url(#p8fc12479fa)" d="M 90 175.282217 
L 648 175.282217 
" style="fill:none;stroke:#b0b0b0;stroke-dasharray:0.8,1.32;stroke-dashoffset:0;stroke-width:0.8;"/>
     </g>
     <g id="line2d_66">
      <g>
       <use style="stroke:#000000;stroke-width:0.8;" x="90" xlink:href="#m40a0b9c790" y="175.282217"/>
      </g>
     </g>
     <g id="text_16">
      <!-- 1.25 -->
      <g transform="translate(60.734375 179.081435)scale(0.1 -0.1)">
       <use xlink:href="#DejaVuSans-49"/>
       <use x="63.623047" xlink:href="#DejaVuSans-46"/>
       <use x="95.410156" xlink:href="#DejaVuSans-50"/>
       <use x="159.033203" xlink:href="#DejaVuSans-53"/>
      </g>
     </g>
    </g>
    <g id="ytick_5">
     <g id="line2d_67">
      <path clip-path="url(#p8fc12479fa)" d="M 90 138.894512 
L 648 138.894512 
" style="fill:none;stroke:#b0b0b0;stroke-dasharray:0.8,1.32;stroke-dashoffset:0;stroke-width:0.8;"/>
     </g>
     <g id="line2d_68">
      <g>
       <use style="stroke:#000000;stroke-width:0.8;" x="90" xlink:href="#m40a0b9c790" y="138.894512"/>
      </g>
     </g>
     <g id="text_17">
      <!-- 1.50 -->
      <g transform="translate(60.734375 142.693731)scale(0.1 -0.1)">
       <use xlink:href="#DejaVuSans-49"/>
       <use x="63.623047" xlink:href="#DejaVuSans-46"/>
       <use x="95.410156" xlink:href="#DejaVuSans-53"/>
       <use x="159.033203" xlink:href="#DejaVuSans-48"/>
      </g>
     </g>
    </g>
    <g id="ytick_6">
     <g id="line2d_69">
      <path clip-path="url(#p8fc12479fa)" d="M 90 102.506808 
L 648 102.506808 
" style="fill:none;stroke:#b0b0b0;stroke-dasharray:0.8,1.32;stroke-dashoffset:0;stroke-width:0.8;"/>
     </g>
     <g id="line2d_70">
      <g>
       <use style="stroke:#000000;stroke-width:0.8;" x="90" xlink:href="#m40a0b9c790" y="102.506808"/>
      </g>
     </g>
     <g id="text_18">
      <!-- 1.75 -->
      <g transform="translate(60.734375 106.306026)scale(0.1 -0.1)">
       <use xlink:href="#DejaVuSans-49"/>
       <use x="63.623047" xlink:href="#DejaVuSans-46"/>
       <use x="95.410156" xlink:href="#DejaVuSans-55"/>
       <use x="159.033203" xlink:href="#DejaVuSans-53"/>
      </g>
     </g>
    </g>
    <g id="ytick_7">
     <g id="line2d_71">
      <path clip-path="url(#p8fc12479fa)" d="M 90 66.119103 
L 648 66.119103 
" style="fill:none;stroke:#b0b0b0;stroke-dasharray:0.8,1.32;stroke-dashoffset:0;stroke-width:0.8;"/>
     </g>
     <g id="line2d_72">
      <g>
       <use style="stroke:#000000;stroke-width:0.8;" x="90" xlink:href="#m40a0b9c790" y="66.119103"/>
      </g>
     </g>
     <g id="text_19">
      <!-- 2.00 -->
      <g transform="translate(60.734375 69.918322)scale(0.1 -0.1)">
       <use xlink:href="#DejaVuSans-50"/>
       <use x="63.623047" xlink:href="#DejaVuSans-46"/>
       <use x="95.410156" xlink:href="#DejaVuSans-48"/>
       <use x="159.033203" xlink:href="#DejaVuSans-48"/>
      </g>
     </g>
    </g>
   </g>
   <g id="line2d_73">
    <path clip-path="url(#p8fc12479fa)" d="M 90 243.487646 
L 91.70122 243.553712 
L 93.402439 244.234079 
L 95.103659 244.147746 
L 96.804878 242.494554 
L 98.506098 244.069447 
L 100.207317 245.145934 
L 101.908537 245.806941 
L 103.609756 247.625945 
L 105.310976 248.587997 
L 107.012195 251.435166 
L 108.713415 252.37901 
L 110.414634 254.242165 
L 112.115854 255.592375 
L 113.817073 257.432128 
L 115.518293 258.758201 
L 117.219512 261.070164 
L 118.920732 262.085376 
L 120.621951 264.008749 
L 122.323171 265.346461 
L 124.02439 266.895155 
L 125.72561 267.487309 
L 127.426829 268.635237 
L 129.128049 269.354094 
L 130.829268 269.296228 
L 132.530488 269.392434 
L 134.231707 268.849839 
L 135.932927 268.592256 
L 137.634146 268.579846 
L 139.335366 267.745949 
L 141.036585 266.638288 
L 144.439024 263.738251 
L 146.140244 261.500551 
L 147.841463 259.881647 
L 149.542683 258.606507 
L 151.243902 256.474117 
L 152.945122 253.35977 
L 154.646341 251.3326 
L 156.347561 248.496075 
L 158.04878 244.729496 
L 161.45122 240.757927 
L 163.152439 238.246026 
L 164.853659 235.407981 
L 168.256098 228.901922 
L 169.957317 227.043531 
L 171.658537 224.192665 
L 173.359756 220.49449 
L 175.060976 219.825733 
L 176.762195 215.937539 
L 178.463415 214.082376 
L 180.164634 212.556631 
L 181.865854 209.857747 
L 183.567073 206.949086 
L 185.268293 204.290575 
L 186.969512 200.077788 
L 188.670732 198.192894 
L 190.371951 195.062841 
L 192.073171 190.34924 
L 195.47561 183.945949 
L 200.579268 169.721433 
L 202.280488 165.413358 
L 203.981707 161.584244 
L 205.682927 155.435806 
L 210.786585 139.930564 
L 212.487805 134.804655 
L 214.189024 132.446791 
L 215.890244 127.208196 
L 217.591463 126.980061 
L 220.993902 120.06972 
L 222.695122 119.846126 
L 226.097561 115.598896 
L 227.79878 115.118215 
L 229.5 112.430577 
L 231.20122 110.970005 
L 232.902439 108.372754 
L 234.603659 106.086433 
L 236.304878 105.592974 
L 239.707317 100.059161 
L 241.408537 98.207283 
L 243.109756 95.559611 
L 244.810976 94.997899 
L 246.512195 93.495028 
L 248.213415 93.30335 
L 249.914634 93.573631 
L 251.615854 95.02081 
L 253.317073 97.61076 
L 256.719512 102.215986 
L 258.420732 106.240569 
L 260.121951 109.891677 
L 261.823171 114.721173 
L 263.52439 120.175517 
L 265.22561 126.025071 
L 268.628049 141.355993 
L 270.329268 148.957551 
L 272.030488 155.710683 
L 273.731707 163.461787 
L 275.432927 168.842554 
L 278.835366 184.545002 
L 283.939024 204.02812 
L 285.640244 209.75563 
L 287.341463 214.496603 
L 289.042683 219.655824 
L 290.743902 224.365038 
L 292.445122 227.724073 
L 294.146341 230.266564 
L 297.54878 234.622816 
L 299.25 235.534383 
L 300.95122 237.500938 
L 302.652439 237.94238 
L 304.353659 236.66507 
L 306.054878 238.020014 
L 307.756098 237.745993 
L 309.457317 238.243867 
L 311.158537 236.812691 
L 312.859756 235.52924 
L 314.560976 235.277196 
L 319.664634 233.102439 
L 321.365854 232.116356 
L 328.170732 226.080083 
L 329.871951 223.19607 
L 331.573171 220.590929 
L 333.27439 219.528528 
L 334.97561 215.799423 
L 336.676829 214.740184 
L 338.378049 211.307014 
L 340.079268 209.396868 
L 341.780488 208.57478 
L 345.182927 203.691382 
L 346.884146 200.552206 
L 348.585366 198.79017 
L 350.286585 196.035882 
L 351.987805 192.173066 
L 353.689024 187.758237 
L 355.390244 182.512886 
L 357.091463 178.320933 
L 358.792683 171.605984 
L 360.493902 166.302431 
L 362.195122 160.169626 
L 363.896341 153.207189 
L 367.29878 143.165658 
L 369 135.085395 
L 370.70122 132.357049 
L 372.402439 128.396471 
L 374.103659 124.80398 
L 375.804878 124.991256 
L 377.506098 124.305524 
L 379.207317 125.448605 
L 380.908537 126.203518 
L 382.609756 128.356535 
L 384.310976 132.932298 
L 386.012195 136.495158 
L 387.713415 140.335716 
L 389.414634 144.937002 
L 392.817073 155.645178 
L 397.920732 177.441609 
L 399.621951 185.953148 
L 401.323171 193.077193 
L 403.02439 201.331401 
L 404.72561 210.32403 
L 406.426829 217.116004 
L 409.829268 233.987938 
L 414.932927 255.051367 
L 418.335366 265.594916 
L 420.036585 270.461221 
L 421.737805 274.947842 
L 426.841463 284.679038 
L 428.542683 286.964615 
L 431.945122 290.131091 
L 433.646341 290.798383 
L 437.04878 291.864697 
L 438.75 291.741942 
L 440.45122 291.169822 
L 442.152439 290.439996 
L 443.853659 289.514795 
L 445.554878 288.36006 
L 448.957317 284.829561 
L 450.658537 282.129907 
L 452.359756 279.764212 
L 455.762195 274.074115 
L 459.164634 267.700794 
L 460.865854 263.021857 
L 462.567073 259.124634 
L 464.268293 254.239533 
L 471.073171 232.440739 
L 476.176829 213.927734 
L 477.878049 209.410555 
L 482.981707 194.225196 
L 484.682927 191.242594 
L 488.085366 184.136866 
L 491.487805 178.340996 
L 493.189024 176.268476 
L 494.890244 172.431764 
L 496.591463 170.58336 
L 498.292683 169.365977 
L 499.993902 168.572374 
L 501.695122 168.058335 
L 503.396341 167.329553 
L 505.097561 166.459052 
L 506.79878 165.261659 
L 508.5 165.413003 
L 510.20122 165.387214 
L 511.902439 164.560394 
L 513.603659 164.416453 
L 515.304878 163.670528 
L 517.006098 165.959367 
L 518.707317 164.389902 
L 522.109756 164.423994 
L 523.810976 165.043886 
L 525.512195 163.569401 
L 527.213415 163.060166 
L 528.914634 163.624199 
L 530.615854 163.29638 
L 532.317073 162.844438 
L 534.018293 160.973231 
L 535.719512 160.395788 
L 537.420732 158.23346 
L 539.121951 158.174885 
L 540.823171 157.559523 
L 542.52439 155.170608 
L 544.22561 154.439829 
L 547.628049 151.637333 
L 549.329268 151.613922 
L 551.030488 152.600673 
L 552.731707 149.957847 
L 554.432927 149.947957 
L 556.134146 149.157065 
L 557.835366 148.132773 
L 559.536585 149.533815 
L 562.939024 148.988706 
L 564.640244 151.416309 
L 566.341463 153.435085 
L 568.042683 155.07007 
L 569.743902 157.088127 
L 571.445122 159.691187 
L 573.146341 163.065287 
L 574.847561 166.149 
L 576.54878 170.412392 
L 578.25 173.230307 
L 579.95122 177.392517 
L 581.652439 179.606674 
L 583.353659 182.761974 
L 585.054878 187.98226 
L 586.756098 190.856097 
L 588.457317 193.012758 
L 590.158537 196.009055 
L 591.859756 199.555624 
L 593.560976 201.724572 
L 595.262195 203.330577 
L 596.963415 205.846635 
L 598.664634 206.736434 
L 602.067073 210.733266 
L 605.469512 211.469645 
L 607.170732 212.253893 
L 608.871951 210.99537 
L 610.573171 212.206503 
L 612.27439 211.357065 
L 613.97561 211.652479 
L 615.676829 211.034234 
L 617.378049 210.65063 
L 619.079268 210.854547 
L 620.780488 209.933422 
L 624.182927 212.718794 
L 625.884146 212.25912 
L 627.585366 212.304423 
L 629.286585 213.577384 
L 630.987805 215.267673 
L 632.689024 215.485258 
L 634.390244 216.490234 
L 636.091463 217.14499 
L 637.792683 216.907238 
L 639.493902 217.64981 
L 642.896341 218.55616 
L 644.597561 219.787135 
L 646.29878 219.950835 
L 648 220.603219 
L 649.70122 220.545222 
L 651.402439 220.680698 
L 653.103659 219.694047 
L 654.804878 219.069611 
L 656.506098 218.751501 
L 658.207317 219.414664 
L 659.908537 220.224895 
L 661.609756 219.075852 
L 661.609756 219.075852 
" style="fill:none;stroke:#fc997a;stroke-linecap:square;stroke-width:1.5;"/>
   </g>
   <g id="line2d_74">
    <path clip-path="url(#p8fc12479fa)" d="M 90 211.669921 
L 648 211.669921 
" style="fill:none;stroke:#000000;stroke-dasharray:3.7,1.6;stroke-dashoffset:0;"/>
   </g>
   <g id="patch_3">
    <path d="M 90 315 
L 90 43.2 
" style="fill:none;stroke:#000000;stroke-linecap:square;stroke-linejoin:miter;stroke-width:0.8;"/>
   </g>
   <g id="patch_4">
    <path d="M 648 315 
L 648 43.2 
" style="fill:none;stroke:#000000;stroke-linecap:square;stroke-linejoin:miter;stroke-width:0.8;"/>
   </g>
   <g id="patch_5">
    <path d="M 90 315 
L 648 315 
" style="fill:none;stroke:#000000;stroke-linecap:square;stroke-linejoin:miter;stroke-width:0.8;"/>
   </g>
   <g id="patch_6">
    <path d="M 90 43.2 
L 648 43.2 
" style="fill:none;stroke:#000000;stroke-linecap:square;stroke-linejoin:miter;stroke-width:0.8;"/>
   </g>
   <g id="text_20">
    <!-- 441   $R_t$ -->
    <g transform="translate(316.74 37.2)scale(0.12 -0.12)">
     <defs>
      <path d="M 37.796875 64.3125 
L 12.890625 25.390625 
L 37.796875 25.390625 
z
M 35.203125 72.90625 
L 47.609375 72.90625 
L 47.609375 25.390625 
L 58.015625 25.390625 
L 58.015625 17.1875 
L 47.609375 17.1875 
L 47.609375 0 
L 37.796875 0 
L 37.796875 17.1875 
L 4.890625 17.1875 
L 4.890625 26.703125 
z
" id="DejaVuSans-52"/>
      <path id="DejaVuSans-32"/>
      <path d="M 56.640625 29.59375 
L 56.640625 0 
L 47.5625 0 
L 47.5625 29.6875 
Q 47.5625 33.296875 47.3125 35.71875 
Q 47.078125 38.140625 46.1875 40.59375 
Q 45.3125 43.0625 43.75 44.484375 
Q 42.1875 45.90625 39.453125 46.796875 
Q 36.71875 47.703125 32.8125 47.703125 
L 20.796875 47.703125 
L 20.796875 20.21875 
Q 20.796875 9.765625 17.796875 4.6875 
Q 14.796875 -0.390625 7.375 -0.390625 
Q 4.78125 -0.390625 0.984375 0.390625 
L 0.984375 7.375 
Q 4.15625 6.6875 6 6.6875 
Q 9.46875 6.6875 10.59375 9.46875 
Q 11.71875 12.25 11.71875 20.21875 
L 11.71875 47.703125 
L 3.265625 47.703125 
L 3.265625 54.6875 
L 32.8125 54.6875 
Q 39.796875 54.6875 44.5 53.046875 
Q 49.21875 51.421875 51.859375 48.046875 
Q 54.5 44.671875 55.5625 40.28125 
Q 56.640625 35.890625 56.640625 29.59375 
z
" id="DejaVuSans-1514"/>
      <path d="M 18.171875 54.6875 
L 18.171875 0 
L 9.078125 0 
L 9.078125 54.6875 
z
" id="DejaVuSans-1493"/>
      <path d="M 36.328125 6.984375 
L 36.328125 29.59375 
Q 36.328125 33.25 36.0625 35.671875 
Q 35.796875 38.09375 34.859375 40.578125 
Q 33.9375 43.0625 32.25 44.484375 
Q 30.5625 45.90625 27.609375 46.796875 
Q 24.65625 47.703125 20.40625 47.703125 
L 4.296875 47.703125 
L 4.296875 54.6875 
L 20.40625 54.6875 
Q 26.421875 54.6875 30.734375 53.5625 
Q 35.0625 52.4375 37.890625 50.359375 
Q 40.71875 48.296875 42.40625 44.890625 
Q 44.09375 41.5 44.75 37.453125 
Q 45.40625 33.40625 45.40625 27.828125 
L 45.40625 6.984375 
L 53.515625 6.984375 
L 53.515625 0 
L 4.296875 0 
L 4.296875 6.984375 
z
" id="DejaVuSans-1489"/>
      <path d="M 56.25 29.59375 
L 56.25 0 
L 47.171875 0 
L 47.171875 30.90625 
Q 47.171875 40.578125 44 44.140625 
Q 40.828125 47.703125 31.84375 47.703125 
L 18.109375 47.703125 
L 18.109375 0 
L 9.078125 0 
L 9.078125 54.6875 
L 31.734375 54.6875 
Q 45.21875 54.6875 50.734375 48.828125 
Q 56.25 42.96875 56.25 29.59375 
z
" id="DejaVuSans-1495"/>
      <path d="M 47.359375 27.828125 
L 47.359375 0 
L 38.28125 0 
L 38.28125 27.828125 
Q 38.28125 31.390625 37.765625 34.265625 
Q 37.25 37.15625 36 39.71875 
Q 34.765625 42.28125 32.8125 43.984375 
Q 30.859375 45.703125 27.78125 46.703125 
Q 24.703125 47.703125 20.703125 47.703125 
L 4.296875 47.703125 
L 4.296875 54.6875 
L 20.65625 54.6875 
Q 26.8125 54.6875 31.46875 53.390625 
Q 36.140625 52.09375 39.109375 49.828125 
Q 42.09375 47.5625 43.96875 44.109375 
Q 45.84375 40.671875 46.59375 36.734375 
Q 47.359375 32.8125 47.359375 27.828125 
z
" id="DejaVuSans-1512"/>
      <path d="M 30.328125 54.6875 
L 30.328125 47.703125 
L 26.421875 47.703125 
Q 22.171875 47.703125 20.578125 43.921875 
Q 19 40.140625 19 30.90625 
L 19 0 
L 9.90625 0 
L 9.90625 30.90625 
Q 9.90625 37.109375 11.78125 41.453125 
Q 13.671875 45.796875 16.40625 47.703125 
L 4.296875 47.703125 
L 4.296875 54.6875 
z
" id="DejaVuSans-1494"/>
      <path d="M 43.75 20.0625 
L 57.671875 0 
L 47.078125 0 
L 26.765625 29.296875 
Q 25.390625 28.609375 24.53125 28.09375 
Q 23.6875 27.59375 22.3125 26.296875 
Q 20.953125 25 20.140625 23.40625 
Q 19.34375 21.828125 18.703125 19.140625 
Q 18.0625 16.453125 18.0625 13.09375 
L 18.0625 0 
L 9.078125 0 
L 9.078125 9.03125 
Q 9.078125 12.984375 9.5625 16.359375 
Q 10.0625 19.734375 10.8125 22.078125 
Q 11.578125 24.421875 12.796875 26.390625 
Q 14.015625 28.375 15.109375 29.59375 
Q 16.21875 30.8125 17.796875 31.875 
Q 19.390625 32.953125 20.453125 33.46875 
Q 21.53125 33.984375 23.046875 34.625 
L 9.1875 54.6875 
L 19.78125 54.6875 
L 40.09375 25.390625 
Q 41.40625 26.03125 42.25 26.53125 
Q 43.109375 27.046875 44.46875 28.359375 
Q 45.84375 29.6875 46.671875 31.265625 
Q 47.515625 32.859375 48.140625 35.546875 
Q 48.78125 38.234375 48.78125 41.609375 
L 48.78125 54.6875 
L 57.765625 54.6875 
L 57.765625 45.65625 
Q 57.765625 41.65625 57.265625 38.3125 
Q 56.78125 34.96875 56.03125 32.59375 
Q 55.28125 30.21875 54.046875 28.234375 
Q 52.828125 26.265625 51.703125 25.0625 
Q 50.59375 23.875 49.03125 22.796875 
Q 47.46875 21.734375 46.390625 21.21875 
Q 45.3125 20.703125 43.75 20.0625 
z
" id="DejaVuSans-1488"/>
      <path d="M 25.203125 64.796875 
L 20.21875 38.921875 
L 32.90625 38.921875 
Q 40.375 38.921875 44.984375 43.046875 
Q 49.609375 47.171875 49.609375 53.8125 
Q 49.609375 59.125 46.5 61.953125 
Q 43.40625 64.796875 37.59375 64.796875 
z
M 43.3125 35.015625 
Q 46.4375 34.28125 48.515625 31.390625 
Q 50.59375 28.515625 53.328125 19.921875 
L 59.515625 0 
L 49.125 0 
L 43.40625 18.703125 
Q 41.21875 25.921875 38.328125 28.359375 
Q 35.453125 30.8125 29.5 30.8125 
L 18.609375 30.8125 
L 12.59375 0 
L 2.6875 0 
L 16.890625 72.90625 
L 39.109375 72.90625 
Q 49.21875 72.90625 54.609375 68.328125 
Q 60.015625 63.765625 60.015625 55.171875 
Q 60.015625 47.5625 55.421875 41.984375 
Q 50.828125 36.421875 43.3125 35.015625 
z
" id="DejaVuSans-Oblique-82"/>
      <path d="M 42.28125 54.6875 
L 40.921875 47.703125 
L 23 47.703125 
L 17.1875 18.015625 
Q 16.890625 16.359375 16.75 15.234375 
Q 16.609375 14.109375 16.609375 13.484375 
Q 16.609375 10.359375 18.484375 8.9375 
Q 20.359375 7.515625 24.515625 7.515625 
L 33.59375 7.515625 
L 32.078125 0 
L 23.484375 0 
Q 15.484375 0 11.546875 3.125 
Q 7.625 6.25 7.625 12.59375 
Q 7.625 13.71875 7.765625 15.0625 
Q 7.90625 16.40625 8.203125 18.015625 
L 14.015625 47.703125 
L 6.390625 47.703125 
L 7.8125 54.6875 
L 15.28125 54.6875 
L 18.3125 70.21875 
L 27.296875 70.21875 
L 24.3125 54.6875 
z
" id="DejaVuSans-Oblique-116"/>
     </defs>
     <use transform="translate(0 0.09375)" xlink:href="#DejaVuSans-52"/>
     <use transform="translate(63.623047 0.09375)" xlink:href="#DejaVuSans-52"/>
     <use transform="translate(127.246094 0.09375)" xlink:href="#DejaVuSans-49"/>
     <use transform="translate(190.869141 0.09375)" xlink:href="#DejaVuSans-32"/>
     <use transform="translate(222.65625 0.09375)" xlink:href="#DejaVuSans-1514"/>
     <use transform="translate(288.378906 0.09375)" xlink:href="#DejaVuSans-1493"/>
     <use transform="translate(315.625 0.09375)" xlink:href="#DejaVuSans-1489"/>
     <use transform="translate(373.4375 0.09375)" xlink:href="#DejaVuSans-1493"/>
     <use transform="translate(400.683594 0.09375)" xlink:href="#DejaVuSans-1495"/>
     <use transform="translate(466.015625 0.09375)" xlink:href="#DejaVuSans-1512"/>
     <use transform="translate(522.460938 0.09375)" xlink:href="#DejaVuSans-32"/>
     <use transform="translate(554.248047 0.09375)" xlink:href="#DejaVuSans-1512"/>
     <use transform="translate(610.693359 0.09375)" xlink:href="#DejaVuSans-1493"/>
     <use transform="translate(637.939453 0.09375)" xlink:href="#DejaVuSans-1494"/>
     <use transform="translate(672.558594 0.09375)" xlink:href="#DejaVuSans-1488"/>
     <use transform="translate(739.404297 0.09375)" xlink:href="#DejaVuSans-32"/>
     <use transform="translate(771.191406 0.09375)" xlink:href="#DejaVuSans-Oblique-82"/>
     <use transform="translate(840.673828 -16.3125)scale(0.7)" xlink:href="#DejaVuSans-Oblique-116"/>
    </g>
   </g>
  </g>
 </g>
 <defs>
  <clipPath id="p8fc12479fa">
   <rect height="271.8" width="558" x="90" y="43.2"/>
  </clipPath>
 </defs>
</svg>
