<?xml version="1.0" encoding="utf-8" standalone="no"?>
<!DOCTYPE svg PUBLIC "-//W3C//DTD SVG 1.1//EN"
  "http://www.w3.org/Graphics/SVG/1.1/DTD/svg11.dtd">
<!-- Created with matplotlib (https://matplotlib.org/) -->
<svg height="360pt" version="1.1" viewBox="0 0 720 360" width="720pt" xmlns="http://www.w3.org/2000/svg" xmlns:xlink="http://www.w3.org/1999/xlink">
 <metadata>
  <rdf:RDF xmlns:cc="http://creativecommons.org/ns#" xmlns:dc="http://purl.org/dc/elements/1.1/" xmlns:rdf="http://www.w3.org/1999/02/22-rdf-syntax-ns#">
   <cc:Work>
    <dc:type rdf:resource="http://purl.org/dc/dcmitype/StillImage"/>
    <dc:date>2021-03-07T14:06:35.591545</dc:date>
    <dc:format>image/svg+xml</dc:format>
    <dc:creator>
     <cc:Agent>
      <dc:title>Matplotlib v3.3.2, https://matplotlib.org/</dc:title>
     </cc:Agent>
    </dc:creator>
   </cc:Work>
  </rdf:RDF>
 </metadata>
 <defs>
  <style type="text/css">*{stroke-linecap:butt;stroke-linejoin:round;}</style>
 </defs>
 <g id="figure_1">
  <g id="patch_1">
   <path d="M 0 360 
L 720 360 
L 720 0 
L 0 0 
z
" style="fill:#ffffff;"/>
  </g>
  <g id="axes_1">
   <g id="patch_2">
    <path d="M 90 315 
L 648 315 
L 648 43.2 
L 90 43.2 
z
" style="fill:#ffffff;"/>
   </g>
   <g id="matplotlib.axis_1">
    <g id="xtick_1">
     <g id="line2d_1">
      <defs>
       <path d="M 0 0 
L 0 3.5 
" id="m7e625aaff6" style="stroke:#000000;stroke-width:0.8;"/>
      </defs>
      <g>
       <use style="stroke:#000000;stroke-width:0.8;" x="90" xlink:href="#m7e625aaff6" y="315"/>
      </g>
     </g>
    </g>
    <g id="xtick_2">
     <g id="line2d_2">
      <g>
       <use style="stroke:#000000;stroke-width:0.8;" x="118.213483" xlink:href="#m7e625aaff6" y="315"/>
      </g>
     </g>
     <g id="text_1">
      <!-- Apr -->
      <g transform="translate(109.563483 329.598437)scale(0.1 -0.1)">
       <defs>
        <path d="M 34.1875 63.1875 
L 20.796875 26.90625 
L 47.609375 26.90625 
z
M 28.609375 72.90625 
L 39.796875 72.90625 
L 67.578125 0 
L 57.328125 0 
L 50.6875 18.703125 
L 17.828125 18.703125 
L 11.1875 0 
L 0.78125 0 
z
" id="DejaVuSans-65"/>
        <path d="M 18.109375 8.203125 
L 18.109375 -20.796875 
L 9.078125 -20.796875 
L 9.078125 54.6875 
L 18.109375 54.6875 
L 18.109375 46.390625 
Q 20.953125 51.265625 25.265625 53.625 
Q 29.59375 56 35.59375 56 
Q 45.5625 56 51.78125 48.09375 
Q 58.015625 40.1875 58.015625 27.296875 
Q 58.015625 14.40625 51.78125 6.484375 
Q 45.5625 -1.421875 35.59375 -1.421875 
Q 29.59375 -1.421875 25.265625 0.953125 
Q 20.953125 3.328125 18.109375 8.203125 
z
M 48.6875 27.296875 
Q 48.6875 37.203125 44.609375 42.84375 
Q 40.53125 48.484375 33.40625 48.484375 
Q 26.265625 48.484375 22.1875 42.84375 
Q 18.109375 37.203125 18.109375 27.296875 
Q 18.109375 17.390625 22.1875 11.75 
Q 26.265625 6.109375 33.40625 6.109375 
Q 40.53125 6.109375 44.609375 11.75 
Q 48.6875 17.390625 48.6875 27.296875 
z
" id="DejaVuSans-112"/>
        <path d="M 41.109375 46.296875 
Q 39.59375 47.171875 37.8125 47.578125 
Q 36.03125 48 33.890625 48 
Q 26.265625 48 22.1875 43.046875 
Q 18.109375 38.09375 18.109375 28.8125 
L 18.109375 0 
L 9.078125 0 
L 9.078125 54.6875 
L 18.109375 54.6875 
L 18.109375 46.1875 
Q 20.953125 51.171875 25.484375 53.578125 
Q 30.03125 56 36.53125 56 
Q 37.453125 56 38.578125 55.875 
Q 39.703125 55.765625 41.0625 55.515625 
z
" id="DejaVuSans-114"/>
       </defs>
       <use xlink:href="#DejaVuSans-65"/>
       <use x="68.408203" xlink:href="#DejaVuSans-112"/>
       <use x="131.884766" xlink:href="#DejaVuSans-114"/>
      </g>
     </g>
    </g>
    <g id="xtick_3">
     <g id="line2d_3">
      <g>
       <use style="stroke:#000000;stroke-width:0.8;" x="165.235955" xlink:href="#m7e625aaff6" y="315"/>
      </g>
     </g>
     <g id="text_2">
      <!-- May -->
      <g transform="translate(154.898455 329.598437)scale(0.1 -0.1)">
       <defs>
        <path d="M 9.8125 72.90625 
L 24.515625 72.90625 
L 43.109375 23.296875 
L 61.8125 72.90625 
L 76.515625 72.90625 
L 76.515625 0 
L 66.890625 0 
L 66.890625 64.015625 
L 48.09375 14.015625 
L 38.1875 14.015625 
L 19.390625 64.015625 
L 19.390625 0 
L 9.8125 0 
z
" id="DejaVuSans-77"/>
        <path d="M 34.28125 27.484375 
Q 23.390625 27.484375 19.1875 25 
Q 14.984375 22.515625 14.984375 16.5 
Q 14.984375 11.71875 18.140625 8.90625 
Q 21.296875 6.109375 26.703125 6.109375 
Q 34.1875 6.109375 38.703125 11.40625 
Q 43.21875 16.703125 43.21875 25.484375 
L 43.21875 27.484375 
z
M 52.203125 31.203125 
L 52.203125 0 
L 43.21875 0 
L 43.21875 8.296875 
Q 40.140625 3.328125 35.546875 0.953125 
Q 30.953125 -1.421875 24.3125 -1.421875 
Q 15.921875 -1.421875 10.953125 3.296875 
Q 6 8.015625 6 15.921875 
Q 6 25.140625 12.171875 29.828125 
Q 18.359375 34.515625 30.609375 34.515625 
L 43.21875 34.515625 
L 43.21875 35.40625 
Q 43.21875 41.609375 39.140625 45 
Q 35.0625 48.390625 27.6875 48.390625 
Q 23 48.390625 18.546875 47.265625 
Q 14.109375 46.140625 10.015625 43.890625 
L 10.015625 52.203125 
Q 14.9375 54.109375 19.578125 55.046875 
Q 24.21875 56 28.609375 56 
Q 40.484375 56 46.34375 49.84375 
Q 52.203125 43.703125 52.203125 31.203125 
z
" id="DejaVuSans-97"/>
        <path d="M 32.171875 -5.078125 
Q 28.375 -14.84375 24.75 -17.8125 
Q 21.140625 -20.796875 15.09375 -20.796875 
L 7.90625 -20.796875 
L 7.90625 -13.28125 
L 13.1875 -13.28125 
Q 16.890625 -13.28125 18.9375 -11.515625 
Q 21 -9.765625 23.484375 -3.21875 
L 25.09375 0.875 
L 2.984375 54.6875 
L 12.5 54.6875 
L 29.59375 11.921875 
L 46.6875 54.6875 
L 56.203125 54.6875 
z
" id="DejaVuSans-121"/>
       </defs>
       <use xlink:href="#DejaVuSans-77"/>
       <use x="86.279297" xlink:href="#DejaVuSans-97"/>
       <use x="147.558594" xlink:href="#DejaVuSans-121"/>
      </g>
     </g>
    </g>
    <g id="xtick_4">
     <g id="line2d_4">
      <g>
       <use style="stroke:#000000;stroke-width:0.8;" x="213.825843" xlink:href="#m7e625aaff6" y="315"/>
      </g>
     </g>
     <g id="text_3">
      <!-- Jun -->
      <g transform="translate(206.013343 329.598437)scale(0.1 -0.1)">
       <defs>
        <path d="M 9.8125 72.90625 
L 19.671875 72.90625 
L 19.671875 5.078125 
Q 19.671875 -8.109375 14.671875 -14.0625 
Q 9.671875 -20.015625 -1.421875 -20.015625 
L -5.171875 -20.015625 
L -5.171875 -11.71875 
L -2.09375 -11.71875 
Q 4.4375 -11.71875 7.125 -8.046875 
Q 9.8125 -4.390625 9.8125 5.078125 
z
" id="DejaVuSans-74"/>
        <path d="M 8.5 21.578125 
L 8.5 54.6875 
L 17.484375 54.6875 
L 17.484375 21.921875 
Q 17.484375 14.15625 20.5 10.265625 
Q 23.53125 6.390625 29.59375 6.390625 
Q 36.859375 6.390625 41.078125 11.03125 
Q 45.3125 15.671875 45.3125 23.6875 
L 45.3125 54.6875 
L 54.296875 54.6875 
L 54.296875 0 
L 45.3125 0 
L 45.3125 8.40625 
Q 42.046875 3.421875 37.71875 1 
Q 33.40625 -1.421875 27.6875 -1.421875 
Q 18.265625 -1.421875 13.375 4.4375 
Q 8.5 10.296875 8.5 21.578125 
z
M 31.109375 56 
z
" id="DejaVuSans-117"/>
        <path d="M 54.890625 33.015625 
L 54.890625 0 
L 45.90625 0 
L 45.90625 32.71875 
Q 45.90625 40.484375 42.875 44.328125 
Q 39.84375 48.1875 33.796875 48.1875 
Q 26.515625 48.1875 22.3125 43.546875 
Q 18.109375 38.921875 18.109375 30.90625 
L 18.109375 0 
L 9.078125 0 
L 9.078125 54.6875 
L 18.109375 54.6875 
L 18.109375 46.1875 
Q 21.34375 51.125 25.703125 53.5625 
Q 30.078125 56 35.796875 56 
Q 45.21875 56 50.046875 50.171875 
Q 54.890625 44.34375 54.890625 33.015625 
z
" id="DejaVuSans-110"/>
       </defs>
       <use xlink:href="#DejaVuSans-74"/>
       <use x="29.492188" xlink:href="#DejaVuSans-117"/>
       <use x="92.871094" xlink:href="#DejaVuSans-110"/>
      </g>
     </g>
    </g>
    <g id="xtick_5">
     <g id="line2d_5">
      <g>
       <use style="stroke:#000000;stroke-width:0.8;" x="260.848315" xlink:href="#m7e625aaff6" y="315"/>
      </g>
     </g>
     <g id="text_4">
      <!-- Jul -->
      <g transform="translate(254.815502 329.598437)scale(0.1 -0.1)">
       <defs>
        <path d="M 9.421875 75.984375 
L 18.40625 75.984375 
L 18.40625 0 
L 9.421875 0 
z
" id="DejaVuSans-108"/>
       </defs>
       <use xlink:href="#DejaVuSans-74"/>
       <use x="29.492188" xlink:href="#DejaVuSans-117"/>
       <use x="92.871094" xlink:href="#DejaVuSans-108"/>
      </g>
     </g>
    </g>
    <g id="xtick_6">
     <g id="line2d_6">
      <g>
       <use style="stroke:#000000;stroke-width:0.8;" x="309.438202" xlink:href="#m7e625aaff6" y="315"/>
      </g>
     </g>
     <g id="text_5">
      <!-- Aug -->
      <g transform="translate(299.674921 329.598437)scale(0.1 -0.1)">
       <defs>
        <path d="M 45.40625 27.984375 
Q 45.40625 37.75 41.375 43.109375 
Q 37.359375 48.484375 30.078125 48.484375 
Q 22.859375 48.484375 18.828125 43.109375 
Q 14.796875 37.75 14.796875 27.984375 
Q 14.796875 18.265625 18.828125 12.890625 
Q 22.859375 7.515625 30.078125 7.515625 
Q 37.359375 7.515625 41.375 12.890625 
Q 45.40625 18.265625 45.40625 27.984375 
z
M 54.390625 6.78125 
Q 54.390625 -7.171875 48.1875 -13.984375 
Q 42 -20.796875 29.203125 -20.796875 
Q 24.46875 -20.796875 20.265625 -20.09375 
Q 16.0625 -19.390625 12.109375 -17.921875 
L 12.109375 -9.1875 
Q 16.0625 -11.328125 19.921875 -12.34375 
Q 23.78125 -13.375 27.78125 -13.375 
Q 36.625 -13.375 41.015625 -8.765625 
Q 45.40625 -4.15625 45.40625 5.171875 
L 45.40625 9.625 
Q 42.625 4.78125 38.28125 2.390625 
Q 33.9375 0 27.875 0 
Q 17.828125 0 11.671875 7.65625 
Q 5.515625 15.328125 5.515625 27.984375 
Q 5.515625 40.671875 11.671875 48.328125 
Q 17.828125 56 27.875 56 
Q 33.9375 56 38.28125 53.609375 
Q 42.625 51.21875 45.40625 46.390625 
L 45.40625 54.6875 
L 54.390625 54.6875 
z
" id="DejaVuSans-103"/>
       </defs>
       <use xlink:href="#DejaVuSans-65"/>
       <use x="68.408203" xlink:href="#DejaVuSans-117"/>
       <use x="131.787109" xlink:href="#DejaVuSans-103"/>
      </g>
     </g>
    </g>
    <g id="xtick_7">
     <g id="line2d_7">
      <g>
       <use style="stroke:#000000;stroke-width:0.8;" x="358.02809" xlink:href="#m7e625aaff6" y="315"/>
      </g>
     </g>
     <g id="text_6">
      <!-- Sep -->
      <g transform="translate(348.60309 329.598437)scale(0.1 -0.1)">
       <defs>
        <path d="M 53.515625 70.515625 
L 53.515625 60.890625 
Q 47.90625 63.578125 42.921875 64.890625 
Q 37.9375 66.21875 33.296875 66.21875 
Q 25.25 66.21875 20.875 63.09375 
Q 16.5 59.96875 16.5 54.203125 
Q 16.5 49.359375 19.40625 46.890625 
Q 22.3125 44.4375 30.421875 42.921875 
L 36.375 41.703125 
Q 47.40625 39.59375 52.65625 34.296875 
Q 57.90625 29 57.90625 20.125 
Q 57.90625 9.515625 50.796875 4.046875 
Q 43.703125 -1.421875 29.984375 -1.421875 
Q 24.8125 -1.421875 18.96875 -0.25 
Q 13.140625 0.921875 6.890625 3.21875 
L 6.890625 13.375 
Q 12.890625 10.015625 18.65625 8.296875 
Q 24.421875 6.59375 29.984375 6.59375 
Q 38.421875 6.59375 43.015625 9.90625 
Q 47.609375 13.234375 47.609375 19.390625 
Q 47.609375 24.75 44.3125 27.78125 
Q 41.015625 30.8125 33.5 32.328125 
L 27.484375 33.5 
Q 16.453125 35.6875 11.515625 40.375 
Q 6.59375 45.0625 6.59375 53.421875 
Q 6.59375 63.09375 13.40625 68.65625 
Q 20.21875 74.21875 32.171875 74.21875 
Q 37.3125 74.21875 42.625 73.28125 
Q 47.953125 72.359375 53.515625 70.515625 
z
" id="DejaVuSans-83"/>
        <path d="M 56.203125 29.59375 
L 56.203125 25.203125 
L 14.890625 25.203125 
Q 15.484375 15.921875 20.484375 11.0625 
Q 25.484375 6.203125 34.421875 6.203125 
Q 39.59375 6.203125 44.453125 7.46875 
Q 49.3125 8.734375 54.109375 11.28125 
L 54.109375 2.78125 
Q 49.265625 0.734375 44.1875 -0.34375 
Q 39.109375 -1.421875 33.890625 -1.421875 
Q 20.796875 -1.421875 13.15625 6.1875 
Q 5.515625 13.8125 5.515625 26.8125 
Q 5.515625 40.234375 12.765625 48.109375 
Q 20.015625 56 32.328125 56 
Q 43.359375 56 49.78125 48.890625 
Q 56.203125 41.796875 56.203125 29.59375 
z
M 47.21875 32.234375 
Q 47.125 39.59375 43.09375 43.984375 
Q 39.0625 48.390625 32.421875 48.390625 
Q 24.90625 48.390625 20.390625 44.140625 
Q 15.875 39.890625 15.1875 32.171875 
z
" id="DejaVuSans-101"/>
       </defs>
       <use xlink:href="#DejaVuSans-83"/>
       <use x="63.476562" xlink:href="#DejaVuSans-101"/>
       <use x="125" xlink:href="#DejaVuSans-112"/>
      </g>
     </g>
    </g>
    <g id="xtick_8">
     <g id="line2d_8">
      <g>
       <use style="stroke:#000000;stroke-width:0.8;" x="405.050562" xlink:href="#m7e625aaff6" y="315"/>
      </g>
     </g>
     <g id="text_7">
      <!-- Oct -->
      <g transform="translate(396.405249 329.598437)scale(0.1 -0.1)">
       <defs>
        <path d="M 39.40625 66.21875 
Q 28.65625 66.21875 22.328125 58.203125 
Q 16.015625 50.203125 16.015625 36.375 
Q 16.015625 22.609375 22.328125 14.59375 
Q 28.65625 6.59375 39.40625 6.59375 
Q 50.140625 6.59375 56.421875 14.59375 
Q 62.703125 22.609375 62.703125 36.375 
Q 62.703125 50.203125 56.421875 58.203125 
Q 50.140625 66.21875 39.40625 66.21875 
z
M 39.40625 74.21875 
Q 54.734375 74.21875 63.90625 63.9375 
Q 73.09375 53.65625 73.09375 36.375 
Q 73.09375 19.140625 63.90625 8.859375 
Q 54.734375 -1.421875 39.40625 -1.421875 
Q 24.03125 -1.421875 14.8125 8.828125 
Q 5.609375 19.09375 5.609375 36.375 
Q 5.609375 53.65625 14.8125 63.9375 
Q 24.03125 74.21875 39.40625 74.21875 
z
" id="DejaVuSans-79"/>
        <path d="M 48.78125 52.59375 
L 48.78125 44.1875 
Q 44.96875 46.296875 41.140625 47.34375 
Q 37.3125 48.390625 33.40625 48.390625 
Q 24.65625 48.390625 19.8125 42.84375 
Q 14.984375 37.3125 14.984375 27.296875 
Q 14.984375 17.28125 19.8125 11.734375 
Q 24.65625 6.203125 33.40625 6.203125 
Q 37.3125 6.203125 41.140625 7.25 
Q 44.96875 8.296875 48.78125 10.40625 
L 48.78125 2.09375 
Q 45.015625 0.34375 40.984375 -0.53125 
Q 36.96875 -1.421875 32.421875 -1.421875 
Q 20.0625 -1.421875 12.78125 6.34375 
Q 5.515625 14.109375 5.515625 27.296875 
Q 5.515625 40.671875 12.859375 48.328125 
Q 20.21875 56 33.015625 56 
Q 37.15625 56 41.109375 55.140625 
Q 45.0625 54.296875 48.78125 52.59375 
z
" id="DejaVuSans-99"/>
        <path d="M 18.3125 70.21875 
L 18.3125 54.6875 
L 36.8125 54.6875 
L 36.8125 47.703125 
L 18.3125 47.703125 
L 18.3125 18.015625 
Q 18.3125 11.328125 20.140625 9.421875 
Q 21.96875 7.515625 27.59375 7.515625 
L 36.8125 7.515625 
L 36.8125 0 
L 27.59375 0 
Q 17.1875 0 13.234375 3.875 
Q 9.28125 7.765625 9.28125 18.015625 
L 9.28125 47.703125 
L 2.6875 47.703125 
L 2.6875 54.6875 
L 9.28125 54.6875 
L 9.28125 70.21875 
z
" id="DejaVuSans-116"/>
       </defs>
       <use xlink:href="#DejaVuSans-79"/>
       <use x="78.710938" xlink:href="#DejaVuSans-99"/>
       <use x="133.691406" xlink:href="#DejaVuSans-116"/>
      </g>
     </g>
    </g>
    <g id="xtick_9">
     <g id="line2d_9">
      <g>
       <use style="stroke:#000000;stroke-width:0.8;" x="453.640449" xlink:href="#m7e625aaff6" y="315"/>
      </g>
     </g>
     <g id="text_8">
      <!-- Nov -->
      <g transform="translate(443.881074 329.598437)scale(0.1 -0.1)">
       <defs>
        <path d="M 9.8125 72.90625 
L 23.09375 72.90625 
L 55.421875 11.921875 
L 55.421875 72.90625 
L 64.984375 72.90625 
L 64.984375 0 
L 51.703125 0 
L 19.390625 60.984375 
L 19.390625 0 
L 9.8125 0 
z
" id="DejaVuSans-78"/>
        <path d="M 30.609375 48.390625 
Q 23.390625 48.390625 19.1875 42.75 
Q 14.984375 37.109375 14.984375 27.296875 
Q 14.984375 17.484375 19.15625 11.84375 
Q 23.34375 6.203125 30.609375 6.203125 
Q 37.796875 6.203125 41.984375 11.859375 
Q 46.1875 17.53125 46.1875 27.296875 
Q 46.1875 37.015625 41.984375 42.703125 
Q 37.796875 48.390625 30.609375 48.390625 
z
M 30.609375 56 
Q 42.328125 56 49.015625 48.375 
Q 55.71875 40.765625 55.71875 27.296875 
Q 55.71875 13.875 49.015625 6.21875 
Q 42.328125 -1.421875 30.609375 -1.421875 
Q 18.84375 -1.421875 12.171875 6.21875 
Q 5.515625 13.875 5.515625 27.296875 
Q 5.515625 40.765625 12.171875 48.375 
Q 18.84375 56 30.609375 56 
z
" id="DejaVuSans-111"/>
        <path d="M 2.984375 54.6875 
L 12.5 54.6875 
L 29.59375 8.796875 
L 46.6875 54.6875 
L 56.203125 54.6875 
L 35.6875 0 
L 23.484375 0 
z
" id="DejaVuSans-118"/>
       </defs>
       <use xlink:href="#DejaVuSans-78"/>
       <use x="74.804688" xlink:href="#DejaVuSans-111"/>
       <use x="135.986328" xlink:href="#DejaVuSans-118"/>
      </g>
     </g>
    </g>
    <g id="xtick_10">
     <g id="line2d_10">
      <g>
       <use style="stroke:#000000;stroke-width:0.8;" x="500.662921" xlink:href="#m7e625aaff6" y="315"/>
      </g>
     </g>
     <g id="text_9">
      <!-- Dec -->
      <g transform="translate(490.98714 329.598437)scale(0.1 -0.1)">
       <defs>
        <path d="M 19.671875 64.796875 
L 19.671875 8.109375 
L 31.59375 8.109375 
Q 46.6875 8.109375 53.6875 14.9375 
Q 60.6875 21.78125 60.6875 36.53125 
Q 60.6875 51.171875 53.6875 57.984375 
Q 46.6875 64.796875 31.59375 64.796875 
z
M 9.8125 72.90625 
L 30.078125 72.90625 
Q 51.265625 72.90625 61.171875 64.09375 
Q 71.09375 55.28125 71.09375 36.53125 
Q 71.09375 17.671875 61.125 8.828125 
Q 51.171875 0 30.078125 0 
L 9.8125 0 
z
" id="DejaVuSans-68"/>
       </defs>
       <use xlink:href="#DejaVuSans-68"/>
       <use x="77.001953" xlink:href="#DejaVuSans-101"/>
       <use x="138.525391" xlink:href="#DejaVuSans-99"/>
      </g>
     </g>
    </g>
    <g id="xtick_11">
     <g id="line2d_11">
      <g>
       <use style="stroke:#000000;stroke-width:0.8;" x="549.252809" xlink:href="#m7e625aaff6" y="315"/>
      </g>
     </g>
     <g id="text_10">
      <!-- Jan -->
      <g transform="translate(541.544996 329.598437)scale(0.1 -0.1)">
       <use xlink:href="#DejaVuSans-74"/>
       <use x="29.492188" xlink:href="#DejaVuSans-97"/>
       <use x="90.771484" xlink:href="#DejaVuSans-110"/>
      </g>
      <!-- 2021 -->
      <g transform="translate(536.527809 340.79625)scale(0.1 -0.1)">
       <defs>
        <path d="M 19.1875 8.296875 
L 53.609375 8.296875 
L 53.609375 0 
L 7.328125 0 
L 7.328125 8.296875 
Q 12.9375 14.109375 22.625 23.890625 
Q 32.328125 33.6875 34.8125 36.53125 
Q 39.546875 41.84375 41.421875 45.53125 
Q 43.3125 49.21875 43.3125 52.78125 
Q 43.3125 58.59375 39.234375 62.25 
Q 35.15625 65.921875 28.609375 65.921875 
Q 23.96875 65.921875 18.8125 64.3125 
Q 13.671875 62.703125 7.8125 59.421875 
L 7.8125 69.390625 
Q 13.765625 71.78125 18.9375 73 
Q 24.125 74.21875 28.421875 74.21875 
Q 39.75 74.21875 46.484375 68.546875 
Q 53.21875 62.890625 53.21875 53.421875 
Q 53.21875 48.921875 51.53125 44.890625 
Q 49.859375 40.875 45.40625 35.40625 
Q 44.1875 33.984375 37.640625 27.21875 
Q 31.109375 20.453125 19.1875 8.296875 
z
" id="DejaVuSans-50"/>
        <path d="M 31.78125 66.40625 
Q 24.171875 66.40625 20.328125 58.90625 
Q 16.5 51.421875 16.5 36.375 
Q 16.5 21.390625 20.328125 13.890625 
Q 24.171875 6.390625 31.78125 6.390625 
Q 39.453125 6.390625 43.28125 13.890625 
Q 47.125 21.390625 47.125 36.375 
Q 47.125 51.421875 43.28125 58.90625 
Q 39.453125 66.40625 31.78125 66.40625 
z
M 31.78125 74.21875 
Q 44.046875 74.21875 50.515625 64.515625 
Q 56.984375 54.828125 56.984375 36.375 
Q 56.984375 17.96875 50.515625 8.265625 
Q 44.046875 -1.421875 31.78125 -1.421875 
Q 19.53125 -1.421875 13.0625 8.265625 
Q 6.59375 17.96875 6.59375 36.375 
Q 6.59375 54.828125 13.0625 64.515625 
Q 19.53125 74.21875 31.78125 74.21875 
z
" id="DejaVuSans-48"/>
        <path d="M 12.40625 8.296875 
L 28.515625 8.296875 
L 28.515625 63.921875 
L 10.984375 60.40625 
L 10.984375 69.390625 
L 28.421875 72.90625 
L 38.28125 72.90625 
L 38.28125 8.296875 
L 54.390625 8.296875 
L 54.390625 0 
L 12.40625 0 
z
" id="DejaVuSans-49"/>
       </defs>
       <use xlink:href="#DejaVuSans-50"/>
       <use x="63.623047" xlink:href="#DejaVuSans-48"/>
       <use x="127.246094" xlink:href="#DejaVuSans-50"/>
       <use x="190.869141" xlink:href="#DejaVuSans-49"/>
      </g>
     </g>
    </g>
    <g id="xtick_12">
     <g id="line2d_12">
      <g>
       <use style="stroke:#000000;stroke-width:0.8;" x="597.842697" xlink:href="#m7e625aaff6" y="315"/>
      </g>
     </g>
     <g id="text_11">
      <!-- Feb -->
      <g transform="translate(588.991134 329.598437)scale(0.1 -0.1)">
       <defs>
        <path d="M 9.8125 72.90625 
L 51.703125 72.90625 
L 51.703125 64.59375 
L 19.671875 64.59375 
L 19.671875 43.109375 
L 48.578125 43.109375 
L 48.578125 34.8125 
L 19.671875 34.8125 
L 19.671875 0 
L 9.8125 0 
z
" id="DejaVuSans-70"/>
        <path d="M 48.6875 27.296875 
Q 48.6875 37.203125 44.609375 42.84375 
Q 40.53125 48.484375 33.40625 48.484375 
Q 26.265625 48.484375 22.1875 42.84375 
Q 18.109375 37.203125 18.109375 27.296875 
Q 18.109375 17.390625 22.1875 11.75 
Q 26.265625 6.109375 33.40625 6.109375 
Q 40.53125 6.109375 44.609375 11.75 
Q 48.6875 17.390625 48.6875 27.296875 
z
M 18.109375 46.390625 
Q 20.953125 51.265625 25.265625 53.625 
Q 29.59375 56 35.59375 56 
Q 45.5625 56 51.78125 48.09375 
Q 58.015625 40.1875 58.015625 27.296875 
Q 58.015625 14.40625 51.78125 6.484375 
Q 45.5625 -1.421875 35.59375 -1.421875 
Q 29.59375 -1.421875 25.265625 0.953125 
Q 20.953125 3.328125 18.109375 8.203125 
L 18.109375 0 
L 9.078125 0 
L 9.078125 75.984375 
L 18.109375 75.984375 
z
" id="DejaVuSans-98"/>
       </defs>
       <use xlink:href="#DejaVuSans-70"/>
       <use x="52.019531" xlink:href="#DejaVuSans-101"/>
       <use x="113.542969" xlink:href="#DejaVuSans-98"/>
      </g>
     </g>
    </g>
    <g id="xtick_13">
     <g id="line2d_13">
      <g>
       <use style="stroke:#000000;stroke-width:0.8;" x="641.730337" xlink:href="#m7e625aaff6" y="315"/>
      </g>
     </g>
     <g id="text_12">
      <!-- Mar -->
      <g transform="translate(632.296743 329.598437)scale(0.1 -0.1)">
       <use xlink:href="#DejaVuSans-77"/>
       <use x="86.279297" xlink:href="#DejaVuSans-97"/>
       <use x="147.558594" xlink:href="#DejaVuSans-114"/>
      </g>
     </g>
    </g>
    <g id="xtick_14">
     <g id="line2d_14">
      <g>
       <use style="stroke:#000000;stroke-width:0.8;" x="648" xlink:href="#m7e625aaff6" y="315"/>
      </g>
     </g>
    </g>
    <g id="xtick_15">
     <g id="line2d_15">
      <defs>
       <path d="M 0 0 
L 0 2 
" id="md5fc94369d" style="stroke:#000000;stroke-width:0.6;"/>
      </defs>
      <g>
       <use style="stroke:#000000;stroke-width:0.6;" x="93.134831" xlink:href="#md5fc94369d" y="315"/>
      </g>
     </g>
    </g>
    <g id="xtick_16">
     <g id="line2d_16">
      <g>
       <use style="stroke:#000000;stroke-width:0.6;" x="104.106742" xlink:href="#md5fc94369d" y="315"/>
      </g>
     </g>
    </g>
    <g id="xtick_17">
     <g id="line2d_17">
      <g>
       <use style="stroke:#000000;stroke-width:0.6;" x="115.078652" xlink:href="#md5fc94369d" y="315"/>
      </g>
     </g>
    </g>
    <g id="xtick_18">
     <g id="line2d_18">
      <g>
       <use style="stroke:#000000;stroke-width:0.6;" x="126.050562" xlink:href="#md5fc94369d" y="315"/>
      </g>
     </g>
    </g>
    <g id="xtick_19">
     <g id="line2d_19">
      <g>
       <use style="stroke:#000000;stroke-width:0.6;" x="137.022472" xlink:href="#md5fc94369d" y="315"/>
      </g>
     </g>
    </g>
    <g id="xtick_20">
     <g id="line2d_20">
      <g>
       <use style="stroke:#000000;stroke-width:0.6;" x="147.994382" xlink:href="#md5fc94369d" y="315"/>
      </g>
     </g>
    </g>
    <g id="xtick_21">
     <g id="line2d_21">
      <g>
       <use style="stroke:#000000;stroke-width:0.6;" x="158.966292" xlink:href="#md5fc94369d" y="315"/>
      </g>
     </g>
    </g>
    <g id="xtick_22">
     <g id="line2d_22">
      <g>
       <use style="stroke:#000000;stroke-width:0.6;" x="169.938202" xlink:href="#md5fc94369d" y="315"/>
      </g>
     </g>
    </g>
    <g id="xtick_23">
     <g id="line2d_23">
      <g>
       <use style="stroke:#000000;stroke-width:0.6;" x="180.910112" xlink:href="#md5fc94369d" y="315"/>
      </g>
     </g>
    </g>
    <g id="xtick_24">
     <g id="line2d_24">
      <g>
       <use style="stroke:#000000;stroke-width:0.6;" x="191.882022" xlink:href="#md5fc94369d" y="315"/>
      </g>
     </g>
    </g>
    <g id="xtick_25">
     <g id="line2d_25">
      <g>
       <use style="stroke:#000000;stroke-width:0.6;" x="202.853933" xlink:href="#md5fc94369d" y="315"/>
      </g>
     </g>
    </g>
    <g id="xtick_26">
     <g id="line2d_26">
      <g>
       <use style="stroke:#000000;stroke-width:0.6;" x="224.797753" xlink:href="#md5fc94369d" y="315"/>
      </g>
     </g>
    </g>
    <g id="xtick_27">
     <g id="line2d_27">
      <g>
       <use style="stroke:#000000;stroke-width:0.6;" x="235.769663" xlink:href="#md5fc94369d" y="315"/>
      </g>
     </g>
    </g>
    <g id="xtick_28">
     <g id="line2d_28">
      <g>
       <use style="stroke:#000000;stroke-width:0.6;" x="246.741573" xlink:href="#md5fc94369d" y="315"/>
      </g>
     </g>
    </g>
    <g id="xtick_29">
     <g id="line2d_29">
      <g>
       <use style="stroke:#000000;stroke-width:0.6;" x="257.713483" xlink:href="#md5fc94369d" y="315"/>
      </g>
     </g>
    </g>
    <g id="xtick_30">
     <g id="line2d_30">
      <g>
       <use style="stroke:#000000;stroke-width:0.6;" x="268.685393" xlink:href="#md5fc94369d" y="315"/>
      </g>
     </g>
    </g>
    <g id="xtick_31">
     <g id="line2d_31">
      <g>
       <use style="stroke:#000000;stroke-width:0.6;" x="279.657303" xlink:href="#md5fc94369d" y="315"/>
      </g>
     </g>
    </g>
    <g id="xtick_32">
     <g id="line2d_32">
      <g>
       <use style="stroke:#000000;stroke-width:0.6;" x="290.629213" xlink:href="#md5fc94369d" y="315"/>
      </g>
     </g>
    </g>
    <g id="xtick_33">
     <g id="line2d_33">
      <g>
       <use style="stroke:#000000;stroke-width:0.6;" x="301.601124" xlink:href="#md5fc94369d" y="315"/>
      </g>
     </g>
    </g>
    <g id="xtick_34">
     <g id="line2d_34">
      <g>
       <use style="stroke:#000000;stroke-width:0.6;" x="312.573034" xlink:href="#md5fc94369d" y="315"/>
      </g>
     </g>
    </g>
    <g id="xtick_35">
     <g id="line2d_35">
      <g>
       <use style="stroke:#000000;stroke-width:0.6;" x="323.544944" xlink:href="#md5fc94369d" y="315"/>
      </g>
     </g>
    </g>
    <g id="xtick_36">
     <g id="line2d_36">
      <g>
       <use style="stroke:#000000;stroke-width:0.6;" x="334.516854" xlink:href="#md5fc94369d" y="315"/>
      </g>
     </g>
    </g>
    <g id="xtick_37">
     <g id="line2d_37">
      <g>
       <use style="stroke:#000000;stroke-width:0.6;" x="345.488764" xlink:href="#md5fc94369d" y="315"/>
      </g>
     </g>
    </g>
    <g id="xtick_38">
     <g id="line2d_38">
      <g>
       <use style="stroke:#000000;stroke-width:0.6;" x="356.460674" xlink:href="#md5fc94369d" y="315"/>
      </g>
     </g>
    </g>
    <g id="xtick_39">
     <g id="line2d_39">
      <g>
       <use style="stroke:#000000;stroke-width:0.6;" x="367.432584" xlink:href="#md5fc94369d" y="315"/>
      </g>
     </g>
    </g>
    <g id="xtick_40">
     <g id="line2d_40">
      <g>
       <use style="stroke:#000000;stroke-width:0.6;" x="378.404494" xlink:href="#md5fc94369d" y="315"/>
      </g>
     </g>
    </g>
    <g id="xtick_41">
     <g id="line2d_41">
      <g>
       <use style="stroke:#000000;stroke-width:0.6;" x="389.376404" xlink:href="#md5fc94369d" y="315"/>
      </g>
     </g>
    </g>
    <g id="xtick_42">
     <g id="line2d_42">
      <g>
       <use style="stroke:#000000;stroke-width:0.6;" x="400.348315" xlink:href="#md5fc94369d" y="315"/>
      </g>
     </g>
    </g>
    <g id="xtick_43">
     <g id="line2d_43">
      <g>
       <use style="stroke:#000000;stroke-width:0.6;" x="411.320225" xlink:href="#md5fc94369d" y="315"/>
      </g>
     </g>
    </g>
    <g id="xtick_44">
     <g id="line2d_44">
      <g>
       <use style="stroke:#000000;stroke-width:0.6;" x="422.292135" xlink:href="#md5fc94369d" y="315"/>
      </g>
     </g>
    </g>
    <g id="xtick_45">
     <g id="line2d_45">
      <g>
       <use style="stroke:#000000;stroke-width:0.6;" x="433.264045" xlink:href="#md5fc94369d" y="315"/>
      </g>
     </g>
    </g>
    <g id="xtick_46">
     <g id="line2d_46">
      <g>
       <use style="stroke:#000000;stroke-width:0.6;" x="444.235955" xlink:href="#md5fc94369d" y="315"/>
      </g>
     </g>
    </g>
    <g id="xtick_47">
     <g id="line2d_47">
      <g>
       <use style="stroke:#000000;stroke-width:0.6;" x="455.207865" xlink:href="#md5fc94369d" y="315"/>
      </g>
     </g>
    </g>
    <g id="xtick_48">
     <g id="line2d_48">
      <g>
       <use style="stroke:#000000;stroke-width:0.6;" x="466.179775" xlink:href="#md5fc94369d" y="315"/>
      </g>
     </g>
    </g>
    <g id="xtick_49">
     <g id="line2d_49">
      <g>
       <use style="stroke:#000000;stroke-width:0.6;" x="477.151685" xlink:href="#md5fc94369d" y="315"/>
      </g>
     </g>
    </g>
    <g id="xtick_50">
     <g id="line2d_50">
      <g>
       <use style="stroke:#000000;stroke-width:0.6;" x="488.123596" xlink:href="#md5fc94369d" y="315"/>
      </g>
     </g>
    </g>
    <g id="xtick_51">
     <g id="line2d_51">
      <g>
       <use style="stroke:#000000;stroke-width:0.6;" x="499.095506" xlink:href="#md5fc94369d" y="315"/>
      </g>
     </g>
    </g>
    <g id="xtick_52">
     <g id="line2d_52">
      <g>
       <use style="stroke:#000000;stroke-width:0.6;" x="510.067416" xlink:href="#md5fc94369d" y="315"/>
      </g>
     </g>
    </g>
    <g id="xtick_53">
     <g id="line2d_53">
      <g>
       <use style="stroke:#000000;stroke-width:0.6;" x="521.039326" xlink:href="#md5fc94369d" y="315"/>
      </g>
     </g>
    </g>
    <g id="xtick_54">
     <g id="line2d_54">
      <g>
       <use style="stroke:#000000;stroke-width:0.6;" x="532.011236" xlink:href="#md5fc94369d" y="315"/>
      </g>
     </g>
    </g>
    <g id="xtick_55">
     <g id="line2d_55">
      <g>
       <use style="stroke:#000000;stroke-width:0.6;" x="542.983146" xlink:href="#md5fc94369d" y="315"/>
      </g>
     </g>
    </g>
    <g id="xtick_56">
     <g id="line2d_56">
      <g>
       <use style="stroke:#000000;stroke-width:0.6;" x="553.955056" xlink:href="#md5fc94369d" y="315"/>
      </g>
     </g>
    </g>
    <g id="xtick_57">
     <g id="line2d_57">
      <g>
       <use style="stroke:#000000;stroke-width:0.6;" x="564.926966" xlink:href="#md5fc94369d" y="315"/>
      </g>
     </g>
    </g>
    <g id="xtick_58">
     <g id="line2d_58">
      <g>
       <use style="stroke:#000000;stroke-width:0.6;" x="575.898876" xlink:href="#md5fc94369d" y="315"/>
      </g>
     </g>
    </g>
    <g id="xtick_59">
     <g id="line2d_59">
      <g>
       <use style="stroke:#000000;stroke-width:0.6;" x="586.870787" xlink:href="#md5fc94369d" y="315"/>
      </g>
     </g>
    </g>
    <g id="xtick_60">
     <g id="line2d_60">
      <g>
       <use style="stroke:#000000;stroke-width:0.6;" x="608.814607" xlink:href="#md5fc94369d" y="315"/>
      </g>
     </g>
    </g>
    <g id="xtick_61">
     <g id="line2d_61">
      <g>
       <use style="stroke:#000000;stroke-width:0.6;" x="619.786517" xlink:href="#md5fc94369d" y="315"/>
      </g>
     </g>
    </g>
    <g id="xtick_62">
     <g id="line2d_62">
      <g>
       <use style="stroke:#000000;stroke-width:0.6;" x="630.758427" xlink:href="#md5fc94369d" y="315"/>
      </g>
     </g>
    </g>
    <g id="text_13">
     <!-- date -->
     <g transform="translate(357.725 354.474375)scale(0.1 -0.1)">
      <defs>
       <path d="M 45.40625 46.390625 
L 45.40625 75.984375 
L 54.390625 75.984375 
L 54.390625 0 
L 45.40625 0 
L 45.40625 8.203125 
Q 42.578125 3.328125 38.25 0.953125 
Q 33.9375 -1.421875 27.875 -1.421875 
Q 17.96875 -1.421875 11.734375 6.484375 
Q 5.515625 14.40625 5.515625 27.296875 
Q 5.515625 40.1875 11.734375 48.09375 
Q 17.96875 56 27.875 56 
Q 33.9375 56 38.25 53.625 
Q 42.578125 51.265625 45.40625 46.390625 
z
M 14.796875 27.296875 
Q 14.796875 17.390625 18.875 11.75 
Q 22.953125 6.109375 30.078125 6.109375 
Q 37.203125 6.109375 41.296875 11.75 
Q 45.40625 17.390625 45.40625 27.296875 
Q 45.40625 37.203125 41.296875 42.84375 
Q 37.203125 48.484375 30.078125 48.484375 
Q 22.953125 48.484375 18.875 42.84375 
Q 14.796875 37.203125 14.796875 27.296875 
z
" id="DejaVuSans-100"/>
      </defs>
      <use xlink:href="#DejaVuSans-100"/>
      <use x="63.476562" xlink:href="#DejaVuSans-97"/>
      <use x="124.755859" xlink:href="#DejaVuSans-116"/>
      <use x="163.964844" xlink:href="#DejaVuSans-101"/>
     </g>
    </g>
   </g>
   <g id="matplotlib.axis_2">
    <g id="ytick_1">
     <g id="line2d_63">
      <defs>
       <path d="M 0 0 
L -3.5 0 
" id="m40f8e07743" style="stroke:#000000;stroke-width:0.8;"/>
      </defs>
      <g>
       <use style="stroke:#000000;stroke-width:0.8;" x="90" xlink:href="#m40f8e07743" y="232.9144"/>
      </g>
     </g>
     <g id="text_14">
      <!-- $\mathdefault{10^{0}}$ -->
      <g transform="translate(65.4 236.713619)scale(0.1 -0.1)">
       <use transform="translate(0 0.765625)" xlink:href="#DejaVuSans-49"/>
       <use transform="translate(63.623047 0.765625)" xlink:href="#DejaVuSans-48"/>
       <use transform="translate(128.203125 39.046875)scale(0.7)" xlink:href="#DejaVuSans-48"/>
      </g>
     </g>
    </g>
    <g id="ytick_2">
     <g id="line2d_64">
      <g>
       <use style="stroke:#000000;stroke-width:0.8;" x="90" xlink:href="#m40f8e07743" y="150.391472"/>
      </g>
     </g>
     <g id="text_15">
      <!-- $\mathdefault{10^{1}}$ -->
      <g transform="translate(65.4 154.190691)scale(0.1 -0.1)">
       <use transform="translate(0 0.684375)" xlink:href="#DejaVuSans-49"/>
       <use transform="translate(63.623047 0.684375)" xlink:href="#DejaVuSans-48"/>
       <use transform="translate(128.203125 38.965625)scale(0.7)" xlink:href="#DejaVuSans-49"/>
      </g>
     </g>
    </g>
    <g id="ytick_3">
     <g id="line2d_65">
      <g>
       <use style="stroke:#000000;stroke-width:0.8;" x="90" xlink:href="#m40f8e07743" y="67.868544"/>
      </g>
     </g>
     <g id="text_16">
      <!-- $\mathdefault{10^{2}}$ -->
      <g transform="translate(65.4 71.667762)scale(0.1 -0.1)">
       <use transform="translate(0 0.765625)" xlink:href="#DejaVuSans-49"/>
       <use transform="translate(63.623047 0.765625)" xlink:href="#DejaVuSans-48"/>
       <use transform="translate(128.203125 39.046875)scale(0.7)" xlink:href="#DejaVuSans-50"/>
      </g>
     </g>
    </g>
    <g id="ytick_4">
     <g id="line2d_66">
      <defs>
       <path d="M 0 0 
L -2 0 
" id="m734edb92d8" style="stroke:#000000;stroke-width:0.6;"/>
      </defs>
      <g>
       <use style="stroke:#000000;stroke-width:0.6;" x="90" xlink:href="#m734edb92d8" y="290.595451"/>
      </g>
     </g>
    </g>
    <g id="ytick_5">
     <g id="line2d_67">
      <g>
       <use style="stroke:#000000;stroke-width:0.6;" x="90" xlink:href="#m734edb92d8" y="276.063885"/>
      </g>
     </g>
    </g>
    <g id="ytick_6">
     <g id="line2d_68">
      <g>
       <use style="stroke:#000000;stroke-width:0.6;" x="90" xlink:href="#m734edb92d8" y="265.753575"/>
      </g>
     </g>
    </g>
    <g id="ytick_7">
     <g id="line2d_69">
      <g>
       <use style="stroke:#000000;stroke-width:0.6;" x="90" xlink:href="#m734edb92d8" y="257.756277"/>
      </g>
     </g>
    </g>
    <g id="ytick_8">
     <g id="line2d_70">
      <g>
       <use style="stroke:#000000;stroke-width:0.6;" x="90" xlink:href="#m734edb92d8" y="251.222008"/>
      </g>
     </g>
    </g>
    <g id="ytick_9">
     <g id="line2d_71">
      <g>
       <use style="stroke:#000000;stroke-width:0.6;" x="90" xlink:href="#m734edb92d8" y="245.697363"/>
      </g>
     </g>
    </g>
    <g id="ytick_10">
     <g id="line2d_72">
      <g>
       <use style="stroke:#000000;stroke-width:0.6;" x="90" xlink:href="#m734edb92d8" y="240.911698"/>
      </g>
     </g>
    </g>
    <g id="ytick_11">
     <g id="line2d_73">
      <g>
       <use style="stroke:#000000;stroke-width:0.6;" x="90" xlink:href="#m734edb92d8" y="236.690442"/>
      </g>
     </g>
    </g>
    <g id="ytick_12">
     <g id="line2d_74">
      <g>
       <use style="stroke:#000000;stroke-width:0.6;" x="90" xlink:href="#m734edb92d8" y="208.072523"/>
      </g>
     </g>
    </g>
    <g id="ytick_13">
     <g id="line2d_75">
      <g>
       <use style="stroke:#000000;stroke-width:0.6;" x="90" xlink:href="#m734edb92d8" y="193.540957"/>
      </g>
     </g>
    </g>
    <g id="ytick_14">
     <g id="line2d_76">
      <g>
       <use style="stroke:#000000;stroke-width:0.6;" x="90" xlink:href="#m734edb92d8" y="183.230647"/>
      </g>
     </g>
    </g>
    <g id="ytick_15">
     <g id="line2d_77">
      <g>
       <use style="stroke:#000000;stroke-width:0.6;" x="90" xlink:href="#m734edb92d8" y="175.233348"/>
      </g>
     </g>
    </g>
    <g id="ytick_16">
     <g id="line2d_78">
      <g>
       <use style="stroke:#000000;stroke-width:0.6;" x="90" xlink:href="#m734edb92d8" y="168.69908"/>
      </g>
     </g>
    </g>
    <g id="ytick_17">
     <g id="line2d_79">
      <g>
       <use style="stroke:#000000;stroke-width:0.6;" x="90" xlink:href="#m734edb92d8" y="163.174435"/>
      </g>
     </g>
    </g>
    <g id="ytick_18">
     <g id="line2d_80">
      <g>
       <use style="stroke:#000000;stroke-width:0.6;" x="90" xlink:href="#m734edb92d8" y="158.38877"/>
      </g>
     </g>
    </g>
    <g id="ytick_19">
     <g id="line2d_81">
      <g>
       <use style="stroke:#000000;stroke-width:0.6;" x="90" xlink:href="#m734edb92d8" y="154.167514"/>
      </g>
     </g>
    </g>
    <g id="ytick_20">
     <g id="line2d_82">
      <g>
       <use style="stroke:#000000;stroke-width:0.6;" x="90" xlink:href="#m734edb92d8" y="125.549595"/>
      </g>
     </g>
    </g>
    <g id="ytick_21">
     <g id="line2d_83">
      <g>
       <use style="stroke:#000000;stroke-width:0.6;" x="90" xlink:href="#m734edb92d8" y="111.018029"/>
      </g>
     </g>
    </g>
    <g id="ytick_22">
     <g id="line2d_84">
      <g>
       <use style="stroke:#000000;stroke-width:0.6;" x="90" xlink:href="#m734edb92d8" y="100.707718"/>
      </g>
     </g>
    </g>
    <g id="ytick_23">
     <g id="line2d_85">
      <g>
       <use style="stroke:#000000;stroke-width:0.6;" x="90" xlink:href="#m734edb92d8" y="92.71042"/>
      </g>
     </g>
    </g>
    <g id="ytick_24">
     <g id="line2d_86">
      <g>
       <use style="stroke:#000000;stroke-width:0.6;" x="90" xlink:href="#m734edb92d8" y="86.176152"/>
      </g>
     </g>
    </g>
    <g id="ytick_25">
     <g id="line2d_87">
      <g>
       <use style="stroke:#000000;stroke-width:0.6;" x="90" xlink:href="#m734edb92d8" y="80.651507"/>
      </g>
     </g>
    </g>
    <g id="ytick_26">
     <g id="line2d_88">
      <g>
       <use style="stroke:#000000;stroke-width:0.6;" x="90" xlink:href="#m734edb92d8" y="75.865842"/>
      </g>
     </g>
    </g>
    <g id="ytick_27">
     <g id="line2d_89">
      <g>
       <use style="stroke:#000000;stroke-width:0.6;" x="90" xlink:href="#m734edb92d8" y="71.644586"/>
      </g>
     </g>
    </g>
   </g>
   <g id="line2d_90">
    <path clip-path="url(#p60054cbd3a)" d="M 94.69846 361 
L 94.702247 161.458518 
L 96.269663 145.787282 
L 97.837079 140.430422 
L 100.97191 136.895097 
L 102.539326 137.256181 
L 104.106742 136.014217 
L 105.674157 138.426178 
L 107.241573 140.392923 
L 108.808989 141.15189 
L 110.376404 144.184677 
L 111.94382 146.473728 
L 113.511236 149.210458 
L 115.078652 150.565152 
L 118.213483 157.151578 
L 122.91573 166.293804 
L 124.483146 168.927189 
L 126.050562 172.088645 
L 129.185393 179.401516 
L 130.752809 182.476708 
L 133.88764 189.013779 
L 135.455056 192.898079 
L 137.022472 196.208224 
L 138.589888 199.792311 
L 140.157303 202.970184 
L 141.724719 206.635182 
L 143.292135 209.894261 
L 144.859551 213.572443 
L 146.426966 216.961328 
L 147.994382 220.7516 
L 151.129213 227.644057 
L 152.696629 230.315975 
L 154.264045 234.457155 
L 157.398876 241.640621 
L 158.966292 244.428737 
L 160.533708 248.32586 
L 165.235955 258.315552 
L 166.803371 260.869977 
L 168.370787 264.218712 
L 171.505618 270.119771 
L 173.073034 271.696168 
L 174.640449 275.044707 
L 176.207865 277.721669 
L 177.775281 279.615303 
L 179.342697 282.686929 
L 182.477528 285.070747 
L 184.044944 286.334852 
L 185.61236 288.273835 
L 187.179775 287.55489 
L 188.747191 291.671624 
L 190.314607 292.165494 
L 193.449438 292.767784 
L 195.016854 292.774287 
L 196.58427 292.451959 
L 198.151685 291.791654 
L 199.719101 290.79387 
L 201.286517 289.458753 
L 202.853933 287.784344 
L 204.421348 285.771525 
L 205.988764 283.421535 
L 207.55618 280.742444 
L 209.123596 277.748614 
L 210.691011 274.457118 
L 213.825843 267.057804 
L 216.960674 258.703265 
L 220.095506 249.604814 
L 224.797753 235.040908 
L 235.769663 199.709842 
L 242.039326 179.799065 
L 246.741573 165.458001 
L 251.44382 151.97533 
L 254.578652 143.610066 
L 257.713483 135.869402 
L 260.848315 128.902982 
L 262.41573 125.76093 
L 263.983146 122.872662 
L 265.550562 120.254488 
L 267.117978 117.918527 
L 268.685393 115.873261 
L 270.252809 114.122324 
L 271.820225 112.662737 
L 273.38764 111.486848 
L 274.955056 110.583102 
L 276.522472 109.936761 
L 278.089888 109.531604 
L 279.657303 109.350898 
L 281.224719 109.377328 
L 282.792135 109.59289 
L 284.359551 109.979868 
L 285.926966 110.521299 
L 289.061798 111.999188 
L 292.196629 113.884568 
L 296.898876 117.162771 
L 301.601124 120.527589 
L 304.735955 122.54945 
L 307.870787 124.224822 
L 309.438202 124.8989 
L 311.005618 125.45145 
L 312.573034 125.876896 
L 314.140449 126.172895 
L 315.707865 126.341241 
L 317.275281 126.387201 
L 320.410112 126.140766 
L 323.544944 125.514155 
L 326.679775 124.602461 
L 329.814607 123.48041 
L 332.949438 122.171739 
L 336.08427 120.65967 
L 339.219101 118.906528 
L 342.353933 116.873832 
L 345.488764 114.548346 
L 348.623596 111.955669 
L 351.758427 109.123771 
L 356.460674 104.491047 
L 361.162921 99.468131 
L 365.865169 94.117356 
L 376.837079 81.389084 
L 379.97191 78.238588 
L 381.539326 76.854811 
L 383.106742 75.628172 
L 384.674157 74.579961 
L 386.241573 73.729959 
L 387.808989 73.095334 
L 389.376404 72.689317 
L 390.94382 72.520645 
L 392.511236 72.594238 
L 394.078652 72.910306 
L 395.646067 73.465314 
L 397.213483 74.254258 
L 398.780899 75.270671 
L 400.348315 76.505424 
L 401.91573 77.947409 
L 403.483146 79.584693 
L 406.617978 83.393723 
L 409.752809 87.825461 
L 412.88764 92.766442 
L 416.022472 98.093873 
L 420.724719 106.548352 
L 431.696629 126.631074 
L 436.398876 134.742448 
L 439.533708 139.82892 
L 442.668539 144.585418 
L 445.803371 148.934341 
L 448.938202 152.781124 
L 452.073034 156.028454 
L 453.640449 157.395927 
L 455.207865 158.5779 
L 456.775281 159.565798 
L 458.342697 160.352445 
L 459.910112 160.932992 
L 461.477528 161.306168 
L 463.044944 161.472736 
L 464.61236 161.433034 
L 466.179775 161.189285 
L 467.747191 160.748173 
L 469.314607 160.119184 
L 470.882022 159.31194 
L 472.449438 158.336068 
L 474.016854 157.201342 
L 477.151685 154.493406 
L 480.286517 151.261566 
L 483.421348 147.573584 
L 486.55618 143.502105 
L 491.258427 136.884276 
L 503.797753 118.642951 
L 506.932584 114.486691 
L 510.067416 110.638794 
L 513.202247 107.118945 
L 516.337079 103.920515 
L 519.47191 100.993287 
L 524.174157 96.955888 
L 533.578652 89.091365 
L 538.280899 84.781025 
L 547.685393 75.792331 
L 550.820225 73.11889 
L 553.955056 70.813508 
L 557.089888 68.960559 
L 558.657303 68.223324 
L 560.224719 67.616828 
L 561.792135 67.14082 
L 563.359551 66.792901 
L 564.926966 66.570202 
L 566.494382 66.46971 
L 569.629213 66.609174 
L 572.764045 67.131163 
L 575.898876 67.936111 
L 580.601124 69.442035 
L 594.707865 74.331673 
L 599.410112 76.231812 
L 602.544944 77.704726 
L 607.247191 80.206349 
L 616.651685 85.446027 
L 619.786517 86.906754 
L 622.921348 88.052095 
L 626.05618 88.806126 
L 629.191011 89.135074 
L 632.325843 89.02544 
L 635.460674 88.477264 
L 638.595506 87.523602 
L 641.730337 86.202655 
L 644.865169 84.543977 
L 648 82.579973 
L 648 82.579973 
" style="fill:none;stroke:#008000;stroke-linecap:square;stroke-width:1.5;"/>
   </g>
   <g id="line2d_91">
    <path clip-path="url(#p60054cbd3a)" d="M 90 64.603701 
L 91.567416 259.818281 
L 93.134831 164.798986 
L 94.702247 142.039141 
L 96.269663 140.955696 
L 99.404494 149.527277 
L 102.539326 156.311379 
L 107.241573 166.342086 
L 113.511236 180.219362 
L 118.213483 191.152429 
L 119.780899 194.89701 
L 121.348315 199.358247 
L 124.483146 206.998495 
L 130.752809 223.453769 
L 138.589888 243.928804 
L 143.292135 255.648716 
L 146.426966 263.018134 
L 149.561798 269.928741 
L 152.696629 276.312734 
L 155.831461 282.206212 
L 158.966292 287.478995 
L 162.101124 292.017108 
L 165.235955 295.828822 
L 166.803371 297.453193 
L 168.370787 298.868618 
L 169.938202 300.069247 
L 171.505618 301.049916 
L 173.073034 301.801127 
L 174.640449 302.317712 
L 176.207865 302.598147 
L 177.775281 302.645455 
L 179.342697 302.448665 
L 180.910112 301.993466 
L 182.477528 301.27131 
L 184.044944 300.281086 
L 185.61236 299.02513 
L 187.179775 297.505484 
L 188.747191 295.695856 
L 190.314607 293.600358 
L 191.882022 291.242605 
L 193.449438 288.622433 
L 195.016854 285.745389 
L 196.58427 282.616015 
L 199.719101 275.563062 
L 202.853933 267.532587 
L 205.988764 258.75296 
L 209.123596 249.303118 
L 213.825843 234.25737 
L 229.5 183.181469 
L 235.769663 163.60211 
L 240.47191 149.822552 
L 243.606742 141.28982 
L 246.741573 133.365411 
L 249.876404 126.139325 
L 251.44382 122.876532 
L 253.011236 119.887018 
L 254.578652 117.188877 
L 256.146067 114.820834 
L 257.713483 112.803657 
L 259.280899 111.155353 
L 260.848315 109.874283 
L 262.41573 108.953972 
L 263.983146 108.393756 
L 265.550562 108.16545 
L 267.117978 108.221251 
L 268.685393 108.536785 
L 270.252809 109.075746 
L 271.820225 109.802679 
L 273.38764 110.697397 
L 276.522472 112.911659 
L 279.657303 115.509704 
L 290.629213 125.283583 
L 292.196629 126.469908 
L 293.764045 127.515332 
L 295.331461 128.399055 
L 296.898876 129.119586 
L 298.466292 129.673235 
L 300.033708 130.047273 
L 301.601124 130.245105 
L 303.168539 130.293467 
L 304.735955 130.195258 
L 306.303371 129.950778 
L 309.438202 129.104826 
L 312.573034 127.930613 
L 317.275281 125.801694 
L 323.544944 122.768228 
L 326.679775 121.038865 
L 329.814607 119.022084 
L 332.949438 116.671986 
L 336.08427 113.97141 
L 340.786517 109.420782 
L 345.488764 104.518499 
L 350.191011 99.288196 
L 354.893258 93.77199 
L 367.432584 78.720012 
L 370.567416 75.615905 
L 372.134831 74.325209 
L 373.702247 73.27203 
L 375.269663 72.473355 
L 376.837079 71.931446 
L 378.404494 71.674926 
L 379.97191 71.732354 
L 381.539326 72.119483 
L 383.106742 72.838469 
L 384.674157 73.877829 
L 386.241573 75.222397 
L 387.808989 76.858878 
L 389.376404 78.750296 
L 390.94382 80.875292 
L 392.511236 83.237648 
L 395.646067 88.565821 
L 398.780899 94.506545 
L 403.483146 104.208805 
L 414.455056 127.572336 
L 419.157303 136.845996 
L 422.292135 142.630161 
L 425.426966 148.023098 
L 428.561798 152.981232 
L 431.696629 157.433638 
L 434.831461 161.30019 
L 436.398876 162.971118 
L 437.966292 164.453077 
L 439.533708 165.725146 
L 441.101124 166.759216 
L 442.668539 167.565191 
L 444.235955 168.165762 
L 445.803371 168.536797 
L 447.370787 168.6647 
L 448.938202 168.567194 
L 450.505618 168.265607 
L 452.073034 167.76665 
L 453.640449 167.069897 
L 455.207865 166.201126 
L 456.775281 165.185437 
L 458.342697 164.014708 
L 461.477528 161.181685 
L 464.61236 157.917936 
L 467.747191 154.256871 
L 470.882022 150.236936 
L 474.016854 145.900243 
L 478.719101 138.890822 
L 491.258427 119.612966 
L 494.393258 115.192193 
L 497.52809 111.147668 
L 500.662921 107.524697 
L 503.797753 104.303589 
L 506.932584 101.435478 
L 510.067416 98.888679 
L 522.606742 89.095929 
L 525.741573 86.306428 
L 528.876404 83.222029 
L 536.713483 75.192481 
L 539.848315 72.372746 
L 541.41573 71.131769 
L 542.983146 70.035902 
L 544.550562 69.094791 
L 546.117978 68.305927 
L 547.685393 67.672022 
L 549.252809 67.193548 
L 550.820225 66.882263 
L 552.38764 66.744257 
L 553.955056 66.760173 
L 555.522472 66.910514 
L 558.657303 67.561812 
L 561.792135 68.668298 
L 568.061798 71.505098 
L 572.764045 73.553368 
L 577.466292 75.273487 
L 585.303371 77.977897 
L 588.438202 79.336549 
L 591.573034 80.968071 
L 594.707865 82.909885 
L 604.11236 89.077911 
L 607.247191 90.744704 
L 610.382022 91.987197 
L 611.949438 92.415788 
L 613.516854 92.711826 
L 615.08427 92.872555 
L 616.651685 92.876475 
L 619.786517 92.500246 
L 622.921348 91.711886 
L 626.05618 90.513252 
L 629.191011 88.892795 
L 632.325843 87.01276 
L 635.460674 84.882432 
L 638.595506 82.46906 
L 641.730337 79.851053 
L 644.865169 76.924705 
L 648 73.555303 
L 648 73.555303 
" style="fill:none;stroke:#0000ff;stroke-linecap:square;stroke-width:1.5;"/>
   </g>
   <g id="line2d_92">
    <path clip-path="url(#p60054cbd3a)" d="M 105.671254 361 
L 105.674157 208.072523 
L 107.241573 154.167514 
L 108.808989 123.800992 
L 110.376404 154.167514 
L 111.94382 133.546893 
L 113.511236 140.988533 
L 115.078652 183.230647 
L 116.646067 138.332558 
L 118.213483 150.391472 
L 119.780899 175.233348 
L 121.348315 193.540957 
L 122.91573 183.230647 
L 124.483146 175.233348 
L 126.050562 163.174435 
L 127.617978 183.230647 
L 129.185393 183.230647 
L 130.752809 193.540957 
L 132.320225 175.233348 
L 133.88764 135.859905 
L 135.455056 175.233348 
L 137.022472 193.540957 
L 138.589888 232.9144 
L 140.157303 232.9144 
L 141.724719 183.230647 
L 141.728094 361 
M 144.856647 361 
L 144.859551 208.072523 
L 146.426966 208.072523 
L 147.994382 232.9144 
L 149.561798 193.540957 
L 149.564977 361 
M 154.261612 361 
L 154.264045 232.9144 
L 157.398876 232.9144 
L 157.401309 361 
M 163.666107 361 
L 163.668539 232.9144 
L 165.235955 232.9144 
L 165.238388 361 
M 173.070601 361 
L 173.073034 232.9144 
L 173.075467 361 
M 177.772848 361 
L 177.775281 232.9144 
L 177.777714 361 
M 193.447005 361 
L 193.449438 232.9144 
L 193.451871 361 
M 218.525657 361 
L 218.52809 232.9144 
L 218.530523 361 
M 223.227158 361 
L 223.230337 193.540957 
L 224.797753 208.072523 
L 227.932584 208.072523 
L 229.5 232.9144 
L 231.067416 193.540957 
L 232.634831 208.072523 
L 234.202247 232.9144 
L 237.337079 183.230647 
L 237.340453 361 
M 240.468536 361 
L 240.47191 183.230647 
L 242.039326 168.69908 
L 243.606742 232.9144 
L 245.174157 175.233348 
L 246.741573 158.38877 
L 248.308989 131.374152 
L 249.876404 163.174435 
L 251.44382 163.174435 
L 253.011236 158.38877 
L 254.578652 154.167514 
L 256.146067 143.857203 
L 257.713483 143.857203 
L 259.280899 138.332558 
L 260.848315 150.391472 
L 262.41573 133.546893 
L 263.983146 122.133749 
L 265.550562 123.800992 
L 267.117978 94.17345 
L 268.685393 122.133749 
L 270.252809 83.307481 
L 271.820225 123.800992 
L 273.38764 101.61509 
L 274.955056 96.486462 
L 276.522472 129.325637 
L 278.089888 119.015327 
L 279.657303 104.48376 
L 281.224719 104.48376 
L 282.792135 111.018029 
L 284.359551 109.842866 
L 285.926966 119.015327 
L 287.494382 119.015327 
L 289.061798 120.540632 
L 290.629213 108.705016 
L 292.196629 105.493384 
L 293.764045 97.291873 
L 295.331461 114.794071 
L 296.898876 119.015327 
L 298.466292 158.38877 
L 300.033708 131.374152 
L 301.601124 108.705016 
L 303.168539 117.552297 
L 304.735955 119.015327 
L 306.303371 114.794071 
L 307.870787 131.374152 
L 309.438202 193.540957 
L 311.005618 143.857203 
L 312.573034 146.975626 
L 314.140449 127.387908 
L 315.707865 122.133749 
L 317.275281 123.800992 
L 318.842697 129.325637 
L 320.410112 150.391472 
L 321.977528 135.859905 
L 323.544944 113.490682 
L 325.11236 116.146656 
L 326.679775 107.602183 
L 328.247191 103.501802 
L 329.814607 120.540632 
L 331.382022 120.540632 
L 332.949438 131.374152 
L 334.516854 116.146656 
L 336.08427 123.800992 
L 337.651685 140.988533 
L 339.219101 129.325637 
L 340.786517 120.540632 
L 342.353933 125.549595 
L 343.921348 129.325637 
L 345.488764 123.800992 
L 347.05618 106.532275 
L 348.623596 99.822754 
L 350.191011 89.952194 
L 351.758427 109.842866 
L 353.325843 140.988533 
L 354.893258 131.374152 
L 356.460674 89.952194 
L 358.02809 93.43447 
L 359.595506 95.698755 
L 361.162921 99.822754 
L 362.730337 89.294575 
L 364.297753 114.794071 
L 365.865169 119.015327 
L 367.432584 99.822754 
L 369 98.1158 
L 370.567416 83.86314 
L 373.702247 85.000989 
L 375.269663 88.648805 
L 376.837079 89.952194 
L 378.404494 84.427549 
L 379.97191 75.865842 
L 381.539326 93.43447 
L 383.106742 67.868544 
L 384.674157 75.865842 
L 386.241573 66.462903 
L 387.808989 81.167188 
L 389.376404 72.449996 
L 390.94382 58.742357 
L 392.511236 62.241647 
L 394.078652 59.585672 
L 395.646067 59.021263 
L 397.213483 66.462903 
L 398.780899 89.294575 
L 400.348315 146.975626 
L 401.91573 74.117239 
L 403.483146 64.779999 
L 405.050562 78.659925 
L 406.617978 68.22874 
L 408.185393 95.698755 
L 409.752809 93.43447 
L 411.320225 87.391158 
L 414.455056 86.176152 
L 416.022472 89.294575 
L 417.589888 101.61509 
L 419.157303 158.38877 
L 420.724719 111.018029 
L 422.292135 133.546893 
L 423.859551 131.374152 
L 425.426966 100.707718 
L 426.994382 111.018029 
L 428.561798 117.552297 
L 430.129213 168.69908 
L 431.696629 158.38877 
L 433.264045 143.857203 
L 434.831461 135.859905 
L 436.398876 105.493384 
L 437.966292 111.018029 
L 439.533708 127.387908 
L 441.101124 208.072523 
L 442.668539 146.975626 
L 444.235955 140.988533 
L 445.803371 163.174435 
L 447.370787 154.167514 
L 448.938202 135.859905 
L 450.505618 163.174435 
L 450.509372 361 
M 453.636389 361 
L 453.640449 146.975626 
L 455.207865 163.174435 
L 456.775281 150.391472 
L 458.342697 183.230647 
L 459.910112 154.167514 
L 461.477528 183.230647 
L 463.044944 208.072523 
L 466.179775 158.38877 
L 467.747191 150.391472 
L 469.314607 140.988533 
L 470.882022 163.174435 
L 472.449438 154.167514 
L 474.016854 232.9144 
L 475.58427 138.332558 
L 477.151685 140.988533 
L 478.719101 138.332558 
L 480.286517 163.174435 
L 481.853933 146.975626 
L 483.421348 163.174435 
L 484.988764 175.233348 
L 486.55618 131.374152 
L 488.123596 163.174435 
L 489.691011 131.374152 
L 491.258427 129.325637 
L 494.393258 129.325637 
L 495.960674 183.230647 
L 497.52809 127.387908 
L 499.095506 123.800992 
L 500.662921 140.988533 
L 502.230337 102.546032 
L 503.797753 108.705016 
L 505.365169 112.233035 
L 506.932584 140.988533 
L 508.5 114.794071 
L 510.067416 114.794071 
L 511.634831 97.291873 
L 513.202247 86.778507 
L 514.769663 101.61509 
L 516.337079 100.707718 
L 517.904494 150.391472 
L 519.47191 105.493384 
L 521.039326 95.698755 
L 522.606742 81.690399 
L 524.174157 98.1158 
L 525.741573 89.294575 
L 527.308989 111.018029 
L 528.876404 98.1158 
L 530.44382 96.486462 
L 532.011236 91.304779 
L 533.578652 92.71042 
L 535.146067 91.304779 
L 536.713483 95.698755 
L 538.280899 88.648805 
L 539.848315 98.959115 
L 541.41573 79.147541 
L 542.983146 81.167188 
L 544.550562 74.980877 
L 546.117978 75.420628 
L 547.685393 68.960179 
L 549.252809 82.22136 
L 550.820225 80.651507 
L 552.38764 73.6931 
L 553.955056 71.248568 
L 555.522472 61.634187 
L 557.089888 60.449311 
L 558.657303 57.91843 
L 560.224719 60.159113 
L 561.792135 80.14314 
L 563.359551 76.316656 
L 564.926966 68.592593 
L 566.494382 56.066543 
L 568.061798 55.554545 
L 569.629213 56.848522 
L 571.196629 65.110317 
L 572.764045 76.773213 
L 574.331461 76.316656 
L 575.898876 61.634187 
L 577.466292 62.241647 
L 579.033708 71.644586 
L 580.601124 75.420628 
L 582.168539 80.651507 
L 583.735955 111.018029 
L 585.303371 81.690399 
L 586.870787 75.420628 
L 588.438202 73.6931 
L 590.005618 65.443708 
L 591.573034 70.469423 
L 593.140449 76.773213 
L 594.707865 102.546032 
L 597.842697 56.325312 
L 599.410112 62.85958 
L 600.977528 78.178854 
L 602.544944 57.91843 
L 604.11236 72.449996 
L 605.679775 97.291873 
L 607.247191 85.000989 
L 608.814607 70.086112 
L 610.382022 71.644586 
L 611.949438 85.583754 
L 613.516854 85.583754 
L 615.08427 80.14314 
L 616.651685 109.842866 
L 618.219101 105.493384 
L 619.786517 89.294575 
L 621.353933 85.000989 
L 622.921348 86.778507 
L 624.488764 86.176152 
L 626.05618 97.291873 
L 627.623596 123.800992 
L 629.191011 102.546032 
L 630.758427 78.659925 
L 632.325843 85.000989 
L 633.893258 76.316656 
L 635.460674 91.304779 
L 637.02809 85.000989 
L 638.595506 114.794071 
L 640.162921 90.622106 
L 641.730337 82.760306 
L 643.297753 83.86314 
L 644.865169 76.316656 
L 646.432584 86.176152 
L 648 78.178854 
L 648 78.178854 
" style="fill:none;stroke:#ff0000;stroke-linecap:square;stroke-opacity:0.7;stroke-width:1.5;"/>
   </g>
   <g id="patch_3">
    <path d="M 90 315 
L 90 43.2 
" style="fill:none;stroke:#000000;stroke-linecap:square;stroke-linejoin:miter;stroke-width:0.8;"/>
   </g>
   <g id="patch_4">
    <path d="M 648 315 
L 648 43.2 
" style="fill:none;stroke:#000000;stroke-linecap:square;stroke-linejoin:miter;stroke-width:0.8;"/>
   </g>
   <g id="patch_5">
    <path d="M 90 315 
L 648 315 
" style="fill:none;stroke:#000000;stroke-linecap:square;stroke-linejoin:miter;stroke-width:0.8;"/>
   </g>
   <g id="patch_6">
    <path d="M 90 43.2 
L 648 43.2 
" style="fill:none;stroke:#000000;stroke-linecap:square;stroke-linejoin:miter;stroke-width:0.8;"/>
   </g>
   <g id="text_17">
    <!-- 421   -->
    <g transform="translate(326.626875 37.2)scale(0.12 -0.12)">
     <defs>
      <path d="M 37.796875 64.3125 
L 12.890625 25.390625 
L 37.796875 25.390625 
z
M 35.203125 72.90625 
L 47.609375 72.90625 
L 47.609375 25.390625 
L 58.015625 25.390625 
L 58.015625 17.1875 
L 47.609375 17.1875 
L 47.609375 0 
L 37.796875 0 
L 37.796875 17.1875 
L 4.890625 17.1875 
L 4.890625 26.703125 
z
" id="DejaVuSans-52"/>
      <path id="DejaVuSans-32"/>
      <path d="M 18.171875 54.6875 
L 18.171875 -20.796875 
L 9.078125 -20.796875 
L 9.078125 54.6875 
z
" id="DejaVuSans-1503"/>
      <path d="M 18.171875 54.6875 
L 18.171875 0 
L 9.078125 0 
L 9.078125 54.6875 
z
" id="DejaVuSans-1493"/>
      <path d="M 47.359375 27.828125 
L 47.359375 0 
L 38.28125 0 
L 38.28125 27.828125 
Q 38.28125 31.390625 37.765625 34.265625 
Q 37.25 37.15625 36 39.71875 
Q 34.765625 42.28125 32.8125 43.984375 
Q 30.859375 45.703125 27.78125 46.703125 
Q 24.703125 47.703125 20.703125 47.703125 
L 4.296875 47.703125 
L 4.296875 54.6875 
L 20.65625 54.6875 
Q 26.8125 54.6875 31.46875 53.390625 
Q 36.140625 52.09375 39.109375 49.828125 
Q 42.09375 47.5625 43.96875 44.109375 
Q 45.84375 40.671875 46.59375 36.734375 
Q 47.359375 32.8125 47.359375 27.828125 
z
" id="DejaVuSans-1512"/>
      <path d="M 21 0 
L 11.8125 0 
L 4.296875 54.6875 
L 13.328125 54.6875 
L 16.890625 28.953125 
Q 19.234375 29 21.0625 29.359375 
Q 22.90625 29.734375 24.265625 30.53125 
Q 25.640625 31.34375 26.609375 32.203125 
Q 27.59375 33.0625 28.296875 34.625 
Q 29 36.1875 29.40625 37.46875 
Q 29.828125 38.765625 30.1875 41.03125 
Q 30.5625 43.3125 30.75 45 
Q 30.953125 46.6875 31.265625 49.640625 
Q 31.59375 52.59375 31.890625 54.6875 
L 39.9375 54.6875 
Q 39.0625 42 37.890625 36.96875 
Q 35.890625 28.609375 30.609375 25.25 
Q 25.984375 22.265625 17.828125 21.96875 
L 19.921875 6.984375 
Q 24.703125 6.984375 28.390625 7.34375 
Q 32.078125 7.71875 35.640625 8.6875 
Q 39.203125 9.671875 41.8125 11.296875 
Q 44.4375 12.9375 46.84375 15.5 
Q 49.265625 18.0625 50.953125 21.625 
Q 52.640625 25.203125 54 30 
Q 55.375 34.8125 56.203125 40.90625 
Q 57.03125 47.015625 57.515625 54.6875 
L 66.546875 54.6875 
Q 65.671875 46.578125 64.640625 40.421875 
Q 63.625 34.28125 62.125 28.703125 
Q 60.640625 23.140625 58.8125 19.15625 
Q 56.984375 15.1875 54.421875 11.84375 
Q 51.859375 8.5 48.703125 6.375 
Q 45.5625 4.25 41.375 2.75 
Q 37.203125 1.265625 32.25 0.625 
Q 27.296875 0 21 0 
z
" id="DejaVuSans-1513"/>
      <path d="M 19.140625 33.40625 
L 19.140625 0 
L 10.109375 0 
L 10.109375 29.6875 
z
M 56.25 27.828125 
L 56.25 0 
L 47.21875 0 
L 47.21875 29.6875 
Q 47.21875 40.234375 44.0625 43.96875 
Q 40.921875 47.703125 31.84375 47.703125 
L 9.078125 47.703125 
L 9.078125 54.6875 
L 31.734375 54.6875 
Q 45.265625 54.6875 50.75 48.578125 
Q 56.25 42.484375 56.25 27.828125 
z
" id="DejaVuSans-1492"/>
      <path d="M 57.28125 0 
L 9.078125 0 
L 9.078125 54.6875 
L 32.671875 54.6875 
Q 39.546875 54.6875 44.234375 53.265625 
Q 48.921875 51.859375 51.828125 48.703125 
Q 54.734375 45.5625 56 40.9375 
Q 57.28125 36.328125 57.28125 29.59375 
z
M 18.171875 47.703125 
L 18.171875 6.984375 
L 48.1875 6.984375 
L 48.1875 30.90625 
Q 48.1875 40.578125 45.015625 44.140625 
Q 41.84375 47.703125 32.8125 47.703125 
z
" id="DejaVuSans-1501"/>
      <path d="M 51.125 47.703125 
L 41.453125 47.703125 
L 41.453125 0 
L 32.375 0 
L 32.375 47.703125 
L 4.296875 47.703125 
L 4.296875 54.6875 
L 51.125 54.6875 
z
" id="DejaVuSans-1491"/>
     </defs>
     <use xlink:href="#DejaVuSans-52"/>
     <use x="63.623047" xlink:href="#DejaVuSans-50"/>
     <use x="127.246094" xlink:href="#DejaVuSans-49"/>
     <use x="190.869141" xlink:href="#DejaVuSans-32"/>
     <use x="222.65625" xlink:href="#DejaVuSans-1503"/>
     <use x="249.902344" xlink:href="#DejaVuSans-1493"/>
     <use x="277.148438" xlink:href="#DejaVuSans-1512"/>
     <use x="333.59375" xlink:href="#DejaVuSans-1513"/>
     <use x="404.443359" xlink:href="#DejaVuSans-1492"/>
     <use x="469.775391" xlink:href="#DejaVuSans-32"/>
     <use x="501.5625" xlink:href="#DejaVuSans-1501"/>
     <use x="567.919922" xlink:href="#DejaVuSans-1493"/>
     <use x="595.166016" xlink:href="#DejaVuSans-1512"/>
     <use x="651.611328" xlink:href="#DejaVuSans-1491"/>
    </g>
   </g>
   <g id="legend_1">
    <g id="patch_7">
     <path d="M 97 95.234375 
L 221.582812 95.234375 
Q 223.582812 95.234375 223.582812 93.234375 
L 223.582812 50.2 
Q 223.582812 48.2 221.582812 48.2 
L 97 48.2 
Q 95 48.2 95 50.2 
L 95 93.234375 
Q 95 95.234375 97 95.234375 
z
" style="fill:#ffffff;opacity:0.8;stroke:#cccccc;stroke-linejoin:miter;"/>
    </g>
    <g id="line2d_93">
     <path d="M 99 56.298437 
L 119 56.298437 
" style="fill:none;stroke:#008000;stroke-linecap:square;stroke-width:1.5;"/>
    </g>
    <g id="line2d_94"/>
    <g id="text_18">
     <!-- Test-adjusted -->
     <g transform="translate(127 59.798437)scale(0.1 -0.1)">
      <defs>
       <path d="M -0.296875 72.90625 
L 61.375 72.90625 
L 61.375 64.59375 
L 35.5 64.59375 
L 35.5 0 
L 25.59375 0 
L 25.59375 64.59375 
L -0.296875 64.59375 
z
" id="DejaVuSans-84"/>
       <path d="M 44.28125 53.078125 
L 44.28125 44.578125 
Q 40.484375 46.53125 36.375 47.5 
Q 32.28125 48.484375 27.875 48.484375 
Q 21.1875 48.484375 17.84375 46.4375 
Q 14.5 44.390625 14.5 40.28125 
Q 14.5 37.15625 16.890625 35.375 
Q 19.28125 33.59375 26.515625 31.984375 
L 29.59375 31.296875 
Q 39.15625 29.25 43.1875 25.515625 
Q 47.21875 21.78125 47.21875 15.09375 
Q 47.21875 7.46875 41.1875 3.015625 
Q 35.15625 -1.421875 24.609375 -1.421875 
Q 20.21875 -1.421875 15.453125 -0.5625 
Q 10.6875 0.296875 5.421875 2 
L 5.421875 11.28125 
Q 10.40625 8.6875 15.234375 7.390625 
Q 20.0625 6.109375 24.8125 6.109375 
Q 31.15625 6.109375 34.5625 8.28125 
Q 37.984375 10.453125 37.984375 14.40625 
Q 37.984375 18.0625 35.515625 20.015625 
Q 33.0625 21.96875 24.703125 23.78125 
L 21.578125 24.515625 
Q 13.234375 26.265625 9.515625 29.90625 
Q 5.8125 33.546875 5.8125 39.890625 
Q 5.8125 47.609375 11.28125 51.796875 
Q 16.75 56 26.8125 56 
Q 31.78125 56 36.171875 55.265625 
Q 40.578125 54.546875 44.28125 53.078125 
z
" id="DejaVuSans-115"/>
       <path d="M 4.890625 31.390625 
L 31.203125 31.390625 
L 31.203125 23.390625 
L 4.890625 23.390625 
z
" id="DejaVuSans-45"/>
       <path d="M 9.421875 54.6875 
L 18.40625 54.6875 
L 18.40625 -0.984375 
Q 18.40625 -11.421875 14.421875 -16.109375 
Q 10.453125 -20.796875 1.609375 -20.796875 
L -1.8125 -20.796875 
L -1.8125 -13.1875 
L 0.59375 -13.1875 
Q 5.71875 -13.1875 7.5625 -10.8125 
Q 9.421875 -8.453125 9.421875 -0.984375 
z
M 9.421875 75.984375 
L 18.40625 75.984375 
L 18.40625 64.59375 
L 9.421875 64.59375 
z
" id="DejaVuSans-106"/>
      </defs>
      <use xlink:href="#DejaVuSans-84"/>
      <use x="44.083984" xlink:href="#DejaVuSans-101"/>
      <use x="105.607422" xlink:href="#DejaVuSans-115"/>
      <use x="157.707031" xlink:href="#DejaVuSans-116"/>
      <use x="196.916016" xlink:href="#DejaVuSans-45"/>
      <use x="233" xlink:href="#DejaVuSans-97"/>
      <use x="294.279297" xlink:href="#DejaVuSans-100"/>
      <use x="357.755859" xlink:href="#DejaVuSans-106"/>
      <use x="385.539062" xlink:href="#DejaVuSans-117"/>
      <use x="448.917969" xlink:href="#DejaVuSans-115"/>
      <use x="501.017578" xlink:href="#DejaVuSans-116"/>
      <use x="540.226562" xlink:href="#DejaVuSans-101"/>
      <use x="601.75" xlink:href="#DejaVuSans-100"/>
     </g>
    </g>
    <g id="line2d_95">
     <path d="M 99 70.976562 
L 119 70.976562 
" style="fill:none;stroke:#0000ff;stroke-linecap:square;stroke-width:1.5;"/>
    </g>
    <g id="line2d_96"/>
    <g id="text_19">
     <!-- Infections -->
     <g transform="translate(127 74.476562)scale(0.1 -0.1)">
      <defs>
       <path d="M 9.8125 72.90625 
L 19.671875 72.90625 
L 19.671875 0 
L 9.8125 0 
z
" id="DejaVuSans-73"/>
       <path d="M 37.109375 75.984375 
L 37.109375 68.5 
L 28.515625 68.5 
Q 23.6875 68.5 21.796875 66.546875 
Q 19.921875 64.59375 19.921875 59.515625 
L 19.921875 54.6875 
L 34.71875 54.6875 
L 34.71875 47.703125 
L 19.921875 47.703125 
L 19.921875 0 
L 10.890625 0 
L 10.890625 47.703125 
L 2.296875 47.703125 
L 2.296875 54.6875 
L 10.890625 54.6875 
L 10.890625 58.5 
Q 10.890625 67.625 15.140625 71.796875 
Q 19.390625 75.984375 28.609375 75.984375 
z
" id="DejaVuSans-102"/>
       <path d="M 9.421875 54.6875 
L 18.40625 54.6875 
L 18.40625 0 
L 9.421875 0 
z
M 9.421875 75.984375 
L 18.40625 75.984375 
L 18.40625 64.59375 
L 9.421875 64.59375 
z
" id="DejaVuSans-105"/>
      </defs>
      <use xlink:href="#DejaVuSans-73"/>
      <use x="29.492188" xlink:href="#DejaVuSans-110"/>
      <use x="92.871094" xlink:href="#DejaVuSans-102"/>
      <use x="128.076172" xlink:href="#DejaVuSans-101"/>
      <use x="189.599609" xlink:href="#DejaVuSans-99"/>
      <use x="244.580078" xlink:href="#DejaVuSans-116"/>
      <use x="283.789062" xlink:href="#DejaVuSans-105"/>
      <use x="311.572266" xlink:href="#DejaVuSans-111"/>
      <use x="372.753906" xlink:href="#DejaVuSans-110"/>
      <use x="436.132812" xlink:href="#DejaVuSans-115"/>
     </g>
    </g>
    <g id="line2d_97">
     <path d="M 99 85.654687 
L 119 85.654687 
" style="fill:none;stroke:#ff0000;stroke-linecap:square;stroke-opacity:0.7;stroke-width:1.5;"/>
    </g>
    <g id="line2d_98"/>
    <g id="text_20">
     <!-- Reported Positives -->
     <g transform="translate(127 89.154687)scale(0.1 -0.1)">
      <defs>
       <path d="M 44.390625 34.1875 
Q 47.5625 33.109375 50.5625 29.59375 
Q 53.5625 26.078125 56.59375 19.921875 
L 66.609375 0 
L 56 0 
L 46.6875 18.703125 
Q 43.0625 26.03125 39.671875 28.421875 
Q 36.28125 30.8125 30.421875 30.8125 
L 19.671875 30.8125 
L 19.671875 0 
L 9.8125 0 
L 9.8125 72.90625 
L 32.078125 72.90625 
Q 44.578125 72.90625 50.734375 67.671875 
Q 56.890625 62.453125 56.890625 51.90625 
Q 56.890625 45.015625 53.6875 40.46875 
Q 50.484375 35.9375 44.390625 34.1875 
z
M 19.671875 64.796875 
L 19.671875 38.921875 
L 32.078125 38.921875 
Q 39.203125 38.921875 42.84375 42.21875 
Q 46.484375 45.515625 46.484375 51.90625 
Q 46.484375 58.296875 42.84375 61.546875 
Q 39.203125 64.796875 32.078125 64.796875 
z
" id="DejaVuSans-82"/>
       <path d="M 19.671875 64.796875 
L 19.671875 37.40625 
L 32.078125 37.40625 
Q 38.96875 37.40625 42.71875 40.96875 
Q 46.484375 44.53125 46.484375 51.125 
Q 46.484375 57.671875 42.71875 61.234375 
Q 38.96875 64.796875 32.078125 64.796875 
z
M 9.8125 72.90625 
L 32.078125 72.90625 
Q 44.34375 72.90625 50.609375 67.359375 
Q 56.890625 61.8125 56.890625 51.125 
Q 56.890625 40.328125 50.609375 34.8125 
Q 44.34375 29.296875 32.078125 29.296875 
L 19.671875 29.296875 
L 19.671875 0 
L 9.8125 0 
z
" id="DejaVuSans-80"/>
      </defs>
      <use xlink:href="#DejaVuSans-82"/>
      <use x="64.982422" xlink:href="#DejaVuSans-101"/>
      <use x="126.505859" xlink:href="#DejaVuSans-112"/>
      <use x="189.982422" xlink:href="#DejaVuSans-111"/>
      <use x="251.164062" xlink:href="#DejaVuSans-114"/>
      <use x="292.277344" xlink:href="#DejaVuSans-116"/>
      <use x="331.486328" xlink:href="#DejaVuSans-101"/>
      <use x="393.009766" xlink:href="#DejaVuSans-100"/>
      <use x="456.486328" xlink:href="#DejaVuSans-32"/>
      <use x="488.273438" xlink:href="#DejaVuSans-80"/>
      <use x="544.951172" xlink:href="#DejaVuSans-111"/>
      <use x="606.132812" xlink:href="#DejaVuSans-115"/>
      <use x="658.232422" xlink:href="#DejaVuSans-105"/>
      <use x="686.015625" xlink:href="#DejaVuSans-116"/>
      <use x="725.224609" xlink:href="#DejaVuSans-105"/>
      <use x="753.007812" xlink:href="#DejaVuSans-118"/>
      <use x="812.1875" xlink:href="#DejaVuSans-101"/>
      <use x="873.710938" xlink:href="#DejaVuSans-115"/>
     </g>
    </g>
   </g>
  </g>
 </g>
 <defs>
  <clipPath id="p60054cbd3a">
   <rect height="271.8" width="558" x="90" y="43.2"/>
  </clipPath>
 </defs>
</svg>
