<?xml version="1.0" encoding="utf-8" standalone="no"?>
<!DOCTYPE svg PUBLIC "-//W3C//DTD SVG 1.1//EN"
  "http://www.w3.org/Graphics/SVG/1.1/DTD/svg11.dtd">
<!-- Created with matplotlib (https://matplotlib.org/) -->
<svg height="360pt" version="1.1" viewBox="0 0 720 360" width="720pt" xmlns="http://www.w3.org/2000/svg" xmlns:xlink="http://www.w3.org/1999/xlink">
 <metadata>
  <rdf:RDF xmlns:cc="http://creativecommons.org/ns#" xmlns:dc="http://purl.org/dc/elements/1.1/" xmlns:rdf="http://www.w3.org/1999/02/22-rdf-syntax-ns#">
   <cc:Work>
    <dc:type rdf:resource="http://purl.org/dc/dcmitype/StillImage"/>
    <dc:date>2021-02-03T10:19:43.222883</dc:date>
    <dc:format>image/svg+xml</dc:format>
    <dc:creator>
     <cc:Agent>
      <dc:title>Matplotlib v3.3.2, https://matplotlib.org/</dc:title>
     </cc:Agent>
    </dc:creator>
   </cc:Work>
  </rdf:RDF>
 </metadata>
 <defs>
  <style type="text/css">*{stroke-linecap:butt;stroke-linejoin:round;}</style>
 </defs>
 <g id="figure_1">
  <g id="patch_1">
   <path d="M 0 360 
L 720 360 
L 720 0 
L 0 0 
z
" style="fill:#ffffff;"/>
  </g>
  <g id="axes_1">
   <g id="patch_2">
    <path d="M 90 315 
L 648 315 
L 648 43.2 
L 90 43.2 
z
" style="fill:#ffffff;"/>
   </g>
   <g id="PolyCollection_1">
    <defs>
     <path d="M 90 -57.354545 
L 90 -79.671167 
L 91.924138 -79.519014 
L 93.848276 -80.431813 
L 95.772414 -80.678249 
L 97.696552 -80.591171 
L 99.62069 -80.441939 
L 101.544828 -80.793517 
L 103.468966 -82.000635 
L 105.393103 -81.215928 
L 107.317241 -82.748547 
L 109.241379 -82.263925 
L 111.165517 -83.838562 
L 113.089655 -85.906208 
L 115.013793 -87.143225 
L 116.937931 -88.086739 
L 118.862069 -89.365825 
L 120.786207 -91.225375 
L 122.710345 -93.036364 
L 124.634483 -96.127067 
L 126.558621 -96.023751 
L 128.482759 -99.74571 
L 130.406897 -101.126099 
L 132.331034 -106.177638 
L 134.255172 -110.28857 
L 136.17931 -113.457865 
L 138.103448 -113.169592 
L 140.027586 -120.185125 
L 141.951724 -124.113484 
L 143.875862 -125.621738 
L 145.8 -131.057768 
L 147.724138 -135.711197 
L 149.648276 -141.318678 
L 151.572414 -143.266188 
L 153.496552 -148.307907 
L 155.42069 -152.941354 
L 157.344828 -157.492921 
L 159.268966 -162.946575 
L 161.193103 -170.868653 
L 163.117241 -170.282612 
L 165.041379 -178.381672 
L 166.965517 -183.27317 
L 168.889655 -190.719762 
L 170.813793 -195.453574 
L 172.737931 -203.624272 
L 174.662069 -204.667045 
L 176.586207 -217.485348 
L 178.510345 -219.863885 
L 180.434483 -227.716835 
L 182.358621 -232.415124 
L 184.282759 -245.923075 
L 186.206897 -247.644836 
L 188.131034 -249.765887 
L 190.055172 -261.584506 
L 191.97931 -266.761859 
L 193.903448 -275.202759 
L 195.827586 -276.119548 
L 197.751724 -285.052328 
L 199.675862 -280.47887 
L 201.6 -288.624871 
L 203.524138 -290.902568 
L 205.448276 -295.365626 
L 207.372414 -300.399364 
L 209.296552 -294.923857 
L 211.22069 -304.445455 
L 213.144828 -299.662542 
L 215.068966 -296.870133 
L 216.993103 -298.17457 
L 218.917241 -289.789918 
L 220.841379 -291.2691 
L 222.765517 -284.558142 
L 224.689655 -285.15838 
L 226.613793 -276.386974 
L 228.537931 -274.94698 
L 230.462069 -269.476768 
L 232.386207 -263.084498 
L 234.310345 -258.876483 
L 236.234483 -254.470413 
L 238.158621 -252.539778 
L 240.082759 -245.653359 
L 242.006897 -242.531604 
L 243.931034 -239.760263 
L 245.855172 -239.395865 
L 247.77931 -234.10763 
L 249.703448 -230.786086 
L 251.627586 -233.397141 
L 253.551724 -230.67601 
L 255.475862 -221.918009 
L 257.4 -223.983555 
L 259.324138 -218.874756 
L 261.248276 -213.066952 
L 263.172414 -209.033391 
L 265.096552 -204.239018 
L 267.02069 -198.782975 
L 268.944828 -195.869543 
L 270.868966 -188.454315 
L 272.793103 -184.797738 
L 274.717241 -177.170053 
L 276.641379 -170.922359 
L 278.565517 -165.639677 
L 280.489655 -161.336354 
L 282.413793 -156.474891 
L 284.337931 -151.049017 
L 286.262069 -148.073987 
L 288.186207 -146.087577 
L 290.110345 -144.070751 
L 292.034483 -142.682072 
L 293.958621 -142.450677 
L 295.882759 -139.856933 
L 297.806897 -142.934757 
L 299.731034 -143.033717 
L 301.655172 -144.430197 
L 303.57931 -146.804761 
L 305.503448 -148.87597 
L 307.427586 -149.860801 
L 309.351724 -150.27637 
L 311.275862 -154.519298 
L 313.2 -158.066162 
L 315.124138 -159.118255 
L 317.048276 -159.49377 
L 318.972414 -160.986653 
L 320.896552 -166.374107 
L 322.82069 -168.173443 
L 324.744828 -169.287691 
L 326.668966 -169.962379 
L 328.593103 -172.412288 
L 330.517241 -176.815027 
L 332.441379 -173.620138 
L 334.365517 -171.104079 
L 336.289655 -173.533597 
L 338.213793 -170.295346 
L 340.137931 -166.954541 
L 342.062069 -165.384214 
L 343.986207 -162.300502 
L 345.910345 -160.290854 
L 347.834483 -159.311718 
L 349.758621 -156.5615 
L 351.682759 -154.505358 
L 353.606897 -151.268808 
L 355.531034 -151.605887 
L 357.455172 -148.622696 
L 359.37931 -147.448693 
L 361.303448 -143.0219 
L 363.227586 -142.145917 
L 365.151724 -140.660733 
L 367.075862 -140.432444 
L 369 -136.084721 
L 370.924138 -134.192773 
L 372.848276 -133.0678 
L 374.772414 -132.341932 
L 376.696552 -132.401903 
L 378.62069 -132.764917 
L 380.544828 -130.981726 
L 382.468966 -127.954935 
L 384.393103 -127.630998 
L 386.317241 -127.696534 
L 388.241379 -125.729228 
L 390.165517 -126.00224 
L 392.089655 -124.704842 
L 394.013793 -122.275433 
L 395.937931 -124.072839 
L 397.862069 -124.043051 
L 399.786207 -123.332552 
L 401.710345 -122.296327 
L 403.634483 -121.959591 
L 405.558621 -121.011157 
L 407.482759 -122.317206 
L 409.406897 -121.106149 
L 411.331034 -121.300528 
L 413.255172 -122.43625 
L 415.17931 -122.129074 
L 417.103448 -123.616971 
L 419.027586 -124.371121 
L 420.951724 -125.87291 
L 422.875862 -126.521948 
L 424.8 -129.349526 
L 426.724138 -132.490698 
L 428.648276 -132.228984 
L 430.572414 -135.545161 
L 432.496552 -136.114369 
L 434.42069 -139.261424 
L 436.344828 -142.055271 
L 438.268966 -142.976136 
L 440.193103 -146.769772 
L 442.117241 -151.40311 
L 444.041379 -150.530964 
L 445.965517 -152.644987 
L 447.889655 -154.232265 
L 449.813793 -155.898096 
L 451.737931 -154.431184 
L 453.662069 -157.851973 
L 455.586207 -159.394664 
L 457.510345 -160.316358 
L 459.434483 -162.555344 
L 461.358621 -165.41839 
L 463.282759 -165.020692 
L 465.206897 -163.357752 
L 467.131034 -164.378126 
L 469.055172 -164.442123 
L 470.97931 -165.619885 
L 472.903448 -167.108346 
L 474.827586 -165.352606 
L 476.751724 -169.267608 
L 478.675862 -169.626791 
L 480.6 -171.01136 
L 482.524138 -168.999008 
L 484.448276 -169.840969 
L 486.372414 -168.279516 
L 488.296552 -166.993885 
L 490.22069 -164.508551 
L 492.144828 -163.598235 
L 494.068966 -162.774055 
L 495.993103 -161.990196 
L 497.917241 -160.50097 
L 499.841379 -162.202882 
L 501.765517 -157.967364 
L 503.689655 -160.165842 
L 505.613793 -159.325654 
L 507.537931 -158.913934 
L 509.462069 -158.081459 
L 511.386207 -158.2112 
L 513.310345 -158.533699 
L 515.234483 -156.408108 
L 517.158621 -159.056828 
L 519.082759 -156.997959 
L 521.006897 -155.614149 
L 522.931034 -157.481188 
L 524.855172 -157.207306 
L 526.77931 -156.716218 
L 528.703448 -157.988834 
L 530.627586 -158.787342 
L 532.551724 -157.895827 
L 534.475862 -158.223847 
L 536.4 -161.590673 
L 538.324138 -158.803509 
L 540.248276 -158.917667 
L 542.172414 -158.792213 
L 544.096552 -161.927132 
L 546.02069 -164.166397 
L 547.944828 -163.265781 
L 549.868966 -164.703612 
L 551.793103 -162.768443 
L 553.717241 -162.641072 
L 555.641379 -165.981717 
L 557.565517 -163.009491 
L 559.489655 -160.127728 
L 561.413793 -161.765533 
L 563.337931 -160.969234 
L 565.262069 -163.208755 
L 567.186207 -162.44063 
L 569.110345 -162.306342 
L 571.034483 -163.280552 
L 572.958621 -163.282079 
L 574.882759 -162.376386 
L 576.806897 -162.041914 
L 578.731034 -160.075299 
L 580.655172 -161.711139 
L 582.57931 -162.081087 
L 584.503448 -159.205595 
L 586.427586 -158.202945 
L 588.351724 -159.490446 
L 590.275862 -158.53941 
L 592.2 -157.330125 
L 594.124138 -155.867383 
L 596.048276 -155.798357 
L 597.972414 -155.661088 
L 599.896552 -152.992862 
L 601.82069 -151.492886 
L 603.744828 -148.878437 
L 605.668966 -148.342055 
L 607.593103 -145.061669 
L 609.517241 -146.150708 
L 611.441379 -143.686696 
L 613.365517 -142.517712 
L 615.289655 -140.54124 
L 617.213793 -137.689414 
L 619.137931 -135.067116 
L 621.062069 -134.683647 
L 622.986207 -132.33349 
L 624.910345 -131.840221 
L 626.834483 -129.550718 
L 628.758621 -130.260124 
L 630.682759 -129.52574 
L 632.606897 -129.511292 
L 634.531034 -129.712272 
L 636.455172 -132.023075 
L 638.37931 -132.724249 
L 640.303448 -134.260428 
L 642.227586 -135.19422 
L 644.151724 -136.23258 
L 646.075862 -137.176179 
L 648 -138.026785 
L 649.924138 -138.652045 
L 651.848276 -135.06252 
L 653.772414 -142.142539 
L 655.696552 -140.396239 
L 657.62069 -142.076724 
L 659.544828 -141.89457 
L 661.468966 -141.78881 
L 663.393103 -143.945426 
L 663.393103 -85.771664 
L 663.393103 -85.771664 
L 661.468966 -86.237507 
L 659.544828 -89.878139 
L 657.62069 -89.850024 
L 655.696552 -90.22163 
L 653.772414 -93.787665 
L 651.848276 -90.556505 
L 649.924138 -94.84011 
L 648 -94.993707 
L 646.075862 -95.997281 
L 644.151724 -96.514021 
L 642.227586 -97.772911 
L 640.303448 -98.457796 
L 638.37931 -100.017402 
L 636.455172 -101.541105 
L 634.531034 -101.251036 
L 632.606897 -102.686633 
L 630.682759 -104.429308 
L 628.758621 -106.194431 
L 626.834483 -105.332347 
L 624.910345 -108.426876 
L 622.986207 -109.031463 
L 621.062069 -110.599096 
L 619.137931 -111.134176 
L 617.213793 -112.743173 
L 615.289655 -114.080746 
L 613.365517 -116.716941 
L 611.441379 -118.160995 
L 609.517241 -119.888574 
L 607.593103 -118.689473 
L 605.668966 -121.70574 
L 603.744828 -122.58807 
L 601.82069 -125.317103 
L 599.896552 -125.830356 
L 597.972414 -127.618391 
L 596.048276 -129.391912 
L 594.124138 -128.299267 
L 592.2 -128.939607 
L 590.275862 -129.365492 
L 588.351724 -129.986563 
L 586.427586 -128.970762 
L 584.503448 -130.688596 
L 582.57931 -132.045677 
L 580.655172 -131.971905 
L 578.731034 -130.060408 
L 576.806897 -133.56383 
L 574.882759 -133.420515 
L 572.958621 -133.786925 
L 571.034483 -133.000586 
L 569.110345 -132.757472 
L 567.186207 -133.914095 
L 565.262069 -133.346449 
L 563.337931 -129.975427 
L 561.413793 -131.661266 
L 559.489655 -130.497768 
L 557.565517 -132.502881 
L 555.641379 -135.505599 
L 553.717241 -132.453846 
L 551.793103 -133.564632 
L 549.868966 -134.782362 
L 547.944828 -134.846837 
L 546.02069 -134.677991 
L 544.096552 -132.652961 
L 542.172414 -129.677421 
L 540.248276 -130.378965 
L 538.324138 -130.107417 
L 536.4 -132.568282 
L 534.475862 -128.737133 
L 532.551724 -127.812813 
L 530.627586 -129.464641 
L 528.703448 -130.458876 
L 526.77931 -129.498536 
L 524.855172 -129.858919 
L 522.931034 -130.385906 
L 521.006897 -127.612829 
L 519.082759 -128.920096 
L 517.158621 -131.839108 
L 515.234483 -129.112432 
L 513.310345 -130.768027 
L 511.386207 -130.949266 
L 509.462069 -129.920794 
L 507.537931 -129.842389 
L 505.613793 -129.802393 
L 503.689655 -130.609565 
L 501.765517 -129.173102 
L 499.841379 -133.007327 
L 497.917241 -133.137099 
L 495.993103 -133.23847 
L 494.068966 -135.063093 
L 492.144828 -134.390162 
L 490.22069 -134.19073 
L 488.296552 -135.53048 
L 486.372414 -136.501648 
L 484.448276 -138.067771 
L 482.524138 -137.070991 
L 480.6 -137.858681 
L 478.675862 -137.663141 
L 476.751724 -137.606603 
L 474.827586 -135.434955 
L 472.903448 -137.101841 
L 470.97931 -135.750135 
L 469.055172 -134.15453 
L 467.131034 -133.970269 
L 465.206897 -131.268222 
L 463.282759 -134.64809 
L 461.358621 -132.760593 
L 459.434483 -131.169004 
L 457.510345 -129.695103 
L 455.586207 -130.781391 
L 453.662069 -129.551505 
L 451.737931 -126.895997 
L 449.813793 -127.742395 
L 447.889655 -125.309941 
L 445.965517 -123.67936 
L 444.041379 -122.3561 
L 442.117241 -122.7845 
L 440.193103 -119.883731 
L 438.268966 -117.788554 
L 436.344828 -116.877153 
L 434.42069 -114.087134 
L 432.496552 -112.959064 
L 430.572414 -111.355656 
L 428.648276 -108.243402 
L 426.724138 -108.306302 
L 424.8 -106.601429 
L 422.875862 -103.549335 
L 420.951724 -103.182195 
L 419.027586 -101.872447 
L 417.103448 -101.563166 
L 415.17931 -101.225201 
L 413.255172 -102.441457 
L 411.331034 -100.628549 
L 409.406897 -100.404164 
L 407.482759 -100.9495 
L 405.558621 -100.377284 
L 403.634483 -101.519914 
L 401.710345 -101.041297 
L 399.786207 -102.020905 
L 397.862069 -103.358346 
L 395.937931 -103.044459 
L 394.013793 -101.665263 
L 392.089655 -103.891187 
L 390.165517 -104.464811 
L 388.241379 -103.47976 
L 386.317241 -104.874357 
L 384.393103 -105.160756 
L 382.468966 -104.241557 
L 380.544828 -107.169612 
L 378.62069 -108.627025 
L 376.696552 -108.760743 
L 374.772414 -109.701525 
L 372.848276 -110.737131 
L 370.924138 -110.653039 
L 369 -112.885656 
L 367.075862 -116.107702 
L 365.151724 -116.534971 
L 363.227586 -117.389191 
L 361.303448 -117.479223 
L 359.37931 -121.788058 
L 357.455172 -122.757231 
L 355.531034 -125.460728 
L 353.606897 -125.445802 
L 351.682759 -127.023713 
L 349.758621 -129.855151 
L 347.834483 -132.961891 
L 345.910345 -132.532285 
L 343.986207 -133.44713 
L 342.062069 -135.722518 
L 340.137931 -136.470208 
L 338.213793 -136.018533 
L 336.289655 -141.216732 
L 334.365517 -139.698052 
L 332.441379 -140.33521 
L 330.517241 -142.419831 
L 328.593103 -139.743483 
L 326.668966 -139.605702 
L 324.744828 -138.927585 
L 322.82069 -137.681295 
L 320.896552 -136.629234 
L 318.972414 -132.465704 
L 317.048276 -131.59953 
L 315.124138 -130.854731 
L 313.2 -128.969918 
L 311.275862 -126.178931 
L 309.351724 -121.740425 
L 307.427586 -122.32066 
L 305.503448 -122.077957 
L 303.57931 -119.918411 
L 301.655172 -118.473146 
L 299.731034 -117.509244 
L 297.806897 -117.685443 
L 295.882759 -114.681717 
L 293.958621 -116.4631 
L 292.034483 -116.741926 
L 290.110345 -118.535069 
L 288.186207 -119.654213 
L 286.262069 -121.928939 
L 284.337931 -123.239965 
L 282.413793 -126.173426 
L 280.489655 -130.553476 
L 278.565517 -135.022656 
L 276.641379 -140.30613 
L 274.717241 -143.647167 
L 272.793103 -150.715904 
L 270.868966 -152.173506 
L 268.944828 -158.832147 
L 267.02069 -160.609536 
L 265.096552 -167.306792 
L 263.172414 -170.631859 
L 261.248276 -174.970191 
L 259.324138 -178.590017 
L 257.4 -180.217979 
L 255.475862 -177.962074 
L 253.551724 -185.411176 
L 251.627586 -187.543393 
L 249.703448 -185.473346 
L 247.77931 -189.385765 
L 245.855172 -193.083015 
L 243.931034 -195.354129 
L 242.006897 -194.785316 
L 240.082759 -194.880793 
L 238.158621 -200.695809 
L 236.234483 -200.397633 
L 234.310345 -202.157169 
L 232.386207 -203.557072 
L 230.462069 -207.159466 
L 228.537931 -209.502293 
L 226.613793 -208.808267 
L 224.689655 -219.414262 
L 222.765517 -213.640555 
L 220.841379 -220.057129 
L 218.917241 -216.296422 
L 216.993103 -222.626624 
L 215.068966 -220.673671 
L 213.144828 -221.599549 
L 211.22069 -222.141453 
L 209.296552 -217.420445 
L 207.372414 -220.593865 
L 205.448276 -214.369616 
L 203.524138 -209.078988 
L 201.6 -207.915799 
L 199.675862 -201.229145 
L 197.751724 -205.442916 
L 195.827586 -201.793869 
L 193.903448 -203.394319 
L 191.97931 -194.498298 
L 190.055172 -195.373702 
L 188.131034 -180.422332 
L 186.206897 -182.245859 
L 184.282759 -181.017476 
L 182.358621 -170.928347 
L 180.434483 -170.483232 
L 178.510345 -166.628695 
L 176.586207 -161.950736 
L 174.662069 -152.458459 
L 172.737931 -151.880814 
L 170.813793 -146.203883 
L 168.889655 -142.805788 
L 166.965517 -135.423855 
L 165.041379 -133.437834 
L 163.117241 -126.776825 
L 161.193103 -127.950355 
L 159.268966 -121.006116 
L 157.344828 -115.466544 
L 155.42069 -113.538185 
L 153.496552 -110.138552 
L 151.572414 -106.867833 
L 149.648276 -105.697046 
L 147.724138 -101.895944 
L 145.8 -98.876017 
L 143.875862 -94.399226 
L 141.951724 -94.717388 
L 140.027586 -91.25223 
L 138.103448 -85.953561 
L 136.17931 -87.48743 
L 134.255172 -85.440667 
L 132.331034 -82.078725 
L 130.406897 -77.926428 
L 128.482759 -78.442907 
L 126.558621 -75.012882 
L 124.634483 -75.966438 
L 122.710345 -73.886363 
L 120.786207 -72.494784 
L 118.862069 -70.653758 
L 116.937931 -69.051959 
L 115.013793 -68.596659 
L 113.089655 -67.178914 
L 111.165517 -65.263679 
L 109.241379 -63.956641 
L 107.317241 -64.004245 
L 105.393103 -62.388932 
L 103.468966 -63.342566 
L 101.544828 -61.874881 
L 99.62069 -61.516562 
L 97.696552 -61.259194 
L 95.772414 -60.736968 
L 93.848276 -60.085394 
L 91.924138 -58.224619 
L 90 -57.354545 
z
" id="m617c88eb55" style="stroke:#fdcbb6;stroke-opacity:0.8;"/>
    </defs>
    <g clip-path="url(#p6f2d46f735)">
     <use style="fill:#fdcbb6;fill-opacity:0.8;stroke:#fdcbb6;stroke-opacity:0.8;" x="0" xlink:href="#m617c88eb55" y="360"/>
    </g>
   </g>
   <g id="matplotlib.axis_1">
    <g id="xtick_1">
     <g id="line2d_1">
      <defs>
       <path d="M 0 0 
L 0 3.5 
" id="m8d8eaad5d5" style="stroke:#000000;stroke-width:0.8;"/>
      </defs>
      <g>
       <use style="stroke:#000000;stroke-width:0.8;" x="90" xlink:href="#m8d8eaad5d5" y="315"/>
      </g>
     </g>
    </g>
    <g id="xtick_2">
     <g id="line2d_2">
      <g>
       <use style="stroke:#000000;stroke-width:0.8;" x="132.331034" xlink:href="#m8d8eaad5d5" y="315"/>
      </g>
     </g>
     <g id="text_1">
      <!-- May -->
      <g transform="translate(121.993534 329.598437)scale(0.1 -0.1)">
       <defs>
        <path d="M 9.8125 72.90625 
L 24.515625 72.90625 
L 43.109375 23.296875 
L 61.8125 72.90625 
L 76.515625 72.90625 
L 76.515625 0 
L 66.890625 0 
L 66.890625 64.015625 
L 48.09375 14.015625 
L 38.1875 14.015625 
L 19.390625 64.015625 
L 19.390625 0 
L 9.8125 0 
z
" id="DejaVuSans-77"/>
        <path d="M 34.28125 27.484375 
Q 23.390625 27.484375 19.1875 25 
Q 14.984375 22.515625 14.984375 16.5 
Q 14.984375 11.71875 18.140625 8.90625 
Q 21.296875 6.109375 26.703125 6.109375 
Q 34.1875 6.109375 38.703125 11.40625 
Q 43.21875 16.703125 43.21875 25.484375 
L 43.21875 27.484375 
z
M 52.203125 31.203125 
L 52.203125 0 
L 43.21875 0 
L 43.21875 8.296875 
Q 40.140625 3.328125 35.546875 0.953125 
Q 30.953125 -1.421875 24.3125 -1.421875 
Q 15.921875 -1.421875 10.953125 3.296875 
Q 6 8.015625 6 15.921875 
Q 6 25.140625 12.171875 29.828125 
Q 18.359375 34.515625 30.609375 34.515625 
L 43.21875 34.515625 
L 43.21875 35.40625 
Q 43.21875 41.609375 39.140625 45 
Q 35.0625 48.390625 27.6875 48.390625 
Q 23 48.390625 18.546875 47.265625 
Q 14.109375 46.140625 10.015625 43.890625 
L 10.015625 52.203125 
Q 14.9375 54.109375 19.578125 55.046875 
Q 24.21875 56 28.609375 56 
Q 40.484375 56 46.34375 49.84375 
Q 52.203125 43.703125 52.203125 31.203125 
z
" id="DejaVuSans-97"/>
        <path d="M 32.171875 -5.078125 
Q 28.375 -14.84375 24.75 -17.8125 
Q 21.140625 -20.796875 15.09375 -20.796875 
L 7.90625 -20.796875 
L 7.90625 -13.28125 
L 13.1875 -13.28125 
Q 16.890625 -13.28125 18.9375 -11.515625 
Q 21 -9.765625 23.484375 -3.21875 
L 25.09375 0.875 
L 2.984375 54.6875 
L 12.5 54.6875 
L 29.59375 11.921875 
L 46.6875 54.6875 
L 56.203125 54.6875 
z
" id="DejaVuSans-121"/>
       </defs>
       <use xlink:href="#DejaVuSans-77"/>
       <use x="86.279297" xlink:href="#DejaVuSans-97"/>
       <use x="147.558594" xlink:href="#DejaVuSans-121"/>
      </g>
     </g>
    </g>
    <g id="xtick_3">
     <g id="line2d_3">
      <g>
       <use style="stroke:#000000;stroke-width:0.8;" x="191.97931" xlink:href="#m8d8eaad5d5" y="315"/>
      </g>
     </g>
     <g id="text_2">
      <!-- Jun -->
      <g transform="translate(184.16681 329.598437)scale(0.1 -0.1)">
       <defs>
        <path d="M 9.8125 72.90625 
L 19.671875 72.90625 
L 19.671875 5.078125 
Q 19.671875 -8.109375 14.671875 -14.0625 
Q 9.671875 -20.015625 -1.421875 -20.015625 
L -5.171875 -20.015625 
L -5.171875 -11.71875 
L -2.09375 -11.71875 
Q 4.4375 -11.71875 7.125 -8.046875 
Q 9.8125 -4.390625 9.8125 5.078125 
z
" id="DejaVuSans-74"/>
        <path d="M 8.5 21.578125 
L 8.5 54.6875 
L 17.484375 54.6875 
L 17.484375 21.921875 
Q 17.484375 14.15625 20.5 10.265625 
Q 23.53125 6.390625 29.59375 6.390625 
Q 36.859375 6.390625 41.078125 11.03125 
Q 45.3125 15.671875 45.3125 23.6875 
L 45.3125 54.6875 
L 54.296875 54.6875 
L 54.296875 0 
L 45.3125 0 
L 45.3125 8.40625 
Q 42.046875 3.421875 37.71875 1 
Q 33.40625 -1.421875 27.6875 -1.421875 
Q 18.265625 -1.421875 13.375 4.4375 
Q 8.5 10.296875 8.5 21.578125 
z
M 31.109375 56 
z
" id="DejaVuSans-117"/>
        <path d="M 54.890625 33.015625 
L 54.890625 0 
L 45.90625 0 
L 45.90625 32.71875 
Q 45.90625 40.484375 42.875 44.328125 
Q 39.84375 48.1875 33.796875 48.1875 
Q 26.515625 48.1875 22.3125 43.546875 
Q 18.109375 38.921875 18.109375 30.90625 
L 18.109375 0 
L 9.078125 0 
L 9.078125 54.6875 
L 18.109375 54.6875 
L 18.109375 46.1875 
Q 21.34375 51.125 25.703125 53.5625 
Q 30.078125 56 35.796875 56 
Q 45.21875 56 50.046875 50.171875 
Q 54.890625 44.34375 54.890625 33.015625 
z
" id="DejaVuSans-110"/>
       </defs>
       <use xlink:href="#DejaVuSans-74"/>
       <use x="29.492188" xlink:href="#DejaVuSans-117"/>
       <use x="92.871094" xlink:href="#DejaVuSans-110"/>
      </g>
     </g>
    </g>
    <g id="xtick_4">
     <g id="line2d_4">
      <g>
       <use style="stroke:#000000;stroke-width:0.8;" x="249.703448" xlink:href="#m8d8eaad5d5" y="315"/>
      </g>
     </g>
     <g id="text_3">
      <!-- Jul -->
      <g transform="translate(243.670636 329.598437)scale(0.1 -0.1)">
       <defs>
        <path d="M 9.421875 75.984375 
L 18.40625 75.984375 
L 18.40625 0 
L 9.421875 0 
z
" id="DejaVuSans-108"/>
       </defs>
       <use xlink:href="#DejaVuSans-74"/>
       <use x="29.492188" xlink:href="#DejaVuSans-117"/>
       <use x="92.871094" xlink:href="#DejaVuSans-108"/>
      </g>
     </g>
    </g>
    <g id="xtick_5">
     <g id="line2d_5">
      <g>
       <use style="stroke:#000000;stroke-width:0.8;" x="309.351724" xlink:href="#m8d8eaad5d5" y="315"/>
      </g>
     </g>
     <g id="text_4">
      <!-- Aug -->
      <g transform="translate(299.588443 329.598437)scale(0.1 -0.1)">
       <defs>
        <path d="M 34.1875 63.1875 
L 20.796875 26.90625 
L 47.609375 26.90625 
z
M 28.609375 72.90625 
L 39.796875 72.90625 
L 67.578125 0 
L 57.328125 0 
L 50.6875 18.703125 
L 17.828125 18.703125 
L 11.1875 0 
L 0.78125 0 
z
" id="DejaVuSans-65"/>
        <path d="M 45.40625 27.984375 
Q 45.40625 37.75 41.375 43.109375 
Q 37.359375 48.484375 30.078125 48.484375 
Q 22.859375 48.484375 18.828125 43.109375 
Q 14.796875 37.75 14.796875 27.984375 
Q 14.796875 18.265625 18.828125 12.890625 
Q 22.859375 7.515625 30.078125 7.515625 
Q 37.359375 7.515625 41.375 12.890625 
Q 45.40625 18.265625 45.40625 27.984375 
z
M 54.390625 6.78125 
Q 54.390625 -7.171875 48.1875 -13.984375 
Q 42 -20.796875 29.203125 -20.796875 
Q 24.46875 -20.796875 20.265625 -20.09375 
Q 16.0625 -19.390625 12.109375 -17.921875 
L 12.109375 -9.1875 
Q 16.0625 -11.328125 19.921875 -12.34375 
Q 23.78125 -13.375 27.78125 -13.375 
Q 36.625 -13.375 41.015625 -8.765625 
Q 45.40625 -4.15625 45.40625 5.171875 
L 45.40625 9.625 
Q 42.625 4.78125 38.28125 2.390625 
Q 33.9375 0 27.875 0 
Q 17.828125 0 11.671875 7.65625 
Q 5.515625 15.328125 5.515625 27.984375 
Q 5.515625 40.671875 11.671875 48.328125 
Q 17.828125 56 27.875 56 
Q 33.9375 56 38.28125 53.609375 
Q 42.625 51.21875 45.40625 46.390625 
L 45.40625 54.6875 
L 54.390625 54.6875 
z
" id="DejaVuSans-103"/>
       </defs>
       <use xlink:href="#DejaVuSans-65"/>
       <use x="68.408203" xlink:href="#DejaVuSans-117"/>
       <use x="131.787109" xlink:href="#DejaVuSans-103"/>
      </g>
     </g>
    </g>
    <g id="xtick_6">
     <g id="line2d_6">
      <g>
       <use style="stroke:#000000;stroke-width:0.8;" x="369" xlink:href="#m8d8eaad5d5" y="315"/>
      </g>
     </g>
     <g id="text_5">
      <!-- Sep -->
      <g transform="translate(359.575 329.598437)scale(0.1 -0.1)">
       <defs>
        <path d="M 53.515625 70.515625 
L 53.515625 60.890625 
Q 47.90625 63.578125 42.921875 64.890625 
Q 37.9375 66.21875 33.296875 66.21875 
Q 25.25 66.21875 20.875 63.09375 
Q 16.5 59.96875 16.5 54.203125 
Q 16.5 49.359375 19.40625 46.890625 
Q 22.3125 44.4375 30.421875 42.921875 
L 36.375 41.703125 
Q 47.40625 39.59375 52.65625 34.296875 
Q 57.90625 29 57.90625 20.125 
Q 57.90625 9.515625 50.796875 4.046875 
Q 43.703125 -1.421875 29.984375 -1.421875 
Q 24.8125 -1.421875 18.96875 -0.25 
Q 13.140625 0.921875 6.890625 3.21875 
L 6.890625 13.375 
Q 12.890625 10.015625 18.65625 8.296875 
Q 24.421875 6.59375 29.984375 6.59375 
Q 38.421875 6.59375 43.015625 9.90625 
Q 47.609375 13.234375 47.609375 19.390625 
Q 47.609375 24.75 44.3125 27.78125 
Q 41.015625 30.8125 33.5 32.328125 
L 27.484375 33.5 
Q 16.453125 35.6875 11.515625 40.375 
Q 6.59375 45.0625 6.59375 53.421875 
Q 6.59375 63.09375 13.40625 68.65625 
Q 20.21875 74.21875 32.171875 74.21875 
Q 37.3125 74.21875 42.625 73.28125 
Q 47.953125 72.359375 53.515625 70.515625 
z
" id="DejaVuSans-83"/>
        <path d="M 56.203125 29.59375 
L 56.203125 25.203125 
L 14.890625 25.203125 
Q 15.484375 15.921875 20.484375 11.0625 
Q 25.484375 6.203125 34.421875 6.203125 
Q 39.59375 6.203125 44.453125 7.46875 
Q 49.3125 8.734375 54.109375 11.28125 
L 54.109375 2.78125 
Q 49.265625 0.734375 44.1875 -0.34375 
Q 39.109375 -1.421875 33.890625 -1.421875 
Q 20.796875 -1.421875 13.15625 6.1875 
Q 5.515625 13.8125 5.515625 26.8125 
Q 5.515625 40.234375 12.765625 48.109375 
Q 20.015625 56 32.328125 56 
Q 43.359375 56 49.78125 48.890625 
Q 56.203125 41.796875 56.203125 29.59375 
z
M 47.21875 32.234375 
Q 47.125 39.59375 43.09375 43.984375 
Q 39.0625 48.390625 32.421875 48.390625 
Q 24.90625 48.390625 20.390625 44.140625 
Q 15.875 39.890625 15.1875 32.171875 
z
" id="DejaVuSans-101"/>
        <path d="M 18.109375 8.203125 
L 18.109375 -20.796875 
L 9.078125 -20.796875 
L 9.078125 54.6875 
L 18.109375 54.6875 
L 18.109375 46.390625 
Q 20.953125 51.265625 25.265625 53.625 
Q 29.59375 56 35.59375 56 
Q 45.5625 56 51.78125 48.09375 
Q 58.015625 40.1875 58.015625 27.296875 
Q 58.015625 14.40625 51.78125 6.484375 
Q 45.5625 -1.421875 35.59375 -1.421875 
Q 29.59375 -1.421875 25.265625 0.953125 
Q 20.953125 3.328125 18.109375 8.203125 
z
M 48.6875 27.296875 
Q 48.6875 37.203125 44.609375 42.84375 
Q 40.53125 48.484375 33.40625 48.484375 
Q 26.265625 48.484375 22.1875 42.84375 
Q 18.109375 37.203125 18.109375 27.296875 
Q 18.109375 17.390625 22.1875 11.75 
Q 26.265625 6.109375 33.40625 6.109375 
Q 40.53125 6.109375 44.609375 11.75 
Q 48.6875 17.390625 48.6875 27.296875 
z
" id="DejaVuSans-112"/>
       </defs>
       <use xlink:href="#DejaVuSans-83"/>
       <use x="63.476562" xlink:href="#DejaVuSans-101"/>
       <use x="125" xlink:href="#DejaVuSans-112"/>
      </g>
     </g>
    </g>
    <g id="xtick_7">
     <g id="line2d_7">
      <g>
       <use style="stroke:#000000;stroke-width:0.8;" x="426.724138" xlink:href="#m8d8eaad5d5" y="315"/>
      </g>
     </g>
     <g id="text_6">
      <!-- Oct -->
      <g transform="translate(418.078825 329.598437)scale(0.1 -0.1)">
       <defs>
        <path d="M 39.40625 66.21875 
Q 28.65625 66.21875 22.328125 58.203125 
Q 16.015625 50.203125 16.015625 36.375 
Q 16.015625 22.609375 22.328125 14.59375 
Q 28.65625 6.59375 39.40625 6.59375 
Q 50.140625 6.59375 56.421875 14.59375 
Q 62.703125 22.609375 62.703125 36.375 
Q 62.703125 50.203125 56.421875 58.203125 
Q 50.140625 66.21875 39.40625 66.21875 
z
M 39.40625 74.21875 
Q 54.734375 74.21875 63.90625 63.9375 
Q 73.09375 53.65625 73.09375 36.375 
Q 73.09375 19.140625 63.90625 8.859375 
Q 54.734375 -1.421875 39.40625 -1.421875 
Q 24.03125 -1.421875 14.8125 8.828125 
Q 5.609375 19.09375 5.609375 36.375 
Q 5.609375 53.65625 14.8125 63.9375 
Q 24.03125 74.21875 39.40625 74.21875 
z
" id="DejaVuSans-79"/>
        <path d="M 48.78125 52.59375 
L 48.78125 44.1875 
Q 44.96875 46.296875 41.140625 47.34375 
Q 37.3125 48.390625 33.40625 48.390625 
Q 24.65625 48.390625 19.8125 42.84375 
Q 14.984375 37.3125 14.984375 27.296875 
Q 14.984375 17.28125 19.8125 11.734375 
Q 24.65625 6.203125 33.40625 6.203125 
Q 37.3125 6.203125 41.140625 7.25 
Q 44.96875 8.296875 48.78125 10.40625 
L 48.78125 2.09375 
Q 45.015625 0.34375 40.984375 -0.53125 
Q 36.96875 -1.421875 32.421875 -1.421875 
Q 20.0625 -1.421875 12.78125 6.34375 
Q 5.515625 14.109375 5.515625 27.296875 
Q 5.515625 40.671875 12.859375 48.328125 
Q 20.21875 56 33.015625 56 
Q 37.15625 56 41.109375 55.140625 
Q 45.0625 54.296875 48.78125 52.59375 
z
" id="DejaVuSans-99"/>
        <path d="M 18.3125 70.21875 
L 18.3125 54.6875 
L 36.8125 54.6875 
L 36.8125 47.703125 
L 18.3125 47.703125 
L 18.3125 18.015625 
Q 18.3125 11.328125 20.140625 9.421875 
Q 21.96875 7.515625 27.59375 7.515625 
L 36.8125 7.515625 
L 36.8125 0 
L 27.59375 0 
Q 17.1875 0 13.234375 3.875 
Q 9.28125 7.765625 9.28125 18.015625 
L 9.28125 47.703125 
L 2.6875 47.703125 
L 2.6875 54.6875 
L 9.28125 54.6875 
L 9.28125 70.21875 
z
" id="DejaVuSans-116"/>
       </defs>
       <use xlink:href="#DejaVuSans-79"/>
       <use x="78.710938" xlink:href="#DejaVuSans-99"/>
       <use x="133.691406" xlink:href="#DejaVuSans-116"/>
      </g>
     </g>
    </g>
    <g id="xtick_8">
     <g id="line2d_8">
      <g>
       <use style="stroke:#000000;stroke-width:0.8;" x="486.372414" xlink:href="#m8d8eaad5d5" y="315"/>
      </g>
     </g>
     <g id="text_7">
      <!-- Nov -->
      <g transform="translate(476.613039 329.598437)scale(0.1 -0.1)">
       <defs>
        <path d="M 9.8125 72.90625 
L 23.09375 72.90625 
L 55.421875 11.921875 
L 55.421875 72.90625 
L 64.984375 72.90625 
L 64.984375 0 
L 51.703125 0 
L 19.390625 60.984375 
L 19.390625 0 
L 9.8125 0 
z
" id="DejaVuSans-78"/>
        <path d="M 30.609375 48.390625 
Q 23.390625 48.390625 19.1875 42.75 
Q 14.984375 37.109375 14.984375 27.296875 
Q 14.984375 17.484375 19.15625 11.84375 
Q 23.34375 6.203125 30.609375 6.203125 
Q 37.796875 6.203125 41.984375 11.859375 
Q 46.1875 17.53125 46.1875 27.296875 
Q 46.1875 37.015625 41.984375 42.703125 
Q 37.796875 48.390625 30.609375 48.390625 
z
M 30.609375 56 
Q 42.328125 56 49.015625 48.375 
Q 55.71875 40.765625 55.71875 27.296875 
Q 55.71875 13.875 49.015625 6.21875 
Q 42.328125 -1.421875 30.609375 -1.421875 
Q 18.84375 -1.421875 12.171875 6.21875 
Q 5.515625 13.875 5.515625 27.296875 
Q 5.515625 40.765625 12.171875 48.375 
Q 18.84375 56 30.609375 56 
z
" id="DejaVuSans-111"/>
        <path d="M 2.984375 54.6875 
L 12.5 54.6875 
L 29.59375 8.796875 
L 46.6875 54.6875 
L 56.203125 54.6875 
L 35.6875 0 
L 23.484375 0 
z
" id="DejaVuSans-118"/>
       </defs>
       <use xlink:href="#DejaVuSans-78"/>
       <use x="74.804688" xlink:href="#DejaVuSans-111"/>
       <use x="135.986328" xlink:href="#DejaVuSans-118"/>
      </g>
     </g>
    </g>
    <g id="xtick_9">
     <g id="line2d_9">
      <g>
       <use style="stroke:#000000;stroke-width:0.8;" x="544.096552" xlink:href="#m8d8eaad5d5" y="315"/>
      </g>
     </g>
     <g id="text_8">
      <!-- Dec -->
      <g transform="translate(534.42077 329.598437)scale(0.1 -0.1)">
       <defs>
        <path d="M 19.671875 64.796875 
L 19.671875 8.109375 
L 31.59375 8.109375 
Q 46.6875 8.109375 53.6875 14.9375 
Q 60.6875 21.78125 60.6875 36.53125 
Q 60.6875 51.171875 53.6875 57.984375 
Q 46.6875 64.796875 31.59375 64.796875 
z
M 9.8125 72.90625 
L 30.078125 72.90625 
Q 51.265625 72.90625 61.171875 64.09375 
Q 71.09375 55.28125 71.09375 36.53125 
Q 71.09375 17.671875 61.125 8.828125 
Q 51.171875 0 30.078125 0 
L 9.8125 0 
z
" id="DejaVuSans-68"/>
       </defs>
       <use xlink:href="#DejaVuSans-68"/>
       <use x="77.001953" xlink:href="#DejaVuSans-101"/>
       <use x="138.525391" xlink:href="#DejaVuSans-99"/>
      </g>
     </g>
    </g>
    <g id="xtick_10">
     <g id="line2d_10">
      <g>
       <use style="stroke:#000000;stroke-width:0.8;" x="603.744828" xlink:href="#m8d8eaad5d5" y="315"/>
      </g>
     </g>
     <g id="text_9">
      <!-- Jan -->
      <g transform="translate(596.037015 329.598437)scale(0.1 -0.1)">
       <use xlink:href="#DejaVuSans-74"/>
       <use x="29.492188" xlink:href="#DejaVuSans-97"/>
       <use x="90.771484" xlink:href="#DejaVuSans-110"/>
      </g>
      <!-- 2021 -->
      <g transform="translate(591.019828 340.79625)scale(0.1 -0.1)">
       <defs>
        <path d="M 19.1875 8.296875 
L 53.609375 8.296875 
L 53.609375 0 
L 7.328125 0 
L 7.328125 8.296875 
Q 12.9375 14.109375 22.625 23.890625 
Q 32.328125 33.6875 34.8125 36.53125 
Q 39.546875 41.84375 41.421875 45.53125 
Q 43.3125 49.21875 43.3125 52.78125 
Q 43.3125 58.59375 39.234375 62.25 
Q 35.15625 65.921875 28.609375 65.921875 
Q 23.96875 65.921875 18.8125 64.3125 
Q 13.671875 62.703125 7.8125 59.421875 
L 7.8125 69.390625 
Q 13.765625 71.78125 18.9375 73 
Q 24.125 74.21875 28.421875 74.21875 
Q 39.75 74.21875 46.484375 68.546875 
Q 53.21875 62.890625 53.21875 53.421875 
Q 53.21875 48.921875 51.53125 44.890625 
Q 49.859375 40.875 45.40625 35.40625 
Q 44.1875 33.984375 37.640625 27.21875 
Q 31.109375 20.453125 19.1875 8.296875 
z
" id="DejaVuSans-50"/>
        <path d="M 31.78125 66.40625 
Q 24.171875 66.40625 20.328125 58.90625 
Q 16.5 51.421875 16.5 36.375 
Q 16.5 21.390625 20.328125 13.890625 
Q 24.171875 6.390625 31.78125 6.390625 
Q 39.453125 6.390625 43.28125 13.890625 
Q 47.125 21.390625 47.125 36.375 
Q 47.125 51.421875 43.28125 58.90625 
Q 39.453125 66.40625 31.78125 66.40625 
z
M 31.78125 74.21875 
Q 44.046875 74.21875 50.515625 64.515625 
Q 56.984375 54.828125 56.984375 36.375 
Q 56.984375 17.96875 50.515625 8.265625 
Q 44.046875 -1.421875 31.78125 -1.421875 
Q 19.53125 -1.421875 13.0625 8.265625 
Q 6.59375 17.96875 6.59375 36.375 
Q 6.59375 54.828125 13.0625 64.515625 
Q 19.53125 74.21875 31.78125 74.21875 
z
" id="DejaVuSans-48"/>
        <path d="M 12.40625 8.296875 
L 28.515625 8.296875 
L 28.515625 63.921875 
L 10.984375 60.40625 
L 10.984375 69.390625 
L 28.421875 72.90625 
L 38.28125 72.90625 
L 38.28125 8.296875 
L 54.390625 8.296875 
L 54.390625 0 
L 12.40625 0 
z
" id="DejaVuSans-49"/>
       </defs>
       <use xlink:href="#DejaVuSans-50"/>
       <use x="63.623047" xlink:href="#DejaVuSans-48"/>
       <use x="127.246094" xlink:href="#DejaVuSans-50"/>
       <use x="190.869141" xlink:href="#DejaVuSans-49"/>
      </g>
     </g>
    </g>
    <g id="xtick_11">
     <g id="line2d_11">
      <g>
       <use style="stroke:#000000;stroke-width:0.8;" x="648" xlink:href="#m8d8eaad5d5" y="315"/>
      </g>
     </g>
    </g>
    <g id="xtick_12">
     <g id="line2d_12">
      <defs>
       <path d="M 0 0 
L 0 2 
" id="m70186c69b3" style="stroke:#000000;stroke-width:0.6;"/>
      </defs>
      <g>
       <use style="stroke:#000000;stroke-width:0.6;" x="97.696552" xlink:href="#m70186c69b3" y="315"/>
      </g>
     </g>
    </g>
    <g id="xtick_13">
     <g id="line2d_13">
      <g>
       <use style="stroke:#000000;stroke-width:0.6;" x="111.165517" xlink:href="#m70186c69b3" y="315"/>
      </g>
     </g>
    </g>
    <g id="xtick_14">
     <g id="line2d_14">
      <g>
       <use style="stroke:#000000;stroke-width:0.6;" x="124.634483" xlink:href="#m70186c69b3" y="315"/>
      </g>
     </g>
    </g>
    <g id="xtick_15">
     <g id="line2d_15">
      <g>
       <use style="stroke:#000000;stroke-width:0.6;" x="138.103448" xlink:href="#m70186c69b3" y="315"/>
      </g>
     </g>
    </g>
    <g id="xtick_16">
     <g id="line2d_16">
      <g>
       <use style="stroke:#000000;stroke-width:0.6;" x="151.572414" xlink:href="#m70186c69b3" y="315"/>
      </g>
     </g>
    </g>
    <g id="xtick_17">
     <g id="line2d_17">
      <g>
       <use style="stroke:#000000;stroke-width:0.6;" x="165.041379" xlink:href="#m70186c69b3" y="315"/>
      </g>
     </g>
    </g>
    <g id="xtick_18">
     <g id="line2d_18">
      <g>
       <use style="stroke:#000000;stroke-width:0.6;" x="178.510345" xlink:href="#m70186c69b3" y="315"/>
      </g>
     </g>
    </g>
    <g id="xtick_19">
     <g id="line2d_19">
      <g>
       <use style="stroke:#000000;stroke-width:0.6;" x="205.448276" xlink:href="#m70186c69b3" y="315"/>
      </g>
     </g>
    </g>
    <g id="xtick_20">
     <g id="line2d_20">
      <g>
       <use style="stroke:#000000;stroke-width:0.6;" x="218.917241" xlink:href="#m70186c69b3" y="315"/>
      </g>
     </g>
    </g>
    <g id="xtick_21">
     <g id="line2d_21">
      <g>
       <use style="stroke:#000000;stroke-width:0.6;" x="232.386207" xlink:href="#m70186c69b3" y="315"/>
      </g>
     </g>
    </g>
    <g id="xtick_22">
     <g id="line2d_22">
      <g>
       <use style="stroke:#000000;stroke-width:0.6;" x="245.855172" xlink:href="#m70186c69b3" y="315"/>
      </g>
     </g>
    </g>
    <g id="xtick_23">
     <g id="line2d_23">
      <g>
       <use style="stroke:#000000;stroke-width:0.6;" x="259.324138" xlink:href="#m70186c69b3" y="315"/>
      </g>
     </g>
    </g>
    <g id="xtick_24">
     <g id="line2d_24">
      <g>
       <use style="stroke:#000000;stroke-width:0.6;" x="272.793103" xlink:href="#m70186c69b3" y="315"/>
      </g>
     </g>
    </g>
    <g id="xtick_25">
     <g id="line2d_25">
      <g>
       <use style="stroke:#000000;stroke-width:0.6;" x="286.262069" xlink:href="#m70186c69b3" y="315"/>
      </g>
     </g>
    </g>
    <g id="xtick_26">
     <g id="line2d_26">
      <g>
       <use style="stroke:#000000;stroke-width:0.6;" x="299.731034" xlink:href="#m70186c69b3" y="315"/>
      </g>
     </g>
    </g>
    <g id="xtick_27">
     <g id="line2d_27">
      <g>
       <use style="stroke:#000000;stroke-width:0.6;" x="313.2" xlink:href="#m70186c69b3" y="315"/>
      </g>
     </g>
    </g>
    <g id="xtick_28">
     <g id="line2d_28">
      <g>
       <use style="stroke:#000000;stroke-width:0.6;" x="326.668966" xlink:href="#m70186c69b3" y="315"/>
      </g>
     </g>
    </g>
    <g id="xtick_29">
     <g id="line2d_29">
      <g>
       <use style="stroke:#000000;stroke-width:0.6;" x="340.137931" xlink:href="#m70186c69b3" y="315"/>
      </g>
     </g>
    </g>
    <g id="xtick_30">
     <g id="line2d_30">
      <g>
       <use style="stroke:#000000;stroke-width:0.6;" x="353.606897" xlink:href="#m70186c69b3" y="315"/>
      </g>
     </g>
    </g>
    <g id="xtick_31">
     <g id="line2d_31">
      <g>
       <use style="stroke:#000000;stroke-width:0.6;" x="367.075862" xlink:href="#m70186c69b3" y="315"/>
      </g>
     </g>
    </g>
    <g id="xtick_32">
     <g id="line2d_32">
      <g>
       <use style="stroke:#000000;stroke-width:0.6;" x="380.544828" xlink:href="#m70186c69b3" y="315"/>
      </g>
     </g>
    </g>
    <g id="xtick_33">
     <g id="line2d_33">
      <g>
       <use style="stroke:#000000;stroke-width:0.6;" x="394.013793" xlink:href="#m70186c69b3" y="315"/>
      </g>
     </g>
    </g>
    <g id="xtick_34">
     <g id="line2d_34">
      <g>
       <use style="stroke:#000000;stroke-width:0.6;" x="407.482759" xlink:href="#m70186c69b3" y="315"/>
      </g>
     </g>
    </g>
    <g id="xtick_35">
     <g id="line2d_35">
      <g>
       <use style="stroke:#000000;stroke-width:0.6;" x="420.951724" xlink:href="#m70186c69b3" y="315"/>
      </g>
     </g>
    </g>
    <g id="xtick_36">
     <g id="line2d_36">
      <g>
       <use style="stroke:#000000;stroke-width:0.6;" x="434.42069" xlink:href="#m70186c69b3" y="315"/>
      </g>
     </g>
    </g>
    <g id="xtick_37">
     <g id="line2d_37">
      <g>
       <use style="stroke:#000000;stroke-width:0.6;" x="447.889655" xlink:href="#m70186c69b3" y="315"/>
      </g>
     </g>
    </g>
    <g id="xtick_38">
     <g id="line2d_38">
      <g>
       <use style="stroke:#000000;stroke-width:0.6;" x="461.358621" xlink:href="#m70186c69b3" y="315"/>
      </g>
     </g>
    </g>
    <g id="xtick_39">
     <g id="line2d_39">
      <g>
       <use style="stroke:#000000;stroke-width:0.6;" x="474.827586" xlink:href="#m70186c69b3" y="315"/>
      </g>
     </g>
    </g>
    <g id="xtick_40">
     <g id="line2d_40">
      <g>
       <use style="stroke:#000000;stroke-width:0.6;" x="488.296552" xlink:href="#m70186c69b3" y="315"/>
      </g>
     </g>
    </g>
    <g id="xtick_41">
     <g id="line2d_41">
      <g>
       <use style="stroke:#000000;stroke-width:0.6;" x="501.765517" xlink:href="#m70186c69b3" y="315"/>
      </g>
     </g>
    </g>
    <g id="xtick_42">
     <g id="line2d_42">
      <g>
       <use style="stroke:#000000;stroke-width:0.6;" x="515.234483" xlink:href="#m70186c69b3" y="315"/>
      </g>
     </g>
    </g>
    <g id="xtick_43">
     <g id="line2d_43">
      <g>
       <use style="stroke:#000000;stroke-width:0.6;" x="528.703448" xlink:href="#m70186c69b3" y="315"/>
      </g>
     </g>
    </g>
    <g id="xtick_44">
     <g id="line2d_44">
      <g>
       <use style="stroke:#000000;stroke-width:0.6;" x="542.172414" xlink:href="#m70186c69b3" y="315"/>
      </g>
     </g>
    </g>
    <g id="xtick_45">
     <g id="line2d_45">
      <g>
       <use style="stroke:#000000;stroke-width:0.6;" x="555.641379" xlink:href="#m70186c69b3" y="315"/>
      </g>
     </g>
    </g>
    <g id="xtick_46">
     <g id="line2d_46">
      <g>
       <use style="stroke:#000000;stroke-width:0.6;" x="569.110345" xlink:href="#m70186c69b3" y="315"/>
      </g>
     </g>
    </g>
    <g id="xtick_47">
     <g id="line2d_47">
      <g>
       <use style="stroke:#000000;stroke-width:0.6;" x="582.57931" xlink:href="#m70186c69b3" y="315"/>
      </g>
     </g>
    </g>
    <g id="xtick_48">
     <g id="line2d_48">
      <g>
       <use style="stroke:#000000;stroke-width:0.6;" x="596.048276" xlink:href="#m70186c69b3" y="315"/>
      </g>
     </g>
    </g>
    <g id="xtick_49">
     <g id="line2d_49">
      <g>
       <use style="stroke:#000000;stroke-width:0.6;" x="609.517241" xlink:href="#m70186c69b3" y="315"/>
      </g>
     </g>
    </g>
    <g id="xtick_50">
     <g id="line2d_50">
      <g>
       <use style="stroke:#000000;stroke-width:0.6;" x="622.986207" xlink:href="#m70186c69b3" y="315"/>
      </g>
     </g>
    </g>
    <g id="xtick_51">
     <g id="line2d_51">
      <g>
       <use style="stroke:#000000;stroke-width:0.6;" x="636.455172" xlink:href="#m70186c69b3" y="315"/>
      </g>
     </g>
    </g>
    <g id="text_10">
     <!-- date -->
     <g transform="translate(357.725 354.474375)scale(0.1 -0.1)">
      <defs>
       <path d="M 45.40625 46.390625 
L 45.40625 75.984375 
L 54.390625 75.984375 
L 54.390625 0 
L 45.40625 0 
L 45.40625 8.203125 
Q 42.578125 3.328125 38.25 0.953125 
Q 33.9375 -1.421875 27.875 -1.421875 
Q 17.96875 -1.421875 11.734375 6.484375 
Q 5.515625 14.40625 5.515625 27.296875 
Q 5.515625 40.1875 11.734375 48.09375 
Q 17.96875 56 27.875 56 
Q 33.9375 56 38.25 53.625 
Q 42.578125 51.265625 45.40625 46.390625 
z
M 14.796875 27.296875 
Q 14.796875 17.390625 18.875 11.75 
Q 22.953125 6.109375 30.078125 6.109375 
Q 37.203125 6.109375 41.296875 11.75 
Q 45.40625 17.390625 45.40625 27.296875 
Q 45.40625 37.203125 41.296875 42.84375 
Q 37.203125 48.484375 30.078125 48.484375 
Q 22.953125 48.484375 18.875 42.84375 
Q 14.796875 37.203125 14.796875 27.296875 
z
" id="DejaVuSans-100"/>
      </defs>
      <use xlink:href="#DejaVuSans-100"/>
      <use x="63.476562" xlink:href="#DejaVuSans-97"/>
      <use x="124.755859" xlink:href="#DejaVuSans-116"/>
      <use x="163.964844" xlink:href="#DejaVuSans-101"/>
     </g>
    </g>
   </g>
   <g id="matplotlib.axis_2">
    <g id="ytick_1">
     <g id="line2d_52">
      <path clip-path="url(#p6f2d46f735)" d="M 90 272.411766 
L 648 272.411766 
" style="fill:none;stroke:#b0b0b0;stroke-dasharray:0.8,1.32;stroke-dashoffset:0;stroke-width:0.8;"/>
     </g>
     <g id="line2d_53">
      <defs>
       <path d="M 0 0 
L -3.5 0 
" id="mbcaeff1145" style="stroke:#000000;stroke-width:0.8;"/>
      </defs>
      <g>
       <use style="stroke:#000000;stroke-width:0.8;" x="90" xlink:href="#mbcaeff1145" y="272.411766"/>
      </g>
     </g>
     <g id="text_11">
      <!-- 0.5 -->
      <g transform="translate(67.096875 276.210985)scale(0.1 -0.1)">
       <defs>
        <path d="M 10.6875 12.40625 
L 21 12.40625 
L 21 0 
L 10.6875 0 
z
" id="DejaVuSans-46"/>
        <path d="M 10.796875 72.90625 
L 49.515625 72.90625 
L 49.515625 64.59375 
L 19.828125 64.59375 
L 19.828125 46.734375 
Q 21.96875 47.46875 24.109375 47.828125 
Q 26.265625 48.1875 28.421875 48.1875 
Q 40.625 48.1875 47.75 41.5 
Q 54.890625 34.8125 54.890625 23.390625 
Q 54.890625 11.625 47.5625 5.09375 
Q 40.234375 -1.421875 26.90625 -1.421875 
Q 22.3125 -1.421875 17.546875 -0.640625 
Q 12.796875 0.140625 7.71875 1.703125 
L 7.71875 11.625 
Q 12.109375 9.234375 16.796875 8.0625 
Q 21.484375 6.890625 26.703125 6.890625 
Q 35.15625 6.890625 40.078125 11.328125 
Q 45.015625 15.765625 45.015625 23.390625 
Q 45.015625 31 40.078125 35.4375 
Q 35.15625 39.890625 26.703125 39.890625 
Q 22.75 39.890625 18.8125 39.015625 
Q 14.890625 38.140625 10.796875 36.28125 
z
" id="DejaVuSans-53"/>
       </defs>
       <use xlink:href="#DejaVuSans-48"/>
       <use x="63.623047" xlink:href="#DejaVuSans-46"/>
       <use x="95.410156" xlink:href="#DejaVuSans-53"/>
      </g>
     </g>
    </g>
    <g id="ytick_2">
     <g id="line2d_54">
      <path clip-path="url(#p6f2d46f735)" d="M 90 221.033837 
L 648 221.033837 
" style="fill:none;stroke:#b0b0b0;stroke-dasharray:0.8,1.32;stroke-dashoffset:0;stroke-width:0.8;"/>
     </g>
     <g id="line2d_55">
      <g>
       <use style="stroke:#000000;stroke-width:0.8;" x="90" xlink:href="#mbcaeff1145" y="221.033837"/>
      </g>
     </g>
     <g id="text_12">
      <!-- 1.0 -->
      <g transform="translate(67.096875 224.833056)scale(0.1 -0.1)">
       <use xlink:href="#DejaVuSans-49"/>
       <use x="63.623047" xlink:href="#DejaVuSans-46"/>
       <use x="95.410156" xlink:href="#DejaVuSans-48"/>
      </g>
     </g>
    </g>
    <g id="ytick_3">
     <g id="line2d_56">
      <path clip-path="url(#p6f2d46f735)" d="M 90 169.655908 
L 648 169.655908 
" style="fill:none;stroke:#b0b0b0;stroke-dasharray:0.8,1.32;stroke-dashoffset:0;stroke-width:0.8;"/>
     </g>
     <g id="line2d_57">
      <g>
       <use style="stroke:#000000;stroke-width:0.8;" x="90" xlink:href="#mbcaeff1145" y="169.655908"/>
      </g>
     </g>
     <g id="text_13">
      <!-- 1.5 -->
      <g transform="translate(67.096875 173.455126)scale(0.1 -0.1)">
       <use xlink:href="#DejaVuSans-49"/>
       <use x="63.623047" xlink:href="#DejaVuSans-46"/>
       <use x="95.410156" xlink:href="#DejaVuSans-53"/>
      </g>
     </g>
    </g>
    <g id="ytick_4">
     <g id="line2d_58">
      <path clip-path="url(#p6f2d46f735)" d="M 90 118.277978 
L 648 118.277978 
" style="fill:none;stroke:#b0b0b0;stroke-dasharray:0.8,1.32;stroke-dashoffset:0;stroke-width:0.8;"/>
     </g>
     <g id="line2d_59">
      <g>
       <use style="stroke:#000000;stroke-width:0.8;" x="90" xlink:href="#mbcaeff1145" y="118.277978"/>
      </g>
     </g>
     <g id="text_14">
      <!-- 2.0 -->
      <g transform="translate(67.096875 122.077197)scale(0.1 -0.1)">
       <use xlink:href="#DejaVuSans-50"/>
       <use x="63.623047" xlink:href="#DejaVuSans-46"/>
       <use x="95.410156" xlink:href="#DejaVuSans-48"/>
      </g>
     </g>
    </g>
    <g id="ytick_5">
     <g id="line2d_60">
      <path clip-path="url(#p6f2d46f735)" d="M 90 66.900049 
L 648 66.900049 
" style="fill:none;stroke:#b0b0b0;stroke-dasharray:0.8,1.32;stroke-dashoffset:0;stroke-width:0.8;"/>
     </g>
     <g id="line2d_61">
      <g>
       <use style="stroke:#000000;stroke-width:0.8;" x="90" xlink:href="#mbcaeff1145" y="66.900049"/>
      </g>
     </g>
     <g id="text_15">
      <!-- 2.5 -->
      <g transform="translate(67.096875 70.699268)scale(0.1 -0.1)">
       <use xlink:href="#DejaVuSans-50"/>
       <use x="63.623047" xlink:href="#DejaVuSans-46"/>
       <use x="95.410156" xlink:href="#DejaVuSans-53"/>
      </g>
     </g>
    </g>
   </g>
   <g id="line2d_62">
    <path clip-path="url(#p6f2d46f735)" d="M 90 290.278941 
L 91.924138 290.237229 
L 93.848276 289.862276 
L 95.772414 289.955102 
L 97.696552 289.366428 
L 99.62069 289.194938 
L 101.544828 288.693976 
L 103.468966 287.570478 
L 105.393103 287.073377 
L 107.317241 286.222807 
L 109.241379 285.020002 
L 111.165517 284.150411 
L 113.089655 283.429725 
L 115.013793 282.339984 
L 118.862069 279.798592 
L 120.786207 277.85641 
L 122.710345 276.458783 
L 124.634483 274.158012 
L 126.558621 272.250984 
L 128.482759 270.099045 
L 130.406897 267.652984 
L 134.255172 263.647743 
L 138.103448 257.889995 
L 140.027586 254.648504 
L 141.951724 251.638573 
L 145.8 244.940498 
L 149.648276 237.725327 
L 151.572414 234.36727 
L 153.496552 230.387527 
L 155.42069 225.993809 
L 157.344828 221.940053 
L 159.268966 216.99971 
L 161.193103 212.769548 
L 166.965517 199.110937 
L 168.889655 193.294096 
L 170.813793 188.808788 
L 172.737931 183.115637 
L 174.662069 178.539697 
L 178.510345 165.473494 
L 180.434483 161.045037 
L 182.358621 156.223466 
L 184.282759 150.142116 
L 186.206897 145.435891 
L 193.903448 123.454531 
L 195.827586 118.518199 
L 197.751724 115.643044 
L 199.675862 111.670211 
L 201.6 108.465553 
L 203.524138 103.098802 
L 205.448276 101.695393 
L 207.372414 99.250481 
L 211.22069 98.510719 
L 213.144828 99.146335 
L 215.068966 98.823772 
L 216.993103 100.349489 
L 218.917241 102.699153 
L 220.841379 103.921841 
L 222.765517 106.406273 
L 224.689655 109.886919 
L 226.613793 114.16779 
L 228.537931 119.325874 
L 230.462069 121.879487 
L 232.386207 126.382052 
L 236.234483 132.501738 
L 238.158621 134.684757 
L 240.082759 138.10809 
L 242.006897 140.027 
L 243.931034 142.811113 
L 245.855172 144.83477 
L 247.77931 146.263696 
L 249.703448 147.033377 
L 251.627586 149.883079 
L 253.551724 153.613173 
L 255.475862 155.893669 
L 257.4 157.909999 
L 259.324138 160.546781 
L 261.248276 163.928416 
L 263.172414 167.965251 
L 267.02069 178.248634 
L 268.944828 183.210323 
L 270.868966 188.726752 
L 272.793103 193.63171 
L 276.641379 204.772639 
L 280.489655 214.51748 
L 282.413793 218.870869 
L 284.337931 221.821012 
L 286.262069 225.345161 
L 288.186207 227.000489 
L 290.110345 228.320121 
L 292.034483 230.398308 
L 293.958621 230.835522 
L 295.882759 230.573651 
L 297.806897 230.064726 
L 301.655172 227.989247 
L 303.57931 226.876345 
L 305.503448 225.189508 
L 307.427586 223.974442 
L 309.351724 222.3447 
L 311.275862 219.613056 
L 313.2 217.746915 
L 315.124138 215.313372 
L 317.048276 213.93062 
L 320.896552 209.062973 
L 324.744828 205.732434 
L 326.668966 203.564046 
L 328.593103 203.100294 
L 330.517241 202.970509 
L 332.441379 202.221556 
L 334.365517 202.964063 
L 336.289655 204.413969 
L 338.213793 205.335343 
L 340.137931 207.6058 
L 343.986207 211.294313 
L 345.910345 212.922733 
L 347.834483 215.070016 
L 349.758621 217.651349 
L 351.682759 219.40559 
L 353.606897 220.230691 
L 355.531034 222.175081 
L 357.455172 224.62759 
L 359.37931 226.287029 
L 361.303448 228.443017 
L 367.075862 233.476011 
L 369 235.642482 
L 370.924138 236.440221 
L 374.772414 238.523192 
L 376.696552 238.898667 
L 378.62069 240.197889 
L 380.544828 240.565034 
L 384.393103 243.044376 
L 386.317241 243.788944 
L 390.165517 244.805215 
L 394.013793 246.300841 
L 399.786207 247.931196 
L 401.710345 248.559852 
L 403.634483 248.100676 
L 405.558621 248.617984 
L 409.406897 248.354589 
L 411.331034 248.058257 
L 413.255172 248.189374 
L 419.027586 246.43818 
L 420.951724 245.160451 
L 422.875862 244.251257 
L 424.8 243.049414 
L 426.724138 241.335664 
L 430.572414 238.098671 
L 432.496552 235.288955 
L 434.42069 233.455635 
L 436.344828 230.766609 
L 438.268966 228.729092 
L 440.193103 227.233469 
L 442.117241 224.532575 
L 444.041379 223.048746 
L 445.965517 221.282652 
L 447.889655 218.989716 
L 449.813793 218.377528 
L 451.737931 217.631069 
L 455.586207 215.534403 
L 457.510345 214.047056 
L 459.434483 213.125021 
L 461.358621 211.973377 
L 463.282759 211.551649 
L 465.206897 211.591826 
L 467.131034 210.251211 
L 469.055172 210.003328 
L 470.97931 208.41658 
L 472.903448 208.882394 
L 474.827586 207.605906 
L 476.751724 207.224086 
L 478.675862 207.006631 
L 482.524138 206.153663 
L 484.448276 206.546736 
L 486.372414 207.434812 
L 488.296552 207.86553 
L 490.22069 209.101483 
L 494.068966 211.142904 
L 495.993103 211.474977 
L 497.917241 212.424704 
L 499.841379 212.588034 
L 501.765517 213.737856 
L 503.689655 214.047836 
L 505.613793 213.860401 
L 507.537931 214.185775 
L 509.462069 215.16432 
L 511.386207 215.174645 
L 513.310345 215.546209 
L 515.234483 215.461295 
L 517.158621 215.215392 
L 519.082759 215.405614 
L 521.006897 217.067687 
L 522.931034 217.272092 
L 524.855172 216.668819 
L 528.703448 216.951346 
L 530.627586 215.674473 
L 532.551724 215.806349 
L 534.475862 215.329578 
L 536.4 214.135301 
L 538.324138 214.165842 
L 540.248276 213.608945 
L 542.172414 213.39055 
L 546.02069 211.718728 
L 547.944828 211.71106 
L 549.868966 211.464303 
L 551.793103 211.523936 
L 553.717241 211.11073 
L 555.641379 211.354864 
L 557.565517 212.130023 
L 563.337931 212.068286 
L 565.262069 212.43669 
L 567.186207 211.773778 
L 569.110345 211.42802 
L 571.034483 211.750838 
L 572.958621 211.294417 
L 574.882759 212.062966 
L 576.806897 212.477972 
L 578.731034 212.191943 
L 580.655172 212.695335 
L 582.57931 213.040622 
L 584.503448 214.029249 
L 586.427586 215.513584 
L 588.351724 215.910221 
L 594.124138 216.496592 
L 596.048276 217.836001 
L 597.972414 218.962001 
L 599.896552 219.390882 
L 601.82069 221.605861 
L 603.744828 222.463108 
L 605.668966 224.320441 
L 607.593103 225.376974 
L 609.517241 227.826798 
L 611.441379 228.710753 
L 613.365517 230.433828 
L 615.289655 232.588691 
L 619.137931 235.83737 
L 624.910345 239.04331 
L 626.834483 240.827196 
L 628.758621 241.789394 
L 630.682759 242.465488 
L 632.606897 243.27327 
L 634.531034 243.822487 
L 638.37931 243.989869 
L 640.303448 243.72255 
L 642.227586 244.970727 
L 644.151724 244.26097 
L 646.075862 244.839441 
L 649.924138 243.480582 
L 651.848276 244.041942 
L 653.772414 244.761576 
L 657.62069 245.504001 
L 659.544828 244.616854 
L 661.468966 244.296281 
L 663.393103 244.358061 
L 663.393103 244.358061 
" style="fill:none;stroke:#fc997a;stroke-linecap:square;stroke-width:1.5;"/>
   </g>
   <g id="line2d_63">
    <path clip-path="url(#p6f2d46f735)" d="M 90 221.033837 
L 648 221.033837 
" style="fill:none;stroke:#000000;stroke-dasharray:3.7,1.6;stroke-dashoffset:0;"/>
   </g>
   <g id="patch_3">
    <path d="M 90 315 
L 90 43.2 
" style="fill:none;stroke:#000000;stroke-linecap:square;stroke-linejoin:miter;stroke-width:0.8;"/>
   </g>
   <g id="patch_4">
    <path d="M 648 315 
L 648 43.2 
" style="fill:none;stroke:#000000;stroke-linecap:square;stroke-linejoin:miter;stroke-width:0.8;"/>
   </g>
   <g id="patch_5">
    <path d="M 90 315 
L 648 315 
" style="fill:none;stroke:#000000;stroke-linecap:square;stroke-linejoin:miter;stroke-width:0.8;"/>
   </g>
   <g id="patch_6">
    <path d="M 90 43.2 
L 648 43.2 
" style="fill:none;stroke:#000000;stroke-linecap:square;stroke-linejoin:miter;stroke-width:0.8;"/>
   </g>
   <g id="text_16">
    <!-- 412   $R_t$ -->
    <g transform="translate(317.52 37.2)scale(0.12 -0.12)">
     <defs>
      <path d="M 37.796875 64.3125 
L 12.890625 25.390625 
L 37.796875 25.390625 
z
M 35.203125 72.90625 
L 47.609375 72.90625 
L 47.609375 25.390625 
L 58.015625 25.390625 
L 58.015625 17.1875 
L 47.609375 17.1875 
L 47.609375 0 
L 37.796875 0 
L 37.796875 17.1875 
L 4.890625 17.1875 
L 4.890625 26.703125 
z
" id="DejaVuSans-52"/>
      <path id="DejaVuSans-32"/>
      <path d="M 18.171875 54.6875 
L 18.171875 -20.796875 
L 9.078125 -20.796875 
L 9.078125 54.6875 
z
" id="DejaVuSans-1503"/>
      <path d="M 18.171875 54.6875 
L 18.171875 0 
L 9.078125 0 
L 9.078125 54.6875 
z
" id="DejaVuSans-1493"/>
      <path d="M 47.359375 27.828125 
L 47.359375 0 
L 38.28125 0 
L 38.28125 27.828125 
Q 38.28125 31.390625 37.765625 34.265625 
Q 37.25 37.15625 36 39.71875 
Q 34.765625 42.28125 32.8125 43.984375 
Q 30.859375 45.703125 27.78125 46.703125 
Q 24.703125 47.703125 20.703125 47.703125 
L 4.296875 47.703125 
L 4.296875 54.6875 
L 20.65625 54.6875 
Q 26.8125 54.6875 31.46875 53.390625 
Q 36.140625 52.09375 39.109375 49.828125 
Q 42.09375 47.5625 43.96875 44.109375 
Q 45.84375 40.671875 46.59375 36.734375 
Q 47.359375 32.8125 47.359375 27.828125 
z
" id="DejaVuSans-1512"/>
      <path d="M 21 0 
L 11.8125 0 
L 4.296875 54.6875 
L 13.328125 54.6875 
L 16.890625 28.953125 
Q 19.234375 29 21.0625 29.359375 
Q 22.90625 29.734375 24.265625 30.53125 
Q 25.640625 31.34375 26.609375 32.203125 
Q 27.59375 33.0625 28.296875 34.625 
Q 29 36.1875 29.40625 37.46875 
Q 29.828125 38.765625 30.1875 41.03125 
Q 30.5625 43.3125 30.75 45 
Q 30.953125 46.6875 31.265625 49.640625 
Q 31.59375 52.59375 31.890625 54.6875 
L 39.9375 54.6875 
Q 39.0625 42 37.890625 36.96875 
Q 35.890625 28.609375 30.609375 25.25 
Q 25.984375 22.265625 17.828125 21.96875 
L 19.921875 6.984375 
Q 24.703125 6.984375 28.390625 7.34375 
Q 32.078125 7.71875 35.640625 8.6875 
Q 39.203125 9.671875 41.8125 11.296875 
Q 44.4375 12.9375 46.84375 15.5 
Q 49.265625 18.0625 50.953125 21.625 
Q 52.640625 25.203125 54 30 
Q 55.375 34.8125 56.203125 40.90625 
Q 57.03125 47.015625 57.515625 54.6875 
L 66.546875 54.6875 
Q 65.671875 46.578125 64.640625 40.421875 
Q 63.625 34.28125 62.125 28.703125 
Q 60.640625 23.140625 58.8125 19.15625 
Q 56.984375 15.1875 54.421875 11.84375 
Q 51.859375 8.5 48.703125 6.375 
Q 45.5625 4.25 41.375 2.75 
Q 37.203125 1.265625 32.25 0.625 
Q 27.296875 0 21 0 
z
" id="DejaVuSans-1513"/>
      <path d="M 19.140625 33.40625 
L 19.140625 0 
L 10.109375 0 
L 10.109375 29.6875 
z
M 56.25 27.828125 
L 56.25 0 
L 47.21875 0 
L 47.21875 29.6875 
Q 47.21875 40.234375 44.0625 43.96875 
Q 40.921875 47.703125 31.84375 47.703125 
L 9.078125 47.703125 
L 9.078125 54.6875 
L 31.734375 54.6875 
Q 45.265625 54.6875 50.75 48.578125 
Q 56.25 42.484375 56.25 27.828125 
z
" id="DejaVuSans-1492"/>
      <path d="M 56.25 29.59375 
L 56.25 0 
L 47.171875 0 
L 47.171875 30.90625 
Q 47.171875 40.578125 44 44.140625 
Q 40.828125 47.703125 31.84375 47.703125 
L 18.109375 47.703125 
L 18.109375 0 
L 9.078125 0 
L 9.078125 54.6875 
L 31.734375 54.6875 
Q 45.21875 54.6875 50.734375 48.828125 
Q 56.25 42.96875 56.25 29.59375 
z
" id="DejaVuSans-1495"/>
      <path d="M 30.328125 54.6875 
L 30.328125 47.703125 
L 26.421875 47.703125 
Q 22.171875 47.703125 20.578125 43.921875 
Q 19 40.140625 19 30.90625 
L 19 0 
L 9.90625 0 
L 9.90625 30.90625 
Q 9.90625 37.109375 11.78125 41.453125 
Q 13.671875 45.796875 16.40625 47.703125 
L 4.296875 47.703125 
L 4.296875 54.6875 
z
" id="DejaVuSans-1494"/>
      <path d="M 4.296875 54.6875 
L 14.890625 54.6875 
Q 15.09375 54.15625 16.703125 50.3125 
Q 18.3125 46.484375 19.390625 42.671875 
Q 20.75 46.09375 22.625 48.53125 
Q 24.515625 50.984375 26.359375 52.296875 
Q 28.21875 53.609375 30.609375 54.34375 
Q 33.015625 55.078125 34.859375 55.265625 
Q 36.71875 55.46875 39.203125 55.46875 
Q 58.84375 55.46875 58.84375 29.59375 
L 58.84375 0 
L 31.390625 0 
L 31.390625 6.9375 
L 49.75 6.9375 
L 49.75 29.59375 
Q 49.75 39.109375 46.765625 43.671875 
Q 43.796875 48.25 39.0625 48.25 
Q 30.28125 48.25 26.078125 40.4375 
Q 23.734375 35.984375 21.6875 25.921875 
Q 21.578125 25.25 21.34375 24.125 
L 16.546875 0 
L 7.46875 0 
L 11.375 20.40625 
Q 11.53125 21.1875 11.890625 22.96875 
Q 12.25 24.75 12.375 25.40625 
Q 12.5 26.078125 12.671875 27.3125 
Q 12.84375 28.5625 12.90625 29.515625 
Q 12.984375 30.46875 12.984375 31.546875 
Q 12.984375 34.671875 10.71875 41.09375 
Q 8.453125 47.515625 4.296875 54.6875 
z
" id="DejaVuSans-1502"/>
      <path d="M 25.203125 64.796875 
L 20.21875 38.921875 
L 32.90625 38.921875 
Q 40.375 38.921875 44.984375 43.046875 
Q 49.609375 47.171875 49.609375 53.8125 
Q 49.609375 59.125 46.5 61.953125 
Q 43.40625 64.796875 37.59375 64.796875 
z
M 43.3125 35.015625 
Q 46.4375 34.28125 48.515625 31.390625 
Q 50.59375 28.515625 53.328125 19.921875 
L 59.515625 0 
L 49.125 0 
L 43.40625 18.703125 
Q 41.21875 25.921875 38.328125 28.359375 
Q 35.453125 30.8125 29.5 30.8125 
L 18.609375 30.8125 
L 12.59375 0 
L 2.6875 0 
L 16.890625 72.90625 
L 39.109375 72.90625 
Q 49.21875 72.90625 54.609375 68.328125 
Q 60.015625 63.765625 60.015625 55.171875 
Q 60.015625 47.5625 55.421875 41.984375 
Q 50.828125 36.421875 43.3125 35.015625 
z
" id="DejaVuSans-Oblique-82"/>
      <path d="M 42.28125 54.6875 
L 40.921875 47.703125 
L 23 47.703125 
L 17.1875 18.015625 
Q 16.890625 16.359375 16.75 15.234375 
Q 16.609375 14.109375 16.609375 13.484375 
Q 16.609375 10.359375 18.484375 8.9375 
Q 20.359375 7.515625 24.515625 7.515625 
L 33.59375 7.515625 
L 32.078125 0 
L 23.484375 0 
Q 15.484375 0 11.546875 3.125 
Q 7.625 6.25 7.625 12.59375 
Q 7.625 13.71875 7.765625 15.0625 
Q 7.90625 16.40625 8.203125 18.015625 
L 14.015625 47.703125 
L 6.390625 47.703125 
L 7.8125 54.6875 
L 15.28125 54.6875 
L 18.3125 70.21875 
L 27.296875 70.21875 
L 24.3125 54.6875 
z
" id="DejaVuSans-Oblique-116"/>
     </defs>
     <use transform="translate(0 0.78125)" xlink:href="#DejaVuSans-52"/>
     <use transform="translate(63.623047 0.78125)" xlink:href="#DejaVuSans-49"/>
     <use transform="translate(127.246094 0.78125)" xlink:href="#DejaVuSans-50"/>
     <use transform="translate(190.869141 0.78125)" xlink:href="#DejaVuSans-32"/>
     <use transform="translate(222.65625 0.78125)" xlink:href="#DejaVuSans-1503"/>
     <use transform="translate(249.902344 0.78125)" xlink:href="#DejaVuSans-1493"/>
     <use transform="translate(277.148438 0.78125)" xlink:href="#DejaVuSans-1512"/>
     <use transform="translate(333.59375 0.78125)" xlink:href="#DejaVuSans-1513"/>
     <use transform="translate(404.443359 0.78125)" xlink:href="#DejaVuSans-1492"/>
     <use transform="translate(469.775391 0.78125)" xlink:href="#DejaVuSans-32"/>
     <use transform="translate(501.5625 0.78125)" xlink:href="#DejaVuSans-1495"/>
     <use transform="translate(566.894531 0.78125)" xlink:href="#DejaVuSans-1512"/>
     <use transform="translate(623.339844 0.78125)" xlink:href="#DejaVuSans-1494"/>
     <use transform="translate(657.958984 0.78125)" xlink:href="#DejaVuSans-1502"/>
     <use transform="translate(725.878906 0.78125)" xlink:href="#DejaVuSans-32"/>
     <use transform="translate(757.666016 0.78125)" xlink:href="#DejaVuSans-Oblique-82"/>
     <use transform="translate(827.148438 -15.625)scale(0.7)" xlink:href="#DejaVuSans-Oblique-116"/>
    </g>
   </g>
  </g>
 </g>
 <defs>
  <clipPath id="p6f2d46f735">
   <rect height="271.8" width="558" x="90" y="43.2"/>
  </clipPath>
 </defs>
</svg>
