<?xml version="1.0" encoding="utf-8" standalone="no"?>
<!DOCTYPE svg PUBLIC "-//W3C//DTD SVG 1.1//EN"
  "http://www.w3.org/Graphics/SVG/1.1/DTD/svg11.dtd">
<!-- Created with matplotlib (https://matplotlib.org/) -->
<svg height="360pt" version="1.1" viewBox="0 0 720 360" width="720pt" xmlns="http://www.w3.org/2000/svg" xmlns:xlink="http://www.w3.org/1999/xlink">
 <metadata>
  <rdf:RDF xmlns:cc="http://creativecommons.org/ns#" xmlns:dc="http://purl.org/dc/elements/1.1/" xmlns:rdf="http://www.w3.org/1999/02/22-rdf-syntax-ns#">
   <cc:Work>
    <dc:type rdf:resource="http://purl.org/dc/dcmitype/StillImage"/>
    <dc:date>2021-03-07T07:56:07.335487</dc:date>
    <dc:format>image/svg+xml</dc:format>
    <dc:creator>
     <cc:Agent>
      <dc:title>Matplotlib v3.3.2, https://matplotlib.org/</dc:title>
     </cc:Agent>
    </dc:creator>
   </cc:Work>
  </rdf:RDF>
 </metadata>
 <defs>
  <style type="text/css">*{stroke-linecap:butt;stroke-linejoin:round;}</style>
 </defs>
 <g id="figure_1">
  <g id="patch_1">
   <path d="M 0 360 
L 720 360 
L 720 0 
L 0 0 
z
" style="fill:#ffffff;"/>
  </g>
  <g id="axes_1">
   <g id="patch_2">
    <path d="M 90 315 
L 648 315 
L 648 43.2 
L 90 43.2 
z
" style="fill:#ffffff;"/>
   </g>
   <g id="PolyCollection_1">
    <defs>
     <path d="M 90 -57.354545 
L 90 -122.620259 
L 91.754717 -124.513891 
L 93.509434 -121.857276 
L 95.264151 -120.934742 
L 97.018868 -119.978149 
L 98.773585 -123.066421 
L 100.528302 -121.63451 
L 102.283019 -121.279836 
L 104.037736 -128.015324 
L 105.792453 -128.0572 
L 107.54717 -126.233825 
L 109.301887 -130.262705 
L 111.056604 -135.760217 
L 112.811321 -134.83285 
L 114.566038 -138.173678 
L 116.320755 -140.595547 
L 118.075472 -144.669906 
L 119.830189 -146.501976 
L 121.584906 -146.584874 
L 123.339623 -149.714449 
L 125.09434 -151.560448 
L 126.849057 -157.105931 
L 128.603774 -159.872521 
L 130.358491 -160.18974 
L 132.113208 -165.42891 
L 133.867925 -168.67938 
L 135.622642 -170.923134 
L 137.377358 -176.283108 
L 139.132075 -177.474848 
L 140.886792 -182.490552 
L 142.641509 -182.123416 
L 144.396226 -193.095272 
L 146.150943 -192.315163 
L 147.90566 -196.967755 
L 149.660377 -196.628331 
L 151.415094 -199.472977 
L 153.169811 -202.746946 
L 154.924528 -205.178892 
L 156.679245 -217.081962 
L 158.433962 -215.292407 
L 160.188679 -215.407655 
L 161.943396 -221.243285 
L 163.698113 -222.490442 
L 165.45283 -224.714645 
L 167.207547 -225.746024 
L 168.962264 -225.83502 
L 170.716981 -228.486453 
L 172.471698 -229.176689 
L 174.226415 -231.029494 
L 175.981132 -236.383182 
L 177.735849 -237.705991 
L 179.490566 -236.877635 
L 181.245283 -233.945333 
L 183 -235.323838 
L 184.754717 -237.572019 
L 186.509434 -247.924159 
L 188.264151 -241.685132 
L 190.018868 -248.97719 
L 191.773585 -252.285756 
L 193.528302 -251.97388 
L 195.283019 -258.824438 
L 197.037736 -274.472946 
L 198.792453 -272.564662 
L 200.54717 -277.445619 
L 202.301887 -281.460794 
L 204.056604 -280.910678 
L 205.811321 -284.681317 
L 207.566038 -292.464834 
L 209.320755 -287.475802 
L 211.075472 -288.85533 
L 212.830189 -289.547035 
L 214.584906 -295.928654 
L 216.339623 -293.946691 
L 218.09434 -287.960998 
L 219.849057 -295.906671 
L 221.603774 -299.043284 
L 223.358491 -304.445455 
L 225.113208 -295.350708 
L 226.867925 -304.161147 
L 228.622642 -297.032104 
L 230.377358 -288.37447 
L 232.132075 -291.565316 
L 233.886792 -284.69756 
L 235.641509 -283.610871 
L 237.396226 -280.55225 
L 239.150943 -271.779667 
L 240.90566 -260.711955 
L 242.660377 -259.257937 
L 244.415094 -252.223556 
L 246.169811 -246.827021 
L 247.924528 -238.062912 
L 249.679245 -228.29388 
L 251.433962 -224.980694 
L 253.188679 -223.830985 
L 254.943396 -215.849628 
L 256.698113 -213.610418 
L 258.45283 -206.894631 
L 260.207547 -197.482382 
L 261.962264 -193.153964 
L 263.716981 -190.073158 
L 265.471698 -185.531229 
L 267.226415 -180.608274 
L 268.981132 -178.21385 
L 270.735849 -180.299207 
L 272.490566 -173.533333 
L 274.245283 -173.920439 
L 276 -172.007616 
L 277.754717 -173.545531 
L 279.509434 -174.14741 
L 281.264151 -175.184586 
L 283.018868 -176.668296 
L 284.773585 -177.280781 
L 286.528302 -182.032899 
L 288.283019 -186.527713 
L 290.037736 -186.867995 
L 291.792453 -185.984587 
L 293.54717 -190.308633 
L 295.301887 -194.395771 
L 297.056604 -197.099085 
L 298.811321 -203.679572 
L 300.566038 -204.325636 
L 302.320755 -210.309271 
L 304.075472 -209.867646 
L 305.830189 -209.772064 
L 307.584906 -216.919857 
L 309.339623 -221.397339 
L 311.09434 -224.176341 
L 312.849057 -228.673386 
L 314.603774 -230.364181 
L 316.358491 -234.169442 
L 318.113208 -229.588432 
L 319.867925 -241.956595 
L 321.622642 -241.829863 
L 323.377358 -252.344136 
L 325.132075 -248.915991 
L 326.886792 -251.112365 
L 328.641509 -254.574313 
L 330.396226 -254.006678 
L 332.150943 -254.031936 
L 333.90566 -255.790026 
L 335.660377 -251.137246 
L 337.415094 -253.398584 
L 339.169811 -241.121056 
L 340.924528 -234.497469 
L 342.679245 -224.64855 
L 344.433962 -223.888185 
L 346.188679 -216.464352 
L 347.943396 -204.0784 
L 349.698113 -197.860876 
L 351.45283 -189.15991 
L 353.207547 -182.198136 
L 354.962264 -176.010519 
L 356.716981 -167.971116 
L 358.471698 -161.624961 
L 360.226415 -157.117383 
L 361.981132 -153.495529 
L 363.735849 -149.325084 
L 365.490566 -143.459523 
L 367.245283 -136.90896 
L 369 -134.516063 
L 370.754717 -130.639189 
L 372.509434 -125.407817 
L 374.264151 -125.94934 
L 376.018868 -124.475859 
L 377.773585 -121.647826 
L 379.528302 -120.357928 
L 381.283019 -119.035474 
L 383.037736 -119.244426 
L 384.792453 -116.650127 
L 386.54717 -116.952576 
L 388.301887 -115.41386 
L 390.056604 -119.757688 
L 391.811321 -117.170365 
L 393.566038 -116.880019 
L 395.320755 -114.976181 
L 397.075472 -117.677415 
L 398.830189 -117.702274 
L 400.584906 -117.826694 
L 402.339623 -121.544847 
L 404.09434 -122.125155 
L 405.849057 -128.063633 
L 407.603774 -126.902676 
L 409.358491 -130.440684 
L 411.113208 -136.59408 
L 412.867925 -140.651028 
L 414.622642 -143.793239 
L 416.377358 -147.540245 
L 418.132075 -151.656144 
L 419.886792 -153.776736 
L 421.641509 -159.449617 
L 423.396226 -163.267652 
L 425.150943 -168.303124 
L 426.90566 -175.049105 
L 428.660377 -175.117964 
L 430.415094 -184.777103 
L 432.169811 -188.100047 
L 433.924528 -191.073134 
L 435.679245 -192.370746 
L 437.433962 -202.999572 
L 439.188679 -207.34763 
L 440.943396 -206.989634 
L 442.698113 -212.359966 
L 444.45283 -215.11955 
L 446.207547 -218.671019 
L 447.962264 -224.873613 
L 449.716981 -224.929355 
L 451.471698 -223.166395 
L 453.226415 -224.086918 
L 454.981132 -229.058114 
L 456.735849 -225.850427 
L 458.490566 -232.195586 
L 460.245283 -233.500214 
L 462 -229.588817 
L 463.754717 -233.696873 
L 465.509434 -236.493274 
L 467.264151 -235.341673 
L 469.018868 -242.074753 
L 470.773585 -237.964323 
L 472.528302 -242.810794 
L 474.283019 -243.737377 
L 476.037736 -247.162237 
L 477.792453 -246.431168 
L 479.54717 -244.509978 
L 481.301887 -247.116537 
L 483.056604 -240.637799 
L 484.811321 -246.094519 
L 486.566038 -242.017223 
L 488.320755 -246.576754 
L 490.075472 -243.560251 
L 491.830189 -242.835901 
L 493.584906 -248.474235 
L 495.339623 -250.515182 
L 497.09434 -248.676466 
L 498.849057 -256.456453 
L 500.603774 -248.229823 
L 502.358491 -253.421554 
L 504.113208 -247.698109 
L 505.867925 -250.686944 
L 507.622642 -250.628637 
L 509.377358 -243.674703 
L 511.132075 -246.040612 
L 512.886792 -242.773785 
L 514.641509 -238.376083 
L 516.396226 -236.32352 
L 518.150943 -228.467726 
L 519.90566 -229.200235 
L 521.660377 -223.177399 
L 523.415094 -223.02744 
L 525.169811 -220.591313 
L 526.924528 -214.374967 
L 528.679245 -208.43312 
L 530.433962 -208.66734 
L 532.188679 -206.743116 
L 533.943396 -203.498823 
L 535.698113 -203.213051 
L 537.45283 -202.279722 
L 539.207547 -200.526189 
L 540.962264 -197.141713 
L 542.716981 -197.01839 
L 544.471698 -201.260021 
L 546.226415 -200.160988 
L 547.981132 -190.72225 
L 549.735849 -189.780245 
L 551.490566 -188.670905 
L 553.245283 -193.165421 
L 555 -184.572756 
L 556.754717 -183.916425 
L 558.509434 -182.705894 
L 560.264151 -184.346628 
L 562.018868 -184.672816 
L 563.773585 -180.053801 
L 565.528302 -177.996201 
L 567.283019 -179.364027 
L 569.037736 -177.9159 
L 570.792453 -178.889063 
L 572.54717 -180.657036 
L 574.301887 -178.638796 
L 576.056604 -182.475507 
L 577.811321 -181.036657 
L 579.566038 -177.343168 
L 581.320755 -179.075982 
L 583.075472 -175.665048 
L 584.830189 -175.632146 
L 586.584906 -177.230884 
L 588.339623 -173.516577 
L 590.09434 -173.575781 
L 591.849057 -171.357798 
L 593.603774 -170.180672 
L 595.358491 -166.171392 
L 597.113208 -167.121958 
L 598.867925 -163.745125 
L 600.622642 -162.474438 
L 602.377358 -160.760356 
L 604.132075 -159.154494 
L 605.886792 -158.082489 
L 607.641509 -158.22201 
L 609.396226 -155.159662 
L 611.150943 -153.853613 
L 612.90566 -152.345967 
L 614.660377 -152.706043 
L 616.415094 -154.696698 
L 618.169811 -152.505599 
L 619.924528 -153.031857 
L 621.679245 -154.761297 
L 623.433962 -154.303916 
L 625.188679 -152.601959 
L 626.943396 -152.876465 
L 628.698113 -153.780425 
L 630.45283 -149.637347 
L 632.207547 -150.371639 
L 633.962264 -150.644467 
L 635.716981 -148.304884 
L 637.471698 -150.002682 
L 639.226415 -152.13093 
L 640.981132 -152.119681 
L 642.735849 -152.831414 
L 644.490566 -156.849696 
L 646.245283 -152.207957 
L 648 -155.941601 
L 649.754717 -160.448695 
L 651.509434 -158.519693 
L 653.264151 -159.691957 
L 655.018868 -160.890112 
L 656.773585 -164.044992 
L 658.528302 -167.413156 
L 660.283019 -167.166734 
L 662.037736 -164.355839 
L 662.037736 -72.588293 
L 662.037736 -72.588293 
L 660.283019 -75.605601 
L 658.528302 -77.984709 
L 656.773585 -78.534437 
L 655.018868 -76.183602 
L 653.264151 -78.875491 
L 651.509434 -80.702797 
L 649.754717 -86.552352 
L 648 -85.257993 
L 646.245283 -85.813639 
L 644.490566 -91.982148 
L 642.735849 -90.419945 
L 640.981132 -91.521922 
L 639.226415 -93.604888 
L 637.471698 -93.484866 
L 635.716981 -92.926238 
L 633.962264 -97.295436 
L 632.207547 -99.327526 
L 630.45283 -100.128801 
L 628.698113 -107.646028 
L 626.943396 -107.629593 
L 625.188679 -109.164056 
L 623.433962 -113.508554 
L 621.679245 -112.223286 
L 619.924528 -112.974361 
L 618.169811 -113.091298 
L 616.415094 -116.138764 
L 614.660377 -114.516988 
L 612.90566 -112.891193 
L 611.150943 -114.752346 
L 609.396226 -115.838962 
L 607.641509 -118.974929 
L 605.886792 -118.529304 
L 604.132075 -119.015321 
L 602.377358 -121.04578 
L 600.622642 -121.36718 
L 598.867925 -123.551764 
L 597.113208 -125.882866 
L 595.358491 -123.237806 
L 593.603774 -126.902479 
L 591.849057 -127.697245 
L 590.09434 -129.379621 
L 588.339623 -128.470733 
L 586.584906 -133.971157 
L 584.830189 -134.141534 
L 583.075472 -132.69053 
L 581.320755 -135.187164 
L 579.566038 -134.335932 
L 577.811321 -135.610821 
L 576.056604 -137.237825 
L 574.301887 -135.232239 
L 572.54717 -136.50858 
L 570.792453 -134.487705 
L 569.037736 -132.714217 
L 567.283019 -134.030084 
L 565.528302 -131.175902 
L 563.773585 -135.268829 
L 562.018868 -140.395408 
L 560.264151 -138.731002 
L 558.509434 -136.986602 
L 556.754717 -137.294703 
L 555 -138.614591 
L 553.245283 -144.088299 
L 551.490566 -141.328907 
L 549.735849 -144.562828 
L 547.981132 -142.430776 
L 546.226415 -149.736095 
L 544.471698 -149.485436 
L 542.716981 -147.138626 
L 540.962264 -147.386089 
L 539.207547 -150.741022 
L 537.45283 -153.292694 
L 535.698113 -151.43731 
L 533.943396 -154.602305 
L 532.188679 -155.568974 
L 530.433962 -159.110927 
L 528.679245 -160.256404 
L 526.924528 -163.344818 
L 525.169811 -165.783375 
L 523.415094 -165.917419 
L 521.660377 -168.089006 
L 519.90566 -174.297688 
L 518.150943 -172.756792 
L 516.396226 -178.983716 
L 514.641509 -180.86241 
L 512.886792 -181.966804 
L 511.132075 -185.310054 
L 509.377358 -180.761624 
L 507.622642 -184.375878 
L 505.867925 -187.579078 
L 504.113208 -183.000457 
L 502.358491 -191.032178 
L 500.603774 -187.295229 
L 498.849057 -192.549993 
L 497.09434 -187.628453 
L 495.339623 -189.544933 
L 493.584906 -187.0243 
L 491.830189 -183.906462 
L 490.075472 -185.538217 
L 488.320755 -187.344961 
L 486.566038 -181.229636 
L 484.811321 -185.457538 
L 483.056604 -177.671782 
L 481.301887 -184.622247 
L 479.54717 -181.640293 
L 477.792453 -182.805181 
L 476.037736 -185.217504 
L 474.283019 -181.15814 
L 472.528302 -177.986717 
L 470.773585 -176.413123 
L 469.018868 -179.521359 
L 467.264151 -170.909871 
L 465.509434 -175.468954 
L 463.754717 -173.622286 
L 462 -167.964338 
L 460.245283 -169.512888 
L 458.490566 -169.129492 
L 456.735849 -162.777291 
L 454.981132 -165.155124 
L 453.226415 -161.363985 
L 451.471698 -160.252917 
L 449.716981 -163.884469 
L 447.962264 -161.164078 
L 446.207547 -157.31585 
L 444.45283 -155.110538 
L 442.698113 -152.554406 
L 440.943396 -146.948965 
L 439.188679 -148.049412 
L 437.433962 -145.64193 
L 435.679245 -138.711838 
L 433.924528 -137.896178 
L 432.169811 -134.771526 
L 430.415094 -132.748428 
L 428.660377 -123.345122 
L 426.90566 -124.145495 
L 425.150943 -120.520127 
L 423.396226 -117.548549 
L 421.641509 -117.221639 
L 419.886792 -111.410413 
L 418.132075 -110.473828 
L 416.377358 -107.414275 
L 414.622642 -104.782216 
L 412.867925 -102.973781 
L 411.113208 -101.154775 
L 409.358491 -95.738982 
L 407.603774 -92.107102 
L 405.849057 -92.67093 
L 404.09434 -88.393428 
L 402.339623 -89.333363 
L 400.584906 -87.053504 
L 398.830189 -87.438153 
L 397.075472 -86.342368 
L 395.320755 -83.408655 
L 393.566038 -85.501041 
L 391.811321 -86.132567 
L 390.056604 -87.667908 
L 388.301887 -82.502218 
L 386.54717 -84.27749 
L 384.792453 -84.522442 
L 383.037736 -88.441731 
L 381.283019 -88.450486 
L 379.528302 -87.784689 
L 377.773585 -88.907628 
L 376.018868 -92.178285 
L 374.264151 -93.076113 
L 372.509434 -93.537848 
L 370.754717 -98.009915 
L 369 -101.226215 
L 367.245283 -102.917353 
L 365.490566 -108.697836 
L 363.735849 -111.867304 
L 361.981132 -115.574165 
L 360.226415 -117.689733 
L 358.471698 -120.557352 
L 356.716981 -125.765991 
L 354.962264 -132.410799 
L 353.207547 -138.318365 
L 351.45283 -143.383251 
L 349.698113 -147.955453 
L 347.943396 -153.947642 
L 346.188679 -163.998851 
L 344.433962 -169.168268 
L 342.679245 -169.365185 
L 340.924528 -175.391944 
L 339.169811 -178.021862 
L 337.415094 -186.50816 
L 335.660377 -183.625494 
L 333.90566 -192.392 
L 332.150943 -190.818454 
L 330.396226 -190.678479 
L 328.641509 -192.555856 
L 326.886792 -191.769784 
L 325.132075 -185.861169 
L 323.377358 -189.847242 
L 321.622642 -183.063372 
L 319.867925 -181.510877 
L 318.113208 -170.332005 
L 316.358491 -175.301912 
L 314.603774 -170.623201 
L 312.849057 -169.687195 
L 311.09434 -165.645371 
L 309.339623 -164.549345 
L 307.584906 -160.290836 
L 305.830189 -153.251937 
L 304.075472 -153.367 
L 302.320755 -153.898637 
L 300.566038 -149.206154 
L 298.811321 -148.063252 
L 297.056604 -144.82635 
L 295.301887 -143.895 
L 293.54717 -138.046241 
L 291.792453 -134.160053 
L 290.037736 -136.335666 
L 288.283019 -136.849676 
L 286.528302 -133.54727 
L 284.773585 -129.066345 
L 283.018868 -128.702044 
L 281.264151 -129.320223 
L 279.509434 -127.554786 
L 277.754717 -127.367223 
L 276 -129.260019 
L 274.245283 -131.117047 
L 272.490566 -130.525887 
L 270.735849 -134.351531 
L 268.981132 -132.395582 
L 267.226415 -134.204391 
L 265.471698 -137.428836 
L 263.716981 -139.362852 
L 261.962264 -141.821924 
L 260.207547 -143.908422 
L 258.45283 -151.362635 
L 256.698113 -156.3465 
L 254.943396 -158.137468 
L 253.188679 -164.165787 
L 251.433962 -163.180914 
L 249.679245 -165.934441 
L 247.924528 -174.134222 
L 246.169811 -182.536165 
L 244.415094 -185.95565 
L 242.660377 -189.383588 
L 240.90566 -190.224 
L 239.150943 -198.890698 
L 237.396226 -206.98005 
L 235.641509 -209.518946 
L 233.886792 -207.529824 
L 232.132075 -209.340126 
L 230.377358 -200.940993 
L 228.622642 -209.48451 
L 226.867925 -216.640418 
L 225.113208 -208.828775 
L 223.358491 -219.287526 
L 221.603774 -216.16848 
L 219.849057 -209.559847 
L 218.09434 -204.491479 
L 216.339623 -210.965571 
L 214.584906 -212.555435 
L 212.830189 -205.375872 
L 211.075472 -199.12697 
L 209.320755 -196.128086 
L 207.566038 -199.142146 
L 205.811321 -193.7633 
L 204.056604 -189.37721 
L 202.301887 -190.074965 
L 200.54717 -187.286609 
L 198.792453 -185.895993 
L 197.037736 -186.44242 
L 195.283019 -167.671864 
L 193.528302 -167.895908 
L 191.773585 -167.60292 
L 190.018868 -169.869268 
L 188.264151 -165.79156 
L 186.509434 -166.78741 
L 184.754717 -159.060597 
L 183 -158.662452 
L 181.245283 -158.141087 
L 179.490566 -161.239325 
L 177.735849 -160.562599 
L 175.981132 -157.380464 
L 174.226415 -152.646019 
L 172.471698 -152.858372 
L 170.716981 -153.78962 
L 168.962264 -150.21615 
L 167.207547 -150.475297 
L 165.45283 -149.07073 
L 163.698113 -146.026881 
L 161.943396 -143.179984 
L 160.188679 -140.118938 
L 158.433962 -136.072199 
L 156.679245 -141.310078 
L 154.924528 -131.94078 
L 153.169811 -130.215335 
L 151.415094 -128.398703 
L 149.660377 -126.654838 
L 147.90566 -131.463494 
L 146.150943 -125.069559 
L 144.396226 -127.459124 
L 142.641509 -119.241067 
L 140.886792 -121.907573 
L 139.132075 -116.057499 
L 137.377358 -115.669853 
L 135.622642 -109.268806 
L 133.867925 -108.085116 
L 132.113208 -104.357731 
L 130.358491 -101.209858 
L 128.603774 -100.321411 
L 126.849057 -99.252622 
L 125.09434 -94.982168 
L 123.339623 -95.646942 
L 121.584906 -90.602846 
L 119.830189 -89.465084 
L 118.075472 -86.857387 
L 116.320755 -83.522237 
L 114.566038 -82.303908 
L 112.811321 -79.627359 
L 111.056604 -80.873043 
L 109.301887 -77.632999 
L 107.54717 -71.538637 
L 105.792453 -73.201554 
L 104.037736 -73.739032 
L 102.283019 -66.984145 
L 100.528302 -66.559999 
L 98.773585 -66.85268 
L 97.018868 -64.037869 
L 95.264151 -60.681182 
L 93.509434 -60.661025 
L 91.754717 -60.547925 
L 90 -57.354545 
z
" id="m6242d5e833" style="stroke:#fdcbb6;stroke-opacity:0.8;"/>
    </defs>
    <g clip-path="url(#p51ddecf947)">
     <use style="fill:#fdcbb6;fill-opacity:0.8;stroke:#fdcbb6;stroke-opacity:0.8;" x="0" xlink:href="#m6242d5e833" y="360"/>
    </g>
   </g>
   <g id="matplotlib.axis_1">
    <g id="xtick_1">
     <g id="line2d_1">
      <defs>
       <path d="M 0 0 
L 0 3.5 
" id="m3b11596e69" style="stroke:#000000;stroke-width:0.8;"/>
      </defs>
      <g>
       <use style="stroke:#000000;stroke-width:0.8;" x="90" xlink:href="#m3b11596e69" y="315"/>
      </g>
     </g>
    </g>
    <g id="xtick_2">
     <g id="line2d_2">
      <g>
       <use style="stroke:#000000;stroke-width:0.8;" x="121.584906" xlink:href="#m3b11596e69" y="315"/>
      </g>
     </g>
     <g id="text_1">
      <!-- May -->
      <g transform="translate(111.247406 329.598437)scale(0.1 -0.1)">
       <defs>
        <path d="M 9.8125 72.90625 
L 24.515625 72.90625 
L 43.109375 23.296875 
L 61.8125 72.90625 
L 76.515625 72.90625 
L 76.515625 0 
L 66.890625 0 
L 66.890625 64.015625 
L 48.09375 14.015625 
L 38.1875 14.015625 
L 19.390625 64.015625 
L 19.390625 0 
L 9.8125 0 
z
" id="DejaVuSans-77"/>
        <path d="M 34.28125 27.484375 
Q 23.390625 27.484375 19.1875 25 
Q 14.984375 22.515625 14.984375 16.5 
Q 14.984375 11.71875 18.140625 8.90625 
Q 21.296875 6.109375 26.703125 6.109375 
Q 34.1875 6.109375 38.703125 11.40625 
Q 43.21875 16.703125 43.21875 25.484375 
L 43.21875 27.484375 
z
M 52.203125 31.203125 
L 52.203125 0 
L 43.21875 0 
L 43.21875 8.296875 
Q 40.140625 3.328125 35.546875 0.953125 
Q 30.953125 -1.421875 24.3125 -1.421875 
Q 15.921875 -1.421875 10.953125 3.296875 
Q 6 8.015625 6 15.921875 
Q 6 25.140625 12.171875 29.828125 
Q 18.359375 34.515625 30.609375 34.515625 
L 43.21875 34.515625 
L 43.21875 35.40625 
Q 43.21875 41.609375 39.140625 45 
Q 35.0625 48.390625 27.6875 48.390625 
Q 23 48.390625 18.546875 47.265625 
Q 14.109375 46.140625 10.015625 43.890625 
L 10.015625 52.203125 
Q 14.9375 54.109375 19.578125 55.046875 
Q 24.21875 56 28.609375 56 
Q 40.484375 56 46.34375 49.84375 
Q 52.203125 43.703125 52.203125 31.203125 
z
" id="DejaVuSans-97"/>
        <path d="M 32.171875 -5.078125 
Q 28.375 -14.84375 24.75 -17.8125 
Q 21.140625 -20.796875 15.09375 -20.796875 
L 7.90625 -20.796875 
L 7.90625 -13.28125 
L 13.1875 -13.28125 
Q 16.890625 -13.28125 18.9375 -11.515625 
Q 21 -9.765625 23.484375 -3.21875 
L 25.09375 0.875 
L 2.984375 54.6875 
L 12.5 54.6875 
L 29.59375 11.921875 
L 46.6875 54.6875 
L 56.203125 54.6875 
z
" id="DejaVuSans-121"/>
       </defs>
       <use xlink:href="#DejaVuSans-77"/>
       <use x="86.279297" xlink:href="#DejaVuSans-97"/>
       <use x="147.558594" xlink:href="#DejaVuSans-121"/>
      </g>
     </g>
    </g>
    <g id="xtick_3">
     <g id="line2d_3">
      <g>
       <use style="stroke:#000000;stroke-width:0.8;" x="175.981132" xlink:href="#m3b11596e69" y="315"/>
      </g>
     </g>
     <g id="text_2">
      <!-- Jun -->
      <g transform="translate(168.168632 329.598437)scale(0.1 -0.1)">
       <defs>
        <path d="M 9.8125 72.90625 
L 19.671875 72.90625 
L 19.671875 5.078125 
Q 19.671875 -8.109375 14.671875 -14.0625 
Q 9.671875 -20.015625 -1.421875 -20.015625 
L -5.171875 -20.015625 
L -5.171875 -11.71875 
L -2.09375 -11.71875 
Q 4.4375 -11.71875 7.125 -8.046875 
Q 9.8125 -4.390625 9.8125 5.078125 
z
" id="DejaVuSans-74"/>
        <path d="M 8.5 21.578125 
L 8.5 54.6875 
L 17.484375 54.6875 
L 17.484375 21.921875 
Q 17.484375 14.15625 20.5 10.265625 
Q 23.53125 6.390625 29.59375 6.390625 
Q 36.859375 6.390625 41.078125 11.03125 
Q 45.3125 15.671875 45.3125 23.6875 
L 45.3125 54.6875 
L 54.296875 54.6875 
L 54.296875 0 
L 45.3125 0 
L 45.3125 8.40625 
Q 42.046875 3.421875 37.71875 1 
Q 33.40625 -1.421875 27.6875 -1.421875 
Q 18.265625 -1.421875 13.375 4.4375 
Q 8.5 10.296875 8.5 21.578125 
z
M 31.109375 56 
z
" id="DejaVuSans-117"/>
        <path d="M 54.890625 33.015625 
L 54.890625 0 
L 45.90625 0 
L 45.90625 32.71875 
Q 45.90625 40.484375 42.875 44.328125 
Q 39.84375 48.1875 33.796875 48.1875 
Q 26.515625 48.1875 22.3125 43.546875 
Q 18.109375 38.921875 18.109375 30.90625 
L 18.109375 0 
L 9.078125 0 
L 9.078125 54.6875 
L 18.109375 54.6875 
L 18.109375 46.1875 
Q 21.34375 51.125 25.703125 53.5625 
Q 30.078125 56 35.796875 56 
Q 45.21875 56 50.046875 50.171875 
Q 54.890625 44.34375 54.890625 33.015625 
z
" id="DejaVuSans-110"/>
       </defs>
       <use xlink:href="#DejaVuSans-74"/>
       <use x="29.492188" xlink:href="#DejaVuSans-117"/>
       <use x="92.871094" xlink:href="#DejaVuSans-110"/>
      </g>
     </g>
    </g>
    <g id="xtick_4">
     <g id="line2d_4">
      <g>
       <use style="stroke:#000000;stroke-width:0.8;" x="228.622642" xlink:href="#m3b11596e69" y="315"/>
      </g>
     </g>
     <g id="text_3">
      <!-- Jul -->
      <g transform="translate(222.589829 329.598437)scale(0.1 -0.1)">
       <defs>
        <path d="M 9.421875 75.984375 
L 18.40625 75.984375 
L 18.40625 0 
L 9.421875 0 
z
" id="DejaVuSans-108"/>
       </defs>
       <use xlink:href="#DejaVuSans-74"/>
       <use x="29.492188" xlink:href="#DejaVuSans-117"/>
       <use x="92.871094" xlink:href="#DejaVuSans-108"/>
      </g>
     </g>
    </g>
    <g id="xtick_5">
     <g id="line2d_5">
      <g>
       <use style="stroke:#000000;stroke-width:0.8;" x="283.018868" xlink:href="#m3b11596e69" y="315"/>
      </g>
     </g>
     <g id="text_4">
      <!-- Aug -->
      <g transform="translate(273.255587 329.598437)scale(0.1 -0.1)">
       <defs>
        <path d="M 34.1875 63.1875 
L 20.796875 26.90625 
L 47.609375 26.90625 
z
M 28.609375 72.90625 
L 39.796875 72.90625 
L 67.578125 0 
L 57.328125 0 
L 50.6875 18.703125 
L 17.828125 18.703125 
L 11.1875 0 
L 0.78125 0 
z
" id="DejaVuSans-65"/>
        <path d="M 45.40625 27.984375 
Q 45.40625 37.75 41.375 43.109375 
Q 37.359375 48.484375 30.078125 48.484375 
Q 22.859375 48.484375 18.828125 43.109375 
Q 14.796875 37.75 14.796875 27.984375 
Q 14.796875 18.265625 18.828125 12.890625 
Q 22.859375 7.515625 30.078125 7.515625 
Q 37.359375 7.515625 41.375 12.890625 
Q 45.40625 18.265625 45.40625 27.984375 
z
M 54.390625 6.78125 
Q 54.390625 -7.171875 48.1875 -13.984375 
Q 42 -20.796875 29.203125 -20.796875 
Q 24.46875 -20.796875 20.265625 -20.09375 
Q 16.0625 -19.390625 12.109375 -17.921875 
L 12.109375 -9.1875 
Q 16.0625 -11.328125 19.921875 -12.34375 
Q 23.78125 -13.375 27.78125 -13.375 
Q 36.625 -13.375 41.015625 -8.765625 
Q 45.40625 -4.15625 45.40625 5.171875 
L 45.40625 9.625 
Q 42.625 4.78125 38.28125 2.390625 
Q 33.9375 0 27.875 0 
Q 17.828125 0 11.671875 7.65625 
Q 5.515625 15.328125 5.515625 27.984375 
Q 5.515625 40.671875 11.671875 48.328125 
Q 17.828125 56 27.875 56 
Q 33.9375 56 38.28125 53.609375 
Q 42.625 51.21875 45.40625 46.390625 
L 45.40625 54.6875 
L 54.390625 54.6875 
z
" id="DejaVuSans-103"/>
       </defs>
       <use xlink:href="#DejaVuSans-65"/>
       <use x="68.408203" xlink:href="#DejaVuSans-117"/>
       <use x="131.787109" xlink:href="#DejaVuSans-103"/>
      </g>
     </g>
    </g>
    <g id="xtick_6">
     <g id="line2d_6">
      <g>
       <use style="stroke:#000000;stroke-width:0.8;" x="337.415094" xlink:href="#m3b11596e69" y="315"/>
      </g>
     </g>
     <g id="text_5">
      <!-- Sep -->
      <g transform="translate(327.990094 329.598437)scale(0.1 -0.1)">
       <defs>
        <path d="M 53.515625 70.515625 
L 53.515625 60.890625 
Q 47.90625 63.578125 42.921875 64.890625 
Q 37.9375 66.21875 33.296875 66.21875 
Q 25.25 66.21875 20.875 63.09375 
Q 16.5 59.96875 16.5 54.203125 
Q 16.5 49.359375 19.40625 46.890625 
Q 22.3125 44.4375 30.421875 42.921875 
L 36.375 41.703125 
Q 47.40625 39.59375 52.65625 34.296875 
Q 57.90625 29 57.90625 20.125 
Q 57.90625 9.515625 50.796875 4.046875 
Q 43.703125 -1.421875 29.984375 -1.421875 
Q 24.8125 -1.421875 18.96875 -0.25 
Q 13.140625 0.921875 6.890625 3.21875 
L 6.890625 13.375 
Q 12.890625 10.015625 18.65625 8.296875 
Q 24.421875 6.59375 29.984375 6.59375 
Q 38.421875 6.59375 43.015625 9.90625 
Q 47.609375 13.234375 47.609375 19.390625 
Q 47.609375 24.75 44.3125 27.78125 
Q 41.015625 30.8125 33.5 32.328125 
L 27.484375 33.5 
Q 16.453125 35.6875 11.515625 40.375 
Q 6.59375 45.0625 6.59375 53.421875 
Q 6.59375 63.09375 13.40625 68.65625 
Q 20.21875 74.21875 32.171875 74.21875 
Q 37.3125 74.21875 42.625 73.28125 
Q 47.953125 72.359375 53.515625 70.515625 
z
" id="DejaVuSans-83"/>
        <path d="M 56.203125 29.59375 
L 56.203125 25.203125 
L 14.890625 25.203125 
Q 15.484375 15.921875 20.484375 11.0625 
Q 25.484375 6.203125 34.421875 6.203125 
Q 39.59375 6.203125 44.453125 7.46875 
Q 49.3125 8.734375 54.109375 11.28125 
L 54.109375 2.78125 
Q 49.265625 0.734375 44.1875 -0.34375 
Q 39.109375 -1.421875 33.890625 -1.421875 
Q 20.796875 -1.421875 13.15625 6.1875 
Q 5.515625 13.8125 5.515625 26.8125 
Q 5.515625 40.234375 12.765625 48.109375 
Q 20.015625 56 32.328125 56 
Q 43.359375 56 49.78125 48.890625 
Q 56.203125 41.796875 56.203125 29.59375 
z
M 47.21875 32.234375 
Q 47.125 39.59375 43.09375 43.984375 
Q 39.0625 48.390625 32.421875 48.390625 
Q 24.90625 48.390625 20.390625 44.140625 
Q 15.875 39.890625 15.1875 32.171875 
z
" id="DejaVuSans-101"/>
        <path d="M 18.109375 8.203125 
L 18.109375 -20.796875 
L 9.078125 -20.796875 
L 9.078125 54.6875 
L 18.109375 54.6875 
L 18.109375 46.390625 
Q 20.953125 51.265625 25.265625 53.625 
Q 29.59375 56 35.59375 56 
Q 45.5625 56 51.78125 48.09375 
Q 58.015625 40.1875 58.015625 27.296875 
Q 58.015625 14.40625 51.78125 6.484375 
Q 45.5625 -1.421875 35.59375 -1.421875 
Q 29.59375 -1.421875 25.265625 0.953125 
Q 20.953125 3.328125 18.109375 8.203125 
z
M 48.6875 27.296875 
Q 48.6875 37.203125 44.609375 42.84375 
Q 40.53125 48.484375 33.40625 48.484375 
Q 26.265625 48.484375 22.1875 42.84375 
Q 18.109375 37.203125 18.109375 27.296875 
Q 18.109375 17.390625 22.1875 11.75 
Q 26.265625 6.109375 33.40625 6.109375 
Q 40.53125 6.109375 44.609375 11.75 
Q 48.6875 17.390625 48.6875 27.296875 
z
" id="DejaVuSans-112"/>
       </defs>
       <use xlink:href="#DejaVuSans-83"/>
       <use x="63.476562" xlink:href="#DejaVuSans-101"/>
       <use x="125" xlink:href="#DejaVuSans-112"/>
      </g>
     </g>
    </g>
    <g id="xtick_7">
     <g id="line2d_7">
      <g>
       <use style="stroke:#000000;stroke-width:0.8;" x="390.056604" xlink:href="#m3b11596e69" y="315"/>
      </g>
     </g>
     <g id="text_6">
      <!-- Oct -->
      <g transform="translate(381.411291 329.598437)scale(0.1 -0.1)">
       <defs>
        <path d="M 39.40625 66.21875 
Q 28.65625 66.21875 22.328125 58.203125 
Q 16.015625 50.203125 16.015625 36.375 
Q 16.015625 22.609375 22.328125 14.59375 
Q 28.65625 6.59375 39.40625 6.59375 
Q 50.140625 6.59375 56.421875 14.59375 
Q 62.703125 22.609375 62.703125 36.375 
Q 62.703125 50.203125 56.421875 58.203125 
Q 50.140625 66.21875 39.40625 66.21875 
z
M 39.40625 74.21875 
Q 54.734375 74.21875 63.90625 63.9375 
Q 73.09375 53.65625 73.09375 36.375 
Q 73.09375 19.140625 63.90625 8.859375 
Q 54.734375 -1.421875 39.40625 -1.421875 
Q 24.03125 -1.421875 14.8125 8.828125 
Q 5.609375 19.09375 5.609375 36.375 
Q 5.609375 53.65625 14.8125 63.9375 
Q 24.03125 74.21875 39.40625 74.21875 
z
" id="DejaVuSans-79"/>
        <path d="M 48.78125 52.59375 
L 48.78125 44.1875 
Q 44.96875 46.296875 41.140625 47.34375 
Q 37.3125 48.390625 33.40625 48.390625 
Q 24.65625 48.390625 19.8125 42.84375 
Q 14.984375 37.3125 14.984375 27.296875 
Q 14.984375 17.28125 19.8125 11.734375 
Q 24.65625 6.203125 33.40625 6.203125 
Q 37.3125 6.203125 41.140625 7.25 
Q 44.96875 8.296875 48.78125 10.40625 
L 48.78125 2.09375 
Q 45.015625 0.34375 40.984375 -0.53125 
Q 36.96875 -1.421875 32.421875 -1.421875 
Q 20.0625 -1.421875 12.78125 6.34375 
Q 5.515625 14.109375 5.515625 27.296875 
Q 5.515625 40.671875 12.859375 48.328125 
Q 20.21875 56 33.015625 56 
Q 37.15625 56 41.109375 55.140625 
Q 45.0625 54.296875 48.78125 52.59375 
z
" id="DejaVuSans-99"/>
        <path d="M 18.3125 70.21875 
L 18.3125 54.6875 
L 36.8125 54.6875 
L 36.8125 47.703125 
L 18.3125 47.703125 
L 18.3125 18.015625 
Q 18.3125 11.328125 20.140625 9.421875 
Q 21.96875 7.515625 27.59375 7.515625 
L 36.8125 7.515625 
L 36.8125 0 
L 27.59375 0 
Q 17.1875 0 13.234375 3.875 
Q 9.28125 7.765625 9.28125 18.015625 
L 9.28125 47.703125 
L 2.6875 47.703125 
L 2.6875 54.6875 
L 9.28125 54.6875 
L 9.28125 70.21875 
z
" id="DejaVuSans-116"/>
       </defs>
       <use xlink:href="#DejaVuSans-79"/>
       <use x="78.710938" xlink:href="#DejaVuSans-99"/>
       <use x="133.691406" xlink:href="#DejaVuSans-116"/>
      </g>
     </g>
    </g>
    <g id="xtick_8">
     <g id="line2d_8">
      <g>
       <use style="stroke:#000000;stroke-width:0.8;" x="444.45283" xlink:href="#m3b11596e69" y="315"/>
      </g>
     </g>
     <g id="text_7">
      <!-- Nov -->
      <g transform="translate(434.693455 329.598437)scale(0.1 -0.1)">
       <defs>
        <path d="M 9.8125 72.90625 
L 23.09375 72.90625 
L 55.421875 11.921875 
L 55.421875 72.90625 
L 64.984375 72.90625 
L 64.984375 0 
L 51.703125 0 
L 19.390625 60.984375 
L 19.390625 0 
L 9.8125 0 
z
" id="DejaVuSans-78"/>
        <path d="M 30.609375 48.390625 
Q 23.390625 48.390625 19.1875 42.75 
Q 14.984375 37.109375 14.984375 27.296875 
Q 14.984375 17.484375 19.15625 11.84375 
Q 23.34375 6.203125 30.609375 6.203125 
Q 37.796875 6.203125 41.984375 11.859375 
Q 46.1875 17.53125 46.1875 27.296875 
Q 46.1875 37.015625 41.984375 42.703125 
Q 37.796875 48.390625 30.609375 48.390625 
z
M 30.609375 56 
Q 42.328125 56 49.015625 48.375 
Q 55.71875 40.765625 55.71875 27.296875 
Q 55.71875 13.875 49.015625 6.21875 
Q 42.328125 -1.421875 30.609375 -1.421875 
Q 18.84375 -1.421875 12.171875 6.21875 
Q 5.515625 13.875 5.515625 27.296875 
Q 5.515625 40.765625 12.171875 48.375 
Q 18.84375 56 30.609375 56 
z
" id="DejaVuSans-111"/>
        <path d="M 2.984375 54.6875 
L 12.5 54.6875 
L 29.59375 8.796875 
L 46.6875 54.6875 
L 56.203125 54.6875 
L 35.6875 0 
L 23.484375 0 
z
" id="DejaVuSans-118"/>
       </defs>
       <use xlink:href="#DejaVuSans-78"/>
       <use x="74.804688" xlink:href="#DejaVuSans-111"/>
       <use x="135.986328" xlink:href="#DejaVuSans-118"/>
      </g>
     </g>
    </g>
    <g id="xtick_9">
     <g id="line2d_9">
      <g>
       <use style="stroke:#000000;stroke-width:0.8;" x="497.09434" xlink:href="#m3b11596e69" y="315"/>
      </g>
     </g>
     <g id="text_8">
      <!-- Dec -->
      <g transform="translate(487.418558 329.598437)scale(0.1 -0.1)">
       <defs>
        <path d="M 19.671875 64.796875 
L 19.671875 8.109375 
L 31.59375 8.109375 
Q 46.6875 8.109375 53.6875 14.9375 
Q 60.6875 21.78125 60.6875 36.53125 
Q 60.6875 51.171875 53.6875 57.984375 
Q 46.6875 64.796875 31.59375 64.796875 
z
M 9.8125 72.90625 
L 30.078125 72.90625 
Q 51.265625 72.90625 61.171875 64.09375 
Q 71.09375 55.28125 71.09375 36.53125 
Q 71.09375 17.671875 61.125 8.828125 
Q 51.171875 0 30.078125 0 
L 9.8125 0 
z
" id="DejaVuSans-68"/>
       </defs>
       <use xlink:href="#DejaVuSans-68"/>
       <use x="77.001953" xlink:href="#DejaVuSans-101"/>
       <use x="138.525391" xlink:href="#DejaVuSans-99"/>
      </g>
     </g>
    </g>
    <g id="xtick_10">
     <g id="line2d_10">
      <g>
       <use style="stroke:#000000;stroke-width:0.8;" x="551.490566" xlink:href="#m3b11596e69" y="315"/>
      </g>
     </g>
     <g id="text_9">
      <!-- Jan -->
      <g transform="translate(543.782754 329.598437)scale(0.1 -0.1)">
       <use xlink:href="#DejaVuSans-74"/>
       <use x="29.492188" xlink:href="#DejaVuSans-97"/>
       <use x="90.771484" xlink:href="#DejaVuSans-110"/>
      </g>
      <!-- 2021 -->
      <g transform="translate(538.765566 340.79625)scale(0.1 -0.1)">
       <defs>
        <path d="M 19.1875 8.296875 
L 53.609375 8.296875 
L 53.609375 0 
L 7.328125 0 
L 7.328125 8.296875 
Q 12.9375 14.109375 22.625 23.890625 
Q 32.328125 33.6875 34.8125 36.53125 
Q 39.546875 41.84375 41.421875 45.53125 
Q 43.3125 49.21875 43.3125 52.78125 
Q 43.3125 58.59375 39.234375 62.25 
Q 35.15625 65.921875 28.609375 65.921875 
Q 23.96875 65.921875 18.8125 64.3125 
Q 13.671875 62.703125 7.8125 59.421875 
L 7.8125 69.390625 
Q 13.765625 71.78125 18.9375 73 
Q 24.125 74.21875 28.421875 74.21875 
Q 39.75 74.21875 46.484375 68.546875 
Q 53.21875 62.890625 53.21875 53.421875 
Q 53.21875 48.921875 51.53125 44.890625 
Q 49.859375 40.875 45.40625 35.40625 
Q 44.1875 33.984375 37.640625 27.21875 
Q 31.109375 20.453125 19.1875 8.296875 
z
" id="DejaVuSans-50"/>
        <path d="M 31.78125 66.40625 
Q 24.171875 66.40625 20.328125 58.90625 
Q 16.5 51.421875 16.5 36.375 
Q 16.5 21.390625 20.328125 13.890625 
Q 24.171875 6.390625 31.78125 6.390625 
Q 39.453125 6.390625 43.28125 13.890625 
Q 47.125 21.390625 47.125 36.375 
Q 47.125 51.421875 43.28125 58.90625 
Q 39.453125 66.40625 31.78125 66.40625 
z
M 31.78125 74.21875 
Q 44.046875 74.21875 50.515625 64.515625 
Q 56.984375 54.828125 56.984375 36.375 
Q 56.984375 17.96875 50.515625 8.265625 
Q 44.046875 -1.421875 31.78125 -1.421875 
Q 19.53125 -1.421875 13.0625 8.265625 
Q 6.59375 17.96875 6.59375 36.375 
Q 6.59375 54.828125 13.0625 64.515625 
Q 19.53125 74.21875 31.78125 74.21875 
z
" id="DejaVuSans-48"/>
        <path d="M 12.40625 8.296875 
L 28.515625 8.296875 
L 28.515625 63.921875 
L 10.984375 60.40625 
L 10.984375 69.390625 
L 28.421875 72.90625 
L 38.28125 72.90625 
L 38.28125 8.296875 
L 54.390625 8.296875 
L 54.390625 0 
L 12.40625 0 
z
" id="DejaVuSans-49"/>
       </defs>
       <use xlink:href="#DejaVuSans-50"/>
       <use x="63.623047" xlink:href="#DejaVuSans-48"/>
       <use x="127.246094" xlink:href="#DejaVuSans-50"/>
       <use x="190.869141" xlink:href="#DejaVuSans-49"/>
      </g>
     </g>
    </g>
    <g id="xtick_11">
     <g id="line2d_11">
      <g>
       <use style="stroke:#000000;stroke-width:0.8;" x="605.886792" xlink:href="#m3b11596e69" y="315"/>
      </g>
     </g>
     <g id="text_10">
      <!-- Feb -->
      <g transform="translate(597.03523 329.598437)scale(0.1 -0.1)">
       <defs>
        <path d="M 9.8125 72.90625 
L 51.703125 72.90625 
L 51.703125 64.59375 
L 19.671875 64.59375 
L 19.671875 43.109375 
L 48.578125 43.109375 
L 48.578125 34.8125 
L 19.671875 34.8125 
L 19.671875 0 
L 9.8125 0 
z
" id="DejaVuSans-70"/>
        <path d="M 48.6875 27.296875 
Q 48.6875 37.203125 44.609375 42.84375 
Q 40.53125 48.484375 33.40625 48.484375 
Q 26.265625 48.484375 22.1875 42.84375 
Q 18.109375 37.203125 18.109375 27.296875 
Q 18.109375 17.390625 22.1875 11.75 
Q 26.265625 6.109375 33.40625 6.109375 
Q 40.53125 6.109375 44.609375 11.75 
Q 48.6875 17.390625 48.6875 27.296875 
z
M 18.109375 46.390625 
Q 20.953125 51.265625 25.265625 53.625 
Q 29.59375 56 35.59375 56 
Q 45.5625 56 51.78125 48.09375 
Q 58.015625 40.1875 58.015625 27.296875 
Q 58.015625 14.40625 51.78125 6.484375 
Q 45.5625 -1.421875 35.59375 -1.421875 
Q 29.59375 -1.421875 25.265625 0.953125 
Q 20.953125 3.328125 18.109375 8.203125 
L 18.109375 0 
L 9.078125 0 
L 9.078125 75.984375 
L 18.109375 75.984375 
z
" id="DejaVuSans-98"/>
       </defs>
       <use xlink:href="#DejaVuSans-70"/>
       <use x="52.019531" xlink:href="#DejaVuSans-101"/>
       <use x="113.542969" xlink:href="#DejaVuSans-98"/>
      </g>
     </g>
    </g>
    <g id="xtick_12">
     <g id="line2d_12">
      <g>
       <use style="stroke:#000000;stroke-width:0.8;" x="648" xlink:href="#m3b11596e69" y="315"/>
      </g>
     </g>
    </g>
    <g id="xtick_13">
     <g id="line2d_13">
      <defs>
       <path d="M 0 0 
L 0 2 
" id="m95946e53c7" style="stroke:#000000;stroke-width:0.6;"/>
      </defs>
      <g>
       <use style="stroke:#000000;stroke-width:0.6;" x="102.283019" xlink:href="#m95946e53c7" y="315"/>
      </g>
     </g>
    </g>
    <g id="xtick_14">
     <g id="line2d_14">
      <g>
       <use style="stroke:#000000;stroke-width:0.6;" x="114.566038" xlink:href="#m95946e53c7" y="315"/>
      </g>
     </g>
    </g>
    <g id="xtick_15">
     <g id="line2d_15">
      <g>
       <use style="stroke:#000000;stroke-width:0.6;" x="126.849057" xlink:href="#m95946e53c7" y="315"/>
      </g>
     </g>
    </g>
    <g id="xtick_16">
     <g id="line2d_16">
      <g>
       <use style="stroke:#000000;stroke-width:0.6;" x="139.132075" xlink:href="#m95946e53c7" y="315"/>
      </g>
     </g>
    </g>
    <g id="xtick_17">
     <g id="line2d_17">
      <g>
       <use style="stroke:#000000;stroke-width:0.6;" x="151.415094" xlink:href="#m95946e53c7" y="315"/>
      </g>
     </g>
    </g>
    <g id="xtick_18">
     <g id="line2d_18">
      <g>
       <use style="stroke:#000000;stroke-width:0.6;" x="163.698113" xlink:href="#m95946e53c7" y="315"/>
      </g>
     </g>
    </g>
    <g id="xtick_19">
     <g id="line2d_19">
      <g>
       <use style="stroke:#000000;stroke-width:0.6;" x="188.264151" xlink:href="#m95946e53c7" y="315"/>
      </g>
     </g>
    </g>
    <g id="xtick_20">
     <g id="line2d_20">
      <g>
       <use style="stroke:#000000;stroke-width:0.6;" x="200.54717" xlink:href="#m95946e53c7" y="315"/>
      </g>
     </g>
    </g>
    <g id="xtick_21">
     <g id="line2d_21">
      <g>
       <use style="stroke:#000000;stroke-width:0.6;" x="212.830189" xlink:href="#m95946e53c7" y="315"/>
      </g>
     </g>
    </g>
    <g id="xtick_22">
     <g id="line2d_22">
      <g>
       <use style="stroke:#000000;stroke-width:0.6;" x="225.113208" xlink:href="#m95946e53c7" y="315"/>
      </g>
     </g>
    </g>
    <g id="xtick_23">
     <g id="line2d_23">
      <g>
       <use style="stroke:#000000;stroke-width:0.6;" x="237.396226" xlink:href="#m95946e53c7" y="315"/>
      </g>
     </g>
    </g>
    <g id="xtick_24">
     <g id="line2d_24">
      <g>
       <use style="stroke:#000000;stroke-width:0.6;" x="249.679245" xlink:href="#m95946e53c7" y="315"/>
      </g>
     </g>
    </g>
    <g id="xtick_25">
     <g id="line2d_25">
      <g>
       <use style="stroke:#000000;stroke-width:0.6;" x="261.962264" xlink:href="#m95946e53c7" y="315"/>
      </g>
     </g>
    </g>
    <g id="xtick_26">
     <g id="line2d_26">
      <g>
       <use style="stroke:#000000;stroke-width:0.6;" x="274.245283" xlink:href="#m95946e53c7" y="315"/>
      </g>
     </g>
    </g>
    <g id="xtick_27">
     <g id="line2d_27">
      <g>
       <use style="stroke:#000000;stroke-width:0.6;" x="286.528302" xlink:href="#m95946e53c7" y="315"/>
      </g>
     </g>
    </g>
    <g id="xtick_28">
     <g id="line2d_28">
      <g>
       <use style="stroke:#000000;stroke-width:0.6;" x="298.811321" xlink:href="#m95946e53c7" y="315"/>
      </g>
     </g>
    </g>
    <g id="xtick_29">
     <g id="line2d_29">
      <g>
       <use style="stroke:#000000;stroke-width:0.6;" x="311.09434" xlink:href="#m95946e53c7" y="315"/>
      </g>
     </g>
    </g>
    <g id="xtick_30">
     <g id="line2d_30">
      <g>
       <use style="stroke:#000000;stroke-width:0.6;" x="323.377358" xlink:href="#m95946e53c7" y="315"/>
      </g>
     </g>
    </g>
    <g id="xtick_31">
     <g id="line2d_31">
      <g>
       <use style="stroke:#000000;stroke-width:0.6;" x="335.660377" xlink:href="#m95946e53c7" y="315"/>
      </g>
     </g>
    </g>
    <g id="xtick_32">
     <g id="line2d_32">
      <g>
       <use style="stroke:#000000;stroke-width:0.6;" x="347.943396" xlink:href="#m95946e53c7" y="315"/>
      </g>
     </g>
    </g>
    <g id="xtick_33">
     <g id="line2d_33">
      <g>
       <use style="stroke:#000000;stroke-width:0.6;" x="360.226415" xlink:href="#m95946e53c7" y="315"/>
      </g>
     </g>
    </g>
    <g id="xtick_34">
     <g id="line2d_34">
      <g>
       <use style="stroke:#000000;stroke-width:0.6;" x="372.509434" xlink:href="#m95946e53c7" y="315"/>
      </g>
     </g>
    </g>
    <g id="xtick_35">
     <g id="line2d_35">
      <g>
       <use style="stroke:#000000;stroke-width:0.6;" x="384.792453" xlink:href="#m95946e53c7" y="315"/>
      </g>
     </g>
    </g>
    <g id="xtick_36">
     <g id="line2d_36">
      <g>
       <use style="stroke:#000000;stroke-width:0.6;" x="397.075472" xlink:href="#m95946e53c7" y="315"/>
      </g>
     </g>
    </g>
    <g id="xtick_37">
     <g id="line2d_37">
      <g>
       <use style="stroke:#000000;stroke-width:0.6;" x="409.358491" xlink:href="#m95946e53c7" y="315"/>
      </g>
     </g>
    </g>
    <g id="xtick_38">
     <g id="line2d_38">
      <g>
       <use style="stroke:#000000;stroke-width:0.6;" x="421.641509" xlink:href="#m95946e53c7" y="315"/>
      </g>
     </g>
    </g>
    <g id="xtick_39">
     <g id="line2d_39">
      <g>
       <use style="stroke:#000000;stroke-width:0.6;" x="433.924528" xlink:href="#m95946e53c7" y="315"/>
      </g>
     </g>
    </g>
    <g id="xtick_40">
     <g id="line2d_40">
      <g>
       <use style="stroke:#000000;stroke-width:0.6;" x="446.207547" xlink:href="#m95946e53c7" y="315"/>
      </g>
     </g>
    </g>
    <g id="xtick_41">
     <g id="line2d_41">
      <g>
       <use style="stroke:#000000;stroke-width:0.6;" x="458.490566" xlink:href="#m95946e53c7" y="315"/>
      </g>
     </g>
    </g>
    <g id="xtick_42">
     <g id="line2d_42">
      <g>
       <use style="stroke:#000000;stroke-width:0.6;" x="470.773585" xlink:href="#m95946e53c7" y="315"/>
      </g>
     </g>
    </g>
    <g id="xtick_43">
     <g id="line2d_43">
      <g>
       <use style="stroke:#000000;stroke-width:0.6;" x="483.056604" xlink:href="#m95946e53c7" y="315"/>
      </g>
     </g>
    </g>
    <g id="xtick_44">
     <g id="line2d_44">
      <g>
       <use style="stroke:#000000;stroke-width:0.6;" x="495.339623" xlink:href="#m95946e53c7" y="315"/>
      </g>
     </g>
    </g>
    <g id="xtick_45">
     <g id="line2d_45">
      <g>
       <use style="stroke:#000000;stroke-width:0.6;" x="507.622642" xlink:href="#m95946e53c7" y="315"/>
      </g>
     </g>
    </g>
    <g id="xtick_46">
     <g id="line2d_46">
      <g>
       <use style="stroke:#000000;stroke-width:0.6;" x="519.90566" xlink:href="#m95946e53c7" y="315"/>
      </g>
     </g>
    </g>
    <g id="xtick_47">
     <g id="line2d_47">
      <g>
       <use style="stroke:#000000;stroke-width:0.6;" x="532.188679" xlink:href="#m95946e53c7" y="315"/>
      </g>
     </g>
    </g>
    <g id="xtick_48">
     <g id="line2d_48">
      <g>
       <use style="stroke:#000000;stroke-width:0.6;" x="544.471698" xlink:href="#m95946e53c7" y="315"/>
      </g>
     </g>
    </g>
    <g id="xtick_49">
     <g id="line2d_49">
      <g>
       <use style="stroke:#000000;stroke-width:0.6;" x="556.754717" xlink:href="#m95946e53c7" y="315"/>
      </g>
     </g>
    </g>
    <g id="xtick_50">
     <g id="line2d_50">
      <g>
       <use style="stroke:#000000;stroke-width:0.6;" x="569.037736" xlink:href="#m95946e53c7" y="315"/>
      </g>
     </g>
    </g>
    <g id="xtick_51">
     <g id="line2d_51">
      <g>
       <use style="stroke:#000000;stroke-width:0.6;" x="581.320755" xlink:href="#m95946e53c7" y="315"/>
      </g>
     </g>
    </g>
    <g id="xtick_52">
     <g id="line2d_52">
      <g>
       <use style="stroke:#000000;stroke-width:0.6;" x="593.603774" xlink:href="#m95946e53c7" y="315"/>
      </g>
     </g>
    </g>
    <g id="xtick_53">
     <g id="line2d_53">
      <g>
       <use style="stroke:#000000;stroke-width:0.6;" x="618.169811" xlink:href="#m95946e53c7" y="315"/>
      </g>
     </g>
    </g>
    <g id="xtick_54">
     <g id="line2d_54">
      <g>
       <use style="stroke:#000000;stroke-width:0.6;" x="630.45283" xlink:href="#m95946e53c7" y="315"/>
      </g>
     </g>
    </g>
    <g id="xtick_55">
     <g id="line2d_55">
      <g>
       <use style="stroke:#000000;stroke-width:0.6;" x="642.735849" xlink:href="#m95946e53c7" y="315"/>
      </g>
     </g>
    </g>
    <g id="text_11">
     <!-- date -->
     <g transform="translate(357.725 354.474375)scale(0.1 -0.1)">
      <defs>
       <path d="M 45.40625 46.390625 
L 45.40625 75.984375 
L 54.390625 75.984375 
L 54.390625 0 
L 45.40625 0 
L 45.40625 8.203125 
Q 42.578125 3.328125 38.25 0.953125 
Q 33.9375 -1.421875 27.875 -1.421875 
Q 17.96875 -1.421875 11.734375 6.484375 
Q 5.515625 14.40625 5.515625 27.296875 
Q 5.515625 40.1875 11.734375 48.09375 
Q 17.96875 56 27.875 56 
Q 33.9375 56 38.25 53.625 
Q 42.578125 51.265625 45.40625 46.390625 
z
M 14.796875 27.296875 
Q 14.796875 17.390625 18.875 11.75 
Q 22.953125 6.109375 30.078125 6.109375 
Q 37.203125 6.109375 41.296875 11.75 
Q 45.40625 17.390625 45.40625 27.296875 
Q 45.40625 37.203125 41.296875 42.84375 
Q 37.203125 48.484375 30.078125 48.484375 
Q 22.953125 48.484375 18.875 42.84375 
Q 14.796875 37.203125 14.796875 27.296875 
z
" id="DejaVuSans-100"/>
      </defs>
      <use xlink:href="#DejaVuSans-100"/>
      <use x="63.476562" xlink:href="#DejaVuSans-97"/>
      <use x="124.755859" xlink:href="#DejaVuSans-116"/>
      <use x="163.964844" xlink:href="#DejaVuSans-101"/>
     </g>
    </g>
   </g>
   <g id="matplotlib.axis_2">
    <g id="ytick_1">
     <g id="line2d_56">
      <path clip-path="url(#p51ddecf947)" d="M 90 297.066251 
L 648 297.066251 
" style="fill:none;stroke:#b0b0b0;stroke-dasharray:0.8,1.32;stroke-dashoffset:0;stroke-width:0.8;"/>
     </g>
     <g id="line2d_57">
      <defs>
       <path d="M 0 0 
L -3.5 0 
" id="m0a48d8f674" style="stroke:#000000;stroke-width:0.8;"/>
      </defs>
      <g>
       <use style="stroke:#000000;stroke-width:0.8;" x="90" xlink:href="#m0a48d8f674" y="297.066251"/>
      </g>
     </g>
     <g id="text_12">
      <!-- 0.4 -->
      <g transform="translate(67.096875 300.865469)scale(0.1 -0.1)">
       <defs>
        <path d="M 10.6875 12.40625 
L 21 12.40625 
L 21 0 
L 10.6875 0 
z
" id="DejaVuSans-46"/>
        <path d="M 37.796875 64.3125 
L 12.890625 25.390625 
L 37.796875 25.390625 
z
M 35.203125 72.90625 
L 47.609375 72.90625 
L 47.609375 25.390625 
L 58.015625 25.390625 
L 58.015625 17.1875 
L 47.609375 17.1875 
L 47.609375 0 
L 37.796875 0 
L 37.796875 17.1875 
L 4.890625 17.1875 
L 4.890625 26.703125 
z
" id="DejaVuSans-52"/>
       </defs>
       <use xlink:href="#DejaVuSans-48"/>
       <use x="63.623047" xlink:href="#DejaVuSans-46"/>
       <use x="95.410156" xlink:href="#DejaVuSans-52"/>
      </g>
     </g>
    </g>
    <g id="ytick_2">
     <g id="line2d_58">
      <path clip-path="url(#p51ddecf947)" d="M 90 264.722572 
L 648 264.722572 
" style="fill:none;stroke:#b0b0b0;stroke-dasharray:0.8,1.32;stroke-dashoffset:0;stroke-width:0.8;"/>
     </g>
     <g id="line2d_59">
      <g>
       <use style="stroke:#000000;stroke-width:0.8;" x="90" xlink:href="#m0a48d8f674" y="264.722572"/>
      </g>
     </g>
     <g id="text_13">
      <!-- 0.6 -->
      <g transform="translate(67.096875 268.521791)scale(0.1 -0.1)">
       <defs>
        <path d="M 33.015625 40.375 
Q 26.375 40.375 22.484375 35.828125 
Q 18.609375 31.296875 18.609375 23.390625 
Q 18.609375 15.53125 22.484375 10.953125 
Q 26.375 6.390625 33.015625 6.390625 
Q 39.65625 6.390625 43.53125 10.953125 
Q 47.40625 15.53125 47.40625 23.390625 
Q 47.40625 31.296875 43.53125 35.828125 
Q 39.65625 40.375 33.015625 40.375 
z
M 52.59375 71.296875 
L 52.59375 62.3125 
Q 48.875 64.0625 45.09375 64.984375 
Q 41.3125 65.921875 37.59375 65.921875 
Q 27.828125 65.921875 22.671875 59.328125 
Q 17.53125 52.734375 16.796875 39.40625 
Q 19.671875 43.65625 24.015625 45.921875 
Q 28.375 48.1875 33.59375 48.1875 
Q 44.578125 48.1875 50.953125 41.515625 
Q 57.328125 34.859375 57.328125 23.390625 
Q 57.328125 12.15625 50.6875 5.359375 
Q 44.046875 -1.421875 33.015625 -1.421875 
Q 20.359375 -1.421875 13.671875 8.265625 
Q 6.984375 17.96875 6.984375 36.375 
Q 6.984375 53.65625 15.1875 63.9375 
Q 23.390625 74.21875 37.203125 74.21875 
Q 40.921875 74.21875 44.703125 73.484375 
Q 48.484375 72.75 52.59375 71.296875 
z
" id="DejaVuSans-54"/>
       </defs>
       <use xlink:href="#DejaVuSans-48"/>
       <use x="63.623047" xlink:href="#DejaVuSans-46"/>
       <use x="95.410156" xlink:href="#DejaVuSans-54"/>
      </g>
     </g>
    </g>
    <g id="ytick_3">
     <g id="line2d_60">
      <path clip-path="url(#p51ddecf947)" d="M 90 232.378894 
L 648 232.378894 
" style="fill:none;stroke:#b0b0b0;stroke-dasharray:0.8,1.32;stroke-dashoffset:0;stroke-width:0.8;"/>
     </g>
     <g id="line2d_61">
      <g>
       <use style="stroke:#000000;stroke-width:0.8;" x="90" xlink:href="#m0a48d8f674" y="232.378894"/>
      </g>
     </g>
     <g id="text_14">
      <!-- 0.8 -->
      <g transform="translate(67.096875 236.178113)scale(0.1 -0.1)">
       <defs>
        <path d="M 31.78125 34.625 
Q 24.75 34.625 20.71875 30.859375 
Q 16.703125 27.09375 16.703125 20.515625 
Q 16.703125 13.921875 20.71875 10.15625 
Q 24.75 6.390625 31.78125 6.390625 
Q 38.8125 6.390625 42.859375 10.171875 
Q 46.921875 13.96875 46.921875 20.515625 
Q 46.921875 27.09375 42.890625 30.859375 
Q 38.875 34.625 31.78125 34.625 
z
M 21.921875 38.8125 
Q 15.578125 40.375 12.03125 44.71875 
Q 8.5 49.078125 8.5 55.328125 
Q 8.5 64.0625 14.71875 69.140625 
Q 20.953125 74.21875 31.78125 74.21875 
Q 42.671875 74.21875 48.875 69.140625 
Q 55.078125 64.0625 55.078125 55.328125 
Q 55.078125 49.078125 51.53125 44.71875 
Q 48 40.375 41.703125 38.8125 
Q 48.828125 37.15625 52.796875 32.3125 
Q 56.78125 27.484375 56.78125 20.515625 
Q 56.78125 9.90625 50.3125 4.234375 
Q 43.84375 -1.421875 31.78125 -1.421875 
Q 19.734375 -1.421875 13.25 4.234375 
Q 6.78125 9.90625 6.78125 20.515625 
Q 6.78125 27.484375 10.78125 32.3125 
Q 14.796875 37.15625 21.921875 38.8125 
z
M 18.3125 54.390625 
Q 18.3125 48.734375 21.84375 45.5625 
Q 25.390625 42.390625 31.78125 42.390625 
Q 38.140625 42.390625 41.71875 45.5625 
Q 45.3125 48.734375 45.3125 54.390625 
Q 45.3125 60.0625 41.71875 63.234375 
Q 38.140625 66.40625 31.78125 66.40625 
Q 25.390625 66.40625 21.84375 63.234375 
Q 18.3125 60.0625 18.3125 54.390625 
z
" id="DejaVuSans-56"/>
       </defs>
       <use xlink:href="#DejaVuSans-48"/>
       <use x="63.623047" xlink:href="#DejaVuSans-46"/>
       <use x="95.410156" xlink:href="#DejaVuSans-56"/>
      </g>
     </g>
    </g>
    <g id="ytick_4">
     <g id="line2d_62">
      <path clip-path="url(#p51ddecf947)" d="M 90 200.035216 
L 648 200.035216 
" style="fill:none;stroke:#b0b0b0;stroke-dasharray:0.8,1.32;stroke-dashoffset:0;stroke-width:0.8;"/>
     </g>
     <g id="line2d_63">
      <g>
       <use style="stroke:#000000;stroke-width:0.8;" x="90" xlink:href="#m0a48d8f674" y="200.035216"/>
      </g>
     </g>
     <g id="text_15">
      <!-- 1.0 -->
      <g transform="translate(67.096875 203.834435)scale(0.1 -0.1)">
       <use xlink:href="#DejaVuSans-49"/>
       <use x="63.623047" xlink:href="#DejaVuSans-46"/>
       <use x="95.410156" xlink:href="#DejaVuSans-48"/>
      </g>
     </g>
    </g>
    <g id="ytick_5">
     <g id="line2d_64">
      <path clip-path="url(#p51ddecf947)" d="M 90 167.691538 
L 648 167.691538 
" style="fill:none;stroke:#b0b0b0;stroke-dasharray:0.8,1.32;stroke-dashoffset:0;stroke-width:0.8;"/>
     </g>
     <g id="line2d_65">
      <g>
       <use style="stroke:#000000;stroke-width:0.8;" x="90" xlink:href="#m0a48d8f674" y="167.691538"/>
      </g>
     </g>
     <g id="text_16">
      <!-- 1.2 -->
      <g transform="translate(67.096875 171.490757)scale(0.1 -0.1)">
       <use xlink:href="#DejaVuSans-49"/>
       <use x="63.623047" xlink:href="#DejaVuSans-46"/>
       <use x="95.410156" xlink:href="#DejaVuSans-50"/>
      </g>
     </g>
    </g>
    <g id="ytick_6">
     <g id="line2d_66">
      <path clip-path="url(#p51ddecf947)" d="M 90 135.34786 
L 648 135.34786 
" style="fill:none;stroke:#b0b0b0;stroke-dasharray:0.8,1.32;stroke-dashoffset:0;stroke-width:0.8;"/>
     </g>
     <g id="line2d_67">
      <g>
       <use style="stroke:#000000;stroke-width:0.8;" x="90" xlink:href="#m0a48d8f674" y="135.34786"/>
      </g>
     </g>
     <g id="text_17">
      <!-- 1.4 -->
      <g transform="translate(67.096875 139.147078)scale(0.1 -0.1)">
       <use xlink:href="#DejaVuSans-49"/>
       <use x="63.623047" xlink:href="#DejaVuSans-46"/>
       <use x="95.410156" xlink:href="#DejaVuSans-52"/>
      </g>
     </g>
    </g>
    <g id="ytick_7">
     <g id="line2d_68">
      <path clip-path="url(#p51ddecf947)" d="M 90 103.004182 
L 648 103.004182 
" style="fill:none;stroke:#b0b0b0;stroke-dasharray:0.8,1.32;stroke-dashoffset:0;stroke-width:0.8;"/>
     </g>
     <g id="line2d_69">
      <g>
       <use style="stroke:#000000;stroke-width:0.8;" x="90" xlink:href="#m0a48d8f674" y="103.004182"/>
      </g>
     </g>
     <g id="text_18">
      <!-- 1.6 -->
      <g transform="translate(67.096875 106.8034)scale(0.1 -0.1)">
       <use xlink:href="#DejaVuSans-49"/>
       <use x="63.623047" xlink:href="#DejaVuSans-46"/>
       <use x="95.410156" xlink:href="#DejaVuSans-54"/>
      </g>
     </g>
    </g>
    <g id="ytick_8">
     <g id="line2d_70">
      <path clip-path="url(#p51ddecf947)" d="M 90 70.660503 
L 648 70.660503 
" style="fill:none;stroke:#b0b0b0;stroke-dasharray:0.8,1.32;stroke-dashoffset:0;stroke-width:0.8;"/>
     </g>
     <g id="line2d_71">
      <g>
       <use style="stroke:#000000;stroke-width:0.8;" x="90" xlink:href="#m0a48d8f674" y="70.660503"/>
      </g>
     </g>
     <g id="text_19">
      <!-- 1.8 -->
      <g transform="translate(67.096875 74.459722)scale(0.1 -0.1)">
       <use xlink:href="#DejaVuSans-49"/>
       <use x="63.623047" xlink:href="#DejaVuSans-46"/>
       <use x="95.410156" xlink:href="#DejaVuSans-56"/>
      </g>
     </g>
    </g>
   </g>
   <g id="line2d_72">
    <path clip-path="url(#p51ddecf947)" d="M 90 269.773818 
L 91.754717 269.616627 
L 93.509434 268.380147 
L 95.264151 268.672693 
L 97.018868 267.647093 
L 98.773585 266.28632 
L 100.528302 263.969109 
L 102.283019 264.183176 
L 107.54717 258.172267 
L 109.301887 256.248305 
L 111.056604 253.690621 
L 112.811321 250.850117 
L 116.320755 247.093664 
L 118.075472 245.587797 
L 119.830189 243.724371 
L 121.584906 241.344193 
L 123.339623 238.154721 
L 126.849057 232.570777 
L 128.603774 231.027952 
L 130.358491 227.735659 
L 132.113208 224.194222 
L 133.867925 221.83298 
L 135.622642 219.055526 
L 137.377358 215.380697 
L 139.132075 212.726727 
L 142.641509 205.14219 
L 144.396226 202.910532 
L 146.150943 199.975766 
L 147.90566 197.652578 
L 149.660377 194.721226 
L 151.415094 193.505317 
L 153.169811 190.315435 
L 154.924528 186.12869 
L 156.679245 184.919501 
L 158.433962 183.24598 
L 160.188679 181.404462 
L 163.698113 176.574722 
L 165.45283 173.243092 
L 167.207547 170.938536 
L 168.962264 169.238909 
L 170.716981 166.340131 
L 172.471698 164.143242 
L 174.226415 164.674214 
L 175.981132 163.446424 
L 177.735849 161.964788 
L 179.490566 160.976187 
L 181.245283 159.2887 
L 183 156.54496 
L 184.754717 156.033589 
L 186.509434 154.21428 
L 188.264151 151.575137 
L 190.018868 148.628616 
L 191.773585 144.451343 
L 193.528302 141.938132 
L 195.283019 139.911184 
L 197.037736 134.752826 
L 198.792453 132.901435 
L 200.54717 129.251782 
L 202.301887 124.897734 
L 204.056604 124.080778 
L 205.811321 119.966413 
L 207.566038 116.32945 
L 209.320755 113.034193 
L 211.075472 113.395976 
L 212.830189 110.759402 
L 214.584906 108.343634 
L 216.339623 107.573364 
L 218.09434 104.401402 
L 219.849057 105.918604 
L 221.603774 103.27772 
L 223.358491 102.36489 
L 225.113208 103.484996 
L 226.867925 103.003632 
L 228.622642 103.660061 
L 230.377358 106.902418 
L 232.132075 107.709315 
L 233.886792 112.021436 
L 235.641509 114.186644 
L 237.396226 119.83917 
L 240.90566 127.948034 
L 242.660377 133.387208 
L 244.415094 140.420703 
L 246.169811 146.035444 
L 247.924528 152.166378 
L 249.679245 157.142326 
L 251.433962 163.231011 
L 253.188679 168.728378 
L 254.943396 172.870451 
L 258.45283 184.022276 
L 261.962264 192.750501 
L 263.716981 195.335245 
L 265.471698 198.501016 
L 267.226415 202.461247 
L 268.981132 204.619802 
L 270.735849 206.31562 
L 272.490566 207.451137 
L 274.245283 209.234193 
L 276 210.10344 
L 277.754717 209.41173 
L 279.509434 209.843047 
L 281.264151 208.955952 
L 283.018868 207.74884 
L 284.773585 205.889574 
L 286.528302 202.501946 
L 288.283019 199.999085 
L 290.037736 197.785386 
L 291.792453 196.700909 
L 293.54717 194.627585 
L 295.301887 190.586927 
L 297.056604 189.046796 
L 298.811321 185.161149 
L 300.566038 182.536799 
L 302.320755 180.671276 
L 304.075472 179.331047 
L 305.830189 176.416102 
L 307.584906 173.109787 
L 309.339623 169.548005 
L 311.09434 167.168383 
L 312.849057 164.329398 
L 314.603774 160.310002 
L 316.358491 157.081694 
L 318.113208 153.062566 
L 319.867925 150.244647 
L 321.622642 145.002267 
L 323.377358 143.075171 
L 325.132075 139.115846 
L 326.886792 136.825909 
L 328.641509 136.289726 
L 330.396226 135.042137 
L 332.150943 135.115273 
L 333.90566 136.945633 
L 337.415094 142.921303 
L 339.169811 147.29601 
L 340.924528 153.139674 
L 342.679245 159.928798 
L 344.433962 166.220253 
L 346.188679 173.496361 
L 347.943396 178.994373 
L 354.962264 206.499763 
L 356.716981 211.190579 
L 360.226415 222.456123 
L 361.981132 227.372736 
L 363.735849 230.59191 
L 365.490566 234.715091 
L 367.245283 238.059365 
L 369 242.075856 
L 370.754717 245.525569 
L 372.509434 248.219583 
L 374.264151 251.172649 
L 376.018868 252.646256 
L 377.773585 253.950171 
L 379.528302 255.975563 
L 381.283019 256.66455 
L 383.037736 257.113787 
L 384.792453 258.419129 
L 386.54717 258.487617 
L 388.301887 259.176363 
L 390.056604 259.607041 
L 391.811321 259.098845 
L 393.566038 259.173806 
L 397.075472 257.248074 
L 398.830189 256.961709 
L 400.584906 255.362443 
L 402.339623 254.271955 
L 404.09434 252.734052 
L 407.603774 247.332206 
L 409.358491 245.29203 
L 411.113208 242.557699 
L 412.867925 238.50101 
L 414.622642 235.520128 
L 416.377358 232.283331 
L 418.132075 228.751085 
L 419.886792 225.673799 
L 421.641509 222.126259 
L 423.396226 217.329947 
L 425.150943 213.744996 
L 426.90566 209.23114 
L 428.660377 205.685882 
L 430.415094 203.876256 
L 432.169811 199.153073 
L 433.924528 196.498727 
L 435.679245 193.05526 
L 437.433962 189.28631 
L 440.943396 180.884091 
L 444.45283 175.360508 
L 446.207547 172.252581 
L 447.962264 168.836993 
L 449.716981 168.64659 
L 451.471698 163.981504 
L 453.226415 163.446795 
L 454.981132 161.91394 
L 456.735849 161.283704 
L 458.490566 161.494482 
L 460.245283 159.379837 
L 462 158.368315 
L 463.754717 155.782894 
L 465.509434 154.351359 
L 467.264151 154.486809 
L 469.018868 152.916453 
L 470.773585 150.599882 
L 472.528302 149.088998 
L 474.283019 146.011645 
L 476.037736 147.170227 
L 477.792453 147.390461 
L 479.54717 146.800157 
L 483.056604 145.858421 
L 484.811321 147.07277 
L 486.566038 145.873582 
L 488.320755 143.853505 
L 490.075472 144.303007 
L 491.830189 144.543817 
L 493.584906 142.749328 
L 495.339623 141.476965 
L 497.09434 139.561934 
L 498.849057 138.425988 
L 500.603774 138.038113 
L 502.358491 140.083481 
L 504.113208 139.37739 
L 505.867925 140.884644 
L 507.622642 141.105825 
L 509.377358 142.375675 
L 511.132075 144.738782 
L 512.886792 146.324616 
L 514.641509 148.987439 
L 516.396226 153.521714 
L 518.150943 156.218864 
L 521.660377 164.555314 
L 523.415094 166.525695 
L 525.169811 170.296954 
L 526.924528 172.826602 
L 528.679245 175.147413 
L 530.433962 176.998602 
L 532.188679 178.133815 
L 535.698113 180.805693 
L 537.45283 180.459248 
L 539.207547 183.030772 
L 540.962264 184.857329 
L 542.716981 185.795331 
L 544.471698 187.755097 
L 546.226415 189.024147 
L 547.981132 190.647253 
L 549.735849 193.080741 
L 551.490566 193.639342 
L 553.245283 194.534384 
L 555 197.410829 
L 556.754717 198.626366 
L 558.509434 199.443998 
L 560.264151 201.326113 
L 562.018868 200.603129 
L 563.773585 201.021266 
L 565.528302 202.509619 
L 567.283019 203.311794 
L 569.037736 203.76572 
L 570.792453 202.362955 
L 572.54717 202.483547 
L 574.301887 203.15659 
L 576.056604 201.886644 
L 577.811321 202.425155 
L 579.566038 202.311048 
L 581.320755 201.945322 
L 583.075472 202.28831 
L 584.830189 202.407396 
L 586.584906 204.502306 
L 588.339623 206.16749 
L 590.09434 207.412705 
L 591.849057 210.001818 
L 593.603774 211.489222 
L 595.358491 213.148671 
L 597.113208 214.982682 
L 598.867925 215.860957 
L 600.622642 216.982047 
L 602.377358 219.041817 
L 604.132075 220.929537 
L 605.886792 221.639727 
L 607.641509 223.616715 
L 609.396226 224.39848 
L 611.150943 224.396191 
L 612.90566 224.937609 
L 614.660377 226.006897 
L 616.415094 225.053795 
L 618.169811 226.587702 
L 619.924528 227.506902 
L 621.679245 227.206269 
L 623.433962 227.555001 
L 625.188679 228.664098 
L 626.943396 229.168204 
L 628.698113 230.93424 
L 630.45283 233.282075 
L 633.962264 235.703981 
L 635.716981 236.087953 
L 637.471698 238.252602 
L 639.226415 237.765907 
L 640.981132 239.473497 
L 642.735849 239.80592 
L 644.490566 240.745338 
L 646.245283 239.687837 
L 649.754717 241.328607 
L 651.509434 241.381525 
L 653.264151 240.444591 
L 655.018868 240.209727 
L 656.773585 239.769268 
L 658.528302 240.005894 
L 660.283019 239.83386 
L 662.037736 238.978616 
L 662.037736 238.978616 
" style="fill:none;stroke:#fc997a;stroke-linecap:square;stroke-width:1.5;"/>
   </g>
   <g id="line2d_73">
    <path clip-path="url(#p51ddecf947)" d="M 90 200.035216 
L 648 200.035216 
" style="fill:none;stroke:#000000;stroke-dasharray:3.7,1.6;stroke-dashoffset:0;"/>
   </g>
   <g id="patch_3">
    <path d="M 90 315 
L 90 43.2 
" style="fill:none;stroke:#000000;stroke-linecap:square;stroke-linejoin:miter;stroke-width:0.8;"/>
   </g>
   <g id="patch_4">
    <path d="M 648 315 
L 648 43.2 
" style="fill:none;stroke:#000000;stroke-linecap:square;stroke-linejoin:miter;stroke-width:0.8;"/>
   </g>
   <g id="patch_5">
    <path d="M 90 315 
L 648 315 
" style="fill:none;stroke:#000000;stroke-linecap:square;stroke-linejoin:miter;stroke-width:0.8;"/>
   </g>
   <g id="patch_6">
    <path d="M 90 43.2 
L 648 43.2 
" style="fill:none;stroke:#000000;stroke-linecap:square;stroke-linejoin:miter;stroke-width:0.8;"/>
   </g>
   <g id="text_20">
    <!-- 235   $R_t$ -->
    <g transform="translate(318.96 37.2)scale(0.12 -0.12)">
     <defs>
      <path d="M 40.578125 39.3125 
Q 47.65625 37.796875 51.625 33 
Q 55.609375 28.21875 55.609375 21.1875 
Q 55.609375 10.40625 48.1875 4.484375 
Q 40.765625 -1.421875 27.09375 -1.421875 
Q 22.515625 -1.421875 17.65625 -0.515625 
Q 12.796875 0.390625 7.625 2.203125 
L 7.625 11.71875 
Q 11.71875 9.328125 16.59375 8.109375 
Q 21.484375 6.890625 26.8125 6.890625 
Q 36.078125 6.890625 40.9375 10.546875 
Q 45.796875 14.203125 45.796875 21.1875 
Q 45.796875 27.640625 41.28125 31.265625 
Q 36.765625 34.90625 28.71875 34.90625 
L 20.21875 34.90625 
L 20.21875 43.015625 
L 29.109375 43.015625 
Q 36.375 43.015625 40.234375 45.921875 
Q 44.09375 48.828125 44.09375 54.296875 
Q 44.09375 59.90625 40.109375 62.90625 
Q 36.140625 65.921875 28.71875 65.921875 
Q 24.65625 65.921875 20.015625 65.03125 
Q 15.375 64.15625 9.8125 62.3125 
L 9.8125 71.09375 
Q 15.4375 72.65625 20.34375 73.4375 
Q 25.25 74.21875 29.59375 74.21875 
Q 40.828125 74.21875 47.359375 69.109375 
Q 53.90625 64.015625 53.90625 55.328125 
Q 53.90625 49.265625 50.4375 45.09375 
Q 46.96875 40.921875 40.578125 39.3125 
z
" id="DejaVuSans-51"/>
      <path d="M 10.796875 72.90625 
L 49.515625 72.90625 
L 49.515625 64.59375 
L 19.828125 64.59375 
L 19.828125 46.734375 
Q 21.96875 47.46875 24.109375 47.828125 
Q 26.265625 48.1875 28.421875 48.1875 
Q 40.625 48.1875 47.75 41.5 
Q 54.890625 34.8125 54.890625 23.390625 
Q 54.890625 11.625 47.5625 5.09375 
Q 40.234375 -1.421875 26.90625 -1.421875 
Q 22.3125 -1.421875 17.546875 -0.640625 
Q 12.796875 0.140625 7.71875 1.703125 
L 7.71875 11.625 
Q 12.109375 9.234375 16.796875 8.0625 
Q 21.484375 6.890625 26.703125 6.890625 
Q 35.15625 6.890625 40.078125 11.328125 
Q 45.015625 15.765625 45.015625 23.390625 
Q 45.015625 31 40.078125 35.4375 
Q 35.15625 39.890625 26.703125 39.890625 
Q 22.75 39.890625 18.8125 39.015625 
Q 14.890625 38.140625 10.796875 36.28125 
z
" id="DejaVuSans-53"/>
      <path id="DejaVuSans-32"/>
      <path d="M 57.28125 0 
L 9.078125 0 
L 9.078125 54.6875 
L 32.671875 54.6875 
Q 39.546875 54.6875 44.234375 53.265625 
Q 48.921875 51.859375 51.828125 48.703125 
Q 54.734375 45.5625 56 40.9375 
Q 57.28125 36.328125 57.28125 29.59375 
z
M 18.171875 47.703125 
L 18.171875 6.984375 
L 48.1875 6.984375 
L 48.1875 30.90625 
Q 48.1875 40.578125 45.015625 44.140625 
Q 41.84375 47.703125 32.8125 47.703125 
z
" id="DejaVuSans-1501"/>
      <path d="M 44.140625 40.828125 
L 44.140625 54.6875 
L 53.515625 54.6875 
L 53.515625 40.828125 
Q 53.515625 35.0625 53.046875 30.71875 
Q 52.59375 26.375 51.390625 22.09375 
Q 50.203125 17.828125 48.046875 14.5 
Q 45.90625 11.1875 42.578125 8.078125 
Q 39.265625 4.984375 34.515625 2.390625 
Q 29.78125 -0.203125 23.4375 -2.484375 
L 4.6875 -9.28125 
L 4.6875 -1.03125 
L 18.953125 4.046875 
L 4.296875 54.6875 
L 13.765625 54.6875 
L 27.25 7.125 
Q 33.6875 9.90625 37.203125 13.5625 
Q 40.71875 17.234375 42.421875 23.671875 
Q 44.140625 30.125 44.140625 40.828125 
z
" id="DejaVuSans-1506"/>
      <path d="M 21.78125 6.984375 
L 21.78125 36.28125 
Q 21.78125 42.28125 19.328125 44.984375 
Q 16.890625 47.703125 11.71875 47.703125 
L 5.5625 47.703125 
L 5.5625 54.6875 
L 11.71875 54.6875 
Q 21.734375 54.6875 26.296875 50.359375 
Q 30.859375 46.046875 30.859375 35.25 
L 30.859375 0 
L 4.296875 0 
L 4.296875 6.984375 
z
" id="DejaVuSans-1504"/>
      <path d="M 19.34375 -20.796875 
L 19.34375 33.40625 
L 10.25 29.6875 
L 10.25 -20.796875 
z
M 33.0625 0 
L 52.78125 47.703125 
L 9.078125 47.703125 
L 9.078125 54.640625 
L 63.328125 54.640625 
L 63.328125 49.265625 
L 42.578125 0 
z
" id="DejaVuSans-1511"/>
      <path d="M 15.71875 54.6875 
L 15.71875 24.125 
L 6.640625 20.40625 
L 6.640625 54.6875 
z
" id="DejaVuSans-1497"/>
      <path d="M 47.359375 27.828125 
L 47.359375 0 
L 38.28125 0 
L 38.28125 27.828125 
Q 38.28125 31.390625 37.765625 34.265625 
Q 37.25 37.15625 36 39.71875 
Q 34.765625 42.28125 32.8125 43.984375 
Q 30.859375 45.703125 27.78125 46.703125 
Q 24.703125 47.703125 20.703125 47.703125 
L 4.296875 47.703125 
L 4.296875 54.6875 
L 20.65625 54.6875 
Q 26.8125 54.6875 31.46875 53.390625 
Q 36.140625 52.09375 39.109375 49.828125 
Q 42.09375 47.5625 43.96875 44.109375 
Q 45.84375 40.671875 46.59375 36.734375 
Q 47.359375 32.8125 47.359375 27.828125 
z
" id="DejaVuSans-1512"/>
      <path d="M 18.171875 54.6875 
L 18.171875 0 
L 9.078125 0 
L 9.078125 54.6875 
z
" id="DejaVuSans-1493"/>
      <path d="M 30.328125 54.6875 
L 30.328125 47.703125 
L 26.421875 47.703125 
Q 22.171875 47.703125 20.578125 43.921875 
Q 19 40.140625 19 30.90625 
L 19 0 
L 9.90625 0 
L 9.90625 30.90625 
Q 9.90625 37.109375 11.78125 41.453125 
Q 13.671875 45.796875 16.40625 47.703125 
L 4.296875 47.703125 
L 4.296875 54.6875 
z
" id="DejaVuSans-1494"/>
      <path d="M 43.75 20.0625 
L 57.671875 0 
L 47.078125 0 
L 26.765625 29.296875 
Q 25.390625 28.609375 24.53125 28.09375 
Q 23.6875 27.59375 22.3125 26.296875 
Q 20.953125 25 20.140625 23.40625 
Q 19.34375 21.828125 18.703125 19.140625 
Q 18.0625 16.453125 18.0625 13.09375 
L 18.0625 0 
L 9.078125 0 
L 9.078125 9.03125 
Q 9.078125 12.984375 9.5625 16.359375 
Q 10.0625 19.734375 10.8125 22.078125 
Q 11.578125 24.421875 12.796875 26.390625 
Q 14.015625 28.375 15.109375 29.59375 
Q 16.21875 30.8125 17.796875 31.875 
Q 19.390625 32.953125 20.453125 33.46875 
Q 21.53125 33.984375 23.046875 34.625 
L 9.1875 54.6875 
L 19.78125 54.6875 
L 40.09375 25.390625 
Q 41.40625 26.03125 42.25 26.53125 
Q 43.109375 27.046875 44.46875 28.359375 
Q 45.84375 29.6875 46.671875 31.265625 
Q 47.515625 32.859375 48.140625 35.546875 
Q 48.78125 38.234375 48.78125 41.609375 
L 48.78125 54.6875 
L 57.765625 54.6875 
L 57.765625 45.65625 
Q 57.765625 41.65625 57.265625 38.3125 
Q 56.78125 34.96875 56.03125 32.59375 
Q 55.28125 30.21875 54.046875 28.234375 
Q 52.828125 26.265625 51.703125 25.0625 
Q 50.59375 23.875 49.03125 22.796875 
Q 47.46875 21.734375 46.390625 21.21875 
Q 45.3125 20.703125 43.75 20.0625 
z
" id="DejaVuSans-1488"/>
      <path d="M 25.203125 64.796875 
L 20.21875 38.921875 
L 32.90625 38.921875 
Q 40.375 38.921875 44.984375 43.046875 
Q 49.609375 47.171875 49.609375 53.8125 
Q 49.609375 59.125 46.5 61.953125 
Q 43.40625 64.796875 37.59375 64.796875 
z
M 43.3125 35.015625 
Q 46.4375 34.28125 48.515625 31.390625 
Q 50.59375 28.515625 53.328125 19.921875 
L 59.515625 0 
L 49.125 0 
L 43.40625 18.703125 
Q 41.21875 25.921875 38.328125 28.359375 
Q 35.453125 30.8125 29.5 30.8125 
L 18.609375 30.8125 
L 12.59375 0 
L 2.6875 0 
L 16.890625 72.90625 
L 39.109375 72.90625 
Q 49.21875 72.90625 54.609375 68.328125 
Q 60.015625 63.765625 60.015625 55.171875 
Q 60.015625 47.5625 55.421875 41.984375 
Q 50.828125 36.421875 43.3125 35.015625 
z
" id="DejaVuSans-Oblique-82"/>
      <path d="M 42.28125 54.6875 
L 40.921875 47.703125 
L 23 47.703125 
L 17.1875 18.015625 
Q 16.890625 16.359375 16.75 15.234375 
Q 16.609375 14.109375 16.609375 13.484375 
Q 16.609375 10.359375 18.484375 8.9375 
Q 20.359375 7.515625 24.515625 7.515625 
L 33.59375 7.515625 
L 32.078125 0 
L 23.484375 0 
Q 15.484375 0 11.546875 3.125 
Q 7.625 6.25 7.625 12.59375 
Q 7.625 13.71875 7.765625 15.0625 
Q 7.90625 16.40625 8.203125 18.015625 
L 14.015625 47.703125 
L 6.390625 47.703125 
L 7.8125 54.6875 
L 15.28125 54.6875 
L 18.3125 70.21875 
L 27.296875 70.21875 
L 24.3125 54.6875 
z
" id="DejaVuSans-Oblique-116"/>
     </defs>
     <use transform="translate(0 0.78125)" xlink:href="#DejaVuSans-50"/>
     <use transform="translate(63.623047 0.78125)" xlink:href="#DejaVuSans-51"/>
     <use transform="translate(127.246094 0.78125)" xlink:href="#DejaVuSans-53"/>
     <use transform="translate(190.869141 0.78125)" xlink:href="#DejaVuSans-32"/>
     <use transform="translate(222.65625 0.78125)" xlink:href="#DejaVuSans-1501"/>
     <use transform="translate(289.013672 0.78125)" xlink:href="#DejaVuSans-1506"/>
     <use transform="translate(351.611328 0.78125)" xlink:href="#DejaVuSans-1504"/>
     <use transform="translate(391.650391 0.78125)" xlink:href="#DejaVuSans-1511"/>
     <use transform="translate(462.597656 0.78125)" xlink:href="#DejaVuSans-1497"/>
     <use transform="translate(484.960938 0.78125)" xlink:href="#DejaVuSans-32"/>
     <use transform="translate(516.748047 0.78125)" xlink:href="#DejaVuSans-1512"/>
     <use transform="translate(573.193359 0.78125)" xlink:href="#DejaVuSans-1493"/>
     <use transform="translate(600.439453 0.78125)" xlink:href="#DejaVuSans-1494"/>
     <use transform="translate(635.058594 0.78125)" xlink:href="#DejaVuSans-1488"/>
     <use transform="translate(701.904297 0.78125)" xlink:href="#DejaVuSans-32"/>
     <use transform="translate(733.691406 0.78125)" xlink:href="#DejaVuSans-Oblique-82"/>
     <use transform="translate(803.173828 -15.625)scale(0.7)" xlink:href="#DejaVuSans-Oblique-116"/>
    </g>
   </g>
  </g>
 </g>
 <defs>
  <clipPath id="p51ddecf947">
   <rect height="271.8" width="558" x="90" y="43.2"/>
  </clipPath>
 </defs>
</svg>
