<?xml version="1.0" encoding="utf-8" standalone="no"?>
<!DOCTYPE svg PUBLIC "-//W3C//DTD SVG 1.1//EN"
  "http://www.w3.org/Graphics/SVG/1.1/DTD/svg11.dtd">
<!-- Created with matplotlib (https://matplotlib.org/) -->
<svg height="360pt" version="1.1" viewBox="0 0 720 360" width="720pt" xmlns="http://www.w3.org/2000/svg" xmlns:xlink="http://www.w3.org/1999/xlink">
 <metadata>
  <rdf:RDF xmlns:cc="http://creativecommons.org/ns#" xmlns:dc="http://purl.org/dc/elements/1.1/" xmlns:rdf="http://www.w3.org/1999/02/22-rdf-syntax-ns#">
   <cc:Work>
    <dc:type rdf:resource="http://purl.org/dc/dcmitype/StillImage"/>
    <dc:date>2021-01-20T13:06:46.811678</dc:date>
    <dc:format>image/svg+xml</dc:format>
    <dc:creator>
     <cc:Agent>
      <dc:title>Matplotlib v3.3.2, https://matplotlib.org/</dc:title>
     </cc:Agent>
    </dc:creator>
   </cc:Work>
  </rdf:RDF>
 </metadata>
 <defs>
  <style type="text/css">*{stroke-linecap:butt;stroke-linejoin:round;}</style>
 </defs>
 <g id="figure_1">
  <g id="patch_1">
   <path d="M 0 360 
L 720 360 
L 720 0 
L 0 0 
z
" style="fill:#ffffff;"/>
  </g>
  <g id="axes_1">
   <g id="patch_2">
    <path d="M 90 315 
L 648 315 
L 648 43.2 
L 90 43.2 
z
" style="fill:#ffffff;"/>
   </g>
   <g id="PolyCollection_1">
    <defs>
     <path d="M 90 -151.831558 
L 90 -253.823006 
L 91.829508 -244.6728 
L 93.659016 -247.061142 
L 95.488525 -244.455844 
L 97.318033 -235.202205 
L 99.147541 -234.692091 
L 100.977049 -226.930747 
L 102.806557 -217.180894 
L 104.636066 -205.711751 
L 106.465574 -201.761443 
L 108.295082 -190.814165 
L 110.12459 -183.946806 
L 111.954098 -174.725018 
L 113.783607 -161.628519 
L 115.613115 -155.322086 
L 117.442623 -148.654584 
L 119.272131 -142.330532 
L 121.101639 -135.430184 
L 122.931148 -130.361784 
L 124.760656 -120.806384 
L 126.590164 -116.424613 
L 128.419672 -111.564246 
L 130.24918 -105.479942 
L 132.078689 -103.875262 
L 133.908197 -100.451744 
L 135.737705 -96.520839 
L 137.567213 -93.142505 
L 139.396721 -89.750191 
L 141.22623 -90.206459 
L 143.055738 -87.557109 
L 144.885246 -85.191174 
L 146.714754 -82.869908 
L 148.544262 -81.212144 
L 150.37377 -79.710273 
L 152.203279 -80.499309 
L 154.032787 -79.652515 
L 155.862295 -79.992794 
L 157.691803 -80.345983 
L 159.521311 -81.06221 
L 161.35082 -82.292472 
L 163.180328 -84.268411 
L 165.009836 -86.29925 
L 166.839344 -87.52544 
L 168.668852 -89.584376 
L 170.498361 -92.814232 
L 172.327869 -95.561033 
L 174.157377 -96.190598 
L 175.986885 -103.133686 
L 177.816393 -105.05056 
L 179.645902 -110.441435 
L 181.47541 -113.216045 
L 183.304918 -117.715468 
L 185.134426 -123.322289 
L 186.963934 -130.612161 
L 188.793443 -137.749996 
L 190.622951 -144.307556 
L 192.452459 -149.912852 
L 194.281967 -157.420381 
L 196.111475 -169.271802 
L 197.940984 -172.560129 
L 199.770492 -180.629846 
L 201.6 -182.827254 
L 203.429508 -194.530325 
L 205.259016 -206.282194 
L 207.088525 -214.224615 
L 208.918033 -221.405228 
L 210.747541 -233.400396 
L 212.577049 -240.522852 
L 214.406557 -251.19032 
L 216.236066 -261.348679 
L 218.065574 -269.863588 
L 219.895082 -273.881912 
L 221.72459 -288.741322 
L 223.554098 -288.371291 
L 225.383607 -302.688116 
L 227.213115 -304.445455 
L 229.042623 -297.593402 
L 230.872131 -299.099072 
L 232.701639 -296.683505 
L 234.531148 -302.462124 
L 236.360656 -300.529917 
L 238.190164 -290.420602 
L 240.019672 -278.250246 
L 241.84918 -266.343192 
L 243.678689 -259.276928 
L 245.508197 -260.8837 
L 247.337705 -252.379249 
L 249.167213 -242.086471 
L 250.996721 -237.453103 
L 252.82623 -238.409468 
L 254.655738 -225.757718 
L 256.485246 -229.252786 
L 258.314754 -226.858476 
L 260.144262 -230.311383 
L 261.97377 -229.049028 
L 263.803279 -223.267747 
L 265.632787 -231.217758 
L 267.462295 -230.67681 
L 269.291803 -233.847565 
L 271.121311 -235.472714 
L 272.95082 -239.181648 
L 274.780328 -235.073893 
L 276.609836 -234.478536 
L 278.439344 -233.364509 
L 280.268852 -229.909343 
L 282.098361 -229.586529 
L 283.927869 -224.750684 
L 285.757377 -222.428218 
L 287.586885 -219.24303 
L 289.416393 -216.026803 
L 291.245902 -208.621534 
L 293.07541 -206.081008 
L 294.904918 -206.135776 
L 296.734426 -197.598769 
L 298.563934 -191.841741 
L 300.393443 -190.719335 
L 302.222951 -182.723184 
L 304.052459 -179.091358 
L 305.881967 -177.983227 
L 307.711475 -175.267652 
L 309.540984 -171.724387 
L 311.370492 -164.305087 
L 313.2 -165.066571 
L 315.029508 -159.84918 
L 316.859016 -158.373976 
L 318.688525 -154.122509 
L 320.518033 -148.541434 
L 322.347541 -146.732617 
L 324.177049 -143.074137 
L 326.006557 -142.698571 
L 327.836066 -144.269092 
L 329.665574 -141.506015 
L 331.495082 -137.552906 
L 333.32459 -137.557623 
L 335.154098 -136.92244 
L 336.983607 -136.017385 
L 338.813115 -136.608304 
L 340.642623 -137.944763 
L 342.472131 -138.151526 
L 344.301639 -143.946435 
L 346.131148 -143.725331 
L 347.960656 -146.165872 
L 349.790164 -147.394019 
L 351.619672 -152.787918 
L 353.44918 -151.525262 
L 355.278689 -157.713374 
L 357.108197 -158.163662 
L 358.937705 -165.323856 
L 360.767213 -168.544295 
L 362.596721 -171.721053 
L 364.42623 -173.209147 
L 366.255738 -174.581071 
L 368.085246 -178.2409 
L 369.914754 -181.631231 
L 371.744262 -183.150741 
L 373.57377 -183.942052 
L 375.403279 -188.131425 
L 377.232787 -193.354631 
L 379.062295 -192.751802 
L 380.891803 -197.891582 
L 382.721311 -200.618743 
L 384.55082 -199.775426 
L 386.380328 -201.30914 
L 388.209836 -202.954705 
L 390.039344 -201.277642 
L 391.868852 -203.39245 
L 393.698361 -207.119944 
L 395.527869 -205.940795 
L 397.357377 -206.910719 
L 399.186885 -211.544647 
L 401.016393 -208.619947 
L 402.845902 -207.389565 
L 404.67541 -207.985468 
L 406.504918 -208.111619 
L 408.334426 -205.471006 
L 410.163934 -205.425503 
L 411.993443 -204.984896 
L 413.822951 -203.037966 
L 415.652459 -206.152996 
L 417.481967 -200.927469 
L 419.311475 -197.730621 
L 421.140984 -197.866934 
L 422.970492 -192.861387 
L 424.8 -185.774759 
L 426.629508 -181.596595 
L 428.459016 -174.843621 
L 430.288525 -169.137563 
L 432.118033 -163.904994 
L 433.947541 -154.028804 
L 435.777049 -145.034785 
L 437.606557 -139.517681 
L 439.436066 -131.538743 
L 441.265574 -126.34095 
L 443.095082 -116.228609 
L 444.92459 -111.66059 
L 446.754098 -105.796301 
L 448.583607 -100.95564 
L 450.413115 -96.540383 
L 452.242623 -92.424304 
L 454.072131 -89.673733 
L 455.901639 -87.374619 
L 457.731148 -84.408399 
L 459.560656 -83.072983 
L 461.390164 -81.662352 
L 463.219672 -81.93572 
L 465.04918 -81.578847 
L 466.878689 -81.482363 
L 468.708197 -81.700376 
L 470.537705 -83.435209 
L 472.367213 -84.651493 
L 474.196721 -86.883211 
L 476.02623 -90.47461 
L 477.855738 -94.989803 
L 479.685246 -97.384569 
L 481.514754 -102.402076 
L 483.344262 -106.560637 
L 485.17377 -110.476801 
L 487.003279 -116.874551 
L 488.832787 -119.421908 
L 490.662295 -124.186067 
L 492.491803 -130.895554 
L 494.321311 -135.237678 
L 496.15082 -139.158252 
L 497.980328 -145.397666 
L 499.809836 -147.763534 
L 501.639344 -153.911567 
L 503.468852 -157.031274 
L 505.298361 -158.407196 
L 507.127869 -161.080291 
L 508.957377 -160.855303 
L 510.786885 -162.216676 
L 512.616393 -166.851536 
L 514.445902 -163.642978 
L 516.27541 -165.235428 
L 518.104918 -166.821963 
L 519.934426 -166.281818 
L 521.763934 -168.482315 
L 523.593443 -170.174274 
L 525.422951 -172.134402 
L 527.252459 -173.690894 
L 529.081967 -171.16706 
L 530.911475 -175.808157 
L 532.740984 -175.949033 
L 534.570492 -175.695958 
L 536.4 -179.422982 
L 538.229508 -178.583801 
L 540.059016 -181.61718 
L 541.888525 -186.909494 
L 543.718033 -183.84511 
L 545.547541 -189.140173 
L 547.377049 -190.859388 
L 549.206557 -194.19127 
L 551.036066 -192.482106 
L 552.865574 -199.342547 
L 554.695082 -203.201137 
L 556.52459 -205.897681 
L 558.354098 -208.041337 
L 560.183607 -206.011854 
L 562.013115 -208.775044 
L 563.842623 -203.95058 
L 565.672131 -205.63433 
L 567.501639 -205.546422 
L 569.331148 -208.620719 
L 571.160656 -206.511295 
L 572.990164 -211.331012 
L 574.819672 -207.415964 
L 576.64918 -210.889502 
L 578.478689 -214.114277 
L 580.308197 -209.887548 
L 582.137705 -209.702298 
L 583.967213 -213.227112 
L 585.796721 -212.571384 
L 587.62623 -214.887649 
L 589.455738 -214.622354 
L 591.285246 -217.152085 
L 593.114754 -218.811441 
L 594.944262 -216.953583 
L 596.77377 -221.64996 
L 598.603279 -222.43672 
L 600.432787 -225.86005 
L 602.262295 -224.643101 
L 604.091803 -221.794273 
L 605.921311 -226.518243 
L 607.75082 -225.142262 
L 609.580328 -226.438513 
L 611.409836 -227.878065 
L 613.239344 -221.063691 
L 615.068852 -219.272533 
L 616.898361 -218.852626 
L 618.727869 -215.24362 
L 620.557377 -210.268367 
L 622.386885 -206.000499 
L 624.216393 -202.371366 
L 626.045902 -201.851595 
L 627.87541 -194.038259 
L 629.704918 -191.630437 
L 631.534426 -186.531668 
L 633.363934 -187.174069 
L 635.193443 -185.941203 
L 637.022951 -183.883131 
L 638.852459 -187.540591 
L 640.681967 -182.511943 
L 642.511475 -182.035349 
L 644.340984 -185.19932 
L 646.170492 -186.128925 
L 648 -185.403483 
L 649.829508 -192.021245 
L 651.659016 -195.722904 
L 653.488525 -197.77849 
L 655.318033 -195.608005 
L 657.147541 -198.885394 
L 658.977049 -208.572188 
L 660.806557 -210.861505 
L 662.636066 -205.91951 
L 662.636066 -94.093217 
L 662.636066 -94.093217 
L 660.806557 -101.626637 
L 658.977049 -102.591382 
L 657.147541 -98.632093 
L 655.318033 -101.261318 
L 653.488525 -106.37421 
L 651.659016 -108.821301 
L 649.829508 -110.502838 
L 648 -106.892248 
L 646.170492 -112.416523 
L 644.340984 -115.721492 
L 642.511475 -116.664549 
L 640.681967 -121.190699 
L 638.852459 -131.306587 
L 637.022951 -132.10808 
L 635.193443 -135.98815 
L 633.363934 -138.564874 
L 631.534426 -140.765021 
L 629.704918 -147.09967 
L 627.87541 -150.042845 
L 626.045902 -155.182212 
L 624.216393 -153.977122 
L 622.386885 -159.11584 
L 620.557377 -163.002814 
L 618.727869 -167.644706 
L 616.898361 -171.088742 
L 615.068852 -171.375798 
L 613.239344 -172.116148 
L 611.409836 -178.523486 
L 609.580328 -180.04657 
L 607.75082 -178.282693 
L 605.921311 -179.965129 
L 604.091803 -173.253036 
L 602.262295 -176.797031 
L 600.432787 -176.724783 
L 598.603279 -171.967112 
L 596.77377 -173.603186 
L 594.944262 -168.279761 
L 593.114754 -169.128133 
L 591.285246 -168.975079 
L 589.455738 -169.487411 
L 587.62623 -169.240031 
L 585.796721 -167.886082 
L 583.967213 -169.520984 
L 582.137705 -165.432858 
L 580.308197 -164.496171 
L 578.478689 -166.490625 
L 576.64918 -164.173479 
L 574.819672 -160.916523 
L 572.990164 -162.868998 
L 571.160656 -159.47281 
L 569.331148 -160.935779 
L 567.501639 -160.848567 
L 565.672131 -158.910452 
L 563.842623 -158.489117 
L 562.013115 -163.811594 
L 560.183607 -161.436157 
L 558.354098 -161.355077 
L 556.52459 -157.499882 
L 554.695082 -156.661548 
L 552.865574 -153.754125 
L 551.036066 -145.698571 
L 549.206557 -151.35529 
L 547.377049 -145.497506 
L 545.547541 -145.958979 
L 543.718033 -140.848332 
L 541.888525 -143.65288 
L 540.059016 -136.801853 
L 538.229508 -134.565782 
L 536.4 -134.715603 
L 534.570492 -131.837212 
L 532.740984 -133.93171 
L 530.911475 -134.310828 
L 529.081967 -130.606519 
L 527.252459 -131.835267 
L 525.422951 -130.452145 
L 523.593443 -128.520031 
L 521.763934 -127.176821 
L 519.934426 -125.286585 
L 518.104918 -126.869763 
L 516.27541 -125.693043 
L 514.445902 -124.645475 
L 512.616393 -125.592445 
L 510.786885 -121.958804 
L 508.957377 -122.402755 
L 507.127869 -122.013235 
L 505.298361 -118.839017 
L 503.468852 -118.202582 
L 501.639344 -113.162517 
L 499.809836 -107.42889 
L 497.980328 -107.105951 
L 496.15082 -104.527739 
L 494.321311 -102.048036 
L 492.491803 -98.54833 
L 490.662295 -91.837323 
L 488.832787 -88.575189 
L 487.003279 -87.125612 
L 485.17377 -82.45524 
L 483.344262 -79.302961 
L 481.514754 -77.265434 
L 479.685246 -73.773284 
L 477.855738 -71.863716 
L 476.02623 -68.512679 
L 474.196721 -65.884706 
L 472.367213 -63.31918 
L 470.537705 -61.877546 
L 468.708197 -60.886779 
L 466.878689 -59.808551 
L 465.04918 -60.638763 
L 463.219672 -60.255902 
L 461.390164 -60.891402 
L 459.560656 -62.019043 
L 457.731148 -63.583791 
L 455.901639 -66.119856 
L 454.072131 -67.595662 
L 452.242623 -69.295601 
L 450.413115 -72.545244 
L 448.583607 -75.219378 
L 446.754098 -79.240826 
L 444.92459 -83.654432 
L 443.095082 -87.523895 
L 441.265574 -96.287416 
L 439.436066 -101.517442 
L 437.606557 -107.656014 
L 435.777049 -112.393046 
L 433.947541 -121.295867 
L 432.118033 -127.236457 
L 430.288525 -131.433306 
L 428.459016 -135.352634 
L 426.629508 -141.992052 
L 424.8 -145.15682 
L 422.970492 -149.936124 
L 421.140984 -154.18174 
L 419.311475 -154.294716 
L 417.481967 -156.039611 
L 415.652459 -160.706935 
L 413.822951 -158.230485 
L 411.993443 -159.534106 
L 410.163934 -159.827489 
L 408.334426 -159.330104 
L 406.504918 -163.501302 
L 404.67541 -161.686214 
L 402.845902 -161.390875 
L 401.016393 -160.062898 
L 399.186885 -164.11446 
L 397.357377 -160.572762 
L 395.527869 -160.519775 
L 393.698361 -161.784261 
L 391.868852 -157.697108 
L 390.039344 -154.324095 
L 388.209836 -157.112541 
L 386.380328 -154.907887 
L 384.55082 -153.843471 
L 382.721311 -154.928397 
L 380.891803 -151.800268 
L 379.062295 -146.220731 
L 377.232787 -147.012214 
L 375.403279 -145.022118 
L 373.57377 -142.424914 
L 371.744262 -143.210378 
L 369.914754 -140.772879 
L 368.085246 -135.951598 
L 366.255738 -135.352136 
L 364.42623 -131.230779 
L 362.596721 -131.508025 
L 360.767213 -129.437269 
L 358.937705 -127.240108 
L 357.108197 -122.015432 
L 355.278689 -121.283922 
L 353.44918 -115.945123 
L 351.619672 -118.005965 
L 349.790164 -113.880861 
L 347.960656 -111.57769 
L 346.131148 -109.611019 
L 344.301639 -110.801932 
L 342.472131 -104.604117 
L 340.642623 -105.024476 
L 338.813115 -103.737407 
L 336.983607 -103.71643 
L 335.154098 -104.682729 
L 333.32459 -105.715118 
L 331.495082 -105.51802 
L 329.665574 -108.381281 
L 327.836066 -110.528609 
L 326.006557 -110.665519 
L 324.177049 -110.973443 
L 322.347541 -112.788969 
L 320.518033 -112.450063 
L 318.688525 -118.936566 
L 316.859016 -120.50265 
L 315.029508 -122.276513 
L 313.2 -124.517145 
L 311.370492 -126.929297 
L 309.540984 -132.592786 
L 307.711475 -135.405112 
L 305.881967 -137.386333 
L 304.052459 -139.533916 
L 302.222951 -141.460024 
L 300.393443 -148.763574 
L 298.563934 -148.536185 
L 296.734426 -153.672644 
L 294.904918 -159.411795 
L 293.07541 -158.696839 
L 291.245902 -160.212401 
L 289.416393 -166.484197 
L 287.586885 -170.178542 
L 285.757377 -174.230005 
L 283.927869 -175.775002 
L 282.098361 -178.537841 
L 280.268852 -181.446959 
L 278.439344 -182.353128 
L 276.609836 -181.786356 
L 274.780328 -182.967934 
L 272.95082 -187.034111 
L 271.121311 -181.92462 
L 269.291803 -181.1185 
L 267.462295 -178.805647 
L 265.632787 -181.116225 
L 263.803279 -172.12139 
L 261.97377 -179.90477 
L 260.144262 -179.980991 
L 258.314754 -178.534472 
L 256.485246 -179.426875 
L 254.655738 -174.223052 
L 252.82623 -183.652213 
L 250.996721 -181.227855 
L 249.167213 -184.049333 
L 247.337705 -193.112843 
L 245.508197 -198.709845 
L 243.678689 -199.831301 
L 241.84918 -201.854459 
L 240.019672 -211.827127 
L 238.190164 -220.621245 
L 236.360656 -227.432 
L 234.531148 -226.692972 
L 232.701639 -221.428315 
L 230.872131 -224.410959 
L 229.042623 -222.344785 
L 227.213115 -229.393827 
L 225.383607 -229.213689 
L 223.554098 -217.761709 
L 221.72459 -215.367052 
L 219.895082 -202.075799 
L 218.065574 -198.235807 
L 216.236066 -193.246929 
L 214.406557 -186.020295 
L 212.577049 -176.344869 
L 210.747541 -169.631343 
L 208.918033 -162.967922 
L 207.088525 -156.622622 
L 205.259016 -150.348995 
L 203.429508 -140.415794 
L 201.6 -132.475207 
L 199.770492 -131.319532 
L 197.940984 -125.29898 
L 196.111475 -120.916902 
L 194.281967 -111.434711 
L 192.452459 -104.425766 
L 190.622951 -102.581177 
L 188.793443 -98.802688 
L 186.963934 -94.903273 
L 185.134426 -89.968848 
L 183.304918 -85.000692 
L 181.47541 -81.560002 
L 179.645902 -78.44643 
L 177.816393 -75.288908 
L 175.986885 -73.965227 
L 174.157377 -67.539731 
L 172.327869 -68.532584 
L 170.498361 -67.256658 
L 168.668852 -63.776247 
L 166.839344 -63.436126 
L 165.009836 -62.877276 
L 163.180328 -61.087771 
L 161.35082 -60.006982 
L 159.521311 -59.108386 
L 157.691803 -58.499735 
L 155.862295 -57.58097 
L 154.032787 -57.853953 
L 152.203279 -57.475888 
L 150.37377 -57.354545 
L 148.544262 -58.691859 
L 146.714754 -60.445515 
L 144.885246 -61.150394 
L 143.055738 -62.896929 
L 141.22623 -66.653203 
L 139.396721 -66.578666 
L 137.567213 -70.241851 
L 135.737705 -72.394968 
L 133.908197 -75.932683 
L 132.078689 -78.724523 
L 130.24918 -80.382886 
L 128.419672 -83.852959 
L 126.590164 -87.310532 
L 124.760656 -91.591467 
L 122.931148 -99.74113 
L 121.101639 -101.914 
L 119.272131 -107.769003 
L 117.442623 -111.233871 
L 115.613115 -115.583862 
L 113.783607 -121.199352 
L 111.954098 -130.968496 
L 110.12459 -136.223543 
L 108.295082 -139.309643 
L 106.465574 -148.267971 
L 104.636066 -147.926824 
L 102.806557 -153.33239 
L 100.977049 -159.989312 
L 99.147541 -159.702567 
L 97.318033 -155.334284 
L 95.488525 -159.440951 
L 93.659016 -157.379077 
L 91.829508 -151.672791 
L 90 -151.831558 
z
" id="m6229a5ae3f" style="stroke:#fdcbb6;stroke-opacity:0.8;"/>
    </defs>
    <g clip-path="url(#pf6e202bacd)">
     <use style="fill:#fdcbb6;fill-opacity:0.8;stroke:#fdcbb6;stroke-opacity:0.8;" x="0" xlink:href="#m6229a5ae3f" y="360"/>
    </g>
   </g>
   <g id="matplotlib.axis_1">
    <g id="xtick_1">
     <g id="line2d_1">
      <defs>
       <path d="M 0 0 
L 0 3.5 
" id="m313ee631af" style="stroke:#000000;stroke-width:0.8;"/>
      </defs>
      <g>
       <use style="stroke:#000000;stroke-width:0.8;" x="90" xlink:href="#m313ee631af" y="315"/>
      </g>
     </g>
    </g>
    <g id="xtick_2">
     <g id="line2d_2">
      <g>
       <use style="stroke:#000000;stroke-width:0.8;" x="128.419672" xlink:href="#m313ee631af" y="315"/>
      </g>
     </g>
     <g id="text_1">
      <!-- Apr -->
      <g transform="translate(119.769672 329.598437)scale(0.1 -0.1)">
       <defs>
        <path d="M 34.1875 63.1875 
L 20.796875 26.90625 
L 47.609375 26.90625 
z
M 28.609375 72.90625 
L 39.796875 72.90625 
L 67.578125 0 
L 57.328125 0 
L 50.6875 18.703125 
L 17.828125 18.703125 
L 11.1875 0 
L 0.78125 0 
z
" id="DejaVuSans-65"/>
        <path d="M 18.109375 8.203125 
L 18.109375 -20.796875 
L 9.078125 -20.796875 
L 9.078125 54.6875 
L 18.109375 54.6875 
L 18.109375 46.390625 
Q 20.953125 51.265625 25.265625 53.625 
Q 29.59375 56 35.59375 56 
Q 45.5625 56 51.78125 48.09375 
Q 58.015625 40.1875 58.015625 27.296875 
Q 58.015625 14.40625 51.78125 6.484375 
Q 45.5625 -1.421875 35.59375 -1.421875 
Q 29.59375 -1.421875 25.265625 0.953125 
Q 20.953125 3.328125 18.109375 8.203125 
z
M 48.6875 27.296875 
Q 48.6875 37.203125 44.609375 42.84375 
Q 40.53125 48.484375 33.40625 48.484375 
Q 26.265625 48.484375 22.1875 42.84375 
Q 18.109375 37.203125 18.109375 27.296875 
Q 18.109375 17.390625 22.1875 11.75 
Q 26.265625 6.109375 33.40625 6.109375 
Q 40.53125 6.109375 44.609375 11.75 
Q 48.6875 17.390625 48.6875 27.296875 
z
" id="DejaVuSans-112"/>
        <path d="M 41.109375 46.296875 
Q 39.59375 47.171875 37.8125 47.578125 
Q 36.03125 48 33.890625 48 
Q 26.265625 48 22.1875 43.046875 
Q 18.109375 38.09375 18.109375 28.8125 
L 18.109375 0 
L 9.078125 0 
L 9.078125 54.6875 
L 18.109375 54.6875 
L 18.109375 46.1875 
Q 20.953125 51.171875 25.484375 53.578125 
Q 30.03125 56 36.53125 56 
Q 37.453125 56 38.578125 55.875 
Q 39.703125 55.765625 41.0625 55.515625 
z
" id="DejaVuSans-114"/>
       </defs>
       <use xlink:href="#DejaVuSans-65"/>
       <use x="68.408203" xlink:href="#DejaVuSans-112"/>
       <use x="131.884766" xlink:href="#DejaVuSans-114"/>
      </g>
     </g>
    </g>
    <g id="xtick_3">
     <g id="line2d_3">
      <g>
       <use style="stroke:#000000;stroke-width:0.8;" x="183.304918" xlink:href="#m313ee631af" y="315"/>
      </g>
     </g>
     <g id="text_2">
      <!-- May -->
      <g transform="translate(172.967418 329.598437)scale(0.1 -0.1)">
       <defs>
        <path d="M 9.8125 72.90625 
L 24.515625 72.90625 
L 43.109375 23.296875 
L 61.8125 72.90625 
L 76.515625 72.90625 
L 76.515625 0 
L 66.890625 0 
L 66.890625 64.015625 
L 48.09375 14.015625 
L 38.1875 14.015625 
L 19.390625 64.015625 
L 19.390625 0 
L 9.8125 0 
z
" id="DejaVuSans-77"/>
        <path d="M 34.28125 27.484375 
Q 23.390625 27.484375 19.1875 25 
Q 14.984375 22.515625 14.984375 16.5 
Q 14.984375 11.71875 18.140625 8.90625 
Q 21.296875 6.109375 26.703125 6.109375 
Q 34.1875 6.109375 38.703125 11.40625 
Q 43.21875 16.703125 43.21875 25.484375 
L 43.21875 27.484375 
z
M 52.203125 31.203125 
L 52.203125 0 
L 43.21875 0 
L 43.21875 8.296875 
Q 40.140625 3.328125 35.546875 0.953125 
Q 30.953125 -1.421875 24.3125 -1.421875 
Q 15.921875 -1.421875 10.953125 3.296875 
Q 6 8.015625 6 15.921875 
Q 6 25.140625 12.171875 29.828125 
Q 18.359375 34.515625 30.609375 34.515625 
L 43.21875 34.515625 
L 43.21875 35.40625 
Q 43.21875 41.609375 39.140625 45 
Q 35.0625 48.390625 27.6875 48.390625 
Q 23 48.390625 18.546875 47.265625 
Q 14.109375 46.140625 10.015625 43.890625 
L 10.015625 52.203125 
Q 14.9375 54.109375 19.578125 55.046875 
Q 24.21875 56 28.609375 56 
Q 40.484375 56 46.34375 49.84375 
Q 52.203125 43.703125 52.203125 31.203125 
z
" id="DejaVuSans-97"/>
        <path d="M 32.171875 -5.078125 
Q 28.375 -14.84375 24.75 -17.8125 
Q 21.140625 -20.796875 15.09375 -20.796875 
L 7.90625 -20.796875 
L 7.90625 -13.28125 
L 13.1875 -13.28125 
Q 16.890625 -13.28125 18.9375 -11.515625 
Q 21 -9.765625 23.484375 -3.21875 
L 25.09375 0.875 
L 2.984375 54.6875 
L 12.5 54.6875 
L 29.59375 11.921875 
L 46.6875 54.6875 
L 56.203125 54.6875 
z
" id="DejaVuSans-121"/>
       </defs>
       <use xlink:href="#DejaVuSans-77"/>
       <use x="86.279297" xlink:href="#DejaVuSans-97"/>
       <use x="147.558594" xlink:href="#DejaVuSans-121"/>
      </g>
     </g>
    </g>
    <g id="xtick_4">
     <g id="line2d_4">
      <g>
       <use style="stroke:#000000;stroke-width:0.8;" x="240.019672" xlink:href="#m313ee631af" y="315"/>
      </g>
     </g>
     <g id="text_3">
      <!-- Jun -->
      <g transform="translate(232.207172 329.598437)scale(0.1 -0.1)">
       <defs>
        <path d="M 9.8125 72.90625 
L 19.671875 72.90625 
L 19.671875 5.078125 
Q 19.671875 -8.109375 14.671875 -14.0625 
Q 9.671875 -20.015625 -1.421875 -20.015625 
L -5.171875 -20.015625 
L -5.171875 -11.71875 
L -2.09375 -11.71875 
Q 4.4375 -11.71875 7.125 -8.046875 
Q 9.8125 -4.390625 9.8125 5.078125 
z
" id="DejaVuSans-74"/>
        <path d="M 8.5 21.578125 
L 8.5 54.6875 
L 17.484375 54.6875 
L 17.484375 21.921875 
Q 17.484375 14.15625 20.5 10.265625 
Q 23.53125 6.390625 29.59375 6.390625 
Q 36.859375 6.390625 41.078125 11.03125 
Q 45.3125 15.671875 45.3125 23.6875 
L 45.3125 54.6875 
L 54.296875 54.6875 
L 54.296875 0 
L 45.3125 0 
L 45.3125 8.40625 
Q 42.046875 3.421875 37.71875 1 
Q 33.40625 -1.421875 27.6875 -1.421875 
Q 18.265625 -1.421875 13.375 4.4375 
Q 8.5 10.296875 8.5 21.578125 
z
M 31.109375 56 
z
" id="DejaVuSans-117"/>
        <path d="M 54.890625 33.015625 
L 54.890625 0 
L 45.90625 0 
L 45.90625 32.71875 
Q 45.90625 40.484375 42.875 44.328125 
Q 39.84375 48.1875 33.796875 48.1875 
Q 26.515625 48.1875 22.3125 43.546875 
Q 18.109375 38.921875 18.109375 30.90625 
L 18.109375 0 
L 9.078125 0 
L 9.078125 54.6875 
L 18.109375 54.6875 
L 18.109375 46.1875 
Q 21.34375 51.125 25.703125 53.5625 
Q 30.078125 56 35.796875 56 
Q 45.21875 56 50.046875 50.171875 
Q 54.890625 44.34375 54.890625 33.015625 
z
" id="DejaVuSans-110"/>
       </defs>
       <use xlink:href="#DejaVuSans-74"/>
       <use x="29.492188" xlink:href="#DejaVuSans-117"/>
       <use x="92.871094" xlink:href="#DejaVuSans-110"/>
      </g>
     </g>
    </g>
    <g id="xtick_5">
     <g id="line2d_5">
      <g>
       <use style="stroke:#000000;stroke-width:0.8;" x="294.904918" xlink:href="#m313ee631af" y="315"/>
      </g>
     </g>
     <g id="text_4">
      <!-- Jul -->
      <g transform="translate(288.872106 329.598437)scale(0.1 -0.1)">
       <defs>
        <path d="M 9.421875 75.984375 
L 18.40625 75.984375 
L 18.40625 0 
L 9.421875 0 
z
" id="DejaVuSans-108"/>
       </defs>
       <use xlink:href="#DejaVuSans-74"/>
       <use x="29.492188" xlink:href="#DejaVuSans-117"/>
       <use x="92.871094" xlink:href="#DejaVuSans-108"/>
      </g>
     </g>
    </g>
    <g id="xtick_6">
     <g id="line2d_6">
      <g>
       <use style="stroke:#000000;stroke-width:0.8;" x="351.619672" xlink:href="#m313ee631af" y="315"/>
      </g>
     </g>
     <g id="text_5">
      <!-- Aug -->
      <g transform="translate(341.856391 329.598437)scale(0.1 -0.1)">
       <defs>
        <path d="M 45.40625 27.984375 
Q 45.40625 37.75 41.375 43.109375 
Q 37.359375 48.484375 30.078125 48.484375 
Q 22.859375 48.484375 18.828125 43.109375 
Q 14.796875 37.75 14.796875 27.984375 
Q 14.796875 18.265625 18.828125 12.890625 
Q 22.859375 7.515625 30.078125 7.515625 
Q 37.359375 7.515625 41.375 12.890625 
Q 45.40625 18.265625 45.40625 27.984375 
z
M 54.390625 6.78125 
Q 54.390625 -7.171875 48.1875 -13.984375 
Q 42 -20.796875 29.203125 -20.796875 
Q 24.46875 -20.796875 20.265625 -20.09375 
Q 16.0625 -19.390625 12.109375 -17.921875 
L 12.109375 -9.1875 
Q 16.0625 -11.328125 19.921875 -12.34375 
Q 23.78125 -13.375 27.78125 -13.375 
Q 36.625 -13.375 41.015625 -8.765625 
Q 45.40625 -4.15625 45.40625 5.171875 
L 45.40625 9.625 
Q 42.625 4.78125 38.28125 2.390625 
Q 33.9375 0 27.875 0 
Q 17.828125 0 11.671875 7.65625 
Q 5.515625 15.328125 5.515625 27.984375 
Q 5.515625 40.671875 11.671875 48.328125 
Q 17.828125 56 27.875 56 
Q 33.9375 56 38.28125 53.609375 
Q 42.625 51.21875 45.40625 46.390625 
L 45.40625 54.6875 
L 54.390625 54.6875 
z
" id="DejaVuSans-103"/>
       </defs>
       <use xlink:href="#DejaVuSans-65"/>
       <use x="68.408203" xlink:href="#DejaVuSans-117"/>
       <use x="131.787109" xlink:href="#DejaVuSans-103"/>
      </g>
     </g>
    </g>
    <g id="xtick_7">
     <g id="line2d_7">
      <g>
       <use style="stroke:#000000;stroke-width:0.8;" x="408.334426" xlink:href="#m313ee631af" y="315"/>
      </g>
     </g>
     <g id="text_6">
      <!-- Sep -->
      <g transform="translate(398.909426 329.598437)scale(0.1 -0.1)">
       <defs>
        <path d="M 53.515625 70.515625 
L 53.515625 60.890625 
Q 47.90625 63.578125 42.921875 64.890625 
Q 37.9375 66.21875 33.296875 66.21875 
Q 25.25 66.21875 20.875 63.09375 
Q 16.5 59.96875 16.5 54.203125 
Q 16.5 49.359375 19.40625 46.890625 
Q 22.3125 44.4375 30.421875 42.921875 
L 36.375 41.703125 
Q 47.40625 39.59375 52.65625 34.296875 
Q 57.90625 29 57.90625 20.125 
Q 57.90625 9.515625 50.796875 4.046875 
Q 43.703125 -1.421875 29.984375 -1.421875 
Q 24.8125 -1.421875 18.96875 -0.25 
Q 13.140625 0.921875 6.890625 3.21875 
L 6.890625 13.375 
Q 12.890625 10.015625 18.65625 8.296875 
Q 24.421875 6.59375 29.984375 6.59375 
Q 38.421875 6.59375 43.015625 9.90625 
Q 47.609375 13.234375 47.609375 19.390625 
Q 47.609375 24.75 44.3125 27.78125 
Q 41.015625 30.8125 33.5 32.328125 
L 27.484375 33.5 
Q 16.453125 35.6875 11.515625 40.375 
Q 6.59375 45.0625 6.59375 53.421875 
Q 6.59375 63.09375 13.40625 68.65625 
Q 20.21875 74.21875 32.171875 74.21875 
Q 37.3125 74.21875 42.625 73.28125 
Q 47.953125 72.359375 53.515625 70.515625 
z
" id="DejaVuSans-83"/>
        <path d="M 56.203125 29.59375 
L 56.203125 25.203125 
L 14.890625 25.203125 
Q 15.484375 15.921875 20.484375 11.0625 
Q 25.484375 6.203125 34.421875 6.203125 
Q 39.59375 6.203125 44.453125 7.46875 
Q 49.3125 8.734375 54.109375 11.28125 
L 54.109375 2.78125 
Q 49.265625 0.734375 44.1875 -0.34375 
Q 39.109375 -1.421875 33.890625 -1.421875 
Q 20.796875 -1.421875 13.15625 6.1875 
Q 5.515625 13.8125 5.515625 26.8125 
Q 5.515625 40.234375 12.765625 48.109375 
Q 20.015625 56 32.328125 56 
Q 43.359375 56 49.78125 48.890625 
Q 56.203125 41.796875 56.203125 29.59375 
z
M 47.21875 32.234375 
Q 47.125 39.59375 43.09375 43.984375 
Q 39.0625 48.390625 32.421875 48.390625 
Q 24.90625 48.390625 20.390625 44.140625 
Q 15.875 39.890625 15.1875 32.171875 
z
" id="DejaVuSans-101"/>
       </defs>
       <use xlink:href="#DejaVuSans-83"/>
       <use x="63.476562" xlink:href="#DejaVuSans-101"/>
       <use x="125" xlink:href="#DejaVuSans-112"/>
      </g>
     </g>
    </g>
    <g id="xtick_8">
     <g id="line2d_8">
      <g>
       <use style="stroke:#000000;stroke-width:0.8;" x="463.219672" xlink:href="#m313ee631af" y="315"/>
      </g>
     </g>
     <g id="text_7">
      <!-- Oct -->
      <g transform="translate(454.57436 329.598437)scale(0.1 -0.1)">
       <defs>
        <path d="M 39.40625 66.21875 
Q 28.65625 66.21875 22.328125 58.203125 
Q 16.015625 50.203125 16.015625 36.375 
Q 16.015625 22.609375 22.328125 14.59375 
Q 28.65625 6.59375 39.40625 6.59375 
Q 50.140625 6.59375 56.421875 14.59375 
Q 62.703125 22.609375 62.703125 36.375 
Q 62.703125 50.203125 56.421875 58.203125 
Q 50.140625 66.21875 39.40625 66.21875 
z
M 39.40625 74.21875 
Q 54.734375 74.21875 63.90625 63.9375 
Q 73.09375 53.65625 73.09375 36.375 
Q 73.09375 19.140625 63.90625 8.859375 
Q 54.734375 -1.421875 39.40625 -1.421875 
Q 24.03125 -1.421875 14.8125 8.828125 
Q 5.609375 19.09375 5.609375 36.375 
Q 5.609375 53.65625 14.8125 63.9375 
Q 24.03125 74.21875 39.40625 74.21875 
z
" id="DejaVuSans-79"/>
        <path d="M 48.78125 52.59375 
L 48.78125 44.1875 
Q 44.96875 46.296875 41.140625 47.34375 
Q 37.3125 48.390625 33.40625 48.390625 
Q 24.65625 48.390625 19.8125 42.84375 
Q 14.984375 37.3125 14.984375 27.296875 
Q 14.984375 17.28125 19.8125 11.734375 
Q 24.65625 6.203125 33.40625 6.203125 
Q 37.3125 6.203125 41.140625 7.25 
Q 44.96875 8.296875 48.78125 10.40625 
L 48.78125 2.09375 
Q 45.015625 0.34375 40.984375 -0.53125 
Q 36.96875 -1.421875 32.421875 -1.421875 
Q 20.0625 -1.421875 12.78125 6.34375 
Q 5.515625 14.109375 5.515625 27.296875 
Q 5.515625 40.671875 12.859375 48.328125 
Q 20.21875 56 33.015625 56 
Q 37.15625 56 41.109375 55.140625 
Q 45.0625 54.296875 48.78125 52.59375 
z
" id="DejaVuSans-99"/>
        <path d="M 18.3125 70.21875 
L 18.3125 54.6875 
L 36.8125 54.6875 
L 36.8125 47.703125 
L 18.3125 47.703125 
L 18.3125 18.015625 
Q 18.3125 11.328125 20.140625 9.421875 
Q 21.96875 7.515625 27.59375 7.515625 
L 36.8125 7.515625 
L 36.8125 0 
L 27.59375 0 
Q 17.1875 0 13.234375 3.875 
Q 9.28125 7.765625 9.28125 18.015625 
L 9.28125 47.703125 
L 2.6875 47.703125 
L 2.6875 54.6875 
L 9.28125 54.6875 
L 9.28125 70.21875 
z
" id="DejaVuSans-116"/>
       </defs>
       <use xlink:href="#DejaVuSans-79"/>
       <use x="78.710938" xlink:href="#DejaVuSans-99"/>
       <use x="133.691406" xlink:href="#DejaVuSans-116"/>
      </g>
     </g>
    </g>
    <g id="xtick_9">
     <g id="line2d_9">
      <g>
       <use style="stroke:#000000;stroke-width:0.8;" x="519.934426" xlink:href="#m313ee631af" y="315"/>
      </g>
     </g>
     <g id="text_8">
      <!-- Nov -->
      <g transform="translate(510.175051 329.598437)scale(0.1 -0.1)">
       <defs>
        <path d="M 9.8125 72.90625 
L 23.09375 72.90625 
L 55.421875 11.921875 
L 55.421875 72.90625 
L 64.984375 72.90625 
L 64.984375 0 
L 51.703125 0 
L 19.390625 60.984375 
L 19.390625 0 
L 9.8125 0 
z
" id="DejaVuSans-78"/>
        <path d="M 30.609375 48.390625 
Q 23.390625 48.390625 19.1875 42.75 
Q 14.984375 37.109375 14.984375 27.296875 
Q 14.984375 17.484375 19.15625 11.84375 
Q 23.34375 6.203125 30.609375 6.203125 
Q 37.796875 6.203125 41.984375 11.859375 
Q 46.1875 17.53125 46.1875 27.296875 
Q 46.1875 37.015625 41.984375 42.703125 
Q 37.796875 48.390625 30.609375 48.390625 
z
M 30.609375 56 
Q 42.328125 56 49.015625 48.375 
Q 55.71875 40.765625 55.71875 27.296875 
Q 55.71875 13.875 49.015625 6.21875 
Q 42.328125 -1.421875 30.609375 -1.421875 
Q 18.84375 -1.421875 12.171875 6.21875 
Q 5.515625 13.875 5.515625 27.296875 
Q 5.515625 40.765625 12.171875 48.375 
Q 18.84375 56 30.609375 56 
z
" id="DejaVuSans-111"/>
        <path d="M 2.984375 54.6875 
L 12.5 54.6875 
L 29.59375 8.796875 
L 46.6875 54.6875 
L 56.203125 54.6875 
L 35.6875 0 
L 23.484375 0 
z
" id="DejaVuSans-118"/>
       </defs>
       <use xlink:href="#DejaVuSans-78"/>
       <use x="74.804688" xlink:href="#DejaVuSans-111"/>
       <use x="135.986328" xlink:href="#DejaVuSans-118"/>
      </g>
     </g>
    </g>
    <g id="xtick_10">
     <g id="line2d_10">
      <g>
       <use style="stroke:#000000;stroke-width:0.8;" x="574.819672" xlink:href="#m313ee631af" y="315"/>
      </g>
     </g>
     <g id="text_9">
      <!-- Dec -->
      <g transform="translate(565.143891 329.598437)scale(0.1 -0.1)">
       <defs>
        <path d="M 19.671875 64.796875 
L 19.671875 8.109375 
L 31.59375 8.109375 
Q 46.6875 8.109375 53.6875 14.9375 
Q 60.6875 21.78125 60.6875 36.53125 
Q 60.6875 51.171875 53.6875 57.984375 
Q 46.6875 64.796875 31.59375 64.796875 
z
M 9.8125 72.90625 
L 30.078125 72.90625 
Q 51.265625 72.90625 61.171875 64.09375 
Q 71.09375 55.28125 71.09375 36.53125 
Q 71.09375 17.671875 61.125 8.828125 
Q 51.171875 0 30.078125 0 
L 9.8125 0 
z
" id="DejaVuSans-68"/>
       </defs>
       <use xlink:href="#DejaVuSans-68"/>
       <use x="77.001953" xlink:href="#DejaVuSans-101"/>
       <use x="138.525391" xlink:href="#DejaVuSans-99"/>
      </g>
     </g>
    </g>
    <g id="xtick_11">
     <g id="line2d_11">
      <g>
       <use style="stroke:#000000;stroke-width:0.8;" x="631.534426" xlink:href="#m313ee631af" y="315"/>
      </g>
     </g>
     <g id="text_10">
      <!-- Jan -->
      <g transform="translate(623.826614 329.598437)scale(0.1 -0.1)">
       <use xlink:href="#DejaVuSans-74"/>
       <use x="29.492188" xlink:href="#DejaVuSans-97"/>
       <use x="90.771484" xlink:href="#DejaVuSans-110"/>
      </g>
      <!-- 2021 -->
      <g transform="translate(618.809426 340.79625)scale(0.1 -0.1)">
       <defs>
        <path d="M 19.1875 8.296875 
L 53.609375 8.296875 
L 53.609375 0 
L 7.328125 0 
L 7.328125 8.296875 
Q 12.9375 14.109375 22.625 23.890625 
Q 32.328125 33.6875 34.8125 36.53125 
Q 39.546875 41.84375 41.421875 45.53125 
Q 43.3125 49.21875 43.3125 52.78125 
Q 43.3125 58.59375 39.234375 62.25 
Q 35.15625 65.921875 28.609375 65.921875 
Q 23.96875 65.921875 18.8125 64.3125 
Q 13.671875 62.703125 7.8125 59.421875 
L 7.8125 69.390625 
Q 13.765625 71.78125 18.9375 73 
Q 24.125 74.21875 28.421875 74.21875 
Q 39.75 74.21875 46.484375 68.546875 
Q 53.21875 62.890625 53.21875 53.421875 
Q 53.21875 48.921875 51.53125 44.890625 
Q 49.859375 40.875 45.40625 35.40625 
Q 44.1875 33.984375 37.640625 27.21875 
Q 31.109375 20.453125 19.1875 8.296875 
z
" id="DejaVuSans-50"/>
        <path d="M 31.78125 66.40625 
Q 24.171875 66.40625 20.328125 58.90625 
Q 16.5 51.421875 16.5 36.375 
Q 16.5 21.390625 20.328125 13.890625 
Q 24.171875 6.390625 31.78125 6.390625 
Q 39.453125 6.390625 43.28125 13.890625 
Q 47.125 21.390625 47.125 36.375 
Q 47.125 51.421875 43.28125 58.90625 
Q 39.453125 66.40625 31.78125 66.40625 
z
M 31.78125 74.21875 
Q 44.046875 74.21875 50.515625 64.515625 
Q 56.984375 54.828125 56.984375 36.375 
Q 56.984375 17.96875 50.515625 8.265625 
Q 44.046875 -1.421875 31.78125 -1.421875 
Q 19.53125 -1.421875 13.0625 8.265625 
Q 6.59375 17.96875 6.59375 36.375 
Q 6.59375 54.828125 13.0625 64.515625 
Q 19.53125 74.21875 31.78125 74.21875 
z
" id="DejaVuSans-48"/>
        <path d="M 12.40625 8.296875 
L 28.515625 8.296875 
L 28.515625 63.921875 
L 10.984375 60.40625 
L 10.984375 69.390625 
L 28.421875 72.90625 
L 38.28125 72.90625 
L 38.28125 8.296875 
L 54.390625 8.296875 
L 54.390625 0 
L 12.40625 0 
z
" id="DejaVuSans-49"/>
       </defs>
       <use xlink:href="#DejaVuSans-50"/>
       <use x="63.623047" xlink:href="#DejaVuSans-48"/>
       <use x="127.246094" xlink:href="#DejaVuSans-50"/>
       <use x="190.869141" xlink:href="#DejaVuSans-49"/>
      </g>
     </g>
    </g>
    <g id="xtick_12">
     <g id="line2d_12">
      <g>
       <use style="stroke:#000000;stroke-width:0.8;" x="648" xlink:href="#m313ee631af" y="315"/>
      </g>
     </g>
    </g>
    <g id="xtick_13">
     <g id="line2d_13">
      <defs>
       <path d="M 0 0 
L 0 2 
" id="ma00e6d47a8" style="stroke:#000000;stroke-width:0.6;"/>
      </defs>
      <g>
       <use style="stroke:#000000;stroke-width:0.6;" x="99.147541" xlink:href="#ma00e6d47a8" y="315"/>
      </g>
     </g>
    </g>
    <g id="xtick_14">
     <g id="line2d_14">
      <g>
       <use style="stroke:#000000;stroke-width:0.6;" x="111.954098" xlink:href="#ma00e6d47a8" y="315"/>
      </g>
     </g>
    </g>
    <g id="xtick_15">
     <g id="line2d_15">
      <g>
       <use style="stroke:#000000;stroke-width:0.6;" x="124.760656" xlink:href="#ma00e6d47a8" y="315"/>
      </g>
     </g>
    </g>
    <g id="xtick_16">
     <g id="line2d_16">
      <g>
       <use style="stroke:#000000;stroke-width:0.6;" x="137.567213" xlink:href="#ma00e6d47a8" y="315"/>
      </g>
     </g>
    </g>
    <g id="xtick_17">
     <g id="line2d_17">
      <g>
       <use style="stroke:#000000;stroke-width:0.6;" x="150.37377" xlink:href="#ma00e6d47a8" y="315"/>
      </g>
     </g>
    </g>
    <g id="xtick_18">
     <g id="line2d_18">
      <g>
       <use style="stroke:#000000;stroke-width:0.6;" x="163.180328" xlink:href="#ma00e6d47a8" y="315"/>
      </g>
     </g>
    </g>
    <g id="xtick_19">
     <g id="line2d_19">
      <g>
       <use style="stroke:#000000;stroke-width:0.6;" x="175.986885" xlink:href="#ma00e6d47a8" y="315"/>
      </g>
     </g>
    </g>
    <g id="xtick_20">
     <g id="line2d_20">
      <g>
       <use style="stroke:#000000;stroke-width:0.6;" x="188.793443" xlink:href="#ma00e6d47a8" y="315"/>
      </g>
     </g>
    </g>
    <g id="xtick_21">
     <g id="line2d_21">
      <g>
       <use style="stroke:#000000;stroke-width:0.6;" x="201.6" xlink:href="#ma00e6d47a8" y="315"/>
      </g>
     </g>
    </g>
    <g id="xtick_22">
     <g id="line2d_22">
      <g>
       <use style="stroke:#000000;stroke-width:0.6;" x="214.406557" xlink:href="#ma00e6d47a8" y="315"/>
      </g>
     </g>
    </g>
    <g id="xtick_23">
     <g id="line2d_23">
      <g>
       <use style="stroke:#000000;stroke-width:0.6;" x="227.213115" xlink:href="#ma00e6d47a8" y="315"/>
      </g>
     </g>
    </g>
    <g id="xtick_24">
     <g id="line2d_24">
      <g>
       <use style="stroke:#000000;stroke-width:0.6;" x="252.82623" xlink:href="#ma00e6d47a8" y="315"/>
      </g>
     </g>
    </g>
    <g id="xtick_25">
     <g id="line2d_25">
      <g>
       <use style="stroke:#000000;stroke-width:0.6;" x="265.632787" xlink:href="#ma00e6d47a8" y="315"/>
      </g>
     </g>
    </g>
    <g id="xtick_26">
     <g id="line2d_26">
      <g>
       <use style="stroke:#000000;stroke-width:0.6;" x="278.439344" xlink:href="#ma00e6d47a8" y="315"/>
      </g>
     </g>
    </g>
    <g id="xtick_27">
     <g id="line2d_27">
      <g>
       <use style="stroke:#000000;stroke-width:0.6;" x="291.245902" xlink:href="#ma00e6d47a8" y="315"/>
      </g>
     </g>
    </g>
    <g id="xtick_28">
     <g id="line2d_28">
      <g>
       <use style="stroke:#000000;stroke-width:0.6;" x="304.052459" xlink:href="#ma00e6d47a8" y="315"/>
      </g>
     </g>
    </g>
    <g id="xtick_29">
     <g id="line2d_29">
      <g>
       <use style="stroke:#000000;stroke-width:0.6;" x="316.859016" xlink:href="#ma00e6d47a8" y="315"/>
      </g>
     </g>
    </g>
    <g id="xtick_30">
     <g id="line2d_30">
      <g>
       <use style="stroke:#000000;stroke-width:0.6;" x="329.665574" xlink:href="#ma00e6d47a8" y="315"/>
      </g>
     </g>
    </g>
    <g id="xtick_31">
     <g id="line2d_31">
      <g>
       <use style="stroke:#000000;stroke-width:0.6;" x="342.472131" xlink:href="#ma00e6d47a8" y="315"/>
      </g>
     </g>
    </g>
    <g id="xtick_32">
     <g id="line2d_32">
      <g>
       <use style="stroke:#000000;stroke-width:0.6;" x="355.278689" xlink:href="#ma00e6d47a8" y="315"/>
      </g>
     </g>
    </g>
    <g id="xtick_33">
     <g id="line2d_33">
      <g>
       <use style="stroke:#000000;stroke-width:0.6;" x="368.085246" xlink:href="#ma00e6d47a8" y="315"/>
      </g>
     </g>
    </g>
    <g id="xtick_34">
     <g id="line2d_34">
      <g>
       <use style="stroke:#000000;stroke-width:0.6;" x="380.891803" xlink:href="#ma00e6d47a8" y="315"/>
      </g>
     </g>
    </g>
    <g id="xtick_35">
     <g id="line2d_35">
      <g>
       <use style="stroke:#000000;stroke-width:0.6;" x="393.698361" xlink:href="#ma00e6d47a8" y="315"/>
      </g>
     </g>
    </g>
    <g id="xtick_36">
     <g id="line2d_36">
      <g>
       <use style="stroke:#000000;stroke-width:0.6;" x="406.504918" xlink:href="#ma00e6d47a8" y="315"/>
      </g>
     </g>
    </g>
    <g id="xtick_37">
     <g id="line2d_37">
      <g>
       <use style="stroke:#000000;stroke-width:0.6;" x="419.311475" xlink:href="#ma00e6d47a8" y="315"/>
      </g>
     </g>
    </g>
    <g id="xtick_38">
     <g id="line2d_38">
      <g>
       <use style="stroke:#000000;stroke-width:0.6;" x="432.118033" xlink:href="#ma00e6d47a8" y="315"/>
      </g>
     </g>
    </g>
    <g id="xtick_39">
     <g id="line2d_39">
      <g>
       <use style="stroke:#000000;stroke-width:0.6;" x="444.92459" xlink:href="#ma00e6d47a8" y="315"/>
      </g>
     </g>
    </g>
    <g id="xtick_40">
     <g id="line2d_40">
      <g>
       <use style="stroke:#000000;stroke-width:0.6;" x="457.731148" xlink:href="#ma00e6d47a8" y="315"/>
      </g>
     </g>
    </g>
    <g id="xtick_41">
     <g id="line2d_41">
      <g>
       <use style="stroke:#000000;stroke-width:0.6;" x="470.537705" xlink:href="#ma00e6d47a8" y="315"/>
      </g>
     </g>
    </g>
    <g id="xtick_42">
     <g id="line2d_42">
      <g>
       <use style="stroke:#000000;stroke-width:0.6;" x="483.344262" xlink:href="#ma00e6d47a8" y="315"/>
      </g>
     </g>
    </g>
    <g id="xtick_43">
     <g id="line2d_43">
      <g>
       <use style="stroke:#000000;stroke-width:0.6;" x="496.15082" xlink:href="#ma00e6d47a8" y="315"/>
      </g>
     </g>
    </g>
    <g id="xtick_44">
     <g id="line2d_44">
      <g>
       <use style="stroke:#000000;stroke-width:0.6;" x="508.957377" xlink:href="#ma00e6d47a8" y="315"/>
      </g>
     </g>
    </g>
    <g id="xtick_45">
     <g id="line2d_45">
      <g>
       <use style="stroke:#000000;stroke-width:0.6;" x="521.763934" xlink:href="#ma00e6d47a8" y="315"/>
      </g>
     </g>
    </g>
    <g id="xtick_46">
     <g id="line2d_46">
      <g>
       <use style="stroke:#000000;stroke-width:0.6;" x="534.570492" xlink:href="#ma00e6d47a8" y="315"/>
      </g>
     </g>
    </g>
    <g id="xtick_47">
     <g id="line2d_47">
      <g>
       <use style="stroke:#000000;stroke-width:0.6;" x="547.377049" xlink:href="#ma00e6d47a8" y="315"/>
      </g>
     </g>
    </g>
    <g id="xtick_48">
     <g id="line2d_48">
      <g>
       <use style="stroke:#000000;stroke-width:0.6;" x="560.183607" xlink:href="#ma00e6d47a8" y="315"/>
      </g>
     </g>
    </g>
    <g id="xtick_49">
     <g id="line2d_49">
      <g>
       <use style="stroke:#000000;stroke-width:0.6;" x="572.990164" xlink:href="#ma00e6d47a8" y="315"/>
      </g>
     </g>
    </g>
    <g id="xtick_50">
     <g id="line2d_50">
      <g>
       <use style="stroke:#000000;stroke-width:0.6;" x="585.796721" xlink:href="#ma00e6d47a8" y="315"/>
      </g>
     </g>
    </g>
    <g id="xtick_51">
     <g id="line2d_51">
      <g>
       <use style="stroke:#000000;stroke-width:0.6;" x="598.603279" xlink:href="#ma00e6d47a8" y="315"/>
      </g>
     </g>
    </g>
    <g id="xtick_52">
     <g id="line2d_52">
      <g>
       <use style="stroke:#000000;stroke-width:0.6;" x="611.409836" xlink:href="#ma00e6d47a8" y="315"/>
      </g>
     </g>
    </g>
    <g id="xtick_53">
     <g id="line2d_53">
      <g>
       <use style="stroke:#000000;stroke-width:0.6;" x="624.216393" xlink:href="#ma00e6d47a8" y="315"/>
      </g>
     </g>
    </g>
    <g id="xtick_54">
     <g id="line2d_54">
      <g>
       <use style="stroke:#000000;stroke-width:0.6;" x="637.022951" xlink:href="#ma00e6d47a8" y="315"/>
      </g>
     </g>
    </g>
    <g id="text_11">
     <!-- date -->
     <g transform="translate(357.725 354.474375)scale(0.1 -0.1)">
      <defs>
       <path d="M 45.40625 46.390625 
L 45.40625 75.984375 
L 54.390625 75.984375 
L 54.390625 0 
L 45.40625 0 
L 45.40625 8.203125 
Q 42.578125 3.328125 38.25 0.953125 
Q 33.9375 -1.421875 27.875 -1.421875 
Q 17.96875 -1.421875 11.734375 6.484375 
Q 5.515625 14.40625 5.515625 27.296875 
Q 5.515625 40.1875 11.734375 48.09375 
Q 17.96875 56 27.875 56 
Q 33.9375 56 38.25 53.625 
Q 42.578125 51.265625 45.40625 46.390625 
z
M 14.796875 27.296875 
Q 14.796875 17.390625 18.875 11.75 
Q 22.953125 6.109375 30.078125 6.109375 
Q 37.203125 6.109375 41.296875 11.75 
Q 45.40625 17.390625 45.40625 27.296875 
Q 45.40625 37.203125 41.296875 42.84375 
Q 37.203125 48.484375 30.078125 48.484375 
Q 22.953125 48.484375 18.875 42.84375 
Q 14.796875 37.203125 14.796875 27.296875 
z
" id="DejaVuSans-100"/>
      </defs>
      <use xlink:href="#DejaVuSans-100"/>
      <use x="63.476562" xlink:href="#DejaVuSans-97"/>
      <use x="124.755859" xlink:href="#DejaVuSans-116"/>
      <use x="163.964844" xlink:href="#DejaVuSans-101"/>
     </g>
    </g>
   </g>
   <g id="matplotlib.axis_2">
    <g id="ytick_1">
     <g id="line2d_55">
      <path clip-path="url(#pf6e202bacd)" d="M 90 290.920094 
L 648 290.920094 
" style="fill:none;stroke:#b0b0b0;stroke-dasharray:0.8,1.32;stroke-dashoffset:0;stroke-width:0.8;"/>
     </g>
     <g id="line2d_56">
      <defs>
       <path d="M 0 0 
L -3.5 0 
" id="mdf9d037f6b" style="stroke:#000000;stroke-width:0.8;"/>
      </defs>
      <g>
       <use style="stroke:#000000;stroke-width:0.8;" x="90" xlink:href="#mdf9d037f6b" y="290.920094"/>
      </g>
     </g>
     <g id="text_12">
      <!-- 0.50 -->
      <g transform="translate(60.734375 294.719313)scale(0.1 -0.1)">
       <defs>
        <path d="M 10.6875 12.40625 
L 21 12.40625 
L 21 0 
L 10.6875 0 
z
" id="DejaVuSans-46"/>
        <path d="M 10.796875 72.90625 
L 49.515625 72.90625 
L 49.515625 64.59375 
L 19.828125 64.59375 
L 19.828125 46.734375 
Q 21.96875 47.46875 24.109375 47.828125 
Q 26.265625 48.1875 28.421875 48.1875 
Q 40.625 48.1875 47.75 41.5 
Q 54.890625 34.8125 54.890625 23.390625 
Q 54.890625 11.625 47.5625 5.09375 
Q 40.234375 -1.421875 26.90625 -1.421875 
Q 22.3125 -1.421875 17.546875 -0.640625 
Q 12.796875 0.140625 7.71875 1.703125 
L 7.71875 11.625 
Q 12.109375 9.234375 16.796875 8.0625 
Q 21.484375 6.890625 26.703125 6.890625 
Q 35.15625 6.890625 40.078125 11.328125 
Q 45.015625 15.765625 45.015625 23.390625 
Q 45.015625 31 40.078125 35.4375 
Q 35.15625 39.890625 26.703125 39.890625 
Q 22.75 39.890625 18.8125 39.015625 
Q 14.890625 38.140625 10.796875 36.28125 
z
" id="DejaVuSans-53"/>
       </defs>
       <use xlink:href="#DejaVuSans-48"/>
       <use x="63.623047" xlink:href="#DejaVuSans-46"/>
       <use x="95.410156" xlink:href="#DejaVuSans-53"/>
       <use x="159.033203" xlink:href="#DejaVuSans-48"/>
      </g>
     </g>
    </g>
    <g id="ytick_2">
     <g id="line2d_57">
      <path clip-path="url(#pf6e202bacd)" d="M 90 255.040963 
L 648 255.040963 
" style="fill:none;stroke:#b0b0b0;stroke-dasharray:0.8,1.32;stroke-dashoffset:0;stroke-width:0.8;"/>
     </g>
     <g id="line2d_58">
      <g>
       <use style="stroke:#000000;stroke-width:0.8;" x="90" xlink:href="#mdf9d037f6b" y="255.040963"/>
      </g>
     </g>
     <g id="text_13">
      <!-- 0.75 -->
      <g transform="translate(60.734375 258.840182)scale(0.1 -0.1)">
       <defs>
        <path d="M 8.203125 72.90625 
L 55.078125 72.90625 
L 55.078125 68.703125 
L 28.609375 0 
L 18.3125 0 
L 43.21875 64.59375 
L 8.203125 64.59375 
z
" id="DejaVuSans-55"/>
       </defs>
       <use xlink:href="#DejaVuSans-48"/>
       <use x="63.623047" xlink:href="#DejaVuSans-46"/>
       <use x="95.410156" xlink:href="#DejaVuSans-55"/>
       <use x="159.033203" xlink:href="#DejaVuSans-53"/>
      </g>
     </g>
    </g>
    <g id="ytick_3">
     <g id="line2d_59">
      <path clip-path="url(#pf6e202bacd)" d="M 90 219.161832 
L 648 219.161832 
" style="fill:none;stroke:#b0b0b0;stroke-dasharray:0.8,1.32;stroke-dashoffset:0;stroke-width:0.8;"/>
     </g>
     <g id="line2d_60">
      <g>
       <use style="stroke:#000000;stroke-width:0.8;" x="90" xlink:href="#mdf9d037f6b" y="219.161832"/>
      </g>
     </g>
     <g id="text_14">
      <!-- 1.00 -->
      <g transform="translate(60.734375 222.96105)scale(0.1 -0.1)">
       <use xlink:href="#DejaVuSans-49"/>
       <use x="63.623047" xlink:href="#DejaVuSans-46"/>
       <use x="95.410156" xlink:href="#DejaVuSans-48"/>
       <use x="159.033203" xlink:href="#DejaVuSans-48"/>
      </g>
     </g>
    </g>
    <g id="ytick_4">
     <g id="line2d_61">
      <path clip-path="url(#pf6e202bacd)" d="M 90 183.2827 
L 648 183.2827 
" style="fill:none;stroke:#b0b0b0;stroke-dasharray:0.8,1.32;stroke-dashoffset:0;stroke-width:0.8;"/>
     </g>
     <g id="line2d_62">
      <g>
       <use style="stroke:#000000;stroke-width:0.8;" x="90" xlink:href="#mdf9d037f6b" y="183.2827"/>
      </g>
     </g>
     <g id="text_15">
      <!-- 1.25 -->
      <g transform="translate(60.734375 187.081919)scale(0.1 -0.1)">
       <use xlink:href="#DejaVuSans-49"/>
       <use x="63.623047" xlink:href="#DejaVuSans-46"/>
       <use x="95.410156" xlink:href="#DejaVuSans-50"/>
       <use x="159.033203" xlink:href="#DejaVuSans-53"/>
      </g>
     </g>
    </g>
    <g id="ytick_5">
     <g id="line2d_63">
      <path clip-path="url(#pf6e202bacd)" d="M 90 147.403569 
L 648 147.403569 
" style="fill:none;stroke:#b0b0b0;stroke-dasharray:0.8,1.32;stroke-dashoffset:0;stroke-width:0.8;"/>
     </g>
     <g id="line2d_64">
      <g>
       <use style="stroke:#000000;stroke-width:0.8;" x="90" xlink:href="#mdf9d037f6b" y="147.403569"/>
      </g>
     </g>
     <g id="text_16">
      <!-- 1.50 -->
      <g transform="translate(60.734375 151.202787)scale(0.1 -0.1)">
       <use xlink:href="#DejaVuSans-49"/>
       <use x="63.623047" xlink:href="#DejaVuSans-46"/>
       <use x="95.410156" xlink:href="#DejaVuSans-53"/>
       <use x="159.033203" xlink:href="#DejaVuSans-48"/>
      </g>
     </g>
    </g>
    <g id="ytick_6">
     <g id="line2d_65">
      <path clip-path="url(#pf6e202bacd)" d="M 90 111.524437 
L 648 111.524437 
" style="fill:none;stroke:#b0b0b0;stroke-dasharray:0.8,1.32;stroke-dashoffset:0;stroke-width:0.8;"/>
     </g>
     <g id="line2d_66">
      <g>
       <use style="stroke:#000000;stroke-width:0.8;" x="90" xlink:href="#mdf9d037f6b" y="111.524437"/>
      </g>
     </g>
     <g id="text_17">
      <!-- 1.75 -->
      <g transform="translate(60.734375 115.323656)scale(0.1 -0.1)">
       <use xlink:href="#DejaVuSans-49"/>
       <use x="63.623047" xlink:href="#DejaVuSans-46"/>
       <use x="95.410156" xlink:href="#DejaVuSans-55"/>
       <use x="159.033203" xlink:href="#DejaVuSans-53"/>
      </g>
     </g>
    </g>
    <g id="ytick_7">
     <g id="line2d_67">
      <path clip-path="url(#pf6e202bacd)" d="M 90 75.645306 
L 648 75.645306 
" style="fill:none;stroke:#b0b0b0;stroke-dasharray:0.8,1.32;stroke-dashoffset:0;stroke-width:0.8;"/>
     </g>
     <g id="line2d_68">
      <g>
       <use style="stroke:#000000;stroke-width:0.8;" x="90" xlink:href="#mdf9d037f6b" y="75.645306"/>
      </g>
     </g>
     <g id="text_18">
      <!-- 2.00 -->
      <g transform="translate(60.734375 79.444525)scale(0.1 -0.1)">
       <use xlink:href="#DejaVuSans-50"/>
       <use x="63.623047" xlink:href="#DejaVuSans-46"/>
       <use x="95.410156" xlink:href="#DejaVuSans-48"/>
       <use x="159.033203" xlink:href="#DejaVuSans-48"/>
      </g>
     </g>
    </g>
   </g>
   <g id="line2d_69">
    <path clip-path="url(#pf6e202bacd)" d="M 90 156.350135 
L 91.829508 156.668163 
L 93.659016 159.904547 
L 95.488525 160.12593 
L 97.318033 161.896441 
L 99.147541 166.821526 
L 100.977049 169.8043 
L 102.806557 173.006805 
L 104.636066 178.806994 
L 106.465574 185.094701 
L 108.295082 192.685288 
L 110.12459 199.586728 
L 111.954098 207.846529 
L 113.783607 215.25163 
L 115.613115 221.758016 
L 117.442623 228.91509 
L 121.101639 241.932897 
L 124.760656 252.480085 
L 128.419672 261.532176 
L 132.078689 269.237346 
L 133.908197 272.179321 
L 135.737705 275.742124 
L 137.567213 278.568869 
L 139.396721 280.70556 
L 141.22623 283.030014 
L 143.055738 284.015123 
L 144.885246 285.924096 
L 146.714754 287.508376 
L 148.544262 288.371809 
L 150.37377 289.644375 
L 152.203279 289.599772 
L 154.032787 289.760138 
L 155.862295 290.489023 
L 157.691803 290.068178 
L 159.521311 289.513356 
L 161.35082 288.296959 
L 163.180328 287.440897 
L 166.839344 284.332248 
L 168.668852 282.484504 
L 170.498361 280.83342 
L 172.327869 277.79881 
L 174.157377 275.39668 
L 175.986885 272.761949 
L 179.645902 265.661667 
L 181.47541 261.185789 
L 183.304918 257.170639 
L 185.134426 252.849094 
L 186.963934 247.294346 
L 190.622951 237.406128 
L 192.452459 230.659306 
L 194.281967 224.732413 
L 197.940984 212.159748 
L 199.770492 204.801655 
L 201.6 198.428121 
L 203.429508 190.785493 
L 205.259016 183.80736 
L 207.088525 177.73065 
L 210.747541 157.326615 
L 214.406557 141.018144 
L 216.236066 130.986567 
L 218.065574 125.282823 
L 221.72459 109.707598 
L 223.554098 104.053456 
L 225.383607 97.963435 
L 227.213115 94.352511 
L 229.042623 93.021065 
L 230.872131 93.024932 
L 234.531148 96.490803 
L 236.360656 101.052182 
L 238.190164 108.472731 
L 241.84918 119.794081 
L 243.678689 127.570092 
L 245.508197 133.856741 
L 247.337705 140.902041 
L 249.167213 146.75948 
L 250.996721 150.6655 
L 252.82623 154.015299 
L 254.655738 154.904452 
L 256.485246 157.319052 
L 260.144262 157.190204 
L 261.97377 156.340819 
L 263.803279 156.067443 
L 265.632787 154.635891 
L 267.462295 152.200469 
L 269.291803 150.765695 
L 271.121311 150.318505 
L 272.95082 150.205534 
L 274.780328 149.85038 
L 276.609836 149.805209 
L 278.439344 152.212069 
L 283.927869 158.755867 
L 285.757377 162.836085 
L 287.586885 165.159839 
L 289.416393 169.134924 
L 291.245902 172.157786 
L 293.07541 176.625365 
L 294.904918 179.570416 
L 300.393443 191.9997 
L 302.222951 194.805434 
L 304.052459 198.536339 
L 309.540984 208.666328 
L 311.370492 211.651956 
L 313.2 214.933815 
L 315.029508 217.972274 
L 316.859016 220.637308 
L 318.688525 223.509951 
L 320.518033 226.74547 
L 326.006557 232.212961 
L 327.836066 235.463426 
L 329.665574 236.374109 
L 331.495082 237.650114 
L 333.32459 238.507705 
L 335.154098 238.789065 
L 336.983607 238.928039 
L 338.813115 238.292135 
L 340.642623 237.377585 
L 342.472131 235.27566 
L 346.131148 232.212864 
L 347.960656 230.164294 
L 349.790164 228.963281 
L 351.619672 226.976577 
L 355.278689 221.695061 
L 357.108197 218.480387 
L 358.937705 215.846013 
L 360.767213 212.615016 
L 362.596721 210.445014 
L 364.42623 206.210838 
L 366.255738 204.703526 
L 368.085246 201.077845 
L 369.914754 198.221181 
L 373.57377 194.007908 
L 375.403279 192.314195 
L 377.232787 188.718253 
L 380.891803 185.879342 
L 382.721311 183.069717 
L 384.55082 182.44602 
L 386.380328 181.687795 
L 390.039344 179.094043 
L 391.868852 178.169751 
L 393.698361 176.655872 
L 395.527869 176.195646 
L 397.357377 175.501265 
L 399.186885 175.151434 
L 401.016393 176.799731 
L 402.845902 176.81692 
L 404.67541 177.227313 
L 406.504918 176.038564 
L 408.334426 175.629448 
L 410.163934 176.957572 
L 411.993443 177.227685 
L 413.822951 176.993028 
L 415.652459 178.511606 
L 417.481967 180.387815 
L 419.311475 183.109564 
L 421.140984 185.295586 
L 422.970492 189.065822 
L 426.629508 197.771568 
L 428.459016 203.016696 
L 430.288525 208.935057 
L 432.118033 215.850999 
L 433.947541 221.893764 
L 439.436066 243.405139 
L 443.095082 256.038763 
L 446.754098 266.546383 
L 448.583607 271.289411 
L 450.413115 275.47173 
L 454.072131 281.762937 
L 455.901639 283.760193 
L 457.731148 285.502664 
L 459.560656 286.976672 
L 461.390164 288.018446 
L 463.219672 288.21633 
L 465.04918 287.959593 
L 466.878689 287.316222 
L 468.708197 287.244453 
L 470.537705 286.240127 
L 472.367213 284.713597 
L 474.196721 282.770754 
L 476.02623 280.301846 
L 477.855738 277.503696 
L 479.685246 274.480321 
L 481.514754 271.028515 
L 483.344262 266.588077 
L 487.003279 258.991462 
L 490.662295 250.303416 
L 496.15082 237.393554 
L 499.809836 229.383348 
L 501.639344 225.5584 
L 503.468852 223.512436 
L 505.298361 222.245212 
L 507.127869 219.615018 
L 508.957377 218.499496 
L 512.616393 215.859271 
L 514.445902 214.130504 
L 516.27541 214.423539 
L 518.104918 213.074433 
L 519.934426 212.374733 
L 521.763934 210.417315 
L 525.422951 209.454471 
L 527.252459 207.994715 
L 529.081967 207.807287 
L 530.911475 206.204807 
L 532.740984 206.148476 
L 534.570492 205.03204 
L 536.4 204.146269 
L 538.229508 202.318235 
L 540.059016 200.928877 
L 541.888525 199.359486 
L 543.718033 196.157016 
L 547.377049 191.385018 
L 549.206557 187.285463 
L 551.036066 186.444263 
L 552.865574 183.034636 
L 554.695082 180.758317 
L 556.52459 179.363518 
L 558.354098 177.401295 
L 560.183607 176.790877 
L 562.013115 176.840726 
L 563.842623 176.75552 
L 565.672131 176.077353 
L 567.501639 175.941936 
L 569.331148 176.145628 
L 571.160656 176.656524 
L 572.990164 176.117079 
L 574.819672 175.01849 
L 576.64918 174.347707 
L 578.478689 172.002974 
L 580.308197 171.640738 
L 582.137705 171.886551 
L 583.967213 170.769548 
L 585.796721 170.045306 
L 587.62623 168.67263 
L 589.455738 168.270115 
L 591.285246 164.650115 
L 593.114754 163.702803 
L 594.944262 163.646449 
L 596.77377 162.372288 
L 598.603279 162.159027 
L 600.432787 159.706097 
L 602.262295 159.634934 
L 604.091803 157.061906 
L 607.75082 157.941371 
L 609.580328 157.167043 
L 611.409836 157.298991 
L 613.239344 159.583659 
L 620.557377 171.206532 
L 622.386885 175.038116 
L 626.045902 183.621848 
L 627.87541 187.509774 
L 629.704918 192.018958 
L 633.363934 197.680142 
L 635.193443 200.03927 
L 637.022951 201.74515 
L 638.852459 204.460941 
L 642.511475 207.148844 
L 644.340984 206.550633 
L 646.170492 206.682731 
L 648 208.268281 
L 649.829508 207.119465 
L 651.659016 208.910471 
L 653.488525 208.037831 
L 655.318033 206.430562 
L 657.147541 206.098946 
L 658.977049 207.291521 
L 660.806557 207.607479 
L 662.636066 207.093159 
L 662.636066 207.093159 
" style="fill:none;stroke:#fc997a;stroke-linecap:square;stroke-width:1.5;"/>
   </g>
   <g id="line2d_70">
    <path clip-path="url(#pf6e202bacd)" d="M 90 219.161832 
L 648 219.161832 
" style="fill:none;stroke:#000000;stroke-dasharray:3.7,1.6;stroke-dashoffset:0;"/>
   </g>
   <g id="patch_3">
    <path d="M 90 315 
L 90 43.2 
" style="fill:none;stroke:#000000;stroke-linecap:square;stroke-linejoin:miter;stroke-width:0.8;"/>
   </g>
   <g id="patch_4">
    <path d="M 648 315 
L 648 43.2 
" style="fill:none;stroke:#000000;stroke-linecap:square;stroke-linejoin:miter;stroke-width:0.8;"/>
   </g>
   <g id="patch_5">
    <path d="M 90 315 
L 648 315 
" style="fill:none;stroke:#000000;stroke-linecap:square;stroke-linejoin:miter;stroke-width:0.8;"/>
   </g>
   <g id="patch_6">
    <path d="M 90 43.2 
L 648 43.2 
" style="fill:none;stroke:#000000;stroke-linecap:square;stroke-linejoin:miter;stroke-width:0.8;"/>
   </g>
   <g id="text_19">
    <!-- 422    $R_t$ -->
    <g transform="translate(305.82 37.2)scale(0.12 -0.12)">
     <defs>
      <path d="M 37.796875 64.3125 
L 12.890625 25.390625 
L 37.796875 25.390625 
z
M 35.203125 72.90625 
L 47.609375 72.90625 
L 47.609375 25.390625 
L 58.015625 25.390625 
L 58.015625 17.1875 
L 47.609375 17.1875 
L 47.609375 0 
L 37.796875 0 
L 37.796875 17.1875 
L 4.890625 17.1875 
L 4.890625 26.703125 
z
" id="DejaVuSans-52"/>
      <path id="DejaVuSans-32"/>
      <path d="M 19.140625 33.40625 
L 19.140625 0 
L 10.109375 0 
L 10.109375 29.6875 
z
M 56.25 27.828125 
L 56.25 0 
L 47.21875 0 
L 47.21875 29.6875 
Q 47.21875 40.234375 44.0625 43.96875 
Q 40.921875 47.703125 31.84375 47.703125 
L 9.078125 47.703125 
L 9.078125 54.6875 
L 31.734375 54.6875 
Q 45.265625 54.6875 50.75 48.578125 
Q 56.25 42.484375 56.25 27.828125 
z
" id="DejaVuSans-1492"/>
      <path d="M 18.171875 54.6875 
L 18.171875 0 
L 9.078125 0 
L 9.078125 54.6875 
z
" id="DejaVuSans-1493"/>
      <path d="M 19.34375 -20.796875 
L 19.34375 33.40625 
L 10.25 29.6875 
L 10.25 -20.796875 
z
M 33.0625 0 
L 52.78125 47.703125 
L 9.078125 47.703125 
L 9.078125 54.640625 
L 63.328125 54.640625 
L 63.328125 49.265625 
L 42.578125 0 
z
" id="DejaVuSans-1511"/>
      <path d="M 56.640625 29.59375 
L 56.640625 0 
L 47.5625 0 
L 47.5625 29.6875 
Q 47.5625 33.296875 47.3125 35.71875 
Q 47.078125 38.140625 46.1875 40.59375 
Q 45.3125 43.0625 43.75 44.484375 
Q 42.1875 45.90625 39.453125 46.796875 
Q 36.71875 47.703125 32.8125 47.703125 
L 20.796875 47.703125 
L 20.796875 20.21875 
Q 20.796875 9.765625 17.796875 4.6875 
Q 14.796875 -0.390625 7.375 -0.390625 
Q 4.78125 -0.390625 0.984375 0.390625 
L 0.984375 7.375 
Q 4.15625 6.6875 6 6.6875 
Q 9.46875 6.6875 10.59375 9.46875 
Q 11.71875 12.25 11.71875 20.21875 
L 11.71875 47.703125 
L 3.265625 47.703125 
L 3.265625 54.6875 
L 32.8125 54.6875 
Q 39.796875 54.6875 44.5 53.046875 
Q 49.21875 51.421875 51.859375 48.046875 
Q 54.5 44.671875 55.5625 40.28125 
Q 56.640625 35.890625 56.640625 29.59375 
z
" id="DejaVuSans-1514"/>
      <path d="M 56.25 29.59375 
L 56.25 0 
L 47.171875 0 
L 47.171875 30.90625 
Q 47.171875 40.578125 44 44.140625 
Q 40.828125 47.703125 31.84375 47.703125 
L 18.109375 47.703125 
L 18.109375 0 
L 9.078125 0 
L 9.078125 54.6875 
L 31.734375 54.6875 
Q 45.21875 54.6875 50.734375 48.828125 
Q 56.25 42.96875 56.25 29.59375 
z
" id="DejaVuSans-1495"/>
      <path d="M 9.078125 54.6875 
L 29.890625 54.6875 
Q 42.484375 54.6875 49.703125 47.5625 
Q 56.9375 40.4375 56.9375 27.34375 
Q 56.9375 14.265625 49.6875 7.125 
Q 42.4375 0 29.890625 0 
L 9.078125 0 
L 9.078125 6.9375 
L 26.171875 6.9375 
Q 37.703125 6.9375 42.796875 11.625 
Q 47.90625 16.3125 47.90625 27.9375 
Q 47.90625 38.625 42.625 43.15625 
Q 37.359375 47.703125 26.21875 47.703125 
L 18.171875 47.703125 
L 18.109375 36.859375 
Q 18.0625 33.296875 19.8125 31.609375 
Q 21.578125 29.9375 25.203125 29.9375 
Q 27.203125 29.9375 30.46875 30.5625 
L 30.46875 23.140625 
Q 26.46875 22.359375 23.1875 22.359375 
Q 16.65625 22.359375 12.859375 25.96875 
Q 9.078125 29.59375 9.078125 38.1875 
z
" id="DejaVuSans-1508"/>
      <path d="M 47.359375 27.828125 
L 47.359375 0 
L 38.28125 0 
L 38.28125 27.828125 
Q 38.28125 31.390625 37.765625 34.265625 
Q 37.25 37.15625 36 39.71875 
Q 34.765625 42.28125 32.8125 43.984375 
Q 30.859375 45.703125 27.78125 46.703125 
Q 24.703125 47.703125 20.703125 47.703125 
L 4.296875 47.703125 
L 4.296875 54.6875 
L 20.65625 54.6875 
Q 26.8125 54.6875 31.46875 53.390625 
Q 36.140625 52.09375 39.109375 49.828125 
Q 42.09375 47.5625 43.96875 44.109375 
Q 45.84375 40.671875 46.59375 36.734375 
Q 47.359375 32.8125 47.359375 27.828125 
z
" id="DejaVuSans-1512"/>
      <path d="M 30.328125 54.6875 
L 30.328125 47.703125 
L 26.421875 47.703125 
Q 22.171875 47.703125 20.578125 43.921875 
Q 19 40.140625 19 30.90625 
L 19 0 
L 9.90625 0 
L 9.90625 30.90625 
Q 9.90625 37.109375 11.78125 41.453125 
Q 13.671875 45.796875 16.40625 47.703125 
L 4.296875 47.703125 
L 4.296875 54.6875 
z
" id="DejaVuSans-1494"/>
      <path d="M 43.75 20.0625 
L 57.671875 0 
L 47.078125 0 
L 26.765625 29.296875 
Q 25.390625 28.609375 24.53125 28.09375 
Q 23.6875 27.59375 22.3125 26.296875 
Q 20.953125 25 20.140625 23.40625 
Q 19.34375 21.828125 18.703125 19.140625 
Q 18.0625 16.453125 18.0625 13.09375 
L 18.0625 0 
L 9.078125 0 
L 9.078125 9.03125 
Q 9.078125 12.984375 9.5625 16.359375 
Q 10.0625 19.734375 10.8125 22.078125 
Q 11.578125 24.421875 12.796875 26.390625 
Q 14.015625 28.375 15.109375 29.59375 
Q 16.21875 30.8125 17.796875 31.875 
Q 19.390625 32.953125 20.453125 33.46875 
Q 21.53125 33.984375 23.046875 34.625 
L 9.1875 54.6875 
L 19.78125 54.6875 
L 40.09375 25.390625 
Q 41.40625 26.03125 42.25 26.53125 
Q 43.109375 27.046875 44.46875 28.359375 
Q 45.84375 29.6875 46.671875 31.265625 
Q 47.515625 32.859375 48.140625 35.546875 
Q 48.78125 38.234375 48.78125 41.609375 
L 48.78125 54.6875 
L 57.765625 54.6875 
L 57.765625 45.65625 
Q 57.765625 41.65625 57.265625 38.3125 
Q 56.78125 34.96875 56.03125 32.59375 
Q 55.28125 30.21875 54.046875 28.234375 
Q 52.828125 26.265625 51.703125 25.0625 
Q 50.59375 23.875 49.03125 22.796875 
Q 47.46875 21.734375 46.390625 21.21875 
Q 45.3125 20.703125 43.75 20.0625 
z
" id="DejaVuSans-1488"/>
      <path d="M 25.203125 64.796875 
L 20.21875 38.921875 
L 32.90625 38.921875 
Q 40.375 38.921875 44.984375 43.046875 
Q 49.609375 47.171875 49.609375 53.8125 
Q 49.609375 59.125 46.5 61.953125 
Q 43.40625 64.796875 37.59375 64.796875 
z
M 43.3125 35.015625 
Q 46.4375 34.28125 48.515625 31.390625 
Q 50.59375 28.515625 53.328125 19.921875 
L 59.515625 0 
L 49.125 0 
L 43.40625 18.703125 
Q 41.21875 25.921875 38.328125 28.359375 
Q 35.453125 30.8125 29.5 30.8125 
L 18.609375 30.8125 
L 12.59375 0 
L 2.6875 0 
L 16.890625 72.90625 
L 39.109375 72.90625 
Q 49.21875 72.90625 54.609375 68.328125 
Q 60.015625 63.765625 60.015625 55.171875 
Q 60.015625 47.5625 55.421875 41.984375 
Q 50.828125 36.421875 43.3125 35.015625 
z
" id="DejaVuSans-Oblique-82"/>
      <path d="M 42.28125 54.6875 
L 40.921875 47.703125 
L 23 47.703125 
L 17.1875 18.015625 
Q 16.890625 16.359375 16.75 15.234375 
Q 16.609375 14.109375 16.609375 13.484375 
Q 16.609375 10.359375 18.484375 8.9375 
Q 20.359375 7.515625 24.515625 7.515625 
L 33.59375 7.515625 
L 32.078125 0 
L 23.484375 0 
Q 15.484375 0 11.546875 3.125 
Q 7.625 6.25 7.625 12.59375 
Q 7.625 13.71875 7.765625 15.0625 
Q 7.90625 16.40625 8.203125 18.015625 
L 14.015625 47.703125 
L 6.390625 47.703125 
L 7.8125 54.6875 
L 15.28125 54.6875 
L 18.3125 70.21875 
L 27.296875 70.21875 
L 24.3125 54.6875 
z
" id="DejaVuSans-Oblique-116"/>
     </defs>
     <use transform="translate(0 0.78125)" xlink:href="#DejaVuSans-52"/>
     <use transform="translate(63.623047 0.78125)" xlink:href="#DejaVuSans-50"/>
     <use transform="translate(127.246094 0.78125)" xlink:href="#DejaVuSans-50"/>
     <use transform="translate(190.869141 0.78125)" xlink:href="#DejaVuSans-32"/>
     <use transform="translate(222.65625 0.78125)" xlink:href="#DejaVuSans-1492"/>
     <use transform="translate(287.988281 0.78125)" xlink:href="#DejaVuSans-1493"/>
     <use transform="translate(315.234375 0.78125)" xlink:href="#DejaVuSans-1493"/>
     <use transform="translate(342.480469 0.78125)" xlink:href="#DejaVuSans-1511"/>
     <use transform="translate(413.427734 0.78125)" xlink:href="#DejaVuSans-1514"/>
     <use transform="translate(479.150391 0.78125)" xlink:href="#DejaVuSans-32"/>
     <use transform="translate(510.9375 0.78125)" xlink:href="#DejaVuSans-1495"/>
     <use transform="translate(576.269531 0.78125)" xlink:href="#DejaVuSans-1514"/>
     <use transform="translate(641.992188 0.78125)" xlink:href="#DejaVuSans-1508"/>
     <use transform="translate(704.443359 0.78125)" xlink:href="#DejaVuSans-32"/>
     <use transform="translate(736.230469 0.78125)" xlink:href="#DejaVuSans-1512"/>
     <use transform="translate(792.675781 0.78125)" xlink:href="#DejaVuSans-1493"/>
     <use transform="translate(819.921875 0.78125)" xlink:href="#DejaVuSans-1494"/>
     <use transform="translate(854.541016 0.78125)" xlink:href="#DejaVuSans-1488"/>
     <use transform="translate(921.386719 0.78125)" xlink:href="#DejaVuSans-32"/>
     <use transform="translate(953.173828 0.78125)" xlink:href="#DejaVuSans-Oblique-82"/>
     <use transform="translate(1022.65625 -15.625)scale(0.7)" xlink:href="#DejaVuSans-Oblique-116"/>
    </g>
   </g>
  </g>
 </g>
 <defs>
  <clipPath id="pf6e202bacd">
   <rect height="271.8" width="558" x="90" y="43.2"/>
  </clipPath>
 </defs>
</svg>
