<?xml version="1.0" encoding="utf-8" standalone="no"?>
<!DOCTYPE svg PUBLIC "-//W3C//DTD SVG 1.1//EN"
  "http://www.w3.org/Graphics/SVG/1.1/DTD/svg11.dtd">
<!-- Created with matplotlib (https://matplotlib.org/) -->
<svg height="360pt" version="1.1" viewBox="0 0 720 360" width="720pt" xmlns="http://www.w3.org/2000/svg" xmlns:xlink="http://www.w3.org/1999/xlink">
 <metadata>
  <rdf:RDF xmlns:cc="http://creativecommons.org/ns#" xmlns:dc="http://purl.org/dc/elements/1.1/" xmlns:rdf="http://www.w3.org/1999/02/22-rdf-syntax-ns#">
   <cc:Work>
    <dc:type rdf:resource="http://purl.org/dc/dcmitype/StillImage"/>
    <dc:date>2021-03-11T12:29:08.860458</dc:date>
    <dc:format>image/svg+xml</dc:format>
    <dc:creator>
     <cc:Agent>
      <dc:title>Matplotlib v3.3.2, https://matplotlib.org/</dc:title>
     </cc:Agent>
    </dc:creator>
   </cc:Work>
  </rdf:RDF>
 </metadata>
 <defs>
  <style type="text/css">*{stroke-linecap:butt;stroke-linejoin:round;}</style>
 </defs>
 <g id="figure_1">
  <g id="patch_1">
   <path d="M 0 360 
L 720 360 
L 720 0 
L 0 0 
z
" style="fill:#ffffff;"/>
  </g>
  <g id="axes_1">
   <g id="patch_2">
    <path d="M 90 315 
L 648 315 
L 648 43.2 
L 90 43.2 
z
" style="fill:#ffffff;"/>
   </g>
   <g id="matplotlib.axis_1">
    <g id="xtick_1">
     <g id="line2d_1">
      <defs>
       <path d="M 0 0 
L 0 3.5 
" id="m0faaf37419" style="stroke:#000000;stroke-width:0.8;"/>
      </defs>
      <g>
       <use style="stroke:#000000;stroke-width:0.8;" x="90" xlink:href="#m0faaf37419" y="315"/>
      </g>
     </g>
    </g>
    <g id="xtick_2">
     <g id="line2d_2">
      <g>
       <use style="stroke:#000000;stroke-width:0.8;" x="119.368421" xlink:href="#m0faaf37419" y="315"/>
      </g>
     </g>
     <g id="text_1">
      <!-- Apr -->
      <g transform="translate(110.718421 329.598437)scale(0.1 -0.1)">
       <defs>
        <path d="M 34.1875 63.1875 
L 20.796875 26.90625 
L 47.609375 26.90625 
z
M 28.609375 72.90625 
L 39.796875 72.90625 
L 67.578125 0 
L 57.328125 0 
L 50.6875 18.703125 
L 17.828125 18.703125 
L 11.1875 0 
L 0.78125 0 
z
" id="DejaVuSans-65"/>
        <path d="M 18.109375 8.203125 
L 18.109375 -20.796875 
L 9.078125 -20.796875 
L 9.078125 54.6875 
L 18.109375 54.6875 
L 18.109375 46.390625 
Q 20.953125 51.265625 25.265625 53.625 
Q 29.59375 56 35.59375 56 
Q 45.5625 56 51.78125 48.09375 
Q 58.015625 40.1875 58.015625 27.296875 
Q 58.015625 14.40625 51.78125 6.484375 
Q 45.5625 -1.421875 35.59375 -1.421875 
Q 29.59375 -1.421875 25.265625 0.953125 
Q 20.953125 3.328125 18.109375 8.203125 
z
M 48.6875 27.296875 
Q 48.6875 37.203125 44.609375 42.84375 
Q 40.53125 48.484375 33.40625 48.484375 
Q 26.265625 48.484375 22.1875 42.84375 
Q 18.109375 37.203125 18.109375 27.296875 
Q 18.109375 17.390625 22.1875 11.75 
Q 26.265625 6.109375 33.40625 6.109375 
Q 40.53125 6.109375 44.609375 11.75 
Q 48.6875 17.390625 48.6875 27.296875 
z
" id="DejaVuSans-112"/>
        <path d="M 41.109375 46.296875 
Q 39.59375 47.171875 37.8125 47.578125 
Q 36.03125 48 33.890625 48 
Q 26.265625 48 22.1875 43.046875 
Q 18.109375 38.09375 18.109375 28.8125 
L 18.109375 0 
L 9.078125 0 
L 9.078125 54.6875 
L 18.109375 54.6875 
L 18.109375 46.1875 
Q 20.953125 51.171875 25.484375 53.578125 
Q 30.03125 56 36.53125 56 
Q 37.453125 56 38.578125 55.875 
Q 39.703125 55.765625 41.0625 55.515625 
z
" id="DejaVuSans-114"/>
       </defs>
       <use xlink:href="#DejaVuSans-65"/>
       <use x="68.408203" xlink:href="#DejaVuSans-112"/>
       <use x="131.884766" xlink:href="#DejaVuSans-114"/>
      </g>
     </g>
    </g>
    <g id="xtick_3">
     <g id="line2d_3">
      <g>
       <use style="stroke:#000000;stroke-width:0.8;" x="165.739612" xlink:href="#m0faaf37419" y="315"/>
      </g>
     </g>
     <g id="text_2">
      <!-- May -->
      <g transform="translate(155.402112 329.598437)scale(0.1 -0.1)">
       <defs>
        <path d="M 9.8125 72.90625 
L 24.515625 72.90625 
L 43.109375 23.296875 
L 61.8125 72.90625 
L 76.515625 72.90625 
L 76.515625 0 
L 66.890625 0 
L 66.890625 64.015625 
L 48.09375 14.015625 
L 38.1875 14.015625 
L 19.390625 64.015625 
L 19.390625 0 
L 9.8125 0 
z
" id="DejaVuSans-77"/>
        <path d="M 34.28125 27.484375 
Q 23.390625 27.484375 19.1875 25 
Q 14.984375 22.515625 14.984375 16.5 
Q 14.984375 11.71875 18.140625 8.90625 
Q 21.296875 6.109375 26.703125 6.109375 
Q 34.1875 6.109375 38.703125 11.40625 
Q 43.21875 16.703125 43.21875 25.484375 
L 43.21875 27.484375 
z
M 52.203125 31.203125 
L 52.203125 0 
L 43.21875 0 
L 43.21875 8.296875 
Q 40.140625 3.328125 35.546875 0.953125 
Q 30.953125 -1.421875 24.3125 -1.421875 
Q 15.921875 -1.421875 10.953125 3.296875 
Q 6 8.015625 6 15.921875 
Q 6 25.140625 12.171875 29.828125 
Q 18.359375 34.515625 30.609375 34.515625 
L 43.21875 34.515625 
L 43.21875 35.40625 
Q 43.21875 41.609375 39.140625 45 
Q 35.0625 48.390625 27.6875 48.390625 
Q 23 48.390625 18.546875 47.265625 
Q 14.109375 46.140625 10.015625 43.890625 
L 10.015625 52.203125 
Q 14.9375 54.109375 19.578125 55.046875 
Q 24.21875 56 28.609375 56 
Q 40.484375 56 46.34375 49.84375 
Q 52.203125 43.703125 52.203125 31.203125 
z
" id="DejaVuSans-97"/>
        <path d="M 32.171875 -5.078125 
Q 28.375 -14.84375 24.75 -17.8125 
Q 21.140625 -20.796875 15.09375 -20.796875 
L 7.90625 -20.796875 
L 7.90625 -13.28125 
L 13.1875 -13.28125 
Q 16.890625 -13.28125 18.9375 -11.515625 
Q 21 -9.765625 23.484375 -3.21875 
L 25.09375 0.875 
L 2.984375 54.6875 
L 12.5 54.6875 
L 29.59375 11.921875 
L 46.6875 54.6875 
L 56.203125 54.6875 
z
" id="DejaVuSans-121"/>
       </defs>
       <use xlink:href="#DejaVuSans-77"/>
       <use x="86.279297" xlink:href="#DejaVuSans-97"/>
       <use x="147.558594" xlink:href="#DejaVuSans-121"/>
      </g>
     </g>
    </g>
    <g id="xtick_4">
     <g id="line2d_4">
      <g>
       <use style="stroke:#000000;stroke-width:0.8;" x="213.65651" xlink:href="#m0faaf37419" y="315"/>
      </g>
     </g>
     <g id="text_3">
      <!-- Jun -->
      <g transform="translate(205.84401 329.598437)scale(0.1 -0.1)">
       <defs>
        <path d="M 9.8125 72.90625 
L 19.671875 72.90625 
L 19.671875 5.078125 
Q 19.671875 -8.109375 14.671875 -14.0625 
Q 9.671875 -20.015625 -1.421875 -20.015625 
L -5.171875 -20.015625 
L -5.171875 -11.71875 
L -2.09375 -11.71875 
Q 4.4375 -11.71875 7.125 -8.046875 
Q 9.8125 -4.390625 9.8125 5.078125 
z
" id="DejaVuSans-74"/>
        <path d="M 8.5 21.578125 
L 8.5 54.6875 
L 17.484375 54.6875 
L 17.484375 21.921875 
Q 17.484375 14.15625 20.5 10.265625 
Q 23.53125 6.390625 29.59375 6.390625 
Q 36.859375 6.390625 41.078125 11.03125 
Q 45.3125 15.671875 45.3125 23.6875 
L 45.3125 54.6875 
L 54.296875 54.6875 
L 54.296875 0 
L 45.3125 0 
L 45.3125 8.40625 
Q 42.046875 3.421875 37.71875 1 
Q 33.40625 -1.421875 27.6875 -1.421875 
Q 18.265625 -1.421875 13.375 4.4375 
Q 8.5 10.296875 8.5 21.578125 
z
M 31.109375 56 
z
" id="DejaVuSans-117"/>
        <path d="M 54.890625 33.015625 
L 54.890625 0 
L 45.90625 0 
L 45.90625 32.71875 
Q 45.90625 40.484375 42.875 44.328125 
Q 39.84375 48.1875 33.796875 48.1875 
Q 26.515625 48.1875 22.3125 43.546875 
Q 18.109375 38.921875 18.109375 30.90625 
L 18.109375 0 
L 9.078125 0 
L 9.078125 54.6875 
L 18.109375 54.6875 
L 18.109375 46.1875 
Q 21.34375 51.125 25.703125 53.5625 
Q 30.078125 56 35.796875 56 
Q 45.21875 56 50.046875 50.171875 
Q 54.890625 44.34375 54.890625 33.015625 
z
" id="DejaVuSans-110"/>
       </defs>
       <use xlink:href="#DejaVuSans-74"/>
       <use x="29.492188" xlink:href="#DejaVuSans-117"/>
       <use x="92.871094" xlink:href="#DejaVuSans-110"/>
      </g>
     </g>
    </g>
    <g id="xtick_5">
     <g id="line2d_5">
      <g>
       <use style="stroke:#000000;stroke-width:0.8;" x="260.027701" xlink:href="#m0faaf37419" y="315"/>
      </g>
     </g>
     <g id="text_4">
      <!-- Jul -->
      <g transform="translate(253.994888 329.598437)scale(0.1 -0.1)">
       <defs>
        <path d="M 9.421875 75.984375 
L 18.40625 75.984375 
L 18.40625 0 
L 9.421875 0 
z
" id="DejaVuSans-108"/>
       </defs>
       <use xlink:href="#DejaVuSans-74"/>
       <use x="29.492188" xlink:href="#DejaVuSans-117"/>
       <use x="92.871094" xlink:href="#DejaVuSans-108"/>
      </g>
     </g>
    </g>
    <g id="xtick_6">
     <g id="line2d_6">
      <g>
       <use style="stroke:#000000;stroke-width:0.8;" x="307.944598" xlink:href="#m0faaf37419" y="315"/>
      </g>
     </g>
     <g id="text_5">
      <!-- Aug -->
      <g transform="translate(298.181317 329.598437)scale(0.1 -0.1)">
       <defs>
        <path d="M 45.40625 27.984375 
Q 45.40625 37.75 41.375 43.109375 
Q 37.359375 48.484375 30.078125 48.484375 
Q 22.859375 48.484375 18.828125 43.109375 
Q 14.796875 37.75 14.796875 27.984375 
Q 14.796875 18.265625 18.828125 12.890625 
Q 22.859375 7.515625 30.078125 7.515625 
Q 37.359375 7.515625 41.375 12.890625 
Q 45.40625 18.265625 45.40625 27.984375 
z
M 54.390625 6.78125 
Q 54.390625 -7.171875 48.1875 -13.984375 
Q 42 -20.796875 29.203125 -20.796875 
Q 24.46875 -20.796875 20.265625 -20.09375 
Q 16.0625 -19.390625 12.109375 -17.921875 
L 12.109375 -9.1875 
Q 16.0625 -11.328125 19.921875 -12.34375 
Q 23.78125 -13.375 27.78125 -13.375 
Q 36.625 -13.375 41.015625 -8.765625 
Q 45.40625 -4.15625 45.40625 5.171875 
L 45.40625 9.625 
Q 42.625 4.78125 38.28125 2.390625 
Q 33.9375 0 27.875 0 
Q 17.828125 0 11.671875 7.65625 
Q 5.515625 15.328125 5.515625 27.984375 
Q 5.515625 40.671875 11.671875 48.328125 
Q 17.828125 56 27.875 56 
Q 33.9375 56 38.28125 53.609375 
Q 42.625 51.21875 45.40625 46.390625 
L 45.40625 54.6875 
L 54.390625 54.6875 
z
" id="DejaVuSans-103"/>
       </defs>
       <use xlink:href="#DejaVuSans-65"/>
       <use x="68.408203" xlink:href="#DejaVuSans-117"/>
       <use x="131.787109" xlink:href="#DejaVuSans-103"/>
      </g>
     </g>
    </g>
    <g id="xtick_7">
     <g id="line2d_7">
      <g>
       <use style="stroke:#000000;stroke-width:0.8;" x="355.861496" xlink:href="#m0faaf37419" y="315"/>
      </g>
     </g>
     <g id="text_6">
      <!-- Sep -->
      <g transform="translate(346.436496 329.598437)scale(0.1 -0.1)">
       <defs>
        <path d="M 53.515625 70.515625 
L 53.515625 60.890625 
Q 47.90625 63.578125 42.921875 64.890625 
Q 37.9375 66.21875 33.296875 66.21875 
Q 25.25 66.21875 20.875 63.09375 
Q 16.5 59.96875 16.5 54.203125 
Q 16.5 49.359375 19.40625 46.890625 
Q 22.3125 44.4375 30.421875 42.921875 
L 36.375 41.703125 
Q 47.40625 39.59375 52.65625 34.296875 
Q 57.90625 29 57.90625 20.125 
Q 57.90625 9.515625 50.796875 4.046875 
Q 43.703125 -1.421875 29.984375 -1.421875 
Q 24.8125 -1.421875 18.96875 -0.25 
Q 13.140625 0.921875 6.890625 3.21875 
L 6.890625 13.375 
Q 12.890625 10.015625 18.65625 8.296875 
Q 24.421875 6.59375 29.984375 6.59375 
Q 38.421875 6.59375 43.015625 9.90625 
Q 47.609375 13.234375 47.609375 19.390625 
Q 47.609375 24.75 44.3125 27.78125 
Q 41.015625 30.8125 33.5 32.328125 
L 27.484375 33.5 
Q 16.453125 35.6875 11.515625 40.375 
Q 6.59375 45.0625 6.59375 53.421875 
Q 6.59375 63.09375 13.40625 68.65625 
Q 20.21875 74.21875 32.171875 74.21875 
Q 37.3125 74.21875 42.625 73.28125 
Q 47.953125 72.359375 53.515625 70.515625 
z
" id="DejaVuSans-83"/>
        <path d="M 56.203125 29.59375 
L 56.203125 25.203125 
L 14.890625 25.203125 
Q 15.484375 15.921875 20.484375 11.0625 
Q 25.484375 6.203125 34.421875 6.203125 
Q 39.59375 6.203125 44.453125 7.46875 
Q 49.3125 8.734375 54.109375 11.28125 
L 54.109375 2.78125 
Q 49.265625 0.734375 44.1875 -0.34375 
Q 39.109375 -1.421875 33.890625 -1.421875 
Q 20.796875 -1.421875 13.15625 6.1875 
Q 5.515625 13.8125 5.515625 26.8125 
Q 5.515625 40.234375 12.765625 48.109375 
Q 20.015625 56 32.328125 56 
Q 43.359375 56 49.78125 48.890625 
Q 56.203125 41.796875 56.203125 29.59375 
z
M 47.21875 32.234375 
Q 47.125 39.59375 43.09375 43.984375 
Q 39.0625 48.390625 32.421875 48.390625 
Q 24.90625 48.390625 20.390625 44.140625 
Q 15.875 39.890625 15.1875 32.171875 
z
" id="DejaVuSans-101"/>
       </defs>
       <use xlink:href="#DejaVuSans-83"/>
       <use x="63.476562" xlink:href="#DejaVuSans-101"/>
       <use x="125" xlink:href="#DejaVuSans-112"/>
      </g>
     </g>
    </g>
    <g id="xtick_8">
     <g id="line2d_8">
      <g>
       <use style="stroke:#000000;stroke-width:0.8;" x="402.232687" xlink:href="#m0faaf37419" y="315"/>
      </g>
     </g>
     <g id="text_7">
      <!-- Oct -->
      <g transform="translate(393.587374 329.598437)scale(0.1 -0.1)">
       <defs>
        <path d="M 39.40625 66.21875 
Q 28.65625 66.21875 22.328125 58.203125 
Q 16.015625 50.203125 16.015625 36.375 
Q 16.015625 22.609375 22.328125 14.59375 
Q 28.65625 6.59375 39.40625 6.59375 
Q 50.140625 6.59375 56.421875 14.59375 
Q 62.703125 22.609375 62.703125 36.375 
Q 62.703125 50.203125 56.421875 58.203125 
Q 50.140625 66.21875 39.40625 66.21875 
z
M 39.40625 74.21875 
Q 54.734375 74.21875 63.90625 63.9375 
Q 73.09375 53.65625 73.09375 36.375 
Q 73.09375 19.140625 63.90625 8.859375 
Q 54.734375 -1.421875 39.40625 -1.421875 
Q 24.03125 -1.421875 14.8125 8.828125 
Q 5.609375 19.09375 5.609375 36.375 
Q 5.609375 53.65625 14.8125 63.9375 
Q 24.03125 74.21875 39.40625 74.21875 
z
" id="DejaVuSans-79"/>
        <path d="M 48.78125 52.59375 
L 48.78125 44.1875 
Q 44.96875 46.296875 41.140625 47.34375 
Q 37.3125 48.390625 33.40625 48.390625 
Q 24.65625 48.390625 19.8125 42.84375 
Q 14.984375 37.3125 14.984375 27.296875 
Q 14.984375 17.28125 19.8125 11.734375 
Q 24.65625 6.203125 33.40625 6.203125 
Q 37.3125 6.203125 41.140625 7.25 
Q 44.96875 8.296875 48.78125 10.40625 
L 48.78125 2.09375 
Q 45.015625 0.34375 40.984375 -0.53125 
Q 36.96875 -1.421875 32.421875 -1.421875 
Q 20.0625 -1.421875 12.78125 6.34375 
Q 5.515625 14.109375 5.515625 27.296875 
Q 5.515625 40.671875 12.859375 48.328125 
Q 20.21875 56 33.015625 56 
Q 37.15625 56 41.109375 55.140625 
Q 45.0625 54.296875 48.78125 52.59375 
z
" id="DejaVuSans-99"/>
        <path d="M 18.3125 70.21875 
L 18.3125 54.6875 
L 36.8125 54.6875 
L 36.8125 47.703125 
L 18.3125 47.703125 
L 18.3125 18.015625 
Q 18.3125 11.328125 20.140625 9.421875 
Q 21.96875 7.515625 27.59375 7.515625 
L 36.8125 7.515625 
L 36.8125 0 
L 27.59375 0 
Q 17.1875 0 13.234375 3.875 
Q 9.28125 7.765625 9.28125 18.015625 
L 9.28125 47.703125 
L 2.6875 47.703125 
L 2.6875 54.6875 
L 9.28125 54.6875 
L 9.28125 70.21875 
z
" id="DejaVuSans-116"/>
       </defs>
       <use xlink:href="#DejaVuSans-79"/>
       <use x="78.710938" xlink:href="#DejaVuSans-99"/>
       <use x="133.691406" xlink:href="#DejaVuSans-116"/>
      </g>
     </g>
    </g>
    <g id="xtick_9">
     <g id="line2d_9">
      <g>
       <use style="stroke:#000000;stroke-width:0.8;" x="450.149584" xlink:href="#m0faaf37419" y="315"/>
      </g>
     </g>
     <g id="text_8">
      <!-- Nov -->
      <g transform="translate(440.390209 329.598437)scale(0.1 -0.1)">
       <defs>
        <path d="M 9.8125 72.90625 
L 23.09375 72.90625 
L 55.421875 11.921875 
L 55.421875 72.90625 
L 64.984375 72.90625 
L 64.984375 0 
L 51.703125 0 
L 19.390625 60.984375 
L 19.390625 0 
L 9.8125 0 
z
" id="DejaVuSans-78"/>
        <path d="M 30.609375 48.390625 
Q 23.390625 48.390625 19.1875 42.75 
Q 14.984375 37.109375 14.984375 27.296875 
Q 14.984375 17.484375 19.15625 11.84375 
Q 23.34375 6.203125 30.609375 6.203125 
Q 37.796875 6.203125 41.984375 11.859375 
Q 46.1875 17.53125 46.1875 27.296875 
Q 46.1875 37.015625 41.984375 42.703125 
Q 37.796875 48.390625 30.609375 48.390625 
z
M 30.609375 56 
Q 42.328125 56 49.015625 48.375 
Q 55.71875 40.765625 55.71875 27.296875 
Q 55.71875 13.875 49.015625 6.21875 
Q 42.328125 -1.421875 30.609375 -1.421875 
Q 18.84375 -1.421875 12.171875 6.21875 
Q 5.515625 13.875 5.515625 27.296875 
Q 5.515625 40.765625 12.171875 48.375 
Q 18.84375 56 30.609375 56 
z
" id="DejaVuSans-111"/>
        <path d="M 2.984375 54.6875 
L 12.5 54.6875 
L 29.59375 8.796875 
L 46.6875 54.6875 
L 56.203125 54.6875 
L 35.6875 0 
L 23.484375 0 
z
" id="DejaVuSans-118"/>
       </defs>
       <use xlink:href="#DejaVuSans-78"/>
       <use x="74.804688" xlink:href="#DejaVuSans-111"/>
       <use x="135.986328" xlink:href="#DejaVuSans-118"/>
      </g>
     </g>
    </g>
    <g id="xtick_10">
     <g id="line2d_10">
      <g>
       <use style="stroke:#000000;stroke-width:0.8;" x="496.520776" xlink:href="#m0faaf37419" y="315"/>
      </g>
     </g>
     <g id="text_9">
      <!-- Dec -->
      <g transform="translate(486.844994 329.598437)scale(0.1 -0.1)">
       <defs>
        <path d="M 19.671875 64.796875 
L 19.671875 8.109375 
L 31.59375 8.109375 
Q 46.6875 8.109375 53.6875 14.9375 
Q 60.6875 21.78125 60.6875 36.53125 
Q 60.6875 51.171875 53.6875 57.984375 
Q 46.6875 64.796875 31.59375 64.796875 
z
M 9.8125 72.90625 
L 30.078125 72.90625 
Q 51.265625 72.90625 61.171875 64.09375 
Q 71.09375 55.28125 71.09375 36.53125 
Q 71.09375 17.671875 61.125 8.828125 
Q 51.171875 0 30.078125 0 
L 9.8125 0 
z
" id="DejaVuSans-68"/>
       </defs>
       <use xlink:href="#DejaVuSans-68"/>
       <use x="77.001953" xlink:href="#DejaVuSans-101"/>
       <use x="138.525391" xlink:href="#DejaVuSans-99"/>
      </g>
     </g>
    </g>
    <g id="xtick_11">
     <g id="line2d_11">
      <g>
       <use style="stroke:#000000;stroke-width:0.8;" x="544.437673" xlink:href="#m0faaf37419" y="315"/>
      </g>
     </g>
     <g id="text_10">
      <!-- Jan -->
      <g transform="translate(536.729861 329.598437)scale(0.1 -0.1)">
       <use xlink:href="#DejaVuSans-74"/>
       <use x="29.492188" xlink:href="#DejaVuSans-97"/>
       <use x="90.771484" xlink:href="#DejaVuSans-110"/>
      </g>
      <!-- 2021 -->
      <g transform="translate(531.712673 340.79625)scale(0.1 -0.1)">
       <defs>
        <path d="M 19.1875 8.296875 
L 53.609375 8.296875 
L 53.609375 0 
L 7.328125 0 
L 7.328125 8.296875 
Q 12.9375 14.109375 22.625 23.890625 
Q 32.328125 33.6875 34.8125 36.53125 
Q 39.546875 41.84375 41.421875 45.53125 
Q 43.3125 49.21875 43.3125 52.78125 
Q 43.3125 58.59375 39.234375 62.25 
Q 35.15625 65.921875 28.609375 65.921875 
Q 23.96875 65.921875 18.8125 64.3125 
Q 13.671875 62.703125 7.8125 59.421875 
L 7.8125 69.390625 
Q 13.765625 71.78125 18.9375 73 
Q 24.125 74.21875 28.421875 74.21875 
Q 39.75 74.21875 46.484375 68.546875 
Q 53.21875 62.890625 53.21875 53.421875 
Q 53.21875 48.921875 51.53125 44.890625 
Q 49.859375 40.875 45.40625 35.40625 
Q 44.1875 33.984375 37.640625 27.21875 
Q 31.109375 20.453125 19.1875 8.296875 
z
" id="DejaVuSans-50"/>
        <path d="M 31.78125 66.40625 
Q 24.171875 66.40625 20.328125 58.90625 
Q 16.5 51.421875 16.5 36.375 
Q 16.5 21.390625 20.328125 13.890625 
Q 24.171875 6.390625 31.78125 6.390625 
Q 39.453125 6.390625 43.28125 13.890625 
Q 47.125 21.390625 47.125 36.375 
Q 47.125 51.421875 43.28125 58.90625 
Q 39.453125 66.40625 31.78125 66.40625 
z
M 31.78125 74.21875 
Q 44.046875 74.21875 50.515625 64.515625 
Q 56.984375 54.828125 56.984375 36.375 
Q 56.984375 17.96875 50.515625 8.265625 
Q 44.046875 -1.421875 31.78125 -1.421875 
Q 19.53125 -1.421875 13.0625 8.265625 
Q 6.59375 17.96875 6.59375 36.375 
Q 6.59375 54.828125 13.0625 64.515625 
Q 19.53125 74.21875 31.78125 74.21875 
z
" id="DejaVuSans-48"/>
        <path d="M 12.40625 8.296875 
L 28.515625 8.296875 
L 28.515625 63.921875 
L 10.984375 60.40625 
L 10.984375 69.390625 
L 28.421875 72.90625 
L 38.28125 72.90625 
L 38.28125 8.296875 
L 54.390625 8.296875 
L 54.390625 0 
L 12.40625 0 
z
" id="DejaVuSans-49"/>
       </defs>
       <use xlink:href="#DejaVuSans-50"/>
       <use x="63.623047" xlink:href="#DejaVuSans-48"/>
       <use x="127.246094" xlink:href="#DejaVuSans-50"/>
       <use x="190.869141" xlink:href="#DejaVuSans-49"/>
      </g>
     </g>
    </g>
    <g id="xtick_12">
     <g id="line2d_12">
      <g>
       <use style="stroke:#000000;stroke-width:0.8;" x="592.354571" xlink:href="#m0faaf37419" y="315"/>
      </g>
     </g>
     <g id="text_11">
      <!-- Feb -->
      <g transform="translate(583.503008 329.598437)scale(0.1 -0.1)">
       <defs>
        <path d="M 9.8125 72.90625 
L 51.703125 72.90625 
L 51.703125 64.59375 
L 19.671875 64.59375 
L 19.671875 43.109375 
L 48.578125 43.109375 
L 48.578125 34.8125 
L 19.671875 34.8125 
L 19.671875 0 
L 9.8125 0 
z
" id="DejaVuSans-70"/>
        <path d="M 48.6875 27.296875 
Q 48.6875 37.203125 44.609375 42.84375 
Q 40.53125 48.484375 33.40625 48.484375 
Q 26.265625 48.484375 22.1875 42.84375 
Q 18.109375 37.203125 18.109375 27.296875 
Q 18.109375 17.390625 22.1875 11.75 
Q 26.265625 6.109375 33.40625 6.109375 
Q 40.53125 6.109375 44.609375 11.75 
Q 48.6875 17.390625 48.6875 27.296875 
z
M 18.109375 46.390625 
Q 20.953125 51.265625 25.265625 53.625 
Q 29.59375 56 35.59375 56 
Q 45.5625 56 51.78125 48.09375 
Q 58.015625 40.1875 58.015625 27.296875 
Q 58.015625 14.40625 51.78125 6.484375 
Q 45.5625 -1.421875 35.59375 -1.421875 
Q 29.59375 -1.421875 25.265625 0.953125 
Q 20.953125 3.328125 18.109375 8.203125 
L 18.109375 0 
L 9.078125 0 
L 9.078125 75.984375 
L 18.109375 75.984375 
z
" id="DejaVuSans-98"/>
       </defs>
       <use xlink:href="#DejaVuSans-70"/>
       <use x="52.019531" xlink:href="#DejaVuSans-101"/>
       <use x="113.542969" xlink:href="#DejaVuSans-98"/>
      </g>
     </g>
    </g>
    <g id="xtick_13">
     <g id="line2d_13">
      <g>
       <use style="stroke:#000000;stroke-width:0.8;" x="635.634349" xlink:href="#m0faaf37419" y="315"/>
      </g>
     </g>
     <g id="text_12">
      <!-- Mar -->
      <g transform="translate(626.200755 329.598437)scale(0.1 -0.1)">
       <use xlink:href="#DejaVuSans-77"/>
       <use x="86.279297" xlink:href="#DejaVuSans-97"/>
       <use x="147.558594" xlink:href="#DejaVuSans-114"/>
      </g>
     </g>
    </g>
    <g id="xtick_14">
     <g id="line2d_14">
      <g>
       <use style="stroke:#000000;stroke-width:0.8;" x="648" xlink:href="#m0faaf37419" y="315"/>
      </g>
     </g>
    </g>
    <g id="xtick_15">
     <g id="line2d_15">
      <defs>
       <path d="M 0 0 
L 0 2 
" id="m4d366f8a2a" style="stroke:#000000;stroke-width:0.6;"/>
      </defs>
      <g>
       <use style="stroke:#000000;stroke-width:0.6;" x="94.637119" xlink:href="#m4d366f8a2a" y="315"/>
      </g>
     </g>
    </g>
    <g id="xtick_16">
     <g id="line2d_16">
      <g>
       <use style="stroke:#000000;stroke-width:0.6;" x="105.457064" xlink:href="#m4d366f8a2a" y="315"/>
      </g>
     </g>
    </g>
    <g id="xtick_17">
     <g id="line2d_17">
      <g>
       <use style="stroke:#000000;stroke-width:0.6;" x="116.277008" xlink:href="#m4d366f8a2a" y="315"/>
      </g>
     </g>
    </g>
    <g id="xtick_18">
     <g id="line2d_18">
      <g>
       <use style="stroke:#000000;stroke-width:0.6;" x="127.096953" xlink:href="#m4d366f8a2a" y="315"/>
      </g>
     </g>
    </g>
    <g id="xtick_19">
     <g id="line2d_19">
      <g>
       <use style="stroke:#000000;stroke-width:0.6;" x="137.916898" xlink:href="#m4d366f8a2a" y="315"/>
      </g>
     </g>
    </g>
    <g id="xtick_20">
     <g id="line2d_20">
      <g>
       <use style="stroke:#000000;stroke-width:0.6;" x="148.736842" xlink:href="#m4d366f8a2a" y="315"/>
      </g>
     </g>
    </g>
    <g id="xtick_21">
     <g id="line2d_21">
      <g>
       <use style="stroke:#000000;stroke-width:0.6;" x="159.556787" xlink:href="#m4d366f8a2a" y="315"/>
      </g>
     </g>
    </g>
    <g id="xtick_22">
     <g id="line2d_22">
      <g>
       <use style="stroke:#000000;stroke-width:0.6;" x="170.376731" xlink:href="#m4d366f8a2a" y="315"/>
      </g>
     </g>
    </g>
    <g id="xtick_23">
     <g id="line2d_23">
      <g>
       <use style="stroke:#000000;stroke-width:0.6;" x="181.196676" xlink:href="#m4d366f8a2a" y="315"/>
      </g>
     </g>
    </g>
    <g id="xtick_24">
     <g id="line2d_24">
      <g>
       <use style="stroke:#000000;stroke-width:0.6;" x="192.01662" xlink:href="#m4d366f8a2a" y="315"/>
      </g>
     </g>
    </g>
    <g id="xtick_25">
     <g id="line2d_25">
      <g>
       <use style="stroke:#000000;stroke-width:0.6;" x="202.836565" xlink:href="#m4d366f8a2a" y="315"/>
      </g>
     </g>
    </g>
    <g id="xtick_26">
     <g id="line2d_26">
      <g>
       <use style="stroke:#000000;stroke-width:0.6;" x="224.476454" xlink:href="#m4d366f8a2a" y="315"/>
      </g>
     </g>
    </g>
    <g id="xtick_27">
     <g id="line2d_27">
      <g>
       <use style="stroke:#000000;stroke-width:0.6;" x="235.296399" xlink:href="#m4d366f8a2a" y="315"/>
      </g>
     </g>
    </g>
    <g id="xtick_28">
     <g id="line2d_28">
      <g>
       <use style="stroke:#000000;stroke-width:0.6;" x="246.116343" xlink:href="#m4d366f8a2a" y="315"/>
      </g>
     </g>
    </g>
    <g id="xtick_29">
     <g id="line2d_29">
      <g>
       <use style="stroke:#000000;stroke-width:0.6;" x="256.936288" xlink:href="#m4d366f8a2a" y="315"/>
      </g>
     </g>
    </g>
    <g id="xtick_30">
     <g id="line2d_30">
      <g>
       <use style="stroke:#000000;stroke-width:0.6;" x="267.756233" xlink:href="#m4d366f8a2a" y="315"/>
      </g>
     </g>
    </g>
    <g id="xtick_31">
     <g id="line2d_31">
      <g>
       <use style="stroke:#000000;stroke-width:0.6;" x="278.576177" xlink:href="#m4d366f8a2a" y="315"/>
      </g>
     </g>
    </g>
    <g id="xtick_32">
     <g id="line2d_32">
      <g>
       <use style="stroke:#000000;stroke-width:0.6;" x="289.396122" xlink:href="#m4d366f8a2a" y="315"/>
      </g>
     </g>
    </g>
    <g id="xtick_33">
     <g id="line2d_33">
      <g>
       <use style="stroke:#000000;stroke-width:0.6;" x="300.216066" xlink:href="#m4d366f8a2a" y="315"/>
      </g>
     </g>
    </g>
    <g id="xtick_34">
     <g id="line2d_34">
      <g>
       <use style="stroke:#000000;stroke-width:0.6;" x="311.036011" xlink:href="#m4d366f8a2a" y="315"/>
      </g>
     </g>
    </g>
    <g id="xtick_35">
     <g id="line2d_35">
      <g>
       <use style="stroke:#000000;stroke-width:0.6;" x="321.855956" xlink:href="#m4d366f8a2a" y="315"/>
      </g>
     </g>
    </g>
    <g id="xtick_36">
     <g id="line2d_36">
      <g>
       <use style="stroke:#000000;stroke-width:0.6;" x="332.6759" xlink:href="#m4d366f8a2a" y="315"/>
      </g>
     </g>
    </g>
    <g id="xtick_37">
     <g id="line2d_37">
      <g>
       <use style="stroke:#000000;stroke-width:0.6;" x="343.495845" xlink:href="#m4d366f8a2a" y="315"/>
      </g>
     </g>
    </g>
    <g id="xtick_38">
     <g id="line2d_38">
      <g>
       <use style="stroke:#000000;stroke-width:0.6;" x="354.315789" xlink:href="#m4d366f8a2a" y="315"/>
      </g>
     </g>
    </g>
    <g id="xtick_39">
     <g id="line2d_39">
      <g>
       <use style="stroke:#000000;stroke-width:0.6;" x="365.135734" xlink:href="#m4d366f8a2a" y="315"/>
      </g>
     </g>
    </g>
    <g id="xtick_40">
     <g id="line2d_40">
      <g>
       <use style="stroke:#000000;stroke-width:0.6;" x="375.955679" xlink:href="#m4d366f8a2a" y="315"/>
      </g>
     </g>
    </g>
    <g id="xtick_41">
     <g id="line2d_41">
      <g>
       <use style="stroke:#000000;stroke-width:0.6;" x="386.775623" xlink:href="#m4d366f8a2a" y="315"/>
      </g>
     </g>
    </g>
    <g id="xtick_42">
     <g id="line2d_42">
      <g>
       <use style="stroke:#000000;stroke-width:0.6;" x="397.595568" xlink:href="#m4d366f8a2a" y="315"/>
      </g>
     </g>
    </g>
    <g id="xtick_43">
     <g id="line2d_43">
      <g>
       <use style="stroke:#000000;stroke-width:0.6;" x="408.415512" xlink:href="#m4d366f8a2a" y="315"/>
      </g>
     </g>
    </g>
    <g id="xtick_44">
     <g id="line2d_44">
      <g>
       <use style="stroke:#000000;stroke-width:0.6;" x="419.235457" xlink:href="#m4d366f8a2a" y="315"/>
      </g>
     </g>
    </g>
    <g id="xtick_45">
     <g id="line2d_45">
      <g>
       <use style="stroke:#000000;stroke-width:0.6;" x="430.055402" xlink:href="#m4d366f8a2a" y="315"/>
      </g>
     </g>
    </g>
    <g id="xtick_46">
     <g id="line2d_46">
      <g>
       <use style="stroke:#000000;stroke-width:0.6;" x="440.875346" xlink:href="#m4d366f8a2a" y="315"/>
      </g>
     </g>
    </g>
    <g id="xtick_47">
     <g id="line2d_47">
      <g>
       <use style="stroke:#000000;stroke-width:0.6;" x="451.695291" xlink:href="#m4d366f8a2a" y="315"/>
      </g>
     </g>
    </g>
    <g id="xtick_48">
     <g id="line2d_48">
      <g>
       <use style="stroke:#000000;stroke-width:0.6;" x="462.515235" xlink:href="#m4d366f8a2a" y="315"/>
      </g>
     </g>
    </g>
    <g id="xtick_49">
     <g id="line2d_49">
      <g>
       <use style="stroke:#000000;stroke-width:0.6;" x="473.33518" xlink:href="#m4d366f8a2a" y="315"/>
      </g>
     </g>
    </g>
    <g id="xtick_50">
     <g id="line2d_50">
      <g>
       <use style="stroke:#000000;stroke-width:0.6;" x="484.155125" xlink:href="#m4d366f8a2a" y="315"/>
      </g>
     </g>
    </g>
    <g id="xtick_51">
     <g id="line2d_51">
      <g>
       <use style="stroke:#000000;stroke-width:0.6;" x="494.975069" xlink:href="#m4d366f8a2a" y="315"/>
      </g>
     </g>
    </g>
    <g id="xtick_52">
     <g id="line2d_52">
      <g>
       <use style="stroke:#000000;stroke-width:0.6;" x="505.795014" xlink:href="#m4d366f8a2a" y="315"/>
      </g>
     </g>
    </g>
    <g id="xtick_53">
     <g id="line2d_53">
      <g>
       <use style="stroke:#000000;stroke-width:0.6;" x="516.614958" xlink:href="#m4d366f8a2a" y="315"/>
      </g>
     </g>
    </g>
    <g id="xtick_54">
     <g id="line2d_54">
      <g>
       <use style="stroke:#000000;stroke-width:0.6;" x="527.434903" xlink:href="#m4d366f8a2a" y="315"/>
      </g>
     </g>
    </g>
    <g id="xtick_55">
     <g id="line2d_55">
      <g>
       <use style="stroke:#000000;stroke-width:0.6;" x="538.254848" xlink:href="#m4d366f8a2a" y="315"/>
      </g>
     </g>
    </g>
    <g id="xtick_56">
     <g id="line2d_56">
      <g>
       <use style="stroke:#000000;stroke-width:0.6;" x="549.074792" xlink:href="#m4d366f8a2a" y="315"/>
      </g>
     </g>
    </g>
    <g id="xtick_57">
     <g id="line2d_57">
      <g>
       <use style="stroke:#000000;stroke-width:0.6;" x="559.894737" xlink:href="#m4d366f8a2a" y="315"/>
      </g>
     </g>
    </g>
    <g id="xtick_58">
     <g id="line2d_58">
      <g>
       <use style="stroke:#000000;stroke-width:0.6;" x="570.714681" xlink:href="#m4d366f8a2a" y="315"/>
      </g>
     </g>
    </g>
    <g id="xtick_59">
     <g id="line2d_59">
      <g>
       <use style="stroke:#000000;stroke-width:0.6;" x="581.534626" xlink:href="#m4d366f8a2a" y="315"/>
      </g>
     </g>
    </g>
    <g id="xtick_60">
     <g id="line2d_60">
      <g>
       <use style="stroke:#000000;stroke-width:0.6;" x="603.174515" xlink:href="#m4d366f8a2a" y="315"/>
      </g>
     </g>
    </g>
    <g id="xtick_61">
     <g id="line2d_61">
      <g>
       <use style="stroke:#000000;stroke-width:0.6;" x="613.99446" xlink:href="#m4d366f8a2a" y="315"/>
      </g>
     </g>
    </g>
    <g id="xtick_62">
     <g id="line2d_62">
      <g>
       <use style="stroke:#000000;stroke-width:0.6;" x="624.814404" xlink:href="#m4d366f8a2a" y="315"/>
      </g>
     </g>
    </g>
    <g id="xtick_63">
     <g id="line2d_63">
      <g>
       <use style="stroke:#000000;stroke-width:0.6;" x="646.454294" xlink:href="#m4d366f8a2a" y="315"/>
      </g>
     </g>
    </g>
    <g id="text_13">
     <!-- date -->
     <g transform="translate(357.725 354.474375)scale(0.1 -0.1)">
      <defs>
       <path d="M 45.40625 46.390625 
L 45.40625 75.984375 
L 54.390625 75.984375 
L 54.390625 0 
L 45.40625 0 
L 45.40625 8.203125 
Q 42.578125 3.328125 38.25 0.953125 
Q 33.9375 -1.421875 27.875 -1.421875 
Q 17.96875 -1.421875 11.734375 6.484375 
Q 5.515625 14.40625 5.515625 27.296875 
Q 5.515625 40.1875 11.734375 48.09375 
Q 17.96875 56 27.875 56 
Q 33.9375 56 38.25 53.625 
Q 42.578125 51.265625 45.40625 46.390625 
z
M 14.796875 27.296875 
Q 14.796875 17.390625 18.875 11.75 
Q 22.953125 6.109375 30.078125 6.109375 
Q 37.203125 6.109375 41.296875 11.75 
Q 45.40625 17.390625 45.40625 27.296875 
Q 45.40625 37.203125 41.296875 42.84375 
Q 37.203125 48.484375 30.078125 48.484375 
Q 22.953125 48.484375 18.875 42.84375 
Q 14.796875 37.203125 14.796875 27.296875 
z
" id="DejaVuSans-100"/>
      </defs>
      <use xlink:href="#DejaVuSans-100"/>
      <use x="63.476562" xlink:href="#DejaVuSans-97"/>
      <use x="124.755859" xlink:href="#DejaVuSans-116"/>
      <use x="163.964844" xlink:href="#DejaVuSans-101"/>
     </g>
    </g>
   </g>
   <g id="matplotlib.axis_2">
    <g id="ytick_1">
     <g id="line2d_64">
      <defs>
       <path d="M 0 0 
L -3.5 0 
" id="mcd01469d64" style="stroke:#000000;stroke-width:0.8;"/>
      </defs>
      <g>
       <use style="stroke:#000000;stroke-width:0.8;" x="90" xlink:href="#mcd01469d64" y="263.101535"/>
      </g>
     </g>
     <g id="text_14">
      <!-- $\mathdefault{10^{0}}$ -->
      <g transform="translate(65.4 266.900754)scale(0.1 -0.1)">
       <use transform="translate(0 0.765625)" xlink:href="#DejaVuSans-49"/>
       <use transform="translate(63.623047 0.765625)" xlink:href="#DejaVuSans-48"/>
       <use transform="translate(128.203125 39.046875)scale(0.7)" xlink:href="#DejaVuSans-48"/>
      </g>
     </g>
    </g>
    <g id="ytick_2">
     <g id="line2d_65">
      <g>
       <use style="stroke:#000000;stroke-width:0.8;" x="90" xlink:href="#mcd01469d64" y="180.026599"/>
      </g>
     </g>
     <g id="text_15">
      <!-- $\mathdefault{10^{1}}$ -->
      <g transform="translate(65.4 183.825818)scale(0.1 -0.1)">
       <use transform="translate(0 0.684375)" xlink:href="#DejaVuSans-49"/>
       <use transform="translate(63.623047 0.684375)" xlink:href="#DejaVuSans-48"/>
       <use transform="translate(128.203125 38.965625)scale(0.7)" xlink:href="#DejaVuSans-49"/>
      </g>
     </g>
    </g>
    <g id="ytick_3">
     <g id="line2d_66">
      <g>
       <use style="stroke:#000000;stroke-width:0.8;" x="90" xlink:href="#mcd01469d64" y="96.951663"/>
      </g>
     </g>
     <g id="text_16">
      <!-- $\mathdefault{10^{2}}$ -->
      <g transform="translate(65.4 100.750882)scale(0.1 -0.1)">
       <use transform="translate(0 0.765625)" xlink:href="#DejaVuSans-49"/>
       <use transform="translate(63.623047 0.765625)" xlink:href="#DejaVuSans-48"/>
       <use transform="translate(128.203125 39.046875)scale(0.7)" xlink:href="#DejaVuSans-50"/>
      </g>
     </g>
    </g>
    <g id="ytick_4">
     <g id="line2d_67">
      <defs>
       <path d="M 0 0 
L -2 0 
" id="m2e5ecca13a" style="stroke:#000000;stroke-width:0.6;"/>
      </defs>
      <g>
       <use style="stroke:#000000;stroke-width:0.6;" x="90" xlink:href="#m2e5ecca13a" y="306.539653"/>
      </g>
     </g>
    </g>
    <g id="ytick_5">
     <g id="line2d_68">
      <g>
       <use style="stroke:#000000;stroke-width:0.6;" x="90" xlink:href="#m2e5ecca13a" y="296.160376"/>
      </g>
     </g>
    </g>
    <g id="ytick_6">
     <g id="line2d_69">
      <g>
       <use style="stroke:#000000;stroke-width:0.6;" x="90" xlink:href="#m2e5ecca13a" y="288.109583"/>
      </g>
     </g>
    </g>
    <g id="ytick_7">
     <g id="line2d_70">
      <g>
       <use style="stroke:#000000;stroke-width:0.6;" x="90" xlink:href="#m2e5ecca13a" y="281.531606"/>
      </g>
     </g>
    </g>
    <g id="ytick_8">
     <g id="line2d_71">
      <g>
       <use style="stroke:#000000;stroke-width:0.6;" x="90" xlink:href="#m2e5ecca13a" y="275.970005"/>
      </g>
     </g>
    </g>
    <g id="ytick_9">
     <g id="line2d_72">
      <g>
       <use style="stroke:#000000;stroke-width:0.6;" x="90" xlink:href="#m2e5ecca13a" y="271.152328"/>
      </g>
     </g>
    </g>
    <g id="ytick_10">
     <g id="line2d_73">
      <g>
       <use style="stroke:#000000;stroke-width:0.6;" x="90" xlink:href="#m2e5ecca13a" y="266.902836"/>
      </g>
     </g>
    </g>
    <g id="ytick_11">
     <g id="line2d_74">
      <g>
       <use style="stroke:#000000;stroke-width:0.6;" x="90" xlink:href="#m2e5ecca13a" y="238.093487"/>
      </g>
     </g>
    </g>
    <g id="ytick_12">
     <g id="line2d_75">
      <g>
       <use style="stroke:#000000;stroke-width:0.6;" x="90" xlink:href="#m2e5ecca13a" y="223.464717"/>
      </g>
     </g>
    </g>
    <g id="ytick_13">
     <g id="line2d_76">
      <g>
       <use style="stroke:#000000;stroke-width:0.6;" x="90" xlink:href="#m2e5ecca13a" y="213.08544"/>
      </g>
     </g>
    </g>
    <g id="ytick_14">
     <g id="line2d_77">
      <g>
       <use style="stroke:#000000;stroke-width:0.6;" x="90" xlink:href="#m2e5ecca13a" y="205.034647"/>
      </g>
     </g>
    </g>
    <g id="ytick_15">
     <g id="line2d_78">
      <g>
       <use style="stroke:#000000;stroke-width:0.6;" x="90" xlink:href="#m2e5ecca13a" y="198.45667"/>
      </g>
     </g>
    </g>
    <g id="ytick_16">
     <g id="line2d_79">
      <g>
       <use style="stroke:#000000;stroke-width:0.6;" x="90" xlink:href="#m2e5ecca13a" y="192.895069"/>
      </g>
     </g>
    </g>
    <g id="ytick_17">
     <g id="line2d_80">
      <g>
       <use style="stroke:#000000;stroke-width:0.6;" x="90" xlink:href="#m2e5ecca13a" y="188.077392"/>
      </g>
     </g>
    </g>
    <g id="ytick_18">
     <g id="line2d_81">
      <g>
       <use style="stroke:#000000;stroke-width:0.6;" x="90" xlink:href="#m2e5ecca13a" y="183.827899"/>
      </g>
     </g>
    </g>
    <g id="ytick_19">
     <g id="line2d_82">
      <g>
       <use style="stroke:#000000;stroke-width:0.6;" x="90" xlink:href="#m2e5ecca13a" y="155.018551"/>
      </g>
     </g>
    </g>
    <g id="ytick_20">
     <g id="line2d_83">
      <g>
       <use style="stroke:#000000;stroke-width:0.6;" x="90" xlink:href="#m2e5ecca13a" y="140.389781"/>
      </g>
     </g>
    </g>
    <g id="ytick_21">
     <g id="line2d_84">
      <g>
       <use style="stroke:#000000;stroke-width:0.6;" x="90" xlink:href="#m2e5ecca13a" y="130.010504"/>
      </g>
     </g>
    </g>
    <g id="ytick_22">
     <g id="line2d_85">
      <g>
       <use style="stroke:#000000;stroke-width:0.6;" x="90" xlink:href="#m2e5ecca13a" y="121.95971"/>
      </g>
     </g>
    </g>
    <g id="ytick_23">
     <g id="line2d_86">
      <g>
       <use style="stroke:#000000;stroke-width:0.6;" x="90" xlink:href="#m2e5ecca13a" y="115.381734"/>
      </g>
     </g>
    </g>
    <g id="ytick_24">
     <g id="line2d_87">
      <g>
       <use style="stroke:#000000;stroke-width:0.6;" x="90" xlink:href="#m2e5ecca13a" y="109.820133"/>
      </g>
     </g>
    </g>
    <g id="ytick_25">
     <g id="line2d_88">
      <g>
       <use style="stroke:#000000;stroke-width:0.6;" x="90" xlink:href="#m2e5ecca13a" y="105.002456"/>
      </g>
     </g>
    </g>
    <g id="ytick_26">
     <g id="line2d_89">
      <g>
       <use style="stroke:#000000;stroke-width:0.6;" x="90" xlink:href="#m2e5ecca13a" y="100.752963"/>
      </g>
     </g>
    </g>
    <g id="ytick_27">
     <g id="line2d_90">
      <g>
       <use style="stroke:#000000;stroke-width:0.6;" x="90" xlink:href="#m2e5ecca13a" y="71.943615"/>
      </g>
     </g>
    </g>
    <g id="ytick_28">
     <g id="line2d_91">
      <g>
       <use style="stroke:#000000;stroke-width:0.6;" x="90" xlink:href="#m2e5ecca13a" y="57.314845"/>
      </g>
     </g>
    </g>
    <g id="ytick_29">
     <g id="line2d_92">
      <g>
       <use style="stroke:#000000;stroke-width:0.6;" x="90" xlink:href="#m2e5ecca13a" y="46.935568"/>
      </g>
     </g>
    </g>
   </g>
   <g id="line2d_93">
    <path clip-path="url(#p7d7373d610)" d="M 94.633922 361 
L 94.637119 189.010683 
L 96.182825 173.238736 
L 97.728532 167.89768 
L 100.819945 164.593642 
L 102.365651 165.117012 
L 103.911357 163.998689 
L 105.457064 166.621487 
L 107.00277 168.8027 
L 108.548476 169.736783 
L 110.094183 173.037847 
L 111.639889 175.574205 
L 113.185596 178.593832 
L 114.731302 180.148986 
L 117.822715 187.435513 
L 122.459834 197.683178 
L 124.00554 200.638598 
L 125.551247 204.180728 
L 128.642659 212.383717 
L 130.188366 215.784133 
L 137.916898 234.473227 
L 139.462604 237.709402 
L 141.00831 241.479659 
L 142.554017 244.692301 
L 144.099723 248.351535 
L 145.645429 251.592062 
L 147.191136 255.251243 
L 150.282548 261.529811 
L 151.828255 263.657494 
L 153.373961 267.430696 
L 154.919668 270.576405 
L 156.465374 273.449144 
L 158.01108 275.438838 
L 159.556787 278.543361 
L 164.193906 285.33665 
L 165.739612 286.607578 
L 167.285319 288.495309 
L 170.376731 291.0762 
L 171.922438 291.032727 
L 173.468144 292.224261 
L 175.01385 292.706222 
L 176.559557 292.478395 
L 178.105263 292.824642 
L 181.196676 290.760767 
L 182.742382 289.589706 
L 184.288089 288.600466 
L 185.833795 286.271403 
L 187.379501 285.864529 
L 190.470914 281.576661 
L 193.562327 276.706187 
L 196.65374 271.176119 
L 199.745152 265.12734 
L 204.382271 255.473435 
L 212.110803 239.330163 
L 215.202216 233.25667 
L 218.293629 227.54888 
L 221.385042 222.263255 
L 224.476454 217.399563 
L 227.567867 212.906974 
L 232.204986 206.665204 
L 241.479224 194.484836 
L 244.570637 190.088653 
L 247.66205 185.36574 
L 250.753463 180.30101 
L 256.936288 169.523776 
L 261.573407 161.66003 
L 264.66482 156.91464 
L 267.756233 152.736063 
L 270.847645 149.187917 
L 273.939058 146.266634 
L 277.030471 143.911735 
L 280.121884 142.022544 
L 283.213296 140.479851 
L 286.304709 139.171301 
L 290.941828 137.453921 
L 300.216066 134.332218 
L 304.853186 132.949616 
L 309.490305 131.787096 
L 314.127424 130.906209 
L 318.764543 130.337185 
L 323.401662 130.050215 
L 328.038781 129.987434 
L 338.858726 130.000061 
L 341.950139 129.632576 
L 343.495845 129.300538 
L 345.041551 128.846081 
L 346.587258 128.253617 
L 348.132964 127.507943 
L 349.67867 126.594842 
L 351.224377 125.502704 
L 352.770083 124.223798 
L 354.315789 122.755053 
L 355.861496 121.097418 
L 357.407202 119.255057 
L 360.498615 115.055068 
L 363.590028 110.25756 
L 366.68144 105.000292 
L 375.955679 88.606121 
L 379.047091 83.76938 
L 380.592798 81.609486 
L 382.138504 79.66016 
L 383.684211 77.947959 
L 385.229917 76.49487 
L 386.775623 75.3183 
L 388.32133 74.432137 
L 389.867036 73.84686 
L 391.412742 73.569129 
L 392.958449 73.600476 
L 394.504155 73.938509 
L 396.049861 74.57817 
L 397.595568 75.511417 
L 399.141274 76.72689 
L 400.686981 78.210773 
L 402.232687 79.947517 
L 403.778393 81.920581 
L 405.3241 84.112657 
L 408.415512 89.079682 
L 411.506925 94.691747 
L 414.598338 100.784194 
L 419.235457 110.453716 
L 426.963989 126.613244 
L 430.055402 132.66628 
L 433.146814 138.327591 
L 436.238227 143.550894 
L 439.32964 148.33602 
L 442.421053 152.714749 
L 445.512465 156.740294 
L 448.603878 160.468859 
L 451.695291 163.945841 
L 456.33241 168.746427 
L 459.423823 171.669173 
L 462.515235 174.334717 
L 465.606648 176.681763 
L 468.698061 178.621852 
L 470.243767 179.401776 
L 471.789474 180.033035 
L 473.33518 180.498748 
L 474.880886 180.781181 
L 476.426593 180.8632 
L 477.972299 180.728229 
L 479.518006 180.359487 
L 481.063712 179.742405 
L 482.609418 178.867702 
L 484.155125 177.730918 
L 485.700831 176.331147 
L 487.246537 174.671601 
L 488.792244 172.761368 
L 490.33795 170.616098 
L 493.429363 165.718305 
L 496.520776 160.240813 
L 507.34072 140.444417 
L 510.432133 135.270982 
L 513.523546 130.432954 
L 516.614958 125.95673 
L 519.706371 121.838027 
L 522.797784 118.022555 
L 527.434903 112.686177 
L 539.800554 99.094869 
L 544.437673 94.199074 
L 547.529086 91.186775 
L 550.620499 88.496075 
L 553.711911 86.20748 
L 556.803324 84.361259 
L 559.894737 82.959663 
L 562.98615 81.974604 
L 566.077562 81.357476 
L 569.168975 81.02437 
L 573.806094 80.846154 
L 590.808864 80.740571 
L 595.445983 80.876482 
L 600.083102 81.271173 
L 604.720222 81.958947 
L 610.903047 83.193395 
L 620.177285 85.076661 
L 624.814404 85.830497 
L 630.99723 86.59443 
L 641.817175 87.660507 
L 646.454294 87.967873 
L 648 88.015568 
L 648 88.015568 
" style="fill:none;stroke:#008000;stroke-linecap:square;stroke-width:1.5;"/>
   </g>
   <g id="line2d_94">
    <path clip-path="url(#p7d7373d610)" d="M 90 91.511614 
L 91.545706 289.541818 
L 93.091413 193.887364 
L 94.637119 170.981644 
L 96.182825 169.945717 
L 99.274238 179.042751 
L 102.365651 186.590415 
L 107.00277 197.86522 
L 111.639889 209.765768 
L 117.822715 226.418123 
L 119.368421 230.629653 
L 120.914127 235.637959 
L 125.551247 248.102339 
L 130.188366 260.40308 
L 133.279778 268.092276 
L 136.371191 275.261827 
L 139.462604 281.754385 
L 142.554017 287.524603 
L 144.099723 290.11235 
L 145.645429 292.470266 
L 147.191136 294.58712 
L 148.736842 296.471922 
L 150.282548 298.122619 
L 151.828255 299.521382 
L 153.373961 300.657507 
L 154.919668 301.532204 
L 156.465374 302.157995 
L 158.01108 302.536255 
L 159.556787 302.645455 
L 161.102493 302.485528 
L 162.648199 302.07892 
L 164.193906 301.424623 
L 165.739612 300.51434 
L 167.285319 299.371869 
L 168.831025 298.011729 
L 170.376731 296.441706 
L 171.922438 294.669526 
L 175.01385 290.573318 
L 178.105263 285.809234 
L 181.196676 280.405364 
L 184.288089 274.471511 
L 187.379501 268.096036 
L 192.01662 257.965838 
L 199.745152 240.849067 
L 202.836565 234.43094 
L 205.927978 228.448119 
L 209.019391 222.855772 
L 212.110803 217.819757 
L 215.202216 213.318215 
L 218.293629 209.22596 
L 222.930748 203.529544 
L 229.113573 195.937675 
L 232.204986 191.771505 
L 235.296399 187.277277 
L 238.387812 182.401062 
L 241.479224 177.011892 
L 252.299169 157.382016 
L 255.390582 152.777561 
L 256.936288 150.742613 
L 258.481994 148.922731 
L 260.027701 147.31636 
L 261.573407 145.913231 
L 263.119114 144.700305 
L 264.66482 143.659788 
L 266.210526 142.778229 
L 269.301939 141.392245 
L 272.393352 140.347222 
L 289.396122 135.20517 
L 294.033241 133.815216 
L 297.124654 133.064383 
L 301.761773 132.216272 
L 304.853186 131.82198 
L 307.944598 131.633789 
L 314.127424 131.609211 
L 321.855956 132.010826 
L 326.493075 132.268182 
L 329.584488 132.17619 
L 331.130194 131.971646 
L 332.6759 131.642981 
L 334.221607 131.168469 
L 335.767313 130.502022 
L 337.313019 129.637988 
L 338.858726 128.57918 
L 340.404432 127.328037 
L 341.950139 125.879893 
L 343.495845 124.216203 
L 345.041551 122.338664 
L 348.132964 117.996364 
L 351.224377 113.011249 
L 354.315789 107.516101 
L 358.952909 98.689082 
L 363.590028 89.794909 
L 366.68144 84.276949 
L 368.227147 81.756135 
L 369.772853 79.455982 
L 371.31856 77.411437 
L 372.864266 75.64244 
L 374.409972 74.174157 
L 375.955679 73.040176 
L 377.501385 72.287486 
L 379.047091 71.932777 
L 380.592798 71.969973 
L 382.138504 72.404755 
L 383.684211 73.246053 
L 385.229917 74.494096 
L 386.775623 76.13508 
L 388.32133 78.132569 
L 389.867036 80.470731 
L 391.412742 83.132684 
L 392.958449 86.083006 
L 396.049861 92.684251 
L 399.141274 100.006826 
L 403.778393 111.805741 
L 409.961219 127.575568 
L 413.052632 134.951617 
L 416.144044 141.762207 
L 419.235457 147.865511 
L 422.32687 153.20168 
L 425.418283 157.835693 
L 428.509695 161.826767 
L 431.601108 165.367232 
L 434.692521 168.556684 
L 439.32964 172.901821 
L 443.966759 176.893986 
L 448.603878 180.534139 
L 451.695291 182.662945 
L 454.786704 184.489368 
L 456.33241 185.226904 
L 457.878116 185.831883 
L 459.423823 186.299656 
L 460.969529 186.602378 
L 462.515235 186.71173 
L 464.060942 186.598414 
L 465.606648 186.254576 
L 467.152355 185.683225 
L 468.698061 184.869755 
L 470.243767 183.799625 
L 471.789474 182.477569 
L 473.33518 180.894489 
L 474.880886 179.03324 
L 476.426593 176.91527 
L 477.972299 174.580718 
L 481.063712 169.294268 
L 484.155125 163.302381 
L 493.429363 144.474791 
L 496.520776 138.802585 
L 499.612188 133.55483 
L 502.703601 128.741084 
L 505.795014 124.331807 
L 508.886427 120.310204 
L 511.977839 116.714438 
L 516.614958 111.768432 
L 525.889197 101.93759 
L 535.163435 91.855654 
L 538.254848 88.931214 
L 541.34626 86.424558 
L 542.891967 85.375664 
L 544.437673 84.485509 
L 545.98338 83.743193 
L 547.529086 83.133012 
L 549.074792 82.651803 
L 552.166205 82.063588 
L 555.257618 81.857407 
L 558.34903 81.968197 
L 566.077562 82.597627 
L 570.714681 82.713006 
L 575.351801 82.65841 
L 579.98892 82.591364 
L 584.626039 82.742716 
L 587.717452 83.031208 
L 590.808864 83.519881 
L 595.445983 84.570298 
L 604.720222 86.972444 
L 609.357341 87.899721 
L 615.540166 88.77774 
L 620.177285 89.164845 
L 627.905817 89.795701 
L 635.634349 90.483406 
L 638.725762 90.512301 
L 641.817175 90.339553 
L 644.908587 89.853034 
L 648 89.084622 
L 648 89.084622 
" style="fill:none;stroke:#0000ff;stroke-linecap:square;stroke-width:1.5;"/>
   </g>
   <g id="line2d_95">
    <path clip-path="url(#p7d7373d610)" d="M 105.454164 361 
L 105.457064 205.034647 
L 107.00277 205.034647 
L 108.548476 180.026599 
L 110.094183 170.560762 
L 111.639889 223.464717 
L 113.185596 160.882069 
L 114.731302 183.827899 
L 116.277008 180.026599 
L 117.822715 173.448622 
L 119.368421 165.397829 
L 120.914127 176.587904 
L 122.459834 183.827899 
L 124.00554 180.026599 
L 125.551247 223.464717 
L 127.096953 238.093487 
L 128.642659 213.08544 
L 130.188366 238.093487 
L 131.734072 223.464717 
L 133.279778 213.08544 
L 134.825485 213.08544 
L 136.371191 223.464717 
L 137.916898 198.45667 
L 139.462604 223.464717 
L 141.00831 263.101535 
L 141.010132 361 
M 144.097437 361 
L 144.099723 238.093487 
L 145.645429 263.101535 
L 145.647251 361 
M 153.371675 361 
L 153.373961 238.093487 
L 154.919668 263.101535 
L 154.921489 361 
M 164.192084 361 
L 164.193906 263.101535 
L 164.195727 361 
M 176.557735 361 
L 176.559557 263.101535 
L 176.561378 361 
M 181.19439 361 
L 181.196676 238.093487 
L 181.198962 361 
M 184.285803 361 
L 184.288089 238.093487 
L 185.833795 263.101535 
L 185.835617 361 
M 190.469093 361 
L 190.470914 263.101535 
L 190.472736 361 
M 196.651918 361 
L 196.65374 263.101535 
L 198.199446 263.101535 
L 198.201267 361 
M 204.379521 361 
L 204.382271 213.08544 
L 205.927978 238.093487 
L 207.473684 223.464717 
L 209.019391 238.093487 
L 209.021677 361 
M 215.199658 361 
L 215.202216 223.464717 
L 216.747922 263.101535 
L 218.293629 213.08544 
L 219.839335 180.026599 
L 221.385042 213.08544 
L 222.930748 205.034647 
L 224.476454 223.464717 
L 226.022161 183.827899 
L 227.567867 205.034647 
L 229.113573 238.093487 
L 230.65928 213.08544 
L 232.204986 223.464717 
L 233.750693 238.093487 
L 235.296399 213.08544 
L 236.842105 213.08544 
L 238.387812 192.895069 
L 239.933518 176.587904 
L 241.479224 176.587904 
L 243.024931 213.08544 
L 244.570637 238.093487 
L 246.116343 205.034647 
L 247.66205 192.895069 
L 249.207756 192.895069 
L 250.753463 180.026599 
L 252.299169 198.45667 
L 253.844875 223.464717 
L 255.390582 213.08544 
L 256.936288 155.018551 
L 258.481994 213.08544 
L 260.027701 146.967758 
L 261.573407 148.440574 
L 263.119114 155.018551 
L 264.66482 145.552715 
L 266.210526 146.967758 
L 267.756233 144.191082 
L 269.301939 153.258252 
L 270.847645 148.440574 
L 272.393352 134.828181 
L 273.939058 139.206758 
L 275.484765 132.823277 
L 277.030471 144.191082 
L 280.121884 144.191082 
L 281.66759 145.552715 
L 284.759003 142.878974 
L 286.304709 165.397829 
L 287.850416 160.882069 
L 289.396122 130.010504 
L 290.941828 142.878974 
L 292.487535 130.923944 
L 294.033241 144.191082 
L 295.578947 131.861114 
L 297.124654 176.587904 
L 300.216066 119.183034 
L 301.761773 124.968034 
L 303.307479 131.861114 
L 304.853186 126.571809 
L 306.398892 138.061297 
L 307.944598 156.869161 
L 309.490305 130.010504 
L 311.036011 121.245252 
L 312.581717 124.192112 
L 314.127424 134.828181 
L 315.67313 133.811804 
L 317.218837 121.95971 
L 318.764543 146.967758 
L 320.310249 151.579857 
L 321.855956 124.192112 
L 323.401662 125.761011 
L 324.947368 141.612915 
L 326.493075 107.33094 
L 328.038781 132.823277 
L 329.584488 145.552715 
L 331.130194 130.923944 
L 332.6759 113.621434 
L 334.221607 124.192112 
L 335.767313 120.544667 
L 337.313019 130.010504 
L 338.858726 119.183034 
L 340.404432 188.077392 
L 341.950139 163.069344 
L 343.495845 131.861114 
L 345.041551 114.19871 
L 346.587258 131.861114 
L 348.132964 115.381734 
L 349.67867 138.061297 
L 351.224377 151.579857 
L 352.770083 155.018551 
L 354.315789 124.968034 
L 355.861496 121.95971 
L 357.407202 113.053249 
L 358.952909 112.493874 
L 360.498615 113.621434 
L 362.044321 130.923944 
L 363.590028 124.968034 
L 365.135734 103.242156 
L 366.68144 100.354297 
L 368.227147 99.184065 
L 369.772853 102.3932 
L 371.31856 101.156085 
L 372.864266 101.976097 
L 374.409972 101.563761 
L 375.955679 92.862879 
L 377.501385 82.322893 
L 379.047091 89.482801 
L 380.592798 71.943615 
L 382.138504 73.042553 
L 385.229917 104.111572 
L 386.775623 82.083164 
L 388.32133 55.554545 
L 389.867036 62.339279 
L 391.412742 56.718485 
L 392.958449 56.015625 
L 394.504155 76.3513 
L 396.049861 88.90087 
L 397.595568 111.400487 
L 399.141274 81.845018 
L 400.686981 62.477778 
L 402.232687 60.454127 
L 403.778393 65.215621 
L 405.3241 95.191363 
L 406.869806 98.0506 
L 408.415512 84.047131 
L 409.961219 79.103524 
L 411.506925 84.047131 
L 413.052632 84.812086 
L 414.598338 100.752963 
L 416.144044 123.432527 
L 417.689751 114.785373 
L 419.235457 108.306107 
L 420.781163 119.857427 
L 422.32687 113.621434 
L 423.872576 120.544667 
L 425.418283 132.823277 
L 426.963989 238.093487 
L 428.509695 160.882069 
L 430.055402 144.191082 
L 431.601108 142.878974 
L 433.146814 148.440574 
L 434.692521 140.389781 
L 436.238227 160.882069 
L 437.783934 263.101535 
L 439.32964 149.976082 
L 440.875346 160.882069 
L 442.421053 135.874022 
L 443.966759 145.552715 
L 445.512465 134.828181 
L 447.058172 153.258252 
L 448.603878 183.827899 
L 450.149584 148.440574 
L 451.695291 158.819852 
L 453.240997 148.440574 
L 454.786704 156.869161 
L 456.33241 183.827899 
L 457.878116 176.587904 
L 459.423823 238.093487 
L 460.969529 173.448622 
L 462.515235 156.869161 
L 464.060942 173.448622 
L 465.606648 151.579857 
L 467.152355 180.026599 
L 468.698061 163.069344 
L 470.243767 238.093487 
L 471.789474 183.827899 
L 473.33518 176.587904 
L 474.880886 192.895069 
L 476.426593 180.026599 
L 477.972299 170.560762 
L 479.518006 198.45667 
L 481.063712 198.45667 
L 482.609418 213.08544 
L 484.155125 176.587904 
L 485.700831 192.895069 
L 487.246537 165.397829 
L 488.792244 205.034647 
L 490.33795 188.077392 
L 491.883657 205.034647 
L 493.429363 188.077392 
L 494.975069 158.819852 
L 496.520776 153.258252 
L 498.066482 122.688604 
L 499.612188 151.579857 
L 501.157895 138.061297 
L 502.703601 192.895069 
L 505.795014 130.923944 
L 507.34072 146.967758 
L 508.886427 125.761011 
L 510.432133 130.923944 
L 511.977839 145.552715 
L 513.523546 153.258252 
L 515.069252 127.401247 
L 516.614958 120.544667 
L 518.160665 110.865974 
L 519.706371 110.339264 
L 521.252078 120.544667 
L 522.797784 108.306107 
L 524.34349 125.761011 
L 525.889197 126.571809 
L 527.434903 110.339264 
L 528.980609 104.111572 
L 530.526316 120.544667 
L 532.072022 113.053249 
L 533.617729 111.400487 
L 535.163435 144.191082 
L 536.709141 115.381734 
L 538.254848 91.909194 
L 539.800554 97.680556 
L 541.34626 96.237204 
L 542.891967 93.186459 
L 544.437673 96.951663 
L 545.98338 110.865974 
L 547.529086 99.959987 
L 549.074792 82.564225 
L 550.620499 85.331217 
L 552.166205 72.857056 
L 553.711911 76.968049 
L 556.803324 97.680556 
L 558.34903 82.083164 
L 559.894737 67.854831 
L 561.440443 82.564225 
L 562.98615 78.449506 
L 564.531856 72.4889 
L 566.077562 75.545032 
L 567.623269 107.33094 
L 569.168975 82.564225 
L 570.714681 75.945913 
L 572.260388 89.777325 
L 573.806094 79.103524 
L 575.351801 77.595526 
L 576.897507 84.812086 
L 578.443213 115.988117 
L 579.98892 94.510607 
L 581.534626 76.968049 
L 583.080332 75.148555 
L 584.626039 77.807133 
L 586.171745 89.190662 
L 587.717452 81.845018 
L 589.263158 139.206758 
L 590.808864 84.300318 
L 592.354571 63.037154 
L 595.445983 74.756389 
L 596.99169 68.504921 
L 598.537396 75.945913 
L 600.083102 124.968034 
L 601.628809 93.186459 
L 603.174515 70.183316 
L 604.720222 73.229008 
L 606.265928 79.103524 
L 607.811634 82.807182 
L 609.357341 79.994408 
L 610.903047 115.988117 
L 612.448753 100.752963 
L 613.99446 67.534127 
L 615.540166 75.744916 
L 617.085873 87.485826 
L 618.631579 87.76443 
L 620.177285 84.300318 
L 621.722992 153.258252 
L 623.268698 102.815181 
L 624.814404 75.545032 
L 626.360111 78.449506 
L 627.905817 76.761292 
L 629.451524 83.546026 
L 630.99723 102.3932 
L 632.542936 125.761011 
L 634.088643 88.90087 
L 635.634349 73.984616 
L 637.180055 80.677312 
L 638.725762 74.368439 
L 640.271468 84.555295 
L 641.817175 79.769616 
L 643.362881 123.432527 
L 644.908587 94.510607 
L 646.454294 78.884198 
L 648 98.424479 
L 648 98.424479 
" style="fill:none;stroke:#ff0000;stroke-linecap:square;stroke-opacity:0.7;stroke-width:1.5;"/>
   </g>
   <g id="patch_3">
    <path d="M 90 315 
L 90 43.2 
" style="fill:none;stroke:#000000;stroke-linecap:square;stroke-linejoin:miter;stroke-width:0.8;"/>
   </g>
   <g id="patch_4">
    <path d="M 648 315 
L 648 43.2 
" style="fill:none;stroke:#000000;stroke-linecap:square;stroke-linejoin:miter;stroke-width:0.8;"/>
   </g>
   <g id="patch_5">
    <path d="M 90 315 
L 648 315 
" style="fill:none;stroke:#000000;stroke-linecap:square;stroke-linejoin:miter;stroke-width:0.8;"/>
   </g>
   <g id="patch_6">
    <path d="M 90 43.2 
L 648 43.2 
" style="fill:none;stroke:#000000;stroke-linecap:square;stroke-linejoin:miter;stroke-width:0.8;"/>
   </g>
   <g id="text_17">
    <!-- 411   -->
    <g transform="translate(324.219375 37.2)scale(0.12 -0.12)">
     <defs>
      <path d="M 37.796875 64.3125 
L 12.890625 25.390625 
L 37.796875 25.390625 
z
M 35.203125 72.90625 
L 47.609375 72.90625 
L 47.609375 25.390625 
L 58.015625 25.390625 
L 58.015625 17.1875 
L 47.609375 17.1875 
L 47.609375 0 
L 37.796875 0 
L 37.796875 17.1875 
L 4.890625 17.1875 
L 4.890625 26.703125 
z
" id="DejaVuSans-52"/>
      <path id="DejaVuSans-32"/>
      <path d="M 18.171875 54.6875 
L 18.171875 -20.796875 
L 9.078125 -20.796875 
L 9.078125 54.6875 
z
" id="DejaVuSans-1503"/>
      <path d="M 18.171875 54.6875 
L 18.171875 0 
L 9.078125 0 
L 9.078125 54.6875 
z
" id="DejaVuSans-1493"/>
      <path d="M 47.359375 27.828125 
L 47.359375 0 
L 38.28125 0 
L 38.28125 27.828125 
Q 38.28125 31.390625 37.765625 34.265625 
Q 37.25 37.15625 36 39.71875 
Q 34.765625 42.28125 32.8125 43.984375 
Q 30.859375 45.703125 27.78125 46.703125 
Q 24.703125 47.703125 20.703125 47.703125 
L 4.296875 47.703125 
L 4.296875 54.6875 
L 20.65625 54.6875 
Q 26.8125 54.6875 31.46875 53.390625 
Q 36.140625 52.09375 39.109375 49.828125 
Q 42.09375 47.5625 43.96875 44.109375 
Q 45.84375 40.671875 46.59375 36.734375 
Q 47.359375 32.8125 47.359375 27.828125 
z
" id="DejaVuSans-1512"/>
      <path d="M 21 0 
L 11.8125 0 
L 4.296875 54.6875 
L 13.328125 54.6875 
L 16.890625 28.953125 
Q 19.234375 29 21.0625 29.359375 
Q 22.90625 29.734375 24.265625 30.53125 
Q 25.640625 31.34375 26.609375 32.203125 
Q 27.59375 33.0625 28.296875 34.625 
Q 29 36.1875 29.40625 37.46875 
Q 29.828125 38.765625 30.1875 41.03125 
Q 30.5625 43.3125 30.75 45 
Q 30.953125 46.6875 31.265625 49.640625 
Q 31.59375 52.59375 31.890625 54.6875 
L 39.9375 54.6875 
Q 39.0625 42 37.890625 36.96875 
Q 35.890625 28.609375 30.609375 25.25 
Q 25.984375 22.265625 17.828125 21.96875 
L 19.921875 6.984375 
Q 24.703125 6.984375 28.390625 7.34375 
Q 32.078125 7.71875 35.640625 8.6875 
Q 39.203125 9.671875 41.8125 11.296875 
Q 44.4375 12.9375 46.84375 15.5 
Q 49.265625 18.0625 50.953125 21.625 
Q 52.640625 25.203125 54 30 
Q 55.375 34.8125 56.203125 40.90625 
Q 57.03125 47.015625 57.515625 54.6875 
L 66.546875 54.6875 
Q 65.671875 46.578125 64.640625 40.421875 
Q 63.625 34.28125 62.125 28.703125 
Q 60.640625 23.140625 58.8125 19.15625 
Q 56.984375 15.1875 54.421875 11.84375 
Q 51.859375 8.5 48.703125 6.375 
Q 45.5625 4.25 41.375 2.75 
Q 37.203125 1.265625 32.25 0.625 
Q 27.296875 0 21 0 
z
" id="DejaVuSans-1513"/>
      <path d="M 19.140625 33.40625 
L 19.140625 0 
L 10.109375 0 
L 10.109375 29.6875 
z
M 56.25 27.828125 
L 56.25 0 
L 47.21875 0 
L 47.21875 29.6875 
Q 47.21875 40.234375 44.0625 43.96875 
Q 40.921875 47.703125 31.84375 47.703125 
L 9.078125 47.703125 
L 9.078125 54.6875 
L 31.734375 54.6875 
Q 45.265625 54.6875 50.75 48.578125 
Q 56.25 42.484375 56.25 27.828125 
z
" id="DejaVuSans-1492"/>
      <path d="M 36.328125 6.984375 
L 36.328125 29.59375 
Q 36.328125 33.25 36.0625 35.671875 
Q 35.796875 38.09375 34.859375 40.578125 
Q 33.9375 43.0625 32.25 44.484375 
Q 30.5625 45.90625 27.609375 46.796875 
Q 24.65625 47.703125 20.40625 47.703125 
L 4.296875 47.703125 
L 4.296875 54.6875 
L 20.40625 54.6875 
Q 26.421875 54.6875 30.734375 53.5625 
Q 35.0625 52.4375 37.890625 50.359375 
Q 40.71875 48.296875 42.40625 44.890625 
Q 44.09375 41.5 44.75 37.453125 
Q 45.40625 33.40625 45.40625 27.828125 
L 45.40625 6.984375 
L 53.515625 6.984375 
L 53.515625 0 
L 4.296875 0 
L 4.296875 6.984375 
z
" id="DejaVuSans-1489"/>
      <path d="M 44.140625 40.828125 
L 44.140625 54.6875 
L 53.515625 54.6875 
L 53.515625 40.828125 
Q 53.515625 35.0625 53.046875 30.71875 
Q 52.59375 26.375 51.390625 22.09375 
Q 50.203125 17.828125 48.046875 14.5 
Q 45.90625 11.1875 42.578125 8.078125 
Q 39.265625 4.984375 34.515625 2.390625 
Q 29.78125 -0.203125 23.4375 -2.484375 
L 4.6875 -9.28125 
L 4.6875 -1.03125 
L 18.953125 4.046875 
L 4.296875 54.6875 
L 13.765625 54.6875 
L 27.25 7.125 
Q 33.6875 9.90625 37.203125 13.5625 
Q 40.71875 17.234375 42.421875 23.671875 
Q 44.140625 30.125 44.140625 40.828125 
z
" id="DejaVuSans-1506"/>
      <path d="M 4.296875 54.6875 
L 14.890625 54.6875 
Q 15.09375 54.15625 16.703125 50.3125 
Q 18.3125 46.484375 19.390625 42.671875 
Q 20.75 46.09375 22.625 48.53125 
Q 24.515625 50.984375 26.359375 52.296875 
Q 28.21875 53.609375 30.609375 54.34375 
Q 33.015625 55.078125 34.859375 55.265625 
Q 36.71875 55.46875 39.203125 55.46875 
Q 58.84375 55.46875 58.84375 29.59375 
L 58.84375 0 
L 31.390625 0 
L 31.390625 6.9375 
L 49.75 6.9375 
L 49.75 29.59375 
Q 49.75 39.109375 46.765625 43.671875 
Q 43.796875 48.25 39.0625 48.25 
Q 30.28125 48.25 26.078125 40.4375 
Q 23.734375 35.984375 21.6875 25.921875 
Q 21.578125 25.25 21.34375 24.125 
L 16.546875 0 
L 7.46875 0 
L 11.375 20.40625 
Q 11.53125 21.1875 11.890625 22.96875 
Q 12.25 24.75 12.375 25.40625 
Q 12.5 26.078125 12.671875 27.3125 
Q 12.84375 28.5625 12.90625 29.515625 
Q 12.984375 30.46875 12.984375 31.546875 
Q 12.984375 34.671875 10.71875 41.09375 
Q 8.453125 47.515625 4.296875 54.6875 
z
" id="DejaVuSans-1502"/>
     </defs>
     <use xlink:href="#DejaVuSans-52"/>
     <use x="63.623047" xlink:href="#DejaVuSans-49"/>
     <use x="127.246094" xlink:href="#DejaVuSans-49"/>
     <use x="190.869141" xlink:href="#DejaVuSans-32"/>
     <use x="222.65625" xlink:href="#DejaVuSans-1503"/>
     <use x="249.902344" xlink:href="#DejaVuSans-1493"/>
     <use x="277.148438" xlink:href="#DejaVuSans-1512"/>
     <use x="333.59375" xlink:href="#DejaVuSans-1513"/>
     <use x="404.443359" xlink:href="#DejaVuSans-1492"/>
     <use x="469.775391" xlink:href="#DejaVuSans-32"/>
     <use x="501.5625" xlink:href="#DejaVuSans-1489"/>
     <use x="559.375" xlink:href="#DejaVuSans-1512"/>
     <use x="615.820312" xlink:href="#DejaVuSans-1506"/>
     <use x="678.417969" xlink:href="#DejaVuSans-1502"/>
    </g>
   </g>
   <g id="legend_1">
    <g id="patch_7">
     <path d="M 97 95.234375 
L 221.582812 95.234375 
Q 223.582812 95.234375 223.582812 93.234375 
L 223.582812 50.2 
Q 223.582812 48.2 221.582812 48.2 
L 97 48.2 
Q 95 48.2 95 50.2 
L 95 93.234375 
Q 95 95.234375 97 95.234375 
z
" style="fill:#ffffff;opacity:0.8;stroke:#cccccc;stroke-linejoin:miter;"/>
    </g>
    <g id="line2d_96">
     <path d="M 99 56.298437 
L 119 56.298437 
" style="fill:none;stroke:#008000;stroke-linecap:square;stroke-width:1.5;"/>
    </g>
    <g id="line2d_97"/>
    <g id="text_18">
     <!-- Test-adjusted -->
     <g transform="translate(127 59.798437)scale(0.1 -0.1)">
      <defs>
       <path d="M -0.296875 72.90625 
L 61.375 72.90625 
L 61.375 64.59375 
L 35.5 64.59375 
L 35.5 0 
L 25.59375 0 
L 25.59375 64.59375 
L -0.296875 64.59375 
z
" id="DejaVuSans-84"/>
       <path d="M 44.28125 53.078125 
L 44.28125 44.578125 
Q 40.484375 46.53125 36.375 47.5 
Q 32.28125 48.484375 27.875 48.484375 
Q 21.1875 48.484375 17.84375 46.4375 
Q 14.5 44.390625 14.5 40.28125 
Q 14.5 37.15625 16.890625 35.375 
Q 19.28125 33.59375 26.515625 31.984375 
L 29.59375 31.296875 
Q 39.15625 29.25 43.1875 25.515625 
Q 47.21875 21.78125 47.21875 15.09375 
Q 47.21875 7.46875 41.1875 3.015625 
Q 35.15625 -1.421875 24.609375 -1.421875 
Q 20.21875 -1.421875 15.453125 -0.5625 
Q 10.6875 0.296875 5.421875 2 
L 5.421875 11.28125 
Q 10.40625 8.6875 15.234375 7.390625 
Q 20.0625 6.109375 24.8125 6.109375 
Q 31.15625 6.109375 34.5625 8.28125 
Q 37.984375 10.453125 37.984375 14.40625 
Q 37.984375 18.0625 35.515625 20.015625 
Q 33.0625 21.96875 24.703125 23.78125 
L 21.578125 24.515625 
Q 13.234375 26.265625 9.515625 29.90625 
Q 5.8125 33.546875 5.8125 39.890625 
Q 5.8125 47.609375 11.28125 51.796875 
Q 16.75 56 26.8125 56 
Q 31.78125 56 36.171875 55.265625 
Q 40.578125 54.546875 44.28125 53.078125 
z
" id="DejaVuSans-115"/>
       <path d="M 4.890625 31.390625 
L 31.203125 31.390625 
L 31.203125 23.390625 
L 4.890625 23.390625 
z
" id="DejaVuSans-45"/>
       <path d="M 9.421875 54.6875 
L 18.40625 54.6875 
L 18.40625 -0.984375 
Q 18.40625 -11.421875 14.421875 -16.109375 
Q 10.453125 -20.796875 1.609375 -20.796875 
L -1.8125 -20.796875 
L -1.8125 -13.1875 
L 0.59375 -13.1875 
Q 5.71875 -13.1875 7.5625 -10.8125 
Q 9.421875 -8.453125 9.421875 -0.984375 
z
M 9.421875 75.984375 
L 18.40625 75.984375 
L 18.40625 64.59375 
L 9.421875 64.59375 
z
" id="DejaVuSans-106"/>
      </defs>
      <use xlink:href="#DejaVuSans-84"/>
      <use x="44.083984" xlink:href="#DejaVuSans-101"/>
      <use x="105.607422" xlink:href="#DejaVuSans-115"/>
      <use x="157.707031" xlink:href="#DejaVuSans-116"/>
      <use x="196.916016" xlink:href="#DejaVuSans-45"/>
      <use x="233" xlink:href="#DejaVuSans-97"/>
      <use x="294.279297" xlink:href="#DejaVuSans-100"/>
      <use x="357.755859" xlink:href="#DejaVuSans-106"/>
      <use x="385.539062" xlink:href="#DejaVuSans-117"/>
      <use x="448.917969" xlink:href="#DejaVuSans-115"/>
      <use x="501.017578" xlink:href="#DejaVuSans-116"/>
      <use x="540.226562" xlink:href="#DejaVuSans-101"/>
      <use x="601.75" xlink:href="#DejaVuSans-100"/>
     </g>
    </g>
    <g id="line2d_98">
     <path d="M 99 70.976562 
L 119 70.976562 
" style="fill:none;stroke:#0000ff;stroke-linecap:square;stroke-width:1.5;"/>
    </g>
    <g id="line2d_99"/>
    <g id="text_19">
     <!-- Infections -->
     <g transform="translate(127 74.476562)scale(0.1 -0.1)">
      <defs>
       <path d="M 9.8125 72.90625 
L 19.671875 72.90625 
L 19.671875 0 
L 9.8125 0 
z
" id="DejaVuSans-73"/>
       <path d="M 37.109375 75.984375 
L 37.109375 68.5 
L 28.515625 68.5 
Q 23.6875 68.5 21.796875 66.546875 
Q 19.921875 64.59375 19.921875 59.515625 
L 19.921875 54.6875 
L 34.71875 54.6875 
L 34.71875 47.703125 
L 19.921875 47.703125 
L 19.921875 0 
L 10.890625 0 
L 10.890625 47.703125 
L 2.296875 47.703125 
L 2.296875 54.6875 
L 10.890625 54.6875 
L 10.890625 58.5 
Q 10.890625 67.625 15.140625 71.796875 
Q 19.390625 75.984375 28.609375 75.984375 
z
" id="DejaVuSans-102"/>
       <path d="M 9.421875 54.6875 
L 18.40625 54.6875 
L 18.40625 0 
L 9.421875 0 
z
M 9.421875 75.984375 
L 18.40625 75.984375 
L 18.40625 64.59375 
L 9.421875 64.59375 
z
" id="DejaVuSans-105"/>
      </defs>
      <use xlink:href="#DejaVuSans-73"/>
      <use x="29.492188" xlink:href="#DejaVuSans-110"/>
      <use x="92.871094" xlink:href="#DejaVuSans-102"/>
      <use x="128.076172" xlink:href="#DejaVuSans-101"/>
      <use x="189.599609" xlink:href="#DejaVuSans-99"/>
      <use x="244.580078" xlink:href="#DejaVuSans-116"/>
      <use x="283.789062" xlink:href="#DejaVuSans-105"/>
      <use x="311.572266" xlink:href="#DejaVuSans-111"/>
      <use x="372.753906" xlink:href="#DejaVuSans-110"/>
      <use x="436.132812" xlink:href="#DejaVuSans-115"/>
     </g>
    </g>
    <g id="line2d_100">
     <path d="M 99 85.654687 
L 119 85.654687 
" style="fill:none;stroke:#ff0000;stroke-linecap:square;stroke-opacity:0.7;stroke-width:1.5;"/>
    </g>
    <g id="line2d_101"/>
    <g id="text_20">
     <!-- Reported Positives -->
     <g transform="translate(127 89.154687)scale(0.1 -0.1)">
      <defs>
       <path d="M 44.390625 34.1875 
Q 47.5625 33.109375 50.5625 29.59375 
Q 53.5625 26.078125 56.59375 19.921875 
L 66.609375 0 
L 56 0 
L 46.6875 18.703125 
Q 43.0625 26.03125 39.671875 28.421875 
Q 36.28125 30.8125 30.421875 30.8125 
L 19.671875 30.8125 
L 19.671875 0 
L 9.8125 0 
L 9.8125 72.90625 
L 32.078125 72.90625 
Q 44.578125 72.90625 50.734375 67.671875 
Q 56.890625 62.453125 56.890625 51.90625 
Q 56.890625 45.015625 53.6875 40.46875 
Q 50.484375 35.9375 44.390625 34.1875 
z
M 19.671875 64.796875 
L 19.671875 38.921875 
L 32.078125 38.921875 
Q 39.203125 38.921875 42.84375 42.21875 
Q 46.484375 45.515625 46.484375 51.90625 
Q 46.484375 58.296875 42.84375 61.546875 
Q 39.203125 64.796875 32.078125 64.796875 
z
" id="DejaVuSans-82"/>
       <path d="M 19.671875 64.796875 
L 19.671875 37.40625 
L 32.078125 37.40625 
Q 38.96875 37.40625 42.71875 40.96875 
Q 46.484375 44.53125 46.484375 51.125 
Q 46.484375 57.671875 42.71875 61.234375 
Q 38.96875 64.796875 32.078125 64.796875 
z
M 9.8125 72.90625 
L 32.078125 72.90625 
Q 44.34375 72.90625 50.609375 67.359375 
Q 56.890625 61.8125 56.890625 51.125 
Q 56.890625 40.328125 50.609375 34.8125 
Q 44.34375 29.296875 32.078125 29.296875 
L 19.671875 29.296875 
L 19.671875 0 
L 9.8125 0 
z
" id="DejaVuSans-80"/>
      </defs>
      <use xlink:href="#DejaVuSans-82"/>
      <use x="64.982422" xlink:href="#DejaVuSans-101"/>
      <use x="126.505859" xlink:href="#DejaVuSans-112"/>
      <use x="189.982422" xlink:href="#DejaVuSans-111"/>
      <use x="251.164062" xlink:href="#DejaVuSans-114"/>
      <use x="292.277344" xlink:href="#DejaVuSans-116"/>
      <use x="331.486328" xlink:href="#DejaVuSans-101"/>
      <use x="393.009766" xlink:href="#DejaVuSans-100"/>
      <use x="456.486328" xlink:href="#DejaVuSans-32"/>
      <use x="488.273438" xlink:href="#DejaVuSans-80"/>
      <use x="544.951172" xlink:href="#DejaVuSans-111"/>
      <use x="606.132812" xlink:href="#DejaVuSans-115"/>
      <use x="658.232422" xlink:href="#DejaVuSans-105"/>
      <use x="686.015625" xlink:href="#DejaVuSans-116"/>
      <use x="725.224609" xlink:href="#DejaVuSans-105"/>
      <use x="753.007812" xlink:href="#DejaVuSans-118"/>
      <use x="812.1875" xlink:href="#DejaVuSans-101"/>
      <use x="873.710938" xlink:href="#DejaVuSans-115"/>
     </g>
    </g>
   </g>
  </g>
 </g>
 <defs>
  <clipPath id="p7d7373d610">
   <rect height="271.8" width="558" x="90" y="43.2"/>
  </clipPath>
 </defs>
</svg>
